<?xml version="1.0" encoding="UTF-8" standalone="no"?><!-- Generator: Gravit.io --><svg xmlns="http://www.w3.org/2000/svg" xmlns:xlink="http://www.w3.org/1999/xlink" style="isolation:isolate" viewBox="673.275 379.346 200.932 156.77" width="200.932pt" height="156.77pt"><defs><clipPath id="_clipPath_aGOgFC4sBITqPCgRThg76C6CDqR932Nu"><rect x="673.275" y="379.346" width="200.932" height="156.77"/></clipPath></defs><g clip-path="url(#_clipPath_aGOgFC4sBITqPCgRThg76C6CDqR932Nu)"><rect x="673.275" y="379.346" width="200.932" height="156.77" style="fill:rgb(6,6,6)" fill-opacity="0"/><g><path d=" M 759.885 381.346 L 761.985 385.436 C 762.131 385.714 762.139 386.042 762.008 386.327 C 761.878 386.612 761.622 386.821 761.315 386.896 Q 752.515 389.086 743.685 392.726 Q 731.455 397.766 721.985 406.986 Q 717.845 411.006 714.935 415.976 Q 712.705 419.776 710.165 423.376 Q 704.045 432.036 702.655 444.226 Q 702.435 446.226 703.795 447.706 Q 704.505 448.476 704.435 450.086 Q 704.275 453.746 702.305 456.846 Q 700.815 457.236 699.435 457.886 Q 697.755 458.676 696.575 458.736 Q 695.415 458.806 694.245 458.716 Q 692.965 458.626 691.995 458.996 Q 684.605 461.826 679.635 468.096 Q 678.835 460.996 683.655 456.896 Q 685.855 455.016 688.465 454.796 Q 691.145 454.576 693.885 455.716 C 694.067 455.789 694.274 455.772 694.441 455.67 C 694.609 455.567 694.718 455.391 694.735 455.196 Q 696.775 426.636 713.685 406.176 C 713.884 405.935 714.238 405.896 714.485 406.086 Q 716.335 407.536 716.355 407.066 Q 716.355 406.866 715.755 406.116 Q 715.475 405.776 715.315 405.376 C 715.161 405.092 715.234 404.753 715.495 404.536 Q 724.035 395.286 735.215 389.416 Q 745.225 384.156 758.285 381.036 Q 759.385 380.766 759.885 381.346 Z " fill="rgb(234,247,144)"/><path d=" M 808.595 386.886 Q 830.805 396.926 843.655 417.286 Q 844.555 418.696 845.345 419.386 Q 845.455 422.386 844.025 425.046 Q 843.075 426.826 842.325 424.946 Q 838.295 414.776 829.315 407.116 Q 828.455 406.386 827.385 406.346 Q 825.235 403.656 822.345 401.806 Q 815.015 395.216 805.845 391.636 Q 806.145 390.716 806.915 390.126 C 807.19 389.939 807.358 389.658 807.375 389.356 Q 807.525 387.896 808.595 386.886 Z " fill="rgb(235,243,164)"/><path d=" M 847.635 448.096 Q 849.985 456.336 849.095 465.846 Q 847.705 480.776 840.885 493.096 Q 839.585 491.426 837.595 490.556 Q 842.115 483.976 843.565 476.086 Q 846.745 458.746 842.555 441.596 Q 843.255 441.096 843.535 441.796 Q 843.725 442.276 843.985 442.666 L 847.635 448.096 Z " fill="rgb(105,176,177)"/><path d=" M 827.385 406.346 Q 828.455 406.386 829.315 407.116 Q 838.295 414.776 842.325 424.946 Q 843.075 426.826 844.025 425.046 Q 845.455 422.386 845.345 419.386 Q 850.305 414.796 856.485 414.406 Q 862.465 414.036 867.325 417.806 Q 871.975 421.416 873.555 427.206 Q 874.965 432.396 873.325 437.956 Q 869.465 451.016 853.555 450.096 Q 851.165 447.386 847.635 448.096 L 843.985 442.666 Q 843.725 442.276 843.535 441.796 Q 843.255 441.096 842.555 441.596 Q 840.465 421.526 827.385 406.346 Z " fill="rgb(127,208,207)"/><path d=" M 702.305 456.846 L 701.475 464.036 Q 701.135 466.926 697.925 466.536 Q 692.055 465.826 687.765 469.576 C 687.522 469.776 687.425 470.093 687.515 470.386 Q 688.365 473.426 691.845 472.846 Q 694.055 472.476 695.385 473.846 Q 693.475 475.826 691.345 476.096 Q 681.825 477.296 679.635 468.096 Q 684.605 461.826 691.995 458.996 Q 692.965 458.626 694.245 458.716 Q 695.415 458.806 696.575 458.736 Q 697.755 458.676 699.435 457.886 Q 700.815 457.236 702.305 456.846 Z " fill="rgb(127,208,207)"/><path d=" M 859.066 380.51 C 861.641 380.402 863.826 382.549 863.941 385.3 C 864.056 388.052 862.059 390.373 859.484 390.481 C 856.909 390.589 854.725 388.443 854.609 385.691 C 854.494 382.94 856.491 380.618 859.066 380.51 Z " fill="rgb(122,208,218)"/><path d=" M 677.795 439.607 C 680.35 439.553 682.474 441.862 682.534 444.759 C 682.595 447.656 680.57 450.051 678.015 450.105 C 675.46 450.158 673.337 447.85 673.276 444.953 C 673.216 442.056 675.24 439.66 677.795 439.607 Z " fill="rgb(122,208,218)"/><path d=" M 865.495 464.179 C 867.691 464.402 869.269 466.612 869.015 469.11 C 868.761 471.608 866.772 473.456 864.575 473.232 C 862.379 473.009 860.802 470.8 861.056 468.301 C 861.309 465.803 863.299 463.956 865.495 464.179 Z " fill="rgb(122,208,218)"/><path d=" M 722.805 512.096 Q 733.715 519.176 745.655 524.296 Q 750.055 526.176 754.245 528.496 Q 757.005 530.026 759.235 530.486 Q 761.535 530.956 764.595 531.346 Q 765.445 531.456 764.885 532.346 Q 763.995 533.446 763.855 534.746 C 763.836 534.933 763.74 535.103 763.59 535.217 C 763.441 535.33 763.251 535.377 763.065 535.346 Q 725.445 528.616 705.905 497.286 Q 699.465 486.956 697.305 474.346 Q 697.145 470.856 699.655 473.286 Q 701.535 475.106 704.705 482.436 Q 711.665 498.546 722.805 512.096 Z " fill="rgb(227,244,149)"/><path d=" M 837.595 490.556 Q 839.585 491.426 840.885 493.096 Q 832.865 507.926 818.135 516.116 Q 817.355 516.556 817.595 517.306 Q 816.795 517.216 816.095 517.556 Q 811.585 520.436 807.315 523.666 Q 805.105 525.326 803.495 525.946 Q 801.565 526.666 799.155 527.156 Q 793.815 528.246 787.645 530.876 Q 779.815 534.226 771.335 533.166 Q 771.105 533.136 770.445 532.776 L 768.345 531.636 Q 780.555 530.496 791.465 524.886 C 791.754 524.758 792.078 524.696 792.405 524.706 Q 796.435 524.966 799.905 522.156 Q 806.185 517.086 810.315 512.826 Q 811.875 511.226 813.485 510.746 Q 814.745 510.376 816.055 510.206 Q 817.695 510.006 818.495 509.486 Q 820.745 508.056 821.515 505.276 Q 823.395 498.466 827.415 492.646 Q 828.575 490.966 830.335 490.886 L 837.595 490.556 Z " fill="rgb(88,168,169)"/><path d=" M 690.955 493.986 C 693.1 494.805 694.089 497.441 693.162 499.87 C 692.234 502.298 689.74 503.605 687.595 502.786 C 685.45 501.967 684.462 499.33 685.389 496.902 C 686.316 494.473 688.811 493.167 690.955 493.986 Z " fill="rgb(69,76,115)"/><path d=" M 775.845 385.806 L 775.145 385.946 C 774.822 385.975 774.493 385.947 774.185 385.866 Q 770.115 384.496 766.245 386.036 Q 764.045 386.916 763.165 385.046 L 761.305 381.096 Q 761.615 380.306 762.405 380.296 Q 763.215 380.286 763.265 380.286 Q 769.425 379.386 776.305 379.346 C 776.522 379.341 776.729 379.432 776.867 379.592 C 777.005 379.751 777.06 379.963 777.015 380.166 L 775.845 385.806 Z " fill="rgb(233,244,151)"/><path d=" M 808.595 386.886 Q 807.525 387.896 807.375 389.356 C 807.358 389.658 807.19 389.939 806.915 390.126 Q 806.145 390.716 805.845 391.636 Q 799.915 391.046 797.595 390.346 Q 788.945 387.716 779.995 386.436 Q 779.915 386.426 778.705 386.436 Q 777.885 386.446 777.305 385.846 L 778.335 379.906 C 778.373 379.634 778.616 379.429 778.905 379.426 Q 794.525 380.116 808.595 386.886 Z " fill="rgb(233,244,151)"/><path d=" M 816.095 517.556 L 820.555 521.316 C 820.687 521.422 820.757 521.583 820.743 521.748 C 820.729 521.913 820.633 522.061 820.485 522.146 Q 795.725 538.676 766.095 535.646 C 765.76 535.606 765.471 535.425 765.325 535.166 Q 764.655 533.916 765.305 532.346 Q 766.135 530.476 768.345 531.636 L 770.445 532.776 Q 771.105 533.136 771.335 533.166 Q 779.815 534.226 787.645 530.876 Q 793.815 528.246 799.155 527.156 Q 801.565 526.666 803.495 525.946 Q 805.105 525.326 807.315 523.666 Q 811.585 520.436 816.095 517.556 Z " fill="rgb(233,244,151)"/><path d=" M 822.345 401.806 Q 825.235 403.656 827.385 406.346 Q 840.465 421.526 842.555 441.596 Q 846.745 458.746 843.565 476.086 Q 842.115 483.976 837.595 490.556 L 830.335 490.886 Q 828.575 490.966 827.415 492.646 Q 823.395 498.466 821.515 505.276 Q 820.745 508.056 818.495 509.486 Q 817.695 510.006 816.055 510.206 Q 814.745 510.376 813.485 510.746 Q 811.875 511.226 810.315 512.826 Q 806.185 517.086 799.905 522.156 Q 796.435 524.966 792.405 524.706 C 792.078 524.696 791.754 524.758 791.465 524.886 Q 780.555 530.496 768.345 531.636 Q 766.135 530.476 765.305 532.346 L 764.885 532.346 Q 765.445 531.456 764.595 531.346 Q 761.535 530.956 759.235 530.486 Q 757.005 530.026 754.245 528.496 Q 750.055 526.176 745.655 524.296 Q 733.715 519.176 722.805 512.096 Q 725.295 510.196 727.345 510.846 Q 730.065 511.706 732.795 512.336 C 733.06 512.39 733.336 512.332 733.555 512.176 Q 739.395 507.956 744.075 508.336 Q 749.665 508.796 753.845 507.846 Q 756.745 507.196 758.765 504.266 Q 762.015 499.556 765.605 495.106 Q 767.545 492.696 770.415 491.526 Q 774.115 490.036 777.485 487.926 C 777.771 487.747 777.979 487.482 778.075 487.176 Q 780.125 481.356 781.655 479.406 Q 783.975 476.456 787.855 476.776 Q 790.735 477.006 794.425 476.476 C 794.935 476.404 795.332 476.002 795.395 475.496 Q 796.915 463.136 804.615 455.616 Q 807.135 453.156 808.185 450.276 Q 808.785 448.646 807.105 449.096 Q 802.035 450.436 798.755 454.506 Q 794.145 460.236 787.315 462.916 C 787.023 463.025 786.693 462.988 786.435 462.816 Q 783.635 460.716 785.405 457.656 Q 787.575 453.926 792.415 450.856 Q 797.125 447.866 801.785 444.786 Q 804.865 442.746 807.235 438.516 Q 810.295 433.076 810.375 432.956 Q 813.615 427.856 816.875 422.746 Q 818.695 419.886 818.795 417.966 Q 818.925 415.226 817.255 412.716 Q 816.405 411.446 816.195 408.836 C 816.156 408.364 816.34 407.902 816.693 407.584 C 817.046 407.267 817.527 407.131 817.995 407.216 Q 823.735 408.266 822.345 401.806 Z " fill="rgb(50,49,88)"/><path d=" M 861.254 396.321 C 863.567 397.733 864.24 400.853 862.756 403.284 C 861.272 405.715 858.19 406.542 855.877 405.13 C 853.564 403.718 852.891 400.598 854.374 398.168 C 855.858 395.737 858.941 394.909 861.254 396.321 Z " fill="rgb(72,90,130)"/><path d=" M 761.305 381.096 L 763.165 385.046 Q 764.045 386.916 766.245 386.036 Q 770.115 384.496 774.185 385.866 C 774.493 385.947 774.822 385.975 775.145 385.946 L 775.845 385.806 Q 776.605 386.296 777.305 385.846 Q 777.885 386.446 778.705 386.436 Q 779.915 386.426 779.995 386.436 Q 788.945 387.716 797.595 390.346 Q 799.915 391.046 805.845 391.636 Q 815.015 395.216 822.345 401.806 Q 823.735 408.266 817.995 407.216 C 817.527 407.131 817.046 407.267 816.693 407.584 C 816.34 407.902 816.156 408.364 816.195 408.836 Q 816.405 411.446 817.255 412.716 Q 818.925 415.226 818.795 417.966 Q 818.695 419.886 816.875 422.746 Q 813.615 427.856 810.375 432.956 Q 810.295 433.076 807.235 438.516 Q 804.865 442.746 801.785 444.786 Q 797.125 447.866 792.415 450.856 Q 787.575 453.926 785.405 457.656 Q 783.635 460.716 786.435 462.816 C 786.693 462.988 787.023 463.025 787.315 462.916 Q 794.145 460.236 798.755 454.506 Q 802.035 450.436 807.105 449.096 Q 808.785 448.646 808.185 450.276 Q 807.135 453.156 804.615 455.616 Q 796.915 463.136 795.395 475.496 C 795.332 476.002 794.935 476.404 794.425 476.476 Q 790.735 477.006 787.855 476.776 Q 783.975 476.456 781.655 479.406 Q 780.125 481.356 778.075 487.176 C 777.979 487.482 777.771 487.747 777.485 487.926 Q 774.115 490.036 770.415 491.526 Q 767.545 492.696 765.605 495.106 Q 762.015 499.556 758.765 504.266 Q 756.745 507.196 753.845 507.846 Q 749.665 508.796 744.075 508.336 Q 739.395 507.956 733.555 512.176 C 733.336 512.332 733.06 512.39 732.795 512.336 Q 730.065 511.706 727.345 510.846 Q 725.295 510.196 722.805 512.096 Q 711.665 498.546 704.705 482.436 Q 701.535 475.106 699.655 473.286 Q 697.145 470.856 697.305 474.346 Q 697.185 471.316 695.385 473.846 Q 694.055 472.476 691.845 472.846 Q 688.365 473.426 687.515 470.386 C 687.425 470.093 687.522 469.776 687.765 469.576 Q 692.055 465.826 697.925 466.536 Q 701.135 466.926 701.475 464.036 L 702.305 456.846 Q 704.275 453.746 704.435 450.086 Q 704.505 448.476 703.795 447.706 Q 702.435 446.226 702.655 444.226 Q 704.045 432.036 710.165 423.376 Q 712.705 419.776 714.935 415.976 Q 717.845 411.006 721.985 406.986 Q 731.455 397.766 743.685 392.726 Q 752.515 389.086 761.315 386.896 C 761.622 386.821 761.878 386.612 762.008 386.327 C 762.139 386.042 762.131 385.714 761.985 385.436 L 759.885 381.346 Q 760.505 380.956 761.305 381.096 Z " fill="rgb(80,145,152)"/><path d=" M 853.555 450.096 Q 854.975 458.176 853.595 468.596 Q 849.805 497.266 827.655 516.656 Q 824.875 519.096 823.035 520.116 C 822.761 520.238 822.425 520.253 822.135 520.156 L 817.595 517.306 Q 817.355 516.556 818.135 516.116 Q 832.865 507.926 840.885 493.096 Q 847.705 480.776 849.095 465.846 Q 849.985 456.336 847.635 448.096 Q 851.165 447.386 853.555 450.096 Z " fill="rgb(237,242,178)"/><path d=" M 747.305 409.636 Q 743.415 406.226 738.855 408.566 Q 737.625 409.196 737.115 409.186 Q 736.005 409.156 736.055 407.726 Q 736.085 406.986 736.555 406.186 Q 739.565 401.096 746.345 400.846 Q 752.665 400.616 753.955 405.406 Q 754.645 407.946 753.285 409.956 Q 751.205 413.046 747.305 409.636 Z " fill="rgb(234,244,118)"/><path d=" M 730.845 413.056 Q 729.365 414.656 725.655 418.156 Q 720.255 423.266 716.755 430.456 Q 715.015 434.066 718.275 436.166 Q 719.545 436.976 720.135 438.346 Q 717.955 442.486 714.315 441.466 Q 711.825 440.766 710.745 438.246 Q 709.725 435.896 710.085 433.096 Q 711.385 422.846 716.875 414.376 Q 719.555 410.226 722.575 409.196 Q 727.325 407.566 730.845 413.056 Z " fill="rgb(234,244,118)"/><path d=" M 851.085 432.666 Q 850.355 431.556 849.345 431.056 C 849.065 430.924 848.875 430.656 848.846 430.35 C 848.817 430.044 848.954 429.746 849.205 429.566 Q 852.255 427.266 853.965 424.126 Q 857.805 417.066 863.625 422.826 Q 867.605 426.766 870.135 431.796 Q 873.425 438.346 867.675 442.636 Q 865.065 444.576 861.835 445.096 Q 859.945 445.396 858.645 444.006 Q 856.955 442.206 855.245 440.176 Q 852.985 437.486 846.355 438.146 C 845.561 438.217 844.85 437.659 844.735 436.876 Q 844.685 436.586 845.575 436.106 Q 845.975 435.886 846.645 435.736 Q 849.155 435.176 850.985 433.446 C 851.204 433.245 851.246 432.915 851.085 432.666 Z " fill="rgb(90,160,178)"/><path d=" M 719.885 450.096 Q 719.595 450.826 719.015 450.596 C 718.747 450.526 718.449 450.545 718.205 450.646 Q 711.985 455.596 710.495 463.166 Q 709.875 466.296 710.965 468.916 Q 712.125 471.686 714.345 473.886 Q 716.665 476.976 714.785 479.356 Q 713.575 480.876 711.845 480.896 Q 709.915 480.906 708.655 478.806 Q 704.885 472.526 705.825 465.126 Q 706.795 457.476 710.615 450.776 Q 712.195 448.016 716.095 448.346 Q 718.765 448.576 719.885 450.096 Z " fill="rgb(225,237,127)"/><path d=" M 730.845 413.056 Q 732.825 415.916 736.035 418.576 Q 737.645 419.906 736.175 421.386 Q 728.425 429.196 721.905 436.906 Q 720.825 438.196 720.135 438.346 Q 719.545 436.976 718.275 436.166 Q 715.015 434.066 716.755 430.456 Q 720.255 423.266 725.655 418.156 Q 729.365 414.656 730.845 413.056 Z " fill="rgb(142,194,138)"/><path d=" M 719.885 450.096 Q 720.815 452.306 719.795 454.536 Q 716.965 460.756 714.855 467.246 Q 714.425 468.546 714.555 470.506 Q 714.675 472.206 714.345 473.886 Q 712.125 471.686 710.965 468.916 Q 709.875 466.296 710.495 463.166 Q 711.985 455.596 718.205 450.646 C 718.449 450.545 718.747 450.526 719.015 450.596 Q 719.595 450.826 719.885 450.096 Z " fill="rgb(142,194,138)"/><path d=" M 763.17 428.381 C 762.171 427.152 762.626 425.125 764.185 423.858 C 765.744 422.591 767.821 422.561 768.82 423.79 C 769.819 425.019 769.364 427.046 767.805 428.313 C 766.246 429.58 764.169 429.611 763.17 428.381 Z " fill="rgb(228,234,140)"/><path d=" M 735.259 446.447 C 736.963 447.877 737.027 450.61 735.402 452.546 C 733.778 454.483 731.075 454.894 729.371 453.464 C 727.667 452.034 727.603 449.302 729.228 447.365 C 730.853 445.429 733.555 445.018 735.259 446.447 Z " fill="rgb(228,234,140)"/><path d=" M 784.595 409.886 Q 788.525 411.906 788.105 415.556 Q 787.735 418.696 784.925 419.876 Q 781.935 421.126 778.685 418.746 Q 777.465 417.856 777.385 416.346 Q 778.525 415.926 779.665 416.256 Q 783.245 417.306 784.095 413.596 Q 784.605 411.366 784.595 409.886 Z " fill="rgb(141,217,205)"/><path d=" M 783.135 439.096 Q 787.045 446.376 782.245 451.456 Q 779.785 454.056 776.565 453.736 Q 771.875 453.266 770.635 447.596 L 773.665 447.046 C 773.996 446.961 774.233 446.716 774.265 446.426 Q 775.375 441.786 780.285 441.286 Q 782.545 441.046 783.135 439.096 Z " fill="rgb(141,217,205)"/><path d=" M 744.095 466.136 Q 746.125 466.166 747.655 468.036 Q 751.355 472.526 749.295 476.956 Q 748.135 479.446 745.635 480.406 Q 743.015 481.416 740.225 480.546 Q 738.215 479.916 737.225 478.216 Q 736.215 476.486 736.135 474.346 Q 738.605 475.256 739.845 473.846 Q 742.165 471.186 744.535 467.036 Q 744.895 466.396 744.095 466.136 Z " fill="rgb(141,217,205)"/><path d=" M 784.595 409.886 Q 784.605 411.366 784.095 413.596 Q 783.245 417.306 779.665 416.256 Q 778.525 415.926 777.385 416.346 Q 776.815 408.496 784.595 409.886 Z " fill="rgb(227,244,149)"/><path d=" M 783.135 439.096 Q 782.545 441.046 780.285 441.286 Q 775.375 441.786 774.265 446.426 C 774.233 446.716 773.996 446.961 773.665 447.046 L 770.635 447.596 Q 769.675 441.186 774.905 437.906 Q 779.595 434.976 783.135 439.096 Z " fill="rgb(227,244,149)"/><path d=" M 744.095 466.136 Q 744.895 466.396 744.535 467.036 Q 742.165 471.186 739.845 473.846 Q 738.605 475.256 736.135 474.346 Q 736.145 466.366 744.095 466.136 Z " fill="rgb(227,244,149)"/><path d=" M 816.18 470.959 C 813.916 470.293 812.076 468.833 811.115 466.94 C 810.154 465.047 810.163 462.898 811.138 461.027 C 811.61 457.084 815.653 454.223 820.23 454.593 C 822.494 455.258 824.335 456.718 825.295 458.611 C 826.256 460.504 826.248 462.653 825.272 464.525 C 824.8 468.467 820.757 471.329 816.18 470.959 Z " fill="rgb(107,187,202)"/><path d=" M 794.682 498.493 C 797.651 497.311 801.107 498.979 802.395 502.215 C 803.683 505.451 802.317 509.037 799.348 510.219 C 796.379 511.4 792.923 509.732 791.636 506.497 C 790.348 503.261 791.713 499.674 794.682 498.493 Z " fill="rgb(107,187,202)"/><path d=" M 765.535 517.886 Q 763.895 517.136 763.355 515.936 Q 762.875 514.856 763.555 513.306 Q 765.165 509.676 769.375 508.836 C 769.496 508.811 769.622 508.843 769.715 508.923 C 769.809 509.004 769.861 509.122 769.855 509.246 Q 769.605 513.476 767.375 517.296 C 767.004 517.936 766.209 518.191 765.535 517.886 Z " fill="rgb(72,90,130)"/><path d=" M 820.815 419.986 Q 819.895 419.246 819.825 417.866 Q 819.775 416.876 819.685 416.346 Q 819.315 414.056 821.125 415.196 Q 821.845 415.636 822.105 416.406 Q 822.645 417.946 822.085 419.616 C 822.001 419.862 821.8 420.052 821.547 420.126 C 821.295 420.2 821.022 420.147 820.815 419.986 Z " fill="rgb(80,145,152)"/><path d=" M 795.385 481.521 C 796.46 482.456 796.127 484.601 794.642 486.308 C 793.158 488.016 791.08 488.644 790.005 487.71 C 788.931 486.776 789.264 484.631 790.748 482.923 C 792.233 481.215 794.31 480.587 795.385 481.521 Z " fill="rgb(80,145,152)"/><path d=" M 819.2 458.723 C 820.656 458.379 822.212 459.683 822.673 461.632 C 823.133 463.582 822.326 465.444 820.87 465.788 C 819.415 466.132 817.859 464.829 817.398 462.879 C 816.937 460.929 817.745 459.067 819.2 458.723 Z " fill="rgb(69,125,153)"/></g></g></svg>