<?xml version="1.0" encoding="UTF-8" standalone="no"?><!-- Generator: Gravit.io --><svg xmlns="http://www.w3.org/2000/svg" xmlns:xlink="http://www.w3.org/1999/xlink" style="isolation:isolate" viewBox="112.541 184.401 154.386 117.598" width="154.386pt" height="117.598pt"><defs><clipPath id="_clipPath_v4KVPyqiVeaTzFIFWw9eSkqBvIk2BSRL"><rect x="112.541" y="184.401" width="154.386" height="117.598"/></clipPath></defs><g clip-path="url(#_clipPath_v4KVPyqiVeaTzFIFWw9eSkqBvIk2BSRL)"><path d=" M 186.368 184.403 L 191.408 184.943 Q 191.548 186.103 190.418 186.793 L 188.408 191.113 Q 165.248 192.673 149.068 209.063 Q 138.888 219.373 135.198 233.403 Q 134.238 236.583 134.448 239.903 Q 133.248 248.113 134.908 256.253 Q 136.038 257.303 136.198 258.653 Q 135.548 260.583 136.448 262.403 Q 137.318 266.143 134.788 268.563 C 134.482 268.791 134.304 269.085 134.288 269.393 Q 133.738 271.803 135.558 270.513 Q 135.738 270.383 136.538 269.553 Q 138.018 268.013 140.188 269.123 Q 140.518 271.463 142.658 273.113 Q 143.798 275.333 145.548 276.673 Q 149.138 282.183 154.448 285.653 Q 154.968 286.563 155.908 286.943 Q 161.318 290.163 159.618 296.153 Q 142.378 288.373 132.618 272.153 Q 132.798 269.993 130.948 268.653 L 126.828 258.753 L 126.368 257.153 L 125.648 251.633 Q 122.088 220.333 144.948 199.403 Q 162.738 184.213 186.368 184.403 Z " fill="rgb(171,218,104)"/><path d=" M 224.908 206.613 Q 248.608 231.583 238.868 265.403 L 234.868 266.933 C 234.524 267.088 234.264 267.313 234.128 267.573 Q 232.338 270.293 230.538 273.003 Q 228.538 275.993 226.398 277.993 Q 220.618 283.393 213.658 287.233 Q 213.338 287.403 212.988 287.903 Q 212.538 288.533 211.718 288.603 C 211.385 288.586 211.071 288.469 210.838 288.273 Q 208.568 286.283 208.468 283.213 C 208.457 282.911 208.629 282.631 208.908 282.493 Q 211.368 281.243 213.868 280.063 Q 221.958 276.253 226.818 268.753 Q 231.498 261.523 235.818 254.073 Q 237.198 251.673 236.918 249.013 C 236.903 248.855 236.805 248.717 236.662 248.649 C 236.518 248.581 236.349 248.594 236.218 248.683 Q 233.388 250.533 231.028 252.203 Q 230.948 252.263 229.058 253.883 Q 227.208 255.453 224.658 255.653 Q 222.668 255.813 223.158 253.653 Q 223.668 251.433 222.248 249.773 C 222.065 249.597 221.761 249.47 221.408 249.423 L 214.468 248.833 Q 211.038 246.393 210.408 242.823 Q 209.798 239.333 212.168 236.483 Q 214.858 233.243 219.658 232.943 Q 223.338 233.783 226.488 235.853 Q 229.398 237.763 231.768 235.213 Q 232.868 234.023 232.448 230.683 Q 231.858 226.013 231.468 221.323 Q 231.328 219.633 230.748 218.223 Q 230.138 216.753 229.438 215.273 C 229.29 215.046 229.044 214.886 228.759 214.834 C 228.475 214.783 228.18 214.844 227.948 215.003 L 222.708 218.973 Q 221.078 220.203 221.668 218.123 L 224.908 206.613 Z " fill="rgb(33,80,82)"/><path d=" M 164.738 225.563 Q 164.918 229.503 167.028 232.253 Q 169.008 234.823 172.638 235.813 Q 179.528 237.693 185.158 232.113 Q 186.588 231.993 186.128 233.743 Q 182.828 236.503 178.888 237.773 Q 174.628 239.143 170.948 237.693 Q 166.478 235.943 163.998 231.323 Q 162.198 227.963 164.738 225.563 Z " fill="rgb(33,80,82)"/><path d=" M 220.698 202.403 Q 223.208 204.093 224.908 206.613 L 221.668 218.123 Q 221.078 220.203 222.708 218.973 L 227.948 215.003 C 228.18 214.844 228.475 214.783 228.759 214.834 C 229.044 214.886 229.29 215.046 229.438 215.273 Q 230.138 216.753 230.748 218.223 Q 231.328 219.633 231.468 221.323 Q 231.858 226.013 232.448 230.683 Q 232.868 234.023 231.768 235.213 Q 229.398 237.763 226.488 235.853 Q 223.338 233.783 219.658 232.943 Q 220.638 232.573 220.448 231.683 Q 220.328 231.123 219.698 230.713 Q 217.258 229.133 212.908 229.153 Q 197.608 229.223 186.128 233.743 Q 186.588 231.993 185.158 232.113 Q 185.498 231.553 186.018 231.263 Q 189.988 230.173 192.668 226.853 C 192.866 226.607 193.137 226.42 193.448 226.313 Q 196.128 225.403 198.248 223.433 Q 200.068 221.753 198.158 220.173 Q 197.268 219.433 195.388 218.803 Q 194.978 218.673 195.398 218.723 Q 200.368 219.423 204.628 217.493 Q 206.138 216.813 211.108 213.733 Q 214.068 211.893 217.268 209.403 C 217.657 209.099 217.897 208.644 217.928 208.153 Q 218.128 204.803 220.698 202.403 Z " fill="rgb(40,98,94)"/><path d=" M 238.868 265.403 Q 232.018 284.513 213.908 293.613 Q 196.328 301.593 177.408 296.863 Q 177.168 295.353 176.628 293.933 Q 176.278 293.033 175.118 291.813 Q 174.148 290.783 173.588 289.593 Q 172.558 287.383 170.168 286.903 Q 156.858 284.243 145.548 276.673 Q 143.798 275.333 142.658 273.113 Q 142.708 271.753 144.288 270.963 Q 147.278 275.213 152.158 276.863 L 158.298 280.323 Q 158.768 280.593 159.218 280.593 Q 166.438 280.613 173.218 283.093 Q 181.578 286.143 189.768 284.283 Q 193.518 283.423 201.038 280.473 Q 207.148 278.073 211.598 274.843 Q 216.478 271.283 219.168 265.873 Q 220.928 262.323 222.418 258.633 C 222.542 258.339 222.499 258.002 222.306 257.747 C 222.113 257.493 221.798 257.358 221.478 257.393 Q 208.108 258.903 194.158 259.153 Q 185.288 259.313 175.248 263.413 Q 170.108 250.123 155.828 254.783 Q 149.118 256.983 149.088 264.153 Q 149.058 269.503 153.098 272.463 Q 157.908 276.003 164.158 274.903 Q 170.048 273.873 172.868 269.653 Q 172.488 272.673 169.218 274.463 Q 164.638 276.983 160.668 277.143 Q 155.568 277.333 151.948 273.903 Q 150.938 272.123 149.618 270.573 Q 147.848 268.503 147.468 267.213 Q 146.538 264.103 147.728 260.863 C 147.794 260.744 147.801 260.605 147.748 260.481 C 147.695 260.357 147.586 260.26 147.448 260.213 Q 146.408 259.883 145.368 260.403 Q 140.608 260.383 136.198 258.653 Q 136.038 257.303 134.908 256.253 L 140.318 255.803 Q 142.388 257.033 145.908 256.653 Q 146.908 256.543 151.778 254.203 Q 162.418 249.103 171.748 255.853 C 171.994 256.022 172.316 256.049 172.588 255.923 Q 177.208 253.543 181.658 253.153 Q 191.008 252.323 204.908 252.153 Q 209.038 252.103 214.468 248.833 L 221.408 249.423 C 221.761 249.47 222.065 249.597 222.248 249.773 Q 223.668 251.433 223.158 253.653 Q 222.668 255.813 224.658 255.653 Q 227.208 255.453 229.058 253.883 Q 230.948 252.263 231.028 252.203 Q 233.388 250.533 236.218 248.683 C 236.349 248.594 236.518 248.581 236.662 248.649 C 236.805 248.717 236.903 248.855 236.918 249.013 Q 237.198 251.673 235.818 254.073 Q 231.498 261.523 226.818 268.753 Q 221.958 276.253 213.868 280.063 Q 211.368 281.243 208.908 282.493 C 208.629 282.631 208.457 282.911 208.468 283.213 Q 208.568 286.283 210.838 288.273 C 211.071 288.469 211.385 288.586 211.718 288.603 Q 212.538 288.533 212.988 287.903 Q 213.338 287.403 213.658 287.233 Q 220.618 283.393 226.398 277.993 Q 228.538 275.993 230.538 273.003 Q 232.338 270.293 234.128 267.573 C 234.264 267.313 234.524 267.088 234.868 266.933 L 238.868 265.403 Z " fill="rgb(40,98,94)"/><path d=" M 253.698 213.653 Q 257.518 224.243 246.408 225.943 Q 245.078 225.453 245.858 224.563 C 246.065 224.369 246.373 224.237 246.718 224.193 Q 250.168 223.923 251.848 221.343 Q 254.348 217.483 249.808 215.183 Q 244.188 210.523 240.218 216.963 Q 239.778 217.693 238.408 217.443 Q 237.738 216.863 237.618 215.903 Q 238.958 211.753 242.848 210.343 Q 249.558 207.893 253.698 213.653 Z " fill="rgb(174,226,147)"/><path d=" M 186.018 231.263 Q 185.498 231.553 185.158 232.113 Q 179.528 237.693 172.638 235.813 Q 169.008 234.823 167.028 232.253 Q 164.918 229.503 164.738 225.563 Q 165.858 218.143 172.848 216.343 Q 178.488 214.883 183.078 217.753 Q 186.608 219.963 187.498 223.463 Q 188.458 227.303 186.018 231.263 Z " fill="rgb(174,226,147)"/><path d=" M 124.988 247.973 Q 121.128 247.983 118.718 250.343 Q 118.678 250.383 116.738 252.073 Q 115.598 253.083 115.498 254.553 Q 115.368 256.483 117.078 257.523 Q 118.778 258.553 121.158 258.153 Q 124.868 257.523 126.368 257.153 L 126.828 258.753 Q 123.878 261.553 120.348 261.213 Q 117.108 260.893 114.728 258.293 Q 111.788 255.093 113.378 250.903 Q 114.738 247.343 117.648 245.983 Q 121.288 244.293 124.988 247.973 Z " fill="rgb(174,226,147)"/><path d=" M 175.248 263.413 Q 174.508 267.113 172.868 269.653 Q 170.048 273.873 164.158 274.903 Q 157.908 276.003 153.098 272.463 Q 149.058 269.503 149.088 264.153 Q 149.118 256.983 155.828 254.783 Q 170.108 250.123 175.248 263.413 Z " fill="rgb(174,226,147)"/><path d=" M 249.808 215.183 Q 249.618 217.333 248.688 216.393 Q 248.188 215.873 247.838 215.713 Q 242.558 213.283 241.188 220.003 C 241.154 220.152 241.047 220.274 240.904 220.326 C 240.76 220.379 240.6 220.355 240.478 220.263 Q 238.828 218.983 238.408 217.443 Q 239.778 217.693 240.218 216.963 Q 244.188 210.523 249.808 215.183 Z " fill="rgb(169,240,167)"/><path d=" M 189.488 191.293 L 193.908 191.363 Q 208.998 192.843 220.698 202.403 Q 218.128 204.803 217.928 208.153 C 217.897 208.644 217.657 209.099 217.268 209.403 Q 214.068 211.893 211.108 213.733 Q 206.138 216.813 204.628 217.493 Q 200.368 219.423 195.398 218.723 Q 194.978 218.673 195.388 218.803 Q 197.268 219.433 198.158 220.173 Q 200.068 221.753 198.248 223.433 Q 196.128 225.403 193.448 226.313 C 193.137 226.42 192.866 226.607 192.668 226.853 Q 189.988 230.173 186.018 231.263 Q 188.458 227.303 187.498 223.463 Q 186.608 219.963 183.078 217.753 Q 178.488 214.883 172.848 216.343 Q 165.858 218.143 164.738 225.563 Q 162.198 227.963 163.998 231.323 Q 166.478 235.943 170.948 237.693 Q 174.628 239.143 178.888 237.773 Q 182.828 236.503 186.128 233.743 Q 197.608 229.223 212.908 229.153 Q 217.258 229.133 219.698 230.713 Q 220.328 231.123 220.448 231.683 Q 220.638 232.573 219.658 232.943 Q 214.858 233.243 212.168 236.483 Q 209.798 239.333 210.408 242.823 Q 211.038 246.393 214.468 248.833 Q 209.038 252.103 204.908 252.153 Q 191.008 252.323 181.658 253.153 Q 177.208 253.543 172.588 255.923 C 172.316 256.049 171.994 256.022 171.748 255.853 Q 162.418 249.103 151.778 254.203 Q 146.908 256.543 145.908 256.653 Q 142.388 257.033 140.318 255.803 Q 143.378 249.513 147.218 238.213 Q 148.848 233.433 152.948 227.973 Q 161.118 217.113 173.308 213.333 Q 175.548 212.643 177.208 210.983 Q 185.638 202.523 189.488 191.293 Z " fill="rgb(53,118,104)"/><path d=" M 152.158 276.863 Q 152.548 275.303 151.948 273.903 Q 155.568 277.333 160.668 277.143 Q 164.638 276.983 169.218 274.463 Q 172.488 272.673 172.868 269.653 Q 174.508 267.113 175.248 263.413 Q 185.288 259.313 194.158 259.153 Q 208.108 258.903 221.478 257.393 C 221.798 257.358 222.113 257.493 222.306 257.747 C 222.499 258.002 222.542 258.339 222.418 258.633 Q 220.928 262.323 219.168 265.873 Q 216.478 271.283 211.598 274.843 Q 207.148 278.073 201.038 280.473 Q 193.518 283.423 189.768 284.283 Q 181.578 286.143 173.218 283.093 Q 166.438 280.613 159.218 280.593 Q 158.768 280.593 158.298 280.323 L 152.158 276.863 Z " fill="rgb(53,118,104)"/><path d=" M 191.408 184.943 Q 215.698 188.093 231.848 206.713 Q 235.668 211.123 237.618 215.903 Q 237.738 216.863 238.408 217.443 Q 238.828 218.983 240.478 220.263 C 240.6 220.355 240.76 220.379 240.904 220.326 C 241.047 220.274 241.154 220.152 241.188 220.003 Q 242.558 213.283 247.838 215.713 Q 248.188 215.873 248.688 216.393 Q 249.618 217.333 249.808 215.183 Q 254.348 217.483 251.848 221.343 Q 250.168 223.923 246.718 224.193 C 246.373 224.237 246.065 224.369 245.858 224.563 Q 245.078 225.453 246.408 225.943 Q 245.448 226.313 243.838 226.063 C 243.511 226.021 243.186 226.142 242.97 226.386 C 242.755 226.629 242.679 226.963 242.768 227.273 L 244.698 234.903 Q 245.008 239.143 245.218 243.393 Q 245.458 248.153 244.888 251.863 Q 240.568 280.293 214.948 294.403 Q 214.968 293.353 213.908 293.613 Q 232.018 284.513 238.868 265.403 Q 248.608 231.583 224.908 206.613 Q 223.208 204.093 220.698 202.403 Q 208.998 192.843 193.908 191.363 L 194.888 188.323 C 194.936 188.189 194.922 188.042 194.847 187.92 C 194.772 187.797 194.645 187.711 194.498 187.683 L 190.418 186.793 Q 191.548 186.103 191.408 184.943 Z " fill="rgb(106,194,180)"/><path d=" M 124.988 247.973 Q 124.868 249.993 125.648 251.633 L 126.368 257.153 Q 124.868 257.523 121.158 258.153 Q 118.778 258.553 117.078 257.523 Q 115.368 256.483 115.498 254.553 Q 115.598 253.083 116.738 252.073 Q 118.678 250.383 118.718 250.343 Q 121.128 247.983 124.988 247.973 Z " fill="rgb(106,194,180)"/><path d=" M 130.948 268.653 Q 132.798 269.993 132.618 272.153 Q 127.518 271.993 122.618 273.253 Q 122.578 273.263 119.458 274.543 Q 117.028 275.543 114.718 274.343 Q 112.188 273.023 112.598 270.543 Q 112.908 268.653 114.778 267.563 Q 117.498 265.973 120.898 266.713 Q 121.658 266.873 122.428 266.853 Q 125.748 266.723 121.758 269.233 Q 121.048 269.673 121.888 269.733 Q 127.738 270.163 130.948 268.653 Z " fill="rgb(171,196,159)"/><path d=" M 134.448 239.903 Q 134.238 236.583 135.198 233.403 Q 139.068 232.063 141.098 229.343 Q 146.458 222.133 152.448 215.453 Q 156.528 210.903 160.968 209.213 Q 164.078 208.043 163.788 211.213 C 163.766 211.53 163.586 211.821 163.298 212.003 Q 158.228 215.573 156.468 218.463 Q 153.388 223.533 146.908 232.653 Q 145.668 234.403 144.508 235.583 Q 143.368 236.753 141.338 237.513 Q 137.918 238.783 134.448 239.903 Z " fill="rgb(58,122,93)"/><path d=" M 151.948 273.903 Q 152.548 275.303 152.158 276.863 Q 147.278 275.213 144.288 270.963 L 146.498 269.203 C 146.709 269.035 146.749 268.73 146.588 268.513 Q 145.098 266.503 145.718 264.213 Q 146.328 261.973 145.368 260.403 Q 146.408 259.883 147.448 260.213 C 147.586 260.26 147.695 260.357 147.748 260.481 C 147.801 260.605 147.794 260.744 147.728 260.863 Q 146.538 264.103 147.468 267.213 Q 147.848 268.503 149.618 270.573 Q 150.938 272.123 151.948 273.903 Z " fill="rgb(58,122,93)"/><path d=" M 145.548 276.673 Q 156.858 284.243 170.168 286.903 Q 172.558 287.383 173.588 289.593 Q 174.148 290.783 175.118 291.813 Q 176.278 293.033 176.628 293.933 Q 177.168 295.353 177.408 296.863 Q 166.508 293.433 157.158 286.863 Q 155.988 285.823 154.448 285.653 Q 149.138 282.183 145.548 276.673 Z " fill="rgb(58,122,93)"/><path d=" M 188.408 191.113 Q 189.268 191.083 189.488 191.293 Q 185.638 202.523 177.208 210.983 Q 175.548 212.643 173.308 213.333 Q 161.118 217.113 152.948 227.973 Q 148.848 233.433 147.218 238.213 Q 143.378 249.513 140.318 255.803 L 134.908 256.253 Q 133.248 248.113 134.448 239.903 Q 137.918 238.783 141.338 237.513 Q 143.368 236.753 144.508 235.583 Q 145.668 234.403 146.908 232.653 Q 153.388 223.533 156.468 218.463 Q 158.228 215.573 163.298 212.003 C 163.586 211.821 163.766 211.53 163.788 211.213 Q 164.078 208.043 160.968 209.213 Q 156.528 210.903 152.448 215.453 Q 146.458 222.133 141.098 229.343 Q 139.068 232.063 135.198 233.403 Q 138.888 219.373 149.068 209.063 Q 165.248 192.673 188.408 191.113 Z " fill="rgb(94,173,109)"/><path d=" M 136.198 258.653 Q 140.608 260.383 145.368 260.403 Q 146.328 261.973 145.718 264.213 Q 145.098 266.503 146.588 268.513 C 146.749 268.73 146.709 269.035 146.498 269.203 L 144.288 270.963 Q 142.708 271.753 142.658 273.113 Q 140.518 271.463 140.188 269.123 Q 139.558 264.723 136.448 262.403 Q 135.548 260.583 136.198 258.653 Z " fill="rgb(94,173,109)"/><path d=" M 154.448 285.653 Q 155.988 285.823 157.158 286.863 L 155.908 286.943 Q 154.968 286.563 154.448 285.653 Z " fill="rgb(94,173,109)"/><path d=" M 190.418 186.793 L 194.498 187.683 C 194.645 187.711 194.772 187.797 194.847 187.92 C 194.922 188.042 194.936 188.189 194.888 188.323 L 193.908 191.363 L 189.488 191.293 Q 189.268 191.083 188.408 191.113 L 190.418 186.793 Z " fill="rgb(142,211,137)"/><path d=" M 155.908 286.943 L 157.158 286.863 Q 166.508 293.433 177.408 296.863 Q 196.328 301.593 213.908 293.613 Q 214.968 293.353 214.948 294.403 Q 187.748 308.663 159.618 296.153 Q 161.318 290.163 155.908 286.943 Z " fill="rgb(142,211,137)"/><path d=" M 136.448 262.403 Q 139.558 264.723 140.188 269.123 Q 138.018 268.013 136.538 269.553 Q 135.738 270.383 135.558 270.513 Q 133.738 271.803 134.288 269.393 C 134.304 269.085 134.482 268.791 134.788 268.563 Q 137.318 266.143 136.448 262.403 Z " fill="rgb(157,215,75)"/><path d=" M 261.658 234.693 Q 255.638 238.883 248.408 240.113 Q 248.828 237.143 251.598 235.593 Q 254.658 233.873 257.738 230.933 C 258.031 230.722 258.111 230.393 257.938 230.113 Q 257.828 229.593 258.008 229.113 Q 258.108 228.873 258.608 228.473 Q 259.348 227.883 258.158 227.363 Q 261.378 225.843 264.908 225.673 C 265.232 225.663 265.545 225.783 265.768 226.003 Q 267.368 227.693 266.758 229.523 Q 266.388 230.633 264.478 232.273 Q 263.068 233.493 261.658 234.693 Z " fill="rgb(149,145,153)"/><path d=" M 258.158 227.363 Q 259.348 227.883 258.608 228.473 Q 258.108 228.873 258.008 229.113 Q 257.828 229.593 257.938 230.113 C 258.111 230.393 258.031 230.722 257.738 230.933 Q 254.658 233.873 251.598 235.593 Q 248.828 237.143 248.408 240.113 Q 245.718 240.743 245.788 238.553 Q 245.828 237.443 245.668 236.753 Q 245.468 235.863 245.408 234.943 Q 245.968 233.793 247.468 232.713 Q 252.738 228.943 258.158 227.363 Z " fill="rgb(165,203,188)"/><path d=" M 226.963 240.622 C 227.204 242.366 226.569 244.115 225.204 245.468 C 223.838 246.821 221.861 247.661 219.726 247.794 C 215.498 248.073 211.762 245.558 211.273 242.105 C 211.032 240.361 211.667 238.611 213.032 237.258 C 214.397 235.905 216.375 235.065 218.51 234.932 C 222.738 234.654 226.473 237.168 226.963 240.622 L 226.963 240.622 Z " fill="rgb(169,240,167)"/><path d=" M 169.348 231.813 C 168.736 231.32 168.295 230.648 168.088 229.893 Q 167.178 226.573 168.448 221.583 C 168.673 220.703 169.298 219.978 170.138 219.623 Q 176.108 217.113 181.438 219.183 Q 183.788 220.093 184.718 222.333 Q 186.248 226.083 184.468 229.493 Q 182.848 232.603 179.598 233.953 Q 174.598 236.043 169.348 231.813 Z " fill="rgb(118,201,198)"/><path d=" M 169.468 260.593 Q 170.668 262.733 170.238 264.683 Q 169.958 265.933 168.568 268.203 Q 165.228 273.613 158.468 272.343 Q 155.918 271.863 154.418 268.933 Q 151.838 263.893 155.748 259.993 Q 158.858 256.893 163.158 256.903 Q 164.348 256.903 165.238 256.633 C 165.543 256.575 165.866 256.607 166.138 256.723 Q 167.988 257.943 169.468 260.593 Z " fill="rgb(118,201,198)"/><path d=" M 222.798 237.313 Q 228.148 240.633 223.348 244.593 Q 221.138 246.413 217.638 246.073 Q 213.408 245.663 213.698 241.403 Q 215.098 239.743 217.158 239.453 C 217.492 239.479 217.799 239.59 218.008 239.763 Q 218.918 240.523 220.188 239.903 Q 221.838 239.093 222.798 237.313 Z " fill="rgb(106,194,180)"/><path d=" M 222.798 237.313 Q 221.838 239.093 220.188 239.903 Q 218.918 240.523 218.008 239.763 C 217.799 239.59 217.492 239.479 217.158 239.453 Q 215.098 239.743 213.698 241.403 Q 213.518 237.333 216.948 237.103 Q 218.388 237.003 219.848 236.863 Q 221.398 236.703 222.798 237.313 Z " fill="rgb(133,218,181)"/></g></svg>