<?xml version="1.0" encoding="UTF-8" standalone="no"?><!-- Generator: Gravit.io --><svg xmlns="http://www.w3.org/2000/svg" xmlns:xlink="http://www.w3.org/1999/xlink" style="isolation:isolate" viewBox="769 171.579 157.61 140.304" width="157.61pt" height="140.304pt"><defs><clipPath id="_clipPath_ksZoi6AARYvfii3IztfOEuow5MoDJ4fl"><rect x="769" y="171.579" width="157.61" height="140.304"/></clipPath></defs><g clip-path="url(#_clipPath_ksZoi6AARYvfii3IztfOEuow5MoDJ4fl)"><g><path d=" M 863.367 178.969 Q 859.847 180.119 857.927 181.739 Q 852.187 186.599 846.377 191.369 Q 843.127 194.039 834.407 200.439 Q 828.237 204.959 822.447 209.999 Q 817.737 214.109 813.117 216.679 Q 807.487 219.819 803.267 223.059 Q 793.957 230.219 783.157 234.929 L 781.147 231.809 C 780.849 231.539 780.793 231.188 780.997 230.879 Q 781.327 228.409 781.657 225.939 Q 781.867 224.389 783.077 223.429 Q 783.437 223.669 783.867 223.439 Q 791.117 219.519 797.617 214.469 Q 805.197 210.189 812.677 205.739 Q 817.387 202.939 820.117 200.469 Q 833.537 190.819 845.367 179.289 Q 846.167 178.509 847.247 178.069 Q 848.297 177.639 849.327 177.179 Q 854.427 176.789 859.507 177.359 Q 860.527 177.479 861.487 177.989 Q 862.427 178.479 863.367 178.969 Z " fill="rgb(189,227,138)"/><path d=" M 878.367 182.219 Q 893.497 189.609 902.967 203.029 Q 907.257 209.099 909.507 213.549 Q 912.337 219.109 913.417 225.419 Q 914.307 230.669 914.917 235.949 Q 917.357 256.919 905.557 275.869 Q 901.217 282.839 896.667 287.939 Q 891.937 293.239 885.337 297.549 Q 868.237 308.739 847.617 308.929 Q 836.717 309.029 825.117 304.969 L 828.367 304.719 Q 830.257 305.909 832.617 305.389 Q 850.497 308.309 867.557 302.389 Q 883.567 296.829 895.127 284.639 Q 896.007 283.709 897.347 281.979 Q 898.407 280.589 899.557 279.279 Q 901.687 276.839 902.717 275.179 Q 907.587 267.329 910.327 258.429 Q 911.507 254.929 911.367 251.219 Q 913.657 248.529 913.077 244.929 Q 913.477 240.999 912.327 237.179 Q 912.207 230.059 910.267 222.789 Q 910.127 222.289 909.807 222.699 Q 904.957 228.749 900.027 234.339 Q 896.867 237.939 892.117 238.639 L 892.117 230.389 Q 892.147 230.179 892.367 230.139 Q 895.257 228.999 897.927 225.739 Q 903.527 218.919 906.367 214.109 C 906.533 213.833 906.587 213.503 906.517 213.189 Q 905.527 208.389 902.217 204.799 C 902.14 204.72 902.029 204.682 901.918 204.696 C 901.808 204.71 901.71 204.774 901.657 204.869 Q 898.117 212.159 890.867 215.969 L 890.367 215.889 Q 889.937 212.979 890.117 211.679 Q 890.277 210.539 889.367 210.389 L 890.157 209.179 L 897.147 198.769 C 897.427 198.383 897.324 197.855 896.917 197.589 Q 894.087 195.469 891.767 193.249 Q 888.927 190.529 887.287 189.329 Q 884.887 187.579 882.407 185.929 L 877.617 182.719 Q 878.157 182.719 878.367 182.219 Z " fill="rgb(129,185,183)"/><path d=" M 814.577 185.679 Q 812.617 186.789 814.517 188.709 Q 815.087 189.279 815.297 189.959 L 817.247 196.449 C 817.348 196.753 817.297 197.084 817.107 197.349 Q 816.137 198.859 814.617 199.889 L 803.157 206.929 Q 803.637 205.169 802.807 202.409 C 802.759 202.182 802.603 201.983 802.376 201.861 C 802.148 201.739 801.873 201.705 801.617 201.769 L 797.407 203.929 L 795.117 200.889 Q 803.297 191.329 814.577 185.679 Z " fill="rgb(165,207,99)"/><path d=" M 838.367 178.469 Q 831.327 190.899 819.827 199.429 Q 817.297 201.529 814.617 199.889 Q 816.137 198.859 817.107 197.349 C 817.297 197.084 817.348 196.753 817.247 196.449 L 815.297 189.959 Q 815.087 189.279 814.517 188.709 Q 812.617 186.789 814.577 185.679 Q 819.127 183.139 827.307 180.619 Q 833.947 178.569 838.367 178.469 Z " fill="rgb(136,193,111)"/><path d=" M 795.117 200.889 L 797.407 203.929 L 795.617 211.969 L 795.617 212.139 Q 792.717 213.079 790.217 214.799 Q 789.057 215.589 787.657 215.429 Q 789.847 207.359 795.117 200.889 Z " fill="rgb(136,193,111)"/><path d=" M 803.157 206.929 L 795.617 211.969 L 797.407 203.929 L 801.617 201.769 C 801.873 201.705 802.148 201.739 802.376 201.861 C 802.603 201.983 802.759 202.182 802.807 202.409 Q 803.637 205.169 803.157 206.929 Z " fill="rgb(196,230,112)"/><path d=" M 870.867 281.389 Q 873.007 281.489 871.387 282.419 Q 864.707 286.279 858.897 291.299 Q 854.867 294.769 852.847 295.959 Q 849.527 297.899 845.867 299.179 Q 842.217 300.459 838.627 301.869 Q 837.097 302.479 834.457 302.669 Q 831.197 302.899 828.367 304.719 L 825.117 304.969 L 821.117 303.219 Q 821.427 302.719 821.887 302.419 Q 822.247 302.189 822.897 302.209 Q 824.527 302.289 826.117 301.969 Q 839.657 299.429 851.337 292.169 Q 860.827 286.279 870.867 281.389 Z " fill="rgb(166,215,178)"/><path d=" M 882.407 185.929 Q 884.887 187.579 887.287 189.329 Q 888.927 190.529 891.767 193.249 Q 894.087 195.469 896.917 197.589 C 897.324 197.855 897.427 198.383 897.147 198.769 L 890.157 209.179 Q 890.187 206.629 889.347 204.219 Q 885.687 193.699 882.677 187.369 Q 882.217 186.399 882.407 185.929 Z " fill="rgb(41,78,120)"/><path d=" M 892.367 230.139 L 890.867 215.969 Q 898.117 212.159 901.657 204.869 C 901.71 204.774 901.808 204.71 901.918 204.696 C 902.029 204.682 902.14 204.72 902.217 204.799 Q 905.527 208.389 906.517 213.189 C 906.587 213.503 906.533 213.833 906.367 214.109 Q 903.527 218.919 897.927 225.739 Q 895.257 228.999 892.367 230.139 Z " fill="rgb(41,78,120)"/><path d=" M 819.827 199.429 Q 819.717 200.039 820.117 200.469 Q 817.387 202.939 812.677 205.739 Q 805.197 210.189 797.617 214.469 Q 796.387 213.519 795.617 212.139 L 795.617 211.969 L 803.157 206.929 L 814.617 199.889 Q 817.297 201.529 819.827 199.429 Z " fill="rgb(108,183,122)"/><path d=" M 795.617 212.139 Q 796.387 213.519 797.617 214.469 Q 791.117 219.519 783.867 223.439 Q 783.437 223.669 783.077 223.429 L 787.657 215.429 Q 789.057 215.589 790.217 214.799 Q 792.717 213.079 795.617 212.139 Z " fill="rgb(108,183,122)"/><path d=" M 863.367 178.969 L 867.277 179.209 Q 869.387 179.339 867.697 180.779 Q 856.587 190.239 848.277 201.599 Q 843.067 208.729 833.367 211.429 Q 829.257 212.579 825.457 215.539 Q 823.937 216.729 819.277 221.809 Q 813.907 227.659 809.057 230.869 Q 799.047 237.479 788.107 242.409 Q 785.247 243.699 782.157 244.179 Q 780.707 239.339 783.157 234.929 Q 793.957 230.219 803.267 223.059 Q 807.487 219.819 813.117 216.679 Q 817.737 214.109 822.447 209.999 Q 828.237 204.959 834.407 200.439 Q 843.127 194.039 846.377 191.369 Q 852.187 186.599 857.927 181.739 Q 859.847 180.119 863.367 178.969 Z " fill="rgb(39,137,135)"/><path d=" M 890.367 215.889 L 890.867 215.969 L 892.367 230.139 Q 892.147 230.179 892.117 230.389 Q 883.707 231.389 879.617 232.429 Q 873.397 234.009 868.367 239.419 Q 862.917 245.279 855.527 248.299 Q 849.947 250.579 844.477 253.089 Q 834.307 257.759 826.397 265.709 Q 824.707 267.409 822.657 268.589 Q 821.127 269.469 818.277 270.159 Q 805.877 273.179 793.797 277.369 C 793.395 277.507 792.953 277.47 792.58 277.267 C 792.207 277.063 791.937 276.712 791.837 276.299 Q 791.317 274.179 789.547 271.869 C 789.444 271.731 789.41 271.554 789.455 271.388 C 789.5 271.222 789.618 271.086 789.777 271.019 Q 800.837 266.479 812.227 262.359 Q 818.987 259.919 824.217 257.289 Q 830.047 254.359 835.807 251.279 Q 839.927 249.079 843.197 246.059 Q 847.687 241.909 851.927 237.489 Q 855.887 233.369 860.617 230.149 Q 865.407 226.889 869.807 223.109 Q 872.057 221.169 874.907 220.329 Q 880.987 218.529 884.427 217.989 Q 887.867 217.459 890.367 215.889 Z " fill="rgb(39,137,135)"/><path d=" M 912.327 237.179 Q 910.657 240.359 908.127 242.939 Q 897.027 254.269 884.867 264.469 Q 883.647 264.899 884.407 263.959 Q 888.237 259.179 889.687 253.199 Q 891.277 246.669 891.997 239.989 C 892.261 239.86 892.392 239.679 892.351 239.499 C 892.309 239.319 892.1 239.163 891.787 239.079 L 891.367 238.719 L 892.117 238.639 Q 896.867 237.939 900.027 234.339 Q 904.957 228.749 909.807 222.699 Q 910.127 222.289 910.267 222.789 Q 912.207 230.059 912.327 237.179 Z " fill="rgb(44,78,113)"/><path d=" M 877.617 182.719 L 882.407 185.929 Q 882.217 186.399 882.677 187.369 Q 885.687 193.699 889.347 204.219 Q 890.187 206.629 890.157 209.179 L 889.367 210.389 Q 884.737 213.709 879.617 214.429 Q 872.667 215.409 867.407 219.169 Q 853.167 229.339 842.927 239.239 Q 839.377 242.679 835.867 244.989 Q 834.937 245.599 828.067 249.629 Q 819.547 254.619 810.147 257.779 Q 798.527 261.679 787.657 266.459 C 787.402 266.571 787.112 266.568 786.859 266.451 C 786.607 266.335 786.416 266.115 786.337 265.849 Q 784.097 258.359 783.347 250.429 C 783.295 249.978 783.598 249.562 784.047 249.469 Q 787.127 248.819 790.157 247.789 Q 792.577 246.959 795.937 245.259 Q 806.097 240.099 811.367 236.929 Q 815.227 234.609 819.977 229.789 Q 830.427 219.229 844.307 213.869 Q 846.237 213.119 848.927 210.489 Q 857.007 202.579 865.677 191.239 Q 868.507 187.549 873.267 182.989 Q 874.267 182.029 875.287 182.039 Q 876.487 182.049 877.617 182.719 Z " fill="rgb(35,138,136)"/><path d=" M 891.367 238.719 L 891.787 239.079 C 892.1 239.163 892.309 239.319 892.351 239.499 C 892.392 239.679 892.261 239.86 891.997 239.989 Q 891.277 246.669 889.687 253.199 Q 888.237 259.179 884.407 263.959 Q 883.647 264.899 884.867 264.469 Q 883.867 265.729 882.367 266.389 Q 873.627 269.899 864.687 272.899 Q 857.517 275.309 854.177 277.989 Q 849.397 281.839 844.557 285.619 Q 841.337 288.119 836.867 287.339 Q 832.237 286.529 832.167 286.519 Q 819.527 285.649 809.177 290.989 Q 806.517 292.369 805.407 292.429 Q 801.027 286.969 796.557 283.239 Q 795.847 282.649 795.867 281.969 Q 808.497 276.549 818.867 275.179 Q 823.207 274.609 825.237 273.019 Q 830.587 268.839 835.977 264.689 Q 839.977 261.619 842.637 260.179 Q 846.627 258.019 850.117 257.179 Q 854.577 256.099 857.897 254.749 Q 860.707 253.599 864.087 250.539 Q 870.017 245.169 874.677 241.989 Q 876.147 240.989 878.577 240.229 Q 880.237 239.709 882.737 239.489 Q 887.057 239.119 891.367 238.719 Z " fill="rgb(35,138,136)"/><path d=" M 795.867 281.969 Q 795.847 282.649 796.557 283.239 Q 801.027 286.969 805.407 292.429 Q 804.847 292.829 804.117 292.719 Q 798.117 288.179 793.577 282.179 Q 794.577 281.479 795.867 281.969 Z " fill="rgb(172,214,147)"/><path d=" M 776.157 257.179 Q 777.177 260.129 775.117 262.219 Q 773.307 261.859 772.567 260.529 Q 771.827 259.209 772.567 257.819 Q 773.567 255.959 776.157 257.179 Z " fill="rgb(103,90,159)"/><path d=" M 910.327 258.429 Q 907.587 267.329 902.717 275.179 Q 901.687 276.839 899.557 279.279 Q 898.407 280.589 897.347 281.979 Q 896.007 283.709 895.127 284.639 Q 883.567 296.829 867.557 302.389 Q 850.497 308.309 832.617 305.389 Q 832.047 304.179 835.467 304.729 Q 836.627 304.909 837.757 304.599 Q 848.567 301.619 857.027 295.319 Q 860.827 292.489 864.977 290.229 Q 865.017 290.199 873.547 286.349 Q 882.157 282.449 891.177 275.239 Q 903.797 265.159 908.937 260.219 Q 909.197 259.969 909.447 259.379 Q 909.717 258.759 910.327 258.429 Z " fill="rgb(45,66,116)"/><path d=" M 847.867 177.139 L 849.327 177.179 Q 848.297 177.639 847.247 178.069 Q 846.167 178.509 845.367 179.289 Q 833.537 190.819 820.117 200.469 Q 819.717 200.039 819.827 199.429 Q 831.327 190.899 838.367 178.469 L 847.867 177.139 Z " fill="rgb(76,153,115)"/><path d=" M 851.617 173.889 L 852.617 173.889 Q 866.447 175.189 878.367 182.219 Q 878.157 182.719 877.617 182.719 Q 876.487 182.049 875.287 182.039 Q 874.267 182.029 873.267 182.989 Q 868.507 187.549 865.677 191.239 Q 857.007 202.579 848.927 210.489 Q 846.237 213.119 844.307 213.869 Q 830.427 219.229 819.977 229.789 Q 815.227 234.609 811.367 236.929 Q 806.097 240.099 795.937 245.259 Q 792.577 246.959 790.157 247.789 Q 787.127 248.819 784.047 249.469 C 783.598 249.562 783.295 249.978 783.347 250.429 Q 784.097 258.359 786.337 265.849 C 786.416 266.115 786.607 266.335 786.859 266.451 C 787.112 266.568 787.402 266.571 787.657 266.459 Q 798.527 261.679 810.147 257.779 Q 819.547 254.619 828.067 249.629 Q 834.937 245.599 835.867 244.989 Q 839.377 242.679 842.927 239.239 Q 853.167 229.339 867.407 219.169 Q 872.667 215.409 879.617 214.429 Q 884.737 213.709 889.367 210.389 Q 890.277 210.539 890.117 211.679 Q 889.937 212.979 890.367 215.889 Q 887.867 217.459 884.427 217.989 Q 880.987 218.529 874.907 220.329 Q 872.057 221.169 869.807 223.109 Q 865.407 226.889 860.617 230.149 Q 855.887 233.369 851.927 237.489 Q 847.687 241.909 843.197 246.059 Q 839.927 249.079 835.807 251.279 Q 830.047 254.359 824.217 257.289 Q 818.987 259.919 812.227 262.359 Q 800.837 266.479 789.777 271.019 C 789.618 271.086 789.5 271.222 789.455 271.388 C 789.41 271.554 789.444 271.731 789.547 271.869 Q 791.317 274.179 791.837 276.299 C 791.937 276.712 792.207 277.063 792.58 277.267 C 792.953 277.47 793.395 277.507 793.797 277.369 Q 805.877 273.179 818.277 270.159 Q 821.127 269.469 822.657 268.589 Q 824.707 267.409 826.397 265.709 Q 834.307 257.759 844.477 253.089 Q 849.947 250.579 855.527 248.299 Q 862.917 245.279 868.367 239.419 Q 873.397 234.009 879.617 232.429 Q 883.707 231.389 892.117 230.389 L 892.117 238.639 L 891.367 238.719 Q 887.057 239.119 882.737 239.489 Q 880.237 239.709 878.577 240.229 Q 876.147 240.989 874.677 241.989 Q 870.017 245.169 864.087 250.539 Q 860.707 253.599 857.897 254.749 Q 854.577 256.099 850.117 257.179 Q 846.627 258.019 842.637 260.179 Q 839.977 261.619 835.977 264.689 Q 830.587 268.839 825.237 273.019 Q 823.207 274.609 818.867 275.179 Q 808.497 276.549 795.867 281.969 Q 794.577 281.479 793.577 282.179 Q 782.177 266.239 779.907 246.679 Q 780.097 247.999 780.557 247.329 Q 781.567 245.859 782.157 244.179 Q 785.247 243.699 788.107 242.409 Q 799.047 237.479 809.057 230.869 Q 813.907 227.659 819.277 221.809 Q 823.937 216.729 825.457 215.539 Q 829.257 212.579 833.367 211.429 Q 843.067 208.729 848.277 201.599 Q 856.587 190.239 867.697 180.779 Q 869.387 179.339 867.277 179.209 L 863.367 178.969 Q 862.427 178.479 861.487 177.989 Q 860.527 177.479 859.507 177.359 Q 854.427 176.789 849.327 177.179 L 847.867 177.139 Q 846.847 176.019 846.837 174.679 C 846.825 174.376 847.059 174.119 847.367 174.099 L 851.617 173.889 Z " fill="rgb(190,228,162)"/><path d=" M 884.617 268.889 L 882.117 270.639 Q 876.027 273.429 870.617 274.929 Q 860.017 277.869 852.537 285.349 Q 851.327 286.549 850.217 287.519 Q 849.007 288.559 847.867 289.679 Q 844.847 292.619 840.927 292.819 Q 839.377 292.899 835.917 291.889 Q 832.817 290.979 830.867 290.929 Q 822.507 290.729 812.367 293.969 Q 808.827 293.709 810.437 295.129 Q 813.127 297.489 816.367 298.969 Q 820.967 301.369 826.117 301.969 Q 824.527 302.289 822.897 302.209 Q 822.247 302.189 821.887 302.419 Q 821.427 302.719 821.117 303.219 Q 811.827 299.259 804.117 292.719 Q 804.847 292.829 805.407 292.429 Q 806.517 292.369 809.177 290.989 Q 819.527 285.649 832.167 286.519 Q 832.237 286.529 836.867 287.339 Q 841.337 288.119 844.557 285.619 Q 849.397 281.839 854.177 277.989 Q 857.517 275.309 864.687 272.899 Q 873.627 269.899 882.367 266.389 L 884.227 266.429 C 884.353 266.431 884.473 266.485 884.56 266.577 C 884.646 266.669 884.692 266.792 884.687 266.919 L 884.617 268.889 Z " fill="rgb(190,228,162)"/><path d=" M 925.407 231.429 Q 927.517 232.359 925.927 234.239 Q 925.457 234.799 923.367 235.719 Q 921.757 235.539 920.367 234.639 Q 921.387 233.649 922.867 233.719 Q 925.297 233.849 925.407 231.429 Z " fill="rgb(122,143,130)"/><path d=" M 848.617 171.719 Q 848.667 172.429 849.167 172.929 C 848.86 172.985 848.785 173.064 848.972 173.133 C 849.159 173.203 849.577 173.251 850.057 173.259 L 852.617 173.889 L 851.617 173.889 Q 829.597 172.049 811.177 182.739 Q 791.917 193.919 783.467 214.429 Q 781.097 220.179 780.137 224.129 Q 778.907 229.159 779.037 234.429 Q 779.157 238.799 779.327 243.179 Q 778.077 241.939 778.057 240.489 Q 778.007 238.089 777.117 236.389 Q 777.337 234.539 777.567 232.709 Q 777.757 231.189 776.367 231.139 Q 776.607 230.829 776.867 229.429 Q 783.357 194.959 814.327 178.899 Q 830.407 170.569 848.617 171.719 Z " fill="rgb(115,90,101)"/><path d=" M 795.827 299.429 Q 796.227 301.359 797.687 300.829 Q 799.227 300.279 798.277 301.589 L 796.577 303.929 Q 795.547 301.789 795.827 299.429 Z " fill="rgb(115,90,101)"/><path d=" M 912.327 237.179 Q 913.477 240.999 913.077 244.929 Q 911.397 245.739 909.427 247.739 Q 899.787 257.569 887.067 267.439 Q 886.777 267.669 886.477 268.199 Q 885.887 269.209 884.617 268.889 L 884.687 266.919 C 884.692 266.792 884.646 266.669 884.56 266.577 C 884.473 266.485 884.353 266.431 884.227 266.429 L 882.367 266.389 Q 883.867 265.729 884.867 264.469 Q 897.027 254.269 908.127 242.939 Q 910.657 240.359 912.327 237.179 Z " fill="rgb(138,160,167)"/><path d=" M 911.367 251.219 Q 911.507 254.929 910.327 258.429 Q 909.717 258.759 909.447 259.379 Q 909.197 259.969 908.937 260.219 Q 903.797 265.159 891.177 275.239 Q 882.157 282.449 873.547 286.349 Q 865.017 290.199 864.977 290.229 Q 860.827 292.489 857.027 295.319 Q 848.567 301.619 837.757 304.599 Q 836.627 304.909 835.467 304.729 Q 832.047 304.179 832.617 305.389 Q 830.257 305.909 828.367 304.719 Q 831.197 302.899 834.457 302.669 Q 837.097 302.479 838.627 301.869 Q 842.217 300.459 845.867 299.179 Q 849.527 297.899 852.847 295.959 Q 854.867 294.769 858.897 291.299 Q 864.707 286.279 871.387 282.419 Q 873.007 281.489 870.867 281.389 Q 879.837 276.819 887.617 270.469 Q 900.297 261.819 911.367 251.219 Z " fill="rgb(138,160,167)"/><path d=" M 848.617 171.719 Q 853.277 171.629 857.867 172.409 Q 885.667 177.149 903.057 198.489 Q 904.097 199.769 905.327 199.929 Q 905.837 201.699 907.617 202.139 Q 907.377 202.099 907.207 202.159 C 907.048 202.184 906.93 202.278 906.91 202.394 C 906.89 202.51 906.972 202.623 907.117 202.679 Q 914.007 214.329 918.117 227.219 Q 917.627 229.239 918.087 231.199 Q 918.117 231.369 918.307 233.189 Q 918.457 234.689 920.367 234.639 Q 921.757 235.539 923.367 235.719 L 919.677 236.179 C 918.917 236.265 918.354 236.819 918.367 237.469 Q 918.267 259.009 908.057 277.369 Q 906.597 279.989 905.037 281.149 C 904.771 281.333 904.609 281.62 904.597 281.929 Q 904.407 285.109 902.147 287.009 Q 899.527 289.209 899.467 289.269 Q 883.607 305.599 861.127 310.479 Q 851.467 312.569 841.627 311.549 Q 824.977 309.809 809.407 301.919 Q 807.527 300.959 807.657 303.069 Q 807.717 304.069 807.607 305.699 Q 807.477 307.599 805.657 307.929 Q 807.637 302.629 804.367 298.179 Q 802.857 296.129 800.617 297.969 Q 799.697 297.609 800.427 296.739 Q 801.817 295.109 799.677 293.119 Q 789.137 283.269 782.497 270.479 Q 782.097 269.719 781.587 269.519 Q 780.827 269.219 780.117 269.719 Q 779.117 268.299 779.367 266.389 Q 779.437 264.979 778.497 262.829 Q 777.927 261.549 777.327 262.809 Q 775.947 265.739 775.117 262.219 Q 777.177 260.129 776.157 257.179 L 777.807 257.069 C 777.94 257.062 778.065 257.011 778.154 256.926 C 778.242 256.842 778.286 256.731 778.277 256.619 Q 777.807 247.849 776.327 239.179 Q 776.717 238.129 776.367 237.139 Q 776.637 236.659 777.117 236.389 Q 778.007 238.089 778.057 240.489 Q 778.077 241.939 779.327 243.179 L 779.907 246.679 Q 782.177 266.239 793.577 282.179 Q 798.117 288.179 804.117 292.719 Q 811.827 299.259 821.117 303.219 L 825.117 304.969 Q 836.717 309.029 847.617 308.929 Q 868.237 308.739 885.337 297.549 Q 891.937 293.239 896.667 287.939 Q 901.217 282.839 905.557 275.869 Q 917.357 256.919 914.917 235.949 Q 914.307 230.669 913.417 225.419 Q 912.337 219.109 909.507 213.549 Q 907.257 209.099 902.967 203.029 Q 893.497 189.609 878.367 182.219 Q 866.447 175.189 852.617 173.889 L 850.057 173.259 C 849.577 173.251 849.159 173.203 848.972 173.133 C 848.785 173.064 848.86 172.985 849.167 172.929 Q 848.667 172.429 848.617 171.719 Z " fill="rgb(75,41,131)"/><path d=" M 887.617 270.469 Q 879.837 276.819 870.867 281.389 Q 860.827 286.279 851.337 292.169 Q 839.657 299.429 826.117 301.969 Q 820.967 301.369 816.367 298.969 Q 815.957 297.629 814.617 297.269 Q 814.167 297.149 814.527 296.879 Q 818.357 293.939 812.797 294.409 Q 812.567 294.429 812.467 294.359 Q 812.287 294.229 812.367 293.969 Q 822.507 290.729 830.867 290.929 Q 832.817 290.979 835.917 291.889 Q 839.377 292.899 840.927 292.819 Q 844.847 292.619 847.867 289.679 Q 849.007 288.559 850.217 287.519 Q 851.327 286.549 852.537 285.349 Q 860.017 277.869 870.617 274.929 Q 876.027 273.429 882.117 270.639 L 887.617 270.469 Z " fill="rgb(49,135,136)"/><path d=" M 913.077 244.929 Q 913.657 248.529 911.367 251.219 Q 900.297 261.819 887.617 270.469 L 882.117 270.639 L 884.617 268.889 Q 885.887 269.209 886.477 268.199 Q 886.777 267.669 887.067 267.439 Q 899.787 257.569 909.427 247.739 Q 911.397 245.739 913.077 244.929 Z " fill="rgb(81,89,142)"/><path d=" M 910.367 190.139 Q 911.937 190.309 911.297 191.469 Q 911.057 191.889 910.357 192.289 Q 908.537 193.319 907.577 195.179 Q 906.957 195.649 906.437 196.199 Q 906.317 196.329 906.057 196.859 Q 905.867 197.239 905.527 197.149 C 905.357 197.109 905.224 197.004 905.174 196.869 C 905.123 196.734 905.162 196.587 905.277 196.479 Q 906.747 192.479 910.367 190.139 Z " fill="rgb(127,81,126)"/><path d=" M 770.077 232.179 Q 769.117 236.759 773.677 237.119 Q 775.837 237.289 776.367 237.139 Q 776.717 238.129 776.327 239.179 Q 776.007 238.389 775.367 238.679 Q 773.247 239.639 771.087 240.499 C 770.785 240.596 770.451 240.578 770.167 240.449 Q 768.447 239.449 769.377 237.609 C 769.516 237.332 769.523 237.011 769.397 236.729 Q 768.347 234.299 770.077 232.179 Z " fill="rgb(72,54,88)"/><path d=" M 812.367 293.969 Q 812.287 294.229 812.467 294.359 Q 812.567 294.429 812.797 294.409 Q 818.357 293.939 814.527 296.879 Q 814.167 297.149 814.617 297.269 Q 815.957 297.629 816.367 298.969 Q 813.127 297.489 810.437 295.129 Q 808.827 293.709 812.367 293.969 Z " fill="rgb(126,208,172)"/><path d=" M 851.617 173.889 L 847.367 174.099 C 847.059 174.119 846.825 174.376 846.837 174.679 Q 846.847 176.019 847.867 177.139 L 838.367 178.469 Q 833.947 178.569 827.307 180.619 Q 819.127 183.139 814.577 185.679 Q 803.297 191.329 795.117 200.889 Q 789.847 207.359 787.657 215.429 L 783.077 223.429 Q 781.867 224.389 781.657 225.939 Q 781.327 228.409 780.997 230.879 C 780.793 231.188 780.849 231.539 781.147 231.809 L 783.157 234.929 Q 780.707 239.339 782.157 244.179 Q 781.567 245.859 780.557 247.329 Q 780.097 247.999 779.907 246.679 L 779.327 243.179 Q 779.157 238.799 779.037 234.429 Q 778.907 229.159 780.137 224.129 Q 781.097 220.179 783.467 214.429 Q 791.917 193.919 811.177 182.739 Q 829.597 172.049 851.617 173.889 Z " fill="rgb(225,232,96)"/><path d=" M 925.407 231.429 Q 925.297 233.849 922.867 233.719 Q 921.387 233.649 920.367 234.639 Q 918.457 234.689 918.307 233.189 Q 918.117 231.369 918.087 231.199 Q 917.627 229.239 918.117 227.219 Q 921.557 225.749 924.827 227.709 C 925.042 227.835 925.196 228.044 925.253 228.285 C 925.309 228.527 925.264 228.781 925.127 228.989 Q 923.607 231.369 925.407 231.429 Z " fill="rgb(213,212,69)"/><path d=" M 776.367 231.139 Q 777.757 231.189 777.567 232.709 Q 777.337 234.539 777.117 236.389 Q 776.637 236.659 776.367 237.139 Q 775.837 237.289 773.677 237.119 Q 769.117 236.759 770.077 232.179 L 769.847 227.589 C 769.72 227.338 769.737 227.059 769.893 226.821 C 770.049 226.583 770.33 226.407 770.667 226.339 L 774.147 225.929 C 774.291 225.922 774.431 225.976 774.528 226.077 C 774.625 226.178 774.669 226.315 774.647 226.449 Q 774.487 228.799 774.927 230.619 Q 775.137 231.469 776.367 231.139 Z " fill="rgb(197,198,74)"/><path d=" M 907.617 202.139 Q 905.837 201.699 905.327 199.929 Q 907.307 197.949 907.577 195.179 Q 908.537 193.319 910.357 192.289 Q 911.057 191.889 911.297 191.469 Q 911.937 190.309 910.367 190.139 L 912.327 189.149 C 912.462 189.085 912.618 189.078 912.759 189.129 C 912.9 189.18 913.014 189.284 913.077 189.419 L 914.967 193.459 C 915.303 193.728 915.252 194.107 914.847 194.349 Q 914.447 195.089 914.397 195.929 Q 913.987 202.279 907.617 202.139 Z " fill="rgb(186,186,83)"/><path d=" M 779.367 266.389 Q 779.117 268.299 780.117 269.719 Q 780.507 271.039 780.587 271.099 C 780.892 271.339 781.076 271.701 781.09 272.088 C 781.103 272.475 780.945 272.848 780.657 273.109 Q 775.747 277.639 774.077 272.929 L 775.367 266.219 Q 777.437 264.819 779.367 266.389 Z " fill="rgb(186,186,83)"/><path d=" M 805.657 307.929 Q 800.357 309.089 800.537 304.059 Q 800.567 303.309 799.967 303.769 Q 797.927 305.349 796.577 303.929 L 798.277 301.589 Q 799.227 300.279 797.687 300.829 Q 796.227 301.359 795.827 299.429 Q 796.327 296.619 798.467 298.029 Q 798.687 298.179 799.287 298.819 Q 800.297 299.889 800.617 297.969 Q 802.857 296.129 804.367 298.179 Q 807.637 302.629 805.657 307.929 Z " fill="rgb(186,186,83)"/><path d=" M 775.367 266.219 L 774.077 272.929 Q 773.447 272.109 772.427 272.089 C 772.079 272.053 771.763 271.959 771.527 271.819 Q 770.187 270.679 770.457 268.949 Q 770.717 267.359 772.217 266.669 Q 773.617 266.029 775.367 266.219 Z " fill="rgb(147,154,95)"/></g></g></svg>