<?xml version="1.0" encoding="UTF-8" standalone="no"?><!-- Generator: Gravit.io --><svg xmlns="http://www.w3.org/2000/svg" xmlns:xlink="http://www.w3.org/1999/xlink" style="isolation:isolate" viewBox="569 140.096 144.024 186.805" width="144.024pt" height="186.805pt"><defs><clipPath id="_clipPath_tgDsB6My20ocSTLyWxLFYXPNrOJETBCR"><rect x="569" y="140.096" width="144.024" height="186.805"/></clipPath></defs><g clip-path="url(#_clipPath_tgDsB6My20ocSTLyWxLFYXPNrOJETBCR)"><g><g><path d=" M 689.267 168.552 Q 688.497 168.961 687.597 168.802 Q 686.957 163.732 683.117 162.082 Q 680.457 160.932 675.957 161.971 Q 669.247 163.531 663.657 167.221 C 663.412 167.385 663.1 167.413 662.83 167.296 C 662.559 167.179 662.366 166.932 662.317 166.642 Q 661.727 163.112 661.367 159.601 Q 660.867 154.762 659.657 152.792 Q 657.127 148.672 652.327 150.151 Q 649.397 151.052 646.467 153.942 Q 642.407 157.961 640.057 163.341 L 634.807 162.262 Q 639.177 153.502 646.117 146.612 Q 650.657 142.101 656.827 140.302 Q 658.887 139.692 660.667 140.892 Q 665.567 144.211 665.747 150.802 Q 665.857 154.771 665.717 159.651 C 665.713 159.809 665.792 159.957 665.927 160.04 C 666.061 160.122 666.229 160.127 666.367 160.052 Q 670.987 157.661 675.367 155.112 Q 676.727 154.332 679.157 153.762 Q 681.417 153.232 683.127 153.401 Q 689.087 154.002 689.807 160.802 Q 690.077 163.351 689.267 168.552 Z " fill="rgb(138,160,173)"/><path d=" M 670.307 170.012 Q 675.947 169.732 681.557 170.302 Q 682.057 170.351 682.807 170.012 Q 683.897 170.572 684.567 171.582 Q 684.607 171.632 684.817 172.192 Q 685.067 172.841 686.057 172.591 Q 684.827 175.221 683.487 177.802 Q 681.717 181.202 681.427 183.192 Q 681.127 185.242 681.407 187.312 Q 681.847 190.591 681.907 191.341 Q 682.717 202.672 689.807 211.591 Q 690.497 218.372 684.137 220.172 Q 679.807 221.392 674.557 221.802 Q 668.037 222.312 661.627 225.122 Q 656.817 227.232 654.367 231.632 Q 653.677 232.872 653.047 235.091 Q 652.477 237.091 652.047 238.661 Q 651.457 240.822 649.277 241.262 Q 640.867 242.952 634.367 248.112 Q 631.577 250.332 626.367 255.911 Q 624.107 258.341 621.177 260.582 Q 618.397 262.702 615.757 265.002 Q 613.197 267.221 611.987 270.322 C 611.943 270.434 611.954 270.562 612.017 270.665 C 612.079 270.769 612.187 270.838 612.307 270.851 Q 619.837 271.521 627.337 270.521 Q 631.057 270.031 632.247 267.492 Q 637.957 255.232 650.497 253.461 Q 658.297 252.372 665.077 248.651 Q 665.527 248.401 671.127 244.392 Q 674.427 242.031 677.807 241.052 Q 682.947 239.562 703.057 234.591 Q 702.387 236.752 700.807 238.341 Q 694.027 241.292 687.137 244.002 Q 683.017 245.622 680.417 247.362 Q 677.907 249.042 674.247 251.742 Q 667.387 256.792 657.097 258.172 Q 657.067 258.172 655.007 258.362 Q 648.847 258.932 646.367 263.862 Q 643.307 269.961 638.227 272.692 Q 635.247 274.292 627.087 275.192 Q 620.817 275.892 614.537 276.542 Q 608.327 277.182 604.867 278.812 Q 600.277 280.982 596.557 284.591 Q 593.297 283.322 595.117 280.862 Q 600.817 273.182 602.567 265.942 Q 604.137 259.482 600.867 254.742 Q 599.177 252.312 594.997 249.711 Q 591.677 247.651 588.117 245.992 Q 586.807 245.382 586.347 244.052 Q 588.597 242.661 589.807 239.552 Q 591.737 234.582 592.567 232.271 Q 593.227 230.401 592.977 229.262 Q 592.517 227.252 590.057 227.302 Q 587.077 227.362 585.807 225.591 Q 585.267 225.192 584.557 225.262 Q 586.537 223.502 587.997 220.742 Q 591.217 214.632 596.807 205.012 L 600.097 206.802 Q 598.087 211.021 598.557 214.802 Q 599.187 219.862 604.557 220.341 Q 606.877 220.911 609.257 220.901 Q 609.377 220.901 612.837 221.091 Q 615.777 221.262 617.957 219.151 C 618.174 218.995 618.473 218.895 618.797 218.872 Q 619.427 218.862 619.767 218.302 Q 619.677 219.661 621.247 219.612 Q 623.567 219.542 623.947 221.351 Q 624.177 222.432 623.467 224.012 Q 620.297 230.971 613.297 234.221 Q 612.477 234.601 611.747 234.452 Q 610.927 234.281 610.207 233.832 C 610.114 233.776 609.998 233.767 609.897 233.809 C 609.795 233.851 609.721 233.937 609.697 234.042 Q 608.927 237.502 609.567 240.862 Q 610.207 244.262 612.687 245.622 Q 615.537 247.192 619.117 245.862 Q 624.607 243.841 628.847 239.072 Q 633.397 233.952 636.477 227.892 Q 638.837 223.271 639.717 220.812 Q 641.057 217.082 641.137 213.082 Q 641.187 210.182 639.717 208.411 Q 638.197 206.601 635.617 205.242 Q 630.947 202.781 628.107 201.992 C 627.8 201.906 627.47 201.969 627.217 202.161 Q 623.397 205.122 622.847 210.052 Q 623.037 208.192 621.487 207.382 Q 618.327 205.732 615.057 204.341 Q 614.727 204.062 614.617 203.672 Q 614.527 203.382 614.697 202.942 Q 617.287 195.932 619.997 188.971 Q 621.507 185.112 623.097 183.771 Q 625.577 181.692 629.317 181.911 Q 631.307 182.021 633.307 182.091 Q 635.587 181.702 636.027 183.132 C 636.169 183.428 636.07 183.764 635.777 183.982 L 632.807 187.262 Q 629.137 189.841 628.807 193.552 Q 628.437 197.742 631.837 198.452 Q 633.727 198.841 636.727 198.031 Q 645.637 195.632 650.117 186.862 Q 651.857 183.461 649.557 181.012 Q 646.697 178.982 643.557 179.052 Q 641.917 179.082 642.017 177.552 Q 643.927 170.971 646.417 164.601 Q 647.877 160.862 649.677 159.161 Q 652.177 156.792 655.557 156.142 Q 657.947 155.692 658.247 158.101 Q 658.597 160.971 659.317 163.752 Q 660.217 167.211 661.767 168.822 Q 664.947 172.112 670.307 170.012 Z " fill="rgb(155,229,207)"/><path d=" M 634.807 162.262 L 640.057 163.341 L 636.307 172.091 Q 633.107 171.771 630.307 170.262 L 634.807 162.262 Z " fill="rgb(144,180,179)"/><path d=" M 682.807 170.012 Q 682.057 170.351 681.557 170.302 Q 675.947 169.732 670.307 170.012 Q 675.927 167.312 677.617 166.862 Q 681.517 165.832 682.807 170.012 Z " fill="rgb(80,145,152)"/><path d=" M 630.307 170.262 Q 633.107 171.771 636.307 172.091 Q 634.777 175.422 631.807 175.552 Q 626.767 175.771 621.737 175.971 Q 619.097 176.072 617.597 177.021 Q 615.607 178.281 614.557 180.302 Q 611.887 185.442 611.497 192.052 Q 611.057 199.661 603.867 202.862 Q 601.577 203.882 600.097 206.802 L 596.807 205.012 L 599.517 199.802 Q 602.887 194.142 605.167 188.012 Q 608.577 178.862 609.097 177.942 Q 612.007 172.822 616.617 169.862 Q 622.167 166.312 627.747 169.362 Q 629.277 170.202 630.307 170.262 Z " fill="rgb(198,244,185)"/><path d=" M 689.267 168.552 L 686.427 181.562 C 686.336 181.871 686.379 182.2 686.547 182.482 Q 689.547 188.042 690.057 191.052 Q 690.647 194.572 692.587 196.312 Q 692.607 196.322 693.727 197.072 Q 695.597 198.322 696.257 201.732 C 696.389 202.396 696.932 202.902 697.607 202.992 Q 704.367 203.872 706.477 209.872 Q 707.567 212.952 709.477 215.591 Q 712.537 219.802 712.987 224.792 Q 713.237 227.542 711.787 231.482 Q 708.277 241.062 708.057 243.302 Q 707.157 252.262 710.057 260.802 Q 710.527 262.182 708.887 265.721 Q 705.817 272.372 700.987 279.271 C 700.453 280.026 700.284 280.98 700.527 281.872 Q 701.697 286.211 700.767 290.802 Q 699.997 294.562 697.347 298.822 Q 692.477 306.632 684.867 312.112 Q 675.617 318.762 668.687 310.742 C 668.145 310.115 667.218 309.998 666.537 310.471 Q 663.567 312.512 660.927 313.961 Q 655.527 316.932 650.167 313.901 Q 647.647 312.471 645.037 310.732 C 644.508 310.378 643.823 310.351 643.267 310.661 Q 639.727 312.651 637.457 314.442 Q 629.587 320.632 620.697 325.172 Q 616.807 327.161 613.947 326.862 Q 608.057 326.252 605.927 319.591 Q 603.267 311.262 602.347 302.922 C 602.278 302.268 601.942 301.672 601.417 301.271 Q 594.377 295.911 588.367 289.492 Q 585.037 285.932 585.847 281.302 Q 586.297 280.471 586.357 281.211 C 586.364 281.351 586.487 281.461 586.637 281.461 Q 589.947 281.182 592.807 282.762 L 595.807 285.341 Q 600.497 288.732 605.037 292.312 Q 607.847 294.521 608.307 296.802 Q 609.917 304.732 612.887 312.232 Q 613.777 314.512 615.867 315.591 C 616.158 315.719 616.489 315.757 616.807 315.702 Q 619.897 315.002 622.617 312.862 Q 625.147 310.882 629.347 308.002 Q 629.427 307.942 634.747 304.031 Q 637.347 302.122 640.197 300.591 Q 644.077 298.512 645.517 298.262 Q 648.957 297.651 651.347 301.252 Q 652.827 303.502 655.117 304.812 C 655.391 304.961 655.723 304.972 656.007 304.841 Q 660.077 302.922 663.637 300.142 Q 665.467 298.721 667.607 298.292 Q 669.527 297.911 671.567 299.232 Q 674.697 301.262 677.167 303.572 Q 678.557 304.862 679.987 303.612 Q 685.137 299.112 688.577 293.292 Q 691.777 287.882 691.307 282.052 Q 690.697 274.512 695.027 269.012 Q 697.847 265.442 700.267 262.062 Q 701.807 259.901 700.997 257.372 Q 698.397 249.271 700.837 241.252 Q 701.047 240.552 700.957 239.832 Q 700.867 239.082 700.807 238.341 Q 702.387 236.752 703.057 234.591 Q 703.597 234.202 703.807 232.802 Q 704.517 228.112 703.997 224.172 Q 703.527 220.542 701.037 217.721 Q 698.247 214.542 694.057 211.802 Q 691.667 210.242 689.807 211.591 Q 682.717 202.672 681.907 191.341 Q 681.847 190.591 681.407 187.312 Q 681.127 185.242 681.427 183.192 Q 681.717 181.202 683.487 177.802 Q 684.827 175.221 686.057 172.591 L 687.597 168.802 Q 688.497 168.961 689.267 168.552 Z " fill="rgb(145,118,177)"/><path d=" M 649.557 181.012 Q 651.857 183.461 650.117 186.862 Q 645.637 195.632 636.727 198.031 Q 633.727 198.841 631.837 198.452 Q 628.437 197.742 628.807 193.552 Q 629.137 189.841 632.807 187.262 L 633.847 187.591 Q 634.417 187.781 634.807 187.752 Q 638.337 187.521 639.997 190.612 C 640.082 190.771 640.228 190.89 640.402 190.939 C 640.576 190.988 640.762 190.964 640.917 190.872 Q 645.217 188.382 646.567 184.211 Q 646.997 182.901 647.657 182.312 Q 648.517 181.542 649.557 181.012 Z " fill="rgb(232,252,167)"/><path d=" M 599.517 199.802 L 596.807 205.012 Q 591.217 214.632 587.997 220.742 Q 586.537 223.502 584.557 225.262 Q 582.087 226.892 580.807 229.582 Q 578.807 233.792 577.917 238.292 Q 576.847 243.702 578.037 247.281 Q 579.637 252.101 584.707 254.572 Q 587.437 255.911 590.217 257.172 Q 593.597 258.702 594.057 261.552 Q 595.027 267.471 592.057 274.302 Q 589.977 279.101 592.807 282.762 Q 589.947 281.182 586.637 281.461 C 586.487 281.461 586.364 281.351 586.357 281.211 Q 586.297 280.471 585.847 281.302 Q 586.057 273.112 588.507 265.452 C 588.651 265.008 588.598 264.525 588.364 264.122 C 588.129 263.719 587.734 263.435 587.277 263.341 Q 572.157 260.262 569.307 245.302 Q 568.457 240.822 569.957 235.601 Q 571.007 231.942 573.937 226.911 Q 582.767 211.742 596.247 200.742 Q 597.577 199.651 599.517 199.802 Z " fill="rgb(144,160,171)"/><path d=" M 619.767 218.302 Q 622.227 214.502 622.847 210.052 Q 623.397 205.122 627.217 202.161 C 627.47 201.969 627.8 201.906 628.107 201.992 Q 630.947 202.781 635.617 205.242 Q 638.197 206.601 639.717 208.411 Q 641.187 210.182 641.137 213.082 Q 641.057 217.082 639.717 220.812 Q 638.837 223.271 636.477 227.892 Q 633.397 233.952 628.847 239.072 Q 624.607 243.841 619.117 245.862 Q 615.537 247.192 612.687 245.622 Q 610.207 244.262 609.567 240.862 Q 608.927 237.502 609.697 234.042 C 609.721 233.937 609.795 233.851 609.897 233.809 C 609.998 233.767 610.114 233.776 610.207 233.832 Q 610.927 234.281 611.747 234.452 Q 612.477 234.601 613.297 234.221 Q 620.297 230.971 623.467 224.012 Q 624.177 222.432 623.947 221.351 Q 623.567 219.542 621.247 219.612 Q 619.677 219.661 619.767 218.302 Z " fill="rgb(102,154,179)"/><path d=" M 584.557 225.262 Q 585.267 225.192 585.807 225.591 Q 586.467 226.322 586.277 227.202 Q 586.027 228.362 586.017 228.442 Q 585.797 232.112 585.057 237.302 Q 584.557 240.781 586.347 244.052 Q 586.807 245.382 588.117 245.992 Q 591.677 247.651 594.997 249.711 Q 599.177 252.312 600.867 254.742 Q 604.137 259.482 602.567 265.942 Q 600.817 273.182 595.117 280.862 Q 593.297 283.322 596.557 284.591 Q 596.557 285.312 595.807 285.341 L 592.807 282.762 Q 589.977 279.101 592.057 274.302 Q 595.027 267.471 594.057 261.552 Q 593.597 258.702 590.217 257.172 Q 587.437 255.911 584.707 254.572 Q 579.637 252.101 578.037 247.281 Q 576.847 243.702 577.917 238.292 Q 578.807 233.792 580.807 229.582 Q 582.087 226.892 584.557 225.262 Z " fill="rgb(249,254,146)"/><path d=" M 642.017 177.552 Q 641.917 179.082 643.557 179.052 Q 646.697 178.982 649.557 181.012 Q 648.517 181.542 647.657 182.312 Q 646.997 182.901 646.567 184.211 Q 645.217 188.382 640.917 190.872 C 640.762 190.964 640.576 190.988 640.402 190.939 C 640.228 190.89 640.082 190.771 639.997 190.612 Q 638.337 187.521 634.807 187.752 Q 634.417 187.781 633.847 187.591 L 632.807 187.262 L 635.777 183.982 C 636.07 183.764 636.169 183.428 636.027 183.132 Q 635.587 181.702 633.307 182.091 Q 639.017 182.382 642.017 177.552 Z " fill="rgb(208,244,181)"/><path d=" M 585.807 225.591 Q 587.077 227.362 590.057 227.302 Q 592.517 227.252 592.977 229.262 Q 593.227 230.401 592.567 232.271 Q 591.737 234.582 589.807 239.552 Q 588.597 242.661 586.347 244.052 Q 584.557 240.781 585.057 237.302 Q 585.797 232.112 586.017 228.442 Q 586.027 228.362 586.277 227.202 Q 586.467 226.322 585.807 225.591 Z " fill="rgb(208,244,181)"/><path d=" M 703.057 234.591 Q 682.947 239.562 677.807 241.052 Q 674.427 242.031 671.127 244.392 Q 665.527 248.401 665.077 248.651 Q 658.297 252.372 650.497 253.461 Q 637.957 255.232 632.247 267.492 Q 631.057 270.031 627.337 270.521 Q 619.837 271.521 612.307 270.851 C 612.187 270.838 612.079 270.769 612.017 270.665 C 611.954 270.562 611.943 270.434 611.987 270.322 Q 613.197 267.221 615.757 265.002 Q 618.397 262.702 621.177 260.582 Q 624.107 258.341 626.367 255.911 Q 631.577 250.332 634.367 248.112 Q 640.867 242.952 649.277 241.262 Q 651.457 240.822 652.047 238.661 Q 652.477 237.091 653.047 235.091 Q 653.677 232.872 654.367 231.632 Q 656.817 227.232 661.627 225.122 Q 668.037 222.312 674.557 221.802 Q 679.807 221.392 684.137 220.172 Q 690.497 218.372 689.807 211.591 Q 691.667 210.242 694.057 211.802 Q 698.247 214.542 701.037 217.721 Q 703.527 220.542 703.997 224.172 Q 704.517 228.112 703.807 232.802 Q 703.597 234.202 703.057 234.591 Z " fill="rgb(97,147,178)"/><path d=" M 700.807 238.341 Q 700.867 239.082 700.957 239.832 Q 701.047 240.552 700.837 241.252 Q 698.397 249.271 700.997 257.372 Q 701.807 259.901 700.267 262.062 Q 697.847 265.442 695.027 269.012 Q 690.697 274.512 691.307 282.052 Q 691.777 287.882 688.577 293.292 Q 685.137 299.112 679.987 303.612 Q 678.557 304.862 677.167 303.572 Q 674.697 301.262 671.567 299.232 Q 669.527 297.911 667.607 298.292 Q 665.467 298.721 663.637 300.142 Q 660.077 302.922 656.007 304.841 C 655.723 304.972 655.391 304.961 655.117 304.812 Q 652.827 303.502 651.347 301.252 Q 648.957 297.651 645.517 298.262 Q 644.077 298.512 640.197 300.591 Q 637.347 302.122 634.747 304.031 Q 629.427 307.942 629.347 308.002 Q 625.147 310.882 622.617 312.862 Q 619.897 315.002 616.807 315.702 C 616.489 315.757 616.158 315.719 615.867 315.591 Q 613.777 314.512 612.887 312.232 Q 609.917 304.732 608.307 296.802 Q 607.847 294.521 605.037 292.312 Q 600.497 288.732 595.807 285.341 Q 596.557 285.312 596.557 284.591 Q 600.277 280.982 604.867 278.812 Q 608.327 277.182 614.537 276.542 Q 620.817 275.892 627.087 275.192 Q 635.247 274.292 638.227 272.692 Q 643.307 269.961 646.367 263.862 Q 648.847 258.932 655.007 258.362 Q 657.067 258.172 657.097 258.172 Q 667.387 256.792 674.247 251.742 Q 677.907 249.042 680.417 247.362 Q 683.017 245.622 687.137 244.002 Q 694.027 241.292 700.807 238.341 Z " fill="rgb(97,147,178)"/><path d=" M 615.057 204.341 Q 618.327 205.732 621.487 207.382 Q 623.037 208.192 622.847 210.052 Q 622.227 214.502 619.767 218.302 Q 619.427 218.862 618.797 218.872 C 618.473 218.895 618.174 218.995 617.957 219.151 Q 615.777 221.262 612.837 221.091 Q 609.377 220.901 609.257 220.901 Q 606.877 220.911 604.557 220.341 Q 611.407 213.392 615.057 204.341 Z " fill="rgb(218,246,165)"/><path d=" M 687.597 168.802 L 686.057 172.591 Q 685.067 172.841 684.817 172.192 Q 684.607 171.632 684.567 171.582 Q 683.897 170.572 682.807 170.012 Q 681.517 165.832 677.617 166.862 Q 675.927 167.312 670.307 170.012 Q 664.947 172.112 661.767 168.822 Q 660.217 167.211 659.317 163.752 Q 658.597 160.971 658.247 158.101 Q 657.947 155.692 655.557 156.142 Q 652.177 156.792 649.677 159.161 Q 647.877 160.862 646.417 164.601 Q 643.927 170.971 642.017 177.552 Q 639.017 182.382 633.307 182.091 Q 631.307 182.021 629.317 181.911 Q 625.577 181.692 623.097 183.771 Q 621.507 185.112 619.997 188.971 Q 617.287 195.932 614.697 202.942 Q 614.527 203.382 614.617 203.672 Q 614.727 204.062 615.057 204.341 Q 611.407 213.392 604.557 220.341 Q 599.187 219.862 598.557 214.802 Q 598.087 211.021 600.097 206.802 Q 601.577 203.882 603.867 202.862 Q 611.057 199.661 611.497 192.052 Q 611.887 185.442 614.557 180.302 Q 615.607 178.281 617.597 177.021 Q 619.097 176.072 621.737 175.971 Q 626.767 175.771 631.807 175.552 Q 634.777 175.422 636.307 172.091 L 640.057 163.341 Q 642.407 157.961 646.467 153.942 Q 649.397 151.052 652.327 150.151 Q 657.127 148.672 659.657 152.792 Q 660.867 154.762 661.367 159.601 Q 661.727 163.112 662.317 166.642 C 662.366 166.932 662.559 167.179 662.83 167.296 C 663.1 167.413 663.412 167.385 663.657 167.221 Q 669.247 163.531 675.957 161.971 Q 680.457 160.932 683.117 162.082 Q 686.957 163.732 687.597 168.802 Z " fill="rgb(242,252,158)"/></g></g></g></svg>