<?xml version="1.0" encoding="UTF-8" standalone="no"?><!-- Generator: Gravit.io --><svg xmlns="http://www.w3.org/2000/svg" xmlns:xlink="http://www.w3.org/1999/xlink" style="isolation:isolate" viewBox="1001.402 408.518 181.423 115.2" width="181.423pt" height="115.2pt"><defs><clipPath id="_clipPath_JiukjGuiWpbk0f1K4vsOyUmy7uFvFeIv"><rect x="1001.402" y="408.518" width="181.423" height="115.2"/></clipPath></defs><g clip-path="url(#_clipPath_JiukjGuiWpbk0f1K4vsOyUmy7uFvFeIv)"><g><path d=" M 1144.884 484.167 Q 1145.584 484.077 1146.134 484.417 L 1142.384 485.417 Q 1142.774 483.677 1144.884 484.167 Z " fill="rgb(205,206,123)"/><path d=" M 1095.384 409.667 Q 1096.564 412.367 1094.134 413.247 Q 1089.504 413.377 1084.884 413.707 Q 1082.354 413.897 1080.634 415.667 Q 1076.944 415.367 1074.094 412.957 Q 1077.924 410.297 1082.394 409.517 Q 1084.184 409.207 1088.864 409.627 Q 1092.114 409.917 1095.384 409.667 Z " fill="rgb(216,253,101)"/><path d=" M 1099.634 409.167 Q 1099.454 411.927 1100.884 414.167 L 1095.634 414.167 Q 1095.014 413.507 1094.134 413.247 Q 1096.564 412.367 1095.384 409.667 Q 1097.424 408.937 1099.634 409.167 Z " fill="rgb(184,203,168)"/><path d=" M 1115.384 417.247 L 1118.634 418.747 Q 1118.864 420.707 1120.824 422.767 Q 1123.874 425.977 1127.154 432.107 Q 1128.574 434.757 1131.384 437.957 Q 1132.074 438.747 1131.364 439.067 C 1131.051 439.103 1130.721 439.082 1130.434 439.007 Q 1128.894 438.437 1128.884 440.207 Q 1128.874 443.127 1130.884 442.707 Q 1134.074 442.047 1134.424 438.707 L 1135.094 438.707 Q 1134.534 441.207 1133.884 447.457 Q 1133.094 455.037 1128.834 461.857 Q 1126.954 464.857 1126.054 466.957 Q 1124.874 469.717 1123.724 472.297 Q 1122.814 474.357 1120.654 473.717 Q 1117.094 472.657 1114.864 475.457 Q 1110.944 480.377 1104.634 479.207 Q 1102.664 478.847 1093.844 476.527 Q 1092.304 476.127 1091.424 476.457 Q 1089.954 477.017 1089.874 478.707 C 1089.831 479.032 1089.942 479.358 1090.184 479.617 Q 1091.664 481.537 1093.884 482.667 Q 1091.884 483.017 1089.874 483.357 Q 1088.974 483.517 1085.864 483.797 Q 1082.454 484.117 1079.274 485.447 C 1079.153 485.486 1079.062 485.582 1079.033 485.7 C 1079.005 485.818 1079.043 485.942 1079.134 486.027 Q 1079.954 486.827 1081.384 486.497 Q 1081.604 486.997 1082.134 486.997 Q 1078.784 487.907 1081.444 489.897 Q 1088.004 494.777 1097.594 496.667 Q 1102.184 497.577 1103.074 498.517 Q 1108.404 504.217 1102.434 507.287 Q 1099.854 508.607 1099.794 508.647 Q 1098.094 509.667 1096.434 510.747 Q 1090.044 514.887 1082.384 514.747 Q 1073.544 514.707 1065.134 511.997 Q 1063.054 510.487 1059.634 507.457 Q 1058.364 506.327 1056.384 506.247 L 1049.884 498.667 Q 1050.344 497.027 1048.884 496.417 Q 1049.034 494.197 1047.094 493.377 C 1046.739 493.249 1046.497 493.015 1046.444 492.747 Q 1046.254 492.137 1046.344 491.457 L 1046.504 490.997 C 1046.747 490.713 1046.652 490.357 1046.274 490.137 Q 1044.154 487.457 1044.074 486.517 Q 1043.084 475.837 1053.884 475.897 Q 1058.384 475.917 1062.884 476.177 C 1063.212 476.184 1063.529 476.072 1063.764 475.867 Q 1065.704 473.997 1063.324 472.017 Q 1062.334 471.197 1057.384 469.747 Q 1058.134 469.757 1058.284 469.227 Q 1058.384 468.877 1058.094 468.377 Q 1053.884 461.247 1052.134 454.707 Q 1051.324 451.687 1050.344 450.207 Q 1050.084 448.017 1048.154 447.697 C 1047.862 447.64 1047.603 447.491 1047.424 447.277 L 1047.134 446.917 Q 1050.784 438.577 1057.684 432.957 Q 1061.964 429.467 1063.804 428.147 Q 1067.024 425.857 1070.884 424.667 Q 1073.714 425.337 1075.674 427.457 Q 1071.754 432.507 1071.944 438.147 Q 1072.154 444.197 1078.084 443.007 C 1078.407 442.937 1078.7 442.773 1078.924 442.537 Q 1083.294 438.037 1084.534 431.787 Q 1084.834 430.267 1085.594 431.207 Q 1084.644 435.677 1084.784 440.207 Q 1084.854 442.237 1086.004 443.307 Q 1087.434 444.627 1089.404 444.707 Q 1091.684 444.807 1093.674 442.797 Q 1097.654 438.787 1096.904 433.167 Q 1096.494 430.067 1094.294 428.737 Q 1091.904 427.297 1088.634 427.917 Q 1089.004 426.647 1090.194 426.017 Q 1092.184 424.977 1090.574 424.267 L 1087.134 422.747 Q 1087.514 422.577 1087.194 422.397 Q 1083.954 420.487 1086.544 418.327 Q 1086.714 418.187 1087.444 418.007 Q 1087.964 417.887 1087.884 417.167 L 1089.924 416.207 L 1095.634 414.167 L 1100.884 414.167 Q 1109.284 411.367 1115.384 417.247 Z " fill="rgb(94,201,139)"/><path d=" M 1118.634 418.747 Q 1133.404 423.157 1134.424 438.707 Q 1134.074 442.047 1130.884 442.707 Q 1128.874 443.127 1128.884 440.207 Q 1128.894 438.437 1130.434 439.007 C 1130.721 439.082 1131.051 439.103 1131.364 439.067 Q 1132.074 438.747 1131.384 437.957 Q 1128.574 434.757 1127.154 432.107 Q 1123.874 425.977 1120.824 422.767 Q 1118.864 420.707 1118.634 418.747 Z " fill="rgb(62,142,145)"/><path d=" M 1144.674 455.957 Q 1146.404 462.327 1146.174 468.957 Q 1146.174 470.847 1145.934 472.717 Q 1145.454 476.297 1148.844 475.207 Q 1148.614 476.477 1149.634 477.167 Q 1148.484 477.277 1147.494 477.867 C 1147.232 478.003 1146.917 478.09 1146.584 478.117 L 1135.134 477.247 Q 1126.044 476.857 1119.224 482.797 Q 1115.474 486.067 1112.884 486.207 Q 1105.054 486.617 1093.884 482.667 Q 1091.664 481.537 1090.184 479.617 C 1089.942 479.358 1089.831 479.032 1089.874 478.707 Q 1089.954 477.017 1091.424 476.457 Q 1092.304 476.127 1093.844 476.527 Q 1102.664 478.847 1104.634 479.207 Q 1110.944 480.377 1114.864 475.457 Q 1117.094 472.657 1120.654 473.717 Q 1122.814 474.357 1123.724 472.297 Q 1124.874 469.717 1126.054 466.957 Q 1126.954 464.857 1128.834 461.857 Q 1133.094 455.037 1133.884 447.457 Q 1134.534 441.207 1135.094 438.707 Q 1136.394 436.247 1136.594 433.897 Q 1136.694 432.747 1137.444 433.617 Q 1141.834 438.727 1143.134 445.157 Q 1144.204 450.517 1144.674 455.957 Z " fill="rgb(75,133,159)"/><path d=" M 1047.134 446.917 L 1047.424 447.277 C 1047.603 447.491 1047.862 447.64 1048.154 447.697 Q 1050.084 448.017 1050.344 450.207 Q 1049.354 450.777 1049.124 451.957 Q 1047.544 460.197 1049.134 468.457 Q 1049.364 469.637 1050.884 469.247 Q 1047.414 469.907 1042.944 473.017 Q 1040.634 474.637 1040.134 476.247 Q 1038.824 476.757 1039.094 475.457 Q 1040.284 460.357 1047.134 446.917 Z " fill="rgb(88,181,152)"/><path d=" M 1117.174 413.457 Q 1128.964 414.827 1134.704 425.147 Q 1136.774 428.877 1140.194 431.377 Q 1146.524 436.017 1147.404 444.177 C 1147.438 444.475 1147.599 444.744 1147.846 444.915 C 1148.094 445.086 1148.403 445.141 1148.694 445.067 Q 1150.124 444.707 1151.174 446.207 Q 1150.934 447.357 1152.094 447.457 L 1155.664 453.007 C 1155.909 453.284 1155.95 453.638 1155.774 453.947 Q 1155.094 456.687 1152.714 458.217 Q 1152.474 458.367 1151.754 458.927 Q 1150.594 459.837 1150.594 457.707 Q 1150.794 455.067 1150.314 452.467 Q 1149.554 448.427 1148.174 452.207 Q 1147.284 454.997 1144.674 455.957 Q 1144.204 450.517 1143.134 445.157 Q 1141.834 438.727 1137.444 433.617 Q 1136.694 432.747 1136.594 433.897 Q 1136.394 436.247 1135.094 438.707 L 1134.424 438.707 Q 1133.404 423.157 1118.634 418.747 L 1115.384 417.247 Q 1115.404 414.837 1117.174 413.457 Z " fill="rgb(199,186,241)"/><path d=" M 1180.134 454.417 Q 1181.244 454.347 1181.174 455.457 Q 1177.034 460.827 1170.444 464.767 Q 1168.054 466.207 1168.834 469.327 Q 1169.944 473.777 1168.104 477.337 Q 1166.634 480.187 1162.764 482.687 Q 1155.794 487.177 1146.854 486.687 C 1146.536 486.675 1146.236 486.83 1146.064 487.097 Q 1138.174 499.747 1129.234 510.577 Q 1128.344 511.647 1127.414 512.177 Q 1126.294 512.817 1125.144 513.137 C 1124.527 513.312 1124.026 513.758 1123.784 514.347 Q 1121.204 520.607 1114.794 518.337 C 1114.382 518.205 1113.931 518.248 1113.554 518.457 Q 1107.064 522.207 1099.694 522.767 Q 1096.964 522.977 1095.594 521.457 Q 1095.614 520.777 1096.134 520.707 Q 1107.194 519.227 1116.454 513.937 Q 1119.374 512.267 1122.384 510.737 Q 1124.504 509.657 1125.504 508.657 Q 1126.704 507.457 1127.884 505.707 Q 1138.314 490.247 1140.824 486.397 Q 1141.004 486.107 1140.634 485.747 L 1142.384 485.417 L 1146.134 484.417 L 1148.384 484.747 Q 1152.164 485.367 1155.884 484.497 Q 1160.954 481.277 1162.694 480.017 Q 1169.224 475.317 1166.844 468.067 Q 1166.054 465.637 1166.254 464.617 Q 1166.634 462.707 1168.444 461.517 Q 1172.024 459.187 1180.134 454.417 Z " fill="rgb(199,186,241)"/><path d=" M 1148.884 462.917 L 1149.094 462.957 Q 1151.874 469.167 1148.844 475.207 Q 1145.454 476.297 1145.934 472.717 Q 1146.174 470.847 1146.174 468.957 Q 1146.004 465.787 1147.634 463.167 L 1148.884 462.917 Z " fill="rgb(199,186,241)"/><path d=" M 1074.094 412.957 Q 1076.944 415.367 1080.634 415.667 Q 1085.394 414.677 1089.134 415.207 Q 1089.794 415.297 1089.924 416.207 L 1087.884 417.167 Q 1081.094 418.737 1075.234 422.357 Q 1074.204 422.997 1073.074 423.537 Q 1071.964 424.067 1070.884 424.667 Q 1067.024 425.857 1063.804 428.147 Q 1061.964 429.467 1057.684 432.957 Q 1050.784 438.577 1047.134 446.917 Q 1040.284 460.357 1039.094 475.457 Q 1038.784 477.827 1036.694 478.107 C 1036.374 478.134 1036.059 478.019 1035.844 477.797 Q 1034.184 476.097 1033.844 473.707 Q 1034.194 462.377 1037.764 451.627 Q 1037.954 451.047 1037.844 450.457 L 1038.244 447.147 C 1038.296 446.858 1038.063 446.585 1037.714 446.527 Q 1032.644 445.367 1028.684 448.777 Q 1025.844 451.217 1024.344 454.657 Q 1022.434 459.047 1019.344 462.707 Q 1012.024 467.427 1010.574 468.147 Q 1008.174 469.327 1006.684 471.537 Q 1005.404 473.437 1007.304 474.717 Q 1009.074 475.907 1011.114 476.627 Q 1012.364 477.067 1015.224 477.457 Q 1025.414 478.877 1034.794 483.627 Q 1036.624 484.557 1037.724 482.827 Q 1039.514 480.047 1040.134 476.247 Q 1040.634 474.637 1042.944 473.017 Q 1047.414 469.907 1050.884 469.247 L 1057.384 469.747 Q 1062.334 471.197 1063.324 472.017 Q 1065.704 473.997 1063.764 475.867 C 1063.529 476.072 1063.212 476.184 1062.884 476.177 Q 1058.384 475.917 1053.884 475.897 Q 1043.084 475.837 1044.074 486.517 Q 1044.154 487.457 1046.274 490.137 C 1046.652 490.357 1046.747 490.713 1046.504 490.997 L 1046.344 491.457 Q 1045.394 493.567 1043.124 493.957 Q 1042.514 494.067 1043.074 494.267 L 1048.884 496.417 Q 1050.344 497.027 1049.884 498.667 L 1038.314 494.177 C 1037.539 493.864 1036.876 493.346 1036.404 492.687 Q 1033.304 488.357 1029.164 485.567 Q 1025.524 483.107 1020.094 482.207 Q 1016.164 481.547 1010.384 480.957 Q 1006.444 480.557 1003.264 476.597 Q 1001.124 473.937 1001.444 470.957 Q 1001.684 468.727 1004.004 466.127 Q 1008.504 461.067 1014.514 457.107 Q 1016.324 455.907 1016.774 453.787 Q 1018.264 446.827 1024.114 443.197 Q 1027.064 441.357 1031.504 440.787 Q 1035.404 440.277 1039.364 440.457 C 1039.599 440.464 1039.802 440.295 1039.834 440.067 Q 1041.274 430.037 1048.614 424.617 Q 1050.904 422.927 1057.104 420.777 Q 1065.964 417.697 1074.094 412.957 Z " fill="rgb(198,226,71)"/><path d=" M 1087.134 422.747 L 1090.574 424.267 Q 1092.184 424.977 1090.194 426.017 Q 1089.004 426.647 1088.634 427.917 Q 1086.034 428.627 1085.594 431.207 Q 1084.834 430.267 1084.534 431.787 Q 1083.294 438.037 1078.924 442.537 C 1078.7 442.773 1078.407 442.937 1078.084 443.007 Q 1072.154 444.197 1071.944 438.147 Q 1071.754 432.507 1075.674 427.457 Q 1077.064 425.857 1078.494 424.317 Q 1080.124 422.557 1082.004 422.287 Q 1084.554 421.937 1087.134 422.747 Z " fill="rgb(198,226,71)"/><path d=" M 1148.844 460.707 L 1148.884 462.917 L 1147.634 463.167 Q 1146.914 460.997 1148.844 460.707 Z " fill="rgb(170,180,224)"/><path d=" M 1173.884 454.747 Q 1167.024 459.587 1163.444 463.767 Q 1162.454 464.927 1161.954 466.987 Q 1161.684 468.077 1161.924 470.447 Q 1162.414 475.307 1158.984 478.857 C 1158.726 479.092 1158.603 479.403 1158.644 479.717 Q 1158.584 481.277 1157.134 481.707 Q 1155.114 482.297 1153.634 483.667 L 1150.924 483.957 Q 1149.294 483.157 1147.594 482.587 Q 1146.464 482.217 1147.034 480.807 C 1147.081 480.688 1147.072 480.554 1147.01 480.442 C 1146.948 480.329 1146.84 480.251 1146.714 480.227 Q 1143.784 479.617 1140.924 480.207 L 1140.324 478.447 C 1140.306 478.246 1140 478.074 1139.574 478.027 L 1135.134 477.247 L 1146.584 478.117 C 1146.917 478.09 1147.232 478.003 1147.494 477.867 Q 1148.484 477.277 1149.634 477.167 Q 1152.604 477.697 1154.424 476.157 Q 1155.964 474.867 1155.844 472.127 Q 1155.674 468.277 1154.034 464.817 Q 1153.294 463.267 1154.384 461.927 Q 1157.614 457.977 1161.644 456.047 Q 1161.684 456.027 1163.164 455.467 Q 1165.714 454.517 1166.344 451.707 Q 1167.454 453.237 1168.754 451.887 C 1168.827 451.823 1168.928 451.798 1169.023 451.82 C 1169.119 451.842 1169.198 451.908 1169.234 451.997 Q 1170.004 453.807 1172.144 453.747 C 1172.527 453.811 1172.824 453.935 1172.954 454.087 L 1173.884 454.747 Z " fill="rgb(105,193,138)"/><path d=" M 1019.344 462.707 Q 1019.044 464.977 1017.534 466.667 C 1017.26 466.901 1017.12 467.207 1017.144 467.517 Q 1016.984 470.147 1019.594 469.457 Q 1020.194 470.717 1021.824 471.517 Q 1027.404 474.247 1032.894 474.907 C 1033.204 474.935 1033.495 474.761 1033.594 474.487 L 1033.844 473.707 Q 1034.184 476.097 1035.844 477.797 C 1036.059 478.019 1036.374 478.134 1036.694 478.107 Q 1038.784 477.827 1039.094 475.457 Q 1038.824 476.757 1040.134 476.247 Q 1039.514 480.047 1037.724 482.827 Q 1036.624 484.557 1034.794 483.627 Q 1025.414 478.877 1015.224 477.457 Q 1012.364 477.067 1011.114 476.627 Q 1009.074 475.907 1007.304 474.717 Q 1005.404 473.437 1006.684 471.537 Q 1008.174 469.327 1010.574 468.147 Q 1012.024 467.427 1019.344 462.707 Z " fill="rgb(105,193,138)"/><path d=" M 1056.384 506.247 Q 1058.364 506.327 1059.634 507.457 Q 1063.054 510.487 1065.134 511.997 L 1071.424 517.207 Q 1071.044 517.627 1071.134 518.167 Q 1063.254 512.847 1056.384 506.247 Z " fill="rgb(90,176,156)"/><path d=" M 1135.134 477.247 L 1139.574 478.027 C 1140 478.074 1140.306 478.246 1140.324 478.447 L 1140.924 480.207 Q 1138.944 481.337 1137.134 481.457 Q 1129.954 481.937 1125.714 487.307 Q 1121.244 492.957 1118.634 495.707 Q 1118.034 496.337 1118.384 496.747 Q 1115.534 498.227 1112.134 497.207 Q 1107.194 495.717 1103.764 493.787 Q 1094.404 488.507 1083.884 486.417 Q 1082.644 485.977 1081.384 486.497 Q 1079.954 486.827 1079.134 486.027 C 1079.043 485.942 1079.005 485.818 1079.033 485.7 C 1079.062 485.582 1079.153 485.486 1079.274 485.447 Q 1082.454 484.117 1085.864 483.797 Q 1088.974 483.517 1089.874 483.357 Q 1091.884 483.017 1093.884 482.667 Q 1105.054 486.617 1112.884 486.207 Q 1115.474 486.067 1119.224 482.797 Q 1126.044 476.857 1135.134 477.247 Z " fill="rgb(193,227,79)"/><path d=" M 1144.884 484.167 Q 1142.774 483.677 1142.384 485.417 L 1140.634 485.747 L 1135.884 485.747 L 1131.204 485.657 C 1130.857 485.639 1130.562 485.46 1130.464 485.207 Q 1130.224 484.467 1131.304 484.087 Q 1135.354 482.657 1139.574 483.517 Q 1141.024 483.817 1144.884 484.167 Z " fill="rgb(193,227,79)"/><path d=" M 1050.344 450.207 Q 1051.324 451.687 1052.134 454.707 Q 1053.884 461.247 1058.094 468.377 Q 1058.384 468.877 1058.284 469.227 Q 1058.134 469.757 1057.384 469.747 L 1050.884 469.247 Q 1049.364 469.637 1049.134 468.457 Q 1047.544 460.197 1049.124 451.957 Q 1049.354 450.777 1050.344 450.207 Z " fill="rgb(65,161,156)"/><path d=" M 1037.844 450.457 Q 1037.954 451.047 1037.764 451.627 Q 1034.194 462.377 1033.844 473.707 L 1033.594 474.487 C 1033.495 474.761 1033.204 474.935 1032.894 474.907 Q 1027.404 474.247 1021.824 471.517 Q 1020.194 470.717 1019.594 469.457 Q 1021.004 466.377 1023.694 465.267 Q 1025.614 464.487 1026.814 463.197 Q 1027.634 462.317 1028.454 459.957 Q 1029.974 455.547 1031.694 453.517 Q 1033.564 451.327 1036.884 450.207 Q 1037.604 449.967 1037.844 450.457 Z " fill="rgb(28,25,44)"/><path d=" M 1148.174 452.207 L 1148.844 460.707 Q 1146.914 460.997 1147.634 463.167 Q 1146.004 465.787 1146.174 468.957 Q 1146.404 462.327 1144.674 455.957 Q 1147.284 454.997 1148.174 452.207 Z " fill="rgb(160,177,191)"/><path d=" M 1182.384 452.747 Q 1182.094 454.237 1181.174 455.457 Q 1181.244 454.347 1180.134 454.417 Q 1180.824 452.907 1182.384 452.747 Z " fill="rgb(160,177,191)"/><path d=" M 1153.634 483.667 Q 1155.974 483.637 1154.634 483.937 Q 1152.684 484.357 1155.884 484.497 Q 1152.164 485.367 1148.384 484.747 L 1151.354 484.527 Q 1151.804 484.497 1151.344 484.217 L 1150.924 483.957 L 1153.634 483.667 Z " fill="rgb(160,177,191)"/><path d=" M 1151.174 446.207 Q 1152.554 445.907 1152.094 447.457 Q 1150.934 447.357 1151.174 446.207 Z " fill="rgb(78,129,166)"/><path d=" M 1150.594 457.707 Q 1148.974 457.087 1149.064 458.957 Q 1149.164 460.957 1149.094 462.957 L 1148.884 462.917 L 1148.844 460.707 L 1148.174 452.207 Q 1149.554 448.427 1150.314 452.467 Q 1150.794 455.067 1150.594 457.707 Z " fill="rgb(78,129,166)"/><path d=" M 1135.884 485.747 L 1140.634 485.747 Q 1141.004 486.107 1140.824 486.397 Q 1138.314 490.247 1127.884 505.707 Q 1126.704 507.457 1125.504 508.657 Q 1124.504 509.657 1122.384 510.737 Q 1119.374 512.267 1116.454 513.937 Q 1107.194 519.227 1096.134 520.707 Q 1095.614 520.777 1095.594 521.457 Q 1094.974 521.067 1094.174 521.207 Q 1092.964 520.667 1091.634 520.677 Q 1084.334 520.717 1077.344 518.707 Q 1078.524 515.057 1082.384 514.747 Q 1090.044 514.887 1096.434 510.747 Q 1098.094 509.667 1099.794 508.647 Q 1099.854 508.607 1102.434 507.287 Q 1108.404 504.217 1103.074 498.517 Q 1102.184 497.577 1097.594 496.667 Q 1088.004 494.777 1081.444 489.897 Q 1078.784 487.907 1082.134 486.997 L 1083.884 486.417 Q 1094.404 488.507 1103.764 493.787 Q 1107.194 495.717 1112.134 497.207 Q 1115.534 498.227 1118.384 496.747 Q 1123.174 493.327 1127.164 489.007 Q 1129.004 487.007 1130.854 486.447 Q 1133.274 485.707 1135.884 485.747 Z " fill="rgb(78,129,166)"/><path d=" M 1083.884 486.417 L 1082.134 486.997 Q 1081.604 486.997 1081.384 486.497 Q 1082.644 485.977 1083.884 486.417 Z " fill="rgb(125,152,112)"/><path d=" M 1094.134 413.247 Q 1095.014 413.507 1095.634 414.167 L 1089.924 416.207 Q 1089.794 415.297 1089.134 415.207 Q 1085.394 414.677 1080.634 415.667 Q 1082.354 413.897 1084.884 413.707 Q 1089.504 413.377 1094.134 413.247 Z " fill="rgb(124,211,111)"/><path d=" M 1087.884 417.167 Q 1087.964 417.887 1087.444 418.007 Q 1086.714 418.187 1086.544 418.327 Q 1083.954 420.487 1087.194 422.397 Q 1087.514 422.577 1087.134 422.747 Q 1084.554 421.937 1082.004 422.287 Q 1080.124 422.557 1078.494 424.317 Q 1077.064 425.857 1075.674 427.457 Q 1073.714 425.337 1070.884 424.667 Q 1071.964 424.067 1073.074 423.537 Q 1074.204 422.997 1075.234 422.357 Q 1081.094 418.737 1087.884 417.167 Z " fill="rgb(124,211,111)"/><path d=" M 1179.174 443.707 Q 1179.074 444.127 1178.794 444.417 C 1178.49 444.602 1178.38 444.914 1178.524 445.187 Q 1179.734 449.667 1176.354 452.507 Q 1175.974 452.827 1175.244 453.727 Q 1174.704 454.387 1173.884 454.747 L 1172.954 454.087 C 1172.824 453.935 1172.527 453.811 1172.144 453.747 Q 1170.004 453.807 1169.234 451.997 C 1169.198 451.908 1169.119 451.842 1169.023 451.82 C 1168.928 451.798 1168.827 451.823 1168.754 451.887 Q 1167.454 453.237 1166.344 451.707 Q 1166.924 448.587 1164.574 447.267 Q 1157.894 443.537 1149.124 440.237 Q 1148.034 439.827 1147.494 439.197 Q 1146.234 437.747 1147.824 437.167 Q 1148.394 436.957 1149.474 436.927 Q 1160.814 436.577 1172.944 440.397 Q 1176.944 441.657 1179.174 443.707 Z " fill="rgb(124,211,111)"/><path d=" M 1150.924 483.957 L 1151.344 484.217 Q 1151.804 484.497 1151.354 484.527 L 1148.384 484.747 L 1146.134 484.417 Q 1145.584 484.077 1144.884 484.167 Q 1141.024 483.817 1139.574 483.517 Q 1135.354 482.657 1131.304 484.087 Q 1130.224 484.467 1130.464 485.207 C 1130.562 485.46 1130.857 485.639 1131.204 485.657 L 1135.884 485.747 Q 1133.274 485.707 1130.854 486.447 Q 1129.004 487.007 1127.164 489.007 Q 1123.174 493.327 1118.384 496.747 Q 1118.034 496.337 1118.634 495.707 Q 1121.244 492.957 1125.714 487.307 Q 1129.954 481.937 1137.134 481.457 Q 1138.944 481.337 1140.924 480.207 Q 1143.784 479.617 1146.714 480.227 C 1146.84 480.251 1146.948 480.329 1147.01 480.442 C 1147.072 480.554 1147.081 480.688 1147.034 480.807 Q 1146.464 482.217 1147.594 482.587 Q 1149.294 483.157 1150.924 483.957 Z " fill="rgb(124,211,111)"/><path d=" M 1046.344 491.457 Q 1046.254 492.137 1046.444 492.747 C 1046.497 493.015 1046.739 493.249 1047.094 493.377 Q 1049.034 494.197 1048.884 496.417 L 1043.074 494.267 Q 1042.514 494.067 1043.124 493.957 Q 1045.394 493.567 1046.344 491.457 Z " fill="rgb(124,211,111)"/><path d=" M 1088.634 427.917 Q 1091.904 427.297 1094.294 428.737 Q 1096.494 430.067 1096.904 433.167 Q 1097.654 438.787 1093.674 442.797 Q 1091.684 444.807 1089.404 444.707 Q 1087.434 444.627 1086.004 443.307 Q 1084.854 442.237 1084.784 440.207 Q 1084.644 435.677 1085.594 431.207 Q 1086.034 428.627 1088.634 427.917 Z " fill="rgb(73,157,166)"/><path d=" M 1179.174 443.707 Q 1184.094 446.967 1182.384 452.747 Q 1180.824 452.907 1180.134 454.417 Q 1172.024 459.187 1168.444 461.517 Q 1166.634 462.707 1166.254 464.617 Q 1166.054 465.637 1166.844 468.067 Q 1169.224 475.317 1162.694 480.017 Q 1160.954 481.277 1155.884 484.497 Q 1152.684 484.357 1154.634 483.937 Q 1155.974 483.637 1153.634 483.667 Q 1155.114 482.297 1157.134 481.707 Q 1158.584 481.277 1158.644 479.717 C 1158.603 479.403 1158.726 479.092 1158.984 478.857 Q 1162.414 475.307 1161.924 470.447 Q 1161.684 468.077 1161.954 466.987 Q 1162.454 464.927 1163.444 463.767 Q 1167.024 459.587 1173.884 454.747 Q 1174.704 454.387 1175.244 453.727 Q 1175.974 452.827 1176.354 452.507 Q 1179.734 449.667 1178.524 445.187 C 1178.38 444.914 1178.49 444.602 1178.794 444.417 Q 1179.074 444.127 1179.174 443.707 Z " fill="rgb(73,157,166)"/><path d=" M 1037.844 450.457 Q 1037.604 449.967 1036.884 450.207 Q 1033.564 451.327 1031.694 453.517 Q 1029.974 455.547 1028.454 459.957 Q 1027.634 462.317 1026.814 463.197 Q 1025.614 464.487 1023.694 465.267 Q 1021.004 466.377 1019.594 469.457 Q 1016.984 470.147 1017.144 467.517 C 1017.12 467.207 1017.26 466.901 1017.534 466.667 Q 1019.044 464.977 1019.344 462.707 Q 1022.434 459.047 1024.344 454.657 Q 1025.844 451.217 1028.684 448.777 Q 1032.644 445.367 1037.714 446.527 C 1038.063 446.585 1038.296 446.858 1038.244 447.147 L 1037.844 450.457 Z " fill="rgb(76,154,149)"/><path d=" M 1065.134 511.997 Q 1073.544 514.707 1082.384 514.747 Q 1078.524 515.057 1077.344 518.707 L 1071.424 517.207 L 1065.134 511.997 Z " fill="rgb(76,154,149)"/><path d=" M 1117.174 413.457 Q 1115.404 414.837 1115.384 417.247 Q 1109.284 411.367 1100.884 414.167 Q 1099.454 411.927 1099.634 409.167 Q 1109.704 406.727 1117.174 413.457 Z " fill="rgb(180,184,204)"/><path d=" M 1071.424 517.207 L 1077.344 518.707 Q 1084.334 520.717 1091.634 520.677 Q 1092.964 520.667 1094.174 521.207 Q 1092.304 523.637 1089.634 523.707 Q 1079.774 523.967 1071.134 518.167 Q 1071.044 517.627 1071.424 517.207 Z " fill="rgb(180,184,204)"/><path d=" M 1102.286 423.309 C 1102.746 422.914 1103.765 423.345 1104.559 424.271 C 1105.353 425.197 1105.623 426.27 1105.162 426.665 C 1104.701 427.06 1103.682 426.629 1102.889 425.703 C 1102.095 424.777 1101.825 423.704 1102.286 423.309 Z " fill="rgb(115,174,143)"/><path d=" M 1128.894 450.007 C 1129.331 450.287 1129.574 450.785 1129.524 451.297 Q 1128.794 459.387 1120.864 462.047 Q 1120.384 462.217 1120.614 461.777 Q 1123.524 456.127 1125.304 450.007 C 1125.249 449.711 1125.466 449.417 1125.864 449.247 Q 1126.974 448.767 1128.894 450.007 Z " fill="rgb(51,157,164)"/><path d=" M 1056.814 448.037 L 1055.354 447.847 C 1055.194 447.817 1055.06 447.73 1054.986 447.608 C 1054.913 447.486 1054.908 447.343 1054.974 447.217 Q 1055.744 442.827 1056.674 438.467 Q 1057.254 435.717 1059.894 434.707 Q 1062.444 433.717 1062.674 436.437 Q 1062.984 440.017 1059.714 442.577 Q 1056.784 444.877 1058.984 447.407 C 1059.129 447.501 1059.219 447.641 1059.231 447.792 C 1059.242 447.943 1059.174 448.09 1059.044 448.197 Q 1058.554 448.707 1057.754 448.287 Q 1057.394 448.107 1056.814 448.037 Z " fill="rgb(198,226,71)"/><path d=" M 1074.564 456.067 C 1076.093 456.758 1076.564 459.025 1075.614 461.128 C 1074.665 463.23 1072.653 464.377 1071.124 463.686 C 1069.594 462.996 1069.124 460.728 1070.073 458.626 C 1071.022 456.523 1073.035 455.377 1074.564 456.067 Z " fill="rgb(198,226,71)"/><path d=" M 1094.884 469.667 L 1094.924 467.207 L 1100.884 464.447 C 1101.461 464.215 1102.135 464.44 1102.414 464.957 L 1104.404 469.527 Q 1105.064 471.057 1103.224 471.947 Q 1098.064 474.427 1094.884 469.667 Z " fill="rgb(90,176,156)"/><path d=" M 1101.264 449.199 C 1101.907 449.017 1102.63 449.581 1102.878 450.457 C 1103.126 451.334 1102.806 452.193 1102.163 452.374 C 1101.52 452.556 1100.797 451.993 1100.549 451.116 C 1100.301 450.24 1100.622 449.381 1101.264 449.199 Z " fill="rgb(193,227,79)"/><path d=" M 1094.924 467.207 L 1094.884 469.667 Q 1094.124 470.567 1093.064 470.027 Q 1088.254 467.567 1090.354 462.407 Q 1092.494 457.137 1097.634 459.957 Q 1099.304 460.877 1097.384 461.207 Q 1093.864 461.817 1094.924 464.917 Q 1095.134 465.517 1095.074 466.047 Q 1095.004 466.627 1094.924 467.207 Z " fill="rgb(193,227,79)"/><path d=" M 1073.088 476.155 C 1073.369 475.053 1074.778 474.46 1076.233 474.831 C 1077.687 475.201 1078.64 476.397 1078.359 477.499 C 1078.079 478.6 1076.67 479.194 1075.215 478.823 C 1073.76 478.452 1072.807 477.257 1073.088 476.155 Z " fill="rgb(193,227,79)"/><path d=" M 1063.074 491.267 Q 1058.964 488.257 1059.884 483.667 Q 1060.294 481.597 1061.744 480.287 Q 1063.324 478.867 1065.434 478.527 Q 1067.894 478.137 1069.294 479.877 Q 1070.604 481.507 1070.884 484.207 Q 1071.154 486.837 1070.664 488.807 Q 1070.034 491.297 1067.994 492.177 Q 1065.684 493.167 1063.074 491.267 Z " fill="rgb(65,161,156)"/><path d=" M 1054.574 496.517 Q 1052.314 495.407 1053.184 493.697 C 1053.332 493.42 1053.603 493.219 1053.924 493.147 Q 1056.644 492.577 1057.074 495.647 Q 1057.384 497.907 1054.574 496.517 Z " fill="rgb(65,161,156)"/><path d=" M 1058.114 499.668 C 1058.302 499.227 1059.074 499.132 1059.835 499.457 C 1060.597 499.781 1061.062 500.404 1060.873 500.845 C 1060.685 501.287 1059.914 501.382 1059.152 501.057 C 1058.391 500.732 1057.926 500.11 1058.114 499.668 Z " fill="rgb(65,161,156)"/><path d=" M 1107.244 465.315 C 1108.218 465.394 1108.914 466.627 1108.798 468.069 C 1108.682 469.51 1107.797 470.617 1106.824 470.538 C 1105.85 470.46 1105.153 469.226 1105.269 467.785 C 1105.385 466.344 1106.27 465.237 1107.244 465.315 Z " fill="rgb(124,211,111)"/><path d=" M 1075.684 484.047 Q 1076.784 484.467 1077.014 485.407 Q 1077.174 486.037 1077.204 486.127 Q 1078.234 488.977 1078.664 492.217 C 1078.727 492.665 1078.435 493.087 1077.994 493.187 Q 1075.824 493.667 1075.644 491.907 Q 1075.564 491.097 1075.554 491.017 Q 1074.944 487.697 1074.734 484.747 C 1074.718 484.508 1074.825 484.278 1075.017 484.137 C 1075.209 483.995 1075.461 483.961 1075.684 484.047 L 1075.684 484.047 Z " fill="rgb(124,211,111)"/><path d=" M 1071.567 503.264 C 1071.889 501.052 1075.233 499.706 1079.028 500.259 C 1082.824 500.813 1085.644 503.058 1085.321 505.27 C 1084.998 507.482 1081.655 508.828 1077.859 508.274 C 1074.063 507.721 1071.244 505.475 1071.567 503.264 Z " fill="rgb(73,157,166)"/><path d=" M 1111.094 455.147 C 1110.624 454.78 1110.315 454.246 1110.234 453.657 Q 1109.744 450.207 1109.954 447.447 Q 1110.394 441.517 1115.454 438.517 Q 1117.864 437.077 1118.154 439.867 Q 1118.944 447.617 1115.414 454.537 Q 1114.684 455.967 1113.654 456.077 Q 1112.454 456.207 1111.094 455.147 Z " fill="rgb(76,154,149)"/></g></g></svg>