<?xml version="1.0" encoding="UTF-8" standalone="no"?><!-- Generator: Gravit.io --><svg xmlns="http://www.w3.org/2000/svg" xmlns:xlink="http://www.w3.org/1999/xlink" style="isolation:isolate" viewBox="809.76 402.408 130.246 105.234" width="130.246pt" height="105.234pt"><defs><clipPath id="_clipPath_ohXDwEbIEyCgPjs7qBWCgEmBgpUM9he7"><rect x="809.76" y="402.408" width="130.246" height="105.234"/></clipPath></defs><g clip-path="url(#_clipPath_ohXDwEbIEyCgPjs7qBWCgEmBgpUM9he7)"><g><path d=" M 848.493 430.397 L 847.883 434.337 C 847.918 434.61 847.725 434.867 847.403 434.977 Q 840.333 437.177 834.913 442.147 Q 833.973 441.327 832.743 441.147 Q 834.203 439.397 834.703 437.187 Q 839.533 434.547 844.453 432.057 Q 844.953 431.807 845.253 431.497 Q 846.283 430.477 845.143 430.347 Q 844.713 430.297 844.173 430.537 Q 838.653 432.927 833.333 435.727 Q 827.793 438.637 823.443 443.127 Q 821.113 445.537 822.413 448.647 Q 822.723 450.957 820.503 451.397 Q 819.793 451.537 819.663 452.147 L 818.203 450.607 Q 816.813 443.577 822.543 439.247 Q 834.263 430.387 848.763 426.307 Q 849.893 425.987 849.543 427.097 L 848.493 430.397 Z " fill="rgb(122,217,167)"/><path d=" M 834.703 437.187 Q 834.203 439.397 832.743 441.147 L 830.743 442.897 Q 830.103 442.467 829.263 443.207 Q 826.613 445.557 825.443 448.917 Q 824.733 450.977 826.793 451.677 Q 830.123 452.817 833.923 452.357 C 833.988 452.356 834.047 452.326 834.078 452.279 C 834.11 452.231 834.107 452.173 834.073 452.127 L 833.953 451.937 Q 835.523 452.557 837.203 452.447 Q 837.663 452.417 838.143 452.607 Q 839.503 453.147 839.703 451.687 Q 843.963 453.717 848.703 453.107 Q 850.053 454.017 848.953 455.357 L 843.453 456.437 Q 838.573 456.367 833.703 456.357 Q 825.993 456.357 819.663 452.147 Q 819.793 451.537 820.503 451.397 Q 822.723 450.957 822.413 448.647 Q 823.523 445.047 827.263 441.957 Q 831.533 438.447 834.703 437.187 Z " fill="rgb(126,232,195)"/><path d=" M 858.243 448.897 Q 856.023 450.357 854.103 449.627 Q 852.563 449.027 851.873 446.787 Q 850.853 443.467 850.993 439.897 Q 850.853 439.567 850.933 439.297 C 850.853 439.093 851.187 438.898 851.703 438.847 L 856.613 437.677 C 856.867 437.621 857.134 437.673 857.344 437.822 C 857.554 437.97 857.685 438.199 857.703 438.447 L 858.243 448.897 Z " fill="rgb(38,92,130)"/><path d=" M 849.493 430.397 Q 848.673 432.707 849.563 434.887 C 849.682 435.152 849.962 435.317 850.263 435.297 Q 862.113 434.407 873.953 433.397 Q 877.713 433.077 883.403 433.877 Q 890.363 434.857 894.003 440.847 Q 894.873 442.277 895.923 443.577 Q 897.503 445.527 897.703 446.337 Q 898.193 448.417 895.703 449.687 Q 892.693 450.297 889.633 450.627 Q 889.523 450.637 887.923 450.907 Q 885.733 451.267 883.893 450.157 Q 882.293 449.207 884.003 448.467 Q 887.623 446.897 889.913 443.807 C 890.101 443.551 890.153 443.219 890.053 442.917 Q 888.023 436.667 882.013 435.837 Q 869.553 434.107 853.943 436.257 Q 852.973 436.387 851.963 436.277 Q 850.323 436.077 849.953 436.147 Q 844.683 437.117 838.683 440.897 Q 837.053 441.917 835.203 442.437 Q 834.973 442.377 834.913 442.147 Q 840.333 437.177 847.403 434.977 C 847.725 434.867 847.918 434.61 847.883 434.337 L 848.493 430.397 Q 849.023 430.207 849.493 430.397 Z " fill="rgb(59,130,148)"/><path d=" M 848.703 453.107 Q 843.963 453.717 839.703 451.687 Q 836.383 449.227 836.743 445.147 L 837.493 444.827 C 837.781 444.75 838.095 444.829 838.293 445.027 Q 840.573 447.427 843.873 447.637 C 844.181 447.637 844.466 447.492 844.624 447.254 C 844.782 447.017 844.789 446.722 844.643 446.477 L 843.823 443.947 C 843.666 443.659 843.812 443.324 844.163 443.167 L 848.653 440.007 C 848.79 439.916 848.96 439.887 849.121 439.927 C 849.281 439.967 849.417 440.073 849.493 440.217 Q 850.413 441.927 850.993 439.897 Q 850.853 443.467 851.873 446.787 Q 852.563 449.027 854.103 449.627 Q 856.023 450.357 858.243 448.897 Q 859.463 449.017 860.703 448.607 Q 863.483 448.477 864.703 445.397 Q 866.043 442.007 865.743 439.647 Q 866.743 444.617 871.703 443.977 C 872.031 443.965 872.356 444.021 872.633 444.137 L 875.033 445.607 C 875.126 445.645 875.233 445.643 875.325 445.603 C 875.417 445.563 875.486 445.487 875.513 445.397 L 875.953 444.107 Q 878.043 444.807 877.643 442.817 C 877.6 442.506 877.424 442.217 877.143 441.997 L 873.143 438.417 Q 872.763 438.077 873.253 438.057 Q 879.263 437.857 883.133 442.267 C 883.334 442.484 883.338 442.815 883.143 443.037 Q 881.243 445.257 877.453 446.147 Q 870.083 447.877 866.533 448.547 Q 864.223 448.987 862.473 449.597 Q 859.193 450.747 858.453 450.897 Q 850.463 452.557 848.703 453.107 Z " fill="rgb(59,130,148)"/><path d=" M 895.953 453.857 Q 897.273 453.777 897.473 454.847 Q 897.643 455.717 897.683 455.817 Q 898.613 458.867 896.353 460.097 Q 896.033 460.267 892.673 461.297 Q 886.303 463.247 879.703 464.147 Q 876.463 464.587 876.453 462.147 Q 876.443 460.337 874.993 461.147 Q 875.033 460.567 874.453 460.607 Q 885.443 457.997 895.953 453.857 Z " fill="rgb(59,130,148)"/><path d=" M 913.203 432.357 Q 917.893 434.017 920.703 437.147 Q 925.873 442.917 919.893 447.837 Q 915.983 451.057 905.633 456.447 Q 904.663 456.957 904.073 456.847 Q 902.953 456.637 903.263 454.957 Q 903.723 452.527 906.893 452.337 Q 911.813 452.037 913.613 447.497 Q 914.823 444.437 917.803 442.847 C 918.108 442.681 918.312 442.377 918.35 442.032 C 918.388 441.687 918.254 441.345 917.993 441.117 Q 914.193 437.797 912.133 433.957 Q 911.803 433.347 912.243 432.647 L 913.203 432.357 Z " fill="rgb(62,146,150)"/><path d=" M 939.913 488.397 Q 938.513 488.557 937.643 490.087 Q 936.143 492.707 933.023 494.967 Q 931.783 495.867 931.743 497.397 Q 927.593 497.917 923.463 498.537 Q 922.603 498.657 922.093 499.107 Q 921.363 499.747 921.253 500.407 Q 920.943 502.317 919.083 502.847 Q 913.933 504.347 910.723 504.337 C 910.424 504.335 910.141 504.205 909.946 503.981 C 909.75 503.757 909.662 503.46 909.703 503.167 Q 909.853 501.997 908.703 502.157 Q 906.633 502.457 904.593 502.927 Q 904.533 502.947 902.793 503.077 Q 901.463 503.177 901.453 504.737 C 901.453 505.452 900.922 506.057 900.213 506.147 Q 884.263 508.247 868.203 507.397 Q 864.703 507.207 852.203 503.607 L 851.203 502.937 Q 853.533 502.417 852.453 500.437 Q 875.253 505.267 898.183 501.597 Q 898.543 501.537 904.013 500.227 Q 906.443 499.647 909.953 499.147 Q 915.183 498.397 929.973 493.957 Q 933.233 492.987 935.203 490.187 Q 938.243 487.447 937.833 483.337 C 937.803 483.014 937.654 482.711 937.413 482.487 Q 931.953 477.227 924.213 476.767 Q 919.543 476.487 914.883 476.267 Q 914.813 476.267 909.543 475.887 Q 903.553 475.457 896.893 476.337 Q 893.963 476.717 895.203 478.977 C 895.377 479.253 895.427 479.572 895.343 479.877 Q 895.153 481.107 896.203 481.687 Q 894.723 483.447 892.453 483.357 Q 892.233 479.667 893.033 476.067 C 893.039 475.762 893.248 475.484 893.583 475.337 L 895.703 474.437 Q 905.473 472.207 912.393 473.457 Q 917.263 474.347 922.193 474.847 Q 922.673 474.897 923.153 474.677 Q 924.723 473.977 925.893 474.207 Q 931.933 475.407 937.643 477.687 Q 941.023 479.047 939.243 482.637 C 938.954 483.217 938.954 483.898 939.243 484.477 Q 940.273 486.537 939.913 488.397 Z " fill="rgb(103,200,163)"/><path d=" M 858.993 414.147 L 858.993 417.897 Q 858.403 419.237 858.803 421.117 C 859.018 422.073 858.783 423.074 858.163 423.837 Q 857.163 425.087 857.583 426.867 Q 858.053 428.817 858.033 430.837 C 857.935 431.154 858.047 431.485 858.333 431.727 Q 859.273 432.697 859.703 431.147 Q 860.463 428.377 859.833 422.547 Q 859.673 421.067 860.113 420.307 Q 860.903 418.937 862.543 419.877 C 862.811 420.023 863.128 420.086 863.443 420.057 Q 866.063 419.627 868.693 420.217 Q 870.433 420.597 871.493 419.397 L 872.203 419.437 Q 871.813 420.207 872.493 420.507 Q 872.843 420.667 873.423 420.557 Q 875.203 420.197 876.953 419.687 L 878.453 420.607 Q 875.323 421.777 871.953 421.397 Q 867.683 420.917 863.403 421.657 C 863.19 421.693 863.002 421.812 862.88 421.987 C 862.757 422.162 862.711 422.379 862.753 422.587 Q 863.533 426.757 865.703 428.937 Q 865.803 429.597 866.163 430.147 Q 866.763 431.577 864.893 431.837 Q 859.033 432.637 852.623 433.747 Q 851.763 433.897 852.073 433.087 Q 853.453 429.377 854.203 425.147 Q 855.053 420.357 858.003 413.617 C 858.04 413.513 858.133 413.428 858.255 413.385 C 858.377 413.342 858.516 413.347 858.633 413.397 Q 858.903 413.657 858.993 414.147 Z " fill="rgb(45,121,123)"/><path d=" M 813.163 444.647 Q 813.413 448.877 816.403 451.747 C 816.601 451.901 816.926 451.914 817.143 451.777 Q 817.353 451.427 816.993 450.897 L 818.203 450.607 L 819.663 452.147 Q 825.993 456.357 833.703 456.357 Q 838.573 456.367 843.453 456.437 Q 844.013 456.897 844.203 457.687 Q 838.613 457.667 833.033 457.657 Q 827.883 457.647 824.933 456.987 Q 820.623 456.027 817.263 454.087 Q 812.753 451.477 812.203 445.687 Q 812.793 445.277 813.163 444.647 Z " fill="rgb(45,121,123)"/><path d=" M 856.203 464.357 L 857.203 459.187 Q 857.893 459.577 858.643 459.737 Q 859.293 459.867 860.103 459.567 Q 870.473 455.627 880.733 450.857 C 881.032 450.717 881.388 450.836 881.543 451.127 Q 882.583 453.117 884.643 454.207 Q 885.853 454.847 884.533 455.207 Q 882.613 455.727 882.453 454.277 C 882.405 453.904 882.181 453.575 881.848 453.39 C 881.515 453.204 881.113 453.185 880.763 453.337 L 856.203 464.357 Z " fill="rgb(45,121,123)"/><path d=" M 935.203 490.187 Q 933.923 490.177 934.163 488.897 Q 936.583 486.287 935.653 483.737 Q 934.983 481.857 932.173 480.787 Q 924.763 477.967 916.703 478.107 Q 905.913 477.047 896.203 481.687 Q 895.153 481.107 895.343 479.877 C 895.427 479.572 895.377 479.253 895.203 478.977 Q 893.963 476.717 896.893 476.337 Q 903.553 475.457 909.543 475.887 Q 914.813 476.267 914.883 476.267 Q 919.543 476.487 924.213 476.767 Q 931.953 477.227 937.413 482.487 C 937.654 482.711 937.803 483.014 937.833 483.337 Q 938.243 487.447 935.203 490.187 Z " fill="rgb(45,121,123)"/><path d=" M 842.913 478.147 Q 843.203 478.447 843.203 478.857 Q 839.453 481.377 838.013 483.207 Q 836.603 485.007 836.403 487.607 Q 836.243 489.767 837.373 491.987 Q 839.523 496.197 843.393 498.707 Q 846.313 500.607 851.203 502.937 L 852.203 503.607 Q 849.373 503.877 846.703 502.937 Q 847.553 502.107 846.453 501.897 Q 839.233 500.547 835.813 495.077 Q 834.123 492.387 833.973 489.417 Q 833.803 485.907 835.763 483.457 Q 837.653 481.117 842.913 478.147 Z " fill="rgb(45,121,123)"/><path d=" M 916.703 478.107 Q 924.763 477.967 932.173 480.787 Q 934.983 481.857 935.653 483.737 Q 936.583 486.287 934.163 488.897 Q 930.573 491.417 926.453 492.937 Q 924.523 490.817 921.703 490.107 Q 922.293 489.307 921.263 489.087 Q 919.563 487.127 916.953 486.917 Q 909.913 486.337 902.953 487.607 L 902.453 484.437 Q 910.473 482.527 918.703 482.187 Q 921.313 482.507 923.643 483.707 Q 926.123 484.967 924.283 487.367 C 924.198 487.479 924.17 487.624 924.207 487.759 C 924.244 487.895 924.343 488.005 924.473 488.057 Q 925.753 488.567 926.753 488.167 Q 927.693 487.787 927.973 486.577 Q 928.573 483.947 925.953 482.397 Q 924.483 481.527 919.703 480.937 L 914.703 480.607 Q 914.113 478.147 916.703 478.107 Z " fill="rgb(120,210,147)"/><path d=" M 888.203 472.687 L 888.913 475.147 Q 885.423 476.217 886.483 481.567 C 886.676 482.539 886.066 483.489 885.103 483.717 Q 880.403 484.837 875.613 481.447 C 875.507 481.378 875.374 481.352 875.248 481.377 C 875.121 481.401 875.01 481.474 874.943 481.577 Q 873.973 483.327 874.253 485.387 Q 874.553 487.657 872.913 489.147 L 869.913 487.737 C 869.429 487.505 869.153 487.035 869.213 486.547 Q 869.203 485.637 868.923 485.447 Q 868.643 485.257 868.263 485.817 Q 867.163 487.457 866.813 489.197 Q 866.413 491.237 868.173 491.547 L 872.703 492.357 Q 882.853 496.317 893.703 497.627 Q 893.943 497.657 893.953 497.847 C 893.949 497.909 893.914 497.968 893.853 498.009 C 893.793 498.05 893.714 498.071 893.633 498.067 Q 891.053 497.897 888.453 498.157 Q 878.843 499.097 869.203 498.377 Q 864.043 497.997 861.013 496.337 Q 857.923 494.637 858.923 490.637 Q 860.863 482.947 867.033 479.427 Q 868.973 478.327 877.503 475.727 Q 882.823 474.107 888.203 472.687 Z " fill="rgb(61,141,157)"/><path d=" M 858.993 414.147 Q 859.693 414.897 860.563 415.407 Q 861.283 415.827 861.513 416.247 Q 862.133 417.417 860.203 417.397 Q 859.263 417.387 858.993 417.897 L 858.993 414.147 Z " fill="rgb(67,173,126)"/><path d=" M 834.703 437.187 Q 831.533 438.447 827.263 441.957 Q 823.523 445.047 822.413 448.647 Q 821.113 445.537 823.443 443.127 Q 827.793 438.637 833.333 435.727 Q 838.653 432.927 844.173 430.537 Q 844.713 430.297 845.143 430.347 Q 846.283 430.477 845.253 431.497 Q 844.953 431.807 844.453 432.057 Q 839.533 434.547 834.703 437.187 Z " fill="rgb(67,173,126)"/><path d=" M 910.453 430.187 Q 912.663 430.327 913.203 432.357 L 912.243 432.647 Q 911.633 431.387 910.203 430.937 Q 910.603 430.687 910.453 430.187 Z " fill="rgb(67,173,126)"/><path d=" M 830.743 442.897 Q 828.333 445.217 829.953 448.897 Q 831.263 451.867 833.953 451.937 L 834.073 452.127 C 834.107 452.173 834.11 452.231 834.078 452.279 C 834.047 452.326 833.988 452.356 833.923 452.357 Q 830.123 452.817 826.793 451.677 Q 824.733 450.977 825.443 448.917 Q 826.613 445.557 829.263 443.207 Q 830.103 442.467 830.743 442.897 Z " fill="rgb(67,173,126)"/><path d=" M 848.203 475.937 Q 848.133 476.557 848.953 476.437 L 843.203 478.857 Q 843.203 478.447 842.913 478.147 Q 845.033 475.717 848.203 475.937 Z " fill="rgb(67,173,126)"/><path d=" M 919.703 480.937 Q 924.483 481.527 925.953 482.397 Q 928.573 483.947 927.973 486.577 Q 927.693 487.787 926.753 488.167 Q 925.753 488.567 924.473 488.057 C 924.343 488.005 924.244 487.895 924.207 487.759 C 924.17 487.624 924.198 487.479 924.283 487.367 Q 926.123 484.967 923.643 483.707 Q 921.313 482.507 918.703 482.187 Q 920.073 482.427 919.703 480.937 Z " fill="rgb(67,173,126)"/><path d=" M 895.703 449.687 Q 894.423 451.757 895.953 453.857 Q 885.443 457.997 874.453 460.607 Q 857.113 466.337 841.243 475.397 Q 839.513 471.527 843.203 470.147 Q 851.703 466.977 856.203 464.357 L 880.763 453.337 C 881.113 453.185 881.515 453.204 881.848 453.39 C 882.181 453.575 882.405 453.904 882.453 454.277 Q 882.613 455.727 884.533 455.207 Q 885.853 454.847 884.643 454.207 Q 882.583 453.117 881.543 451.127 C 881.388 450.836 881.032 450.717 880.733 450.857 Q 870.473 455.627 860.103 459.567 Q 859.293 459.867 858.643 459.737 Q 857.893 459.577 857.203 459.187 Q 854.383 458.167 851.393 458.317 Q 851.203 458.327 849.533 458.267 Q 847.413 458.187 847.003 460.537 C 846.912 461.049 846.451 461.411 845.933 461.377 Q 837.693 460.877 829.203 461.687 Q 827.173 460.487 824.993 461.067 C 824.682 461.165 824.505 461.431 824.573 461.697 Q 824.563 462.367 823.953 462.687 Q 820.453 462.677 818.263 459.587 Q 817.433 458.397 815.913 457.647 Q 813.853 456.617 813.333 456.157 Q 809.183 452.517 809.853 446.647 Q 809.953 445.707 810.483 445.357 Q 811.253 444.857 812.203 445.687 Q 812.753 451.477 817.263 454.087 Q 820.623 456.027 824.933 456.987 Q 827.883 457.647 833.033 457.657 Q 838.613 457.667 844.203 457.687 Q 845.873 457.187 847.543 456.667 Q 849.153 456.167 850.943 455.977 Q 857.113 455.337 860.393 454.337 Q 868.933 451.707 877.583 449.417 Q 877.913 449.327 878.173 449.197 Q 879.913 448.347 877.803 448.387 Q 877.473 448.387 877.123 448.477 Q 870.893 449.937 869.643 450.337 Q 856.713 454.387 848.953 455.357 Q 850.053 454.017 848.703 453.107 Q 850.463 452.557 858.453 450.897 Q 859.193 450.747 862.473 449.597 Q 864.223 448.987 866.533 448.547 Q 870.083 447.877 877.453 446.147 Q 881.243 445.257 883.143 443.037 C 883.338 442.815 883.334 442.484 883.133 442.267 Q 879.263 437.857 873.253 438.057 Q 872.763 438.077 873.143 438.417 L 877.143 441.997 C 877.424 442.217 877.6 442.506 877.643 442.817 Q 878.043 444.807 875.953 444.107 L 872.453 441.317 Q 871.943 440.907 871.813 440.637 Q 869.793 436.537 865.073 437.327 C 864.838 437.354 864.649 437.422 864.568 437.508 C 864.488 437.594 864.527 437.688 864.673 437.757 Q 864.573 437.967 864.203 437.937 L 860.063 437.667 C 859.879 437.676 859.708 437.754 859.591 437.879 C 859.475 438.005 859.425 438.168 859.453 438.327 Q 859.483 443.957 860.703 448.607 Q 859.463 449.017 858.243 448.897 L 857.703 438.447 C 857.685 438.199 857.554 437.97 857.344 437.822 C 857.134 437.673 856.867 437.621 856.613 437.677 L 851.703 438.847 C 851.187 438.898 850.853 439.093 850.933 439.297 Q 850.853 439.567 850.993 439.897 Q 850.413 441.927 849.493 440.217 C 849.417 440.073 849.281 439.967 849.121 439.927 C 848.96 439.887 848.79 439.916 848.653 440.007 L 844.163 443.167 C 843.812 443.324 843.666 443.659 843.823 443.947 L 844.643 446.477 C 844.789 446.722 844.782 447.017 844.624 447.254 C 844.466 447.492 844.181 447.637 843.873 447.637 Q 840.573 447.427 838.293 445.027 C 838.095 444.829 837.781 444.75 837.493 444.827 L 836.743 445.147 Q 836.703 443.377 835.203 442.437 Q 837.053 441.917 838.683 440.897 Q 844.683 437.117 849.953 436.147 Q 850.323 436.077 851.963 436.277 Q 852.973 436.387 853.943 436.257 Q 869.553 434.107 882.013 435.837 Q 888.023 436.667 890.053 442.917 C 890.153 443.219 890.101 443.551 889.913 443.807 Q 887.623 446.897 884.003 448.467 Q 882.293 449.207 883.893 450.157 Q 885.733 451.267 887.923 450.907 Q 889.523 450.637 889.633 450.627 Q 892.693 450.297 895.703 449.687 Z " fill="rgb(94,209,183)"/><path d=" M 876.953 419.687 Q 875.203 420.197 873.423 420.557 Q 872.843 420.667 872.493 420.507 Q 871.813 420.207 872.203 419.437 Q 874.723 417.467 876.953 419.687 Z " fill="rgb(86,190,179)"/><path d=" M 872.913 489.147 Q 871.523 490.707 872.703 492.357 L 868.173 491.547 Q 866.413 491.237 866.813 489.197 Q 867.163 487.457 868.263 485.817 Q 868.643 485.257 868.923 485.447 Q 869.203 485.637 869.213 486.547 C 869.153 487.035 869.429 487.505 869.913 487.737 L 872.913 489.147 Z " fill="rgb(86,190,179)"/><path d=" M 921.703 490.107 Q 901.153 493.447 881.203 490.397 Q 879.383 490.117 879.783 488.617 C 879.864 488.338 880.13 488.132 880.453 488.097 Q 883.283 487.817 885.453 488.147 Q 894.543 489.507 902.953 487.607 Q 909.913 486.337 916.953 486.917 Q 919.563 487.127 921.263 489.087 Q 922.293 489.307 921.703 490.107 Z " fill="rgb(61,159,160)"/><path d=" M 910.453 430.187 Q 910.603 430.687 910.203 430.937 Q 908.653 430.807 906.953 429.897 Q 904.643 428.657 901.873 428.397 Q 900.403 428.267 899.263 427.817 Q 898.233 427.407 897.183 427.057 C 896.885 426.978 896.564 427.055 896.343 427.257 Q 894.023 429.407 892.813 426.427 C 892.723 426.17 892.448 425.997 892.143 426.007 Q 890.723 426.257 889.853 427.557 Q 888.343 429.817 886.853 428.067 Q 886.333 427.467 887.123 427.367 Q 888.123 427.247 888.473 426.677 C 888.556 426.563 888.567 426.42 888.503 426.297 C 888.438 426.174 888.306 426.088 888.153 426.067 Q 886.803 425.737 885.433 426.027 C 885.088 426.136 884.81 426.312 884.643 426.527 Q 883.393 427.917 881.443 427.517 Q 880.903 427.417 880.483 427.527 Q 874.913 429.057 868.453 429.147 Q 867.233 429.167 866.163 430.147 Q 865.803 429.597 865.703 428.937 Q 869.823 428.437 873.723 427.117 Q 875.863 426.397 877.793 426.217 Q 880.693 425.947 881.953 425.647 Q 888.823 424.017 893.953 424.647 Q 901.843 425.617 910.453 430.187 Z " fill="rgb(48,140,133)"/><path d=" M 844.203 457.687 Q 844.013 456.897 843.453 456.437 L 848.953 455.357 Q 856.713 454.387 869.643 450.337 Q 870.893 449.937 877.123 448.477 Q 877.473 448.387 877.803 448.387 Q 879.913 448.347 878.173 449.197 Q 877.913 449.327 877.583 449.417 Q 868.933 451.707 860.393 454.337 Q 857.113 455.337 850.943 455.977 Q 849.153 456.167 847.543 456.667 Q 845.873 457.187 844.203 457.687 Z " fill="rgb(48,140,133)"/><path d=" M 874.453 460.607 Q 875.033 460.567 874.993 461.147 Q 874.603 462.447 873.783 463.437 Q 873.103 464.277 871.663 464.647 Q 858.363 468.057 848.143 473.587 Q 843.893 475.887 840.703 476.357 L 841.243 475.397 Q 857.113 466.337 874.453 460.607 Z " fill="rgb(48,140,133)"/><path d=" M 848.953 476.437 Q 848.133 476.557 848.203 475.937 L 853.483 473.557 C 853.611 473.513 853.753 473.52 853.876 473.577 C 853.998 473.633 854.091 473.735 854.133 473.857 Q 855.273 477.097 851.203 476.397 Q 849.663 476.127 848.953 476.437 Z " fill="rgb(48,140,133)"/><path d=" M 914.703 480.607 L 919.703 480.937 Q 920.073 482.427 918.703 482.187 Q 910.473 482.527 902.453 484.437 L 896.763 485.547 Q 896.163 485.657 896.423 485.117 Q 896.743 484.477 897.503 484.177 Q 905.773 480.887 914.703 480.607 Z " fill="rgb(48,140,133)"/><path d=" M 934.163 488.897 Q 933.923 490.177 935.203 490.187 Q 933.233 492.987 929.973 493.957 Q 915.183 498.397 909.953 499.147 Q 906.443 499.647 904.013 500.227 Q 898.543 501.537 898.183 501.597 Q 875.253 505.267 852.453 500.437 Q 848.083 499.307 844.403 496.727 Q 840.783 494.187 839.703 489.887 Q 839.393 488.647 840.413 489.417 Q 846.043 493.647 853.273 494.997 C 853.695 495.043 853.995 495.27 853.973 495.527 Q 853.983 495.697 853.873 495.847 C 853.756 495.987 853.55 496.083 853.313 496.107 Q 850.453 496.237 848.203 494.897 Q 847.623 494.557 847.153 494.677 Q 846.593 494.807 847.083 495.217 Q 851.133 498.507 853.953 499.147 Q 867.913 502.307 884.953 501.397 Q 892.503 500.997 897.833 499.817 Q 902.983 498.667 903.103 498.647 Q 908.873 497.527 920.763 494.957 Q 924.303 494.197 926.453 492.937 Q 930.573 491.417 934.163 488.897 Z " fill="rgb(48,140,133)"/><path d=" M 871.493 419.397 Q 870.433 420.597 868.693 420.217 Q 866.063 419.627 863.443 420.057 C 863.128 420.086 862.811 420.023 862.543 419.877 Q 860.903 418.937 860.113 420.307 Q 859.673 421.067 859.833 422.547 Q 860.463 428.377 859.703 431.147 Q 859.273 432.697 858.333 431.727 C 858.047 431.485 857.935 431.154 858.033 430.837 Q 858.053 428.817 857.583 426.867 Q 857.163 425.087 858.163 423.837 C 858.783 423.074 859.018 422.073 858.803 421.117 Q 858.403 419.237 858.993 417.897 Q 859.263 417.387 860.203 417.397 Q 862.133 417.417 861.513 416.247 Q 861.283 415.827 860.563 415.407 Q 859.693 414.897 858.993 414.147 Q 858.903 413.657 858.633 413.397 C 858.516 413.347 858.377 413.342 858.255 413.385 C 858.133 413.428 858.04 413.513 858.003 413.617 Q 855.053 420.357 854.203 425.147 Q 853.453 429.377 852.073 433.087 Q 851.763 433.897 852.623 433.747 Q 859.033 432.637 864.893 431.837 Q 866.763 431.577 866.163 430.147 Q 867.233 429.167 868.453 429.147 Q 874.913 429.057 880.483 427.527 Q 880.903 427.417 881.443 427.517 Q 883.393 427.917 884.643 426.527 C 884.81 426.312 885.088 426.136 885.433 426.027 Q 886.803 425.737 888.153 426.067 C 888.306 426.088 888.438 426.174 888.503 426.297 C 888.567 426.42 888.556 426.563 888.473 426.677 Q 888.123 427.247 887.123 427.367 Q 886.333 427.467 886.853 428.067 Q 888.343 429.817 889.853 427.557 Q 890.723 426.257 892.143 426.007 C 892.448 425.997 892.723 426.17 892.813 426.427 Q 894.023 429.407 896.343 427.257 C 896.564 427.055 896.885 426.978 897.183 427.057 Q 898.233 427.407 899.263 427.817 Q 900.403 428.267 901.873 428.397 Q 904.643 428.657 906.953 429.897 Q 908.653 430.807 910.203 430.937 Q 911.633 431.387 912.243 432.647 Q 911.803 433.347 912.133 433.957 Q 914.193 437.797 917.993 441.117 C 918.254 441.345 918.388 441.687 918.35 442.032 C 918.312 442.377 918.108 442.681 917.803 442.847 Q 914.823 444.437 913.613 447.497 Q 911.813 452.037 906.893 452.337 Q 903.723 452.527 903.263 454.957 Q 902.953 456.637 904.073 456.847 Q 904.663 456.957 905.633 456.447 Q 915.983 451.057 919.893 447.837 Q 925.873 442.917 920.703 437.147 Q 917.893 434.017 913.203 432.357 Q 912.663 430.327 910.453 430.187 Q 901.843 425.617 893.953 424.647 Q 888.823 424.017 881.953 425.647 Q 880.693 425.947 877.793 426.217 Q 875.863 426.397 873.723 427.117 Q 869.823 428.437 865.703 428.937 Q 863.533 426.757 862.753 422.587 C 862.711 422.379 862.757 422.162 862.88 421.987 C 863.002 421.812 863.19 421.693 863.403 421.657 Q 867.683 420.917 871.953 421.397 Q 875.323 421.777 878.453 420.607 L 887.193 421.117 C 887.506 421.12 887.795 420.958 887.943 420.697 Q 889.273 418.377 892.023 418.537 Q 893.773 418.627 893.893 418.627 Q 909.703 418.427 923.403 425.757 Q 928.623 428.547 929.863 429.707 Q 932.793 432.457 932.973 437.147 Q 933.233 443.937 931.983 450.597 C 931.926 450.916 931.776 451.211 931.553 451.447 Q 924.393 459.067 912.893 464.337 Q 901.773 469.427 893.913 471.147 L 888.203 472.687 Q 882.823 474.107 877.503 475.727 Q 868.973 478.327 867.033 479.427 Q 860.863 482.947 858.923 490.637 Q 857.923 494.637 861.013 496.337 Q 864.043 497.997 869.203 498.377 Q 878.843 499.097 888.453 498.157 Q 891.053 497.897 893.633 498.067 C 893.714 498.071 893.793 498.05 893.853 498.009 C 893.914 497.968 893.949 497.909 893.953 497.847 Q 893.943 497.657 893.703 497.627 Q 882.853 496.317 872.703 492.357 Q 871.523 490.707 872.913 489.147 Q 874.553 487.657 874.253 485.387 Q 873.973 483.327 874.943 481.577 C 875.01 481.474 875.121 481.401 875.248 481.377 C 875.374 481.352 875.507 481.378 875.613 481.447 Q 880.403 484.837 885.103 483.717 C 886.066 483.489 886.676 482.539 886.483 481.567 Q 885.423 476.217 888.913 475.147 Q 890.223 477.757 890.203 481.397 Q 890.183 483.967 892.453 483.357 Q 894.723 483.447 896.203 481.687 Q 905.913 477.047 916.703 478.107 Q 914.113 478.147 914.703 480.607 Q 905.773 480.887 897.503 484.177 Q 896.743 484.477 896.423 485.117 Q 896.163 485.657 896.763 485.547 L 902.453 484.437 L 902.953 487.607 Q 894.543 489.507 885.453 488.147 Q 883.283 487.817 880.453 488.097 C 880.13 488.132 879.864 488.338 879.783 488.617 Q 879.383 490.117 881.203 490.397 Q 901.153 493.447 921.703 490.107 Q 924.523 490.817 926.453 492.937 Q 924.303 494.197 920.763 494.957 Q 908.873 497.527 903.103 498.647 Q 902.983 498.667 897.833 499.817 Q 892.503 500.997 884.953 501.397 Q 867.913 502.307 853.953 499.147 Q 851.133 498.507 847.083 495.217 Q 846.593 494.807 847.153 494.677 Q 847.623 494.557 848.203 494.897 Q 850.453 496.237 853.313 496.107 C 853.55 496.083 853.756 495.987 853.873 495.847 Q 853.983 495.697 853.973 495.527 C 853.995 495.27 853.695 495.043 853.273 494.997 Q 846.043 493.647 840.413 489.417 Q 839.393 488.647 839.703 489.887 Q 840.783 494.187 844.403 496.727 Q 848.083 499.307 852.453 500.437 Q 853.533 502.417 851.203 502.937 Q 846.313 500.607 843.393 498.707 Q 839.523 496.197 837.373 491.987 Q 836.243 489.767 836.403 487.607 Q 836.603 485.007 838.013 483.207 Q 839.453 481.377 843.203 478.857 L 848.953 476.437 Q 849.663 476.127 851.203 476.397 Q 855.273 477.097 854.133 473.857 C 854.091 473.735 853.998 473.633 853.876 473.577 C 853.753 473.52 853.611 473.513 853.483 473.557 L 848.203 475.937 Q 845.033 475.717 842.913 478.147 Q 837.653 481.117 835.763 483.457 Q 833.803 485.907 833.973 489.417 Q 834.123 492.387 835.813 495.077 Q 839.233 500.547 846.453 501.897 Q 847.553 502.107 846.703 502.937 Q 844.113 502.457 841.603 501.687 Q 841.483 501.647 839.773 501.237 Q 837.673 500.747 836.483 499.017 Q 835.173 497.117 835.103 497.037 Q 831.073 491.957 832.203 485.897 Q 833.483 479.057 840.703 476.357 Q 843.893 475.887 848.143 473.587 Q 858.363 468.057 871.663 464.647 Q 873.103 464.277 873.783 463.437 Q 874.603 462.447 874.993 461.147 Q 876.443 460.337 876.453 462.147 Q 876.463 464.587 879.703 464.147 Q 886.303 463.247 892.673 461.297 Q 896.033 460.267 896.353 460.097 Q 898.613 458.867 897.683 455.817 Q 897.643 455.717 897.473 454.847 Q 897.273 453.777 895.953 453.857 Q 894.423 451.757 895.703 449.687 Q 898.193 448.417 897.703 446.337 Q 897.503 445.527 895.923 443.577 Q 894.873 442.277 894.003 440.847 Q 890.363 434.857 883.403 433.877 Q 877.713 433.077 873.953 433.397 Q 862.113 434.407 850.263 435.297 C 849.962 435.317 849.682 435.152 849.563 434.887 Q 848.673 432.707 849.493 430.397 Q 851.173 426.187 851.163 421.647 Q 853.593 411.457 858.993 402.817 C 859.119 402.617 859.323 402.476 859.557 402.427 C 859.791 402.378 860.035 402.425 860.233 402.557 Q 863.263 404.667 865.003 407.827 Q 866.063 409.747 866.103 409.807 Q 868.923 414.537 871.493 419.397 Z " fill="rgb(108,219,185)"/><path d=" M 850.413 422.147 Q 850.563 424.407 848.953 424.897 Q 834.483 429.307 823.683 437.057 Q 821.303 438.767 819.843 440.397 Q 818.043 442.407 816.893 444.587 Q 815.253 447.677 816.993 450.897 Q 817.353 451.427 817.143 451.777 C 816.926 451.914 816.601 451.901 816.403 451.747 Q 813.413 448.877 813.163 444.647 Q 814.453 439.627 819.393 436.087 Q 833.623 425.867 848.783 421.757 Q 849.263 421.627 849.623 421.747 Q 850.043 421.877 850.413 422.147 Z " fill="rgb(108,219,185)"/><path d=" M 864.203 437.937 Q 865.353 438.387 865.743 439.647 Q 866.043 442.007 864.703 445.397 Q 863.483 448.477 860.703 448.607 Q 859.483 443.957 859.453 438.327 C 859.425 438.168 859.475 438.005 859.591 437.879 C 859.708 437.754 859.879 437.676 860.063 437.667 L 864.203 437.937 Z " fill="rgb(42,86,109)"/><path d=" M 893.913 471.147 Q 893.623 473.547 895.703 474.437 L 893.583 475.337 C 893.248 475.484 893.039 475.762 893.033 476.067 Q 892.233 479.667 892.453 483.357 Q 890.183 483.967 890.203 481.397 Q 890.223 477.757 888.913 475.147 L 888.203 472.687 L 893.913 471.147 Z " fill="rgb(42,86,109)"/><path d=" M 875.953 444.107 L 875.513 445.397 C 875.486 445.487 875.417 445.563 875.325 445.603 C 875.233 445.643 875.126 445.645 875.033 445.607 L 872.633 444.137 C 872.356 444.021 872.031 443.965 871.703 443.977 Q 866.743 444.617 865.743 439.647 Q 865.353 438.387 864.203 437.937 Q 864.573 437.967 864.673 437.757 C 864.527 437.688 864.488 437.594 864.568 437.508 C 864.649 437.422 864.838 437.354 865.073 437.327 Q 869.793 436.537 871.813 440.637 Q 871.943 440.907 872.453 441.317 L 875.953 444.107 Z " fill="rgb(68,166,179)"/><path d=" M 829.203 461.687 L 828.203 462.957 C 828.009 463.195 827.7 463.313 827.393 463.267 L 823.953 462.687 Q 824.563 462.367 824.573 461.697 C 824.505 461.431 824.682 461.165 824.993 461.067 Q 827.173 460.487 829.203 461.687 Z " fill="rgb(68,166,179)"/><path d=" M 832.743 441.147 Q 833.973 441.327 834.913 442.147 Q 834.973 442.377 835.203 442.437 Q 836.703 443.377 836.743 445.147 Q 836.383 449.227 839.703 451.687 Q 839.503 453.147 838.143 452.607 Q 837.663 452.417 837.203 452.447 Q 835.523 452.557 833.953 451.937 Q 831.263 451.867 829.953 448.897 Q 828.333 445.217 830.743 442.897 L 832.743 441.147 Z " fill="rgb(139,230,226)"/><path d=" M 939.913 488.397 Q 938.733 495.617 931.743 497.397 Q 931.783 495.867 933.023 494.967 Q 936.143 492.707 937.643 490.087 Q 938.513 488.557 939.913 488.397 Z " fill="rgb(112,161,179)"/><path d=" M 851.163 421.647 Q 851.173 426.187 849.493 430.397 Q 849.023 430.207 848.493 430.397 L 849.543 427.097 Q 849.893 425.987 848.763 426.307 Q 834.263 430.387 822.543 439.247 Q 816.813 443.577 818.203 450.607 L 816.993 450.897 Q 815.253 447.677 816.893 444.587 Q 818.043 442.407 819.843 440.397 Q 821.303 438.767 823.683 437.057 Q 834.483 429.307 848.953 424.897 Q 850.563 424.407 850.413 422.147 Q 850.603 421.637 851.163 421.647 Z " fill="rgb(28,113,87)"/><path d=" M 894.963 430.717 Q 898.143 433.157 901.223 432.807 Q 904.093 432.487 905.853 433.647 Q 906.743 434.237 907.343 435.127 Q 912.503 442.767 907.003 447.737 C 906.27 448.39 905.152 448.355 904.463 447.657 Q 899.543 442.627 895.263 437.057 Q 893.293 434.497 890.503 433.427 Q 888.773 432.757 890.373 432.097 L 894.063 430.557 C 894.376 430.488 894.713 430.548 894.963 430.717 L 894.963 430.717 Z " fill="rgb(69,151,160)"/><path d=" M 859.523 477.037 Q 857.563 475.917 856.913 473.747 C 856.818 473.459 856.973 473.149 857.263 473.047 Q 859.483 472.287 861.413 471.367 Q 863.523 470.357 865.603 469.957 Q 869.473 469.217 873.223 467.887 C 873.567 467.776 873.945 467.907 874.143 468.207 Q 876.233 471.477 873.153 472.627 Q 871.383 473.277 871.313 473.307 Q 866.363 475.577 861.463 477.227 C 860.818 477.441 860.113 477.372 859.523 477.037 L 859.523 477.037 Z " fill="rgb(62,146,150)"/><path d=" M 910.023 425.537 Q 901.043 422.007 890.393 421.887 Q 887.913 421.857 890.053 420.597 Q 890.673 420.227 892.003 420.447 Q 893.273 420.647 893.913 420.667 Q 911.043 421.187 925.263 431.587 Q 929.253 434.497 929.543 439.137 Q 929.933 445.327 926.393 450.337 Q 924.493 453.017 920.493 456.017 Q 917.513 458.237 913.543 460.257 Q 898.683 467.807 881.303 470.277 C 880.361 470.404 879.441 469.922 879.013 469.077 Q 878.243 467.557 879.973 467.587 Q 881.233 467.607 881.453 467.587 Q 898.413 466.077 913.573 458.327 Q 919.243 455.437 923.763 450.957 Q 927.833 446.927 927.873 441.147 Q 927.913 435.867 923.573 433.057 Q 920.853 431.297 915.953 429.147 Q 914.513 428.517 912.963 427.317 Q 911.323 426.047 910.023 425.537 Z " fill="rgb(45,121,123)"/><path d=" M 846.913 487.897 Q 847.003 487.527 846.913 487.147 Q 845.973 484.307 846.243 481.397 Q 846.783 480.737 846.993 479.897 Q 856.553 479.467 854.703 488.337 Q 854.503 489.317 854.563 490.487 Q 854.713 493.537 852.523 491.967 Q 851.273 491.077 851.203 491.027 Q 848.963 489.587 846.913 487.897 Z " fill="rgb(61,141,157)"/><path d=" M 846.243 481.397 Q 845.973 484.307 846.913 487.147 Q 841.903 486.257 844.703 481.897 Q 845.373 480.847 846.243 481.397 Z " fill="rgb(94,209,183)"/><path d=" M 846.993 479.897 Q 846.783 480.737 846.243 481.397 Q 845.373 480.847 844.703 481.897 Q 841.903 486.257 846.913 487.147 Q 847.003 487.527 846.913 487.897 L 841.553 485.707 C 841.386 485.641 841.254 485.51 841.188 485.343 C 841.121 485.176 841.127 484.99 841.203 484.827 Q 842.813 481.207 845.263 479.707 Q 845.973 479.277 846.993 479.897 Z " fill="rgb(48,140,133)"/><path d=" M 862.466 471.826 C 862.646 471.321 863.762 471.258 864.958 471.683 C 866.154 472.109 866.979 472.864 866.799 473.369 C 866.62 473.873 865.503 473.937 864.307 473.511 C 863.112 473.085 862.286 472.33 862.466 471.826 Z " fill="rgb(105,224,194)"/></g></g></svg>