<?xml version="1.0" encoding="UTF-8" standalone="no"?><!-- Generator: Gravit.io --><svg xmlns="http://www.w3.org/2000/svg" xmlns:xlink="http://www.w3.org/1999/xlink" style="isolation:isolate" viewBox="604.996 449.852 141.306 142.078" width="141.306pt" height="142.078pt"><defs><clipPath id="_clipPath_WMkXZnXNPfGQ5nXnMzuTrVnNqxDYDQ7d"><rect x="604.996" y="449.852" width="141.306" height="142.078"/></clipPath></defs><g clip-path="url(#_clipPath_WMkXZnXNPfGQ5nXnMzuTrVnNqxDYDQ7d)"><rect x="604.996" y="449.852" width="141.306" height="142.078" style="fill:rgb(6,6,6)" fill-opacity="0"/><g><path d=" M 728.336 489.451 L 721.036 491.191 Q 718.686 491.761 717.336 489.621 Q 711.176 479.881 702.066 473.251 Q 699.926 471.691 697.416 470.801 C 697.052 470.683 696.782 470.468 696.676 470.211 Q 696.116 469.031 697.876 468.491 Q 702.746 467.641 707.016 469.281 Q 709.756 470.321 714.706 473.771 Q 719.726 477.261 724.816 482.511 Q 727.986 485.791 728.336 489.451 Z " fill="rgb(106,90,98)"/><path d=" M 733.666 502.951 Q 733.946 504.271 733.926 505.621 Q 733.896 506.711 734.256 507.181 Q 734.816 507.911 735.836 507.951 Q 736.216 514.271 734.916 520.451 Q 733.976 525.191 730.866 528.771 Q 730.256 529.481 729.536 529.661 Q 728.746 529.851 727.876 529.741 Q 719.536 528.761 713.626 534.661 Q 711.186 534.211 709.566 533.511 Q 706.346 532.121 704.416 534.951 Q 703.246 532.491 701.186 533.011 Q 698.566 533.691 698.306 533.701 Q 677.666 534.411 657.786 529.511 Q 646.676 526.781 639.426 524.521 Q 630.296 521.681 621.756 517.241 C 621.415 517.101 621.208 516.816 621.226 516.511 L 621.086 513.951 L 622.416 507.951 L 636.376 513.911 Q 643.416 517.341 653.816 520.011 Q 681.156 527.031 707.376 525.911 Q 718.066 525.451 728.326 522.431 Q 731.036 521.641 733.006 519.701 Q 733.366 519.351 733.416 518.951 Q 733.536 518.041 732.376 518.451 Q 725.896 520.731 720.626 521.491 Q 716.626 521.521 712.636 521.491 Q 709.936 521.471 704.666 522.081 Q 696.696 522.991 688.896 521.061 Q 684.196 519.891 681.196 519.611 Q 672.036 518.761 667.126 517.701 Q 654.936 515.071 639.476 509.251 Q 635.566 507.771 632.566 506.181 Q 628.786 504.171 626.066 502.261 Q 624.526 501.191 623.416 502.451 Q 625.456 497.931 628.376 493.911 Q 631.056 493.411 633.936 494.641 Q 655.466 503.811 679.396 508.351 Q 703.476 512.931 727.596 508.641 Q 727.686 508.621 729.676 508.391 Q 734.146 507.861 733.666 502.951 Z " fill="rgb(181,245,188)"/><path d=" M 720.626 521.491 Q 725.896 520.731 732.376 518.451 Q 733.536 518.041 733.416 518.951 Q 733.366 519.351 733.006 519.701 Q 731.036 521.641 728.326 522.431 Q 718.066 525.451 707.376 525.911 Q 681.156 527.031 653.816 520.011 Q 643.416 517.341 636.376 513.911 Q 637.576 512.841 638.816 513.261 Q 651.006 517.441 662.376 519.841 Q 667.766 520.971 676.976 521.781 Q 685.566 522.541 691.626 523.451 Q 697.396 524.321 701.626 524.011 Q 711.206 523.311 720.626 521.491 Z " fill="rgb(137,216,215)"/><path d=" M 651.336 471.951 L 652.546 475.391 Q 653.356 477.681 655.166 477.701 Q 668.316 477.831 679.106 484.141 Q 683.546 486.741 683.586 486.761 Q 699.106 494.831 718.396 493.311 C 718.987 493.268 719.514 493.685 719.606 494.271 Q 719.916 496.321 718.106 496.481 Q 716.256 496.641 716.166 496.661 Q 702.646 499.521 690.436 494.391 Q 684.896 492.061 676.806 487.571 Q 664.836 480.931 651.126 479.911 Q 652.586 476.201 650.666 472.701 Q 651.076 472.411 651.336 471.951 Z " fill="rgb(192,223,177)"/><path d=" M 645.376 485.161 Q 648.656 486.351 653.436 487.141 Q 658.966 488.051 665.246 491.151 Q 677.376 497.131 686.816 501.261 Q 695.776 505.191 705.876 504.451 Q 709.346 504.201 722.086 501.701 Q 722.356 502.711 723.126 502.451 Q 728.776 500.511 730.886 499.991 Q 731.746 499.771 731.666 498.951 L 733.666 502.951 Q 734.146 507.861 729.676 508.391 Q 727.686 508.621 727.596 508.641 Q 703.476 512.931 679.396 508.351 Q 655.466 503.811 633.936 494.641 Q 631.056 493.411 628.376 493.911 L 631.626 486.241 L 645.376 485.161 Z " fill="rgb(192,223,177)"/><path d=" M 621.086 513.951 L 621.226 516.511 C 621.208 516.816 621.415 517.101 621.756 517.241 Q 630.296 521.681 639.426 524.521 Q 646.676 526.781 657.786 529.511 Q 677.666 534.411 698.306 533.701 Q 698.566 533.691 701.186 533.011 Q 703.246 532.491 704.416 534.951 Q 701.556 538.001 701.336 542.201 Q 699.726 543.821 697.126 543.701 Q 679.486 542.861 662.766 539.531 Q 650.846 537.161 643.996 535.261 Q 634.356 532.581 625.936 528.391 Q 623.666 527.261 622.166 524.451 Q 620.686 519.291 621.086 513.951 Z " fill="rgb(192,223,177)"/><path d=" M 692.626 464.741 Q 692.746 466.211 693.866 466.771 Q 695.076 467.381 695.156 467.431 Q 696.416 468.221 697.876 468.491 Q 696.116 469.031 696.676 470.211 C 696.782 470.468 697.052 470.683 697.416 470.801 Q 699.926 471.691 702.066 473.251 Q 711.176 479.881 717.336 489.621 Q 718.686 491.761 721.036 491.191 L 728.336 489.451 L 729.586 492.951 L 721.796 494.991 Q 719.946 495.471 720.616 497.431 L 722.086 501.701 Q 709.346 504.201 705.876 504.451 Q 695.776 505.191 686.816 501.261 Q 677.376 497.131 665.246 491.151 Q 658.966 488.051 653.436 487.141 Q 648.656 486.351 645.376 485.161 L 646.576 484.891 Q 647.266 484.731 647.456 484.581 Q 649.776 482.671 651.126 479.911 Q 664.836 480.931 676.806 487.571 Q 684.896 492.061 690.436 494.391 Q 702.646 499.521 716.166 496.661 Q 716.256 496.641 718.106 496.481 Q 719.916 496.321 719.606 494.271 C 719.514 493.685 718.987 493.268 718.396 493.311 Q 699.106 494.831 683.586 486.761 Q 683.546 486.741 679.106 484.141 Q 668.316 477.831 655.166 477.701 Q 653.356 477.681 652.546 475.391 L 651.336 471.951 Q 652.576 469.191 652.626 465.701 Q 652.656 463.941 651.336 463.201 Q 654.436 462.521 657.626 462.641 Q 663.386 462.881 669.136 462.601 Q 681.036 462.041 692.626 464.741 Z " fill="rgb(148,161,117)"/><path d=" M 622.166 524.451 Q 623.666 527.261 625.936 528.391 Q 634.356 532.581 643.996 535.261 Q 650.846 537.161 662.766 539.531 Q 679.486 542.861 697.126 543.701 Q 699.726 543.821 701.336 542.201 L 701.916 545.701 Q 702.026 546.361 701.436 547.261 Q 697.326 553.531 690.856 555.871 Q 690.816 555.891 688.846 556.311 Q 687.636 556.581 686.666 557.451 L 679.876 561.161 Q 669.876 565.101 659.376 567.411 Q 649.446 560.471 645.316 558.011 Q 644.446 557.491 644.626 556.741 Q 647.216 557.891 651.626 558.201 Q 667.466 559.301 683.876 556.571 Q 687.286 556.011 683.846 555.701 Q 666.246 554.101 648.866 550.731 Q 640.526 549.101 632.626 545.991 Q 630.406 544.501 628.566 541.761 Q 623.136 533.681 622.166 524.451 Z " fill="rgb(148,161,117)"/><path d=" M 729.586 492.951 L 731.666 498.951 Q 731.746 499.771 730.886 499.991 Q 728.776 500.511 723.126 502.451 Q 722.356 502.711 722.086 501.701 L 720.616 497.431 Q 719.946 495.471 721.796 494.991 L 729.586 492.951 Z " fill="rgb(109,101,101)"/><path d=" M 701.916 545.701 Q 703.206 549.701 704.686 550.641 Q 709.646 553.761 712.626 554.701 Q 715.816 555.701 716.586 558.451 L 711.126 560.411 Q 698.596 561.221 686.666 557.451 Q 687.636 556.581 688.846 556.311 Q 690.816 555.891 690.856 555.871 Q 697.326 553.531 701.436 547.261 Q 702.026 546.361 701.916 545.701 Z " fill="rgb(109,101,101)"/><path d=" M 632.626 545.991 Q 640.526 549.101 648.866 550.731 Q 666.246 554.101 683.846 555.701 Q 687.286 556.011 683.876 556.571 Q 667.466 559.301 651.626 558.201 Q 647.216 557.891 644.626 556.741 Q 640.116 553.821 636.286 550.041 Q 635.356 549.131 633.186 548.141 Q 631.936 547.571 632.626 545.991 Z " fill="rgb(193,220,170)"/><path d=" M 716.586 558.451 L 717.086 562.451 Q 716.206 562.331 716.066 563.141 Q 710.366 569.191 703.126 571.451 Q 701.496 571.961 700.876 572.911 Q 699.876 572.451 698.876 572.911 Q 694.526 572.321 690.166 572.761 Q 689.286 572.851 687.296 573.761 Q 685.786 574.461 684.126 574.201 Q 675.396 572.831 668.626 572.491 Q 663.286 570.981 658.626 567.991 Q 659.106 567.931 659.376 567.411 Q 669.876 565.101 679.876 561.161 Q 684.906 563.891 686.686 564.141 Q 696.966 565.591 707.316 564.641 Q 708.696 564.511 711.886 562.641 C 712.213 562.473 712.442 562.219 712.526 561.931 Q 713.096 560.431 711.126 560.411 L 716.586 558.451 Z " fill="rgb(120,88,110)"/><path d=" M 686.666 557.451 Q 698.596 561.221 711.126 560.411 Q 713.096 560.431 712.526 561.931 C 712.442 562.219 712.213 562.473 711.886 562.641 Q 708.696 564.511 707.316 564.641 Q 696.966 565.591 686.686 564.141 Q 684.906 563.891 679.876 561.161 L 686.666 557.451 Z " fill="rgb(134,94,118)"/><path d=" M 651.336 463.201 Q 652.656 463.941 652.626 465.701 Q 652.576 469.191 651.336 471.951 Q 651.076 472.411 650.666 472.701 L 647.586 468.951 Q 645.646 463.711 651.336 463.201 Z " fill="rgb(254,202,67)"/><path d=" M 717.086 562.451 Q 718.436 565.371 716.376 567.711 Q 713.196 571.311 706.686 573.761 Q 702.986 575.161 700.876 572.911 Q 701.496 571.961 703.126 571.451 Q 710.366 569.191 716.066 563.141 Q 716.206 562.331 717.086 562.451 Z " fill="rgb(216,169,219)"/><path d=" M 720.626 521.491 Q 711.206 523.311 701.626 524.011 Q 697.396 524.321 691.626 523.451 Q 685.566 522.541 676.976 521.781 Q 667.766 520.971 662.376 519.841 Q 651.006 517.441 638.816 513.261 Q 637.576 512.841 636.376 513.911 L 622.416 507.951 Q 621.556 505.001 623.416 502.451 Q 624.526 501.191 626.066 502.261 Q 628.786 504.171 632.566 506.181 Q 635.566 507.771 639.476 509.251 Q 654.936 515.071 667.126 517.701 Q 672.036 518.761 681.196 519.611 Q 684.196 519.891 688.896 521.061 Q 696.696 522.991 704.666 522.081 Q 709.936 521.471 712.636 521.491 Q 716.626 521.521 720.626 521.491 Z " fill="rgb(151,234,215)"/><path d=" M 668.626 572.491 Q 675.396 572.831 684.126 574.201 Q 685.786 574.461 687.296 573.761 Q 689.286 572.851 690.166 572.761 Q 694.526 572.321 698.876 572.911 Q 693.226 576.791 688.876 577.201 Q 679.116 578.111 668.626 572.491 Z " fill="rgb(227,161,218)"/><path d=" M 727.876 529.741 Q 726.886 529.671 726.386 530.271 Q 725.886 530.861 725.706 530.991 Q 722.036 533.441 717.126 534.701 Q 715.146 535.211 713.626 534.661 Q 719.536 528.761 727.876 529.741 Z " fill="rgb(86,136,88)"/><path d=" M 631.626 486.241 L 628.376 493.911 Q 625.456 497.931 623.416 502.451 Q 621.556 505.001 622.416 507.951 L 621.086 513.951 Q 620.686 519.291 622.166 524.451 Q 623.136 533.681 628.566 541.761 Q 630.406 544.501 632.626 545.991 Q 631.936 547.571 633.186 548.141 Q 635.356 549.131 636.286 550.041 Q 640.116 553.821 644.626 556.741 Q 644.446 557.491 645.316 558.011 Q 649.446 560.471 659.376 567.411 Q 659.106 567.931 658.626 567.991 Q 650.656 564.671 645.066 560.511 Q 637.876 555.171 635.276 553.271 Q 620.776 542.751 618.876 523.451 Q 618.386 518.431 618.786 514.531 Q 619.086 511.681 620.226 505.831 Q 622.056 496.351 628.436 488.511 Q 629.856 486.771 631.626 486.241 Z " fill="rgb(244,221,85)"/><path d=" M 692.626 464.741 Q 700.236 464.411 705.316 467.011 Q 707.266 468.011 715.646 473.551 Q 716.766 474.291 719.396 475.171 Q 722.406 476.171 725.126 478.951 Q 728.476 482.381 728.896 483.331 Q 733.606 494.071 735.376 500.451 Q 736.136 503.181 735.836 507.951 Q 734.816 507.911 734.256 507.181 Q 733.896 506.711 733.926 505.621 Q 733.946 504.271 733.666 502.951 L 731.666 498.951 L 729.586 492.951 L 728.336 489.451 Q 727.986 485.791 724.816 482.511 Q 719.726 477.261 714.706 473.771 Q 709.756 470.321 707.016 469.281 Q 702.746 467.641 697.876 468.491 Q 696.416 468.221 695.156 467.431 Q 695.076 467.381 693.866 466.771 Q 692.746 466.211 692.626 464.741 Z " fill="rgb(207,174,202)"/><path d=" M 740.126 523.161 Q 737.966 523.091 737.836 521.201 Q 741.096 519.161 742.666 522.251 C 742.744 522.371 742.767 522.515 742.729 522.651 C 742.691 522.786 742.596 522.902 742.466 522.971 Q 741.436 523.521 740.126 523.161 Z " fill="rgb(207,174,202)"/><path d=" M 730.635 557.139 C 731.128 556.551 732.832 557.168 734.439 558.516 C 736.046 559.864 736.95 561.436 736.457 562.024 C 735.963 562.611 734.259 561.994 732.652 560.646 C 731.046 559.298 730.142 557.726 730.635 557.139 Z " fill="rgb(221,149,192)"/><path d=" M 682.25 585.053 C 682.967 585.077 683.498 586.637 683.435 588.534 C 683.372 590.432 682.739 591.953 682.022 591.929 C 681.304 591.905 680.773 590.346 680.836 588.448 C 680.899 586.55 681.533 585.029 682.25 585.053 Z " fill="rgb(221,149,192)"/><path d=" M 670.961 449.852 C 671.673 449.866 672.212 451.866 672.165 454.316 C 672.118 456.766 671.502 458.744 670.79 458.73 C 670.079 458.717 669.539 456.716 669.586 454.266 C 669.633 451.816 670.249 449.838 670.961 449.852 Z " fill="rgb(253,187,112)"/><path d="M 606.09 509.606 L 617.339 509.31 C 617.957 509.294 618.471 509.784 618.488 510.403 L 618.49 510.483 C 618.506 511.102 618.018 511.618 617.4 511.634 L 606.151 511.93 C 605.533 511.946 605.019 511.456 605.002 510.837 L 605 510.757 C 604.984 510.138 605.472 509.622 606.09 509.606 Z" style="stroke:none;fill:#EEB268;stroke-miterlimit:10;"/><path d=" M 626.656 559.841 Q 629.766 555.901 634.126 553.951 Q 635.716 553.241 634.566 554.641 Q 632.146 557.581 629.506 560.331 Q 628.306 561.591 626.946 561.001 C 626.73 560.909 626.569 560.721 626.512 560.493 C 626.455 560.265 626.508 560.024 626.656 559.841 Z " fill="rgb(238,178,104)"/><path d=" M 736.37 499.705 C 736.31 498.906 738.486 498.091 741.227 497.885 C 743.968 497.679 746.242 498.16 746.302 498.958 C 746.362 499.756 744.185 500.571 741.444 500.777 C 738.704 500.983 736.43 500.503 736.37 499.705 Z " fill="rgb(238,176,232)"/><path d=" M 618.131 490.329 C 618.529 489.467 619.979 489.288 621.367 489.93 C 622.755 490.571 623.558 491.791 623.16 492.653 C 622.762 493.515 621.312 493.694 619.924 493.052 C 618.536 492.411 617.733 491.191 618.131 490.329 Z " fill="rgb(252,157,126)"/></g></g></svg>