<?xml version="1.0" encoding="UTF-8" standalone="no"?><!-- Generator: Gravit.io --><svg xmlns="http://www.w3.org/2000/svg" xmlns:xlink="http://www.w3.org/1999/xlink" style="isolation:isolate" viewBox="209.707 211.858 148.838 121.035" width="148.838pt" height="121.035pt"><defs><clipPath id="_clipPath_hY6ez7BU015TTjwoaENcRU7AM3FyBC8h"><rect x="209.707" y="211.858" width="148.838" height="121.035"/></clipPath></defs><g clip-path="url(#_clipPath_hY6ez7BU015TTjwoaENcRU7AM3FyBC8h)"><path d=" M 258.536 234.954 Q 257.896 235.484 257.076 235.664 Q 256.456 233.484 256.596 232.724 Q 256.866 231.274 257.666 231.824 C 258.186 232.03 258.364 232.378 258.096 232.664 L 258.536 234.954 Z " fill="rgb(155,150,115)"/><path d=" M 321.576 287.914 Q 321.816 286.854 321.076 286.664 Q 322.916 285.804 321.396 285.154 C 321.114 285.035 320.905 284.789 320.832 284.492 C 320.759 284.195 320.831 283.881 321.026 283.644 Q 328.306 274.774 332.246 266.664 Q 336.366 259.194 340.866 251.954 Q 346.176 243.394 348.276 238.384 Q 351.526 230.614 353.556 222.354 Q 354.156 219.894 351.666 220.384 Q 348.776 220.964 346.546 222.584 Q 344.536 224.044 343.586 226.974 Q 342.766 229.474 342.346 232.064 Q 341.736 235.874 341.386 237.204 Q 337.576 251.754 331.246 265.414 Q 330.426 266.574 326.976 273.354 Q 324.796 277.614 318.366 284.434 Q 318.336 284.464 317.506 285.184 Q 316.526 286.024 317.196 287.194 C 317.396 287.437 317.396 287.764 317.196 288.004 Q 315.376 290.694 313.426 293.284 Q 313.176 293.614 313.536 293.704 L 313.536 293.874 Q 289.486 314.164 260.346 324.724 Q 258.946 325.234 258.056 326.054 Q 256.746 326.034 255.996 327.164 Q 250.346 328.404 244.766 329.964 Q 236.596 332.254 233.526 332.594 Q 224.486 333.624 215.556 331.104 Q 213.546 330.534 212.186 329.154 Q 211.046 328.004 210.446 325.874 Q 208.606 319.424 211.346 313.404 Q 213.116 309.524 213.136 309.464 Q 215.276 304.114 217.746 298.914 Q 219.556 299.584 220.846 297.974 Q 222.516 295.914 222.976 298.724 Q 223.206 300.124 222.536 301.374 Q 218.656 307.214 222.256 313.014 Q 222.326 313.124 223.006 314.524 Q 223.416 315.354 224.196 315.814 Q 225.936 316.854 226.076 316.954 Q 229.546 319.684 233.976 318.944 Q 234.266 318.894 234.906 319.104 L 236.786 319.704 Q 242.336 321.244 248.036 320.374 L 250.976 320.454 Q 251.506 320.474 251.076 320.764 Q 248.236 322.684 244.786 322.454 Q 242.306 322.134 241.786 322.164 Q 231.286 322.834 222.636 317.044 Q 219.796 315.134 219.956 312.824 Q 220.076 311.054 219.936 309.294 Q 219.676 306.034 218.346 305.744 C 218.008 305.752 217.708 305.919 217.596 306.164 Q 213.686 312.924 213.036 319.664 Q 212.746 322.614 214.916 323.864 Q 217.576 325.404 217.756 325.544 Q 221.616 328.554 225.346 328.854 Q 235.836 329.704 248.286 325.454 Q 251.626 324.604 255.006 323.884 Q 255.456 323.784 257.076 323.824 Q 258.546 323.864 258.986 322.544 C 259.144 322.081 259.499 321.712 259.956 321.534 Q 269.776 317.724 278.246 313.244 Q 287.866 308.154 292.286 304.934 Q 298.706 300.254 304.096 293.474 Q 306.396 290.594 310.546 289.974 C 310.869 289.927 311.17 289.784 311.406 289.564 Q 316.836 284.424 318.226 282.354 Q 320.426 279.054 323.066 276.114 Q 325.726 273.164 326.506 271.384 Q 327.716 268.654 327.946 265.604 C 327.956 265.283 328.095 264.977 328.336 264.744 Q 330.936 262.044 330.996 258.164 Q 335.216 248.024 338.666 237.614 Q 339.616 234.754 340.376 230.604 Q 341.276 225.774 342.226 223.604 Q 344.596 218.184 349.696 216.994 Q 353.876 216.024 356.546 218.154 Q 359.726 220.694 357.846 226.474 Q 351.396 246.334 340.476 261.104 Q 337.136 265.614 335.806 269.134 Q 335.426 270.144 334.956 270.984 Q 334.446 271.874 334.016 272.804 Q 329.766 281.994 321.576 287.914 Z " fill="rgb(45,149,154)"/><path d=" M 303.076 240.664 Q 304.196 241.184 304.286 242.414 Q 304.566 246.384 303.696 250.024 Q 300.716 259.334 292.316 255.204 L 292.536 254.454 Q 300.076 257.354 302.426 250.914 Q 303.046 249.214 303.046 246.344 Q 303.046 244.004 302.996 241.664 L 303.076 240.664 Z " fill="rgb(103,141,99)"/><path d=" M 316.826 228.664 Q 308.906 230.984 307.286 239.164 Q 306.876 241.234 306.966 246.854 C 306.975 247.127 306.765 247.362 306.476 247.404 Q 304.336 247.754 303.696 250.024 Q 304.566 246.384 304.286 242.414 Q 304.196 241.184 303.076 240.664 L 302.536 235.954 L 312.356 226.934 C 312.59 226.721 312.733 226.428 312.756 226.114 Q 313.436 218.064 320.436 214.034 Q 325.086 211.354 330.476 211.974 Q 334.346 212.424 330.976 215.604 Q 327.096 219.254 321.786 219.884 Q 315.416 220.644 315.056 226.664 C 315.019 226.932 315.212 227.184 315.516 227.264 Q 316.486 227.564 316.826 228.664 Z " fill="rgb(84,149,159)"/><path d=" M 310.826 258.664 Q 310.246 259.344 310.346 260.134 Q 309.296 264.154 308.756 268.164 Q 308.396 270.824 306.226 273.104 Q 298.746 280.954 288.506 277.574 C 288.205 277.494 287.88 277.542 287.626 277.704 Q 285.286 279.484 288.246 281.414 L 292.316 286.394 Q 289.876 291.054 284.286 290.704 Q 281.216 289.804 279.786 286.664 Q 278.086 282.934 278.016 279.124 Q 278.016 279.084 279.046 272.264 Q 279.616 268.504 278.996 264.664 Q 280.746 253.104 292.536 254.454 L 292.316 255.204 Q 283.356 254.134 281.086 262.424 Q 280.986 262.824 281.206 262.904 C 281.455 262.894 281.671 262.794 281.746 262.654 Q 285.476 258.084 291.236 256.824 Q 291.866 256.684 291.576 257.204 Q 291.306 257.654 290.596 257.974 Q 286.486 259.824 282.546 263.544 Q 281.226 264.794 280.806 266.334 Q 280.356 267.964 280.296 269.684 C 280.097 269.804 280.02 269.974 280.094 270.13 C 280.168 270.287 280.382 270.406 280.656 270.444 Q 280.786 270.474 280.956 270.444 C 281.166 270.377 281.316 270.246 281.356 270.094 Q 282.766 267.434 285.226 268.964 C 285.603 269.204 286.099 269.127 286.386 268.784 Q 290.036 264.394 294.546 264.414 Q 297.096 264.424 295.146 266.074 Q 293.116 267.784 292.416 270.184 C 292.297 270.49 292.334 270.827 292.516 271.104 Q 293.696 273.044 296.106 271.744 Q 299.796 269.764 297.136 272.444 Q 296.826 272.754 296.736 273.124 Q 296.036 275.764 298.446 275.184 Q 299.406 274.954 300.206 274.054 Q 306.716 266.714 307.286 256.664 Q 307.336 255.834 308.126 254.954 C 308.358 254.714 308.504 254.418 308.546 254.104 Q 309.436 248.714 314.966 248.714 C 315.29 248.719 315.595 248.862 315.796 249.104 Q 318.106 251.984 314.536 253.914 Q 311.416 255.594 310.826 258.664 Z " fill="rgb(84,149,159)"/><path d=" M 310.346 260.134 Q 311.016 263.614 310.756 267.144 Q 310.696 267.954 310.926 271.154 Q 311.156 274.534 308.306 277.214 L 302.296 280.664 Q 296.406 280.234 290.476 279.474 Q 288.626 279.244 288.246 281.414 Q 285.286 279.484 287.626 277.704 C 287.88 277.542 288.205 277.494 288.506 277.574 Q 298.746 280.954 306.226 273.104 Q 308.396 270.824 308.756 268.164 Q 309.296 264.154 310.346 260.134 Z " fill="rgb(141,192,171)"/><path d=" M 330.996 258.164 Q 330.936 262.044 328.336 264.744 C 328.095 264.977 327.956 265.283 327.946 265.604 Q 327.716 268.654 326.506 271.384 Q 325.726 273.164 323.066 276.114 Q 320.426 279.054 318.226 282.354 Q 316.836 284.424 311.406 289.564 C 311.17 289.784 310.869 289.927 310.546 289.974 Q 306.396 290.594 304.096 293.474 Q 298.706 300.254 292.286 304.934 Q 287.866 308.154 278.246 313.244 Q 269.776 317.724 259.956 321.534 C 259.499 321.712 259.144 322.081 258.986 322.544 Q 258.546 323.864 257.076 323.824 Q 255.456 323.784 255.006 323.884 Q 251.626 324.604 248.286 325.454 Q 247.496 322.804 244.786 322.454 Q 248.236 322.684 251.076 320.764 Q 251.506 320.474 250.976 320.454 L 248.036 320.374 Q 250.036 319.924 252.046 320.304 C 252.343 320.354 252.647 320.257 252.856 320.044 Q 254.376 318.474 256.536 318.814 Q 257.076 318.894 257.506 318.734 Q 259.176 318.114 260.836 317.474 Q 261.096 317.374 263.846 316.734 Q 265.426 316.374 266.676 315.254 C 266.911 315.075 267.213 314.962 267.536 314.934 Q 268.336 314.894 269.016 314.414 Q 270.906 313.084 272.866 311.884 Q 274.176 311.094 277.006 309.964 Q 283.336 307.424 287.836 302.164 Q 302.466 293.654 314.536 281.704 Q 319.626 277.054 322.306 270.804 Q 327.996 265.554 330.996 258.164 Z " fill="rgb(53,178,169)"/><path d=" M 331.246 265.414 Q 331.046 266.594 332.246 266.664 Q 328.306 274.774 321.026 283.644 C 320.831 283.881 320.759 284.195 320.832 284.492 C 320.905 284.789 321.114 285.035 321.396 285.154 Q 322.916 285.804 321.076 286.664 Q 317.136 289.754 314.976 292.854 Q 314.326 293.784 313.536 293.704 Q 313.176 293.614 313.426 293.284 Q 315.376 290.694 317.196 288.004 C 317.396 287.764 317.396 287.437 317.196 287.194 Q 316.526 286.024 317.506 285.184 Q 318.336 284.464 318.366 284.434 Q 324.796 277.614 326.976 273.354 Q 330.426 266.574 331.246 265.414 Z " fill="rgb(53,178,169)"/><path d=" M 318.996 261.414 L 320.076 263.164 L 322.306 270.804 Q 319.626 277.054 314.536 281.704 Q 313.096 279.174 310.036 279.374 Q 315.076 273.254 316.456 265.404 C 316.488 265.104 316.665 264.827 316.946 264.634 Q 318.366 263.534 316.576 262.414 Q 317.306 260.704 318.996 261.414 Z " fill="rgb(254,211,68)"/><path d=" M 316.576 262.414 Q 318.366 263.534 316.946 264.634 C 316.665 264.827 316.488 265.104 316.456 265.404 Q 315.076 273.254 310.036 279.374 Q 301.836 282.754 296.226 289.604 Q 295.716 290.224 294.316 291.214 Q 293.666 291.674 292.346 292.734 Q 286.356 297.544 278.726 293.224 Q 275.406 291.344 274.526 288.534 Q 272.916 283.384 275.046 278.804 Q 276.656 275.334 276.666 275.294 Q 278.506 270.154 278.996 264.664 Q 279.616 268.504 279.046 272.264 Q 278.016 279.084 278.016 279.124 Q 278.086 282.934 279.786 286.664 Q 281.216 289.804 284.286 290.704 L 286.846 291.044 C 287.171 291.108 287.461 291.267 287.666 291.494 Q 288.656 292.574 289.536 291.784 Q 290.516 290.904 290.736 290.784 Q 291.626 290.314 292.536 289.874 Q 294.386 290.024 295.326 288.464 Q 297.866 284.274 302.496 282.154 Q 303.006 281.924 302.496 281.714 Q 301.816 281.434 302.216 281.094 Q 303.836 279.754 302.296 280.664 L 308.306 277.214 Q 312.476 275.694 313.716 271.354 Q 315.016 266.834 316.576 262.414 Z " fill="rgb(212,147,54)"/><path d=" M 230.286 284.124 Q 231.976 284.274 233.646 284.574 Q 234.926 284.814 236.966 284.804 Q 240.266 284.804 243.286 286.454 L 246.256 290.774 C 246.662 291.038 246.729 291.413 246.426 291.724 Q 246.196 293.904 245.856 296.074 Q 245.846 296.144 245.706 299.774 Q 245.586 302.934 242.326 304.414 Q 245.226 296.224 240.466 290.434 Q 238.276 287.764 234.746 286.644 Q 231.376 285.584 227.736 285.704 Q 227.796 284.814 228.076 284.664 Q 229.266 284.804 230.286 284.124 Z " fill="rgb(176,238,185)"/><path d=" M 227.736 285.704 Q 231.376 285.584 234.746 286.644 Q 238.276 287.764 240.466 290.434 Q 245.226 296.224 242.326 304.414 Q 238.316 309.954 232.286 306.454 Q 232.646 305.714 231.796 305.664 C 231.721 305.661 231.654 305.619 231.619 305.553 C 231.584 305.487 231.587 305.408 231.626 305.344 Q 232.756 303.464 232.446 301.974 C 232.368 301.596 232.482 301.204 232.749 300.926 C 233.017 300.648 233.405 300.52 233.786 300.584 Q 235.776 300.914 236.966 300.164 Q 237.996 299.504 238.176 297.634 Q 238.966 289.144 229.536 290.124 Q 229.786 288.564 228.236 286.784 C 228.152 286.686 228.03 286.628 227.9 286.624 C 227.771 286.62 227.646 286.671 227.556 286.764 Q 226.816 287.534 225.786 286.874 Q 226.526 285.604 227.736 285.704 Z " fill="rgb(89,141,165)"/><path d=" M 229.536 290.124 Q 223.996 294.694 226.846 301.114 Q 226.716 305.554 228.826 309.164 Q 228.446 310.124 228.496 311.164 Q 224.086 308.414 223.536 302.914 Q 223.446 301.984 222.536 301.374 Q 223.206 300.124 222.976 298.724 Q 222.516 295.914 220.846 297.974 Q 219.556 299.584 217.746 298.914 Q 220.606 292.094 225.786 286.874 Q 226.816 287.534 227.556 286.764 C 227.646 286.671 227.771 286.62 227.9 286.624 C 228.03 286.628 228.152 286.686 228.236 286.784 Q 229.786 288.564 229.536 290.124 Z " fill="rgb(64,131,123)"/><path d=" M 318.996 261.414 Q 317.306 260.704 316.576 262.414 Q 315.016 266.834 313.716 271.354 Q 312.476 275.694 308.306 277.214 Q 311.156 274.534 310.926 271.154 Q 310.696 267.954 310.756 267.144 Q 311.016 263.614 310.346 260.134 Q 310.246 259.344 310.826 258.664 Q 313.116 258.664 315.416 258.664 Q 315.516 258.664 317.146 258.504 Q 319.606 258.254 318.996 261.414 Z " fill="rgb(186,213,149)"/><path d=" M 302.296 280.664 Q 303.836 279.754 302.216 281.094 Q 301.816 281.434 302.496 281.714 Q 303.006 281.924 302.496 282.154 Q 297.866 284.274 295.326 288.464 Q 294.386 290.024 292.536 289.874 Q 293.056 289.594 293.086 289.094 Q 293.106 288.804 292.766 288.314 Q 292.076 287.314 292.316 286.394 L 288.246 281.414 Q 288.626 279.244 290.476 279.474 Q 296.406 280.234 302.296 280.664 Z " fill="rgb(186,213,149)"/><path d=" M 243.286 286.454 L 244.536 286.374 Q 248.376 289.584 249.026 294.614 Q 249.256 296.384 250.996 296.914 Q 250.416 308.814 239.406 312.234 Q 237.086 312.424 235.336 311.724 Q 231.606 311.414 228.826 309.164 Q 226.716 305.554 226.846 301.114 Q 229.136 304.324 232.286 306.454 Q 238.316 309.954 242.326 304.414 Q 245.586 302.934 245.706 299.774 Q 245.846 296.144 245.856 296.074 Q 246.196 293.904 246.426 291.724 C 246.729 291.413 246.662 291.038 246.256 290.774 L 243.286 286.454 Z " fill="rgb(186,213,149)"/><path d=" M 316.826 228.664 Q 317.016 232.954 317.826 237.154 Q 318.456 240.404 321.636 241.224 Q 325.526 242.224 326.786 245.564 Q 326.826 245.684 327.826 249.764 Q 328.356 251.904 328.756 254.004 C 328.887 254.662 328.694 255.342 328.236 255.834 Q 324.516 259.914 320.076 263.164 L 318.996 261.414 Q 319.606 258.254 317.146 258.504 Q 315.516 258.664 315.416 258.664 Q 313.116 258.664 310.826 258.664 Q 311.416 255.594 314.536 253.914 Q 318.106 251.984 315.796 249.104 C 315.595 248.862 315.29 248.719 314.966 248.714 Q 309.436 248.714 308.546 254.104 C 308.504 254.418 308.358 254.714 308.126 254.954 Q 307.336 255.834 307.286 256.664 Q 306.716 266.714 300.206 274.054 Q 299.406 274.954 298.446 275.184 Q 296.036 275.764 296.736 273.124 Q 296.826 272.754 297.136 272.444 Q 299.796 269.764 296.106 271.744 Q 293.696 273.044 292.516 271.104 C 292.334 270.827 292.297 270.49 292.416 270.184 Q 293.116 267.784 295.146 266.074 Q 297.096 264.424 294.546 264.414 Q 290.036 264.394 286.386 268.784 C 286.099 269.127 285.603 269.204 285.226 268.964 Q 282.766 267.434 281.356 270.094 C 281.316 270.246 281.166 270.377 280.956 270.444 Q 280.786 270.474 280.656 270.444 C 280.382 270.406 280.168 270.287 280.094 270.13 C 280.02 269.974 280.097 269.804 280.296 269.684 Q 280.356 267.964 280.806 266.334 Q 281.226 264.794 282.546 263.544 Q 286.486 259.824 290.596 257.974 Q 291.306 257.654 291.576 257.204 Q 291.866 256.684 291.236 256.824 Q 285.476 258.084 281.746 262.654 C 281.671 262.794 281.455 262.894 281.206 262.904 Q 280.986 262.824 281.086 262.424 Q 283.356 254.134 292.316 255.204 Q 300.716 259.334 303.696 250.024 Q 304.336 247.754 306.476 247.404 C 306.765 247.362 306.975 247.127 306.966 246.854 Q 306.876 241.234 307.286 239.164 Q 308.906 230.984 316.826 228.664 Z " fill="rgb(100,157,164)"/><path d=" M 232.286 306.454 Q 229.136 304.324 226.846 301.114 Q 223.996 294.694 229.536 290.124 Q 238.966 289.144 238.176 297.634 Q 237.996 299.504 236.966 300.164 Q 235.776 300.914 233.786 300.584 C 233.405 300.52 233.017 300.648 232.749 300.926 C 232.482 301.204 232.368 301.596 232.446 301.974 Q 232.756 303.464 231.626 305.344 C 231.587 305.408 231.584 305.487 231.619 305.553 C 231.654 305.619 231.721 305.661 231.796 305.664 Q 232.646 305.714 232.286 306.454 Z " fill="rgb(100,157,164)"/><path d=" M 246.786 312.454 Q 245.056 311.604 243.286 312.164 Q 242.456 312.424 239.406 312.234 Q 250.416 308.814 250.996 296.914 Q 252.926 296.514 253.766 298.454 Q 258.646 309.854 246.786 312.454 Z " fill="rgb(225,161,56)"/><path d=" M 313.826 296.474 Q 307.336 313.224 290.686 320.034 Q 286.446 319.924 282.706 321.934 Q 278.096 324.404 278.066 324.424 Q 275.376 325.644 272.726 326.944 C 272.436 327.078 272.112 327.14 271.786 327.124 Q 266.516 326.774 261.426 328.184 Q 258.686 328.404 255.996 327.164 Q 256.746 326.034 258.056 326.054 Q 261.436 325.654 267.536 323.914 Q 294.766 316.164 313.826 296.474 Z " fill="rgb(245,144,30)"/><path d=" M 302.536 235.954 L 303.076 240.664 L 302.996 241.664 Q 283.586 231.194 264.236 237.704 Q 254.506 240.974 247.196 247.824 Q 238.456 256.024 234.376 267.694 Q 233.706 269.604 232.956 274.784 Q 232.416 278.554 231.036 282.124 Q 230.376 282.994 230.286 284.124 Q 229.266 284.804 228.076 284.664 Q 228.776 277.524 229.826 270.424 Q 231.326 260.344 237.286 253.414 Q 238.736 251.724 238.076 250.174 C 238.021 250.07 238.018 249.947 238.069 249.841 C 238.119 249.734 238.217 249.655 238.336 249.624 Q 242.576 248.554 241.886 244.204 Q 241.786 243.584 241.966 243.154 Q 242.666 241.504 243.406 243.794 C 243.489 244.049 243.687 244.25 243.94 244.338 C 244.193 244.426 244.472 244.392 244.696 244.244 Q 248.356 241.814 248.106 238.694 Q 248.046 238.004 248.156 237.634 Q 248.636 235.994 249.646 238.374 C 249.754 238.634 249.968 238.838 250.238 238.939 C 250.507 239.039 250.807 239.027 251.066 238.904 L 257.076 235.664 Q 257.896 235.484 258.536 234.954 Q 259.436 234.594 263.036 233.414 Q 263.956 233.114 263.776 232.314 C 263.273 232.04 263.281 231.647 263.796 231.394 Q 264.666 229.524 264.986 232.154 C 264.996 232.279 265.06 232.394 265.163 232.472 C 265.265 232.55 265.397 232.583 265.526 232.564 Q 284.576 228.634 302.536 235.954 Z " fill="rgb(248,171,54)"/><path d=" M 222.536 301.374 Q 223.446 301.984 223.536 302.914 Q 224.086 308.414 228.496 311.164 L 232.496 315.164 Q 234.696 317.494 237.576 318.914 Q 237.716 319.844 236.786 319.704 L 234.906 319.104 Q 234.266 318.894 233.976 318.944 Q 229.546 319.684 226.076 316.954 Q 225.936 316.854 224.196 315.814 Q 223.416 315.354 223.006 314.524 Q 222.326 313.124 222.256 313.014 Q 218.656 307.214 222.536 301.374 Z " fill="rgb(55,76,92)"/><path d=" M 287.836 302.164 Q 283.336 307.424 277.006 309.964 Q 274.176 311.094 272.866 311.884 Q 270.906 313.084 269.016 314.414 Q 268.336 314.894 267.536 314.934 C 267.213 314.962 266.911 315.075 266.676 315.254 Q 265.426 316.374 263.846 316.734 Q 261.096 317.374 260.836 317.474 Q 259.176 318.114 257.506 318.734 Q 257.076 318.894 256.536 318.814 Q 254.376 318.474 252.856 320.044 C 252.647 320.257 252.343 320.354 252.046 320.304 Q 250.036 319.924 248.036 320.374 Q 242.336 321.244 236.786 319.704 Q 237.716 319.844 237.576 318.914 L 239.036 319.204 Q 242.486 320.154 246.026 319.594 Q 256.926 317.884 266.806 312.944 Q 277.346 307.674 287.836 302.164 Z " fill="rgb(60,150,115)"/><path d=" M 313.536 293.874 Q 314.846 295.214 313.826 296.474 Q 294.766 316.164 267.536 323.914 Q 261.436 325.654 258.056 326.054 Q 258.946 325.234 260.346 324.724 Q 289.486 314.164 313.536 293.874 Z " fill="rgb(253,219,79)"/><path d=" M 332.246 266.664 Q 331.046 266.594 331.246 265.414 Q 337.576 251.754 341.386 237.204 Q 341.736 235.874 342.346 232.064 Q 342.766 229.474 343.586 226.974 Q 344.536 224.044 346.546 222.584 Q 348.776 220.964 351.666 220.384 Q 354.156 219.894 353.556 222.354 Q 351.526 230.614 348.276 238.384 Q 346.176 243.394 340.866 251.954 Q 336.366 259.194 332.246 266.664 Z " fill="rgb(40,209,187)"/><path d=" M 244.786 322.454 Q 247.496 322.804 248.286 325.454 Q 235.836 329.704 225.346 328.854 Q 221.616 328.554 217.756 325.544 Q 217.576 325.404 214.916 323.864 Q 212.746 322.614 213.036 319.664 Q 213.686 312.924 217.596 306.164 C 217.708 305.919 218.008 305.752 218.346 305.744 Q 219.676 306.034 219.936 309.294 Q 220.076 311.054 219.956 312.824 Q 219.796 315.134 222.636 317.044 Q 231.286 322.834 241.786 322.164 Q 242.306 322.134 244.786 322.454 Z " fill="rgb(40,209,187)"/><path d=" M 292.316 286.394 Q 292.076 287.314 292.766 288.314 Q 293.106 288.804 293.086 289.094 Q 293.056 289.594 292.536 289.874 Q 291.626 290.314 290.736 290.784 Q 290.516 290.904 289.536 291.784 Q 288.656 292.574 287.666 291.494 C 287.461 291.267 287.171 291.108 286.846 291.044 L 284.286 290.704 Q 289.876 291.054 292.316 286.394 Z " fill="rgb(186,159,98)"/><path d=" M 228.826 309.164 Q 231.606 311.414 235.336 311.724 Q 230.786 311.784 232.496 315.164 L 228.496 311.164 Q 228.446 310.124 228.826 309.164 Z " fill="rgb(186,159,98)"/><path d=" M 235.336 311.724 Q 237.086 312.424 239.406 312.234 Q 242.456 312.424 243.286 312.164 Q 245.056 311.604 246.786 312.454 Q 245.686 313.304 244.336 313.624 C 244.034 313.698 243.796 313.924 243.716 314.214 L 242.606 318.374 C 242.61 318.654 242.36 318.904 241.996 318.984 L 239.036 319.204 L 237.576 318.914 Q 234.696 317.494 232.496 315.164 Q 230.786 311.784 235.336 311.724 Z " fill="rgb(245,184,50)"/><path d=" M 242.036 283.954 Q 239.966 283.474 238.746 281.914 Q 237.576 278.064 239.976 275.104 Q 241.556 273.144 242.426 272.024 Q 245.426 268.164 244.506 274.044 C 244.446 274.43 244.595 274.819 244.897 275.065 C 245.2 275.312 245.61 275.38 245.976 275.244 Q 247.406 274.714 248.216 273.134 Q 248.886 271.834 248.936 271.744 Q 250.006 269.914 250.756 267.934 Q 251.246 266.654 251.746 266.214 Q 252.546 265.524 253.726 265.474 Q 256.106 265.374 254.226 267.354 Q 251.086 270.644 249.696 274.964 Q 248.986 277.184 247.096 280.974 Q 245.436 284.314 242.036 283.954 Z " fill="rgb(254,193,62)"/><path d=" M 290.686 320.034 Q 284.606 324.284 277.676 326.924 Q 276.856 327.234 276.426 327.484 Q 274.216 328.784 278.036 328.954 Q 269.756 330.794 261.426 328.184 Q 266.516 326.774 271.786 327.124 C 272.112 327.14 272.436 327.078 272.726 326.944 Q 275.376 325.644 278.066 324.424 Q 278.096 324.404 282.706 321.934 Q 286.446 319.924 290.686 320.034 Z " fill="rgb(254,193,62)"/><path d=" M 302.996 241.664 Q 303.046 244.004 303.046 246.344 Q 303.046 249.214 302.426 250.914 Q 300.076 257.354 292.536 254.454 Q 280.746 253.104 278.996 264.664 Q 278.506 270.154 276.666 275.294 Q 276.656 275.334 275.046 278.804 Q 272.916 283.384 274.526 288.534 Q 275.406 291.344 278.726 293.224 Q 286.356 297.544 292.346 292.734 Q 293.666 291.674 294.316 291.214 Q 295.716 290.224 296.226 289.604 Q 301.836 282.754 310.036 279.374 Q 313.096 279.174 314.536 281.704 Q 302.466 293.654 287.836 302.164 Q 277.346 307.674 266.806 312.944 Q 256.926 317.884 246.026 319.594 Q 242.486 320.154 239.036 319.204 L 241.996 318.984 C 242.36 318.904 242.61 318.654 242.606 318.374 L 243.716 314.214 C 243.796 313.924 244.034 313.698 244.336 313.624 Q 245.686 313.304 246.786 312.454 Q 258.646 309.854 253.766 298.454 Q 252.926 296.514 250.996 296.914 Q 249.256 296.384 249.026 294.614 Q 248.376 289.584 244.536 286.374 Q 242.186 286.174 242.036 283.954 Q 245.436 284.314 247.096 280.974 Q 248.986 277.184 249.696 274.964 Q 251.086 270.644 254.226 267.354 Q 256.106 265.374 253.726 265.474 Q 252.546 265.524 251.746 266.214 Q 251.246 266.654 250.756 267.934 Q 250.006 269.914 248.936 271.744 Q 248.886 271.834 248.216 273.134 Q 247.406 274.714 245.976 275.244 C 245.61 275.38 245.2 275.312 244.897 275.065 C 244.595 274.819 244.446 274.43 244.506 274.044 Q 245.426 268.164 242.426 272.024 Q 241.556 273.144 239.976 275.104 Q 237.576 278.064 238.746 281.914 L 236.006 282.514 C 235.696 282.562 235.374 282.548 235.076 282.474 Q 233.116 281.744 231.036 282.124 Q 232.416 278.554 232.956 274.784 Q 233.706 269.604 234.376 267.694 Q 238.456 256.024 247.196 247.824 Q 254.506 240.974 264.236 237.704 Q 283.586 231.194 302.996 241.664 Z " fill="rgb(253,229,78)"/><path d=" M 238.746 281.914 Q 239.966 283.474 242.036 283.954 Q 242.186 286.174 244.536 286.374 L 243.286 286.454 Q 240.266 284.804 236.966 284.804 Q 234.926 284.814 233.646 284.574 Q 231.976 284.274 230.286 284.124 Q 230.376 282.994 231.036 282.124 Q 233.116 281.744 235.076 282.474 C 235.374 282.548 235.696 282.562 236.006 282.514 L 238.746 281.914 Z " fill="rgb(249,231,99)"/><path d=" M 321.076 286.664 Q 321.816 286.854 321.576 287.914 Q 319.286 296.904 314.476 304.854 Q 302.036 325.454 278.036 328.954 Q 274.216 328.784 276.426 327.484 Q 276.856 327.234 277.676 326.924 Q 284.606 324.284 290.686 320.034 Q 307.336 313.224 313.826 296.474 Q 314.846 295.214 313.536 293.874 L 313.536 293.704 Q 314.326 293.784 314.976 292.854 Q 317.136 289.754 321.076 286.664 Z " fill="rgb(249,231,99)"/><path d=" M 256.476 255.754 Q 254.206 252.584 256.016 249.864 Q 257.016 248.374 260.146 246.684 Q 266.276 243.374 273.086 241.144 C 273.374 241.049 273.69 241.108 273.924 241.301 C 274.158 241.494 274.275 241.794 274.236 242.094 Q 273.636 246.784 270.296 250.664 Q 265.506 256.234 258.966 259.584 Q 257.476 260.344 256.196 260.204 C 255.914 260.167 255.67 260.002 255.546 259.763 C 255.422 259.525 255.433 259.244 255.576 259.014 L 256.626 256.644 C 256.828 256.355 256.768 255.997 256.476 255.754 L 256.476 255.754 Z " fill="rgb(254,209,60)"/><path d=" M 295.096 249.974 Q 291.396 250.814 290.726 248.174 Q 290.236 246.244 291.656 244.594 Q 293.426 242.554 295.906 243.604 Q 297.956 244.464 298.506 246.364 Q 299.276 249.034 295.096 249.974 Z " fill="rgb(254,209,60)"/><path d=" M 278.606 252.854 Q 276.966 245.294 284.986 244.394 C 285.359 244.353 285.733 244.465 286.021 244.705 C 286.308 244.946 286.483 245.292 286.506 245.664 Q 286.716 249.104 284.536 250.924 Q 280.026 254.684 278.426 260.844 Q 278.106 262.074 277.546 260.934 Q 275.596 256.974 278.386 253.724 C 278.595 253.486 278.677 253.163 278.606 252.854 Z " fill="rgb(254,209,60)"/><path d=" M 271.966 271.724 Q 270.686 271.204 271.796 270.364 Q 274.806 268.094 273.936 270.844 Q 273.466 272.334 271.966 271.724 Z " fill="rgb(254,209,60)"/><path d=" M 253.003 285.899 C 253.795 285 255.336 285.062 256.441 286.037 C 257.546 287.011 257.801 288.532 257.009 289.43 C 256.217 290.328 254.676 290.267 253.571 289.292 C 252.465 288.318 252.211 286.797 253.003 285.899 Z " fill="rgb(249,180,74)"/><path d=" M 273.838 258.749 C 274.721 259.566 274.518 261.223 273.385 262.446 C 272.253 263.669 270.617 263.998 269.734 263.18 C 268.851 262.363 269.054 260.706 270.186 259.483 C 271.319 258.26 272.955 257.931 273.838 258.749 Z " fill="rgb(248,171,54)"/><path d=" M 269.736 299.934 Q 273.196 298.274 272.056 302.874 Q 271.486 305.204 269.146 305.714 Q 265.086 306.614 265.466 302.404 Q 265.776 298.854 268.826 299.974 C 269.123 300.08 269.45 300.066 269.736 299.934 Z " fill="rgb(248,171,54)"/><path d=" M 244.206 264.724 C 243.877 264.707 243.61 264.452 243.576 264.124 Q 243.196 260.174 246.686 258.224 C 246.929 258.088 247.218 258.06 247.483 258.147 C 247.747 258.235 247.962 258.43 248.076 258.684 Q 250.886 265.054 244.206 264.724 Z " fill="rgb(254,193,62)"/><path d=" M 259.536 274.484 Q 253.416 269.624 261.566 266.824 C 261.865 266.735 262.192 266.764 262.466 266.904 Q 265.746 268.934 262.736 273.904 Q 261.456 276.014 259.536 274.484 Z " fill="rgb(254,193,62)"/></g></svg>