<?xml version="1.0" encoding="UTF-8" standalone="no"?><!-- Generator: Gravit.io --><svg xmlns="http://www.w3.org/2000/svg" xmlns:xlink="http://www.w3.org/1999/xlink" style="isolation:isolate" viewBox="749.48 404.299 161.083 120.693" width="161.083pt" height="120.693pt"><defs><clipPath id="_clipPath_N1bRLAMHzPbJ82dN6cCMQ3Wu9yVH2L80"><rect x="749.48" y="404.299" width="161.083" height="120.693"/></clipPath></defs><g clip-path="url(#_clipPath_N1bRLAMHzPbJ82dN6cCMQ3Wu9yVH2L80)"><path d=" M 827.305 413.042 L 830.465 414.732 Q 833.005 418.102 836.805 419.082 Q 839.635 419.802 838.005 421.112 Q 837.455 421.552 836.455 421.662 Q 833.115 422.042 831.365 422.892 Q 829.975 423.582 829.875 425.272 C 829.85 425.564 830.057 425.83 830.365 425.902 Q 842.635 429.002 848.985 418.452 C 849.127 418.19 849.389 417.982 849.715 417.872 Q 852.935 417.062 853.315 421.542 Q 853.535 423.992 855.595 422.662 Q 856.075 422.362 857.255 421.942 Q 858.215 421.592 859.015 421.692 Q 862.445 422.082 862.245 426.082 Q 862.185 427.262 862.015 428.422 Q 861.855 429.472 861.975 430.742 Q 862.465 435.912 858.115 439.892 Q 857.415 440.542 854.905 444.042 L 852.715 446.992 Q 850.375 449.862 848.435 453.492 Q 847.125 455.952 845.055 457.722 C 844.664 458.014 844.095 458.047 843.665 457.802 L 839.825 454.512 Q 839.385 454.142 839.005 454.012 L 835.595 452.802 Q 834.865 452.542 835.475 452.032 Q 837.725 450.162 837.245 447.522 Q 836.725 444.672 836.725 444.572 Q 836.335 440.192 834.365 437.022 Q 833.085 434.952 830.045 434.702 Q 822.035 434.052 820.055 441.082 Q 819.105 444.442 817.035 445.882 C 816.736 446.061 816.541 446.332 816.495 446.632 Q 816.225 447.722 816.125 448.832 Q 815.995 450.142 815.645 450.752 Q 814.735 452.322 813.365 451.182 Q 811.865 449.942 812.475 448.082 Q 813.785 444.052 814.155 438.542 Q 814.275 436.742 813.055 435.422 Q 809.585 431.692 804.455 432.112 Q 801.715 432.342 799.875 434.432 Q 796.115 438.712 796.595 444.832 Q 799.185 451.642 804.055 456.692 L 807.675 460.192 Q 809.225 461.682 808.615 463.192 Q 807.455 466.022 804.995 467.592 Q 800.025 470.762 794.545 472.752 C 794.071 472.852 793.574 472.69 793.285 472.342 L 786.625 464.022 C 786.478 463.884 786.269 463.82 786.062 463.847 C 785.855 463.875 785.675 463.991 785.575 464.162 Q 784.445 466.162 783.855 465.472 Q 783.555 465.112 783.555 464.132 Q 783.555 463.032 783.555 461.942 Q 783.555 461.382 783.305 459.752 Q 782.825 456.722 785.615 455.392 Q 789.565 453.522 792.875 450.632 Q 794.285 449.402 792.415 449.392 Q 789.575 449.372 786.815 450.732 Q 785.375 451.442 785.555 449.852 Q 786.615 440.082 793.445 433.192 C 793.671 432.986 793.97 432.836 794.305 432.762 Q 796.705 432.302 795.995 430.142 Q 794.585 425.892 797.795 423.602 Q 802.085 420.542 805.635 417.122 Q 806.685 416.102 806.555 417.562 Q 806.305 420.392 807.195 423.032 Q 808.315 426.402 811.965 425.652 Q 817.915 424.412 821.115 418.392 Q 822.875 415.082 827.305 413.042 Z " fill="rgb(101,189,154)"/><path d=" M 829.805 410.372 Q 829.085 412.192 827.305 413.042 Q 822.875 415.082 821.115 418.392 Q 817.915 424.412 811.965 425.652 Q 808.315 426.402 807.195 423.032 Q 806.305 420.392 806.555 417.562 Q 806.685 416.102 805.635 417.122 Q 802.085 420.542 797.795 423.602 Q 794.585 425.892 795.995 430.142 Q 796.705 432.302 794.305 432.762 C 793.97 432.836 793.671 432.986 793.445 433.192 Q 786.615 440.082 785.555 449.852 Q 785.375 451.442 786.815 450.732 Q 789.575 449.372 792.415 449.392 Q 794.285 449.402 792.875 450.632 Q 789.565 453.522 785.615 455.392 Q 782.825 456.722 783.305 459.752 Q 783.555 461.382 783.555 461.942 Q 783.555 463.032 783.555 464.132 Q 783.555 465.112 783.855 465.472 Q 784.445 466.162 785.575 464.162 C 785.675 463.991 785.855 463.875 786.062 463.847 C 786.269 463.82 786.478 463.884 786.625 464.022 L 793.285 472.342 C 793.574 472.69 794.071 472.852 794.545 472.752 Q 800.025 470.762 804.995 467.592 Q 807.455 466.022 808.615 463.192 Q 809.225 461.682 807.675 460.192 L 804.055 456.692 L 809.625 452.112 C 809.879 451.899 810.055 451.611 810.125 451.292 Q 810.735 448.552 807.805 447.792 Q 811.035 445.202 810.725 441.542 Q 810.445 438.212 807.425 437.102 Q 804.035 435.862 800.995 439.022 Q 798.255 441.862 800.055 445.542 Q 798.355 444.742 796.595 444.832 Q 796.115 438.712 799.875 434.432 Q 801.715 432.342 804.455 432.112 Q 809.585 431.692 813.055 435.422 Q 814.275 436.742 814.155 438.542 Q 813.785 444.052 812.475 448.082 Q 811.865 449.942 813.365 451.182 Q 814.735 452.322 815.645 450.752 Q 815.995 450.142 816.125 448.832 Q 816.225 447.722 816.495 446.632 C 816.541 446.332 816.736 446.061 817.035 445.882 Q 819.105 444.442 820.055 441.082 Q 822.035 434.052 830.045 434.702 Q 833.085 434.952 834.365 437.022 Q 836.335 440.192 836.725 444.572 Q 836.725 444.672 837.245 447.522 Q 837.725 450.162 835.475 452.032 Q 834.865 452.542 835.595 452.802 L 839.005 454.012 Q 839.385 454.142 839.825 454.512 L 843.665 457.802 C 844.095 458.047 844.664 458.014 845.055 457.722 Q 847.125 455.952 848.435 453.492 Q 850.375 449.862 852.715 446.992 Q 863.535 447.882 866.555 437.332 Q 867.575 433.772 866.295 431.122 Q 866.095 430.702 865.815 430.502 Q 865.095 430.012 865.055 431.332 Q 864.765 441.702 854.905 444.042 Q 857.415 440.542 858.115 439.892 Q 862.465 435.912 861.975 430.742 Q 861.855 429.472 862.015 428.422 Q 862.185 427.262 862.245 426.082 Q 862.445 422.082 859.015 421.692 Q 858.215 421.592 857.255 421.942 Q 856.075 422.362 855.595 422.662 Q 853.535 423.992 853.315 421.542 Q 852.935 417.062 849.715 417.872 C 849.389 417.982 849.127 418.19 848.985 418.452 Q 842.635 429.002 830.365 425.902 C 830.057 425.83 829.85 425.564 829.875 425.272 Q 829.975 423.582 831.365 422.892 Q 833.115 422.042 836.455 421.662 Q 837.455 421.552 838.005 421.112 Q 839.635 419.802 836.805 419.082 Q 833.005 418.102 830.465 414.732 Q 835.625 413.292 840.415 414.482 C 840.748 414.52 841.082 414.408 841.309 414.183 C 841.536 413.958 841.628 413.648 841.555 413.352 L 841.305 410.872 Q 845.635 411.232 849.945 411.872 Q 850.035 411.882 852.655 411.892 Q 854.445 411.902 855.605 413.432 Q 857.615 416.052 858.715 419.302 C 858.814 419.586 859.057 419.798 859.355 419.862 Q 862.385 420.502 864.555 422.592 Q 864.775 422.802 866.885 424.722 Q 868.385 426.082 869.095 428.082 Q 869.525 429.382 870.105 430.612 Q 870.165 430.732 870.655 432.232 Q 871.045 433.432 872.305 433.872 Q 873.045 437.412 875.915 438.822 Q 874.315 443.522 879.495 440.762 Q 879.685 442.392 878.305 442.082 Q 876.095 441.592 877.055 443.832 Q 877.705 445.352 879.515 445.082 Q 877.055 445.342 877.805 447.542 Q 878.565 449.792 879.455 451.972 L 881.055 459.542 Q 875.575 461.582 870.845 464.982 Q 870.595 465.162 870.355 465.202 Q 869.225 465.422 870.345 464.382 Q 872.615 462.262 874.885 460.152 Q 879.085 456.262 876.515 451.082 L 875.205 446.662 Q 873.405 443.122 872.195 439.662 Q 871.605 437.972 871.045 439.292 C 870.722 439.579 870.703 439.945 870.995 440.252 Q 871.325 441.942 870.115 443.392 Q 867.535 446.512 865.865 448.392 Q 864.395 450.042 862.735 450.492 Q 860.835 451.002 858.805 450.832 Q 857.265 450.702 852.375 451.432 Q 849.855 451.812 851.345 452.922 Q 851.795 453.272 852.505 453.362 Q 860.735 454.402 868.235 450.862 Q 869.025 450.962 869.355 451.382 C 869.507 451.495 869.577 451.653 869.544 451.81 C 869.51 451.967 869.378 452.104 869.185 452.182 Q 867.735 453.612 867.055 455.542 Q 865.305 457.002 865.555 459.582 Q 865.825 462.362 864.115 464.072 Q 862.795 465.382 860.135 465.672 Q 857.285 465.972 854.455 465.562 Q 850.385 464.972 849.615 465.022 Q 846.915 465.222 844.865 466.642 Q 839.135 470.632 836.365 477.892 Q 834.255 483.422 829.395 485.292 Q 827.785 485.912 827.725 485.942 Q 822.275 488.322 819.615 490.642 Q 817.425 492.562 815.165 492.982 Q 813.535 493.282 813.455 493.302 Q 809.035 494.422 804.555 495.292 Q 807.255 492.732 810.235 490.512 Q 811.735 489.392 811.225 487.662 Q 811.585 485.552 810.455 483.932 Q 809.005 481.862 808.945 481.242 Q 808.785 479.572 810.025 478.042 Q 810.605 477.322 810.355 476.732 C 810.194 476.533 809.87 476.464 809.605 476.572 Q 802.695 480.282 796.025 482.252 C 795.411 482.435 794.746 482.257 794.305 481.792 Q 790.585 477.902 787.595 478.362 C 786.98 478.458 786.387 478.087 786.205 477.492 Q 785.845 476.362 785.275 474.952 Q 784.325 472.612 784.095 474.412 Q 784.045 474.812 784.205 475.222 Q 786.815 482.212 790.835 488.552 Q 786.795 491.122 781.305 491.292 Q 783.775 490.682 784.635 488.562 C 784.805 488.26 784.823 487.913 784.685 487.602 L 783.115 483.032 Q 784.035 480.662 782.335 478.252 L 781.535 476.122 L 780.925 474.122 Q 780.965 472.432 780.265 471.832 Q 781.555 468.942 779.765 466.332 L 780.015 458.582 Q 782.495 454.872 780.735 451.082 Q 782.035 447.902 782.345 444.332 Q 785.785 434.022 788.365 429.392 Q 792.125 422.652 799.995 417.772 Q 802.135 416.442 802.685 413.442 Q 802.985 411.772 802.995 411.742 Q 805.055 403.672 813.745 404.352 C 814.068 404.386 814.37 404.516 814.605 404.722 Q 821.025 410.572 829.805 410.372 Z " fill="rgb(68,138,166)"/><path d=" M 807.805 447.792 Q 803.335 448.492 800.055 445.542 Q 798.255 441.862 800.995 439.022 Q 804.035 435.862 807.425 437.102 Q 810.445 438.212 810.725 441.542 Q 811.035 445.202 807.805 447.792 Z " fill="rgb(94,184,153)"/><path d=" M 800.055 445.542 Q 803.335 448.492 807.805 447.792 Q 810.735 448.552 810.125 451.292 C 810.055 451.611 809.879 451.899 809.625 452.112 L 804.055 456.692 Q 799.185 451.642 796.595 444.832 Q 798.355 444.742 800.055 445.542 Z " fill="rgb(59,116,154)"/><path d=" M 875.205 446.662 L 876.515 451.082 Q 873.165 454.432 869.995 456.022 Q 868.565 456.732 867.055 455.542 Q 867.735 453.612 869.185 452.182 C 869.378 452.104 869.51 451.967 869.544 451.81 C 869.577 451.653 869.507 451.495 869.355 451.382 Q 869.025 450.962 868.235 450.862 Q 872.265 449.732 875.205 446.662 Z " fill="rgb(59,116,154)"/><path d=" M 841.305 410.872 L 841.555 413.352 C 841.628 413.648 841.536 413.958 841.309 414.183 C 841.082 414.408 840.748 414.52 840.415 414.482 Q 835.625 413.292 830.465 414.732 L 827.305 413.042 Q 829.085 412.192 829.805 410.372 Q 835.605 409.352 841.305 410.872 Z " fill="rgb(92,181,162)"/><path d=" M 896.205 425.672 Q 897.975 427.002 897.245 428.522 Q 894.925 433.332 889.555 436.372 Q 889.045 436.492 888.805 436.332 C 888.403 436.317 888.104 436.119 888.137 435.89 C 888.171 435.661 888.523 435.487 888.925 435.502 Q 891.295 432.482 894.265 430.032 Q 896.145 428.482 896.205 425.672 Z " fill="rgb(134,133,191)"/><path d=" M 780.735 451.082 Q 782.495 454.872 780.015 458.582 Q 773.995 460.312 769.195 464.262 Q 768.795 464.582 769.285 464.762 Q 774.345 466.642 779.765 466.332 Q 781.555 468.942 780.265 471.832 L 772.305 472.292 L 773.365 471.812 C 773.636 471.691 773.76 471.381 773.645 471.112 Q 772.665 468.452 770.015 469.392 C 769.716 469.461 769.382 469.461 769.085 469.392 L 767.175 468.172 Q 767.125 468.142 766.625 467.372 Q 766.355 466.952 765.805 466.982 Q 765.285 467.012 764.875 466.812 L 762.805 465.792 Q 764.195 461.352 768.535 459.532 Q 773.365 457.512 778.105 455.292 C 778.396 455.177 778.55 454.882 778.465 454.602 Q 778.035 452.972 776.555 454.082 Q 772.885 456.832 766.305 458.622 L 762.805 458.042 Q 771.235 453.742 780.735 451.082 Z " fill="rgb(134,133,191)"/><path d=" M 876.115 471.532 L 859.295 477.082 C 858.974 477.161 858.633 477.116 858.348 476.956 C 858.062 476.796 857.856 476.535 857.775 476.232 Q 857.385 474.872 856.265 473.832 Q 855.715 472.822 856.595 472.082 L 869.515 467.332 Q 868.365 469.082 870.345 469.312 C 870.565 469.318 870.785 469.28 870.985 469.202 L 875.335 467.272 C 875.62 467.171 875.95 467.25 876.125 467.462 Q 876.395 467.962 875.745 468.272 Q 870.165 470.892 876.115 471.532 Z " fill="rgb(134,133,191)"/><path d=" M 856.595 472.082 Q 855.715 472.822 856.265 473.832 Q 855.955 474.562 856.495 475.642 Q 858.955 480.572 854.605 484.122 Q 849.615 488.202 844.245 485.642 Q 841.765 484.462 841.335 481.822 Q 841.025 479.902 842.045 477.462 Q 843.355 474.302 845.795 471.942 Q 848.135 469.662 850.955 469.782 Q 854.055 469.902 856.595 472.082 Z " fill="rgb(95,175,158)"/><path d=" M 893.555 479.542 Q 893.715 478.132 894.695 477.272 Q 895.695 476.382 895.805 476.272 Q 897.305 474.642 899.085 473.312 C 899.454 473.131 899.646 472.827 899.585 472.522 Q 899.605 472.072 899.375 471.702 C 899.201 471.455 898.901 471.292 898.565 471.262 L 888.555 470.792 Q 894.175 469.652 899.825 470.582 Q 902.945 471.102 900.975 473.582 Q 898.015 477.282 893.555 479.542 Z " fill="rgb(113,126,188)"/><path d=" M 880.555 471.292 Q 881.475 471.892 882.555 471.872 Q 878.855 473.292 881.625 474.522 Q 880.395 477.942 881.345 481.582 Q 880.365 483.152 881.165 484.912 Q 880.745 487.882 880.245 490.992 Q 879.715 494.282 878.285 496.722 Q 872.985 505.792 863.875 511.152 Q 860.425 513.182 859.325 513.592 Q 857.005 514.442 854.075 514.292 C 853.682 514.273 853.297 514.412 853.008 514.679 C 852.718 514.946 852.548 515.318 852.535 515.712 Q 852.435 518.232 850.405 519.522 Q 848.605 520.662 846.545 520.152 Q 844.235 519.582 842.695 517.262 C 842.598 517.117 842.447 517.018 842.276 516.986 C 842.105 516.954 841.928 516.992 841.785 517.092 L 838.605 519.372 Q 836.795 520.662 834.885 519.532 Q 832.665 518.212 830.235 517.902 Q 828.855 517.722 825.455 518.462 Q 813.935 520.982 807.415 510.422 L 807.375 508.322 Q 807.365 508.052 807.035 507.422 Q 806.555 506.522 807.055 505.542 Q 810.615 508.872 814.065 512.322 Q 819.715 518.012 826.415 513.572 Q 827.865 512.612 827.825 510.872 Q 827.765 508.252 827.025 506.232 Q 826.355 504.382 824.995 503.942 Q 823.035 503.312 821.895 506.512 Q 821.185 508.502 819.245 507.682 Q 816.835 506.662 815.285 504.952 Q 814.095 503.642 814.165 502.292 Q 814.255 500.412 816.615 499.892 Q 826.305 497.772 830.385 506.542 Q 831.905 509.822 832.635 512.692 Q 833.095 514.472 834.495 515.662 Q 836.165 517.092 837.315 515.362 Q 838.925 512.922 840.265 510.402 C 840.738 509.515 841.559 508.86 842.535 508.592 Q 845.255 507.842 847.985 508.082 Q 848.045 508.092 851.905 509.032 Q 855.775 509.982 859.505 508.032 Q 862.825 506.292 865.775 504.032 Q 869.465 501.192 871.385 499.182 Q 876.545 493.772 877.555 485.332 Q 878.445 477.822 877.865 472.822 C 877.766 472.518 877.877 472.195 878.155 471.982 Q 879.135 471.132 880.555 471.292 Z " fill="rgb(64,143,169)"/><path d=" M 852.715 446.992 L 854.905 444.042 Q 864.765 441.702 865.055 431.332 Q 865.095 430.012 865.815 430.502 Q 866.095 430.702 866.295 431.122 Q 867.575 433.772 866.555 437.332 Q 863.535 447.882 852.715 446.992 Z " fill="rgb(48,78,127)"/><path d=" M 875.205 446.662 Q 872.265 449.732 868.235 450.862 Q 860.735 454.402 852.505 453.362 Q 851.795 453.272 851.345 452.922 Q 849.855 451.812 852.375 451.432 Q 857.265 450.702 858.805 450.832 Q 860.835 451.002 862.735 450.492 Q 864.395 450.042 865.865 448.392 Q 867.535 446.512 870.115 443.392 Q 871.325 441.942 870.995 440.252 C 870.703 439.945 870.722 439.579 871.045 439.292 Q 871.605 437.972 872.195 439.662 Q 873.405 443.122 875.205 446.662 Z " fill="rgb(48,78,127)"/><path d=" M 876.515 451.082 Q 879.085 456.262 874.885 460.152 Q 872.615 462.262 870.345 464.382 Q 869.225 465.422 870.355 465.202 Q 870.595 465.162 870.845 464.982 Q 875.575 461.582 881.055 459.542 L 881.555 459.872 Q 875.845 464.112 869.515 467.332 L 856.595 472.082 Q 854.055 469.902 850.955 469.782 Q 848.135 469.662 845.795 471.942 Q 843.355 474.302 842.045 477.462 Q 841.025 479.902 841.335 481.822 Q 841.765 484.462 844.245 485.642 Q 849.615 488.202 854.605 484.122 Q 858.955 480.572 856.495 475.642 Q 855.955 474.562 856.265 473.832 Q 857.385 474.872 857.775 476.232 C 857.856 476.535 858.062 476.796 858.348 476.956 C 858.633 477.116 858.974 477.161 859.295 477.082 L 876.115 471.532 Q 878.045 470.182 880.305 470.122 Q 880.185 470.782 880.555 471.292 Q 879.135 471.132 878.155 471.982 C 877.877 472.195 877.766 472.518 877.865 472.822 Q 878.445 477.822 877.555 485.332 Q 876.545 493.772 871.385 499.182 Q 869.465 501.192 865.775 504.032 Q 862.825 506.292 859.505 508.032 Q 855.775 509.982 851.905 509.032 Q 848.045 508.092 847.985 508.082 Q 845.255 507.842 842.535 508.592 C 841.559 508.86 840.738 509.515 840.265 510.402 Q 838.925 512.922 837.315 515.362 Q 836.165 517.092 834.495 515.662 Q 833.095 514.472 832.635 512.692 Q 831.905 509.822 830.385 506.542 Q 826.305 497.772 816.615 499.892 Q 814.255 500.412 814.165 502.292 Q 814.095 503.642 815.285 504.952 Q 816.835 506.662 819.245 507.682 Q 821.185 508.502 821.895 506.512 Q 823.035 503.312 824.995 503.942 Q 826.355 504.382 827.025 506.232 Q 827.765 508.252 827.825 510.872 Q 827.865 512.612 826.415 513.572 Q 819.715 518.012 814.065 512.322 Q 810.615 508.872 807.055 505.542 L 802.265 502.782 C 801.974 502.683 801.64 502.69 801.355 502.802 L 798.305 504.292 L 799.995 501.772 C 800.794 501.662 801.329 501.097 801.191 500.509 C 801.053 499.92 800.294 499.532 799.495 499.642 L 793.255 499.142 Q 798.705 496.692 804.555 495.292 Q 809.035 494.422 813.455 493.302 Q 813.535 493.282 815.165 492.982 Q 817.425 492.562 819.615 490.642 Q 822.275 488.322 827.725 485.942 Q 827.785 485.912 829.395 485.292 Q 834.255 483.422 836.365 477.892 Q 839.135 470.632 844.865 466.642 Q 846.915 465.222 849.615 465.022 Q 850.385 464.972 854.455 465.562 Q 857.285 465.972 860.135 465.672 Q 862.795 465.382 864.115 464.072 Q 865.825 462.362 865.555 459.582 Q 865.305 457.002 867.055 455.542 Q 868.565 456.732 869.995 456.022 Q 873.165 454.432 876.515 451.082 Z " fill="rgb(48,78,127)"/><path d=" M 811.225 487.662 Q 809.525 485.382 806.555 485.832 Q 795.085 487.562 790.835 488.552 Q 786.815 482.212 784.205 475.222 Q 784.045 474.812 784.095 474.412 Q 784.325 472.612 785.275 474.952 Q 785.845 476.362 786.205 477.492 C 786.387 478.087 786.98 478.458 787.595 478.362 Q 790.585 477.902 794.305 481.792 C 794.746 482.257 795.411 482.435 796.025 482.252 Q 802.695 480.282 809.605 476.572 C 809.87 476.464 810.194 476.533 810.355 476.732 Q 810.605 477.322 810.025 478.042 Q 808.785 479.572 808.945 481.242 Q 809.005 481.862 810.455 483.932 Q 811.585 485.552 811.225 487.662 Z " fill="rgb(48,78,127)"/><path d=" M 896.205 425.672 Q 896.145 428.482 894.265 430.032 Q 891.295 432.482 888.925 435.502 C 888.523 435.487 888.171 435.661 888.137 435.89 C 888.104 436.119 888.403 436.317 888.805 436.332 Q 889.045 436.492 889.555 436.372 Q 884.885 439.592 879.495 440.762 Q 874.315 443.522 875.915 438.822 Q 881.565 436.672 886.195 431.922 Q 886.815 431.292 885.935 431.342 Q 878.545 431.792 872.305 433.872 Q 871.045 433.432 870.655 432.232 Q 870.165 430.732 870.105 430.612 Q 869.525 429.382 869.095 428.082 Q 878.145 425.242 887.555 424.082 Q 892.415 423.492 896.205 425.672 Z " fill="rgb(155,159,210)"/><path d=" M 880.305 470.122 Q 878.045 470.182 876.115 471.532 Q 870.165 470.892 875.745 468.272 Q 876.395 467.962 876.125 467.462 C 875.95 467.25 875.62 467.171 875.335 467.272 L 870.985 469.202 C 870.785 469.28 870.565 469.318 870.345 469.312 Q 868.365 469.082 869.515 467.332 Q 875.845 464.112 881.555 459.872 Q 884.925 457.502 888.615 455.642 Q 892.555 453.652 895.245 450.232 C 895.319 450.152 895.341 450.04 895.303 449.939 C 895.266 449.839 895.174 449.767 895.065 449.752 Q 891.415 449.182 887.805 450.062 Q 884.085 450.972 879.455 451.972 Q 878.565 449.792 877.805 447.542 Q 877.055 445.342 879.515 445.082 Q 891.105 442.232 903.055 442.342 Q 907.405 442.392 910.165 445.512 C 910.388 445.756 910.522 446.065 910.545 446.392 Q 910.765 449.702 908.365 452.392 Q 904.725 456.502 901.015 459.042 Q 891.275 465.722 880.305 470.122 Z " fill="rgb(155,159,210)"/><path d=" M 762.805 458.042 L 766.305 458.622 Q 761.975 461.622 758.565 465.642 C 758.322 465.886 758.191 466.195 758.195 466.512 Q 758.095 468.762 760.135 468.352 Q 760.985 468.192 761.655 467.342 Q 762.255 466.572 762.805 465.792 L 764.875 466.812 Q 765.285 467.012 765.805 466.982 Q 766.355 466.952 766.625 467.372 Q 767.125 468.142 767.175 468.172 L 769.085 469.392 C 769.382 469.461 769.716 469.461 770.015 469.392 Q 772.665 468.452 773.645 471.112 C 773.76 471.381 773.636 471.691 773.365 471.812 L 772.305 472.292 Q 764.705 472.662 758.555 470.832 Q 756.705 470.282 755.845 468.632 Q 755.145 467.282 755.715 465.492 Q 757.385 460.232 762.805 458.042 Z " fill="rgb(155,159,210)"/><path d=" M 888.555 470.792 L 898.565 471.262 C 898.901 471.292 899.201 471.455 899.375 471.702 Q 899.605 472.072 899.585 472.522 C 899.646 472.827 899.454 473.131 899.085 473.312 Q 897.305 474.642 895.805 476.272 Q 895.695 476.382 894.695 477.272 Q 893.715 478.132 893.555 479.542 Q 887.885 482.992 881.165 484.912 Q 880.365 483.152 881.345 481.582 L 891.845 475.952 Q 893.845 474.882 891.575 474.812 L 881.625 474.522 Q 878.855 473.292 882.555 471.872 L 888.555 470.792 Z " fill="rgb(155,159,210)"/><path d=" M 780.925 474.122 L 781.535 476.122 Q 772.725 477.052 767.615 482.642 Q 765.645 484.802 763.965 486.082 Q 760.625 488.632 760.125 489.172 Q 756.085 493.452 752.975 498.472 Q 750.595 498.952 749.655 496.092 Q 755.445 486.462 766.995 480.772 Q 778.065 475.312 780.925 474.122 Z " fill="rgb(155,159,210)"/><path d=" M 782.335 478.252 Q 784.035 480.662 783.115 483.032 Q 776.095 485.492 771.435 490.892 C 771.363 490.977 771.339 491.093 771.371 491.2 C 771.403 491.307 771.488 491.39 771.595 491.422 Q 776.435 492.862 781.305 491.292 Q 786.795 491.122 790.835 488.552 Q 795.085 487.562 806.555 485.832 Q 809.525 485.382 811.225 487.662 Q 811.735 489.392 810.235 490.512 Q 807.255 492.732 804.555 495.292 Q 798.705 496.692 793.255 499.142 Q 781.525 501.662 769.555 503.122 Q 760.955 504.162 757.615 503.522 Q 754.155 502.852 751.245 500.892 Q 748.925 499.322 749.655 496.092 Q 750.595 498.952 752.975 498.472 Q 755.265 500.872 759.495 501.142 Q 766.695 501.612 771.105 500.542 Q 787.635 496.532 803.875 491.472 Q 804.375 491.312 804.685 491.092 Q 805.705 490.342 804.235 490.132 Q 803.845 490.072 803.385 490.212 Q 783.925 496.272 763.725 498.902 Q 761.805 499.152 760.925 498.692 Q 759.675 498.032 759.415 496.392 C 759.333 496.072 759.416 495.739 759.645 495.472 Q 767.855 482.912 782.335 478.252 Z " fill="rgb(137,146,196)"/><path d=" M 807.055 505.542 Q 806.555 506.522 807.035 507.422 Q 807.365 508.052 807.375 508.322 L 807.415 510.422 Q 804.775 513.172 804.115 515.142 Q 802.955 518.642 801.415 520.972 Q 798.765 524.992 794.305 524.992 Q 792.295 524.992 790.095 523.932 Q 787.975 522.912 786.375 521.482 C 785.822 520.999 785.009 520.954 784.405 521.372 Q 781.415 523.462 778.585 522.492 Q 775.985 521.602 775.335 518.582 Q 774.565 514.962 777.235 512.732 Q 779.275 511.032 782.245 511.002 Q 785.125 510.972 787.625 512.382 C 788.208 512.712 788.932 512.673 789.475 512.282 Q 794.325 508.752 798.305 504.292 L 801.355 502.802 C 801.64 502.69 801.974 502.683 802.265 502.782 L 807.055 505.542 Z " fill="rgb(137,146,196)"/><path d=" M 762.805 465.792 Q 762.255 466.572 761.655 467.342 Q 760.985 468.192 760.135 468.352 Q 758.095 468.762 758.195 466.512 C 758.191 466.195 758.322 465.886 758.565 465.642 Q 761.975 461.622 766.305 458.622 Q 772.885 456.832 776.555 454.082 Q 778.035 452.972 778.465 454.602 C 778.55 454.882 778.396 455.177 778.105 455.292 Q 773.365 457.512 768.535 459.532 Q 764.195 461.352 762.805 465.792 Z " fill="rgb(170,180,226)"/><path d=" M 781.535 476.122 L 782.335 478.252 Q 767.855 482.912 759.645 495.472 C 759.416 495.739 759.333 496.072 759.415 496.392 Q 759.675 498.032 760.925 498.692 Q 761.805 499.152 763.725 498.902 Q 783.925 496.272 803.385 490.212 Q 803.845 490.072 804.235 490.132 Q 805.705 490.342 804.685 491.092 Q 804.375 491.312 803.875 491.472 Q 787.635 496.532 771.105 500.542 Q 766.695 501.612 759.495 501.142 Q 755.265 500.872 752.975 498.472 Q 756.085 493.452 760.125 489.172 Q 760.625 488.632 763.965 486.082 Q 765.645 484.802 767.615 482.642 Q 772.725 477.052 781.535 476.122 Z " fill="rgb(170,180,226)"/><path d=" M 808.995 415.642 Q 805.945 414.422 807.615 411.082 Q 809.245 407.832 812.745 407.212 C 813.07 407.229 813.365 407.36 813.535 407.562 L 818.945 413.742 C 819.049 413.822 819.104 413.941 819.094 414.063 C 819.084 414.185 819.01 414.295 818.895 414.362 Q 813.965 417.632 808.995 415.642 Z " fill="rgb(108,183,142)"/><path d=" M 841.475 440.642 C 841.203 440.575 840.973 440.393 840.844 440.144 C 840.716 439.895 840.701 439.602 840.805 439.342 Q 841.615 437.272 843.395 435.932 Q 846.945 433.262 850.235 431.912 Q 852.285 431.082 852.935 433.192 Q 853.885 436.232 852.535 437.912 Q 851.665 439.002 848.995 440.112 Q 845.445 441.592 841.475 440.642 Z " fill="rgb(68,138,166)"/><path d=" M 828.933 438.964 C 831.839 439.341 833.836 442.434 833.391 445.865 C 832.945 449.297 830.224 451.777 827.317 451.399 C 824.411 451.022 822.414 447.929 822.859 444.498 C 823.305 441.066 826.026 438.586 828.933 438.964 Z " fill="rgb(94,184,153)"/><path d=" M 814.195 468.632 C 813.97 468.577 813.782 468.423 813.684 468.212 C 813.587 468.002 813.591 467.759 813.695 467.552 Q 814.535 465.892 816.275 464.562 Q 819.875 461.792 823.365 458.892 Q 825.115 457.442 828.145 457.142 Q 829.065 457.052 832.965 456.842 Q 835.385 456.702 837.805 457.012 C 838.133 457.064 838.431 457.216 838.645 457.442 Q 840.625 459.692 838.625 460.982 Q 837.685 461.572 835.865 461.682 Q 830.555 461.972 826.805 461.332 Q 824.145 460.872 823.435 462.852 C 823.229 463.149 823.285 463.516 823.575 463.762 L 826.725 467.102 C 827.054 467.306 827.22 467.662 827.149 468.014 C 827.078 468.365 826.783 468.646 826.395 468.732 Q 820.745 470.182 814.195 468.632 Z " fill="rgb(92,181,162)"/><path d=" M 832.315 497.322 C 831.678 497.07 831.194 496.538 831.005 495.882 Q 829.025 489.062 835.505 485.602 Q 837.225 484.692 838.855 485.762 Q 841.455 487.482 844.575 487.832 Q 847.535 488.172 846.095 490.782 Q 843.285 495.912 837.315 497.622 Q 834.855 498.332 832.315 497.322 Z " fill="rgb(71,120,169)"/><path d=" M 862.485 490.152 Q 860.125 488.602 860.745 485.772 Q 861.255 483.432 864.535 482.522 Q 869.755 481.072 874.775 482.962 C 875.057 483.069 875.244 483.339 875.245 483.642 Q 875.255 488.942 872.305 492.482 Q 870.545 494.592 868.085 493.352 Q 864.935 491.752 862.485 490.152 Z " fill="rgb(66,127,162)"/><path d=" M 848.705 502.902 Q 847.885 501.322 847.425 499.572 C 847.339 499.26 847.386 498.928 847.555 498.652 Q 851.605 491.862 858.285 487.592 C 858.384 487.53 858.504 487.516 858.615 487.552 C 858.725 487.589 858.813 487.673 858.855 487.782 Q 860.015 490.932 861.685 492.592 C 861.902 492.807 861.993 493.119 861.926 493.418 C 861.859 493.716 861.643 493.959 861.355 494.062 Q 856.765 495.692 858.425 500.002 Q 859.225 502.072 857.645 503.622 Q 854.735 506.492 851.555 505.512 Q 849.755 504.952 848.705 502.902 Z " fill="rgb(66,127,162)"/><path d=" M 906.885 449.892 Q 900.035 457.012 897.995 458.272 Q 888.595 464.072 878.265 467.972 Q 876.665 468.572 877.295 467.552 Q 877.455 467.292 877.775 467.062 Q 885.335 461.472 893.115 456.202 Q 893.205 456.142 897.475 453.542 Q 900.765 451.542 903.665 448.592 C 904.353 447.898 905.314 447.537 906.295 447.602 Q 907.505 447.682 907.485 448.712 Q 907.475 449.282 906.885 449.892 Z " fill="rgb(170,180,226)"/><path d=" M 802.865 509.662 Q 797.515 510.172 803.635 507.182 C 803.892 507.055 804.193 507.05 804.454 507.168 C 804.715 507.286 804.91 507.515 804.985 507.792 Q 805.425 509.412 802.865 509.662 Z " fill="rgb(170,180,226)"/><path d=" M 791.605 515.652 Q 794.355 514.862 795.015 512.132 C 795.004 511.872 795.27 511.651 795.615 511.632 L 798.275 512.182 C 798.677 512.305 798.922 512.587 798.885 512.882 Q 799.405 514.832 799.275 516.832 Q 799.135 518.942 797.605 520.152 Q 794.775 522.402 791.565 520.372 Q 789.135 518.832 788.055 518.612 Q 784.645 517.892 780.445 518.492 C 779.98 518.557 779.51 518.403 779.175 518.076 C 778.84 517.749 778.677 517.285 778.735 516.822 Q 778.985 514.682 781.395 515.002 Q 782.045 515.082 784.095 515.962 Q 786.335 516.922 788.805 517.062 C 788.936 517.064 789.062 517.014 789.152 516.922 C 789.242 516.83 789.287 516.706 789.275 516.582 Q 789.145 513.552 790.795 515.382 C 790.989 515.598 791.301 515.702 791.605 515.652 Z " fill="rgb(170,180,226)"/></g></svg>