<?xml version="1.0" encoding="UTF-8" standalone="no"?><!-- Generator: Gravit.io --><svg xmlns="http://www.w3.org/2000/svg" xmlns:xlink="http://www.w3.org/1999/xlink" style="isolation:isolate" viewBox="741.809 401.593 129.864 89.789" width="129.864pt" height="89.789pt"><defs><clipPath id="_clipPath_EJ6M8T5Vv94VvBgk9fRgFfWJ5CuHmKZM"><rect x="741.809" y="401.593" width="129.864" height="89.789"/></clipPath></defs><g clip-path="url(#_clipPath_EJ6M8T5Vv94VvBgk9fRgFfWJ5CuHmKZM)"><path d=" M 862.108 419.633 Q 860.628 422.523 858.328 424.803 Q 853.608 429.493 848.648 433.923 Q 846.408 434.063 846.648 432.173 Q 850.818 428.833 854.428 424.903 Q 857.358 421.703 859.208 416.193 Q 860.118 413.483 858.718 411.813 Q 858.118 411.083 857.218 411.123 Q 856.268 411.173 855.518 411.793 C 855.2 412.008 855.044 412.319 855.098 412.633 Q 854.768 415.123 853.538 417.293 Q 847.728 427.503 838.338 434.573 Q 834.758 437.263 833.358 439.633 L 826.768 446.793 C 826.526 446.982 826.513 447.289 826.738 447.493 L 827.648 449.093 L 824.148 451.423 Q 817.978 455.473 811.858 459.603 Q 807.888 462.293 804.648 465.843 Q 803.538 466.743 802.438 467.673 Q 799.238 470.383 802.858 472.503 Q 803.708 472.993 804.498 473.573 Q 805.018 473.963 805.388 473.923 Q 805.988 473.853 806.188 473.133 Q 806.998 470.843 809.358 470.633 Q 811.278 473.263 814.958 472.443 Q 819.088 471.533 821.258 470.543 Q 830.858 466.183 840.088 461.073 Q 841.128 460.493 845.938 456.633 Q 847.808 456.693 847.858 454.883 Q 850.798 452.543 850.258 448.953 Q 850.228 448.783 850.178 447.803 Q 850.108 446.413 848.398 446.923 Q 845.448 445.493 848.648 443.673 Q 854.338 440.973 860.568 441.033 Q 863.918 441.073 864.718 441.313 Q 866.918 441.973 867.708 444.823 Q 868.798 448.713 867.378 451.623 Q 865.818 454.803 863.298 457.233 Q 862.738 457.783 860.638 459.063 Q 859.358 459.843 858.088 461.073 Q 854.818 464.233 850.388 466.183 Q 846.658 467.813 846.598 467.843 Q 843.018 469.553 839.398 471.173 Q 836.538 470.793 837.648 467.923 Q 841.888 466.363 845.698 463.923 Q 847.048 463.053 846.048 462.183 C 845.807 462.02 845.48 461.993 845.208 462.113 Q 841.058 464.263 836.998 466.563 Q 834.908 467.763 837.148 467.923 Q 834.188 469.333 830.918 469.793 Q 828.158 470.173 825.388 470.573 Q 822.338 471.013 821.108 473.883 Q 818.048 473.343 818.528 475.903 C 818.554 476.031 818.529 476.163 818.458 476.272 C 818.387 476.381 818.275 476.457 818.148 476.483 Q 798.718 480.333 782.898 482.133 Q 775.608 482.963 767.558 481.273 Q 766.748 481.103 766.258 481.283 Q 765.278 481.643 765.538 482.613 C 765.601 482.897 765.841 483.137 766.178 483.253 Q 773.618 486.063 781.648 485.093 Q 783.908 484.493 783.648 486.093 Q 771.738 487.663 759.738 487.223 Q 759.588 487.223 755.568 487.223 Q 751.918 487.223 748.438 486.143 Q 746.018 485.393 745.648 482.893 Q 744.848 477.443 748.838 473.823 Q 759.958 463.733 774.398 459.633 Q 780.348 457.943 782.938 456.633 Q 788.368 454.773 793.748 452.793 Q 793.838 452.763 799.708 450.723 Q 808.658 447.603 816.648 442.423 Q 829.488 436.283 840.398 427.173 Q 843.948 424.233 846.438 420.383 Q 850.228 416.423 849.148 411.093 Q 846.388 409.703 841.088 409.823 Q 828.678 410.083 820.148 416.423 Q 819.078 416.213 819.348 415.333 Q 819.488 414.883 820.078 414.533 Q 822.078 413.353 823.898 411.923 Q 831.658 407.643 836.708 406.193 Q 844.518 403.963 853.158 405.613 Q 858.818 406.693 861.158 409.483 Q 864.448 413.403 862.108 419.633 Z " fill="rgb(216,243,214)"/><path d=" M 849.148 411.093 Q 850.228 416.423 846.438 420.383 Q 846.028 419.213 845.148 419.823 Q 844.788 420.063 844.438 420.703 Q 842.698 423.893 840.028 426.393 Q 839.808 426.603 839.708 426.813 Q 839.378 427.573 840.398 427.173 Q 829.488 436.283 816.648 442.423 Q 812.358 442.153 809.648 443.133 Q 805.768 444.543 804.078 444.963 C 803.759 445.049 803.472 445.212 803.248 445.433 Q 801.258 447.403 798.668 446.503 Q 798.218 446.343 797.708 446.413 L 794.438 446.883 Q 794.518 445.203 792.858 446.053 Q 788.088 448.473 782.898 449.843 Q 785.458 448.033 785.398 444.923 Q 785.908 444.503 786.148 443.843 Q 789.658 444.513 792.898 443.173 Q 795.538 442.253 798.238 441.573 Q 801.288 440.803 803.488 439.793 Q 811.478 436.143 819.398 432.343 Q 821.328 435.393 822.898 435.633 Q 826.478 436.183 827.438 432.633 Q 828.578 433.003 829.308 432.253 Q 830.198 431.333 830.278 431.283 Q 833.958 428.553 837.428 425.563 Q 837.488 425.513 840.128 423.523 Q 843.078 421.293 844.108 417.633 L 840.648 416.843 Q 842.188 416.083 843.898 416.093 L 844.448 416.513 C 844.677 416.66 845.002 416.652 845.218 416.493 L 847.678 413.323 C 848.822 413.365 849.792 413.188 849.844 412.928 C 849.896 412.669 849.012 412.425 847.868 412.383 Q 847.918 411.223 849.148 411.093 Z " fill="rgb(108,147,189)"/><path d=" M 819.398 432.343 Q 811.478 436.143 803.488 439.793 Q 801.288 440.803 798.238 441.573 Q 795.538 442.253 792.898 443.173 Q 790.128 443.583 789.498 440.533 Q 789.208 439.093 788.148 440.123 Q 786.818 441.423 786.148 443.843 Q 785.908 444.503 785.398 444.923 Q 783.178 445.133 781.108 444.333 C 780.813 444.21 780.662 443.915 780.748 443.633 Q 780.938 442.153 780.028 441.213 C 779.728 441.003 779.602 440.69 779.698 440.393 Q 779.928 438.393 780.938 436.633 Q 788.708 427.643 800.108 425.813 Q 804.598 425.093 808.638 426.163 Q 812.808 427.273 816.628 429.673 Q 817.808 430.423 819.188 430.603 Q 821.368 430.883 819.398 432.343 Z " fill="rgb(212,242,208)"/><path d=" M 819.648 411.593 Q 821.628 412.503 823.898 411.923 Q 822.078 413.353 820.078 414.533 Q 819.488 414.883 819.348 415.333 Q 819.078 416.213 820.148 416.423 L 814.078 421.843 C 813.775 422.05 813.662 422.396 813.798 422.703 Q 814.108 423.693 815.408 422.633 Q 819.408 419.343 824.188 417.323 C 824.486 417.292 824.799 417.309 825.078 417.373 L 825.858 417.633 L 820.528 423.573 Q 819.798 424.393 819.558 425.143 Q 819.058 426.783 820.898 426.673 Q 820.828 427.433 821.448 427.833 Q 824.668 429.963 827.438 432.633 Q 826.478 436.183 822.898 435.633 Q 821.328 435.393 819.398 432.343 Q 821.368 430.883 819.188 430.603 Q 817.808 430.423 816.628 429.673 Q 812.808 427.273 808.638 426.163 Q 804.598 425.093 800.108 425.813 Q 788.708 427.643 780.938 436.633 Q 780.938 435.433 781.428 434.333 C 781.607 434.071 781.548 433.736 781.288 433.533 Q 779.968 432.363 778.148 432.593 Q 789.738 421.643 805.898 422.833 Q 807.718 422.973 809.398 423.673 Q 811.228 424.593 813.168 425.293 Q 813.438 425.393 813.948 425.713 Q 814.618 426.133 814.918 425.663 C 815.009 425.54 815.03 425.385 814.975 425.245 C 814.919 425.105 814.795 424.997 814.638 424.953 L 809.898 423.093 Q 809.588 421.303 810.458 420.193 Q 813.928 415.793 819.648 411.593 Z " fill="rgb(130,202,190)"/><path d=" M 780.938 436.633 Q 779.928 438.393 779.698 440.393 C 779.602 440.69 779.728 441.003 780.028 441.213 Q 780.938 442.153 780.748 443.633 C 780.662 443.915 780.813 444.21 781.108 444.333 Q 783.178 445.133 785.398 444.923 Q 785.458 448.033 782.898 449.843 L 780.398 450.923 Q 779.638 450.853 780.648 448.793 C 780.869 448.34 780.692 447.792 780.248 447.553 Q 778.028 446.353 777.398 447.843 Q 776.768 448.673 776.538 449.663 Q 776.178 451.163 775.948 451.513 Q 774.658 453.463 771.568 453.673 C 771.219 453.698 770.876 453.578 770.618 453.342 C 770.361 453.105 770.212 452.773 770.208 452.423 Q 770.088 440.723 778.148 432.593 Q 779.968 432.363 781.288 433.533 C 781.548 433.736 781.607 434.071 781.428 434.333 Q 780.938 435.433 780.938 436.633 Z " fill="rgb(130,202,190)"/><path d=" M 843.898 416.093 Q 842.188 416.083 840.648 416.843 Q 838.698 417.003 837.398 418.343 Q 828.488 421.213 820.898 426.673 Q 819.058 426.783 819.558 425.143 Q 819.798 424.393 820.528 423.573 L 825.858 417.633 Q 832.878 413.283 841.008 412.063 Q 842.818 411.793 843.728 412.223 Q 845.298 412.943 845.088 415.073 Q 845.018 415.803 843.898 416.093 Z " fill="rgb(152,210,200)"/><path d=" M 792.898 443.173 Q 789.658 444.513 786.148 443.843 Q 786.818 441.423 788.148 440.123 Q 789.208 439.093 789.498 440.533 Q 790.128 443.583 792.898 443.173 Z " fill="rgb(152,210,200)"/><path d=" M 837.398 447.343 Q 838.198 447.483 837.718 447.903 C 837.444 448.049 837.331 448.298 837.438 448.523 Q 837.668 449.993 839.028 449.623 Q 839.928 449.373 840.308 449.373 Q 840.978 449.373 841.648 449.423 Q 830.718 454.493 824.148 456.633 Q 816.548 459.103 811.718 465.453 Q 809.958 467.783 809.358 470.633 Q 806.998 470.843 806.188 473.133 Q 806.058 472.363 805.398 472.323 C 805.019 472.29 804.695 472.203 804.498 472.083 Q 803.598 471.353 803.168 470.393 C 802.898 469.779 803.152 469.061 803.748 468.753 Q 806.048 467.543 804.648 465.843 Q 807.888 462.293 811.858 459.603 Q 817.978 455.473 824.148 451.423 Q 824.318 452.883 825.958 451.943 Q 828.468 450.523 837.398 447.343 Z " fill="rgb(152,210,200)"/><path d=" M 847.858 454.883 Q 847.808 456.693 845.938 456.633 Q 846.628 455.463 847.858 454.883 Z " fill="rgb(152,210,200)"/><path d=" M 816.648 442.423 Q 808.658 447.603 799.708 450.723 Q 793.838 452.763 793.748 452.793 Q 788.368 454.773 782.938 456.633 Q 782.908 455.993 783.148 455.383 C 787.298 455.458 790.592 454.916 790.507 454.173 C 790.421 453.431 786.988 452.768 782.838 452.693 Q 782.728 452.263 783.108 451.883 L 794.438 446.883 L 797.708 446.413 Q 798.218 446.343 798.668 446.503 Q 801.258 447.403 803.248 445.433 C 803.472 445.212 803.759 445.049 804.078 444.963 Q 805.768 444.543 809.648 443.133 Q 812.358 442.153 816.648 442.423 Z " fill="rgb(106,159,194)"/><path d=" M 846.648 432.173 Q 846.408 434.063 848.648 433.923 Q 846.368 438.193 840.708 441.693 Q 834.318 445.643 827.648 449.093 L 826.738 447.493 C 826.513 447.289 826.526 446.982 826.768 446.793 L 833.358 439.633 Q 833.778 440.533 834.818 440.033 Q 841.268 436.913 846.648 432.173 Z " fill="rgb(189,235,212)"/><path d=" M 848.648 443.673 Q 845.448 445.493 848.398 446.923 L 841.648 449.423 Q 840.978 449.373 840.308 449.373 Q 839.928 449.373 839.028 449.623 Q 837.668 449.993 837.438 448.523 C 837.331 448.298 837.444 448.049 837.718 447.903 Q 838.198 447.483 837.398 447.343 Q 839.268 446.913 841.958 445.193 Q 844.538 443.553 848.648 443.673 Z " fill="rgb(189,235,212)"/><path d=" M 837.148 467.923 Q 837.398 467.843 837.648 467.923 Q 836.538 470.793 839.398 471.173 Q 829.738 476.113 819.188 478.633 L 819.108 477.633 Q 821.138 476.373 821.108 473.883 Q 822.338 471.013 825.388 470.573 Q 828.158 470.173 830.918 469.793 Q 834.188 469.333 837.148 467.923 Z " fill="rgb(189,235,212)"/><path d=" M 841.938 401.633 Q 843.958 401.543 845.968 401.653 Q 847.438 401.743 849.968 401.713 Q 852.898 401.693 855.728 402.423 Q 859.428 403.383 861.158 404.343 Q 865.458 406.723 865.188 412.893 Q 865.138 414.073 865.658 415.133 Q 867.088 418.083 866.588 420.823 Q 866.098 423.543 863.448 423.373 Q 863.398 423.373 862.568 423.013 Q 862.018 422.773 861.688 423.883 L 862.108 419.633 Q 864.448 413.403 861.158 409.483 Q 858.818 406.693 853.158 405.613 Q 844.518 403.963 836.708 406.193 Q 831.658 407.643 823.898 411.923 Q 821.628 412.503 819.648 411.593 Q 829.428 403.683 841.938 401.633 Z " fill="rgb(105,177,180)"/><path d=" M 849.148 411.093 Q 847.918 411.223 847.868 412.383 C 849.012 412.425 849.896 412.669 849.844 412.928 C 849.792 413.188 848.822 413.365 847.678 413.323 L 845.218 416.493 C 845.002 416.652 844.677 416.66 844.448 416.513 L 843.898 416.093 Q 845.018 415.803 845.088 415.073 Q 845.298 412.943 843.728 412.223 Q 842.818 411.793 841.008 412.063 Q 832.878 413.283 825.858 417.633 L 825.078 417.373 C 824.799 417.309 824.486 417.292 824.188 417.323 Q 819.408 419.343 815.408 422.633 Q 814.108 423.693 813.798 422.703 C 813.662 422.396 813.775 422.05 814.078 421.843 L 820.148 416.423 Q 828.678 410.083 841.088 409.823 Q 846.388 409.703 849.148 411.093 Z " fill="rgb(105,177,180)"/><path d=" M 804.648 465.843 Q 806.048 467.543 803.748 468.753 C 803.152 469.061 802.898 469.779 803.168 470.393 Q 803.598 471.353 804.498 472.083 C 804.695 472.203 805.019 472.29 805.398 472.323 Q 806.058 472.363 806.188 473.133 Q 805.988 473.853 805.388 473.923 Q 805.018 473.963 804.498 473.573 Q 803.708 472.993 802.858 472.503 Q 799.238 470.383 802.438 467.673 Q 803.538 466.743 804.648 465.843 Z " fill="rgb(105,177,180)"/><path d=" M 821.108 473.883 Q 821.138 476.373 819.108 477.633 Q 815.208 478.343 811.388 479.333 Q 804.578 481.083 797.628 482.063 Q 793.878 482.593 789.648 483.583 Q 785.688 484.513 781.648 485.093 Q 773.618 486.063 766.178 483.253 C 765.841 483.137 765.601 482.897 765.538 482.613 Q 765.278 481.643 766.258 481.283 Q 766.748 481.103 767.558 481.273 Q 775.608 482.963 782.898 482.133 Q 798.718 480.333 818.148 476.483 C 818.275 476.457 818.387 476.381 818.458 476.272 C 818.529 476.163 818.554 476.031 818.528 475.903 Q 818.048 473.343 821.108 473.883 Z " fill="rgb(105,177,180)"/><path d=" M 819.108 477.633 L 819.188 478.633 Q 815.188 480.313 808.398 481.633 Q 790.588 485.083 783.648 486.093 Q 783.908 484.493 781.648 485.093 Q 785.688 484.513 789.648 483.583 Q 793.878 482.593 797.628 482.063 Q 804.578 481.083 811.388 479.333 Q 815.208 478.343 819.108 477.633 Z " fill="rgb(139,230,226)"/><path d=" M 846.648 432.173 Q 841.268 436.913 834.818 440.033 Q 833.778 440.533 833.358 439.633 Q 834.758 437.263 838.338 434.573 Q 847.728 427.503 853.538 417.293 Q 854.768 415.123 855.098 412.633 C 855.044 412.319 855.2 412.008 855.518 411.793 Q 856.268 411.173 857.218 411.123 Q 858.118 411.083 858.718 411.813 Q 860.118 413.483 859.208 416.193 Q 857.358 421.703 854.428 424.903 Q 850.818 428.833 846.648 432.173 Z " fill="rgb(112,161,179)"/><path d=" M 870.938 442.883 Q 872.408 446.673 870.938 450.383 L 870.938 442.883 Z " fill="rgb(112,161,179)"/><path d=" M 837.648 467.923 Q 837.398 467.843 837.148 467.923 Q 834.908 467.763 836.998 466.563 Q 841.058 464.263 845.208 462.113 C 845.48 461.993 845.807 462.02 846.048 462.183 Q 847.048 463.053 845.698 463.923 Q 841.888 466.363 837.648 467.923 Z " fill="rgb(112,161,179)"/><path d=" M 862.108 419.633 L 861.688 423.883 Q 860.348 425.563 858.998 427.233 Q 857.738 428.773 855.998 430.243 Q 850.858 434.543 846.298 439.453 C 846.076 439.505 845.923 439.653 845.919 439.821 C 845.914 439.989 846.059 440.139 846.278 440.193 Q 846.898 440.503 848.458 439.353 C 849.094 438.887 849.881 438.669 850.668 438.743 Q 855.308 439.183 860.398 438.593 L 867.148 438.343 Q 870.618 439.333 870.938 442.883 L 870.938 450.383 Q 868.048 458.053 861.638 462.613 Q 859.568 464.083 854.748 466.723 Q 851.248 468.643 847.488 470.203 C 846.914 470.435 846.445 470.865 846.168 471.413 Q 844.238 475.223 841.398 476.253 Q 822.088 483.233 797.398 487.883 Q 773.898 492.313 753.188 491.133 Q 748.978 490.643 745.548 488.243 Q 740.588 484.773 742.208 478.693 Q 743.888 472.433 750.378 467.103 Q 756.188 462.333 763.068 459.273 Q 772.838 454.913 783.108 451.883 Q 782.728 452.263 782.838 452.693 C 786.988 452.768 790.421 453.431 790.507 454.173 C 790.592 454.916 787.298 455.458 783.148 455.383 Q 782.908 455.993 782.938 456.633 Q 780.348 457.943 774.398 459.633 Q 759.958 463.733 748.838 473.823 Q 744.848 477.443 745.648 482.893 Q 746.018 485.393 748.438 486.143 Q 751.918 487.223 755.568 487.223 Q 759.588 487.223 759.738 487.223 Q 771.738 487.663 783.648 486.093 Q 790.588 485.083 808.398 481.633 Q 815.188 480.313 819.188 478.633 Q 829.738 476.113 839.398 471.173 Q 843.018 469.553 846.598 467.843 Q 846.658 467.813 850.388 466.183 Q 854.818 464.233 858.088 461.073 Q 859.358 459.843 860.638 459.063 Q 862.738 457.783 863.298 457.233 Q 865.818 454.803 867.378 451.623 Q 868.798 448.713 867.708 444.823 Q 866.918 441.973 864.718 441.313 Q 863.918 441.073 860.568 441.033 Q 854.338 440.973 848.648 443.673 Q 844.538 443.553 841.958 445.193 Q 839.268 446.913 837.398 447.343 Q 828.468 450.523 825.958 451.943 Q 824.318 452.883 824.148 451.423 L 827.648 449.093 Q 834.318 445.643 840.708 441.693 Q 846.368 438.193 848.648 433.923 Q 853.608 429.493 858.328 424.803 Q 860.628 422.523 862.108 419.633 Z " fill="rgb(114,187,191)"/><path d=" M 840.648 416.843 L 844.108 417.633 L 837.398 418.343 Q 838.698 417.003 840.648 416.843 Z " fill="rgb(81,115,152)"/><path d=" M 846.438 420.383 Q 843.948 424.233 840.398 427.173 Q 839.378 427.573 839.708 426.813 Q 839.808 426.603 840.028 426.393 Q 842.698 423.893 844.438 420.703 Q 844.788 420.063 845.148 419.823 Q 846.028 419.213 846.438 420.383 Z " fill="rgb(81,115,152)"/><path d=" M 809.898 423.093 L 814.638 424.953 C 814.795 424.997 814.919 425.105 814.975 425.245 C 815.03 425.385 815.009 425.54 814.918 425.663 Q 814.618 426.133 813.948 425.713 Q 813.438 425.393 813.168 425.293 Q 811.228 424.593 809.398 423.673 L 809.898 423.093 Z " fill="rgb(81,115,152)"/><line x1="867.148" y1="438.343" x2="860.398" y2="438.593"/><path d=" M 780.398 450.923 Q 777.818 450.623 777.398 447.843 Q 778.028 446.353 780.248 447.553 C 780.692 447.792 780.869 448.34 780.648 448.793 Q 779.638 450.853 780.398 450.923 Z " fill="rgb(81,115,152)"/><path d=" M 855.148 446.423 Q 855.458 446.833 855.438 447.383 Q 855.268 448.883 854.708 450.283 Q 854.628 450.483 854.388 450.803 Q 853.888 451.453 854.898 451.423 Q 853.788 453.813 852.398 455.133 Q 852.038 455.473 851.458 455.423 C 851.32 455.408 851.203 455.33 851.15 455.219 C 851.096 455.108 851.115 454.98 851.198 454.883 L 855.148 446.423 Z " fill="rgb(130,202,190)"/><path d=" M 860.668 451.413 Q 861.838 450.093 862.888 449.123 Q 864.018 448.083 864.148 449.613 Q 864.368 452.123 862.718 453.963 Q 858.618 458.513 853.158 460.863 Q 851.388 461.623 852.698 460.203 Q 856.738 455.853 860.668 451.413 Z " fill="rgb(42,86,109)"/><path d=" M 808.108 450.883 Q 808.148 451.283 808.398 451.593 Q 800.408 455.493 792.898 457.633 Q 790.378 458.353 787.398 457.843 Q 787.658 457.553 787.648 457.173 Q 792.198 457.033 793.338 456.573 Q 800.658 453.563 808.108 450.883 Z " fill="rgb(152,210,200)"/><line x1="794.108" y1="473.133" x2="783.898" y2="474.593"/><path d=" M 787.648 457.173 Q 787.658 457.553 787.398 457.843 Q 785.208 459.873 783.058 458.433 C 782.952 458.368 782.887 458.255 782.883 458.133 C 782.879 458.011 782.937 457.895 783.038 457.823 Q 785.098 456.323 787.648 457.173 Z " fill="rgb(68,166,179)"/><path d=" M 796.868 437.373 Q 797.398 437.873 797.428 438.643 C 797.473 438.962 797.334 439.279 797.058 439.483 Q 796.468 439.923 796.128 439.013 Q 795.538 437.413 794.498 436.123 Q 793.108 434.403 795.198 434.453 L 799.408 434.543 C 799.76 434.611 800.061 434.772 800.248 434.993 Q 801.488 436.353 799.278 435.943 Q 798.858 435.863 798.188 435.563 Q 796.028 434.583 796.358 436.573 C 796.14 436.859 796.344 437.179 796.868 437.373 Z " fill="rgb(189,235,212)"/><path d=" M 859.398 447.173 Q 857.348 448.203 855.438 447.383 Q 855.458 446.833 855.148 446.423 Q 858.768 444.663 860.958 444.443 Q 863.788 444.163 861.678 445.653 Q 860.558 446.443 859.398 447.173 Z " fill="rgb(75,80,106)"/><path d=" M 794.108 473.133 Q 794.348 475.303 792.648 475.883 Q 787.548 477.613 780.468 477.573 C 780.14 477.565 779.856 477.379 779.768 477.113 Q 779.518 476.203 780.398 475.633 Q 781.518 474.903 783.898 474.593 L 794.108 473.133 Z " fill="rgb(75,80,106)"/><path d=" M 750.028 481.413 Q 747.818 480.303 749.368 478.373 Q 751.658 475.523 752.978 477.133 Q 753.728 478.043 753.878 479.793 Q 754.218 483.543 750.028 481.413 Z " fill="rgb(75,80,106)"/><path d=" M 808.398 451.593 Q 808.148 451.283 808.108 450.883 Q 812.528 449.383 816.558 447.023 Q 820.388 444.793 824.648 443.633 Q 826.728 443.063 825.338 444.573 Q 822.088 448.083 817.428 449.233 Q 812.898 450.353 808.398 451.593 Z " fill="rgb(112,161,179)"/><path d=" M 859.398 447.173 L 854.898 451.423 Q 853.888 451.453 854.388 450.803 Q 854.628 450.483 854.708 450.283 Q 855.268 448.883 855.438 447.383 Q 857.348 448.203 859.398 447.173 Z " fill="rgb(81,115,152)"/><path d=" M 795.188 463.653 C 795.079 463.631 794.988 463.557 794.948 463.456 C 794.908 463.355 794.923 463.241 794.988 463.153 Q 799.008 457.273 805.818 454.913 Q 810.628 453.243 815.668 452.383 Q 817.068 452.143 815.898 452.953 Q 807.868 458.523 799.038 463.223 Q 797.268 464.173 795.188 463.653 Z " fill="rgb(81,115,152)"/><path d=" M 772.898 466.223 Q 776.438 465.473 773.898 466.893 Q 773.578 467.073 773.338 467.343 Q 768.538 472.553 762.568 476.363 C 762.305 476.516 761.976 476.553 761.678 476.463 Q 760.178 475.823 759.938 474.133 C 759.875 473.822 759.991 473.502 760.248 473.283 Q 763.678 469.863 767.678 467.143 Q 769.678 465.783 772.018 466.223 Q 772.488 466.313 772.898 466.223 Z " fill="rgb(81,115,152)"/></g></svg>