<?xml version="1.0" encoding="UTF-8" standalone="no"?><!-- Generator: Gravit.io --><svg xmlns="http://www.w3.org/2000/svg" xmlns:xlink="http://www.w3.org/1999/xlink" style="isolation:isolate" viewBox="781.756 451.833 142.681 113.015" width="142.681pt" height="113.015pt"><defs><clipPath id="_clipPath_JYjHqA5jfypW2Bqg8nWCUqOVMZ5YjK0j"><rect x="781.756" y="451.833" width="142.681" height="113.015"/></clipPath></defs><g clip-path="url(#_clipPath_JYjHqA5jfypW2Bqg8nWCUqOVMZ5YjK0j)"><path d=" M 860.108 451.833 Q 877.318 453.593 888.518 466.623 Q 899.358 479.233 899.108 494.793 Q 898.908 507.263 890.938 517.743 C 890.517 518.291 890.323 518.978 890.398 519.663 Q 891.278 528.213 900.358 527.293 Q 901.318 527.193 905.368 527.433 Q 915.618 528.043 921.858 536.003 Q 927.328 545.423 921.198 554.413 Q 920.188 555.883 919.128 557.313 Q 917.838 559.033 916.618 559.783 Q 913.818 561.483 910.608 560.793 Q 906.608 559.933 899.958 557.053 Q 899.888 557.023 898.778 556.483 Q 896.148 555.193 895.338 557.383 Q 894.428 559.853 894.378 559.943 Q 893.398 561.623 892.198 563.143 Q 891.228 564.373 889.958 564.703 Q 887.248 565.423 887.828 562.573 Q 887.858 562.423 888.788 560.253 Q 889.868 557.703 888.108 554.793 Q 885.478 550.443 888.498 547.843 Q 890.058 546.513 893.088 546.473 Q 896.888 546.423 898.048 546.853 Q 903.298 548.803 908.608 550.583 Q 907.908 550.923 907.108 550.833 Q 905.168 550.453 903.228 550.483 Q 900.938 550.513 899.398 550.213 Q 895.668 549.503 894.608 549.793 Q 893.318 550.143 893.778 550.743 Q 893.988 551.003 894.538 551.143 Q 896.958 551.743 899.668 553.233 Q 903.718 555.443 908.598 556.993 Q 912.098 558.103 914.208 557.453 Q 917.238 556.513 918.608 553.083 Q 920.608 549.083 920.318 544.853 Q 920.028 540.623 917.248 537.483 Q 912.668 532.293 904.608 533.003 Q 894.368 533.013 887.568 526.033 Q 886.598 525.043 884.998 522.753 Q 883.798 521.023 882.488 519.373 C 882.295 519.131 882.013 518.954 881.688 518.873 Q 880.388 518.623 879.118 518.913 Q 878.238 519.103 877.968 519.673 Q 877.648 520.353 878.108 521.253 Q 876.678 520.633 876.858 519.543 Q 877.268 517.013 873.608 517.443 C 873.371 517.462 873.159 517.587 873.036 517.779 C 872.914 517.971 872.895 518.207 872.988 518.413 L 874.858 522.953 Q 861.918 530.383 846.638 523.743 Q 844.888 522.983 843.398 524.173 Q 842.328 525.033 841.198 527.433 Q 840.448 529.053 841.678 530.293 Q 839.828 529.673 838.418 531.353 Q 834.828 535.653 829.508 539.743 Q 826.578 541.983 823.538 542.523 Q 819.898 543.153 816.118 542.733 Q 812.198 542.293 809.698 544.543 Q 808.478 545.633 807.618 548.663 Q 806.008 554.313 802.178 558.573 Q 798.708 562.433 794.398 563.173 Q 789.228 564.063 784.918 560.733 Q 781.088 557.763 781.898 552.723 Q 782.208 550.813 783.978 549.083 Q 789.098 544.093 794.688 538.593 C 795.083 538.213 795.118 537.595 794.768 537.173 Q 792.798 534.793 792.268 532.233 Q 791.818 530.043 792.718 526.933 Q 795.548 517.163 805.408 513.073 Q 810.628 510.913 815.308 507.593 Q 812.738 511.983 808.488 514.283 Q 805.768 515.753 805.678 515.803 Q 802.228 517.923 800.918 519.103 Q 796.048 523.513 795.208 530.053 Q 794.648 534.453 797.238 535.913 Q 799.278 537.063 799.328 534.713 Q 799.478 527.713 802.498 522.823 Q 803.538 521.143 805.828 520.003 Q 809.348 518.263 813.918 515.603 Q 819.398 512.423 821.538 506.803 Q 823.868 500.663 818.318 502.853 C 817.99 502.998 817.766 503.244 817.708 503.523 L 817.048 505.283 Q 814.978 491.893 819.148 479.043 Q 830.778 452.723 860.108 451.833 Z  M 826.648 520.793 L 826.898 523.043 Q 824.458 528.413 821.048 530.233 Q 814.788 533.553 804.658 534.443 C 804.527 534.451 804.399 534.407 804.303 534.32 C 804.206 534.233 804.15 534.111 804.148 533.983 Q 803.808 525.173 810.418 521.103 Q 815.328 518.093 821.328 515.483 C 822.129 515.13 823.067 515.327 823.658 515.973 Q 825.548 518.043 826.648 520.793 Z " fill-rule="evenodd" fill="rgb(43,127,147)"/><path d=" M 874.858 522.953 L 878.438 527.833 Q 873.088 531.383 867.608 532.503 Q 854.178 535.473 841.678 530.293 Q 840.448 529.053 841.198 527.433 Q 842.328 525.033 843.398 524.173 Q 844.888 522.983 846.638 523.743 Q 861.918 530.383 874.858 522.953 Z " fill="rgb(49,143,171)"/><path d=" M 904.608 533.003 Q 900.358 532.233 901.438 535.583 C 901.526 535.854 901.783 536.062 902.108 536.123 L 905.108 536.753 L 900.358 537.253 Q 897.588 537.323 894.848 537.733 Q 891.838 538.183 889.368 536.983 Q 887.568 536.103 885.728 533.243 Q 881.888 527.263 878.108 521.253 Q 877.648 520.353 877.968 519.673 Q 878.238 519.103 879.118 518.913 Q 880.388 518.623 881.688 518.873 C 882.013 518.954 882.295 519.131 882.488 519.373 Q 883.798 521.023 884.998 522.753 Q 886.598 525.043 887.568 526.033 Q 894.368 533.013 904.608 533.003 Z " fill="rgb(79,197,192)"/><path d=" M 815.308 507.593 L 817.048 505.283 L 817.708 503.523 C 817.766 503.244 817.99 502.998 818.318 502.853 Q 823.868 500.663 821.538 506.803 Q 819.398 512.423 813.918 515.603 Q 809.348 518.263 805.828 520.003 Q 803.538 521.143 802.498 522.823 Q 799.478 527.713 799.328 534.713 Q 799.278 537.063 797.238 535.913 Q 794.648 534.453 795.208 530.053 Q 796.048 523.513 800.918 519.103 Q 802.228 517.923 805.678 515.803 Q 805.768 515.753 808.488 514.283 Q 812.738 511.983 815.308 507.593 Z " fill="rgb(62,182,187)"/><path d=" M 905.108 536.753 Q 911.278 537.303 914.858 542.543 Q 917.688 546.693 916.978 551.373 Q 916.838 552.263 916.998 552.703 Q 917.388 553.773 918.608 553.083 Q 917.238 556.513 914.208 557.453 Q 912.098 558.103 908.598 556.993 Q 903.718 555.443 899.668 553.233 Q 896.958 551.743 894.538 551.143 Q 893.988 551.003 893.778 550.743 Q 893.318 550.143 894.608 549.793 Q 895.668 549.503 899.398 550.213 Q 900.938 550.513 903.228 550.483 Q 905.168 550.453 907.108 550.833 L 912.268 551.843 C 912.626 551.905 912.993 551.796 913.257 551.549 C 913.521 551.303 913.651 550.948 913.608 550.593 Q 912.818 542.823 907.048 538.603 Q 904.798 536.963 900.358 537.253 L 905.108 536.753 Z " fill="rgb(62,182,187)"/><path d=" M 904.608 533.003 Q 912.668 532.293 917.248 537.483 Q 920.028 540.623 920.318 544.853 Q 920.608 549.083 918.608 553.083 Q 917.388 553.773 916.998 552.703 Q 916.838 552.263 916.978 551.373 Q 917.688 546.693 914.858 542.543 Q 911.278 537.303 905.108 536.753 L 902.108 536.123 C 901.783 536.062 901.526 535.854 901.438 535.583 Q 900.358 532.233 904.608 533.003 Z " fill="rgb(84,222,222)"/><path d=" M 878.108 521.253 Q 881.888 527.263 885.728 533.243 Q 887.568 536.103 889.368 536.983 Q 891.838 538.183 894.848 537.733 Q 897.588 537.323 900.358 537.253 Q 904.798 536.963 907.048 538.603 Q 912.818 542.823 913.608 550.593 C 913.651 550.948 913.521 551.303 913.257 551.549 C 912.993 551.796 912.626 551.905 912.268 551.843 L 907.108 550.833 Q 907.908 550.923 908.608 550.583 Q 913.128 551.333 911.288 546.133 Q 910.538 544.033 908.748 542.703 Q 906.248 540.843 901.108 541.543 Q 897.568 542.033 892.968 541.783 Q 888.248 541.533 885.858 539.603 Q 882.788 537.113 881.608 532.543 Q 880.978 530.093 878.438 527.833 L 874.858 522.953 L 872.988 518.413 C 872.895 518.207 872.914 517.971 873.036 517.779 C 873.159 517.587 873.371 517.462 873.608 517.443 Q 877.268 517.013 876.858 519.543 Q 876.678 520.633 878.108 521.253 Z " fill="rgb(46,101,124)"/><path d=" M 874.648 460.293 Q 875.528 462.903 874.548 465.233 Q 872.778 469.423 872.618 473.543 C 872.595 473.855 872.743 474.155 873.008 474.333 Q 874.648 475.483 876.538 476.043 Q 878.988 476.773 880.718 475.753 Q 882.728 474.563 882.798 471.853 C 882.855 471.54 882.747 471.221 882.498 470.963 Q 880.628 468.373 881.608 465.253 Q 885.668 468.983 888.398 473.793 Q 886.408 475.353 885.668 477.103 Q 884.428 480.063 882.698 481.933 C 882.483 482.17 882.188 482.323 881.868 482.363 Q 876.228 483.033 874.168 478.233 Q 873.508 476.673 872.398 476.153 C 872.119 476.023 871.92 475.775 871.858 475.483 Q 871.768 475.003 871.508 474.613 Q 871.198 474.153 870.388 473.883 Q 862.718 471.333 854.668 470.413 C 854.331 470.437 854.013 470.521 853.758 470.653 Q 852.778 471.223 851.048 471.103 Q 847.548 470.863 844.108 470.253 Q 842.458 470.053 841.478 468.883 C 841.205 468.634 841.099 468.309 841.188 467.993 Q 841.238 463.473 836.828 462.573 Q 842.058 458.453 849.358 457.293 Q 862.798 455.153 874.648 460.293 Z " fill="rgb(157,228,151)"/><path d=" M 874.648 460.293 Q 878.768 461.883 881.608 465.253 Q 880.628 468.373 882.498 470.963 C 882.747 471.221 882.855 471.54 882.798 471.853 Q 882.728 474.563 880.718 475.753 Q 878.988 476.773 876.538 476.043 Q 874.648 475.483 873.008 474.333 C 872.743 474.155 872.595 473.855 872.618 473.543 Q 872.778 469.423 874.548 465.233 Q 875.528 462.903 874.648 460.293 Z " fill="rgb(184,232,142)"/><path d=" M 836.828 462.573 Q 841.238 463.473 841.188 467.993 C 841.099 468.309 841.205 468.634 841.478 468.883 Q 842.458 470.053 844.108 470.253 Q 836.778 471.963 829.818 469.293 Q 832.678 465.203 836.828 462.573 Z " fill="rgb(125,193,156)"/><path d=" M 829.818 469.293 Q 836.778 471.963 844.108 470.253 Q 847.548 470.863 851.048 471.103 Q 852.778 471.223 853.758 470.653 C 854.013 470.521 854.331 470.437 854.668 470.413 Q 862.718 471.333 870.388 473.883 Q 871.198 474.153 871.508 474.613 Q 871.768 475.003 871.858 475.483 C 871.92 475.775 872.119 476.023 872.398 476.153 Q 873.508 476.673 874.168 478.233 Q 876.228 483.033 881.868 482.363 C 882.188 482.323 882.483 482.17 882.698 481.933 Q 884.428 480.063 885.668 477.103 Q 886.408 475.353 888.398 473.793 Q 899.878 492.043 889.098 510.983 Q 888.378 512.243 888.088 510.823 Q 886.568 503.463 879.608 505.563 Q 876.068 506.633 875.918 506.673 Q 873.298 507.393 870.858 508.633 C 870.566 508.776 870.334 509.008 870.198 509.293 Q 869.038 511.583 868.608 514.093 Q 868.068 517.133 867.158 518.143 Q 865.158 520.353 861.358 520.543 Q 856.848 520.773 854.068 519.293 Q 854.828 516.743 855.188 514.103 Q 855.238 513.743 855.868 511.063 Q 856.248 509.473 855.908 507.843 C 855.843 507.52 855.671 507.227 855.418 507.013 Q 853.408 505.373 851.678 506.883 Q 851.208 507.293 850.438 508.943 Q 849.908 510.103 848.988 510.963 C 848.892 511.054 848.763 511.099 848.632 511.09 C 848.501 511.08 848.379 511.016 848.298 510.913 Q 846.658 508.853 845.238 506.643 Q 843.678 504.213 840.998 503.313 Q 840.888 503.273 839.578 503.063 Q 838.118 502.833 839.108 501.283 C 839.577 500.561 839.701 499.667 839.448 498.843 Q 837.498 492.433 831.308 487.043 C 831.009 486.787 830.923 486.364 831.098 486.013 Q 832.908 482.233 835.298 478.983 Q 835.858 478.213 835.248 477.603 C 835.014 477.429 834.685 477.383 834.398 477.483 Q 828.768 479.923 826.798 486.233 Q 825.478 490.453 821.478 493.483 Q 821.958 479.853 829.818 469.293 Z " fill="rgb(86,195,175)"/><path d=" M 875.158 515.533 Q 874.868 515.613 874.588 515.513 C 874.216 515.365 874.019 515.055 874.098 514.743 Q 873.858 512.433 876.048 510.983 Q 879.348 508.793 882.798 509.273 C 883.116 509.319 883.4 509.497 883.578 509.763 Q 885.818 513.273 882.108 515.043 Q 880.098 516.003 876.098 515.373 Q 875.828 515.333 875.158 515.533 Z " fill="rgb(79,197,192)"/><path d=" M 845.418 517.213 Q 839.648 520.763 836.328 525.773 Q 832.678 531.273 828.068 536.003 Q 824.768 539.383 820.048 539.103 Q 813.858 538.743 806.618 541.903 Q 806.248 542.063 805.898 542.513 Q 805.278 543.303 804.668 542.693 C 804.405 542.458 804.323 542.111 804.458 541.803 Q 805.028 539.533 807.548 539.233 Q 808.658 539.093 811.838 537.923 Q 811.928 537.893 813.798 537.013 Q 815.638 536.143 818.668 535.853 Q 822.848 535.463 825.508 530.903 Q 829.118 524.723 832.358 518.333 L 834.678 514.113 Q 835.508 512.593 837.058 512.373 Q 844.398 511.323 845.418 517.213 Z " fill="rgb(79,197,192)"/><path d=" M 792.918 544.353 Q 796.888 540.243 800.128 539.593 Q 804.748 538.663 803.728 543.253 Q 802.038 550.893 798.028 556.973 Q 793.998 563.103 788.108 558.793 Q 784.968 556.493 786.548 552.233 Q 787.318 550.143 792.918 544.353 Z " fill="rgb(79,197,192)"/><path d=" M 829.358 508.333 Q 828.928 508.293 828.608 508.003 Q 825.498 505.313 825.568 501.043 Q 825.658 498.103 828.378 497.183 C 828.673 497.095 828.995 497.185 829.198 497.413 Q 832.718 501.353 831.798 507.103 Q 831.508 508.903 829.358 508.333 Z " fill="rgb(73,190,189)"/><path d=" M 854.068 519.293 Q 851.398 514.953 847.578 511.843 Q 842.108 508.133 836.608 509.293 Q 835.118 509.613 834.518 508.793 C 834.379 508.591 834.11 508.464 833.818 508.463 Q 831.588 508.923 829.358 508.333 Q 831.508 508.903 831.798 507.103 Q 832.718 501.353 829.198 497.413 C 828.995 497.185 828.673 497.095 828.378 497.183 Q 825.658 498.103 825.568 501.043 L 824.718 495.503 C 824.673 495.173 824.484 494.876 824.198 494.687 C 823.912 494.498 823.555 494.435 823.218 494.513 Q 820.338 495.383 821.478 493.483 Q 825.478 490.453 826.798 486.233 Q 828.768 479.923 834.398 477.483 C 834.685 477.383 835.014 477.429 835.248 477.603 Q 835.858 478.213 835.298 478.983 Q 832.908 482.233 831.098 486.013 C 830.923 486.364 831.009 486.787 831.308 487.043 Q 837.498 492.433 839.448 498.843 C 839.701 499.667 839.577 500.561 839.108 501.283 Q 838.118 502.833 839.578 503.063 Q 840.888 503.273 840.998 503.313 Q 843.678 504.213 845.238 506.643 Q 846.658 508.853 848.298 510.913 C 848.379 511.016 848.501 511.08 848.632 511.09 C 848.763 511.099 848.892 511.054 848.988 510.963 Q 849.908 510.103 850.438 508.943 Q 851.208 507.293 851.678 506.883 Q 853.408 505.373 855.418 507.013 C 855.671 507.227 855.843 507.52 855.908 507.843 Q 856.248 509.473 855.868 511.063 Q 855.238 513.743 855.188 514.103 Q 854.828 516.743 854.068 519.293 Z " fill="rgb(52,162,168)"/><path d=" M 828.608 508.003 Q 828.928 508.293 829.358 508.333 Q 831.588 508.923 833.818 508.463 C 834.11 508.464 834.379 508.591 834.518 508.793 Q 835.118 509.613 836.608 509.293 Q 842.108 508.133 847.578 511.843 Q 848.378 512.783 848.208 514.063 C 848.132 514.365 848.213 514.68 848.428 514.923 Q 850.968 518.143 847.308 519.843 C 847.022 519.969 846.692 519.98 846.398 519.873 Q 844.738 519.113 845.418 517.213 Q 844.398 511.323 837.058 512.373 Q 835.508 512.593 834.678 514.113 L 832.358 518.333 L 830.548 519.303 C 830.255 519.47 830.022 519.706 829.878 519.983 Q 828.798 521.893 826.898 523.043 L 826.648 520.793 Q 830.508 517.633 830.968 513.303 C 831.069 512.367 830.632 511.454 829.838 510.943 Q 826.648 508.883 828.608 508.003 Z " fill="rgb(46,101,124)"/><path d=" M 842.898 497.793 Q 837.898 494.123 840.528 490.223 Q 841.668 488.523 843.418 488.533 Q 845.598 488.533 846.568 491.063 Q 847.918 494.553 846.658 496.933 Q 845.278 499.543 842.898 497.793 Z " fill="rgb(86,195,175)"/><path d=" M 885.828 489.913 Q 886.308 488.753 886.978 489.813 Q 892.558 498.673 883.608 503.543 Q 881.458 504.713 882.358 502.543 Q 882.938 501.153 883.408 499.723 Q 883.768 498.633 883.998 496.803 Q 884.438 493.263 885.828 489.913 Z " fill="rgb(52,162,168)"/><path d=" M 871.548 504.573 C 871.242 504.657 870.914 504.603 870.652 504.423 C 870.39 504.244 870.22 503.959 870.188 503.643 Q 869.738 499.173 872.408 498.213 Q 873.518 497.823 874.668 497.723 Q 875.898 497.613 876.998 498.323 C 877.248 498.483 877.335 498.803 877.198 499.063 Q 874.868 503.653 871.548 504.573 Z " fill="rgb(52,162,168)"/><path d=" M 862.104 507.645 C 863.821 507.777 865.077 509.667 864.908 511.863 C 864.739 514.058 863.208 515.734 861.492 515.602 C 859.775 515.47 858.518 513.58 858.687 511.384 C 858.856 509.188 860.387 507.513 862.104 507.645 Z " fill="rgb(52,162,168)"/></g></svg>