<?xml version="1.0" encoding="UTF-8" standalone="no"?><!-- Generator: Gravit.io --><svg xmlns="http://www.w3.org/2000/svg" xmlns:xlink="http://www.w3.org/1999/xlink" style="isolation:isolate" viewBox="717.124 392.37 51.753 48.261" width="51.753pt" height="48.261pt"><defs><clipPath id="_clipPath_rXYDwoL7FpGASbxCQbsqU4vrUz9TLRpZ"><rect x="717.124" y="392.37" width="51.753" height="48.261"/></clipPath></defs><g clip-path="url(#_clipPath_rXYDwoL7FpGASbxCQbsqU4vrUz9TLRpZ)"><path d=" M 733.934 409.284 Q 740.304 409.824 744.814 404.804 Q 749.834 399.214 753.954 392.924 Q 754.634 391.884 754.824 392.794 Q 754.884 393.064 754.764 393.394 Q 752.034 400.834 750.934 406.154 Q 749.214 414.534 755.034 419.304 Q 755.734 419.874 761.574 423.524 Q 764.874 425.594 768.314 427.424 Q 768.684 427.624 768.804 427.884 Q 769.044 428.374 768.484 428.494 Q 768.244 428.554 767.904 428.444 Q 762.804 426.854 757.614 425.584 Q 751.804 424.164 750.744 424.064 Q 746.834 423.694 743.644 425.614 Q 741.444 426.944 736.854 432.364 Q 733.754 436.034 731.054 440.044 Q 730.184 441.334 730.184 439.784 Q 730.184 438.774 730.884 437.134 Q 733.914 429.984 734.624 423.344 Q 734.914 420.644 733.314 417.904 Q 731.894 415.474 727.294 412.464 Q 722.484 409.304 717.604 406.244 Q 717.344 406.074 717.224 405.854 Q 716.824 405.114 718.014 405.544 Q 726.584 408.664 733.934 409.284 Z " fill="rgb(247,202,55)"/></g></svg>