<?xml version="1.0" encoding="UTF-8" standalone="no"?><!-- Generator: Gravit.io --><svg xmlns="http://www.w3.org/2000/svg" xmlns:xlink="http://www.w3.org/1999/xlink" style="isolation:isolate" viewBox="732.266 405.725 21.467 21.551" width="21.467pt" height="21.551pt"><defs><clipPath id="_clipPath_ucopV27EBsGSczL1vxJPTQb2MsIqMucI"><rect x="732.266" y="405.725" width="21.467" height="21.551"/></clipPath></defs><g clip-path="url(#_clipPath_ucopV27EBsGSczL1vxJPTQb2MsIqMucI)"><path d=" M 749.781 406.975 Q 751.831 404.415 750.821 407.095 Q 750.711 407.395 750.511 407.705 Q 749.221 409.755 748.121 411.905 Q 746.441 415.195 748.671 418.055 Q 750.521 420.425 753.071 421.995 Q 755.061 423.215 751.071 422.335 Q 750.071 422.115 749.181 421.615 Q 746.501 420.145 744.321 420.325 Q 742.691 420.465 740.231 422.535 Q 737.821 424.565 735.591 426.815 Q 734.661 427.755 735.171 426.775 Q 736.741 423.715 738.131 420.565 Q 739.721 416.965 736.741 414.485 Q 734.811 412.885 732.751 411.455 Q 731.781 410.785 732.751 410.725 Q 732.991 410.715 733.241 410.835 Q 743.111 415.325 749.781 406.975 Z " fill="rgb(247,202,55)"/></g></svg>