<?xml version="1.0" encoding="UTF-8" standalone="no"?><!-- Generator: Gravit.io --><svg xmlns="http://www.w3.org/2000/svg" xmlns:xlink="http://www.w3.org/1999/xlink" style="isolation:isolate" viewBox="735.657 409.27 14.685 14.461" width="14.685pt" height="14.461pt"><defs><clipPath id="_clipPath_LnDaDDQQTZTJjkxmsFUYzepBYkZWhAbA"><rect x="735.657" y="409.27" width="14.685" height="14.461"/></clipPath></defs><g clip-path="url(#_clipPath_LnDaDDQQTZTJjkxmsFUYzepBYkZWhAbA)"><path d=" M 739.046 415.128 Q 738.656 414.458 736.346 413.018 C 736.039 413.021 735.765 412.899 735.682 412.722 C 735.599 412.544 735.729 412.357 735.996 412.268 Q 736.196 412.028 736.856 412.318 Q 743.286 415.188 748.436 410.118 Q 748.696 409.858 748.956 409.688 Q 750.846 408.488 749.226 410.728 Q 747.456 413.168 746.716 416.088 C 746.486 416.385 746.555 416.751 746.886 416.988 L 750.096 420.238 C 750.215 420.275 750.3 420.337 750.33 420.41 C 750.361 420.482 750.334 420.558 750.256 420.618 L 750.176 420.848 C 749.921 420.999 749.499 421.051 749.126 420.978 Q 741.996 418.378 738.996 422.468 Q 737.036 425.148 738.306 422.138 Q 738.406 421.898 738.586 421.668 Q 741.006 418.518 739.046 415.128 Z " fill="rgb(251,204,40)"/></g></svg>