<?xml version="1.0" encoding="UTF-8" standalone="no"?><!-- Generator: Gravit.io --><svg xmlns="http://www.w3.org/2000/svg" xmlns:xlink="http://www.w3.org/1999/xlink" style="isolation:isolate" viewBox="906.166 452.876 148.974 155.13" width="148.974pt" height="155.13pt"><defs><clipPath id="_clipPath_cON9CIblTx8RB8eZoZQorzcXy2eBkkaZ"><rect x="906.166" y="452.876" width="148.974" height="155.13"/></clipPath></defs><g clip-path="url(#_clipPath_cON9CIblTx8RB8eZoZQorzcXy2eBkkaZ)"><path d=" M 975.857 454.82 Q 975.767 455.8 976.267 456.67 C 976.436 456.938 976.479 457.261 976.387 457.56 Q 975.877 459.41 977.557 459.97 C 977.869 460.072 978.119 460.282 978.247 460.55 Q 979.497 463.25 981.727 464.16 Q 984.437 474.88 995.857 472.55 Q 997.657 472.19 996.067 471.41 L 993.857 470.32 Q 996.067 468.39 995.607 465.32 Q 1001.287 465.62 1006.627 467.45 C 1007.565 467.772 1008.34 468.447 1008.787 469.33 Q 1010.767 473.2 1012.937 476.96 Q 1018.357 486.34 1022.917 498.97 Q 1024.607 503.64 1025.237 507.94 Q 1025.707 511.17 1025.867 517.13 Q 1026.087 525.36 1024.507 533.41 Q 1023.217 539.97 1021.477 545.09 Q 1019.377 551.26 1016.047 555.97 Q 1010.927 563.19 1005.667 568.59 Q 1000.387 574.02 993.017 577.4 Q 975.957 585.25 957.107 584.74 L 958.217 582.5 C 958.555 582.219 958.539 581.838 958.177 581.56 Q 954.177 571.64 944.217 568.83 Q 941.617 568.1 939.527 568.91 Q 937.277 569.78 935.397 571.61 C 935.127 571.866 935.069 572.271 935.257 572.59 Q 936.577 574.96 938.707 575.43 Q 939.187 575.54 941.907 574.98 Q 944.147 574.52 946.417 575.97 Q 952.337 579.74 955.857 584.74 Q 947.937 585.34 940.287 583.27 Q 934.237 581.63 930.407 576.7 Q 927.867 573.43 925.237 570.23 Q 924.957 569.89 925.427 569.9 Q 926.127 569.92 926.707 569.57 C 926.818 569.515 926.885 569.407 926.878 569.292 C 926.872 569.177 926.794 569.075 926.677 569.03 Q 925.487 568.31 924.427 567.41 Q 923.467 566.58 922.997 565.15 Q 921.287 559.83 920.107 557.53 Q 918.867 555.12 915.927 553.65 Q 912.127 551.75 909.667 548.76 Q 908.597 547.47 908.607 545.79 Q 908.617 544.11 907.317 543.53 L 909.397 536.28 Q 911.027 536.1 910.857 538.28 Q 910.457 543.52 915.857 545.28 Q 916.457 545.48 916.717 545 C 916.82 544.875 916.85 544.722 916.799 544.579 C 916.747 544.435 916.619 544.316 916.447 544.25 Q 908.687 538.74 913.897 530.51 C 914.065 530.24 914.327 530.034 914.637 529.93 Q 917.867 528.9 920.967 530.26 C 921.261 530.358 921.594 530.379 921.907 530.32 Q 923.117 529.79 922.357 528.32 L 926.767 524.4 C 927.049 524.19 927.22 523.905 927.247 523.6 Q 927.707 521.07 929.797 517.72 Q 934.417 510.27 936.767 507.23 Q 938.827 504.56 940.877 502.27 Q 943.287 505.3 946.877 504.42 C 947.005 504.385 947.111 504.299 947.168 504.182 C 947.226 504.065 947.229 503.929 947.177 503.81 Q 945.967 500.77 943.607 498.49 L 943.857 496.57 Q 952.617 489.6 961.877 483.28 Q 964.437 481.54 964.857 478.78 Q 965.617 473.78 960.607 474.28 Q 959.117 474.43 955.857 475.57 L 954.357 474.24 Q 957.157 471.84 957.467 467.75 Q 959.557 466.18 958.277 464.05 Q 958.057 463.68 958.107 463.47 Q 958.197 463.03 959.037 463.54 Q 967.697 459.83 975.857 454.82 Z " fill="rgb(255,191,146)"/><path d=" M 943.857 496.57 L 942.397 496.53 Q 943.107 490.14 947.167 483.59 Q 950.657 477.97 955.857 475.57 Q 959.117 474.43 960.607 474.28 Q 965.617 473.78 964.857 478.78 Q 964.437 481.54 961.877 483.28 Q 952.617 489.6 943.857 496.57 Z " fill="rgb(254,234,90)"/><path d=" M 987.147 453.78 Q 986.937 458.24 989.797 461.09 Q 991.887 463.19 995.607 465.32 Q 996.067 468.39 993.857 470.32 Q 986.917 470.48 983.797 464.84 Q 983.257 463.87 981.727 464.16 Q 979.497 463.25 978.247 460.55 C 978.119 460.282 977.869 460.072 977.557 459.97 Q 975.877 459.41 976.387 457.56 C 976.479 457.261 976.436 456.938 976.267 456.67 Q 975.767 455.8 975.857 454.82 Q 981.257 451.55 987.147 453.78 Z " fill="rgb(253,210,101)"/><path d=" M 942.397 496.53 L 943.857 496.57 L 943.607 498.49 Q 941.187 499.47 940.877 502.27 Q 938.827 504.56 936.767 507.23 Q 934.417 510.27 929.797 517.72 Q 927.707 521.07 927.247 523.6 C 927.22 523.905 927.049 524.19 926.767 524.4 L 922.357 528.32 Q 919.767 527.05 916.857 527.57 Q 915.937 526.35 916.857 524.99 Q 920.387 525.31 922.107 522.25 Q 925.127 516.9 924.147 510.78 Q 925.717 510.69 927.297 510.61 Q 929.307 510.5 930.337 510 Q 932.387 508.99 933.387 506.76 Q 934.467 504.3 937.447 503.8 Q 939.627 503.42 938.717 501.41 Q 937.867 499.52 940.547 498.22 Q 941.397 497.8 942.397 496.53 Z " fill="rgb(253,210,101)"/><path d=" M 959.037 463.54 Q 958.197 463.03 958.107 463.47 Q 958.057 463.68 958.277 464.05 Q 959.557 466.18 957.467 467.75 Q 953.747 473.96 946.627 474.49 Q 945.657 474.56 945.107 474.74 Q 942.297 475.63 945.607 476.82 Q 941.597 479.36 943.067 474.53 Q 945.067 461.13 959.037 463.54 Z " fill="rgb(254,194,61)"/><path d=" M 917.107 503.49 Q 918.287 504.12 918.107 505.78 Q 917.797 508.65 919.987 509.03 Q 922.387 516.84 917.677 522.75 Q 917.437 523.06 916.757 523.5 Q 915.687 524.2 916.857 524.99 Q 915.937 526.35 916.857 527.57 Q 914.877 527.88 912.997 528.52 Q 912.247 528.77 911.827 528.61 Q 911.177 528.35 911.067 527.53 Q 911.437 525.71 913.047 520.47 Q 913.757 518.14 913.517 515.48 Q 913.097 510.89 913.137 510.55 Q 913.617 506.36 917.107 503.49 Z " fill="rgb(253,198,76)"/><path d=" M 981.727 464.16 Q 983.257 463.87 983.797 464.84 Q 986.917 470.48 993.857 470.32 L 996.067 471.41 Q 997.657 472.19 995.857 472.55 Q 984.437 474.88 981.727 464.16 Z " fill="rgb(225,133,131)"/><path d=" M 943.607 498.49 Q 945.967 500.77 947.177 503.81 C 947.229 503.929 947.226 504.065 947.168 504.182 C 947.111 504.299 947.005 504.385 946.877 504.42 Q 943.287 505.3 940.877 502.27 Q 941.187 499.47 943.607 498.49 Z " fill="rgb(213,119,129)"/><path d=" M 957.107 584.74 L 955.857 584.74 Q 952.337 579.74 946.417 575.97 Q 944.147 574.52 941.907 574.98 Q 939.187 575.54 938.707 575.43 Q 936.577 574.96 935.257 572.59 C 935.069 572.271 935.127 571.866 935.397 571.61 Q 937.277 569.78 939.527 568.91 Q 941.617 568.1 944.217 568.83 Q 954.177 571.64 958.177 581.56 C 958.539 581.838 958.555 582.219 958.217 582.5 L 957.107 584.74 Z " fill="rgb(213,119,129)"/><path d=" M 1033.147 478.28 L 1037.857 484.99 Q 1034.987 484.55 1032.547 482.37 C 1032.277 482.135 1032.218 481.742 1032.407 481.44 Q 1033.577 479.5 1033.147 478.28 Z " fill="rgb(169,50,130)"/><path d=" M 917.567 573.28 L 915.997 573.03 Q 916.237 565.04 912.667 557.96 Q 912.087 556.81 913.097 557.61 Q 916.537 560.33 917.197 564.61 Q 917.377 565.74 917.617 568.93 Q 917.787 571.1 917.567 573.28 Z " fill="rgb(169,50,130)"/><path d=" M 1016.857 595.82 L 1016.107 596.32 Q 1012.997 595.73 1011.917 593.97 Q 1009.657 590.28 1011.417 586.79 Q 1012.787 584.07 1015.937 583.17 Q 1019.117 582.26 1022.167 583.47 Q 1026.477 585.17 1029.047 581.47 Q 1030.787 578.95 1030.607 582.03 Q 1030.467 584.41 1028.447 585.64 Q 1025.957 587.15 1023.097 587.69 C 1022.784 587.726 1022.469 587.634 1022.237 587.44 Q 1019.627 585.14 1016.407 585.58 Q 1014.087 585.9 1013.327 587.84 Q 1012.607 589.7 1013.177 592.16 C 1012.993 592.671 1013.365 593.196 1014.157 593.54 L 1016.857 595.82 Z " fill="rgb(169,50,130)"/><path d=" M 974.857 607.24 L 972.607 607.49 Q 972.597 605.28 971.857 602.53 Q 971.087 599.67 968.507 598.69 Q 963.887 596.93 959.317 598.78 L 956.937 595.85 Q 959.357 594.72 962.057 594.75 Q 965.047 594.79 967.167 595.16 Q 971.107 595.86 973.147 599.73 Q 975.017 603.26 974.857 607.24 Z " fill="rgb(169,50,130)"/><path d=" M 954.357 474.24 L 955.857 475.57 Q 950.657 477.97 947.167 483.59 Q 943.107 490.14 942.397 496.53 Q 941.397 497.8 940.547 498.22 Q 937.867 499.52 938.717 501.41 Q 939.627 503.42 937.447 503.8 Q 934.467 504.3 933.387 506.76 Q 932.387 508.99 930.337 510 Q 929.307 510.5 927.297 510.61 Q 925.717 510.69 924.147 510.78 Q 923.037 508.68 919.987 509.03 Q 917.797 508.65 918.107 505.78 Q 918.287 504.12 917.107 503.49 Q 920.277 500.79 920.277 496.53 Q 920.287 491.45 924.307 488.54 Q 926.507 486.95 928.657 485.27 Q 929.027 484.98 929.237 484.5 Q 931.027 480.34 935.187 478.38 Q 939.147 476.5 943.067 474.53 Q 941.597 479.36 945.607 476.82 Q 950.437 476.99 954.357 474.24 Z " fill="rgb(253,218,69)"/><path d=" M 987.147 453.78 Q 990.477 455.95 991.917 457.72 Q 994.607 461.01 998.707 462.1 Q 1000.987 462.7 1003.257 463.33 Q 1003.327 463.35 1006.487 464.06 Q 1011.617 465.2 1014.827 469.57 Q 1016.507 471.87 1019.327 474.28 C 1020.018 474.872 1020.949 475.102 1021.837 474.9 Q 1028.337 473.43 1033.147 478.28 Q 1033.577 479.5 1032.407 481.44 C 1032.218 481.742 1032.277 482.135 1032.547 482.37 Q 1034.987 484.55 1037.857 484.99 Q 1041.267 488.54 1041.517 493.53 Q 1041.817 499.53 1046.387 503.26 Q 1048.377 504.88 1050.257 506.63 Q 1057.477 513.36 1053.297 522.47 C 1049.424 522.504 1046.117 523.118 1045.91 523.841 C 1045.703 524.565 1048.674 525.124 1052.547 525.09 Q 1053.727 528.02 1054.617 531.04 Q 1055.187 532.96 1054.567 534.49 Q 1054.107 535.62 1053.407 536.63 Q 1052.457 538 1052.217 538.72 Q 1050.757 542.91 1053.167 546.47 Q 1056.687 551.64 1053.927 557.16 Q 1052.147 560.72 1050.857 565.78 Q 1050.107 568.71 1048.127 571.12 Q 1047.347 572.06 1043.547 574.78 Q 1037.947 578.79 1034.797 585.97 Q 1031.817 592.76 1024.307 593.65 Q 1021.917 593.93 1020.527 594.44 Q 1018.687 595.12 1016.857 595.82 L 1014.157 593.54 C 1013.365 593.196 1012.993 592.671 1013.177 592.16 Q 1012.607 589.7 1013.327 587.84 Q 1014.087 585.9 1016.407 585.58 Q 1019.627 585.14 1022.237 587.44 C 1022.469 587.634 1022.784 587.726 1023.097 587.69 Q 1025.957 587.15 1028.447 585.64 Q 1030.467 584.41 1030.607 582.03 Q 1030.787 578.95 1029.047 581.47 Q 1026.477 585.17 1022.167 583.47 Q 1019.117 582.26 1015.937 583.17 Q 1012.787 584.07 1011.417 586.79 Q 1009.657 590.28 1011.917 593.97 Q 1012.997 595.73 1016.107 596.32 Q 1013.857 600.04 1013.417 601.09 Q 1012.567 603.17 1011.437 604.57 Q 1010.277 606.01 1008.207 606.68 Q 1003.607 608.16 999.037 606.59 Q 999.007 606.58 995.327 604.67 Q 990.347 602.09 984.797 604.97 Q 980.287 607.3 974.857 607.24 Q 975.017 603.26 973.147 599.73 Q 971.107 595.86 967.167 595.16 Q 965.047 594.79 962.057 594.75 Q 959.357 594.72 956.937 595.85 Q 950.497 599.83 943.497 598.87 Q 940.467 598.46 937.957 596.29 Q 934.137 593 931.167 588.47 Q 929.937 586.58 924.547 578.84 Q 922.537 575.95 917.567 573.28 Q 917.787 571.1 917.617 568.93 Q 917.377 565.74 917.197 564.61 Q 916.537 560.33 913.097 557.61 Q 912.087 556.81 912.667 557.96 Q 916.237 565.04 915.997 573.03 Q 904.777 570.71 907.177 560.3 Q 907.297 559.77 907.917 558.5 Q 908.427 557.47 908.357 556.53 Q 908.157 553.75 906.667 550.22 Q 905.407 547.22 907.317 543.53 Q 908.617 544.11 908.607 545.79 Q 908.597 547.47 909.667 548.76 Q 912.127 551.75 915.927 553.65 Q 918.867 555.12 920.107 557.53 Q 921.287 559.83 922.997 565.15 Q 923.467 566.58 924.427 567.41 Q 925.487 568.31 926.677 569.03 C 926.794 569.075 926.872 569.177 926.878 569.292 C 926.885 569.407 926.818 569.515 926.707 569.57 Q 926.127 569.92 925.427 569.9 Q 924.957 569.89 925.237 570.23 Q 927.867 573.43 930.407 576.7 Q 934.237 581.63 940.287 583.27 Q 947.937 585.34 955.857 584.74 L 957.107 584.74 Q 975.957 585.25 993.017 577.4 Q 1000.387 574.02 1005.667 568.59 Q 1010.927 563.19 1016.047 555.97 Q 1019.377 551.26 1021.477 545.09 Q 1023.217 539.97 1024.507 533.41 Q 1026.087 525.36 1025.867 517.13 Q 1025.707 511.17 1025.237 507.94 Q 1024.607 503.64 1022.917 498.97 Q 1018.357 486.34 1012.937 476.96 Q 1010.767 473.2 1008.787 469.33 C 1008.34 468.447 1007.565 467.772 1006.627 467.45 Q 1001.287 465.62 995.607 465.32 Q 991.887 463.19 989.797 461.09 Q 986.937 458.24 987.147 453.78 Z " fill="rgb(205,82,155)"/><path d=" M 972.607 607.49 Q 969.227 608.49 965.807 607.55 Q 963.077 606.79 961.897 604.16 Q 960.677 601.43 959.317 598.78 Q 963.887 596.93 968.507 598.69 Q 971.087 599.67 971.857 602.53 Q 972.597 605.28 972.607 607.49 Z " fill="rgb(205,82,155)"/><path d=" M 957.467 467.75 Q 957.157 471.84 954.357 474.24 Q 950.437 476.99 945.607 476.82 Q 942.297 475.63 945.107 474.74 Q 945.657 474.56 946.627 474.49 Q 953.747 473.96 957.467 467.75 Z " fill="rgb(251,164,54)"/><path d=" M 911.067 527.53 Q 911.177 528.35 911.827 528.61 Q 912.247 528.77 912.997 528.52 Q 914.877 527.88 916.857 527.57 Q 919.767 527.05 922.357 528.32 Q 923.117 529.79 921.907 530.32 C 921.594 530.379 921.261 530.358 920.967 530.26 Q 917.867 528.9 914.637 529.93 C 914.327 530.034 914.065 530.24 913.897 530.51 Q 908.687 538.74 916.447 544.25 C 916.619 544.316 916.747 544.435 916.799 544.579 C 916.85 544.722 916.82 544.875 916.717 545 Q 916.457 545.48 915.857 545.28 Q 910.457 543.52 910.857 538.28 Q 911.027 536.1 909.397 536.28 L 911.067 527.53 Z " fill="rgb(251,164,54)"/><path d=" M 924.147 510.78 Q 925.127 516.9 922.107 522.25 Q 920.387 525.31 916.857 524.99 Q 915.687 524.2 916.757 523.5 Q 917.437 523.06 917.677 522.75 Q 922.387 516.84 919.987 509.03 Q 923.037 508.68 924.147 510.78 Z " fill="rgb(236,143,71)"/><path d=" M 999.237 516.74 Q 994.607 511.48 997.837 504.74 Q 999.367 501.57 1001.707 500.59 Q 1004.107 499.59 1006.387 501.13 Q 1008.057 502.26 1008.927 504.62 Q 1010.287 508.34 1010.107 512.78 Q 1009.847 519.17 1005.227 519.51 Q 1001.887 519.75 999.237 516.74 Z " fill="rgb(207,112,132)"/><path d=" M 932.777 525.75 Q 933.127 526.66 933.537 527.54 Q 933.837 528.2 933.717 528.69 Q 933.417 529.89 932.047 528.59 Q 929.747 526.43 930.107 523.53 Q 930.847 517.47 935.627 514.89 Q 937.957 513.63 936.857 516.02 L 932.827 524.83 C 932.665 525.116 932.647 525.451 932.777 525.75 Z " fill="rgb(211,107,118)"/><path d=" M 1005.577 483.5 Q 1002.197 484.54 1001.817 482.07 Q 1001.557 480.36 1003.157 481.01 Q 1006.377 482.31 1007.807 481.2 C 1008.017 481.034 1008.324 480.92 1008.667 480.88 Q 1012.157 481.22 1009.227 483.66 Q 1007.597 485.01 1006.367 483.73 C 1006.17 483.529 1005.866 483.44 1005.577 483.5 L 1005.577 483.5 Z " fill="rgb(225,133,131)"/><path d=" M 975.657 489.62 Q 977.487 486.82 980.737 486.78 Q 981.297 486.77 980.957 487.22 Q 975.717 494.09 972.677 501.67 Q 972.197 502.87 971.187 503.39 Q 969.657 504.19 970.447 502.66 Q 971.687 500.27 972.207 497.85 Q 973.177 493.41 975.657 489.62 Z " fill="rgb(225,133,131)"/><path d=" M 963.037 505.34 C 962.371 505.137 961.989 504.44 962.177 503.77 Q 963.257 499.99 966.457 502.52 C 966.79 502.784 966.979 503.19 966.967 503.615 C 966.955 504.04 966.744 504.435 966.397 504.68 Q 964.727 505.86 963.037 505.34 Z " fill="rgb(225,133,131)"/><path d=" M 961.707 513.083 C 962.053 512.988 962.575 513.782 962.873 514.856 C 963.171 515.931 963.132 516.881 962.787 516.977 C 962.441 517.072 961.918 516.278 961.62 515.204 C 961.323 514.129 961.361 513.179 961.707 513.083 Z " fill="rgb(225,133,131)"/><path d=" M 985.288 517.157 C 985.952 517.496 986.141 518.457 985.71 519.303 C 985.279 520.149 984.39 520.561 983.726 520.223 C 983.062 519.884 982.873 518.923 983.304 518.077 C 983.735 517.231 984.624 516.819 985.288 517.157 Z " fill="rgb(225,133,131)"/><path d=" M 1007.577 542.69 Q 1005.447 542.2 1006.657 541.5 Q 1007.047 541.27 1007.597 541.29 Q 1017.207 541.56 1015.477 551.18 Q 1015.357 551.83 1015.077 552.31 Q 1014.097 553.96 1013.697 551.87 Q 1013.617 551.42 1013.647 550.69 Q 1013.997 544.17 1007.577 542.69 Z " fill="rgb(225,133,131)"/><path d=" M 942.877 547.417 C 942.402 546.793 942.662 545.796 943.456 545.19 C 944.251 544.585 945.282 544.6 945.757 545.223 C 946.232 545.847 945.972 546.844 945.177 547.45 C 944.383 548.055 943.352 548.04 942.877 547.417 Z " fill="rgb(225,133,131)"/><path d=" M 933.417 549.22 Q 935.947 550.24 938.557 551.1 Q 940.427 551.71 938.507 552.13 Q 930.997 553.77 928.517 547 Q 928.317 546.44 928.327 546.03 Q 928.347 545.12 929.157 545.41 Q 929.497 545.53 929.787 545.95 Q 931.577 548.48 933.417 549.22 Z " fill="rgb(225,133,131)"/><path d=" M 942.916 560.554 C 943.657 561.199 943.583 562.5 942.75 563.458 C 941.917 564.416 940.639 564.67 939.898 564.026 C 939.156 563.381 939.231 562.08 940.063 561.122 C 940.896 560.164 942.174 559.91 942.916 560.554 Z " fill="rgb(225,133,131)"/><path d=" M 995.952 517.958 C 996.685 517.552 997.781 518.123 998.396 519.233 C 999.012 520.343 998.916 521.575 998.182 521.982 C 997.448 522.388 996.353 521.817 995.737 520.707 C 995.122 519.597 995.218 518.365 995.952 517.958 Z " fill="rgb(213,119,129)"/><path d=" M 1019.297 532.34 Q 1016.257 528.64 1017.377 523.73 Q 1017.737 522.15 1019.117 521.27 Q 1020.637 520.31 1020.597 522.17 L 1020.357 531.78 Q 1020.317 533.58 1019.297 532.34 Z " fill="rgb(213,119,129)"/><path d=" M 959.38 528.074 C 960.417 527.785 961.763 529.358 962.385 531.586 C 963.007 533.813 962.67 535.856 961.634 536.146 C 960.597 536.435 959.251 534.862 958.629 532.634 C 958.007 530.407 958.343 528.364 959.38 528.074 Z " fill="rgb(213,119,129)"/><path d=" M 973.167 531.2 C 973.967 530.721 975.379 531.605 976.317 533.172 C 977.255 534.74 977.367 536.401 976.567 536.88 C 975.766 537.359 974.355 536.475 973.417 534.908 C 972.479 533.34 972.367 531.679 973.167 531.2 Z " fill="rgb(213,119,129)"/><path d=" M 959.759 544.449 C 961.082 544.265 962.343 545.465 962.574 547.127 C 962.804 548.789 961.918 550.288 960.595 550.471 C 959.272 550.655 958.01 549.454 957.78 547.793 C 957.549 546.131 958.436 544.632 959.759 544.449 Z " fill="rgb(213,119,129)"/><path d=" M 976.557 564.2 Q 973.757 560.62 976.017 556.64 Q 978.087 552.97 981.227 550.91 Q 984.797 548.55 989.577 550.09 Q 990.377 550.35 990.747 550.94 Q 991.757 552.53 988.637 551.89 Q 984.387 551.03 980.657 553.1 C 980.167 553.375 979.962 553.96 980.177 554.47 L 981.837 558.96 Q 982.537 560.87 984.477 561.01 Q 987.167 561.21 990.157 559.89 Q 992.207 558.99 992.337 560.59 Q 992.397 561.35 991.827 562.23 Q 988.377 567.59 982.457 567.22 Q 978.727 566.99 976.557 564.2 Z " fill="rgb(213,119,129)"/><path d=" M 988.547 593.09 Q 986.527 591.34 986.607 589.31 Q 986.667 587.8 988.137 586.96 Q 989.537 586.18 991.117 586.21 Q 992.377 586.23 995.107 586.83 Q 997.177 587.28 998.917 588.32 C 999.788 588.839 1000.395 589.701 1000.587 590.69 Q 1001.067 593.08 998.597 592.59 Q 995.807 592.02 994.327 594.04 C 994.205 594.285 993.933 594.496 993.567 594.63 Q 991.127 595.33 988.547 593.09 Z " fill="rgb(177,65,142)"/><path d=" M 1023.567 489.56 Q 1020.597 487.14 1019.107 482.78 Q 1018.687 481.55 1019.547 481.37 C 1019.885 481.379 1020.195 481.515 1020.367 481.73 Q 1025.327 487.6 1026.667 488.47 Q 1031.357 491.49 1036.847 492.59 Q 1038.097 492.84 1037.767 493.78 C 1037.661 494.037 1037.381 494.214 1037.057 494.23 Q 1029.447 494.34 1023.567 489.56 Z " fill="rgb(169,50,130)"/><path d=" M 1046.407 523.93 Q 1043.937 522.23 1043.187 519.58 Q 1042.627 517.61 1043.247 514.47 Q 1044.267 509.39 1046.917 506.34 Q 1047.937 505.17 1048.407 506.49 C 1048.549 506.785 1048.5 507.122 1048.277 507.38 Q 1045.367 511.92 1044.917 515.84 Q 1044.357 520.76 1048.857 523.35 C 1049.18 523.506 1049.375 523.788 1049.367 524.09 Q 1049.487 525.48 1047.897 524.76 Q 1047.107 524.41 1046.407 523.93 Z " fill="rgb(169,50,130)"/><path d=" M 1033.297 518.96 Q 1035.297 515.98 1034.317 519.43 Q 1031.847 528.09 1031.907 537.28 Q 1031.917 538.78 1031.207 538.24 Q 1030.937 538.03 1030.787 537.59 Q 1027.467 527.65 1033.297 518.96 Z " fill="rgb(169,50,130)"/><path d=" M 1049.847 527.55 Q 1050.697 527.8 1050.847 528.22 C 1050.956 528.35 1050.961 528.505 1050.861 528.638 C 1050.761 528.772 1050.567 528.869 1050.337 528.9 Q 1040.467 533.02 1040.357 544.53 Q 1040.337 546.77 1038.867 546.19 C 1038.553 546.058 1038.357 545.776 1038.367 545.47 Q 1037.787 539.01 1040.297 534.22 Q 1043.167 528.73 1049.347 527.53 Q 1049.597 527.48 1049.847 527.55 Z " fill="rgb(169,50,130)"/><path d=" M 1042.737 568.2 Q 1039.967 564.52 1040.477 560.4 Q 1040.847 557.36 1043.087 553.2 Q 1045.057 549.53 1048.287 546.7 Q 1049.667 545.5 1050.597 545.75 Q 1052.477 546.25 1050.897 547.39 Q 1041.967 553.83 1043.257 564.76 Q 1043.517 566.97 1045.427 567.79 Q 1047.057 568.49 1045.367 569.03 Q 1043.747 569.54 1042.737 568.2 Z " fill="rgb(169,50,130)"/><path d=" M 1024.207 573.98 Q 1020.697 572.39 1021.137 570.04 Q 1021.707 566.99 1023.247 565.11 Q 1024.897 563.08 1023.797 565.46 Q 1021.407 570.62 1024.447 573.63 Q 1025.317 574.49 1024.207 573.98 Z " fill="rgb(169,50,130)"/><path d=" M 921.607 500.62 Q 921.047 498.95 922.257 497.63 C 922.464 497.42 922.76 497.268 923.097 497.2 Q 932.717 495.58 930.647 485.74 Q 930.177 483.47 932.087 484.77 Q 933.757 485.9 934.297 487.84 Q 936.167 494.57 930.527 498.43 Q 926.807 500.98 922.297 501.09 C 921.985 501.093 921.706 500.903 921.607 500.62 L 921.607 500.62 Z " fill="rgb(253,162,60)"/></g></svg>