<?xml version="1.0" encoding="UTF-8" standalone="no"?><!-- Generator: Gravit.io --><svg xmlns="http://www.w3.org/2000/svg" xmlns:xlink="http://www.w3.org/1999/xlink" style="isolation:isolate" viewBox="700.115 569.155 151.955 142.513" width="151.955pt" height="142.513pt"><defs><clipPath id="_clipPath_xaRcvS1qorWVvxG7hULuYVerutIZuDPX"><rect x="700.115" y="569.155" width="151.955" height="142.513"/></clipPath></defs><g clip-path="url(#_clipPath_xaRcvS1qorWVvxG7hULuYVerutIZuDPX)"><rect x="700.115" y="569.155" width="151.955" height="142.513" style="fill:rgb(6,6,6)" fill-opacity="0"/><g><path d=" M 787.904 580.998 L 788.494 584.778 C 788.986 585.634 788.779 586.605 787.954 587.308 Q 784.874 591.088 780.264 592.958 Q 777.624 594.028 777.584 594.048 Q 768.644 598.218 761.714 606.268 Q 759.524 608.828 756.344 611.068 Q 750.684 615.068 750.644 615.098 Q 747.554 617.448 744.374 619.658 Q 739.604 622.978 735.424 627.888 C 734.868 628.542 734.711 629.445 735.014 630.248 Q 736.154 633.288 733.544 635.408 C 733.298 635.573 732.977 635.632 732.674 635.568 Q 731.174 635.158 729.644 635.228 Q 726.694 635.358 726.154 635.448 Q 724.104 635.808 723.264 638.038 Q 722.264 640.688 721.824 643.468 Q 721.774 643.758 721.804 645.958 Q 721.814 647.118 721.404 648.458 Q 719.664 654.138 716.184 658.238 Q 716.144 658.288 715.184 659.248 Q 713.144 661.308 715.554 663.108 C 715.856 663.309 716.063 663.575 716.144 663.868 Q 718.584 670.758 716.194 677.708 Q 714.154 673.578 713.704 668.978 Q 713.404 665.958 712.994 662.948 Q 712.614 660.238 713.564 657.718 Q 716.334 650.318 715.404 643.208 Q 714.944 639.698 715.484 637.118 Q 716.844 630.588 719.144 624.318 Q 723.304 612.948 731.964 604.518 Q 733.454 603.078 736.514 601.348 Q 755.454 590.648 759.594 588.148 Q 761.184 587.178 762.154 587.248 Q 760.604 590.148 760.214 591.268 Q 759.734 592.678 760.484 592.878 Q 760.914 592.998 761.624 592.578 Q 768.514 588.468 775.404 586.278 Q 777.004 585.768 775.304 585.468 L 769.404 584.418 Q 777.764 581.378 786.624 580.558 C 786.928 580.533 787.232 580.603 787.494 580.758 L 787.904 580.998 Z " fill="rgb(240,183,112)"/><path d=" M 827.194 579.958 Q 826.974 580.538 826.564 580.388 Q 826.154 580.248 826.074 580.238 Q 817.774 579.268 809.634 581.138 Q 807.214 581.688 807.694 584.208 Q 806.294 586.178 804.214 584.898 Q 796.484 580.138 787.904 580.998 L 787.494 580.758 C 787.232 580.603 786.928 580.533 786.624 580.558 Q 777.764 581.378 769.404 584.418 L 762.154 587.248 Q 761.184 587.178 759.594 588.148 Q 755.454 590.648 736.514 601.348 Q 733.454 603.078 731.964 604.518 Q 723.304 612.948 719.144 624.318 Q 716.844 630.588 715.484 637.118 Q 714.944 639.698 715.404 643.208 Q 716.334 650.318 713.564 657.718 Q 712.614 660.238 712.994 662.948 Q 713.404 665.958 713.704 668.978 Q 714.154 673.578 716.194 677.708 L 717.444 683.458 Q 716.754 686.558 713.904 697.208 Q 713.604 698.308 712.904 698.498 Q 705.554 692.088 708.174 682.368 C 708.392 681.57 708.246 680.718 707.774 680.038 Q 702.254 672.028 700.634 662.918 Q 699.484 656.438 700.884 648.138 Q 701.714 643.218 703.114 638.438 Q 704.374 634.138 706.114 628.968 Q 711.054 614.198 720.594 601.398 Q 727.524 592.088 737.464 586.768 Q 739.724 585.568 744.994 583.568 Q 748.874 582.088 752.254 579.898 Q 758.494 575.828 761.214 574.518 Q 782.324 564.358 802.184 573.448 Q 804.094 574.318 806.204 574.268 Q 818.954 573.958 827.194 579.958 Z " fill="rgb(225,237,127)"/><path d=" M 827.404 583.918 Q 841.154 586.848 843.864 600.708 Q 842.054 600.928 841.214 600.148 Q 838.414 597.528 835.524 595.008 Q 831.724 591.718 828.984 591.268 Q 824.884 590.608 820.844 593.398 Q 817.094 595.978 813.404 593.168 Q 811.724 591.368 811.154 588.998 Q 818.274 583.398 827.404 583.918 Z " fill="rgb(228,234,140)"/><path d=" M 769.404 584.418 L 775.304 585.468 Q 777.004 585.768 775.404 586.278 Q 768.514 588.468 761.624 592.578 Q 760.914 592.998 760.484 592.878 Q 759.734 592.678 760.214 591.268 Q 760.604 590.148 762.154 587.248 L 769.404 584.418 Z " fill="rgb(218,143,100)"/><path d=" M 807.694 584.208 L 811.154 588.998 Q 811.724 591.368 813.404 593.168 Q 812.744 593.448 812.904 593.958 Q 815.784 603.188 817.664 611.228 Q 818.674 615.558 818.554 620.308 Q 818.424 625.798 818.164 631.298 Q 817.874 637.668 816.304 641.368 Q 813.374 648.258 807.244 652.708 Q 805.794 653.768 803.994 653.908 Q 798.084 654.388 792.814 655.218 Q 784.874 656.468 778.994 661.278 Q 777.054 662.858 771.124 669.438 Q 765.714 675.458 763.964 678.268 Q 759.404 685.638 751.154 687.178 Q 749.954 687.398 747.184 687.048 Q 745.104 686.788 743.084 687.248 Q 738.684 688.248 738.634 688.248 Q 733.294 688.718 728.244 687.048 Q 723.734 685.568 722.844 685.308 Q 720.104 684.518 717.444 683.458 L 716.194 677.708 Q 718.584 670.758 716.144 663.868 C 716.063 663.575 715.856 663.309 715.554 663.108 Q 713.144 661.308 715.184 659.248 Q 716.144 658.288 716.184 658.238 Q 719.664 654.138 721.404 648.458 Q 721.814 647.118 721.804 645.958 Q 721.774 643.758 721.824 643.468 Q 722.264 640.688 723.264 638.038 Q 724.104 635.808 726.154 635.448 Q 726.694 635.358 729.644 635.228 Q 731.174 635.158 732.674 635.568 C 732.977 635.632 733.298 635.573 733.544 635.408 Q 736.154 633.288 735.014 630.248 C 734.711 629.445 734.868 628.542 735.424 627.888 Q 739.604 622.978 744.374 619.658 Q 747.554 617.448 750.644 615.098 Q 750.684 615.068 756.344 611.068 Q 759.524 608.828 761.714 606.268 Q 768.644 598.218 777.584 594.048 Q 777.624 594.028 780.264 592.958 Q 784.874 591.088 787.954 587.308 C 788.779 586.605 788.986 585.634 788.494 584.778 L 787.904 580.998 Q 796.484 580.138 804.214 584.898 Q 806.294 586.178 807.694 584.208 Z " fill="rgb(216,132,114)"/><path d=" M 847.614 613.208 Q 850.984 619.268 851.444 626.208 Q 846.304 636.188 848.864 647.208 Q 848.904 648.178 849.344 650.768 Q 850.604 658.218 845.934 663.568 Q 845.084 664.528 841.794 666.598 Q 839.164 668.248 837.964 670.518 Q 836.484 673.348 834.604 675.058 Q 833.284 676.258 829.724 677.528 Q 827.304 678.398 824.264 679.618 C 823.643 679.872 823.166 680.388 822.964 681.028 Q 822.624 682.108 823.404 682.248 Q 820.734 685.598 817.594 687.148 Q 814.854 688.498 808.964 690.518 Q 805.554 691.698 802.844 695.258 Q 802.834 695.278 801.954 696.128 Q 801.394 696.678 801.654 697.498 Q 795.634 699.688 789.624 701.888 Q 787.864 702.528 785.184 704.358 Q 781.604 706.788 776.214 708.268 Q 763.734 711.708 754.154 711.668 Q 751.934 709.608 748.864 709.208 Q 747.454 708.378 746.904 706.458 Q 745.834 702.738 741.514 701.618 C 740.583 701.382 739.922 700.557 739.894 699.598 Q 739.774 695.308 744.144 696.988 Q 753.324 700.508 755.094 701.518 Q 757.424 702.848 759.574 703.168 Q 760.654 703.328 764.234 703.308 Q 770.164 703.268 774.094 700.148 Q 776.824 697.968 778.844 696.658 Q 780.824 695.378 784.254 694.458 Q 792.424 692.278 794.094 691.398 Q 798.234 689.188 800.594 686.148 Q 802.214 684.048 803.974 682.628 Q 805.384 681.498 808.264 680.518 Q 812.784 678.958 814.344 677.898 Q 819.174 674.578 824.094 671.398 Q 826.984 669.518 830.854 664.998 Q 832.494 663.088 834.634 661.068 Q 836.634 659.178 838.424 657.108 Q 840.074 655.198 840.054 653.178 Q 840.034 651.498 839.474 649.878 Q 838.614 647.388 838.604 647.348 Q 836.184 637.978 839.594 630.148 Q 843.194 621.848 846.834 613.568 C 846.859 613.392 847.039 613.244 847.284 613.198 L 847.614 613.208 Z " fill="rgb(184,124,130)"/><g><path d=" M 843.864 600.708 Q 845.554 603.708 845.654 607.208 Q 845.694 608.608 847.614 613.208 L 847.284 613.198 C 847.039 613.244 846.859 613.392 846.834 613.568 Q 843.194 621.848 839.594 630.148 Q 836.184 637.978 838.604 647.348 Q 838.614 647.388 839.474 649.878 Q 840.034 651.498 840.054 653.178 Q 840.074 655.198 838.424 657.108 Q 836.634 659.178 834.634 661.068 Q 832.494 663.088 830.854 664.998 Q 826.984 669.518 824.094 671.398 Q 819.174 674.578 814.344 677.898 Q 812.784 678.958 808.264 680.518 Q 805.384 681.498 803.974 682.628 Q 802.214 684.048 800.594 686.148 Q 798.234 689.188 794.094 691.398 Q 792.424 692.278 784.254 694.458 Q 780.824 695.378 778.844 696.658 Q 776.824 697.968 774.094 700.148 Q 770.164 703.268 764.234 703.308 Q 760.654 703.328 759.574 703.168 Q 757.424 702.848 755.094 701.518 Q 753.324 700.508 744.144 696.988 Q 739.774 695.308 739.894 699.598 C 739.922 700.557 740.583 701.382 741.514 701.618 Q 745.834 702.738 746.904 706.458 Q 747.454 708.378 748.864 709.208 Q 745.444 708.788 742.844 707.768 Q 739.204 706.358 735.654 707.498 Q 733.714 707.168 729.404 705.208 Q 723.614 702.578 717.394 701.258 Q 714.634 700.678 712.904 698.498 Q 713.604 698.308 713.904 697.208 Q 716.754 686.558 717.444 683.458 Q 720.104 684.518 722.844 685.308 Q 723.734 685.568 728.244 687.048 Q 733.294 688.718 738.634 688.248 Q 738.684 688.248 743.084 687.248 Q 745.104 686.788 747.184 687.048 Q 749.954 687.398 751.154 687.178 Q 759.404 685.638 763.964 678.268 Q 765.714 675.458 771.124 669.438 Q 777.054 662.858 778.994 661.278 Q 784.874 656.468 792.814 655.218 Q 798.084 654.388 803.994 653.908 Q 805.794 653.768 807.244 652.708 Q 813.374 648.258 816.304 641.368 Q 817.874 637.668 818.164 631.298 Q 818.424 625.798 818.554 620.308 Q 818.674 615.558 817.664 611.228 Q 815.784 603.188 812.904 593.958 Q 812.744 593.448 813.404 593.168 Q 817.094 595.978 820.844 593.398 Q 824.884 590.608 828.984 591.268 Q 831.724 591.718 835.524 595.008 Q 838.414 597.528 841.214 600.148 Q 842.054 600.928 843.864 600.708 Z " fill="rgb(146,75,95)"/><path d=" M 851.444 626.208 Q 853.294 635.388 849.684 644.008 Q 849.034 645.558 848.864 647.208 Q 846.304 636.188 851.444 626.208 Z " fill="rgb(146,75,95)"/></g><g><path d=" M 827.194 579.958 Q 827.544 581.288 826.904 582.958 Q 826.654 583.608 827.404 583.918 Q 818.274 583.398 811.154 588.998 L 807.694 584.208 Q 807.214 581.688 809.634 581.138 Q 817.774 579.268 826.074 580.238 Q 826.154 580.248 826.564 580.388 Q 826.974 580.538 827.194 579.958 Z " fill="rgb(134,86,92)"/></g><path d=" M 818.624 602.848 Q 816.144 600.858 816.574 597.448 C 816.615 597.168 816.873 596.972 817.154 597.008 Q 818.154 597.098 819.154 597.268 Q 820.324 597.468 821.004 598.008 Q 823.104 599.688 821.334 602.408 Q 820.224 604.118 818.624 602.848 Z " fill="rgb(216,132,114)"/><g><path d=" M 740.894 615.768 C 740.515 615.754 740.161 615.576 739.923 615.28 C 739.685 614.985 739.587 614.601 739.654 614.228 Q 741.094 606.228 746.954 601.008 Q 748.724 599.438 750.234 598.978 Q 752.364 598.328 754.284 599.248 Q 756.984 600.548 755.484 603.138 Q 751.684 609.718 746.214 614.028 Q 743.854 615.888 740.894 615.768 Z " fill="rgb(249,233,106)"/><path d=" M 736.124 610.168 C 736.376 610.15 736.623 610.252 736.789 610.442 C 736.956 610.632 737.024 610.89 736.974 611.138 Q 735.844 616.478 731.424 619.738 C 731.211 619.893 730.945 619.956 730.686 619.912 C 730.426 619.869 730.195 619.723 730.044 619.508 Q 728.944 617.918 729.364 616.198 Q 730.744 610.568 736.124 610.168 Z " fill="rgb(249,233,106)"/></g><g><path d=" M 774.356 603.666 C 773.247 601.964 774.895 598.922 778.034 596.875 C 781.174 594.829 784.623 594.548 785.732 596.25 C 786.841 597.951 785.193 600.994 782.054 603.041 C 778.914 605.087 775.465 605.367 774.356 603.666 Z " fill="rgb(240,177,115)"/><path d=" M 761.031 620.516 C 763.496 619.035 766.771 619.953 768.34 622.564 C 769.909 625.176 769.182 628.498 766.717 629.979 C 764.252 631.46 760.977 630.543 759.408 627.931 C 757.839 625.32 758.566 621.997 761.031 620.516 Z " fill="rgb(240,177,115)"/></g><path d=" M 807.706 619.258 C 809.86 620.085 810.568 623.467 809.286 626.806 C 808.005 630.145 805.215 632.184 803.062 631.357 C 800.908 630.531 800.2 627.149 801.482 623.81 C 802.763 620.471 805.552 618.431 807.706 619.258 Z " fill="rgb(146,75,95)"/><path d="M 730.188 655.842 L 730.506 656.145 C 731.813 657.39 731.863 659.463 730.619 660.77 L 726.704 664.885 C 725.46 666.193 723.389 666.243 722.082 664.998 L 721.764 664.695 C 720.457 663.45 720.407 661.377 721.651 660.07 L 725.566 655.955 C 726.81 654.647 728.881 654.597 730.188 655.842 Z" style="stroke:none;fill:#E7A674;stroke-miterlimit:10;"/><g><path d=" M 819.009 647.331 C 818.171 646.215 818.715 644.388 820.225 643.255 C 821.734 642.121 823.64 642.108 824.479 643.224 C 825.317 644.341 824.772 646.168 823.263 647.301 C 821.753 648.434 819.847 648.448 819.009 647.331 Z " fill="rgb(197,122,116)"/><path d=" M 796.525 662.719 C 795.542 660.967 796.916 658.325 799.593 656.824 C 802.269 655.322 805.239 655.525 806.223 657.277 C 807.206 659.029 805.831 661.67 803.155 663.172 C 800.479 664.674 797.508 664.471 796.525 662.719 Z " fill="rgb(197,122,116)"/></g></g></g></svg>