<?xml version="1.0" encoding="UTF-8" standalone="no"?><!-- Generator: Gravit.io --><svg xmlns="http://www.w3.org/2000/svg" xmlns:xlink="http://www.w3.org/1999/xlink" style="isolation:isolate" viewBox="718.677 560.42 114.831 159.984" width="114.831pt" height="159.984pt"><defs><clipPath id="_clipPath_SkxBqDffBaV5EcUeBh4jLFCzCDICG306"><rect x="718.677" y="560.42" width="114.831" height="159.984"/></clipPath></defs><g clip-path="url(#_clipPath_SkxBqDffBaV5EcUeBh4jLFCzCDICG306)"><rect x="718.677" y="560.42" width="114.831" height="159.984" style="fill:rgb(6,6,6)" fill-opacity="0"/><g><path d=" M 783.18 575.082 L 794.68 585.582 Q 792.23 590.912 792.43 596.832 Q 792.05 597.632 791.82 598.482 Q 791.61 599.302 791.95 600.152 Q 794.99 607.812 802.95 609.522 Q 805.78 610.132 806.39 607.122 Q 809.35 602.042 808.89 596.122 Q 810.79 594.932 810.93 597.082 Q 810.4 598.402 810.68 599.832 Q 809.69 605.282 807.18 610.572 C 807.035 610.856 807.074 611.193 807.28 611.442 L 813.33 619.652 Q 815.09 622.032 815.73 619.292 L 817.18 613.082 Q 819.12 606.742 819.18 600.082 Q 820.17 599.812 820.68 600.582 Q 820.57 609.312 818.55 618.222 C 818.456 618.62 818.495 619.037 818.66 619.412 Q 820.98 624.862 823.23 629.162 Q 826.61 635.622 830.1 629.582 Q 830.91 630.692 830.6 632.082 Q 830.08 632.152 829.58 633.022 Q 827.49 636.582 824.31 639.782 C 823.872 640.222 823.237 640.407 822.63 640.272 Q 816.06 638.762 809.45 636.662 Q 807.11 635.922 805.83 636.582 Q 804.38 637.332 802.88 639.202 C 802.629 639.513 802.646 639.961 802.92 640.252 Q 813.97 651.862 812.15 668.202 Q 812.01 669.512 813.06 668.722 Q 820.99 662.742 830.37 665.202 Q 831.05 665.372 831.69 665.802 Q 832.29 666.212 832.89 666.622 Q 833.09 667.792 832.6 668.832 Q 830.03 666.682 827.58 666.392 Q 821.91 665.732 816.53 668.542 Q 814.09 669.812 813.19 670.562 Q 811.52 671.952 811.14 674.082 Q 809.35 684.032 810.96 694.042 C 811.021 694.42 811.249 694.752 811.581 694.947 C 811.913 695.142 812.316 695.181 812.68 695.052 Q 816.5 693.672 820.93 692.092 Q 822.83 691.412 824.85 691.582 L 824.1 693.582 Q 816.17 696.412 812.95 698.392 Q 811.8 699.102 811.3 701.282 C 811.215 701.598 811.268 701.932 811.45 702.212 Q 813.27 705.342 816.14 707.622 Q 816.1 708.192 815.68 708.582 Q 812.94 707.452 810.83 704.842 C 810.205 704.073 809.201 703.717 808.23 703.922 Q 803.23 705.002 797.88 705.252 Q 793.96 705.442 792.53 706.092 Q 789.77 707.342 788.58 710.272 Q 787.49 712.962 786.68 717.832 Q 785.38 718.522 783.89 718.542 Q 785.77 715.282 785.88 711.582 C 785.885 711.462 785.832 711.345 785.737 711.266 C 785.642 711.186 785.514 711.152 785.39 711.172 Q 777.93 712.482 770.69 710.772 Q 765.34 709.512 765.17 709.482 Q 760.73 708.532 756.43 707.082 L 754.6 704.332 Q 755.56 702.202 755.1 699.832 Q 756.86 698.462 757.89 695.832 Q 759.4 691.982 763.33 689.692 Q 765.17 688.622 763.55 688.632 Q 763.24 688.632 762.87 688.742 Q 757.71 690.152 752.39 690.622 Q 749.26 689.302 745.93 689.832 L 745.93 688.082 Q 749.46 686.882 749.64 683.832 Q 750.34 672.062 750.93 668.582 L 755.86 660.632 C 756.209 660.117 756.134 659.433 755.68 659.002 Q 746.33 649.852 748.89 636.352 Q 749.22 634.602 748.36 633.052 Q 745.97 628.732 742.28 626.092 Q 738.4 623.312 733.83 623.562 Q 728.69 623.852 724.43 627.332 Q 721.77 629.462 719.93 632.332 Q 718.06 629.862 720.6 628.332 L 725.14 623.792 Q 726.39 623.742 728.08 623.022 Q 734.99 620.062 741.96 623.202 C 742.039 623.239 742.132 623.234 742.207 623.187 C 742.282 623.141 742.328 623.06 742.33 622.972 Q 742.52 616.912 738.94 612.042 Q 736.69 608.972 732.89 608.622 Q 732.36 608.092 733.14 607.792 Q 737.28 607.292 740.2 611.272 Q 744.05 616.522 744.14 623.102 Q 744.16 624.602 745.3 625.872 L 749.92 631.032 C 750.039 631.158 750.209 631.229 750.387 631.227 C 750.565 631.225 750.734 631.15 750.85 631.022 L 759.32 619.682 C 759.926 618.91 760.004 617.871 759.52 617.022 Q 752.8 603.762 738.68 600.332 Q 738.22 599.982 737.64 599.872 Q 733.84 598.672 729.89 599.292 Q 729.55 597.982 730.39 597.042 Q 741.25 597.122 750.6 602.582 Q 756.15 606.912 758.33 610.642 Q 760.21 613.882 762.2 614.522 Q 768.15 616.412 773.4 619.742 Q 773.83 620.012 773.79 619.522 Q 773.32 612.612 774.78 605.822 C 774.857 605.506 774.833 605.175 774.71 604.872 Q 771.42 596.332 777.78 590.172 C 778.002 589.969 778.066 589.651 777.94 589.382 L 775.17 583.122 Q 774.9 582.532 774.41 582.112 Q 770.22 578.582 765.72 577.362 Q 763.64 576.802 762.22 578.432 Q 760.72 580.162 758.76 582.212 Q 754.84 586.312 749.2 585.912 Q 748.65 585.872 747.58 585.962 Q 746.75 586.022 745.93 585.832 Q 744.64 584.472 744.93 582.582 Q 745.72 582.702 746.2 583.342 C 746.324 583.582 746.59 583.783 746.94 583.902 Q 753.71 585.612 758.23 580.762 Q 758.24 580.752 759.82 578.692 Q 763.62 573.722 769.64 577.292 Q 772 578.692 775.24 580.712 C 775.594 580.865 776.019 580.809 776.31 580.572 L 781.14 576.292 L 783.18 575.082 Z " fill="rgb(72,33,28)"/><path d=" M 778.14 570.872 L 783.18 575.082 L 781.14 576.292 Q 781.35 575.382 780.39 575.082 Q 777.22 574.092 778.14 570.872 Z " fill="rgb(107,49,46)"/><path d=" M 737.64 599.872 Q 738.22 599.982 738.68 600.332 Q 734.53 603.042 733.14 607.792 Q 732.36 608.092 732.89 608.622 Q 728.33 615.962 727.83 617.522 Q 727.43 618.762 726.64 619.042 Q 728.45 611.582 732.63 605.142 Q 734.36 602.462 736.83 601.022 Q 737.61 600.562 737.64 599.872 Z " fill="rgb(107,49,46)"/><path d=" M 775.18 569.082 L 778.14 570.872 Q 777.22 574.092 780.39 575.082 Q 781.35 575.382 781.14 576.292 L 776.31 580.572 C 776.019 580.809 775.594 580.865 775.24 580.712 Q 772 578.692 769.64 577.292 Q 763.62 573.722 759.82 578.692 Q 758.24 580.752 758.23 580.762 Q 753.71 585.612 746.94 583.902 C 746.59 583.783 746.324 583.582 746.2 583.342 Q 745.72 582.702 744.93 582.582 Q 746.73 577.002 749.61 571.892 Q 752.13 567.422 756.42 564.602 Q 759.52 562.562 762.75 564.522 Q 768.62 568.112 773.7 572.772 Q 775.42 574.352 775.33 572.272 L 775.18 569.082 Z " fill="rgb(156,107,80)"/><path d=" M 750.6 602.582 Q 751.09 602.122 750.69 601.712 Q 750.35 601.362 750.28 601.262 Q 747.46 597.082 743.09 595.792 C 742.869 595.727 742.697 595.554 742.634 595.333 C 742.571 595.111 742.626 594.873 742.78 594.702 Q 746.22 590.882 745.93 585.832 Q 746.75 586.022 747.58 585.962 Q 748.65 585.872 749.2 585.912 Q 754.84 586.312 758.76 582.212 Q 760.72 580.162 762.22 578.432 Q 763.64 576.802 765.72 577.362 Q 770.22 578.582 774.41 582.112 Q 774.9 582.532 775.17 583.122 L 777.94 589.382 C 778.066 589.651 778.002 589.969 777.78 590.172 Q 771.42 596.332 774.71 604.872 C 774.833 605.175 774.857 605.506 774.78 605.822 Q 773.32 612.612 773.79 619.522 Q 773.83 620.012 773.4 619.742 Q 768.15 616.412 762.2 614.522 Q 760.21 613.882 758.33 610.642 Q 756.15 606.912 750.6 602.582 Z " fill="rgb(156,107,80)"/><path d=" M 738.68 600.332 Q 752.8 603.762 759.52 617.022 C 760.004 617.871 759.926 618.91 759.32 619.682 L 750.85 631.022 C 750.734 631.15 750.565 631.225 750.387 631.227 C 750.209 631.229 750.039 631.158 749.92 631.032 L 745.3 625.872 Q 744.16 624.602 744.14 623.102 Q 744.05 616.522 740.2 611.272 Q 737.28 607.292 733.14 607.792 Q 734.53 603.042 738.68 600.332 Z " fill="rgb(156,107,80)"/><path d=" M 732.89 608.622 Q 736.69 608.972 738.94 612.042 Q 742.52 616.912 742.33 622.972 C 742.328 623.06 742.282 623.141 742.207 623.187 C 742.132 623.234 742.039 623.239 741.96 623.202 Q 734.99 620.062 728.08 623.022 Q 726.39 623.742 725.14 623.792 L 726.64 619.042 Q 727.43 618.762 727.83 617.522 Q 728.33 615.962 732.89 608.622 Z " fill="rgb(156,107,80)"/><path d=" M 750.93 668.582 L 739.34 655.392 C 739.122 655.165 738.799 655.046 738.47 655.072 Q 734.27 655.572 731.58 652.642 Q 728.88 649.712 726.33 643.142 Q 723.31 635.372 724.38 628.552 C 724.261 628.31 724.405 628.052 724.76 627.872 Q 725.15 627.442 724.43 627.332 Q 728.69 623.852 733.83 623.562 Q 738.4 623.312 742.28 626.092 Q 745.97 628.732 748.36 633.052 Q 749.22 634.602 748.89 636.352 Q 746.33 649.852 755.68 659.002 C 756.134 659.433 756.209 660.117 755.86 660.632 L 750.93 668.582 Z " fill="rgb(156,107,80)"/><path d=" M 830.6 632.082 L 832.18 648.082 Q 832.96 654.192 833.45 660.332 Q 833.7 663.532 832.89 666.622 Q 832.29 666.212 831.69 665.802 Q 831.05 665.372 830.37 665.202 Q 820.99 662.742 813.06 668.722 Q 812.01 669.512 812.15 668.202 Q 813.97 651.862 802.92 640.252 C 802.646 639.961 802.629 639.513 802.88 639.202 Q 804.38 637.332 805.83 636.582 Q 807.11 635.922 809.45 636.662 Q 816.06 638.762 822.63 640.272 C 823.237 640.407 823.872 640.222 824.31 639.782 Q 827.49 636.582 829.58 633.022 Q 830.08 632.152 830.6 632.082 Z " fill="rgb(113,38,79)"/><path d=" M 832.6 668.832 Q 832.75 671.692 831.72 674.362 Q 828.35 683.002 824.85 691.582 Q 822.83 691.412 820.93 692.092 Q 816.5 693.672 812.68 695.052 C 812.316 695.181 811.913 695.142 811.581 694.947 C 811.249 694.752 811.021 694.42 810.96 694.042 Q 809.35 684.032 811.14 674.082 Q 811.52 671.952 813.19 670.562 Q 814.09 669.812 816.53 668.542 Q 821.91 665.732 827.58 666.392 Q 830.03 666.682 832.6 668.832 Z " fill="rgb(113,38,79)"/><path d=" M 755.1 699.832 Q 753.81 695.382 753.64 693.082 Q 753.52 691.412 752.39 690.622 Q 757.71 690.152 762.87 688.742 Q 763.24 688.632 763.55 688.632 Q 765.17 688.622 763.33 689.692 Q 759.4 691.982 757.89 695.832 Q 756.86 698.462 755.1 699.832 Z " fill="rgb(139,79,76)"/><path d=" M 775.18 569.082 L 775.33 572.272 Q 775.42 574.352 773.7 572.772 Q 768.62 568.112 762.75 564.522 Q 759.52 562.562 756.42 564.602 Q 752.13 567.422 749.61 571.892 Q 746.73 577.002 744.93 582.582 Q 744.64 584.472 745.93 585.832 Q 746.22 590.882 742.78 594.702 C 742.626 594.873 742.571 595.111 742.634 595.333 C 742.697 595.554 742.869 595.727 743.09 595.792 Q 747.46 597.082 750.28 601.262 Q 750.35 601.362 750.69 601.712 Q 751.09 602.122 750.6 602.582 Q 741.25 597.122 730.39 597.042 Q 734.88 587.812 740.58 579.272 Q 742.24 576.772 745.17 571.072 Q 745.22 570.972 746.41 568.442 Q 752.09 556.362 765.47 562.472 Q 770.89 564.952 775.18 569.082 Z " fill="rgb(250,206,55)"/><path d=" M 737.64 599.872 Q 737.61 600.562 736.83 601.022 Q 734.36 602.462 732.63 605.142 Q 728.45 611.582 726.64 619.042 L 725.14 623.792 L 720.6 628.332 Q 719.95 628.412 720.1 627.572 Q 722.45 614.882 727.89 601.582 Q 728.58 599.902 729.89 599.292 Q 733.84 598.672 737.64 599.872 Z " fill="rgb(250,206,55)"/><path d=" M 724.43 627.332 Q 725.15 627.442 724.76 627.872 C 724.405 628.052 724.261 628.31 724.38 628.552 Q 723.31 635.372 726.33 643.142 Q 728.88 649.712 731.58 652.642 Q 734.27 655.572 738.47 655.072 C 738.799 655.046 739.122 655.165 739.34 655.392 L 750.93 668.582 Q 750.34 672.062 749.64 683.832 Q 749.46 686.882 745.93 688.082 Q 746.01 677.392 741.58 669.892 Q 739.27 665.982 734.56 666.432 Q 731.21 666.742 730.22 666.442 Q 727.21 665.512 725.2 662.522 Q 715.82 648.532 719.93 632.332 Q 721.77 629.462 724.43 627.332 Z " fill="rgb(250,206,55)"/><path d=" M 752.39 690.622 Q 753.52 691.412 753.64 693.082 Q 753.81 695.382 755.1 699.832 Q 755.56 702.202 754.6 704.332 Q 746.23 699.662 745.93 689.832 Q 749.26 689.302 752.39 690.622 Z " fill="rgb(250,206,55)"/><path d=" M 806.39 607.122 Q 805.78 610.132 802.95 609.522 Q 794.99 607.812 791.95 600.152 Q 791.61 599.302 791.82 598.482 Q 792.05 597.632 792.43 596.832 Q 793.74 596.232 794.95 597.522 Q 799.39 602.232 806.39 607.122 Z " fill="rgb(128,63,84)"/><path d=" M 810.68 599.832 Q 812.81 600.012 813.7 601.872 Q 813.89 602.272 814.25 602.682 Q 815.09 603.622 815.33 605.392 Q 815.66 607.822 815.9 610.262 C 815.906 610.561 816.083 610.842 816.38 611.022 Q 817.36 611.732 817.18 613.082 L 815.73 619.292 Q 815.09 622.032 813.33 619.652 L 807.28 611.442 C 807.074 611.193 807.035 610.856 807.18 610.572 Q 809.69 605.282 810.68 599.832 Z " fill="rgb(128,63,84)"/><path d=" M 794.68 585.582 L 808.89 596.122 Q 809.35 602.042 806.39 607.122 Q 799.39 602.232 794.95 597.522 Q 793.74 596.232 792.43 596.832 Q 792.23 590.912 794.68 585.582 Z " fill="rgb(110,39,71)"/><path d=" M 820.68 600.582 Q 827.52 607.182 829.14 614.582 Q 830.2 619.442 830.1 629.582 Q 826.61 635.622 823.23 629.162 Q 820.98 624.862 818.66 619.412 C 818.495 619.037 818.456 618.62 818.55 618.222 Q 820.57 609.312 820.68 600.582 Z " fill="rgb(110,39,71)"/><path d=" M 824.1 693.582 Q 821.1 701.162 816.14 707.622 Q 813.27 705.342 811.45 702.212 C 811.268 701.932 811.215 701.598 811.3 701.282 Q 811.8 699.102 812.95 698.392 Q 816.17 696.412 824.1 693.582 Z " fill="rgb(110,39,71)"/><path d=" M 815.68 708.582 Q 815.62 709.772 814.83 710.272 Q 812.51 711.722 809.18 712.502 Q 797.93 715.152 786.68 717.832 Q 787.49 712.962 788.58 710.272 Q 789.77 707.342 792.53 706.092 Q 793.96 705.442 797.88 705.252 Q 803.23 705.002 808.23 703.922 C 809.201 703.717 810.205 704.073 810.83 704.842 Q 812.94 707.452 815.68 708.582 Z " fill="rgb(110,39,71)"/><path d=" M 810.93 597.082 L 819.18 600.082 Q 819.12 606.742 817.18 613.082 Q 817.36 611.732 816.38 611.022 C 816.083 610.842 815.906 610.561 815.9 610.262 Q 815.66 607.822 815.33 605.392 Q 815.09 603.622 814.25 602.682 Q 813.89 602.272 813.7 601.872 Q 812.81 600.012 810.68 599.832 Q 810.4 598.402 810.93 597.082 Z " fill="rgb(116,47,71)"/><path d=" M 756.43 707.082 Q 760.73 708.532 765.17 709.482 Q 765.34 709.512 770.69 710.772 Q 777.93 712.482 785.39 711.172 C 785.514 711.152 785.642 711.186 785.737 711.266 C 785.832 711.345 785.885 711.462 785.88 711.582 Q 785.77 715.282 783.89 718.542 L 778.39 719.872 Q 771.45 721.642 766.7 717.522 Q 762.09 713.512 757.54 709.442 Q 756.48 708.492 756.43 707.082 Z " fill="rgb(116,47,71)"/><path d=" M 778.64 593.042 Q 779.8 593.582 779.34 594.872 C 779.188 595.169 779.174 595.499 779.3 595.802 Q 780.36 599.392 776.93 600.582 Q 775.07 596.212 778.64 593.042 Z " fill="rgb(255,203,82)"/><path d=" M 808.89 629.372 L 802.68 635.332 Q 802.54 634.112 802.95 633.392 Q 804.27 631.092 803.68 628.832 L 801.57 624.122 Q 800.78 622.372 801.93 623.912 Q 803.86 626.482 805.89 628.342 Q 807.15 629.502 808.89 629.372 Z " fill="rgb(107,49,46)"/><path d=" M 744.17 656.302 Q 740.35 654.472 741.95 651.892 Q 743.24 649.832 744.45 652.772 Q 745.2 654.572 745.13 655.742 C 745.113 655.961 744.989 656.157 744.798 656.269 C 744.607 656.381 744.372 656.393 744.17 656.302 L 744.17 656.302 Z " fill="rgb(255,224,72)"/><path d=" M 758.89 661.872 Q 754.64 671.822 754.2 675.392 Q 753.04 684.902 761.79 684.172 Q 763.24 684.052 763.48 684.042 Q 768.61 683.902 763.89 686.292 Q 761.25 686.852 757.14 687.082 Q 754.22 687.242 753.14 685.252 Q 752.69 684.442 752.18 681.472 Q 750.3 670.672 757.14 662.042 C 757.276 661.809 757.572 661.628 757.94 661.552 Q 758.44 661.532 758.89 661.872 Z " fill="rgb(249,187,67)"/><path d=" M 754.58 653.602 Q 749.67 647.162 750.64 638.332 Q 751.18 633.412 754.48 629.302 Q 757.17 625.942 757.25 625.842 Q 759.66 622.492 762.25 619.042 Q 763.3 617.642 764.94 618.262 Q 769.21 619.902 773.36 622.802 C 773.818 623.125 774.138 623.606 774.26 624.152 Q 775.52 629.802 777.28 634.372 Q 780 641.412 787.1 643.742 C 787.225 643.776 787.328 643.863 787.378 643.978 C 787.429 644.092 787.422 644.223 787.36 644.332 Q 783.26 652.772 776.95 657.642 Q 770.83 662.372 764.25 660.502 Q 758.62 658.902 754.58 653.602 Z " fill="rgb(156,107,80)"/><path d=" M 758.89 661.872 Q 765.36 663.982 771.88 663.172 Q 772.41 663.102 772.15 663.572 Q 766.55 673.602 767.66 685.292 C 767.69 685.603 767.522 685.899 767.24 686.032 Q 765.55 686.842 763.89 686.292 Q 768.61 683.902 763.48 684.042 Q 763.24 684.052 761.79 684.172 Q 753.04 684.902 754.2 675.392 Q 754.64 671.822 758.89 661.872 Z " fill="rgb(156,107,80)"/><path d=" M 776.93 600.582 Q 780.36 599.392 779.3 595.802 C 779.174 595.499 779.188 595.169 779.34 594.872 Q 779.8 593.582 778.64 593.042 Q 780.65 590.442 783.73 590.082 Q 786.65 589.732 788.04 589.962 Q 790.92 590.442 789.87 595.212 Q 789.32 597.742 787.55 599.642 Q 785.94 601.382 782.71 602.892 Q 780.71 603.832 779.42 603.572 Q 777.38 603.162 776.93 600.582 Z " fill="rgb(139,79,76)"/><path d=" M 782.89 605.872 Q 780.26 612.632 781.18 619.702 Q 781.21 619.902 781.73 625.002 Q 782.02 627.882 783.18 630.582 Q 783.93 633.572 785.6 636.112 Q 786.37 637.292 786.69 638.372 Q 787.04 639.582 787.39 640.792 Q 785.86 640.542 784.66 639.552 Q 780.11 635.762 778.25 630.092 Q 774.49 618.612 776.45 606.632 C 776.476 606.471 776.567 606.328 776.7 606.234 C 776.834 606.14 776.999 606.103 777.16 606.132 Q 779.91 606.582 782.89 605.872 Z " fill="rgb(139,79,76)"/><path d=" M 808.89 629.372 Q 807.15 629.502 805.89 628.342 Q 803.86 626.482 801.93 623.912 Q 800.78 622.372 801.57 624.122 L 803.68 628.832 Q 803.89 632.392 800.71 633.902 Q 799.04 634.702 797.88 636.132 C 797.683 636.338 797.387 636.453 797.08 636.442 Q 796.26 636.372 795.46 636.662 Q 792.07 637.902 789.28 635.882 Q 789.05 635.712 788.39 635.552 L 786.16 634.982 C 785.702 634.947 785.332 634.837 785.196 634.696 C 785.059 634.556 785.18 634.408 785.51 634.312 L 783.18 630.582 Q 782.02 627.882 781.73 625.002 Q 781.21 619.902 781.18 619.702 Q 780.26 612.632 782.89 605.872 L 788.73 602.102 C 788.84 602.038 788.972 602.02 789.096 602.052 C 789.22 602.084 789.326 602.163 789.39 602.272 Q 794.83 611.672 805.83 611.892 C 806.153 611.911 806.447 612.055 806.63 612.282 L 813.62 622.162 C 813.818 622.428 813.886 622.757 813.81 623.072 Q 813.02 627.452 808.89 629.372 Z " fill="rgb(129,58,101)"/><path d=" M 785.93 686.082 Q 785.73 685.042 785.99 684.052 C 786.135 683.765 786.074 683.438 785.83 683.202 Q 782.12 678.852 774.04 679.172 C 773.174 679.207 772.354 678.781 771.89 678.052 Q 771.63 677.642 770.43 678.582 Q 771.31 671.222 774.78 664.912 Q 776.12 662.482 781.33 656.442 Q 785.6 651.502 788.87 646.182 Q 789.83 644.622 791.29 644.172 L 800.15 641.432 C 800.462 641.38 800.785 641.466 801.01 641.662 Q 808.56 648.632 810.04 658.452 Q 810.58 662.062 809.68 667.682 Q 808.96 672.262 808.14 676.832 Q 807.79 678.772 807.83 682.162 Q 807.83 682.302 807.77 687.012 Q 807.7 692.372 809.44 697.472 Q 810.02 699.172 808.59 700.262 Q 806.58 701.782 804.21 702.192 Q 801.62 702.642 799.59 702.702 Q 797.7 702.762 795.99 701.952 Q 794.56 701.272 793.28 699.652 Q 790.59 696.232 788.89 691.332 Q 788.68 690.732 787.12 687.762 Q 787.01 687.562 786.9 686.832 Q 786.79 686.142 785.93 686.082 Z " fill="rgb(129,58,101)"/><path d=" M 768.39 707.292 Q 767.71 705.712 768.44 704.322 C 768.552 704.063 768.814 703.844 769.17 703.712 Q 771.17 702.872 771.64 701.332 Q 772.89 697.262 769.77 696.982 Q 768.35 696.852 766.02 696.922 Q 764 696.982 762.18 698.082 Q 762.52 695.262 765.08 694.272 Q 767.72 693.252 768.85 691.082 Q 770.03 690.382 771.37 690.892 Q 778.73 693.652 785.63 690.132 C 785.742 690.077 785.873 690.07 785.991 690.114 C 786.109 690.158 786.203 690.248 786.25 690.362 Q 788.46 696.182 792.35 701.842 C 792.491 702.049 792.534 702.308 792.469 702.55 C 792.404 702.792 792.236 702.994 792.01 703.102 Q 789.8 704.152 788.19 706.362 Q 787.24 707.682 785.66 708.082 Q 776.91 710.282 768.39 707.292 Z " fill="rgb(129,58,101)"/><path d=" M 768.85 691.082 Q 767.72 693.252 765.08 694.272 Q 762.52 695.262 762.18 698.082 Q 759.27 700.852 758.89 704.582 Q 758.81 705.342 758.14 705.372 Q 756.34 704.952 756.9 703.232 Q 757.04 702.792 757.02 702.282 Q 756.99 701.702 757.19 701.102 Q 760.06 692.712 768.85 691.082 Z " fill="rgb(176,111,93)"/><path d=" M 791.33 585.462 Q 791.44 586.592 790.48 587.342 Q 789.84 587.832 788.68 587.812 Q 784.68 587.732 780.7 587.992 C 780.373 588 780.055 587.897 779.81 587.702 Q 778.09 586.202 777.76 583.892 C 777.699 583.574 777.771 583.246 777.96 582.972 Q 780 579.702 782.49 578.142 Q 784.24 577.052 785.58 578.622 Q 787.74 581.172 790.03 583.392 Q 791.24 584.562 791.33 585.462 Z " fill="rgb(128,63,84)"/><path d=" M 803.68 628.832 Q 804.27 631.092 802.95 633.392 Q 802.54 634.112 802.68 635.332 Q 796.73 642.352 787.39 640.792 Q 787.04 639.582 786.69 638.372 Q 786.37 637.292 785.6 636.112 Q 783.93 633.572 783.18 630.582 L 785.51 634.312 C 785.18 634.408 785.059 634.556 785.196 634.696 C 785.332 634.837 785.702 634.947 786.16 634.982 L 788.39 635.552 Q 789.05 635.712 789.28 635.882 Q 792.07 637.902 795.46 636.662 Q 796.26 636.372 797.08 636.442 C 797.387 636.453 797.683 636.338 797.88 636.132 Q 799.04 634.702 800.71 633.902 Q 803.89 632.392 803.68 628.832 Z " fill="rgb(128,63,84)"/><path d=" M 785.93 686.082 Q 785.35 687.642 784.33 688.272 Q 781.48 690.022 778.2 689.822 Q 774.92 689.632 772.65 687.582 Q 769.08 684.352 770.43 678.582 Q 771.63 677.642 771.89 678.052 C 772.354 678.781 773.174 679.207 774.04 679.172 Q 782.12 678.852 785.83 683.202 C 786.074 683.438 786.135 683.765 785.99 684.052 Q 785.73 685.042 785.93 686.082 Z " fill="rgb(128,63,84)"/><path d=" M 768.39 707.292 L 758.14 705.372 Q 758.81 705.342 758.89 704.582 Q 759.27 700.852 762.18 698.082 Q 764 696.982 766.02 696.922 Q 768.35 696.852 769.77 696.982 Q 772.89 697.262 771.64 701.332 Q 771.17 702.872 769.17 703.712 C 768.814 703.844 768.552 704.063 768.44 704.322 Q 767.71 705.712 768.39 707.292 Z " fill="rgb(128,63,84)"/><path d=" M 807.99 634.282 Q 806.79 633.922 807.89 633.282 Q 814.21 629.602 817.21 622.632 Q 817.93 620.952 818.64 622.642 Q 821.18 628.642 825.82 634.202 C 825.979 634.298 826.079 634.441 826.092 634.596 C 826.105 634.751 826.032 634.903 825.89 635.012 L 823.33 637.952 C 822.9 638.338 822.255 638.491 821.65 638.352 L 807.99 634.282 Z " fill="rgb(110,39,71)"/><path d=" M 797.2 675.522 Q 803.93 681.822 798.9 689.302 Q 798.57 689.792 798.12 690.092 Q 796.16 691.402 797.14 688.832 Q 799.7 682.102 795.01 675.922 C 794.888 675.821 794.822 675.681 794.828 675.536 C 794.834 675.39 794.911 675.255 795.04 675.162 Q 795.98 674.372 797.2 675.522 Z " fill="rgb(116,47,71)"/></g></g></svg>