<?xml version="1.0" encoding="UTF-8" standalone="no"?><!-- Generator: Gravit.io --><svg xmlns="http://www.w3.org/2000/svg" xmlns:xlink="http://www.w3.org/1999/xlink" style="isolation:isolate" viewBox="108.832 164.571 161.803 157.258" width="161.803pt" height="157.258pt"><defs><clipPath id="_clipPath_G0YoINT09KxVyFVytGyw9EgS86SAEmBr"><rect x="108.832" y="164.571" width="161.803" height="157.258"/></clipPath></defs><g clip-path="url(#_clipPath_G0YoINT09KxVyFVytGyw9EgS86SAEmBr)"><path d=" M 192.134 168.902 Q 188.604 170.342 189.754 171.772 Q 190.284 172.432 192.024 172.912 Q 208.514 177.472 221.804 188.282 Q 224.464 190.442 225.384 193.792 Q 225.814 195.382 227.954 198.382 Q 229.984 201.242 228.684 205.422 Q 227.884 207.992 228.834 210.502 Q 232.474 220.122 231.564 230.332 Q 231.524 230.722 231.254 231.242 Q 230.514 232.662 231.814 233.822 C 232.078 234.027 232.206 234.335 232.154 234.642 Q 231.024 246.732 224.224 256.152 Q 222.484 258.572 214.494 267.212 Q 209.494 272.622 204.304 277.862 Q 202.244 279.942 197.324 282.882 Q 195.214 284.152 195.534 282.112 Q 195.684 281.182 195.554 280.662 Q 194.844 277.752 192.334 277.492 Q 190.294 277.272 188.594 278.662 Q 185.744 280.982 188.414 285.222 C 188.537 285.414 188.565 285.652 188.491 285.868 C 188.417 286.085 188.249 286.255 188.034 286.332 Q 177.274 290.182 165.504 287.622 Q 154.364 285.202 144.504 279.552 Q 144.394 279.482 141.964 278.222 Q 139.754 277.082 138.034 275.242 C 137.816 275.027 137.513 274.904 137.194 274.902 Q 133.564 274.922 130.454 272.632 Q 129.254 271.752 127.554 271.822 Q 123.034 267.062 124.264 261.072 Q 124.924 257.852 121.834 257.652 Q 115.794 257.262 118.304 252.782 Q 118.334 252.732 119.704 250.822 Q 122.354 247.102 120.814 242.702 Q 120.234 241.072 118.524 240.822 Q 114.844 240.292 111.694 241.202 Q 107.814 242.312 109.194 238.522 Q 111.314 232.732 116.954 230.262 Q 119.074 229.332 120.574 225.462 Q 123.394 218.172 125.344 210.602 Q 126.764 205.092 127.774 203.262 Q 129.684 199.782 132.984 197.292 Q 134.354 196.252 135.554 195.022 Q 136.714 193.842 137.124 192.092 Q 137.504 190.512 137.774 188.912 Q 137.844 188.492 138.474 185.772 Q 139.214 182.602 138.294 179.432 Q 137.924 178.152 137.884 177.682 Q 137.634 174.952 140.454 177.382 Q 141.544 178.332 144.834 184.082 C 144.974 184.318 145.271 184.42 145.534 184.322 Q 155.494 180.112 157.554 169.332 Q 157.894 167.542 158.554 165.722 Q 159.264 163.712 160.784 165.212 Q 162.074 166.492 163.404 167.822 Q 164.974 169.402 166.324 170.032 Q 170.074 171.782 173.954 170.512 Q 183.334 167.422 192.134 168.902 Z " fill="rgb(255,215,100)"/><path d=" M 127.554 271.822 Q 129.254 271.752 130.454 272.632 Q 133.564 274.922 137.194 274.902 C 137.513 274.904 137.816 275.027 138.034 275.242 Q 139.754 277.082 141.964 278.222 Q 144.394 279.482 144.504 279.552 Q 154.364 285.202 165.504 287.622 Q 177.274 290.182 188.034 286.332 C 188.249 286.255 188.417 286.085 188.491 285.868 C 188.565 285.652 188.537 285.414 188.414 285.222 Q 185.744 280.982 188.594 278.662 Q 190.294 277.272 192.334 277.492 Q 194.844 277.752 195.554 280.662 Q 195.684 281.182 195.534 282.112 Q 195.214 284.152 197.324 282.882 Q 202.244 279.942 204.304 277.862 Q 209.494 272.622 214.494 267.212 Q 222.484 258.572 224.224 256.152 Q 231.024 246.732 232.154 234.642 C 232.206 234.335 232.078 234.027 231.814 233.822 Q 230.514 232.662 231.254 231.242 Q 231.524 230.722 231.564 230.332 Q 232.474 220.122 228.834 210.502 Q 227.884 207.992 228.684 205.422 Q 229.984 201.242 227.954 198.382 Q 225.814 195.382 225.384 193.792 Q 224.464 190.442 221.804 188.282 Q 208.514 177.472 192.024 172.912 Q 190.284 172.432 189.754 171.772 Q 188.604 170.342 192.134 168.902 Q 196.514 169.872 201.254 170.632 Q 206.354 171.442 208.584 166.872 Q 209.244 165.522 209.944 166.872 L 214.414 175.422 Q 215.254 177.032 217.104 176.692 Q 221.564 175.882 225.154 177.242 Q 228.104 178.362 231.274 178.072 Q 233.974 177.822 234.874 180.382 Q 235.754 182.892 236.014 186.072 Q 236.274 189.182 239.914 191.202 Q 245.664 194.402 251.994 196.122 Q 252.484 196.252 255.584 196.432 Q 258.034 196.582 258.264 198.902 Q 258.374 199.942 257.564 201.992 Q 256.184 205.532 255.954 209.262 Q 255.744 212.702 257.464 216.602 Q 259.114 220.342 261.184 223.892 Q 262.854 226.772 263.784 229.912 Q 264.434 232.122 264.784 236.322 Q 265.174 240.992 265.574 245.662 Q 265.814 248.442 266.554 249.842 Q 267.524 251.672 269.324 253.262 Q 271.594 255.252 269.934 256.632 Q 269.194 257.242 267.404 257.502 Q 265.694 257.742 264.004 258.072 Q 262.134 258.442 261.314 260.162 Q 259.004 264.972 260.704 270.132 Q 261.874 273.702 257.994 274.762 Q 255.704 275.382 253.384 275.902 Q 250.244 276.602 249.054 277.602 Q 246.954 279.362 246.514 282.572 Q 245.824 287.622 245.784 291.322 Q 245.714 298.852 244.264 302.572 Q 242.854 306.192 239.124 303.692 Q 235.364 301.192 232.374 299.822 Q 229.704 298.612 228.014 301.012 Q 224.964 305.342 220.324 305.152 Q 217.314 305.032 217.004 307.612 C 216.914 308.348 216.403 308.965 215.694 309.192 Q 210.994 310.682 209.564 314.752 Q 208.454 317.932 206.764 321.002 C 206.559 321.376 206.213 321.652 205.804 321.768 C 205.394 321.885 204.954 321.832 204.584 321.622 Q 203.224 320.852 202.194 319.552 Q 201.724 318.952 200.714 316.832 Q 197.584 310.222 190.544 308.192 Q 190.504 308.182 187.444 307.682 Q 185.134 307.292 181.704 305.882 Q 177.944 304.342 174.834 306.862 Q 172.874 308.452 170.904 309.632 Q 168.544 311.062 167.204 308.642 Q 165.174 304.962 163.294 301.212 Q 161.584 297.812 157.994 301.172 Q 157.004 302.102 155.684 302.472 Q 154.324 302.852 154.084 300.812 Q 153.774 298.142 154.424 295.902 C 154.579 295.375 154.33 294.815 153.834 294.572 Q 149.414 292.382 145.694 289.842 Q 143.314 288.232 142.204 286.382 Q 141.304 284.892 139.574 285.062 Q 135.254 285.482 131.484 286.202 Q 129.224 286.632 128.404 286.432 Q 126.184 285.912 127.324 282.632 Q 129.104 277.542 127.554 271.822 Z " fill="rgb(235,132,113)"/><path d=" M 192.504 216.132 Q 190.994 215.352 191.034 211.822 Q 191.074 208.052 194.074 206.312 C 194.333 206.164 194.664 206.214 194.864 206.432 Q 195.624 207.312 195.764 208.482 Q 195.954 210.092 196.254 210.532 Q 196.834 211.382 197.794 211.822 Q 199.064 212.412 199.334 212.862 Q 200.394 214.662 196.504 216.292 Q 194.464 217.152 192.504 216.132 Z " fill="rgb(248,143,119)"/><path d=" M 215.684 245.902 Q 212.824 243.962 214.114 241.632 Q 215.064 239.912 217.204 239.732 Q 220.854 239.432 219.764 244.322 Q 218.924 248.102 215.684 245.902 Z " fill="rgb(248,143,119)"/><path d=" M 167.169 181.626 C 169.211 181.78 170.701 184.143 170.493 186.9 C 170.286 189.657 168.46 191.771 166.418 191.618 C 164.376 191.464 162.887 189.101 163.094 186.344 C 163.302 183.586 165.128 181.472 167.169 181.626 Z " fill="rgb(242,153,118)"/><path d=" M 144.092 203.683 C 147.004 204.501 148.553 208.064 147.549 211.635 C 146.546 215.205 143.367 217.44 140.455 216.621 C 137.544 215.803 135.995 212.239 136.998 208.669 C 138.002 205.098 141.181 202.864 144.092 203.683 Z " fill="rgb(242,153,118)"/><path d=" M 162.586 212.775 C 162.158 211.782 162.782 210.557 163.979 210.042 C 165.175 209.527 166.493 209.915 166.921 210.908 C 167.349 211.902 166.725 213.127 165.529 213.642 C 164.333 214.157 163.014 213.769 162.586 212.775 Z " fill="rgb(242,153,118)"/><path d=" M 214.344 215.682 Q 213.344 215.122 212.574 213.752 C 212.364 213.383 212.34 212.937 212.509 212.547 C 212.678 212.158 213.021 211.871 213.434 211.772 Q 217.834 210.702 216.634 214.752 Q 216.074 216.652 214.344 215.682 Z " fill="rgb(242,153,118)"/><path d=" M 215.664 221.732 C 216.377 221.836 216.864 222.42 216.764 223.052 Q 216.794 226.382 215.374 228.942 C 215.184 229.234 214.858 229.418 214.501 229.433 C 214.144 229.449 213.801 229.296 213.584 229.022 L 209.254 223.262 Q 207.644 221.112 210.184 221.312 L 215.664 221.732 Z " fill="rgb(242,153,118)"/><path d=" M 152.144 238.652 C 151.502 238.598 150.908 238.292 150.494 237.802 Q 148.404 235.322 147.654 232.882 Q 147.154 231.242 148.074 230.042 Q 149.074 228.722 150.794 228.372 C 151.009 228.329 151.232 228.379 151.408 228.509 C 151.584 228.638 151.695 228.836 151.714 229.052 Q 152.054 232.772 154.664 233.442 Q 156.194 233.832 159.104 232.732 Q 161.464 231.852 163.784 230.812 Q 165.684 229.962 166.074 232.002 Q 166.664 235.012 165.014 236.872 Q 163.794 238.252 160.934 238.532 Q 156.484 238.982 152.144 238.652 Z " fill="rgb(242,153,118)"/><path d=" M 183.064 252.382 Q 180.284 248.992 179.784 244.742 Q 179.354 241.052 181.514 237.852 Q 184.574 233.322 189.834 231.552 Q 192.734 230.582 195.694 231.582 Q 198.394 232.492 201.574 234.262 Q 204.224 235.732 204.114 238.312 Q 203.884 243.662 201.334 248.362 Q 198.154 254.202 190.514 254.822 Q 188.084 255.022 186.344 254.612 Q 184.554 254.202 183.064 252.382 Z " fill="rgb(242,153,118)"/><path d=" M 163.016 253.676 C 162.896 252.33 164.227 251.109 165.986 250.952 C 167.745 250.795 169.271 251.761 169.391 253.107 C 169.511 254.454 168.181 255.675 166.422 255.832 C 164.662 255.989 163.137 255.023 163.016 253.676 Z " fill="rgb(242,153,118)"/><path d=" M 149.814 263.542 Q 147.954 262.322 149.814 261.092 Q 152.724 259.192 154.974 260.752 Q 156.134 261.562 156.164 262.932 Q 156.204 264.822 154.234 265.212 Q 153.154 265.432 151.914 264.782 Q 150.864 264.232 149.814 263.542 Z " fill="rgb(242,153,118)"/><path d=" M 172.204 271.132 Q 168.854 268.622 170.364 264.722 C 170.552 264.352 170.912 264.083 171.341 263.992 C 171.77 263.9 172.22 263.996 172.564 264.252 L 175.654 266.742 C 175.911 266.949 176.249 267.03 176.574 266.962 L 182.594 265.632 C 183.379 265.489 184.151 265.919 184.354 266.612 Q 184.924 269.092 183.314 270.452 Q 182.434 271.192 180.154 272.082 Q 175.734 273.792 172.204 271.132 Z " fill="rgb(242,153,118)"/><path d=" M 185.206 185.682 C 187.05 186.834 187.421 189.571 186.035 191.79 C 184.649 194.008 182.026 194.874 180.182 193.722 C 178.338 192.569 177.966 189.833 179.352 187.614 C 180.739 185.395 183.361 184.53 185.206 185.682 Z " fill="rgb(245,151,126)"/><path d=" M 212.487 186.067 C 216.071 185.48 219.503 188.196 220.147 192.129 C 220.791 196.061 218.404 199.73 214.821 200.317 C 211.237 200.904 207.804 198.188 207.16 194.255 C 206.516 190.323 208.903 186.654 212.487 186.067 Z " fill="rgb(245,151,126)"/><path d=" M 196.874 270.472 Q 192.984 268.462 196.704 265.052 Q 198.134 263.752 199.424 265.192 Q 202.114 268.212 199.034 270.342 C 198.392 270.779 197.563 270.829 196.874 270.472 L 196.874 270.472 Z " fill="rgb(245,151,126)"/><path d=" M 133.954 278.002 C 133.997 277.862 134.112 277.754 134.257 277.718 C 134.402 277.681 134.556 277.72 134.664 277.822 Q 136.184 279.412 135.904 280.842 C 135.877 280.973 135.792 281.085 135.673 281.149 C 135.553 281.212 135.411 281.221 135.284 281.172 Q 133.244 280.412 133.954 278.002 Z " fill="rgb(213,102,104)"/><path d=" M 234.574 296.292 C 234.387 296.16 234.276 295.949 234.274 295.725 C 234.272 295.5 234.379 295.288 234.564 295.152 L 240.044 290.662 C 240.282 290.474 240.595 290.403 240.893 290.469 C 241.191 290.535 241.442 290.731 241.574 291.002 Q 242.354 292.682 242.134 294.392 Q 241.904 296.152 240.394 297.042 Q 237.704 298.632 234.574 296.292 Z " fill="rgb(213,102,104)"/><path d=" M 250.124 242.512 Q 251.284 240.992 252.634 239.582 C 253.138 239.047 253.91 238.858 254.604 239.102 Q 259.094 240.682 257.204 245.262 Q 256.374 247.262 252.974 249.052 Q 250.044 250.602 247.474 248.812 C 247.204 248.625 247.014 248.343 246.944 248.022 Q 246.474 245.882 247.904 244.592 Q 249.914 242.782 250.124 242.512 Z " fill="rgb(220,102,118)"/><path d=" M 223.814 285.202 C 223.316 284.764 223.205 284.074 223.544 283.522 Q 224.974 280.512 226.704 278.262 Q 228.064 276.482 228.094 273.832 Q 228.124 271.662 228.524 270.892 Q 229.504 269.032 231.594 269.532 Q 231.674 269.552 234.164 271.072 Q 235.434 271.842 237.044 271.572 Q 238.974 271.242 239.024 271.242 Q 243.434 271.072 242.624 274.622 Q 242.254 276.262 240.724 278.112 Q 235.004 285.032 225.824 286.442 C 225.488 286.457 225.157 286.385 224.914 286.242 L 223.814 285.202 Z " fill="rgb(220,102,118)"/><path d=" M 192.894 306.332 Q 189.944 303.852 193.784 304.152 Q 199.264 304.572 204.684 300.812 C 204.917 300.65 205.207 300.593 205.484 300.654 C 205.761 300.714 206 300.888 206.144 301.132 Q 207.944 304.102 206.364 306.262 Q 205.224 307.812 202.594 308.602 Q 197.444 310.162 192.894 306.332 Z " fill="rgb(220,102,118)"/></g></svg>