<?xml version="1.0" encoding="UTF-8" standalone="no"?><!-- Generator: Gravit.io --><svg xmlns="http://www.w3.org/2000/svg" xmlns:xlink="http://www.w3.org/1999/xlink" style="isolation:isolate" viewBox="102.609 152.373 174.249 181.654" width="174.249pt" height="181.654pt"><defs><clipPath id="_clipPath_2XQHfmMUKOK0mABatNHuODBFXYFhrne0"><rect x="102.609" y="152.373" width="174.249" height="181.654"/></clipPath></defs><g clip-path="url(#_clipPath_2XQHfmMUKOK0mABatNHuODBFXYFhrne0)"><path d=" M 236.489 250.052 Q 237.169 252.272 235.449 253.592 Q 233.579 254.022 232.549 252.402 Q 231.779 251.192 230.949 250.012 Q 233.359 243.702 236.489 250.052 Z " fill="rgb(241,109,59)"/><path d=" M 161.989 203.552 Q 162.549 203.652 162.949 204.092 Q 163.049 205.282 161.949 205.842 Q 161.069 205.702 160.239 206.052 L 160.199 205.092 Q 160.829 204.732 161.319 204.982 C 161.55 205.063 161.836 205.047 162.039 204.942 Q 162.419 204.372 161.989 203.552 Z " fill="rgb(254,204,128)"/><path d=" M 235.909 281.552 L 246.159 294.052 Q 245.809 294.202 245.659 294.552 L 235.199 281.842 Q 235.599 281.802 235.909 281.552 Z " fill="rgb(29,31,52)"/><path d=" M 161.989 203.552 Q 162.419 204.372 162.039 204.942 C 161.836 205.047 161.55 205.063 161.319 204.982 Q 160.829 204.732 160.199 205.092 Q 152.849 197.092 144.619 190.972 Q 143.239 189.952 144.189 191.372 Q 150.099 200.312 158.199 207.092 Q 158.009 208.872 155.399 208.472 Q 149.099 202.412 143.379 195.922 Q 138.409 190.292 136.149 188.012 Q 131.009 182.822 128.259 180.742 Q 125.549 178.682 128.499 178.402 Q 129.319 178.332 130.209 178.682 Q 136.759 181.262 142.169 185.822 Q 148.129 190.842 153.669 196.332 Q 157.589 200.222 161.989 203.552 Z " fill="rgb(240,243,224)"/><path d=" M 154.449 189.262 Q 161.179 195.162 166.839 201.892 Q 165.849 203.502 164.449 203.592 Q 157.709 198.472 151.659 192.552 Q 152.559 190.472 154.449 189.262 Z " fill="rgb(179,214,218)"/><path d=" M 161.949 205.842 Q 161.469 207.792 159.909 206.552 L 160.239 206.052 Q 161.069 205.702 161.949 205.842 Z " fill="rgb(252,167,71)"/><path d=" M 174.159 215.552 Q 173.239 221.572 177.489 225.552 Q 177.669 228.262 175.199 229.092 Q 170.869 223.802 169.349 216.582 C 169.26 216.167 169.327 215.733 169.539 215.362 Q 170.889 212.952 172.119 214.162 C 172.346 214.382 172.629 214.537 172.939 214.612 Q 173.759 214.792 174.159 215.552 Z " fill="rgb(255,183,61)"/><path d=" M 146.139 217.342 L 155.949 228.762 L 154.739 232.552 Q 154.419 231.682 153.229 232.252 C 152.941 232.381 152.604 232.347 152.349 232.162 Q 151.429 231.472 150.059 232.562 C 149.806 232.758 149.468 232.807 149.169 232.692 Q 147.529 232.042 147.649 233.562 Q 147.689 234.132 148.139 234.822 Q 149.979 237.612 151.849 240.312 C 152.059 240.605 152.063 240.996 151.859 241.292 Q 149.929 244.162 149.339 246.982 Q 148.889 249.102 150.819 250.112 Q 153.659 251.602 155.469 254.272 Q 156.399 255.652 157.249 255.982 Q 159.239 256.752 159.739 254.052 L 161.969 258.102 C 162.187 258.38 162.198 258.724 161.999 259.012 L 158.819 268.532 Q 156.479 265.612 154.409 262.602 Q 152.689 260.092 151.109 261.532 Q 150.239 262.332 149.789 263.912 Q 148.539 268.352 152.619 271.552 C 153.291 272.073 154.222 272.105 154.929 271.632 Q 156.529 270.542 158.159 270.802 L 157.629 274.982 Q 157.339 277.312 159.409 277.742 Q 165.099 278.932 170.829 277.452 C 171.343 277.322 171.887 277.474 172.259 277.852 Q 176.079 281.732 175.269 286.072 Q 162.959 285.312 150.899 282.042 Q 144.299 275.292 140.659 266.302 Q 144.729 265.452 146.319 262.262 Q 147.709 259.462 147.539 256.232 Q 147.349 252.592 143.889 250.612 Q 139.759 248.262 136.699 252.342 Q 134.419 251.042 136.139 248.052 C 136.299 247.773 136.57 247.57 136.889 247.492 Q 140.649 246.562 142.559 243.542 Q 143.979 241.292 144.289 239.612 Q 144.779 236.942 141.629 235.442 Q 140.189 234.752 138.289 234.272 C 138.069 234.218 137.882 234.072 137.775 233.872 C 137.668 233.672 137.651 233.436 137.729 233.222 Q 140.439 225.622 144.749 218.712 Q 144.789 218.652 144.949 218.252 Q 145.179 217.702 146.139 217.342 Z " fill="rgb(212,122,29)"/><path d=" M 177.489 225.552 Q 177.959 225.412 178.199 225.762 Q 177.069 227.472 178.509 228.492 Q 179.419 229.132 179.959 229.542 Q 180.569 230.012 180.949 230.952 Q 182.279 234.232 184.999 236.542 C 185.285 236.747 185.422 237.062 185.359 237.372 Q 185.219 238.622 184.289 237.582 Q 183.949 237.192 183.649 236.982 Q 178.919 233.572 175.199 229.092 Q 177.669 228.262 177.489 225.552 Z " fill="rgb(230,161,34)"/><path d=" M 157.489 230.552 L 160.909 234.052 Q 179.169 254.292 198.339 273.592 Q 197.829 274.422 196.919 274.862 C 196.616 274.981 196.276 274.999 195.959 274.912 Q 193.229 274.062 190.759 271.242 Q 187.679 267.702 180.229 262.852 Q 180.809 259.642 179.459 256.532 C 179.264 256.059 178.759 255.762 178.219 255.802 L 168.449 257.202 C 168.124 257.22 167.801 257.156 167.539 257.022 Q 166.109 255.962 164.639 253.612 Q 159.719 245.772 157.479 236.792 Q 156.689 233.652 157.489 230.552 Z " fill="rgb(209,131,26)"/><path d=" M 169.199 233.092 Q 186.579 251.102 204.969 268.072 L 221.229 283.032 L 225.069 286.672 Q 225.669 288.052 228.259 290.742 Q 233.369 296.042 234.949 297.262 L 234.699 297.342 L 233.389 296.602 C 233.315 296.567 233.221 296.575 233.159 296.622 Q 231.199 299.272 228.709 300.642 L 219.949 293.012 Q 217.699 290.272 214.739 288.302 L 202.449 277.512 L 198.339 273.592 Q 179.169 254.292 160.909 234.052 L 165.699 233.742 Q 166.299 233.702 166.619 233.512 Q 167.769 232.832 169.199 233.092 Z " fill="rgb(165,214,210)"/><path d=" M 188.739 183.302 Q 188.469 183.782 187.989 184.052 Q 187.559 183.652 186.949 183.762 Q 187.749 181.982 188.739 183.302 Z " fill="rgb(172,79,37)"/><path d=" M 175.949 199.092 Q 176.949 200.942 177.159 203.052 Q 176.869 203.312 176.489 203.302 L 175.949 199.092 Z " fill="rgb(172,79,37)"/><path d=" M 214.239 206.552 Q 225.239 213.242 231.949 224.262 Q 226.179 226.702 224.079 232.652 Q 221.179 226.202 218.969 219.752 Q 218.259 217.682 216.889 216.022 Q 215.109 213.872 214.739 212.612 Q 213.879 209.672 214.239 206.552 Z " fill="rgb(172,79,37)"/><path d=" M 236.819 235.882 Q 238.939 242.872 238.909 249.802 Q 237.619 249.292 236.489 250.052 Q 233.359 243.702 230.949 250.012 Q 228.939 250.532 227.739 252.302 L 228.289 238.882 Q 233.169 239.372 236.819 235.882 Z " fill="rgb(172,79,37)"/><path d=" M 188.739 183.302 Q 190.129 185.172 190.169 187.552 Q 190.249 192.792 190.829 198.042 Q 188.759 198.322 186.699 199.592 Q 185.789 199.182 185.199 198.342 Q 187.329 191.332 187.989 184.052 Q 188.469 183.782 188.739 183.302 Z " fill="rgb(121,72,24)"/><path d=" M 185.199 198.342 Q 185.789 199.182 186.699 199.592 Q 189.879 203.582 188.979 208.352 Q 188.949 208.512 187.809 210.872 Q 186.919 212.702 189.069 214.492 Q 190.489 215.682 190.269 217.512 Q 188.879 228.902 178.199 225.762 Q 177.959 225.412 177.489 225.552 Q 173.239 221.572 174.159 215.552 Q 174.229 212.052 175.449 208.762 Q 176.439 206.132 176.489 203.302 Q 176.869 203.312 177.159 203.052 Q 177.369 205.622 177.569 208.192 Q 177.739 210.282 178.229 211.322 Q 178.999 212.982 180.449 213.772 Q 182.479 214.892 183.379 212.752 Q 185.169 208.542 183.649 204.232 Q 182.199 200.142 181.139 198.112 Q 180.299 196.512 180.579 195.032 C 180.603 194.926 180.683 194.839 180.789 194.805 C 180.896 194.77 181.013 194.792 181.099 194.862 L 185.199 198.342 Z " fill="rgb(97,45,25)"/><path d=" M 155.949 228.762 L 157.489 230.552 Q 156.689 233.652 157.479 236.792 Q 159.719 245.772 164.639 253.612 Q 166.109 255.962 167.539 257.022 C 167.801 257.156 168.124 257.22 168.449 257.202 L 178.219 255.802 C 178.759 255.762 179.264 256.059 179.459 256.532 Q 180.809 259.642 180.229 262.852 Q 178.719 269.812 174.059 274.452 C 173.964 274.537 173.915 274.656 173.925 274.778 C 173.935 274.9 174.002 275.011 174.109 275.082 L 177.909 278.302 L 179.949 282.012 L 177.199 298.262 Q 174.159 299.842 175.539 302.932 Q 176.129 304.262 176.149 304.322 Q 178.469 310.422 180.739 316.552 L 180.209 317.682 L 172.919 302.432 C 172.591 301.753 171.941 301.271 171.179 301.142 Q 168.089 300.632 165.909 301.672 Q 164.099 302.522 163.429 302.572 Q 162.059 302.682 160.699 302.342 Q 163.719 301.742 166.469 298.542 C 166.64 298.412 166.74 298.225 166.741 298.028 C 166.743 297.832 166.648 297.644 166.479 297.512 L 163.199 294.512 Q 161.579 293.972 162.739 292.802 Q 167.049 294.292 170.839 298.212 C 170.955 298.326 171.122 298.375 171.283 298.343 C 171.443 298.31 171.577 298.201 171.639 298.052 Q 174.139 291.742 175.269 286.072 Q 176.079 281.732 172.259 277.852 C 171.887 277.474 171.343 277.322 170.829 277.452 Q 165.099 278.932 159.409 277.742 Q 157.339 277.312 157.629 274.982 L 158.159 270.802 L 158.819 268.532 L 161.999 259.012 C 162.198 258.724 162.187 258.38 161.969 258.102 L 159.739 254.052 Q 155.169 244.772 153.949 239.552 Q 153.369 237.082 154.739 232.552 L 155.949 228.762 Z " fill="rgb(97,45,25)"/><path d=" M 140.659 266.302 Q 139.859 265.122 138.199 265.532 Q 131.209 267.272 125.439 263.362 Q 125.619 261.612 126.449 261.262 Q 131.569 263.462 136.989 261.802 Q 141.109 261.582 143.309 258.542 Q 144.519 256.882 144.489 255.332 Q 144.439 253.192 141.939 252.342 Q 139.229 251.412 137.449 253.512 Q 137.219 253.722 136.949 253.762 Q 136.649 253.062 136.699 252.342 Q 139.759 248.262 143.889 250.612 Q 147.349 252.592 147.539 256.232 Q 147.709 259.462 146.319 262.262 Q 144.729 265.452 140.659 266.302 Z " fill="rgb(97,45,25)"/><path d=" M 175.779 197.962 Q 175.459 198.452 175.949 199.092 L 176.489 203.302 Q 176.439 206.132 175.449 208.762 Q 174.229 212.052 174.159 215.552 Q 173.759 214.792 172.939 214.612 C 172.629 214.537 172.346 214.382 172.119 214.162 Q 170.889 212.952 169.539 215.362 C 169.327 215.733 169.26 216.167 169.349 216.582 Q 170.869 223.802 175.199 229.092 Q 178.919 233.572 183.649 236.982 Q 183.949 237.192 184.289 237.582 Q 185.219 238.622 185.359 237.372 C 185.422 237.062 185.285 236.747 184.999 236.542 Q 182.279 234.232 180.949 230.952 Q 180.569 230.012 179.959 229.542 Q 179.419 229.132 178.509 228.492 Q 177.069 227.472 178.199 225.762 Q 188.879 228.902 190.269 217.512 Q 190.489 215.682 189.069 214.492 Q 186.919 212.702 187.809 210.872 Q 188.949 208.512 188.979 208.352 Q 189.879 203.582 186.699 199.592 Q 188.759 198.322 190.829 198.042 Q 203.749 199.502 214.239 206.552 Q 213.879 209.672 214.739 212.612 Q 215.109 213.872 216.889 216.022 Q 218.259 217.682 218.969 219.752 Q 221.179 226.202 224.079 232.652 Q 225.189 236.102 228.289 238.882 L 227.739 252.302 Q 224.369 258.342 218.909 262.562 C 218.814 262.636 218.759 262.75 218.76 262.87 C 218.762 262.99 218.821 263.102 218.919 263.172 Q 221.999 265.432 225.119 267.632 Q 226.099 268.322 225.219 268.262 Q 225.029 268.252 224.839 268.142 Q 221.419 266.342 217.649 264.072 C 217.397 263.922 217.095 263.879 216.811 263.952 C 216.527 264.025 216.284 264.209 216.139 264.462 Q 211.999 271.752 204.969 268.072 Q 186.579 251.102 169.199 233.092 L 150.909 213.802 L 155.399 208.472 Q 158.009 208.872 158.199 207.092 L 159.909 206.552 Q 161.469 207.792 161.949 205.842 Q 163.049 205.282 162.949 204.092 L 164.449 203.592 Q 165.849 203.502 166.839 201.892 Q 172.369 202.202 175.779 197.962 Z " fill="rgb(219,133,28)"/><path d=" M 136.989 261.802 Q 131.569 263.462 126.449 261.262 L 136.949 253.762 Q 137.219 253.722 137.449 253.512 L 138.909 253.292 C 139.038 253.277 139.169 253.304 139.268 253.365 C 139.368 253.427 139.427 253.517 139.429 253.612 L 139.229 257.492 C 139.305 257.787 139.106 258.085 138.719 258.252 Q 136.959 259.502 136.989 261.802 Z " fill="rgb(219,133,28)"/><path d=" M 154.739 232.552 Q 153.369 237.082 153.949 239.552 Q 155.169 244.772 159.739 254.052 Q 159.239 256.752 157.249 255.982 Q 156.399 255.652 155.469 254.272 Q 153.659 251.602 150.819 250.112 Q 148.889 249.102 149.339 246.982 Q 149.929 244.162 151.859 241.292 C 152.063 240.996 152.059 240.605 151.849 240.312 Q 149.979 237.612 148.139 234.822 Q 147.689 234.132 147.649 233.562 Q 147.529 232.042 149.169 232.692 C 149.468 232.807 149.806 232.758 150.059 232.562 Q 151.429 231.472 152.349 232.162 C 152.604 232.347 152.941 232.381 153.229 232.252 Q 154.419 231.682 154.739 232.552 Z " fill="rgb(242,178,40)"/><path d=" M 158.819 268.532 L 158.159 270.802 Q 156.529 270.542 154.929 271.632 C 154.222 272.105 153.291 272.073 152.619 271.552 Q 148.539 268.352 149.789 263.912 Q 150.239 262.332 151.109 261.532 Q 152.689 260.092 154.409 262.602 Q 156.479 265.612 158.819 268.532 Z " fill="rgb(242,178,40)"/><path d=" M 154.449 189.262 Q 152.559 190.472 151.659 192.552 Q 140.109 181.272 127.379 171.372 Q 123.989 168.742 119.929 167.292 Q 117.889 166.572 117.609 168.712 Q 117.399 170.392 118.629 172.422 Q 132.399 194.952 150.909 213.802 L 169.199 233.092 Q 167.769 232.832 166.619 233.512 Q 166.299 233.702 165.699 233.742 L 160.909 234.052 L 157.489 230.552 L 155.949 228.762 L 146.139 217.342 Q 132.209 202.172 119.659 185.832 Q 113.919 178.372 109.049 170.332 Q 105.489 164.482 105.189 163.922 Q 103.169 160.172 102.699 156.802 Q 101.949 151.482 107.449 152.552 Q 109.089 152.872 111.309 153.922 Q 112.849 154.662 114.819 156.012 Q 136.219 170.722 154.449 189.262 Z " fill="rgb(152,217,227)"/><path d=" M 234.409 273.302 Q 253.359 293.222 269.559 315.422 Q 272.529 319.482 275.259 324.992 Q 276.299 327.082 276.709 329.162 Q 277.159 331.442 276.249 332.812 Q 274.919 334.832 271.759 333.492 Q 265.489 330.832 259.519 326.572 Q 257.249 324.952 248.539 317.872 Q 238.319 309.572 228.709 300.642 Q 231.199 299.272 233.159 296.622 C 233.221 296.575 233.315 296.567 233.389 296.602 L 234.699 297.342 Q 242.279 304.802 251.289 310.392 Q 252.469 311.132 253.399 311.142 Q 255.179 311.152 255.309 309.432 Q 255.389 308.382 254.579 306.822 Q 251.059 299.992 246.159 294.052 L 235.909 281.552 L 232.449 277.262 Q 233.019 275.072 234.409 273.302 Z " fill="rgb(152,217,227)"/><path d=" M 202.449 277.512 L 214.739 288.302 Q 210.649 293.142 204.359 295.032 Q 203.379 294.272 202.899 292.732 C 202.836 292.421 202.658 292.132 202.389 291.902 Q 197.429 287.412 193.429 281.902 Q 195.009 277.662 198.889 276.722 C 199.183 276.692 199.466 276.834 199.589 277.072 Q 200.469 278.692 202.449 277.512 Z " fill="rgb(150,68,42)"/><path d=" M 186.949 183.762 Q 187.559 183.652 187.989 184.052 Q 187.329 191.332 185.199 198.342 L 181.099 194.862 C 181.013 194.792 180.896 194.77 180.789 194.805 C 180.683 194.839 180.603 194.926 180.579 195.032 Q 180.299 196.512 181.139 198.112 Q 182.199 200.142 183.649 204.232 Q 185.169 208.542 183.379 212.752 Q 182.479 214.892 180.449 213.772 Q 178.999 212.982 178.229 211.322 Q 177.739 210.282 177.569 208.192 Q 177.369 205.622 177.159 203.052 Q 176.949 200.942 175.949 199.092 Q 175.459 198.452 175.779 197.962 Q 176.729 195.242 178.529 193.212 Q 181.079 190.362 181.789 189.372 Q 184.019 186.272 186.949 183.762 Z " fill="rgb(237,151,40)"/><path d=" M 186.739 283.052 Q 182.809 285.222 179.949 282.012 L 177.909 278.302 Q 179.239 277.052 180.949 277.222 C 181.299 277.306 181.589 277.471 181.759 277.682 L 186.739 283.052 Z " fill="rgb(237,151,40)"/><path d=" M 232.449 277.262 L 235.909 281.552 Q 235.599 281.802 235.199 281.842 L 231.699 278.342 L 232.449 277.262 Z " fill="rgb(47,61,87)"/><path d=" M 231.699 278.342 L 235.199 281.842 L 245.659 294.552 Q 249.539 299.572 244.429 301.392 C 244.117 301.479 243.776 301.476 243.469 301.382 L 234.949 297.262 Q 233.369 296.042 228.259 290.742 Q 225.669 288.052 225.069 286.672 L 226.199 287.092 Q 233.589 293.472 240.699 296.552 Q 241.879 297.062 241.919 296.122 Q 241.949 295.712 241.619 295.182 Q 237.509 288.442 231.759 281.992 Q 231.099 281.242 231.159 280.052 Q 231.239 279.132 231.699 278.342 Z " fill="rgb(240,243,238)"/><path d=" M 230.949 250.012 Q 231.779 251.192 232.549 252.402 Q 233.579 254.022 235.449 253.592 Q 232.389 270.322 221.229 283.032 L 204.969 268.072 Q 211.999 271.752 216.139 264.462 C 216.284 264.209 216.527 264.025 216.811 263.952 C 217.095 263.879 217.397 263.922 217.649 264.072 Q 221.419 266.342 224.839 268.142 Q 225.029 268.252 225.219 268.262 Q 226.099 268.322 225.119 267.632 Q 221.999 265.432 218.919 263.172 C 218.821 263.102 218.762 262.99 218.76 262.87 C 218.759 262.75 218.814 262.636 218.909 262.562 Q 224.369 258.342 227.739 252.302 Q 228.939 250.532 230.949 250.012 Z " fill="rgb(162,70,38)"/><path d=" M 193.429 281.902 Q 197.429 287.412 202.389 291.902 C 202.658 292.132 202.836 292.421 202.899 292.732 Q 203.379 294.272 204.359 295.032 Q 196.149 299.272 186.949 301.012 L 183.649 289.702 Q 183.489 289.152 183.369 289.712 Q 182.399 294.402 182.989 298.302 Q 182.799 299.312 181.949 299.842 Q 179.819 298.302 177.199 298.262 L 179.949 282.012 Q 182.809 285.222 186.739 283.052 L 190.949 283.252 C 191.283 283.246 191.605 283.165 191.869 283.022 L 193.429 281.902 Z " fill="rgb(162,70,38)"/><path d=" M 150.899 282.042 Q 162.959 285.312 175.269 286.072 Q 174.139 291.742 171.639 298.052 C 171.577 298.201 171.443 298.31 171.283 298.343 C 171.122 298.375 170.955 298.326 170.839 298.212 Q 167.049 294.292 162.739 292.802 L 150.899 282.042 Z " fill="rgb(162,70,38)"/><path d=" M 238.909 249.802 Q 238.949 261.992 234.409 273.302 Q 233.019 275.072 232.449 277.262 L 231.699 278.342 Q 231.239 279.132 231.159 280.052 L 226.199 287.092 L 225.069 286.672 L 221.229 283.032 Q 232.389 270.322 235.449 253.592 Q 237.169 252.272 236.489 250.052 Q 237.619 249.292 238.909 249.802 Z " fill="rgb(236,90,29)"/><path d=" M 214.739 288.302 Q 217.699 290.272 219.949 293.012 Q 206.329 302.852 189.389 303.052 Q 189.259 303.052 188.019 303.142 Q 185.699 303.312 186.949 301.012 Q 196.149 299.272 204.359 295.032 Q 210.649 293.142 214.739 288.302 Z " fill="rgb(236,90,29)"/><path d=" M 136.989 261.802 Q 136.959 259.502 138.719 258.252 C 139.106 258.085 139.305 257.787 139.229 257.492 L 139.429 253.612 C 139.427 253.517 139.368 253.427 139.268 253.365 C 139.169 253.304 139.038 253.277 138.909 253.292 L 137.449 253.512 Q 139.229 251.412 141.939 252.342 Q 144.439 253.192 144.489 255.332 Q 144.519 256.882 143.309 258.542 Q 141.109 261.582 136.989 261.802 Z " fill="rgb(197,114,27)"/><path d=" M 180.229 262.852 Q 187.679 267.702 190.759 271.242 Q 193.229 274.062 195.959 274.912 C 196.276 274.999 196.616 274.981 196.919 274.862 Q 197.829 274.422 198.339 273.592 L 202.449 277.512 Q 200.469 278.692 199.589 277.072 C 199.466 276.834 199.183 276.692 198.889 276.722 Q 195.009 277.662 193.429 281.902 L 191.869 283.022 C 191.605 283.165 191.283 283.246 190.949 283.252 L 186.739 283.052 L 181.759 277.682 C 181.589 277.471 181.299 277.306 180.949 277.222 Q 179.239 277.052 177.909 278.302 L 174.109 275.082 C 174.002 275.011 173.935 274.9 173.925 274.778 C 173.915 274.656 173.964 274.537 174.059 274.452 Q 178.719 269.812 180.229 262.852 Z " fill="rgb(197,114,27)"/><path d=" M 163.199 294.512 L 166.479 297.512 C 166.648 297.644 166.743 297.832 166.741 298.028 C 166.74 298.225 166.64 298.412 166.469 298.542 Q 163.719 301.742 160.699 302.342 Q 159.299 302.172 159.449 301.052 Q 159.949 297.392 163.199 294.512 Z " fill="rgb(197,114,27)"/><path d=" M 177.199 298.262 Q 179.819 298.302 181.949 299.842 Q 183.089 308.412 181.949 316.052 Q 181.759 317.352 180.739 316.552 Q 178.469 310.422 176.149 304.322 Q 176.129 304.262 175.539 302.932 Q 174.159 299.842 177.199 298.262 Z " fill="rgb(231,140,27)"/><path d=" M 231.949 224.262 Q 236.029 225.082 240.199 224.612 C 240.522 224.599 240.84 224.681 241.089 224.842 Q 243.129 226.522 241.369 229.012 Q 238.959 232.442 236.819 235.882 Q 233.169 239.372 228.289 238.882 Q 225.189 236.102 224.079 232.652 Q 226.179 226.702 231.949 224.262 Z " fill="rgb(108,50,31)"/><path d=" M 182.989 298.302 Q 185.279 301.072 185.219 304.802 Q 185.129 310.542 183.959 315.962 Q 183.239 321.852 180.209 317.682 L 180.739 316.552 Q 181.759 317.352 181.949 316.052 Q 183.089 308.412 181.949 299.842 Q 182.799 299.312 182.989 298.302 Z " fill="rgb(108,50,31)"/><path d=" M 205.159 260.582 Q 199.669 255.252 195.609 248.792 Q 192.879 244.432 192.129 242.952 Q 190.679 240.102 189.769 236.552 C 189.535 235.615 190.019 234.648 190.909 234.272 Q 192.369 233.662 193.909 231.232 C 194.259 230.776 194.297 230.192 194.009 229.702 L 192.159 225.102 C 192.114 224.989 192.13 224.862 192.203 224.763 C 192.275 224.664 192.394 224.607 192.519 224.612 L 199.219 224.802 Q 200.359 224.832 199.579 225.682 Q 198.789 226.542 197.589 227.142 Q 195.729 228.072 197.029 229.512 C 197.323 229.752 197.482 230.053 197.479 230.362 Q 198.779 237.142 198.469 244.062 C 198.45 244.384 198.541 244.704 198.729 244.972 Q 199.659 246.412 200.529 247.892 Q 201.109 248.862 202.029 250.942 Q 205.349 258.462 212.369 262.282 Q 213.989 263.152 212.149 263.242 Q 208.079 263.422 205.159 260.582 Z " fill="rgb(230,161,34)"/><path d=" M 212.929 233.472 C 212.159 233.193 211.62 232.495 211.549 231.682 Q 211.299 228.902 211.719 227.302 Q 212.819 223.042 217.019 225.162 Q 220.599 226.982 220.089 230.162 Q 219.719 232.452 217.539 233.392 Q 215.339 234.342 212.929 233.472 Z " fill="rgb(245,198,46)"/><path d=" M 130.199 239.232 Q 129.819 238.882 129.489 238.482 Q 127.849 236.532 130.419 236.102 Q 134.769 235.382 139.919 237.902 C 140.346 238.11 140.549 238.605 140.389 239.052 Q 139.429 241.652 137.489 242.562 Q 135.749 243.392 133.629 241.972 Q 131.969 240.862 130.199 239.232 Z " fill="rgb(219,133,28)"/><circle vector-effect="non-scaling-stroke" cx="202.16887842048163" cy="217.6023756864961" r="3.1399999999999864" fill="rgb(242,178,40)"/><path d=" M 210.983 250.135 C 212.006 249.403 213.776 250.12 214.933 251.735 C 216.089 253.351 216.198 255.257 215.175 255.99 C 214.151 256.722 212.382 256.005 211.225 254.39 C 210.068 252.774 209.96 250.868 210.983 250.135 Z " fill="rgb(242,178,40)"/><path d=" M 165.959 209.532 Q 164.969 211.182 164.239 211.682 Q 162.599 212.802 162.699 210.822 Q 162.789 208.912 165.209 208.452 Q 166.789 208.152 165.959 209.532 Z " fill="rgb(237,151,40)"/><path d=" M 199.649 212.162 Q 197.939 208.622 201.379 206.352 C 201.711 206.163 202.122 206.123 202.491 206.245 C 202.86 206.366 203.144 206.635 203.259 206.972 L 204.119 211.242 C 204.24 211.555 204.116 211.894 203.799 212.112 Q 202.329 213.592 200.339 212.822 C 200.023 212.688 199.777 212.452 199.649 212.162 L 199.649 212.162 Z " fill="rgb(231,140,27)"/><path d=" M 229.479 232.812 Q 228.739 232.172 228.689 231.202 Q 228.649 230.462 229.259 229.672 Q 232.679 225.212 238.519 226.152 C 238.646 226.173 238.759 226.247 238.83 226.356 C 238.9 226.464 238.922 226.597 238.889 226.722 Q 237.119 233.092 230.389 233.122 C 230.048 233.102 229.726 232.993 229.479 232.812 Z " fill="rgb(231,140,27)"/><path d=" M 162.899 263.972 Q 163.909 261.892 165.769 261.532 L 175.379 259.662 C 175.52 259.641 175.663 259.676 175.777 259.759 C 175.89 259.842 175.963 259.966 175.979 260.102 Q 176.339 262.612 174.509 265.362 Q 169.309 273.202 160.939 274.952 C 160.816 274.975 160.69 274.944 160.593 274.867 C 160.496 274.789 160.44 274.674 160.439 274.552 Q 160.439 269.002 162.899 263.972 Z " fill="rgb(231,140,27)"/><path d=" M 177.189 220.952 Q 176.659 219.772 176.769 217.752 C 176.78 217.57 176.878 217.403 177.034 217.303 C 177.189 217.202 177.384 217.18 177.559 217.242 Q 180.549 218.362 183.379 218.052 C 183.706 217.995 183.99 217.816 184.159 217.562 Q 185.569 215.492 186.419 217.462 Q 186.749 218.252 186.449 219.152 Q 184.759 224.222 179.559 222.642 Q 177.699 222.082 177.189 220.952 Z " fill="rgb(153,76,40)"/></g></svg>