<?xml version="1.0" encoding="UTF-8" standalone="no"?><!-- Generator: Gravit.io --><svg xmlns="http://www.w3.org/2000/svg" xmlns:xlink="http://www.w3.org/1999/xlink" style="isolation:isolate" viewBox="120.548 179.975 138.371 126.451" width="138.371pt" height="126.451pt"><defs><clipPath id="_clipPath_6NgdRigBKswRQXmJ4JQfdHKEKwNnPAGW"><rect x="120.548" y="179.975" width="138.371" height="126.451"/></clipPath></defs><g clip-path="url(#_clipPath_6NgdRigBKswRQXmJ4JQfdHKEKwNnPAGW)"><path d=" M 136.253 260.635 L 136.793 262.925 Q 133.463 263.975 130.753 266.135 Q 131.593 261.935 135.703 262.525 C 135.829 262.542 135.956 262.506 136.053 262.428 C 136.15 262.35 136.208 262.236 136.213 262.115 L 136.253 260.635 Z " fill="rgb(147,208,161)"/><path d=" M 248.543 244.425 Q 250.113 245.105 250.213 246.925 Q 250.343 249.145 248.043 248.925 Q 247.703 246.635 248.543 244.425 Z " fill="rgb(188,111,177)"/><path d=" M 207.793 181.175 Q 205.203 184.725 205.463 189.175 Q 202.053 189.985 198.753 188.885 Q 199.333 184.585 201.553 180.915 C 201.708 180.644 201.967 180.431 202.283 180.315 Q 205.183 179.335 207.793 181.175 Z " fill="rgb(110,210,195)"/><path d=" M 207.793 181.175 Q 211.153 182.645 210.733 186.425 Q 210.423 189.185 209.963 191.925 Q 208.893 191.285 207.753 191.715 L 207.003 191.135 L 205.463 189.175 Q 205.203 184.725 207.793 181.175 Z " fill="rgb(126,116,171)"/><path d=" M 198.753 188.885 Q 202.053 189.985 205.463 189.175 L 207.003 191.135 Q 205.393 190.525 204.293 191.495 Q 203.853 191.885 203.473 192.035 Q 200.843 193.085 197.693 195.865 Q 196.043 197.315 189.253 201.715 Q 187.673 200.395 184.063 198.615 Q 177.923 195.595 172.713 199.175 Q 163.993 201.955 157.753 208.715 Q 156.503 207.425 156.003 205.635 Q 157.483 204.565 155.923 203.685 Q 152.953 202.015 151.473 200.175 Q 149.853 198.165 152.003 196.735 Q 156.493 193.755 157.243 198.495 Q 157.363 199.265 157.593 199.665 Q 158.473 201.175 159.183 199.145 Q 160.203 196.195 163.473 196.815 Q 166.103 197.325 168.463 194.805 C 168.552 194.708 168.582 194.571 168.543 194.446 C 168.504 194.32 168.401 194.225 168.273 194.195 Q 164.943 193.375 167.883 191.605 Q 169.413 190.685 170.403 191.835 C 170.574 192.027 170.869 192.07 171.093 191.935 Q 176.773 187.685 183.943 187.725 C 184.269 187.738 184.583 187.843 184.843 188.025 Q 188.163 190.605 187.133 194.945 C 187.04 195.225 187.165 195.527 187.433 195.675 Q 189.703 196.885 192.313 196.155 C 192.574 196.085 192.79 195.903 192.902 195.66 C 193.014 195.416 193.011 195.136 192.893 194.895 Q 191.973 192.965 192.803 191.445 Q 193.413 190.335 195.323 189.785 Q 197.013 189.295 198.753 188.885 Z " fill="rgb(250,191,68)"/><path d=" M 207.003 191.135 L 207.753 191.715 L 209.723 194.765 C 209.88 195.014 209.873 195.334 209.703 195.575 Q 207.913 198.175 210.023 199.885 Q 211.593 201.155 211.723 201.275 Q 212.683 202.185 213.683 202.825 C 213.974 203.006 214.082 203.377 213.933 203.685 Q 212.663 206.365 212.423 208.645 Q 212.193 210.875 212.703 213.705 Q 213.433 217.745 216.753 220.465 Q 215.733 221.965 215.493 223.745 C 215.424 224.053 215.541 224.37 215.803 224.585 Q 219.633 228.355 222.103 233.265 L 212.003 231.885 Q 210.633 231.445 209.393 230.745 Q 207.783 229.845 206.783 230.025 Q 205.263 230.305 204.613 231.705 Q 204.203 232.605 204.643 234.145 Q 205.373 236.725 205.463 239.425 Q 202.783 240.455 200.553 242.225 Q 199.943 242.705 199.963 241.925 Q 200.743 240.235 199.713 239.625 C 199.432 239.463 199.08 239.467 198.803 239.635 L 196.933 240.895 C 196.597 241.096 196.437 241.417 196.513 241.735 Q 196.333 244.815 199.463 243.175 Q 199.713 244.175 199.313 244.735 Q 195.803 249.745 197.503 255.715 Q 199.313 259.975 197.253 264.135 L 192.003 264.385 Q 192.093 261.195 190.493 258.415 Q 189.363 256.435 189.973 253.935 L 191.773 246.585 Q 192.243 244.665 190.433 245.545 Q 184.583 248.415 181.013 253.535 Q 179.723 255.395 180.393 257.555 Q 182.623 264.805 186.793 270.675 Q 185.763 272.145 185.743 273.925 C 185.834 274.239 185.728 274.564 185.453 274.815 Q 184.643 275.765 183.513 276.295 C 183.208 276.451 182.989 276.691 182.903 276.965 Q 182.123 278.705 179.603 277.185 C 179.009 276.827 178.536 276.301 178.243 275.675 Q 177.103 273.275 174.003 274.635 Q 170.183 278.015 166.193 274.485 Q 161.253 270.135 153.753 267.885 Q 155.463 260.785 150.063 257.095 Q 148.233 255.845 146.723 255.955 Q 144.433 256.135 144.003 259.175 Q 143.783 260.735 143.743 261.775 Q 143.733 262.045 143.643 263.555 Q 143.483 266.045 145.293 267.465 Q 146.733 268.605 146.953 269.145 Q 147.413 270.275 147.043 271.675 Q 147.433 273.855 146.133 275.595 C 145.902 275.853 145.78 276.161 145.783 276.475 Q 145.543 279.355 143.753 281.635 Q 141.773 282.385 140.803 281.215 Q 140.183 280.465 140.473 278.995 Q 140.663 278.075 140.883 277.165 C 140.947 276.881 140.817 276.588 140.563 276.445 Q 136.733 274.255 142.023 272.225 Q 143.813 271.535 142.813 269.745 L 140.773 266.055 Q 139.773 263.645 136.793 262.925 L 136.253 260.635 Q 136.333 260.235 136.043 260.175 L 132.643 252.815 Q 131.773 250.935 133.263 249.845 Q 134.673 248.815 133.763 247.075 Q 132.143 243.955 134.693 242.115 Q 136.783 240.595 136.153 238.685 L 134.383 231.155 C 134.33 231.031 134.339 230.892 134.405 230.774 C 134.472 230.656 134.591 230.569 134.733 230.535 Q 136.503 230.165 136.563 232.385 C 136.531 232.695 136.646 233.003 136.881 233.237 C 137.116 233.47 137.45 233.607 137.803 233.615 L 141.313 233.255 Q 143.403 239.245 140.613 245.235 Q 139.593 247.405 141.983 247.175 Q 146.783 246.715 149.513 242.915 Q 151.613 240.015 150.193 237.235 Q 148.463 233.865 144.253 232.385 Q 145.443 230.375 143.313 228.615 Q 141.583 227.185 141.143 224.625 Q 140.843 222.815 141.363 220.255 Q 143.183 211.335 150.383 205.235 Q 152.613 206.525 156.003 205.635 Q 156.503 207.425 157.753 208.715 Q 152.073 214.555 149.223 223.905 Q 148.713 225.565 149.753 226.945 Q 152.823 231.055 157.883 228.475 C 158.182 228.308 158.401 228.06 158.503 227.775 Q 159.393 225.725 160.843 224.005 Q 166.953 216.755 175.253 212.135 Q 182.063 208.735 183.753 208.175 Q 188.963 206.455 189.253 201.715 Q 196.043 197.315 197.693 195.865 Q 200.843 193.085 203.473 192.035 Q 203.853 191.885 204.293 191.495 Q 205.393 190.525 207.003 191.135 Z " fill="rgb(252,172,67)"/><path d=" M 209.963 191.925 Q 213.633 195.065 218.293 196.175 Q 218.833 197.195 219.873 197.265 Q 221.473 197.365 221.603 197.395 Q 223.403 197.835 225.253 197.965 Q 228.023 204.325 234.003 207.885 Q 232.823 207.895 233.273 209.005 Q 233.713 210.105 234.583 210.915 Q 236.443 212.645 237.543 211.175 Q 237.583 213.315 239.253 214.635 Q 237.023 214.845 236.183 216.715 C 235.547 216.961 235.516 217.372 236.113 217.655 L 236.493 220.405 C 236.532 220.683 236.692 220.93 236.933 221.082 C 237.173 221.234 237.469 221.275 237.743 221.195 L 241.003 220.215 L 237.863 222.585 C 237.283 222.894 237.062 223.506 237.343 224.025 L 239.253 228.965 Q 239.753 234.525 245.253 232.135 L 246.503 235.885 Q 243.823 235.675 243.363 237.415 Q 243.003 238.805 244.123 240.065 Q 245.643 241.765 248.183 241.255 Q 247.763 242.905 248.543 244.425 Q 247.703 246.635 248.043 248.925 Q 246.813 252.035 247.943 254.495 Q 244.593 260.015 241.773 265.975 Q 239.703 270.345 235.903 273.315 Q 233.143 275.485 236.863 276.375 Q 236.263 277.395 236.463 278.925 Q 230.103 273.205 227.063 271.615 Q 224.973 270.515 224.283 272.045 C 224.009 272.647 224.233 273.356 224.803 273.695 Q 231.483 277.735 234.543 282.925 Q 231.483 284.805 224.313 290.485 Q 218.793 294.865 210.503 295.395 C 210.185 295.404 209.878 295.28 209.663 295.055 Q 207.793 293.045 205.993 292.485 Q 204.243 291.935 202.903 293.195 Q 199.443 296.435 202.253 299.135 Q 192.053 305.005 180.253 302.715 L 174.503 301.965 Q 171.493 300.815 170.313 299.115 Q 166.683 293.865 161.813 298.695 Q 159.033 295.755 158.933 291.625 Q 158.003 286.285 162.503 287.965 Q 164.173 288.645 167.213 288.285 Q 169.443 288.015 168.803 285.865 Q 167.533 281.595 165.053 278.375 Q 164.733 277.965 164.773 277.625 C 164.873 277.442 165.166 277.349 165.433 277.415 L 171.013 279.565 C 171.33 279.652 171.682 279.599 171.933 279.425 L 174.723 276.605 Q 179.703 281.865 184.563 278.395 Q 185.303 277.865 187.403 274.985 Q 189.623 271.915 193.253 271.425 Q 197.263 270.885 197.943 270.615 Q 200.823 269.465 199.533 265.155 Q 205.053 263.675 204.193 258.735 Q 203.693 255.905 200.463 253.175 Q 200.513 250.305 201.563 247.635 C 201.677 247.361 201.941 247.166 202.253 247.125 Q 207.013 246.575 209.213 242.425 L 211.003 235.635 Q 217.693 235.085 223.813 239.115 Q 226.583 240.935 228.033 238.365 C 228.208 238.091 228.208 237.749 228.033 237.475 L 226.213 234.425 Q 226.623 226.835 220.253 223.175 Q 219.663 222.835 216.753 220.465 Q 213.433 217.745 212.703 213.705 Q 212.193 210.875 212.423 208.645 Q 212.663 206.365 213.933 203.685 C 214.082 203.377 213.974 203.006 213.683 202.825 Q 212.683 202.185 211.723 201.275 Q 211.593 201.155 210.023 199.885 Q 207.913 198.175 209.703 195.575 C 209.873 195.334 209.88 195.014 209.723 194.765 L 207.753 191.715 Q 208.893 191.285 209.963 191.925 Z " fill="rgb(147,75,87)"/><path d=" M 150.383 205.235 Q 143.183 211.335 141.363 220.255 Q 140.843 222.815 141.143 224.625 Q 141.583 227.185 143.313 228.615 Q 145.443 230.375 144.253 232.385 Q 142.783 232.145 141.313 233.255 L 137.803 233.615 C 137.45 233.607 137.116 233.47 136.881 233.237 C 136.646 233.003 136.531 232.695 136.563 232.385 Q 136.503 230.165 134.733 230.535 C 134.591 230.569 134.472 230.656 134.405 230.774 C 134.339 230.892 134.33 231.031 134.383 231.155 L 136.153 238.685 Q 133.893 239.185 132.163 238.425 Q 130.463 237.685 130.083 235.515 Q 129.453 232.005 131.193 228.795 C 131.34 228.541 131.623 228.381 131.933 228.375 Q 137.033 228.405 135.463 223.335 Q 134.833 221.315 136.143 219.645 Q 138.293 216.875 138.983 214.325 Q 139.713 211.605 139.723 211.585 Q 141.123 208.155 143.853 206.665 Q 145.333 205.855 146.653 204.815 Q 148.403 203.425 150.383 205.235 Z " fill="rgb(246,195,59)"/><path d=" M 257.223 221.265 Q 258.693 223.295 258.913 226.105 C 258.943 226.433 258.858 226.761 258.673 227.035 Q 255.793 231.505 250.223 232.735 C 249.916 232.803 249.597 232.695 249.393 232.455 Q 247.483 230.145 245.253 232.135 Q 239.753 234.525 239.253 228.965 Q 248.463 225.995 257.223 221.265 Z " fill="rgb(101,129,182)"/><path d=" M 225.253 197.965 Q 223.403 197.835 221.603 197.395 Q 221.473 197.365 219.873 197.265 Q 218.833 197.195 218.293 196.175 Q 218.633 192.865 220.813 191.485 Q 223.453 189.825 225.653 192.545 Q 228.043 195.495 225.253 197.965 Z " fill="rgb(82,154,174)"/><path d=" M 189.253 201.715 Q 188.963 206.455 183.753 208.175 Q 182.063 208.735 175.253 212.135 L 174.753 211.465 Q 175.793 210.465 175.973 209.105 Q 176.213 207.305 176.223 207.285 Q 177.003 204.675 179.293 202.535 Q 180.913 201.025 178.893 200.105 Q 175.773 198.685 173.253 200.215 L 172.713 199.175 Q 177.923 195.595 184.063 198.615 Q 187.673 200.395 189.253 201.715 Z " fill="rgb(184,99,85)"/><path d=" M 172.713 199.175 L 173.253 200.215 Q 168.363 206.875 174.753 211.465 L 175.253 212.135 Q 166.953 216.755 160.843 224.005 Q 159.393 225.725 158.503 227.775 C 158.401 228.06 158.182 228.308 157.883 228.475 Q 152.823 231.055 149.753 226.945 Q 148.713 225.565 149.223 223.905 Q 152.073 214.555 157.753 208.715 Q 163.993 201.955 172.713 199.175 Z " fill="rgb(184,99,85)"/><path d=" M 199.963 241.925 L 199.463 243.175 Q 196.333 244.815 196.513 241.735 C 196.437 241.417 196.597 241.096 196.933 240.895 L 198.803 239.635 C 199.08 239.467 199.432 239.463 199.713 239.625 Q 200.743 240.235 199.963 241.925 Z " fill="rgb(184,99,85)"/><path d=" M 192.003 264.385 L 186.793 270.675 Q 182.623 264.805 180.393 257.555 Q 179.723 255.395 181.013 253.535 Q 184.583 248.415 190.433 245.545 Q 192.243 244.665 191.773 246.585 L 189.973 253.935 Q 189.363 256.435 190.493 258.415 Q 192.093 261.195 192.003 264.385 Z " fill="rgb(184,99,85)"/><path d=" M 212.003 231.885 L 222.103 233.265 L 226.213 234.425 L 228.033 237.475 C 228.208 237.749 228.208 238.091 228.033 238.365 Q 226.583 240.935 223.813 239.115 Q 217.693 235.085 211.003 235.635 Q 210.973 233.585 212.003 231.885 Z " fill="rgb(252,189,191)"/><path d=" M 200.463 253.175 Q 203.693 255.905 204.193 258.735 Q 205.053 263.675 199.533 265.155 Q 198.353 265.405 197.253 264.135 Q 199.313 259.975 197.503 255.715 L 200.463 253.175 Z " fill="rgb(252,189,191)"/><path d=" M 144.253 232.385 Q 148.463 233.865 150.193 237.235 Q 151.613 240.015 149.513 242.915 Q 146.783 246.715 141.983 247.175 Q 139.593 247.405 140.613 245.235 Q 143.403 239.245 141.313 233.255 Q 142.783 232.145 144.253 232.385 Z " fill="rgb(199,110,90)"/><path d=" M 153.753 267.885 Q 152.913 269.005 152.963 270.425 Q 150.243 272.315 147.043 271.675 Q 147.413 270.275 146.953 269.145 Q 146.733 268.605 145.293 267.465 Q 143.483 266.045 143.643 263.555 Q 143.733 262.045 143.743 261.775 Q 143.783 260.735 144.003 259.175 Q 144.433 256.135 146.723 255.955 Q 148.233 255.845 150.063 257.095 Q 155.463 260.785 153.753 267.885 Z " fill="rgb(199,110,90)"/><path d=" M 257.223 221.265 Q 248.463 225.995 239.253 228.965 L 237.343 224.025 C 237.062 223.506 237.283 222.894 237.863 222.585 L 241.003 220.215 L 242.213 219.455 Q 251.433 211.615 257.223 221.265 Z " fill="rgb(108,233,198)"/><path d=" M 136.043 260.175 Q 136.333 260.235 136.253 260.635 L 136.213 262.115 C 136.208 262.236 136.15 262.35 136.053 262.428 C 135.956 262.506 135.829 262.542 135.703 262.525 Q 131.593 261.935 130.753 266.135 Q 128.963 267.815 130.043 270.415 Q 128.173 273.145 125.393 272.955 Q 123.083 272.805 121.653 270.415 Q 119.093 266.115 122.463 263.175 Q 124.373 261.515 128.533 261.005 Q 132.283 260.555 136.043 260.175 Z " fill="rgb(108,233,198)"/><path d=" M 136.793 262.925 Q 139.773 263.645 140.773 266.055 Q 135.713 269.195 130.043 270.415 Q 128.963 267.815 130.753 266.135 Q 133.463 263.975 136.793 262.925 Z " fill="rgb(228,199,87)"/><path d=" M 212.003 231.885 Q 210.973 233.585 211.003 235.635 L 209.213 242.425 Q 206.713 241.725 205.463 239.425 Q 205.373 236.725 204.643 234.145 Q 204.203 232.605 204.613 231.705 Q 205.263 230.305 206.783 230.025 Q 207.783 229.845 209.393 230.745 Q 210.633 231.445 212.003 231.885 Z " fill="rgb(254,189,157)"/><path d=" M 205.463 239.425 Q 206.713 241.725 209.213 242.425 Q 207.013 246.575 202.253 247.125 C 201.941 247.166 201.677 247.361 201.563 247.635 Q 200.513 250.305 200.463 253.175 L 197.503 255.715 Q 195.803 249.745 199.313 244.735 Q 199.713 244.175 199.463 243.175 L 199.963 241.925 Q 199.943 242.705 200.553 242.225 Q 202.783 240.455 205.463 239.425 Z " fill="rgb(254,189,157)"/><path d=" M 197.253 264.135 Q 198.353 265.405 199.533 265.155 Q 200.823 269.465 197.943 270.615 Q 197.263 270.885 193.253 271.425 Q 189.623 271.915 187.403 274.985 Q 185.303 277.865 184.563 278.395 Q 179.703 281.865 174.723 276.605 Q 175.043 275.615 174.003 274.635 Q 177.103 273.275 178.243 275.675 C 178.536 276.301 179.009 276.827 179.603 277.185 Q 182.123 278.705 182.903 276.965 C 182.989 276.691 183.208 276.451 183.513 276.295 Q 184.643 275.765 185.453 274.815 C 185.728 274.564 185.834 274.239 185.743 273.925 Q 185.763 272.145 186.793 270.675 L 192.003 264.385 L 197.253 264.135 Z " fill="rgb(254,189,157)"/><path d=" M 216.753 220.465 Q 219.663 222.835 220.253 223.175 Q 226.623 226.835 226.213 234.425 L 222.103 233.265 Q 219.633 228.355 215.803 224.585 C 215.541 224.37 215.424 224.053 215.493 223.745 Q 215.733 221.965 216.753 220.465 Z " fill="rgb(252,189,107)"/><path d=" M 153.753 267.885 Q 161.253 270.135 166.193 274.485 Q 170.183 278.015 174.003 274.635 Q 175.043 275.615 174.723 276.605 L 171.933 279.425 C 171.682 279.599 171.33 279.652 171.013 279.565 L 165.433 277.415 C 165.166 277.349 164.873 277.442 164.773 277.625 Q 164.733 277.965 165.053 278.375 Q 167.533 281.595 168.803 285.865 Q 169.443 288.015 167.213 288.285 Q 164.173 288.645 162.503 287.965 Q 163.323 285.185 161.313 282.615 Q 159.783 280.645 158.313 277.365 Q 157.503 275.545 156.253 275.215 Q 153.853 273.345 152.963 270.425 Q 152.913 269.005 153.753 267.885 Z " fill="rgb(252,189,107)"/><path d=" M 152.963 270.425 Q 153.853 273.345 156.253 275.215 Q 156.013 277.325 156.323 279.405 Q 156.743 282.215 156.393 283.465 Q 154.833 289.155 147.753 285.475 L 143.753 281.635 Q 145.543 279.355 145.783 276.475 C 145.78 276.161 145.902 275.853 146.133 275.595 Q 147.433 273.855 147.043 271.675 Q 150.243 272.315 152.963 270.425 Z " fill="rgb(220,121,84)"/><path d=" M 236.463 278.925 Q 237.693 282.115 234.543 282.925 Q 231.483 277.735 224.803 273.695 C 224.233 273.356 224.009 272.647 224.283 272.045 Q 224.973 270.515 227.063 271.615 Q 230.103 273.205 236.463 278.925 Z " fill="rgb(178,208,202)"/><path d=" M 156.253 275.215 Q 157.503 275.545 158.313 277.365 Q 159.783 280.645 161.313 282.615 Q 163.323 285.185 162.503 287.965 Q 158.003 286.285 158.933 291.625 L 158.393 297.775 Q 158.253 299.315 157.223 298.395 L 150.903 292.725 C 150.61 292.498 150.47 292.177 150.523 291.855 Q 150.443 290.465 150.983 289.185 C 151.033 289.071 151.034 288.941 150.985 288.826 C 150.936 288.711 150.841 288.621 150.723 288.575 Q 148.713 287.795 147.753 285.475 Q 154.833 289.155 156.393 283.465 Q 156.743 282.215 156.323 279.405 Q 156.013 277.325 156.253 275.215 Z " fill="rgb(251,157,109)"/><path d=" M 174.753 211.465 Q 168.363 206.875 173.253 200.215 Q 175.773 198.685 178.893 200.105 Q 180.913 201.025 179.293 202.535 Q 177.003 204.675 176.223 207.285 Q 176.213 207.305 175.973 209.105 Q 175.793 210.465 174.753 211.465 Z " fill="rgb(251,168,79)"/><path d=" M 174.503 301.965 Q 174.693 303.205 174.003 304.385 Q 166.803 303.675 161.813 298.695 Q 166.683 293.865 170.313 299.115 Q 171.493 300.815 174.503 301.965 Z " fill="rgb(251,168,79)"/><path d=" M 239.253 214.635 Q 242.123 215.965 242.213 219.455 L 241.003 220.215 L 237.743 221.195 C 237.469 221.275 237.173 221.234 236.933 221.082 C 236.692 220.93 236.532 220.683 236.493 220.405 L 236.113 217.655 C 235.516 217.372 235.547 216.961 236.183 216.715 Q 237.023 214.845 239.253 214.635 Z " fill="rgb(214,121,179)"/><path d=" M 246.503 235.885 Q 250.483 237.025 248.183 241.255 Q 245.643 241.765 244.123 240.065 Q 243.003 238.805 243.363 237.415 Q 243.823 235.675 246.503 235.885 Z " fill="rgb(214,121,179)"/><path d=" M 247.943 254.495 Q 249.583 254.775 249.503 256.425 Q 248.813 270.735 236.863 276.375 Q 233.143 275.485 235.903 273.315 Q 239.703 270.345 241.773 265.975 Q 244.593 260.015 247.943 254.495 Z " fill="rgb(214,121,179)"/><path d=" M 202.253 299.135 Q 205.563 299.675 204.223 301.515 Q 203.703 302.225 202.493 303.005 Q 197.113 306.445 190.003 306.425 Q 183.883 306.405 180.003 305.635 Q 180.433 304.215 180.253 302.715 Q 192.053 305.005 202.253 299.135 Z " fill="rgb(214,121,179)"/><path d=" M 234.003 207.885 Q 236.463 208.805 237.543 211.175 Q 236.443 212.645 234.583 210.915 Q 233.713 210.105 233.273 209.005 Q 232.823 207.895 234.003 207.885 Z " fill="rgb(249,158,130)"/><path d=" M 174.503 301.965 L 180.253 302.715 Q 180.433 304.215 180.003 305.635 L 174.003 304.385 Q 174.693 303.205 174.503 301.965 Z " fill="rgb(249,158,130)"/><path d=" M 207.076 205.34 C 208.128 204.881 209.465 205.612 210.059 206.973 C 210.653 208.333 210.282 209.811 209.23 210.27 C 208.178 210.73 206.841 209.998 206.247 208.638 C 205.653 207.277 206.024 205.8 207.076 205.34 Z " fill="rgb(184,99,85)"/><path d=" M 170.243 243.755 C 169.659 243.541 169.161 243.144 168.823 242.625 Q 164.563 236.035 165.893 228.705 Q 166.523 225.215 168.993 222.385 Q 170.583 220.565 172.493 219.035 Q 174.383 217.525 176.353 216.125 Q 185.713 209.495 197.503 213.175 Q 201.443 214.405 200.223 218.295 Q 198.973 222.255 199.503 228.675 Q 199.663 230.575 198.133 232.085 Q 197.863 232.365 195.373 234.265 Q 185.743 241.645 173.723 244.005 Q 171.903 244.365 170.243 243.755 Z " fill="rgb(184,99,85)"/><path d=" M 155.003 235.805 Q 153.693 234.465 156.613 233.035 Q 158.443 232.135 158.753 234.155 Q 159.173 236.965 157.073 236.755 Q 155.793 236.625 155.003 235.805 Z " fill="rgb(184,99,85)"/><path d=" M 157.863 259.195 Q 149.403 251.805 155.593 243.065 Q 156.983 241.095 158.683 240.775 Q 160.693 240.395 162.813 241.615 Q 169.243 245.295 168.723 251.925 Q 168.453 255.335 166.493 257.325 Q 164.413 259.425 160.853 260.035 Q 159.153 260.325 157.863 259.195 Z " fill="rgb(184,99,85)"/><path d=" M 214.303 201.315 Q 212.543 199.665 215.143 198.275 Q 218.123 196.675 219.863 200.755 Q 220.763 202.865 218.473 202.645 Q 217.413 202.545 216.263 202.275 Q 215.013 201.975 214.303 201.315 Z " fill="rgb(254,189,157)"/><path d=" M 175.883 298.255 Q 173.223 296.675 172.733 294.135 Q 171.973 290.135 173.223 285.325 Q 173.463 284.405 173.813 285.295 Q 175.113 288.695 177.423 291.845 Q 177.453 291.885 178.263 292.855 Q 180.233 295.205 178.533 297.675 Q 177.483 299.195 175.883 298.255 Z " fill="rgb(251,168,79)"/></g></svg>