<?xml version="1.0" encoding="UTF-8" standalone="no"?><!-- Generator: Gravit.io --><svg xmlns="http://www.w3.org/2000/svg" xmlns:xlink="http://www.w3.org/1999/xlink" style="isolation:isolate" viewBox="86.631 104.834 174.381 218.78" width="174.381pt" height="218.78pt"><defs><clipPath id="_clipPath_UFS2RKKmdihkHCIZUdksrhPtVkzujMj4"><rect x="86.631" y="104.834" width="174.381" height="218.78"/></clipPath></defs><g clip-path="url(#_clipPath_UFS2RKKmdihkHCIZUdksrhPtVkzujMj4)"><path d=" M 208.452 252.427 Q 207.862 252.267 207.452 252.677 Q 204.432 253.417 204.832 256.157 C 204.856 256.337 204.794 256.518 204.664 256.645 C 204.533 256.771 204.351 256.828 204.172 256.797 Q 197.792 255.727 200.942 251.827 C 201.145 251.583 201.425 251.405 201.742 251.317 Q 205.472 250.317 209.162 251.537 C 209.353 251.559 209.519 251.649 209.605 251.779 C 209.691 251.909 209.686 252.061 209.592 252.187 Q 209.382 252.657 208.452 252.427 Z " fill="rgb(53,31,59)"/><path d=" M 166.842 175.877 Q 166.472 180.077 163.922 179.467 Q 154.622 171.067 143.872 164.687 Q 142.912 164.117 143.492 165.077 Q 149.732 175.407 158.952 183.847 Q 157.872 184.187 157.912 185.387 Q 157.592 184.677 157.002 185.007 Q 146.962 176.287 141.192 164.097 C 141.069 163.799 140.842 163.537 140.542 163.347 L 129.842 156.727 Q 129.452 156.487 129.452 156.947 Q 129.452 160.767 129.342 164.637 Q 128.732 186.957 145.562 201.117 Q 146.362 202.627 148.452 202.177 L 144.162 206.807 Q 141.192 203.377 138.012 200.207 Q 133.702 195.897 132.032 193.497 Q 123.782 181.627 123.722 166.637 Q 123.692 158.567 125.202 150.657 C 125.266 150.32 125.486 150.032 125.797 149.881 C 126.108 149.729 126.473 149.732 126.782 149.887 Q 143.952 158.717 158.772 170.527 Q 159.172 170.847 158.932 170.397 Q 151.172 155.647 138.362 145.797 Q 135.492 143.587 131.542 141.767 Q 126.122 139.267 124.202 138.637 Q 113.352 135.087 108.942 125.017 Q 108.352 123.657 108.252 121.127 Q 108.152 118.617 107.142 117.197 Q 104.352 113.307 99.012 109.827 Q 95.942 107.827 93.092 109.357 Q 89.612 111.227 90.392 115.197 Q 93.232 129.597 101.382 141.747 Q 104.012 145.677 104.632 149.917 C 104.669 150.155 104.604 150.398 104.454 150.586 C 104.304 150.774 104.082 150.891 103.842 150.907 Q 101.602 151.097 101.842 153.147 Q 102.962 162.627 108.112 171.787 Q 108.442 172.387 108.712 171.747 Q 110.442 167.657 111.812 164.947 Q 114.782 159.057 114.532 152.447 C 114.196 152.145 114.316 151.758 114.812 151.547 Q 115.242 151.167 115.552 152.187 Q 117.702 159.217 115.452 164.637 Q 113.752 168.737 112.032 173.337 C 111.719 173.921 111.831 174.598 112.322 175.097 L 117.852 183.157 Q 118.942 184.747 117.372 183.587 Q 114.192 181.237 112.202 178.327 Q 111.252 176.947 111.672 178.437 Q 112.372 180.977 113.072 183.527 Q 113.812 186.227 114.872 188.467 Q 119.482 198.147 125.532 207.017 Q 128.662 211.607 131.362 217.787 C 131.766 218.705 131.751 219.751 131.322 220.657 Q 130.482 222.447 129.262 220.327 Q 122.772 209.167 115.892 198.247 Q 112.642 193.087 110.332 187.437 Q 108.322 182.527 108.372 178.187 Q 108.392 176.607 107.462 175.337 Q 97.842 162.177 99.722 146.507 Q 99.952 144.547 98.582 143.127 Q 95.882 140.337 93.902 136.507 Q 89.792 128.567 87.202 119.137 Q 86.012 114.817 87.302 111.047 Q 88.672 107.047 92.062 105.517 Q 95.822 103.817 100.252 106.347 Q 106.662 109.997 110.472 116.047 Q 113.882 121.467 114.582 122.257 Q 117.702 125.797 121.892 128.697 Q 125.562 131.247 129.052 134.737 Q 131.682 137.367 134.292 138.967 Q 136.842 140.517 139.362 142.107 Q 142.052 143.787 144.112 145.667 Q 158.392 158.677 166.842 175.877 Z " fill="rgb(251,205,57)"/><path d=" M 216.212 178.277 Q 218.522 189.167 216.952 196.887 Q 215.762 202.727 214.702 208.597 L 213.152 212.017 Q 202.312 233.837 179.852 243.477 Q 170.442 247.507 159.932 247.637 Q 156.912 247.677 155.732 244.907 Q 154.452 241.917 151.412 239.387 L 148.242 236.137 L 142.452 226.427 Q 143.082 225.657 143.182 224.637 C 143.175 224.331 143.339 224.041 143.622 223.857 Q 148.332 220.757 152.652 217.107 Q 154.692 215.377 155.892 212.327 Q 161.262 198.607 170.512 185.447 Q 171.872 183.517 174.452 184.427 Q 174.662 187.557 177.762 186.437 Q 184.132 184.117 185.112 177.477 L 182.452 175.177 Q 183.742 174.157 185.312 174.057 Q 186.512 173.987 186.902 173.787 Q 188.092 173.177 187.422 171.987 C 187.353 171.899 187.338 171.784 187.383 171.683 C 187.429 171.583 187.527 171.512 187.642 171.497 Q 191.252 171.037 194.662 172.387 Q 195.452 174.237 196.142 174.697 Q 202.772 179.127 210.512 181.077 Q 213.062 181.717 212.452 179.887 Q 211.912 178.257 210.352 177.417 Q 206.962 175.567 203.512 173.837 Q 200.632 172.387 202.252 170.087 Q 202.272 170.057 203.702 168.757 Q 204.882 167.687 204.882 165.767 Q 209.882 164.497 213.792 167.517 Q 216.902 169.907 216.202 173.637 Q 215.672 176.437 216.212 178.277 Z " fill="rgb(211,146,63)"/><path d=" M 194.492 171.637 Q 194.702 171.997 194.662 172.387 Q 191.252 171.037 187.642 171.497 C 187.527 171.512 187.429 171.583 187.383 171.683 C 187.338 171.784 187.353 171.899 187.422 171.987 Q 188.092 173.177 186.902 173.787 Q 186.512 173.987 185.312 174.057 Q 183.742 174.157 182.452 175.177 Q 180.312 173.857 177.952 173.857 Q 175.732 173.847 173.782 175.367 Q 169.002 179.087 175.242 183.637 Q 175.092 184.247 174.452 184.427 Q 171.872 183.517 170.512 185.447 Q 161.262 198.607 155.892 212.327 Q 154.692 215.377 152.652 217.107 Q 148.332 220.757 143.622 223.857 C 143.339 224.041 143.175 224.331 143.182 224.637 Q 143.082 225.657 142.452 226.427 Q 139.092 216.397 144.162 206.807 L 148.452 202.177 Q 150.612 200.527 151.952 198.177 Q 155.062 195.377 156.452 191.427 Q 157.812 188.577 157.912 185.387 Q 157.872 184.187 158.952 183.847 L 163.922 179.467 Q 166.472 180.077 166.842 175.877 Q 173.292 169.427 182.702 169.417 Q 185.722 169.407 190.452 169.637 Q 193.092 169.767 194.492 171.637 Z " fill="rgb(250,200,81)"/><path d=" M 236.662 207.887 Q 233.712 207.427 233.462 210.637 Q 232.752 219.817 229.742 230.237 C 229.532 230.962 229.645 231.742 230.052 232.377 Q 230.852 233.617 230.912 235.137 L 214.702 208.597 Q 215.762 202.727 216.952 196.887 Q 218.522 189.167 216.212 178.277 Q 222.852 182.667 227.002 189.987 C 227.269 190.468 227.85 190.677 228.362 190.477 Q 233.452 188.517 237.742 191.247 Q 240.502 193.007 241.732 195.837 Q 243.002 198.757 242.472 202.197 Q 241.922 205.727 238.512 206.267 C 238.193 206.302 237.885 206.154 237.742 205.897 Q 237.022 204.427 238.582 201.987 C 239.092 201.212 239.076 200.207 238.542 199.447 Q 237.642 198.157 237.032 200.097 Q 236.882 200.537 236.502 200.887 Q 235.712 201.627 235.512 202.647 Q 235.372 203.347 235.832 204.537 Q 236.442 206.157 236.662 207.887 Z " fill="rgb(138,69,59)"/><path d=" M 124.21 196.097 C 124.49 195.891 125.919 197.36 127.399 199.374 C 128.88 201.389 129.854 203.192 129.573 203.398 C 129.293 203.604 127.864 202.135 126.384 200.12 C 124.904 198.105 123.93 196.302 124.21 196.097 Z " fill="rgb(208,165,73)"/><path d=" M 214.702 208.597 L 230.912 235.137 L 232.952 239.177 Q 235.982 245.827 237.622 252.947 Q 239.652 261.737 241.702 279.387 Q 242.222 283.877 241.312 286.597 Q 241.142 287.127 240.762 287.407 Q 239.992 287.987 239.772 287.077 Q 239.702 286.787 239.762 286.197 Q 240.152 282.397 236.952 279.387 Q 229.342 272.217 222.762 264.077 Q 219.122 259.587 215.162 255.387 Q 216.892 254.107 217.392 253.077 Q 218.102 251.597 219.412 251.637 Q 220.242 252.697 221.222 252.877 L 236.302 274.527 Q 237.352 276.027 237.142 274.197 Q 235.382 258.587 230.412 244.887 L 226.662 236.947 L 213.152 212.017 L 214.702 208.597 Z " fill="rgb(254,201,48)"/><path d=" M 213.152 212.017 L 226.662 236.947 L 216.452 248.177 Q 213.532 246.827 211.512 248.197 Q 210.002 249.227 211.492 251.137 Q 210.772 253.417 208.452 252.427 Q 209.382 252.657 209.592 252.187 C 209.686 252.061 209.691 251.909 209.605 251.779 C 209.519 251.649 209.353 251.559 209.162 251.537 Q 205.472 250.317 201.742 251.317 C 201.425 251.405 201.145 251.583 200.942 251.827 Q 197.792 255.727 204.172 256.797 C 204.351 256.828 204.533 256.771 204.664 256.645 C 204.794 256.518 204.856 256.337 204.832 256.157 Q 204.432 253.417 207.452 252.677 Q 207.482 253.587 208.262 254.077 Q 210.682 255.567 208.892 256.577 Q 206.482 257.927 203.832 258.287 Q 199.442 258.867 198.652 259.057 Q 192.622 260.567 186.442 261.317 Q 182.782 261.767 179.182 260.997 C 178.881 260.976 178.584 261.068 178.372 261.247 Q 177.602 261.937 176.842 261.387 Q 175.882 260.697 175.832 260.667 Q 174.412 259.917 173.112 258.987 Q 170.962 257.427 168.272 257.977 Q 167.672 258.097 167.602 258.377 C 167.564 258.49 167.618 258.607 167.748 258.693 C 167.877 258.779 168.067 258.825 168.262 258.817 Q 172.172 258.837 174.642 261.677 C 174.845 261.912 174.922 262.231 174.849 262.533 C 174.775 262.835 174.56 263.082 174.272 263.197 Q 171.232 264.417 167.872 264.457 Q 165.442 263.977 163.602 261.907 C 163.295 261.563 163.139 261.111 163.167 260.651 C 163.195 260.191 163.406 259.762 163.752 259.457 Q 165.272 258.137 163.772 256.797 Q 161.392 254.697 158.952 253.637 Q 157.402 252.967 155.702 253.847 Q 156.602 249.757 153.742 247.137 Q 153.352 244.717 151.262 242.327 Q 149.942 240.817 151.412 239.387 Q 154.452 241.917 155.732 244.907 Q 156.912 247.677 159.932 247.637 Q 170.442 247.507 179.852 243.477 Q 202.312 233.837 213.152 212.017 Z " fill="rgb(134,68,58)"/><path d=" M 236.662 207.887 Q 240.042 223.067 234.482 236.767 Q 233.582 237.947 233.702 238.597 L 232.952 239.177 L 230.912 235.137 Q 230.852 233.617 230.052 232.377 C 229.645 231.742 229.532 230.962 229.742 230.237 Q 232.752 219.817 233.462 210.637 Q 233.712 207.427 236.662 207.887 Z " fill="rgb(240,102,55)"/><path d=" M 182.452 175.177 L 185.112 177.477 L 182.502 178.587 C 182.137 178.709 181.884 178.918 181.812 179.157 Q 181.062 180.687 179.782 181.767 C 179.562 181.927 179.252 182.049 178.892 182.117 Q 178.062 182.257 177.442 182.777 Q 177.372 182.827 176.762 183.757 Q 176.222 184.567 175.242 183.637 Q 169.002 179.087 173.782 175.367 Q 175.732 173.847 177.952 173.857 Q 180.312 173.857 182.452 175.177 Z " fill="rgb(89,52,42)"/><path d=" M 148.242 236.137 L 151.412 239.387 Q 149.942 240.817 151.262 242.327 Q 153.352 244.717 153.742 247.137 L 153.732 251.627 C 153.912 251.927 153.756 252.259 153.332 252.477 L 151.732 254.277 Q 143.662 256.797 141.452 249.137 Q 141.062 247.797 140.082 241.457 L 143.742 239.117 Q 144.192 238.837 144.632 238.747 Q 146.972 238.297 148.242 236.137 Z " fill="rgb(198,137,56)"/><path d=" M 226.662 236.947 L 230.412 244.887 Q 224.912 247.657 221.222 252.877 Q 220.242 252.697 219.412 251.637 L 216.452 248.177 L 226.662 236.947 Z " fill="rgb(223,91,58)"/><path d=" M 157.002 185.007 Q 157.592 184.677 157.912 185.387 Q 157.812 188.577 156.452 191.427 Q 150.202 186.377 146.442 192.947 C 146.266 193.226 146.223 193.559 146.322 193.867 Q 147.452 197.897 151.952 198.177 Q 150.612 200.527 148.452 202.177 Q 146.362 202.627 145.562 201.117 Q 144.752 198.557 142.142 196.197 Q 139.672 193.977 141.572 190.987 Q 146.812 182.757 157.002 185.007 Z " fill="rgb(195,124,56)"/><path d=" M 140.082 241.457 Q 141.062 247.797 141.452 249.137 Q 143.662 256.797 151.732 254.277 Q 149.332 256.947 145.452 256.177 Q 133.512 252.097 140.082 241.457 Z " fill="rgb(195,124,56)"/><path d=" M 153.742 247.137 Q 156.602 249.757 155.702 253.847 Q 151.222 257.627 145.452 256.177 Q 149.332 256.947 151.732 254.277 L 153.332 252.477 C 153.756 252.259 153.912 251.927 153.732 251.627 L 153.742 247.137 Z " fill="rgb(154,90,56)"/><path d=" M 216.452 248.177 L 219.412 251.637 Q 218.102 251.597 217.392 253.077 Q 216.892 254.107 215.162 255.387 Q 214.562 254.707 213.742 254.387 L 211.492 251.137 Q 210.002 249.227 211.512 248.197 Q 213.532 246.827 216.452 248.177 Z " fill="rgb(240,137,48)"/><path d=" M 185.112 177.477 Q 184.132 184.117 177.762 186.437 Q 174.662 187.557 174.452 184.427 Q 175.092 184.247 175.242 183.637 Q 176.222 184.567 176.762 183.757 Q 177.372 182.827 177.442 182.777 Q 178.062 182.257 178.892 182.117 C 179.252 182.049 179.562 181.927 179.782 181.767 Q 181.062 180.687 181.812 179.157 C 181.884 178.918 182.137 178.709 182.502 178.587 L 185.112 177.477 Z " fill="rgb(137,75,47)"/><path d=" M 211.492 251.137 L 213.742 254.387 Q 214.132 259.737 209.012 261.697 Q 194.372 267.307 179.382 264.177 C 179.07 264.118 178.748 264.179 178.482 264.347 Q 173.472 267.627 167.872 264.457 Q 171.232 264.417 174.272 263.197 C 174.56 263.082 174.775 262.835 174.849 262.533 C 174.922 262.231 174.845 261.912 174.642 261.677 Q 172.172 258.837 168.262 258.817 C 168.067 258.825 167.877 258.779 167.748 258.693 C 167.618 258.607 167.564 258.49 167.602 258.377 Q 167.672 258.097 168.272 257.977 Q 170.962 257.427 173.112 258.987 Q 174.412 259.917 175.832 260.667 Q 175.882 260.697 176.842 261.387 Q 177.602 261.937 178.372 261.247 C 178.584 261.068 178.881 260.976 179.182 260.997 Q 182.782 261.767 186.442 261.317 Q 192.622 260.567 198.652 259.057 Q 199.442 258.867 203.832 258.287 Q 206.482 257.927 208.892 256.577 Q 210.682 255.567 208.262 254.077 Q 207.482 253.587 207.452 252.677 Q 207.862 252.267 208.452 252.427 Q 210.772 253.417 211.492 251.137 Z " fill="rgb(232,115,52)"/><path d=" M 197.162 171.637 L 197.742 171.137 Q 200.752 169.967 201.102 172.577 C 201.148 172.904 201.054 173.234 200.842 173.487 Q 199.662 174.927 197.762 174.867 C 197.432 174.848 197.128 174.694 196.932 174.447 Q 195.962 173.167 197.162 171.637 Z " fill="rgb(174,107,53)"/><path d=" M 142.102 231.267 C 141.74 231.354 141.469 231.611 141.405 231.929 C 141.341 232.247 141.495 232.569 141.802 232.757 Q 143.742 235.147 144.452 237.397 Q 144.972 239.027 143.442 238.257 Q 141.372 237.207 139.972 235.067 Q 139.692 234.647 139.252 234.417 Q 134.942 232.117 139.602 229.257 Q 142.572 227.437 143.082 230.567 C 143.145 230.815 142.946 231.059 142.632 231.117 L 142.102 231.267 Z " fill="rgb(174,107,53)"/><path d=" M 204.882 165.767 Q 204.882 167.687 203.702 168.757 Q 202.272 170.057 202.252 170.087 Q 200.632 172.387 203.512 173.837 Q 206.962 175.567 210.352 177.417 Q 211.912 178.257 212.452 179.887 Q 213.062 181.717 210.512 181.077 Q 202.772 179.127 196.142 174.697 Q 195.452 174.237 194.662 172.387 Q 194.702 171.997 194.492 171.637 L 197.162 171.637 Q 195.962 173.167 196.932 174.447 C 197.128 174.694 197.432 174.848 197.762 174.867 Q 199.662 174.927 200.842 173.487 C 201.054 173.234 201.148 172.904 201.102 172.577 Q 200.752 169.967 197.742 171.137 Q 200.452 167.257 204.882 165.767 Z " fill="rgb(118,66,49)"/><path d=" M 219.152 291.957 Q 217.742 291.247 217.022 289.847 Q 212.552 281.127 213.882 271.377 C 213.876 271.071 214.067 270.787 214.382 270.637 Q 215.242 270.227 216.032 270.617 C 216.345 270.773 216.505 271.077 216.432 271.377 Q 216.202 279.827 219.492 287.507 Q 220.272 289.337 222.002 290.317 Q 229.362 294.477 232.802 302.197 Q 233.642 304.067 232.122 303.747 Q 231.562 303.637 231.082 303.117 Q 229.592 301.527 228.332 299.757 Q 226.652 297.387 225.612 296.427 Q 222.722 293.757 219.152 291.957 Z " fill="rgb(254,205,67)"/><path d=" M 233.702 238.597 Q 233.582 237.947 234.482 236.767 Q 243.492 240.457 247.962 248.907 Q 252.692 257.837 254.202 265.387 Q 255.002 269.377 252.912 273.937 C 252.736 274.233 252.68 274.565 252.752 274.887 Q 253.142 277.887 255.072 280.277 Q 259.502 285.787 255.922 291.837 Q 254.362 294.467 255.542 297.127 C 255.671 297.383 255.948 297.552 256.262 297.567 Q 258.782 297.607 257.482 299.717 C 257.282 299.984 257.238 300.318 257.362 300.617 Q 258.052 302.657 258.862 304.657 Q 259.932 307.287 260.192 308.727 Q 261.242 314.467 259.012 320.197 Q 258.022 322.747 255.792 323.407 Q 254.082 323.917 251.652 323.167 Q 247.942 322.017 245.512 318.927 Q 243.702 316.637 243.642 316.567 Q 242.382 315.107 241.412 313.837 C 240.84 313.095 240.028 312.569 239.112 312.347 Q 235.872 311.557 237.512 310.197 Q 239.932 308.207 242.142 310.947 Q 243.922 313.167 245.452 315.567 Q 249.092 321.267 255.832 321.137 C 256.222 321.129 256.572 320.9 256.732 320.547 Q 259.482 314.617 257.462 309.387 C 257.349 309.099 257.103 308.884 256.803 308.81 C 256.502 308.737 256.185 308.814 255.952 309.017 Q 253.942 310.797 252.022 310.057 Q 250.942 309.647 249.512 307.577 Q 243.532 298.967 235.142 293.447 Q 234.242 292.857 234.322 292.107 C 234.342 291.991 234.42 291.887 234.538 291.82 C 234.656 291.753 234.802 291.731 234.942 291.757 Q 242.432 293.627 246.392 298.447 Q 251.802 305.037 253.512 305.827 Q 255.412 306.697 255.072 304.407 Q 254.712 302.017 253.072 300.607 Q 251.722 299.437 251.702 297.647 Q 251.672 293.717 253.192 290.147 Q 253.232 290.077 253.932 288.807 Q 255.272 286.377 253.262 283.827 Q 251.832 282.007 250.642 278.697 Q 249.332 275.087 250.622 272.317 Q 251.752 269.887 251.372 267.427 Q 251.342 267.207 250.112 262.827 Q 245.952 248.067 233.702 238.597 Z " fill="rgb(249,194,60)"/><path d=" M 195.122 286.117 Q 197.112 287.257 199.472 287.637 C 199.618 287.651 199.761 287.598 199.857 287.494 C 199.952 287.391 199.988 287.25 199.952 287.117 L 198.602 279.357 Q 198.382 278.087 199.572 278.697 Q 201.102 279.477 201.502 281.377 Q 203.082 288.877 206.792 295.567 Q 207.802 297.387 209.472 298.377 Q 210.682 299.097 213.102 299.217 Q 217.792 299.437 218.702 299.887 Q 222.632 301.807 222.252 306.147 C 222.242 306.466 222.102 306.77 221.862 306.997 Q 220.012 308.777 219.762 305.577 Q 219.472 301.737 215.952 302.137 Q 213.472 302.417 210.532 301.517 Q 208.052 300.767 206.112 298.657 Q 203.242 295.557 201.502 292.167 Q 200.632 290.457 198.722 290.177 Q 190.772 289.027 188.142 282.727 Q 187.122 280.287 186.952 278.507 Q 186.732 276.227 187.892 274.057 Q 188.762 272.447 188.962 274.267 Q 189.502 278.977 191.972 282.957 Q 193.272 285.057 195.122 286.117 Z " fill="rgb(249,194,60)"/><circle vector-effect="non-scaling-stroke" cx="259.47163673957766" cy="281.34745627516895" r="1.5400000000000205" fill="rgb(248,182,57)"/><path d=" M 203.872 287.826 C 203.857 286.893 205.216 286.114 206.905 286.088 C 208.594 286.061 209.977 286.797 209.991 287.729 C 210.006 288.662 208.647 289.441 206.958 289.467 C 205.27 289.494 203.887 288.758 203.872 287.826 Z " fill="rgb(248,182,57)"/><path d=" M 221.117 280.956 C 221.701 280.578 222.764 281.182 223.49 282.303 C 224.215 283.424 224.33 284.642 223.746 285.019 C 223.162 285.397 222.099 284.793 221.374 283.672 C 220.648 282.55 220.533 281.333 221.117 280.956 Z " fill="rgb(254,225,95)"/><path d=" M 168.962 234.637 C 168.594 234.354 168.345 233.944 168.262 233.487 Q 167.892 231.327 169.342 229.677 Q 170.672 228.167 172.622 228.227 Q 174.992 228.307 175.542 230.677 Q 175.912 232.287 175.342 234.067 Q 173.952 238.367 168.962 234.637 Z " fill="rgb(89,52,42)"/><path d=" M 190.952 216.427 Q 194.772 215.257 193.952 211.887 Q 193.242 208.967 190.372 211.107 Q 188.342 208.587 189.862 207.317 Q 190.882 206.477 192.702 206.867 Q 198.362 208.097 196.942 213.837 Q 196.412 215.977 194.962 216.697 Q 193.192 217.577 190.952 216.427 Z " fill="rgb(154,90,56)"/><path d=" M 170.302 213.347 Q 171.502 209.527 169.242 206.287 C 169.064 206.041 168.789 205.863 168.472 205.787 Q 164.262 204.857 168.022 204.157 C 168.341 204.099 168.671 204.133 168.972 204.257 Q 176.972 207.577 173.332 215.417 Q 172.522 217.167 170.632 216.797 Q 165.102 215.707 169.662 213.997 C 169.98 213.88 170.217 213.64 170.302 213.347 Z " fill="rgb(137,75,47)"/><path d=" M 167.066 209.946 C 167.599 210.838 167.647 211.882 167.197 212.809 C 166.747 213.735 165.843 214.453 164.719 214.778 C 162.795 215.456 160.577 214.816 159.557 213.289 C 159.024 212.397 158.976 211.353 159.426 210.426 C 159.876 209.5 160.78 208.781 161.904 208.457 C 163.828 207.779 166.046 208.419 167.066 209.946 Z " fill="rgb(104,60,41)"/><path d=" M 177.352 178.167 C 176.696 177.93 175.968 178.012 175.382 178.387 Q 173.002 179.927 173.062 178.557 C 173.032 178.244 173.194 177.937 173.502 177.727 Q 175.762 175.737 178.462 177.197 C 178.819 177.342 179.028 177.634 178.992 177.937 Q 179.002 178.767 177.352 178.167 Z " fill="rgb(174,107,53)"/><path d=" M 205.932 189.057 Q 207.372 188.007 205.732 186.767 C 205.374 186.5 204.922 186.389 204.48 186.46 C 204.038 186.532 203.645 186.78 203.392 187.147 Q 202.562 188.367 202.192 189.357 Q 201.912 190.117 201.572 190.377 Q 200.852 190.937 200.402 190.117 Q 200.182 189.717 200.222 189.117 Q 200.512 183.497 206.122 185.687 C 207.07 186.063 207.696 186.977 207.702 187.997 Q 207.712 192.067 204.382 193.157 C 204.101 193.253 203.793 193.218 203.54 193.064 C 203.287 192.909 203.115 192.651 203.072 192.357 Q 202.402 187.667 205.092 189.077 C 205.358 189.19 205.676 189.183 205.932 189.057 L 205.932 189.057 Z " fill="rgb(118,66,49)"/><path d=" M 190.952 216.427 Q 183.822 214.737 190.372 211.107 Q 193.242 208.967 193.952 211.887 Q 194.772 215.257 190.952 216.427 Z " fill="rgb(69,43,44)"/><path d=" M 148.456 244.974 C 149.728 244.648 151.14 245.858 151.607 247.676 C 152.074 249.493 151.419 251.234 150.147 251.561 C 148.875 251.887 147.463 250.677 146.996 248.859 C 146.53 247.042 147.184 245.301 148.456 244.974 Z " fill="rgb(69,43,44)"/><path d=" M 115.882 131.707 Q 113.262 129.827 111.732 126.137 Q 111.412 125.367 112.032 125.927 Q 117.182 130.567 122.272 133.487 Q 122.702 133.737 122.962 133.977 Q 124.142 135.037 122.442 134.877 Q 122.042 134.837 121.602 134.687 Q 118.532 133.607 115.882 131.707 Z " fill="rgb(43,27,50)"/><path d=" M 161.26 212.654 C 160.789 211.868 161.295 210.698 162.389 210.043 C 163.483 209.388 164.753 209.495 165.224 210.281 C 165.694 211.067 165.188 212.237 164.094 212.892 C 163 213.547 161.73 213.44 161.26 212.654 Z " fill="rgb(154,90,56)"/><path d=" M 170.751 229.894 C 171.289 229.841 171.789 230.43 171.867 231.21 C 171.945 231.99 171.571 232.667 171.033 232.72 C 170.494 232.774 169.994 232.185 169.916 231.405 C 169.839 230.625 170.212 229.948 170.751 229.894 Z " fill="rgb(174,107,53)"/></g></svg>