<?xml version="1.0" encoding="UTF-8" standalone="no"?><!-- Generator: Gravit.io --><svg xmlns="http://www.w3.org/2000/svg" xmlns:xlink="http://www.w3.org/1999/xlink" style="isolation:isolate" viewBox="147.725 226.453 196.948 155.603" width="196.948pt" height="155.603pt"><defs><clipPath id="_clipPath_mA9dWikLnC1vkKauOb3OAA4BkvlxI9es"><rect x="147.725" y="226.453" width="196.948" height="155.603"/></clipPath></defs><g clip-path="url(#_clipPath_mA9dWikLnC1vkKauOb3OAA4BkvlxI9es)"><path d=" M 272.079 238.621 L 274.789 238.91 Q 274.369 240.501 275.829 240.7 Q 277.449 242.72 280.039 243.41 Q 281.019 244.741 282.059 244.181 Q 283.279 243.53 283.349 243.51 Q 287.679 242.28 292.089 243.371 Q 297.239 244.64 298.869 249.66 Q 298.959 252.29 298.519 253.35 Q 295.139 261.501 288.899 267.73 Q 280.269 276.32 270.439 283.4 Q 262.609 289.04 253.809 294.501 Q 245.009 299.96 234.769 304.85 Q 211.859 315.78 189.579 322.171 Q 180.989 324.64 172.079 325.45 L 166.139 325.061 C 166.028 325.063 165.925 325.012 165.87 324.928 C 165.816 324.844 165.819 324.741 165.879 324.66 Q 167.029 322.84 169.579 323.2 L 176.829 322.2 L 185.079 320.371 L 192.369 318.16 Q 213.959 312.23 233.829 301.95 Q 249.689 294.751 267.519 282.35 Q 280.519 273.301 288.829 263.7 L 289.369 262.91 Q 292.509 259.121 295.389 253.72 Q 296.299 252.01 296.039 250.41 Q 295.679 248.241 293.619 247.4 Q 290.069 245.96 286.279 245.371 Q 283.819 244.98 283.039 247.16 Q 278.109 244.21 272.269 239.22 Q 271.849 238.861 272.079 238.621 Z " fill="rgb(72,55,57)"/><path d=" M 301.539 249.16 Q 300.279 250.72 298.869 249.66 Q 297.239 244.64 292.089 243.371 Q 287.679 242.28 283.349 243.51 Q 283.279 243.53 282.059 244.181 Q 281.019 244.741 280.039 243.41 Q 279.959 242.72 280.569 242.53 Q 281.109 242.371 281.179 242.33 Q 287.849 239.2 294.579 240.41 Q 301.599 241.671 301.539 249.16 Z " fill="rgb(183,114,37)"/><path d=" M 308.079 253.371 Q 305.109 255.84 302.949 259.02 Q 302.599 259.53 302.159 259.751 Q 300.569 260.561 301.329 258.45 Q 304.389 252.16 303.579 246.66 Q 302.929 242.23 299.279 240.27 Q 296.669 238.871 292.399 238.26 Q 288.619 237.73 284.789 238.78 Q 280.729 239.9 279.829 239.91 Q 277.099 239.941 275.829 240.7 Q 274.369 240.501 274.789 238.91 Q 285.889 235.27 297.579 235.41 Q 299.169 235.431 301.759 236.26 Q 304.149 237.03 305.569 238.07 Q 309.999 241.301 309.579 247.41 Q 309.429 249.52 308.079 253.371 Z " fill="rgb(171,75,47)"/><path d=" M 301.539 249.16 Q 301.389 254.941 299.329 260.371 Q 292.369 271.27 283.769 278.35 Q 256.189 301.02 222.189 315.6 Q 215.269 318.561 206.139 321.501 Q 199.309 323.691 189.829 326.66 Q 172.959 331.941 155.829 330.95 Q 151.089 330.311 148.939 326.861 Q 147.099 323.9 148.049 319.73 Q 149.079 315.14 152.389 310.97 Q 159.899 301.51 168.289 295.66 Q 168.659 296.051 168.579 296.621 L 167.829 297.251 C 167.471 297.416 167.315 297.704 167.439 297.97 Q 167.519 299.491 166.769 300.35 Q 161.889 305.871 157.269 311.6 Q 154.109 315.51 154.039 319.77 Q 153.999 321.91 155.159 323.13 Q 156.409 324.441 158.579 324.91 Q 165.999 326.52 172.079 325.45 Q 180.989 324.64 189.579 322.171 Q 211.859 315.78 234.769 304.85 Q 245.009 299.96 253.809 294.501 Q 262.609 289.04 270.439 283.4 Q 280.269 276.32 288.899 267.73 Q 295.139 261.501 298.519 253.35 Q 298.959 252.29 298.869 249.66 Q 300.279 250.72 301.539 249.16 Z " fill="rgb(171,75,47)"/><path d=" M 280.329 253.871 Q 283.919 258.52 289.129 261.191 C 289.412 261.323 289.519 261.625 289.369 261.871 Q 289.229 262.361 289.369 262.91 L 288.829 263.7 Q 285.329 264.53 282.579 266.91 Q 275.689 272.89 269.769 277.1 Q 268.559 277.95 266.829 277.95 Q 264.229 278.58 262.149 277.08 Q 259.599 275.241 260.679 273.2 Q 261.179 272.241 263.219 270.88 Q 268.769 267.181 271.019 265.35 Q 273.989 262.921 277.819 262.54 Q 280.179 262.311 283.749 261.611 C 283.988 261.564 284.183 261.396 284.262 261.169 C 284.34 260.942 284.289 260.691 284.129 260.51 Q 280.959 256.79 277.439 256.58 Q 276.709 256.53 274.439 257.45 Q 271.859 258.491 268.579 256.91 Q 264.999 255.191 262.389 256.97 Q 257.299 260.45 255.499 261.441 Q 255.009 261.71 254.629 261.57 Q 254.159 261.41 253.869 260.91 L 253.539 258.91 Q 257.809 255.14 262.879 252.66 Q 265.049 251.6 267.499 251.811 Q 273.389 252.34 277.269 254.22 Q 279.329 255.22 280.329 253.871 Z " fill="rgb(105,81,104)"/><path d=" M 308.079 253.371 L 309.329 253.95 Q 306.709 256.53 305.079 259.871 Q 294.879 275.77 279.829 287.2 Q 269.939 293.09 260.829 300.121 L 239.539 311.66 Q 235.989 312.45 233.329 314.871 L 230.579 316.2 Q 226.479 317.39 222.829 319.621 L 213.329 324.45 L 209.329 325.621 Q 205.189 326.9 201.049 328.191 Q 195.779 329.82 192.969 331.32 Q 186.479 334.78 180.669 340.71 C 180.324 341.069 180.306 341.631 180.629 342.01 Q 186.379 348.691 181.539 356.66 L 177.329 362.621 L 174.079 364.121 Q 170.589 366.051 166.539 365.91 Q 161.439 362.89 159.619 357.16 Q 158.519 353.111 158.539 348.91 L 159.929 334.28 C 159.97 334.132 159.942 333.975 159.852 333.845 C 159.762 333.715 159.616 333.623 159.449 333.59 L 154.579 332.871 Q 156.339 332.89 155.829 330.95 Q 172.959 331.941 189.829 326.66 Q 199.309 323.691 206.139 321.501 Q 215.269 318.561 222.189 315.6 Q 256.189 301.02 283.769 278.35 Q 292.369 271.27 299.329 260.371 Q 300.739 260.431 300.779 258.85 Q 300.789 258.28 301.329 258.45 Q 300.569 260.561 302.159 259.751 Q 302.599 259.53 302.949 259.02 Q 305.109 255.84 308.079 253.371 Z " fill="rgb(95,53,51)"/><path d=" M 294.079 250.95 Q 293.209 254.09 291.199 256.15 C 290.666 256.693 289.825 256.793 289.179 256.39 Q 284.269 253.28 284.619 248.16 Q 287.309 243.991 287.579 249.16 Q 287.689 251.22 289.169 254.39 C 289.286 254.648 289.576 254.803 289.879 254.77 Q 292.269 254.251 292.829 251.41 Q 292.989 250.6 294.079 250.95 Z " fill="rgb(120,71,52)"/><path d=" M 296.579 287.7 L 283.089 293.871 C 282.914 293.929 282.81 294.057 282.829 294.191 Q 282.819 294.301 282.869 294.41 L 280.339 296.03 C 280.203 296.078 280.102 296.176 280.068 296.295 C 280.035 296.414 280.072 296.539 280.169 296.63 Q 281.429 298.361 283.539 298.91 Q 283.199 303.66 279.519 305.85 Q 277.749 306.9 277.329 307.371 L 274.329 308.621 Q 272.369 308.9 270.489 308.57 Q 268.779 308.27 267.249 306.801 Q 264.279 303.95 261.789 300.66 Q 261.969 299.84 262.839 299.691 Q 265.079 299.301 267.329 298.95 Q 270.489 297.421 273.659 295.921 Q 273.779 295.871 276.699 294.741 Q 278.899 293.89 280.639 292.22 Q 281.669 291.241 283.009 290.77 Q 283.169 290.71 283.249 290.621 Q 283.399 290.45 283.309 290.32 C 283.176 290.244 282.981 290.221 282.809 290.26 Q 275.309 293.051 268.329 296.95 Q 266.719 297.02 267.959 296.361 Q 272.299 294.04 275.949 290.77 Q 277.999 288.941 280.329 287.45 Q 284.189 286.35 285.329 286.16 Q 293.109 284.861 299.639 278.97 Q 303.079 275.88 304.459 274.23 C 304.765 274.004 304.853 273.656 304.679 273.361 Q 304.349 272.431 302.889 272.72 Q 299.629 273.371 301.759 271.54 C 301.998 271.345 302.317 271.248 302.639 271.27 Q 304.299 271.51 305.109 272.97 C 305.242 273.235 305.489 273.446 305.799 273.561 Q 311.239 275.371 313.639 279.1 Q 315.059 281.29 313.429 282.921 Q 312.139 284.22 310.839 285.04 Q 308.829 286.29 306.969 283.76 Q 306.329 282.88 305.319 282.54 Q 304.839 282.38 304.459 282.08 Q 303.099 281.01 302.099 282.48 C 301.973 282.656 301.925 282.876 301.967 283.087 C 302.008 283.298 302.135 283.484 302.319 283.6 Q 304.229 284.82 305.339 287.51 Q 306.319 289.871 308.749 289.111 Q 313.449 287.64 316.459 283.53 Q 318.729 280.441 316.479 277.251 Q 313.409 272.88 309.019 270.97 Q 307.759 270.431 305.869 270.63 Q 305.559 270.66 305.299 270.58 Q 303.719 270.111 305.729 269.941 Q 306.039 269.91 306.419 269.98 Q 308.779 270.421 309.759 269.22 Q 311.459 267.14 313.599 268.751 Q 317.119 271.39 319.179 274.57 Q 320.989 277.361 320.719 280.09 Q 320.439 283.02 318.389 285.72 Q 313.719 291.9 306.009 293.03 Q 304.399 293.26 303.019 294.1 Q 300.889 295.39 302.389 293.47 Q 303.929 291.52 302.949 289.82 Q 302.179 288.46 300.929 287.28 Q 299.179 285.64 296.579 287.7 Z " fill="rgb(120,71,52)"/><path d=" M 339.869 286.41 Q 334.979 293.38 328.169 298.52 Q 319.639 304.95 308.389 310.72 Q 306.659 311.611 305.579 311.7 Q 304.299 311.6 303.899 312.621 C 303.815 312.861 303.578 313.06 303.259 313.16 L 300.579 314.121 Q 288.539 318.801 275.829 321.121 Q 277.969 320.431 279.819 319.23 Q 282.009 317.801 283.689 317.28 Q 290.789 315.07 297.419 311.77 Q 299.079 310.941 310.509 304.941 Q 324.339 297.681 336.509 287.79 C 336.749 287.645 337.061 287.56 337.389 287.551 Q 338.519 287.611 339.109 286.39 Q 339.549 285.47 339.869 286.41 Z " fill="rgb(244,151,62)"/><path d=" M 211.579 233.621 Q 213.579 233.191 212.969 235.6 C 212.803 236.245 212.315 236.759 211.679 236.96 Q 208.519 237.941 205.329 238.66 Q 202.619 239.27 201.219 242.65 Q 198.009 250.431 193.519 253.85 Q 191.479 255.39 187.319 254.97 C 186.993 254.949 186.668 255.004 186.379 255.13 Q 182.259 257.301 181.099 263.04 C 180.975 263.645 181.242 264.263 181.769 264.59 L 185.269 266.72 C 185.554 266.891 185.73 267.197 185.732 267.528 C 185.734 267.858 185.562 268.166 185.279 268.34 Q 182.649 270.01 180.349 272.07 Q 177.499 274.63 176.839 277.01 Q 175.859 280.59 178.559 283.941 Q 178.589 283.97 179.529 284.941 Q 182.359 287.89 176.789 290.681 Q 175.139 291.51 175.149 293.361 Q 175.199 299.14 177.429 305.7 Q 178.679 309.34 179.239 310.181 Q 180.899 312.66 184.339 312.001 Q 186.709 311.551 185.649 313.71 Q 184.069 316.931 185.079 320.371 L 176.829 322.2 Q 177.359 316.96 173.249 313.95 C 172.972 313.762 172.78 313.488 172.709 313.181 Q 171.849 309.85 169.869 307.061 C 169.447 306.837 169.416 306.475 169.799 306.22 Q 169.909 305.82 169.579 305.45 Q 170.509 305.111 170.579 304.41 Q 170.989 300.38 168.579 296.621 Q 168.659 296.051 168.289 295.66 Q 168.839 289.301 174.329 284.64 C 174.89 284.162 175.188 283.444 175.129 282.71 Q 174.309 272.76 176.699 263.59 Q 178.389 257.07 181.759 253.741 Q 185.909 249.621 192.329 248.671 Q 196.399 248.061 198.519 244.6 Q 199.109 243.63 200.179 240.871 Q 201.159 238.34 201.989 237.26 Q 205.309 232.931 211.579 233.621 Z " fill="rgb(249,208,72)"/><path d=" M 233.829 301.95 Q 213.959 312.23 192.369 318.16 Q 190.739 317.46 191.589 316.311 Q 191.959 315.801 192.909 315.421 Q 197.339 313.681 201.579 311.561 Q 207.059 308.82 210.099 307.431 Q 218.639 303.53 226.789 298.84 Q 228.309 297.96 226.579 298.22 L 209.389 300.76 Q 208.799 300.85 209.169 300.441 L 213.439 295.73 C 213.643 295.547 213.965 295.415 214.339 295.361 Q 218.089 295.02 221.829 294.6 Q 225.289 294.21 229.129 292.91 Q 234.799 290.991 240.599 289.47 Q 241.389 289.26 241.369 289.861 C 241.41 290.147 241.182 290.42 240.809 290.53 L 232.349 294.03 Q 231.869 294.23 232.329 294.46 Q 234.059 295.34 235.329 294.91 Q 239.589 293.47 243.619 291.39 Q 244.249 291.07 244.049 291.741 Q 243.719 292.861 242.959 293.59 C 242.737 293.772 242.425 293.905 242.069 293.97 Q 238.579 294.46 236.639 296.97 Q 235.369 298.63 233.829 301.95 Z " fill="rgb(249,208,72)"/><path d=" M 292.829 292.871 Q 294.529 292.871 293.419 293.561 Q 289.939 295.71 285.989 296.84 C 285.69 296.897 285.378 296.823 285.149 296.64 Q 283.429 295.14 283.769 297.72 Q 283.869 298.54 283.539 298.91 Q 281.429 298.361 280.169 296.63 C 280.072 296.539 280.035 296.414 280.068 296.295 C 280.102 296.176 280.203 296.078 280.339 296.03 L 282.869 294.41 Q 284.529 295.741 286.329 294.41 Q 287.319 293.681 292.829 292.871 Z " fill="rgb(137,129,41)"/><path d=" M 301.329 258.45 Q 300.789 258.28 300.779 258.85 Q 300.739 260.431 299.329 260.371 Q 301.389 254.941 301.539 249.16 Q 301.599 241.671 294.579 240.41 Q 287.849 239.2 281.179 242.33 Q 281.109 242.371 280.569 242.53 Q 279.959 242.72 280.039 243.41 Q 277.449 242.72 275.829 240.7 Q 277.099 239.941 279.829 239.91 Q 280.729 239.9 284.789 238.78 Q 288.619 237.73 292.399 238.26 Q 296.669 238.871 299.279 240.27 Q 302.929 242.23 303.579 246.66 Q 304.389 252.16 301.329 258.45 Z " fill="rgb(137,81,46)"/><path d=" M 168.579 296.621 Q 170.989 300.38 170.579 304.41 Q 170.509 305.111 169.579 305.45 Q 161.259 307.1 157.299 314.14 Q 156.129 316.241 156.369 318.02 Q 156.689 320.47 158.889 321.6 Q 162.939 323.681 169.579 323.2 Q 167.029 322.84 165.879 324.66 C 165.819 324.741 165.816 324.844 165.87 324.928 C 165.925 325.012 166.028 325.063 166.139 325.061 L 172.079 325.45 Q 165.999 326.52 158.579 324.91 Q 156.409 324.441 155.159 323.13 Q 153.999 321.91 154.039 319.77 Q 154.109 315.51 157.269 311.6 Q 161.889 305.871 166.769 300.35 Q 167.519 299.491 167.439 297.97 C 167.315 297.704 167.471 297.416 167.829 297.251 L 168.579 296.621 Z " fill="rgb(137,81,46)"/><path d=" M 239.539 311.66 L 239.619 311.91 Q 239.709 313.83 241.239 315.01 Q 243.629 316.85 246.079 318.621 Q 245.729 318.77 245.829 319.121 L 235.319 319.38 C 234.962 319.407 234.648 319.553 234.479 319.77 L 233.369 321.52 Q 232.869 322.311 233.879 322.34 L 245.289 322.66 Q 245.749 323.64 246.829 323.95 Q 250.019 324.98 259.079 327.41 Q 263.589 328.621 267.329 328.45 L 265.579 335.7 Q 261.249 334.96 256.899 334.45 Q 251.349 333.801 250.379 333.871 Q 246.919 334.14 244.169 336.741 Q 240.889 339.82 237.619 342.91 Q 236.769 341.79 235.399 341.54 Q 232.609 341.02 229.829 340.501 Q 229.619 340.46 228.859 340.6 L 224.329 341.371 Q 231.379 330.001 233.759 316.83 Q 233.769 316.77 234.019 316.02 Q 234.279 315.23 233.329 314.871 Q 235.989 312.45 239.539 311.66 Z " fill="rgb(138,114,98)"/><path d=" M 272.079 238.621 Q 271.849 238.861 272.269 239.22 Q 278.109 244.21 283.039 247.16 L 284.619 248.16 Q 284.269 253.28 289.179 256.39 C 289.825 256.793 290.666 256.693 291.199 256.15 Q 293.209 254.09 294.079 250.95 Q 294.979 250.39 296.039 250.41 Q 296.299 252.01 295.389 253.72 Q 292.509 259.121 289.369 262.91 Q 289.229 262.361 289.369 261.871 C 289.519 261.625 289.412 261.323 289.129 261.191 Q 283.919 258.52 280.329 253.871 Q 278.389 250.82 275.469 248.82 Q 271.579 246.171 271.509 246.111 Q 264.799 240.9 256.589 235.79 Q 255.689 235.23 254.629 235.181 Q 250.979 235.03 248.469 233.251 Q 244.179 230.22 239.079 231.66 Q 232.189 233.611 222.579 232.91 Q 221.089 232.801 221.329 233.871 L 218.829 233.241 Q 218.529 233.171 217.849 233.32 Q 216.689 233.57 216.079 232.371 Q 221.059 230.16 226.269 228.66 Q 233.419 226.611 236.849 226.47 Q 243.169 226.21 248.919 229.811 Q 250.529 230.83 252.209 231.73 Q 253.799 232.58 255.789 232.751 Q 260.489 233.16 261.519 233.47 Q 264.889 234.491 272.079 238.621 Z " fill="rgb(138,114,108)"/><path d=" M 305.579 311.7 Q 304.809 312.47 305.579 313.66 Q 307.929 317.29 306.669 321.611 C 306.604 321.905 306.397 322.17 306.089 322.35 Q 304.229 323.561 304.819 325.91 Q 305.679 329.33 303.349 331.931 Q 299.559 336.14 295.199 340.15 Q 293.609 341.611 293.319 343.751 Q 292.929 346.7 292.329 350.16 Q 291.869 352.83 288.229 354.65 Q 281.679 357.921 275.239 361.41 Q 271.729 363.32 269.949 365.1 Q 267.929 367.121 265.769 370.1 Q 263.749 372.871 259.599 373.551 Q 255.119 374.28 249.719 374.14 Q 247.609 374.08 245.629 374.82 Q 235.049 378.76 227.119 370.91 L 229.619 368.41 Q 235.019 372.08 242.139 369.47 Q 247.109 367.65 255.829 366.95 Q 260.099 366.611 262.889 363.22 Q 265.109 360.53 271.769 353.1 Q 273.229 351.46 275.989 350.79 Q 279.169 350.01 280.409 349.301 Q 283.619 347.47 286.419 345.061 Q 288.359 343.38 289.039 341.681 Q 289.799 339.76 289.839 337.35 C 289.849 336.647 290.137 335.976 290.639 335.48 Q 293.289 332.871 296.389 330.22 Q 299.159 327.861 297.759 323.88 C 297.379 323.613 297.401 323.212 297.809 322.97 L 300.629 319.431 Q 301.109 318.83 301.159 318.63 Q 301.789 316.26 300.579 314.121 L 303.259 313.16 C 303.578 313.06 303.815 312.861 303.899 312.621 Q 304.299 311.6 305.579 311.7 Z " fill="rgb(138,114,108)"/><path d=" M 280.329 253.871 Q 279.329 255.22 277.269 254.22 Q 273.389 252.34 267.499 251.811 Q 265.049 251.6 262.879 252.66 Q 257.809 255.14 253.539 258.91 Q 250.439 254.34 245.149 249.76 Q 244.529 249.22 244.069 248.54 Q 241.549 244.9 237.949 242.48 Q 230.139 237.22 221.329 233.871 Q 221.089 232.801 222.579 232.91 Q 232.189 233.611 239.079 231.66 Q 244.179 230.22 248.469 233.251 Q 250.979 235.03 254.629 235.181 Q 255.689 235.23 256.589 235.79 Q 264.799 240.9 271.509 246.111 Q 271.579 246.171 275.469 248.82 Q 278.389 250.82 280.329 253.871 Z " fill="rgb(119,92,109)"/><path d=" M 266.829 277.95 L 259.209 281.57 C 258.932 281.642 258.635 281.61 258.385 281.481 C 258.136 281.352 257.956 281.139 257.889 280.89 L 254.629 271.07 Q 253.889 268.83 255.289 267.35 Q 257.059 265.47 256.049 264.251 Q 255.509 263.59 253.739 263.35 Q 251.559 263.07 249.499 262.22 Q 247.509 261.39 249.639 261.671 L 252.839 262.08 C 253.186 262.086 253.516 262 253.719 261.85 Q 253.969 261.501 253.869 260.91 Q 254.159 261.41 254.629 261.57 Q 255.009 261.71 255.499 261.441 Q 257.299 260.45 262.389 256.97 Q 264.999 255.191 268.579 256.91 Q 271.859 258.491 274.439 257.45 Q 276.709 256.53 277.439 256.58 Q 280.959 256.79 284.129 260.51 C 284.289 260.691 284.34 260.942 284.262 261.169 C 284.183 261.396 283.988 261.564 283.749 261.611 Q 280.179 262.311 277.819 262.54 Q 273.989 262.921 271.019 265.35 Q 268.769 267.181 263.219 270.88 Q 261.179 272.241 260.679 273.2 Q 259.599 275.241 262.149 277.08 Q 264.229 278.58 266.829 277.95 Z " fill="rgb(119,92,109)"/><path d=" M 300.579 314.121 Q 301.789 316.26 301.159 318.63 Q 301.109 318.83 300.629 319.431 L 297.809 322.97 C 297.401 323.212 297.379 323.613 297.759 323.88 Q 299.159 327.861 296.389 330.22 Q 293.289 332.871 290.639 335.48 C 290.137 335.976 289.849 336.647 289.839 337.35 Q 289.799 339.76 289.039 341.681 Q 288.359 343.38 286.419 345.061 Q 283.619 347.47 280.409 349.301 Q 279.169 350.01 275.989 350.79 Q 273.229 351.46 271.769 353.1 Q 265.109 360.53 262.889 363.22 Q 260.099 366.611 255.829 366.95 Q 247.109 367.65 242.139 369.47 Q 235.019 372.08 229.619 368.41 Q 228.069 366.09 226.229 363.991 Q 224.579 362.111 222.549 362.35 C 222.166 362.401 221.818 362.595 221.579 362.89 Q 219.749 365.181 217.639 364.48 Q 214.629 363.501 212.329 365.621 Q 208.899 365.98 208.079 362.871 Q 210.659 361.621 214.079 361.91 Q 218.429 362.28 221.489 359.03 C 221.986 358.807 222.136 358.461 221.869 358.15 L 222.539 354.41 L 222.659 355.941 C 222.642 356.215 222.924 356.459 223.329 356.52 Q 230.159 357.921 237.699 357.09 C 238.022 357.057 238.314 356.886 238.499 356.621 Q 244.389 348.301 255.829 349.52 C 256.437 349.58 257.036 349.337 257.429 348.871 Q 261.909 343.52 264.759 338.84 Q 265.639 337.39 265.579 335.7 L 267.329 328.45 L 270.579 322.2 L 275.829 321.121 Q 288.539 318.801 300.579 314.121 Z " fill="rgb(119,92,109)"/><path d=" M 233.329 314.871 Q 234.279 315.23 234.019 316.02 Q 233.769 316.77 233.759 316.83 Q 231.379 330.001 224.329 341.371 Q 216.429 353.181 207.269 361.6 Q 206.099 362.671 205.829 363.371 L 195.579 370.7 Q 192.739 371.191 194.609 370.181 C 194.713 370.122 194.796 370.035 194.849 369.931 Q 195.299 369.01 194.599 369.76 Q 194.519 369.85 194.419 369.9 Q 192.489 370.871 190.319 371.111 C 189.994 371.153 189.687 371.277 189.429 371.47 L 185.139 374.72 Q 184.199 375.441 181.139 376.72 Q 173.889 379.77 166.009 379.48 Q 161.189 379.311 157.329 375.16 Q 154.909 372.551 153.389 370.58 Q 151.569 368.22 151.439 365.371 Q 151.069 357.65 156.789 352.311 C 157.337 351.801 157.633 351.077 157.599 350.33 Q 157.539 349.001 158.539 348.91 Q 158.519 353.111 159.619 357.16 Q 155.659 358.991 153.849 362.89 C 153.675 363.145 153.761 363.466 154.049 363.64 Q 154.569 364.121 154.619 364.91 Q 155.089 370.32 159.079 373.871 Q 161.179 376.001 164.069 376.991 C 164.308 377.068 164.566 376.943 164.649 376.71 Q 165.219 375.1 166.489 374.08 Q 167.669 373.13 168.059 372.611 Q 168.709 371.76 169.329 370.871 Q 173.829 370.14 175.459 374.121 C 175.551 374.358 175.837 374.49 176.109 374.421 Q 178.239 373.46 178.329 370.78 Q 178.399 368.921 179.199 370.611 Q 180.289 372.91 181.849 370.4 Q 183.069 368.421 183.619 370.41 L 182.239 372.23 Q 181.989 372.561 182.339 372.38 Q 190.229 368.51 199.139 360.97 Q 203.529 357.26 205.489 354.51 C 205.672 354.283 205.623 353.964 205.379 353.79 L 203.619 352.16 Q 203.229 351.38 202.579 351.871 L 202.579 351.66 C 202.574 351.614 202.543 351.573 202.494 351.547 C 202.445 351.522 202.384 351.516 202.329 351.53 Q 194.469 353.97 191.639 356.22 Q 184.289 362.07 175.639 365.681 Q 174.979 365.95 174.479 366.01 Q 172.949 366.171 173.469 365.051 C 173.552 364.865 173.759 364.722 174.019 364.671 Q 174.869 364.491 174.079 364.121 L 177.329 362.621 Q 178.469 362.03 179.769 362.061 C 180.1 362.053 180.421 361.969 180.689 361.82 Q 184.739 359.16 188.119 355.66 Q 189.039 355.431 190.769 354.1 Q 194.009 351.59 199.639 349.22 Q 201.149 348.59 201.889 347.871 Q 202.999 346.79 203.069 346.741 Q 208.249 343.01 212.849 338.611 Q 214.459 337.07 217.109 335.08 Q 219.339 333.41 221.289 331.41 Q 225.489 327.59 228.139 322.59 Q 228.279 322.32 228.519 322.2 Q 229.009 321.95 229.099 322.23 Q 229.179 322.47 229.229 322.241 L 230.579 316.2 L 233.329 314.871 Z " fill="rgb(254,173,61)"/><path d=" M 245.829 319.121 Q 249.899 321.111 245.289 322.66 L 233.879 322.34 Q 232.869 322.311 233.369 321.52 L 234.479 319.77 C 234.648 319.553 234.962 319.407 235.319 319.38 L 245.829 319.121 Z " fill="rgb(109,102,70)"/><path d=" M 323.579 257.95 Q 323.849 260.14 325.769 260.53 C 326.094 260.527 326.403 260.422 326.619 260.241 Q 327.699 259.29 328.719 260.07 C 328.975 260.264 329.046 260.6 328.889 260.871 Q 327.749 263.361 325.299 264.32 C 324.919 264.472 324.486 264.391 324.189 264.111 Q 320.439 260.63 314.699 259.13 C 313.8 258.893 312.841 259.089 312.109 259.66 Q 309.859 261.421 311.349 262.02 C 311.664 262.051 311.995 262.04 312.299 261.991 Q 313.389 261.681 314.769 262.22 Q 319.339 264.01 322.369 266.181 C 322.666 266.375 322.811 266.678 322.749 266.98 L 322.789 269.16 C 322.396 269.277 322.205 269.45 322.276 269.626 C 322.347 269.803 322.672 269.961 323.149 270.051 Q 323.939 271.26 322.369 272.72 Q 321.809 273.241 321.829 272.47 Q 321.919 268.921 319.389 266.6 Q 317.209 264.59 313.569 263.76 C 313.254 263.713 312.931 263.77 312.659 263.921 Q 310.319 265.29 307.589 265.4 C 307.215 265.439 306.89 265.555 306.689 265.72 L 304.599 267.991 Q 304.099 268.54 304.799 268.561 Q 305.249 268.57 305.829 268.16 Q 308.459 266.27 311.909 265.32 C 312.668 265.11 313.483 265.258 314.119 265.72 Q 319.409 269.57 321.209 274.82 Q 321.399 275.38 321.699 275.89 Q 322.619 277.46 323.069 277.941 Q 323.939 278.85 323.139 276.941 Q 322.819 276.2 322.659 275.4 C 321.759 275.398 321.083 275.199 321.149 274.956 C 321.215 274.713 321.999 274.518 322.899 274.52 L 325.059 269.931 Q 325.539 268.921 325.789 268.621 Q 327.559 266.51 329.069 264.64 Q 332.489 260.38 327.579 258.121 Q 330.119 256.35 332.059 258.2 Q 333.289 259.371 333.319 259.39 Q 337.319 262.63 338.519 264.72 Q 342.569 271.801 338.339 278.941 Q 335.249 284.16 330.389 288.97 Q 329.859 289.501 329.949 290.191 Q 330.019 290.71 330.469 290.35 Q 337.279 284.801 341.119 276.85 C 341.208 276.576 341.437 276.333 341.759 276.171 Q 343.299 275.441 344.329 276.7 Q 343.239 282.08 339.869 286.41 Q 339.549 285.47 339.109 286.39 Q 338.519 287.611 337.389 287.551 C 337.061 287.56 336.749 287.645 336.509 287.79 Q 324.339 297.681 310.509 304.941 Q 299.079 310.941 297.419 311.77 Q 290.789 315.07 283.689 317.28 Q 282.009 317.801 279.819 319.23 Q 277.969 320.431 275.829 321.121 L 270.579 322.2 L 258.829 322.371 L 251.889 321.66 Q 251.639 321.64 250.989 321.29 L 246.079 318.621 Q 243.629 316.85 241.239 315.01 Q 239.709 313.83 239.619 311.91 L 241.819 311.691 C 242.128 311.688 242.407 311.859 242.519 312.121 Q 243.619 314.46 246.519 315.72 Q 256.249 319.96 265.829 319.16 Q 278.309 318.111 291.389 311.47 Q 293.669 310.32 298.969 308.47 Q 303.399 306.921 306.469 305.311 Q 315.929 300.34 324.639 294.121 Q 325.109 293.78 325.229 293.431 Q 325.409 292.88 325.019 292.431 C 324.739 292.234 324.676 291.911 324.869 291.66 Q 326.229 288.97 323.529 291.121 Q 322.429 292.001 321.539 291.16 Q 323.719 288.57 325.829 287.91 Q 327.209 287.48 327.869 286.63 C 328.02 286.401 328.279 286.205 328.609 286.07 Q 333.129 284.45 334.339 279.611 Q 334.489 279.04 333.929 279.26 Q 331.989 280.04 330.329 279.95 C 329.988 279.965 329.668 280.061 329.429 280.22 L 324.049 285.29 Q 323.449 285.861 323.069 286.991 Q 321.999 290.111 320.729 289.45 C 320.39 289.297 320.266 288.957 320.449 288.681 Q 320.979 286.47 319.399 288.45 Q 318.109 290.061 316.329 291.121 Q 311.739 294.4 302.889 297.97 Q 301.069 298.71 301.869 301.16 Q 303.569 308.53 296.799 306.32 C 296.491 306.245 296.162 306.249 295.859 306.33 Q 294.039 307.04 289.769 309.6 Q 287.089 311.2 282.329 311.16 Q 281.119 311.15 276.079 312.91 Q 274.439 313.48 274.579 311.7 Q 280.249 310.08 286.009 308.83 Q 289.239 308.13 292.079 306.45 Q 295.349 305.73 297.389 303.72 Q 298.649 302.48 297.829 300.621 L 297.539 298.41 Q 298.809 297.47 298.209 296.741 C 297.994 296.521 297.67 296.396 297.329 296.4 L 293.059 296.66 Q 291.279 296.77 292.739 295.811 Q 293.949 295.01 295.579 294.91 Q 296.629 294.85 297.119 293.41 Q 299.059 292.28 297.179 290.811 Q 295.359 289.38 296.579 287.7 Q 299.179 285.64 300.929 287.28 Q 302.179 288.46 302.949 289.82 Q 303.929 291.52 302.389 293.47 Q 300.889 295.39 303.019 294.1 Q 304.399 293.26 306.009 293.03 Q 313.719 291.9 318.389 285.72 Q 320.439 283.02 320.719 280.09 Q 320.989 277.361 319.179 274.57 Q 317.119 271.39 313.599 268.751 Q 311.459 267.14 309.759 269.22 Q 308.779 270.421 306.419 269.98 Q 306.039 269.91 305.729 269.941 Q 303.719 270.111 305.299 270.58 Q 305.559 270.66 305.869 270.63 Q 307.759 270.431 309.019 270.97 Q 313.409 272.88 316.479 277.251 Q 318.729 280.441 316.459 283.53 Q 313.449 287.64 308.749 289.111 Q 306.319 289.871 305.339 287.51 Q 304.229 284.82 302.319 283.6 C 302.135 283.484 302.008 283.298 301.967 283.087 C 301.925 282.876 301.973 282.656 302.099 282.48 Q 303.099 281.01 304.459 282.08 Q 304.839 282.38 305.319 282.54 Q 306.329 282.88 306.969 283.76 Q 308.829 286.29 310.839 285.04 Q 312.139 284.22 313.429 282.921 Q 315.059 281.29 313.639 279.1 Q 311.239 275.371 305.799 273.561 C 305.489 273.446 305.242 273.235 305.109 272.97 Q 304.299 271.51 302.639 271.27 C 302.317 271.248 301.998 271.345 301.759 271.54 Q 299.629 273.371 302.889 272.72 Q 304.349 272.431 304.679 273.361 C 304.853 273.656 304.765 274.004 304.459 274.23 Q 303.079 275.88 299.639 278.97 Q 293.109 284.861 285.329 286.16 Q 284.189 286.35 280.329 287.45 Q 279.919 287.47 279.829 287.2 Q 294.879 275.77 305.079 259.871 Q 308.359 261.38 310.519 258.63 Q 311.809 256.991 313.899 257.07 Q 317.359 257.21 320.079 257.16 Q 322.519 257.121 323.579 257.95 Z " fill="rgb(241,169,68)"/><path d=" M 209.329 325.621 L 207.229 331.64 C 207.138 331.916 206.869 332.135 206.519 332.22 Q 195.789 334.991 185.909 339.96 Q 184.529 340.65 184.119 341.311 Q 183.449 342.39 184.029 343.801 C 184.12 344.013 184.302 344.175 184.525 344.244 C 184.748 344.313 184.99 344.283 185.189 344.16 Q 195.679 337.41 207.329 334.41 Q 209.949 333.741 211.079 333.871 Q 213.059 333.941 212.049 335.07 Q 211.719 335.45 211.109 335.63 Q 209.089 336.241 207.079 336.871 Q 196.059 339.111 186.489 345.32 C 185.647 345.87 185.169 346.83 185.239 347.83 Q 185.659 353.9 182.379 357.251 C 182.242 357.438 181.907 357.562 181.539 357.561 Q 181.239 357.38 181.539 356.66 Q 186.379 348.691 180.629 342.01 C 180.306 341.631 180.324 341.069 180.669 340.71 Q 186.479 334.78 192.969 331.32 Q 195.779 329.82 201.049 328.191 Q 205.189 326.9 209.329 325.621 Z " fill="rgb(241,169,68)"/><path d=" M 216.079 232.371 Q 216.689 233.57 217.849 233.32 Q 218.529 233.171 218.829 233.241 L 221.329 233.871 Q 230.139 237.22 237.949 242.48 Q 241.549 244.9 244.069 248.54 Q 244.529 249.22 245.149 249.76 Q 250.439 254.34 253.539 258.91 L 253.869 260.91 Q 253.969 261.501 253.719 261.85 C 253.516 262 253.186 262.086 252.839 262.08 L 249.639 261.671 Q 247.509 261.39 249.499 262.22 Q 251.559 263.07 253.739 263.35 Q 255.509 263.59 256.049 264.251 Q 257.059 265.47 255.289 267.35 Q 253.889 268.83 254.629 271.07 L 257.889 280.89 C 257.956 281.139 258.136 281.352 258.385 281.481 C 258.635 281.61 258.932 281.642 259.209 281.57 L 266.829 277.95 Q 268.559 277.95 269.769 277.1 Q 275.689 272.89 282.579 266.91 Q 285.329 264.53 288.829 263.7 Q 280.519 273.301 267.519 282.35 Q 249.689 294.751 233.829 301.95 Q 235.369 298.63 236.639 296.97 Q 238.579 294.46 242.069 293.97 C 242.425 293.905 242.737 293.772 242.959 293.59 Q 243.719 292.861 244.049 291.741 Q 244.249 291.07 243.619 291.39 Q 239.589 293.47 235.329 294.91 Q 234.059 295.34 232.329 294.46 Q 231.869 294.23 232.349 294.03 L 240.809 290.53 C 241.182 290.42 241.41 290.147 241.369 289.861 Q 241.389 289.26 240.599 289.47 Q 234.799 290.991 229.129 292.91 Q 225.289 294.21 221.829 294.6 Q 218.089 295.02 214.339 295.361 C 213.965 295.415 213.643 295.547 213.439 295.73 L 209.169 300.441 Q 208.799 300.85 209.389 300.76 L 226.579 298.22 Q 228.309 297.96 226.789 298.84 Q 218.639 303.53 210.099 307.431 Q 207.059 308.82 201.579 311.561 Q 197.339 313.681 192.909 315.421 Q 191.959 315.801 191.589 316.311 Q 190.739 317.46 192.369 318.16 L 185.079 320.371 Q 184.069 316.931 185.649 313.71 Q 186.709 311.551 184.339 312.001 Q 180.899 312.66 179.239 310.181 Q 178.679 309.34 177.429 305.7 Q 175.199 299.14 175.149 293.361 Q 175.139 291.51 176.789 290.681 Q 182.359 287.89 179.529 284.941 Q 178.589 283.97 178.559 283.941 Q 175.859 280.59 176.839 277.01 Q 177.499 274.63 180.349 272.07 Q 182.649 270.01 185.279 268.34 C 185.562 268.166 185.734 267.858 185.732 267.528 C 185.73 267.197 185.554 266.891 185.269 266.72 L 181.769 264.59 C 181.242 264.263 180.975 263.645 181.099 263.04 Q 182.259 257.301 186.379 255.13 C 186.668 255.004 186.993 254.949 187.319 254.97 Q 191.479 255.39 193.519 253.85 Q 198.009 250.431 201.219 242.65 Q 202.619 239.27 205.329 238.66 Q 208.519 237.941 211.679 236.96 C 212.315 236.759 212.803 236.245 212.969 235.6 Q 213.579 233.191 211.579 233.621 L 216.079 232.371 Z " fill="rgb(179,150,100)"/><path d=" M 265.579 335.7 Q 265.639 337.39 264.759 338.84 Q 261.909 343.52 257.429 348.871 C 257.036 349.337 256.437 349.58 255.829 349.52 Q 244.389 348.301 238.499 356.621 C 238.314 356.886 238.022 357.057 237.699 357.09 Q 230.159 357.921 223.329 356.52 C 222.924 356.459 222.642 356.215 222.659 355.941 L 222.539 354.41 Q 222.899 351.77 225.499 350.79 Q 232.429 348.181 237.619 342.91 Q 240.889 339.82 244.169 336.741 Q 246.919 334.14 250.379 333.871 Q 251.349 333.801 256.899 334.45 Q 261.249 334.96 265.579 335.7 Z " fill="rgb(179,150,100)"/><path d=" M 237.619 342.91 Q 232.429 348.181 225.499 350.79 Q 222.899 351.77 222.539 354.41 L 221.869 358.15 C 222.136 358.461 221.986 358.807 221.489 359.03 Q 218.429 362.28 214.079 361.91 Q 210.659 361.621 208.079 362.871 Q 207.329 362.89 206.829 363.45 L 205.829 363.371 Q 206.099 362.671 207.269 361.6 Q 216.429 353.181 224.329 341.371 L 228.859 340.6 Q 229.619 340.46 229.829 340.501 Q 232.609 341.02 235.399 341.54 Q 236.769 341.79 237.619 342.91 Z " fill="rgb(122,104,98)"/><path d=" M 344.329 276.7 Q 343.299 275.441 341.759 276.171 C 341.437 276.333 341.208 276.576 341.119 276.85 Q 337.279 284.801 330.469 290.35 Q 330.019 290.71 329.949 290.191 Q 329.859 289.501 330.389 288.97 Q 335.249 284.16 338.339 278.941 Q 342.569 271.801 338.519 264.72 Q 337.319 262.63 333.319 259.39 Q 333.289 259.371 332.059 258.2 Q 330.119 256.35 327.579 258.121 Q 325.569 256.78 323.579 257.95 Q 322.519 257.121 320.079 257.16 Q 317.359 257.21 313.899 257.07 Q 311.809 256.991 310.519 258.63 Q 308.359 261.38 305.079 259.871 Q 306.709 256.53 309.329 253.95 Q 322.889 251.15 334.769 257.22 Q 346.519 263.23 344.329 276.7 Z " fill="rgb(225,138,48)"/><path d=" M 169.579 305.45 Q 169.909 305.82 169.799 306.22 C 169.416 306.475 169.447 306.837 169.869 307.061 Q 171.849 309.85 172.709 313.181 C 172.78 313.488 172.972 313.762 173.249 313.95 Q 177.359 316.96 176.829 322.2 L 169.579 323.2 Q 162.939 323.681 158.889 321.6 Q 156.689 320.47 156.369 318.02 Q 156.129 316.241 157.299 314.14 Q 161.259 307.1 169.579 305.45 Z " fill="rgb(225,138,48)"/><path d=" M 154.579 332.871 L 159.449 333.59 C 159.616 333.623 159.762 333.715 159.852 333.845 C 159.942 333.975 159.97 334.132 159.929 334.28 L 158.539 348.91 Q 157.539 349.001 157.599 350.33 C 157.633 351.077 157.337 351.801 156.789 352.311 Q 151.069 357.65 151.439 365.371 Q 151.569 368.22 153.389 370.58 Q 154.909 372.551 157.329 375.16 Q 161.189 379.311 166.009 379.48 Q 173.889 379.77 181.139 376.72 Q 184.199 375.441 185.139 374.72 L 189.429 371.47 C 189.687 371.277 189.994 371.153 190.319 371.111 Q 192.489 370.871 194.419 369.9 Q 194.519 369.85 194.599 369.76 Q 195.299 369.01 194.849 369.931 C 194.796 370.035 194.713 370.122 194.609 370.181 Q 192.739 371.191 195.579 370.7 Q 188.899 375.741 181.299 378.941 Q 172.269 382.751 165.409 381.9 Q 152.619 380.311 150.329 364.66 Q 149.799 361.061 150.029 355.66 Q 150.299 349.47 150.619 346.681 Q 151.439 339.48 154.579 332.871 Z " fill="rgb(225,138,48)"/><path d=" M 296.039 250.41 Q 294.979 250.39 294.079 250.95 Q 292.989 250.6 292.829 251.41 Q 292.269 254.251 289.879 254.77 C 289.576 254.803 289.286 254.648 289.169 254.39 Q 287.689 251.22 287.579 249.16 Q 287.309 243.991 284.619 248.16 L 283.039 247.16 Q 283.819 244.98 286.279 245.371 Q 290.069 245.96 293.619 247.4 Q 295.679 248.241 296.039 250.41 Z " fill="rgb(161,102,63)"/><path d=" M 327.579 258.121 Q 332.489 260.38 329.069 264.64 Q 327.559 266.51 325.789 268.621 Q 325.539 268.921 325.059 269.931 L 322.899 274.52 C 321.999 274.518 321.215 274.713 321.149 274.956 C 321.083 275.199 321.759 275.398 322.659 275.4 Q 322.819 276.2 323.139 276.941 Q 323.939 278.85 323.069 277.941 Q 322.619 277.46 321.699 275.89 Q 321.399 275.38 321.209 274.82 Q 319.409 269.57 314.119 265.72 C 313.483 265.258 312.668 265.11 311.909 265.32 Q 308.459 266.27 305.829 268.16 Q 305.249 268.57 304.799 268.561 Q 304.099 268.54 304.599 267.991 L 306.689 265.72 C 306.89 265.555 307.215 265.439 307.589 265.4 Q 310.319 265.29 312.659 263.921 C 312.931 263.77 313.254 263.713 313.569 263.76 Q 317.209 264.59 319.389 266.6 Q 321.919 268.921 321.829 272.47 Q 321.809 273.241 322.369 272.72 Q 323.939 271.26 323.149 270.051 C 322.672 269.961 322.347 269.803 322.276 269.626 C 322.205 269.45 322.396 269.277 322.789 269.16 L 322.749 266.98 C 322.811 266.678 322.666 266.375 322.369 266.181 Q 319.339 264.01 314.769 262.22 Q 313.389 261.681 312.299 261.991 C 311.995 262.04 311.664 262.051 311.349 262.02 Q 309.859 261.421 312.109 259.66 C 312.841 259.089 313.8 258.893 314.699 259.13 Q 320.439 260.63 324.189 264.111 C 324.486 264.391 324.919 264.472 325.299 264.32 Q 327.749 263.361 328.889 260.871 C 329.046 260.6 328.975 260.264 328.719 260.07 Q 327.699 259.29 326.619 260.241 C 326.403 260.422 326.094 260.527 325.769 260.53 Q 323.849 260.14 323.579 257.95 Q 325.569 256.78 327.579 258.121 Z " fill="rgb(161,102,63)"/><path d=" M 279.829 287.2 Q 279.919 287.47 280.329 287.45 Q 277.999 288.941 275.949 290.77 Q 272.299 294.04 267.959 296.361 Q 266.719 297.02 268.329 296.95 Q 266.709 297.561 267.329 298.95 Q 265.079 299.301 262.839 299.691 Q 261.969 299.84 261.789 300.66 Q 261.379 300.241 260.829 300.121 Q 269.939 293.09 279.829 287.2 Z " fill="rgb(161,102,63)"/><path d=" M 316.329 291.121 Q 317.629 290.79 317.579 292.001 C 317.561 292.764 317.16 293.474 316.499 293.91 L 310.079 298.371 Q 307.519 299.88 304.659 300.741 Q 304.579 300.77 303.569 301.23 Q 302.759 301.611 301.869 301.16 Q 301.069 298.71 302.889 297.97 Q 311.739 294.4 316.329 291.121 Z " fill="rgb(161,102,63)"/><path d=" M 230.579 316.2 L 229.229 322.241 Q 229.179 322.47 229.099 322.23 Q 229.009 321.95 228.519 322.2 Q 228.279 322.32 228.139 322.59 Q 225.489 327.59 221.289 331.41 Q 218.109 332.27 214.829 332.58 Q 213.729 332.681 212.889 333.04 Q 211.969 333.421 211.079 333.871 Q 209.949 333.741 207.329 334.41 Q 195.679 337.41 185.189 344.16 C 184.99 344.283 184.748 344.313 184.525 344.244 C 184.302 344.175 184.12 344.013 184.029 343.801 Q 183.449 342.39 184.119 341.311 Q 184.529 340.65 185.909 339.96 Q 195.789 334.991 206.519 332.22 C 206.869 332.135 207.138 331.916 207.229 331.64 L 209.329 325.621 L 213.329 324.45 Q 212.149 328.39 211.139 329.97 Q 209.579 332.421 212.329 331.41 C 213.447 331.504 214.703 331.369 215.134 331.109 C 215.565 330.85 215.007 330.564 213.889 330.47 L 214.699 327.671 C 214.586 327.593 214.561 327.494 214.63 327.404 C 214.699 327.313 214.854 327.241 215.049 327.21 Q 215.309 327.181 215.329 327.66 Q 215.419 330.13 217.589 330.59 C 217.909 330.622 218.235 330.569 218.519 330.441 Q 221.229 329.051 222.389 326.97 Q 222.779 326.29 223.279 326.251 C 223.631 326.217 223.912 326.084 223.999 325.91 Q 224.629 324.58 224.239 323.14 C 224.148 322.832 224.158 322.503 224.269 322.2 Q 225.019 320.051 222.829 319.621 Q 226.479 317.39 230.579 316.2 Z " fill="rgb(161,102,63)"/><path d=" M 207.079 336.871 Q 208.329 337.76 207.399 338.54 Q 206.589 339.23 206.439 339.47 Q 205.829 340.45 205.579 341.621 L 194.579 347.95 Q 191.409 349.1 188.999 351.371 C 188.756 351.591 188.661 351.91 188.749 352.21 Q 189.089 354.03 188.119 355.66 Q 184.739 359.16 180.689 361.82 C 180.421 361.969 180.1 362.053 179.769 362.061 Q 178.469 362.03 177.329 362.621 L 181.539 356.66 Q 181.239 357.38 181.539 357.561 C 181.907 357.562 182.242 357.438 182.379 357.251 Q 185.659 353.9 185.239 347.83 C 185.169 346.83 185.647 345.87 186.489 345.32 Q 196.059 339.111 207.079 336.871 Z " fill="rgb(161,102,63)"/><path d=" M 202.579 351.871 Q 192.729 359.921 182.249 367.121 C 181.978 367.284 181.657 367.371 181.329 367.371 Q 179.549 367.301 178.009 368.15 Q 177.549 368.4 177.089 368.421 Q 172.849 368.54 169.329 370.871 Q 168.709 371.76 168.059 372.611 Q 167.669 373.13 166.489 374.08 Q 165.219 375.1 164.649 376.71 C 164.566 376.943 164.308 377.068 164.069 376.991 Q 161.179 376.001 159.079 373.871 Q 158.489 372.191 159.619 370.91 Q 163.169 371.07 166.389 368.22 Q 167.749 367.02 166.539 365.91 Q 170.589 366.051 174.079 364.121 Q 174.869 364.491 174.019 364.671 C 173.759 364.722 173.552 364.865 173.469 365.051 Q 172.949 366.171 174.479 366.01 Q 174.979 365.95 175.639 365.681 Q 184.289 362.07 191.639 356.22 Q 194.469 353.97 202.329 351.53 C 202.384 351.516 202.445 351.522 202.494 351.547 C 202.543 351.573 202.574 351.614 202.579 351.66 L 202.579 351.871 Z " fill="rgb(161,102,63)"/><path d=" M 321.539 291.16 Q 320.049 291.91 318.769 294.1 Q 316.089 298.681 310.079 298.371 L 316.499 293.91 C 317.16 293.474 317.561 292.764 317.579 292.001 Q 317.629 290.79 316.329 291.121 Q 318.109 290.061 319.399 288.45 Q 320.979 286.47 320.449 288.681 C 320.266 288.957 320.39 289.297 320.729 289.45 Q 321.999 290.111 323.069 286.991 Q 323.449 285.861 324.049 285.29 L 329.429 280.22 C 329.668 280.061 329.988 279.965 330.329 279.95 Q 331.989 280.04 333.929 279.26 Q 334.489 279.04 334.339 279.611 Q 333.129 284.45 328.609 286.07 C 328.279 286.205 328.02 286.401 327.869 286.63 Q 327.209 287.48 325.829 287.91 Q 323.719 288.57 321.539 291.16 Z " fill="rgb(201,117,61)"/><path d=" M 221.289 331.41 Q 219.339 333.41 217.109 335.08 Q 214.459 337.07 212.849 338.611 Q 208.249 343.01 203.069 346.741 Q 202.999 346.79 201.889 347.871 Q 201.149 348.59 199.639 349.22 Q 194.009 351.59 190.769 354.1 Q 189.039 355.431 188.119 355.66 Q 189.089 354.03 188.749 352.21 C 188.661 351.91 188.756 351.591 188.999 351.371 Q 191.409 349.1 194.579 347.95 Q 194.489 348.28 194.549 348.52 C 194.676 348.718 194.994 348.817 195.289 348.751 Q 205.689 345.061 213.289 337.08 Q 213.559 336.811 213.679 336.561 Q 214.069 335.76 213.249 335.89 Q 212.929 335.941 212.629 336.23 Q 209.399 339.32 205.579 341.621 Q 205.829 340.45 206.439 339.47 Q 206.589 339.23 207.399 338.54 Q 208.329 337.76 207.079 336.871 Q 209.089 336.241 211.109 335.63 Q 211.719 335.45 212.049 335.07 Q 213.059 333.941 211.079 333.871 Q 211.969 333.421 212.889 333.04 Q 213.729 332.681 214.829 332.58 Q 218.109 332.27 221.289 331.41 Z " fill="rgb(201,117,61)"/><path d=" M 203.619 352.16 L 205.379 353.79 C 205.623 353.964 205.672 354.283 205.489 354.51 Q 203.529 357.26 199.139 360.97 Q 190.229 368.51 182.339 372.38 Q 181.989 372.561 182.239 372.23 L 183.619 370.41 Q 184.429 369.811 185.249 369.241 Q 186.039 368.681 186.669 367.85 Q 188.579 365.301 191.089 363.34 Q 194.049 361.03 194.099 360.991 Q 197.969 357.71 201.889 354.47 Q 203.449 353.181 203.619 352.16 Z " fill="rgb(201,117,61)"/><path d=" M 239.619 311.91 L 239.539 311.66 L 260.829 300.121 Q 261.379 300.241 261.789 300.66 Q 264.279 303.95 267.249 306.801 Q 268.779 308.27 270.489 308.57 Q 272.369 308.9 274.329 308.621 Q 277.169 308.361 276.229 309.421 Q 275.879 309.82 275.179 310.03 Q 265.689 312.89 255.789 312.7 Q 254.369 312.681 252.929 312.28 Q 251.519 311.9 250.119 311.491 Q 249.749 311.38 250.139 311.251 L 252.119 310.621 Q 252.699 310.441 253.069 310.501 Q 258.539 311.491 264.029 310.671 Q 264.619 310.59 264.239 310.181 Q 263.749 309.66 262.839 309.741 Q 258.259 310.1 253.879 308.98 C 253.461 308.909 253.18 308.658 253.209 308.38 Q 253.169 307.88 254.329 308.16 Q 256.569 308.691 263.029 307.21 C 263.315 307.147 263.499 306.874 263.449 306.59 Q 263.039 304.28 260.879 304.29 Q 260.269 304.29 258.869 304.84 Q 257.879 305.23 256.829 305.41 Q 255.679 305.611 253.769 306.1 Q 249.659 307.14 245.579 309.73 Q 244.189 310.611 245.679 311.311 Q 248.219 312.501 250.479 313.72 Q 250.549 313.76 252.709 315.13 Q 255.369 316.84 258.579 316.4 Q 258.789 316.38 261.089 316.181 Q 263.009 316.01 264.309 314.611 C 264.493 314.388 264.776 314.207 265.119 314.09 L 274.579 311.7 Q 274.439 313.48 276.079 312.91 Q 281.119 311.15 282.329 311.16 Q 287.089 311.2 289.769 309.6 Q 294.039 307.04 295.859 306.33 C 296.162 306.249 296.491 306.245 296.799 306.32 Q 303.569 308.53 301.869 301.16 Q 302.759 301.611 303.569 301.23 Q 304.579 300.77 304.659 300.741 Q 307.519 299.88 310.079 298.371 Q 316.089 298.681 318.769 294.1 Q 320.049 291.91 321.539 291.16 Q 322.429 292.001 323.529 291.121 Q 326.229 288.97 324.869 291.66 C 324.676 291.911 324.739 292.234 325.019 292.431 Q 325.409 292.88 325.229 293.431 Q 325.109 293.78 324.639 294.121 Q 315.929 300.34 306.469 305.311 Q 303.399 306.921 298.969 308.47 Q 293.669 310.32 291.389 311.47 Q 278.309 318.111 265.829 319.16 Q 256.249 319.96 246.519 315.72 Q 243.619 314.46 242.519 312.121 C 242.407 311.859 242.128 311.688 241.819 311.691 L 239.619 311.91 Z " fill="rgb(220,152,67)"/><path d=" M 222.829 319.621 Q 225.019 320.051 224.269 322.2 C 224.158 322.503 224.148 322.832 224.239 323.14 Q 224.629 324.58 223.999 325.91 C 223.912 326.084 223.631 326.217 223.279 326.251 Q 222.779 326.29 222.389 326.97 Q 221.229 329.051 218.519 330.441 C 218.235 330.569 217.909 330.622 217.589 330.59 Q 215.419 330.13 215.329 327.66 Q 215.309 327.181 215.049 327.21 C 214.854 327.241 214.699 327.313 214.63 327.404 C 214.561 327.494 214.586 327.593 214.699 327.671 L 213.889 330.47 C 215.007 330.564 215.565 330.85 215.134 331.109 C 214.703 331.369 213.447 331.504 212.329 331.41 Q 209.579 332.421 211.139 329.97 Q 212.149 328.39 213.329 324.45 L 222.829 319.621 Z " fill="rgb(220,152,67)"/><path d=" M 194.579 347.95 L 205.579 341.621 Q 209.399 339.32 212.629 336.23 Q 212.929 335.941 213.249 335.89 Q 214.069 335.76 213.679 336.561 Q 213.559 336.811 213.289 337.08 Q 205.689 345.061 195.289 348.751 C 194.994 348.817 194.676 348.718 194.549 348.52 Q 194.489 348.28 194.579 347.95 Z " fill="rgb(220,152,67)"/><path d=" M 203.619 352.16 Q 203.449 353.181 201.889 354.47 Q 197.969 357.71 194.099 360.991 Q 194.049 361.03 191.089 363.34 Q 188.579 365.301 186.669 367.85 Q 186.039 368.681 185.249 369.241 Q 184.429 369.811 183.619 370.41 Q 183.069 368.421 181.849 370.4 Q 180.289 372.91 179.199 370.611 Q 178.399 368.921 178.329 370.78 Q 178.239 373.46 176.109 374.421 C 175.837 374.49 175.551 374.358 175.459 374.121 Q 173.829 370.14 169.329 370.871 Q 172.849 368.54 177.089 368.421 Q 177.549 368.4 178.009 368.15 Q 179.549 367.301 181.329 367.371 C 181.657 367.371 181.978 367.284 182.249 367.121 Q 192.729 359.921 202.579 351.871 Q 203.229 351.38 203.619 352.16 Z " fill="rgb(220,152,67)"/><path d=" M 159.619 357.16 Q 161.439 362.89 166.539 365.91 Q 167.749 367.02 166.389 368.22 Q 163.169 371.07 159.619 370.91 Q 155.769 368.561 157.809 364.251 C 157.952 363.963 157.935 363.622 157.764 363.35 C 157.593 363.078 157.293 362.912 156.969 362.91 Q 155.219 362.9 154.619 364.91 Q 154.569 364.121 154.049 363.64 C 153.761 363.466 153.675 363.145 153.849 362.89 Q 155.659 358.991 159.619 357.16 Z " fill="rgb(220,152,67)"/><path d=" M 297.119 293.41 Q 296.629 294.85 295.579 294.91 Q 293.949 295.01 292.739 295.811 Q 291.279 296.77 293.059 296.66 L 297.329 296.4 C 297.67 296.396 297.994 296.521 298.209 296.741 Q 298.809 297.47 297.539 298.41 Q 293.989 300.04 290.389 301.57 Q 290.349 301.59 288.729 302.15 Q 285.909 303.14 285.129 306.1 C 285.096 306.207 285.017 306.294 284.912 306.342 C 284.807 306.39 284.686 306.393 284.579 306.35 Q 283.369 305.84 281.769 306.85 Q 280.219 307.83 277.329 307.371 Q 277.749 306.9 279.519 305.85 Q 283.199 303.66 283.539 298.91 Q 283.869 298.54 283.769 297.72 Q 283.429 295.14 285.149 296.64 C 285.378 296.823 285.69 296.897 285.989 296.84 Q 289.939 295.71 293.419 293.561 Q 294.529 292.871 292.829 292.871 Q 292.889 290.001 295.009 290.53 Q 295.929 290.751 296.449 291.611 Q 296.939 292.431 297.119 293.41 Z " fill="rgb(178,137,86)"/><path d=" M 297.829 300.621 Q 298.649 302.48 297.389 303.72 Q 295.349 305.73 292.079 306.45 L 286.879 306.84 C 286.748 306.849 286.621 306.798 286.535 306.702 C 286.448 306.606 286.413 306.476 286.439 306.35 Q 286.609 305.611 287.299 305.15 Q 292.159 301.921 297.829 300.621 Z " fill="rgb(178,137,86)"/><path d=" M 270.579 322.2 L 267.329 328.45 Q 263.589 328.621 259.079 327.41 Q 250.019 324.98 246.829 323.95 Q 248.639 322.32 250.889 323.361 Q 252.549 324.13 253.989 323.26 Q 254.289 323.07 254.889 322.98 L 258.829 322.371 L 270.579 322.2 Z " fill="rgb(178,137,86)"/><path d=" M 229.619 368.41 L 227.119 370.91 Q 226.409 370.111 225.329 370.121 Q 228.519 369.301 226.609 367.08 C 226.394 366.864 226.084 366.74 225.759 366.741 Q 222.269 366.85 220.579 366.16 Q 219.389 365.671 218.579 366.2 L 212.329 365.621 Q 214.629 363.501 217.639 364.48 Q 219.749 365.181 221.579 362.89 C 221.818 362.595 222.166 362.401 222.549 362.35 Q 224.579 362.111 226.229 363.991 Q 228.069 366.09 229.619 368.41 Z " fill="rgb(178,137,86)"/><path d=" M 296.579 287.7 Q 295.359 289.38 297.179 290.811 Q 299.059 292.28 297.119 293.41 Q 296.939 292.431 296.449 291.611 Q 295.929 290.751 295.009 290.53 Q 292.889 290.001 292.829 292.871 Q 287.319 293.681 286.329 294.41 Q 284.529 295.741 282.869 294.41 Q 282.819 294.301 282.829 294.191 C 282.81 294.057 282.914 293.929 283.089 293.871 L 296.579 287.7 Z " fill="rgb(202,138,64)"/><path d=" M 267.329 298.95 Q 266.709 297.561 268.329 296.95 Q 275.309 293.051 282.809 290.26 C 282.981 290.221 283.176 290.244 283.309 290.32 Q 283.399 290.45 283.249 290.621 Q 283.169 290.71 283.009 290.77 Q 281.669 291.241 280.639 292.22 Q 278.899 293.89 276.699 294.741 Q 273.779 295.871 273.659 295.921 Q 270.489 297.421 267.329 298.95 Z " fill="rgb(202,138,64)"/><path d=" M 297.539 298.41 L 297.829 300.621 Q 292.159 301.921 287.299 305.15 Q 286.609 305.611 286.439 306.35 C 286.413 306.476 286.448 306.606 286.535 306.702 C 286.621 306.798 286.748 306.849 286.879 306.84 L 292.079 306.45 Q 289.239 308.13 286.009 308.83 Q 280.249 310.08 274.579 311.7 L 265.119 314.09 C 264.776 314.207 264.493 314.388 264.309 314.611 Q 263.009 316.01 261.089 316.181 Q 258.789 316.38 258.579 316.4 Q 255.369 316.84 252.709 315.13 Q 250.549 313.76 250.479 313.72 Q 248.219 312.501 245.679 311.311 Q 244.189 310.611 245.579 309.73 Q 249.659 307.14 253.769 306.1 Q 255.679 305.611 256.829 305.41 Q 257.879 305.23 258.869 304.84 Q 260.269 304.29 260.879 304.29 Q 263.039 304.28 263.449 306.59 C 263.499 306.874 263.315 307.147 263.029 307.21 Q 256.569 308.691 254.329 308.16 Q 253.169 307.88 253.209 308.38 C 253.18 308.658 253.461 308.909 253.879 308.98 Q 258.259 310.1 262.839 309.741 Q 263.749 309.66 264.239 310.181 Q 264.619 310.59 264.029 310.671 Q 258.539 311.491 253.069 310.501 Q 252.699 310.441 252.119 310.621 L 250.139 311.251 Q 249.749 311.38 250.119 311.491 Q 251.519 311.9 252.929 312.28 Q 254.369 312.681 255.789 312.7 Q 265.689 312.89 275.179 310.03 Q 275.879 309.82 276.229 309.421 Q 277.169 308.361 274.329 308.621 L 277.329 307.371 Q 280.219 307.83 281.769 306.85 Q 283.369 305.84 284.579 306.35 C 284.686 306.393 284.807 306.39 284.912 306.342 C 285.017 306.294 285.096 306.207 285.129 306.1 Q 285.909 303.14 288.729 302.15 Q 290.349 301.59 290.389 301.57 Q 293.989 300.04 297.539 298.41 Z " fill="rgb(202,138,64)"/><path d=" M 246.079 318.621 L 250.989 321.29 Q 251.639 321.64 251.889 321.66 L 258.829 322.371 L 254.889 322.98 Q 254.289 323.07 253.989 323.26 Q 252.549 324.13 250.889 323.361 Q 248.639 322.32 246.829 323.95 Q 245.749 323.64 245.289 322.66 Q 249.899 321.111 245.829 319.121 Q 245.729 318.77 246.079 318.621 Z " fill="rgb(202,138,64)"/><path d=" M 159.619 370.91 Q 158.489 372.191 159.079 373.871 Q 155.089 370.32 154.619 364.91 Q 155.219 362.9 156.969 362.91 C 157.293 362.912 157.593 363.078 157.764 363.35 C 157.935 363.622 157.952 363.963 157.809 364.251 Q 155.769 368.561 159.619 370.91 Z " fill="rgb(202,138,64)"/><path d=" M 208.079 362.871 Q 208.899 365.98 212.329 365.621 L 218.579 366.2 Q 217.819 367.15 217.789 368.41 Q 215.859 367.741 213.769 367.751 Q 208.879 367.751 206.829 363.45 Q 207.329 362.89 208.079 362.871 Z " fill="rgb(229,186,88)"/><path d=" M 225.329 370.121 Q 220.989 371.38 217.789 368.41 Q 217.819 367.15 218.579 366.2 Q 219.389 365.671 220.579 366.16 Q 222.269 366.85 225.759 366.741 C 226.084 366.74 226.394 366.864 226.609 367.08 Q 228.519 369.301 225.329 370.121 Z " fill="rgb(255,212,107)"/><path d=" M 233.896 273.076 C 234.434 271.957 236.002 271.593 237.394 272.263 C 238.787 272.933 239.48 274.386 238.942 275.505 C 238.403 276.624 236.835 276.988 235.443 276.318 C 234.05 275.648 233.357 274.195 233.896 273.076 Z " fill="rgb(255,204,82)"/><path d=" M 181.999 280.21 Q 180.399 279.08 182.349 278.85 Q 184.419 278.611 186.849 279.27 C 187.16 279.352 187.489 279.348 187.799 279.26 Q 191.869 278.03 195.819 278.861 Q 197.389 279.181 198.909 278.191 L 204.339 274.65 Q 206.029 273.551 206.079 275.66 Q 206.229 282.02 199.819 281.41 Q 198.069 281.241 196.619 282.241 Q 193.019 284.71 189.299 283.35 Q 186.119 282.181 185.589 282.01 Q 183.669 281.39 181.999 280.21 Z " fill="rgb(255,204,82)"/><path d=" M 161.269 319.39 Q 160.019 317.931 160.959 316.26 Q 163.229 312.181 167.869 309.6 Q 169.579 308.64 169.429 310.59 Q 169.369 311.421 170.649 312.84 Q 172.629 315.01 170.639 317.72 Q 170.049 318.53 170.559 319.491 C 170.629 319.592 170.646 319.718 170.605 319.833 C 170.564 319.947 170.47 320.038 170.349 320.08 Q 168.019 320.871 165.599 321.27 Q 163.219 321.671 161.269 319.39 Z " fill="rgb(152,87,56)"/><path d=" M 177.039 349.16 L 175.079 346.871 Q 175.439 345.38 176.769 345.34 Q 177.669 345.311 178.539 346.121 Q 181.909 349.251 179.809 353.9 Q 177.149 359.82 170.789 361.241 Q 166.419 362.22 164.319 358.421 Q 162.759 355.6 162.359 352.41 Q 161.199 343.171 165.629 334.111 C 165.826 333.718 166.21 333.442 166.659 333.371 L 185.719 330.29 Q 186.659 330.14 185.859 330.64 Q 177.289 336.03 172.079 344.66 Q 171.529 345.57 171.129 349.171 C 171.079 349.491 171.15 349.818 171.329 350.1 L 173.789 354.45 Q 175.139 356.85 176.739 354.64 Q 178.629 352.03 177.039 349.16 Z " fill="rgb(255,180,77)"/><path d=" M 156.809 343.08 C 156.92 343.025 157.052 343.031 157.157 343.096 C 157.263 343.161 157.328 343.276 157.329 343.4 Q 157.349 346.09 155.069 346.58 C 154.944 346.609 154.813 346.577 154.714 346.495 C 154.616 346.412 154.562 346.288 154.569 346.16 Q 154.659 344.1 156.809 343.08 Z " fill="rgb(225,138,48)"/><path d=" M 332.089 271.88 Q 332.669 271.54 333.039 270.96 Q 333.479 270.28 333.839 270.04 Q 335.519 268.941 334.949 271.01 Q 334.799 271.561 334.379 272.061 Q 329.219 278.2 323.529 283.861 Q 322.919 284.46 322.569 284.09 C 322.353 283.987 322.225 283.825 322.221 283.652 C 322.217 283.479 322.338 283.313 322.549 283.2 Q 324.509 279.14 325.079 276.16 Q 325.719 272.85 327.329 270.871 Q 330.129 267.441 333.519 263.001 Q 334.069 262.28 334.389 263.13 Q 334.919 264.59 334.819 265.811 Q 334.749 266.681 333.709 268.14 Q 332.549 269.77 331.819 271.63 Q 331.609 272.171 332.089 271.88 Z " fill="rgb(161,102,63)"/><path d="M 219.544 322.486 L 219.703 322.472 C 220.06 322.442 220.375 322.707 220.405 323.064 L 220.648 325.891 C 220.678 326.249 220.413 326.563 220.056 326.594 L 219.897 326.608 C 219.54 326.638 219.225 326.373 219.195 326.016 L 218.952 323.189 C 218.922 322.831 219.187 322.517 219.544 322.486 Z" style="stroke:none;fill:#A1663F;stroke-miterlimit:10;"/><path d=" M 175.079 346.871 L 177.039 349.16 Q 175.089 349.34 175.609 351.09 Q 175.829 351.83 175.799 352.27 Q 175.599 355.13 174.079 352.16 Q 172.549 349.16 173.329 347.41 Q 173.829 346.301 175.079 346.871 Z " fill="rgb(161,102,63)"/><path d=" M 246.547 288.789 C 246.331 288.335 246.981 287.574 247.997 287.089 C 249.013 286.604 250.014 286.579 250.23 287.032 C 250.446 287.486 249.797 288.247 248.78 288.732 C 247.764 289.217 246.764 289.242 246.547 288.789 Z " fill="rgb(178,137,86)"/><path d=" M 272.705 303.434 C 272.421 302.967 273.048 302.067 274.104 301.425 C 275.161 300.782 276.249 300.64 276.533 301.107 C 276.816 301.574 276.189 302.474 275.133 303.116 C 274.077 303.759 272.988 303.901 272.705 303.434 Z " fill="rgb(178,137,86)"/><path d=" M 277.019 299.72 Q 274.349 299.89 271.889 302.01 C 271.675 302.196 271.365 302.324 271.019 302.371 Q 270.049 302.32 270.339 301.311 C 270.398 301.015 270.619 300.751 270.949 300.58 Q 273.369 299.09 276.089 298.29 Q 277.809 297.79 278.999 298.48 Q 280.199 299.171 280.869 300.46 C 281.03 300.744 281.019 301.086 280.839 301.361 Q 278.549 305.46 273.819 306.121 Q 270.079 306.65 268.759 303.39 Q 268.559 302.9 268.529 302.39 Q 268.429 300.561 269.869 302.04 Q 270.229 302.4 270.399 303.03 Q 270.729 304.181 271.369 305.191 C 271.53 305.442 271.827 305.578 272.129 305.54 Q 276.179 304.95 278.769 301.811 C 279.018 301.568 279.088 301.222 278.949 300.921 Q 278.489 299.63 277.019 299.72 Z " fill="rgb(202,138,64)"/><path d=" M 210.649 347.001 Q 209.009 346.871 208.879 345.72 C 208.761 345.407 208.882 345.073 209.199 344.83 Q 211.359 342.16 215.269 339.6 Q 221.379 335.58 226.109 328.64 C 226.221 328.393 226.507 328.193 226.879 328.1 Q 227.239 328.07 227.509 328.28 C 227.692 328.374 227.811 328.519 227.838 328.681 C 227.864 328.842 227.796 329.006 227.649 329.13 Q 222.959 340.861 211.999 346.72 C 211.585 346.94 211.117 347.037 210.649 347.001 L 210.649 347.001 Z " fill="rgb(202,138,64)"/><path d=" M 221.999 250.6 Q 222.609 250.671 222.869 251.121 C 222.939 251.231 222.94 251.366 222.871 251.478 C 222.802 251.59 222.673 251.662 222.529 251.671 Q 218.339 252.251 214.339 250.73 Q 210.709 249.35 206.469 249.14 C 206.051 249.121 205.668 248.901 205.44 248.55 C 205.212 248.199 205.167 247.76 205.319 247.371 Q 206.659 243.9 209.759 243.421 C 210.631 243.285 211.51 243.62 212.069 244.301 Q 213.939 246.551 215.339 248.16 Q 217.559 250.72 221.079 250.15 Q 221.399 250.1 221.539 250.26 C 221.479 250.398 221.668 250.538 221.999 250.6 L 221.999 250.6 Z " fill="rgb(229,186,88)"/><path d=" M 310.119 282.23 C 309.827 282.396 309.466 282.372 309.199 282.171 Q 307.269 280.76 305.069 279.611 Q 303.599 278.85 304.629 278.34 Q 305.019 278.14 305.559 278.171 Q 308.609 278.33 310.389 280.85 Q 311.009 281.741 310.119 282.23 Z " fill="rgb(229,186,88)"/><path d=" M 192.749 307.97 Q 190.789 307.35 191.739 305.53 Q 195.419 298.501 200.049 305.85 C 200.175 306.053 200.211 306.3 200.146 306.531 C 200.081 306.761 199.922 306.953 199.709 307.061 Q 195.919 308.97 192.749 307.97 Z " fill="rgb(254,217,63)"/><path d=" M 173.369 337.27 C 172.509 336.856 171.493 336.937 170.709 337.48 Q 167.729 339.53 165.419 341.21 Q 164.999 341.51 165.109 341.09 Q 165.129 340.98 165.219 340.871 Q 166.919 338.801 168.929 337.01 Q 171.379 334.85 174.419 335.7 C 174.724 335.786 174.951 336.04 174.999 336.35 Q 175.289 338.2 173.369 337.27 Z " fill="rgb(120,71,52)"/><path d=" M 168.129 344.51 Q 169.859 344.27 168.699 346.07 Q 167.899 347.301 167.659 348.741 Q 166.989 352.681 169.629 353.73 C 169.817 353.806 169.963 353.961 170.025 354.155 C 170.087 354.349 170.059 354.56 169.949 354.73 Q 168.809 356.491 167.629 354.89 Q 162.239 347.57 170.119 339.45 C 170.651 338.903 171.405 338.624 172.169 338.691 Q 173.589 338.82 172.189 340.27 Q 170.179 342.35 168.009 344.27 Q 167.679 344.57 168.129 344.51 Z " fill="rgb(120,71,52)"/><path d=" M 165.319 317.35 Q 165.699 314.65 168.589 313.941 Q 169.249 313.78 169.329 314.13 C 169.481 314.256 169.518 314.413 169.429 314.557 C 169.339 314.7 169.134 314.816 168.869 314.871 Q 167.159 316.08 165.879 317.741 Q 165.099 318.751 164.299 319.02 Q 162.019 319.811 162.779 316.88 Q 162.879 316.491 163.129 316.13 Q 166.909 310.57 164.099 316.89 C 163.96 317.01 163.894 317.166 163.917 317.322 C 163.94 317.478 164.049 317.619 164.219 317.71 Q 164.459 317.9 164.779 317.921 C 165.13 317.87 165.37 317.618 165.319 317.35 Z " fill="rgb(201,117,61)"/></g></svg>