<?xml version="1.0" encoding="UTF-8" standalone="no"?><!-- Generator: Gravit.io --><svg xmlns="http://www.w3.org/2000/svg" xmlns:xlink="http://www.w3.org/1999/xlink" style="isolation:isolate" viewBox="612.132 297.838 261.737 180.324" width="261.737pt" height="180.324pt"><defs><clipPath id="_clipPath_VRmxUBhFNDFCYv58xx1R410Ia4fUqzH2"><rect x="612.132" y="297.838" width="261.737" height="180.324"/></clipPath></defs><g clip-path="url(#_clipPath_VRmxUBhFNDFCYv58xx1R410Ia4fUqzH2)"><g><path d=" M 637.887 443.398 Q 631.127 443.608 625.697 441.798 Q 624.177 441.288 622.597 439.608 Q 622.887 439.108 623.387 438.818 Q 629.497 442.568 637.137 441.858 Q 648.837 440.778 659.537 438.638 Q 666.087 437.338 675.887 434.178 Q 683.977 431.578 692.077 429.048 Q 697.787 427.258 725.297 415.638 Q 729.477 413.878 734.157 410.888 Q 742.747 405.418 751.977 401.128 Q 762.567 396.208 765.897 394.398 Q 771.237 391.488 779.447 386.918 Q 785.607 383.498 790.467 380.228 Q 791.207 379.738 798.077 374.178 Q 802.127 370.888 807.827 367.548 Q 815.997 362.738 825.887 353.068 Q 830.397 349.338 834.907 345.628 Q 837.367 343.608 839.387 341.148 Q 840.167 340.208 844.697 336.418 Q 853.297 329.238 856.457 317.698 Q 857.467 313.998 857.077 311.948 Q 856.467 308.758 853.287 306.988 Q 852.357 306.478 853.397 306.378 Q 853.627 306.348 853.867 306.448 Q 858.607 308.278 859.137 313.858 Q 859.727 320.048 857.157 324.838 Q 850.737 336.808 839.447 344.418 Q 836.407 346.468 830.717 351.698 Q 817.927 363.448 804.077 372.298 Q 798.297 375.988 794.557 378.768 Q 776.227 392.428 760.387 399.858 Q 742.197 408.388 734.047 412.498 Q 731.237 413.918 726.957 415.778 Q 723.667 417.198 719.887 419.108 Q 708.057 425.068 695.117 429.698 Q 684.657 433.438 676.147 436.018 Q 657.457 441.698 637.887 443.398 Z " fill="rgb(236,114,66)"/><path d=" M 769.637 312.898 Q 775.137 314.938 780.887 314.068 Q 787.067 314.038 792.137 317.568 Q 792.987 318.428 794.137 318.898 Q 795.067 319.798 795.137 321.068 Q 786.867 318.588 778.677 321.028 Q 778.067 321.208 778.547 321.528 Q 779.137 321.938 780.387 321.858 Q 785.447 321.538 788.077 325.678 Q 789.477 327.888 787.247 329.248 Q 782.847 331.918 777.937 334.448 Q 773.267 336.858 769.597 340.608 L 768.637 340.568 Q 771.327 338.208 770.887 335.108 Q 770.037 329.128 765.097 324.608 Q 766.317 322.338 764.457 320.558 Q 763.287 319.428 763.707 317.038 L 764.177 314.358 L 768.817 313.988 C 769.215 313.957 769.53 313.818 769.607 313.638 Q 769.737 313.308 769.637 312.898 Z " fill="rgb(214,106,49)"/><path d=" M 736.427 317.608 L 740.137 317.648 Q 738.687 319.338 738.387 321.568 Q 735.947 326.538 736.297 332.118 Q 736.617 337.358 736.727 342.608 Q 736.767 344.148 737.637 348.608 Q 739.957 360.448 730.407 367.918 Q 730.357 367.958 728.707 369.108 Q 724.767 371.858 723.357 376.548 Q 721.657 382.188 721.577 388.058 Q 721.577 388.178 721.337 389.478 Q 721.167 390.398 721.887 391.148 Q 721.227 391.278 721.097 391.858 Q 716.157 392.208 711.387 393.618 Q 706.857 394.968 702.137 395.068 Q 711.557 385.088 716.637 372.438 Q 718.737 367.218 719.957 365.748 Q 722.437 362.758 726.367 361.408 Q 730.447 360.018 731.827 358.548 Q 735.287 354.848 733.197 350.778 Q 732.257 348.938 732.387 346.878 Q 732.947 338.108 732.387 329.358 Q 732.167 325.888 734.097 322.108 L 736.427 317.608 Z " fill="rgb(208,82,20)"/><path d=" M 769.637 312.898 Q 769.737 313.308 769.607 313.638 C 769.53 313.818 769.215 313.957 768.817 313.988 L 764.177 314.358 Q 760.997 314.378 758.427 312.608 Q 756.487 310.008 753.387 309.068 Q 744.497 306.698 737.387 312.318 L 729.387 314.068 Q 724.747 314.878 721.047 317.758 Q 719.497 318.958 719.097 320.858 Q 717.317 320.038 716.577 321.728 Q 715.957 323.158 715.347 324.608 Q 713.127 325.948 713.327 323.608 C 713.583 323.312 713.464 322.948 713.047 322.748 L 709.887 320.318 Q 715.727 314.698 723.577 310.298 Q 725.837 309.028 723.637 307.318 Q 727.297 306.238 731.137 306.608 Q 736.657 307.128 741.997 305.958 Q 747.767 304.678 748.357 304.618 Q 751.927 304.218 754.887 304.608 Q 757.607 304.968 760.157 307.348 Q 764.277 311.218 769.637 312.898 Z " fill="rgb(249,144,47)"/><path d=" M 757.177 321.608 L 765.097 324.608 Q 770.037 329.128 770.887 335.108 Q 771.327 338.208 768.637 340.568 L 767.677 341.358 Q 767.227 337.188 764.157 338.328 Q 761.007 339.498 760.977 339.498 Q 759.007 339.618 757.637 337.898 L 761.637 334.548 C 762.07 334.336 762.208 333.978 761.977 333.668 Q 762.197 327.178 756.887 323.568 Q 757.287 322.608 757.177 321.608 Z " fill="rgb(249,144,47)"/><path d=" M 726.927 329.108 Q 724.847 336.478 724.077 344.098 Q 723.437 350.558 717.527 352.318 Q 715.397 352.958 715.287 352.998 Q 713.807 353.488 712.307 353.888 Q 710.087 354.478 708.467 353.858 Q 706.577 353.138 705.137 351.568 Q 700.487 347.098 705.887 344.318 Q 715.747 349.758 718.857 340.478 Q 719.617 338.218 718.897 336.728 Q 717.917 334.718 715.137 334.568 Q 714.827 332.778 715.887 331.398 Q 717.497 330.428 719.387 330.318 Q 722.957 331.348 723.677 328.108 Q 723.877 326.678 725.577 327.418 Q 726.947 328.018 726.927 329.108 Z " fill="rgb(254,208,45)"/><path d=" M 757.177 321.608 Q 757.287 322.608 756.887 323.568 Q 754.357 322.458 752.197 322.668 Q 750.217 322.868 750.387 324.818 Q 746.767 323.278 744.197 324.918 Q 739.537 327.898 742.387 333.318 Q 738.297 332.748 738.917 335.728 Q 739.237 337.268 740.617 338.458 Q 743.247 340.708 746.587 340.588 Q 748.247 340.528 752.207 339.788 Q 755.037 339.258 757.637 337.898 Q 759.007 339.618 760.977 339.498 Q 761.007 339.498 764.157 338.328 Q 767.227 337.188 767.677 341.358 Q 765.787 343.228 763.357 344.188 Q 763.037 344.318 761.227 344.538 Q 759.837 344.708 759.337 345.908 Q 758.467 347.968 758.437 348.018 Q 755.997 351.648 752.447 355.418 Q 748.067 360.088 747.317 366.798 Q 746.777 371.608 744.197 375.708 Q 742.627 378.208 742.157 381.108 Q 741.367 385.988 746.137 385.568 Q 746.757 386.308 745.887 386.858 Q 742.147 389.228 738.387 389.898 Q 737.937 389.928 737.877 389.608 Q 737.847 389.418 738.027 389.168 Q 739.697 386.808 737.227 385.448 Q 734.047 383.698 732.197 380.548 Q 730.967 378.438 730.137 381.108 Q 729.637 382.738 730.557 384.178 Q 732.097 386.598 734.487 388.808 Q 735.237 389.508 734.227 389.628 L 721.887 391.148 Q 721.167 390.398 721.337 389.478 Q 721.577 388.178 721.577 388.058 Q 721.657 382.188 723.357 376.548 Q 724.767 371.858 728.707 369.108 Q 730.357 367.958 730.407 367.918 Q 739.957 360.448 737.637 348.608 Q 736.767 344.148 736.727 342.608 Q 736.617 337.358 736.297 332.118 Q 735.947 326.538 738.387 321.568 Q 740.977 321.048 743.297 318.148 C 743.532 317.85 743.886 317.667 744.267 317.648 Q 748.497 317.458 751.497 318.958 Q 754.307 320.348 757.177 321.608 Z " fill="rgb(255,155,49)"/><path d=" M 699.387 330.148 Q 696.107 333.588 694.197 337.928 C 694.064 338.225 694.072 338.566 694.217 338.858 Q 697.177 344.958 697.387 348.068 Q 695.427 353.148 691.277 356.738 Q 687.477 360.028 686.887 363.108 Q 684.627 374.818 682.827 378.548 Q 681.407 381.478 677.977 380.808 Q 677.337 380.688 676.017 380.038 Q 672.487 378.318 674.577 382.668 Q 677.257 388.258 672.697 393.418 Q 669.647 396.878 669.677 400.358 Q 669.777 399.288 668.877 398.968 C 668.544 398.875 668.323 398.63 668.327 398.358 L 665.937 371.758 C 665.818 371.095 666.008 370.418 666.467 369.868 Q 673.087 360.058 675.807 351.158 C 675.896 350.843 676.099 350.572 676.377 350.398 Q 681.907 346.848 686.717 342.388 C 686.968 342.157 687.123 341.862 687.157 341.548 Q 687.827 338.148 690.447 336.918 Q 693.137 335.658 695.077 333.048 Q 696.617 330.968 699.387 330.148 Z " fill="rgb(255,155,49)"/><path d=" M 697.387 348.068 Q 699.277 347.958 700.847 348.858 L 700.097 351.858 Q 697.607 355.838 693.697 359.418 Q 691.467 361.468 690.137 364.608 Q 689.267 366.668 687.807 374.058 Q 686.817 379.098 685.707 380.898 Q 683.737 384.088 679.937 385.678 C 679.217 385.975 678.708 386.629 678.597 387.398 Q 677.927 391.868 677.697 396.668 Q 677.597 398.928 676.387 400.068 Q 672.757 399.428 670.097 401.608 Q 669.787 401.358 669.387 401.318 L 669.677 400.358 Q 669.647 396.878 672.697 393.418 Q 677.257 388.258 674.577 382.668 Q 672.487 378.318 676.017 380.038 Q 677.337 380.688 677.977 380.808 Q 681.407 381.478 682.827 378.548 Q 684.627 374.818 686.887 363.108 Q 687.477 360.028 691.277 356.738 Q 695.427 353.148 697.387 348.068 Z " fill="rgb(211,74,19)"/><path d=" M 734.097 322.108 Q 732.167 325.888 732.387 329.358 Q 732.947 338.108 732.387 346.878 Q 732.257 348.938 733.197 350.778 Q 735.287 354.848 731.827 358.548 Q 730.447 360.018 726.367 361.408 Q 722.437 362.758 719.957 365.748 Q 718.737 367.218 716.637 372.438 Q 711.557 385.088 702.137 395.068 L 696.347 398.608 Q 686.227 405.518 674.887 410.148 L 673.637 410.068 Q 674.667 408.848 675.737 407.688 Q 677.137 406.188 677.457 405.098 Q 678.217 402.528 676.387 400.068 Q 677.597 398.928 677.697 396.668 Q 677.927 391.868 678.597 387.398 C 678.708 386.629 679.217 385.975 679.937 385.678 Q 683.737 384.088 685.707 380.898 Q 686.817 379.098 687.807 374.058 Q 689.267 366.668 690.137 364.608 Q 691.467 361.468 693.697 359.418 Q 697.607 355.838 700.097 351.858 Q 700.227 352.678 701.087 352.318 Q 703.037 351.498 705.137 351.568 Q 706.577 353.138 708.467 353.858 Q 710.087 354.478 712.307 353.888 Q 713.807 353.488 715.287 352.998 Q 715.397 352.958 717.527 352.318 Q 723.437 350.558 724.077 344.098 Q 724.847 336.478 726.927 329.108 Q 727.597 327.458 728.277 325.808 Q 729.117 323.768 730.287 323.008 Q 731.927 321.968 734.097 322.108 Z " fill="rgb(255,156,47)"/><path d=" M 767.887 348.318 Q 768.797 355.008 763.787 359.828 Q 761.917 361.628 763.267 363.828 Q 765.167 366.928 763.817 369.468 Q 763.687 369.698 760.607 373.418 Q 756.097 378.888 750.477 383.238 C 750.233 383.419 749.906 383.465 749.617 383.358 L 746.637 382.068 Q 747.187 379.398 748.507 377.008 Q 751.407 371.718 752.197 364.418 Q 752.557 361.098 754.777 358.588 Q 755.367 357.918 759.357 354.458 Q 763.337 351.008 767.887 348.318 Z " fill="rgb(255,156,47)"/><path d=" M 823.847 367.858 Q 829.647 375.238 831.577 379.918 Q 834.027 385.878 832.887 390.608 Q 831.387 396.808 830.827 398.548 Q 829.597 402.298 829.677 405.358 L 829.627 406.098 C 829.643 406.398 829.49 406.686 829.217 406.868 Q 827.517 408.048 827.327 410.298 Q 827.227 411.438 824.387 413.358 Q 822.707 414.488 821.517 416.038 Q 820.987 416.718 819.777 419.498 Q 818.857 421.598 817.387 423.398 Q 812.217 423.008 808.897 426.878 Q 807.957 427.958 805.577 431.298 Q 802.647 435.388 805.097 439.108 L 800.177 440.358 Q 800.017 438.558 798.957 437.228 C 798.766 436.991 798.436 436.913 798.157 437.038 Q 796.777 437.688 797.087 439.198 Q 797.397 440.738 797.437 441.078 Q 797.687 443.008 799.097 444.358 Q 798.487 446.178 798.577 448.008 Q 798.687 450.458 798.317 451.528 Q 796.347 457.158 791.007 459.828 Q 790.917 459.878 788.627 461.368 Q 786.897 462.498 784.887 461.318 Q 787.207 459.448 787.437 456.638 Q 787.717 453.238 787.747 453.108 Q 789.017 446.398 788.387 441.608 Q 787.467 434.658 791.547 430.568 Q 792.777 429.338 795.157 428.258 Q 797.137 427.358 799.157 426.558 Q 802.497 425.238 803.827 423.298 Q 806.987 418.688 810.077 414.048 Q 813.547 408.828 814.417 400.638 Q 814.927 395.898 814.837 395.088 Q 814.507 391.958 811.307 390.158 Q 809.407 389.098 807.927 390.688 Q 805.977 392.788 805.547 395.688 Q 804.827 400.498 804.387 405.338 Q 804.067 408.968 802.947 411.418 Q 800.727 416.298 799.807 420.288 Q 799.137 423.208 796.327 424.288 Q 788.347 427.348 784.777 434.768 Q 783.677 437.048 783.637 439.128 Q 783.587 441.348 784.327 443.668 Q 787.007 452.168 780.827 458.548 Q 779.687 459.718 775.887 463.068 L 767.137 467.148 L 760.887 469.648 Q 755.597 469.888 750.487 471.288 Q 748.787 471.758 748.257 471.588 Q 746.967 471.148 748.907 468.218 C 749.148 467.914 749.212 467.515 749.077 467.157 C 748.941 466.799 748.625 466.532 748.237 466.448 L 742.887 465.318 Q 745.237 463.618 747.427 461.728 Q 749.877 459.608 750.667 457.118 Q 751.797 453.568 751.277 449.798 Q 750.977 447.598 750.057 446.518 Q 748.837 445.078 746.637 444.908 Q 743.637 444.668 740.637 444.398 Q 741.837 444.178 741.737 443.098 Q 741.677 442.478 741.797 442.128 Q 743.617 436.788 746.557 431.978 C 746.77 431.702 746.839 431.366 746.747 431.048 L 745.427 423.858 Q 747.267 423.638 747.527 421.788 Q 747.967 418.648 747.067 415.668 Q 746.887 415.068 746.947 414.518 Q 747.017 413.938 747.097 413.358 Q 748.157 412.428 748.697 412.168 Q 778.037 398.168 805.417 380.628 Q 807.807 379.098 810.387 377.898 Q 813.807 380.758 818.887 381.608 Q 821.277 382.008 823.067 381.118 Q 824.857 380.228 825.007 378.238 Q 825.157 376.098 823.387 374.608 Q 821.037 372.628 817.387 372.818 Q 819.737 369.198 823.847 367.858 Z " fill="rgb(209,105,56)"/><path d=" M 768.637 340.568 L 769.597 340.608 L 768.927 347.358 L 767.887 348.318 Q 763.337 351.008 759.357 354.458 Q 755.367 357.918 754.777 358.588 Q 752.557 361.098 752.197 364.418 Q 751.407 371.718 748.507 377.008 Q 747.187 379.398 746.637 382.068 Q 745.797 383.688 746.137 385.568 Q 741.367 385.988 742.157 381.108 Q 742.627 378.208 744.197 375.708 Q 746.777 371.608 747.317 366.798 Q 748.067 360.088 752.447 355.418 Q 755.997 351.648 758.437 348.018 Q 758.467 347.968 759.337 345.908 Q 759.837 344.708 761.227 344.538 Q 763.037 344.318 763.357 344.188 Q 765.787 343.228 767.677 341.358 L 768.637 340.568 Z " fill="rgb(216,78,26)"/><path d=" M 645.097 446.358 L 637.637 445.568 Q 637.187 444.428 637.887 443.398 Q 657.457 441.698 676.147 436.018 Q 684.657 433.438 695.117 429.698 Q 708.057 425.068 719.887 419.108 Q 723.667 417.198 726.957 415.778 Q 731.237 413.918 734.047 412.498 Q 742.197 408.388 760.387 399.858 Q 776.227 392.428 794.557 378.768 Q 798.297 375.988 804.077 372.298 Q 817.927 363.448 830.717 351.698 Q 836.407 346.468 839.447 344.418 Q 850.737 336.808 857.157 324.838 Q 859.727 320.048 859.137 313.858 Q 858.607 308.278 853.867 306.448 Q 853.627 306.348 853.397 306.378 Q 852.357 306.478 853.287 306.988 Q 856.467 308.758 857.077 311.948 Q 857.467 313.998 856.457 317.698 Q 853.297 329.238 844.697 336.418 Q 840.167 340.208 839.387 341.148 Q 837.317 341.768 835.647 343.088 Q 832.897 345.248 832.847 345.278 Q 829.247 347.798 826.287 351.048 C 825.97 351.279 825.826 351.602 825.897 351.918 L 825.887 353.068 Q 815.997 362.738 807.827 367.548 Q 802.127 370.888 798.077 374.178 Q 791.207 379.738 790.467 380.228 Q 785.607 383.498 779.447 386.918 Q 771.237 391.488 765.897 394.398 Q 762.567 396.208 751.977 401.128 Q 742.747 405.418 734.157 410.888 Q 729.477 413.878 725.297 415.638 Q 697.787 427.258 692.077 429.048 Q 683.977 431.578 675.887 434.178 Q 666.087 437.338 659.537 438.638 Q 648.837 440.778 637.137 441.858 Q 629.497 442.568 623.387 438.818 Q 620.057 435.598 619.637 430.108 Q 618.967 421.398 623.107 414.868 Q 628.117 406.948 635.637 401.358 Q 636.477 400.738 636.677 401.858 Q 631.537 409.618 627.967 418.168 Q 624.937 425.418 624.557 428.028 Q 623.467 435.468 631.847 437.648 Q 634.377 438.308 632.337 436.678 Q 625.337 431.078 629.677 423.108 Q 631.037 422.938 630.677 424.358 Q 630.457 428.818 633.447 430.798 Q 637.457 433.448 642.657 433.768 Q 645.677 433.958 652.037 432.698 Q 656.717 431.768 661.387 430.818 Q 662.317 431.308 661.577 432.048 Q 660.257 433.348 662.387 433.108 Q 667.227 432.578 670.887 429.398 Q 675.207 427.928 679.637 426.818 Q 684.797 425.518 688.317 424.148 Q 701.567 418.988 714.787 413.748 Q 723.597 410.248 733.077 405.678 Q 743.707 400.558 754.387 395.568 Q 767.497 389.058 779.667 380.908 Q 786.587 376.268 789.697 374.418 Q 809.367 362.708 826.137 347.148 Q 836.807 338.858 845.597 328.608 Q 847.937 325.998 849.587 322.928 Q 851.027 320.218 851.247 319.388 Q 851.767 317.328 850.437 315.308 Q 847.797 311.288 843.867 308.668 Q 842.247 307.578 840.117 307.658 Q 824.837 308.218 810.887 314.568 Q 802.807 317.878 794.137 318.898 Q 792.987 318.428 792.137 317.568 Q 792.557 316.788 793.887 316.358 Q 803.527 313.268 810.287 311.368 Q 813.717 310.408 820.907 307.838 Q 829.947 304.618 839.557 303.818 Q 842.337 303.578 846.067 302.648 Q 855.167 300.378 863.077 303.918 Q 868.187 306.208 868.907 311.418 Q 869.437 315.218 867.147 319.858 Q 864.287 325.618 859.137 330.358 Q 854.897 334.258 847.597 341.648 Q 839.677 349.668 835.987 352.858 Q 827.427 360.268 817.327 366.798 Q 812.897 369.658 807.327 374.298 Q 801.007 379.558 788.827 386.798 Q 768.787 398.708 747.967 409.198 Q 732.997 416.748 717.837 423.898 Q 717.437 424.088 716.897 424.038 Q 715.387 423.928 713.637 424.858 Q 693.467 435.598 669.327 441.548 Q 663.907 442.878 645.097 446.358 Z " fill="rgb(254,208,129)"/><path d=" M 662.097 377.608 Q 662.587 379.958 662.097 382.358 Q 661.707 382.328 661.317 382.368 Q 660.977 382.398 660.647 382.648 Q 654.367 387.408 652.197 389.668 Q 651.737 390.158 651.097 391.808 Q 650.647 392.998 649.977 393.868 Q 645.207 400.128 640.097 406.108 Q 637.037 407.478 636.387 410.878 C 636.305 411.294 636.065 411.663 635.717 411.908 Q 633.597 413.418 633.347 412.358 L 638.177 402.358 Q 640.127 399.098 642.727 396.368 Q 645.757 393.188 645.817 393.118 Q 653.037 385.148 660.327 379.798 Q 661.777 378.728 662.097 377.608 Z " fill="rgb(254,208,129)"/><path d=" M 823.847 367.858 Q 819.737 369.198 817.387 372.818 L 810.387 377.898 Q 807.807 379.098 805.417 380.628 Q 778.037 398.168 748.697 412.168 Q 748.157 412.428 747.097 413.358 L 733.137 420.068 Q 706.607 433.728 683.137 440.608 Q 679.767 441.598 678.637 442.898 Q 675.087 443.378 671.647 444.398 Q 655.837 449.098 639.387 450.148 Q 634.517 448.928 639.137 448.188 Q 639.547 448.118 639.997 447.768 Q 640.697 447.228 641.637 447.388 Q 643.687 447.728 645.097 446.358 Q 663.907 442.878 669.327 441.548 Q 693.467 435.598 713.637 424.858 Q 715.387 423.928 716.897 424.038 Q 717.437 424.088 717.837 423.898 Q 732.997 416.748 747.967 409.198 Q 768.787 398.708 788.827 386.798 Q 801.007 379.558 807.327 374.298 Q 812.897 369.658 817.327 366.798 Q 827.427 360.268 835.987 352.858 Q 839.677 349.668 847.597 341.648 Q 854.897 334.258 859.137 330.358 Q 864.287 325.618 867.147 319.858 Q 869.437 315.218 868.907 311.418 Q 868.187 306.208 863.077 303.918 Q 855.167 300.378 846.067 302.648 Q 842.337 303.578 839.557 303.818 Q 829.947 304.618 820.907 307.838 Q 813.717 310.408 810.287 311.368 Q 803.527 313.268 793.887 316.358 Q 792.557 316.788 792.137 317.568 Q 787.067 314.038 780.887 314.068 Q 807.877 303.238 836.637 298.858 Q 844.287 297.698 853.637 297.858 Q 858.317 297.938 862.437 299.128 Q 867.277 300.528 870.157 303.228 Q 875.777 308.498 872.887 317.108 Q 871.607 320.938 868.877 325.278 Q 866.847 328.528 863.347 332.458 Q 847.417 350.348 827.947 364.418 Q 825.767 365.998 823.847 367.858 Z " fill="rgb(252,152,91)"/><path d=" M 662.097 382.358 Q 662.707 385.488 662.097 388.608 Q 653.457 395.838 646.307 404.548 Q 642.537 409.138 640.147 414.578 Q 638.227 418.928 638.887 421.358 Q 639.767 424.588 643.097 425.288 Q 644.607 425.608 646.137 425.898 Q 645.977 426.938 646.877 427.468 C 646.973 427.512 647.036 427.602 647.042 427.704 C 647.048 427.806 646.997 427.903 646.907 427.958 L 645.997 428.538 C 645.722 428.703 645.397 428.787 645.067 428.778 Q 638.927 428.518 636.007 423.608 Q 635.017 421.928 635.337 419.918 Q 635.647 417.988 636.387 416.148 Q 638.407 411.188 640.097 406.108 Q 645.207 400.128 649.977 393.868 Q 650.647 392.998 651.097 391.808 Q 651.737 390.158 652.197 389.668 Q 654.367 387.408 660.647 382.648 Q 660.977 382.398 661.317 382.368 Q 661.707 382.328 662.097 382.358 Z " fill="rgb(252,152,91)"/><path d=" M 719.097 320.858 Q 722.967 323.488 723.677 328.108 Q 722.957 331.348 719.387 330.318 Q 719.297 329.818 718.637 329.608 Q 715.137 328.498 715.347 324.608 Q 715.957 323.158 716.577 321.728 Q 717.317 320.038 719.097 320.858 Z " fill="rgb(201,72,19)"/><path d=" M 750.387 324.818 Q 754.857 326.088 755.137 330.358 Q 755.567 336.928 749.197 336.548 Q 745.437 336.318 742.387 333.318 Q 739.537 327.898 744.197 324.918 Q 746.767 323.278 750.387 324.818 Z " fill="rgb(201,72,19)"/><path d=" M 715.137 334.568 Q 717.917 334.718 718.897 336.728 Q 719.617 338.218 718.857 340.478 Q 715.747 349.758 705.887 344.318 Q 704.987 343.338 705.137 341.608 Q 705.487 337.438 708.587 335.748 Q 709.627 335.178 711.807 334.978 Q 713.477 334.818 715.137 334.568 Z " fill="rgb(201,72,19)"/><path d=" M 696.347 398.608 Q 698.157 400.958 698.637 403.898 Q 693.987 407.158 691.327 410.548 Q 690.077 412.128 692.097 412.358 Q 692.327 413.058 692.887 413.568 Q 684.037 413.298 681.137 414.108 Q 677.777 415.048 674.737 413.468 Q 673.937 413.058 673.597 413.858 L 673.137 412.818 Q 673.247 410.968 674.887 410.148 Q 686.227 405.518 696.347 398.608 Z " fill="rgb(201,72,19)"/><path d=" M 708.847 404.108 Q 708.567 405.508 708.177 406.888 Q 707.817 408.158 708.137 408.838 Q 708.657 409.898 710.137 409.898 L 697.507 413.978 Q 696.997 414.138 696.647 414.488 Q 695.147 415.968 694.177 415.858 Q 694.027 414.428 692.887 413.568 Q 692.327 413.058 692.097 412.358 Q 693.407 411.138 694.577 409.788 Q 695.957 408.198 697.317 407.678 Q 698.687 407.158 700.137 406.938 Q 701.867 406.678 702.927 406.268 Q 705.867 405.128 708.847 404.108 Z " fill="rgb(212,86,9)"/><path d=" M 753.387 309.068 Q 747.637 309.428 746.387 309.858 Q 741.967 311.368 737.387 312.318 Q 744.497 306.698 753.387 309.068 Z " fill="rgb(224,115,27)"/><path d=" M 708.847 404.108 Q 705.867 405.128 702.927 406.268 Q 701.867 406.678 700.137 406.938 Q 698.687 407.158 697.317 407.678 Q 695.957 408.198 694.577 409.788 Q 693.407 411.138 692.097 412.358 Q 690.077 412.128 691.327 410.548 Q 693.987 407.158 698.637 403.898 Q 704.097 400.918 710.807 399.188 C 710.915 399.161 711.029 399.191 711.109 399.267 C 711.189 399.342 711.222 399.452 711.197 399.558 Q 710.607 402.318 708.847 404.108 Z " fill="rgb(224,115,27)"/><path d=" M 673.637 410.068 L 674.887 410.148 Q 673.247 410.968 673.137 412.818 Q 670.997 413.848 669.717 415.748 C 668.607 415.71 667.672 415.883 667.627 416.134 C 667.583 416.385 668.447 416.62 669.557 416.658 Q 669.547 417.208 668.637 417.148 L 667.137 415.898 L 669.887 411.148 L 673.637 410.068 Z " fill="rgb(224,115,27)"/><path d=" M 738.387 389.898 Q 736.867 391.658 734.877 392.698 Q 731.717 394.358 730.937 394.688 Q 728.977 395.518 726.387 395.358 Q 724.547 395.248 721.927 396.358 Q 722.297 393.888 721.097 391.858 Q 721.227 391.278 721.887 391.148 L 734.227 389.628 Q 735.237 389.508 734.487 388.808 Q 732.097 386.598 730.557 384.178 Q 729.637 382.738 730.137 381.108 Q 730.967 378.438 732.197 380.548 Q 734.047 383.698 737.227 385.448 Q 739.697 386.808 738.027 389.168 Q 737.847 389.418 737.877 389.608 Q 737.937 389.928 738.387 389.898 Z " fill="rgb(206,83,37)"/><path d=" M 673.137 412.818 L 673.597 413.858 L 675.767 418.218 C 676.293 418.712 676.37 419.36 675.967 419.898 Q 675.447 421.338 676.387 421.898 Q 673.787 423.188 670.927 423.108 Q 670.927 419.728 668.637 417.148 Q 669.547 417.208 669.557 416.658 C 668.447 416.62 667.583 416.385 667.627 416.134 C 667.672 415.883 668.607 415.71 669.717 415.748 Q 670.997 413.848 673.137 412.818 Z " fill="rgb(206,83,37)"/><path d=" M 753.387 309.068 Q 756.487 310.008 758.427 312.608 Q 758.047 313.168 757.377 313.288 Q 748.617 314.928 740.137 317.648 L 736.427 317.608 Q 733.467 314.748 729.387 314.068 L 737.387 312.318 Q 741.967 311.368 746.387 309.858 Q 747.637 309.428 753.387 309.068 Z " fill="rgb(185,65,18)"/><path d=" M 692.887 413.568 Q 694.027 414.428 694.177 415.858 Q 693.877 416.608 693.327 416.798 Q 686.847 419.018 676.387 421.898 Q 675.447 421.338 675.967 419.898 C 676.37 419.36 676.293 418.712 675.767 418.218 L 673.597 413.858 Q 673.937 413.058 674.737 413.468 Q 677.777 415.048 681.137 414.108 Q 684.037 413.298 692.887 413.568 Z " fill="rgb(185,65,18)"/><path d=" M 817.387 372.818 Q 821.037 372.628 823.387 374.608 Q 825.157 376.098 825.007 378.238 Q 824.857 380.228 823.067 381.118 Q 821.277 382.008 818.887 381.608 Q 813.807 380.758 810.387 377.898 L 817.387 372.818 Z " fill="rgb(171,56,24)"/><path d=" M 738.427 464.358 Q 738.517 459.508 733.877 460.828 Q 732.777 461.138 731.637 461.318 Q 726.397 458.638 720.947 459.168 Q 717.347 459.528 714.637 458.818 Q 717.277 457.828 718.597 455.368 C 718.795 455.12 718.736 454.794 718.457 454.598 Q 718.207 454.298 718.137 453.898 Q 719.987 456.518 722.887 455.858 Q 727.347 454.838 728.987 451.148 Q 730.497 447.738 728.277 444.958 Q 725.547 441.558 720.427 444.358 Q 720.347 443.958 720.387 443.558 Q 720.417 443.218 720.677 442.848 Q 725.467 436.128 731.327 430.288 Q 734.087 427.528 735.797 424.028 Q 736.207 423.198 735.387 423.068 Q 738.967 420.458 739.137 424.858 Q 739.227 427.098 737.777 438.898 Q 737.767 438.998 737.227 442.158 Q 736.797 444.688 737.107 447.138 C 737.142 447.417 737.289 447.67 737.515 447.841 C 737.74 448.013 738.026 448.087 738.307 448.048 Q 741.997 447.488 745.597 448.308 C 745.91 448.386 746.174 448.585 746.327 448.858 Q 749.867 455.168 744.947 460.418 Q 742.347 463.198 738.427 464.358 Z " fill="rgb(213,110,53)"/><path d=" M 735.387 423.068 Q 736.207 423.198 735.797 424.028 Q 734.087 427.528 731.327 430.288 Q 725.467 436.128 720.677 442.848 Q 720.417 443.218 720.387 443.558 Q 720.347 443.958 720.427 444.358 L 716.597 449.108 Q 715.157 449.108 713.867 448.478 Q 713.777 448.428 713.387 448.308 Q 712.697 448.078 712.847 447.108 Q 713.057 446.868 713.097 446.608 Q 714.797 444.138 716.277 441.538 Q 718.257 438.068 719.467 436.508 Q 725.537 428.708 734.137 423.568 L 735.387 423.068 Z " fill="rgb(242,150,59)"/><path d=" M 721.097 391.858 Q 722.297 393.888 721.927 396.358 Q 720.657 400.778 720.677 405.358 L 710.137 409.898 Q 708.657 409.898 708.137 408.838 Q 707.817 408.158 708.177 406.888 Q 708.567 405.508 708.847 404.108 Q 710.607 402.318 711.197 399.558 C 711.222 399.452 711.189 399.342 711.109 399.267 C 711.029 399.191 710.915 399.161 710.807 399.188 Q 704.097 400.918 698.637 403.898 Q 698.157 400.958 696.347 398.608 L 702.137 395.068 Q 706.857 394.968 711.387 393.618 Q 716.157 392.208 721.097 391.858 Z " fill="rgb(176,60,19)"/><path d=" M 733.137 420.068 Q 734.007 421.728 734.137 423.568 Q 725.537 428.708 719.467 436.508 Q 718.257 438.068 716.277 441.538 Q 714.797 444.138 713.097 446.608 L 708.887 445.148 L 694.087 439.068 C 693.794 438.96 693.465 438.953 693.167 439.048 Q 688.127 441.018 682.847 442.158 Q 682.427 442.248 680.927 442.168 Q 679.587 442.098 679.097 443.358 Q 678.767 443.228 678.637 442.898 Q 679.767 441.598 683.137 440.608 Q 706.607 433.728 733.137 420.068 Z " fill="rgb(176,60,19)"/><path d=" M 817.387 423.398 Q 821.777 428.138 818.087 433.758 Q 814.307 439.498 807.887 440.358 Q 806.347 440.568 805.097 439.108 Q 802.647 435.388 805.577 431.298 Q 807.957 427.958 808.897 426.878 Q 812.217 423.008 817.387 423.398 Z " fill="rgb(176,60,19)"/><path d=" M 816.677 317.858 L 798.887 323.148 Q 796.667 322.818 795.137 321.068 Q 795.067 319.798 794.137 318.898 Q 802.807 317.878 810.887 314.568 Q 812.647 314.618 814.197 313.848 C 814.31 313.793 814.44 313.785 814.558 313.826 C 814.676 313.868 814.773 313.955 814.827 314.068 L 816.677 317.858 Z " fill="rgb(249,144,86)"/><path d=" M 824.887 346.148 Q 824.927 347.278 826.137 347.148 Q 809.367 362.708 789.697 374.418 Q 786.587 376.268 779.667 380.908 Q 767.497 389.058 754.387 395.568 L 753.887 394.318 Q 771.477 384.168 788.327 372.858 Q 798.877 365.778 809.287 358.488 Q 817.447 352.788 824.887 346.148 Z " fill="rgb(249,144,86)"/><path d=" M 670.887 429.398 Q 667.227 432.578 662.387 433.108 Q 660.257 433.348 661.577 432.048 Q 662.317 431.308 661.387 430.818 Q 663.937 430.258 666.497 429.778 Q 666.597 429.758 668.217 429.248 Q 669.517 428.838 670.887 429.398 Z " fill="rgb(249,144,86)"/><path d=" M 839.177 325.358 Q 840.907 325.348 840.577 327.048 Q 840.367 328.098 837.637 332.068 Q 834.047 335.348 831.317 339.638 Q 831.017 340.098 830.677 340.438 L 824.887 346.148 Q 817.447 352.788 809.287 358.488 Q 798.877 365.778 788.327 372.858 Q 771.477 384.168 753.887 394.318 Q 750.217 395.998 746.527 397.648 Q 743.897 398.828 739.037 400.698 Q 730.097 404.138 715.077 411.048 Q 699.137 418.368 672.087 426.578 Q 658.177 430.808 646.887 431.858 Q 636.727 432.808 630.677 424.358 Q 631.037 422.938 629.677 423.108 L 633.347 412.358 Q 633.597 413.418 635.717 411.908 C 636.065 411.663 636.305 411.294 636.387 410.878 Q 637.037 407.478 640.097 406.108 Q 638.407 411.188 636.387 416.148 Q 635.647 417.988 635.337 419.918 Q 635.017 421.928 636.007 423.608 Q 638.927 428.518 645.067 428.778 C 645.397 428.787 645.722 428.703 645.997 428.538 L 646.907 427.958 C 646.997 427.903 647.048 427.806 647.042 427.704 C 647.036 427.602 646.973 427.512 646.877 427.468 Q 645.977 426.938 646.137 425.898 Q 658.847 427.098 670.927 423.108 Q 673.787 423.188 676.387 421.898 Q 686.847 419.018 693.327 416.798 Q 693.877 416.608 694.177 415.858 Q 695.147 415.968 696.647 414.488 Q 696.997 414.138 697.507 413.978 L 710.137 409.898 L 720.677 405.358 Q 725.427 403.428 730.267 401.748 Q 730.337 401.718 732.157 401.188 Q 734.427 400.528 736.827 398.798 Q 738.857 397.328 742.427 396.218 Q 744.917 395.448 747.137 394.158 Q 751.157 391.828 751.267 391.778 Q 756.037 389.358 760.807 386.948 Q 765.787 384.438 770.137 381.768 Q 789.747 369.728 808.697 356.668 Q 811.757 354.558 819.827 347.498 Q 820.107 347.248 820.307 346.688 Q 820.477 346.208 820.887 345.898 Q 826.047 341.628 832.577 334.548 Q 836.927 329.828 839.177 325.358 Z " fill="rgb(252,173,103)"/><path d=" M 839.387 341.148 Q 837.367 343.608 834.907 345.628 Q 830.397 349.338 825.887 353.068 L 825.897 351.918 C 825.826 351.602 825.97 351.279 826.287 351.048 Q 829.247 347.798 832.847 345.278 Q 832.897 345.248 835.647 343.088 Q 837.317 341.768 839.387 341.148 Z " fill="rgb(252,173,103)"/><path d=" M 622.597 439.608 Q 624.177 441.288 625.697 441.798 Q 631.127 443.608 637.887 443.398 Q 637.187 444.428 637.637 445.568 Q 636.477 445.158 634.827 445.548 Q 631.297 446.378 627.197 445.638 C 626.866 445.551 626.574 445.394 626.357 445.188 Q 625.327 444.208 623.947 443.888 C 623.63 443.806 623.359 443.624 623.187 443.378 Q 622.017 441.558 620.457 440.028 Q 618.117 437.738 617.887 434.348 Q 617.767 432.518 618.517 434.188 Q 619.907 437.278 622.597 439.608 Z " fill="rgb(252,173,103)"/><path d=" M 709.887 320.318 L 713.047 322.748 C 713.464 322.948 713.583 323.312 713.327 323.608 Q 713.127 325.948 715.347 324.608 Q 715.137 328.498 718.637 329.608 Q 719.297 329.818 719.387 330.318 Q 717.497 330.428 715.887 331.398 Q 712.667 331.148 711.287 328.458 C 711.152 328.194 710.907 328.003 710.618 327.935 C 710.329 327.868 710.025 327.931 709.787 328.108 Q 707.127 330.078 704.627 332.078 Q 699.487 336.188 700.387 342.858 Q 700.947 346.968 700.847 348.858 Q 699.277 347.958 697.387 348.068 Q 697.177 344.958 694.217 338.858 C 694.072 338.566 694.064 338.225 694.197 337.928 Q 696.107 333.588 699.387 330.148 Q 705.607 327.958 707.927 321.858 L 709.887 320.318 Z " fill="rgb(219,96,26)"/><path d=" M 718.137 453.898 Q 715.067 452.068 716.597 449.108 L 720.427 444.358 Q 725.547 441.558 728.277 444.958 Q 730.497 447.738 728.987 451.148 Q 727.347 454.838 722.887 455.858 Q 719.987 456.518 718.137 453.898 Z " fill="rgb(172,49,18)"/><path d=" M 708.887 445.148 L 713.097 446.608 Q 713.057 446.868 712.847 447.108 L 705.967 452.758 Q 703.627 454.678 703.637 457.228 Q 703.657 460.458 707.887 459.608 Q 712.597 458.658 714.637 458.818 Q 717.347 459.528 720.947 459.168 Q 726.397 458.638 731.637 461.318 Q 726.217 463.468 720.397 462.958 Q 718.657 462.808 714.387 462.608 Q 711.087 462.458 710.347 465.358 L 709.997 467.378 C 709.949 467.661 709.683 467.861 709.387 467.838 L 705.887 467.398 Q 702.547 465.638 701.447 463.798 Q 697.547 457.228 693.347 450.858 Q 694.787 448.368 697.567 449.188 Q 703.497 450.928 707.677 446.608 Q 708.817 446.308 708.887 445.148 Z " fill="rgb(196,76,28)"/><path d=" M 756.887 323.568 Q 762.197 327.178 761.977 333.668 C 762.208 333.978 762.07 334.336 761.637 334.548 L 757.637 337.898 Q 755.037 339.258 752.207 339.788 Q 748.247 340.528 746.587 340.588 Q 743.247 340.708 740.617 338.458 Q 739.237 337.268 738.917 335.728 Q 738.297 332.748 742.387 333.318 Q 745.437 336.318 749.197 336.548 Q 755.567 336.928 755.137 330.358 Q 754.857 326.088 750.387 324.818 Q 750.217 322.868 752.197 322.668 Q 754.357 322.458 756.887 323.568 Z " fill="rgb(254,189,51)"/><path d=" M 693.347 450.858 Q 697.547 457.228 701.447 463.798 Q 702.547 465.638 705.887 467.398 Q 712.037 470.788 719.137 470.898 Q 719.927 472.248 718.387 472.318 Q 714.687 473.588 711.017 472.948 Q 707.197 472.278 704.237 470.598 Q 700.767 468.628 698.327 464.418 Q 695.107 458.868 689.887 456.858 Q 684.487 454.778 682.847 449.858 Q 683.267 449.408 683.887 449.318 L 690.637 448.878 C 690.961 448.864 691.277 448.975 691.517 449.188 L 693.347 450.858 Z " fill="rgb(254,189,51)"/><path d=" M 795.137 321.068 Q 796.667 322.818 798.887 323.148 L 799.137 323.568 Q 797.897 323.358 798.307 324.248 Q 799.477 326.758 801.967 328.058 Q 804.707 329.478 802.897 331.978 Q 798.597 337.958 793.697 344.918 Q 791.467 348.098 790.147 353.278 Q 788.827 358.448 787.777 360.128 Q 785.557 363.668 782.077 365.048 Q 777.417 366.878 774.247 369.498 C 773.555 370.059 773.188 370.924 773.267 371.808 Q 773.647 376.578 772.257 374.948 Q 771.947 374.588 771.497 374.328 Q 770.087 373.518 770.137 371.608 Q 770.257 366.478 774.597 364.348 Q 780.977 361.228 782.077 360.298 Q 786.827 356.268 786.697 349.668 Q 786.637 346.438 788.227 343.838 Q 788.807 342.888 792.187 340.058 Q 797.547 335.588 799.197 327.288 Q 799.437 326.118 798.427 326.758 Q 791.447 331.168 784.687 334.818 Q 779.017 337.888 776.177 340.238 Q 772.277 343.478 768.927 347.358 L 769.597 340.608 Q 773.267 336.858 777.937 334.448 Q 782.847 331.918 787.247 329.248 Q 789.477 327.888 788.077 325.678 Q 785.447 321.538 780.387 321.858 Q 779.137 321.938 778.547 321.528 Q 778.067 321.208 778.677 321.028 Q 786.867 318.588 795.137 321.068 Z " fill="rgb(175,61,24)"/><path d=" M 784.887 461.318 Q 780.707 463.848 775.887 463.068 Q 779.687 459.718 780.827 458.548 Q 787.007 452.168 784.327 443.668 Q 783.587 441.348 783.637 439.128 Q 783.677 437.048 784.777 434.768 Q 788.347 427.348 796.327 424.288 Q 799.137 423.208 799.807 420.288 Q 800.727 416.298 802.947 411.418 Q 804.067 408.968 804.387 405.338 Q 804.827 400.498 805.547 395.688 Q 805.977 392.788 807.927 390.688 Q 809.407 389.098 811.307 390.158 Q 814.507 391.958 814.837 395.088 Q 814.927 395.898 814.417 400.638 Q 813.547 408.828 810.077 414.048 Q 806.987 418.688 803.827 423.298 Q 802.497 425.238 799.157 426.558 Q 797.137 427.358 795.157 428.258 Q 792.777 429.338 791.547 430.568 Q 787.467 434.658 788.387 441.608 Q 789.017 446.398 787.747 453.108 Q 787.717 453.238 787.437 456.638 Q 787.207 459.448 784.887 461.318 Z " fill="rgb(175,61,24)"/><path d=" M 710.347 465.358 Q 711.287 465.988 712.327 465.838 Q 713.927 465.608 713.987 465.608 Q 721.627 465.638 729.137 467.068 Q 727.147 466.708 726.967 468.298 C 726.902 468.602 727.071 468.908 727.387 469.058 L 729.887 470.568 Q 727.407 471.458 725.577 470.918 Q 722.047 469.878 719.137 470.898 Q 712.037 470.788 705.887 467.398 L 709.387 467.838 C 709.683 467.861 709.949 467.661 709.997 467.378 L 710.347 465.358 Z " fill="rgb(214,96,40)"/><path d=" M 767.137 467.148 Q 766.667 468.098 765.787 468.588 C 765.44 468.719 765.251 469.01 765.327 469.298 Q 765.447 470.448 766.637 470.898 Q 759.087 476.468 756.387 477.108 Q 745.737 479.648 735.387 476.068 Q 735.007 474.658 736.697 474.798 Q 747.077 475.658 753.137 474.358 Q 756.587 473.618 760.887 469.648 L 767.137 467.148 Z " fill="rgb(223,95,69)"/><path d=" M 669.387 401.318 Q 669.787 401.358 670.097 401.608 Q 668.377 403.988 667.217 406.678 Q 665.537 410.588 669.887 411.148 L 667.137 415.898 L 665.137 414.648 Q 665.477 414.598 665.647 414.388 C 665.95 414.287 666.128 414.112 666.12 413.923 C 666.112 413.735 665.918 413.559 665.607 413.458 Q 663.837 409.518 665.957 405.678 Q 667.327 403.218 669.387 401.318 Z " fill="rgb(254,155,36)"/><path d=" M 708.887 445.148 Q 708.817 446.308 707.677 446.608 Q 707.697 445.988 707.317 445.628 Q 706.937 445.268 706.867 445.858 Q 706.727 447.118 705.667 447.758 Q 705.127 448.088 703.787 448.718 Q 701.597 449.748 699.887 447.608 Q 698.977 446.468 695.887 447.108 Q 692.817 447.738 690.077 446.348 C 689.796 446.223 689.474 446.174 689.157 446.208 Q 687.877 446.488 685.077 447.298 Q 683.347 447.788 683.887 449.318 Q 683.267 449.408 682.847 449.858 L 679.097 443.358 Q 679.587 442.098 680.927 442.168 Q 682.427 442.248 682.847 442.158 Q 688.127 441.018 693.167 439.048 C 693.465 438.953 693.794 438.96 694.087 439.068 L 708.887 445.148 Z " fill="rgb(245,135,47)"/><path d=" M 845.597 328.608 L 839.557 330.398 Q 839.207 330.508 838.777 330.938 L 837.637 332.068 Q 840.367 328.098 840.577 327.048 Q 840.907 325.348 839.177 325.358 Q 841.787 320.478 837.827 317.918 Q 833.387 315.058 826.847 316.118 Q 821.757 316.938 816.677 317.858 L 814.827 314.068 C 814.773 313.955 814.676 313.868 814.558 313.826 C 814.44 313.785 814.31 313.793 814.197 313.848 Q 812.647 314.618 810.887 314.568 Q 824.837 308.218 840.117 307.658 Q 842.247 307.578 843.867 308.668 Q 847.797 311.288 850.437 315.308 Q 851.767 317.328 851.247 319.388 Q 851.027 320.218 849.587 322.928 Q 847.937 325.998 845.597 328.608 Z " fill="rgb(253,152,97)"/><path d=" M 662.347 370.608 Q 663.117 374.088 662.097 377.608 Q 661.777 378.728 660.327 379.798 Q 653.037 385.148 645.817 393.118 Q 645.757 393.188 642.727 396.368 Q 640.127 399.098 638.177 402.358 Q 637.667 401.588 636.677 401.858 Q 636.477 400.738 635.637 401.358 Q 628.117 406.948 623.107 414.868 Q 618.967 421.398 619.637 430.108 Q 620.057 435.598 623.387 438.818 Q 622.887 439.108 622.597 439.608 Q 619.907 437.278 618.517 434.188 Q 617.767 432.518 617.887 434.348 Q 618.117 437.738 620.457 440.028 Q 622.017 441.558 623.187 443.378 C 623.359 443.624 623.63 443.806 623.947 443.888 Q 625.327 444.208 626.357 445.188 C 626.574 445.394 626.866 445.551 627.197 445.638 Q 631.297 446.378 634.827 445.548 Q 636.477 445.158 637.637 445.568 L 645.097 446.358 Q 643.687 447.728 641.637 447.388 Q 640.697 447.228 639.997 447.768 Q 639.547 448.118 639.137 448.188 Q 634.517 448.928 639.387 450.148 Q 638.547 450.308 633.887 450.108 Q 625.047 449.728 618.887 445.188 Q 614.387 441.868 612.897 436.588 Q 610.927 429.578 614.027 422.278 Q 616.297 416.908 619.817 412.258 Q 637.937 388.238 662.347 370.608 Z " fill="rgb(253,152,97)"/><path d=" M 820.887 345.898 Q 820.477 346.208 820.307 346.688 Q 820.107 347.248 819.827 347.498 Q 811.757 354.558 808.697 356.668 Q 789.747 369.728 770.137 381.768 Q 765.787 384.438 760.807 386.948 Q 756.037 389.358 751.267 391.778 Q 751.157 391.828 747.137 394.158 Q 744.917 395.448 742.427 396.218 Q 738.857 397.328 736.827 398.798 Q 734.427 400.528 732.157 401.188 Q 730.337 401.718 730.267 401.748 Q 725.427 403.428 720.677 405.358 Q 720.657 400.778 721.927 396.358 Q 724.547 395.248 726.387 395.358 Q 728.977 395.518 730.937 394.688 Q 731.717 394.358 734.877 392.698 Q 736.867 391.658 738.387 389.898 Q 742.147 389.228 745.887 386.858 Q 746.757 386.308 746.137 385.568 Q 745.797 383.688 746.637 382.068 L 749.617 383.358 C 749.906 383.465 750.233 383.419 750.477 383.238 Q 756.097 378.888 760.607 373.418 Q 763.687 369.698 763.817 369.468 Q 765.167 366.928 763.267 363.828 Q 761.917 361.628 763.787 359.828 Q 768.797 355.008 767.887 348.318 L 768.927 347.358 Q 772.277 343.478 776.177 340.238 Q 779.017 337.888 784.687 334.818 Q 791.447 331.168 798.427 326.758 Q 799.437 326.118 799.197 327.288 Q 797.547 335.588 792.187 340.058 Q 788.807 342.888 788.227 343.838 Q 786.637 346.438 786.697 349.668 Q 786.827 356.268 782.077 360.298 Q 780.977 361.228 774.597 364.348 Q 770.257 366.478 770.137 371.608 Q 770.087 373.518 771.497 374.328 Q 771.947 374.588 772.257 374.948 Q 773.647 376.578 773.267 371.808 C 773.188 370.924 773.555 370.059 774.247 369.498 Q 777.417 366.878 782.077 365.048 Q 785.557 363.668 787.777 360.128 Q 788.827 358.448 790.147 353.278 Q 791.467 348.098 793.697 344.918 Q 798.597 337.958 802.897 331.978 Q 804.707 329.478 801.967 328.058 Q 799.477 326.758 798.307 324.248 Q 797.897 323.358 799.137 323.568 Q 806.367 322.958 808.687 329.168 Q 809.717 331.938 809.747 331.988 Q 813.177 339.428 818.957 345.298 Q 819.377 345.728 819.827 345.828 Q 820.337 345.948 820.887 345.898 Z " fill="rgb(212,104,56)"/><path d=" M 723.637 307.318 Q 725.837 309.028 723.577 310.298 Q 715.727 314.698 709.887 320.318 L 707.927 321.858 L 706.347 317.608 Q 712.307 314.088 713.327 313.298 Q 718.077 309.598 723.637 307.318 Z " fill="rgb(254,202,74)"/><path d=" M 829.677 405.358 Q 830.377 410.518 827.107 414.548 Q 825.257 416.828 823.037 419.378 C 822.54 419.943 822.339 420.711 822.497 421.448 Q 823.317 425.328 823.527 428.618 Q 824.327 440.978 812.637 444.108 Q 810.267 444.748 807.697 446.918 Q 805.847 448.488 802.907 452.698 Q 799.957 456.918 798.337 458.578 Q 790.877 466.208 780.437 469.098 Q 778.817 469.538 776.307 469.188 Q 771.247 468.468 766.637 470.898 Q 765.447 470.448 765.327 469.298 C 765.251 469.01 765.44 468.719 765.787 468.588 Q 766.667 468.098 767.137 467.148 L 775.887 463.068 Q 780.707 463.848 784.887 461.318 Q 786.897 462.498 788.627 461.368 Q 790.917 459.878 791.007 459.828 Q 796.347 457.158 798.317 451.528 Q 798.687 450.458 798.577 448.008 Q 798.487 446.178 799.097 444.358 Q 800.137 442.498 800.177 440.358 L 805.097 439.108 Q 806.347 440.568 807.887 440.358 Q 814.307 439.498 818.087 433.758 Q 821.777 428.138 817.387 423.398 Q 818.857 421.598 819.777 419.498 Q 820.987 416.718 821.517 416.038 Q 822.707 414.488 824.387 413.358 Q 827.227 411.438 827.327 410.298 Q 827.517 408.048 829.217 406.868 C 829.49 406.686 829.643 406.398 829.627 406.098 L 829.677 405.358 Z " fill="rgb(221,90,88)"/><path d=" M 753.887 394.318 L 754.387 395.568 Q 743.707 400.558 733.077 405.678 Q 723.597 410.248 714.787 413.748 Q 701.567 418.988 688.317 424.148 Q 684.797 425.518 679.637 426.818 Q 675.207 427.928 670.887 429.398 Q 669.517 428.838 668.217 429.248 Q 666.597 429.758 666.497 429.778 Q 663.937 430.258 661.387 430.818 Q 656.717 431.768 652.037 432.698 Q 645.677 433.958 642.657 433.768 Q 637.457 433.448 633.447 430.798 Q 630.457 428.818 630.677 424.358 Q 636.727 432.808 646.887 431.858 Q 658.177 430.808 672.087 426.578 Q 699.137 418.368 715.077 411.048 Q 730.097 404.138 739.037 400.698 Q 743.897 398.828 746.527 397.648 Q 750.217 395.998 753.887 394.318 Z " fill="rgb(231,110,56)"/><path d=" M 758.427 312.608 Q 760.997 314.378 764.177 314.358 L 763.707 317.038 Q 763.287 319.428 764.457 320.558 Q 766.317 322.338 765.097 324.608 L 757.177 321.608 Q 754.307 320.348 751.497 318.958 Q 748.497 317.458 744.267 317.648 C 743.886 317.667 743.532 317.85 743.297 318.148 Q 740.977 321.048 738.387 321.568 Q 738.687 319.338 740.137 317.648 Q 748.617 314.928 757.377 313.288 Q 758.047 313.168 758.427 312.608 Z " fill="rgb(230,113,47)"/><path d=" M 707.677 446.608 Q 703.497 450.928 697.567 449.188 Q 694.787 448.368 693.347 450.858 L 691.517 449.188 C 691.277 448.975 690.961 448.864 690.637 448.878 L 683.887 449.318 Q 683.347 447.788 685.077 447.298 Q 687.877 446.488 689.157 446.208 C 689.474 446.174 689.796 446.223 690.077 446.348 Q 692.817 447.738 695.887 447.108 Q 698.977 446.468 699.887 447.608 Q 701.597 449.748 703.787 448.718 Q 705.127 448.088 705.667 447.758 Q 706.727 447.118 706.867 445.858 Q 706.937 445.268 707.317 445.628 Q 707.697 445.988 707.677 446.608 Z " fill="rgb(230,113,47)"/><path d=" M 747.097 413.358 Q 747.017 413.938 746.947 414.518 Q 746.887 415.068 747.067 415.668 Q 747.967 418.648 747.527 421.788 Q 747.267 423.638 745.427 423.858 Q 743.717 421.268 743.197 423.918 Q 741.947 430.258 740.637 444.398 Q 743.637 444.668 746.637 444.908 Q 748.837 445.078 750.057 446.518 Q 750.977 447.598 751.277 449.798 Q 751.797 453.568 750.667 457.118 Q 749.877 459.608 747.427 461.728 Q 745.237 463.618 742.887 465.318 Q 741.867 465.588 740.877 465.958 Q 739.947 466.308 739.137 467.098 Q 736.607 469.528 735.577 470.048 Q 732.847 471.398 729.887 470.568 L 727.387 469.058 C 727.071 468.908 726.902 468.602 726.967 468.298 Q 727.147 466.708 729.137 467.068 Q 734.917 468.748 738.427 464.358 Q 742.347 463.198 744.947 460.418 Q 749.867 455.168 746.327 448.858 C 746.174 448.585 745.91 448.386 745.597 448.308 Q 741.997 447.488 738.307 448.048 C 738.026 448.087 737.74 448.013 737.515 447.841 C 737.289 447.67 737.142 447.417 737.107 447.138 Q 736.797 444.688 737.227 442.158 Q 737.767 438.998 737.777 438.898 Q 739.227 427.098 739.137 424.858 Q 738.967 420.458 735.387 423.068 L 734.137 423.568 Q 734.007 421.728 733.137 420.068 L 747.097 413.358 Z " fill="rgb(186,67,32)"/><path d=" M 800.177 440.358 Q 800.137 442.498 799.097 444.358 Q 797.687 443.008 797.437 441.078 Q 797.397 440.738 797.087 439.198 Q 796.777 437.688 798.157 437.038 C 798.436 436.913 798.766 436.991 798.957 437.228 Q 800.017 438.558 800.177 440.358 Z " fill="rgb(186,67,32)"/><path d=" M 712.847 447.108 Q 712.697 448.078 713.387 448.308 Q 713.777 448.428 713.867 448.478 Q 715.157 449.108 716.597 449.108 Q 715.067 452.068 718.137 453.898 Q 718.207 454.298 718.457 454.598 C 718.736 454.794 718.795 455.12 718.597 455.368 Q 717.277 457.828 714.637 458.818 Q 712.597 458.658 707.887 459.608 Q 703.657 460.458 703.637 457.228 Q 703.627 454.678 705.967 452.758 L 712.847 447.108 Z " fill="rgb(230,139,55)"/><path d=" M 738.427 464.358 Q 734.917 468.748 729.137 467.068 Q 721.627 465.638 713.987 465.608 Q 713.927 465.608 712.327 465.838 Q 711.287 465.988 710.347 465.358 Q 711.087 462.458 714.387 462.608 Q 718.657 462.808 720.397 462.958 Q 726.217 463.468 731.637 461.318 Q 732.777 461.138 733.877 460.828 Q 738.517 459.508 738.427 464.358 Z " fill="rgb(230,139,55)"/><path d=" M 845.597 328.608 Q 836.807 338.858 826.137 347.148 Q 824.927 347.278 824.887 346.148 L 830.677 340.438 Q 831.017 340.098 831.317 339.638 Q 834.047 335.348 837.637 332.068 L 838.777 330.938 Q 839.207 330.508 839.557 330.398 L 845.597 328.608 Z " fill="rgb(244,120,76)"/><path d=" M 636.677 401.858 Q 637.667 401.588 638.177 402.358 L 633.347 412.358 L 629.677 423.108 Q 625.337 431.078 632.337 436.678 Q 634.377 438.308 631.847 437.648 Q 623.467 435.468 624.557 428.028 Q 624.937 425.418 627.967 418.168 Q 631.537 409.618 636.677 401.858 Z " fill="rgb(244,120,76)"/><path d=" M 745.427 423.858 L 746.747 431.048 C 746.839 431.366 746.77 431.702 746.557 431.978 Q 743.617 436.788 741.797 442.128 Q 741.677 442.478 741.737 443.098 Q 741.837 444.178 740.637 444.398 Q 741.947 430.258 743.197 423.918 Q 743.717 421.268 745.427 423.858 Z " fill="rgb(225,128,64)"/><path d=" M 742.887 465.318 L 748.237 466.448 C 748.625 466.532 748.941 466.799 749.077 467.157 C 749.212 467.515 749.148 467.914 748.907 468.218 Q 746.967 471.148 748.257 471.588 Q 748.787 471.758 750.487 471.288 Q 755.597 469.888 760.887 469.648 Q 756.587 473.618 753.137 474.358 Q 747.077 475.658 736.697 474.798 Q 735.007 474.658 735.387 476.068 Q 732.407 475.398 728.577 473.918 Q 723.857 472.098 718.387 472.318 Q 719.927 472.248 719.137 470.898 Q 722.047 469.878 725.577 470.918 Q 727.407 471.458 729.887 470.568 Q 732.847 471.398 735.577 470.048 Q 736.607 469.528 739.137 467.098 Q 739.947 466.308 740.877 465.958 Q 741.867 465.588 742.887 465.318 Z " fill="rgb(225,128,64)"/><path d=" M 676.387 400.068 Q 678.217 402.528 677.457 405.098 Q 677.137 406.188 675.737 407.688 Q 674.667 408.848 673.637 410.068 L 669.887 411.148 Q 665.537 410.588 667.217 406.678 Q 668.377 403.988 670.097 401.608 Q 672.757 399.428 676.387 400.068 Z " fill="rgb(253,194,38)"/><path d=" M 729.387 314.068 Q 733.467 314.748 736.427 317.608 L 734.097 322.108 Q 731.927 321.968 730.287 323.008 Q 729.117 323.768 728.277 325.808 Q 727.597 327.458 726.927 329.108 Q 726.947 328.018 725.577 327.418 Q 723.877 326.678 723.677 328.108 Q 722.967 323.488 719.097 320.858 Q 719.497 318.958 721.047 317.758 Q 724.747 314.878 729.387 314.068 Z " fill="rgb(254,176,40)"/><path d=" M 715.887 331.398 Q 714.827 332.778 715.137 334.568 Q 713.477 334.818 711.807 334.978 Q 709.627 335.178 708.587 335.748 Q 705.487 337.438 705.137 341.608 Q 704.987 343.338 705.887 344.318 Q 700.487 347.098 705.137 351.568 Q 703.037 351.498 701.087 352.318 Q 700.227 352.678 700.097 351.858 L 700.847 348.858 Q 700.947 346.968 700.387 342.858 Q 699.487 336.188 704.627 332.078 Q 707.127 330.078 709.787 328.108 C 710.025 327.931 710.329 327.868 710.618 327.935 C 710.907 328.003 711.152 328.194 711.287 328.458 Q 712.667 331.148 715.887 331.398 Z " fill="rgb(254,176,40)"/><path d=" M 706.347 317.608 L 707.927 321.858 Q 705.607 327.958 699.387 330.148 Q 696.617 330.968 695.077 333.048 Q 693.137 335.658 690.447 336.918 Q 687.827 338.148 687.157 341.548 C 687.123 341.862 686.968 342.157 686.717 342.388 Q 681.907 346.848 676.377 350.398 C 676.099 350.572 675.896 350.843 675.807 351.158 Q 673.087 360.058 666.467 369.868 C 666.008 370.418 665.818 371.095 665.937 371.758 L 668.327 398.358 C 668.323 398.63 668.544 398.875 668.877 398.968 Q 669.777 399.288 669.677 400.358 L 669.387 401.318 Q 667.327 403.218 665.957 405.678 Q 663.837 409.518 665.607 413.458 C 665.918 413.559 666.112 413.735 666.12 413.923 C 666.128 414.112 665.95 414.287 665.647 414.388 Q 665.477 414.598 665.137 414.648 Q 660.517 412.408 659.887 407.608 Q 659.017 400.918 661.327 393.798 Q 661.827 392.238 662.097 388.608 Q 662.707 385.488 662.097 382.358 Q 662.587 379.958 662.097 377.608 Q 663.117 374.088 662.347 370.608 Q 663.427 366.958 664.807 363.438 Q 665.457 361.778 667.747 358.268 Q 670.247 354.428 670.827 350.048 Q 671.277 346.598 674.217 345.478 Q 677.527 344.208 680.657 342.588 Q 682.717 341.518 683.687 339.648 Q 685.087 336.938 685.887 333.608 Q 686.677 330.298 688.727 327.588 Q 690.347 325.458 693.857 323.638 Q 700.007 320.438 706.347 317.608 Z " fill="rgb(254,223,47)"/><path d=" M 700.797 365.518 Q 702.487 363.708 704.827 363.048 C 704.951 363.011 705.085 363.032 705.193 363.103 C 705.301 363.174 705.372 363.289 705.387 363.418 Q 705.907 368.098 704.537 372.628 Q 704.047 374.248 702.257 373.558 C 701.546 373.331 700.76 373.463 700.177 373.908 L 696.787 376.558 Q 696.377 376.888 696.507 376.378 Q 697.187 373.678 697.837 370.988 Q 698.597 367.858 700.797 365.518 Z " fill="rgb(216,78,26)"/><path d=" M 668.317 370.688 Q 670.947 366.748 671.697 369.418 Q 671.957 370.358 671.767 371.318 Q 671.197 374.208 668.907 373.008 C 668.5 372.798 668.203 372.424 668.09 371.98 C 667.978 371.537 668.06 371.066 668.317 370.688 L 668.317 370.688 Z " fill="rgb(216,78,26)"/><path d=" M 808.417 348.808 Q 810.227 345.448 813.077 345.618 C 813.391 345.644 813.665 345.837 813.787 346.118 Q 815.007 349.008 812.817 351.088 Q 812.447 351.448 812.277 351.888 Q 810.487 356.618 808.277 350.828 C 808.028 350.166 808.079 349.429 808.417 348.808 L 808.417 348.808 Z " fill="rgb(171,56,24)"/><path d=" M 764.147 416.688 Q 767.977 414.538 771.187 419.058 Q 772.477 420.868 773.167 422.548 Q 774.137 424.888 771.957 426.168 Q 768.037 428.468 765.457 432.168 Q 764.467 433.578 765.287 435.098 L 768.037 440.178 C 768.358 440.757 768.224 441.48 767.717 441.908 Q 765.677 443.628 763.667 442.898 Q 762.407 442.428 760.857 440.478 Q 758.877 437.968 757.477 435.098 Q 756.627 433.358 757.937 431.928 Q 759.927 429.768 760.967 427.068 C 761.121 426.77 761.139 426.437 761.017 426.128 Q 760.397 423.338 761.097 420.738 Q 761.847 417.988 764.147 416.688 Z " fill="rgb(171,56,24)"/><path d=" M 767.427 319.798 Q 768.347 318.248 770.157 318.348 Q 777.917 318.778 772.447 323.658 Q 770.777 325.148 769.037 323.748 Q 766.357 321.588 767.427 319.798 Z " fill="rgb(242,150,59)"/><path d=" M 822.937 405.058 Q 822.727 403.908 822.077 404.948 L 819.827 408.528 Q 818.767 410.228 818.137 408.118 Q 815.547 399.348 822.257 394.048 C 822.614 393.762 823.086 393.666 823.526 393.789 C 823.966 393.912 824.32 394.239 824.477 394.668 Q 826.457 400.058 825.657 405.298 C 825.632 405.614 825.462 405.907 825.187 406.108 Q 823.377 407.428 822.937 405.058 Z " fill="rgb(176,60,19)"/><path d=" M 795.461 400.078 C 796.182 400.653 795.64 402.531 794.252 404.269 C 792.865 406.008 791.153 406.952 790.433 406.377 C 789.712 405.802 790.254 403.924 791.642 402.186 C 793.03 400.447 794.741 399.503 795.461 400.078 Z " fill="rgb(175,61,24)"/><path d=" M 779.067 424.068 Q 778.467 424.548 778.387 423.848 Q 777.757 418.688 776.867 413.558 Q 776.267 410.138 778.877 408.108 Q 781.157 406.338 783.197 405.118 Q 784.287 404.468 784.167 405.738 Q 783.547 412.518 784.547 418.348 C 784.794 419.127 784.426 419.951 783.617 420.428 L 779.067 424.068 Z " fill="rgb(175,61,24)"/><path d=" M 769.697 452.298 Q 773.337 454.488 769.137 453.858 Q 766.867 453.518 764.777 452.618 C 764.475 452.49 764.239 452.261 764.117 451.978 Q 763.187 449.748 765.827 450.558 Q 767.867 451.188 769.697 452.298 Z " fill="rgb(175,61,24)"/><path d=" M 769.687 377.958 C 769.925 378.089 770.098 378.313 770.164 378.577 C 770.231 378.84 770.184 379.119 770.037 379.348 Q 766.857 384.308 761.267 383.618 Q 759.007 383.338 760.457 381.578 Q 762.577 378.998 765.267 377.548 Q 767.127 376.538 769.687 377.958 Z " fill="rgb(186,67,32)"/><path d=" M 687.847 383.448 Q 688.507 382.678 689.667 382.118 L 697.207 378.418 C 697.589 378.24 698.036 378.252 698.408 378.449 C 698.779 378.645 699.028 379.003 699.077 379.408 Q 699.267 381.518 697.847 383.058 Q 693.847 387.418 688.487 390.758 C 688.159 390.957 687.759 391.002 687.394 390.88 C 687.029 390.759 686.737 390.483 686.597 390.128 Q 685.177 386.528 687.847 383.448 Z " fill="rgb(254,198,59)"/></g></g></svg>