<?xml version="1.0" encoding="UTF-8" standalone="no"?><!-- Generator: Gravit.io --><svg xmlns="http://www.w3.org/2000/svg" xmlns:xlink="http://www.w3.org/1999/xlink" style="isolation:isolate" viewBox="582.959 317.391 320.083 141.219" width="320.083pt" height="141.219pt"><defs><clipPath id="_clipPath_SBR4byIBU3541zyzENEbWE0JkSJsOX3t"><rect x="582.959" y="317.391" width="320.083" height="141.219"/></clipPath></defs><g clip-path="url(#_clipPath_SBR4byIBU3541zyzENEbWE0JkSJsOX3t)"><g><path d=" M 781.499 325.868 Q 780.589 326.438 780.499 326.908 Q 779.069 334.148 782.219 340.768 C 782.365 341.062 782.4 341.392 782.319 341.708 Q 781.509 345.748 785.049 347.678 C 785.336 347.803 785.666 347.849 785.989 347.808 L 798.279 345.488 C 798.493 345.453 798.712 345.519 798.871 345.666 C 799.03 345.813 799.11 346.024 799.089 346.238 Q 798.799 349.328 796.999 350.288 Q 796.669 350.468 793.089 351.078 Q 789.699 351.668 786.969 351.878 Q 784.469 352.078 784.859 354.548 Q 785.789 360.378 782.059 363.468 Q 780.159 365.058 777.899 367.788 Q 777.319 368.488 776.499 370.258 Q 775.689 371.998 774.439 372.348 Q 768.309 374.068 766.389 380.078 Q 765.089 384.168 764.999 388.448 Q 740.989 397.518 715.999 403.368 Q 720.829 400.698 726.099 399.088 Q 729.499 398.038 730.789 397.418 Q 733.109 396.318 735.099 394.868 Q 736.579 393.808 734.759 393.658 Q 731.019 393.358 727.419 394.248 Q 718.309 396.518 710.069 400.988 Q 706.609 402.858 702.399 403.728 C 702.101 403.762 701.802 403.674 701.581 403.485 C 701.359 403.296 701.238 403.026 701.249 402.748 L 700.999 395.908 Q 700.869 392.338 697.499 394.408 Q 696.649 394.928 696.209 394.158 Q 699.499 390.798 699.729 386.158 C 699.776 385.853 699.613 385.555 699.319 385.408 Q 698.279 384.888 697.039 385.158 Q 696.889 384.468 697.499 383.658 Q 700.729 379.358 705.479 378.268 Q 706.119 378.128 711.519 378.158 Q 714.739 378.178 717.999 377.158 Q 721.639 376.018 736.119 371.818 Q 743.119 369.788 749.399 366.908 Q 761.269 361.468 773.009 355.728 Q 776.019 354.258 778.249 353.548 Q 780.909 352.718 783.759 352.098 C 784.17 352.011 784.525 351.753 784.733 351.388 C 784.941 351.023 784.983 350.586 784.849 350.188 Q 783.809 347.158 780.989 346.718 C 780.636 346.649 780.335 346.507 780.139 346.318 Q 779.069 345.158 779.519 343.308 C 779.685 342.652 779.351 341.972 778.729 341.698 Q 775.949 340.468 772.509 340.978 Q 767.339 341.748 768.159 336.688 Q 768.739 333.078 765.309 333.468 Q 763.699 333.658 759.249 336.488 Q 756.259 338.388 753.249 339.438 Q 739.719 344.168 733.809 347.718 Q 726.119 352.348 717.749 348.808 Q 715.949 348.048 717.319 346.168 Q 718.239 344.898 719.589 344.108 Q 726.939 339.808 735.319 336.598 Q 738.859 335.238 742.619 332.868 C 742.889 332.701 743.052 332.407 743.048 332.092 C 743.043 331.777 742.873 331.487 742.599 331.328 Q 740.829 330.248 740.789 329.158 Q 743.739 327.438 748.749 326.158 Q 753.159 325.028 757.589 324.018 Q 761.509 323.128 765.499 323.358 Q 770.759 323.658 775.999 324.138 Q 778.949 324.408 781.499 325.868 Z " fill="rgb(122,88,94)"/><path d=" M 727.289 329.658 Q 724.249 332.038 722.069 335.228 Q 719.869 338.458 716.929 340.988 Q 714.059 343.458 713.409 344.198 Q 711.549 346.338 710.809 348.218 Q 709.489 351.588 707.669 353.058 Q 704.409 355.678 700.489 357.118 Q 699.609 357.438 699.499 356.698 Q 703.209 353.028 705.439 349.098 Q 708.799 343.158 711.439 339.348 Q 713.589 336.238 715.129 335.248 Q 719.089 332.718 725.809 329.718 Q 726.779 329.288 727.289 329.658 Z " fill="rgb(122,88,94)"/><path d=" M 690.289 382.658 L 688.939 389.358 Q 688.819 389.958 688.759 389.348 L 687.459 376.408 Q 688.549 370.318 692.749 365.868 L 697.309 366.618 Q 699.529 366.978 701.239 366.138 Q 705.359 364.078 709.449 362.388 Q 712.479 361.128 715.509 359.038 Q 719.649 356.178 722.559 355.218 Q 725.729 354.178 729.999 355.158 Q 732.679 355.768 734.999 353.948 Q 736.389 352.858 736.439 352.818 Q 743.389 348.088 752.439 345.848 Q 756.539 344.828 759.849 346.388 Q 764.689 348.678 768.499 349.158 Q 769.599 349.298 771.469 348.638 Q 771.919 348.478 771.549 348.798 Q 766.539 352.958 763.689 354.348 Q 756.719 357.738 749.829 361.298 Q 749.739 361.348 745.489 363.958 Q 741.819 366.228 737.999 365.908 Q 730.659 365.298 724.899 367.248 Q 720.129 368.858 719.329 369.018 Q 716.889 369.518 713.559 369.968 Q 710.809 370.348 707.339 372.028 Q 701.939 374.648 696.289 376.658 Q 693.969 377.478 691.949 378.838 Q 690.949 379.508 690.619 380.468 Q 690.259 381.508 690.289 382.658 Z " fill="rgb(122,88,94)"/><path d=" M 813.959 402.158 L 812.959 408.158 Q 807.219 412.418 804.309 418.778 Q 803.819 419.838 804.799 419.238 L 808.209 417.158 Q 809.379 418.408 810.999 418.948 Q 809.109 420.278 807.689 422.098 Q 806.769 422.428 807.249 423.198 Q 804.189 423.718 802.039 425.908 Q 801.749 424.808 801.189 425.318 Q 800.769 425.688 800.599 425.778 Q 794.639 429.018 789.749 429.908 Q 782.999 431.138 776.249 432.368 Q 776.589 431.838 777.119 431.568 Q 777.359 431.438 777.919 431.428 Q 778.709 431.408 778.499 430.848 C 778.391 430.589 778.101 430.404 777.759 430.378 Q 769.339 429.878 762.159 434.288 Q 754.069 439.268 751.939 439.848 Q 749.589 440.478 747.849 439.098 Q 745.969 437.608 744.019 437.908 L 735.119 439.258 Q 732.349 439.678 734.679 441.458 Q 737.189 443.388 740.269 443.458 Q 742.629 443.508 742.709 443.508 Q 747.149 443.818 753.249 443.408 Q 762.639 442.768 768.439 436.098 Q 770.629 433.568 775.749 432.618 Q 777.989 432.698 776.079 432.968 C 776.035 432.974 776 433.005 775.989 433.048 Q 774.339 441.088 771.149 444.308 Q 765.929 449.588 762.039 455.908 L 760.749 456.448 Q 750.399 456.888 740.749 453.198 L 731.779 450.518 C 731.448 450.396 731.182 450.191 731.029 449.938 Q 728.969 446.968 726.859 444.028 Q 722.649 438.138 715.499 436.698 Q 710.709 436.628 709.309 435.598 Q 702.949 430.878 696.749 425.948 L 700.999 424.868 Q 702.749 424.948 703.299 426.648 Q 704.619 430.788 708.999 430.158 Q 714.799 429.328 723.499 430.618 Q 725.989 431.328 728.489 431.998 Q 731.099 432.698 733.589 432.638 Q 742.109 432.418 747.249 430.408 Q 750.709 429.058 753.699 426.838 Q 754.939 425.918 753.439 425.588 Q 747.299 424.248 740.779 423.218 Q 731.019 421.678 721.999 425.618 Q 720.669 426.028 718.249 425.408 Q 713.439 424.178 708.709 422.658 L 748.749 410.448 Q 748.529 411.258 748.999 411.658 Q 750.779 413.168 753.109 414.468 Q 755.789 415.968 757.479 416.798 Q 764.009 420.018 771.569 418.898 C 772.022 418.838 772.466 419.052 772.689 419.438 L 777.259 427.858 C 777.722 428.727 778.713 429.225 779.729 429.098 Q 791.949 426.828 798.799 418.028 Q 799.109 417.628 801.299 413.968 Q 802.599 411.778 804.309 410.218 Q 806.159 408.528 813.959 402.158 Z " fill="rgb(122,88,94)"/><path d=" M 708.709 422.658 Q 713.439 424.178 718.249 425.408 Q 720.669 426.028 721.999 425.618 Q 723.969 425.758 723.309 427.718 Q 722.919 428.898 723.499 430.618 Q 714.799 429.328 708.999 430.158 Q 704.619 430.788 703.299 426.648 Q 702.749 424.948 700.999 424.868 Q 701.879 424.798 702.109 424.088 C 702.094 423.821 702.307 423.569 702.659 423.438 Q 705.599 422.498 708.709 422.658 Z " fill="rgb(240,176,73)"/><path d=" M 696.749 425.948 Q 702.949 430.878 709.309 435.598 Q 710.709 436.628 715.499 436.698 Q 715.669 437.628 715.209 438.438 Q 714.979 438.848 714.899 439.348 Q 714.689 440.668 713.249 440.698 Q 700.349 438.968 695.689 427.218 Q 695.289 426.218 694.499 426.118 Q 695.589 425.718 696.749 425.948 Z " fill="rgb(240,176,73)"/><path d=" M 785.499 325.368 Q 790.759 328.198 793.749 328.908 Q 795.889 329.418 799.499 328.448 Q 799.659 329.088 798.809 329.468 Q 795.759 330.878 797.749 332.658 L 804.639 338.818 C 805.129 339.038 805.298 339.364 805.069 339.648 Q 805.329 340.648 806.499 340.698 L 803.999 341.698 Q 795.499 329.848 781.499 325.868 Q 778.949 324.408 775.999 324.138 Q 770.759 323.658 765.499 323.358 Q 761.509 323.128 757.589 324.018 Q 753.159 325.028 748.749 326.158 Q 743.739 327.438 740.789 329.158 Q 740.999 326.468 738.749 325.368 Q 743.559 324.618 747.659 322.058 Q 754.779 317.618 763.249 318.408 Q 773.319 319.348 785.499 325.368 Z " fill="rgb(226,178,75)"/><path d=" M 730.249 325.948 Q 730.739 327.178 730.369 328.378 C 730.277 328.64 730.011 328.832 729.689 328.868 Q 728.419 328.988 727.289 329.658 Q 726.779 329.288 725.809 329.718 Q 719.089 332.718 715.129 335.248 Q 713.589 336.238 711.439 339.348 Q 708.799 343.158 705.439 349.098 Q 703.209 353.028 699.499 356.698 Q 698.559 355.658 697.539 356.408 Q 699.469 345.688 706.069 337.368 Q 709.309 333.268 711.369 331.378 Q 714.579 328.428 718.499 327.408 Q 722.489 326.368 730.249 325.948 Z " fill="rgb(226,178,75)"/><path d=" M 687.459 376.408 L 688.759 389.348 Q 688.819 389.958 688.939 389.358 L 690.289 382.658 Q 691.309 381.898 691.869 380.688 C 691.922 380.602 692.012 380.539 692.117 380.515 C 692.223 380.49 692.336 380.506 692.429 380.558 L 695.799 382.718 C 696.062 382.884 696.258 383.122 696.359 383.398 L 697.039 385.158 Q 698.279 384.888 699.319 385.408 C 699.613 385.555 699.776 385.853 699.729 386.158 Q 699.499 390.798 696.209 394.158 Q 692.289 396.858 692.669 400.818 Q 692.859 402.818 694.539 403.918 Q 696.059 404.918 696.049 406.408 C 695.414 406.448 694.955 406.681 695.024 406.926 C 695.093 407.172 695.664 407.338 696.299 407.298 L 696.749 407.618 Q 695.319 407.778 693.749 406.408 Q 692.279 405.138 690.959 406.908 Q 686.609 403.008 685.809 401.598 Q 683.679 397.798 685.129 392.938 Q 685.619 391.298 685.289 389.608 Q 684.669 386.448 684.829 382.158 Q 684.849 381.578 684.249 381.618 Q 684.669 379.948 686.199 379.468 C 686.64 379.381 686.925 379.149 686.899 378.898 L 687.459 376.408 Z " fill="rgb(226,178,75)"/><path d=" M 715.499 436.698 Q 722.649 438.138 726.859 444.028 Q 728.969 446.968 731.029 449.938 C 731.182 450.191 731.448 450.396 731.779 450.518 L 740.749 453.198 Q 740.009 453.668 740.209 454.658 Q 736.319 453.968 732.429 453.248 Q 728.999 452.618 726.709 450.088 Q 725.659 448.928 725.619 448.888 Q 720.269 443.558 713.249 440.698 Q 714.689 440.668 714.899 439.348 Q 714.979 438.848 715.209 438.438 Q 715.669 437.628 715.499 436.698 Z " fill="rgb(231,164,67)"/><path d=" M 806.499 340.698 L 806.709 340.658 Q 812.929 346.798 814.559 354.348 Q 815.599 359.118 815.249 366.448 Q 813.559 367.968 811.289 368.158 Q 811.049 356.408 809.809 351.848 Q 808.649 347.548 803.999 341.698 L 806.499 340.698 Z " fill="rgb(201,120,166)"/><path d=" M 819.249 383.118 Q 819.669 383.478 820.249 383.448 Q 825.439 396.298 815.519 405.758 C 814.958 406.29 814.749 407.092 814.979 407.828 Q 816.529 412.918 813.939 417.348 Q 813.259 418.498 810.999 418.948 Q 809.379 418.408 808.209 417.158 Q 812.719 413.748 812.959 408.158 L 813.959 402.158 Q 816.589 394.158 816.679 385.718 Q 816.689 385.438 816.569 385.248 Q 816.439 385.038 816.249 384.868 L 819.249 383.118 Z " fill="rgb(201,120,166)"/><path d=" M 760.789 457.408 L 760.749 456.448 L 762.039 455.908 Q 766.789 454.848 771.509 453.688 Q 777.919 452.118 783.499 448.618 Q 786.129 447.298 788.769 445.998 Q 793.619 443.608 795.779 438.788 Q 796.929 436.248 796.949 436.208 Q 798.039 433.988 798.999 431.698 L 802.039 425.908 Q 804.189 423.718 807.249 423.198 L 811.909 420.088 Q 812.729 419.538 812.749 420.488 Q 812.789 424.618 809.629 426.238 Q 805.239 428.478 802.489 432.418 Q 801.509 433.818 800.079 435.538 Q 798.679 437.228 798.059 438.968 Q 796.729 442.718 794.819 444.978 Q 788.139 452.898 776.999 454.408 Q 773.779 454.848 760.789 457.408 Z " fill="rgb(201,120,166)"/><path d=" M 902.709 331.658 Q 900.299 337.398 895.729 341.638 Q 890.249 346.728 883.999 350.868 Q 874.179 357.308 863.709 362.638 Q 843.629 372.858 822.989 381.898 Q 821.539 382.528 820.249 383.448 Q 819.669 383.478 819.249 383.118 Q 821.049 380.778 825.439 378.848 Q 849.959 368.008 877.499 350.368 L 878.539 350.068 C 878.837 349.985 879.154 350.006 879.439 350.128 Q 880.859 350.738 882.209 349.878 Q 889.219 345.408 894.749 339.198 Q 897.709 336.118 899.249 332.118 Q 900.859 331.408 902.709 331.658 Z " fill="rgb(247,161,135)"/><path d=" M 798.999 431.698 Q 798.039 433.988 796.949 436.208 Q 796.929 436.248 795.779 438.788 Q 793.619 443.608 788.769 445.998 Q 786.129 447.298 783.499 448.618 Q 785.049 446.198 787.689 443.848 Q 788.669 442.968 789.279 441.658 Q 790.209 439.678 790.479 439.278 Q 791.929 437.208 793.499 436.158 Q 796.459 434.188 797.749 432.408 Q 798.349 431.588 798.999 431.698 Z " fill="rgb(96,78,100)"/><path d=" M 860.249 318.118 Q 863.559 318.068 868.999 318.408 Q 871.809 318.588 873.789 320.158 Q 871.959 320.568 870.089 320.888 Q 869.499 320.988 869.089 321.218 Q 867.419 322.198 869.649 322.578 Q 870.119 322.658 870.859 322.638 Q 879.189 322.428 885.919 327.248 Q 892.629 332.048 888.289 339.158 Q 884.149 345.948 877.499 350.368 Q 849.959 368.008 825.439 378.848 Q 821.049 380.778 819.249 383.118 L 816.249 384.868 Q 782.889 398.688 748.749 410.448 L 708.709 422.658 Q 705.599 422.498 702.659 423.438 C 702.307 423.569 702.094 423.821 702.109 424.088 Q 701.879 424.798 700.999 424.868 L 696.749 425.948 Q 695.589 425.718 694.499 426.118 Q 691.489 426.458 690.749 426.658 Q 670.629 432.038 644.999 436.408 Q 631.619 438.688 619.969 439.508 Q 608.109 440.348 604.029 440.178 Q 595.549 439.818 588.309 436.598 Q 583.449 434.438 582.959 428.408 Q 583.969 422.958 587.759 418.918 Q 595.589 410.578 605.189 404.348 Q 621.169 393.998 638.319 385.738 Q 664.589 373.078 691.999 363.118 Q 692.709 364.388 692.749 365.868 Q 688.549 370.318 687.459 376.408 L 686.899 378.898 C 686.925 379.149 686.64 379.381 686.199 379.468 Q 684.669 379.948 684.249 381.618 L 667.999 389.698 Q 665.159 388.388 663.259 390.468 C 663.042 390.695 662.745 390.832 662.429 390.848 Q 659.579 390.928 656.439 392.598 Q 649.099 396.478 645.419 398.778 Q 639.559 402.448 640.839 408.828 Q 641.329 411.308 641.619 411.988 Q 642.349 413.768 644.449 414.088 Q 646.419 414.388 646.519 414.418 Q 650.379 415.278 654.319 414.788 C 654.637 414.715 654.89 414.511 654.989 414.248 Q 655.839 412.488 658.249 413.118 Q 675.249 413.008 692.089 408.828 C 692.213 408.793 692.309 408.697 692.34 408.575 C 692.371 408.453 692.332 408.324 692.239 408.238 L 690.959 406.908 Q 692.279 405.138 693.749 406.408 Q 695.319 407.778 696.749 407.618 Q 704.299 406.698 713.559 404.468 Q 715.129 404.098 715.999 403.368 Q 740.989 397.518 764.999 388.448 Q 786.529 380.828 809.809 369.218 Q 810.969 368.638 811.289 368.158 Q 813.559 367.968 815.249 366.448 Q 821.649 362.988 827.929 359.328 Q 835.329 355.008 840.999 348.618 Q 841.669 349.738 842.839 350.188 C 843.13 350.274 843.45 350.205 843.669 350.008 Q 846.249 347.478 846.689 346.348 Q 848.469 341.718 844.309 339.348 Q 836.239 334.748 826.019 335.828 Q 816.609 336.818 807.239 338.088 C 806.927 338.128 806.685 338.358 806.649 338.648 Q 806.539 339.578 806.999 340.368 Q 806.769 340.428 806.709 340.658 L 806.499 340.698 Q 805.329 340.648 805.069 339.648 C 805.298 339.364 805.129 339.038 804.639 338.818 L 797.749 332.658 Q 795.759 330.878 798.809 329.468 Q 799.659 329.088 799.499 328.448 Q 829.489 320.998 860.249 318.118 Z " fill="rgb(254,211,68)"/><path d=" M 781.499 325.868 Q 795.499 329.848 803.999 341.698 Q 808.649 347.548 809.809 351.848 Q 811.049 356.408 811.289 368.158 Q 810.969 368.638 809.809 369.218 Q 786.529 380.828 764.999 388.448 Q 765.089 384.168 766.389 380.078 Q 768.309 374.068 774.439 372.348 Q 775.689 371.998 776.499 370.258 Q 777.319 368.488 777.899 367.788 Q 780.159 365.058 782.059 363.468 Q 785.789 360.378 784.859 354.548 Q 784.469 352.078 786.969 351.878 Q 789.699 351.668 793.089 351.078 Q 796.669 350.468 796.999 350.288 Q 798.799 349.328 799.089 346.238 C 799.11 346.024 799.03 345.813 798.871 345.666 C 798.712 345.519 798.493 345.453 798.279 345.488 L 785.989 347.808 C 785.666 347.849 785.336 347.803 785.049 347.678 Q 781.509 345.748 782.319 341.708 C 782.4 341.392 782.365 341.062 782.219 340.768 Q 779.069 334.148 780.499 326.908 Q 780.589 326.438 781.499 325.868 Z " fill="rgb(64,52,83)"/><path d=" M 816.249 384.868 Q 816.439 385.038 816.569 385.248 Q 816.689 385.438 816.679 385.718 Q 816.589 394.158 813.959 402.158 Q 806.159 408.528 804.309 410.218 Q 802.599 411.778 801.299 413.968 Q 799.109 417.628 798.799 418.028 Q 791.949 426.828 779.729 429.098 C 778.713 429.225 777.722 428.727 777.259 427.858 L 772.689 419.438 C 772.466 419.052 772.022 418.838 771.569 418.898 Q 764.009 420.018 757.479 416.798 Q 755.789 415.968 753.109 414.468 Q 750.779 413.168 748.999 411.658 Q 748.529 411.258 748.749 410.448 Q 782.889 398.688 816.249 384.868 Z " fill="rgb(64,52,83)"/><path d=" M 812.959 408.158 Q 812.719 413.748 808.209 417.158 L 804.799 419.238 Q 803.819 419.838 804.309 418.778 Q 807.219 412.418 812.959 408.158 Z " fill="rgb(64,52,83)"/><path d=" M 802.039 425.908 L 798.999 431.698 Q 798.349 431.588 797.749 432.408 Q 796.459 434.188 793.499 436.158 Q 791.929 437.208 790.479 439.278 Q 790.209 439.678 789.279 441.658 Q 788.669 442.968 787.689 443.848 Q 785.049 446.198 783.499 448.618 Q 777.919 452.118 771.509 453.688 Q 766.789 454.848 762.039 455.908 Q 765.929 449.588 771.149 444.308 Q 774.339 441.088 775.989 433.048 C 776 433.005 776.035 432.974 776.079 432.968 Q 777.989 432.698 775.749 432.618 Q 775.899 432.318 776.249 432.368 Q 782.999 431.138 789.749 429.908 Q 794.639 429.018 800.599 425.778 Q 800.769 425.688 801.189 425.318 Q 801.749 424.808 802.039 425.908 Z " fill="rgb(64,52,83)"/><path d=" M 740.749 453.198 Q 750.399 456.888 760.749 456.448 L 760.789 457.408 Q 754.059 459.528 749.499 457.908 Q 744.859 456.258 740.209 454.658 Q 740.009 453.668 740.749 453.198 Z " fill="rgb(247,181,106)"/><path d=" M 902.709 331.658 Q 900.859 331.408 899.249 332.118 Q 900.519 325.278 894.439 322.718 Q 884.749 318.648 873.789 320.158 Q 871.809 318.588 868.999 318.408 Q 863.559 318.068 860.249 318.118 Q 869.359 317.188 878.509 317.448 Q 886.969 317.698 894.929 320.488 Q 897.579 321.408 899.809 323.098 Q 904.079 326.328 902.709 331.658 Z " fill="rgb(253,185,86)"/><path d=" M 899.249 332.118 Q 897.709 336.118 894.749 339.198 Q 894.079 338.778 893.559 339.468 C 893.098 339.718 892.005 339.889 890.749 339.908 Q 889.369 339.868 888.289 339.158 Q 892.629 332.048 885.919 327.248 Q 879.189 322.428 870.859 322.638 Q 870.119 322.658 869.649 322.578 Q 867.419 322.198 869.089 321.218 Q 869.499 320.988 870.089 320.888 Q 871.959 320.568 873.789 320.158 Q 884.749 318.648 894.439 322.718 Q 900.519 325.278 899.249 332.118 Z " fill="rgb(254,169,46)"/><path d=" M 840.999 348.618 Q 843.649 345.198 841.889 342.658 Q 840.699 340.938 837.549 340.088 Q 834.099 339.148 829.939 339.218 Q 816.079 339.448 806.999 340.368 Q 806.539 339.578 806.649 338.648 C 806.685 338.358 806.927 338.128 807.239 338.088 Q 816.609 336.818 826.019 335.828 Q 836.239 334.748 844.309 339.348 Q 848.469 341.718 846.689 346.348 Q 846.249 347.478 843.669 350.008 C 843.45 350.205 843.13 350.274 842.839 350.188 Q 841.669 349.738 840.999 348.618 Z " fill="rgb(254,181,45)"/><path d=" M 667.999 389.698 Q 662.919 392.618 657.859 395.558 Q 652.589 398.628 648.419 403.068 Q 642.659 409.198 650.499 411.908 Q 652.399 412.568 658.249 413.118 Q 655.839 412.488 654.989 414.248 C 654.89 414.511 654.637 414.715 654.319 414.788 Q 650.379 415.278 646.519 414.418 Q 646.419 414.388 644.449 414.088 Q 642.349 413.768 641.619 411.988 Q 641.329 411.308 640.839 408.828 Q 639.559 402.448 645.419 398.778 Q 649.099 396.478 656.439 392.598 Q 659.579 390.928 662.429 390.848 C 662.745 390.832 663.042 390.695 663.259 390.468 Q 665.159 388.388 667.999 389.698 Z " fill="rgb(254,181,45)"/><path d=" M 738.749 325.368 Q 740.999 326.468 740.789 329.158 Q 740.829 330.248 742.599 331.328 C 742.873 331.487 743.043 331.777 743.048 332.092 C 743.052 332.407 742.889 332.701 742.619 332.868 Q 738.859 335.238 735.319 336.598 Q 726.939 339.808 719.589 344.108 Q 718.239 344.898 717.319 346.168 Q 715.949 348.048 717.749 348.808 Q 726.119 352.348 733.809 347.718 Q 739.719 344.168 753.249 339.438 Q 756.259 338.388 759.249 336.488 Q 763.699 333.658 765.309 333.468 Q 768.739 333.078 768.159 336.688 Q 767.339 341.748 772.509 340.978 Q 775.949 340.468 778.729 341.698 C 779.351 341.972 779.685 342.652 779.519 343.308 Q 779.069 345.158 780.139 346.318 C 780.335 346.507 780.636 346.649 780.989 346.718 Q 783.809 347.158 784.849 350.188 C 784.983 350.586 784.941 351.023 784.733 351.388 C 784.525 351.753 784.17 352.011 783.759 352.098 Q 780.909 352.718 778.249 353.548 Q 776.019 354.258 773.009 355.728 Q 761.269 361.468 749.399 366.908 Q 743.119 369.788 736.119 371.818 Q 721.639 376.018 717.999 377.158 Q 714.739 378.178 711.519 378.158 Q 706.119 378.128 705.479 378.268 Q 700.729 379.358 697.499 383.658 Q 696.889 384.468 697.039 385.158 L 696.359 383.398 C 696.258 383.122 696.062 382.884 695.799 382.718 L 692.429 380.558 C 692.336 380.506 692.223 380.49 692.117 380.515 C 692.012 380.539 691.922 380.602 691.869 380.688 Q 691.309 381.898 690.289 382.658 Q 690.259 381.508 690.619 380.468 Q 690.949 379.508 691.949 378.838 Q 693.969 377.478 696.289 376.658 Q 701.939 374.648 707.339 372.028 Q 710.809 370.348 713.559 369.968 Q 716.889 369.518 719.329 369.018 Q 720.129 368.858 724.899 367.248 Q 730.659 365.298 737.999 365.908 Q 741.819 366.228 745.489 363.958 Q 749.739 361.348 749.829 361.298 Q 756.719 357.738 763.689 354.348 Q 766.539 352.958 771.549 348.798 Q 771.919 348.478 771.469 348.638 Q 769.599 349.298 768.499 349.158 Q 764.689 348.678 759.849 346.388 Q 756.539 344.828 752.439 345.848 Q 743.389 348.088 736.439 352.818 Q 736.389 352.858 734.999 353.948 Q 732.679 355.768 729.999 355.158 Q 725.729 354.178 722.559 355.218 Q 719.649 356.178 715.509 359.038 Q 712.479 361.128 709.449 362.388 Q 705.359 364.078 701.239 366.138 Q 699.529 366.978 697.309 366.618 L 692.749 365.868 Q 692.709 364.388 691.999 363.118 Q 696.509 361.268 697.539 356.408 Q 698.559 355.658 699.499 356.698 Q 699.609 357.438 700.489 357.118 Q 704.409 355.678 707.669 353.058 Q 709.489 351.588 710.809 348.218 Q 711.549 346.338 713.409 344.198 Q 714.059 343.458 716.929 340.988 Q 719.869 338.458 722.069 335.228 Q 724.249 332.038 727.289 329.658 Q 728.419 328.988 729.689 328.868 C 730.011 328.832 730.277 328.64 730.369 328.378 Q 730.739 327.178 730.249 325.948 L 738.749 325.368 Z " fill="rgb(245,156,74)"/><path d=" M 894.749 339.198 Q 889.219 345.408 882.209 349.878 Q 880.859 350.738 879.439 350.128 C 879.154 350.006 878.837 349.985 878.539 350.068 L 877.499 350.368 Q 884.149 345.948 888.289 339.158 Q 889.369 339.868 890.749 339.908 C 892.005 339.889 893.098 339.718 893.559 339.468 Q 894.079 338.778 894.749 339.198 Z " fill="rgb(245,156,74)"/><path d=" M 715.999 403.368 Q 715.129 404.098 713.559 404.468 Q 704.299 406.698 696.749 407.618 L 696.299 407.298 C 695.664 407.338 695.093 407.172 695.024 406.926 C 694.955 406.681 695.414 406.448 696.049 406.408 Q 696.059 404.918 694.539 403.918 Q 692.859 402.818 692.669 400.818 Q 692.289 396.858 696.209 394.158 Q 696.649 394.928 697.499 394.408 Q 700.869 392.338 700.999 395.908 L 701.249 402.748 C 701.238 403.026 701.359 403.296 701.581 403.485 C 701.802 403.674 702.101 403.762 702.399 403.728 Q 706.609 402.858 710.069 400.988 Q 718.309 396.518 727.419 394.248 Q 731.019 393.358 734.759 393.658 Q 736.579 393.808 735.099 394.868 Q 733.109 396.318 730.789 397.418 Q 729.499 398.038 726.099 399.088 Q 720.829 400.698 715.999 403.368 Z " fill="rgb(245,156,74)"/><path d=" M 723.499 430.618 Q 722.919 428.898 723.309 427.718 Q 723.969 425.758 721.999 425.618 Q 731.019 421.678 740.779 423.218 Q 747.299 424.248 753.439 425.588 Q 754.939 425.918 753.699 426.838 Q 750.709 429.058 747.249 430.408 Q 742.109 432.418 733.589 432.638 Q 731.099 432.698 728.489 431.998 Q 725.989 431.328 723.499 430.618 Z " fill="rgb(245,156,74)"/><path d=" M 776.249 432.368 Q 775.899 432.318 775.749 432.618 Q 770.629 433.568 768.439 436.098 Q 762.639 442.768 753.249 443.408 Q 747.149 443.818 742.709 443.508 Q 742.629 443.508 740.269 443.458 Q 737.189 443.388 734.679 441.458 Q 732.349 439.678 735.119 439.258 L 744.019 437.908 Q 745.969 437.608 747.849 439.098 Q 749.589 440.478 751.939 439.848 Q 754.069 439.268 762.159 434.288 Q 769.339 429.878 777.759 430.378 C 778.101 430.404 778.391 430.589 778.499 430.848 Q 778.709 431.408 777.919 431.428 Q 777.359 431.438 777.119 431.568 Q 776.589 431.838 776.249 432.368 Z " fill="rgb(245,156,74)"/><path d=" M 749.088 353.736 C 748.813 352.897 750.563 351.571 752.992 350.777 C 755.42 349.983 757.615 350.02 757.89 350.859 C 758.164 351.698 756.415 353.024 753.986 353.818 C 751.557 354.612 749.362 354.575 749.088 353.736 Z " fill="rgb(225,146,73)"/><path d=" M 829.749 368.448 Q 827.339 368.458 828.499 366.368 Q 837.659 362.188 843.189 359.098 Q 856.879 351.438 872.149 340.758 Q 872.639 340.418 873.039 340.308 Q 874.499 339.918 873.159 341.818 Q 870.319 345.848 866.329 348.748 Q 849.369 361.058 829.749 368.448 Z " fill="rgb(254,169,46)"/><path d=" M 610.509 422.388 Q 617.919 425.468 626.749 425.688 Q 634.099 425.868 641.409 426.628 Q 641.789 426.658 642.049 426.818 Q 643.039 427.398 641.699 427.678 Q 623.959 431.368 607.749 426.658 Q 600.259 424.478 603.059 416.718 Q 604.179 413.608 608.629 409.768 Q 616.779 402.728 626.049 397.418 Q 630.779 394.708 643.799 388.208 Q 658.409 380.908 673.889 375.448 Q 679.689 373.398 674.369 376.478 Q 669.079 379.548 660.649 383.658 Q 648.419 389.618 636.439 396.098 Q 626.249 401.608 617.309 408.968 Q 612.539 412.908 609.179 418.108 Q 607.279 421.048 610.509 422.388 Z " fill="rgb(254,169,46)"/><path d=" M 628.419 411.538 C 628.108 411.453 627.846 411.246 627.694 410.964 C 627.543 410.682 627.515 410.35 627.619 410.048 Q 628.549 407.228 630.999 406.588 Q 632.269 406.258 633.379 406.948 Q 635.129 408.038 634.149 409.678 Q 633.389 410.948 631.809 411.458 Q 630.139 411.998 628.419 411.538 Z " fill="rgb(254,169,46)"/><path d=" M 666.235 423.589 C 666.007 422.442 668.271 421.025 671.287 420.428 C 674.302 419.831 676.935 420.278 677.163 421.426 C 677.39 422.573 675.126 423.99 672.11 424.587 C 669.095 425.184 666.462 424.737 666.235 423.589 Z " fill="rgb(254,169,46)"/><path d=" M 800.379 330.788 Q 799.589 330.078 800.709 329.888 Q 810.119 328.248 819.239 326.348 Q 833.839 323.318 848.759 322.838 Q 851.909 322.738 850.449 323.968 Q 850.009 324.338 849.299 324.408 Q 842.069 325.148 834.889 326.258 Q 834.819 326.278 824.059 327.838 Q 816.069 329.008 805.249 331.408 Q 803.669 331.758 802.909 332.148 C 802.675 332.246 802.344 332.288 802.029 332.258 L 800.379 330.788 Z " fill="rgb(254,181,45)"/><path d=" M 828.499 366.368 Q 827.339 368.458 829.749 368.448 L 800.459 379.978 C 800.162 380.05 799.823 380.032 799.559 379.928 Q 799.299 379.638 799.999 379.158 Q 802.249 377.638 807.709 375.118 Q 810.279 373.938 815.759 371.788 Q 822.199 369.268 828.499 366.368 Z " fill="rgb(254,181,45)"/><path d=" M 735.139 375.458 Q 734.639 375.358 734.189 375.138 Q 733.709 374.918 734.209 374.728 Q 742.129 371.608 748.809 370.968 Q 751.709 370.698 749.919 372.408 Q 749.499 372.818 748.879 373.198 Q 742.579 376.978 735.139 375.458 Z " fill="rgb(245,156,74)"/></g></g></svg>