<svg xmlns="http://www.w3.org/2000/svg" width="1024" height="1024" fill="none"><path stroke="#963945" stroke-width="2" d="M56.46 526.25c1.987 76.26 21.313 146.863 57.98 211.81 27.527 48.767 61.963 90.413 103.31 124.94 69.507 58.047 149.777 92.36 240.81 102.94a415.402 415.402 0 0 0 19.91 1.82c16.66 1.14 31.92 1.47 45.78.99 47.62-1.66 94.473-10.973 140.56-27.94 51.42-18.927 97.67-45.177 138.75-78.75.96-.787 1.607-1.46 1.94-2.02"/><path stroke="#26717A" stroke-width="2" d="M805.5 860.04c6.56-5.107 14.58-12.267 24.06-21.48 32.913-31.973 60.123-67.18 81.63-105.62 18.747-33.52 32.837-67.667 42.27-102.44"/><path stroke="#956D4A" stroke-width="2" d="M953.46 630.5a482.413 482.413 0 0 0 16-106.5"/><path stroke="#97558B" stroke-width="2" d="M969.46 524a458.886 458.886 0 0 0-10.17-107.76c-12.553-58.313-35.463-112.18-68.73-161.6-29.207-43.38-64.497-80.573-105.87-111.58-9.467-7.093-20.1-14.197-31.9-21.31"/><path stroke="#973351" stroke-width="2" d="M752.79 121.75c-3.107-2.127-6.3-4.12-9.58-5.98-65.573-37.193-136.147-57.467-211.72-60.82-42.54-1.887-84.12 2.047-124.74 11.8-67.547 16.213-128.1 46.38-181.66 90.5a406.353 406.353 0 0 0-15.12 13.09c-42.733 38.9-77.14 84.277-103.22 136.13a482.405 482.405 0 0 0-33.61 86.7c-12.207 43.5-17.767 87.86-16.68 133.08"/><path stroke="#FF578F" stroke-width="2" d="M752.79 121.75c-.08 23.84-.093 38.507-.04 44 .013 1.7-.083 2.95-.29 3.75"/><path stroke="#973351" stroke-width="2" d="M752.46 169.5c-56.593-39.593-119.277-63.593-188.05-72-27.62-3.38-54.757-4.213-81.41-2.5-46.92 3.013-92.15 14.033-135.69 33.06-59.613 26.053-110.43 64.65-152.45 115.79-38.3 46.613-65.837 98.58-82.61 155.9-11.653 39.833-17.25 81-16.79 123.5"/><path stroke="#FE3B49" stroke-width="2" d="M95.46 523.25c-.84-.607-1.517-.523-2.03.25-.19.29-.46.48-.73.52-1.413.22-3.147.297-5.2.23-8.887-.273-18.72-.107-29.5.5-.773.047-1.287.547-1.54 1.5"/><path stroke="#98548B" stroke-width="2" d="M752.46 169.5c.747.767 2.177 1.933 4.29 3.5 46.52 34.567 84.537 77.14 114.05 127.72 40.18 68.853 59.427 143.363 57.74 223.53"/><path stroke="#956C4A" stroke-width="2" d="M928.54 524.25c-1.02 36.333-6.687 71.917-17 106.75"/><path stroke="#27717A" stroke-width="2" d="M911.54 631c-18.72 60-49.177 113.223-91.37 159.67a424 424 0 0 1-75.26 65.47 39.49 39.49 0 0 0-3.66 2.82"/><path stroke="#973845" stroke-width="2" d="M741.25 858.96c-39.373 25.667-81.79 44.507-127.25 56.52-34.707 9.173-69.457 13.763-104.25 13.77-65.38.013-127.49-14.66-186.33-44.02-52.287-26.093-96.863-61.483-133.73-106.17-39.353-47.693-66.643-101.787-81.87-162.28-7.693-30.553-11.717-60.98-12.07-91.28-.013-1.107-.11-1.857-.29-2.25"/><path stroke="#8D7972" stroke-width="2" d="m741.25 858.96 64.25 1.08"/><path stroke="#FD9088" stroke-width="2" d="m969.46 524-40.92.25"/><path stroke="#8CAD77" stroke-width="2" d="M953.46 630.5c-.147.207-.403.31-.77.31-11.9-.013-23.797-.033-35.69-.06-2.547-.007-4.367.077-5.46.25"/><path stroke="#956B4A" stroke-width="2" d="M862.79 486c4.787 75.527-12.08 144.84-50.6 207.94-19.813 32.447-45.057 61.717-75.73 87.81"/><path stroke="#973845" stroke-width="2" d="M736.46 781.75c-54.753 45.107-117.26 71.913-187.52 80.42-6.58.8-13.22 1.37-19.92 1.71-80.673 4.087-154.09-16.32-220.25-61.22a289.227 289.227 0 0 1-16.15-11.78c-43.733-34.267-77.603-76.473-101.61-126.62a297.68 297.68 0 0 1-8.03-18.31 336.565 336.565 0 0 1-19.41-69.76c-.3-1.8-.497-3.747-.59-5.84-.03-.76-.65-1.35-1.41-1.35h-36.78c-.49 0-.87.43-.8.92 7.887 57.46 27.733 110.32 59.54 158.58 28.613 43.413 64.04 79.393 106.28 107.94 58.92 39.813 124.4 61.92 196.44 66.32 34.987 2.14 69.59-.51 103.81-7.95 51.873-11.267 99.667-31.89 143.38-61.87 2.087-1.433 3.37-2.413 3.85-2.94"/><path stroke="#956B4A" stroke-width="2" d="M737.29 830c43.727-30.68 79.647-68.743 107.76-114.19 35.247-56.993 54.48-119.097 57.7-186.31.727-15.16.547-29.743-.54-43.75"/><path stroke="#973351" stroke-width="2" d="M902.21 485.75c-2.727-36.393-9.9-71.04-21.52-103.94-21.08-59.653-54.717-111.683-100.91-156.09-41.467-39.867-89.143-68.69-143.03-86.47-53.013-17.493-107.617-23.52-163.81-18.08a365.73 365.73 0 0 0-19.84 2.46c-53.253 8.08-102.6 26.723-148.04 55.93-35.66 22.913-66.577 50.497-92.75 82.75-39.847 49.113-66.987 104.817-81.42 167.11-3.5 15.113-5.98 30.567-7.44 46.36-.04.39.27.72.66.72h37.96c.42 0 .76-.31.81-.73 2.293-20.073 6.21-39.47 11.75-58.19 13.193-44.553 33.89-85.27 62.09-122.15 40.193-52.567 90.917-90.867 152.17-114.9a293.44 293.44 0 0 1 18.85-6.68c29.187-9.22 59.523-14.337 91.01-15.35 48.527-1.567 95.07 5.993 139.63 22.68a278.229 278.229 0 0 1 18.45 7.68c52.413 24.033 96.24 58.81 131.48 104.33 39.66 51.22 63.773 109.16 72.34 173.82.207 1.567.54 4.733 1 9.5.3 3.173.68 6.337 1.14 9.49"/><path stroke="#FC6E4E" stroke-width="2" d="m902.21 485.75-39.42.25"/><path stroke="#FC7342" stroke-width="2" d="M737.29 830c-.073-24.627-.087-39.543-.04-44.75.013-1.46-.25-2.627-.79-3.5"/><path stroke="#973A45" stroke-width="2" d="M784.96 426a320.815 320.815 0 0 1 12.08 59.5"/><path stroke="#96918A" stroke-width="2" d="M797.04 485.5c.8 14.207 1.037 25.957.71 35.25-1.693 48.087-14.547 92.4-38.56 132.94-32.193 54.34-77.34 94.777-135.44 121.31-35.573 16.247-73.74 24.51-114.5 24.79"/><path stroke="#973845" stroke-width="2" d="M509.25 799.79c-37.42.113-73.067-6.337-106.94-19.35-42.267-16.24-78.723-41.533-109.37-75.88-27.893-31.273-47.617-67.083-59.17-107.43a242.634 242.634 0 0 1-6.2-27.68.547.547 0 0 0-.54-.45H189.1c-.53 0-.93.47-.85.99 6.987 45.54 23.34 87.357 49.06 125.45 31.167 46.147 71.767 82.08 121.8 107.8a279.58 279.58 0 0 0 18.09 8.52c41.34 17.72 84.94 26.717 130.8 26.99.64.007 1.07-.077 1.29-.25"/><path stroke="#96918A" stroke-width="2" d="M509.29 838.5c47.9-.233 93.487-10.47 136.76-30.71 37.867-17.713 71.037-41.373 99.51-70.98 48.133-50.04 77.613-109.727 88.44-179.06 3.687-23.587 4.423-47.753 2.21-72.5"/><path stroke="#973A45" stroke-width="2" d="M836.21 485.25c.287-.327.377-.653.27-.98-.133-.42-.2-.653-.2-.7a382.455 382.455 0 0 0-11.57-62.07"/><path stroke="#973351" stroke-width="2" d="M824.71 421.5c-15.787-53.673-42.947-100.453-81.48-140.34a277.349 277.349 0 0 0-14.4-13.88c-50.033-44.787-108.82-71.47-176.36-80.05-38.693-4.913-77.003-2.94-114.93 5.92-27.413 6.407-53.407 16.46-77.98 30.16-54.273 30.267-96.847 72.373-127.72 126.32-22.347 39.053-36.477 81.06-42.39 126.02-.06.48.31.91.8.91l38.17-.12c.32 0 .58-.23.63-.55 9.347-61.3 34.46-114.673 75.34-160.12 4.58-5.093 9.217-9.88 13.91-14.36 18.08-17.253 38.117-31.93 60.11-44.03 24.993-13.753 51.413-23.443 79.26-29.07 6.44-1.3 13.027-2.32 19.76-3.06 27.913-3.047 55.773-2.223 83.58 2.47 31.24 5.273 60.717 15.553 88.43 30.84 35.647 19.673 66.147 46.507 91.5 80.5 19.3 25.893 33.973 54.873 44.02 86.94"/><path stroke="#FE3C49" stroke-width="2" d="M824.71 421.5c-.92.107-1.423.583-1.51 1.43-.03.28-.25.49-.51.49l-31.93.06c-.29 0-.62.1-.93.29-1.287.787-2.67 1.043-4.15.77-.33-.06-.62.11-.64.37l-.08 1.09"/><path stroke="#FD9B82" stroke-width="2" d="M836.21 485.25c-13.053.6-26.11.683-39.17.25"/><path stroke="#FC9982" stroke-width="2" d="M509.29 838.5c.347-12.9.333-25.803-.04-38.71"/><path stroke="#973351" stroke-width="2" d="M272.44 476.41c6.58-.193 13.44-.177 20.58.05.62.02 1.17-.41 1.28-1.02 5.62-29.653 16.04-56.947 31.26-81.88 20.207-33.1 47.75-59.47 82.63-79.11 30.233-17.027 63.3-25.94 99.2-26.74.72-.02 1.3-.6 1.3-1.32l.06-37.4c0-.29-.23-.52-.52-.51-51.2 1.28-97.453 15.967-138.76 44.06a244.39 244.39 0 0 0-16.04 11.92c-37.767 30.487-65.557 68.577-83.37 114.27-7.153 18.353-12.183 37.34-15.09 56.96-.06.41.26.78.68.79 5.88.107 11.477.083 16.79-.07Z"/><path stroke="#27717A" stroke-width="2" d="M509.21 735.25c-.5-.167-1.237-.25-2.21-.25-22.787.06-45.173-3.19-67.16-9.75-6.36-1.9-12.643-4.12-18.85-6.66-38.907-15.92-70.55-40.553-94.93-73.9-16.093-22.013-27.197-47.313-33.31-75.9"/><path stroke="#983352" stroke-width="2" d="m292.75 568.79 24.8-.04c.41 0 .76.28.87.68 8.093 31.68 23.64 58.933 46.64 81.76 25.933 25.733 56.14 42.943 90.62 51.63a195.064 195.064 0 0 0 45.06 5.91c.067 0 1.397.097 3.99.29 1.507.107 3.013.003 4.52-.31"/><path stroke="#977D4D" stroke-width="2" d="M509.25 708.71c.82.307 1.647.403 2.48.29 1.287-.18 1.98-.273 2.08-.28 7.333-.207 14.623-.9 21.87-2.08 42.347-6.893 78.95-25.11 109.81-54.65 33.213-31.787 53.217-70.533 60.01-116.24.447-2.993.767-6.743.96-11.25"/><path stroke="#27717A" stroke-width="2" d="M706.46 524.5c.547-4.873.81-9.207.79-13-.207-38.247-10.06-73.143-29.56-104.69-19.587-31.673-45.993-55.927-79.22-72.76-28.067-14.213-57.89-21.217-89.47-21.01"/><path stroke="#973351" stroke-width="2" d="M509 313.04c-31.64.273-61.203 8.117-88.69 23.53-36.96 20.727-64.683 50.173-83.17 88.34-7.7 15.893-13.313 32.847-16.84 50.86-.07.38.22.73.6.73h39.38c.51 0 .96-.36 1.07-.86 7.14-32.007 22.543-59.367 46.21-82.08 27.8-26.673 61.613-40.623 101.44-41.85"/><path stroke="#27717A" stroke-width="2" d="M509 351.71c52.2 1.467 93.927 21.917 125.18 61.35 4.267 5.393 8.057 10.873 11.37 16.44 15.28 25.713 22.593 53.88 21.94 84.5-.073 3.413-.14 6.83-.2 10.25"/><path stroke="#977D4D" stroke-width="2" d="M667.29 524.25a16.632 16.632 0 0 0-.72 3.51c-.18 1.933-.273 2.927-.28 2.98-5.373 37.027-21.533 68.133-48.48 93.32-30.24 28.273-66.427 43.183-108.56 44.73"/><path stroke="#983352" stroke-width="2" d="m509.25 668.79-.21-24.79"/><path stroke="#977E4D" stroke-width="2" d="M509.04 644c39.02-1.407 71.693-15.887 98.02-43.44 21.387-22.373 33.447-49.037 36.18-79.99a105.83 105.83 0 0 0 .09-17.14 175.096 175.096 0 0 0-2.14-17.04c-.09-.52-.54-.89-1.06-.89l-71.98.06c-.5 0-.9.41-.91.92L567 524c0 .14-.11.25-.25.25l-57.5.29"/><path stroke="#983352" stroke-width="2" d="m509.25 524.54-266.93.02a.5.5 0 0 0-.51.51l.12 43c0 .28.22.51.5.52l11.07.2"/><path stroke="#27717A" stroke-width="2" d="M253.5 568.79c.613 4.947 1.28 8.933 2 11.96 9.533 40.167 27.43 75.187 53.69 105.06 20.867 23.747 44.97 42.893 72.31 57.44 38.893 20.693 80.707 31.007 125.44 30.94.473 0 1.16-.16 2.06-.48"/><path stroke="#96918A" stroke-width="2" d="M509 773.71c.547.227 1.38.323 2.5.29 54.233-1.547 103.293-17.67 147.18-48.37 24.613-17.22 45.533-37.533 62.76-60.94 26.147-35.547 42.34-75.3 48.58-119.26.94-6.613 1.58-13.247 1.92-19.9 1.96-38.06-3.917-74.673-17.63-109.84-20.56-52.747-54.663-94.727-102.31-125.94-30.54-20.007-64.52-32.63-101.94-37.87-.26-.04-.5.17-.5.44l-.06 37.45c0 .91.65 1.68 1.55 1.84 31.387 5.553 60.3 17.76 86.74 36.62 23.313 16.627 42.613 36.653 57.9 60.08 28.213 43.24 40.233 90.657 36.06 142.25-.553 6.84-1.397 13.447-2.53 19.82-4.96 27.973-15.053 53.827-30.28 77.56-21.793 33.96-50.587 60.75-86.38 80.37-31.607 17.333-65.987 26.25-103.14 26.75-.07 0-.13.04-.16.1l-.05.09"/><path stroke="#8CD2B7" stroke-width="2" d="m509 773.71.21-38.46"/><path stroke="#FF8052" stroke-width="2" d="M509.25 668.79v39.92"/><path stroke="#8E747F" stroke-width="2" d="M292.75 568.79H253.5"/><path stroke="#FF8152" stroke-width="2" d="m509.04 644 .21-119.46"/><path stroke="#8EBE7A" stroke-width="2" d="m706.46 524.5-39.17-.25"/><path stroke="#8E737E" stroke-width="2" d="M509 313.04c-.1 11.153-.183 22.307-.25 33.46-.013 2.733.07 4.47.25 5.21"/><path fill="#FE3555" d="M752.79 121.75c-.08 23.84-.093 38.507-.04 44 .013 1.7-.083 2.95-.29 3.75-56.593-39.593-119.277-63.593-188.05-72-27.62-3.38-54.757-4.213-81.41-2.5-46.92 3.013-92.15 14.033-135.69 33.06-59.613 26.053-110.43 64.65-152.45 115.79-38.3 46.613-65.837 98.58-82.61 155.9-11.653 39.833-17.25 81-16.79 123.5-.84-.607-1.517-.523-2.03.25-.19.29-.46.48-.73.52-1.413.22-3.147.297-5.2.23-8.887-.273-18.72-.107-29.5.5-.773.047-1.287.547-1.54 1.5-1.087-45.22 4.473-89.58 16.68-133.08a482.405 482.405 0 0 1 33.61-86.7c26.08-51.853 60.487-97.23 103.22-136.13 4.947-4.5 9.987-8.863 15.12-13.09 53.56-44.12 114.113-74.287 181.66-90.5 40.62-9.753 82.2-13.687 124.74-11.8 75.573 3.353 146.147 23.627 211.72 60.82 3.28 1.86 6.473 3.853 9.58 5.98Z"/><path fill="#FE3555" d="m902.21 485.75-39.42.25c-.46-3.153-.84-6.317-1.14-9.49-.46-4.767-.793-7.933-1-9.5-8.567-64.66-32.68-122.6-72.34-173.82-35.24-45.52-79.067-80.297-131.48-104.33a278.229 278.229 0 0 0-18.45-7.68c-44.56-16.687-91.103-24.247-139.63-22.68-31.487 1.013-61.823 6.13-91.01 15.35a293.44 293.44 0 0 0-18.85 6.68c-61.253 24.033-111.977 62.333-152.17 114.9-28.2 36.88-48.897 77.597-62.09 122.15-5.54 18.72-9.457 38.117-11.75 58.19-.05.42-.39.73-.81.73h-37.96c-.39 0-.7-.33-.66-.72 1.46-15.793 3.94-31.247 7.44-46.36 14.433-62.293 41.573-117.997 81.42-167.11 26.173-32.253 57.09-59.837 92.75-82.75 45.44-29.207 94.787-47.85 148.04-55.93a365.73 365.73 0 0 1 19.84-2.46c56.193-5.44 110.797.587 163.81 18.08 53.887 17.78 101.563 46.603 143.03 86.47 46.193 44.407 79.83 96.437 100.91 156.09 11.62 32.9 18.793 67.547 21.52 103.94Z"/><path fill="#FF78C9" d="M752.79 121.75c11.8 7.113 22.433 14.217 31.9 21.31 41.373 31.007 76.663 68.2 105.87 111.58 33.267 49.42 56.177 103.287 68.73 161.6A458.886 458.886 0 0 1 969.46 524l-40.92.25c1.687-80.167-17.56-154.677-57.74-223.53-29.513-50.58-67.53-93.153-114.05-127.72-2.113-1.567-3.543-2.733-4.29-3.5.207-.8.303-2.05.29-3.75-.053-5.493-.04-20.16.04-44Z"/><path fill="#FE3555" d="M824.71 421.5c-.92.107-1.423.583-1.51 1.43-.03.28-.25.49-.51.49l-31.93.06c-.29 0-.62.1-.93.29-1.287.787-2.67 1.043-4.15.77-.33-.06-.62.11-.64.37l-.08 1.09c-10.047-32.067-24.72-61.047-44.02-86.94-25.353-33.993-55.853-60.827-91.5-80.5-27.713-15.287-57.19-25.567-88.43-30.84-27.807-4.693-55.667-5.517-83.58-2.47-6.733.74-13.32 1.76-19.76 3.06-27.847 5.627-54.267 15.317-79.26 29.07-21.993 12.1-42.03 26.777-60.11 44.03a262.488 262.488 0 0 0-13.91 14.36c-40.88 45.447-65.993 98.82-75.34 160.12-.05.32-.31.55-.63.55l-38.17.12c-.49 0-.86-.43-.8-.91 5.913-44.96 20.043-86.967 42.39-126.02 30.873-53.947 73.447-96.053 127.72-126.32 24.573-13.7 50.567-23.753 77.98-30.16 37.927-8.86 76.237-10.833 114.93-5.92 67.54 8.58 126.327 35.263 176.36 80.05a277.349 277.349 0 0 1 14.4 13.88c38.533 39.887 65.693 86.667 81.48 140.34Z"/><path fill="#FE3555" d="M272.44 476.41c-5.313.153-10.91.177-16.79.07a.697.697 0 0 1-.68-.79c2.907-19.62 7.937-38.607 15.09-56.96 17.813-45.693 45.603-83.783 83.37-114.27a244.39 244.39 0 0 1 16.04-11.92c41.307-28.093 87.56-42.78 138.76-44.06.29-.01.52.22.52.51l-.06 37.4c0 .72-.58 1.3-1.3 1.32-35.9.8-68.967 9.713-99.2 26.74-34.88 19.64-62.423 46.01-82.63 79.11-15.22 24.933-25.64 52.227-31.26 81.88-.11.61-.66 1.04-1.28 1.02-7.14-.227-14-.243-20.58-.05Z"/><path fill="#FBF2C7" d="m509 773.71.21-38.46.05-.09c.03-.06.09-.1.16-.1 37.153-.5 71.533-9.417 103.14-26.75 35.793-19.62 64.587-46.41 86.38-80.37 15.227-23.733 25.32-49.587 30.28-77.56 1.133-6.373 1.977-12.98 2.53-19.82 4.173-51.593-7.847-99.01-36.06-142.25-15.287-23.427-34.587-43.453-57.9-60.08-26.44-18.86-55.353-31.067-86.74-36.62-.9-.16-1.55-.93-1.55-1.84l.06-37.45c0-.27.24-.48.5-.44 37.42 5.24 71.4 17.863 101.94 37.87 47.647 31.213 81.75 73.193 102.31 125.94 13.713 35.167 19.59 71.78 17.63 109.84-.34 6.653-.98 13.287-1.92 19.9-6.24 43.96-22.433 83.713-48.58 119.26-17.227 23.407-38.147 43.72-62.76 60.94-43.887 30.7-92.947 46.823-147.18 48.37-1.12.033-1.953-.063-2.5-.29Z"/><path fill="#FE3555" d="M509 313.04c-.1 11.153-.183 22.307-.25 33.46-.013 2.733.07 4.47.25 5.21-39.827 1.227-73.64 15.177-101.44 41.85-23.667 22.713-39.07 50.073-46.21 82.08-.11.5-.56.86-1.07.86H320.9c-.38 0-.67-.35-.6-.73 3.527-18.013 9.14-34.967 16.84-50.86 18.487-38.167 46.21-67.613 83.17-88.34 27.487-15.413 57.05-23.257 88.69-23.53Z"/><path fill="#1DB1A7" d="M509 313.04c31.58-.207 61.403 6.797 89.47 21.01 33.227 16.833 59.633 41.087 79.22 72.76 19.5 31.547 29.353 66.443 29.56 104.69.02 3.793-.243 8.127-.79 13l-39.17-.25c.06-3.42.127-6.837.2-10.25.653-30.62-6.66-58.787-21.94-84.5-3.313-5.567-7.103-11.047-11.37-16.44-31.253-39.433-72.98-59.883-125.18-61.35-.18-.74-.263-2.477-.25-5.21.067-11.153.15-22.307.25-33.46Z"/><path fill="#FE433C" d="M824.71 421.5a382.455 382.455 0 0 1 11.57 62.07c0 .047.067.28.2.7.107.327.017.653-.27.98-13.053.6-26.11.683-39.17.25a320.815 320.815 0 0 0-12.08-59.5l.08-1.09c.02-.26.31-.43.64-.37 1.48.273 2.863.017 4.15-.77.31-.19.64-.29.93-.29l31.93-.06c.26 0 .48-.21.51-.49.087-.847.59-1.323 1.51-1.43Z"/><path fill="#FBF2C7" d="M836.21 485.25c2.213 24.747 1.477 48.913-2.21 72.5-10.827 69.333-40.307 129.02-88.44 179.06-28.473 29.607-61.643 53.267-99.51 70.98-43.273 20.24-88.86 30.477-136.76 30.71.347-12.9.333-25.803-.04-38.71 40.76-.28 78.927-8.543 114.5-24.79 58.1-26.533 103.247-66.97 135.44-121.31 24.013-40.54 36.867-84.853 38.56-132.94.327-9.293.09-21.043-.71-35.25 13.06.433 26.117.35 39.17-.25Z"/><path fill="#FECB4C" d="m509.04 644 .21-119.46 57.5-.29c.14 0 .25-.11.25-.25l.24-37.52c.01-.51.41-.92.91-.92l71.98-.06c.52 0 .97.37 1.06.89 1 5.707 1.713 11.387 2.14 17.04a105.83 105.83 0 0 1-.09 17.14c-2.733 30.953-14.793 57.617-36.18 79.99-26.327 27.553-59 42.033-98.02 43.44Z"/><path fill="#FAA646" d="M902.21 485.75c1.087 14.007 1.267 28.59.54 43.75-3.22 67.213-22.453 129.317-57.7 186.31-28.113 45.447-64.033 83.51-107.76 114.19-.073-24.627-.087-39.543-.04-44.75.013-1.46-.25-2.627-.79-3.5 30.673-26.093 55.917-55.363 75.73-87.81 38.52-63.1 55.387-132.413 50.6-207.94l39.42-.25Z"/><path fill="#FD403D" d="M95.46 523.25c.18.393.277 1.143.29 2.25.353 30.3 4.377 60.727 12.07 91.28 15.227 60.493 42.517 114.587 81.87 162.28 36.867 44.687 81.443 80.077 133.73 106.17 58.84 29.36 120.95 44.033 186.33 44.02 34.793-.007 69.543-4.597 104.25-13.77 45.46-12.013 87.877-30.853 127.25-56.52l64.25 1.08c-.333.56-.98 1.233-1.94 2.02-41.08 33.573-87.33 59.823-138.75 78.75-46.087 16.967-92.94 26.28-140.56 27.94-13.86.48-29.12.15-45.78-.99a415.402 415.402 0 0 1-19.91-1.82C367.527 955.36 287.257 921.047 217.75 863c-41.347-34.527-75.783-76.173-103.31-124.94-36.667-64.947-55.993-135.55-57.98-211.81.253-.953.767-1.453 1.54-1.5 10.78-.607 20.613-.773 29.5-.5 2.053.067 3.787-.01 5.2-.23.27-.04.54-.23.73-.52.513-.773 1.19-.857 2.03-.25Z"/><path fill="#FAA846" d="M969.46 524a482.413 482.413 0 0 1-16 106.5c-.147.207-.403.31-.77.31-11.9-.013-23.797-.033-35.69-.06-2.547-.007-4.367.077-5.46.25 10.313-34.833 15.98-70.417 17-106.75l40.92-.25Z"/><path fill="#FF3657" d="M509.25 524.54 509.04 644l.21 24.79v39.92a16.407 16.407 0 0 1-4.52.31 440.39 440.39 0 0 0-3.99-.29 195.064 195.064 0 0 1-45.06-5.91c-34.48-8.687-64.687-25.897-90.62-51.63-23-22.827-38.547-50.08-46.64-81.76a.907.907 0 0 0-.87-.68l-24.8.04H253.5l-11.07-.2a.519.519 0 0 1-.5-.52l-.12-43a.5.5 0 0 1 .51-.51l266.93-.02Z"/><path fill="#FECA4C" d="m667.29 524.25 39.17.25c-.193 4.507-.513 8.257-.96 11.25-6.793 45.707-26.797 84.453-60.01 116.24-30.86 29.54-67.463 47.757-109.81 54.65a164.883 164.883 0 0 1-21.87 2.08c-.1.007-.793.1-2.08.28a5.042 5.042 0 0 1-2.48-.29v-39.92c42.133-1.547 78.32-16.457 108.56-44.73 26.947-25.187 43.107-56.293 48.48-93.32.007-.053.1-1.047.28-2.98.113-1.193.353-2.363.72-3.51Z"/><path fill="#1DB1A7" d="M292.75 568.79c6.113 28.587 17.217 53.887 33.31 75.9 24.38 33.347 56.023 57.98 94.93 73.9 6.207 2.54 12.49 4.76 18.85 6.66 21.987 6.56 44.373 9.81 67.16 9.75.973 0 1.71.083 2.21.25l-.21 38.46c-.9.32-1.587.48-2.06.48-44.733.067-86.547-10.247-125.44-30.94-27.34-14.547-51.443-33.693-72.31-57.44-26.26-29.873-44.157-64.893-53.69-105.06-.72-3.027-1.387-7.013-2-11.96h39.25Z"/><path fill="#FD403D" d="M736.46 781.75c.54.873.803 2.04.79 3.5-.047 5.207-.033 20.123.04 44.75-.48.527-1.763 1.507-3.85 2.94-43.713 29.98-91.507 50.603-143.38 61.87-34.22 7.44-68.823 10.09-103.81 7.95-72.04-4.4-137.52-26.507-196.44-66.32-42.24-28.547-77.667-64.527-106.28-107.94-31.807-48.26-51.653-101.12-59.54-158.58-.07-.49.31-.92.8-.92h36.78c.76 0 1.38.59 1.41 1.35.093 2.093.29 4.04.59 5.84a336.565 336.565 0 0 0 19.41 69.76 297.68 297.68 0 0 0 8.03 18.31c24.007 50.147 57.877 92.353 101.61 126.62 5.193 4.073 10.577 8 16.15 11.78 66.16 44.9 139.577 65.307 220.25 61.22 6.7-.34 13.34-.91 19.92-1.71 70.26-8.507 132.767-35.313 187.52-80.42Z"/><path fill="#FD403D" d="M509.25 799.79c.373 12.907.387 25.81.04 38.71-.22.173-.65.257-1.29.25-45.86-.273-89.46-9.27-130.8-26.99a279.58 279.58 0 0 1-18.09-8.52c-50.033-25.72-90.633-61.653-121.8-107.8-25.72-38.093-42.073-79.91-49.06-125.45-.08-.52.32-.99.85-.99h37.93c.27 0 .49.19.54.45a242.634 242.634 0 0 0 6.2 27.68c11.553 40.347 31.277 76.157 59.17 107.43 30.647 34.347 67.103 59.64 109.37 75.88 33.873 13.013 69.52 19.463 106.94 19.35Z"/><path fill="#1DB1A7" d="M953.46 630.5c-9.433 34.773-23.523 68.92-42.27 102.44-21.507 38.44-48.717 73.647-81.63 105.62-9.48 9.213-17.5 16.373-24.06 21.48l-64.25-1.08a39.49 39.49 0 0 1 3.66-2.82 424 424 0 0 0 75.26-65.47C862.363 744.223 892.82 691 911.54 631c1.093-.173 2.913-.257 5.46-.25 11.893.027 23.79.047 35.69.06.367 0 .623-.103.77-.31Z"/></svg>