<svg width="1024" height="1024" viewBox="0 0 1024 1024" fill="none" xmlns="http://www.w3.org/2000/svg">
<path d="M56.46 526.25C58.4467 602.51 77.7733 673.113 114.44 738.06C141.967 786.827 176.403 828.473 217.75 863C287.257 921.047 367.527 955.36 458.56 965.94C464.967 966.687 471.603 967.293 478.47 967.76C495.13 968.9 510.39 969.23 524.25 968.75C571.87 967.09 618.723 957.777 664.81 940.81C716.23 921.883 762.48 895.633 803.56 862.06C804.52 861.273 805.167 860.6 805.5 860.04" stroke="#963945" stroke-width="2"/>
<path d="M805.5 860.04C812.06 854.933 820.08 847.773 829.56 838.56C862.473 806.587 889.683 771.38 911.19 732.94C929.937 699.42 944.027 665.273 953.46 630.5" stroke="#26717A" stroke-width="2"/>
<path d="M953.46 630.5C962.767 595.607 968.1 560.107 969.46 524" stroke="#956D4A" stroke-width="2"/>
<path d="M969.46 524C970.32 487.667 966.93 451.747 959.29 416.24C946.737 357.927 923.827 304.06 890.56 254.64C861.353 211.26 826.063 174.067 784.69 143.06C775.223 135.967 764.59 128.863 752.79 121.75" stroke="#97558B" stroke-width="2"/>
<path d="M752.79 121.75C749.683 119.623 746.49 117.63 743.21 115.77C677.637 78.5767 607.063 58.3034 531.49 54.95C488.95 53.0634 447.37 56.9967 406.75 66.75C339.203 82.9634 278.65 113.13 225.09 157.25C219.957 161.477 214.917 165.84 209.97 170.34C167.237 209.24 132.83 254.617 106.75 306.47C92.7567 334.283 81.5533 363.183 73.14 393.17C60.9333 436.67 55.3733 481.03 56.46 526.25" stroke="#973351" stroke-width="2"/>
<path d="M752.79 121.75C752.71 145.59 752.697 160.257 752.75 165.75C752.763 167.45 752.667 168.7 752.46 169.5" stroke="#FF578F" stroke-width="2"/>
<path d="M752.46 169.5C695.867 129.907 633.183 105.907 564.41 97.5C536.79 94.12 509.653 93.2867 483 95C436.08 98.0133 390.85 109.033 347.31 128.06C287.697 154.113 236.88 192.71 194.86 243.85C156.56 290.463 129.023 342.43 112.25 399.75C100.597 439.583 95 480.75 95.46 523.25" stroke="#973351" stroke-width="2"/>
<path d="M95.46 523.25C94.62 522.643 93.9433 522.727 93.43 523.5C93.24 523.79 92.97 523.98 92.7 524.02C91.2867 524.24 89.5533 524.317 87.5 524.25C78.6133 523.977 68.78 524.143 58 524.75C57.2267 524.797 56.7133 525.297 56.46 526.25" stroke="#FE3B49" stroke-width="2"/>
<path d="M752.46 169.5C753.207 170.267 754.637 171.433 756.75 173C803.27 207.567 841.287 250.14 870.8 300.72C910.98 369.573 930.227 444.083 928.54 524.25" stroke="#98548B" stroke-width="2"/>
<path d="M928.54 524.25C927.52 560.583 921.853 596.167 911.54 631" stroke="#956C4A" stroke-width="2"/>
<path d="M911.54 631C892.82 691 862.363 744.223 820.17 790.67C797.657 815.457 772.57 837.28 744.91 856.14C743.637 857.007 742.417 857.947 741.25 858.96" stroke="#27717A" stroke-width="2"/>
<path d="M741.25 858.96C701.877 884.627 659.46 903.467 614 915.48C579.293 924.653 544.543 929.243 509.75 929.25C444.37 929.263 382.26 914.59 323.42 885.23C271.133 859.137 226.557 823.747 189.69 779.06C150.337 731.367 123.047 677.273 107.82 616.78C100.127 586.227 96.1033 555.8 95.75 525.5C95.7367 524.393 95.64 523.643 95.46 523.25" stroke="#973845" stroke-width="2"/>
<path d="M741.25 858.96L805.5 860.04" stroke="#8D7972" stroke-width="2"/>
<path d="M969.46 524L928.54 524.25" stroke="#FD9088" stroke-width="2"/>
<path d="M953.46 630.5C953.313 630.707 953.057 630.81 952.69 630.81C940.79 630.797 928.893 630.777 917 630.75C914.453 630.743 912.633 630.827 911.54 631" stroke="#8CAD77" stroke-width="2"/>
<path d="M862.79 486C867.577 561.527 850.71 630.84 812.19 693.94C792.377 726.387 767.133 755.657 736.46 781.75" stroke="#956B4A" stroke-width="2"/>
<path d="M736.46 781.75C681.707 826.857 619.2 853.663 548.94 862.17C542.36 862.97 535.72 863.54 529.02 863.88C448.347 867.967 374.93 847.56 308.77 802.66C303.197 798.88 297.813 794.953 292.62 790.88C248.887 756.613 215.017 714.407 191.01 664.26C188.07 658.113 185.393 652.01 182.98 645.95C174.013 623.437 167.543 600.183 163.57 576.19C163.27 574.39 163.073 572.443 162.98 570.35C162.95 569.59 162.33 569 161.57 569H124.79C124.3 569 123.92 569.43 123.99 569.92C131.877 627.38 151.723 680.24 183.53 728.5C212.143 771.913 247.57 807.893 289.81 836.44C348.73 876.253 414.21 898.36 486.25 902.76C521.237 904.9 555.84 902.25 590.06 894.81C641.933 883.543 689.727 862.92 733.44 832.94C735.527 831.507 736.81 830.527 737.29 830" stroke="#973845" stroke-width="2"/>
<path d="M737.29 830C781.017 799.32 816.937 761.257 845.05 715.81C880.297 658.817 899.53 596.713 902.75 529.5C903.477 514.34 903.297 499.757 902.21 485.75" stroke="#956B4A" stroke-width="2"/>
<path d="M902.21 485.75C899.483 449.357 892.31 414.71 880.69 381.81C859.61 322.157 825.973 270.127 779.78 225.72C738.313 185.853 690.637 157.03 636.75 139.25C583.737 121.757 529.133 115.73 472.94 121.17C466.193 121.823 459.58 122.643 453.1 123.63C399.847 131.71 350.5 150.353 305.06 179.56C269.4 202.473 238.483 230.057 212.31 262.31C172.463 311.423 145.323 367.127 130.89 429.42C127.39 444.533 124.91 459.987 123.45 475.78C123.41 476.17 123.72 476.5 124.11 476.5H162.07C162.49 476.5 162.83 476.19 162.88 475.77C165.173 455.697 169.09 436.3 174.63 417.58C187.823 373.027 208.52 332.31 236.72 295.43C276.913 242.863 327.637 204.563 388.89 180.53C395.283 178.023 401.567 175.797 407.74 173.85C436.927 164.63 467.263 159.513 498.75 158.5C547.277 156.933 593.82 164.493 638.38 181.18C644.593 183.507 650.743 186.067 656.83 188.86C709.243 212.893 753.07 247.67 788.31 293.19C827.97 344.41 852.083 402.35 860.65 467.01C860.857 468.577 861.19 471.743 861.65 476.51C861.95 479.683 862.33 482.847 862.79 486" stroke="#973351" stroke-width="2"/>
<path d="M902.21 485.75L862.79 486" stroke="#FC6E4E" stroke-width="2"/>
<path d="M737.29 830C737.217 805.373 737.203 790.457 737.25 785.25C737.263 783.79 737 782.623 736.46 781.75" stroke="#FC7342" stroke-width="2"/>
<path d="M784.96 426C790.867 445.447 794.893 465.28 797.04 485.5" stroke="#973A45" stroke-width="2"/>
<path d="M797.04 485.5C797.84 499.707 798.077 511.457 797.75 520.75C796.057 568.837 783.203 613.15 759.19 653.69C726.997 708.03 681.85 748.467 623.75 775C588.177 791.247 550.01 799.51 509.25 799.79" stroke="#96918A" stroke-width="2"/>
<path d="M509.25 799.79C471.83 799.903 436.183 793.453 402.31 780.44C360.043 764.2 323.587 738.907 292.94 704.56C265.047 673.287 245.323 637.477 233.77 597.13C231.163 588.023 229.097 578.797 227.57 569.45C227.52 569.19 227.3 569 227.03 569H189.1C188.57 569 188.17 569.47 188.25 569.99C195.237 615.53 211.59 657.347 237.31 695.44C268.477 741.587 309.077 777.52 359.11 803.24C365.09 806.32 371.12 809.16 377.2 811.76C418.54 829.48 462.14 838.477 508 838.75C508.64 838.757 509.07 838.673 509.29 838.5" stroke="#973845" stroke-width="2"/>
<path d="M509.29 838.5C557.19 838.267 602.777 828.03 646.05 807.79C683.917 790.077 717.087 766.417 745.56 736.81C793.693 686.77 823.173 627.083 834 557.75C837.687 534.163 838.423 509.997 836.21 485.25" stroke="#96918A" stroke-width="2"/>
<path d="M836.21 485.25C836.497 484.923 836.587 484.597 836.48 484.27C836.347 483.85 836.28 483.617 836.28 483.57C834.133 462.557 830.277 441.867 824.71 421.5" stroke="#973A45" stroke-width="2"/>
<path d="M824.71 421.5C808.923 367.827 781.763 321.047 743.23 281.16C738.583 276.347 733.783 271.72 728.83 267.28C678.797 222.493 620.01 195.81 552.47 187.23C513.777 182.317 475.467 184.29 437.54 193.15C410.127 199.557 384.133 209.61 359.56 223.31C305.287 253.577 262.713 295.683 231.84 349.63C209.493 388.683 195.363 430.69 189.45 475.65C189.39 476.13 189.76 476.56 190.25 476.56L228.42 476.44C228.74 476.44 229 476.21 229.05 475.89C238.397 414.59 263.51 361.217 304.39 315.77C308.97 310.677 313.607 305.89 318.3 301.41C336.38 284.157 356.417 269.48 378.41 257.38C403.403 243.627 429.823 233.937 457.67 228.31C464.11 227.01 470.697 225.99 477.43 225.25C505.343 222.203 533.203 223.027 561.01 227.72C592.25 232.993 621.727 243.273 649.44 258.56C685.087 278.233 715.587 305.067 740.94 339.06C760.24 364.953 774.913 393.933 784.96 426" stroke="#973351" stroke-width="2"/>
<path d="M824.71 421.5C823.79 421.607 823.287 422.083 823.2 422.93C823.17 423.21 822.95 423.42 822.69 423.42L790.76 423.48C790.47 423.48 790.14 423.58 789.83 423.77C788.543 424.557 787.16 424.813 785.68 424.54C785.35 424.48 785.06 424.65 785.04 424.91L784.96 426" stroke="#FE3C49" stroke-width="2"/>
<path d="M836.21 485.25C823.157 485.85 810.1 485.933 797.04 485.5" stroke="#FD9B82" stroke-width="2"/>
<path d="M509.29 838.5C509.637 825.6 509.623 812.697 509.25 799.79" stroke="#FC9982" stroke-width="2"/>
<path d="M272.44 476.41C279.02 476.217 285.88 476.233 293.02 476.46C293.64 476.48 294.19 476.05 294.3 475.44C299.92 445.787 310.34 418.493 325.56 393.56C345.767 360.46 373.31 334.09 408.19 314.45C438.423 297.423 471.49 288.51 507.39 287.71C508.11 287.69 508.69 287.11 508.69 286.39L508.75 248.99C508.75 248.7 508.52 248.47 508.23 248.48C457.03 249.76 410.777 264.447 369.47 292.54C364.043 296.233 358.697 300.207 353.43 304.46C315.663 334.947 287.873 373.037 270.06 418.73C262.907 437.083 257.877 456.07 254.97 475.69C254.91 476.1 255.23 476.47 255.65 476.48C261.53 476.587 267.127 476.563 272.44 476.41Z" stroke="#973351" stroke-width="2"/>
<path d="M509.21 735.25C508.71 735.083 507.973 735 507 735C484.213 735.06 461.827 731.81 439.84 725.25C433.48 723.35 427.197 721.13 420.99 718.59C382.083 702.67 350.44 678.037 326.06 644.69C309.967 622.677 298.863 597.377 292.75 568.79" stroke="#27717A" stroke-width="2"/>
<path d="M292.75 568.79L317.55 568.75C317.96 568.75 318.31 569.03 318.42 569.43C326.513 601.11 342.06 628.363 365.06 651.19C390.993 676.923 421.2 694.133 455.68 702.82C470.48 706.547 485.5 708.517 500.74 708.73C500.807 708.73 502.137 708.827 504.73 709.02C506.237 709.127 507.743 709.023 509.25 708.71" stroke="#983352" stroke-width="2"/>
<path d="M509.25 708.71C510.07 709.017 510.897 709.113 511.73 709C513.017 708.82 513.71 708.727 513.81 708.72C521.143 708.513 528.433 707.82 535.68 706.64C578.027 699.747 614.63 681.53 645.49 651.99C678.703 620.203 698.707 581.457 705.5 535.75C705.947 532.757 706.267 529.007 706.46 524.5" stroke="#977D4D" stroke-width="2"/>
<path d="M706.46 524.5C707.007 519.627 707.27 515.293 707.25 511.5C707.043 473.253 697.19 438.357 677.69 406.81C658.103 375.137 631.697 350.883 598.47 334.05C570.403 319.837 540.58 312.833 509 313.04" stroke="#27717A" stroke-width="2"/>
<path d="M509 313.04C477.36 313.313 447.797 321.157 420.31 336.57C383.35 357.297 355.627 386.743 337.14 424.91C329.44 440.803 323.827 457.757 320.3 475.77C320.23 476.15 320.52 476.5 320.9 476.5H360.28C360.79 476.5 361.24 476.14 361.35 475.64C368.49 443.633 383.893 416.273 407.56 393.56C435.36 366.887 469.173 352.937 509 351.71" stroke="#973351" stroke-width="2"/>
<path d="M509 351.71C561.2 353.177 602.927 373.627 634.18 413.06C638.447 418.453 642.237 423.933 645.55 429.5C660.83 455.213 668.143 483.38 667.49 514C667.417 517.413 667.35 520.83 667.29 524.25" stroke="#27717A" stroke-width="2"/>
<path d="M667.29 524.25C666.923 525.397 666.683 526.567 666.57 527.76C666.39 529.693 666.297 530.687 666.29 530.74C660.917 567.767 644.757 598.873 617.81 624.06C587.57 652.333 551.383 667.243 509.25 668.79" stroke="#977D4D" stroke-width="2"/>
<path d="M509.25 668.79L509.04 644" stroke="#983352" stroke-width="2"/>
<path d="M509.04 644C548.06 642.593 580.733 628.113 607.06 600.56C628.447 578.187 640.507 551.523 643.24 520.57C643.733 514.937 643.763 509.223 643.33 503.43C642.903 497.777 642.19 492.097 641.19 486.39C641.1 485.87 640.65 485.5 640.13 485.5L568.15 485.56C567.65 485.56 567.25 485.97 567.24 486.48L567 524C567 524.14 566.89 524.25 566.75 524.25L509.25 524.54" stroke="#977E4D" stroke-width="2"/>
<path d="M509.25 524.54L242.32 524.56C242.03 524.56 241.8 524.79 241.81 525.07L241.93 568.07C241.93 568.35 242.15 568.58 242.43 568.59L253.5 568.79" stroke="#983352" stroke-width="2"/>
<path d="M253.5 568.79C254.113 573.737 254.78 577.723 255.5 580.75C265.033 620.917 282.93 655.937 309.19 685.81C330.057 709.557 354.16 728.703 381.5 743.25C420.393 763.943 462.207 774.257 506.94 774.19C507.413 774.19 508.1 774.03 509 773.71" stroke="#27717A" stroke-width="2"/>
<path d="M509 773.71C509.547 773.937 510.38 774.033 511.5 774C565.733 772.453 614.793 756.33 658.68 725.63C683.293 708.41 704.213 688.097 721.44 664.69C747.587 629.143 763.78 589.39 770.02 545.43C770.96 538.817 771.6 532.183 771.94 525.53C773.9 487.47 768.023 450.857 754.31 415.69C733.75 362.943 699.647 320.963 652 289.75C621.46 269.743 587.48 257.12 550.06 251.88C549.8 251.84 549.56 252.05 549.56 252.32L549.5 289.77C549.5 290.68 550.15 291.45 551.05 291.61C582.437 297.163 611.35 309.37 637.79 328.23C661.103 344.857 680.403 364.883 695.69 388.31C723.903 431.55 735.923 478.967 731.75 530.56C731.197 537.4 730.353 544.007 729.22 550.38C724.26 578.353 714.167 604.207 698.94 627.94C677.147 661.9 648.353 688.69 612.56 708.31C580.953 725.643 546.573 734.56 509.42 735.06C509.35 735.06 509.29 735.1 509.26 735.16L509.21 735.25" stroke="#96918A" stroke-width="2"/>
<path d="M509 773.71L509.21 735.25" stroke="#8CD2B7" stroke-width="2"/>
<path d="M509.25 668.79V708.71" stroke="#FF8052" stroke-width="2"/>
<path d="M292.75 568.79H253.5" stroke="#8E747F" stroke-width="2"/>
<path d="M509.04 644L509.25 524.54" stroke="#FF8152" stroke-width="2"/>
<path d="M706.46 524.5L667.29 524.25" stroke="#8EBE7A" stroke-width="2"/>
<path d="M509 313.04C508.9 324.193 508.817 335.347 508.75 346.5C508.737 349.233 508.82 350.97 509 351.71" stroke="#8E737E" stroke-width="2"/>
<path d="M752.79 121.75C752.71 145.59 752.697 160.257 752.75 165.75C752.763 167.45 752.667 168.7 752.46 169.5C695.867 129.907 633.183 105.907 564.41 97.5C536.79 94.12 509.653 93.2867 483 95C436.08 98.0134 390.85 109.033 347.31 128.06C287.697 154.113 236.88 192.71 194.86 243.85C156.56 290.463 129.023 342.43 112.25 399.75C100.597 439.583 95 480.75 95.46 523.25C94.62 522.643 93.9433 522.727 93.43 523.5C93.24 523.79 92.97 523.98 92.7 524.02C91.2867 524.24 89.5533 524.317 87.5 524.25C78.6133 523.977 68.78 524.143 58 524.75C57.2267 524.797 56.7133 525.297 56.46 526.25C55.3733 481.03 60.9333 436.67 73.14 393.17C81.5533 363.183 92.7567 334.283 106.75 306.47C132.83 254.617 167.237 209.24 209.97 170.34C214.917 165.84 219.957 161.477 225.09 157.25C278.65 113.13 339.203 82.9634 406.75 66.75C447.37 56.9967 488.95 53.0634 531.49 54.95C607.063 58.3034 677.637 78.5767 743.21 115.77C746.49 117.63 749.683 119.623 752.79 121.75Z" fill="#FE3555"/>
<path d="M902.21 485.75L862.79 486C862.33 482.847 861.95 479.683 861.65 476.51C861.19 471.743 860.857 468.577 860.65 467.01C852.083 402.35 827.97 344.41 788.31 293.19C753.07 247.67 709.243 212.893 656.83 188.86C650.743 186.067 644.593 183.507 638.38 181.18C593.82 164.493 547.277 156.933 498.75 158.5C467.263 159.513 436.927 164.63 407.74 173.85C401.567 175.797 395.283 178.023 388.89 180.53C327.637 204.563 276.913 242.863 236.72 295.43C208.52 332.31 187.823 373.027 174.63 417.58C169.09 436.3 165.173 455.697 162.88 475.77C162.83 476.19 162.49 476.5 162.07 476.5H124.11C123.72 476.5 123.41 476.17 123.45 475.78C124.91 459.987 127.39 444.533 130.89 429.42C145.323 367.127 172.463 311.423 212.31 262.31C238.483 230.057 269.4 202.473 305.06 179.56C350.5 150.353 399.847 131.71 453.1 123.63C459.58 122.643 466.193 121.823 472.94 121.17C529.133 115.73 583.737 121.757 636.75 139.25C690.637 157.03 738.313 185.853 779.78 225.72C825.973 270.127 859.61 322.157 880.69 381.81C892.31 414.71 899.483 449.357 902.21 485.75Z" fill="#FE3555"/>
<path d="M752.79 121.75C764.59 128.863 775.223 135.967 784.69 143.06C826.063 174.067 861.353 211.26 890.56 254.64C923.827 304.06 946.737 357.927 959.29 416.24C966.93 451.747 970.32 487.667 969.46 524L928.54 524.25C930.227 444.083 910.98 369.573 870.8 300.72C841.287 250.14 803.27 207.567 756.75 173C754.637 171.433 753.207 170.267 752.46 169.5C752.667 168.7 752.763 167.45 752.75 165.75C752.697 160.257 752.71 145.59 752.79 121.75Z" fill="#FF78C9"/>
<path d="M824.71 421.5C823.79 421.607 823.287 422.083 823.2 422.93C823.17 423.21 822.95 423.42 822.69 423.42L790.76 423.48C790.47 423.48 790.14 423.58 789.83 423.77C788.543 424.557 787.16 424.813 785.68 424.54C785.35 424.48 785.06 424.65 785.04 424.91L784.96 426C774.913 393.933 760.24 364.953 740.94 339.06C715.587 305.067 685.087 278.233 649.44 258.56C621.727 243.273 592.25 232.993 561.01 227.72C533.203 223.027 505.343 222.203 477.43 225.25C470.697 225.99 464.11 227.01 457.67 228.31C429.823 233.937 403.403 243.627 378.41 257.38C356.417 269.48 336.38 284.157 318.3 301.41C313.607 305.89 308.97 310.677 304.39 315.77C263.51 361.217 238.397 414.59 229.05 475.89C229 476.21 228.74 476.44 228.42 476.44L190.25 476.56C189.76 476.56 189.39 476.13 189.45 475.65C195.363 430.69 209.493 388.683 231.84 349.63C262.713 295.683 305.287 253.577 359.56 223.31C384.133 209.61 410.127 199.557 437.54 193.15C475.467 184.29 513.777 182.317 552.47 187.23C620.01 195.81 678.797 222.493 728.83 267.28C733.783 271.72 738.583 276.347 743.23 281.16C781.763 321.047 808.923 367.827 824.71 421.5Z" fill="#FE3555"/>
<path d="M272.44 476.41C267.127 476.563 261.53 476.587 255.65 476.48C255.23 476.47 254.91 476.1 254.97 475.69C257.877 456.07 262.907 437.083 270.06 418.73C287.873 373.037 315.663 334.947 353.43 304.46C358.697 300.207 364.043 296.233 369.47 292.54C410.777 264.447 457.03 249.76 508.23 248.48C508.52 248.47 508.75 248.7 508.75 248.99L508.69 286.39C508.69 287.11 508.11 287.69 507.39 287.71C471.49 288.51 438.423 297.423 408.19 314.45C373.31 334.09 345.767 360.46 325.56 393.56C310.34 418.493 299.92 445.787 294.3 475.44C294.19 476.05 293.64 476.48 293.02 476.46C285.88 476.233 279.02 476.217 272.44 476.41Z" fill="#FE3555"/>
<path d="M509 773.71L509.21 735.25L509.26 735.16C509.29 735.1 509.35 735.06 509.42 735.06C546.573 734.56 580.953 725.643 612.56 708.31C648.353 688.69 677.147 661.9 698.94 627.94C714.167 604.207 724.26 578.353 729.22 550.38C730.353 544.007 731.197 537.4 731.75 530.56C735.923 478.967 723.903 431.55 695.69 388.31C680.403 364.883 661.103 344.857 637.79 328.23C611.35 309.37 582.437 297.163 551.05 291.61C550.15 291.45 549.5 290.68 549.5 289.77L549.56 252.32C549.56 252.05 549.8 251.84 550.06 251.88C587.48 257.12 621.46 269.743 652 289.75C699.647 320.963 733.75 362.943 754.31 415.69C768.023 450.857 773.9 487.47 771.94 525.53C771.6 532.183 770.96 538.817 770.02 545.43C763.78 589.39 747.587 629.143 721.44 664.69C704.213 688.097 683.293 708.41 658.68 725.63C614.793 756.33 565.733 772.453 511.5 774C510.38 774.033 509.547 773.937 509 773.71Z" fill="#FBF2C7"/>
<path d="M509 313.04C508.9 324.193 508.817 335.347 508.75 346.5C508.737 349.233 508.82 350.97 509 351.71C469.173 352.937 435.36 366.887 407.56 393.56C383.893 416.273 368.49 443.633 361.35 475.64C361.24 476.14 360.79 476.5 360.28 476.5H320.9C320.52 476.5 320.23 476.15 320.3 475.77C323.827 457.757 329.44 440.803 337.14 424.91C355.627 386.743 383.35 357.297 420.31 336.57C447.797 321.157 477.36 313.313 509 313.04Z" fill="#FE3555"/>
<path d="M509 313.04C540.58 312.833 570.403 319.837 598.47 334.05C631.697 350.883 658.103 375.137 677.69 406.81C697.19 438.357 707.043 473.253 707.25 511.5C707.27 515.293 707.007 519.627 706.46 524.5L667.29 524.25C667.35 520.83 667.417 517.413 667.49 514C668.143 483.38 660.83 455.213 645.55 429.5C642.237 423.933 638.447 418.453 634.18 413.06C602.927 373.627 561.2 353.177 509 351.71C508.82 350.97 508.737 349.233 508.75 346.5C508.817 335.347 508.9 324.193 509 313.04Z" fill="#1DB1A7"/>
<path d="M824.71 421.5C830.277 441.867 834.133 462.557 836.28 483.57C836.28 483.617 836.347 483.85 836.48 484.27C836.587 484.597 836.497 484.923 836.21 485.25C823.157 485.85 810.1 485.933 797.04 485.5C794.893 465.28 790.867 445.447 784.96 426L785.04 424.91C785.06 424.65 785.35 424.48 785.68 424.54C787.16 424.813 788.543 424.557 789.83 423.77C790.14 423.58 790.47 423.48 790.76 423.48L822.69 423.42C822.95 423.42 823.17 423.21 823.2 422.93C823.287 422.083 823.79 421.607 824.71 421.5Z" fill="#FE433C"/>
<path d="M836.21 485.25C838.423 509.997 837.687 534.163 834 557.75C823.173 627.083 793.693 686.77 745.56 736.81C717.087 766.417 683.917 790.077 646.05 807.79C602.777 828.03 557.19 838.267 509.29 838.5C509.637 825.6 509.623 812.697 509.25 799.79C550.01 799.51 588.177 791.247 623.75 775C681.85 748.467 726.997 708.03 759.19 653.69C783.203 613.15 796.057 568.837 797.75 520.75C798.077 511.457 797.84 499.707 797.04 485.5C810.1 485.933 823.157 485.85 836.21 485.25Z" fill="#FBF2C7"/>
<path d="M509.04 644L509.25 524.54L566.75 524.25C566.89 524.25 567 524.14 567 524L567.24 486.48C567.25 485.97 567.65 485.56 568.15 485.56L640.13 485.5C640.65 485.5 641.1 485.87 641.19 486.39C642.19 492.097 642.903 497.777 643.33 503.43C643.763 509.223 643.733 514.937 643.24 520.57C640.507 551.523 628.447 578.187 607.06 600.56C580.733 628.113 548.06 642.593 509.04 644Z" fill="#FECB4C"/>
<path d="M902.21 485.75C903.297 499.757 903.477 514.34 902.75 529.5C899.53 596.713 880.297 658.817 845.05 715.81C816.937 761.257 781.017 799.32 737.29 830C737.217 805.373 737.203 790.457 737.25 785.25C737.263 783.79 737 782.623 736.46 781.75C767.133 755.657 792.377 726.387 812.19 693.94C850.71 630.84 867.577 561.527 862.79 486L902.21 485.75Z" fill="#FAA646"/>
<path d="M95.46 523.25C95.64 523.643 95.7367 524.393 95.75 525.5C96.1033 555.8 100.127 586.227 107.82 616.78C123.047 677.273 150.337 731.367 189.69 779.06C226.557 823.747 271.133 859.137 323.42 885.23C382.26 914.59 444.37 929.263 509.75 929.25C544.543 929.243 579.293 924.653 614 915.48C659.46 903.467 701.877 884.627 741.25 858.96L805.5 860.04C805.167 860.6 804.52 861.273 803.56 862.06C762.48 895.633 716.23 921.883 664.81 940.81C618.723 957.777 571.87 967.09 524.25 968.75C510.39 969.23 495.13 968.9 478.47 967.76C471.603 967.293 464.967 966.687 458.56 965.94C367.527 955.36 287.257 921.047 217.75 863C176.403 828.473 141.967 786.827 114.44 738.06C77.7733 673.113 58.4467 602.51 56.46 526.25C56.7133 525.297 57.2267 524.797 58 524.75C68.78 524.143 78.6133 523.977 87.5 524.25C89.5533 524.317 91.2867 524.24 92.7 524.02C92.97 523.98 93.24 523.79 93.43 523.5C93.9433 522.727 94.62 522.643 95.46 523.25Z" fill="#FD403D"/>
<path d="M969.46 524C968.1 560.107 962.767 595.607 953.46 630.5C953.313 630.707 953.057 630.81 952.69 630.81C940.79 630.797 928.893 630.777 917 630.75C914.453 630.743 912.633 630.827 911.54 631C921.853 596.167 927.52 560.583 928.54 524.25L969.46 524Z" fill="#FAA846"/>
<path d="M509.25 524.54L509.04 644L509.25 668.79V708.71C507.743 709.023 506.237 709.127 504.73 709.02C502.137 708.827 500.807 708.73 500.74 708.73C485.5 708.517 470.48 706.547 455.68 702.82C421.2 694.133 390.993 676.923 365.06 651.19C342.06 628.363 326.513 601.11 318.42 569.43C318.31 569.03 317.96 568.75 317.55 568.75L292.75 568.79H253.5L242.43 568.59C242.15 568.58 241.93 568.35 241.93 568.07L241.81 525.07C241.8 524.79 242.03 524.56 242.32 524.56L509.25 524.54Z" fill="#FF3657"/>
<path d="M667.29 524.25L706.46 524.5C706.267 529.007 705.947 532.757 705.5 535.75C698.707 581.457 678.703 620.203 645.49 651.99C614.63 681.53 578.027 699.747 535.68 706.64C528.433 707.82 521.143 708.513 513.81 708.72C513.71 708.727 513.017 708.82 511.73 709C510.897 709.113 510.07 709.017 509.25 708.71V668.79C551.383 667.243 587.57 652.333 617.81 624.06C644.757 598.873 660.917 567.767 666.29 530.74C666.297 530.687 666.39 529.693 666.57 527.76C666.683 526.567 666.923 525.397 667.29 524.25Z" fill="#FECA4C"/>
<path d="M292.75 568.79C298.863 597.377 309.967 622.677 326.06 644.69C350.44 678.037 382.083 702.67 420.99 718.59C427.197 721.13 433.48 723.35 439.84 725.25C461.827 731.81 484.213 735.06 507 735C507.973 735 508.71 735.083 509.21 735.25L509 773.71C508.1 774.03 507.413 774.19 506.94 774.19C462.207 774.257 420.393 763.943 381.5 743.25C354.16 728.703 330.057 709.557 309.19 685.81C282.93 655.937 265.033 620.917 255.5 580.75C254.78 577.723 254.113 573.737 253.5 568.79H292.75Z" fill="#1DB1A7"/>
<path d="M736.46 781.75C737 782.623 737.263 783.79 737.25 785.25C737.203 790.457 737.217 805.373 737.29 830C736.81 830.527 735.527 831.507 733.44 832.94C689.727 862.92 641.933 883.543 590.06 894.81C555.84 902.25 521.237 904.9 486.25 902.76C414.21 898.36 348.73 876.253 289.81 836.44C247.57 807.893 212.143 771.913 183.53 728.5C151.723 680.24 131.877 627.38 123.99 569.92C123.92 569.43 124.3 569 124.79 569H161.57C162.33 569 162.95 569.59 162.98 570.35C163.073 572.443 163.27 574.39 163.57 576.19C167.543 600.183 174.013 623.437 182.98 645.95C185.393 652.01 188.07 658.113 191.01 664.26C215.017 714.407 248.887 756.613 292.62 790.88C297.813 794.953 303.197 798.88 308.77 802.66C374.93 847.56 448.347 867.967 529.02 863.88C535.72 863.54 542.36 862.97 548.94 862.17C619.2 853.663 681.707 826.857 736.46 781.75Z" fill="#FD403D"/>
<path d="M509.25 799.79C509.623 812.697 509.637 825.6 509.29 838.5C509.07 838.673 508.64 838.757 508 838.75C462.14 838.477 418.54 829.48 377.2 811.76C371.12 809.16 365.09 806.32 359.11 803.24C309.077 777.52 268.477 741.587 237.31 695.44C211.59 657.347 195.237 615.53 188.25 569.99C188.17 569.47 188.57 569 189.1 569H227.03C227.3 569 227.52 569.19 227.57 569.45C229.097 578.797 231.163 588.023 233.77 597.13C245.323 637.477 265.047 673.287 292.94 704.56C323.587 738.907 360.043 764.2 402.31 780.44C436.183 793.453 471.83 799.903 509.25 799.79Z" fill="#FD403D"/>
<path d="M953.46 630.5C944.027 665.273 929.937 699.42 911.19 732.94C889.683 771.38 862.473 806.587 829.56 838.56C820.08 847.773 812.06 854.933 805.5 860.04L741.25 858.96C742.417 857.947 743.637 857.007 744.91 856.14C772.57 837.28 797.657 815.457 820.17 790.67C862.363 744.223 892.82 691 911.54 631C912.633 630.827 914.453 630.743 917 630.75C928.893 630.777 940.79 630.797 952.69 630.81C953.057 630.81 953.313 630.707 953.46 630.5Z" fill="#1DB1A7"/>
</svg>
