<?xml version="1.0" encoding="UTF-8" standalone="no"?><!-- Generator: Gravit.io --><svg xmlns="http://www.w3.org/2000/svg" xmlns:xlink="http://www.w3.org/1999/xlink" style="isolation:isolate" viewBox="641.33 544.076 269.525 192.673" width="269.525pt" height="192.673pt"><defs><clipPath id="_clipPath_N7FwMRHh6boVNhJdBTqUWLaxbk94mCfd"><rect x="641.33" y="544.076" width="269.525" height="192.673"/></clipPath></defs><g clip-path="url(#_clipPath_N7FwMRHh6boVNhJdBTqUWLaxbk94mCfd)"><rect x="641.33" y="544.076" width="269.525" height="192.673" style="fill:rgb(6,6,6)" fill-opacity="0"/><g><path d=" M 772.199 554.038 Q 773.259 553.918 774.129 554.558 Q 784.129 561.868 784.159 574.498 Q 780.369 573.618 776.559 573.928 Q 772.289 574.278 771.259 573.948 Q 768.669 573.128 766.889 570.368 C 766.622 569.956 766.708 569.411 767.089 569.098 Q 768.769 567.718 768.359 567.638 Q 768.059 567.578 767.449 568.068 Q 766.339 568.958 765.349 569.228 Q 760.939 570.428 757.229 573.318 Q 755.779 574.448 757.549 574.948 Q 761.649 576.108 763.959 578.988 Q 766.019 581.568 769.589 582.668 C 769.753 582.72 769.879 582.851 769.925 583.016 C 769.972 583.181 769.932 583.359 769.819 583.488 Q 767.879 585.698 770.059 585.808 Q 770.719 585.848 771.739 585.588 Q 775.869 584.578 780.529 582.688 C 781.373 582.351 782.336 582.513 783.019 583.108 Q 785.389 585.178 783.289 587.528 Q 782.259 588.688 782.219 588.738 Q 780.879 590.448 780.269 591.388 Q 779.119 593.138 779.919 595.078 Q 781.419 598.678 783.599 596.728 Q 784.719 595.718 785.619 596.038 Q 786.059 606.348 783.369 616.288 Q 782.129 617.238 779.349 616.848 Q 771.609 615.778 764.159 618.038 Q 761.729 618.778 764.159 619.538 Q 767.779 620.668 770.329 623.418 C 770.412 623.51 770.449 623.635 770.43 623.757 C 770.41 623.879 770.337 623.986 770.229 624.048 Q 765.229 627.018 760.909 626.538 Q 757.469 626.158 749.879 623.338 Q 747.979 622.638 746.849 622.828 Q 745.189 623.098 743.979 624.408 C 743.765 624.64 743.703 624.975 743.819 625.268 L 746.199 631.338 C 746.366 631.637 746.398 631.973 746.289 632.288 Q 745.929 633.908 745.719 635.548 Q 745.349 638.528 742.599 639.728 Q 739.819 640.938 736.529 643.948 C 736.306 644.141 736.264 644.466 736.429 644.708 Q 742.309 653.628 753.329 648.078 Q 755.769 646.848 756.909 649.328 Q 759.019 653.928 764.659 656.828 Q 764.709 657.438 764.099 657.978 Q 758.489 662.898 752.659 669.828 Q 750.959 669.568 749.379 670.108 C 749.076 670.203 748.745 670.182 748.459 670.048 Q 742.719 667.018 741.469 665.728 Q 738.619 662.778 733.969 661.228 Q 726.479 658.728 718.659 653.498 L 716.029 651.138 C 715.784 650.929 715.683 650.603 715.769 650.298 Q 716.559 647.368 719.849 647.598 Q 721.619 647.728 725.219 650.978 Q 726.799 652.398 730.399 653.768 Q 731.059 654.008 731.579 653.928 Q 732.839 653.728 732.239 652.668 Q 731.999 652.228 731.309 651.678 Q 726.869 648.118 723.969 643.978 Q 721.869 640.958 718.619 640.048 Q 715.919 639.288 715.469 638.988 Q 712.809 637.268 716.349 634.728 Q 717.929 633.588 719.299 633.218 Q 720.589 632.868 722.329 633.798 Q 724.219 634.808 726.099 635.838 Q 732.679 639.458 739.989 637.348 Q 742.249 636.698 739.969 636.108 Q 734.599 634.728 729.489 631.148 Q 725.959 628.688 722.079 626.178 Q 720.489 625.148 719.209 625.978 L 715.659 628.248 Q 717.039 624.828 713.409 624.038 Q 713.059 623.958 712.659 623.248 Q 715.529 620.738 716.719 619.348 Q 720.129 615.388 725.279 616.988 C 726.113 617.254 726.737 617.951 726.909 618.808 Q 727.169 620.078 728.039 620.858 Q 728.749 621.498 730.089 621.658 Q 734.559 622.208 737.029 619.208 Q 738.979 616.828 738.499 612.928 Q 737.779 607.048 733.849 603.578 Q 732.109 602.058 731.869 604.358 Q 731.569 607.088 730.649 608.598 Q 729.769 610.018 727.059 610.218 Q 723.159 610.508 720.909 610.288 Q 717.489 609.958 715.469 611.348 Q 711.269 614.258 709.939 620.118 Q 709.569 621.718 708.909 623.248 Q 706.569 623.038 707.029 620.988 Q 707.139 620.518 707.129 620.078 Q 707.109 618.718 708.019 619.428 C 708.227 619.581 708.498 619.621 708.742 619.535 C 708.985 619.448 709.168 619.246 709.229 618.998 Q 710.639 612.998 715.349 609.978 Q 717.139 608.828 716.669 607.318 C 716.512 607.034 716.534 606.712 716.729 606.438 L 717.949 603.288 Q 718.519 603.848 719.219 603.598 Q 721.909 602.648 723.579 599.838 Q 724.639 598.038 722.859 596.958 Q 720.169 595.338 722.159 593.528 Q 724.459 591.438 722.909 588.828 Q 724.569 589.018 726.159 589.468 Q 729.829 590.508 731.329 586.568 Q 732.029 584.728 730.759 583.238 Q 729.039 581.218 727.529 580.478 Q 725.939 579.708 727.119 578.538 Q 733.449 583.278 736.689 590.498 Q 738.399 594.308 742.659 593.788 Q 747.549 593.188 749.509 589.298 Q 750.789 586.758 750.289 584.498 Q 749.659 581.658 746.149 580.828 Q 744.409 580.418 742.659 579.998 Q 743.529 577.998 743.369 575.788 Q 743.999 574.968 744.559 574.098 Q 745.159 573.178 745.959 572.658 Q 750.069 570.038 753.409 569.288 Q 759.459 567.928 764.639 564.528 Q 767.289 562.788 768.369 559.778 Q 769.579 556.408 772.199 554.038 Z " fill="rgb(195,229,109)"/><path d=" M 729.699 571.788 L 727.119 578.538 Q 725.939 579.708 727.529 580.478 Q 729.039 581.218 730.759 583.238 Q 732.029 584.728 731.329 586.568 Q 729.829 590.508 726.159 589.468 Q 724.569 589.018 722.909 588.828 Q 720.439 586.628 718.469 588.598 Q 716.339 590.728 714.209 592.858 Q 712.869 594.208 712.299 595.338 Q 710.269 599.428 716.409 597.368 C 716.739 597.311 717.081 597.394 717.335 597.594 C 717.589 597.793 717.727 598.086 717.709 598.388 L 717.949 603.288 L 716.729 606.438 C 716.534 606.712 716.512 607.034 716.669 607.318 Q 717.139 608.828 715.349 609.978 Q 710.639 612.998 709.229 618.998 C 709.168 619.246 708.985 619.448 708.742 619.535 C 708.498 619.621 708.227 619.581 708.019 619.428 Q 707.109 618.718 707.129 620.078 Q 707.139 620.518 707.029 620.988 Q 706.569 623.038 708.909 623.248 Q 710.789 623.938 712.659 623.248 Q 713.059 623.958 713.409 624.038 Q 717.039 624.828 715.659 628.248 Q 711.009 632.348 711.349 638.488 Q 711.379 639.138 711.199 640.058 Q 711.039 640.878 711.139 641.668 C 711.187 641.994 711.071 642.323 710.829 642.547 C 710.587 642.77 710.251 642.861 709.929 642.788 Q 707.349 642.228 706.369 639.768 Q 703.929 633.628 703.449 627.038 L 703.119 613.288 L 703.619 608.788 Q 703.689 610.788 703.599 612.788 Q 703.529 614.228 704.179 613.448 Q 704.339 613.248 704.379 612.928 Q 705.549 603.638 709.129 594.988 Q 713.129 585.318 720.409 577.828 Q 721.359 577.498 721.589 576.538 C 721.611 576.23 721.778 575.94 722.059 575.718 L 727.409 570.998 Q 729.039 570.278 729.699 571.788 Z " fill="rgb(222,224,82)"/><path d=" M 761.159 553.498 L 766.149 553.678 Q 766.389 553.688 766.189 553.898 Q 765.999 554.108 766.199 554.538 Q 763.929 554.078 760.659 555.038 Q 747.009 559.058 737.199 567.538 Q 736.629 565.438 734.969 566.348 Q 732.139 567.908 729.699 571.788 Q 729.039 570.278 727.409 570.998 L 729.369 568.038 L 738.159 561.578 Q 743.209 558.548 748.749 556.518 C 749.194 556.374 749.435 556.12 749.369 555.868 L 751.159 552.488 C 751.282 552.246 751.574 552.054 751.949 551.968 Q 754.439 551.378 754.269 553.988 C 754.257 554.103 754.299 554.218 754.384 554.301 C 754.469 554.384 754.588 554.427 754.709 554.418 L 761.159 553.498 Z " fill="rgb(178,201,107)"/><path d=" M 722.909 588.828 Q 724.459 591.438 722.159 593.528 Q 720.169 595.338 722.859 596.958 Q 724.639 598.038 723.579 599.838 Q 721.909 602.648 719.219 603.598 Q 718.519 603.848 717.949 603.288 L 717.709 598.388 C 717.727 598.086 717.589 597.793 717.335 597.594 C 717.081 597.394 716.739 597.311 716.409 597.368 Q 710.269 599.428 712.299 595.338 Q 712.869 594.208 714.209 592.858 Q 716.339 590.728 718.469 588.598 Q 720.439 586.628 722.909 588.828 Z " fill="rgb(178,201,107)"/><path d=" M 712.659 623.248 Q 710.789 623.938 708.909 623.248 Q 709.569 621.718 709.939 620.118 Q 711.269 614.258 715.469 611.348 Q 717.489 609.958 720.909 610.288 Q 723.159 610.508 727.059 610.218 Q 729.769 610.018 730.649 608.598 Q 731.569 607.088 731.869 604.358 Q 732.109 602.058 733.849 603.578 Q 737.779 607.048 738.499 612.928 Q 738.979 616.828 737.029 619.208 Q 734.559 622.208 730.089 621.658 Q 728.749 621.498 728.039 620.858 Q 727.169 620.078 726.909 618.808 C 726.737 617.951 726.113 617.254 725.279 616.988 Q 720.129 615.388 716.719 619.348 Q 715.529 620.738 712.659 623.248 Z " fill="rgb(151,176,105)"/><path d=" M 784.159 574.498 L 786.199 576.038 Q 785.459 579.508 786.159 583.788 Q 786.759 587.498 785.969 592.098 Q 785.719 593.538 786.449 594.288 L 785.619 596.038 Q 784.719 595.718 783.599 596.728 Q 781.419 598.678 779.919 595.078 Q 779.119 593.138 780.269 591.388 Q 780.879 590.448 782.219 588.738 Q 782.259 588.688 783.289 587.528 Q 785.389 585.178 783.019 583.108 C 782.336 582.513 781.373 582.351 780.529 582.688 Q 775.869 584.578 771.739 585.588 Q 770.719 585.848 770.059 585.808 Q 767.879 585.698 769.819 583.488 C 769.932 583.359 769.972 583.181 769.925 583.016 C 769.879 582.851 769.753 582.72 769.589 582.668 Q 766.019 581.568 763.959 578.988 Q 761.649 576.108 757.549 574.948 Q 755.779 574.448 757.229 573.318 Q 760.939 570.428 765.349 569.228 Q 766.339 568.958 767.449 568.068 Q 768.059 567.578 768.359 567.638 Q 768.769 567.718 767.089 569.098 C 766.708 569.411 766.622 569.956 766.889 570.368 Q 768.669 573.128 771.259 573.948 Q 772.289 574.278 776.559 573.928 Q 780.369 573.618 784.159 574.498 Z " fill="rgb(147,179,115)"/><path d=" M 783.369 616.288 Q 783.429 616.518 783.659 616.578 Q 781.579 625.828 777.979 634.588 Q 777.819 634.958 777.719 635.348 Q 776.809 638.888 776.639 637.848 Q 776.579 637.498 776.489 637.838 L 776.199 639.038 Q 776.569 637.048 775.629 635.518 Q 775.379 635.098 775.289 634.598 Q 774.999 632.988 773.569 632.808 Q 772.839 632.718 771.469 633.318 Q 765.219 636.078 758.439 635.468 Q 756.429 635.288 755.449 635.758 Q 753.969 636.468 753.179 638.018 C 753.047 638.281 753.137 638.598 753.389 638.758 Q 756.749 641.008 760.279 642.968 Q 762.799 644.368 764.439 646.748 Q 766.229 649.368 769.159 650.578 L 765.369 656.538 Q 764.959 656.538 764.659 656.828 Q 759.019 653.928 756.909 649.328 Q 755.769 646.848 753.329 648.078 Q 742.309 653.628 736.429 644.708 C 736.264 644.466 736.306 644.141 736.529 643.948 Q 739.819 640.938 742.599 639.728 Q 745.349 638.528 745.719 635.548 Q 745.929 633.908 746.289 632.288 C 746.398 631.973 746.366 631.637 746.199 631.338 L 743.819 625.268 C 743.703 624.975 743.765 624.64 743.979 624.408 Q 745.189 623.098 746.849 622.828 Q 747.979 622.638 749.879 623.338 Q 757.469 626.158 760.909 626.538 Q 765.229 627.018 770.229 624.048 C 770.337 623.986 770.41 623.879 770.43 623.757 C 770.449 623.635 770.412 623.51 770.329 623.418 Q 767.779 620.668 764.159 619.538 Q 761.729 618.778 764.159 618.038 Q 771.609 615.778 779.349 616.848 Q 782.129 617.238 783.369 616.288 Z " fill="rgb(147,179,115)"/><path d=" M 772.409 552.248 L 772.199 554.038 Q 769.579 556.408 768.369 559.778 Q 767.289 562.788 764.639 564.528 Q 759.459 567.928 753.409 569.288 Q 750.069 570.038 745.959 572.658 Q 745.159 573.178 744.559 574.098 Q 743.999 574.968 743.369 575.788 Q 740.029 575.148 740.229 572.638 Q 740.359 571.008 742.259 569.778 Q 744.729 568.178 748.099 566.728 Q 754.459 563.978 761.629 559.278 Q 764.469 557.428 766.199 554.538 Q 765.999 554.108 766.189 553.898 Q 766.389 553.688 766.149 553.678 L 761.159 553.498 L 772.409 552.248 Z " fill="rgb(155,185,109)"/><path d=" M 737.199 567.538 Q 734.889 570.158 734.219 572.848 Q 733.349 576.348 736.629 578.088 Q 739.469 579.598 742.659 579.998 Q 744.409 580.418 746.149 580.828 Q 749.659 581.658 750.289 584.498 Q 750.789 586.758 749.509 589.298 Q 747.549 593.188 742.659 593.788 Q 738.399 594.308 736.689 590.498 Q 733.449 583.278 727.119 578.538 L 729.699 571.788 Q 732.139 567.908 734.969 566.348 Q 736.629 565.438 737.199 567.538 Z " fill="rgb(155,185,109)"/><path d=" M 718.659 653.498 L 716.619 652.968 Q 716.069 652.828 715.669 652.878 Q 713.979 653.088 712.839 651.858 Q 711.539 650.468 706.219 645.228 Q 704.869 643.898 705.059 642.288 C 705.361 641.984 705.314 641.617 704.939 641.348 Q 704.089 639.878 702.409 639.328 Q 703.349 639.118 703.219 637.978 Q 702.949 635.508 702.619 633.038 L 703.449 627.038 Q 703.929 633.628 706.369 639.768 Q 707.349 642.228 709.929 642.788 C 710.251 642.861 710.587 642.77 710.829 642.547 C 711.071 642.323 711.187 641.994 711.139 641.668 Q 711.039 640.878 711.199 640.058 Q 711.379 639.138 711.349 638.488 Q 711.009 632.348 715.659 628.248 L 719.209 625.978 Q 720.489 625.148 722.079 626.178 Q 725.959 628.688 729.489 631.148 Q 734.599 634.728 739.969 636.108 Q 742.249 636.698 739.989 637.348 Q 732.679 639.458 726.099 635.838 Q 724.219 634.808 722.329 633.798 Q 720.589 632.868 719.299 633.218 Q 717.929 633.588 716.349 634.728 Q 712.809 637.268 715.469 638.988 Q 715.919 639.288 718.619 640.048 Q 721.869 640.958 723.969 643.978 Q 726.869 648.118 731.309 651.678 Q 731.999 652.228 732.239 652.668 Q 732.839 653.728 731.579 653.928 Q 731.059 654.008 730.399 653.768 Q 726.799 652.398 725.219 650.978 Q 721.619 647.728 719.849 647.598 Q 716.559 647.368 715.769 650.298 C 715.683 650.603 715.784 650.929 716.029 651.138 L 718.659 653.498 Z " fill="rgb(155,185,109)"/><path d=" M 787.449 555.538 Q 783.519 556.138 778.239 552.998 C 777.66 552.652 776.974 552.527 776.309 552.648 Q 775.419 552.808 775.669 552.198 C 775.751 552.011 776.033 551.866 776.389 551.828 L 778.659 551.578 Q 783.479 549.358 786.119 544.688 Q 786.809 543.468 787.089 544.678 Q 787.169 544.988 787.099 545.388 Q 786.209 550.488 787.449 555.538 Z " fill="rgb(187,228,116)"/><path d=" M 791.869 555.038 L 788.659 555.498 Q 788.369 551.818 790.349 549.978 Q 794.259 546.318 792.929 552.288 Q 792.609 553.748 791.869 555.038 Z " fill="rgb(187,228,116)"/><path d=" M 776.199 639.038 L 775.909 639.998 L 772.359 643.798 Q 771.989 644.198 771.869 644.598 L 770.449 649.288 L 769.159 650.578 Q 766.229 649.368 764.439 646.748 Q 762.799 644.368 760.279 642.968 Q 756.749 641.008 753.389 638.758 C 753.137 638.598 753.047 638.281 753.179 638.018 Q 753.969 636.468 755.449 635.758 Q 756.429 635.288 758.439 635.468 Q 765.219 636.078 771.469 633.318 Q 772.839 632.718 773.569 632.808 Q 774.999 632.988 775.289 634.598 Q 775.379 635.098 775.629 635.518 Q 776.569 637.048 776.199 639.038 Z " fill="rgb(187,228,116)"/><path d=" M 750.909 675.748 L 758.909 680.328 L 770.899 688.968 C 771.147 689.134 771.463 689.176 771.748 689.081 C 772.033 688.986 772.253 688.765 772.339 688.488 Q 772.869 686.418 774.549 687.868 Q 775.429 688.628 777.909 689.038 Q 779.079 689.238 779.699 690.788 Q 779.469 691.368 778.159 693.788 Q 776.949 696.008 774.999 696.188 Q 773.789 696.298 771.709 695.008 Q 769.169 693.438 768.099 693.098 Q 761.759 691.108 757.439 688.358 Q 755.479 687.108 753.209 687.578 Q 750.429 688.138 749.129 687.098 Q 748.739 686.788 747.969 684.068 Q 746.979 680.548 742.159 680.538 Q 736.959 680.528 736.459 675.798 Q 736.269 674.048 737.269 673.068 Q 738.089 672.268 739.279 672.108 Q 740.119 672.008 741.309 672.598 Q 745.879 674.858 750.909 675.748 Z " fill="rgb(233,246,155)"/><path d=" M 784.159 693.078 Q 785.929 692.888 787.509 693.478 Q 790.319 694.538 790.579 694.598 Q 793.999 695.448 798.659 697.038 Q 801.499 698.008 802.449 700.538 Q 802.809 702.408 804.439 703.118 C 804.754 703.231 804.952 703.494 804.939 703.778 Q 804.959 705.178 804.409 706.498 Q 801.369 707.728 799.159 707.038 Q 796.309 706.148 793.559 705.008 Q 791.229 704.038 791.159 701.268 C 791.148 700.864 790.925 700.497 790.571 700.301 C 790.217 700.106 789.787 700.112 789.439 700.318 Q 783.439 703.878 780.839 697.498 C 780.559 697.226 780.593 696.846 780.919 696.608 L 784.159 693.078 Z " fill="rgb(233,246,155)"/><path d=" M 815.619 576.538 Q 813.629 574.978 812.409 572.748 Q 817.269 571.608 815.619 576.538 Z " fill="rgb(181,177,131)"/><path d=" M 766.199 554.538 Q 764.469 557.428 761.629 559.278 Q 754.459 563.978 748.099 566.728 Q 744.729 568.178 742.259 569.778 Q 740.359 571.008 740.229 572.638 Q 740.029 575.148 743.369 575.788 Q 743.529 577.998 742.659 579.998 Q 739.469 579.598 736.629 578.088 Q 733.349 576.348 734.219 572.848 Q 734.889 570.158 737.199 567.538 Q 747.009 559.058 760.659 555.038 Q 763.929 554.078 766.199 554.538 Z " fill="rgb(212,229,97)"/><path d=" M 820.619 652.288 Q 819.279 655.388 816.409 657.078 Q 815.799 654.788 814.349 653.848 Q 811.529 652.038 808.699 650.258 Q 805.069 647.978 805.019 647.938 Q 803.139 646.268 803.329 643.598 Q 803.509 641.048 803.729 639.968 Q 804.259 637.338 807.629 637.978 Q 812.879 638.968 815.729 643.428 Q 818.209 647.298 819.839 651.598 Q 820.039 652.128 820.619 652.288 Z " fill="rgb(117,145,160)"/><path d=" M 791.869 555.038 Q 791.509 556.088 791.719 557.118 C 791.743 557.437 791.929 557.731 792.229 557.928 L 796.729 561.038 C 797.203 561.135 797.718 561.033 798.049 560.778 L 801.469 557.848 Q 803.269 556.308 804.219 559.728 Q 804.929 562.288 802.409 562.498 Q 800.049 560.278 798.409 562.748 Q 793.499 561.308 789.319 558.338 Q 789.039 558.138 788.739 557.568 L 787.659 555.578 L 788.659 555.498 L 791.869 555.038 Z " fill="rgb(149,163,138)"/><path d=" M 786.199 576.038 Q 788.099 575.878 789.349 577.848 Q 792.459 582.758 790.869 587.618 Q 790.459 588.878 788.719 590.948 Q 787.409 592.488 786.449 594.288 Q 785.719 593.538 785.969 592.098 Q 786.759 587.498 786.159 583.788 Q 785.459 579.508 786.199 576.038 Z " fill="rgb(149,163,138)"/><path d=" M 720.409 577.828 Q 713.129 585.318 709.129 594.988 Q 705.549 603.638 704.379 612.928 Q 704.339 613.248 704.179 613.448 Q 703.529 614.228 703.599 612.788 Q 703.689 610.788 703.619 608.788 Q 706.439 591.278 717.869 577.788 L 720.409 577.828 Z " fill="rgb(149,163,138)"/><path d=" M 778.659 551.578 L 776.389 551.828 C 776.033 551.866 775.751 552.011 775.669 552.198 Q 775.419 552.808 776.309 552.648 C 776.974 552.527 777.66 552.652 778.239 552.998 Q 783.519 556.138 787.449 555.538 L 787.659 555.578 L 788.739 557.568 Q 789.039 558.138 789.319 558.338 Q 793.499 561.308 798.409 562.748 Q 806.919 570.228 805.099 581.568 Q 804.519 585.158 804.409 588.728 C 804.39 589.296 804.607 589.846 805.009 590.248 Q 809.869 595.168 812.789 599.678 Q 816.029 604.668 818.219 606.228 Q 820.899 608.118 821.469 611.728 Q 822.299 616.868 817.359 615.768 Q 814.589 615.158 812.599 613.848 Q 805.329 609.088 797.099 603.928 C 796.574 603.606 795.895 603.685 795.459 604.118 Q 794.099 605.478 793.209 606.568 Q 790.609 609.768 794.199 611.528 Q 796.689 612.738 798.369 614.898 C 798.602 615.136 798.657 615.472 798.509 615.758 Q 797.869 617.278 795.659 616.788 Q 792.299 616.038 786.159 615.788 Q 784.239 615.708 783.659 616.578 Q 783.429 616.518 783.369 616.288 Q 786.059 606.348 785.619 596.038 L 786.449 594.288 Q 787.409 592.488 788.719 590.948 Q 790.459 588.878 790.869 587.618 Q 792.459 582.758 789.349 577.848 Q 788.099 575.878 786.199 576.038 L 784.159 574.498 Q 784.129 561.868 774.129 554.558 Q 773.259 553.918 772.199 554.038 L 772.409 552.248 Q 775.409 551.088 778.659 551.578 Z " fill="rgb(151,180,174)"/><path d=" M 820.619 652.288 Q 820.039 652.128 819.839 651.598 Q 818.209 647.298 815.729 643.428 Q 812.879 638.968 807.629 637.978 Q 804.259 637.338 803.729 639.968 Q 803.509 641.048 803.329 643.598 Q 803.139 646.268 805.019 647.938 Q 805.069 647.978 808.699 650.258 Q 811.529 652.038 814.349 653.848 Q 815.799 654.788 816.409 657.078 Q 814.649 664.378 809.459 669.858 C 808.836 670.52 808.398 671.334 808.189 672.218 Q 807.699 674.358 806.299 672.418 Q 805.039 670.668 804.649 668.628 Q 804.439 667.528 804.739 664.588 Q 805.109 660.848 804.659 657.098 C 804.622 656.772 804.478 656.467 804.249 656.228 Q 801.019 652.778 796.849 650.798 Q 793.359 649.138 790.239 649.558 Q 786.649 650.038 783.799 652.538 C 783.609 652.709 783.358 652.796 783.103 652.781 C 782.847 652.766 782.609 652.65 782.439 652.458 Q 779.349 648.928 773.719 647.378 C 772.942 647.172 772.126 647.541 771.769 648.258 Q 771.469 648.878 770.449 649.288 L 771.869 644.598 Q 771.989 644.198 772.359 643.798 L 775.909 639.998 Q 779.409 639.348 781.659 640.288 Q 785.049 641.708 788.269 641.108 Q 791.299 640.548 790.349 637.618 Q 789.059 633.618 788.129 629.548 Q 787.679 627.608 788.999 626.568 C 789.249 626.425 789.574 626.437 789.809 626.598 Q 791.209 627.698 792.539 628.888 Q 794.249 630.418 795.409 630.948 Q 800.619 633.288 805.229 629.098 Q 806.519 627.918 808.219 628.298 Q 814.589 629.728 816.859 634.948 Q 817.469 636.338 819.349 643.438 Q 820.489 647.768 820.619 652.288 Z " fill="rgb(151,180,174)"/><path d=" M 765.369 656.538 L 770.859 659.608 C 771.811 659.987 772.336 660.786 772.159 661.588 Q 771.709 669.578 778.969 669.998 Q 781.929 670.168 783.529 667.658 Q 785.479 664.588 788.239 662.798 C 788.513 662.624 788.835 662.54 789.159 662.558 Q 795.899 662.938 797.849 669.098 Q 799.119 673.128 796.109 674.878 Q 795.629 675.158 791.229 676.808 Q 779.389 681.248 767.979 674.978 C 767.876 674.927 767.756 674.924 767.649 674.968 C 767.543 675.012 767.463 675.1 767.429 675.208 Q 766.529 678.098 767.119 680.788 Q 765.469 680.998 763.659 680.038 Q 761.309 678.788 758.909 680.328 L 750.909 675.748 Q 749.419 672.068 752.659 669.828 Q 758.489 662.898 764.099 657.978 Q 764.709 657.438 764.659 656.828 Q 764.959 656.538 765.369 656.538 Z " fill="rgb(151,180,174)"/><path d=" M 788.409 683.828 Q 786.489 689.878 781.019 686.618 C 780.751 686.509 780.437 686.491 780.149 686.568 Q 779.559 686.768 779.429 686.288 C 782.145 686.343 784.278 686.184 784.192 685.932 C 784.107 685.681 781.835 685.433 779.119 685.378 L 778.409 684.828 Q 783.519 685.408 788.409 683.828 Z " fill="rgb(151,180,174)"/><path d=" M 802.409 562.498 Q 801.859 562.548 802.019 562.918 C 802.116 563.088 802.341 563.205 802.599 563.218 Q 806.219 563.198 806.469 566.998 C 806.518 567.711 806.998 568.322 807.679 568.538 Q 810.139 569.318 811.449 572.288 Q 811.859 572.658 812.409 572.748 Q 813.629 574.978 815.619 576.538 Q 815.429 577.998 816.289 579.148 Q 825.059 590.908 829.029 604.978 Q 829.219 605.668 829.979 609.258 Q 830.429 611.418 831.159 613.498 L 830.989 613.588 C 830.907 613.62 830.848 613.673 830.826 613.735 C 830.803 613.797 830.819 613.863 830.869 613.918 Q 831.349 617.808 832.009 621.668 Q 832.159 622.548 832.649 623.288 Q 833.149 624.028 833.659 624.748 Q 832.799 625.988 833.139 627.548 Q 833.819 630.668 831.829 632.758 C 831.585 632.99 831.44 633.291 831.419 633.608 Q 828.839 659.178 810.659 677.078 Q 809.839 676.898 809.599 675.738 C 809.54 675.466 809.353 675.239 809.096 675.126 C 808.839 675.014 808.543 675.029 808.299 675.168 Q 804.899 677.158 802.139 676.278 Q 799.029 675.298 798.809 678.558 Q 798.659 680.648 796.009 682.448 C 795.746 682.59 795.428 682.654 795.109 682.628 Q 792.649 682.228 790.869 684.038 Q 789.769 682.638 788.409 683.828 Q 783.519 685.408 778.409 684.828 Q 773.319 684.618 768.719 682.488 Q 767.569 681.948 767.119 680.788 Q 766.529 678.098 767.429 675.208 C 767.463 675.1 767.543 675.012 767.649 674.968 C 767.756 674.924 767.876 674.927 767.979 674.978 Q 779.389 681.248 791.229 676.808 Q 795.629 675.158 796.109 674.878 Q 799.119 673.128 797.849 669.098 Q 795.899 662.938 789.159 662.558 C 788.835 662.54 788.513 662.624 788.239 662.798 Q 785.479 664.588 783.529 667.658 Q 781.929 670.168 778.969 669.998 Q 771.709 669.578 772.159 661.588 C 772.336 660.786 771.811 659.987 770.859 659.608 L 765.369 656.538 L 769.159 650.578 L 770.449 649.288 Q 771.469 648.878 771.769 648.258 C 772.126 647.541 772.942 647.172 773.719 647.378 Q 779.349 648.928 782.439 652.458 C 782.609 652.65 782.847 652.766 783.103 652.781 C 783.358 652.796 783.609 652.709 783.799 652.538 Q 786.649 650.038 790.239 649.558 Q 793.359 649.138 796.849 650.798 Q 801.019 652.778 804.249 656.228 C 804.478 656.467 804.622 656.772 804.659 657.098 Q 805.109 660.848 804.739 664.588 Q 804.439 667.528 804.649 668.628 Q 805.039 670.668 806.299 672.418 Q 807.699 674.358 808.189 672.218 C 808.398 671.334 808.836 670.52 809.459 669.858 Q 814.649 664.378 816.409 657.078 Q 819.279 655.388 820.619 652.288 Q 820.489 647.768 819.349 643.438 Q 817.469 636.338 816.859 634.948 Q 814.589 629.728 808.219 628.298 Q 806.519 627.918 805.229 629.098 Q 800.619 633.288 795.409 630.948 Q 794.249 630.418 792.539 628.888 Q 791.209 627.698 789.809 626.598 C 789.574 626.437 789.249 626.425 788.999 626.568 Q 787.679 627.608 788.129 629.548 Q 789.059 633.618 790.349 637.618 Q 791.299 640.548 788.269 641.108 Q 785.049 641.708 781.659 640.288 Q 779.409 639.348 775.909 639.998 L 776.199 639.038 L 776.489 637.838 Q 776.579 637.498 776.639 637.848 Q 776.809 638.888 777.719 635.348 Q 777.819 634.958 777.979 634.588 Q 781.579 625.828 783.659 616.578 Q 784.239 615.708 786.159 615.788 Q 792.299 616.038 795.659 616.788 Q 797.869 617.278 798.509 615.758 C 798.657 615.472 798.602 615.136 798.369 614.898 Q 796.689 612.738 794.199 611.528 Q 790.609 609.768 793.209 606.568 Q 794.099 605.478 795.459 604.118 C 795.895 603.685 796.574 603.606 797.099 603.928 Q 805.329 609.088 812.599 613.848 Q 814.589 615.158 817.359 615.768 Q 822.299 616.868 821.469 611.728 Q 820.899 608.118 818.219 606.228 Q 816.029 604.668 812.789 599.678 Q 809.869 595.168 805.009 590.248 C 804.607 589.846 804.39 589.296 804.409 588.728 Q 804.519 585.158 805.099 581.568 Q 806.919 570.228 798.409 562.748 Q 800.049 560.278 802.409 562.498 Z " fill="rgb(114,137,156)"/><path d=" M 738.159 561.578 L 729.369 568.038 L 727.909 568.248 Q 730.629 565.238 735.159 562.538 Q 736.849 561.538 738.159 561.578 Z " fill="rgb(72,129,105)"/><path d=" M 703.119 613.288 L 703.449 627.038 L 702.619 633.038 Q 700.789 623.868 702.529 614.698 Q 702.549 614.608 702.529 613.998 Q 702.509 613.488 703.119 613.288 Z " fill="rgb(72,129,105)"/><path d=" M 802.449 700.538 L 803.849 700.848 Q 804.709 701.048 804.779 701.078 L 820.589 708.258 C 821.113 708.429 821.697 708.426 822.219 708.248 Q 824.639 707.288 826.699 707.268 Q 829.139 707.238 831.139 707.558 Q 834.539 708.098 833.709 712.238 C 833.731 712.543 833.516 712.827 833.159 712.968 L 829.659 714.248 Q 824.489 714.488 822.969 713.478 Q 821.839 712.718 821.659 711.728 C 821.546 711.082 820.934 710.642 820.279 710.738 Q 814.769 711.558 811.019 708.188 Q 808.879 706.268 805.909 706.808 Q 805.089 706.958 804.409 706.498 Q 804.959 705.178 804.939 703.778 C 804.952 703.494 804.754 703.231 804.439 703.118 Q 802.809 702.408 802.449 700.538 Z " fill="rgb(237,248,183)"/><path d=" M 680.619 564.288 Q 682.629 566.648 680.029 567.458 Q 679.019 567.768 678.929 567.808 Q 674.429 569.468 669.739 570.428 Q 668.189 570.738 666.649 570.408 C 666.336 570.355 666.011 570.416 665.749 570.578 Q 662.989 572.578 660.969 575.348 Q 660.489 576.008 658.659 577.078 L 658.049 577.038 C 657.569 576.935 657.284 576.666 657.369 576.398 Q 655.879 573.248 657.219 570.098 Q 658.159 567.908 660.239 567.438 Q 661.079 567.258 663.889 567.828 Q 666.989 568.468 670.049 567.758 Q 671.269 567.478 673.189 565.928 Q 676.349 563.378 680.619 564.288 Z " fill="rgb(221,247,211)"/><path d=" M 657.199 579.788 L 657.119 581.538 L 655.479 586.658 Q 654.549 589.578 652.849 586.858 Q 651.259 584.298 650.989 581.278 Q 650.629 577.298 654.349 576.888 C 654.691 576.879 655.016 576.984 655.219 577.168 L 657.199 579.788 Z " fill="rgb(221,247,211)"/><path d=" M 721.949 570.038 Q 721.979 570.338 721.889 570.578 C 721.784 570.79 721.477 570.944 721.109 570.968 Q 719.299 571.008 718.449 572.288 Q 718.329 572.478 717.909 574.898 Q 717.579 576.818 715.159 577.078 Q 705.089 574.888 694.839 574.128 Q 685.049 573.398 681.979 573.478 Q 675.169 573.658 669.219 576.098 Q 664.429 578.068 661.409 583.328 Q 659.819 581.838 657.659 582.038 Q 656.999 582.578 657.119 581.538 L 657.199 579.788 Q 658.329 578.658 658.659 577.078 Q 660.489 576.008 660.969 575.348 Q 662.989 572.578 665.749 570.578 C 666.011 570.416 666.336 570.355 666.649 570.408 Q 668.189 570.738 669.739 570.428 Q 674.429 569.468 678.929 567.808 Q 679.019 567.768 680.029 567.458 Q 682.629 566.648 680.619 564.288 Q 682.249 562.868 684.909 563.288 Q 687.459 563.688 688.659 561.328 Q 690.139 561.118 691.399 560.278 Q 693.339 558.978 693.259 561.228 C 693.213 561.52 693.377 561.805 693.669 561.938 Q 696.789 563.348 699.999 562.268 C 700.338 562.158 700.61 561.951 700.759 561.688 L 705.469 553.598 Q 706.769 551.368 706.659 553.788 Q 706.479 557.788 706.509 561.788 Q 706.579 570.518 712.599 564.348 C 712.846 564.092 713.196 563.962 713.55 563.995 C 713.904 564.029 714.224 564.221 714.419 564.518 Q 717.289 568.878 721.949 570.038 Z " fill="rgb(152,233,197)"/><path d=" M 831.159 613.498 L 836.909 617.078 Q 835.739 619.128 836.579 621.078 Q 837.039 622.158 838.629 623.088 Q 839.889 623.828 841.149 624.638 C 841.427 624.808 841.6 625.105 841.609 625.428 Q 841.699 627.398 842.579 627.898 Q 843.429 628.378 844.519 627.348 Q 845.239 626.668 845.739 625.788 C 845.84 625.521 846.076 625.281 846.409 625.108 Q 847.589 624.528 848.909 624.518 C 849.27 624.503 849.577 624.344 849.679 624.118 Q 849.759 623.858 849.699 623.538 Q 853.489 633.448 860.499 625.338 Q 862.579 622.938 862.679 626.228 L 862.909 633.488 C 862.892 633.787 863.098 634.064 863.429 634.188 Q 866.729 635.638 870.349 635.718 C 870.686 635.702 871 635.591 871.229 635.408 L 874.979 631.588 Q 875.629 630.928 875.659 631.818 Q 875.829 636.648 874.369 641.438 C 874.239 641.86 874.296 642.317 874.526 642.693 C 874.755 643.07 875.135 643.33 875.569 643.408 Q 878.169 643.888 879.589 646.788 Q 884.249 656.318 890.649 664.628 C 890.773 664.788 890.965 664.879 891.167 664.873 C 891.369 664.867 891.556 664.765 891.669 664.598 Q 892.909 662.788 893.789 661.658 Q 895.439 659.528 894.829 663.028 Q 894.419 665.428 895.199 667.568 Q 896.289 670.528 896.419 671.318 Q 896.729 673.308 897.039 675.288 Q 897.059 675.388 897.149 676.788 Q 897.359 679.738 901.299 679.798 C 901.447 679.801 901.583 679.874 901.665 679.993 C 901.746 680.113 901.763 680.264 901.709 680.398 Q 900.389 684.058 903.069 684.668 Q 905.949 685.328 905.489 688.248 Q 904.009 697.778 897.869 704.418 Q 896.489 705.918 896.479 707.218 Q 896.449 708.688 897.209 710.048 C 897.366 710.312 897.637 710.508 897.959 710.588 Q 903.609 711.898 908.569 714.888 Q 911.299 716.528 910.769 719.548 Q 910.679 720.048 910.339 719.648 Q 906.059 714.688 898.409 713.788 Q 890.539 712.858 889.439 720.448 Q 888.849 724.478 884.649 724.158 Q 883.579 724.078 882.499 724.048 Q 881.429 724.028 880.359 723.818 Q 873.599 722.518 866.869 724.118 Q 863.339 724.958 859.889 723.848 Q 856.489 722.758 852.699 722.788 C 852.15 722.795 851.66 723.131 851.459 723.638 Q 849.749 727.878 849.609 732.538 Q 849.549 734.538 848.769 736.348 C 848.758 736.556 848.513 736.728 848.199 736.748 Q 847.939 736.678 847.909 736.288 Q 847.459 731.028 846.849 727.508 Q 845.659 720.648 838.909 719.608 C 838.575 719.583 838.239 719.643 837.959 719.778 L 833.289 722.968 C 833.052 723.099 832.744 723.114 832.489 723.008 Q 831.539 722.298 831.159 721.078 Q 832.859 720.368 831.279 718.288 Q 830.269 716.968 831.869 717.418 Q 834.229 718.078 836.719 716.788 Q 837.219 716.518 836.699 716.368 L 829.659 714.248 L 833.159 712.968 C 833.516 712.827 833.731 712.543 833.709 712.238 Q 834.539 708.098 831.139 707.558 Q 829.139 707.238 826.699 707.268 Q 824.639 707.288 822.219 708.248 C 821.697 708.426 821.113 708.429 820.589 708.258 L 804.779 701.078 Q 804.709 701.048 803.849 700.848 L 802.449 700.538 Q 801.499 698.008 798.659 697.038 Q 793.999 695.448 790.579 694.598 Q 790.319 694.538 787.509 693.478 Q 785.929 692.888 784.159 693.078 Q 781.689 692.408 779.699 690.788 Q 779.079 689.238 777.909 689.038 Q 775.429 688.628 774.549 687.868 Q 772.869 686.418 772.339 688.488 C 772.253 688.765 772.033 688.986 771.748 689.081 C 771.463 689.176 771.147 689.134 770.899 688.968 L 758.909 680.328 Q 761.309 678.788 763.659 680.038 Q 765.469 680.998 767.119 680.788 Q 767.569 681.948 768.719 682.488 Q 773.319 684.618 778.409 684.828 L 779.119 685.378 C 781.835 685.433 784.107 685.681 784.192 685.932 C 784.278 686.184 782.145 686.343 779.429 686.288 Q 779.559 686.768 780.149 686.568 C 780.437 686.491 780.751 686.509 781.019 686.618 Q 786.489 689.878 788.409 683.828 Q 789.769 682.638 790.869 684.038 Q 790.969 686.968 792.909 688.828 Q 797.729 693.228 804.969 693.728 Q 806.479 693.828 806.879 695.488 C 806.901 695.791 807.082 696.073 807.379 696.268 Q 819.509 704.708 835.149 705.058 C 835.791 704.949 836.336 704.665 836.649 704.278 L 839.769 700.868 C 839.867 700.767 840.006 700.713 840.149 700.721 C 840.293 700.728 840.425 700.797 840.509 700.908 L 842.379 703.668 Q 843.549 705.388 844.819 704.028 Q 846.789 701.928 847.829 701.488 C 848.255 701.31 848.736 701.32 849.153 701.516 C 849.571 701.713 849.885 702.077 850.019 702.518 Q 851.439 707.168 854.919 707.698 Q 863.609 709.008 871.969 706.358 Q 878.259 704.368 882.459 699.318 Q 884.849 696.438 884.129 692.618 C 884.05 692.038 883.646 691.523 883.039 691.228 L 876.889 687.878 Q 875.329 687.028 877.139 686.788 Q 880.579 686.338 883.929 687.168 C 884.036 687.192 884.147 687.163 884.227 687.089 C 884.307 687.015 884.345 686.906 884.329 686.798 Q 882.389 674.518 874.219 663.728 Q 865.659 652.418 858.079 644.958 C 857.998 644.875 857.881 644.836 857.766 644.853 C 857.651 644.871 857.552 644.944 857.499 645.048 Q 854.829 650.468 853.599 654.228 Q 853.339 655.018 852.889 655.108 C 852.706 655.105 852.537 655.031 852.445 654.914 C 852.353 654.797 852.351 654.654 852.439 654.538 Q 852.769 649.028 853.169 643.518 Q 853.739 635.718 846.599 635.088 Q 845.379 634.988 844.369 635.628 Q 843.389 636.248 842.479 637.088 Q 840.869 638.568 840.909 636.378 Q 841.089 628.198 833.659 624.748 Q 833.149 624.028 832.649 623.288 Q 832.159 622.548 832.009 621.668 Q 831.349 617.808 830.869 613.918 C 830.819 613.863 830.803 613.797 830.826 613.735 C 830.848 613.673 830.907 613.62 830.989 613.588 L 831.159 613.498 Z " fill="rgb(152,233,197)"/><path d=" M 836.909 617.078 Q 839.009 618.448 841.039 619.928 Q 842.749 621.168 844.769 621.278 Q 844.849 621.278 847.349 620.798 Q 849.659 620.348 849.699 623.538 Q 849.759 623.858 849.679 624.118 C 849.577 624.344 849.27 624.503 848.909 624.518 Q 847.589 624.528 846.409 625.108 C 846.076 625.281 845.84 625.521 845.739 625.788 Q 845.239 626.668 844.519 627.348 Q 843.429 628.378 842.579 627.898 Q 841.699 627.398 841.609 625.428 C 841.6 625.105 841.427 624.808 841.149 624.638 Q 839.889 623.828 838.629 623.088 Q 837.039 622.158 836.579 621.078 Q 835.739 619.128 836.909 617.078 Z " fill="rgb(152,233,197)"/><path d=" M 688.659 561.328 Q 687.459 563.688 684.909 563.288 Q 682.249 562.868 680.619 564.288 Q 676.349 563.378 673.189 565.928 Q 671.269 567.478 670.049 567.758 Q 666.989 568.468 663.889 567.828 Q 661.079 567.258 660.239 567.438 Q 658.159 567.908 657.219 570.098 Q 655.879 573.248 657.369 576.398 C 657.284 576.666 657.569 576.935 658.049 577.038 L 658.659 577.078 Q 658.329 578.658 657.199 579.788 L 655.219 577.168 C 655.016 576.984 654.691 576.879 654.349 576.888 Q 650.629 577.298 650.989 581.278 Q 651.259 584.298 652.849 586.858 Q 654.549 589.578 655.479 586.658 L 657.119 581.538 Q 656.999 582.578 657.659 582.038 Q 659.819 581.838 661.409 583.328 Q 657.729 591.388 660.729 599.738 Q 661.679 602.378 663.739 600.648 L 668.549 596.628 C 668.759 596.459 669.073 596.363 669.399 596.368 Q 670.419 596.678 669.849 597.978 Q 669.219 599.418 667.989 601.248 Q 666.869 602.928 666.589 604.638 Q 666.189 607.038 665.869 609.618 C 665.841 609.843 665.905 610.069 666.046 610.246 C 666.188 610.423 666.394 610.536 666.619 610.558 Q 670.959 610.998 672.499 614.728 Q 673.679 617.598 673.689 617.608 Q 674.969 619.488 676.949 618.928 Q 679.019 618.338 678.739 620.478 Q 678.179 624.598 680.419 627.268 Q 684.989 632.738 690.879 637.198 Q 692.229 638.228 693.739 638.298 L 700.849 638.598 C 701.182 638.672 701.453 638.823 701.599 639.018 Q 701.899 639.358 702.409 639.328 Q 704.089 639.878 704.939 641.348 C 705.314 641.617 705.361 641.984 705.059 642.288 Q 704.869 643.898 706.219 645.228 Q 711.539 650.468 712.839 651.858 Q 713.979 653.088 715.669 652.878 Q 716.069 652.828 716.619 652.968 L 718.659 653.498 Q 726.479 658.728 733.969 661.228 Q 738.619 662.778 741.469 665.728 Q 742.719 667.018 748.459 670.048 C 748.745 670.182 749.076 670.203 749.379 670.108 Q 750.959 669.568 752.659 669.828 Q 749.419 672.068 750.909 675.748 Q 745.879 674.858 741.309 672.598 Q 740.119 672.008 739.279 672.108 Q 738.089 672.268 737.269 673.068 Q 736.269 674.048 736.459 675.798 Q 736.959 680.528 742.159 680.538 Q 746.979 680.548 747.969 684.068 Q 748.739 686.788 749.129 687.098 Q 750.429 688.138 753.209 687.578 Q 755.479 687.108 757.439 688.358 Q 761.759 691.108 768.099 693.098 Q 769.169 693.438 771.709 695.008 Q 773.789 696.298 774.999 696.188 Q 776.949 696.008 778.159 693.788 Q 779.469 691.368 779.699 690.788 Q 781.689 692.408 784.159 693.078 L 780.919 696.608 C 780.593 696.846 780.559 697.226 780.839 697.498 Q 783.439 703.878 789.439 700.318 C 789.787 700.112 790.217 700.106 790.571 700.301 C 790.925 700.497 791.148 700.864 791.159 701.268 Q 791.229 704.038 793.559 705.008 Q 796.309 706.148 799.159 707.038 Q 801.369 707.728 804.409 706.498 Q 805.089 706.958 805.909 706.808 Q 808.879 706.268 811.019 708.188 Q 814.769 711.558 820.279 710.738 C 820.934 710.642 821.546 711.082 821.659 711.728 Q 821.839 712.718 822.969 713.478 Q 824.489 714.488 829.659 714.248 L 836.699 716.368 Q 837.219 716.518 836.719 716.788 Q 834.229 718.078 831.869 717.418 Q 830.269 716.968 831.279 718.288 Q 832.859 720.368 831.159 721.078 Q 829.269 717.998 825.109 716.598 C 824.468 716.43 823.78 716.69 823.499 717.208 L 821.679 721.978 C 821.945 722.085 822.042 722.237 821.94 722.383 C 821.838 722.529 821.55 722.651 821.169 722.708 Q 820.069 723.148 819.719 721.728 Q 818.839 718.058 818.149 716.188 C 818.042 715.906 817.796 715.69 817.489 715.608 Q 811.899 714.208 805.009 709.818 Q 804.599 709.558 804.119 709.508 Q 800.169 709.138 795.909 709.228 Q 791.319 709.328 788.469 707.478 Q 784.199 704.688 783.279 704.128 Q 779.249 701.698 774.889 702.878 Q 774.819 702.898 772.219 704.148 Q 770.179 705.138 767.869 704.238 C 767.587 704.134 767.265 704.196 767.049 704.398 Q 764.409 707.098 763.519 710.788 C 763.658 711.072 763.416 711.379 762.959 711.498 Q 762.379 711.608 762.509 710.278 Q 762.819 706.848 764.039 703.628 Q 765.649 699.358 762.349 696.598 Q 759.619 694.318 754.659 694.378 Q 750.669 694.418 746.869 695.478 Q 744.579 696.118 741.999 698.028 Q 739.769 699.668 737.469 701.228 Q 737.039 701.518 736.649 701.478 Q 735.809 701.388 736.159 700.538 Q 737.469 697.288 738.729 694.008 C 738.895 693.708 738.913 693.368 738.779 693.058 Q 737.769 689.818 734.459 690.818 Q 733.999 690.948 734.179 690.518 Q 735.399 687.668 734.789 684.888 Q 734.279 682.568 731.739 680.618 Q 729.389 678.798 726.789 677.348 C 726.534 677.207 726.212 677.261 726.019 677.478 Q 721.549 682.628 719.849 683.228 Q 717.419 684.068 717.869 681.318 Q 718.279 678.848 719.279 675.938 C 719.501 675.315 719.228 674.626 718.639 674.318 Q 713.269 671.528 708.659 673.518 Q 707.219 674.138 707.659 672.548 L 709.089 667.268 C 709.234 666.968 709.123 666.63 708.809 666.418 Q 704.639 662.148 697.469 659.478 Q 691.489 657.248 685.699 651.288 Q 679.519 644.418 672.039 639.038 Q 671.969 638.988 668.549 636.838 Q 664.539 634.318 661.959 630.198 C 661.839 630.01 661.644 629.884 661.423 629.851 C 661.203 629.818 660.979 629.883 660.809 630.028 Q 657.389 632.948 655.389 636.838 C 655.341 636.926 655.247 636.988 655.137 637.004 C 655.028 637.02 654.917 636.988 654.839 636.918 Q 654.379 636.238 654.579 635.268 Q 655.319 631.608 652.519 629.438 Q 651.169 628.398 649.649 629.398 C 649.429 629.543 649.158 629.586 648.903 629.518 C 648.649 629.449 648.436 629.274 648.319 629.038 Q 646.959 626.298 648.259 623.428 Q 649.469 620.758 651.299 618.788 C 651.679 618.386 651.748 617.785 651.469 617.308 Q 646.429 608.578 642.719 599.478 Q 641.069 595.398 641.379 590.048 C 641.398 589.721 641.509 589.406 641.699 589.138 Q 643.939 585.938 644.159 584.038 Q 644.659 579.768 645.499 575.038 C 645.593 574.507 646.046 574.113 646.589 574.088 Q 649.719 573.958 649.169 570.798 Q 648.889 569.238 648.879 569.138 Q 648.399 565.168 647.409 561.268 Q 646.869 559.168 648.619 560.448 Q 651.289 562.378 654.739 561.148 Q 657.489 560.158 660.109 561.008 Q 662.709 561.838 662.779 561.858 Q 670.439 563.478 677.809 561.628 C 678.791 561.375 679.573 560.638 679.879 559.678 Q 680.919 556.388 682.079 554.158 Q 683.969 550.528 684.499 553.978 Q 684.549 554.348 684.559 555.718 Q 684.579 559.868 688.659 561.328 Z " fill="rgb(163,227,177)"/><path d=" M 729.369 568.038 L 727.409 570.998 L 722.059 575.718 C 721.778 575.94 721.611 576.23 721.589 576.538 Q 721.359 577.498 720.409 577.828 L 717.869 577.788 Q 716.659 577.068 715.159 577.078 Q 717.579 576.818 717.909 574.898 Q 718.329 572.478 718.449 572.288 Q 719.299 571.008 721.109 570.968 C 721.477 570.944 721.784 570.79 721.889 570.578 Q 721.979 570.338 721.949 570.038 Q 725.389 571.008 727.909 568.248 L 729.369 568.038 Z " fill="rgb(163,227,177)"/><path d=" M 810.659 677.078 Q 803.219 685.128 792.909 688.828 Q 790.969 686.968 790.869 684.038 Q 792.649 682.228 795.109 682.628 C 795.428 682.654 795.746 682.59 796.009 682.448 Q 798.659 680.648 798.809 678.558 Q 799.029 675.298 802.139 676.278 Q 804.899 677.158 808.299 675.168 C 808.543 675.029 808.839 675.014 809.096 675.126 C 809.353 675.239 809.54 675.466 809.599 675.738 Q 809.839 676.898 810.659 677.078 Z " fill="rgb(116,119,135)"/><path d=" M 758.579 593.448 Q 756.659 593.198 754.369 593.378 Q 753.859 593.418 754.079 592.958 Q 757.199 586.538 762.599 587.328 Q 765.499 587.748 768.239 590.798 Q 770.949 593.838 772.999 597.368 Q 775.179 601.118 774.639 604.098 Q 773.929 608.018 769.959 610.328 Q 764.959 613.218 759.649 615.548 C 759.311 615.694 758.929 615.7 758.587 615.563 C 758.245 615.426 757.973 615.157 757.829 614.818 Q 756.509 611.628 758.049 609.338 Q 758.949 607.998 761.329 606.968 Q 763.219 606.158 765.229 605.598 Q 767.549 604.958 766.789 602.678 Q 765.669 599.308 763.289 596.178 Q 761.499 593.828 758.579 593.448 Z " fill="rgb(147,179,115)"/><path d=" M 743.239 604.168 Q 742.699 603.788 742.309 603.248 Q 741.599 602.268 743.159 602.268 Q 749.199 602.258 755.179 601.288 Q 756.579 601.058 755.539 602.028 Q 752.659 604.698 748.559 605.558 Q 745.979 606.108 743.239 604.168 Z " fill="rgb(155,185,109)"/><path d=" M 697.819 654.368 Q 696.199 653.288 698.219 651.348 Q 700.599 649.078 703.129 650.798 Q 708.169 654.208 714.099 655.598 Q 716.439 656.148 719.349 659.848 Q 720.619 661.468 726.289 666.698 C 726.382 666.777 726.43 666.894 726.418 667.013 C 726.406 667.132 726.336 667.239 726.229 667.298 Q 723.969 668.598 721.969 667.478 Q 714.519 663.298 710.339 661.878 Q 704.349 659.838 699.679 655.628 Q 699.589 655.548 697.819 654.368 Z " fill="rgb(233,246,155)"/><path d=" M 724.429 673.378 Q 723.579 671.718 724.889 670.008 Q 726.519 667.878 728.729 666.348 C 729.322 665.983 730.093 665.892 730.779 666.108 L 737.179 669.318 C 737.491 669.474 737.683 669.769 737.679 670.088 Q 737.829 671.808 736.129 672.598 Q 735.639 672.828 735.329 673.158 Q 731.619 677.158 726.749 675.258 Q 725.039 674.588 724.429 673.378 Z " fill="rgb(233,246,155)"/><path d=" M 661.749 623.928 Q 664.269 620.638 667.169 618.528 C 667.886 618.008 668.878 618.097 669.489 618.738 Q 673.169 622.628 669.329 626.458 Q 665.359 630.418 661.849 626.498 C 661.205 625.776 661.163 624.698 661.749 623.928 Z " fill="rgb(233,246,174)"/><path d=" M 676.949 638.548 Q 673.269 635.238 670.499 631.138 C 670.294 630.889 670.259 630.557 670.409 630.278 Q 671.299 628.378 673.199 627.488 C 673.489 627.376 673.82 627.398 674.089 627.548 Q 682.059 632.358 687.879 640.088 C 688.134 640.427 688.218 640.864 688.107 641.273 C 687.995 641.682 687.701 642.016 687.309 642.178 Q 683.709 643.668 681.159 642.228 Q 680.829 642.038 676.949 638.548 Z " fill="rgb(233,246,174)"/><path d=" M 687.519 648.408 Q 686.589 646.698 688.969 644.788 Q 690.259 643.758 691.789 643.138 Q 695.359 641.688 696.749 645.318 C 696.87 645.623 696.88 645.957 696.779 646.268 Q 695.169 651.988 690.069 650.228 Q 688.149 649.568 687.519 648.408 Z " fill="rgb(233,246,174)"/><path d=" M 861.439 719.718 C 860.721 719.575 860.198 718.956 860.179 718.228 Q 860.109 715.388 861.459 714.138 Q 862.149 713.498 865.059 713.038 Q 871.659 712.008 877.409 708.508 Q 880.839 706.428 882.749 709.708 Q 884.049 711.938 885.569 714.908 C 885.752 715.249 885.668 715.67 885.369 715.918 Q 883.619 717.398 881.299 717.598 Q 880.449 717.678 877.109 716.938 Q 875.209 716.508 873.229 716.578 C 872.899 716.601 872.585 716.716 872.329 716.908 Q 867.259 720.848 861.439 719.718 Z " fill="rgb(233,246,174)"/><path d=" M 651.849 597.348 Q 648.739 594.998 648.549 592.168 Q 648.279 588.308 651.449 590.528 Q 654.569 592.718 654.829 596.218 C 654.885 596.537 654.775 596.861 654.529 597.098 Q 653.269 598.428 651.849 597.348 Z " fill="rgb(237,248,183)"/><path d=" M 652.259 607.318 Q 650.749 605.218 651.789 602.318 C 651.898 602.012 652.13 601.765 652.429 601.638 Q 656.839 599.738 659.659 603.788 C 660.1 604.416 660.157 605.235 659.809 605.918 Q 658.469 608.588 656.049 608.948 Q 653.679 609.298 652.259 607.318 Z " fill="rgb(237,248,183)"/><path d=" M 658.509 618.738 Q 657.519 612.568 662.989 613.608 Q 664.969 613.978 665.839 615.298 Q 667.189 617.348 664.599 619.228 Q 662.259 620.918 661.169 622.098 C 660.964 622.319 660.67 622.462 660.349 622.498 Q 655.059 622.658 658.229 619.568 C 658.459 619.354 658.564 619.043 658.509 618.738 L 658.509 618.738 Z " fill="rgb(237,248,183)"/><path d=" M 888.829 709.618 Q 886.259 707.628 884.429 704.948 C 884.241 704.691 884.189 704.366 884.289 704.068 Q 884.979 701.748 886.969 701.188 Q 888.719 700.698 890.619 702.008 Q 892.539 703.328 894.159 705.578 C 894.468 706.005 894.543 706.556 894.359 707.048 Q 892.419 712.378 888.829 709.618 Z " fill="rgb(237,248,183)"/><path d=" M 841.439 716.288 Q 839.139 714.568 840.299 712.058 Q 841.069 710.398 842.859 710.018 Q 844.359 709.708 845.929 710.138 Q 846.419 710.278 846.889 710.158 Q 853.069 708.568 855.249 714.548 C 855.42 715.002 855.188 715.507 854.729 715.678 Q 850.659 717.198 844.649 717.328 Q 842.859 717.368 841.439 716.288 Z " fill="rgb(237,248,183)"/><path d=" M 688.199 569.788 Q 685.979 567.918 687.039 565.848 Q 688.109 563.768 690.089 564.008 Q 691.999 564.238 693.749 566.908 Q 694.869 568.618 693.009 569.468 Q 691.599 570.108 689.099 570.108 C 688.769 570.101 688.451 569.988 688.199 569.788 Z " fill="rgb(221,247,211)"/><path d=" M 856.619 640.038 Q 855.779 639.028 857.199 636.728 Q 858.239 635.058 859.819 636.218 Q 862.309 638.058 859.739 640.278 Q 858.059 641.738 856.619 640.038 Z " fill="rgb(221,247,211)"/><path d=" M 873.639 653.768 Q 871.789 653.568 869.939 651.768 Q 868.239 650.108 866.719 648.288 Q 865.709 647.078 865.799 646.008 Q 865.969 643.928 869.199 645.288 Q 873.619 647.148 875.949 651.008 Q 877.949 654.318 878.789 655.348 Q 880.229 657.098 882.599 660.098 Q 884.579 662.618 885.279 665.058 C 885.41 665.364 885.381 665.704 885.199 665.988 Q 884.429 667.408 883.099 666.848 Q 875.459 663.668 874.899 655.078 C 874.855 654.396 874.324 653.844 873.639 653.768 L 873.639 653.768 Z " fill="rgb(221,247,211)"/><path d=" M 886.088 669.204 C 887.681 668.566 889.756 670 890.717 672.403 C 891.678 674.807 891.165 677.275 889.571 677.913 C 887.977 678.55 885.903 677.116 884.942 674.713 C 883.981 672.31 884.494 669.841 886.088 669.204 Z " fill="rgb(221,247,211)"/><path d=" M 895.312 688.576 C 897.363 689.087 898.525 691.52 897.906 694.005 C 897.286 696.489 895.118 698.092 893.067 697.58 C 891.016 697.069 889.854 694.636 890.473 692.152 C 891.093 689.667 893.261 688.065 895.312 688.576 Z " fill="rgb(221,247,211)"/></g></g></svg>