<?xml version="1.0" encoding="UTF-8" standalone="no"?><!-- Generator: Gravit.io --><svg xmlns="http://www.w3.org/2000/svg" xmlns:xlink="http://www.w3.org/1999/xlink" style="isolation:isolate" viewBox="629.368 534.374 293.45 212.075" width="293.45pt" height="212.075pt"><defs><clipPath id="_clipPath_icH2favgAoWTBoPDRvVs1Wl8y4auvWHM"><rect x="629.368" y="534.374" width="293.45" height="212.075"/></clipPath></defs><g clip-path="url(#_clipPath_icH2favgAoWTBoPDRvVs1Wl8y4auvWHM)"><rect x="629.368" y="534.374" width="293.45" height="212.075" style="fill:rgb(6,6,6)" fill-opacity="0"/><g><path d=" M 850.448 617.331 L 838.448 619.911 Q 833.468 620.851 808.638 626.561 Q 774.208 634.481 756.948 639.331 Q 719.438 648.991 682.758 661.431 Q 682.398 661.561 681.698 662.081 Q 667.248 667.461 653.448 674.331 L 650.908 667.871 Q 654.398 665.871 656.758 664.931 Q 667.028 660.871 679.588 656.641 Q 681.848 655.881 691.708 652.301 Q 697.768 650.091 703.998 648.391 Q 712.498 646.061 720.958 643.581 Q 729.458 641.081 737.988 639.131 Q 762.848 633.461 787.388 626.561 Q 793.738 624.771 800.208 623.501 Q 811.608 621.271 813.118 620.941 Q 822.908 618.751 832.698 616.581 L 837.468 617.221 Q 838.118 617.311 838.418 617.201 Q 842.778 615.691 847.388 615.451 C 847.699 615.47 847.974 615.635 848.108 615.881 Q 848.878 617.151 850.448 617.331 Z " fill="rgb(251,118,152)"/><path d=" M 911.198 650.081 Q 903.258 654.331 894.678 657.071 Q 883.928 660.501 873.158 663.871 Q 871.338 663.811 869.698 664.581 L 856.198 668.081 L 827.448 674.581 L 813.948 677.161 L 782.948 682.831 Q 750.718 688.111 718.198 691.161 Q 707.158 691.401 696.198 692.661 L 689.448 692.581 Q 690.868 692.091 692.288 691.601 Q 693.598 691.151 695.198 691.271 Q 699.908 691.621 704.388 690.341 Q 705.958 689.891 709.648 687.681 Q 715.358 684.261 722.338 684.601 Q 722.718 684.621 723.048 684.541 Q 726.988 683.631 722.948 683.581 Q 748.348 681.781 753.948 680.871 Q 775.308 677.411 796.678 673.961 Q 796.778 673.951 810.238 671.921 Q 820.988 670.311 831.608 667.971 Q 831.738 667.951 841.348 666.101 Q 845.938 665.221 851.008 663.681 Q 866.388 659.031 878.408 654.651 Q 881.008 653.701 884.078 652.861 Q 885.998 652.331 887.908 651.761 Q 887.998 651.731 891.638 650.721 Q 896.918 649.271 901.448 646.081 Q 903.988 645.481 902.158 647.551 Q 901.648 648.121 902.408 648.221 Q 904.608 648.511 907.008 648.221 Q 907.088 648.211 908.358 647.931 Q 910.798 647.411 911.198 650.081 Z " fill="rgb(252,123,133)"/><path d=" M 748.908 654.121 Q 748.848 660.811 742.198 661.081 Q 740.288 661.041 736.138 659.931 Q 730.688 658.481 728.988 664.131 Q 728.548 665.581 726.948 665.661 Q 724.078 664.881 724.838 661.791 Q 725.888 657.501 729.328 655.651 Q 731.628 654.421 735.228 654.981 Q 738.248 655.451 741.198 656.371 Q 743.798 657.181 744.448 654.371 L 745.308 650.631 C 745.367 650.359 745.642 650.144 745.998 650.091 Q 749.898 649.451 748.908 654.121 Z " fill="rgb(238,103,201)"/><path d=" M 796.238 666.121 Q 794.718 661.231 789.438 662.121 Q 787.788 662.401 786.638 661.181 Q 785.028 659.461 783.188 657.841 Q 781.918 656.721 780.778 656.611 Q 779.198 656.471 778.008 657.541 Q 777.118 658.351 776.588 660.531 Q 776.248 661.951 775.798 663.331 C 775.707 663.627 775.466 663.86 775.158 663.951 Q 770.658 665.231 771.248 660.181 Q 771.518 657.851 772.738 655.871 Q 780.008 648.941 787.198 656.371 Q 789.108 658.351 792.158 657.491 Q 794.248 656.891 794.278 656.891 Q 798.478 656.251 799.728 660.651 Q 800.538 663.511 799.138 665.561 Q 798.138 667.011 796.238 666.121 Z " fill="rgb(238,103,201)"/><path d=" M 891.948 600.911 Q 892.828 602.121 892.088 603.131 Q 891.628 603.761 890.428 603.981 Q 880.898 605.711 871.448 607.831 L 832.698 616.581 Q 822.908 618.751 813.118 620.941 Q 811.608 621.271 800.208 623.501 Q 793.738 624.771 787.388 626.561 Q 762.848 633.461 737.988 639.131 Q 729.458 641.081 720.958 643.581 Q 712.498 646.061 703.998 648.391 Q 697.768 650.091 691.708 652.301 Q 681.848 655.881 679.588 656.641 Q 667.028 660.871 656.758 664.931 Q 654.398 665.871 650.908 667.871 Q 646.118 670.141 641.448 672.641 Q 641.378 672.681 637.838 675.101 Q 636.038 676.331 633.448 677.121 Q 630.938 677.881 631.158 675.371 Q 634.708 670.781 640.138 667.311 Q 648.138 662.191 655.498 658.901 Q 672.448 651.321 689.948 645.081 L 721.488 635.121 L 736.198 630.581 L 756.698 625.081 L 772.948 620.831 L 802.198 613.831 L 822.698 609.411 L 837.198 606.581 L 851.238 604.121 L 862.448 602.411 Q 878.718 600.821 881.698 600.621 Q 885.378 600.381 891.948 600.911 Z " fill="rgb(254,165,68)"/><path d=" M 905.948 639.581 Q 906.508 639.961 906.518 640.591 Q 906.528 641.021 906.118 641.551 Q 904.118 644.161 901.448 646.081 Q 896.918 649.271 891.638 650.721 Q 887.998 651.731 887.908 651.761 Q 885.998 652.331 884.078 652.861 Q 881.008 653.701 878.408 654.651 Q 866.388 659.031 851.008 663.681 Q 845.938 665.221 841.348 666.101 Q 831.738 667.951 831.608 667.971 Q 820.988 670.311 810.238 671.921 Q 796.778 673.951 796.678 673.961 Q 775.308 677.411 753.948 680.871 Q 748.348 681.781 722.948 683.581 Q 701.758 684.871 680.538 685.091 Q 680.458 685.091 671.868 685.381 Q 662.748 685.691 654.388 683.931 Q 652.038 683.441 652.198 680.911 Q 670.588 681.061 688.948 680.081 Q 693.678 680.151 700.448 679.621 Q 750.118 675.721 797.198 667.411 L 813.198 664.411 L 832.698 660.411 L 858.448 654.661 L 864.698 653.081 L 871.698 651.161 Q 889.268 646.701 905.948 639.581 Z " fill="rgb(254,165,68)"/><path d=" M 904.948 669.081 Q 906.348 670.231 905.028 671.451 Q 899.668 676.401 893.198 679.831 Q 878.068 687.131 870.638 689.061 Q 858.228 692.271 846.138 696.561 Q 839.658 698.861 819.938 702.841 Q 810.228 704.801 800.568 707.051 Q 788.658 709.831 781.198 711.161 Q 753.658 716.081 725.878 719.461 Q 715.168 720.771 705.978 721.261 Q 691.728 722.021 677.448 721.941 Q 671.488 721.901 665.698 720.581 Q 663.438 718.981 662.448 716.411 Q 665.158 716.861 668.948 716.871 Q 698.548 716.941 726.698 712.911 L 729.948 712.331 L 742.698 710.911 L 745.948 710.331 L 759.198 708.161 L 771.198 706.161 Q 786.688 703.681 801.948 700.081 L 819.238 696.371 Q 830.228 694.271 840.948 691.081 L 855.948 687.081 L 859.448 686.081 Q 882.948 679.581 904.948 669.081 Z " fill="rgb(254,165,68)"/><path d=" M 851.238 604.121 L 837.198 606.581 Q 837.088 604.911 835.508 604.621 C 835.188 604.558 834.935 604.351 834.848 604.081 Q 833.218 599.221 833.948 594.101 Q 834.238 592.111 836.378 592.481 L 839.398 593.011 C 839.509 593.024 839.619 592.978 839.685 592.891 C 839.751 592.804 839.764 592.689 839.718 592.591 Q 838.898 590.351 838.078 588.111 Q 837.678 587.011 836.558 585.231 Q 835.408 583.411 835.508 582.061 Q 835.648 580.241 836.278 580.111 Q 837.868 579.781 839.168 580.761 Q 842.928 583.591 844.018 586.291 Q 844.568 587.641 843.878 589.911 Q 843.328 591.731 842.878 593.571 C 842.807 593.864 842.932 594.171 843.188 594.331 Q 845.598 595.821 848.098 597.151 Q 852.338 599.431 851.238 604.121 Z " fill="rgb(135,48,161)"/><path d=" M 813.948 677.161 Q 813.448 678.801 813.708 680.401 Q 813.948 681.881 815.298 683.021 Q 819.258 686.391 824.698 686.161 Q 821.668 686.791 818.698 687.621 Q 816.378 688.271 815.378 689.641 Q 814.158 691.321 814.028 693.561 C 814.01 693.869 814.18 694.157 814.458 694.291 Q 816.608 695.311 818.948 694.331 L 819.238 696.371 L 801.948 700.081 Q 801.598 697.931 802.688 696.041 C 802.916 695.772 802.968 695.433 802.828 695.131 Q 802.108 692.691 799.878 692.631 Q 798.298 692.591 796.808 693.881 Q 794.808 695.621 794.198 698.121 Q 793.858 699.541 792.958 699.271 C 792.576 699.133 792.343 698.865 792.358 698.581 Q 791.428 695.791 789.468 693.681 Q 789.348 693.561 786.508 691.621 Q 783.838 689.811 785.698 686.311 C 785.891 686.042 785.895 685.702 785.708 685.431 Q 784.708 683.751 782.948 682.831 L 813.948 677.161 Z " fill="rgb(135,48,161)"/><path d=" M 830.198 684.081 Q 832.668 683.911 834.908 684.871 L 835.488 686.621 Q 833.148 690.001 828.698 689.371 Q 825.948 688.981 823.258 690.121 Q 822.118 690.611 820.998 692.061 Q 820.068 693.271 818.948 694.331 Q 816.608 695.311 814.458 694.291 C 814.18 694.157 814.01 693.869 814.028 693.561 Q 814.158 691.321 815.378 689.641 Q 816.378 688.271 818.698 687.621 Q 821.668 686.791 824.698 686.161 Q 827.628 685.611 830.198 684.081 Z " fill="rgb(164,57,175)"/><path d=" M 856.198 668.081 Q 857.048 668.291 856.658 669.371 L 853.508 669.181 C 853.199 669.198 852.935 669.386 852.848 669.651 Q 852.248 671.251 850.918 672.341 Q 847.218 675.351 849.498 679.371 C 849.652 679.647 849.94 679.825 850.258 679.841 L 851.948 679.911 Q 850.018 682.291 847.718 684.321 Q 846.938 685.011 846.078 685.051 Q 845.148 685.081 844.198 684.831 Q 845.408 681.651 843.508 679.011 C 843.318 678.764 843.013 678.628 842.698 678.651 Q 836.888 679.151 834.908 684.871 Q 832.668 683.911 830.198 684.081 Q 832.498 679.491 828.658 676.361 C 828.352 676.146 828.165 675.871 828.128 675.581 Q 827.908 674.991 827.448 674.581 L 856.198 668.081 Z " fill="rgb(133,40,159)"/><path d=" M 718.198 691.161 Q 716.108 691.791 716.048 693.621 Q 715.998 695.361 715.978 695.481 Q 715.548 698.691 716.878 701.661 C 717.238 702.483 717.952 703.097 718.818 703.331 Q 720.588 703.821 722.338 704.151 Q 724.568 704.551 725.678 705.381 Q 728.058 707.141 729.028 710.071 Q 729.048 710.111 729.188 711.191 Q 729.278 711.901 729.948 712.331 L 726.698 712.911 Q 723.278 712.981 720.168 711.851 Q 717.338 710.821 715.548 710.691 Q 712.518 710.481 709.728 710.331 Q 707.868 710.241 707.458 708.421 Q 706.828 705.661 706.368 702.901 Q 705.748 699.151 704.798 697.571 Q 702.148 693.131 696.198 692.661 Q 707.158 691.401 718.198 691.161 Z " fill="rgb(133,40,159)"/><path d=" M 742.198 661.081 Q 746.638 666.621 741.698 671.661 L 741.288 670.651 C 741.18 670.373 740.958 670.144 740.668 670.011 Q 739.208 669.351 738.458 667.151 C 738.349 666.843 738.123 666.591 737.828 666.451 Q 735.398 665.321 733.648 666.611 C 733.346 666.805 733.163 667.097 733.148 667.411 L 732.458 672.871 C 732.865 673.173 732.732 673.544 732.138 673.761 Q 730.618 675.561 729.288 673.941 Q 729.228 673.881 727.848 672.021 Q 725.788 669.251 726.948 665.661 Q 728.548 665.581 728.988 664.131 Q 730.688 658.481 736.138 659.931 Q 740.288 661.041 742.198 661.081 Z " fill="rgb(117,40,147)"/><path d=" M 772.198 701.831 Q 771.168 702.851 771.358 704.391 C 771.443 704.673 771.315 704.968 771.028 705.151 Q 770.468 705.651 771.198 706.161 L 759.198 708.161 Q 756.968 708.001 759.498 705.981 C 760.151 705.464 760.591 704.728 760.738 703.911 Q 761.188 701.341 762.248 698.791 Q 762.278 698.731 762.908 697.661 Q 763.448 696.771 763.158 695.621 Q 769.718 693.001 771.258 699.361 Q 771.268 699.411 771.348 700.521 Q 771.398 701.371 772.198 701.831 Z " fill="rgb(117,40,147)"/><path d=" M 812.198 602.331 L 807.198 605.411 Q 804.548 599.661 806.628 594.041 C 806.969 593.122 807.809 592.48 808.788 592.391 Q 810.498 592.231 811.048 590.811 Q 811.578 589.451 812.878 589.231 C 813.178 589.194 813.464 589.366 813.558 589.641 Q 815.128 593.971 815.368 598.561 C 815.536 598.875 815.428 599.223 815.088 599.461 L 812.198 602.331 Z " fill="rgb(93,35,128)"/><path d=" M 853.988 590.121 Q 860.428 590.701 860.698 597.081 Q 860.128 597.281 858.258 594.871 C 857.868 594.37 857.351 593.98 856.758 593.741 Q 854.048 592.671 853.988 590.121 Z " fill="rgb(93,35,128)"/><path d=" M 867.698 614.661 Q 867.558 615.531 868.388 616.181 Q 870.358 617.741 870.078 620.321 C 870.045 620.597 870.231 620.852 870.508 620.911 L 871.698 621.161 Q 870.428 622.301 872.198 622.831 Q 871.058 624.051 871.658 625.871 Q 866.678 622.331 865.348 616.441 Q 865.338 616.411 865.318 615.671 Q 865.308 615.061 864.448 615.081 L 867.698 614.661 Z " fill="rgb(93,35,128)"/><path d=" M 736.198 630.581 L 721.488 635.121 Q 722.888 632.901 722.948 631.871 Q 723.328 625.051 723.948 623.121 Q 725.998 616.711 732.828 618.831 Q 734.968 619.491 734.768 621.721 Q 734.518 624.551 733.358 628.361 Q 733.158 629.001 733.308 629.411 Q 733.578 630.201 734.508 629.841 C 734.789 629.768 735.111 629.775 735.378 629.861 L 736.198 630.581 Z " fill="rgb(93,35,128)"/><path d=" M 864.698 653.081 L 858.448 654.661 Q 857.898 654.701 858.038 654.371 Q 858.208 653.961 858.208 653.821 Q 858.448 649.241 859.898 644.181 C 860.021 643.755 860.348 643.419 860.771 643.287 C 861.193 643.154 861.654 643.242 861.998 643.521 Q 863.798 644.971 863.898 648.371 Q 863.978 650.791 864.698 653.081 Z " fill="rgb(93,35,128)"/><path d=" M 832.698 660.411 L 813.198 664.411 Q 812.868 662.931 813.758 662.181 Q 814.928 661.201 818.978 659.611 Q 821.958 658.441 822.588 655.531 Q 823.038 653.461 821.398 652.441 L 816.438 649.361 Q 814.048 647.881 816.568 646.881 Q 819.758 645.621 823.348 645.421 Q 825.898 645.271 829.228 646.541 Q 832.068 647.631 834.948 648.621 Q 837.588 649.531 835.388 650.811 L 830.448 653.671 C 830.136 653.838 829.931 654.113 829.888 654.421 Q 829.608 655.911 830.138 658.431 Q 830.618 660.741 832.698 660.411 Z " fill="rgb(93,35,128)"/><path d=" M 782.948 682.831 Q 784.708 683.751 785.708 685.431 C 785.895 685.702 785.891 686.042 785.698 686.311 Q 783.838 689.811 786.508 691.621 Q 789.348 693.561 789.468 693.681 Q 791.428 695.791 792.358 698.581 C 792.343 698.865 792.576 699.133 792.958 699.271 Q 793.858 699.541 794.198 698.121 Q 794.808 695.621 796.808 693.881 Q 798.298 692.591 799.878 692.631 Q 802.108 692.691 802.828 695.131 C 802.968 695.433 802.916 695.772 802.688 696.041 Q 801.598 697.931 801.948 700.081 Q 786.688 703.681 771.198 706.161 Q 770.468 705.651 771.028 705.151 C 771.315 704.968 771.443 704.673 771.358 704.391 Q 771.168 702.851 772.198 701.831 Q 777.808 701.521 783.278 700.181 Q 785.818 699.561 783.838 697.851 Q 781.188 695.581 778.288 693.881 Q 773.218 690.921 772.368 690.521 Q 768.268 688.551 763.438 689.311 Q 756.658 690.361 755.508 691.181 Q 753.218 692.831 752.588 695.101 Q 751.978 697.321 749.458 697.621 L 743.188 698.371 Q 741.538 698.571 741.128 700.351 Q 740.068 704.941 741.028 709.601 Q 741.308 710.961 742.698 710.911 L 729.948 712.331 Q 729.278 711.901 729.188 711.191 Q 729.048 710.111 729.028 710.071 Q 728.058 707.141 725.678 705.381 Q 724.568 704.551 722.338 704.151 Q 720.588 703.821 718.818 703.331 C 717.952 703.097 717.238 702.483 716.878 701.661 Q 715.548 698.691 715.978 695.481 Q 715.998 695.361 716.048 693.621 Q 716.108 691.791 718.198 691.161 Q 750.718 688.111 782.948 682.831 Z " fill="rgb(93,35,128)"/><path d=" M 763.158 695.621 Q 763.448 696.771 762.908 697.661 Q 762.278 698.731 762.248 698.791 Q 761.188 701.341 760.738 703.911 C 760.591 704.728 760.151 705.464 759.498 705.981 Q 756.968 708.001 759.198 708.161 L 745.948 710.331 L 746.508 705.171 Q 746.698 703.411 748.708 703.121 L 755.158 702.201 C 755.503 702.111 755.779 701.905 755.908 701.641 Q 756.698 700.321 756.698 698.851 C 756.69 697.962 757.291 697.18 758.158 696.951 L 763.158 695.621 Z " fill="rgb(93,35,128)"/><path d=" M 891.948 600.911 Q 896.108 601.001 899.858 602.501 Q 902.168 603.421 902.908 605.411 Q 903.928 608.151 902.598 610.611 Q 901.708 612.261 899.098 613.911 Q 889.078 620.231 875.948 622.621 Q 873.288 623.101 872.198 622.831 Q 870.428 622.301 871.698 621.161 Q 878.518 618.091 884.648 613.801 Q 886.688 612.371 884.188 612.621 L 874.238 613.621 L 871.448 607.831 Q 880.898 605.711 890.428 603.981 Q 891.628 603.761 892.088 603.131 Q 892.828 602.121 891.948 600.911 Z " fill="rgb(255,114,101)"/><path d=" M 911.198 650.081 Q 910.798 647.411 908.358 647.931 Q 907.088 648.211 907.008 648.221 Q 904.608 648.511 902.408 648.221 Q 901.648 648.121 902.158 647.551 Q 903.988 645.481 901.448 646.081 Q 904.118 644.161 906.118 641.551 Q 906.528 641.021 906.518 640.591 Q 906.508 639.961 905.948 639.581 Q 908.688 638.651 906.178 637.801 Q 903.298 636.831 900.388 635.931 Q 897.038 634.901 900.698 634.121 Q 906.388 632.911 912.198 633.111 Q 918.988 633.341 919.608 638.561 Q 920.028 642.171 917.308 645.451 Q 914.868 648.391 911.198 650.081 Z " fill="rgb(255,114,101)"/><path d=" M 897.948 685.581 Q 895.968 684.781 895.078 682.891 C 894.949 682.623 894.704 682.413 894.398 682.311 Q 892.708 681.771 893.198 679.831 Q 899.668 676.401 905.028 671.451 Q 906.348 670.231 904.948 669.081 L 907.038 667.551 Q 907.528 667.201 906.878 667.131 Q 901.768 666.571 896.638 666.131 Q 896.528 666.121 890.288 665.381 Q 885.468 664.811 880.598 665.271 Q 880.238 665.311 879.938 665.221 Q 878.528 664.811 880.018 664.351 Q 894.248 659.901 906.448 658.621 Q 909.098 658.341 912.638 658.711 Q 916.378 659.101 918.468 660.461 Q 923.798 663.921 920.008 671.181 Q 918.468 674.131 913.568 677.281 Q 906.108 682.081 897.948 685.581 Z " fill="rgb(255,114,101)"/><path d=" M 662.448 716.411 Q 663.438 718.981 665.698 720.581 Q 664.058 719.881 663.398 720.761 Q 663.118 721.141 662.818 721.271 Q 661.848 721.691 662.778 721.881 C 662.855 721.894 662.918 721.945 662.945 722.015 C 662.972 722.085 662.958 722.163 662.908 722.221 Q 661.728 723.821 661.448 726.371 Q 661.228 728.411 659.428 728.011 C 659.107 727.98 658.781 728.035 658.538 728.161 Q 658.208 728.521 658.198 729.081 Q 654.708 728.681 651.548 727.351 Q 647.868 725.801 646.408 723.151 Q 644.058 718.891 647.758 714.181 Q 649.688 711.731 653.858 709.491 Q 667.848 701.991 683.698 700.651 Q 686.098 700.451 688.238 700.831 Q 690.228 701.191 688.398 702.051 Q 678.788 706.571 669.018 710.711 Q 665.118 712.371 662.118 715.321 C 661.886 715.388 661.722 715.532 661.687 715.7 C 661.652 715.869 661.752 716.036 661.948 716.141 Q 662.118 716.331 662.448 716.411 Z " fill="rgb(255,114,101)"/><path d=" M 853.988 590.121 Q 854.048 592.671 856.758 593.741 C 857.351 593.98 857.868 594.37 858.258 594.871 Q 860.128 597.281 860.698 597.081 Q 862.278 599.201 861.918 601.871 Q 861.848 602.451 862.448 602.411 L 851.238 604.121 Q 852.338 599.431 848.098 597.151 Q 845.598 595.821 843.188 594.331 C 842.932 594.171 842.807 593.864 842.878 593.571 Q 843.328 591.731 843.878 589.911 Q 844.568 587.641 844.018 586.291 Q 842.928 583.591 839.168 580.761 Q 837.868 579.781 836.278 580.111 Q 835.648 580.241 835.508 582.061 Q 835.408 583.411 836.558 585.231 Q 837.678 587.011 838.078 588.111 Q 838.898 590.351 839.718 592.591 C 839.764 592.689 839.751 592.804 839.685 592.891 C 839.619 592.978 839.509 593.024 839.398 593.011 L 836.378 592.481 Q 834.238 592.111 833.948 594.101 Q 833.218 599.221 834.848 604.081 C 834.935 604.351 835.188 604.558 835.508 604.621 Q 837.088 604.911 837.198 606.581 L 822.698 609.411 Q 821.768 606.511 819.008 604.311 Q 815.928 601.851 812.198 602.331 L 815.088 599.461 C 815.428 599.223 815.536 598.875 815.368 598.561 Q 815.128 593.971 813.558 589.641 C 813.464 589.366 813.178 589.194 812.878 589.231 Q 811.578 589.451 811.048 590.811 Q 810.498 592.231 808.788 592.391 C 807.809 592.48 806.969 593.122 806.628 594.041 Q 804.548 599.661 807.198 605.411 Q 804.138 608.711 801.968 612.661 Q 801.518 613.461 802.198 613.831 L 772.948 620.831 Q 772.818 620.671 772.638 620.601 C 772.39 620.537 772.225 620.368 772.228 620.181 Q 772.008 618.131 770.648 616.851 Q 769.508 615.801 767.438 615.811 Q 761.808 615.841 757.018 618.921 Q 756.248 619.421 755.808 620.251 Q 755.408 621.001 754.968 621.901 C 754.768 622.282 754.83 622.737 755.128 623.061 L 756.698 625.081 L 736.198 630.581 L 735.378 629.861 C 735.111 629.775 734.789 629.768 734.508 629.841 Q 733.578 630.201 733.308 629.411 Q 733.158 629.001 733.358 628.361 Q 734.518 624.551 734.768 621.721 Q 734.968 619.491 732.828 618.831 Q 725.998 616.711 723.948 623.121 Q 723.328 625.051 722.948 631.871 Q 722.888 632.901 721.488 635.121 L 689.948 645.081 Q 689.798 642.711 690.198 641.621 Q 691.478 638.151 692.718 634.661 Q 693.418 632.721 693.178 630.471 Q 692.648 625.381 692.698 617.371 Q 692.758 607.461 701.098 605.661 Q 703.798 605.081 704.268 602.351 Q 705.848 593.101 713.948 593.161 Q 716.348 593.181 718.718 593.371 Q 721.638 593.601 722.278 591.381 Q 722.618 590.181 722.578 587.871 Q 722.508 584.231 719.178 583.531 Q 715.588 582.781 715.338 582.661 Q 709.668 579.961 711.508 572.931 Q 711.848 571.641 713.208 569.071 C 713.368 568.778 713.431 568.447 713.388 568.121 Q 713.128 565.441 713.718 562.901 Q 713.968 561.851 715.828 558.221 Q 717.258 555.441 717.728 552.381 Q 718.008 550.581 719.708 549.951 Q 721.778 549.181 723.608 548.041 Q 724.788 547.311 726.928 545.291 Q 730.168 542.231 733.888 539.751 Q 738.068 536.961 742.968 538.371 C 743.795 538.614 744.687 538.343 745.238 537.681 Q 749.808 532.241 756.348 535.751 Q 758.998 537.181 761.258 539.141 Q 762.708 540.411 764.708 541.271 Q 769.448 543.301 771.938 547.651 Q 772.558 548.721 773.748 553.321 Q 775.218 558.981 779.608 562.311 Q 781.278 563.581 782.428 561.811 Q 786.808 555.041 794.158 556.691 C 794.96 556.865 795.8 556.745 796.518 556.351 Q 806.198 550.941 814.558 555.541 Q 820.108 558.581 820.198 558.631 Q 826.318 561.521 829.638 564.431 Q 831.428 566.001 833.138 570.431 Q 833.908 572.441 836.228 574.841 Q 837.688 576.341 839.838 576.741 Q 842.338 577.211 844.898 577.431 Q 847.718 577.681 849.428 579.941 Q 851.648 582.881 852.498 587.611 Q 852.778 589.161 853.988 590.121 Z " fill="rgb(110,41,142)"/><path d=" M 843.658 704.121 Q 844.028 705.671 843.008 707.931 Q 839.738 715.221 832.748 717.061 C 832.465 717.135 832.274 717.393 832.288 717.681 Q 832.898 730.171 819.648 732.781 Q 817.318 733.241 816.318 735.391 Q 814.638 738.971 810.898 740.601 Q 810.108 740.951 803.868 742.141 Q 798.278 743.211 793.118 745.821 Q 791.048 746.861 788.838 746.181 Q 785.278 745.101 781.128 744.521 Q 781.048 744.511 778.768 744.351 Q 775.268 744.111 773.328 741.571 Q 772.138 740.021 771.818 737.401 Q 771.548 735.161 771.708 732.871 Q 771.978 729.011 768.258 728.311 Q 763.638 727.441 761.238 728.121 Q 760.278 726.011 761.768 725.211 Q 763.048 724.531 763.148 724.461 Q 766.918 721.851 770.048 724.681 Q 771.628 726.101 771.928 726.461 Q 772.838 727.521 772.798 729.071 Q 772.788 729.581 773.008 729.991 Q 774.998 733.661 774.568 737.811 C 774.49 738.132 774.553 738.465 774.748 738.751 Q 776.468 741.821 778.698 742.121 Q 782.668 742.651 783.388 742.931 Q 787.738 744.641 791.858 743.191 Q 795.548 741.881 795.658 741.851 Q 800.378 740.591 805.078 739.221 Q 808.518 738.211 810.578 736.961 Q 812.858 735.581 815.468 733.491 Q 816.318 732.801 816.808 731.831 Q 817.698 730.091 819.568 729.331 Q 826.208 726.621 828.488 719.901 Q 828.628 719.481 828.528 718.931 Q 828.278 717.521 828.738 716.241 Q 829.108 715.171 830.708 713.981 Q 833.798 711.661 836.188 708.591 Q 837.288 707.171 835.948 706.081 L 843.658 704.121 Z " fill="rgb(110,41,142)"/><path d=" M 812.198 602.331 Q 815.928 601.851 819.008 604.311 Q 821.768 606.511 822.698 609.411 L 802.198 613.831 Q 801.518 613.461 801.968 612.661 Q 804.138 608.711 807.198 605.411 L 812.198 602.331 Z " fill="rgb(142,48,164)"/><path d=" M 864.448 615.081 Q 865.308 615.061 865.318 615.671 Q 865.338 616.411 865.348 616.441 Q 866.678 622.331 871.658 625.871 Q 877.318 633.761 871.088 640.821 C 870.809 641.053 870.689 641.377 870.768 641.691 L 871.698 651.161 L 864.698 653.081 Q 863.978 650.791 863.898 648.371 Q 863.798 644.971 861.998 643.521 C 861.654 643.242 861.193 643.154 860.771 643.287 C 860.348 643.419 860.021 643.755 859.898 644.181 Q 858.448 649.241 858.208 653.821 Q 858.208 653.961 858.038 654.371 Q 857.898 654.701 858.448 654.661 L 832.698 660.411 Q 830.618 660.741 830.138 658.431 Q 829.608 655.911 829.888 654.421 C 829.931 654.113 830.136 653.838 830.448 653.671 L 835.388 650.811 Q 837.588 649.531 834.948 648.621 Q 832.068 647.631 829.228 646.541 Q 825.898 645.271 823.348 645.421 Q 819.758 645.621 816.568 646.881 Q 814.048 647.881 816.438 649.361 L 821.398 652.441 Q 823.038 653.461 822.588 655.531 Q 821.958 658.441 818.978 659.611 Q 814.928 661.201 813.758 662.181 Q 812.868 662.931 813.198 664.411 L 797.198 667.411 Q 795.738 667.531 796.238 666.121 Q 798.138 667.011 799.138 665.561 Q 800.538 663.511 799.728 660.651 Q 798.478 656.251 794.278 656.891 Q 794.248 656.891 792.158 657.491 Q 789.108 658.351 787.198 656.371 Q 780.008 648.941 772.738 655.871 Q 770.988 654.471 771.198 652.121 Q 771.408 649.691 769.508 650.681 Q 768.148 651.391 767.188 652.581 Q 761.928 659.101 756.958 665.831 Q 756.698 666.191 755.648 668.031 Q 754.998 669.191 753.998 670.061 Q 752.908 671.001 750.588 671.451 Q 746.708 672.181 742.958 673.391 Q 740.708 674.111 741.698 671.661 Q 746.638 666.621 742.198 661.081 Q 748.848 660.811 748.908 654.121 Q 750.518 656.651 752.758 654.931 Q 754.708 653.441 757.008 648.931 Q 757.778 647.441 757.738 646.121 Q 757.728 645.591 757.898 645.151 Q 758.718 643.011 758.098 640.841 Q 758.088 640.821 758.038 639.881 Q 757.998 639.271 756.948 639.331 Q 774.208 634.481 808.638 626.561 Q 833.468 620.851 838.448 619.911 Q 838.238 621.231 839.058 622.051 C 839.293 622.223 839.613 622.3 839.928 622.261 Q 844.428 621.271 848.398 623.691 C 848.78 623.924 849.039 624.315 849.103 624.758 C 849.167 625.201 849.029 625.649 848.728 625.981 Q 846.728 628.201 843.428 628.371 Q 840.578 628.521 842.128 630.921 Q 843.638 633.271 847.708 632.671 Q 851.148 632.171 853.568 630.111 Q 855.708 628.291 856.458 624.811 Q 857.358 620.641 856.948 616.331 L 864.448 615.081 Z " fill="rgb(142,48,164)"/><path d=" M 869.698 664.581 Q 872.558 666.941 868.938 667.771 C 868.627 667.842 868.359 668.034 868.198 668.301 Q 866.028 671.951 862.698 674.621 Q 861.638 675.471 857.698 679.621 Q 855.228 682.221 855.948 687.081 L 840.948 691.081 L 840.698 688.161 Q 842.868 686.981 844.198 684.831 Q 845.148 685.081 846.078 685.051 Q 846.938 685.011 847.718 684.321 Q 850.018 682.291 851.948 679.911 Q 855.908 675.351 856.658 669.371 Q 857.048 668.291 856.198 668.081 L 869.698 664.581 Z " fill="rgb(142,48,164)"/><path d=" M 772.198 701.831 Q 771.398 701.371 771.348 700.521 Q 771.268 699.411 771.258 699.361 Q 769.718 693.001 763.158 695.621 L 758.158 696.951 C 757.291 697.18 756.69 697.962 756.698 698.851 Q 756.698 700.321 755.908 701.641 C 755.779 701.905 755.503 702.111 755.158 702.201 L 748.708 703.121 Q 746.698 703.411 746.508 705.171 L 745.948 710.331 L 742.698 710.911 Q 741.308 710.961 741.028 709.601 Q 740.068 704.941 741.128 700.351 Q 741.538 698.571 743.188 698.371 L 749.458 697.621 Q 751.978 697.321 752.588 695.101 Q 753.218 692.831 755.508 691.181 Q 756.658 690.361 763.438 689.311 Q 768.268 688.551 772.368 690.521 Q 773.218 690.921 778.288 693.881 Q 781.188 695.581 783.838 697.851 Q 785.818 699.561 783.278 700.181 Q 777.808 701.521 772.198 701.831 Z " fill="rgb(142,48,164)"/><path d=" M 835.948 706.081 Q 837.288 707.171 836.188 708.591 Q 833.798 711.661 830.708 713.981 Q 829.108 715.171 828.738 716.241 Q 828.278 717.521 828.528 718.931 Q 828.628 719.481 828.488 719.901 Q 826.208 726.621 819.568 729.331 Q 817.698 730.091 816.808 731.831 Q 816.318 732.801 815.468 733.491 Q 812.858 735.581 810.578 736.961 Q 808.518 738.211 805.078 739.221 Q 800.378 740.591 795.658 741.851 Q 795.548 741.881 791.858 743.191 Q 787.738 744.641 783.388 742.931 Q 782.668 742.651 778.698 742.121 Q 776.468 741.821 774.748 738.751 C 774.553 738.465 774.49 738.132 774.568 737.811 Q 774.998 733.661 773.008 729.991 Q 772.788 729.581 772.798 729.071 Q 772.838 727.521 771.928 726.461 Q 771.628 726.101 770.048 724.681 Q 766.918 721.851 763.148 724.461 Q 763.048 724.531 761.768 725.211 Q 760.278 726.011 761.238 728.121 Q 757.528 732.591 751.688 731.181 Q 746.218 729.851 740.518 727.141 C 739.817 726.806 739.311 726.168 739.148 725.411 Q 738.988 724.651 737.948 724.831 L 775.698 719.161 Q 775.258 722.341 777.908 722.801 Q 780.358 723.221 780.438 723.251 Q 782.628 724.081 784.638 725.901 C 784.997 726.223 785.11 726.738 784.918 727.181 Q 783.938 729.511 782.478 731.671 Q 779.088 736.701 785.198 736.621 Q 786.808 736.601 788.928 736.951 Q 791.478 737.381 792.628 737.241 Q 795.778 736.861 798.268 734.681 C 798.555 734.47 798.688 734.134 798.615 733.807 C 798.541 733.48 798.273 733.216 797.918 733.121 L 793.738 731.251 Q 791.388 730.191 793.158 727.921 Q 795.568 724.831 797.698 727.081 Q 799.818 729.321 803.508 728.181 Q 807.268 727.031 811.218 726.871 C 811.622 726.855 811.943 726.525 811.948 726.121 Q 811.978 723.671 813.448 721.901 Q 814.768 720.301 814.818 720.231 Q 817.478 716.531 820.398 713.761 Q 820.958 713.241 821.308 712.551 Q 822.938 709.341 821.448 709.581 L 835.948 706.081 Z " fill="rgb(142,48,164)"/><path d=" M 772.948 620.831 L 756.698 625.081 L 755.128 623.061 C 754.83 622.737 754.768 622.282 754.968 621.901 Q 755.408 621.001 755.808 620.251 Q 756.248 619.421 757.018 618.921 Q 761.808 615.841 767.438 615.811 Q 769.508 615.801 770.648 616.851 Q 772.008 618.131 772.228 620.181 C 772.225 620.368 772.39 620.537 772.638 620.601 Q 772.818 620.671 772.948 620.831 Z " fill="rgb(97,36,133)"/><path d=" M 856.948 616.331 Q 857.358 620.641 856.458 624.811 Q 855.708 628.291 853.568 630.111 Q 851.148 632.171 847.708 632.671 Q 843.638 633.271 842.128 630.921 Q 840.578 628.521 843.428 628.371 Q 846.728 628.201 848.728 625.981 C 849.029 625.649 849.167 625.201 849.103 624.758 C 849.039 624.315 848.78 623.924 848.398 623.691 Q 844.428 621.271 839.928 622.261 C 839.613 622.3 839.293 622.223 839.058 622.051 Q 838.238 621.231 838.448 619.911 L 850.448 617.331 L 856.948 616.331 Z " fill="rgb(97,36,133)"/><path d=" M 827.448 674.581 Q 827.908 674.991 828.128 675.581 C 828.165 675.871 828.352 676.146 828.658 676.361 Q 832.498 679.491 830.198 684.081 Q 827.628 685.611 824.698 686.161 Q 819.258 686.391 815.298 683.021 Q 813.948 681.881 813.708 680.401 Q 813.448 678.801 813.948 677.161 L 827.448 674.581 Z " fill="rgb(97,36,133)"/><path d=" M 844.198 684.831 Q 842.868 686.981 840.698 688.161 Q 837.848 688.331 835.488 686.621 L 834.908 684.871 Q 836.888 679.151 842.698 678.651 C 843.013 678.628 843.318 678.764 843.508 679.011 Q 845.408 681.651 844.198 684.831 Z " fill="rgb(97,36,133)"/><path d=" M 821.448 709.581 Q 822.938 709.341 821.308 712.551 Q 820.958 713.241 820.398 713.761 Q 817.478 716.531 814.818 720.231 Q 814.768 720.301 813.448 721.901 Q 811.978 723.671 811.948 726.121 C 811.943 726.525 811.622 726.855 811.218 726.871 Q 807.268 727.031 803.508 728.181 Q 799.818 729.321 797.698 727.081 Q 794.998 721.571 795.198 715.411 L 821.448 709.581 Z " fill="rgb(97,36,133)"/><path d=" M 756.948 639.331 Q 757.998 639.271 758.038 639.881 Q 758.088 640.821 758.098 640.841 Q 758.718 643.011 757.898 645.151 Q 757.728 645.591 757.738 646.121 Q 757.778 647.441 757.008 648.931 Q 754.708 653.441 752.758 654.931 Q 750.518 656.651 748.908 654.121 Q 749.898 649.451 745.998 650.091 C 745.642 650.144 745.367 650.359 745.308 650.631 L 744.448 654.371 Q 743.798 657.181 741.198 656.371 Q 738.248 655.451 735.228 654.981 Q 731.628 654.421 729.328 655.651 Q 725.888 657.501 724.838 661.791 Q 724.078 664.881 726.948 665.661 Q 725.788 669.251 727.848 672.021 Q 729.228 673.881 729.288 673.941 Q 730.618 675.561 732.138 673.761 C 732.732 673.544 732.865 673.173 732.458 672.871 L 733.148 667.411 C 733.163 667.097 733.346 666.805 733.648 666.611 Q 735.398 665.321 737.828 666.451 C 738.123 666.591 738.349 666.843 738.458 667.151 Q 739.208 669.351 740.668 670.011 C 740.958 670.144 741.18 670.373 741.288 670.651 L 741.698 671.661 Q 740.708 674.111 742.958 673.391 Q 746.708 672.181 750.588 671.451 Q 752.908 671.001 753.998 670.061 Q 754.998 669.191 755.648 668.031 Q 756.698 666.191 756.958 665.831 Q 761.928 659.101 767.188 652.581 Q 768.148 651.391 769.508 650.681 Q 771.408 649.691 771.198 652.121 Q 770.988 654.471 772.738 655.871 Q 771.518 657.851 771.248 660.181 Q 770.658 665.231 775.158 663.951 C 775.466 663.86 775.707 663.627 775.798 663.331 Q 776.248 661.951 776.588 660.531 Q 777.118 658.351 778.008 657.541 Q 779.198 656.471 780.778 656.611 Q 781.918 656.721 783.188 657.841 Q 785.028 659.461 786.638 661.181 Q 787.788 662.401 789.438 662.121 Q 794.718 661.231 796.238 666.121 Q 795.738 667.531 797.198 667.411 Q 750.118 675.721 700.448 679.621 Q 693.678 680.151 688.948 680.081 Q 686.878 679.051 685.758 677.561 Q 680.718 670.841 681.698 662.081 Q 682.398 661.561 682.758 661.431 Q 719.438 648.991 756.948 639.331 Z " fill="rgb(104,38,133)"/><path d=" M 873.158 663.871 Q 872.198 665.121 871.138 669.061 Q 870.508 671.371 867.268 674.451 Q 863.708 677.831 861.858 682.321 Q 861.368 683.491 860.788 684.291 Q 860.128 685.191 859.448 686.081 L 855.948 687.081 Q 855.228 682.221 857.698 679.621 Q 861.638 675.471 862.698 674.621 Q 866.028 671.951 868.198 668.301 C 868.359 668.034 868.627 667.842 868.938 667.771 Q 872.558 666.941 869.698 664.581 Q 871.338 663.811 873.158 663.871 Z " fill="rgb(104,38,133)"/><path d=" M 856.658 669.371 Q 855.908 675.351 851.948 679.911 L 850.258 679.841 C 849.94 679.825 849.652 679.647 849.498 679.371 Q 847.218 675.351 850.918 672.341 Q 852.248 671.251 852.848 669.651 C 852.935 669.386 853.199 669.198 853.508 669.181 L 856.658 669.371 Z " fill="rgb(104,38,133)"/><path d=" M 835.488 686.621 Q 837.848 688.331 840.698 688.161 L 840.948 691.081 Q 830.228 694.271 819.238 696.371 L 818.948 694.331 Q 820.068 693.271 820.998 692.061 Q 822.118 690.611 823.258 690.121 Q 825.948 688.981 828.698 689.371 Q 833.148 690.001 835.488 686.621 Z " fill="rgb(104,38,133)"/><path d=" M 795.198 715.411 Q 794.998 721.571 797.698 727.081 Q 795.568 724.831 793.158 727.921 Q 791.388 730.191 793.738 731.251 L 797.918 733.121 C 798.273 733.216 798.541 733.48 798.615 733.807 C 798.688 734.134 798.555 734.47 798.268 734.681 Q 795.778 736.861 792.628 737.241 Q 791.478 737.381 788.928 736.951 Q 786.808 736.601 785.198 736.621 Q 779.088 736.701 782.478 731.671 Q 783.938 729.511 784.918 727.181 C 785.11 726.738 784.997 726.223 784.638 725.901 Q 782.628 724.081 780.438 723.251 Q 780.358 723.221 777.908 722.801 Q 775.258 722.341 775.698 719.161 L 795.198 715.411 Z " fill="rgb(104,38,133)"/><path d=" M 650.908 667.871 L 653.448 674.331 L 645.158 678.741 Q 643.638 679.551 645.358 679.821 L 652.198 680.911 Q 652.038 683.441 654.388 683.931 Q 662.748 685.691 671.868 685.381 Q 680.458 685.091 680.538 685.091 Q 701.758 684.871 722.948 683.581 Q 726.988 683.631 723.048 684.541 Q 722.718 684.621 722.338 684.601 Q 715.358 684.261 709.648 687.681 Q 705.958 689.891 704.388 690.341 Q 699.908 691.621 695.198 691.271 Q 693.598 691.151 692.288 691.601 Q 690.868 692.091 689.448 692.581 Q 677.208 693.351 664.948 693.471 Q 651.508 693.611 639.698 691.121 Q 636.728 690.491 634.098 688.701 Q 631.308 686.791 630.158 684.271 Q 628.178 679.961 631.158 675.371 Q 630.938 677.881 633.448 677.121 Q 636.038 676.331 637.838 675.101 Q 641.378 672.681 641.448 672.641 Q 646.118 670.141 650.908 667.871 Z " fill="rgb(254,118,113)"/><path d=" M 871.448 607.831 L 874.238 613.621 L 867.698 614.661 L 864.448 615.081 L 856.948 616.331 L 850.448 617.331 Q 848.878 617.151 848.108 615.881 C 847.974 615.635 847.699 615.47 847.388 615.451 Q 842.778 615.691 838.418 617.201 Q 838.118 617.311 837.468 617.221 L 832.698 616.581 L 871.448 607.831 Z " fill="rgb(254,120,128)"/><path d=" M 893.198 679.831 Q 892.708 681.771 894.398 682.311 C 894.704 682.413 894.949 682.623 895.078 682.891 Q 895.968 684.781 897.948 685.581 Q 875.618 695.031 852.178 701.311 Q 847.838 702.481 843.658 704.121 L 835.948 706.081 L 821.448 709.581 L 795.198 715.411 L 775.698 719.161 L 737.948 724.831 Q 714.318 727.941 686.698 729.371 Q 671.308 730.171 658.198 729.081 Q 658.208 728.521 658.538 728.161 C 658.781 728.035 659.107 727.98 659.428 728.011 Q 661.228 728.411 661.448 726.371 Q 661.728 723.821 662.908 722.221 C 662.958 722.163 662.972 722.085 662.945 722.015 C 662.918 721.945 662.855 721.894 662.778 721.881 Q 661.848 721.691 662.818 721.271 Q 663.118 721.141 663.398 720.761 Q 664.058 719.881 665.698 720.581 Q 671.488 721.901 677.448 721.941 Q 691.728 722.021 705.978 721.261 Q 715.168 720.771 725.878 719.461 Q 753.658 716.081 781.198 711.161 Q 788.658 709.831 800.568 707.051 Q 810.228 704.801 819.938 702.841 Q 839.658 698.861 846.138 696.561 Q 858.228 692.271 870.638 689.061 Q 878.068 687.131 893.198 679.831 Z " fill="rgb(254,120,128)"/><path d=" M 878.108 594.711 Q 879.378 595.281 880.998 595.581 Q 881.798 595.721 882.198 595.991 Q 883.228 596.681 882.198 597.351 Q 881.808 597.601 881.138 597.701 Q 879.438 597.961 877.738 598.191 Q 876.128 598.421 875.288 597.791 Q 873.948 596.781 874.698 594.871 Q 875.888 591.831 876.898 589.371 Q 877.878 587.021 875.338 586.881 Q 871.378 586.661 869.948 590.121 Q 869.798 590.491 868.958 591.761 Q 868.918 591.831 868.148 593.171 Q 866.628 595.821 863.538 595.041 Q 861.978 594.641 863.368 593.821 Q 864.718 593.021 865.288 591.601 Q 868.468 583.681 877.548 583.621 Q 880.598 583.601 880.638 586.641 Q 880.698 590.331 877.848 593.481 C 877.676 593.664 877.604 593.918 877.656 594.162 C 877.708 594.407 877.876 594.611 878.108 594.711 Z " fill="rgb(116,63,97)"/><path d=" M 922.083 616.108 C 922.938 616.705 923.066 618.002 922.368 619.002 C 921.67 620.002 920.409 620.33 919.554 619.733 C 918.698 619.136 918.57 617.84 919.268 616.839 C 919.966 615.839 921.227 615.511 922.083 616.108 Z " fill="rgb(116,63,97)"/><circle vector-effect="non-scaling-stroke" cx="908.2581354917452" cy="625.5407312898842" r="2.730000000000018" fill="rgb(116,63,97)"/><path d=" M 886.654 630.961 C 886.544 630.522 886.977 630.035 887.62 629.875 C 888.262 629.715 888.873 629.941 888.982 630.38 C 889.092 630.82 888.659 631.306 888.017 631.466 C 887.374 631.627 886.763 631.4 886.654 630.961 Z " fill="rgb(116,63,97)"/><path d=" M 765.698 556.081 Q 765.178 557.041 764.388 557.061 Q 758.558 557.171 752.108 555.441 Q 750.398 554.991 749.778 555.241 Q 748.668 555.691 748.318 557.561 C 748.136 558.529 747.517 559.362 746.638 559.821 Q 744.978 560.681 744.408 558.371 Q 743.138 553.321 738.248 553.641 C 737.924 553.678 737.626 553.82 737.408 554.041 Q 734.168 557.341 731.458 561.081 Q 730.098 562.941 730.058 565.061 Q 729.978 568.961 731.198 572.371 Q 732.458 575.911 729.448 577.661 Q 724.518 571.501 724.508 564.261 C 724.511 563.551 724.321 562.854 723.958 562.241 Q 722.588 559.901 723.888 558.521 C 724.109 558.344 724.424 558.239 724.758 558.231 Q 727.968 558.421 729.838 555.771 Q 732.718 551.681 735.798 547.921 Q 737.238 546.151 739.378 547.431 L 745.998 551.401 C 746.281 551.508 746.608 551.504 746.888 551.391 Q 750.988 549.351 754.848 551.781 C 755.121 551.952 755.439 552.052 755.768 552.071 Q 760.478 552.181 763.698 553.121 Q 765.688 553.701 765.698 556.081 Z " fill="rgb(238,103,201)"/><path d=" M 780.978 581.251 Q 777.748 581.001 778.948 577.991 Q 781.748 570.971 787.768 567.601 Q 794.218 563.981 798.698 563.871 Q 803.148 563.761 807.568 562.591 C 808.539 562.336 809.54 562.881 809.848 563.831 Q 810.698 566.481 811.458 569.871 Q 812.758 575.681 815.928 580.691 C 816.087 580.932 816.025 581.253 815.788 581.421 Q 813.928 582.741 812.298 582.991 Q 810.188 583.311 809.358 585.281 Q 808.618 587.031 807.368 587.821 Q 805.838 588.781 804.548 587.761 Q 803.258 586.721 803.518 584.191 Q 803.718 582.151 805.388 580.951 Q 809.668 577.841 807.508 572.061 Q 806.428 569.151 803.948 568.641 Q 802.718 568.391 799.448 568.821 Q 790.598 569.991 785.418 577.221 Q 785.358 577.291 784.268 579.241 Q 783.048 581.411 780.978 581.251 Z " fill="rgb(238,103,201)"/><path d=" M 768.448 602.081 L 774.158 604.371 Q 777.878 605.931 779.898 608.841 Q 781.578 611.251 778.648 610.931 Q 774.178 610.441 770.248 608.281 Q 768.348 607.241 766.338 606.501 Q 764.328 605.751 762.498 606.311 Q 761.218 606.711 760.028 607.361 Q 759.028 607.901 757.638 608.511 Q 754.228 610.011 752.818 613.581 C 752.784 613.686 752.695 613.776 752.575 613.825 C 752.454 613.875 752.313 613.881 752.188 613.841 Q 751.578 613.361 752.008 612.181 Q 752.848 609.871 751.448 607.621 Q 749.948 605.211 747.648 605.401 Q 745.908 605.551 744.238 607.211 Q 741.008 610.421 741.398 615.381 C 741.474 615.696 741.387 616.022 741.158 616.281 Q 739.758 618.081 736.948 618.621 Q 732.298 619.511 734.268 615.371 Q 736.048 611.621 737.898 607.901 Q 740.418 602.821 742.728 601.311 Q 747.258 598.361 753.008 602.561 Q 754.728 603.811 757.908 602.951 Q 763.098 601.551 768.448 602.081 Z " fill="rgb(238,103,201)"/><path d=" M 703.948 621.411 L 700.198 618.081 Q 701.208 615.211 703.648 613.921 Q 704.388 613.531 706.378 613.381 Q 707.948 613.261 709.138 612.561 Q 712.878 610.341 715.608 606.231 C 715.78 605.974 716.066 605.802 716.388 605.761 Q 721.098 605.421 725.198 607.681 C 725.495 607.837 725.689 608.113 725.718 608.421 Q 726.128 611.451 722.508 611.441 Q 713.468 611.401 709.918 619.491 C 709.685 619.992 709.147 620.373 708.478 620.511 L 703.948 621.411 Z " fill="rgb(238,103,201)"/><path d=" M 700.198 618.081 L 703.948 621.411 Q 698.328 625.921 703.438 631.131 Q 706.158 633.911 704.948 637.631 C 704.743 638.244 704.084 638.578 703.468 638.381 Q 696.378 636.051 695.758 628.561 Q 695.278 622.711 700.198 618.081 Z " fill="rgb(238,103,201)"/><path d=" M 710.738 665.561 C 710.438 665.32 710.256 664.963 710.238 664.581 Q 710.118 661.801 709.838 659.651 Q 709.678 658.361 709.818 657.581 Q 710.288 654.891 712.228 656.791 Q 713.408 657.951 714.438 659.241 Q 717.558 663.171 715.068 665.481 Q 712.998 667.401 710.738 665.561 Z " fill="rgb(238,103,201)"/><path d=" M 700.378 667.181 C 699.85 666.921 699.213 667.009 698.778 667.401 L 690.748 674.961 Q 689.138 676.471 690.008 674.451 L 694.888 663.011 Q 695.578 661.381 697.358 661.791 Q 702.678 663.031 707.448 664.861 Q 713.638 667.231 708.408 668.961 Q 706.978 669.431 705.458 669.061 Q 702.828 668.421 700.378 667.181 Z " fill="rgb(238,103,201)"/><path d=" M 765.698 556.081 Q 767.368 556.641 766.948 558.121 Q 765.448 563.351 765.018 566.661 Q 764.828 568.181 764.188 569.251 Q 763.438 570.531 762.718 571.621 C 762.571 571.841 762.547 572.12 762.655 572.362 C 762.762 572.603 762.986 572.773 763.248 572.811 Q 765.528 573.121 767.088 575.201 C 767.28 575.457 767.582 575.612 767.908 575.621 Q 770.228 575.661 769.438 579.321 Q 769.018 581.291 770.658 582.481 Q 773.338 584.421 776.138 585.931 Q 778.628 587.261 778.608 589.951 Q 778.598 591.271 778.678 592.771 Q 778.748 594.341 777.948 595.621 Q 775.198 600.021 774.158 604.371 L 768.448 602.081 Q 769.378 599.661 769.208 597.221 Q 769.078 595.231 767.448 593.701 Q 765.928 592.281 764.158 591.181 Q 762.568 590.181 760.348 590.231 Q 758.988 590.261 757.618 590.291 Q 756.218 590.311 754.978 589.841 Q 751.418 588.511 748.068 586.721 Q 746.328 585.791 745.008 586.091 Q 743.188 586.491 742.128 587.951 Q 740.928 589.621 741.198 591.621 Q 741.488 593.721 743.428 595.121 Q 746.758 597.501 743.058 597.421 Q 742.428 597.401 741.368 597.591 Q 738.908 598.021 736.388 595.931 Q 729.788 590.461 733.948 583.411 L 739.728 580.871 C 740.52 580.494 741.134 579.928 741.478 579.261 L 745.158 573.121 Q 746.168 571.441 748.078 572.401 Q 751.628 574.201 755.958 575.031 C 756.282 575.078 756.614 575.036 756.908 574.911 Q 759.448 573.611 758.448 570.371 Q 757.438 567.101 755.098 565.751 Q 751.758 563.821 748.018 563.961 Q 747.958 563.971 744.108 564.861 Q 740.528 565.691 740.028 561.711 Q 739.778 559.721 740.718 558.731 Q 741.918 557.471 744.408 558.371 Q 744.978 560.681 746.638 559.821 C 747.517 559.362 748.136 558.529 748.318 557.561 Q 748.668 555.691 749.778 555.241 Q 750.398 554.991 752.108 555.441 Q 758.558 557.171 764.388 557.061 Q 765.178 557.041 765.698 556.081 Z " fill="rgb(135,48,161)"/><path d=" M 803.658 639.441 Q 801.358 638.891 800.048 640.711 Q 797.408 644.401 798.338 648.891 C 798.548 649.195 798.526 649.543 798.278 649.831 Q 797.748 651.001 796.868 650.021 Q 796.528 649.651 796.318 648.991 Q 794.578 643.491 796.838 638.701 Q 798.358 635.461 801.458 634.611 Q 804.678 633.731 808.258 635.061 Q 810.728 635.971 811.108 638.191 Q 811.398 639.861 810.288 641.181 Q 808.658 643.111 806.398 640.931 Q 805.228 639.811 803.658 639.441 Z " fill="rgb(117,40,147)"/><path d=" M 719.738 676.571 Q 717.318 677.021 717.878 675.691 Q 718.718 673.691 719.918 672.061 Q 720.918 670.701 720.698 672.351 L 720.198 676.101 C 720.171 676.334 719.985 676.524 719.738 676.571 Z " fill="rgb(117,40,147)"/><path d=" M 863.507 628.883 C 865.368 628.507 867.202 629.806 867.6 631.781 C 867.998 633.756 866.811 635.663 864.95 636.039 C 863.088 636.414 861.254 635.115 860.856 633.141 C 860.458 631.166 861.646 629.258 863.507 628.883 Z " fill="rgb(93,35,128)"/><path d=" M 819.208 635.871 Q 818.658 637.401 817.218 638.141 Q 814.668 639.441 814.718 635.241 Q 814.748 633.341 813.268 632.161 Q 812.338 631.421 812.168 629.231 C 812.145 628.959 812.241 628.691 812.431 628.492 C 812.622 628.294 812.89 628.184 813.168 628.191 Q 814.248 628.221 815.378 627.991 Q 815.728 627.921 816.768 627.351 Q 817.858 626.761 818.168 628.121 Q 818.348 628.931 818.598 629.411 Q 820.338 632.741 819.208 635.871 Z " fill="rgb(110,41,142)"/><path d=" M 783.418 642.611 Q 778.528 644.511 774.928 647.011 Q 771.468 649.411 772.698 645.381 Q 774.688 638.851 781.218 637.231 C 781.524 637.163 781.846 637.236 782.088 637.431 Q 784.448 639.361 785.748 642.161 C 785.832 642.278 785.851 642.423 785.801 642.554 C 785.75 642.685 785.634 642.787 785.488 642.831 Q 784.878 643.011 784.298 642.711 C 784.032 642.601 783.718 642.566 783.418 642.611 L 783.418 642.611 Z " fill="rgb(110,41,142)"/><path d=" M 701.218 677.741 Q 700.708 677.201 700.998 676.331 Q 701.178 675.791 701.128 675.381 Q 700.658 671.701 703.088 672.681 Q 704.478 673.231 705.468 673.861 Q 706.928 674.791 707.098 676.571 C 707.142 677.031 706.846 677.455 706.398 677.571 Q 704.198 678.121 702.688 678.181 Q 701.678 678.231 701.218 677.741 Z " fill="rgb(142,48,164)"/><path d=" M 744.408 558.371 Q 741.918 557.471 740.718 558.731 Q 739.778 559.721 740.028 561.711 Q 740.528 565.691 744.108 564.861 Q 747.958 563.971 748.018 563.961 Q 751.758 563.821 755.098 565.751 Q 757.438 567.101 758.448 570.371 Q 759.448 573.611 756.908 574.911 C 756.614 575.036 756.282 575.078 755.958 575.031 Q 751.628 574.201 748.078 572.401 Q 746.168 571.441 745.158 573.121 L 741.478 579.261 C 741.134 579.928 740.52 580.494 739.728 580.871 L 733.948 583.411 Q 732.918 583.571 732.508 583.061 Q 731.028 581.171 729.508 579.311 Q 728.678 578.281 729.448 577.661 Q 732.458 575.911 731.198 572.371 Q 729.978 568.961 730.058 565.061 Q 730.098 562.941 731.458 561.081 Q 734.168 557.341 737.408 554.041 C 737.626 553.82 737.924 553.678 738.248 553.641 Q 743.138 553.321 744.408 558.371 Z " fill="rgb(97,36,133)"/><path d=" M 826.288 638.431 Q 824.298 635.261 826.138 630.811 Q 827.038 628.611 828.648 627.571 Q 830.138 626.601 831.878 626.951 Q 833.998 627.361 833.638 629.581 Q 833.538 630.251 832.478 632.121 Q 830.118 636.311 836.298 636.631 Q 839.988 636.811 837.568 639.601 Q 834.978 642.571 831.258 641.771 Q 827.938 641.061 826.288 638.431 Z " fill="rgb(104,38,133)"/><path d=" M 845.148 650.111 C 844.832 649.869 844.66 649.525 844.678 649.171 Q 844.318 639.941 853.248 638.541 Q 854.908 638.281 856.038 638.921 Q 857.848 639.951 856.678 641.651 Q 856.358 642.111 854.868 643.221 Q 852.518 644.971 851.908 647.761 Q 851.808 648.181 852.098 650.941 Q 852.328 653.061 850.538 654.511 C 850.305 654.634 850.005 654.605 849.808 654.441 L 845.148 650.111 Z " fill="rgb(104,38,133)"/></g></g></svg>