<?xml version="1.0" encoding="UTF-8" standalone="no"?><!-- Generator: Gravit.io --><svg xmlns="http://www.w3.org/2000/svg" xmlns:xlink="http://www.w3.org/1999/xlink" style="isolation:isolate" viewBox="604.598 333.32 293.079 165.322" width="293.079pt" height="165.322pt"><defs><clipPath id="_clipPath_Q7kwa7p5L3qturNWpKs9cXTX05K8PnFq"><rect x="604.598" y="333.32" width="293.079" height="165.322"/></clipPath></defs><g clip-path="url(#_clipPath_Q7kwa7p5L3qturNWpKs9cXTX05K8PnFq)"><g><path d=" M 756.413 417.322 Q 761.963 416.292 763.973 420.702 Q 764.533 421.932 764.503 423.102 Q 764.423 425.722 761.413 424.072 Q 758.363 422.172 756.223 418.552 Q 755.723 417.692 756.413 417.322 Z " fill="rgb(255,130,47)"/><path d=" M 796.873 351.612 Q 797.603 352.212 797.703 353.112 Q 793.813 362.922 799.923 371.352 Q 803.213 375.892 803.413 379.112 Q 804.033 389.052 800.193 400.732 Q 798.303 406.482 797.663 407.572 Q 795.653 411.022 791.413 412.112 Q 782.123 414.502 771.473 413.802 Q 770.293 413.722 771.163 412.652 Q 772.743 412.762 774.163 412.152 Q 778.503 411.562 786.223 409.422 Q 790.793 408.162 793.193 404.932 Q 794.663 402.952 796.313 397.722 Q 798.073 392.142 798.403 386.312 Q 798.723 380.562 796.813 376.172 Q 794.683 371.312 790.663 367.572 Q 786.373 360.102 791.353 352.552 Q 793.663 349.042 796.873 351.612 Z " fill="rgb(226,68,76)"/><path d=" M 797.703 353.112 Q 798.823 353.442 799.603 354.672 Q 802.913 359.962 807.903 366.122 Q 813.613 373.172 816.203 381.862 Q 816.563 382.662 816.203 383.362 Q 816.253 382.732 815.753 382.982 Q 811.933 384.892 809.443 388.362 Q 806.003 393.172 807.273 398.572 Q 807.383 399.082 808.983 402.892 Q 809.903 405.072 810.323 407.392 Q 810.933 410.722 809.353 413.052 Q 806.933 416.612 801.913 417.112 Q 795.543 417.742 788.823 419.972 Q 780.043 422.882 775.943 431.162 Q 773.893 435.292 772.113 439.552 Q 769.283 446.362 764.593 452.062 Q 763.463 453.432 765.213 453.102 Q 768.033 452.572 770.283 450.722 Q 774.893 446.922 777.273 441.412 Q 778.463 438.632 779.643 435.852 Q 781.173 432.222 783.603 429.222 Q 785.873 426.442 789.523 424.492 Q 795.513 421.292 800.723 420.922 Q 806.283 420.542 809.163 419.362 Q 811.983 418.212 813.983 415.202 Q 815.023 413.642 814.973 411.772 Q 814.933 409.932 814.453 408.112 Q 815.923 408.272 817.163 407.402 Q 821.133 405.332 824.713 402.662 Q 826.743 401.152 827.203 404.082 Q 827.463 405.792 826.373 407.142 Q 823.643 410.482 818.943 412.252 C 818.629 412.371 818.389 412.6 818.283 412.882 Q 817.483 414.992 818.373 417.112 Q 816.983 419.722 814.893 421.672 Q 813.243 423.212 810.293 423.852 Q 796.903 426.772 794.163 427.862 Q 788.293 430.212 785.473 434.422 Q 781.253 440.732 775.913 452.112 Q 774.903 454.262 777.413 454.572 Q 775.713 455.232 776.413 457.072 L 761.913 457.322 Q 759.563 457.152 757.353 456.402 Q 749.493 453.732 741.173 454.452 Q 736.343 454.872 731.933 453.072 Q 727.233 451.152 722.163 450.862 Q 717.363 450.582 710.913 446.362 Q 709.153 445.212 706.833 444.642 Q 704.273 444.022 703.233 443.532 Q 700.983 442.462 699.973 441.552 Q 696.043 437.972 691.163 435.902 Q 693.153 435.492 692.983 433.602 C 692.984 433.298 692.797 433.013 692.483 432.842 Q 689.533 430.922 687.723 428.302 Q 683.213 421.772 680.323 413.682 Q 680.053 412.922 680.213 412.152 C 680.339 411.844 680.307 411.511 680.123 411.222 Q 679.123 409.052 679.413 406.652 Q 681.213 409.522 682.723 412.552 Q 684.813 416.732 690.413 418.652 Q 691.013 425.252 693.883 431.222 C 694.019 431.517 694.241 431.77 694.523 431.952 L 700.163 435.652 Q 702.393 437.052 704.733 438.242 Q 705.043 438.402 706.253 439.392 Q 707.053 440.032 708.163 440.072 Q 709.213 440.252 708.943 439.312 Q 708.563 437.982 708.373 436.612 Q 709.453 434.732 710.023 436.382 C 710.085 436.681 710.275 436.952 710.563 437.152 Q 712.663 438.722 714.153 440.892 Q 716.743 444.682 721.593 445.202 Q 722.823 445.332 721.933 444.502 L 713.663 436.822 Q 713.593 434.072 715.363 434.812 Q 715.943 435.052 716.933 436.012 Q 726.383 445.212 737.983 438.132 C 738.095 438.078 738.229 438.068 738.35 438.105 C 738.472 438.142 738.568 438.221 738.613 438.322 L 739.203 440.612 Q 734.283 442.192 730.403 445.622 Q 728.853 446.992 730.893 446.642 Q 735.403 445.872 740.903 445.502 Q 749.523 444.912 751.913 436.862 Q 753.633 431.062 749.453 425.862 L 748.123 423.612 Q 747.913 420.292 751.163 419.572 Q 751.593 419.612 751.913 419.902 Q 753.283 421.372 755.183 421.972 C 755.496 422.084 755.767 422.275 755.963 422.522 Q 758.003 425.092 761.413 424.072 Q 764.423 425.722 764.503 423.102 Q 764.533 421.932 763.973 420.702 Q 761.963 416.292 756.413 417.322 Q 757.293 416.882 756.423 416.862 C 756.26 416.85 756.116 416.767 756.043 416.642 Q 755.303 415.172 756.413 413.822 Q 760.993 413.322 764.543 415.682 C 765.087 416.041 765.799 416.013 766.313 415.612 Q 768.723 413.732 767.913 413.152 Q 769.363 412.082 771.163 412.652 Q 770.293 413.722 771.473 413.802 Q 782.123 414.502 791.413 412.112 Q 795.653 411.022 797.663 407.572 Q 798.303 406.482 800.193 400.732 Q 804.033 389.052 803.413 379.112 Q 803.213 375.892 799.923 371.352 Q 793.813 362.922 797.703 353.112 Z " fill="rgb(123,50,66)"/><path d=" M 790.663 367.572 Q 794.683 371.312 796.813 376.172 Q 798.723 380.562 798.403 386.312 Q 798.073 392.142 796.313 397.722 Q 794.663 402.952 793.193 404.932 Q 790.793 408.162 786.223 409.422 Q 778.503 411.562 774.163 412.152 Q 771.753 410.602 772.913 407.902 Q 780.003 408.022 784.633 404.042 Q 788.663 400.582 790.003 393.942 Q 792.163 383.262 786.623 373.112 Q 786.173 371.642 786.913 371.112 Q 789.023 369.592 790.663 367.572 Z " fill="rgb(137,48,67)"/><path d=" M 685.913 368.652 L 686.473 368.882 C 686.604 368.93 686.701 369.035 686.733 369.163 C 686.765 369.291 686.728 369.425 686.633 369.522 L 684.623 372.362 Q 679.623 371.942 676.163 375.572 Q 675.213 375.602 674.413 375.072 L 676.063 373.472 C 676.366 373.239 676.499 372.918 676.423 372.602 Q 676.533 370.852 677.873 369.612 L 685.913 368.652 Z " fill="rgb(253,163,149)"/><path d=" M 786.453 373.112 L 786.623 373.112 Q 792.163 383.262 790.003 393.942 Q 788.663 400.582 784.633 404.042 Q 780.003 408.022 772.913 407.902 Q 772.113 407.992 771.413 407.652 L 774.663 402.402 Q 778.613 401.892 781.333 399.472 Q 783.733 397.342 784.633 393.442 Q 786.193 386.692 783.663 379.902 Q 785.073 380.002 785.353 378.862 C 785.717 378.563 785.653 378.178 785.193 377.902 Q 783.953 375.092 786.453 373.112 Z " fill="rgb(234,84,78)"/><path d=" M 690.413 418.652 L 692.703 419.612 Q 693.443 420.702 694.153 421.802 Q 694.793 422.812 695.213 424.192 Q 696.973 429.922 700.493 434.802 Q 701.023 435.542 700.163 435.652 L 694.523 431.952 C 694.241 431.77 694.019 431.517 693.883 431.222 Q 691.013 425.252 690.413 418.652 Z " fill="rgb(234,84,78)"/><path d=" M 824.663 386.322 Q 828.073 394.282 829.363 402.872 Q 832.703 425.092 824.473 445.922 Q 823.773 447.682 823.913 449.572 Q 820.973 451.322 817.983 452.982 Q 805.833 459.692 791.893 458.362 Q 785.663 457.762 779.413 457.402 L 776.413 457.072 Q 775.713 455.232 777.413 454.572 Q 780.243 454.752 781.663 452.322 Q 782.803 453.032 784.913 452.612 Q 792.813 451.022 797.913 447.652 Q 804.993 442.712 810.043 435.682 Q 810.703 434.752 811.453 433.862 Q 814.803 430.272 816.373 425.612 Q 819.093 421.772 818.373 417.112 Q 817.483 414.992 818.283 412.882 C 818.389 412.6 818.629 412.371 818.943 412.252 Q 823.643 410.482 826.373 407.142 Q 827.463 405.792 827.203 404.082 Q 826.743 401.152 824.713 402.662 Q 821.133 405.332 817.163 407.402 Q 816.583 404.142 817.853 401.052 Q 818.083 400.482 817.843 398.242 Q 817.693 396.892 818.003 395.502 Q 818.983 391.122 818.693 386.602 C 818.64 386.289 818.746 385.971 818.983 385.732 Q 820.863 383.672 821.973 386.302 Q 822.833 388.322 824.663 386.322 Z " fill="rgb(62,34,71)"/><path d=" M 677.373 400.862 Q 677.533 404.092 679.413 406.652 Q 679.123 409.052 680.123 411.222 C 680.307 411.511 680.339 411.844 680.213 412.152 Q 680.053 412.922 680.323 413.682 Q 683.213 421.772 687.723 428.302 Q 689.533 430.922 692.483 432.842 C 692.797 433.013 692.984 433.298 692.983 433.602 Q 693.153 435.492 691.163 435.902 Q 684.003 434.482 680.723 429.802 Q 677.963 425.852 676.913 418.612 Q 675.993 412.262 676.873 401.362 Q 677.023 401.012 677.373 400.862 Z " fill="rgb(78,39,61)"/><path d=" M 745.663 333.822 Q 745.033 335.412 743.663 336.572 Q 740.313 338.662 737.543 341.402 Q 734.603 344.312 733.943 347.072 Q 733.123 350.572 734.843 354.172 Q 736.313 357.262 738.063 360.192 Q 741.403 365.802 741.403 372.362 Q 741.413 379.842 734.413 380.582 C 734.247 380.601 734.083 380.534 733.978 380.404 C 733.873 380.275 733.841 380.101 733.893 379.942 Q 736.333 372.352 733.713 365.362 Q 732.873 363.122 729.963 358.782 Q 726.543 353.652 725.973 352.302 Q 722.693 344.402 729.073 339.052 Q 730.363 337.972 731.413 336.652 Q 738.353 334.302 745.663 333.822 Z " fill="rgb(248,144,69)"/><path d=" M 764.913 335.402 Q 765.203 335.792 765.623 336.002 C 765.904 336.125 766.07 336.387 766.043 336.662 Q 765.963 338.282 767.663 338.322 Q 760.333 338.402 757.913 344.362 Q 756.063 348.912 755.913 355.222 Q 755.833 358.362 756.713 363.302 Q 757.723 368.962 757.913 371.362 Q 758.523 379.112 753.223 385.422 Q 746.063 393.962 735.413 394.122 Q 725.863 394.262 718.733 400.442 Q 716.193 402.642 713.163 404.122 Q 710.373 405.482 707.103 404.422 Q 698.643 401.682 698.593 392.862 Q 698.553 387.832 696.553 383.402 Q 695.153 380.312 692.893 378.522 Q 690.513 376.652 687.283 375.662 Q 685.193 375.032 686.513 373.292 Q 687.553 371.922 689.693 371.522 Q 698.623 369.822 702.723 377.802 Q 704.753 381.732 706.863 393.322 Q 707.593 397.282 710.933 395.172 Q 714.303 393.032 717.693 390.912 Q 724.083 386.912 731.663 386.772 Q 734.793 386.722 737.913 386.622 Q 743.703 386.442 746.993 382.782 Q 749.653 379.822 750.253 374.322 Q 751.003 367.462 748.353 361.672 Q 741.623 347.002 753.953 338.612 Q 759.033 335.652 764.913 335.402 Z " fill="rgb(248,144,69)"/><path d=" M 775.453 339.862 Q 779.223 340.512 782.413 342.652 Q 781.103 343.962 780.603 344.302 Q 775.153 347.962 772.633 353.582 Q 770.323 358.712 770.893 364.542 Q 771.473 370.472 774.973 375.302 Q 777.673 379.012 778.283 380.012 Q 782.703 387.202 779.353 393.802 Q 777.673 397.102 774.093 397.352 Q 773.403 397.402 768.223 397.012 Q 762.983 396.622 759.033 394.692 Q 754.773 392.612 758.653 389.872 Q 764.403 385.812 771.413 385.622 C 771.745 385.627 772.057 385.755 772.263 385.972 Q 773.043 386.902 771.543 387.252 Q 771.073 387.362 770.273 387.272 Q 766.813 386.862 764.413 388.612 Q 762.673 389.882 763.413 391.372 Q 763.893 392.322 765.343 392.772 Q 768.523 393.772 770.663 393.112 Q 775.643 391.572 775.163 386.362 Q 774.883 383.272 772.483 380.792 Q 761.923 369.902 763.813 354.632 Q 764.633 348.082 769.873 344.122 Q 772.673 342.012 775.453 339.862 Z " fill="rgb(248,144,69)"/><path d=" M 710.663 347.072 Q 714.413 346.862 714.163 350.362 Q 713.593 358.352 706.713 362.412 Q 704.343 363.812 701.873 362.822 C 701.741 362.771 701.641 362.669 701.601 362.543 C 701.56 362.417 701.583 362.281 701.663 362.172 L 708.663 348.322 Q 709.853 347.982 710.663 347.072 Z " fill="rgb(248,144,69)"/><path d=" M 767.913 413.152 Q 768.723 413.732 766.313 415.612 C 765.799 416.013 765.087 416.041 764.543 415.682 Q 760.993 413.322 756.413 413.822 Q 754.683 413.512 753.873 412.512 Q 752.643 410.992 754.593 410.892 Q 761.833 410.512 767.913 413.152 Z " fill="rgb(248,144,69)"/><path d=" M 790.163 348.822 Q 786.663 351.392 784.443 355.132 Q 780.803 361.262 783.863 367.772 Q 785.123 370.452 786.453 373.112 Q 783.953 375.092 785.193 377.902 C 785.653 378.178 785.717 378.563 785.353 378.862 Q 785.073 380.002 783.663 379.902 Q 782.193 377.162 780.543 374.532 Q 778.223 370.822 777.543 369.102 Q 773.323 358.352 781.973 350.422 Q 785.093 347.572 790.163 348.822 Z " fill="rgb(247,142,75)"/><path d=" M 708.203 431.112 Q 707.723 433.922 708.373 436.612 Q 708.563 437.982 708.943 439.312 Q 709.213 440.252 708.163 440.072 Q 705.563 433.532 702.913 427.012 Q 701.673 423.972 699.783 422.542 Q 696.723 420.232 692.703 419.612 L 690.413 418.652 Q 684.813 416.732 682.723 412.552 Q 681.213 409.522 679.413 406.652 Q 677.533 404.092 677.373 400.862 Q 677.783 398.892 679.903 399.202 Q 686.773 400.222 688.283 407.042 Q 689.433 412.282 693.513 415.232 Q 694.753 416.122 697.143 416.942 Q 700.003 417.922 700.913 418.362 Q 706.803 421.192 707.663 427.772 Q 707.883 429.442 708.203 431.112 Z " fill="rgb(247,142,75)"/><path d=" M 774.663 402.402 L 771.413 407.652 Q 767.173 407.652 761.163 406.862 Q 752.923 405.782 744.013 405.862 Q 735.523 405.932 729.533 407.902 Q 722.783 410.112 716.163 414.302 C 715.435 414.762 714.536 414.865 713.723 414.582 Q 713.203 414.402 714.183 411.622 C 714.468 410.814 714.977 410.104 715.653 409.572 Q 729.453 398.702 746.163 400.312 Q 760.393 401.682 774.663 402.402 Z " fill="rgb(247,142,75)"/><path d=" M 751.913 419.902 Q 751.593 419.612 751.163 419.572 Q 744.103 416.082 736.163 416.432 Q 727.273 416.812 722.203 423.852 Q 721.973 424.172 721.803 424.532 Q 720.523 427.212 722.813 425.012 Q 725.843 422.102 730.163 422.252 Q 736.883 422.472 741.643 427.132 Q 743.393 428.842 742.713 430.662 Q 742.293 431.772 740.573 433.072 Q 733.093 438.742 723.913 437.612 Q 720.273 437.162 718.203 434.482 Q 716.463 432.232 716.353 428.742 Q 716.173 422.972 720.353 419.052 Q 727.743 412.122 737.923 412.692 Q 742.123 412.932 745.573 414.502 Q 749.343 416.212 752.103 419.172 Q 752.483 419.582 751.913 419.902 Z " fill="rgb(247,142,75)"/><path d=" M 749.453 425.862 Q 753.633 431.062 751.913 436.862 Q 749.523 444.912 740.903 445.502 Q 735.403 445.872 730.893 446.642 Q 728.853 446.992 730.403 445.622 Q 734.283 442.192 739.203 440.612 Q 743.753 440.082 746.353 437.052 Q 749.173 433.752 747.703 429.112 Q 748.843 429.462 748.913 428.362 Q 748.943 427.832 749.453 425.862 Z " fill="rgb(207,68,71)"/><path d=" M 731.413 336.652 Q 730.363 337.972 729.073 339.052 Q 722.693 344.402 725.973 352.302 Q 726.543 353.652 729.963 358.782 Q 732.873 363.122 733.713 365.362 Q 736.333 372.352 733.893 379.942 C 733.841 380.101 733.873 380.275 733.978 380.404 C 734.083 380.534 734.247 380.601 734.413 380.582 Q 741.413 379.842 741.403 372.362 Q 741.403 365.802 738.063 360.192 Q 736.313 357.262 734.843 354.172 Q 733.123 350.572 733.943 347.072 Q 734.603 344.312 737.543 341.402 Q 740.313 338.662 743.663 336.572 Q 747.383 337.592 751.153 336.592 Q 754.063 335.812 753.953 338.612 Q 741.623 347.002 748.353 361.672 Q 751.003 367.462 750.253 374.322 Q 749.653 379.822 746.993 382.782 Q 743.703 386.442 737.913 386.622 Q 734.793 386.722 731.663 386.772 Q 724.083 386.912 717.693 390.912 Q 714.303 393.032 710.933 395.172 Q 707.593 397.282 706.863 393.322 Q 704.753 381.732 702.723 377.802 Q 698.623 369.822 689.693 371.522 Q 687.553 371.922 686.513 373.292 Q 685.193 375.032 687.283 375.662 Q 690.513 376.652 692.893 378.522 Q 695.153 380.312 696.553 383.402 Q 698.553 387.832 698.593 392.862 Q 698.643 401.682 707.103 404.422 Q 710.373 405.482 713.163 404.122 Q 716.193 402.642 718.733 400.442 Q 725.863 394.262 735.413 394.122 Q 746.063 393.962 753.223 385.422 Q 758.523 379.112 757.913 371.362 Q 757.723 368.962 756.713 363.302 Q 755.833 358.362 755.913 355.222 Q 756.063 348.912 757.913 344.362 Q 760.333 338.402 767.663 338.322 L 773.873 339.112 L 775.453 339.862 Q 772.673 342.012 769.873 344.122 Q 764.633 348.082 763.813 354.632 Q 761.923 369.902 772.483 380.792 Q 774.883 383.272 775.163 386.362 Q 775.643 391.572 770.663 393.112 Q 768.523 393.772 765.343 392.772 Q 763.893 392.322 763.413 391.372 Q 762.673 389.882 764.413 388.612 Q 766.813 386.862 770.273 387.272 Q 771.073 387.362 771.543 387.252 Q 773.043 386.902 772.263 385.972 C 772.057 385.755 771.745 385.627 771.413 385.622 Q 764.403 385.812 758.653 389.872 Q 754.773 392.612 759.033 394.692 Q 762.983 396.622 768.223 397.012 Q 773.403 397.402 774.093 397.352 Q 777.673 397.102 779.353 393.802 Q 782.703 387.202 778.283 380.012 Q 777.673 379.012 774.973 375.302 Q 771.473 370.472 770.893 364.542 Q 770.323 358.712 772.633 353.582 Q 775.153 347.962 780.603 344.302 Q 781.103 343.962 782.413 342.652 L 790.163 346.322 Q 789.943 347.052 790.083 347.772 C 790.055 347.979 790.197 348.182 790.463 348.312 Q 791.033 348.742 790.163 348.822 Q 785.093 347.572 781.973 350.422 Q 773.323 358.352 777.543 369.102 Q 778.223 370.822 780.543 374.532 Q 782.193 377.162 783.663 379.902 Q 786.193 386.692 784.633 393.442 Q 783.733 397.342 781.333 399.472 Q 778.613 401.892 774.663 402.402 Q 760.393 401.682 746.163 400.312 Q 729.453 398.702 715.653 409.572 C 714.977 410.104 714.468 410.814 714.183 411.622 Q 713.203 414.402 713.723 414.582 C 714.536 414.865 715.435 414.762 716.163 414.302 Q 722.783 410.112 729.533 407.902 Q 735.523 405.932 744.013 405.862 Q 752.923 405.782 761.163 406.862 Q 767.173 407.652 771.413 407.652 Q 772.113 407.992 772.913 407.902 Q 771.753 410.602 774.163 412.152 Q 772.743 412.762 771.163 412.652 Q 769.363 412.082 767.913 413.152 Q 761.833 410.512 754.593 410.892 Q 752.643 410.992 753.873 412.512 Q 754.683 413.512 756.413 413.822 Q 755.303 415.172 756.043 416.642 C 756.116 416.767 756.26 416.85 756.423 416.862 Q 757.293 416.882 756.413 417.322 Q 755.723 417.692 756.223 418.552 Q 758.363 422.172 761.413 424.072 Q 758.003 425.092 755.963 422.522 C 755.767 422.275 755.496 422.084 755.183 421.972 Q 753.283 421.372 751.913 419.902 Q 752.483 419.582 752.103 419.172 Q 749.343 416.212 745.573 414.502 Q 742.123 412.932 737.923 412.692 Q 727.743 412.122 720.353 419.052 Q 716.173 422.972 716.353 428.742 Q 716.463 432.232 718.203 434.482 Q 720.273 437.162 723.913 437.612 Q 733.093 438.742 740.573 433.072 Q 742.293 431.772 742.713 430.662 Q 743.393 428.842 741.643 427.132 Q 736.883 422.472 730.163 422.252 Q 725.843 422.102 722.813 425.012 Q 720.523 427.212 721.803 424.532 Q 721.973 424.172 722.203 423.852 Q 727.273 416.812 736.163 416.432 Q 744.103 416.082 751.163 419.572 Q 747.913 420.292 748.123 423.612 Q 746.233 421.262 742.793 421.022 Q 740.243 420.842 742.033 422.822 L 747.703 429.112 Q 749.173 433.752 746.353 437.052 Q 743.753 440.082 739.203 440.612 L 738.613 438.322 C 738.568 438.221 738.472 438.142 738.35 438.105 C 738.229 438.068 738.095 438.078 737.983 438.132 Q 726.383 445.212 716.933 436.012 Q 715.943 435.052 715.363 434.812 Q 713.593 434.072 713.663 436.822 L 708.203 431.112 Q 707.883 429.442 707.663 427.772 Q 706.803 421.192 700.913 418.362 Q 700.003 417.922 697.143 416.942 Q 694.753 416.122 693.513 415.232 Q 689.433 412.282 688.283 407.042 Q 686.773 400.222 679.903 399.202 Q 677.783 398.892 677.373 400.862 Q 677.023 401.012 676.873 401.362 Q 676.093 400.282 676.413 399.112 Q 677.843 393.782 678.373 389.362 L 679.913 384.152 L 684.623 372.362 L 686.633 369.522 C 686.728 369.425 686.765 369.291 686.733 369.163 C 686.701 369.035 686.604 368.93 686.473 368.882 L 685.913 368.652 Q 688.573 368.912 690.473 366.172 Q 697.153 356.572 708.663 348.322 L 701.663 362.172 C 701.583 362.281 701.56 362.417 701.601 362.543 C 701.641 362.669 701.741 362.771 701.873 362.822 Q 704.343 363.812 706.713 362.412 Q 713.593 358.352 714.163 350.362 Q 714.413 346.862 710.663 347.072 Q 720.083 339.972 731.413 336.652 Z " fill="rgb(154,75,65)"/><path d=" M 816.203 383.362 Q 815.663 389.042 812.593 394.142 Q 811.403 396.112 812.133 398.982 L 814.453 408.112 Q 814.933 409.932 814.973 411.772 Q 815.023 413.642 813.983 415.202 Q 811.983 418.212 809.163 419.362 Q 806.283 420.542 800.723 420.922 Q 795.513 421.292 789.523 424.492 Q 785.873 426.442 783.603 429.222 Q 781.173 432.222 779.643 435.852 Q 778.463 438.632 777.273 441.412 Q 774.893 446.922 770.283 450.722 Q 768.033 452.572 765.213 453.102 Q 763.463 453.432 764.593 452.062 Q 769.283 446.362 772.113 439.552 Q 773.893 435.292 775.943 431.162 Q 780.043 422.882 788.823 419.972 Q 795.543 417.742 801.913 417.112 Q 806.933 416.612 809.353 413.052 Q 810.933 410.722 810.323 407.392 Q 809.903 405.072 808.983 402.892 Q 807.383 399.082 807.273 398.572 Q 806.003 393.172 809.443 388.362 Q 811.933 384.892 815.753 382.982 Q 816.253 382.732 816.203 383.362 Z " fill="rgb(206,66,81)"/><path d=" M 818.373 417.112 Q 819.093 421.772 816.373 425.612 Q 810.773 428.382 804.663 429.592 Q 798.103 430.872 792.953 434.662 Q 789.153 437.462 786.183 442.682 Q 783.563 447.312 781.663 452.322 Q 780.243 454.752 777.413 454.572 Q 774.903 454.262 775.913 452.112 Q 781.253 440.732 785.473 434.422 Q 788.293 430.212 794.163 427.862 Q 796.903 426.772 810.293 423.852 Q 813.243 423.212 814.893 421.672 Q 816.983 419.722 818.373 417.112 Z " fill="rgb(206,66,81)"/><path d=" M 708.203 431.112 L 713.663 436.822 L 721.933 444.502 Q 722.823 445.332 721.593 445.202 Q 716.743 444.682 714.153 440.892 Q 712.663 438.722 710.563 437.152 C 710.275 436.952 710.085 436.681 710.023 436.382 Q 709.453 434.732 708.373 436.612 Q 707.723 433.922 708.203 431.112 Z " fill="rgb(206,66,81)"/><path d=" M 790.163 346.322 L 795.623 349.362 L 797.413 350.902 Q 796.903 351.132 796.873 351.612 Q 793.663 349.042 791.353 352.552 Q 786.373 360.102 790.663 367.572 Q 789.023 369.592 786.913 371.112 Q 786.173 371.642 786.623 373.112 L 786.453 373.112 Q 785.123 370.452 783.863 367.772 Q 780.803 361.262 784.443 355.132 Q 786.663 351.392 790.163 348.822 Q 791.033 348.742 790.463 348.312 C 790.197 348.182 790.055 347.979 790.083 347.772 Q 789.943 347.052 790.163 346.322 Z " fill="rgb(153,60,67)"/><path d=" M 692.703 419.612 Q 696.723 420.232 699.783 422.542 Q 701.673 423.972 702.913 427.012 Q 705.563 433.532 708.163 440.072 Q 707.053 440.032 706.253 439.392 Q 705.043 438.402 704.733 438.242 Q 702.393 437.052 700.163 435.652 Q 701.023 435.542 700.493 434.802 Q 696.973 429.922 695.213 424.192 Q 694.793 422.812 694.153 421.802 Q 693.443 420.702 692.703 419.612 Z " fill="rgb(153,60,67)"/><path d=" M 811.453 433.862 Q 810.703 434.752 810.043 435.682 Q 804.993 442.712 797.913 447.652 Q 796.503 445.932 794.803 447.052 Q 793.503 447.912 792.083 447.872 Q 791.533 447.852 791.863 447.412 Q 795.353 442.742 799.533 439.302 Q 801.603 437.592 804.763 436.112 Q 807.543 434.812 810.353 433.552 Q 811.123 433.202 811.453 433.862 Z " fill="rgb(153,60,67)"/><path d=" M 678.373 389.362 Q 677.843 393.782 676.413 399.112 Q 676.093 400.282 676.873 401.362 Q 675.993 412.262 676.913 418.612 Q 677.963 425.852 680.723 429.802 Q 684.003 434.482 691.163 435.902 Q 696.043 437.972 699.973 441.552 Q 700.983 442.462 703.233 443.532 Q 704.273 444.022 706.833 444.642 Q 709.153 445.212 710.913 446.362 Q 717.363 450.582 722.163 450.862 Q 727.233 451.152 731.933 453.072 Q 736.343 454.872 741.173 454.452 Q 749.493 453.732 757.353 456.402 Q 759.563 457.152 761.913 457.322 Q 759.063 457.032 762.093 459.212 C 762.621 459.591 763.283 459.736 763.923 459.612 Q 766.673 459.052 765.953 461.362 Q 757.783 462.042 750.593 458.502 Q 748.323 457.382 746.333 457.252 Q 743.133 457.052 739.933 457.042 Q 735.923 457.032 731.983 456.322 Q 725.573 455.162 717.353 454.422 Q 717.003 454.392 716.793 454.472 Q 716.133 454.722 716.943 454.912 Q 724.163 456.582 726.973 457.552 Q 735.263 460.392 743.873 458.682 Q 747.493 457.972 750.353 459.672 Q 753.883 461.782 756.983 463.242 Q 759.813 464.582 763.213 465.012 Q 766.673 465.452 769.703 465.572 Q 771.433 465.642 772.893 464.702 Q 776.223 462.542 779.413 463.622 Q 786.863 466.132 794.663 467.152 Q 803.333 468.362 795.163 466.402 L 779.663 460.572 Q 778.813 459.002 779.413 457.402 Q 785.663 457.762 791.893 458.362 Q 805.833 459.692 817.983 452.982 Q 820.973 451.322 823.913 449.572 Q 827.403 447.932 829.693 445.072 Q 831.483 442.832 832.503 438.582 Q 834.863 428.752 835.203 418.612 Q 839.853 419.762 843.933 422.052 Q 846.143 423.292 850.693 427.502 Q 854.733 431.242 858.163 432.862 Q 865.393 436.272 862.353 443.552 Q 860.333 448.382 855.053 451.432 Q 846.763 456.232 840.973 460.922 Q 838.173 463.202 835.833 464.002 Q 823.333 468.322 810.183 468.612 Q 806.383 468.702 802.223 469.352 Q 797.573 470.082 794.163 469.862 Q 788.423 469.492 766.163 467.612 Q 756.183 466.772 749.653 465.682 Q 740.773 464.192 731.853 462.882 Q 715.583 460.482 704.723 456.052 Q 695.843 452.422 686.483 450.292 Q 677.543 448.252 669.523 443.812 Q 658.573 437.752 652.223 432.302 Q 646.443 427.332 641.343 419.152 Q 639.973 416.942 640.173 415.152 Q 640.403 412.992 641.853 411.052 Q 649.253 401.062 652.473 397.672 Q 655.393 394.602 660.423 393.142 Q 669.253 390.572 678.373 389.362 Z " fill="rgb(254,119,111)"/><path d=" M 751.163 472.652 Q 756.153 472.402 758.913 472.862 Q 773.893 475.382 788.953 477.362 Q 790.013 478.492 788.663 478.822 Q 784.723 479.352 781.913 479.112 Q 774.983 478.512 769.103 479.552 Q 766.593 479.992 758.693 478.902 Q 758.353 478.852 758.143 478.972 Q 757.633 479.262 758.523 479.712 Q 765.083 482.992 772.413 481.862 Q 777.433 481.092 795.413 480.952 Q 808.813 480.852 821.903 478.082 Q 824.003 477.642 826.063 477.942 Q 829.763 478.482 829.813 478.482 Q 836.963 478.902 844.203 478.922 Q 846.303 478.932 844.423 479.862 Q 835.763 484.142 827.153 487.082 Q 823.633 488.292 819.913 488.112 Q 818.093 488.022 812.013 486.502 Q 811.953 486.492 808.473 485.452 Q 804.033 484.122 800.413 485.112 Q 783.833 489.652 768.163 490.862 Q 765.833 491.042 764.283 489.232 Q 763.423 488.232 763.353 488.162 Q 758.853 483.602 753.473 480.172 Q 751.693 479.032 749.993 478.762 Q 748.103 478.462 746.163 478.612 Q 745.033 478.702 745.713 479.872 C 745.838 480.056 745.873 480.278 745.811 480.487 C 745.748 480.695 745.593 480.871 745.383 480.972 L 737.833 485.562 Q 735.953 486.712 734.243 485.992 Q 731.463 484.832 728.193 482.852 Q 719.463 477.582 708.603 476.172 Q 705.743 475.802 702.723 474.582 Q 700.683 473.752 697.453 471.632 Q 693.573 469.092 689.633 466.662 Q 687.673 465.452 685.243 465.142 Q 683.543 464.912 681.843 464.642 Q 680.153 464.372 678.453 464.332 Q 663.483 463.952 651.413 460.112 Q 649.023 459.352 647.433 456.202 Q 644.063 449.562 639.993 443.342 Q 639.723 442.922 640.183 443.122 Q 647.703 446.382 654.383 451.132 Q 659.153 454.512 664.643 456.562 Q 671.703 459.202 676.163 461.112 Q 679.153 462.392 682.103 463.072 Q 687.673 464.352 688.143 464.482 Q 697.223 467.042 707.603 468.922 Q 711.593 469.652 715.253 471.682 Q 718.683 473.582 720.903 474.362 Q 725.523 475.982 735.163 479.612 Q 737.023 480.312 738.213 478.592 Q 738.523 478.142 738.923 477.952 Q 742.853 476.012 747.143 475.242 Q 748.593 474.982 749.393 474.392 Q 750.373 473.672 751.163 472.652 Z " fill="rgb(254,119,111)"/><path d=" M 624.163 388.572 Q 625.613 388.222 625.163 389.362 Q 623.913 392.552 621.913 392.362 L 616.703 391.862 Q 619.683 388.702 624.163 388.572 Z " fill="rgb(244,165,182)"/><path d=" M 674.413 375.072 Q 675.213 375.602 676.163 375.572 Q 679.013 375.552 680.983 377.322 C 681.338 377.527 681.492 377.866 681.373 378.182 Q 681.253 379.012 679.893 378.682 Q 674.043 377.232 667.103 379.302 Q 660.923 381.142 654.823 383.212 Q 648.693 385.292 644.473 388.922 Q 639.503 393.212 635.053 395.462 Q 629.823 398.102 625.123 401.622 C 624.859 401.825 624.664 402.096 624.563 402.402 Q 623.823 404.512 622.773 406.462 Q 622.153 407.622 619.973 409.782 Q 618.123 411.612 617.233 413.962 C 616.881 414.865 616.892 415.867 617.263 416.762 Q 622.423 429.502 631.253 439.262 Q 633.323 441.552 631.043 439.482 Q 620.373 429.812 615.163 416.352 Q 614.533 414.742 615.673 413.452 Q 620.523 407.902 623.793 400.952 Q 624.063 400.382 624.503 400.392 C 624.818 400.378 625.102 400.294 625.273 400.162 Q 627.423 397.442 631.103 395.802 Q 638.733 392.392 645.723 386.172 Q 647.943 384.202 654.083 382.002 Q 664.193 378.372 674.413 375.072 Z " fill="rgb(252,226,196)"/><path d=" M 833.453 397.112 Q 836.513 400.702 839.333 404.472 Q 843.483 410.012 849.723 412.052 Q 853.983 413.442 862.163 415.612 Q 864.853 416.322 867.663 418.402 Q 868.543 419.342 869.003 420.542 Q 869.363 421.502 868.203 421.362 Q 866.903 419.552 864.823 418.732 Q 861.253 417.322 857.533 416.402 Q 857.463 416.382 852.773 415.522 Q 847.103 414.482 843.103 411.422 Q 837.503 407.142 833.953 399.612 Q 833.323 398.442 833.453 397.112 Z " fill="rgb(252,226,196)"/><path d=" M 765.953 461.362 Q 769.843 461.342 773.673 460.652 Q 776.663 460.122 779.663 460.572 L 795.163 466.402 Q 794.993 466.842 794.663 467.152 Q 786.863 466.132 779.413 463.622 Q 776.223 462.542 772.893 464.702 Q 771.433 465.642 769.703 465.572 Q 766.673 465.452 763.213 465.012 Q 759.813 464.582 756.983 463.242 Q 753.883 461.782 750.353 459.672 Q 747.493 457.972 743.873 458.682 Q 735.263 460.392 726.973 457.552 Q 724.163 456.582 716.943 454.912 Q 716.133 454.722 716.793 454.472 Q 717.003 454.392 717.353 454.422 Q 725.573 455.162 731.983 456.322 Q 735.923 457.032 739.933 457.042 Q 743.133 457.052 746.333 457.252 Q 748.323 457.382 750.593 458.502 Q 757.783 462.042 765.953 461.362 Z " fill="rgb(252,226,196)"/><path d=" M 748.123 423.612 L 749.453 425.862 Q 748.943 427.832 748.913 428.362 Q 748.843 429.462 747.703 429.112 L 742.033 422.822 Q 740.243 420.842 742.793 421.022 Q 746.233 421.262 748.123 423.612 Z " fill="rgb(253,125,93)"/><path d=" M 868.163 457.572 Q 867.803 458.722 868.733 459.542 Q 869.993 460.632 870.663 462.152 Q 864.303 465.612 857.943 469.082 Q 849.313 473.792 844.823 475.052 Q 836.413 477.412 827.413 476.332 Q 823.003 475.792 818.623 476.672 Q 803.793 479.642 788.663 478.822 Q 790.013 478.492 788.953 477.362 Q 794.123 477.032 799.273 476.472 Q 802.573 476.122 809.583 475.762 Q 817.093 475.392 823.913 473.612 Q 831.993 471.502 839.033 470.052 Q 850.733 467.632 854.073 466.292 Q 861.773 463.192 868.163 457.572 Z " fill="rgb(253,125,93)"/><path d=" M 626.703 419.112 Q 632.563 429.812 642.663 437.362 Q 648.873 442.002 650.683 443.362 Q 654.293 446.082 658.453 447.702 Q 664.033 449.872 664.153 449.922 Q 687.203 460.032 711.703 465.842 Q 712.753 466.092 716.183 466.522 Q 718.123 466.762 720.663 467.362 Q 732.743 470.232 749.413 472.572 Q 743.343 472.782 737.413 474.112 Q 735.113 474.632 730.723 473.722 Q 730.573 473.692 725.553 472.802 Q 720.383 471.902 716.083 468.662 Q 714.563 467.522 712.673 467.332 Q 676.453 463.732 645.103 443.672 Q 641.943 441.652 637.703 440.212 C 637.392 440.101 637.126 439.898 636.943 439.632 Q 630.453 430.022 625.873 419.362 L 626.703 419.112 Z " fill="rgb(251,117,98)"/><path d=" M 677.873 369.612 Q 676.533 370.852 676.423 372.602 C 676.499 372.918 676.366 373.239 676.063 373.472 L 674.413 375.072 Q 664.193 378.372 654.083 382.002 Q 647.943 384.202 645.723 386.172 Q 638.733 392.392 631.103 395.802 Q 627.423 397.442 625.273 400.162 C 625.102 400.294 624.818 400.378 624.503 400.392 Q 624.063 400.382 623.793 400.952 Q 620.523 407.902 615.673 413.452 Q 614.533 414.742 615.163 416.352 Q 620.373 429.812 631.043 439.482 Q 633.323 441.552 631.253 439.262 Q 622.423 429.502 617.263 416.762 C 616.892 415.867 616.881 414.865 617.233 413.962 Q 618.123 411.612 619.973 409.782 Q 622.153 407.622 622.773 406.462 Q 623.823 404.512 624.563 402.402 C 624.664 402.096 624.859 401.825 625.123 401.622 Q 629.823 398.102 635.053 395.462 Q 639.503 393.212 644.473 388.922 Q 648.693 385.292 654.823 383.212 Q 660.923 381.142 667.103 379.302 Q 674.043 377.232 679.893 378.682 Q 681.253 379.012 681.373 378.182 C 681.492 377.866 681.338 377.527 680.983 377.322 Q 679.013 375.552 676.163 375.572 Q 679.623 371.942 684.623 372.362 L 679.913 384.152 Q 678.393 384.522 676.973 384.142 Q 675.063 383.622 674.243 383.672 Q 666.413 384.092 659.103 387.042 Q 652.803 389.592 646.273 391.422 Q 642.623 392.452 641.093 393.812 Q 638.883 395.772 637.853 398.802 Q 637.313 400.382 631.473 405.672 Q 627.343 409.432 625.973 414.102 Q 625.613 415.352 625.923 416.632 Q 626.223 417.892 626.703 419.112 L 625.873 419.362 Q 622.933 415.182 622.413 410.092 Q 622.183 407.842 621.783 410.072 Q 620.983 414.592 623.473 419.242 Q 627.573 426.892 631.853 434.432 Q 631.893 434.502 633.633 438.032 Q 634.743 440.292 636.723 442.802 Q 640.113 447.082 644.973 456.302 Q 645.503 457.302 645.123 458.112 Q 642.103 456.942 638.903 456.402 Q 635.633 455.862 633.423 454.672 C 632.573 454.222 631.92 453.474 631.593 452.572 Q 629.763 447.652 626.023 444.932 Q 622.173 442.122 621.773 441.702 Q 618.653 438.362 617.093 433.902 C 616.962 433.529 616.645 433.247 616.253 433.152 Q 607.673 431.142 605.123 422.612 Q 604.313 419.392 604.753 416.232 Q 605.133 413.492 607.033 410.452 Q 609.143 407.072 611.723 404.422 Q 613.163 402.952 614.083 401.352 Q 614.743 400.202 614.963 397.692 Q 615.233 394.622 616.703 391.862 L 621.913 392.362 Q 623.913 392.552 625.163 389.362 Q 625.613 388.222 624.163 388.572 Q 629.933 387.202 631.983 381.422 Q 632.693 379.422 634.343 378.102 Q 642.263 371.792 652.663 373.862 Q 654.133 374.152 657.643 373.282 Q 667.633 370.802 677.873 369.612 Z " fill="rgb(254,120,120)"/><path d=" M 836.953 393.112 Q 840.823 393.762 843.103 395.672 Q 845.463 397.662 847.803 398.722 Q 850.043 399.732 853.173 399.342 Q 855.723 399.022 859.413 398.362 Q 863.043 397.712 865.603 400.672 Q 866.873 402.152 869.173 408.862 Q 870.503 412.742 872.313 414.682 Q 874.983 417.562 878.663 419.322 Q 885.233 423.282 890.473 430.552 Q 893.043 434.112 894.703 436.712 Q 897.053 440.392 897.503 443.542 Q 898.313 449.172 895.353 454.552 Q 892.783 459.202 888.963 462.152 Q 883.273 466.542 883.163 473.362 Q 883.043 481.142 875.413 481.422 Q 865.533 481.782 858.573 488.572 Q 858.563 488.592 857.653 489.552 Q 853.373 494.062 847.033 491.812 Q 845.303 491.202 843.643 491.972 Q 842.193 492.642 840.333 493.422 Q 838.693 494.112 836.863 494.252 Q 829.703 494.812 823.073 495.312 Q 821.093 495.462 819.613 496.792 Q 816.993 499.132 813.433 498.512 Q 809.953 497.912 807.603 496.172 Q 805.923 494.932 804.203 495.092 Q 803.653 495.152 801.143 496.362 Q 795.653 499.032 790.163 495.402 Q 785.633 492.902 780.913 494.612 Q 772.153 497.782 763.433 496.882 Q 759.603 496.492 757.913 494.612 Q 752.183 488.262 745.273 491.602 Q 740.323 493.992 740.203 494.032 Q 733.093 496.052 728.103 490.422 Q 725.223 487.182 721.653 487.542 C 721.324 487.55 721.001 487.476 720.743 487.332 L 715.533 483.342 Q 713.673 481.902 711.683 482.362 Q 697.043 485.682 684.873 477.882 Q 682.673 476.472 680.993 476.272 Q 678.833 476.022 676.673 476.422 Q 674.103 476.902 673.113 476.592 Q 671.223 475.992 670.223 474.052 Q 669.193 472.022 667.603 470.762 Q 666.553 469.922 663.843 469.162 Q 656.843 467.202 650.913 462.902 Q 651.853 462.182 653.103 462.672 Q 659.023 465.012 665.913 465.112 Q 669.623 465.172 678.583 466.332 Q 678.653 466.342 681.883 466.602 Q 683.613 466.732 685.263 467.242 Q 686.973 467.772 689.463 469.862 Q 695.523 474.962 703.413 476.622 Q 712.213 478.472 720.513 481.902 Q 720.913 482.062 722.503 482.362 Q 723.383 482.522 724.473 483.052 Q 728.403 484.942 732.223 487.052 Q 736.413 489.352 740.663 485.612 Q 743.213 483.372 746.823 482.362 Q 749.103 481.732 751.433 482.642 Q 756.303 484.542 759.973 488.052 Q 765.133 492.972 772.183 492.282 Q 775.623 491.942 779.043 491.452 Q 781.413 491.112 785.923 490.752 Q 792.913 490.192 799.593 487.912 Q 803.023 486.742 806.463 487.842 Q 811.903 489.572 817.493 490.732 Q 822.023 491.672 824.853 490.552 Q 831.373 487.962 844.563 481.162 Q 846.513 480.162 848.583 479.842 Q 850.713 479.512 852.843 479.232 Q 858.803 478.432 862.473 473.672 Q 866.063 469.022 872.783 463.952 Q 879.873 458.602 881.513 449.832 Q 881.853 448.012 880.593 447.312 Q 878.863 446.342 879.383 448.252 Q 880.073 450.782 879.293 452.952 Q 878.773 454.412 877.003 456.812 Q 874.503 460.202 870.663 462.152 Q 869.993 460.632 868.733 459.542 Q 867.803 458.722 868.163 457.572 Q 871.053 454.132 872.353 450.802 Q 873.703 447.342 872.463 443.472 Q 870.913 438.692 869.893 433.762 Q 868.553 427.292 863.953 423.532 Q 861.913 421.862 853.783 418.762 Q 844.683 415.302 837.223 411.052 Q 836.033 410.372 835.203 408.612 L 833.953 399.612 Q 837.503 407.142 843.103 411.422 Q 847.103 414.482 852.773 415.522 Q 857.463 416.382 857.533 416.402 Q 861.253 417.322 864.823 418.732 Q 866.903 419.552 868.203 421.362 Q 874.803 431.232 877.373 442.812 Q 877.493 443.372 877.703 443.742 Q 878.583 445.262 878.653 442.912 Q 878.673 442.392 878.513 441.822 Q 876.493 434.672 874.163 427.622 Q 873.673 426.112 874.593 427.412 Q 880.053 435.092 884.853 443.172 Q 888.293 448.972 884.593 455.312 C 884.319 455.361 884.127 455.482 884.104 455.621 C 884.08 455.759 884.229 455.889 884.483 455.952 Q 884.593 456.142 884.933 455.922 Q 885.093 455.822 885.213 455.602 Q 890.273 446.752 883.723 438.052 Q 879.343 432.222 872.483 420.392 Q 869.633 415.482 867.213 413.782 Q 863.953 411.492 859.163 410.362 Q 849.433 408.072 842.503 399.472 Q 841.423 398.132 839.663 396.372 Q 838.163 394.862 836.953 393.112 Z " fill="rgb(254,120,120)"/><path d=" M 832.703 394.362 Q 833.883 394.462 834.723 395.302 Q 837.973 398.552 841.123 401.902 Q 844.453 405.442 848.543 407.932 Q 851.183 409.542 856.093 411.092 Q 860.013 412.322 863.923 413.592 Q 866.783 414.522 868.343 416.992 C 868.76 417.232 868.82 417.633 868.483 417.912 Q 868.273 418.332 867.663 418.402 Q 864.853 416.322 862.163 415.612 Q 853.983 413.442 849.723 412.052 Q 843.483 410.012 839.333 404.472 Q 836.513 400.702 833.453 397.112 Q 832.713 395.832 832.703 394.362 Z " fill="rgb(254,120,120)"/><path d=" M 679.913 384.152 L 678.373 389.362 Q 669.253 390.572 660.423 393.142 Q 655.393 394.602 652.473 397.672 Q 649.253 401.062 641.853 411.052 Q 640.403 412.992 640.173 415.152 Q 639.973 416.942 641.343 419.152 Q 646.443 427.332 652.223 432.302 Q 658.573 437.752 669.523 443.812 Q 677.543 448.252 686.483 450.292 Q 695.843 452.422 704.723 456.052 Q 715.583 460.482 731.853 462.882 Q 740.773 464.192 749.653 465.682 Q 756.183 466.772 766.163 467.612 Q 788.423 469.492 794.163 469.862 Q 797.573 470.082 802.223 469.352 Q 806.383 468.702 810.183 468.612 Q 823.333 468.322 835.833 464.002 Q 838.173 463.202 840.973 460.922 Q 846.763 456.232 855.053 451.432 Q 860.333 448.382 862.353 443.552 Q 865.393 436.272 858.163 432.862 Q 854.733 431.242 850.693 427.502 Q 846.143 423.292 843.933 422.052 Q 839.853 419.762 835.203 418.612 L 835.203 408.612 Q 836.033 410.372 837.223 411.052 Q 844.683 415.302 853.783 418.762 Q 861.913 421.862 863.953 423.532 Q 868.553 427.292 869.893 433.762 Q 870.913 438.692 872.463 443.472 Q 873.703 447.342 872.353 450.802 Q 871.053 454.132 868.163 457.572 Q 861.773 463.192 854.073 466.292 Q 850.733 467.632 839.033 470.052 Q 831.993 471.502 823.913 473.612 Q 817.093 475.392 809.583 475.762 Q 802.573 476.122 799.273 476.472 Q 794.123 477.032 788.953 477.362 Q 773.893 475.382 758.913 472.862 Q 756.153 472.402 751.163 472.652 L 749.413 472.572 Q 732.743 470.232 720.663 467.362 Q 718.123 466.762 716.183 466.522 Q 712.753 466.092 711.703 465.842 Q 687.203 460.032 664.153 449.922 Q 664.033 449.872 658.453 447.702 Q 654.293 446.082 650.683 443.362 Q 648.873 442.002 642.663 437.362 Q 632.563 429.812 626.703 419.112 Q 626.223 417.892 625.923 416.632 Q 625.613 415.352 625.973 414.102 Q 627.343 409.432 631.473 405.672 Q 637.313 400.382 637.853 398.802 Q 638.883 395.772 641.093 393.812 Q 642.623 392.452 646.273 391.422 Q 652.803 389.592 659.103 387.042 Q 666.413 384.092 674.243 383.672 Q 675.063 383.622 676.973 384.142 Q 678.393 384.522 679.913 384.152 Z " fill="rgb(255,226,112)"/><path d=" M 776.413 457.072 L 779.413 457.402 Q 778.813 459.002 779.663 460.572 Q 776.663 460.122 773.673 460.652 Q 769.843 461.342 765.953 461.362 Q 766.673 459.052 763.923 459.612 C 763.283 459.736 762.621 459.591 762.093 459.212 Q 759.063 457.032 761.913 457.322 L 776.413 457.072 Z " fill="rgb(253,140,109)"/><path d=" M 821.623 379.112 L 824.663 386.322 Q 822.833 388.322 821.973 386.302 Q 820.863 383.672 818.983 385.732 C 818.746 385.971 818.64 386.289 818.693 386.602 Q 818.983 391.122 818.003 395.502 Q 817.693 396.892 817.843 398.242 Q 818.083 400.482 817.853 401.052 Q 816.583 404.142 817.163 407.402 Q 815.923 408.272 814.453 408.112 L 812.133 398.982 Q 811.403 396.112 812.593 394.142 Q 815.663 389.042 816.203 383.362 Q 816.563 382.662 816.203 381.862 L 818.733 381.012 C 819.057 380.905 819.311 380.716 819.443 380.482 Q 820.153 379.282 821.623 379.112 Z " fill="rgb(103,49,69)"/><path d=" M 816.373 425.612 Q 814.803 430.272 811.453 433.862 Q 811.123 433.202 810.353 433.552 Q 807.543 434.812 804.763 436.112 Q 801.603 437.592 799.533 439.302 Q 795.353 442.742 791.863 447.412 Q 791.533 447.852 792.083 447.872 Q 793.503 447.912 794.803 447.052 Q 796.503 445.932 797.913 447.652 Q 792.813 451.022 784.913 452.612 Q 782.803 453.032 781.663 452.322 Q 783.563 447.312 786.183 442.682 Q 789.153 437.462 792.953 434.662 Q 798.103 430.872 804.663 429.592 Q 810.773 428.382 816.373 425.612 Z " fill="rgb(103,49,69)"/><path d=" M 798.413 345.822 Q 811.623 353.722 820.323 366.422 Q 828.033 377.652 832.103 390.672 Q 832.293 391.282 832.913 391.572 Q 831.483 392.772 832.703 394.362 Q 832.713 395.832 833.453 397.112 Q 833.323 398.442 833.953 399.612 L 835.203 408.612 L 835.203 418.612 Q 834.863 428.752 832.503 438.582 Q 831.483 442.832 829.693 445.072 Q 827.403 447.932 823.913 449.572 Q 823.773 447.682 824.473 445.922 Q 832.703 425.092 829.363 402.872 Q 828.073 394.282 824.663 386.322 L 821.623 379.112 Q 814.243 360.962 797.413 350.902 L 795.623 349.362 Q 796.603 348.082 797.103 346.582 Q 797.263 346.082 797.563 345.932 Q 797.933 345.752 798.413 345.822 Z " fill="rgb(163,193,184)"/><path d=" M 795.163 466.402 Q 803.333 468.362 794.663 467.152 Q 794.993 466.842 795.163 466.402 Z " fill="rgb(242,216,159)"/><path d=" M 764.913 335.402 L 768.663 335.322 Q 770.423 336.632 772.603 336.682 C 772.942 336.71 773.247 336.837 773.443 337.032 Q 774.113 337.902 773.873 339.112 L 767.663 338.322 Q 765.963 338.282 766.043 336.662 C 766.07 336.387 765.904 336.125 765.623 336.002 Q 765.203 335.792 764.913 335.402 Z " fill="rgb(228,190,93)"/><path d=" M 770.663 335.072 Q 785.553 337.852 798.413 345.822 Q 797.933 345.752 797.563 345.932 Q 797.263 346.082 797.103 346.582 Q 796.603 348.082 795.623 349.362 L 790.163 346.322 L 782.413 342.652 Q 779.223 340.512 775.453 339.862 L 773.873 339.112 Q 774.113 337.902 773.443 337.032 C 773.247 336.837 772.942 336.71 772.603 336.682 Q 770.423 336.632 768.663 335.322 Q 769.613 334.982 770.663 335.072 Z " fill="rgb(180,196,179)"/><path d=" M 770.663 335.072 Q 769.613 334.982 768.663 335.322 L 764.913 335.402 Q 759.033 335.652 753.953 338.612 Q 754.063 335.812 751.153 336.592 Q 747.383 337.592 743.663 336.572 Q 745.033 335.412 745.663 333.822 Q 758.273 332.382 770.663 335.072 Z " fill="rgb(179,112,95)"/><path d=" M 797.413 350.902 Q 814.243 360.962 821.623 379.112 Q 820.153 379.282 819.443 380.482 C 819.311 380.716 819.057 380.905 818.733 381.012 L 816.203 381.862 Q 813.613 373.172 807.903 366.122 Q 802.913 359.962 799.603 354.672 Q 798.823 353.442 797.703 353.112 Q 797.603 352.212 796.873 351.612 Q 796.903 351.132 797.413 350.902 Z " fill="rgb(69,46,73)"/><path d=" M 832.913 391.572 Q 835.093 391.932 836.953 393.112 Q 838.163 394.862 839.663 396.372 Q 841.423 398.132 842.503 399.472 Q 849.433 408.072 859.163 410.362 Q 863.953 411.492 867.213 413.782 Q 869.633 415.482 872.483 420.392 Q 879.343 432.222 883.723 438.052 Q 890.273 446.752 885.213 455.602 Q 885.093 455.822 884.933 455.922 Q 884.593 456.142 884.483 455.952 C 884.229 455.889 884.08 455.759 884.104 455.621 C 884.127 455.482 884.319 455.361 884.593 455.312 Q 888.293 448.972 884.853 443.172 Q 880.053 435.092 874.593 427.412 Q 873.673 426.112 874.163 427.622 Q 876.493 434.672 878.513 441.822 Q 878.673 442.392 878.653 442.912 Q 878.583 445.262 877.703 443.742 Q 877.493 443.372 877.373 442.812 Q 874.803 431.232 868.203 421.362 Q 869.363 421.502 869.003 420.542 Q 868.543 419.342 867.663 418.402 Q 868.273 418.332 868.483 417.912 C 868.82 417.633 868.76 417.232 868.343 416.992 Q 866.783 414.522 863.923 413.592 Q 860.013 412.322 856.093 411.092 Q 851.183 409.542 848.543 407.932 Q 844.453 405.442 841.123 401.902 Q 837.973 398.552 834.723 395.302 Q 833.883 394.462 832.703 394.362 Q 831.483 392.772 832.913 391.572 Z " fill="rgb(252,230,182)"/><path d=" M 625.873 419.362 Q 630.453 430.022 636.943 439.632 C 637.126 439.898 637.392 440.101 637.703 440.212 Q 641.943 441.652 645.103 443.672 Q 676.453 463.732 712.673 467.332 Q 714.563 467.522 716.083 468.662 Q 720.383 471.902 725.553 472.802 Q 730.573 473.692 730.723 473.722 Q 735.113 474.632 737.413 474.112 Q 743.343 472.782 749.413 472.572 L 751.163 472.652 Q 750.373 473.672 749.393 474.392 Q 748.593 474.982 747.143 475.242 Q 742.853 476.012 738.923 477.952 Q 738.523 478.142 738.213 478.592 Q 737.023 480.312 735.163 479.612 Q 725.523 475.982 720.903 474.362 Q 718.683 473.582 715.253 471.682 Q 711.593 469.652 707.603 468.922 Q 697.223 467.042 688.143 464.482 Q 687.673 464.352 682.103 463.072 Q 679.153 462.392 676.163 461.112 Q 671.703 459.202 664.643 456.562 Q 659.153 454.512 654.383 451.132 Q 647.703 446.382 640.183 443.122 Q 639.723 442.922 639.993 443.342 Q 644.063 449.562 647.433 456.202 Q 649.023 459.352 651.413 460.112 Q 663.483 463.952 678.453 464.332 Q 680.153 464.372 681.843 464.642 Q 683.543 464.912 685.243 465.142 Q 687.673 465.452 689.633 466.662 Q 693.573 469.092 697.453 471.632 Q 700.683 473.752 702.723 474.582 Q 705.743 475.802 708.603 476.172 Q 719.463 477.582 728.193 482.852 Q 731.463 484.832 734.243 485.992 Q 735.953 486.712 737.833 485.562 L 745.383 480.972 C 745.593 480.871 745.748 480.695 745.811 480.487 C 745.873 480.278 745.838 480.056 745.713 479.872 Q 745.033 478.702 746.163 478.612 Q 748.103 478.462 749.993 478.762 Q 751.693 479.032 753.473 480.172 Q 758.853 483.602 763.353 488.162 Q 763.423 488.232 764.283 489.232 Q 765.833 491.042 768.163 490.862 Q 783.833 489.652 800.413 485.112 Q 804.033 484.122 808.473 485.452 Q 811.953 486.492 812.013 486.502 Q 818.093 488.022 819.913 488.112 Q 823.633 488.292 827.153 487.082 Q 835.763 484.142 844.423 479.862 Q 846.303 478.932 844.203 478.922 Q 836.963 478.902 829.813 478.482 Q 829.763 478.482 826.063 477.942 Q 824.003 477.642 821.903 478.082 Q 808.813 480.852 795.413 480.952 Q 777.433 481.092 772.413 481.862 Q 765.083 482.992 758.523 479.712 Q 757.633 479.262 758.143 478.972 Q 758.353 478.852 758.693 478.902 Q 766.593 479.992 769.103 479.552 Q 774.983 478.512 781.913 479.112 Q 784.723 479.352 788.663 478.822 Q 803.793 479.642 818.623 476.672 Q 823.003 475.792 827.413 476.332 Q 836.413 477.412 844.823 475.052 Q 849.313 473.792 857.943 469.082 Q 864.303 465.612 870.663 462.152 Q 874.503 460.202 877.003 456.812 Q 878.773 454.412 879.293 452.952 Q 880.073 450.782 879.383 448.252 Q 878.863 446.342 880.593 447.312 Q 881.853 448.012 881.513 449.832 Q 879.873 458.602 872.783 463.952 Q 866.063 469.022 862.473 473.672 Q 858.803 478.432 852.843 479.232 Q 850.713 479.512 848.583 479.842 Q 846.513 480.162 844.563 481.162 Q 831.373 487.962 824.853 490.552 Q 822.023 491.672 817.493 490.732 Q 811.903 489.572 806.463 487.842 Q 803.023 486.742 799.593 487.912 Q 792.913 490.192 785.923 490.752 Q 781.413 491.112 779.043 491.452 Q 775.623 491.942 772.183 492.282 Q 765.133 492.972 759.973 488.052 Q 756.303 484.542 751.433 482.642 Q 749.103 481.732 746.823 482.362 Q 743.213 483.372 740.663 485.612 Q 736.413 489.352 732.223 487.052 Q 728.403 484.942 724.473 483.052 Q 723.383 482.522 722.503 482.362 Q 720.913 482.062 720.513 481.902 Q 712.213 478.472 703.413 476.622 Q 695.523 474.962 689.463 469.862 Q 686.973 467.772 685.263 467.242 Q 683.613 466.732 681.883 466.602 Q 678.653 466.342 678.583 466.332 Q 669.623 465.172 665.913 465.112 Q 659.023 465.012 653.103 462.672 Q 651.853 462.182 650.913 462.902 Q 647.663 460.932 645.123 458.112 Q 645.503 457.302 644.973 456.302 Q 640.113 447.082 636.723 442.802 Q 634.743 440.292 633.633 438.032 Q 631.893 434.502 631.853 434.432 Q 627.573 426.892 623.473 419.242 Q 620.983 414.592 621.783 410.072 Q 622.183 407.842 622.413 410.092 Q 622.933 415.182 625.873 419.362 Z " fill="rgb(252,230,182)"/><path d=" M 703.403 368.372 C 704.306 368.676 704.852 369.417 704.743 370.192 L 704.603 373.912 Q 704.583 374.502 704.023 374.062 Q 702.313 372.702 700.953 371.002 Q 700.023 369.852 700.183 368.862 Q 700.453 367.112 703.403 368.372 Z " fill="rgb(254,149,80)"/><path d=" M 679.853 394.672 C 679.373 394.626 678.994 394.243 678.953 393.762 Q 678.663 390.272 680.913 390.342 Q 696.163 390.822 697.603 405.672 Q 698.053 410.332 694.893 408.732 Q 693.673 408.112 692.883 406.572 Q 691.813 404.502 690.933 402.342 Q 689.853 399.692 688.523 398.452 Q 685.013 395.162 679.853 394.672 Z " fill="rgb(254,149,80)"/><path d=" M 712.363 386.182 Q 707.143 381.692 707.673 375.582 Q 708.083 370.812 711.803 367.862 Q 715.553 364.892 720.853 364.912 C 721.176 364.915 721.491 365.016 721.753 365.202 Q 727.483 369.322 725.083 376.462 Q 722.633 383.742 715.813 386.712 Q 713.923 387.532 712.363 386.182 Z " fill="rgb(248,144,69)"/><path d=" M 722.303 430.073 C 722.299 427.987 725.11 426.288 728.576 426.282 C 732.042 426.276 734.859 427.965 734.863 430.051 C 734.867 432.138 732.056 433.836 728.589 433.842 C 725.123 433.848 722.307 432.16 722.303 430.073 Z " fill="rgb(154,75,65)"/><path d=" M 755.853 445.302 Q 760.523 440.212 763.353 433.572 Q 765.783 427.842 766.673 426.572 Q 768.863 423.432 772.113 420.872 Q 773.403 419.852 775.033 419.632 Q 779.313 419.052 783.923 418.752 Q 784.823 418.692 783.873 418.952 Q 771.243 422.322 767.413 434.612 Q 765.503 440.732 762.003 445.482 Q 758.273 450.542 751.963 450.672 Q 751.523 450.682 751.033 450.902 Q 749.883 451.412 748.653 451.212 Q 748.133 451.132 748.593 450.872 Q 752.953 448.442 755.853 445.302 Z " fill="rgb(206,66,81)"/><path d=" M 631.883 390.222 Q 630.983 390.602 632.453 389.722 Q 643.753 382.982 646.163 382.112 Q 651.693 380.112 647.233 383.052 Q 646.863 383.292 646.443 383.502 Q 639.263 387.072 631.883 390.222 Z " fill="rgb(244,165,182)"/><path d=" M 692.413 448.072 Q 703.053 449.032 713.413 451.562 C 713.592 451.583 713.749 451.655 713.845 451.76 C 713.941 451.866 713.965 451.994 713.913 452.112 Q 713.883 452.252 713.793 452.372 C 713.683 452.475 713.513 452.544 713.323 452.562 Q 711.573 452.632 706.913 451.862 Q 698.983 450.542 691.163 448.652 L 692.413 448.072 Z " fill="rgb(244,165,182)"/><path d=" M 828.191 450.935 C 828.035 450.441 829.092 449.666 830.55 449.206 C 832.008 448.746 833.319 448.775 833.475 449.269 C 833.631 449.764 832.574 450.539 831.116 450.999 C 829.658 451.459 828.347 451.43 828.191 450.935 Z " fill="rgb(254,148,128)"/><path d=" M 651.213 377.382 Q 649.083 377.502 649.773 374.832 C 649.841 374.555 650.114 374.367 650.413 374.392 L 657.183 375.362 Q 659.713 375.732 657.293 376.702 Q 655.683 377.342 653.513 377.262 Q 653.333 377.262 651.213 377.382 Z " fill="rgb(252,226,196)"/><path d=" M 651.453 414.612 Q 652.163 414.782 652.203 415.612 Q 652.393 418.922 654.553 421.462 Q 657.043 424.402 659.983 426.862 Q 661.673 428.272 665.413 429.972 Q 672.433 433.172 677.973 439.552 Q 683.493 445.902 692.413 448.072 L 691.163 448.652 Q 681.063 448.842 675.473 441.052 Q 671.873 436.022 666.813 433.622 Q 657.713 429.292 652.113 420.892 Q 650.143 417.942 651.453 414.612 Z " fill="rgb(252,226,196)"/><path d=" M 673.613 431.612 Q 670.493 429.042 665.603 425.172 Q 663.133 423.232 661.143 420.072 Q 660.953 419.762 660.963 419.472 Q 661.003 418.682 661.863 419.402 Q 670.333 426.562 676.473 432.552 Q 679.963 435.942 683.723 438.442 Q 686.123 440.042 691.073 441.942 Q 694.663 443.332 698.153 444.962 Q 698.613 445.182 698.103 445.122 Q 686.823 443.962 678.833 436.482 Q 673.703 431.682 673.613 431.612 Z " fill="rgb(252,226,196)"/><path d=" M 824.873 459.112 Q 825.173 459.732 825.913 459.652 Q 830.583 460.412 827.203 461.812 Q 826.523 462.092 825.593 462.252 Q 821.413 462.942 817.223 463.492 Q 816.783 463.542 817.183 463.322 L 824.873 459.112 Z " fill="rgb(253,170,143)"/><path d=" M 801.853 466.922 Q 801.023 467.332 801.263 465.662 C 801.348 465.114 801.761 464.673 802.303 464.552 Q 807.683 463.362 812.353 463.862 Q 813.013 463.932 812.493 464.282 L 809.103 466.552 Q 807.673 467.502 805.853 467.672 L 803.333 467.912 C 802.993 467.913 802.668 467.866 802.433 467.782 Q 802.033 467.452 801.853 466.922 Z " fill="rgb(251,117,98)"/><path d=" M 844.253 477.272 Q 843.213 477.012 844.263 476.792 Q 850.013 475.582 855.203 472.142 Q 861.443 467.992 868.353 465.052 Q 869.493 464.562 868.983 465.352 Q 868.873 465.532 868.653 465.682 Q 866.163 467.362 864.223 469.672 Q 861.543 472.872 858.353 475.552 Q 855.563 477.892 851.023 477.732 Q 850.823 477.732 847.803 477.742 Q 846.153 477.752 844.253 477.272 Z " fill="rgb(254,120,120)"/><path d=" M 652.203 415.612 Q 652.163 414.782 651.453 414.612 Q 653.263 409.222 658.103 406.552 Q 662.473 404.132 667.743 402.382 Q 670.023 401.632 671.393 401.042 Q 674.283 399.792 674.913 399.362 Q 675.823 398.732 675.883 399.472 C 675.934 400.103 675.604 400.704 675.043 401.002 Q 667.533 404.942 662.483 410.632 Q 662.183 410.972 661.893 411.162 Q 660.783 411.872 661.063 410.702 Q 661.143 410.382 661.403 410.082 Q 664.183 406.832 667.733 404.422 Q 670.073 402.832 667.473 403.942 Q 663.693 405.562 659.703 407.212 Q 653.943 409.612 652.203 415.612 Z " fill="rgb(252,230,182)"/><path d=" M 825.913 459.652 Q 825.173 459.732 824.873 459.112 Q 830.193 455.132 836.703 454.062 Q 838.673 453.742 839.433 453.122 Q 840.503 452.252 841.193 450.672 C 841.453 450.185 841.304 449.6 840.833 449.262 L 833.913 443.112 C 833.396 442.666 833.29 441.927 833.663 441.362 Q 834.233 440.372 834.433 441.272 Q 834.493 441.582 834.633 441.772 Q 837.033 445.232 840.713 447.162 Q 842.693 448.212 844.153 447.962 Q 846.513 447.562 846.453 444.362 Q 846.383 441.482 845.193 438.852 Q 841.733 431.202 837.243 424.102 Q 836.953 423.652 837.463 423.752 Q 838.863 424.052 839.473 425.052 Q 842.473 429.922 846.833 438.482 Q 848.083 440.932 847.793 443.002 Q 847.173 447.392 843.563 450.302 C 843.309 450.509 843.119 450.779 843.013 451.082 Q 841.743 454.802 837.663 455.372 Q 831.323 456.252 825.913 459.652 Z " fill="rgb(252,230,182)"/><path d=" M 715.365 371.893 C 717.263 371.933 718.768 373.726 718.722 375.894 C 718.677 378.063 717.099 379.791 715.201 379.751 C 713.302 379.712 711.798 377.919 711.844 375.75 C 711.889 373.582 713.467 371.853 715.365 371.893 Z " fill="rgb(158,67,63)"/></g></g></svg>