<?xml version="1.0" encoding="UTF-8" standalone="no"?><!-- Generator: Gravit.io --><svg xmlns="http://www.w3.org/2000/svg" xmlns:xlink="http://www.w3.org/1999/xlink" style="isolation:isolate" viewBox="695.962 317.638 175.351 187.425" width="175.351pt" height="187.425pt"><defs><clipPath id="_clipPath_HAqWycP3lolcM8tSBpezkruIzR6yV79B"><rect x="695.962" y="317.638" width="175.351" height="187.425"/></clipPath></defs><g clip-path="url(#_clipPath_HAqWycP3lolcM8tSBpezkruIzR6yV79B)"><path d=" M 790.767 356.876 L 792.267 357.956 L 794.727 358.916 Q 795.497 359.656 796.517 359.956 L 800.017 362.126 Q 803.737 365.616 808.267 367.956 L 808.227 368.416 L 803.977 374.666 Q 803.067 374.556 802.827 374.106 Q 801.347 371.296 798.807 369.416 L 795.267 366.126 L 792.767 364.376 Q 790.257 362.486 787.207 361.766 C 786.892 361.689 786.64 361.521 786.517 361.306 L 786.307 360.916 Q 786.007 360.296 785.267 360.376 Q 778.247 357.216 770.517 357.706 Q 766.317 359.296 765.017 363.666 Q 764.847 364.236 763.557 365.666 Q 762.667 367.536 760.947 366.666 C 760.677 366.555 760.359 366.562 760.097 366.686 Q 754.987 370.126 752.927 375.936 C 752.86 376.038 752.861 376.164 752.93 376.265 C 752.999 376.365 753.125 376.423 753.257 376.416 Q 753.897 376.316 754.297 375.686 Q 756.197 372.636 755.547 375.696 Q 755.467 376.076 755.227 376.456 Q 753.907 378.486 753.147 380.776 Q 752.997 381.206 753.067 381.566 Q 753.297 382.716 754.157 381.576 Q 759.687 374.246 764.057 366.166 Q 765.227 365.726 765.627 366.676 C 766.477 366.668 767.145 366.867 767.12 367.121 C 767.095 367.375 766.387 367.588 765.537 367.596 Q 765.437 367.906 765.557 368.196 C 765.624 368.284 765.732 368.344 765.855 368.363 C 765.979 368.382 766.106 368.358 766.207 368.296 Q 768.967 366.166 769.077 369.236 C 769.123 369.556 769.015 369.879 768.777 370.136 Q 762.397 378.736 763.447 389.496 Q 763.497 389.996 763.337 390.816 Q 763.207 391.476 763.307 392.166 L 763.227 392.416 Q 762.637 392.296 762.327 392.976 Q 757.857 402.776 749.627 419.436 Q 749.307 420.076 749.267 420.986 Q 749.227 421.816 749.017 422.626 L 741.017 433.126 Q 739.417 434.306 737.327 436.476 Q 732.677 441.316 726.007 443.276 C 725.88 443.308 725.775 443.394 725.723 443.509 C 725.67 443.624 725.675 443.756 725.737 443.866 Q 726.227 444.766 726.917 445.506 Q 728.157 446.846 728.267 447.516 Q 728.507 448.966 727.017 450.126 Q 722.467 450.716 719.807 446.916 Q 711.317 435.006 708.767 421.916 Q 702.967 392.166 721.747 371.286 Q 728.487 363.806 737.257 358.786 Q 762.127 344.546 790.767 356.876 Z " fill="rgb(238,199,102)"/><path d=" M 770.517 357.706 Q 770.667 360.316 770.477 362.906 Q 770.397 364.006 770.387 368.066 Q 770.377 372.076 768.497 375.726 C 768.242 375.994 768.234 376.355 768.477 376.626 L 769.557 378.416 L 763.307 392.166 Q 763.207 391.476 763.337 390.816 Q 763.497 389.996 763.447 389.496 Q 762.397 378.736 768.777 370.136 C 769.015 369.879 769.123 369.556 769.077 369.236 Q 768.967 366.166 766.207 368.296 C 766.106 368.358 765.979 368.382 765.855 368.363 C 765.732 368.344 765.624 368.284 765.557 368.196 Q 765.437 367.906 765.537 367.596 C 766.387 367.588 767.095 367.375 767.12 367.121 C 767.145 366.867 766.477 366.668 765.627 366.676 Q 765.227 365.726 764.057 366.166 Q 764.097 365.576 763.557 365.666 Q 764.847 364.236 765.017 363.666 Q 766.317 359.296 770.517 357.706 Z " fill="rgb(202,174,118)"/><path d=" M 792.767 364.376 L 795.267 366.126 L 785.977 380.416 Q 781.937 385.656 776.307 389.166 Q 775.727 387.786 776.207 386.856 Q 779.117 381.146 785.717 369.696 Q 785.767 369.616 786.597 367.966 Q 788.457 364.276 792.767 364.376 Z " fill="rgb(149,125,114)"/><path d=" M 798.807 369.416 Q 801.347 371.296 802.827 374.106 Q 803.067 374.556 803.977 374.666 Q 804.037 375.436 803.207 376.606 Q 796.177 386.416 789.277 393.626 Q 787.607 395.366 785.357 398.666 Q 782.847 402.336 779.267 405.126 Q 779.337 403.776 778.797 404.316 C 778.64 404.485 778.372 404.593 778.077 404.606 Q 776.787 404.346 777.957 403.106 Q 780.497 400.406 779.057 395.916 Q 780.057 395.836 780.107 394.976 Q 780.157 394.306 780.277 394.026 Q 783.277 387.216 788.017 381.456 Q 791.237 378.876 794.047 375.856 Q 794.087 375.816 796.297 373.786 Q 798.187 372.036 798.807 369.416 Z " fill="rgb(149,125,114)"/><path d=" M 780.477 370.666 Q 780.677 371.376 780.367 371.996 Q 775.037 382.526 770.457 389.606 Q 769.097 391.706 766.267 393.626 Q 763.297 395.656 763.227 392.416 L 763.307 392.166 L 769.557 378.416 L 773.557 371.916 Q 777.117 371.866 780.477 370.666 Z " fill="rgb(138,113,104)"/><path d=" M 785.977 380.416 Q 786.477 381.906 788.017 381.456 Q 783.277 387.216 780.277 394.026 Q 780.157 394.306 780.107 394.976 Q 780.057 395.836 779.057 395.916 Q 779.467 391.946 777.207 394.356 Q 775.127 396.566 771.517 403.416 Q 768.477 409.176 761.517 416.126 Q 757.727 417.296 754.957 421.356 Q 750.407 428.016 742.207 433.356 Q 741.657 433.706 741.017 433.126 L 749.017 422.626 Q 754.217 416.276 756.957 413.856 Q 764.367 407.296 769.267 398.706 L 776.307 389.166 Q 781.937 385.656 785.977 380.416 Z " fill="rgb(138,113,104)"/><path d=" M 821.477 395.166 Q 822.218 398.878 822.567 402.508 C 823.651 413.804 821.885 424.504 817.267 434.606 Q 813.157 443.596 805.977 450.966 Q 783.617 473.916 749.057 467.416 L 750.017 464.456 Q 751.077 462.496 753.227 462.916 Q 754.847 463.626 757.517 463.666 Q 767.857 463.826 776.547 461.796 Q 788.807 458.926 798.197 450.606 Q 811.777 438.566 816.237 420.906 Q 819.067 409.726 816.727 398.416 Q 817.857 396.556 819.967 395.966 C 820.31 395.846 820.537 395.619 820.567 395.366 Q 820.807 394.836 821.477 395.166 Z " fill="rgb(250,202,119)"/><path d=" M 846.767 332.376 Q 850.677 333.916 849.467 338.156 Q 848.277 342.326 845.527 345.686 Q 842.547 349.336 839.707 353.106 Q 838.017 355.336 837.847 357.236 C 837.87 357.552 837.742 357.863 837.487 358.106 Q 833.117 362.936 828.687 367.726 Q 827.287 369.236 825.077 372.266 Q 823.357 374.626 821.317 376.706 Q 817.947 380.156 817.377 380.786 Q 815.477 382.876 813.517 384.916 Q 812.827 385.636 812.057 385.416 Q 821.887 369.106 837.017 352.416 Q 838.027 351.306 838.727 350.806 Q 839.807 350.046 839.847 350.016 Q 845.567 344.856 847.827 338.976 Q 849.657 334.246 844.517 333.166 Q 843.117 332.876 840.267 332.956 Q 841.167 332.946 842.017 332.666 Q 844.487 331.856 845.077 332.106 Q 845.897 332.436 846.767 332.376 Z " fill="rgb(64,213,184)"/><path d=" M 803.227 388.416 Q 800.347 392.106 797.527 395.846 Q 794.437 399.926 791.567 403.086 Q 774.147 422.206 751.957 442.856 Q 743.847 450.396 736.477 454.916 Q 730.987 458.846 724.317 459.676 Q 724.077 459.706 723.477 460.076 L 721.307 461.416 Q 722.097 459.786 722.607 458.046 Q 722.907 457.016 723.367 456.586 Q 724.427 455.576 725.327 456.926 C 725.431 457.166 725.701 457.362 726.057 457.456 Q 726.577 457.516 727.057 457.366 C 727.238 457.314 727.379 457.211 727.443 457.081 C 727.508 456.952 727.491 456.809 727.397 456.686 L 727.017 452.206 Q 733.087 450.646 735.517 448.916 Q 740.327 445.486 751.957 434.856 Q 758.787 428.606 762.727 423.916 Q 782.677 403.176 786.957 398.606 Q 792.177 393.016 797.827 385.556 Q 802.567 379.286 803.227 378.306 Q 805.517 374.946 807.827 370.476 Q 808.467 369.246 808.227 368.416 L 808.267 367.956 Q 811.317 364.476 811.507 359.906 C 811.526 359.591 811.38 359.287 811.117 359.096 Q 808.627 357.226 805.707 358.106 Q 802.457 359.086 800.017 362.126 L 796.517 359.956 Q 804.777 353.906 814.747 351.346 Q 817.067 350.746 815.477 349.246 C 814.987 348.788 814.918 348.035 815.317 347.496 Q 819.657 341.606 826.207 338.356 Q 830.957 335.986 834.707 336.406 C 835.028 336.447 835.318 336.617 835.507 336.876 Q 840.807 344.016 834.077 349.976 Q 830.937 352.756 823.617 360.306 C 823.342 360.543 823.2 360.845 823.217 361.156 Q 823.037 362.346 822.097 362.836 C 821.361 363.227 820.762 363.827 820.377 364.556 Q 817.757 369.506 814.647 373.046 Q 808.307 380.256 803.227 388.416 Z " fill="rgb(64,213,184)"/><path d=" M 802.767 349.706 L 804.017 350.206 L 794.727 358.916 L 792.267 357.956 L 793.397 356.496 C 793.525 356.326 793.846 356.192 794.257 356.136 Q 795.137 356.006 795.767 355.386 Q 796.677 354.496 796.767 354.426 Q 799.797 352.116 802.767 349.706 Z " fill="rgb(64,213,184)"/><path d=" M 816.557 398.416 Q 816.117 399.906 814.017 401.916 Q 800.567 414.746 789.107 422.776 Q 785.967 424.976 783.227 427.666 Q 769.647 439.046 757.227 451.666 L 754.767 453.956 Q 752.737 453.246 751.267 454.626 Q 751.757 454.036 751.607 453.526 Q 751.427 452.946 751.427 452.886 Q 751.387 451.266 752.857 450.646 Q 753.377 450.426 753.667 450.116 Q 762.497 440.426 769.327 435.726 Q 774.127 432.426 776.717 430.226 Q 776.797 430.156 779.157 428.526 Q 780.527 427.576 781.127 426.016 Q 781.977 423.796 782.577 423.156 Q 784.097 421.536 786.457 419.856 Q 788.637 418.296 793.557 413.666 L 811.517 399.126 L 814.457 398.906 C 814.803 398.827 815.085 398.66 815.237 398.446 Q 815.847 397.736 816.557 398.416 Z " fill="rgb(64,213,184)"/><path d=" M 816.557 398.416 L 816.727 398.416 Q 819.067 409.726 816.237 420.906 Q 811.777 438.566 798.197 450.606 Q 788.807 458.926 776.547 461.796 Q 767.857 463.826 757.517 463.666 Q 754.847 463.626 753.227 462.916 Q 753.677 461.066 755.707 459.356 Q 768.137 448.896 783.107 433.706 Q 783.157 433.656 784.377 432.576 Q 786.887 430.336 783.517 428.376 Q 783.267 428.066 783.227 427.666 Q 785.967 424.976 789.107 422.776 Q 800.567 414.746 814.017 401.916 Q 816.117 399.906 816.557 398.416 Z " fill="rgb(113,103,110)"/><path d=" M 808.227 368.416 Q 808.467 369.246 807.827 370.476 Q 805.517 374.946 803.227 378.306 Q 802.567 379.286 797.827 385.556 Q 792.177 393.016 786.957 398.606 Q 782.677 403.176 762.727 423.916 Q 760.767 424.146 759.057 425.166 L 764.807 419.166 Q 768.987 415.816 770.707 413.606 Q 773.327 410.226 775.577 408.726 Q 776.367 408.206 779.267 405.126 Q 782.847 402.336 785.357 398.666 Q 787.607 395.366 789.277 393.626 Q 796.177 386.416 803.207 376.606 Q 804.037 375.436 803.977 374.666 L 808.227 368.416 Z " fill="rgb(108,141,165)"/><path d=" M 762.727 423.916 Q 758.787 428.606 751.957 434.856 Q 740.327 445.486 735.517 448.916 Q 733.087 450.646 727.017 452.206 Q 725.987 452.306 725.057 451.916 Q 723.537 450.496 721.557 449.916 L 720.307 448.666 Q 720.317 447.766 719.517 447.376 L 719.807 446.916 Q 722.467 450.716 727.017 450.126 Q 733.177 449.136 738.207 444.606 Q 742.887 440.386 746.217 437.066 Q 748.837 434.456 752.707 431.216 Q 756.067 428.406 759.057 425.166 Q 760.767 424.146 762.727 423.916 Z " fill="rgb(84,145,173)"/><path d=" M 783.227 427.666 Q 783.267 428.066 783.517 428.376 L 757.807 452.916 L 757.227 451.666 Q 769.647 439.046 783.227 427.666 Z " fill="rgb(46,111,150)"/><path d=" M 850.727 352.416 Q 849.387 352.516 850.077 351.476 Q 851.247 349.736 849.577 349.606 C 849.351 349.574 849.167 349.5 849.074 349.405 C 848.981 349.311 848.99 349.204 849.097 349.116 Q 848.957 348.816 848.267 348.876 L 853.727 342.166 Q 855.377 339.806 857.177 337.556 Q 860.897 332.936 862.267 327.146 Q 862.997 324.106 859.997 324.996 Q 854.447 326.656 849.477 330.166 Q 847.287 330.416 846.767 332.376 Q 845.897 332.436 845.077 332.106 Q 844.487 331.856 842.017 332.666 Q 841.167 332.946 840.267 332.956 Q 839.637 332.066 838.577 332.486 Q 836.617 333.246 834.567 332.946 Q 834.047 332.866 834.577 332.796 Q 837.867 332.376 832.267 332.206 Q 837.217 332.686 840.077 330.476 Q 849.437 323.286 860.347 318.766 Q 863.427 317.496 866.757 317.656 Q 871.767 317.896 871.267 322.666 Q 870.927 325.936 868.367 329.796 Q 860.417 341.776 850.727 352.416 Z " fill="rgb(82,202,218)"/><path d=" M 831.267 331.376 Q 830.367 331.326 829.607 331.776 Q 825.047 334.506 820.307 336.916 Q 820.637 334.546 818.517 333.626 Q 824.277 329.586 830.577 326.496 Q 830.737 326.416 834.277 324.606 Q 838.207 322.586 841.017 322.416 Q 843.307 322.276 842.387 323.946 Q 842.057 324.546 841.277 325.016 Q 837.977 327.016 835.957 327.856 Q 832.877 329.126 831.267 331.376 Z " fill="rgb(82,202,218)"/><path d=" M 821.477 395.166 Q 820.807 394.836 820.567 395.366 C 820.537 395.619 820.31 395.846 819.967 395.966 Q 817.857 396.556 816.727 398.416 L 816.557 398.416 Q 815.847 397.736 815.237 398.446 C 815.085 398.66 814.803 398.827 814.457 398.906 L 811.517 399.126 Q 815.257 395.656 818.057 391.416 L 819.727 390.166 Q 834.877 376.486 846.667 359.796 Q 848.307 357.466 850.287 355.516 C 850.49 355.32 850.764 355.213 851.046 355.221 C 851.328 355.228 851.595 355.349 851.787 355.556 Q 853.207 357.096 852.507 358.676 Q 852.377 358.986 850.837 360.986 Q 837.447 378.456 821.767 393.916 Q 821.417 394.256 821.477 395.166 Z " fill="rgb(82,202,218)"/><path d=" M 719.517 447.376 Q 720.317 447.766 720.307 448.666 L 712.017 464.876 Q 709.817 466.376 709.147 468.866 Q 708.967 469.526 709.237 469.926 Q 709.637 470.506 710.477 470.256 Q 711.577 469.916 711.297 471.036 Q 710.527 474.146 708.907 476.726 Q 704.167 484.276 701.487 492.776 Q 700.727 495.196 701.227 497.496 C 701.328 497.96 701.609 498.366 702.008 498.623 C 702.408 498.88 702.893 498.967 703.357 498.866 Q 705.687 498.356 706.977 497.646 Q 728.087 486.016 744.267 468.166 Q 744.467 470.226 745.517 468.166 Q 746.227 466.776 748.737 465.776 C 749.067 465.633 749.293 465.4 749.357 465.136 Q 749.567 464.676 750.017 464.456 L 749.057 467.416 Q 732.577 485.166 712.937 499.326 Q 706.207 504.186 701.767 504.916 Q 695.447 505.956 696.007 499.666 Q 696.377 495.566 697.827 491.726 Q 699.247 487.986 706.957 473.106 Q 707.397 472.256 706.807 471.316 C 706.575 471.064 706.522 470.735 706.667 470.446 Q 710.677 457.566 719.517 447.376 Z " fill="rgb(82,202,218)"/><path d=" M 831.267 331.376 Q 831.597 331.476 831.517 331.876 Q 830.937 331.976 830.657 332.396 Q 830.297 332.936 830.017 333.086 Q 816.197 340.396 804.017 350.206 L 802.767 349.706 Q 811.097 342.706 820.307 336.916 Q 825.047 334.506 829.607 331.776 Q 830.367 331.326 831.267 331.376 Z " fill="rgb(27,146,175)"/><path d=" M 818.057 391.416 Q 815.257 395.656 811.517 399.126 L 793.557 413.666 L 795.477 410.166 Q 804.977 402.796 813.057 393.916 Q 814.327 392.866 815.057 391.366 C 815.137 391.091 815.379 390.849 815.727 390.696 Q 817.107 390.186 818.057 391.416 Z " fill="rgb(27,146,175)"/><path d=" M 720.307 448.666 L 721.557 449.916 L 712.727 465.416 Q 712.497 464.906 712.017 464.876 L 720.307 448.666 Z " fill="rgb(27,146,175)"/><path d=" M 757.227 451.666 L 757.807 452.916 Q 750.447 460.026 744.267 468.166 Q 744.447 467.076 743.477 466.666 Q 743.287 465.306 744.267 464.456 L 754.767 453.956 L 757.227 451.666 Z " fill="rgb(27,146,175)"/><path d=" M 818.517 333.626 Q 820.637 334.546 820.307 336.916 Q 811.097 342.706 802.767 349.706 Q 799.797 352.116 796.767 354.426 Q 796.677 354.496 795.767 355.386 Q 795.137 356.006 794.257 356.136 C 793.846 356.192 793.525 356.326 793.397 356.496 L 792.267 357.956 L 790.767 356.876 Q 803.067 343.376 818.517 333.626 Z " fill="rgb(82,217,190)"/><path d=" M 848.267 348.876 Q 848.957 348.816 849.097 349.116 C 848.99 349.204 848.981 349.311 849.074 349.405 C 849.167 349.5 849.351 349.574 849.577 349.606 Q 851.247 349.736 850.077 351.476 Q 849.387 352.516 850.727 352.416 Q 847.747 355.696 840.707 364.356 Q 835.187 371.136 825.517 380.706 Q 822.637 382.916 819.767 386.416 Q 818.827 387.566 819.227 388.666 Q 818.957 389.726 819.727 390.166 L 818.057 391.416 Q 817.107 390.186 815.727 390.696 C 815.379 390.849 815.137 391.091 815.057 391.366 Q 814.327 392.866 813.057 393.916 Q 813.297 392.576 812.057 392.916 Q 810.567 393.336 809.017 393.126 Q 817.417 382.826 826.677 373.326 Q 836.717 363.016 845.557 351.666 L 848.267 348.876 Z " fill="rgb(82,217,190)"/><path d=" M 783.517 428.376 Q 786.887 430.336 784.377 432.576 Q 783.157 433.656 783.107 433.706 Q 768.137 448.896 755.707 459.356 Q 753.677 461.066 753.227 462.916 Q 751.077 462.496 750.017 464.456 Q 749.567 464.676 749.357 465.136 C 749.293 465.4 749.067 465.633 748.737 465.776 Q 746.227 466.776 745.517 468.166 Q 744.467 470.226 744.267 468.166 Q 750.447 460.026 757.807 452.916 L 783.517 428.376 Z " fill="rgb(82,217,190)"/><path d=" M 754.767 453.956 L 744.267 464.456 Q 742.187 464.416 741.537 465.786 Q 741.107 466.696 740.327 467.336 Q 737.287 469.836 735.037 471.686 Q 735.007 471.716 730.517 475.666 Q 727.357 478.466 723.707 480.576 Q 718.967 483.336 717.497 483.946 Q 714.147 485.346 710.337 485.026 C 710.009 485.008 709.724 485.204 709.697 485.466 L 709.477 488.416 Q 708.147 485.356 709.457 481.106 Q 712.547 471.016 714.307 467.166 Q 715.227 467.556 716.267 467.456 Q 716.267 471.406 717.377 475.196 C 717.418 475.287 717.5 475.358 717.604 475.391 C 717.708 475.424 717.822 475.415 717.917 475.366 Q 718.687 474.896 718.887 475.856 C 718.974 476.13 718.795 476.413 718.477 476.506 Q 717.307 476.956 716.527 478.056 Q 715.937 478.886 716.857 478.466 Q 718.967 477.506 720.707 476.036 Q 723.167 473.966 724.247 473.296 Q 731.577 468.736 735.957 465.356 Q 744.837 458.496 751.267 454.626 Q 752.737 453.246 754.767 453.956 Z " fill="rgb(82,217,190)"/><path d=" M 800.057 399.666 L 791.517 411.126 Q 789.987 412.656 788.767 414.436 Q 788.147 415.326 789.017 415.456 Q 775.827 427.376 755.577 446.476 Q 744.677 456.766 731.017 467.456 Q 729.097 467.556 730.777 467.146 C 730.882 467.122 730.963 467.041 730.987 466.936 Q 731.217 465.756 732.107 465.126 Q 733.497 464.126 733.697 463.906 Q 734.957 462.486 736.187 461.046 C 736.417 460.8 736.522 460.482 736.477 460.166 Q 736.387 458.546 737.047 457.106 C 737.186 456.863 737.097 456.568 736.837 456.416 Q 736.137 455.876 736.477 454.916 Q 743.847 450.396 751.957 442.856 Q 774.147 422.206 791.567 403.086 Q 794.437 399.926 797.527 395.846 Q 800.347 392.106 803.227 388.416 Q 807.517 386.986 805.407 390.646 Q 804.997 391.356 803.907 392.496 Q 801.027 395.506 800.057 399.666 Z " fill="rgb(130,245,125)"/><path d=" M 736.477 454.916 Q 736.137 455.876 736.837 456.416 C 737.097 456.568 737.186 456.863 737.047 457.106 Q 736.387 458.546 736.477 460.166 C 736.522 460.482 736.417 460.8 736.187 461.046 Q 734.957 462.486 733.697 463.906 Q 733.497 464.126 732.107 465.126 Q 731.217 465.756 730.987 466.936 C 730.963 467.041 730.882 467.122 730.777 467.146 Q 729.097 467.556 731.017 467.456 L 728.517 469.206 Q 725.037 469.536 721.877 471.026 Q 721.017 471.426 720.467 471.286 Q 719.547 471.036 719.457 469.986 C 719.433 469.722 719.217 469.514 718.947 469.496 Q 717.457 469.396 717.977 467.416 Q 718.807 463.996 721.307 461.416 L 723.477 460.076 Q 724.077 459.706 724.317 459.676 Q 730.987 458.846 736.477 454.916 Z " fill="rgb(130,245,125)"/><path d=" M 852.977 341.416 Q 850.057 346.006 845.707 350.606 Q 845.327 350.996 845.557 351.666 Q 836.717 363.016 826.677 373.326 Q 817.417 382.826 809.017 393.126 Q 802.477 398.366 801.207 400.106 Q 798.407 403.936 792.767 410.666 Q 792.197 411.356 791.517 411.126 L 800.057 399.666 L 812.057 385.416 Q 812.827 385.636 813.517 384.916 Q 815.477 382.876 817.377 380.786 Q 817.947 380.156 821.317 376.706 Q 823.357 374.626 825.077 372.266 Q 827.287 369.236 828.687 367.726 Q 833.117 362.936 837.487 358.106 C 837.742 357.863 837.87 357.552 837.847 357.236 Q 838.017 355.336 839.707 353.106 Q 842.547 349.336 845.527 345.686 Q 848.277 342.326 849.467 338.156 Q 850.677 333.916 846.767 332.376 Q 847.287 330.416 849.477 330.166 Q 849.587 330.506 850.017 330.416 Q 853.067 329.786 853.707 331.726 Q 855.347 336.716 852.977 341.416 Z " fill="rgb(50,180,186)"/><path d=" M 795.477 410.166 L 793.557 413.666 Q 788.637 418.296 786.457 419.856 Q 784.097 421.536 782.577 423.156 Q 781.977 423.796 781.127 426.016 Q 780.527 427.576 779.157 428.526 Q 776.797 430.156 776.717 430.226 Q 774.127 432.426 769.327 435.726 Q 762.497 440.426 753.667 450.116 Q 753.377 450.426 752.857 450.646 Q 751.387 451.266 751.427 452.886 Q 751.427 452.946 751.607 453.526 Q 751.757 454.036 751.267 454.626 Q 744.837 458.496 735.957 465.356 Q 731.577 468.736 724.247 473.296 Q 723.167 473.966 720.707 476.036 Q 718.967 477.506 716.857 478.466 Q 715.937 478.886 716.527 478.056 Q 717.307 476.956 718.477 476.506 C 718.795 476.413 718.974 476.13 718.887 475.856 Q 718.687 474.896 717.917 475.366 C 717.822 475.415 717.708 475.424 717.604 475.391 C 717.5 475.358 717.418 475.287 717.377 475.196 Q 716.267 471.406 716.267 467.456 Q 719.947 459.286 725.057 451.916 Q 725.987 452.306 727.017 452.206 L 727.397 456.686 C 727.491 456.809 727.508 456.952 727.443 457.081 C 727.379 457.211 727.238 457.314 727.057 457.366 Q 726.577 457.516 726.057 457.456 C 725.701 457.362 725.431 457.166 725.327 456.926 Q 724.427 455.576 723.367 456.586 Q 722.907 457.016 722.607 458.046 Q 722.097 459.786 721.307 461.416 Q 718.807 463.996 717.977 467.416 Q 717.317 469.976 718.217 472.296 C 718.38 472.711 718.401 473.168 718.277 473.596 Q 717.847 475.086 718.857 474.566 Q 719.467 474.246 719.577 474.206 Q 724.347 472.236 728.517 469.206 L 731.017 467.456 Q 744.677 456.766 755.577 446.476 Q 775.827 427.376 789.017 415.456 L 795.477 410.166 Z " fill="rgb(50,180,186)"/><path d=" M 744.267 464.456 Q 743.287 465.306 743.477 466.666 Q 742.467 467.226 740.577 469.476 Q 732.397 479.206 719.787 486.916 Q 715.437 489.576 710.827 489.356 Q 710.027 489.316 709.477 488.416 L 709.697 485.466 C 709.724 485.204 710.009 485.008 710.337 485.026 Q 714.147 485.346 717.497 483.946 Q 718.967 483.336 723.707 480.576 Q 727.357 478.466 730.517 475.666 Q 735.007 471.716 735.037 471.686 Q 737.287 469.836 740.327 467.336 Q 741.107 466.696 741.537 465.786 Q 742.187 464.416 744.267 464.456 Z " fill="rgb(50,180,186)"/><path d=" M 831.517 331.876 Q 831.947 331.916 832.267 332.206 Q 837.867 332.376 834.577 332.796 Q 834.047 332.866 834.567 332.946 Q 836.617 333.246 838.577 332.486 Q 839.637 332.066 840.267 332.956 Q 843.117 332.876 844.517 333.166 Q 849.657 334.246 847.827 338.976 Q 845.567 344.856 839.847 350.016 Q 839.807 350.046 838.727 350.806 Q 838.027 351.306 837.017 352.416 Q 821.887 369.106 812.057 385.416 L 800.057 399.666 Q 801.027 395.506 803.907 392.496 Q 804.997 391.356 805.407 390.646 Q 807.517 386.986 803.227 388.416 Q 808.307 380.256 814.647 373.046 Q 817.757 369.506 820.377 364.556 C 820.762 363.827 821.361 363.227 822.097 362.836 Q 823.037 362.346 823.217 361.156 C 823.2 360.845 823.342 360.543 823.617 360.306 Q 830.937 352.756 834.077 349.976 Q 840.807 344.016 835.507 336.876 C 835.318 336.617 835.028 336.447 834.707 336.406 Q 830.957 335.986 826.207 338.356 Q 819.657 341.606 815.317 347.496 C 814.918 348.035 814.987 348.788 815.477 349.246 Q 817.067 350.746 814.747 351.346 Q 804.777 353.906 796.517 359.956 Q 795.497 359.656 794.727 358.916 L 804.017 350.206 Q 816.197 340.396 830.017 333.086 Q 830.297 332.936 830.657 332.396 Q 830.937 331.976 831.517 331.876 Z " fill="rgb(105,232,154)"/><path d=" M 813.057 393.916 Q 804.977 402.796 795.477 410.166 L 789.017 415.456 Q 788.147 415.326 788.767 414.436 Q 789.987 412.656 791.517 411.126 Q 792.197 411.356 792.767 410.666 Q 798.407 403.936 801.207 400.106 Q 802.477 398.366 809.017 393.126 Q 810.567 393.336 812.057 392.916 Q 813.297 392.576 813.057 393.916 Z " fill="rgb(105,232,154)"/><path d=" M 721.557 449.916 Q 723.537 450.496 725.057 451.916 Q 719.947 459.286 716.267 467.456 Q 715.227 467.556 714.307 467.166 Q 713.327 466.476 712.727 465.416 L 721.557 449.916 Z " fill="rgb(105,232,154)"/><path d=" M 717.977 467.416 Q 717.457 469.396 718.947 469.496 C 719.217 469.514 719.433 469.722 719.457 469.986 Q 719.547 471.036 720.467 471.286 Q 721.017 471.426 721.877 471.026 Q 725.037 469.536 728.517 469.206 Q 724.347 472.236 719.577 474.206 Q 719.467 474.246 718.857 474.566 Q 717.847 475.086 718.277 473.596 C 718.401 473.168 718.38 472.711 718.217 472.296 Q 717.317 469.976 717.977 467.416 Z " fill="rgb(105,232,154)"/><path d=" M 770.517 357.706 Q 778.247 357.216 785.267 360.376 Q 783.857 360.376 782.517 361.666 Q 778.437 365.586 774.587 369.736 Q 773.717 370.666 773.557 371.916 L 769.557 378.416 L 768.477 376.626 C 768.234 376.355 768.242 375.994 768.497 375.726 Q 770.377 372.076 770.387 368.066 Q 770.397 364.006 770.477 362.906 Q 770.667 360.316 770.517 357.706 Z " fill="rgb(181,145,117)"/><path d=" M 786.307 360.916 L 786.517 361.306 C 786.64 361.521 786.892 361.689 787.207 361.766 Q 790.257 362.486 792.767 364.376 Q 788.457 364.276 786.597 367.966 Q 785.767 369.616 785.717 369.696 Q 779.117 381.146 776.207 386.856 Q 775.727 387.786 776.307 389.166 L 769.267 398.706 Q 769.007 398.246 768.577 398.136 C 768.279 398.069 768.076 397.846 768.087 397.596 Q 768.037 395.206 766.267 393.626 Q 769.097 391.706 770.457 389.606 Q 775.037 382.526 780.367 371.996 Q 780.677 371.376 780.477 370.666 Q 784.227 366.286 786.307 360.916 Z " fill="rgb(181,145,117)"/><path d=" M 763.557 365.666 Q 764.097 365.576 764.057 366.166 Q 759.687 374.246 754.157 381.576 Q 753.297 382.716 753.067 381.566 Q 752.997 381.206 753.147 380.776 Q 753.907 378.486 755.227 376.456 Q 755.467 376.076 755.547 375.696 Q 756.197 372.636 754.297 375.686 Q 753.897 376.316 753.257 376.416 C 753.125 376.423 752.999 376.365 752.93 376.265 C 752.861 376.164 752.86 376.038 752.927 375.936 Q 754.987 370.126 760.097 366.686 C 760.359 366.562 760.677 366.555 760.947 366.666 Q 762.667 367.536 763.557 365.666 Z " fill="rgb(165,121,88)"/><path d=" M 779.057 395.916 Q 780.497 400.406 777.957 403.106 Q 776.787 404.346 778.077 404.606 C 778.372 404.593 778.64 404.485 778.797 404.316 Q 779.337 403.776 779.267 405.126 Q 776.367 408.206 775.577 408.726 Q 773.327 410.226 770.707 413.606 Q 768.987 415.816 764.807 419.166 Q 764.647 416.056 761.517 416.126 Q 768.477 409.176 771.517 403.416 Q 775.127 396.566 777.207 394.356 Q 779.467 391.946 779.057 395.916 Z " fill="rgb(164,146,109)"/><path d=" M 763.227 392.416 Q 763.297 395.656 766.267 393.626 Q 768.037 395.206 768.087 397.596 C 768.076 397.846 768.279 398.069 768.577 398.136 Q 769.007 398.246 769.267 398.706 Q 764.367 407.296 756.957 413.856 Q 754.217 416.276 749.017 422.626 Q 749.227 421.816 749.267 420.986 Q 749.307 420.076 749.627 419.436 Q 757.857 402.776 762.327 392.976 Q 762.637 392.296 763.227 392.416 Z " fill="rgb(191,155,107)"/><path d=" M 761.517 416.126 Q 764.647 416.056 764.807 419.166 L 759.057 425.166 Q 756.067 428.406 752.707 431.216 Q 748.837 434.456 746.217 437.066 Q 742.887 440.386 738.207 444.606 Q 733.177 449.136 727.017 450.126 Q 728.507 448.966 728.267 447.516 Q 728.157 446.846 726.917 445.506 Q 726.227 444.766 725.737 443.866 C 725.675 443.756 725.67 443.624 725.723 443.509 C 725.775 443.394 725.88 443.308 726.007 443.276 Q 732.677 441.316 737.327 436.476 Q 739.417 434.306 741.017 433.126 Q 741.657 433.706 742.207 433.356 Q 750.407 428.016 754.957 421.356 Q 757.727 417.296 761.517 416.126 Z " fill="rgb(191,155,107)"/><path d=" M 785.267 360.376 Q 786.007 360.296 786.307 360.916 Q 784.227 366.286 780.477 370.666 Q 777.117 371.866 773.557 371.916 Q 773.717 370.666 774.587 369.736 Q 778.437 365.586 782.517 361.666 Q 783.857 360.376 785.267 360.376 Z " fill="rgb(116,86,81)"/><path d=" M 795.267 366.126 L 798.807 369.416 Q 798.187 372.036 796.297 373.786 Q 794.087 375.816 794.047 375.856 Q 791.237 378.876 788.017 381.456 Q 786.477 381.906 785.977 380.416 L 795.267 366.126 Z " fill="rgb(116,86,81)"/><path d=" M 808.767 421.336 Q 809.807 420.056 811.427 418.996 Q 813.337 417.756 812.187 419.716 Q 808.127 426.596 803.087 432.316 Q 801.557 434.056 799.877 435.476 Q 797.587 437.406 796.207 438.106 Q 794.217 439.106 794.637 437.536 Q 794.767 437.046 795.227 436.536 Q 801.337 429.616 807.557 422.806 Q 807.607 422.756 808.767 421.336 Z " fill="rgb(134,125,128)"/><path d=" M 722.207 439.186 C 722.138 439.311 722.011 439.393 721.868 439.405 C 721.726 439.417 721.587 439.357 721.497 439.246 Q 719.817 437.176 719.397 434.466 C 719.376 434.345 719.41 434.222 719.49 434.126 C 719.571 434.031 719.69 433.973 719.817 433.966 Q 720.957 433.886 721.707 433.356 Q 729.697 427.606 737.797 422.006 Q 738.207 421.726 737.867 422.086 Q 734.777 425.386 733.327 426.476 Q 726.527 431.596 722.207 439.186 Z " fill="rgb(154,113,96)"/><path d=" M 826.977 349.916 Q 822.867 351.616 819.237 348.776 C 818.577 348.262 818.453 347.313 818.957 346.646 Q 821.197 343.706 823.517 342.126 Q 825.817 341.616 827.987 340.716 Q 830.847 339.546 831.667 339.466 Q 835.067 339.126 834.307 343.626 Q 833.627 347.656 830.017 348.416 Q 827.957 348.846 826.977 349.916 Z " fill="rgb(130,245,125)"/><path d=" M 826.977 349.916 Q 827.957 348.846 830.017 348.416 Q 833.627 347.656 834.307 343.626 Q 835.067 339.126 831.667 339.466 Q 830.847 339.546 827.987 340.716 Q 825.817 341.616 823.517 342.126 Q 826.907 339.146 831.147 337.946 C 832.089 337.684 833.096 338.001 833.717 338.756 Q 836.527 342.156 835.377 345.406 Q 834.897 346.736 833.267 348.166 Q 831.927 349.336 830.507 350.406 Q 829.207 351.406 829.077 352.266 Q 828.837 353.936 827.367 354.766 Q 823.617 356.876 821.287 360.256 C 821.134 360.49 820.834 360.62 820.527 360.586 Q 819.617 360.346 820.317 359.666 Q 820.707 359.296 820.877 358.896 L 823.267 353.146 C 823.567 352.445 824.211 351.912 825.007 351.706 Q 828.397 350.866 826.977 349.916 Z " fill="rgb(105,232,154)"/><path d=" M 760.767 358.206 Q 761.257 358.036 761.637 358.226 Q 761.947 358.386 762.067 358.876 Q 762.867 362.126 759.577 364.476 Q 750.957 370.656 746.017 381.706 Q 745.257 381.616 744.707 382.606 Q 741.307 388.646 740.477 390.666 Q 739.247 390.286 737.977 390.416 Q 741.587 384.296 744.787 377.956 Q 750.627 366.346 760.767 358.206 Z " fill="rgb(233,195,102)"/><path d=" M 746.017 381.706 Q 744.437 386.126 741.927 390.086 Q 741.387 390.936 740.477 390.666 Q 741.307 388.646 744.707 382.606 Q 745.257 381.616 746.017 381.706 Z " fill="rgb(199,143,80)"/><path d=" M 760.767 358.206 Q 750.627 366.346 744.787 377.956 Q 741.587 384.296 737.977 390.416 Q 728.687 404.896 713.797 415.266 C 713.706 415.329 713.589 415.341 713.486 415.299 C 713.383 415.256 713.308 415.165 713.287 415.056 Q 712.477 410.166 712.987 407.086 C 712.869 406.215 713.395 405.373 714.367 404.876 L 720.797 401.346 C 720.922 401.323 721.054 401.346 721.157 401.41 C 721.26 401.474 721.322 401.571 721.327 401.676 Q 721.507 402.496 722.287 402.336 Q 722.707 402.246 723.067 401.746 Q 726.417 397.106 729.017 394.416 Q 737.727 385.406 741.517 374.166 Q 742.217 372.086 745.147 366.206 Q 746.627 363.236 748.707 361.756 Q 753.937 358.046 760.767 358.206 Z " fill="rgb(165,121,88)"/><path d=" M 722.827 392.406 Q 729.017 382.196 735.987 373.176 Q 736.997 371.866 736.577 373.466 Q 735.627 377.146 734.217 380.656 Q 732.617 384.646 730.447 387.126 Q 727.207 390.816 722.607 392.976 Q 722.187 393.176 722.297 392.806 Q 722.337 392.686 722.487 392.636 C 722.655 392.59 722.779 392.506 722.827 392.406 Z " fill="rgb(165,121,88)"/><path d=" M 749.427 386.506 Q 750.967 384.106 750.827 386.956 Q 750.607 391.476 747.557 392.366 C 747.231 392.468 746.954 392.65 746.767 392.886 Q 741.947 399.236 738.117 406.206 Q 734.937 411.996 732.517 415.016 Q 727.167 421.686 720.927 427.566 Q 719.387 429.026 718.487 431.206 C 718.446 431.31 718.353 431.385 718.243 431.403 C 718.132 431.422 718.02 431.381 717.947 431.296 Q 715.497 428.486 717.957 427.106 Q 720.697 425.566 724.067 422.046 Q 726.167 419.856 729.087 415.936 Q 739.667 401.716 749.427 386.506 Z " fill="rgb(165,121,88)"/><path d=" M 758.387 391.016 Q 756.017 394.366 751.817 393.856 Q 750.727 393.716 751.577 393.106 L 757.827 388.656 C 757.947 388.576 758.096 388.548 758.237 388.579 C 758.379 388.609 758.502 388.695 758.577 388.816 Q 759.207 389.856 758.387 391.016 Z " fill="rgb(165,121,88)"/><path d=" M 715.457 395.606 Q 717.437 392.836 722.037 389.986 Q 722.467 389.716 722.197 390.156 Q 719.857 393.986 716.357 396.786 C 716.124 396.954 715.793 397.014 715.487 396.946 Q 714.757 396.576 715.457 395.606 Z " fill="rgb(165,121,88)"/><path d=" M 739.277 419.546 Q 738.067 419.756 739.207 418.606 Q 742.747 415.016 746.477 413.866 Q 746.977 413.706 746.597 414.076 Q 743.517 417.066 739.847 419.316 Q 739.557 419.496 739.277 419.546 Z " fill="rgb(165,121,88)"/><path d=" M 715.087 419.076 Q 716.717 416.956 719.927 415.376 Q 720.567 415.066 720.217 415.686 Q 718.537 418.706 716.707 420.606 Q 716.147 421.186 715.537 421.336 Q 714.267 421.646 714.537 420.226 Q 714.657 419.636 715.087 419.076 Z " fill="rgb(165,121,88)"/><path d=" M 727.187 372.586 Q 731.927 367.816 737.717 364.346 Q 739.067 363.536 738.127 364.796 Q 735.167 368.746 732.107 373.056 Q 732.057 373.126 729.187 377.476 Q 725.397 383.246 719.937 387.586 Q 717.627 389.426 715.767 391.716 Q 715.367 392.206 715.247 391.666 Q 715.177 391.346 715.317 390.976 Q 719.297 380.526 727.187 372.586 Z " fill="rgb(161,114,85)"/></g></svg>