<?xml version="1.0" encoding="UTF-8" standalone="no"?><!-- Generator: Gravit.io --><svg xmlns="http://www.w3.org/2000/svg" xmlns:xlink="http://www.w3.org/1999/xlink" style="isolation:isolate" viewBox="182.933 263.425 169.337 114.958" width="169.337pt" height="114.958pt"><defs><clipPath id="_clipPath_nqbKGScowd73ttcv0P9XN9s4JCtOK3pd"><rect x="182.933" y="263.425" width="169.337" height="114.958"/></clipPath></defs><g clip-path="url(#_clipPath_nqbKGScowd73ttcv0P9XN9s4JCtOK3pd)"><path d=" M 294.836 308.7 Q 293.936 311.67 291.706 313.82 C 291.471 314.028 291.172 314.17 290.846 314.23 Q 286.036 314.99 280.276 317.1 Q 278.366 317.79 277.916 318.73 Q 265.036 326.26 250.296 326.86 Q 250.226 326.86 245.896 326.65 Q 241.756 326.44 238.056 328.53 C 237.915 328.596 237.744 328.604 237.596 328.55 L 237.376 328.41 Q 236.736 324.4 237.626 320.41 Q 238.296 317.37 242.086 317.66 Q 245.246 317.9 250.086 315.91 Q 253.316 314.58 255.156 312.33 Q 256.216 311.04 255.936 309.59 Q 255.406 306.94 252.146 308.72 Q 245.736 312.22 240.516 313.48 C 240.195 313.53 239.86 313.483 239.586 313.35 Q 239.106 312.99 238.836 312.37 L 237.446 308.86 Q 236.426 306.29 238.176 304.88 Q 247.466 297.36 258.186 293.13 Q 264.716 290.55 269.736 290.19 Q 275.876 289.75 281.776 291.72 Q 283.546 292.31 284.776 293.76 Q 285.916 295.1 287.156 296.32 Q 288.586 297.73 289.156 299.74 C 289.192 300.003 289.416 300.238 289.756 300.37 L 294.646 302.71 Q 296.226 303.47 294.626 304.53 Q 291.166 306.83 294.836 308.7 Z " fill="rgb(253,159,114)"/><path d=" M 265.336 365.45 L 266.296 364.16 Q 270.466 368.33 275.836 366.41 Q 284.786 363.21 293.026 356.15 Q 292.196 354.44 289.396 349.85 Q 282.986 339.33 294.756 335.18 C 295.723 334.839 296.352 333.91 296.306 332.89 Q 296.176 329.9 299.296 327.62 Q 301.346 326.11 302.776 328.22 Q 304.046 330.08 303.656 333.16 C 303.431 333.471 303.505 333.831 303.846 334.09 Q 304.356 334.73 304.946 334.22 C 305.312 334.002 305.421 333.651 305.216 333.35 Q 305.006 330.39 308.096 330.41 C 308.424 330.412 308.74 330.284 308.972 330.053 C 309.205 329.822 309.336 329.508 309.336 329.18 L 309.336 323.7 L 313.736 323.46 C 314.283 323.43 314.717 323.056 314.746 322.59 Q 315.096 316.93 315.826 312.63 Q 315.906 312.16 316.126 311.9 Q 316.756 311.14 317.086 312.41 Q 317.766 315.03 318.896 312.72 Q 320.866 308.69 320.896 304.22 C 320.767 303.923 320.949 303.605 321.326 303.47 Q 321.816 303.31 322.036 303.89 Q 322.296 304.59 322.406 304.74 Q 324.106 307.17 325.026 303.05 C 325.226 302.169 325.711 301.378 326.406 300.8 Q 327.956 299.52 329.786 297.61 Q 332.486 294.78 331.326 290.91 Q 330.036 286.61 328.276 281.22 C 328.088 280.639 327.599 280.187 326.976 280.02 L 321.876 278.63 C 321.608 278.568 321.334 278.708 321.246 278.95 Q 320.676 280.82 320.646 281.72 Q 320.596 283.2 319.996 282.72 C 319.676 282.504 319.534 282.172 319.626 281.85 L 319.606 278.07 Q 319.586 276.07 318.046 277.3 Q 316.656 278.42 315.026 277.47 Q 312.186 275.83 311.146 277.97 Q 309.976 280.39 308.096 280.41 C 307.603 280.406 307.163 280.108 306.986 279.66 Q 306.006 277.2 304.616 277.96 Q 296.166 282.55 286.826 284.79 Q 286.366 284.91 285.856 284.77 Q 282.336 283.79 280.496 286.13 Q 271.626 286.67 262.596 286.11 Q 271.356 280.14 281.056 276.58 Q 284.026 275.49 289.026 273.1 Q 291.686 271.82 292.516 269.2 Q 292.596 268.94 292.986 268.36 L 294.586 265.94 Q 295.036 265.25 295.186 266.03 Q 295.846 269.67 294.276 271.59 Q 293.846 272.12 294.486 271.88 Q 296.006 271.3 297.046 270.41 Q 297.986 269.6 298.376 267.95 Q 298.796 266.22 299.076 264.46 C 299.107 264.176 299.337 263.946 299.636 263.9 Q 301.566 263.68 300.976 265.28 Q 300.556 266.4 300.576 266.72 Q 300.626 267.84 301.946 267.42 Q 303.236 267.01 303.266 267 Q 315.226 264.24 323.086 264.41 Q 330.616 264.57 338.056 263.47 Q 340.496 263.12 341.876 265.48 C 342.249 266.122 342.853 266.597 343.566 266.81 Q 345.156 267.28 343.776 268.85 Q 342.196 270.64 344.336 270.91 Q 350.116 271.65 352.056 276.83 Q 352.396 277.72 352.196 278.53 Q 351.946 279.54 351.346 280.07 C 350.589 280.744 350.323 281.811 350.676 282.76 Q 353.426 290.12 350.166 296.82 C 349.79 297.579 349.786 298.468 350.156 299.23 Q 353.076 305.32 348.196 309.51 Q 343.066 313.93 344.556 320.67 Q 346.346 328.77 339.646 333.72 Q 338.176 334.81 338.036 336.85 C 338.048 337.166 337.915 337.472 337.666 337.7 Q 333.856 341.47 329.986 345.19 Q 329.936 345.24 327.216 348.16 Q 324.616 350.95 321.106 352.44 Q 318.826 353.4 317.546 354.66 Q 315.736 356.46 313.996 358.31 Q 311.156 361.32 307.496 362.08 Q 305.146 362.56 303.526 364.31 Q 297.816 370.48 290.256 373.45 Q 288.806 374.02 287.586 375.02 Q 286.156 376.2 285.506 374.01 C 285.497 373.972 285.472 373.939 285.438 373.92 C 285.404 373.901 285.363 373.898 285.326 373.91 Q 280.536 375.64 275.966 374.07 Q 273.196 373.12 271.536 373.02 Q 268.806 372.85 266.086 372.66 Q 262.956 372.44 263.396 368.97 Q 263.576 367.6 265.336 365.45 Z " fill="rgb(91,97,160)"/><path d=" M 247.836 291.7 Q 247.386 293.45 245.086 293.91 Q 242.966 294.33 240.196 296.75 Q 233.856 302.29 227.106 308.22 C 226.971 308.335 226.907 308.513 226.937 308.688 C 226.968 308.863 227.09 309.008 227.256 309.07 Q 228.136 309.42 228.236 310.86 Q 228.346 312.38 228.836 313.87 Q 226.116 314.76 224.026 316.53 Q 222.196 318.09 221.016 320.94 Q 219.546 324.5 218.396 329.23 C 218.207 330.027 217.601 330.664 216.806 330.9 Q 215.726 331.21 215.416 329.91 C 215.675 329.628 215.482 329.288 214.956 329.1 Q 214.376 328.74 213.986 329.39 C 213.878 329.644 213.641 329.867 213.316 330.02 Q 212.446 330.4 211.766 331.04 Q 211.226 331.55 210.866 332.59 Q 210.016 335.03 208.726 337.27 Q 204.936 343.82 210.356 348.58 Q 211.936 349.96 213.636 348.73 Q 215.996 347.03 217.396 344.47 Q 218.256 342.9 224.086 336.12 L 229.526 337.4 C 229.797 337.465 229.994 337.69 230.016 337.96 Q 230.086 338.55 230.546 338.95 Q 235.836 343.59 231.986 349.5 Q 224.666 355.29 219.126 361.42 Q 217.876 362.8 217.856 364.68 Q 217.786 371.23 215.386 375.66 Q 213.556 379.05 209.876 378.22 C 209.579 378.148 209.371 377.887 209.376 377.59 Q 209.336 375.06 210.576 372.84 C 210.707 372.599 211.011 372.463 211.316 372.51 Q 211.846 372.7 212.136 373.19 Q 212.366 373.58 212.266 374.16 Q 212.066 375.36 211.546 376.47 C 211.016 376.471 210.575 376.672 210.561 376.918 C 210.548 377.163 210.966 377.361 211.496 377.36 Q 211.736 377.59 212.286 377.1 Q 213.976 375.59 214.646 373.2 C 214.808 372.627 214.54 372.02 214.006 371.75 Q 210.156 369.78 209.086 374.72 Q 208.426 377.72 205.356 377.62 Q 199.296 377.41 191.346 374.26 C 190.763 374.027 190.109 374.042 189.536 374.3 Q 183.876 376.85 183.056 371.13 Q 182.296 365.85 186.216 361.34 C 186.451 361.071 186.494 360.685 186.326 360.37 Q 183.826 355.82 185.386 351.79 Q 187.246 346.97 188.296 341.9 Q 188.776 339.58 190.456 338.29 Q 190.766 338.06 193.516 337.11 Q 195.196 336.53 196.296 335.16 Q 196.586 334.8 197.976 331.47 Q 198.756 329.58 200.116 327.96 Q 201.126 326.76 199.706 326.48 Q 198.286 326.2 199.476 325.38 Q 201.876 323.73 203.836 321.66 Q 205.026 320.41 204.826 318.59 C 204.745 318.119 204.983 317.649 205.436 317.39 L 217.936 309.26 Q 218.496 308.9 219.186 308.11 Q 221.526 305.46 223.186 305.91 C 223.474 305.959 223.773 305.887 223.976 305.72 Q 228.726 300.27 237.026 296.35 Q 245.076 292.54 247.836 291.7 Z " fill="rgb(91,97,160)"/><path d=" M 304.156 307.11 Q 303.196 307.67 302.336 309.16 Q 301.756 310.17 300.376 311.41 Q 300.566 308.43 298.126 306.61 C 297.573 306.203 297.283 305.535 297.366 304.86 Q 297.586 302.98 296.786 300.97 Q 295.746 298.34 294.806 295.85 Q 296.536 295.44 299.586 295.41 Q 302.206 295.39 303.476 296.95 Q 304.356 298.03 304.366 300.58 Q 304.386 303.85 304.156 307.11 Z " fill="rgb(153,75,100)"/><path d=" M 262.596 286.11 Q 271.626 286.67 280.496 286.13 Q 283.326 287.04 286.006 287.87 Q 289.436 288.93 291.096 290.43 Q 293.546 292.63 294.806 295.85 Q 295.746 298.34 296.786 300.97 Q 297.586 302.98 297.366 304.86 C 297.283 305.535 297.573 306.203 298.126 306.61 Q 300.566 308.43 300.376 311.41 L 300.696 314.19 C 301.198 314.278 301.515 314.471 301.488 314.673 C 301.461 314.875 301.097 315.041 300.576 315.09 Q 299.756 316.21 298.126 315.41 Q 299.246 310.75 294.836 308.7 Q 291.166 306.83 294.626 304.53 Q 296.226 303.47 294.646 302.71 L 289.756 300.37 C 289.416 300.238 289.192 300.003 289.156 299.74 Q 288.586 297.73 287.156 296.32 Q 285.916 295.1 284.776 293.76 Q 283.546 292.31 281.776 291.72 Q 275.876 289.75 269.736 290.19 Q 264.716 290.55 258.186 293.13 Q 247.466 297.36 238.176 304.88 Q 236.426 306.29 237.446 308.86 L 238.836 312.37 Q 236.466 312.86 236.836 315.66 Q 237.356 319.56 237.626 320.41 Q 236.736 324.4 237.376 328.41 L 237.296 328.66 Q 234.686 326.87 234.276 323.47 Q 233.856 320.03 230.626 318.66 L 228.836 313.87 Q 228.346 312.38 228.236 310.86 Q 228.136 309.42 227.256 309.07 C 227.09 309.008 226.968 308.863 226.937 308.688 C 226.907 308.513 226.971 308.335 227.106 308.22 Q 233.856 302.29 240.196 296.75 Q 242.966 294.33 245.086 293.91 Q 247.386 293.45 247.836 291.7 L 262.596 286.11 Z " fill="rgb(169,85,102)"/><path d=" M 304.156 307.11 Q 305.666 308.58 306.776 310.19 Q 307.846 311.73 307.956 313.93 Q 308.196 318.54 308.056 323.16 Q 308.016 324.26 309.336 323.7 L 309.336 329.18 C 309.336 329.508 309.205 329.822 308.972 330.053 C 308.74 330.284 308.424 330.412 308.096 330.41 Q 305.006 330.39 305.216 333.35 C 305.421 333.651 305.312 334.002 304.946 334.22 Q 304.356 334.73 303.846 334.09 C 303.505 333.831 303.431 333.471 303.656 333.16 Q 304.046 330.08 302.776 328.22 Q 301.346 326.11 299.296 327.62 Q 296.176 329.9 296.306 332.89 C 296.352 333.91 295.723 334.839 294.756 335.18 Q 282.986 339.33 289.396 349.85 Q 292.196 354.44 293.026 356.15 Q 288.396 357.49 284.336 359.41 Q 282.586 360.24 278.596 359.95 C 278.285 359.925 277.984 360.061 277.796 360.31 Q 275.086 363.85 270.656 362.94 Q 270.586 362.92 268.606 362.15 Q 266.446 361.31 266.296 364.16 L 265.336 365.45 Q 261.566 365.93 257.836 365.25 C 257.513 365.211 257.184 365.249 256.886 365.36 Q 255.876 365.84 254.936 366.45 Q 253.716 367.25 252.996 367.5 Q 248.426 369.08 245.806 365.92 Q 244.166 363.96 243.866 360.95 Q 243.586 358.25 244.396 355.46 C 244.514 355.06 244.293 354.639 243.896 354.51 Q 240.526 353.41 238.006 351.75 Q 235.386 350.02 231.986 349.5 Q 235.836 343.59 230.546 338.95 Q 230.086 338.55 230.016 337.96 C 229.994 337.69 229.797 337.465 229.526 337.4 L 224.086 336.12 Q 225.556 334.38 227.066 332.68 Q 228.556 331.01 228.636 329.6 Q 228.726 327.84 227.776 325.97 Q 225.826 322.16 229.586 320.66 Q 230.996 320.1 230.626 318.66 Q 233.856 320.03 234.276 323.47 Q 234.686 326.87 237.296 328.66 Q 237.916 331.82 239.746 333.66 Q 245.786 340.23 254.276 338.6 Q 257.846 337.91 272.836 336.17 Q 278.616 335.51 284.146 331.72 Q 293.696 325.2 298.126 315.41 Q 299.756 316.21 300.576 315.09 C 301.097 315.041 301.461 314.875 301.488 314.673 C 301.515 314.471 301.198 314.278 300.696 314.19 L 300.376 311.41 Q 301.756 310.17 302.336 309.16 Q 303.196 307.67 304.156 307.11 Z " fill="rgb(132,53,117)"/><path d=" M 237.626 320.41 Q 237.356 319.56 236.836 315.66 Q 236.466 312.86 238.836 312.37 Q 239.106 312.99 239.586 313.35 C 239.86 313.483 240.195 313.53 240.516 313.48 Q 245.736 312.22 252.146 308.72 Q 255.406 306.94 255.936 309.59 Q 256.216 311.04 255.156 312.33 Q 253.316 314.58 250.086 315.91 Q 245.246 317.9 242.086 317.66 Q 238.296 317.37 237.626 320.41 Z " fill="rgb(194,91,91)"/><path d=" M 294.836 308.7 Q 299.246 310.75 298.126 315.41 Q 293.696 325.2 284.146 331.72 Q 278.616 335.51 272.836 336.17 Q 257.846 337.91 254.276 338.6 Q 245.786 340.23 239.746 333.66 Q 246.246 332.95 252.766 332.9 Q 256.226 332.87 259.276 331.96 Q 265.436 330.12 271.606 328.3 C 271.92 328.217 272.252 328.217 272.566 328.3 Q 278.836 330.04 284.406 327.55 Q 287.936 325.97 290.276 324.33 Q 293.206 322.29 294.626 318.96 Q 295.766 316.25 292.856 316.66 L 277.916 318.73 Q 278.366 317.79 280.276 317.1 Q 286.036 314.99 290.846 314.23 C 291.172 314.17 291.471 314.028 291.706 313.82 Q 293.936 311.67 294.836 308.7 Z " fill="rgb(252,141,107)"/><path d=" M 239.746 333.66 Q 237.916 331.82 237.296 328.66 L 237.376 328.41 L 237.596 328.55 C 237.744 328.604 237.915 328.596 238.056 328.53 Q 241.756 326.44 245.896 326.65 Q 250.226 326.86 250.296 326.86 Q 265.036 326.26 277.916 318.73 L 292.856 316.66 Q 295.766 316.25 294.626 318.96 Q 293.206 322.29 290.276 324.33 Q 287.936 325.97 284.406 327.55 Q 278.836 330.04 272.566 328.3 C 272.252 328.217 271.92 328.217 271.606 328.3 Q 265.436 330.12 259.276 331.96 Q 256.226 332.87 252.766 332.9 Q 246.246 332.95 239.746 333.66 Z " fill="rgb(185,85,92)"/><path d=" M 310.336 272.62 Q 311.376 271.98 310.996 270.02 Q 322.666 269.34 334.336 269.28 Q 337.606 269.26 338.636 272.31 Q 339.186 273.93 340.886 274.1 Q 343.306 274.33 344.626 275.95 Q 345.496 277.01 345.986 279.59 Q 347.406 287.15 346.936 294.38 C 346.881 295.273 346.475 296.109 345.806 296.71 Q 341.916 300.22 341.556 304.99 Q 341.266 308.74 340.926 309.74 Q 339.896 312.77 338.226 314.74 Q 336.766 316.47 337.316 318.66 Q 338.986 325.29 333.376 327.66 Q 331.266 328.55 331.576 330.82 Q 332.396 336.88 326.656 340.43 Q 325.306 341.27 324.956 342.81 Q 323.966 347.1 318.836 348.41 Q 316.756 348.94 315.466 349.6 Q 314.466 350.11 313.156 352.12 Q 310.426 356.32 305.376 357.79 Q 299.856 359.39 297.026 364.35 Q 295.236 367.48 292.586 365.91 Q 290.666 364.77 292.296 363.91 Q 293.546 363.25 293.666 363.16 Q 301.766 357.46 295.436 350.51 Q 293.426 348.3 293.156 347.5 Q 292.546 345.65 294.216 344.36 Q 294.796 343.92 297.006 343.24 Q 301.206 341.96 303.136 337.87 C 303.183 337.775 303.274 337.706 303.382 337.684 C 303.491 337.663 303.603 337.691 303.686 337.76 L 305.646 339.85 Q 307.666 342 308.776 338.85 Q 309.456 336.89 310.686 335.31 Q 312.306 333.23 312.876 332.04 Q 314.286 329.13 315.806 326.38 C 316.251 325.577 317.054 325.035 317.966 324.92 Q 320.426 324.62 321.576 322.92 Q 322.076 322.19 322.626 319.26 Q 323.916 312.43 328.646 307.22 Q 329.756 306 331.066 302.76 Q 332.896 298.25 336.396 295.72 Q 339.456 293.51 338.416 289.89 Q 337.136 285.42 335.416 282.29 Q 334.676 280.95 336.206 281.07 Q 339.846 281.36 340.636 279.2 C 340.763 278.921 340.646 278.596 340.366 278.45 Q 339.116 277.82 337.006 278.79 Q 335.236 279.61 333.676 278.42 Q 328.566 274.51 323.036 272.1 C 322.742 272.006 322.418 272.01 322.126 272.11 Q 318.456 273.58 315.856 270.85 C 315.674 270.652 315.365 270.638 315.166 270.82 Q 313.166 272.66 310.336 272.62 Z " fill="rgb(133,219,240)"/><path d=" M 310.996 270.02 Q 311.376 271.98 310.336 272.62 Q 293.016 278.24 290.026 279.85 Q 288.256 280.8 286.806 280.35 C 286.502 280.281 286.174 280.264 285.856 280.3 Q 280.516 281.92 275.586 284.53 Q 275.316 284.67 275.076 284.74 Q 273.236 285.3 275.216 283.82 Q 281.356 279.23 288.606 276.71 Q 299.646 272.88 310.996 270.02 Z " fill="rgb(137,217,235)"/><path d=" M 205.546 328.95 Q 212.666 316.47 226.306 311.15 C 226.588 311.063 226.905 311.145 227.076 311.35 Q 227.586 312.21 226.336 312.91 Q 224.056 314.18 223.266 314.27 Q 217.176 314.94 215.986 320.73 C 216.006 321.034 215.802 321.319 215.456 321.47 Q 214.726 321.79 213.876 321.61 C 213.575 321.564 213.267 321.642 213.046 321.82 Q 208.826 326.12 207.076 331.91 Q 204.566 340.23 201.046 348.18 Q 200.266 349.95 201.306 350.65 Q 202.636 351.56 203.146 353.08 Q 203.896 355.33 205.736 356.3 Q 207.216 357.08 209.486 356.48 Q 213.346 355.45 217.106 353.2 C 217.804 352.784 218.18 351.99 218.056 351.19 Q 217.706 348.93 218.856 347.17 Q 219.476 346.22 221.886 344.81 Q 224.946 343.02 227.276 340.29 C 227.466 340.071 227.774 339.974 228.066 340.04 Q 230.726 340.87 231.416 343.62 C 231.508 343.909 231.392 344.221 231.126 344.4 Q 221.096 352.01 217.146 357.22 Q 215.926 358.83 212.276 367.35 Q 211.826 368.38 209.786 369.63 Q 209.686 369.7 207.516 371.4 Q 205.756 372.78 203.286 371.94 Q 197.596 369.99 192.856 366.74 C 192.168 366.272 191.668 365.578 191.446 364.78 Q 189.336 357.48 192.426 351.17 C 192.566 350.89 192.554 350.561 192.396 350.29 Q 190.236 346.44 192.686 343.51 Q 193.186 342.91 197.356 340.39 Q 201.556 337.84 203.556 333.39 Q 205.536 328.98 205.546 328.95 Z " fill="rgb(137,217,235)"/><path d=" M 269.146 302.68 C 269.435 302.777 269.659 303.009 269.746 303.301 C 269.834 303.593 269.774 303.91 269.586 304.15 Q 266.856 307.58 261.526 308.73 C 260.758 308.892 259.995 308.434 259.776 307.68 Q 258.946 304.73 262.066 303.12 Q 265.346 301.43 269.146 302.68 Z " fill="rgb(185,85,92)"/></g></svg>