<?xml version="1.0" encoding="UTF-8" standalone="no"?><!-- Generator: Gravit.io --><svg xmlns="http://www.w3.org/2000/svg" xmlns:xlink="http://www.w3.org/1999/xlink" style="isolation:isolate" viewBox="684.004 370.573 179.474 174.314" width="179.474pt" height="174.314pt"><defs><clipPath id="_clipPath_w64sPuCmAoMxNE6TZ5vt1qn7wIOkauaV"><rect x="684.004" y="370.573" width="179.474" height="174.314"/></clipPath></defs><g clip-path="url(#_clipPath_w64sPuCmAoMxNE6TZ5vt1qn7wIOkauaV)"><rect x="684.004" y="370.573" width="179.474" height="174.314" style="fill:rgb(6,6,6)" fill-opacity="0"/><g><path d=" M 845.634 450.601 Q 846.044 453.471 846.284 456.361 Q 846.584 460.121 844.634 463.351 L 844.554 462.601 Q 845.634 456.651 845.634 450.601 Z " fill="rgb(195,63,58)"/><path d=" M 819.844 468.641 Q 816.394 467.561 818.094 464.141 Q 823.374 461.351 822.844 467.101 Q 822.644 469.231 819.844 468.641 Z " fill="rgb(254,142,116)"/><path d=" M 827.884 375.101 L 826.344 376.171 C 826.043 376.334 825.886 376.628 825.944 376.921 Q 826.174 380.161 826.594 381.351 Q 827.924 385.071 826.974 388.881 C 826.984 389.176 826.806 389.465 826.474 389.691 Q 825.304 390.871 825.134 392.601 Q 825.664 385.581 822.484 379.611 Q 821.154 377.111 819.604 376.741 Q 817.404 376.201 815.254 379.371 C 815.065 379.657 815.038 380.02 815.184 380.331 Q 816.604 383.311 816.634 386.101 Q 807.524 422.251 789.134 454.561 Q 788.404 455.861 784.964 462.431 Q 782.894 466.381 780.344 470.031 Q 775.564 476.871 772.124 480.461 Q 767.044 485.751 760.114 488.791 Q 760.024 488.831 758.934 489.221 Q 756.554 490.081 759.344 491.641 L 762.094 495.061 L 759.994 496.291 C 759.735 496.428 759.425 496.468 759.134 496.401 Q 758.204 496.111 757.554 496.851 Q 753.274 492.121 752.094 485.811 Q 751.564 481.451 752.054 477.101 Q 751.974 478.241 753.404 478.061 C 754.153 477.972 754.896 478.275 755.364 478.861 Q 756.354 480.101 757.284 480.111 C 757.772 480.026 758.077 479.813 758.024 479.591 Q 758.484 479.011 759.344 479.351 Q 760.824 479.941 761.804 479.101 L 761.834 479.321 C 761.863 479.442 761.99 479.528 762.134 479.521 Q 766.194 479.181 769.074 476.321 Q 773.134 472.311 776.304 467.551 Q 782.394 458.401 787.384 448.601 Q 787.894 448.401 787.844 447.891 Q 798.654 428.721 806.384 408.101 Q 807.574 407.421 807.664 406.151 C 807.474 406.016 807.403 405.849 807.467 405.691 C 807.532 405.534 807.727 405.399 808.004 405.321 L 808.824 404.751 C 809.464 404.605 809.734 404.326 809.474 404.081 Q 811.354 399.481 812.094 396.351 Q 812.374 395.141 811.464 394.191 C 811.067 393.986 810.919 393.655 811.094 393.361 L 811.304 391.351 L 812.244 388.601 C 812.555 388.308 812.485 387.927 812.074 387.671 Q 811.344 386.371 811.094 384.351 Q 810.814 382.101 809.294 383.121 C 808.847 383.316 808.639 383.605 808.744 383.881 L 806.894 388.281 C 806.688 388.712 806.178 388.936 805.694 388.811 Q 802.934 388.001 800.534 386.161 Q 799.824 385.621 800.054 384.351 Q 805.164 374.631 815.284 371.291 Q 822.904 368.771 827.884 375.101 Z " fill="rgb(253,124,52)"/><path d=" M 784.844 386.641 L 784.284 388.631 C 783.874 388.907 783.878 389.288 784.294 389.551 L 787.034 394.661 Q 788.804 397.981 786.344 398.601 Q 783.694 399.271 783.344 401.811 Q 777.094 401.961 773.284 397.911 Q 766.564 390.781 760.344 386.561 Q 772.614 384.121 784.844 386.641 Z " fill="rgb(253,154,78)"/><path d=" M 752.094 388.561 L 768.384 402.101 Q 767.604 404.241 765.884 405.331 Q 764.794 406.011 762.144 406.231 Q 759.384 406.451 758.094 406.851 Q 751.994 408.721 747.534 405.291 Q 744.524 402.971 743.634 402.601 Q 740.584 401.351 737.304 401.361 Q 734.644 401.381 731.174 402.781 Q 723.124 406.041 716.214 411.431 Q 715.384 412.081 715.874 411.351 Q 716.444 410.501 716.094 409.561 Q 721.044 403.441 727.544 399.051 Q 738.804 391.431 752.094 388.561 Z " fill="rgb(253,154,78)"/><path d=" M 760.344 386.561 Q 766.564 390.781 773.284 397.911 Q 777.094 401.961 783.344 401.811 Q 788.244 402.501 794.094 401.601 Q 796.644 401.211 799.804 401.811 C 800.112 401.871 800.336 402.119 800.344 402.411 Q 800.414 404.031 798.404 404.911 Q 787.684 409.621 776.844 407.351 Q 772.984 406.541 768.384 402.101 L 752.094 388.561 Q 755.964 386.621 760.344 386.561 Z " fill="rgb(175,103,69)"/><path d=" M 806.384 408.101 Q 798.654 428.721 787.844 447.891 Q 787.854 444.881 789.614 442.581 Q 790.584 441.311 791.064 440.251 Q 791.654 438.991 792.414 437.831 Q 794.134 435.231 794.464 434.261 Q 795.424 431.461 795.904 426.951 C 795.955 426.576 795.827 426.199 795.551 425.909 C 795.274 425.619 794.874 425.443 794.444 425.421 L 790.594 425.141 Q 795.174 425.081 797.404 420.811 C 797.533 420.573 797.54 420.291 797.422 420.047 C 797.304 419.804 797.076 419.628 796.804 419.571 L 791.404 418.291 Q 788.494 417.601 791.284 415.791 Q 793.284 414.491 795.504 413.621 Q 801.664 411.231 805.534 407.791 Q 806.344 407.061 806.384 408.101 Z " fill="rgb(175,103,69)"/><path d=" M 826.304 408.101 Q 826.444 408.551 826.914 408.711 C 827.246 408.809 827.489 409.014 827.564 409.261 Q 828.114 410.741 829.594 412.851 Q 833.524 418.441 835.884 426.351 Q 834.414 431.481 831.094 435.471 Q 829.034 437.951 825.814 439.071 Q 821.604 440.531 817.104 440.851 Q 815.744 440.951 814.674 442.621 L 812.134 446.601 Q 814.434 441.241 816.734 435.891 Q 819.124 430.321 820.884 425.011 Q 823.684 416.581 826.304 408.101 Z " fill="rgb(172,109,63)"/><path d=" M 790.594 425.141 L 794.444 425.421 C 794.874 425.443 795.274 425.619 795.551 425.909 C 795.827 426.199 795.955 426.576 795.904 426.951 Q 795.424 431.461 794.464 434.261 Q 794.134 435.231 792.414 437.831 Q 791.654 438.991 791.064 440.251 Q 790.584 441.311 789.614 442.581 Q 787.854 444.881 787.844 447.891 Q 787.894 448.401 787.384 448.601 Q 786.424 448.001 784.844 448.101 Q 777.864 448.541 770.904 449.181 Q 769.614 449.301 768.634 450.101 Q 764.834 449.491 761.844 451.891 Q 754.804 453.341 748.384 456.601 Q 748.254 455.461 747.634 454.511 C 747.465 454.26 747.162 454.124 746.854 454.161 Q 743.774 454.571 741.034 456.791 Q 735.484 461.261 727.154 466.661 Q 724.734 468.231 723.594 471.561 Q 712.144 474.001 700.634 471.851 Q 698.734 467.011 697.884 461.851 Q 697.774 460.681 698.134 459.611 Q 698.694 457.961 698.744 457.501 Q 699.014 454.871 698.594 451.601 Q 698.154 448.121 699.304 444.101 Q 699.084 445.101 699.754 445.461 Q 702.804 447.121 706.114 447.291 Q 708.684 447.411 712.384 445.971 Q 726.404 440.481 736.904 431.411 Q 739.744 428.961 738.094 426.251 Q 737.094 424.591 735.344 424.661 Q 733.684 424.731 732.034 426.041 Q 729.244 428.241 713.194 437.391 Q 713.144 437.421 709.704 439.611 Q 705.154 442.501 699.634 442.851 Q 700.504 437.471 702.844 432.561 Q 708.304 432.911 711.784 431.041 Q 714.574 429.541 717.624 426.571 Q 719.184 425.061 722.374 420.991 Q 725.594 416.901 727.654 415.161 Q 731.974 411.521 737.904 409.411 Q 742.394 407.821 746.524 409.301 Q 749.174 410.241 749.224 410.261 Q 755.624 412.011 762.354 411.461 Q 767.794 411.011 764.374 414.371 Q 761.384 417.311 757.084 417.001 Q 755.674 416.901 754.254 416.871 Q 752.804 416.831 751.444 416.611 Q 744.044 415.381 739.094 415.851 Q 734.004 416.331 730.454 419.411 Q 728.234 421.331 731.074 420.601 Q 736.914 419.121 742.464 420.541 Q 744.384 421.031 748.724 423.581 Q 753.844 426.601 759.694 427.811 Q 763.794 428.651 766.474 429.031 Q 769.274 429.421 773.344 429.601 Q 779.514 429.871 782.154 424.411 Q 783.174 422.321 784.154 421.661 L 786.834 419.881 C 786.947 419.835 787.078 419.839 787.187 419.892 C 787.297 419.945 787.373 420.04 787.394 420.151 Q 787.784 421.811 788.294 423.431 Q 788.564 424.281 789.134 424.631 Q 789.784 425.041 790.594 425.141 Z " fill="rgb(170,100,66)"/><path d=" M 835.884 426.351 Q 840.964 439.331 840.844 452.601 Q 840.734 464.741 834.094 475.391 Q 832.214 474.931 830.344 475.561 Q 828.194 472.091 824.524 470.781 Q 823.494 470.411 822.264 469.621 Q 821.154 468.911 819.844 468.641 Q 822.644 469.231 822.844 467.101 Q 823.374 461.351 818.094 464.141 Q 811.994 464.881 806.014 463.641 Q 805.684 463.571 805.084 463.741 Q 804.284 463.971 804.554 462.601 L 812.134 446.601 L 814.674 442.621 Q 815.744 440.951 817.104 440.851 Q 821.604 440.531 825.814 439.071 Q 829.034 437.951 831.094 435.471 Q 834.414 431.481 835.884 426.351 Z " fill="rgb(109,63,82)"/><path d=" M 784.844 386.641 Q 794.394 388.001 803.324 391.641 Q 805.764 392.641 808.354 393.031 C 808.689 393.045 809.021 392.988 809.284 392.871 L 811.304 391.351 L 811.094 393.361 C 810.919 393.655 811.067 393.986 811.464 394.191 Q 812.374 395.141 812.094 396.351 Q 811.354 399.481 809.474 404.081 C 809.734 404.326 809.464 404.605 808.824 404.751 L 808.004 405.321 C 807.727 405.399 807.532 405.534 807.467 405.691 C 807.403 405.849 807.474 406.016 807.664 406.151 Q 807.574 407.421 806.384 408.101 Q 806.344 407.061 805.534 407.791 Q 801.664 411.231 795.504 413.621 Q 793.284 414.491 791.284 415.791 Q 788.494 417.601 791.404 418.291 L 796.804 419.571 C 797.076 419.628 797.304 419.804 797.422 420.047 C 797.54 420.291 797.533 420.573 797.404 420.811 Q 795.174 425.081 790.594 425.141 Q 789.784 425.041 789.134 424.631 Q 788.564 424.281 788.294 423.431 Q 787.784 421.811 787.394 420.151 C 787.373 420.04 787.297 419.945 787.187 419.892 C 787.078 419.839 786.947 419.835 786.834 419.881 L 784.154 421.661 Q 783.174 422.321 782.154 424.411 Q 779.514 429.871 773.344 429.601 Q 769.274 429.421 766.474 429.031 Q 763.794 428.651 759.694 427.811 Q 753.844 426.601 748.724 423.581 Q 744.384 421.031 742.464 420.541 Q 736.914 419.121 731.074 420.601 Q 728.234 421.331 730.454 419.411 Q 734.004 416.331 739.094 415.851 Q 744.044 415.381 751.444 416.611 Q 752.804 416.831 754.254 416.871 Q 755.674 416.901 757.084 417.001 Q 761.384 417.311 764.374 414.371 Q 767.794 411.011 762.354 411.461 Q 755.624 412.011 749.224 410.261 Q 749.174 410.241 746.524 409.301 Q 742.394 407.821 737.904 409.411 Q 731.974 411.521 727.654 415.161 Q 725.594 416.901 722.374 420.991 Q 719.184 425.061 717.624 426.571 Q 714.574 429.541 711.784 431.041 Q 708.304 432.911 702.844 432.561 Q 707.304 419.821 716.094 409.561 Q 716.444 410.501 715.874 411.351 Q 715.384 412.081 716.214 411.431 Q 723.124 406.041 731.174 402.781 Q 734.644 401.381 737.304 401.361 Q 740.584 401.351 743.634 402.601 Q 744.524 402.971 747.534 405.291 Q 751.994 408.721 758.094 406.851 Q 759.384 406.451 762.144 406.231 Q 764.794 406.011 765.884 405.331 Q 767.604 404.241 768.384 402.101 Q 772.984 406.541 776.844 407.351 Q 787.684 409.621 798.404 404.911 Q 800.414 404.031 800.344 402.411 C 800.336 402.119 800.112 401.871 799.804 401.811 Q 796.644 401.211 794.094 401.601 Q 788.244 402.501 783.344 401.811 Q 783.694 399.271 786.344 398.601 Q 788.804 397.981 787.034 394.661 L 784.294 389.551 C 783.878 389.288 783.874 388.907 784.284 388.631 L 784.844 386.641 Z " fill="rgb(232,128,64)"/><path d=" M 699.304 444.101 L 699.634 442.851 Q 705.154 442.501 709.704 439.611 Q 713.144 437.421 713.194 437.391 Q 729.244 428.241 732.034 426.041 Q 733.684 424.731 735.344 424.661 Q 737.094 424.591 738.094 426.251 Q 739.744 428.961 736.904 431.411 Q 726.404 440.481 712.384 445.971 Q 708.684 447.411 706.114 447.291 Q 702.804 447.121 699.754 445.461 Q 699.084 445.101 699.304 444.101 Z " fill="rgb(232,128,64)"/><path d=" M 787.384 448.601 Q 782.394 458.401 776.304 467.551 Q 773.134 472.311 769.074 476.321 Q 766.194 479.181 762.134 479.521 C 761.99 479.528 761.863 479.442 761.834 479.321 L 761.804 479.101 L 768.634 450.101 Q 769.614 449.301 770.904 449.181 Q 777.864 448.541 784.844 448.101 Q 786.424 448.001 787.384 448.601 Z " fill="rgb(106,61,77)"/><path d=" M 768.634 450.101 L 761.804 479.101 Q 760.824 479.941 759.344 479.351 Q 758.484 479.011 758.024 479.591 C 758.077 479.813 757.772 480.026 757.284 480.111 Q 756.354 480.101 755.364 478.861 C 754.896 478.275 754.153 477.972 753.404 478.061 Q 751.974 478.241 752.054 477.101 Q 752.494 470.711 755.344 464.351 Q 758.524 457.231 761.844 451.891 Q 764.834 449.491 768.634 450.101 Z " fill="rgb(251,141,75)"/><path d=" M 761.844 451.891 Q 758.524 457.231 755.344 464.351 Q 752.494 470.711 752.054 477.101 Q 751.564 481.451 752.094 485.811 Q 751.944 485.981 751.764 486.031 C 751.648 486.034 751.535 485.999 751.451 485.935 C 751.368 485.871 751.322 485.782 751.324 485.691 Q 751.064 484.461 751.274 483.261 Q 751.674 480.971 751.684 480.911 Q 751.914 475.881 748.964 478.991 Q 747.844 480.161 747.194 480.671 Q 741.494 485.111 735.334 488.901 C 735.079 489.059 734.945 489.355 734.994 489.651 Q 735.734 494.161 734.544 498.561 Q 734.454 498.881 734.464 498.531 L 734.554 496.101 Q 734.734 486.491 726.094 483.601 Q 716.584 480.411 712.304 489.601 Q 711.564 489.771 711.284 489.411 Q 704.914 481.261 700.634 471.851 Q 712.144 474.001 723.594 471.561 Q 727.764 470.951 731.584 469.361 Q 734.624 468.091 738.454 464.911 Q 743.444 460.781 748.384 456.601 Q 754.804 453.341 761.844 451.891 Z " fill="rgb(99,58,77)"/><path d=" M 851.844 447.561 Q 851.454 447.731 851.634 448.051 Q 855.204 454.211 853.284 461.041 Q 852.744 462.941 850.034 463.541 Q 848.844 463.801 848.934 463.081 C 849.036 462.97 849.059 462.832 848.996 462.709 C 848.932 462.586 848.79 462.494 848.614 462.461 Q 847.434 462.261 847.554 464.101 Q 846.004 464.041 844.634 463.351 Q 846.584 460.121 846.284 456.361 Q 846.044 453.471 845.634 450.601 L 845.054 443.351 Q 844.964 442.801 845.154 442.341 C 845.218 442.248 845.324 442.185 845.445 442.168 C 845.566 442.151 845.69 442.181 845.784 442.251 Q 846.694 443.061 847.664 443.821 Q 848.264 444.291 849.514 445.871 Q 850.414 447.011 851.844 447.561 Z " fill="rgb(253,118,39)"/><path d=" M 795.844 454.141 L 794.774 458.121 C 794.645 458.416 794.685 458.746 794.884 459.011 Q 796.114 460.941 794.884 463.101 Q 794.704 462.771 794.384 462.831 Q 794.184 462.871 794.014 463.121 Q 789.694 469.731 785.284 476.291 Q 782.934 479.781 780.844 481.641 Q 779.854 481.891 779.044 482.541 Q 776.854 484.311 777.924 482.111 Q 778.104 481.751 778.574 481.391 Q 779.674 480.561 779.554 479.101 Q 781.804 476.161 783.804 473.051 Q 789.844 463.611 795.844 454.141 Z " fill="rgb(253,118,39)"/><path d=" M 817.384 399.351 Q 814.474 407.771 813.534 411.291 Q 811.044 420.561 807.804 429.601 L 798.594 450.061 L 795.844 454.141 Q 789.844 463.611 783.804 473.051 Q 781.804 476.161 779.554 479.101 Q 775.634 484.501 770.774 489.071 C 770.387 489.288 770.245 489.609 770.404 489.911 Q 770.314 490.541 769.754 490.801 Q 769.184 491.061 769.094 491.121 Q 765.454 493.451 761.394 491.821 Q 760.404 491.431 759.344 491.641 Q 756.554 490.081 758.934 489.221 Q 760.024 488.831 760.114 488.791 Q 767.044 485.751 772.124 480.461 Q 775.564 476.871 780.344 470.031 Q 782.894 466.381 784.964 462.431 Q 788.404 455.861 789.134 454.561 Q 807.524 422.251 816.634 386.101 L 817.544 384.361 C 817.706 384.078 817.735 383.745 817.624 383.441 Q 816.754 380.641 819.024 380.631 C 819.333 380.649 819.59 380.864 819.644 381.151 Q 821.264 388.771 818.134 395.911 Q 817.424 397.551 817.384 399.351 Z " fill="rgb(254,200,69)"/><path d=" M 794.884 463.101 L 791.494 474.041 Q 790.984 475.691 789.414 478.901 Q 784.834 488.251 776.134 493.851 Q 775.614 493.181 776.294 492.541 Q 777.734 491.211 777.404 489.401 C 777.352 489.117 777.113 488.886 776.794 488.811 Q 774.044 488.101 776.344 485.851 Q 778.544 483.701 780.844 481.641 Q 782.934 479.781 785.284 476.291 Q 789.694 469.731 794.014 463.121 Q 794.184 462.871 794.384 462.831 Q 794.704 462.771 794.884 463.101 Z " fill="rgb(254,200,69)"/><path d=" M 748.384 456.601 Q 743.444 460.781 738.454 464.911 Q 734.624 468.091 731.584 469.361 Q 727.764 470.951 723.594 471.561 Q 724.734 468.231 727.154 466.661 Q 735.484 461.261 741.034 456.791 Q 743.774 454.571 746.854 454.161 C 747.162 454.124 747.465 454.26 747.634 454.511 Q 748.254 455.461 748.384 456.601 Z " fill="rgb(218,121,69)"/><path d=" M 834.094 475.391 Q 832.904 479.251 830.594 482.581 Q 826.114 489.011 819.654 494.911 Q 818.754 495.741 817.884 495.851 Q 816.714 488.371 820.784 481.791 Q 824.134 476.371 830.344 475.561 Q 832.214 474.931 834.094 475.391 Z " fill="rgb(218,121,69)"/><path d=" M 825.134 392.601 Q 823.424 402.051 820.844 408.851 Q 820.244 410.421 818.964 409.891 C 818.647 409.753 818.446 409.476 818.444 409.171 Q 818.204 407.581 818.584 406.051 Q 819.244 403.431 819.294 403.061 Q 819.674 400.321 820.314 397.141 Q 820.654 395.451 819.574 396.741 L 817.384 399.351 Q 817.424 397.551 818.134 395.911 Q 821.264 388.771 819.644 381.151 C 819.59 380.864 819.333 380.649 819.024 380.631 Q 816.754 380.641 817.624 383.441 C 817.735 383.745 817.706 384.078 817.544 384.361 L 816.634 386.101 Q 816.604 383.311 815.184 380.331 C 815.038 380.02 815.065 379.657 815.254 379.371 Q 817.404 376.201 819.604 376.741 Q 821.154 377.111 822.484 379.611 Q 825.664 385.581 825.134 392.601 Z " fill="rgb(254,166,44)"/><path d=" M 779.554 479.101 Q 779.674 480.561 778.574 481.391 Q 778.104 481.751 777.924 482.111 Q 776.854 484.311 779.044 482.541 Q 779.854 481.891 780.844 481.641 Q 778.544 483.701 776.344 485.851 Q 774.044 488.101 776.794 488.811 C 777.113 488.886 777.352 489.117 777.404 489.401 Q 777.734 491.211 776.294 492.541 Q 775.614 493.181 776.134 493.851 Q 774.964 494.641 773.664 495.161 Q 771.734 495.921 771.074 496.181 Q 766.464 497.961 762.094 495.061 L 759.344 491.641 Q 760.404 491.431 761.394 491.821 Q 765.454 493.451 769.094 491.121 Q 769.184 491.061 769.754 490.801 Q 770.314 490.541 770.404 489.911 C 770.245 489.609 770.387 489.288 770.774 489.071 Q 775.634 484.501 779.554 479.101 Z " fill="rgb(254,166,44)"/><path d=" M 851.844 447.561 Q 857.044 451.301 858.084 457.281 Q 858.654 460.531 857.104 462.641 Q 855.364 465.011 851.904 465.661 Q 849.034 466.211 847.554 464.101 Q 847.434 462.261 848.614 462.461 C 848.79 462.494 848.932 462.586 848.996 462.709 C 849.059 462.832 849.036 462.97 848.934 463.081 Q 848.844 463.801 850.034 463.541 Q 852.744 462.941 853.284 461.041 Q 855.204 454.211 851.634 448.051 Q 851.454 447.731 851.844 447.561 Z " fill="rgb(246,194,54)"/><path d=" M 692.304 463.101 Q 694.174 465.701 694.634 468.851 Q 689.904 474.921 694.454 480.591 Q 695.424 481.791 696.594 482.101 Q 697.984 482.471 699.384 482.021 Q 699.424 482.011 700.224 482.171 Q 700.564 482.241 700.384 480.851 L 703.384 487.351 Q 702.944 488.871 701.684 489.731 Q 700.284 490.691 700.204 490.751 Q 695.894 494.171 691.394 492.661 Q 687.414 491.311 685.344 487.341 Q 682.694 482.261 685.284 475.791 Q 688.394 468.021 692.304 463.101 Z " fill="rgb(252,93,28)"/><path d=" M 727.094 513.311 Q 728.494 513.281 729.624 513.961 Q 731.234 514.921 731.284 514.941 Q 734.984 516.661 738.594 518.561 Q 736.394 521.531 737.594 524.351 Q 739.994 530.011 745.344 526.291 Q 745.574 526.131 745.314 526.091 L 745.094 526.061 Q 746.694 526.181 748.344 523.921 Q 749.404 522.461 751.174 522.821 Q 756.134 523.801 762.304 523.351 Q 762.424 523.671 762.844 523.641 Q 759.534 531.931 752.034 539.541 Q 749.064 542.551 745.714 543.901 Q 742.374 545.241 738.344 544.761 Q 730.854 543.881 726.534 537.161 Q 718.794 525.151 727.094 513.311 Z " fill="rgb(252,93,28)"/><path d=" M 827.884 375.101 Q 833.874 383.381 831.024 393.401 Q 829.754 397.861 828.634 402.361 Q 828.344 403.511 829.094 404.311 L 828.144 404.361 C 827.831 404.389 827.565 404.585 827.464 404.861 L 826.304 408.101 Q 823.684 416.581 820.884 425.011 Q 819.124 430.321 816.734 435.891 Q 814.434 441.241 812.134 446.601 L 804.554 462.601 Q 803.964 463.651 803.794 464.841 Q 803.654 465.851 803.404 465.431 Q 803.264 465.201 803.164 465.441 Q 798.554 476.161 792.244 485.971 Q 785.804 495.971 775.404 500.411 Q 765.194 504.781 757.554 496.851 Q 758.204 496.111 759.134 496.401 C 759.425 496.468 759.735 496.428 759.994 496.291 L 762.094 495.061 Q 766.464 497.961 771.074 496.181 Q 771.734 495.921 773.664 495.161 Q 774.964 494.641 776.134 493.851 Q 784.834 488.251 789.414 478.901 Q 790.984 475.691 791.494 474.041 L 794.884 463.101 Q 796.114 460.941 794.884 459.011 C 794.685 458.746 794.645 458.416 794.774 458.121 L 795.844 454.141 L 798.594 450.061 Q 802.134 445.471 805.654 437.161 Q 807.664 432.431 807.804 429.601 Q 811.044 420.561 813.534 411.291 Q 814.474 407.771 817.384 399.351 L 819.574 396.741 Q 820.654 395.451 820.314 397.141 Q 819.674 400.321 819.294 403.061 Q 819.244 403.431 818.584 406.051 Q 818.204 407.581 818.444 409.171 C 818.446 409.476 818.647 409.753 818.964 409.891 Q 820.244 410.421 820.844 408.851 Q 823.424 402.051 825.134 392.601 Q 825.304 390.871 826.474 389.691 C 826.806 389.465 826.984 389.176 826.974 388.881 Q 827.924 385.071 826.594 381.351 Q 826.174 380.161 825.944 376.921 C 825.886 376.628 826.043 376.334 826.344 376.171 L 827.884 375.101 Z " fill="rgb(252,104,35)"/><path d=" M 844.094 434.311 Q 857.294 442.621 863.094 457.141 Q 865.134 466.831 856.334 471.081 Q 849.404 474.411 843.534 469.661 Q 843.224 469.411 843.054 468.601 L 844.554 462.601 L 844.634 463.351 Q 846.004 464.041 847.554 464.101 Q 849.034 466.211 851.904 465.661 Q 855.364 465.011 857.104 462.641 Q 858.654 460.531 858.084 457.281 Q 857.044 451.301 851.844 447.561 Q 850.414 447.011 849.514 445.871 Q 848.264 444.291 847.664 443.821 Q 846.694 443.061 845.784 442.251 C 845.69 442.181 845.566 442.151 845.445 442.168 C 845.324 442.185 845.218 442.248 845.154 442.341 Q 844.964 442.801 845.054 443.351 Q 844.054 440.051 844.084 436.591 C 844.15 436.297 844.008 435.998 843.704 435.791 Q 842.944 435.061 844.094 434.311 Z " fill="rgb(252,104,35)"/><path d=" M 693.094 462.311 L 694.554 462.351 L 696.094 470.311 Q 695.594 469.321 694.634 468.851 Q 694.174 465.701 692.304 463.101 Q 692.594 462.601 693.094 462.311 Z " fill="rgb(255,64,71)"/><path d=" M 742.094 520.391 L 747.544 521.061 Q 747.904 521.101 748.414 521.481 Q 749.834 522.541 751.844 522.081 Q 753.744 521.641 755.494 522.161 Q 757.904 522.881 758.834 522.951 Q 760.574 523.081 762.304 523.351 Q 756.134 523.801 751.174 522.821 Q 749.404 522.461 748.344 523.921 Q 746.694 526.181 745.094 526.061 L 743.594 525.641 Q 745.844 525.791 747.024 524.091 C 747.121 523.978 747.162 523.833 747.135 523.691 C 747.108 523.549 747.017 523.425 746.884 523.351 L 742.094 520.391 Z " fill="rgb(255,64,71)"/><path d=" M 800.054 384.351 Q 799.824 385.621 800.534 386.161 Q 802.934 388.001 805.694 388.811 C 806.178 388.936 806.688 388.712 806.894 388.281 L 808.744 383.881 C 808.639 383.605 808.847 383.316 809.294 383.121 Q 810.814 382.101 811.094 384.351 Q 811.344 386.371 812.074 387.671 C 812.485 387.927 812.555 388.308 812.244 388.601 L 811.304 391.351 L 809.284 392.871 C 809.021 392.988 808.689 393.045 808.354 393.031 Q 805.764 392.641 803.324 391.641 Q 794.394 388.001 784.844 386.641 Q 772.614 384.121 760.344 386.561 Q 755.964 386.621 752.094 388.561 Q 738.804 391.431 727.544 399.051 Q 721.044 403.441 716.094 409.561 Q 707.304 419.821 702.844 432.561 Q 700.504 437.471 699.634 442.851 L 699.304 444.101 Q 698.154 448.121 698.594 451.601 Q 699.014 454.871 698.744 457.501 Q 698.694 457.961 698.134 459.611 Q 697.774 460.681 697.884 461.851 L 697.814 463.291 Q 697.794 463.721 697.604 463.331 Q 697.034 462.201 695.724 462.801 C 695.609 462.842 695.476 462.838 695.365 462.788 C 695.255 462.739 695.18 462.651 695.164 462.551 L 695.204 461.081 C 695.398 460.964 695.48 460.808 695.427 460.659 C 695.374 460.51 695.192 460.385 694.934 460.321 Q 693.654 459.611 694.554 462.351 L 693.094 462.311 Q 693.984 459.891 693.984 457.331 Q 693.974 453.401 693.974 453.361 Q 696.294 422.951 717.534 401.041 Q 720.874 397.591 726.404 394.411 Q 736.964 388.321 748.594 384.641 Q 773.964 377.091 798.844 384.601 Q 799.664 384.851 800.054 384.351 Z " fill="rgb(211,71,155)"/><path d=" M 829.094 404.311 Q 838.744 416.521 842.834 431.601 Q 843.234 433.081 844.094 434.311 Q 842.944 435.061 843.704 435.791 C 844.008 435.998 844.15 436.297 844.084 436.591 Q 844.054 440.051 845.054 443.351 L 845.634 450.601 Q 845.634 456.651 844.554 462.601 L 843.054 468.601 L 842.854 468.371 Q 842.664 468.151 842.564 468.451 Q 836.844 486.711 823.534 498.541 Q 816.424 504.851 804.744 511.681 Q 785.374 523.011 762.844 523.641 Q 762.424 523.671 762.304 523.351 Q 760.574 523.081 758.834 522.951 Q 757.904 522.881 755.494 522.161 Q 753.744 521.641 751.844 522.081 Q 749.834 522.541 748.414 521.481 Q 747.904 521.101 747.544 521.061 L 742.094 520.391 L 739.844 519.391 Q 739.314 518.811 738.594 518.561 Q 734.984 516.661 731.284 514.941 Q 731.234 514.921 729.624 513.961 Q 728.494 513.281 727.094 513.311 Q 727.004 512.681 726.504 512.421 Q 725.924 512.111 725.864 512.071 Q 712.344 501.811 703.384 487.351 L 700.384 480.851 L 696.094 470.311 L 694.554 462.351 Q 693.654 459.611 694.934 460.321 C 695.192 460.385 695.374 460.51 695.427 460.659 C 695.48 460.808 695.398 460.964 695.204 461.081 L 695.164 462.551 C 695.18 462.651 695.255 462.739 695.365 462.788 C 695.476 462.838 695.609 462.842 695.724 462.801 Q 697.034 462.201 697.604 463.331 Q 697.794 463.721 697.814 463.291 L 697.884 461.851 Q 698.734 467.011 700.634 471.851 Q 704.914 481.261 711.284 489.411 Q 711.564 489.771 712.304 489.601 Q 712.784 493.001 715.554 494.851 Q 718.394 500.341 723.844 503.311 Q 725.324 505.781 727.844 507.141 Q 727.734 507.731 728.164 508.031 Q 737.804 514.801 748.964 517.391 Q 758.174 519.531 768.834 518.571 Q 783.834 517.211 797.494 510.211 Q 807.594 505.031 816.574 498.091 Q 817.684 497.231 817.884 495.851 Q 818.754 495.741 819.654 494.911 Q 826.114 489.011 830.594 482.581 Q 832.904 479.251 834.094 475.391 Q 840.734 464.741 840.844 452.601 Q 840.964 439.331 835.884 426.351 Q 833.524 418.441 829.594 412.851 Q 828.114 410.741 827.564 409.261 C 827.489 409.014 827.246 408.809 826.914 408.711 Q 826.444 408.551 826.304 408.101 L 827.464 404.861 C 827.565 404.585 827.831 404.389 828.144 404.361 L 829.094 404.311 Z " fill="rgb(211,71,155)"/><path d=" M 734.554 496.101 Q 733.424 502.991 727.844 507.141 Q 725.324 505.781 723.844 503.311 Q 725.404 501.181 726.584 498.811 Q 729.154 493.661 724.484 490.521 Q 721.374 488.441 718.674 490.941 Q 716.824 492.661 715.554 494.851 Q 712.784 493.001 712.304 489.601 Q 716.584 480.411 726.094 483.601 Q 734.734 486.491 734.554 496.101 Z " fill="rgb(247,148,84)"/><path d=" M 739.844 519.391 L 742.094 520.391 L 746.884 523.351 C 747.017 523.425 747.108 523.549 747.135 523.691 C 747.162 523.833 747.121 523.978 747.024 524.091 Q 745.844 525.791 743.594 525.641 Q 740.284 524.911 740.344 521.601 Q 740.374 520.151 739.844 519.391 Z " fill="rgb(61,31,54)"/><path d=" M 807.804 429.601 Q 807.664 432.431 805.654 437.161 Q 802.134 445.471 798.594 450.061 L 807.804 429.601 Z " fill="rgb(251,145,56)"/><path d=" M 694.634 468.851 Q 695.594 469.321 696.094 470.311 L 700.384 480.851 Q 700.564 482.241 700.224 482.171 Q 699.424 482.011 699.384 482.021 Q 697.984 482.471 696.594 482.101 Q 695.424 481.791 694.454 480.591 Q 689.904 474.921 694.634 468.851 Z " fill="rgb(251,145,56)"/><path d=" M 804.554 462.601 Q 804.284 463.971 805.084 463.741 Q 805.684 463.571 806.014 463.641 Q 811.994 464.881 818.094 464.141 Q 816.394 467.561 819.844 468.641 Q 821.154 468.911 822.264 469.621 Q 823.494 470.411 824.524 470.781 Q 828.194 472.091 830.344 475.561 Q 824.134 476.371 820.784 481.791 Q 816.714 488.371 817.884 495.851 Q 817.684 497.231 816.574 498.091 Q 807.594 505.031 797.494 510.211 Q 783.834 517.211 768.834 518.571 Q 758.174 519.531 748.964 517.391 Q 737.804 514.801 728.164 508.031 Q 727.734 507.731 727.844 507.141 Q 733.424 502.991 734.554 496.101 L 734.464 498.531 Q 734.454 498.881 734.544 498.561 Q 735.734 494.161 734.994 489.651 C 734.945 489.355 735.079 489.059 735.334 488.901 Q 741.494 485.111 747.194 480.671 Q 747.844 480.161 748.964 478.991 Q 751.914 475.881 751.684 480.911 Q 751.674 480.971 751.274 483.261 Q 751.064 484.461 751.324 485.691 C 751.322 485.782 751.368 485.871 751.451 485.935 C 751.535 485.999 751.648 486.034 751.764 486.031 Q 751.944 485.981 752.094 485.811 Q 753.274 492.121 757.554 496.851 Q 765.194 504.781 775.404 500.411 Q 785.804 495.971 792.244 485.971 Q 798.554 476.161 803.164 465.441 Q 803.264 465.201 803.404 465.431 Q 803.654 465.851 803.794 464.841 Q 803.964 463.651 804.554 462.601 Z " fill="rgb(67,43,68)"/><path d=" M 738.594 518.561 Q 739.314 518.811 739.844 519.391 Q 740.374 520.151 740.344 521.601 Q 740.284 524.911 743.594 525.641 L 745.094 526.061 L 745.314 526.091 Q 745.574 526.131 745.344 526.291 Q 739.994 530.011 737.594 524.351 Q 736.394 521.531 738.594 518.561 Z " fill="rgb(255,153,108)"/><path d=" M 723.844 503.311 Q 718.394 500.341 715.554 494.851 Q 716.824 492.661 718.674 490.941 Q 721.374 488.441 724.484 490.521 Q 729.154 493.661 726.584 498.811 Q 725.404 501.181 723.844 503.311 Z " fill="rgb(80,56,68)"/><path d=" M 700.534 462.661 Q 698.224 461.951 698.934 459.561 C 699.023 459.286 699.279 459.081 699.594 459.031 Q 710.114 457.441 719.384 452.171 Q 729.374 446.481 739.164 440.471 Q 744.604 437.131 752.044 435.601 Q 754.814 435.041 754.744 437.861 Q 754.714 438.901 753.234 442.061 C 753.033 442.487 752.638 442.789 752.174 442.871 Q 743.824 444.321 737.724 448.021 Q 727.874 453.991 718.144 460.141 Q 709.694 465.481 700.534 462.661 Z " fill="rgb(232,128,64)"/><path d=" M 756.964 441.281 Q 755.834 439.581 757.264 437.941 Q 758.254 436.801 759.934 436.851 Q 764.544 436.981 766.214 441.491 C 766.363 441.89 766.328 442.335 766.117 442.705 C 765.907 443.076 765.543 443.334 765.124 443.411 Q 762.254 443.941 760.054 443.361 Q 757.984 442.821 756.964 441.281 Z " fill="rgb(218,121,69)"/><path d=" M 742.894 532.971 Q 746.114 533.241 749.114 532.171 Q 751.634 531.271 755.344 531.041 Q 756.334 530.971 755.524 531.551 Q 751.624 534.321 747.624 535.731 Q 742.974 537.381 738.994 536.051 Q 733.184 534.111 730.704 527.651 Q 729.414 524.301 730.424 521.541 Q 730.944 520.121 731.214 521.611 Q 733.094 532.141 742.894 532.971 Z " fill="rgb(245,174,44)"/><path d=" M 775.374 507.006 C 775.735 505.322 777.605 504.294 779.548 504.71 C 781.491 505.127 782.775 506.832 782.414 508.515 C 782.053 510.199 780.183 511.228 778.24 510.811 C 776.297 510.395 775.013 508.69 775.374 507.006 Z " fill="rgb(247,148,84)"/><path d=" M 802.741 450.531 C 803.392 450.7 803.152 453.791 802.205 457.428 C 801.257 461.065 799.959 463.881 799.308 463.711 C 798.656 463.541 798.896 460.45 799.844 456.813 C 800.791 453.176 802.089 450.361 802.741 450.531 Z " fill="rgb(251,145,56)"/><path d=" M 691.704 484.971 Q 690.394 483.651 690.744 481.591 Q 690.824 481.091 691.154 481.501 Q 693.244 484.111 695.094 484.101 Q 697.354 484.081 698.534 484.401 Q 700.694 484.971 698.904 486.311 Q 696.454 488.131 694.304 486.921 Q 692.794 486.071 691.704 484.971 Z " fill="rgb(251,145,56)"/></g></g></svg>