<?xml version="1.0" encoding="UTF-8" standalone="no"?><!-- Generator: Gravit.io --><svg xmlns="http://www.w3.org/2000/svg" xmlns:xlink="http://www.w3.org/1999/xlink" style="isolation:isolate" viewBox="693.121 360 161.241 195.461" width="161.241pt" height="195.461pt"><defs><clipPath id="_clipPath_UxQ43wnPC67r4FXZVMMw4MtWoDGC9WPA"><rect x="693.121" y="360" width="161.241" height="195.461"/></clipPath></defs><g clip-path="url(#_clipPath_UxQ43wnPC67r4FXZVMMw4MtWoDGC9WPA)"><rect x="693.121" y="360" width="161.241" height="195.461" style="fill:rgb(6,6,6)" fill-opacity="0"/><g><path d=" M 799.276 387.905 L 799.376 390.065 C 799.502 390.353 799.385 390.666 799.076 390.865 L 796.236 393.115 Q 792.096 394.255 787.776 394.155 Q 786.576 393.205 784.026 393.115 Q 782.316 393.055 783.126 392.145 C 783.255 392.018 783.437 391.936 783.636 391.915 Q 786.856 391.755 782.956 391.465 Q 782.716 391.445 782.046 391.705 L 780.276 392.405 Q 762.996 391.335 747.776 399.405 Q 730.276 407.745 721.776 425.145 Q 717.656 433.585 715.186 442.635 Q 714.306 445.895 713.276 449.115 Q 712.846 450.475 714.066 452.115 Q 712.606 454.495 712.986 457.365 L 710.526 458.325 Q 708.266 459.565 708.526 461.865 Q 709.706 472.355 709.816 474.865 Q 708.536 476.305 709.736 478.925 Q 710.616 480.825 711.256 482.825 Q 712.836 487.685 716.486 483.365 L 717.236 484.115 Q 719.226 490.765 723.316 496.365 L 728.776 504.905 Q 737.456 515.805 749.646 521.565 Q 757.756 525.385 766.826 527.185 Q 775.466 528.895 785.026 528.365 Q 789.516 528.115 792.716 526.395 Q 792.746 526.375 794.496 524.955 Q 796.206 523.545 799.786 523.685 Q 801.216 523.735 802.536 523.215 Q 819.546 516.565 829.276 499.865 Q 830.546 497.685 830.736 496.615 Q 834.776 492.245 835.976 486.405 Q 836.676 483.015 837.526 479.655 Q 838.366 478.795 838.236 477.615 Q 841.716 465.875 839.316 453.865 Q 835.786 425.055 814.776 405.325 L 815.636 402.845 Q 815.746 402.545 815.686 401.865 Q 815.586 400.695 816.586 399.675 Q 817.396 398.865 817.736 397.415 C 817.71 397.104 817.881 396.803 818.206 396.585 Q 820.116 394.975 823.466 395.675 Q 826.096 396.225 826.526 398.325 Q 819.946 401.435 824.476 405.855 Q 826.746 408.075 826.806 408.145 Q 838.466 421.315 843.986 438.115 L 847.256 453.305 C 847.309 453.595 847.528 453.833 847.826 453.925 Q 852.086 455.125 854.066 459.395 Q 855.036 461.485 852.826 461.785 L 848.696 462.345 C 848.08 462.423 847.612 462.87 847.576 463.415 Q 844.586 503.575 812.206 524.845 Q 811.756 525.135 809.106 526.575 Q 807.486 527.465 806.186 528.605 Q 804.376 530.205 805.586 532.295 Q 806.956 534.655 809.216 536.175 Q 811.156 537.485 812.966 540.675 Q 814.466 543.335 812.346 545.505 Q 811.846 546.025 810.976 546.995 Q 810.326 547.725 809.396 548.295 C 809.279 548.36 809.139 548.377 809.008 548.343 C 808.877 548.309 808.767 548.226 808.706 548.115 L 806.786 543.395 C 806.942 542.585 806.307 541.776 805.106 541.255 Q 801.106 539.165 798.106 536.035 Q 797.026 534.915 796.776 533.375 C 796.739 533.143 796.525 532.977 796.286 532.995 Q 792.246 533.385 789.026 534.655 Q 786.926 534.045 784.906 534.345 C 783.973 534.485 783.225 535.181 783.026 536.095 Q 782.556 538.305 781.336 540.175 Q 780.726 541.125 779.816 540.865 L 779.646 536.045 C 779.636 535.756 779.412 535.511 779.106 535.455 Q 776.806 535.035 773.276 534.865 Q 745.826 533.575 725.066 515.365 Q 713.126 502.585 706.486 486.365 L 705.116 482.115 C 705.115 481.869 704.865 481.657 704.526 481.615 L 701.716 481.955 C 701.153 482.013 700.642 481.662 700.566 481.165 Q 700.066 477.155 703.366 474.885 C 703.756 474.616 704.009 474.188 704.055 473.716 C 704.101 473.244 703.937 472.775 703.606 472.435 Q 702.396 471.185 702.236 468.865 Q 703.026 466.885 703.026 464.365 Q 703.026 460.765 703.776 448.115 Q 703.846 446.905 705.776 441.855 Q 706.696 439.425 707.746 435.615 Q 709.116 430.615 711.086 427.175 Q 713.806 422.445 714.566 418.615 Q 716.106 417.895 717.736 417.865 Q 718.446 418.405 718.836 417.425 Q 719.606 415.495 719.976 413.925 Q 720.356 412.295 719.806 410.335 Q 718.956 407.275 717.776 404.325 Q 717.776 399.505 722.236 397.615 Q 723.856 401.555 723.776 406.035 Q 723.746 407.855 724.996 406.535 Q 740.176 390.635 761.226 386.155 C 761.544 386.073 761.82 385.892 762.006 385.645 Q 764.926 381.845 769.776 383.535 Q 771.226 384.035 772.756 384.115 Q 786.196 384.805 799.276 387.905 Z " fill="rgb(248,26,30)"/><path d=" M 780.276 392.405 Q 782.936 397.015 786.936 400.465 Q 792.766 405.485 799.526 409.155 Q 799.486 410.055 798.716 410.305 Q 792.766 412.205 787.906 412.525 Q 784.786 412.725 786.006 415.605 Q 787.686 419.555 788.396 422.595 Q 788.706 423.915 787.746 425.875 C 787.692 425.983 787.591 426.059 787.473 426.081 C 787.355 426.103 787.233 426.067 787.146 425.985 Q 782.726 421.775 777.506 418.965 Q 773.316 416.705 769.026 417.365 Q 759.346 418.855 752.596 419.275 C 752.306 419.289 752.053 419.091 752.006 418.815 Q 751.606 416.215 751.396 413.595 Q 751.226 411.345 750.466 409.795 Q 749.746 408.345 748.586 406.305 Q 746.896 403.325 747.776 399.405 Q 762.996 391.335 780.276 392.405 Z " fill="rgb(254,137,40)"/><path d=" M 814.776 405.325 Q 835.786 425.055 839.316 453.865 Q 838.926 454.675 838.206 454.375 C 837.841 454.212 837.623 453.937 837.626 453.645 Q 833.566 440.755 826.776 429.075 Q 823.506 422.875 818.566 417.865 Q 815.486 414.005 811.486 411.125 Q 811.446 411.095 810.886 410.805 Q 810.236 410.465 810.236 409.615 L 814.776 405.325 Z " fill="rgb(255,231,50)"/><path d=" M 818.566 417.865 Q 823.506 422.875 826.776 429.075 Q 823.476 433.055 820.216 434.055 Q 813.236 436.195 808.536 430.855 Q 806.646 428.715 804.986 426.305 Q 803.996 424.865 805.736 424.865 Q 813.036 424.855 816.716 419.305 Q 817.276 418.455 818.566 417.865 Z " fill="rgb(224,67,48)"/><path d=" M 838.236 477.615 Q 838.366 478.795 837.526 479.655 Q 835.946 479.965 835.086 480.675 Q 829.526 485.325 823.066 488.615 Q 822.866 483.285 819.206 480.755 Q 816.536 478.905 811.476 479.225 Q 806.856 479.515 802.326 480.565 C 802.006 480.646 801.722 480.821 801.516 481.065 Q 799.356 483.545 796.556 485.105 Q 794.076 486.485 790.726 486.275 Q 780.456 485.645 771.446 480.415 Q 769.166 479.095 768.176 481.665 L 765.356 488.975 Q 764.556 491.065 762.296 490.375 Q 759.726 489.585 759.026 487.315 Q 759.026 487.305 758.836 484.385 Q 758.616 481.075 755.006 480.185 Q 748.256 478.525 742.526 482.325 L 740.776 481.325 L 732.526 474.075 Q 732.006 473.735 731.776 473.155 Q 740.646 472.725 749.286 470.615 Q 751.116 470.165 752.436 468.835 Q 758.366 462.835 762.396 455.425 C 762.69 454.885 762.745 454.247 762.546 453.665 Q 759.216 444.095 750.466 439.635 Q 748.786 438.775 747.316 438.655 Q 745.336 438.475 743.956 439.215 Q 741.326 440.615 742.706 443.255 Q 745.036 447.695 741.506 447.925 Q 738.596 448.105 738.576 448.115 Q 736.466 448.635 734.806 449.975 Q 733.526 451.005 732.386 453.265 Q 730.996 456.035 730.716 457.055 Q 729.876 460.115 727.596 461.045 Q 724.526 462.295 725.666 459.185 Q 727.286 454.765 729.426 450.725 Q 731.386 447.045 735.026 445.035 C 735.297 444.893 735.442 444.603 735.386 444.315 Q 735.126 442.925 734.606 441.625 Q 734.176 440.565 733.556 439.045 Q 730.466 431.555 722.046 436.395 Q 720.996 436.995 721.706 436.015 Q 723.696 433.275 726.686 431.325 Q 730.986 428.515 735.346 425.785 Q 735.596 425.625 736.026 425.235 Q 736.986 424.335 736.396 426.685 C 736.282 427.117 736.343 427.576 736.566 427.965 Q 737.676 429.995 740.046 430.815 Q 742.676 431.725 742.796 431.785 Q 750.256 435.205 757.466 439.375 Q 758.876 440.195 760.516 440.185 Q 765.026 440.155 768.906 438.795 Q 773.836 437.065 775.436 433.895 Q 777.296 430.205 775.256 424.715 C 775.107 424.314 775.17 423.864 775.424 423.52 C 775.678 423.175 776.088 422.982 776.516 423.005 Q 779.026 423.155 780.656 425.605 Q 781.806 427.345 782.076 429.965 Q 782.936 438.305 775.916 442.365 Q 773.976 443.485 770.776 444.085 Q 768.276 444.555 765.396 445.005 C 765.011 445.065 764.672 445.289 764.466 445.617 C 764.261 445.945 764.21 446.346 764.326 446.715 Q 766.046 452.135 770.526 451.585 Q 773.276 451.245 775.366 449.435 Q 781.796 443.875 788.456 438.335 C 789.146 437.761 790.136 437.716 790.876 438.225 Q 793.646 440.165 795.116 442.585 Q 797.266 446.115 794.516 449.105 Q 793.316 450.405 792.416 451.895 Q 791.526 453.365 791.606 455.165 Q 791.776 458.725 792.996 462.035 Q 794.146 465.185 796.006 466.515 Q 798.216 468.105 801.536 468.115 C 802.472 468.122 803.247 467.39 803.296 466.455 Q 803.846 456.595 812.146 452.685 Q 813.676 451.965 814.146 450.345 Q 816.156 443.395 822.236 445.505 C 822.55 445.62 822.809 445.837 822.966 446.115 Q 825.026 449.735 826.976 453.415 Q 828.936 457.125 832.216 455.055 Q 833.836 454.025 834.746 453.615 C 835.033 453.484 835.368 453.507 835.636 453.675 Q 838.216 455.355 836.516 457.885 C 836.345 458.142 836.073 458.343 835.746 458.455 Q 832.216 459.655 829.616 462.265 C 829.393 462.486 829.286 462.796 829.326 463.105 Q 829.906 467.895 832.786 471.805 Q 834.416 474.015 836.766 474.705 C 837.074 474.797 837.333 475.007 837.485 475.288 C 837.637 475.57 837.67 475.9 837.576 476.205 Q 837.136 477.635 838.236 477.615 Z " fill="rgb(224,67,48)"/><path d=" M 796.236 393.115 Q 796.736 393.685 796.086 394.425 Q 794.696 396.035 793.246 397.595 Q 790.616 400.425 788.216 397.425 Q 787.096 396.025 787.776 394.155 Q 792.096 394.255 796.236 393.115 Z " fill="rgb(251,133,39)"/><path d=" M 717.776 404.325 Q 718.956 407.275 719.806 410.335 Q 720.356 412.295 719.976 413.925 Q 719.606 415.495 718.836 417.425 Q 718.446 418.405 717.736 417.865 Q 716.586 412.015 716.996 406.075 Q 716.996 406.005 716.926 405.155 Q 716.866 404.345 717.776 404.325 Z " fill="rgb(243,116,46)"/><path d=" M 710.526 458.325 Q 712.296 458.855 711.896 460.885 Q 711.796 461.365 711.906 461.845 Q 712.256 463.475 711.846 465.915 Q 711.536 467.775 712.016 469.795 L 713.276 475.075 Q 711.516 475.525 709.816 474.865 Q 709.706 472.355 708.526 461.865 Q 708.266 459.565 710.526 458.325 Z " fill="rgb(243,116,46)"/><path d=" M 826.526 398.325 Q 826.096 396.225 823.466 395.675 Q 820.116 394.975 818.206 396.585 C 817.881 396.803 817.71 397.104 817.736 397.415 Q 817.396 398.865 816.586 399.675 Q 815.586 400.695 815.686 401.865 Q 815.746 402.545 815.636 402.845 L 814.776 405.325 L 810.236 409.615 Q 804.846 410.515 799.526 409.155 Q 792.766 405.485 786.936 400.465 Q 782.936 397.015 780.276 392.405 L 782.046 391.705 Q 782.716 391.445 782.956 391.465 Q 786.856 391.755 783.636 391.915 C 783.437 391.936 783.255 392.018 783.126 392.145 Q 782.316 393.055 784.026 393.115 Q 786.576 393.205 787.776 394.155 Q 787.096 396.025 788.216 397.425 Q 790.616 400.425 793.246 397.595 Q 794.696 396.035 796.086 394.425 Q 796.736 393.685 796.236 393.115 L 799.076 390.865 C 799.385 390.666 799.502 390.353 799.376 390.065 L 799.276 387.905 L 806.006 383.175 Q 808.346 381.525 808.056 378.455 Q 807.636 374.015 810.146 370.925 C 810.358 370.676 810.475 370.366 810.476 370.045 L 810.576 361.925 C 810.512 361.602 810.62 361.275 810.876 361.015 Q 812.136 359.425 814.146 360.325 C 814.457 360.475 814.657 360.75 814.676 361.055 Q 815.516 365.695 818.466 369.925 Q 819.816 371.865 819.046 373.715 Q 818.776 374.365 816.776 376.355 Q 814.056 379.065 813.776 382.115 Q 813.436 385.865 815.426 395.365 Q 815.526 395.855 815.846 395.485 Q 820.556 390.025 827.826 389.865 Q 827.866 389.865 829.216 389.915 Q 833.616 390.065 836.336 385.925 Q 837.846 383.635 838.556 385.565 Q 838.796 386.235 838.646 387.185 Q 838.016 391.285 837.776 392.115 Q 836.856 395.315 833.496 396.175 Q 831.656 396.645 831.586 396.665 Q 829.056 397.485 826.526 398.325 Z " fill="rgb(233,56,47)"/><path d=" M 702.236 468.865 Q 702.396 471.185 703.606 472.435 C 703.937 472.775 704.101 473.244 704.055 473.716 C 704.009 474.188 703.756 474.616 703.366 474.885 Q 700.066 477.155 700.566 481.165 C 700.642 481.662 701.153 482.013 701.716 481.955 L 704.526 481.615 C 704.865 481.657 705.115 481.869 705.116 482.115 L 706.486 486.365 Q 699.256 491.095 696.216 499.295 Q 695.376 501.555 694.216 499.435 Q 692.526 496.345 694.026 493.115 Q 695.476 490.015 694.346 486.945 Q 693.496 484.645 693.496 484.615 Q 692.446 480.375 694.336 477.425 Q 695.626 475.425 702.236 468.865 Z " fill="rgb(233,56,47)"/><path d=" M 732.526 474.075 L 740.776 481.325 Q 736.746 482.025 732.726 482.725 Q 730.206 483.175 728.866 484.615 Q 727.226 486.395 726.526 488.615 Q 725.066 493.265 723.316 496.365 Q 719.226 490.765 717.236 484.115 Q 717.136 482.935 718.216 481.555 Q 719.136 480.365 718.776 478.155 Q 724.886 473.695 732.526 474.075 Z " fill="rgb(156,28,67)"/><path d=" M 709.816 474.865 Q 711.516 475.525 713.276 475.075 Q 714.956 476.975 716.836 480.555 Q 717.726 482.235 716.486 483.365 Q 712.836 487.685 711.256 482.825 Q 710.616 480.825 709.736 478.925 Q 708.536 476.305 709.816 474.865 Z " fill="rgb(250,126,27)"/><path d=" M 714.066 452.115 Q 720.506 459.155 724.086 464.805 Q 727.436 470.075 731.776 473.155 Q 732.006 473.735 732.526 474.075 Q 724.886 473.695 718.776 478.155 Q 715.956 472.535 714.866 466.405 Q 714.416 463.875 713.926 461.885 Q 713.366 459.645 712.986 457.365 Q 712.606 454.495 714.066 452.115 Z " fill="rgb(175,38,66)"/><path d=" M 837.526 479.655 Q 836.676 483.015 835.976 486.405 Q 834.776 492.245 830.736 496.615 Q 822.566 503.935 812.216 510.555 Q 801.726 517.255 790.216 520.075 Q 783.106 521.825 775.836 520.955 Q 775.586 520.925 775.346 521.025 Q 775.116 521.125 774.886 521.215 Q 774.526 521.365 774.146 521.375 Q 763.256 521.605 752.966 518.495 Q 746.476 516.535 742.586 514.545 Q 737.576 511.975 733.546 507.845 Q 731.526 505.755 728.776 504.905 L 723.316 496.365 Q 725.066 493.265 726.526 488.615 Q 727.226 486.395 728.866 484.615 Q 730.206 483.175 732.726 482.725 Q 736.746 482.025 740.776 481.325 L 742.526 482.325 Q 760.946 496.875 785.526 498.615 Q 793.826 499.205 800.026 497.575 Q 801.836 497.795 803.536 497.125 Q 809.346 494.835 815.266 492.835 Q 816.946 492.265 818.276 491.155 L 823.066 488.615 Q 829.526 485.325 835.086 480.675 Q 835.946 479.965 837.526 479.655 Z " fill="rgb(175,38,66)"/><path d=" M 818.276 491.155 Q 816.946 492.265 815.266 492.835 Q 809.346 494.835 803.536 497.125 Q 801.836 497.795 800.026 497.575 Q 800.766 496.975 800.716 496.055 Q 800.546 492.735 802.726 491.205 Q 804.436 490.005 806.746 489.485 Q 808.716 489.035 811.276 489.615 Q 814.766 490.405 818.276 491.155 Z " fill="rgb(224,62,48)"/><path d=" M 830.736 496.615 Q 830.546 497.685 829.276 499.865 Q 819.546 516.565 802.536 523.215 Q 801.216 523.735 799.786 523.685 Q 796.206 523.545 794.496 524.955 Q 792.746 526.375 792.716 526.395 Q 789.516 528.115 785.026 528.365 Q 775.466 528.895 766.826 527.185 Q 757.756 525.385 749.646 521.565 Q 737.456 515.805 728.776 504.905 Q 731.526 505.755 733.546 507.845 Q 737.576 511.975 742.586 514.545 Q 746.476 516.535 752.966 518.495 Q 763.256 521.605 774.146 521.375 Q 774.526 521.365 774.886 521.215 Q 775.116 521.125 775.346 521.025 Q 775.586 520.925 775.836 520.955 Q 783.106 521.825 790.216 520.075 Q 801.726 517.255 812.216 510.555 Q 822.566 503.935 830.736 496.615 Z " fill="rgb(246,136,31)"/><path d=" M 823.066 488.615 L 818.276 491.155 Q 814.766 490.405 811.276 489.615 Q 808.716 489.035 806.746 489.485 Q 804.436 490.005 802.726 491.205 Q 800.546 492.735 800.716 496.055 Q 800.766 496.975 800.026 497.575 Q 793.826 499.205 785.526 498.615 Q 760.946 496.875 742.526 482.325 Q 748.256 478.525 755.006 480.185 Q 758.616 481.075 758.836 484.385 Q 759.026 487.305 759.026 487.315 Q 759.726 489.585 762.296 490.375 Q 764.556 491.065 765.356 488.975 L 768.176 481.665 Q 769.166 479.095 771.446 480.415 Q 780.456 485.645 790.726 486.275 Q 794.076 486.485 796.556 485.105 Q 799.356 483.545 801.516 481.065 C 801.722 480.821 802.006 480.646 802.326 480.565 Q 806.856 479.515 811.476 479.225 Q 816.536 478.905 819.206 480.755 Q 822.866 483.285 823.066 488.615 Z " fill="rgb(255,93,34)"/><path d=" M 747.776 399.405 Q 746.896 403.325 748.586 406.305 Q 749.746 408.345 750.466 409.795 Q 751.226 411.345 751.396 413.595 Q 751.606 416.215 752.006 418.815 C 752.053 419.091 752.306 419.289 752.596 419.275 Q 759.346 418.855 769.026 417.365 Q 773.316 416.705 777.506 418.965 Q 782.726 421.775 787.146 425.985 C 787.233 426.067 787.355 426.103 787.473 426.081 C 787.591 426.059 787.692 425.983 787.746 425.875 Q 788.706 423.915 788.396 422.595 Q 787.686 419.555 786.006 415.605 Q 784.786 412.725 787.906 412.525 Q 792.766 412.205 798.716 410.305 Q 799.486 410.055 799.526 409.155 Q 804.846 410.515 810.236 409.615 Q 810.236 410.465 810.886 410.805 Q 811.446 411.095 811.486 411.125 Q 815.486 414.005 818.566 417.865 Q 817.276 418.455 816.716 419.305 Q 813.036 424.855 805.736 424.865 Q 803.996 424.865 804.986 426.305 Q 806.646 428.715 808.536 430.855 Q 813.236 436.195 820.216 434.055 Q 823.476 433.055 826.776 429.075 Q 833.566 440.755 837.626 453.645 C 837.623 453.937 837.841 454.212 838.206 454.375 Q 838.926 454.675 839.316 453.865 Q 841.716 465.875 838.236 477.615 Q 837.136 477.635 837.576 476.205 C 837.67 475.9 837.637 475.57 837.485 475.288 C 837.333 475.007 837.074 474.797 836.766 474.705 Q 834.416 474.015 832.786 471.805 Q 829.906 467.895 829.326 463.105 C 829.286 462.796 829.393 462.486 829.616 462.265 Q 832.216 459.655 835.746 458.455 C 836.073 458.343 836.345 458.142 836.516 457.885 Q 838.216 455.355 835.636 453.675 C 835.368 453.507 835.033 453.484 834.746 453.615 Q 833.836 454.025 832.216 455.055 Q 828.936 457.125 826.976 453.415 Q 825.026 449.735 822.966 446.115 C 822.809 445.837 822.55 445.62 822.236 445.505 Q 816.156 443.395 814.146 450.345 Q 813.676 451.965 812.146 452.685 Q 803.846 456.595 803.296 466.455 C 803.247 467.39 802.472 468.122 801.536 468.115 Q 798.216 468.105 796.006 466.515 Q 794.146 465.185 792.996 462.035 Q 791.776 458.725 791.606 455.165 Q 791.526 453.365 792.416 451.895 Q 793.316 450.405 794.516 449.105 Q 797.266 446.115 795.116 442.585 Q 793.646 440.165 790.876 438.225 C 790.136 437.716 789.146 437.761 788.456 438.335 Q 781.796 443.875 775.366 449.435 Q 773.276 451.245 770.526 451.585 Q 766.046 452.135 764.326 446.715 C 764.21 446.346 764.261 445.945 764.466 445.617 C 764.672 445.289 765.011 445.065 765.396 445.005 Q 768.276 444.555 770.776 444.085 Q 773.976 443.485 775.916 442.365 Q 782.936 438.305 782.076 429.965 Q 781.806 427.345 780.656 425.605 Q 779.026 423.155 776.516 423.005 C 776.088 422.982 775.678 423.175 775.424 423.52 C 775.17 423.864 775.107 424.314 775.256 424.715 Q 777.296 430.205 775.436 433.895 Q 773.836 437.065 768.906 438.795 Q 765.026 440.155 760.516 440.185 Q 758.876 440.195 757.466 439.375 Q 750.256 435.205 742.796 431.785 Q 742.676 431.725 740.046 430.815 Q 737.676 429.995 736.566 427.965 C 736.343 427.576 736.282 427.117 736.396 426.685 Q 736.986 424.335 736.026 425.235 Q 735.596 425.625 735.346 425.785 Q 730.986 428.515 726.686 431.325 Q 723.696 433.275 721.706 436.015 Q 720.996 436.995 722.046 436.395 Q 730.466 431.555 733.556 439.045 Q 734.176 440.565 734.606 441.625 Q 735.126 442.925 735.386 444.315 C 735.442 444.603 735.297 444.893 735.026 445.035 Q 731.386 447.045 729.426 450.725 Q 727.286 454.765 725.666 459.185 Q 724.526 462.295 727.596 461.045 Q 729.876 460.115 730.716 457.055 Q 730.996 456.035 732.386 453.265 Q 733.526 451.005 734.806 449.975 Q 736.466 448.635 738.576 448.115 Q 738.596 448.105 741.506 447.925 Q 745.036 447.695 742.706 443.255 Q 741.326 440.615 743.956 439.215 Q 745.336 438.475 747.316 438.655 Q 748.786 438.775 750.466 439.635 Q 759.216 444.095 762.546 453.665 C 762.745 454.247 762.69 454.885 762.396 455.425 Q 758.366 462.835 752.436 468.835 Q 751.116 470.165 749.286 470.615 Q 740.646 472.725 731.776 473.155 Q 727.436 470.075 724.086 464.805 Q 720.506 459.155 714.066 452.115 Q 712.846 450.475 713.276 449.115 Q 714.306 445.895 715.186 442.635 Q 717.656 433.585 721.776 425.145 Q 730.276 407.745 747.776 399.405 Z " fill="rgb(255,95,35)"/><path d=" M 722.236 397.615 Q 717.776 399.505 717.776 404.325 Q 716.866 404.345 716.926 405.155 Q 716.996 406.005 716.996 406.075 Q 716.586 412.015 717.736 417.865 Q 716.106 417.895 714.566 418.615 Q 714.266 417.905 712.836 417.805 Q 709.266 417.555 704.756 417.075 C 704.019 416.996 703.474 416.354 703.516 415.615 Q 703.716 411.855 706.166 409.445 C 706.397 409.22 706.703 409.088 707.026 409.075 Q 709.216 408.955 710.946 410.205 Q 713.256 411.865 713.946 409.105 Q 715.256 403.935 714.986 398.675 C 714.987 398.356 714.859 398.048 714.626 397.805 Q 710.726 393.305 711.896 387.445 Q 712.026 386.795 712.376 386.395 Q 713.326 385.315 713.776 387.115 Q 714.316 389.265 715.156 390.635 Q 715.666 391.475 717.956 392.935 Q 720.686 394.685 722.236 397.615 Z " fill="rgb(237,48,44)"/><path d=" M 712.986 457.365 Q 713.366 459.645 713.926 461.885 Q 714.416 463.875 714.866 466.405 Q 715.956 472.535 718.776 478.155 Q 719.136 480.365 718.216 481.555 Q 717.136 482.935 717.236 484.115 L 716.486 483.365 Q 717.726 482.235 716.836 480.555 Q 714.956 476.975 713.276 475.075 L 712.016 469.795 Q 711.536 467.775 711.846 465.915 Q 712.256 463.475 711.906 461.845 Q 711.796 461.365 711.896 460.885 Q 712.296 458.855 710.526 458.325 L 712.986 457.365 Z " fill="rgb(237,48,44)"/><path d=" M 789.026 534.655 Q 786.586 539.755 786.676 545.405 Q 786.696 546.695 787.106 547.365 Q 787.696 548.295 788.856 548.645 Q 790.856 549.235 789.956 550.895 L 787.746 554.975 C 787.508 555.251 787.147 555.426 786.753 555.456 C 786.358 555.487 785.967 555.37 785.676 555.135 Q 783.626 553.225 781.756 551.255 Q 781.706 551.205 780.566 550.195 Q 779.136 548.915 779.356 546.985 Q 779.536 545.345 779.546 545.215 Q 779.596 543.035 779.816 540.865 Q 780.726 541.125 781.336 540.175 Q 782.556 538.305 783.026 536.095 C 783.225 535.181 783.973 534.485 784.906 534.345 Q 786.926 534.045 789.026 534.655 Z " fill="rgb(237,48,44)"/><path d=" M 797.026 401.435 C 796.331 400.944 796.142 399.995 796.596 399.275 Q 801.056 392.185 809.246 388.535 C 809.357 388.486 809.485 388.494 809.589 388.555 C 809.694 388.617 809.763 388.724 809.776 388.845 Q 810.296 393.855 810.336 398.865 Q 810.366 402.755 806.676 403.645 Q 801.796 404.825 797.026 401.435 Z " fill="rgb(255,158,38)"/><path d=" M 744.636 418.473 C 746.243 417.492 748.595 418.413 749.886 420.528 C 751.177 422.644 750.921 425.157 749.315 426.137 C 747.708 427.118 745.356 426.197 744.065 424.082 C 742.774 421.966 743.03 419.453 744.636 418.473 Z " fill="rgb(224,67,48)"/><path d=" M 773.716 459.425 Q 775.896 460.575 776.886 458.315 Q 779.176 453.045 782.116 451.975 Q 785.576 450.715 786.156 454.345 Q 787.786 464.565 790.016 473.865 Q 790.826 477.225 788.186 476.885 Q 787.036 476.735 785.696 475.785 Q 782.966 473.835 781.216 471.425 Q 779.696 469.335 777.546 469.195 Q 776.306 469.105 773.926 470.545 Q 766.506 475.035 763.386 467.475 Q 762.146 464.495 762.516 462.115 Q 763.076 458.515 767.056 457.965 Q 768.536 457.755 770.446 458.245 Q 772.516 458.785 773.716 459.425 Z " fill="rgb(255,93,34)"/><path d=" M 809.446 469.925 C 808.614 469.644 808.044 468.879 808.016 468.005 Q 807.636 458.045 817.176 455.995 C 818.027 455.813 818.916 456.014 819.606 456.545 Q 824.746 460.505 825.746 465.625 Q 826.216 468.025 825.086 469.685 Q 824.136 471.065 821.796 471.305 Q 815.506 471.955 809.446 469.925 Z " fill="rgb(255,93,34)"/><path d=" M 805.336 503.661 C 807.474 505.526 807.636 508.843 805.699 511.064 C 803.761 513.285 800.453 513.574 798.315 511.709 C 796.177 509.844 796.015 506.527 797.952 504.306 C 799.89 502.085 803.198 501.796 805.336 503.661 Z " fill="rgb(255,93,34)"/><path d=" M 751.867 503.604 C 754.208 505.147 754.781 508.413 753.147 510.891 C 751.512 513.37 748.285 514.13 745.944 512.587 C 743.603 511.043 743.03 507.778 744.665 505.299 C 746.299 502.82 749.526 502.06 751.867 503.604 Z " fill="rgb(255,95,35)"/></g></g></svg>