<?xml version="1.0" encoding="UTF-8" standalone="no"?><!-- Generator: Gravit.io --><svg xmlns="http://www.w3.org/2000/svg" xmlns:xlink="http://www.w3.org/1999/xlink" style="isolation:isolate" viewBox="741.899 384.589 176.246 160.113" width="176.246pt" height="160.113pt"><defs><clipPath id="_clipPath_vjAp8B03ChxJXvpWiIqJoHqdUbh0GluN"><rect x="741.899" y="384.589" width="176.246" height="160.113"/></clipPath></defs><g clip-path="url(#_clipPath_vjAp8B03ChxJXvpWiIqJoHqdUbh0GluN)"><path d=" M 912.964 450.496 Q 917.194 454.156 917.964 459.456 Q 918.994 466.496 914.164 470.776 Q 911.734 472.936 909.224 473.986 Q 906.304 475.216 903.134 474.546 C 902.909 474.501 902.675 474.55 902.488 474.683 C 902.302 474.817 902.181 475.021 902.154 475.246 Q 900.014 492.026 892.534 505.526 Q 889.124 511.676 884.374 516.196 C 884.244 516.317 884.182 516.495 884.208 516.671 C 884.234 516.846 884.344 516.998 884.504 517.076 Q 889.974 519.726 891.914 524.586 Q 893.814 529.316 892.144 534.366 Q 890.074 540.646 882.774 543.516 Q 878.484 545.206 874.694 544.486 Q 870.914 543.756 868.204 540.456 Q 865.404 537.056 864.914 532.376 C 864.892 532.171 864.769 531.99 864.587 531.894 C 864.404 531.798 864.186 531.799 864.004 531.896 Q 859.564 534.316 854.924 535.556 Q 841.484 539.146 832.464 539.706 Q 822.984 540.296 813.004 538.046 C 812.581 537.954 812.14 538.091 811.844 538.406 Q 806.394 544.226 799.994 543.626 Q 794.084 543.066 790.914 538.346 Q 787.714 533.596 790.044 526.916 C 790.155 526.635 790.067 526.317 789.824 526.126 Q 778.314 516.426 770.514 504.016 C 770.404 503.842 770.227 503.721 770.024 503.681 C 769.822 503.641 769.612 503.686 769.444 503.806 Q 764.694 507.116 759.724 507.756 Q 751.814 508.766 746.404 503.266 Q 742.874 499.686 742.104 494.956 Q 741.354 490.406 743.344 486.166 Q 746.264 479.936 753.714 477.956 Q 755.054 477.596 761.154 477.636 C 761.279 477.638 761.399 477.584 761.481 477.49 C 761.564 477.396 761.601 477.27 761.584 477.146 Q 761.134 473.916 761.234 470.676 Q 761.244 470.116 761.574 464.226 Q 762.904 440.396 779.084 421.616 C 779.165 421.522 779.199 421.395 779.176 421.272 C 779.152 421.15 779.074 421.045 778.964 420.986 Q 771.094 416.986 772.214 408.206 Q 772.954 402.396 776.754 398.996 Q 780.314 395.806 784.714 395.206 Q 788.964 394.626 792.974 396.616 Q 797.444 398.846 799.964 403.516 C 800.145 403.86 800.563 404.008 800.924 403.856 Q 817.544 396.516 835.214 395.956 Q 840.634 395.786 847.714 397.916 L 857.374 401.416 C 857.56 401.482 857.767 401.457 857.931 401.349 C 858.095 401.24 858.196 401.061 858.204 400.866 Q 858.424 388.646 869.214 385.206 Q 875.794 383.106 882.024 388.146 Q 888.374 393.276 887.324 401.186 Q 886.754 405.526 884.324 408.616 Q 881.834 411.796 877.694 413.696 C 877.584 413.742 877.507 413.84 877.491 413.954 C 877.475 414.069 877.521 414.184 877.614 414.256 Q 893.494 428.546 899.634 448.666 C 899.717 448.927 899.995 449.077 900.264 449.006 Q 906.964 447.196 912.964 450.496 Z " fill="rgb(249,85,39)"/><path d=" M 792.714 411.996 Q 792.024 411.566 792.274 410.516 Q 793.304 406.216 790.434 403.806 Q 788.694 402.356 786.694 402.406 Q 784.384 402.466 782.884 404.626 Q 781.584 406.506 780.684 409.706 C 780.555 410.133 780.624 410.594 780.874 410.966 Q 783.444 414.876 787.144 415.306 Q 788.704 415.486 787.714 416.666 L 784.964 416.996 Q 780.944 416.196 778.774 414.396 Q 774.184 410.596 777.054 404.786 Q 779.834 399.146 786.164 398.576 Q 794.144 397.846 796.214 404.956 Q 797.664 409.926 792.714 411.996 Z " fill="rgb(249,145,42)"/><path d=" M 792.714 411.996 L 791.964 413.666 Q 790.154 415.646 787.714 416.666 Q 788.704 415.486 787.144 415.306 Q 783.444 414.876 780.874 410.966 C 780.624 410.594 780.555 410.133 780.684 409.706 Q 781.584 406.506 782.884 404.626 Q 784.384 402.466 786.694 402.406 Q 788.694 402.356 790.434 403.806 Q 793.304 406.216 792.274 410.516 Q 792.024 411.566 792.714 411.996 Z " fill="rgb(255,101,35)"/><path d=" M 824.564 402.716 Q 830.274 405.266 828.404 410.396 Q 827.744 412.206 825.734 413.386 Q 824.524 414.096 822.064 414.616 Q 817.064 415.666 812.044 416.576 Q 809.504 417.046 808.174 418.086 Q 807.024 418.976 806.164 420.176 Q 804.874 421.966 804.404 422.426 Q 800.884 425.866 796.264 427.776 Q 794.724 428.406 793.964 429.896 Q 792.534 432.676 790.314 434.896 Q 788.424 436.786 786.554 437.116 Q 784.244 437.526 781.954 436.216 Q 779.304 434.696 777.964 431.916 L 780.214 427.916 Q 783.014 426.806 784.274 425.016 Q 786.304 422.136 790.834 420.896 C 791.285 420.778 791.691 420.531 792.004 420.186 Q 795.734 416.096 802.924 412.016 Q 803.274 411.816 803.534 411.506 Q 806.934 407.506 811.754 405.456 Q 818.104 402.796 824.564 402.716 Z " fill="rgb(210,104,45)"/><path d=" M 811.754 405.456 Q 806.934 407.506 803.534 411.506 Q 803.274 411.816 802.924 412.016 Q 795.734 416.096 792.004 420.186 C 791.691 420.531 791.285 420.778 790.834 420.896 Q 786.304 422.136 784.274 425.016 Q 783.014 426.806 780.214 427.916 Q 781.744 424.856 783.434 421.886 Q 783.484 421.796 784.734 420.216 Q 785.824 418.836 784.964 416.996 L 787.714 416.666 Q 790.154 415.646 791.964 413.666 Q 794.354 414.156 795.684 412.086 C 796.06 411.516 796.616 411.087 797.264 410.866 Q 801.954 409.256 805.324 406.526 C 805.677 406.308 805.856 406.012 805.814 405.716 Q 806.204 404.386 807.714 404.956 Q 808.534 405.266 811.754 405.456 Z " fill="rgb(226,106,43)"/><path d=" M 898.004 474.206 Q 897.804 472.256 896.394 473.436 C 896.109 473.649 895.935 473.937 895.904 474.246 Q 892.944 486.096 891.404 489.146 Q 888.244 495.366 883.154 500.146 Q 881.254 501.926 879.494 503.836 Q 878.344 505.076 876.544 508.056 Q 873.364 513.316 868.404 515.396 Q 857.374 519.996 851.904 523.646 Q 848.274 526.056 842.964 525.206 Q 841.274 524.936 835.964 525.426 Q 835.894 525.436 830.504 526.206 Q 825.724 526.896 819.714 526.456 Q 810.384 525.766 803.804 520.476 Q 801.634 518.736 801.024 518.036 Q 799.894 516.736 799.154 514.766 Q 798.494 513.026 796.794 512.216 Q 795.924 511.796 793.574 511.896 Q 790.244 512.016 787.364 510.066 Q 779.394 504.646 773.554 497.016 Q 773.464 496.896 773.104 496.216 Q 772.664 495.386 771.924 496.456 Q 767.524 485.396 766.774 483.146 Q 764.664 476.816 765.504 468.956 Q 771.774 475.136 774.904 480.766 Q 780.074 490.076 784.654 495.516 Q 785.644 496.706 787.614 497.676 Q 788.834 498.276 791.034 498.846 Q 796.864 500.336 802.484 501.886 Q 801.264 504.776 802.874 506.146 Q 804.614 507.646 804.664 507.706 Q 806.524 510.046 808.224 512.516 Q 809.984 515.066 813.404 516.266 Q 819.814 518.516 825.954 517.616 Q 827.294 517.416 828.044 516.726 Q 829.074 515.796 827.724 515.456 Q 823.974 514.526 820.774 512.396 Q 820.014 511.886 820.314 511.496 C 820.529 511.346 820.863 511.26 821.214 511.266 Q 826.324 511.866 831.454 511.386 Q 840.724 510.526 843.634 501.646 Q 851.294 503.946 858.714 501.746 Q 862.804 500.346 865.504 496.956 Q 869.764 497.506 869.564 493.996 C 869.514 493.147 870.135 492.404 870.984 492.296 Q 874.364 491.876 876.974 490.496 Q 878.314 489.796 882.154 487.166 Q 886.374 484.296 889.264 480.106 Q 890.634 478.136 890.954 475.296 Q 891.634 469.256 892.204 463.206 Q 892.364 461.556 891.294 460.906 C 891.012 460.737 890.811 460.46 890.737 460.139 C 890.664 459.819 890.724 459.482 890.904 459.206 Q 892.324 457.036 891.924 454.706 Q 893.824 451.356 892.754 447.576 Q 891.994 444.896 891.204 442.206 Q 891.044 441.696 891.214 441.456 C 891.354 441.423 891.51 441.427 891.647 441.466 C 891.785 441.506 891.891 441.578 891.944 441.666 Q 893.964 444.496 895.154 447.766 Q 899.814 460.586 898.004 474.206 Z " fill="rgb(112,51,46)"/><path d=" M 836.724 402.116 Q 837.914 403.796 838.434 405.006 Q 839.194 406.776 840.494 408.096 Q 841.544 409.146 843.674 409.716 Q 854.644 412.696 863.944 419.256 Q 864.794 419.866 865.204 420.446 Q 866.574 422.396 862.994 421.806 Q 859.024 421.136 855.054 420.466 Q 852.584 420.046 849.224 421.466 C 848.659 421.703 848.013 421.631 847.514 421.276 Q 843.274 418.276 838.474 418.006 Q 829.714 417.506 821.414 420.316 Q 814.724 422.576 811.524 426.766 Q 807.334 432.256 803.304 434.186 Q 794.364 438.456 790.524 441.266 Q 787.214 443.696 785.374 444.706 Q 782.304 446.386 779.134 444.796 Q 775.784 443.116 773.424 440.206 Q 774.614 435.456 777.964 431.916 Q 779.304 434.696 781.954 436.216 Q 784.244 437.526 786.554 437.116 Q 788.424 436.786 790.314 434.896 Q 792.534 432.676 793.964 429.896 Q 794.724 428.406 796.264 427.776 Q 800.884 425.866 804.404 422.426 Q 804.874 421.966 806.164 420.176 Q 807.024 418.976 808.174 418.086 Q 809.504 417.046 812.044 416.576 Q 817.064 415.666 822.064 414.616 Q 824.524 414.096 825.734 413.386 Q 827.744 412.206 828.404 410.396 Q 830.274 405.266 824.564 402.716 Q 830.824 401.796 836.724 402.116 Z " fill="rgb(252,152,46)"/><path d=" M 841.194 463.176 Q 835.984 464.326 826.714 464.456 Q 819.854 464.556 815.504 461.206 Q 813.484 457.726 815.214 453.706 Q 818.344 446.446 824.774 445.636 Q 830.384 444.936 835.264 448.916 Q 841.414 453.936 841.194 463.176 Z " fill="rgb(252,152,46)"/><path d=" M 907.214 466.746 Q 903.204 465.796 903.204 461.666 L 902.174 455.566 C 901.814 454.634 902.383 453.626 903.444 453.316 Q 911.824 451.136 913.574 458.156 Q 914.234 460.846 912.734 462.956 Q 910.754 465.746 907.214 466.746 Z " fill="rgb(254,165,30)"/><path d=" M 879.754 392.966 Q 878.084 398.356 873.264 399.276 C 872.279 399.466 871.524 400.257 871.384 401.246 Q 871.054 403.636 868.364 404.076 Q 860.534 401.006 863.334 395.176 Q 865.244 391.186 869.204 389.386 Q 874.964 386.786 879.754 392.966 Z " fill="rgb(255,151,33)"/><path d=" M 869.996 446.088 C 868.347 444.008 869.463 440.373 872.486 437.977 C 875.51 435.58 879.303 435.324 880.952 437.405 C 882.601 439.485 881.485 443.12 878.462 445.516 C 875.438 447.912 871.645 448.169 869.996 446.088 Z " fill="rgb(255,151,33)"/><path d=" M 882.384 447.516 C 882.037 447.437 881.744 447.231 881.575 446.95 C 881.405 446.669 881.376 446.337 881.494 446.036 L 883.474 439.936 Q 884.124 437.926 886.004 439.236 Q 888.024 440.626 888.514 442.816 Q 889.024 445.096 887.554 446.646 Q 885.744 448.546 882.384 447.516 Z " fill="rgb(255,151,33)"/><path d=" M 898.004 474.206 Q 896.834 485.516 891.274 498.016 Q 879.494 524.536 852.204 532.076 Q 851.734 532.206 851.224 532.076 Q 850.484 531.896 849.734 531.796 Q 849.014 531.696 848.234 531.946 Q 831.554 537.416 814.904 533.016 Q 809.294 531.536 803.914 528.606 Q 798.824 525.826 793.834 522.536 Q 784.664 516.506 777.404 506.766 Q 773.274 501.236 771.924 496.456 Q 772.664 495.386 773.104 496.216 Q 773.464 496.896 773.554 497.016 Q 779.394 504.646 787.364 510.066 Q 790.244 512.016 793.574 511.896 Q 795.924 511.796 796.794 512.216 Q 798.494 513.026 799.154 514.766 Q 799.894 516.736 801.024 518.036 Q 801.634 518.736 803.804 520.476 Q 810.384 525.766 819.714 526.456 Q 825.724 526.896 830.504 526.206 Q 835.894 525.436 835.964 525.426 Q 841.274 524.936 842.964 525.206 Q 848.274 526.056 851.904 523.646 Q 857.374 519.996 868.404 515.396 Q 873.364 513.316 876.544 508.056 Q 878.344 505.076 879.494 503.836 Q 881.254 501.926 883.154 500.146 Q 888.244 495.366 891.404 489.146 Q 892.944 486.096 895.904 474.246 C 895.935 473.937 896.109 473.649 896.394 473.436 Q 897.804 472.256 898.004 474.206 Z " fill="rgb(87,29,45)"/><path d=" M 747.811 487.806 C 747.208 485.728 750.048 483.074 754.15 481.882 C 758.253 480.69 762.073 481.409 762.677 483.487 C 763.28 485.565 760.44 488.219 756.338 489.411 C 752.235 490.603 748.415 489.883 747.811 487.806 Z " fill="rgb(255,164,36)"/><path d=" M 865.924 489.546 Q 865.094 497.656 857.464 497.746 L 845.954 497.486 C 845.636 497.481 845.343 497.315 845.174 497.046 Q 844.344 495.776 844.424 494.206 Q 844.374 492.576 844.714 488.956 Q 845.054 485.396 847.774 483.766 Q 849.374 482.816 849.634 481.876 Q 860.884 480.246 865.924 489.546 Z " fill="rgb(243,91,31)"/><path d=" M 880.254 424.956 L 880.744 427.666 C 880.803 427.779 880.802 427.906 880.741 428.017 C 880.68 428.127 880.565 428.211 880.424 428.246 Q 877.234 428.896 873.994 429.226 Q 869.814 429.646 868.094 430.436 Q 865.434 431.656 863.054 433.976 Q 861.324 435.666 861.484 438.076 Q 861.794 442.696 862.014 447.486 Q 862.314 453.836 863.444 456.746 Q 867.354 466.726 879.964 465.956 Q 881.454 465.866 885.404 465.996 C 885.522 466.003 885.631 466.064 885.698 466.162 C 885.765 466.26 885.782 466.384 885.744 466.496 Q 883.714 472.286 878.214 474.206 Q 873.804 475.746 868.584 475.996 Q 868.414 476.006 858.854 475.926 Q 837.604 475.756 831.714 474.956 Q 825.784 474.146 820.384 471.556 Q 813.864 468.436 815.504 461.206 Q 819.854 464.556 826.714 464.456 Q 835.984 464.326 841.194 463.176 Q 844.594 462.616 845.154 459.066 Q 845.504 456.816 845.324 453.856 Q 844.974 448.176 839.024 446.146 Q 836.434 445.256 833.544 442.086 C 833.331 441.844 833.039 441.675 832.714 441.606 Q 826.574 440.406 820.454 441.896 Q 814.444 443.356 811.904 449.646 Q 810.174 453.926 810.364 457.406 C 810.369 457.507 810.32 457.604 810.232 457.666 C 810.145 457.727 810.03 457.746 809.924 457.716 L 802.204 455.206 Q 799.684 454.376 797.084 455.616 Q 787.174 460.306 786.954 472.136 Q 786.934 473.166 786.124 472.526 Q 778.324 466.336 774.024 457.146 Q 772.194 453.216 771.134 444.066 L 773.424 440.206 Q 775.784 443.116 779.134 444.796 Q 782.304 446.386 785.374 444.706 Q 787.214 443.696 790.524 441.266 Q 794.364 438.456 803.304 434.186 Q 807.334 432.256 811.524 426.766 Q 814.724 422.576 821.414 420.316 Q 829.714 417.506 838.474 418.006 Q 843.274 418.276 847.514 421.276 C 848.013 421.631 848.659 421.703 849.224 421.466 Q 852.584 420.046 855.054 420.466 Q 859.024 421.136 862.994 421.806 Q 866.574 422.396 865.204 420.446 Q 864.794 419.866 863.944 419.256 Q 854.644 412.696 843.674 409.716 Q 841.544 409.146 840.494 408.096 Q 839.194 406.776 838.434 405.006 Q 837.914 403.796 836.724 402.116 Q 848.214 401.896 858.654 406.756 Q 861.634 408.146 864.144 410.276 Q 868.224 413.756 873.024 416.146 Q 878.224 418.736 880.254 424.956 Z " fill="rgb(203,100,42)"/><path d=" M 849.634 481.876 Q 849.374 482.816 847.774 483.766 Q 845.054 485.396 844.714 488.956 Q 844.374 492.576 844.424 494.206 L 843.634 501.646 Q 840.724 510.526 831.454 511.386 Q 826.324 511.866 821.214 511.266 C 820.863 511.26 820.529 511.346 820.314 511.496 Q 820.014 511.886 820.774 512.396 Q 823.974 514.526 827.724 515.456 Q 829.074 515.796 828.044 516.726 Q 827.294 517.416 825.954 517.616 Q 819.814 518.516 813.404 516.266 Q 809.984 515.066 808.224 512.516 Q 806.524 510.046 804.664 507.706 Q 804.614 507.646 802.874 506.146 Q 801.264 504.776 802.484 501.886 Q 812.564 499.346 822.934 498.216 Q 825.694 497.906 827.644 496.676 Q 830.684 494.746 832.154 492.896 Q 838.974 484.266 849.634 481.876 Z " fill="rgb(203,100,42)"/><path d=" M 903.204 461.666 Q 903.204 465.796 907.214 466.746 Q 907.614 468.146 908.964 468.396 C 909.078 468.409 909.175 468.476 909.217 468.572 C 909.258 468.669 909.238 468.778 909.164 468.856 Q 906.734 471.856 903.204 469.896 C 902.917 469.734 902.726 469.458 902.684 469.146 Q 901.984 465.326 903.204 461.666 Z " fill="rgb(194,43,28)"/><path d=" M 753.054 500.026 Q 751.604 498.336 753.644 498.166 C 753.98 498.12 754.288 497.991 754.524 497.796 Q 758.684 493.936 762.204 489.466 Q 763.254 488.116 763.384 489.246 Q 763.424 489.596 763.234 490.016 Q 760.764 495.516 756.994 500.316 C 756.877 500.464 756.84 500.66 756.896 500.84 C 756.952 501.021 757.093 501.161 757.274 501.216 Q 760.964 502.316 765.294 501.026 Q 766.904 500.546 765.554 501.536 Q 763.754 502.846 761.714 502.946 Q 758.204 503.106 754.704 502.886 Q 749.554 502.556 747.454 497.966 Q 745.974 494.746 746.254 491.206 Q 746.334 490.236 746.974 490.506 C 747.37 490.67 747.591 490.961 747.544 491.256 Q 748.334 493.996 749.004 496.756 Q 749.794 500.006 752.904 500.356 Q 753.394 500.406 753.054 500.026 Z " fill="rgb(194,43,28)"/><path d=" M 865.924 489.546 Q 867.294 493.496 865.504 496.956 Q 862.804 500.346 858.714 501.746 L 857.464 497.746 Q 865.094 497.656 865.924 489.546 Z " fill="rgb(194,43,28)"/><path d=" M 798.804 535.896 Q 794.934 531.736 800.014 533.666 Q 801.014 534.046 801.494 534.766 Q 802.734 536.626 799.644 536.326 C 799.318 536.281 799.02 536.128 798.804 535.896 L 798.804 535.896 Z " fill="rgb(194,43,28)"/><path d=" M 881.924 394.206 Q 883.624 396.866 882.964 400.706 Q 882.274 404.676 879.824 406.956 Q 877.454 409.146 873.954 410.066 Q 869.924 411.116 866.184 408.616 Q 865.394 408.086 865.224 407.386 Q 864.894 406.066 866.714 405.996 Q 875.084 408.016 878.714 400.206 Q 879.204 399.146 881.924 394.206 Z " fill="rgb(172,44,38)"/><path d=" M 844.424 494.206 Q 844.344 495.776 845.174 497.046 C 845.343 497.315 845.636 497.481 845.954 497.486 L 857.464 497.746 L 858.714 501.746 Q 851.294 503.946 843.634 501.646 L 844.424 494.206 Z " fill="rgb(172,44,38)"/><path d=" M 880.254 424.956 Q 884.854 428.626 887.404 433.016 Q 887.764 433.646 887.414 434.076 C 887.191 434.23 886.863 434.254 886.604 434.136 Q 880.804 430.676 874.274 432.016 Q 869.974 432.906 867.324 436.016 Q 864.954 438.806 864.524 443.036 Q 863.864 449.486 867.904 454.766 Q 871.324 459.246 877.464 458.706 Q 886.234 457.936 891.924 454.706 Q 892.324 457.036 890.904 459.206 C 890.724 459.482 890.664 459.819 890.737 460.139 C 890.811 460.46 891.012 460.737 891.294 460.906 Q 892.364 461.556 892.204 463.206 Q 891.634 469.256 890.954 475.296 Q 890.634 478.136 889.264 480.106 Q 886.374 484.296 882.154 487.166 Q 878.314 489.796 876.974 490.496 Q 874.364 491.876 870.984 492.296 C 870.135 492.404 869.514 493.147 869.564 493.996 Q 869.764 497.506 865.504 496.956 Q 867.294 493.496 865.924 489.546 Q 860.884 480.246 849.634 481.876 Q 838.974 484.266 832.154 492.896 Q 830.684 494.746 827.644 496.676 Q 825.694 497.906 822.934 498.216 Q 812.564 499.346 802.484 501.886 Q 796.864 500.336 791.034 498.846 Q 788.834 498.276 787.614 497.676 Q 785.644 496.706 784.654 495.516 Q 780.074 490.076 774.904 480.766 Q 771.774 475.136 765.504 468.956 Q 765.824 455.966 771.134 444.066 Q 772.194 453.216 774.024 457.146 Q 778.324 466.336 786.124 472.526 Q 786.934 473.166 786.954 472.136 Q 787.174 460.306 797.084 455.616 Q 799.684 454.376 802.204 455.206 L 809.924 457.716 C 810.03 457.746 810.145 457.727 810.232 457.666 C 810.32 457.604 810.369 457.507 810.364 457.406 Q 810.174 453.926 811.904 449.646 Q 814.444 443.356 820.454 441.896 Q 826.574 440.406 832.714 441.606 C 833.039 441.675 833.331 441.844 833.544 442.086 Q 836.434 445.256 839.024 446.146 Q 844.974 448.176 845.324 453.856 Q 845.504 456.816 845.154 459.066 Q 844.594 462.616 841.194 463.176 Q 841.414 453.936 835.264 448.916 Q 830.384 444.936 824.774 445.636 Q 818.344 446.446 815.214 453.706 Q 813.484 457.726 815.504 461.206 Q 813.864 468.436 820.384 471.556 Q 825.784 474.146 831.714 474.956 Q 837.604 475.756 858.854 475.926 Q 868.414 476.006 868.584 475.996 Q 873.804 475.746 878.214 474.206 Q 883.714 472.286 885.744 466.496 C 885.782 466.384 885.765 466.26 885.698 466.162 C 885.631 466.064 885.522 466.003 885.404 465.996 Q 881.454 465.866 879.964 465.956 Q 867.354 466.726 863.444 456.746 Q 862.314 453.836 862.014 447.486 Q 861.794 442.696 861.484 438.076 Q 861.324 435.666 863.054 433.976 Q 865.434 431.656 868.094 430.436 Q 869.814 429.646 873.994 429.226 Q 877.234 428.896 880.424 428.246 C 880.565 428.211 880.68 428.127 880.741 428.017 C 880.802 427.906 880.803 427.779 880.744 427.666 L 880.254 424.956 Z " fill="rgb(130,60,43)"/><path d=" M 873.804 539.146 Q 870.274 536.366 869.614 532.106 Q 869.334 530.316 870.194 528.976 Q 871.114 527.546 872.664 526.636 Q 873.654 526.056 873.394 527.166 Q 872.464 531.236 874.894 534.556 Q 878.764 539.836 884.574 536.586 Q 884.834 536.436 885.184 536.146 Q 886.474 535.096 886.014 536.566 Q 885.914 536.886 885.674 537.136 Q 883.304 539.586 879.954 540.436 Q 876.544 541.296 873.804 539.146 Z " fill="rgb(168,35,32)"/><path d=" M 881.714 529.376 Q 880.164 528.866 879.224 526.836 Q 878.504 525.276 878.714 523.976 Q 879.044 521.946 881.464 521.956 Q 888.904 521.996 888.464 529.536 Q 888.344 531.466 886.844 532.686 Q 885.344 533.916 883.654 530.966 C 883.227 530.219 882.536 529.653 881.714 529.376 L 881.714 529.376 Z " fill="rgb(255,155,46)"/><path d=" M 879.754 392.966 Q 881.154 392.916 881.924 394.206 Q 879.204 399.146 878.714 400.206 Q 875.084 408.016 866.714 405.996 Q 867.974 405.356 868.364 404.076 Q 871.054 403.636 871.384 401.246 C 871.524 400.257 872.279 399.466 873.264 399.276 Q 878.084 398.356 879.754 392.966 Z " fill="rgb(248,63,36)"/><path d=" M 811.964 480.746 Q 810.924 480.726 811.214 479.456 Q 811.324 478.966 811.034 478.596 C 810.811 478.427 810.48 478.373 810.184 478.456 Q 801.254 482.036 792.464 477.996 Q 790.134 476.216 790.214 472.456 Q 790.354 465.706 795.514 461.506 Q 797.664 459.756 800.454 459.896 Q 809.004 460.356 812.524 468.146 Q 815.534 474.786 811.964 480.746 Z " fill="rgb(254,86,39)"/><path d=" M 792.464 477.996 Q 801.254 482.036 810.184 478.456 C 810.48 478.373 810.811 478.427 811.034 478.596 Q 811.324 478.966 811.214 479.456 Q 810.924 480.726 811.964 480.746 Q 810.294 483.726 807.004 483.016 C 806.675 482.912 806.442 482.683 806.394 482.416 Q 805.944 481.196 804.504 481.306 Q 803.224 481.416 802.914 481.426 Q 801.724 481.476 799.464 481.956 Q 794.664 482.976 792.464 477.996 Z " fill="rgb(194,43,28)"/><path d=" M 799.474 505.766 Q 800.674 504.496 800.914 506.206 C 800.958 506.526 800.872 506.851 800.674 507.106 Q 799.314 508.816 799.164 506.636 C 799.135 506.317 799.248 506.002 799.474 505.766 Z " fill="rgb(130,60,43)"/><path d=" M 798.654 474.016 Q 796.484 473.106 796.224 470.686 Q 796.024 468.846 797.034 467.006 Q 799.494 462.546 805.464 463.956 Q 808.594 464.696 809.674 467.336 Q 811.474 471.706 807.094 473.436 Q 802.044 475.436 798.654 474.016 Z " fill="rgb(255,151,33)"/></g></svg>