<?xml version="1.0" encoding="UTF-8" standalone="no"?><!-- Generator: Gravit.io --><svg xmlns="http://www.w3.org/2000/svg" xmlns:xlink="http://www.w3.org/1999/xlink" style="isolation:isolate" viewBox="658.664 350.549 230.154 214.363" width="230.154pt" height="214.363pt"><defs><clipPath id="_clipPath_nfKF51BBfpUfSubRSFDUUxMUEb5j0vzE"><rect x="658.664" y="350.549" width="230.154" height="214.363"/></clipPath></defs><g clip-path="url(#_clipPath_nfKF51BBfpUfSubRSFDUUxMUEb5j0vzE)"><rect x="658.664" y="350.549" width="230.154" height="214.363" style="fill:rgb(6,6,6)" fill-opacity="0"/><g><path d=" M 835.966 374.725 Q 835.396 375.335 835.856 376.105 Q 837.126 378.285 834.146 376.395 Q 833.576 376.035 832.906 375.935 Q 828.626 375.325 830.966 379.725 Q 830.736 381.635 829.586 383.185 C 829.434 383.278 829.348 383.422 829.354 383.572 C 829.36 383.723 829.458 383.861 829.616 383.945 Q 830.146 384.325 830.906 383.955 Q 833.866 382.485 836.526 382.135 C 836.852 382.074 837.153 381.939 837.396 381.745 Q 838.906 380.485 840.966 380.805 Q 838.466 382.815 835.586 384.105 Q 832.906 385.305 829.856 386.625 Q 824.036 389.145 817.526 388.375 Q 817.126 388.325 815.916 388.405 Q 814.496 388.495 814.586 387.065 C 814.598 386.952 814.558 386.839 814.475 386.756 C 814.392 386.673 814.276 386.629 814.156 386.635 L 803.966 387.725 Q 804.236 386.655 805.216 386.515 Q 813.466 385.295 819.896 383.665 Q 820.506 383.505 820.916 383.115 Q 821.346 382.705 821.716 382.225 Q 825.776 382.465 829.006 380.235 C 829.425 380.066 829.644 379.77 829.566 379.475 L 830.006 375.755 Q 830.106 374.965 830.186 374.815 Q 831.026 373.355 831.826 375.245 Q 831.926 375.505 831.976 375.235 L 832.006 375.015 Q 833.556 374.915 834.856 374.115 C 835.095 373.983 835.404 374.026 835.586 374.215 L 835.966 374.725 Z " fill="rgb(187,47,33)"/><path d=" M 758.176 389.265 L 756.006 393.265 Q 752.376 399.685 749.766 406.575 Q 747.396 412.815 747.176 419.515 Q 746.446 417.715 744.466 417.975 Q 747.296 403.585 755.266 391.315 Q 756.316 389.705 758.176 389.265 Z " fill="rgb(239,95,41)"/><path d=" M 835.466 365.555 Q 837.016 365.735 838.006 367.015 Q 837.936 367.565 838.466 368.265 Q 841.256 371.955 840.806 377.835 C 840.777 378.216 840.592 378.569 840.295 378.811 C 839.999 379.053 839.616 379.163 839.236 379.115 Q 837.886 378.955 836.496 380.995 C 836.225 381.392 835.795 381.652 835.317 381.708 C 834.84 381.763 834.362 381.609 834.006 381.285 Q 832.536 379.925 830.966 379.725 Q 828.626 375.325 832.906 375.935 Q 833.576 376.035 834.146 376.395 Q 837.126 378.285 835.856 376.105 Q 835.396 375.335 835.966 374.725 L 838.266 376.145 C 838.361 376.197 838.477 376.209 838.583 376.179 C 838.689 376.148 838.774 376.077 838.816 375.985 Q 839.546 373.665 838.806 371.865 Q 837.436 368.555 835.466 365.555 Z " fill="rgb(172,39,31)"/><path d=" M 843.756 374.765 Q 844.906 375.585 844.716 377.265 Q 844.586 378.405 845.966 378.055 Q 845.456 378.945 845.966 379.805 L 851.216 382.975 L 850.426 383.765 L 843.716 381.975 Q 842.326 381.635 841.216 380.725 Q 843.706 378.245 843.756 374.765 Z " fill="rgb(172,39,31)"/><path d=" M 771.216 412.305 Q 771.026 412.995 770.786 413.655 Q 770.556 414.295 770.046 414.845 Q 767.836 417.215 765.766 419.725 Q 764.386 421.395 764.326 422.615 Q 764.236 424.655 766.716 425.555 Q 765.636 426.865 767.716 426.805 Q 764.916 428.355 763.776 430.575 Q 760.986 436.005 760.966 442.975 Q 760.496 443.805 760.756 444.765 Q 760.816 452.135 763.426 459.015 L 764.716 462.725 Q 763.806 462.785 763.516 462.065 C 763.739 461.794 763.538 461.486 763.006 461.285 Q 759.606 458.735 758.506 454.515 Q 753.586 447.805 754.426 439.515 Q 756.296 426.545 765.686 417.485 Q 768.416 414.855 771.216 412.305 Z " fill="rgb(172,39,31)"/><path d=" M 809.466 357.305 L 814.256 359.765 Q 818.496 364.425 820.026 365.705 Q 822.666 367.915 824.336 370.925 Q 825.726 373.435 824.526 376.045 Q 823.356 378.565 821.596 380.695 C 821.105 380.903 820.968 381.276 821.276 381.565 Q 821.366 381.945 821.716 382.225 Q 821.346 382.705 820.916 383.115 Q 820.506 383.505 819.896 383.665 Q 813.466 385.295 805.216 386.515 Q 804.236 386.655 803.966 387.725 Q 800.366 387.905 797.966 390.475 Q 786.186 391.215 780.966 392.765 Q 757.816 399.625 753.256 423.515 Q 751.066 423.395 751.216 426.265 Q 751.486 431.435 751.846 433.445 Q 751.966 434.115 751.826 434.585 Q 751.346 436.235 750.516 435.025 Q 750.226 434.605 750.156 433.915 Q 749.906 431.565 749.586 429.225 Q 746.946 410.005 757.216 393.805 Q 766.846 382.385 780.226 375.735 Q 784.696 373.515 792.406 371.705 Q 795.976 370.865 800.396 368.595 Q 804.686 366.395 806.076 363.805 Q 808.656 359.015 801.716 355.555 Q 802.816 354.685 804.186 355.325 Q 806.756 356.515 809.466 357.305 Z " fill="rgb(228,45,31)"/><path d=" M 846.176 389.765 Q 845.976 390.495 845.026 391.325 Q 836.536 398.835 826.216 401.805 L 821.216 401.975 Q 821.346 401.815 821.526 401.745 C 821.757 401.694 821.902 401.523 821.866 401.345 Q 821.786 399.685 823.466 399.555 Q 836.086 397.585 846.176 389.765 Z " fill="rgb(228,45,31)"/><path d=" M 781.466 430.475 Q 782.796 430.875 782.816 432.205 C 782.816 432.307 782.862 432.405 782.943 432.477 C 783.024 432.548 783.133 432.587 783.246 432.585 Q 783.526 432.585 783.756 432.765 Q 780.346 434.575 779.026 436.825 Q 777.766 438.975 779.256 441.765 L 778.756 444.765 L 776.676 449.765 Q 774.346 453.815 772.116 457.935 Q 769.666 462.445 767.216 457.975 Q 765.546 449.515 770.436 442.405 Q 771.996 440.135 769.436 441.185 L 760.756 444.765 Q 760.496 443.805 760.966 442.975 Q 769.046 438.815 776.276 433.325 Q 777.256 432.585 781.466 430.475 Z " fill="rgb(228,45,31)"/><path d=" M 789.716 452.225 L 788.716 453.055 Q 784.496 455.885 784.426 450.765 Q 785.176 449.865 785.866 448.945 Q 794.536 437.455 808.966 436.015 Q 817.096 435.205 825.216 434.225 Q 828.996 434.675 832.716 433.925 Q 833.616 433.745 834.226 433.875 Q 836.356 434.315 834.156 435.955 Q 831.226 438.125 825.316 439.965 Q 813.656 443.605 806.216 445.015 Q 796.526 446.855 789.716 452.225 Z " fill="rgb(69,48,99)"/><path d=" M 852.176 379.265 Q 851.816 380.705 852.706 381.775 Q 853.406 382.595 853.536 382.885 Q 854.696 385.355 851.216 382.975 L 845.966 379.805 L 852.176 379.265 Z " fill="rgb(220,77,31)"/><path d=" M 754.716 486.475 L 753.716 486.805 L 752.466 485.725 Q 751.606 484.805 750.256 484.765 Q 748.086 480.715 745.716 476.765 Q 744.396 474.575 744.176 470.265 Q 745.086 468.435 745.926 469.905 Q 746.136 470.275 746.256 471.205 Q 746.436 472.535 747.276 474.205 Q 751.016 481.575 754.716 486.475 Z " fill="rgb(220,77,31)"/><path d=" M 876.926 480.015 Q 881.756 481.715 885.266 485.125 Q 888.446 488.195 888.776 491.225 Q 889.216 495.215 885.026 498.325 Q 878.206 503.385 871.956 505.605 Q 871.846 505.635 869.576 506.665 Q 868.026 507.365 866.216 507.225 Q 870.406 505.585 874.386 503.515 Q 879.266 500.955 880.916 499.885 Q 884.366 497.635 886.406 494.705 Q 887.746 492.775 887.166 490.475 Q 886.746 488.795 885.016 487.085 Q 881.556 483.655 876.896 481.835 Q 865.366 477.325 853.216 474.805 Q 854.476 474.855 855.696 474.625 Q 857.096 474.365 858.116 474.585 Q 867.696 476.665 876.926 480.015 Z " fill="rgb(97,60,29)"/><path d=" M 786.716 476.305 L 807.466 476.475 Q 804.326 476.035 806.296 477.835 C 806.53 478.046 806.612 478.372 806.506 478.665 Q 806.036 480.005 807.676 480.015 L 786.716 479.225 Q 784.366 478.035 786.716 476.305 Z " fill="rgb(251,218,173)"/><path d=" M 807.466 476.475 Q 816.356 476.785 825.226 477.295 Q 839.336 478.105 853.196 480.885 Q 862.726 482.795 870.716 486.265 Q 873.996 487.685 875.516 491.055 C 875.664 491.352 875.699 491.687 875.616 492.005 Q 875.016 494.485 873.026 495.825 Q 865.826 500.685 856.716 503.505 Q 828.346 512.285 798.916 515.745 Q 789.606 516.845 778.976 517.135 Q 749.316 517.945 719.736 515.335 Q 706.366 514.155 693.316 511.055 Q 687.046 509.555 681.296 506.675 Q 678.626 505.345 677.336 502.675 Q 675.636 499.145 678.026 496.325 Q 679.706 494.355 682.616 492.745 Q 688.016 489.765 693.836 487.875 Q 697.336 486.735 705.616 484.755 Q 719.356 481.455 733.466 480.225 Q 734.776 479.985 734.466 481.265 Q 734.256 482.125 734.716 483.975 Q 723.506 485.735 713.026 489.875 Q 708.376 491.705 706.726 493.855 Q 704.236 497.105 707.066 500.575 Q 708.636 502.495 712.006 504.105 Q 720.356 508.095 729.716 509.005 Q 771.816 513.045 813.566 506.315 Q 825.556 504.385 837.036 500.485 Q 842.506 498.625 846.166 494.185 Q 848.176 491.755 846.186 489.305 Q 843.486 485.985 839.046 484.535 Q 833.136 482.595 826.966 481.765 Q 823.866 481.345 807.676 480.015 Q 806.036 480.005 806.506 478.665 C 806.612 478.372 806.53 478.046 806.296 477.835 Q 804.326 476.035 807.466 476.475 Z " fill="rgb(254,203,197)"/><path d=" M 812.756 353.265 L 809.466 357.305 Q 806.756 356.515 804.186 355.325 Q 802.816 354.685 801.716 355.555 Q 795.316 352.855 788.416 352.065 C 788.18 352.077 787.948 352.027 787.813 351.935 C 787.679 351.843 787.665 351.723 787.776 351.625 Q 787.856 351.405 788.516 351.285 Q 800.906 349.135 812.756 353.265 Z " fill="rgb(254,155,30)"/><path d=" M 843.716 381.975 L 850.426 383.765 Q 849.396 387.505 846.176 389.765 Q 836.086 397.585 823.466 399.555 Q 808.926 400.625 799.966 399.765 Q 779.286 397.775 764.626 410.425 Q 757.496 416.585 753.846 425.245 C 754.185 425.315 754.316 425.49 754.139 425.636 C 753.962 425.782 753.545 425.845 753.206 425.775 Q 753.046 425.585 753.176 424.765 L 753.256 423.515 Q 757.816 399.625 780.966 392.765 Q 786.186 391.215 797.966 390.475 Q 807.596 390.895 817.216 391.135 Q 831.386 391.485 841.906 382.955 Q 842.966 382.095 843.716 381.975 Z " fill="rgb(254,155,30)"/><path d=" M 778.676 449.515 Q 777.806 451.005 776.676 449.765 L 778.756 444.765 Q 779.296 444.535 780.776 443.075 Q 789.616 434.375 802.446 429.625 C 802.593 429.582 802.715 429.488 802.785 429.364 C 802.854 429.24 802.865 429.096 802.816 428.965 Q 802.576 428.135 801.716 428.265 Q 789.096 430.155 781.446 441.225 Q 780.566 442.495 779.256 441.765 Q 777.766 438.975 779.026 436.825 Q 780.346 434.575 783.756 432.765 Q 791.846 428.745 800.026 427.075 Q 804.056 426.255 808.656 426.655 C 808.832 426.664 809.006 426.628 809.139 426.554 C 809.273 426.481 809.354 426.377 809.366 426.265 Q 809.376 425.635 807.786 424.805 Q 806.806 424.285 805.696 424.245 Q 792.876 423.715 781.466 430.475 Q 777.256 432.585 776.276 433.325 Q 769.046 438.815 760.966 442.975 Q 760.986 436.005 763.776 430.575 Q 764.916 428.355 767.716 426.805 L 779.926 423.265 Q 782.676 424.195 785.416 423.515 Q 788.136 422.845 788.176 422.835 Q 811.016 418.955 834.106 420.895 Q 835.786 421.035 836.726 421.525 Q 838.986 422.685 837.006 424.375 Q 836.236 425.025 834.906 425.505 Q 829.946 427.315 823.216 428.015 Q 814.446 428.935 801.696 432.705 Q 787.146 437.005 778.676 449.515 Z " fill="rgb(254,155,30)"/><path d=" M 770.256 488.765 Q 774.636 493.785 780.056 490.055 C 780.315 489.893 780.643 489.845 780.946 489.925 Q 782.236 490.415 783.166 491.425 C 783.294 491.465 783.446 491.435 783.526 491.355 Q 783.666 491.205 783.966 491.225 Q 790.996 497.135 799.216 501.225 L 798.526 501.865 C 798.512 502.06 798.2 502.241 797.716 502.335 L 781.716 503.555 Q 774.626 498.205 768.716 491.555 Q 770.286 490.695 770.256 488.765 Z " fill="rgb(254,155,30)"/><path d=" M 758.176 389.265 Q 756.316 389.705 755.266 391.315 Q 747.296 403.585 744.466 417.975 Q 741.856 429.565 744.286 441.205 Q 749.346 465.465 766.406 483.325 Q 767.376 484.345 770.256 488.765 Q 770.286 490.695 768.716 491.555 L 766.216 488.975 Q 757.136 479.305 748.566 469.175 Q 743.096 462.695 740.616 454.165 Q 740.406 453.465 740.236 454.175 Q 739.976 455.245 740.276 456.245 Q 742.316 463.225 744.176 470.265 Q 744.396 474.575 745.716 476.765 Q 748.086 480.715 750.256 484.765 Q 750.026 486.265 748.666 485.785 Q 745.306 484.565 741.716 484.555 L 740.716 483.725 Q 740.246 481.175 738.006 479.765 Q 737.526 477.145 735.966 474.975 Q 733.296 467.395 731.776 459.505 Q 723.946 418.645 749.656 387.955 Q 767.536 366.605 796.556 368.305 C 796.674 368.306 796.785 368.344 796.86 368.41 C 796.935 368.475 796.966 368.561 796.946 368.645 Q 796.916 368.875 796.656 368.955 Q 793.606 369.865 789.896 370.505 Q 784.536 371.425 783.106 371.815 Q 767.716 376.055 758.176 389.265 Z " fill="rgb(255,222,64)"/><path d=" M 786.216 521.975 Q 799.646 530.095 802.276 531.455 Q 815.226 538.135 822.086 542.865 Q 822.496 543.135 822.616 543.395 Q 822.916 544.015 821.756 544.015 Q 821.146 542.835 819.466 542.265 Q 812.426 539.885 797.776 534.205 Q 789.696 531.065 776.716 523.225 Q 777.176 522.645 778.716 522.515 Q 782.466 522.195 786.216 521.975 Z " fill="rgb(255,222,64)"/><path d=" M 826.216 401.805 Q 819.236 405.625 812.216 407.515 Q 804.806 409.515 793.196 411.915 Q 780.976 414.445 770.796 421.595 Q 768.436 423.255 766.716 425.555 Q 764.236 424.655 764.326 422.615 Q 764.386 421.395 765.766 419.725 Q 767.836 417.215 770.046 414.845 Q 770.556 414.295 770.786 413.655 Q 771.026 412.995 771.216 412.305 Q 781.306 402.675 795.216 403.265 Q 808.806 403.835 821.216 401.975 L 826.216 401.805 Z " fill="rgb(77,51,96)"/><path d=" M 862.756 408.765 Q 861.866 413.645 858.666 417.465 Q 856.646 419.875 854.926 422.515 Q 841.556 432.065 825.216 434.225 Q 817.096 435.205 808.966 436.015 Q 794.536 437.455 785.866 448.945 Q 785.176 449.865 784.426 450.765 Q 780.586 455.635 778.006 461.265 Q 777.866 460.085 778.006 458.915 Q 778.156 457.685 777.996 456.615 Q 777.446 453.005 778.676 449.515 Q 787.146 437.005 801.696 432.705 Q 814.446 428.935 823.216 428.015 Q 829.946 427.315 834.906 425.505 Q 836.236 425.025 837.006 424.375 Q 838.986 422.685 836.726 421.525 Q 835.786 421.035 834.106 420.895 Q 811.016 418.955 788.176 422.835 Q 788.136 422.845 785.416 423.515 Q 782.676 424.195 779.926 423.265 Q 793.626 418.445 803.716 416.015 Q 810.806 414.315 819.966 414.225 Q 825.296 414.615 837.966 414.515 Q 849.616 414.415 858.686 410.165 Q 858.706 410.165 860.406 408.935 Q 861.436 408.185 862.756 408.765 Z " fill="rgb(250,88,14)"/><path d=" M 783.756 432.765 Q 783.526 432.585 783.246 432.585 C 783.133 432.587 783.024 432.548 782.943 432.477 C 782.862 432.405 782.816 432.307 782.816 432.205 Q 782.796 430.875 781.466 430.475 Q 792.876 423.715 805.696 424.245 Q 806.806 424.285 807.786 424.805 Q 809.376 425.635 809.366 426.265 C 809.354 426.377 809.273 426.481 809.139 426.554 C 809.006 426.628 808.832 426.664 808.656 426.655 Q 804.056 426.255 800.026 427.075 Q 791.846 428.745 783.756 432.765 Z " fill="rgb(250,88,14)"/><path d=" M 820.966 544.475 L 815.636 545.455 Q 814.786 545.615 815.506 546.065 Q 824.666 551.795 833.966 554.265 Q 844.316 557.005 856.016 564.095 C 856.282 564.117 856.504 564.221 856.587 564.364 C 856.67 564.507 856.6 564.663 856.406 564.765 Q 856.276 565.025 855.656 564.825 Q 843.756 561.055 831.736 557.705 Q 819.926 554.425 809.216 548.475 L 797.766 541.445 Q 796.186 540.475 798.066 540.275 Q 800.816 539.975 804.036 540.695 Q 812.506 542.565 820.966 544.475 Z " fill="rgb(241,141,26)"/><path d=" M 766.216 488.975 L 768.716 491.555 Q 774.626 498.205 781.716 503.555 Q 778.606 505.455 775.136 504.475 C 774.814 504.371 774.547 504.164 774.386 503.895 Q 770.246 497.255 766.156 490.575 Q 765.646 489.745 766.216 488.975 Z " fill="rgb(204,49,32)"/><path d=" M 852.176 379.265 L 845.966 379.805 Q 845.456 378.945 845.966 378.055 Q 847.256 376.725 846.936 375.025 Q 846.656 373.565 846.646 373.485 Q 846.046 367.535 842.756 364.105 Q 840.786 362.045 843.266 363.445 Q 850.996 367.805 852.696 376.515 Q 852.986 378.015 852.176 379.265 Z " fill="rgb(254,122,30)"/><path d=" M 838.006 367.015 Q 842.666 369.535 843.756 374.765 Q 843.706 378.245 841.216 380.725 L 840.966 380.805 Q 838.906 380.485 837.396 381.745 C 837.153 381.939 836.852 382.074 836.526 382.135 Q 833.866 382.485 830.906 383.955 Q 830.146 384.325 829.616 383.945 C 829.458 383.861 829.36 383.723 829.354 383.572 C 829.348 383.422 829.434 383.278 829.586 383.185 Q 830.736 381.635 830.966 379.725 Q 832.536 379.925 834.006 381.285 C 834.362 381.609 834.84 381.763 835.317 381.708 C 835.795 381.652 836.225 381.392 836.496 380.995 Q 837.886 378.955 839.236 379.115 C 839.616 379.163 839.999 379.053 840.295 378.811 C 840.592 378.569 840.777 378.216 840.806 377.835 Q 841.256 371.955 838.466 368.265 Q 837.936 367.565 838.006 367.015 Z " fill="rgb(254,122,30)"/><path d=" M 767.216 457.975 L 763.426 459.015 Q 760.816 452.135 760.756 444.765 L 769.436 441.185 Q 771.996 440.135 770.436 442.405 Q 765.546 449.515 767.216 457.975 Z " fill="rgb(254,122,30)"/><path d=" M 712.216 478.555 Q 700.646 481.395 689.166 484.565 Q 674.376 488.645 664.026 496.075 Q 658.846 499.795 660.966 504.425 Q 662.236 507.215 666.246 509.845 Q 671.486 513.275 677.706 514.805 Q 698.586 519.955 719.966 522.475 Q 715.476 522.675 711.036 522.185 Q 702.936 521.295 702.736 521.275 Q 683.426 519.585 667.216 512.765 Q 663.946 511.395 660.526 507.455 Q 658.296 504.885 658.736 501.605 Q 659.076 499.005 661.376 496.605 Q 664.146 493.715 668.276 491.575 Q 681.796 484.575 695.416 481.595 Q 695.606 481.555 703.006 479.615 Q 707.496 478.435 712.216 478.555 Z " fill="rgb(109,67,22)"/><path d=" M 756.006 393.265 Q 756.326 393.945 757.216 393.805 Q 746.946 410.005 749.586 429.225 Q 749.906 431.565 750.156 433.915 Q 750.226 434.605 750.516 435.025 Q 751.346 436.235 751.826 434.585 Q 751.966 434.115 751.846 433.445 Q 751.486 431.435 751.216 426.265 Q 751.066 423.395 753.256 423.515 L 753.176 424.765 Q 752.746 431.455 753.656 438.115 Q 753.706 438.445 753.646 438.905 Q 753.506 440.065 754.426 439.515 Q 753.586 447.805 758.506 454.515 L 759.006 457.225 C 759.093 457.346 759.107 457.491 759.046 457.62 C 758.984 457.749 758.853 457.85 758.686 457.895 L 756.966 458.305 Q 747.236 440.165 747.176 419.515 Q 747.396 412.815 749.766 406.575 Q 752.376 399.685 756.006 393.265 Z " fill="rgb(169,50,50)"/><path d=" M 862.756 408.765 Q 861.436 408.185 860.406 408.935 Q 858.706 410.165 858.686 410.165 Q 849.616 414.415 837.966 414.515 Q 825.296 414.615 819.966 414.225 Q 820.766 413.775 820.966 413.765 Q 827.136 413.495 833.306 413.365 Q 842.076 413.175 845.566 412.325 Q 857.946 409.315 864.716 397.695 Q 864.976 397.265 865.026 397.765 Q 865.706 403.635 862.756 408.765 Z " fill="rgb(107,49,46)"/><path d=" M 854.926 422.515 Q 846.336 431.175 837.026 436.075 Q 824.146 442.865 810.966 446.015 Q 801.086 448.375 793.246 451.395 Q 792.886 451.535 792.436 451.945 Q 791.326 452.965 789.716 452.225 Q 796.526 446.855 806.216 445.015 Q 813.656 443.605 825.316 439.965 Q 831.226 438.125 834.156 435.955 Q 836.356 434.315 834.226 433.875 Q 833.616 433.745 832.716 433.925 Q 828.996 434.675 825.216 434.225 Q 841.556 432.065 854.926 422.515 Z " fill="rgb(107,49,46)"/><path d=" M 784.426 450.765 Q 784.496 455.885 788.716 453.055 Q 782.986 458.185 778.906 465.955 Q 777.446 468.725 779.206 469.905 Q 780.116 470.515 782.346 470.495 Q 790.406 470.395 798.466 470.725 L 777.016 471.015 C 776.733 471.021 776.493 470.807 776.466 470.525 Q 775.966 465.705 778.006 461.265 Q 780.586 455.635 784.426 450.765 Z " fill="rgb(107,49,46)"/><path d=" M 814.256 359.765 Q 826.096 363.915 832.006 375.015 L 831.976 375.235 Q 831.926 375.505 831.826 375.245 Q 831.026 373.355 830.186 374.815 Q 830.106 374.965 830.006 375.755 L 829.566 379.475 C 829.644 379.77 829.425 380.066 829.006 380.235 Q 825.776 382.465 821.716 382.225 Q 821.366 381.945 821.276 381.565 C 820.968 381.276 821.105 380.903 821.596 380.695 Q 823.356 378.565 824.526 376.045 Q 825.726 373.435 824.336 370.925 Q 822.666 367.915 820.026 365.705 Q 818.496 364.425 814.256 359.765 Z " fill="rgb(255,88,18)"/><path d=" M 823.466 399.555 Q 821.786 399.685 821.866 401.345 C 821.902 401.523 821.757 401.694 821.526 401.745 Q 821.346 401.815 821.216 401.975 Q 808.806 403.835 795.216 403.265 Q 781.306 402.675 771.216 412.305 Q 768.416 414.855 765.686 417.485 Q 756.296 426.545 754.426 439.515 Q 753.506 440.065 753.646 438.905 Q 753.706 438.445 753.656 438.115 Q 752.746 431.455 753.176 424.765 Q 753.046 425.585 753.206 425.775 C 753.545 425.845 753.962 425.782 754.139 425.636 C 754.316 425.49 754.185 425.315 753.846 425.245 Q 757.496 416.585 764.626 410.425 Q 779.286 397.775 799.966 399.765 Q 808.926 400.625 823.466 399.555 Z " fill="rgb(255,88,18)"/><path d=" M 777.716 483.475 Q 778.626 483.845 782.216 484.015 Q 801.356 484.935 820.466 486.225 Q 828.516 486.765 836.156 489.305 Q 838.836 490.195 839.866 491.395 Q 841.676 493.525 839.066 494.535 Q 832.796 496.945 826.816 498.025 Q 814.686 500.205 802.456 501.705 Q 800.766 501.915 799.216 501.225 Q 790.996 497.135 783.966 491.225 L 776.676 484.765 Q 776.806 483.855 777.716 483.475 Z " fill="rgb(30,17,38)"/><path d=" M 840.966 380.805 L 841.216 380.725 Q 842.326 381.635 843.716 381.975 Q 842.966 382.095 841.906 382.955 Q 831.386 391.485 817.216 391.135 Q 807.596 390.895 797.966 390.475 Q 800.366 387.905 803.966 387.725 L 814.156 386.635 C 814.276 386.629 814.392 386.673 814.475 386.756 C 814.558 386.839 814.598 386.952 814.586 387.065 Q 814.496 388.495 815.916 388.405 Q 817.126 388.325 817.526 388.375 Q 824.036 389.145 829.856 386.625 Q 832.906 385.305 835.586 384.105 Q 838.466 382.815 840.966 380.805 Z " fill="rgb(190,73,34)"/><path d=" M 758.506 454.515 Q 759.606 458.735 763.006 461.285 C 763.538 461.486 763.739 461.794 763.516 462.065 Q 763.806 462.785 764.716 462.725 Q 767.656 468.945 771.746 474.435 Q 773.786 477.185 774.846 478.875 Q 776.286 481.165 777.716 483.475 Q 776.806 483.855 776.676 484.765 Q 764.216 473.495 756.966 458.305 L 758.686 457.895 C 758.853 457.85 758.984 457.749 759.046 457.62 C 759.107 457.491 759.093 457.346 759.006 457.225 L 758.506 454.515 Z " fill="rgb(138,41,42)"/><path d=" M 754.716 486.475 Q 762.326 493.815 768.716 502.255 Q 769.756 503.635 771.596 504.625 Q 772.166 504.925 771.526 504.985 Q 769.416 505.175 767.756 504.515 Q 760.036 496.215 753.716 486.805 L 754.716 486.475 Z " fill="rgb(138,41,42)"/><path d=" M 752.466 485.725 L 753.716 486.805 Q 760.036 496.215 767.756 504.515 Q 761.376 505.875 755.006 504.515 Q 748.796 497.425 743.676 489.515 Q 745.106 489.125 746.436 488.465 Q 747.426 487.985 749.166 487.565 Q 751.006 487.115 752.466 485.725 Z " fill="rgb(250,206,55)"/><path d=" M 744.466 417.975 Q 746.446 417.715 747.176 419.515 Q 747.236 440.165 756.966 458.305 Q 764.216 473.495 776.676 484.765 L 783.966 491.225 Q 783.666 491.205 783.526 491.355 C 783.446 491.435 783.294 491.465 783.166 491.425 Q 782.236 490.415 780.946 489.925 C 780.643 489.845 780.315 489.893 780.056 490.055 Q 774.636 493.785 770.256 488.765 Q 767.376 484.345 766.406 483.325 Q 749.346 465.465 744.286 441.205 Q 741.856 429.565 744.466 417.975 Z " fill="rgb(254,138,28)"/><path d=" M 812.756 353.265 Q 825.606 356.685 835.466 365.555 Q 837.436 368.555 838.806 371.865 Q 839.546 373.665 838.816 375.985 C 838.774 376.077 838.689 376.148 838.583 376.179 C 838.477 376.209 838.361 376.197 838.266 376.145 L 835.966 374.725 L 835.586 374.215 C 835.404 374.026 835.095 373.983 834.856 374.115 Q 833.556 374.915 832.006 375.015 Q 826.096 363.915 814.256 359.765 L 809.466 357.305 L 812.756 353.265 Z " fill="rgb(245,150,27)"/><path d=" M 823.966 526.725 Q 811.016 525.025 798.426 521.515 Q 798.786 520.615 799.756 520.645 Q 800.946 520.675 801.186 520.635 Q 804.016 520.155 805.216 520.265 Q 813.336 520.985 823.216 524.015 Q 825.856 524.825 823.966 526.725 Z " fill="rgb(245,150,27)"/><path d=" M 778.756 444.765 L 779.256 441.765 Q 780.566 442.495 781.446 441.225 Q 789.096 430.155 801.716 428.265 Q 802.576 428.135 802.816 428.965 C 802.865 429.096 802.854 429.24 802.785 429.364 C 802.715 429.488 802.593 429.582 802.446 429.625 Q 789.616 434.375 780.776 443.075 Q 779.296 444.535 778.756 444.765 Z " fill="rgb(254,126,18)"/><path d=" M 778.676 449.515 Q 777.446 453.005 777.996 456.615 Q 778.156 457.685 778.006 458.915 Q 777.866 460.085 778.006 461.265 Q 775.966 465.705 776.466 470.525 C 776.493 470.807 776.733 471.021 777.016 471.015 L 798.466 470.725 Q 826.046 470.225 853.216 474.805 Q 865.366 477.325 876.896 481.835 Q 881.556 483.655 885.016 487.085 Q 886.746 488.795 887.166 490.475 Q 887.746 492.775 886.406 494.705 Q 884.366 497.635 880.916 499.885 Q 879.266 500.955 874.386 503.515 Q 870.406 505.585 866.216 507.225 Q 843.846 515.295 821.126 518.465 Q 819.126 518.735 821.016 519.445 Q 828.466 522.245 834.776 525.735 Q 836.676 526.785 834.516 526.985 Q 829.066 527.505 823.966 526.725 Q 825.856 524.825 823.216 524.015 Q 813.336 520.985 805.216 520.265 Q 804.016 520.155 801.186 520.635 Q 800.946 520.675 799.756 520.645 Q 798.786 520.615 798.426 521.515 Q 796.456 520.995 794.466 521.235 Q 790.356 521.715 786.216 521.975 Q 782.466 522.195 778.716 522.515 Q 777.176 522.645 776.716 523.225 Q 748.326 524.485 719.966 522.475 Q 698.586 519.955 677.706 514.805 Q 671.486 513.275 666.246 509.845 Q 662.236 507.215 660.966 504.425 Q 658.846 499.795 664.026 496.075 Q 674.376 488.645 689.166 484.565 Q 700.646 481.395 712.216 478.555 L 735.966 474.975 Q 737.526 477.145 738.006 479.765 L 733.466 480.225 Q 719.356 481.455 705.616 484.755 Q 697.336 486.735 693.836 487.875 Q 688.016 489.765 682.616 492.745 Q 679.706 494.355 678.026 496.325 Q 675.636 499.145 677.336 502.675 Q 678.626 505.345 681.296 506.675 Q 687.046 509.555 693.316 511.055 Q 706.366 514.155 719.736 515.335 Q 749.316 517.945 778.976 517.135 Q 789.606 516.845 798.916 515.745 Q 828.346 512.285 856.716 503.505 Q 865.826 500.685 873.026 495.825 Q 875.016 494.485 875.616 492.005 C 875.699 491.687 875.664 491.352 875.516 491.055 Q 873.996 487.685 870.716 486.265 Q 862.726 482.795 853.196 480.885 Q 839.336 478.105 825.226 477.295 Q 816.356 476.785 807.466 476.475 L 786.716 476.305 L 776.656 476.265 Q 775.166 476.255 775.986 477.515 Q 776.976 479.045 779.216 479.085 Q 782.966 479.175 786.716 479.225 L 807.676 480.015 Q 823.866 481.345 826.966 481.765 Q 833.136 482.595 839.046 484.535 Q 843.486 485.985 846.186 489.305 Q 848.176 491.755 846.166 494.185 Q 842.506 498.625 837.036 500.485 Q 825.556 504.385 813.566 506.315 Q 771.816 513.045 729.716 509.005 Q 720.356 508.095 712.006 504.105 Q 708.636 502.495 707.066 500.575 Q 704.236 497.105 706.726 493.855 Q 708.376 491.705 713.026 489.875 Q 723.506 485.735 734.716 483.975 L 740.716 483.725 L 741.716 484.555 Q 743.056 486.625 743.006 489.015 Q 735.576 491.665 727.986 493.845 Q 722.726 495.355 719.876 497.635 Q 717.696 499.385 720.366 500.185 Q 729.786 503.015 738.456 503.625 Q 746.576 504.185 754.676 504.935 C 754.82 504.942 754.948 504.857 754.976 504.735 L 755.006 504.515 Q 761.376 505.875 767.756 504.515 Q 769.416 505.175 771.526 504.985 Q 772.166 504.925 771.596 504.625 Q 769.756 503.635 768.716 502.255 Q 762.326 493.815 754.716 486.475 Q 751.016 481.575 747.276 474.205 Q 746.436 472.535 746.256 471.205 Q 746.136 470.275 745.926 469.905 Q 745.086 468.435 744.176 470.265 Q 742.316 463.225 740.276 456.245 Q 739.976 455.245 740.236 454.175 Q 740.406 453.465 740.616 454.165 Q 743.096 462.695 748.566 469.175 Q 757.136 479.305 766.216 488.975 Q 765.646 489.745 766.156 490.575 Q 770.246 497.255 774.386 503.895 C 774.547 504.164 774.814 504.371 775.136 504.475 Q 778.606 505.455 781.716 503.555 L 797.716 502.335 C 798.2 502.241 798.512 502.06 798.526 501.865 L 799.216 501.225 Q 800.766 501.915 802.456 501.705 Q 814.686 500.205 826.816 498.025 Q 832.796 496.945 839.066 494.535 Q 841.676 493.525 839.866 491.395 Q 838.836 490.195 836.156 489.305 Q 828.516 486.765 820.466 486.225 Q 801.356 484.935 782.216 484.015 Q 778.626 483.845 777.716 483.475 Q 776.286 481.165 774.846 478.875 Q 773.786 477.185 771.746 474.435 Q 767.656 468.945 764.716 462.725 L 763.426 459.015 L 767.216 457.975 Q 769.666 462.445 772.116 457.935 Q 774.346 453.815 776.676 449.765 Q 777.806 451.005 778.676 449.515 Z " fill="rgb(254,106,14)"/><path d=" M 741.716 484.555 Q 745.306 484.565 748.666 485.785 Q 750.026 486.265 750.256 484.765 Q 751.606 484.805 752.466 485.725 Q 751.006 487.115 749.166 487.565 Q 747.426 487.985 746.436 488.465 Q 745.106 489.125 743.676 489.515 L 743.006 489.015 Q 743.056 486.625 741.716 484.555 Z " fill="rgb(244,182,47)"/><path d=" M 786.716 476.305 Q 784.366 478.035 786.716 479.225 Q 782.966 479.175 779.216 479.085 Q 776.976 479.045 775.986 477.515 Q 775.166 476.255 776.656 476.265 L 786.716 476.305 Z " fill="rgb(252,224,117)"/><path d=" M 738.006 479.765 Q 740.246 481.175 740.716 483.725 L 734.716 483.975 Q 734.256 482.125 734.466 481.265 Q 734.776 479.985 733.466 480.225 L 738.006 479.765 Z " fill="rgb(252,224,117)"/><path d=" M 743.006 489.015 L 743.676 489.515 Q 748.796 497.425 755.006 504.515 L 754.976 504.735 C 754.948 504.857 754.82 504.942 754.676 504.935 Q 746.576 504.185 738.456 503.625 Q 729.786 503.015 720.366 500.185 Q 717.696 499.385 719.876 497.635 Q 722.726 495.355 727.986 493.845 Q 735.576 491.665 743.006 489.015 Z " fill="rgb(31,23,45)"/><path d=" M 820.716 368.815 Q 822.446 370.315 822.856 372.485 Q 823.216 374.355 822.116 376.375 Q 819.666 380.915 814.716 382.015 Q 801.586 384.925 781.766 387.145 Q 781.276 387.205 781.596 386.805 Q 785.466 382.015 789.026 380.575 Q 797.766 377.065 806.626 373.865 Q 812.346 371.805 814.726 366.025 C 814.904 365.6 815.389 365.388 815.826 365.545 Q 817.266 366.085 818.426 366.965 Q 819.776 367.995 820.716 368.815 Z " fill="rgb(255,92,19)"/></g></g></svg>