<?xml version="1.0" encoding="UTF-8" standalone="no"?><!-- Generator: Gravit.io --><svg xmlns="http://www.w3.org/2000/svg" xmlns:xlink="http://www.w3.org/1999/xlink" style="isolation:isolate" viewBox="183.096 234.625 169.012 172.558" width="169.012pt" height="172.558pt"><defs><clipPath id="_clipPath_NMT9wO0REkRyoQz7TXPE5Dm1SShxUQbF"><rect x="183.096" y="234.625" width="169.012" height="172.558"/></clipPath></defs><g clip-path="url(#_clipPath_NMT9wO0REkRyoQz7TXPE5Dm1SShxUQbF)"><path d=" M 303.481 251.529 Q 298.741 259.719 291.151 264.809 Q 289.371 265.999 288.671 267.619 Q 286.691 268.039 287.121 271.339 C 287.2 271.971 287.776 272.427 288.421 272.369 Q 289.691 272.249 290.921 272.429 Q 291.881 272.569 293.251 273.259 Q 303.181 278.339 314.411 277.829 C 314.73 277.809 315.028 277.668 315.241 277.439 Q 318.621 273.679 320.211 268.829 Q 323.301 269.809 324.831 272.379 Q 326.421 275.029 326.461 275.079 Q 330.251 280.289 334.371 286.529 Q 334.781 287.149 335.421 287.499 Q 338.641 289.279 336.801 292.749 C 336.74 292.858 336.734 292.988 336.785 293.102 C 336.836 293.215 336.938 293.299 337.061 293.329 Q 342.851 294.799 341.401 300.849 C 341.356 301.046 341.393 301.252 341.502 301.421 C 341.611 301.59 341.784 301.709 341.981 301.749 Q 346.461 302.599 346.371 307.019 Q 346.311 310.199 346.311 310.209 Q 346.841 313.469 350.151 315.179 Q 353.511 316.919 351.101 319.399 Q 348.761 332.679 343.861 344.549 C 343.502 345.412 343.466 346.373 343.761 347.259 Q 345.071 351.259 341.931 353.979 C 341.388 354.397 341.201 355.101 341.471 355.709 L 345.151 364.799 Q 346.211 367.409 343.511 367.789 Q 340.191 368.259 336.971 368.169 Q 334.301 368.099 336.021 369.589 C 336.597 370.082 336.766 370.901 336.431 371.579 Q 333.131 378.429 326.941 380.699 C 326.655 380.806 326.465 381.071 326.461 381.369 Q 326.371 383.629 324.531 384.659 Q 322.961 385.549 322.861 385.619 Q 316.251 390.299 308.791 393.469 Q 306.001 394.649 302.591 397.419 Q 300.951 398.749 299.471 397.239 Q 298.361 396.089 295.991 396.459 Q 294.541 396.689 294.421 396.709 Q 287.571 397.499 280.411 400.069 C 279.518 400.442 278.866 401.016 278.581 401.679 L 275.601 406.429 C 275.086 407.09 274.135 407.354 273.291 407.069 Q 266.711 404.419 262.921 398.369 Q 262.271 395.439 259.401 393.679 Q 257.731 392.659 256.481 390.849 Q 255.351 389.219 255.041 387.159 Q 253.991 380.039 261.461 378.869 Q 266.491 378.079 268.631 381.779 Q 270.171 384.429 269.761 387.649 Q 269.341 390.919 266.791 393.289 C 266.46 393.598 266.367 394.082 266.561 394.489 Q 268.811 399.349 273.041 402.099 C 273.28 402.247 273.596 402.195 273.771 401.979 Q 274.611 400.879 275.141 399.589 Q 275.741 398.129 275.401 396.459 Q 274.591 392.599 272.041 389.499 C 271.953 389.418 271.917 389.299 271.946 389.187 C 271.974 389.074 272.064 388.984 272.181 388.949 Q 275.061 388.009 277.061 390.049 C 277.371 390.292 277.515 390.61 277.461 390.929 Q 277.851 393.249 279.771 394.389 C 280.054 394.511 280.386 394.522 280.681 394.419 Q 286.551 391.979 292.911 391.579 C 293.236 391.557 293.548 391.446 293.811 391.259 L 296.871 388.989 C 297.115 388.812 297.442 388.777 297.721 388.899 L 299.771 389.889 C 300.042 390.023 300.364 390.008 300.621 389.849 Q 303.741 387.859 307.901 386.669 C 308.18 386.592 308.412 386.4 308.538 386.142 C 308.665 385.883 308.673 385.584 308.561 385.319 Q 307.381 382.489 306.311 379.969 Q 305.941 379.109 305.941 378.579 Q 305.941 377.439 307.021 377.359 Q 307.811 377.299 308.591 377.999 Q 310.751 379.929 311.791 383.109 C 311.865 383.325 312.041 383.49 312.263 383.552 C 312.485 383.614 312.723 383.564 312.901 383.419 Q 317.571 379.459 323.301 377.579 C 323.604 377.472 323.824 377.229 323.881 376.939 Q 324.771 373.289 328.461 375.119 Q 329.451 375.609 330.101 375.199 C 330.251 375.128 330.343 374.997 330.343 374.856 C 330.343 374.714 330.251 374.582 330.101 374.509 Q 326.651 370.819 329.031 366.609 Q 330.501 364.009 330.561 363.889 Q 332.431 359.799 334.031 355.589 C 334.158 355.309 334.09 354.983 333.861 354.769 Q 331.351 352.369 327.901 351.679 Q 325.551 351.209 326.861 349.719 C 327.075 349.496 327.374 349.354 327.701 349.319 Q 330.771 349.049 334.001 350.529 C 334.248 350.64 334.53 350.642 334.778 350.536 C 335.027 350.429 335.22 350.224 335.311 349.969 Q 338.501 341.099 339.011 332.059 Q 339.131 329.789 337.041 330.679 Q 331.441 333.049 327.081 329.209 C 326.814 328.992 326.688 328.68 326.741 328.369 Q 326.751 326.969 326.211 324.869 Q 324.811 319.449 328.571 316.089 Q 330.331 314.509 332.921 314.669 Q 336.251 314.879 339.331 316.339 C 339.614 316.447 339.939 316.492 340.261 316.469 Q 341.711 316.079 341.151 314.429 Q 338.451 306.539 333.861 297.519 Q 332.851 295.539 331.011 294.299 C 330.516 293.973 329.855 294.058 329.461 294.499 Q 327.561 296.649 326.651 299.469 Q 326.021 301.419 325.061 303.199 Q 324.141 304.899 322.431 306.169 Q 318.521 309.049 314.051 310.999 Q 310.661 312.479 309.521 314.179 Q 303.241 323.599 293.351 329.379 Q 294.131 324.579 292.731 320.239 Q 291.261 315.639 287.501 313.289 Q 284.091 311.159 279.921 311.279 Q 276.011 311.389 272.901 313.799 Q 268.221 317.439 267.771 323.429 Q 267.231 330.779 273.151 336.809 Q 266.651 338.409 261.471 341.639 Q 252.491 347.249 242.021 345.059 Q 235.551 343.699 230.111 344.329 Q 227.611 344.619 226.291 344.459 Q 224.111 344.189 222.521 343.559 Q 215.631 340.799 210.921 339.799 Q 209.411 339.479 207.881 339.809 Q 206.531 340.099 207.401 339.019 Q 208.991 337.059 210.211 334.619 Q 211.161 332.719 209.421 331.119 Q 209.291 330.099 210.021 329.679 Q 220.171 323.899 215.401 312.929 Q 214.071 309.879 210.501 307.369 Q 208.661 306.069 207.141 306.379 Q 205.121 306.779 204.211 309.159 Q 199.201 309.599 194.351 308.689 Q 197.631 306.629 198.021 302.429 Q 198.281 299.639 201.211 299.369 Q 202.971 299.209 204.461 298.329 Q 205.711 298.329 206.621 297.479 C 206.827 297.295 207.134 297.259 207.381 297.389 Q 210.821 299.459 214.671 298.449 C 215.001 298.337 215.275 298.144 215.451 297.899 Q 216.711 296.299 218.511 295.339 C 218.826 295.2 219.02 294.925 219.011 294.629 Q 219.081 293.259 218.261 292.039 C 218.032 291.706 217.966 291.288 218.08 290.901 C 218.195 290.514 218.477 290.198 218.851 290.039 Q 220.681 289.249 222.761 290.149 C 223.04 290.251 223.361 290.225 223.611 290.079 Q 225.331 288.689 222.871 287.829 C 222.537 287.717 222.279 287.499 222.161 287.229 Q 221.511 285.789 222.351 284.459 C 222.629 284.215 222.681 283.87 222.481 283.589 L 219.001 275.629 C 218.707 275.346 218.662 274.993 218.881 274.689 Q 219.391 272.769 220.991 273.549 C 221.804 273.946 222.418 274.658 222.691 275.519 Q 223.761 278.869 226.481 278.869 Q 228.111 278.869 227.061 277.679 L 221.741 271.649 Q 220.411 270.149 219.281 271.919 Q 218.151 273.679 217.611 275.639 Q 217.091 277.479 218.011 279.479 Q 219.161 282.009 220.631 284.379 C 220.806 284.624 220.772 284.952 220.551 285.159 Q 217.831 287.819 214.251 287.459 Q 212.351 287.269 209.781 285.769 Q 207.691 284.549 205.741 283.109 Q 204.721 282.359 203.231 282.369 C 202.926 282.38 202.686 282.625 202.691 282.919 L 202.671 286.369 Q 201.441 283.369 201.181 279.639 Q 201.031 277.519 203.001 276.739 Q 205.021 275.949 207.121 276.079 Q 208.981 276.199 210.061 274.679 Q 216.051 266.249 225.551 261.149 C 225.824 261.003 225.985 260.709 225.961 260.399 Q 225.751 257.499 227.681 254.999 Q 230.241 253.589 232.401 254.179 Q 235.721 255.089 238.411 255.219 Q 240.611 255.319 243.751 253.929 Q 250.201 251.059 254.461 250.869 Q 258.991 250.669 263.621 249.839 Q 265.841 249.439 267.071 247.539 Q 270.811 241.739 275.981 236.859 Q 277.881 235.059 279.151 234.729 Q 281.061 234.239 282.231 236.049 Q 282.731 236.819 283.231 238.929 Q 284.351 243.609 286.231 247.959 C 286.346 248.226 286.659 248.359 286.941 248.259 Q 291.981 246.269 295.301 249.589 Q 296.591 250.869 298.231 250.079 Q 301.031 248.739 303.481 251.529 Z " fill="rgb(255,112,46)"/><path d=" M 262.921 398.369 L 259.461 398.829 Q 259.741 397.789 258.501 397.379 Q 254.131 395.909 249.641 394.839 Q 249.561 394.819 247.851 394.219 Q 246.381 393.709 243.711 393.619 Q 237.161 393.409 231.101 388.449 C 230.86 388.255 230.778 387.93 230.901 387.649 Q 232.261 384.249 232.481 380.269 Q 232.611 378.029 231.271 379.689 L 228.421 383.219 C 227.484 383.921 227.445 385 228.331 385.749 Q 229.281 387.919 226.881 386.749 C 226.534 386.601 226.127 386.705 225.901 386.999 L 223.171 390.619 Q 222.341 390.409 221.921 389.619 L 224.961 385.779 C 225.171 385.618 225.293 385.391 225.296 385.152 C 225.3 384.912 225.186 384.683 224.981 384.519 Q 216.391 375.909 210.771 366.039 C 210.609 365.833 210.348 365.713 210.073 365.719 C 209.798 365.725 209.543 365.856 209.391 366.069 L 207.501 368.869 L 206.961 368.079 L 208.631 364.979 C 208.771 364.734 209.052 364.553 209.391 364.489 Q 212.881 363.929 212.911 360.429 C 212.991 360.122 212.823 359.81 212.491 359.649 Q 211.251 359.039 209.261 360.619 C 208.901 360.903 208.436 361.018 207.984 360.934 C 207.533 360.849 207.141 360.574 206.911 360.179 Q 204.251 355.569 203.111 349.639 Q 202.431 346.099 205.151 342.679 C 205.369 342.404 205.43 342.035 205.313 341.704 C 205.195 341.372 204.914 341.125 204.571 341.049 Q 203.851 340.899 203.671 339.589 Q 203.101 335.539 205.961 332.659 Q 207.101 330.699 209.421 331.119 Q 211.161 332.719 210.211 334.619 Q 208.991 337.059 207.401 339.019 Q 206.531 340.099 207.881 339.809 Q 209.411 339.479 210.921 339.799 Q 215.631 340.799 222.521 343.559 Q 224.111 344.189 226.291 344.459 Q 227.611 344.619 230.111 344.329 Q 235.551 343.699 242.021 345.059 Q 252.491 347.249 261.471 341.639 Q 266.651 338.409 273.151 336.809 Q 286.121 340.839 293.351 329.379 Q 303.241 323.599 309.521 314.179 Q 310.661 312.479 314.051 310.999 Q 318.521 309.049 322.431 306.169 Q 324.141 304.899 325.061 303.199 Q 326.021 301.419 326.651 299.469 Q 327.561 296.649 329.461 294.499 C 329.855 294.058 330.516 293.973 331.011 294.299 Q 332.851 295.539 333.861 297.519 Q 338.451 306.539 341.151 314.429 Q 341.711 316.079 340.261 316.469 C 339.939 316.492 339.614 316.447 339.331 316.339 Q 336.251 314.879 332.921 314.669 Q 330.331 314.509 328.571 316.089 Q 324.811 319.449 326.211 324.869 Q 326.751 326.969 326.741 328.369 C 326.688 328.68 326.814 328.992 327.081 329.209 Q 331.441 333.049 337.041 330.679 Q 339.131 329.789 339.011 332.059 Q 338.501 341.099 335.311 349.969 C 335.22 350.224 335.027 350.429 334.778 350.536 C 334.53 350.642 334.248 350.64 334.001 350.529 Q 330.771 349.049 327.701 349.319 C 327.374 349.354 327.075 349.496 326.861 349.719 Q 325.551 351.209 327.901 351.679 Q 331.351 352.369 333.861 354.769 C 334.09 354.983 334.158 355.309 334.031 355.589 Q 332.431 359.799 330.561 363.889 Q 330.501 364.009 329.031 366.609 Q 326.651 370.819 330.101 374.509 C 330.251 374.582 330.343 374.714 330.343 374.856 C 330.343 374.997 330.251 375.128 330.101 375.199 Q 329.451 375.609 328.461 375.119 Q 324.771 373.289 323.881 376.939 C 323.824 377.229 323.604 377.472 323.301 377.579 Q 317.571 379.459 312.901 383.419 C 312.723 383.564 312.485 383.614 312.263 383.552 C 312.041 383.49 311.865 383.325 311.791 383.109 Q 310.751 379.929 308.591 377.999 Q 307.811 377.299 307.021 377.359 Q 305.941 377.439 305.941 378.579 Q 305.941 379.109 306.311 379.969 Q 307.381 382.489 308.561 385.319 C 308.673 385.584 308.665 385.883 308.538 386.142 C 308.412 386.4 308.18 386.592 307.901 386.669 Q 303.741 387.859 300.621 389.849 C 300.364 390.008 300.042 390.023 299.771 389.889 L 297.721 388.899 C 297.442 388.777 297.115 388.812 296.871 388.989 L 293.811 391.259 C 293.548 391.446 293.236 391.557 292.911 391.579 Q 286.551 391.979 280.681 394.419 C 280.386 394.522 280.054 394.511 279.771 394.389 Q 277.851 393.249 277.461 390.929 C 277.515 390.61 277.371 390.292 277.061 390.049 Q 275.061 388.009 272.181 388.949 C 272.064 388.984 271.974 389.074 271.946 389.187 C 271.917 389.299 271.953 389.418 272.041 389.499 Q 274.591 392.599 275.401 396.459 Q 275.741 398.129 275.141 399.589 Q 274.611 400.879 273.771 401.979 C 273.596 402.195 273.28 402.247 273.041 402.099 Q 268.811 399.349 266.561 394.489 C 266.367 394.082 266.46 393.598 266.791 393.289 Q 269.341 390.919 269.761 387.649 Q 270.171 384.429 268.631 381.779 Q 266.491 378.079 261.461 378.869 Q 253.991 380.039 255.041 387.159 Q 255.351 389.219 256.481 390.849 Q 257.731 392.659 259.401 393.679 Q 262.271 395.439 262.921 398.369 Z " fill="rgb(149,25,53)"/><path d=" M 194.351 308.689 Q 199.201 309.599 204.211 309.159 Q 209.941 310.409 210.901 315.009 Q 211.781 319.219 208.731 322.019 Q 205.421 325.059 199.951 322.569 Q 194.901 320.279 191.171 316.569 Q 190.351 315.769 191.441 316.109 Q 197.831 318.129 204.181 320.199 Q 205.811 320.729 206.771 320.329 Q 208.371 319.659 208.061 317.549 Q 207.681 314.989 205.151 314.449 Q 196.031 312.469 187.841 309.439 Q 191.031 308.509 194.351 308.689 Z " fill="rgb(254,189,37)"/><path d=" M 320.411 261.549 Q 319.211 265.509 320.211 268.829 Q 318.621 273.679 315.241 277.439 C 315.028 277.668 314.73 277.809 314.411 277.829 Q 303.181 278.339 293.251 273.259 Q 291.881 272.569 290.921 272.429 Q 289.691 272.249 288.421 272.369 C 287.776 272.427 287.2 271.971 287.121 271.339 Q 286.691 268.039 288.671 267.619 Q 289.131 270.639 291.671 269.979 Q 293.301 269.559 293.421 269.539 Q 294.981 269.269 296.511 268.869 Q 297.711 268.549 299.601 268.479 Q 303.481 268.349 306.371 265.529 Q 310.551 261.459 313.621 256.499 Q 313.941 255.999 314.281 255.719 Q 315.801 254.499 315.211 256.869 Q 313.761 262.689 310.041 270.479 Q 309.731 271.149 308.941 271.879 Q 308.441 272.339 308.051 272.899 Q 307.731 273.329 308.251 273.169 Q 311.161 272.259 312.651 270.059 Q 316.211 264.769 320.411 261.549 Z " fill="rgb(254,177,39)"/><path d=" M 204.461 298.329 Q 205.031 292.149 202.671 286.369 L 202.691 282.919 C 202.686 282.625 202.926 282.38 203.231 282.369 Q 204.721 282.359 205.741 283.109 Q 207.691 284.549 209.781 285.769 Q 212.351 287.269 214.251 287.459 Q 217.831 287.819 220.551 285.159 C 220.772 284.952 220.806 284.624 220.631 284.379 Q 219.161 282.009 218.011 279.479 Q 217.091 277.479 217.611 275.639 Q 218.151 273.679 219.281 271.919 Q 220.411 270.149 221.741 271.649 L 227.061 277.679 Q 228.111 278.869 226.481 278.869 Q 223.761 278.869 222.691 275.519 C 222.418 274.658 221.804 273.946 220.991 273.549 Q 219.391 272.769 218.881 274.689 C 218.662 274.993 218.707 275.346 219.001 275.629 L 222.481 283.589 C 222.681 283.87 222.629 284.215 222.351 284.459 Q 221.511 285.789 222.161 287.229 C 222.279 287.499 222.537 287.717 222.871 287.829 Q 225.331 288.689 223.611 290.079 C 223.361 290.225 223.04 290.251 222.761 290.149 Q 220.681 289.249 218.851 290.039 C 218.477 290.198 218.195 290.514 218.08 290.901 C 217.966 291.288 218.032 291.706 218.261 292.039 Q 219.081 293.259 219.011 294.629 C 219.02 294.925 218.826 295.2 218.511 295.339 Q 216.711 296.299 215.451 297.899 C 215.275 298.144 215.001 298.337 214.671 298.449 Q 210.821 299.459 207.381 297.389 C 207.134 297.259 206.827 297.295 206.621 297.479 Q 205.711 298.329 204.461 298.329 Z " fill="rgb(254,177,39)"/><path d=" M 293.351 329.379 Q 286.121 340.839 273.151 336.809 Q 267.231 330.779 267.771 323.429 Q 268.221 317.439 272.901 313.799 Q 276.011 311.389 279.921 311.279 Q 284.091 311.159 287.501 313.289 Q 291.261 315.639 292.731 320.239 Q 294.131 324.579 293.351 329.379 Z " fill="rgb(229,81,31)"/><path d=" M 320.411 261.549 Q 316.211 264.769 312.651 270.059 Q 311.161 272.259 308.251 273.169 Q 307.731 273.329 308.051 272.899 Q 308.441 272.339 308.941 271.879 Q 309.731 271.149 310.041 270.479 Q 313.761 262.689 315.211 256.869 Q 315.801 254.499 314.281 255.719 Q 313.941 255.999 313.621 256.499 Q 310.551 261.459 306.371 265.529 Q 303.481 268.349 299.601 268.479 Q 297.711 268.549 296.511 268.869 Q 294.981 269.269 293.421 269.539 Q 293.301 269.559 291.671 269.979 Q 289.131 270.639 288.671 267.619 Q 289.371 265.999 291.151 264.809 Q 298.741 259.719 303.481 251.529 L 316.221 243.969 C 316.6 243.762 317.062 243.742 317.458 243.918 C 317.854 244.093 318.135 244.441 318.211 244.849 Q 318.601 247.729 318.461 250.619 Q 318.261 254.769 320.411 261.549 Z " fill="rgb(232,88,28)"/><path d=" M 209.421 331.119 Q 207.101 330.699 205.961 332.659 Q 204.911 332.419 204.141 332.969 C 203.919 333.112 203.616 333.132 203.371 333.019 L 189.761 322.869 L 183.301 311.609 C 183.075 311.243 183.033 310.794 183.188 310.394 C 183.342 309.993 183.675 309.685 184.091 309.559 Q 186.321 308.899 187.841 309.439 Q 196.031 312.469 205.151 314.449 Q 207.681 314.989 208.061 317.549 Q 208.371 319.659 206.771 320.329 Q 205.811 320.729 204.181 320.199 Q 197.831 318.129 191.441 316.109 Q 190.351 315.769 191.171 316.569 Q 194.901 320.279 199.951 322.569 Q 205.421 325.059 208.731 322.019 Q 211.781 319.219 210.901 315.009 Q 209.941 310.409 204.211 309.159 Q 205.121 306.779 207.141 306.379 Q 208.661 306.069 210.501 307.369 Q 214.071 309.879 215.401 312.929 Q 220.171 323.899 210.021 329.679 Q 209.291 330.099 209.421 331.119 Z " fill="rgb(232,88,28)"/><path d=" M 221.921 389.619 Q 219.871 388.539 217.151 385.429 Q 212.931 380.629 208.951 375.629 Q 206.521 372.589 207.501 368.869 L 209.391 366.069 C 209.543 365.856 209.798 365.725 210.073 365.719 C 210.348 365.713 210.609 365.833 210.771 366.039 Q 216.391 375.909 224.981 384.519 C 225.186 384.683 225.3 384.912 225.296 385.152 C 225.293 385.391 225.171 385.618 224.961 385.779 L 221.921 389.619 Z " fill="rgb(246,103,44)"/><path d=" M 205.961 332.659 Q 203.101 335.539 203.671 339.589 Q 203.851 340.899 204.571 341.049 C 204.914 341.125 205.195 341.372 205.313 341.704 C 205.43 342.035 205.369 342.404 205.151 342.679 Q 202.431 346.099 203.111 349.639 Q 204.251 355.569 206.911 360.179 C 207.141 360.574 207.533 360.849 207.984 360.934 C 208.436 361.018 208.901 360.903 209.261 360.619 Q 211.251 359.039 212.491 359.649 C 212.823 359.81 212.991 360.122 212.911 360.429 Q 212.881 363.929 209.391 364.489 C 209.052 364.553 208.771 364.734 208.631 364.979 L 206.961 368.079 Q 206.131 368.579 205.521 368.059 Q 202.761 365.699 201.061 362.039 Q 201.041 361.989 200.671 361.339 Q 200.041 360.199 200.931 359.149 C 200.995 359.076 201.026 358.98 201.017 358.883 C 201.007 358.787 200.958 358.698 200.881 358.639 Q 196.991 355.679 197.651 350.779 C 197.736 350.167 197.635 349.543 197.361 348.989 Q 195.471 345.179 196.521 342.329 C 196.66 342.034 196.638 341.697 196.461 341.419 Q 194.331 337.569 191.991 333.829 Q 188.971 329.009 189.761 322.869 L 203.371 333.019 C 203.616 333.132 203.919 333.112 204.141 332.969 Q 204.911 332.419 205.961 332.659 Z " fill="rgb(252,111,38)"/><path d=" M 259.461 398.829 L 254.571 398.339 Q 252.981 398.179 251.811 399.829 Q 250.601 401.529 248.851 401.109 Q 243.131 399.719 237.391 398.419 Q 235.531 397.999 234.391 397.139 Q 232.961 396.049 232.071 394.749 C 231.67 394.159 230.988 393.818 230.271 393.849 Q 225.631 394.099 223.171 390.619 L 225.901 386.999 C 226.127 386.705 226.534 386.601 226.881 386.749 Q 229.281 387.919 228.331 385.749 C 227.445 385 227.484 383.921 228.421 383.219 L 231.271 379.689 Q 232.611 378.029 232.481 380.269 Q 232.261 384.249 230.901 387.649 C 230.778 387.93 230.86 388.255 231.101 388.449 Q 237.161 393.409 243.711 393.619 Q 246.381 393.709 247.851 394.219 Q 249.561 394.819 249.641 394.839 Q 254.131 395.909 258.501 397.379 Q 259.741 397.789 259.461 398.829 Z " fill="rgb(252,111,38)"/><path d=" M 261.041 262.049 Q 260.411 262.179 260.461 263.329 Q 258.061 262.449 255.581 262.489 Q 255.521 262.499 252.441 263.199 Q 249.801 263.809 248.891 260.659 Q 248.761 260.209 249.221 260.399 Q 251.921 261.509 253.631 258.389 Q 254.411 256.959 254.981 258.489 Q 257.361 264.919 257.011 258.529 C 256.956 257.587 257.478 256.705 258.331 256.299 Q 263.131 254.019 261.651 256.809 Q 260.001 259.899 261.041 262.049 Z " fill="rgb(253,153,33)"/><path d=" M 245.161 264.689 C 244.937 264.537 244.818 264.275 244.851 264.009 Q 245.291 259.989 244.101 256.609 Q 243.391 254.609 245.281 255.859 Q 247.401 257.259 247.401 262.549 C 247.401 263.472 247.103 264.37 246.551 265.109 Q 246.281 265.469 245.161 264.689 Z " fill="rgb(253,153,33)"/><path d=" M 223.561 284.879 Q 222.661 284.329 223.681 284.059 Q 225.181 283.669 226.941 283.459 Q 229.271 283.189 228.761 284.439 Q 228.501 285.069 227.741 285.359 Q 225.661 286.149 223.561 284.879 Z " fill="rgb(253,153,33)"/><path d=" M 260.461 263.329 Q 260.411 262.179 261.041 262.049 Q 264.881 258.869 267.391 255.129 Q 267.551 254.889 267.751 254.849 Q 267.921 254.809 268.051 254.899 C 268.187 254.948 268.278 255.03 268.299 255.122 C 268.321 255.214 268.27 255.308 268.161 255.379 Q 267.591 258.549 269.311 261.159 Q 269.841 261.979 270.511 262.089 Q 271.291 262.219 271.721 261.449 Q 271.961 261.019 271.941 260.249 Q 271.801 254.299 272.211 253.119 Q 275.381 243.879 274.001 255.869 Q 273.491 260.319 276.111 258.799 Q 277.161 258.179 277.641 256.879 Q 278.721 253.889 278.361 250.629 Q 278.091 248.269 278.921 247.209 C 279.195 246.858 279.632 246.676 280.074 246.729 C 280.516 246.782 280.898 247.063 281.081 247.469 Q 284.071 254.149 280.981 259.059 Q 279.691 261.109 276.611 262.679 Q 274.021 264.009 271.311 265.079 Q 268.341 266.249 265.831 265.689 Q 262.961 265.049 260.461 263.329 Z " fill="rgb(254,189,37)"/><path d=" M 228.671 273.139 Q 225.351 270.899 224.711 266.869 Q 224.441 265.159 225.651 266.179 Q 228.731 268.789 230.941 272.189 C 231.165 272.441 231.157 272.797 230.921 273.039 Q 230.061 274.079 228.671 273.139 Z " fill="rgb(254,177,39)"/><path d=" M 265.921 275.869 Q 266.841 277.819 267.561 279.839 Q 268.371 282.159 267.851 283.979 Q 266.951 287.069 264.041 288.119 Q 261.711 288.949 259.061 287.559 Q 250.411 283.009 258.611 274.139 Q 263.091 272.899 265.921 275.869 Z " fill="rgb(254,177,39)"/><path d=" M 282.501 331.869 Q 283.151 329.979 281.211 329.079 Q 285.351 325.479 283.681 320.279 C 283.585 319.972 283.393 319.699 283.131 319.499 Q 276.021 314.039 273.941 323.609 Q 271.651 323.429 271.421 325.619 Q 270.491 318.869 275.111 315.719 Q 278.431 313.449 282.151 314.539 Q 285.941 315.649 288.211 319.619 Q 289.971 322.689 288.621 325.729 Q 286.741 329.979 282.501 331.869 Z " fill="rgb(254,177,39)"/><path d=" M 258.611 274.139 Q 250.411 283.009 259.061 287.559 Q 261.711 288.949 264.041 288.119 Q 266.951 287.069 267.851 283.979 Q 268.371 282.159 267.561 279.839 Q 266.841 277.819 265.921 275.869 Q 266.081 274.839 266.651 274.009 C 266.833 273.778 267.152 273.685 267.441 273.779 Q 271.641 275.269 272.961 280.119 Q 274.431 285.519 271.091 289.239 Q 266.381 294.479 259.451 292.489 Q 254.251 291.009 252.081 286.069 Q 250.501 282.469 252.621 279.289 Q 253.661 277.709 256.271 275.179 Q 257.491 274.009 258.611 274.139 Z " fill="rgb(232,88,28)"/><path d=" M 281.211 329.079 Q 276.161 328.399 273.941 323.609 Q 276.021 314.039 283.131 319.499 C 283.393 319.699 283.585 319.972 283.681 320.279 Q 285.351 325.479 281.211 329.079 Z " fill="rgb(232,88,28)"/><path d=" M 273.941 323.609 Q 276.161 328.399 281.211 329.079 Q 283.151 329.979 282.501 331.869 Q 278.271 333.839 274.621 330.969 Q 271.991 328.899 271.421 325.619 Q 271.651 323.429 273.941 323.609 Z " fill="rgb(255,190,48)"/><path d=" M 302.553 295.663 C 302.499 293.947 304.072 292.503 306.063 292.441 C 308.055 292.378 309.715 293.72 309.769 295.436 C 309.823 297.151 308.25 298.595 306.258 298.658 C 304.267 298.72 302.606 297.378 302.553 295.663 Z " fill="rgb(250,63,47)"/><circle vector-effect="non-scaling-stroke" cx="223.9707727185405" cy="306.28928405342094" r="3.719999999999999" fill="rgb(250,63,47)"/><path d=" M 241.787 310.548 C 240.528 308.267 241.542 305.291 244.05 303.907 C 246.557 302.523 249.615 303.25 250.874 305.531 C 252.133 307.812 251.12 310.787 248.612 312.171 C 246.104 313.556 243.046 312.828 241.787 310.548 Z " fill="rgb(250,63,47)"/><path d=" M 235.378 337.2 C 234.571 334.881 236.026 332.263 238.627 331.357 C 241.228 330.451 243.996 331.599 244.803 333.918 C 245.611 336.238 244.155 338.856 241.554 339.762 C 238.953 340.667 236.186 339.52 235.378 337.2 Z " fill="rgb(250,63,47)"/><path d=" M 211.901 294.679 Q 209.311 293.989 210.101 291.409 C 210.197 291.097 210.423 290.842 210.721 290.709 Q 212.681 289.849 214.541 290.869 C 214.83 291.026 215.023 291.3 215.061 291.609 Q 215.811 295.729 211.901 294.679 Z " fill="rgb(248,130,38)"/><path d=" M 332.031 324.599 Q 328.301 321.069 333.021 318.929 Q 336.351 317.429 338.161 320.499 C 338.324 320.772 338.336 321.106 338.191 321.389 Q 336.581 324.699 332.901 324.919 C 332.578 324.933 332.264 324.817 332.031 324.599 Z " fill="rgb(160,32,39)"/><path d=" M 341.877 324.084 C 342.464 324.339 342.562 325.421 342.095 326.5 C 341.628 327.579 340.772 328.248 340.185 327.994 C 339.597 327.74 339.499 326.657 339.966 325.579 C 340.433 324.5 341.289 323.83 341.877 324.084 Z " fill="rgb(160,32,39)"/><path d=" M 285.657 369.414 C 281.841 371.475 276.958 370.403 274.517 366.967 C 273.052 365.29 272.4 363.121 272.716 360.981 C 273.033 358.841 274.289 356.922 276.185 355.684 C 280 353.623 284.884 354.696 287.325 358.131 C 288.79 359.809 289.442 361.977 289.125 364.118 C 288.809 366.258 287.552 368.176 285.657 369.414 Z " fill="rgb(246,103,44)"/><path d=" M 238.161 268.729 Q 234.591 265.709 233.121 260.559 Q 232.891 259.739 233.591 260.209 Q 235.621 261.539 237.191 263.619 Q 239.281 266.389 241.711 267.369 Q 244.441 268.469 240.531 269.319 C 239.692 269.502 238.816 269.284 238.161 268.729 Z " fill="rgb(254,201,44)"/><path d=" M 337.741 363.529 C 337.61 363.483 337.504 363.387 337.447 363.262 C 337.39 363.137 337.388 362.996 337.441 362.869 Q 338.401 360.309 339.711 361.859 Q 342.621 365.329 337.741 363.529 Z " fill="rgb(171,44,45)"/><path d=" M 262.711 391.409 L 259.041 388.009 Q 257.541 386.609 259.021 384.869 Q 260.711 382.889 262.611 384.219 Q 263.901 385.119 264.481 386.719 Q 265.301 389.019 263.931 391.179 C 263.81 391.366 263.608 391.498 263.376 391.542 C 263.143 391.586 262.902 391.538 262.711 391.409 Z " fill="rgb(171,44,45)"/><circle vector-effect="non-scaling-stroke" cx="261.29077271854067" cy="280.9192840534206" r="4.160000000000025" fill="rgb(232,88,28)"/><circle vector-effect="non-scaling-stroke" cx="281.1707727185408" cy="363.08928405342067" r="4.670000000000016" fill="rgb(160,32,39)"/></g></svg>