<?xml version="1.0" encoding="UTF-8" standalone="no"?><!-- Generator: Gravit.io --><svg xmlns="http://www.w3.org/2000/svg" xmlns:xlink="http://www.w3.org/1999/xlink" style="isolation:isolate" viewBox="702 240.571 199.227 144.773" width="199.227pt" height="144.773pt"><defs><clipPath id="_clipPath_q4JXrBP5Ifr7jRQVb47bkvfOLo6Gj5j1"><rect x="702" y="240.571" width="199.227" height="144.773"/></clipPath></defs><g clip-path="url(#_clipPath_q4JXrBP5Ifr7jRQVb47bkvfOLo6Gj5j1)"><rect x="702" y="240.571" width="199.227" height="144.773" style="fill:rgb(6,6,6)" fill-opacity="0"/><g><path d=" M 841.212 280.563 Q 847.652 284.163 851.962 290.143 Q 852.842 292.283 854.502 293.853 L 859.962 304.643 Q 860.072 308.173 862.002 311.103 Q 862.482 318.733 861.982 326.353 Q 861.942 326.983 861.462 327.393 Q 859.342 325.643 857.492 323.593 Q 857.412 323.503 856.212 322.343 Q 854.582 320.763 854.672 318.353 Q 852.462 301.343 840.252 289.353 L 837.852 286.903 C 837.617 286.733 837.282 286.705 837.012 286.833 L 825.962 293.063 Q 825.412 291.123 827.272 289.913 Q 833.862 285.643 836.692 284.253 C 836.989 284.106 837.228 283.875 837.372 283.593 Q 838.602 281.283 841.212 280.563 Z " fill="rgb(219,54,46)"/><path d=" M 896.172 251.103 Q 895.102 253.003 894.332 255.043 Q 894.302 255.093 894.192 255.693 Q 894.062 256.353 893.212 256.393 L 891.712 255.893 Q 889.092 255.693 889.712 253.103 C 887.711 253.072 886.312 252.6 886.588 252.047 C 886.864 251.495 888.711 251.072 890.712 251.103 Q 892.942 250.473 891.212 249.313 Q 892.712 248.143 894.472 248.483 C 894.609 248.514 894.725 248.597 894.792 248.711 C 894.859 248.826 894.87 248.961 894.822 249.083 Q 894.412 250.883 896.172 251.103 Z " fill="rgb(254,180,68)"/><path d=" M 806.962 283.143 Q 787.052 296.443 767.752 310.603 Q 767.162 306.733 767.712 305.353 Q 770.742 297.753 776.422 291.853 Q 776.502 292.273 776.322 292.633 C 776.165 292.742 776.079 292.888 776.083 293.039 C 776.087 293.189 776.18 293.331 776.342 293.433 Q 777.912 295.193 780.462 293.853 Q 783.262 292.383 784.262 291.653 Q 789.042 288.123 794.712 286.353 Q 799.302 284.923 803.762 283.133 Q 805.372 282.483 806.962 283.143 Z " fill="rgb(254,180,68)"/><path d=" M 840.252 289.353 Q 852.462 301.343 854.672 318.353 Q 851.252 317.253 849.002 319.853 Q 835.262 334.003 827.022 340.913 Q 824.272 343.223 824.212 345.813 Q 810.262 347.023 796.652 342.163 Q 791.932 340.483 788.462 338.063 L 791.752 334.103 Q 795.412 336.683 797.902 333.043 Q 800.122 329.793 797.962 326.893 Q 798.692 327.013 799.172 326.563 Q 804.852 321.223 810.632 316.013 Q 821.692 306.033 835.282 299.943 Q 837.722 298.843 839.522 297.563 Q 841.642 296.043 839.952 294.053 Q 837.432 291.073 840.252 289.353 Z " fill="rgb(255,157,68)"/><path d=" M 840.252 289.353 Q 837.432 291.073 839.952 294.053 Q 841.642 296.043 839.522 297.563 Q 837.722 298.843 835.282 299.943 Q 821.692 306.033 810.632 316.013 Q 804.852 321.223 799.172 326.563 Q 798.692 327.013 797.962 326.893 Q 794.112 324.633 791.712 327.853 Q 789.412 330.933 791.752 334.103 L 788.462 338.063 Q 782.282 334.273 778.172 328.353 Q 779.532 326.583 781.272 325.163 Q 795.032 313.963 809.462 303.643 L 825.962 293.063 L 837.012 286.833 C 837.282 286.705 837.617 286.733 837.852 286.903 L 840.252 289.353 Z " fill="rgb(255,179,75)"/><path d=" M 849.002 319.853 Q 850.182 320.623 850.152 321.413 Q 849.942 326.613 849.712 331.813 Q 842.562 338.653 836.402 342.293 Q 831.392 345.243 824.212 345.813 Q 824.272 343.223 827.022 340.913 Q 835.262 334.003 849.002 319.853 Z " fill="rgb(255,179,75)"/><path d=" M 841.712 279.643 L 841.212 280.563 Q 838.602 281.283 837.372 283.593 C 837.228 283.875 836.989 284.106 836.692 284.253 Q 833.862 285.643 827.272 289.913 Q 825.412 291.123 825.962 293.063 L 809.462 303.643 Q 808.552 303.483 808.572 302.653 Q 808.582 302.203 808.232 302.423 Q 800.212 307.373 795.212 311.103 Q 792.682 312.993 789.962 312.563 Q 810.262 298.323 831.262 285.153 Q 836.282 282.003 841.712 279.643 Z " fill="rgb(179,59,60)"/><path d=" M 809.462 303.643 Q 795.032 313.963 781.272 325.163 Q 779.532 326.583 778.172 328.353 Q 775.242 329.673 771.152 333.043 Q 767.472 336.063 767.462 340.313 L 766.632 338.913 Q 766.282 338.323 766.262 338.043 Q 766.042 334.483 762.212 335.063 Q 768.002 329.793 770.772 328.163 Q 774.542 325.963 776.652 323.293 Q 777.062 322.763 776.462 322.313 L 789.962 312.563 Q 792.682 312.993 795.212 311.103 Q 800.212 307.373 808.232 302.423 Q 808.582 302.203 808.572 302.653 Q 808.552 303.483 809.462 303.643 Z " fill="rgb(179,59,60)"/><path d=" M 776.462 322.313 Q 777.062 322.763 776.652 323.293 Q 774.542 325.963 770.772 328.163 Q 768.002 329.793 762.212 335.063 Q 760.472 336.403 758.562 337.483 Q 757.612 338.013 757.672 339.103 Q 757.402 338.493 756.712 338.563 Q 765.932 329.643 776.462 322.313 Z " fill="rgb(179,59,60)"/><path d=" M 900.252 242.603 Q 898.812 243.023 896.462 242.603 Q 892.082 241.813 886.962 243.363 Q 870.362 248.373 855.272 256.913 Q 854.142 257.553 853.922 256.103 Q 865.692 249.613 878.172 244.583 Q 884.152 242.173 890.482 240.973 Q 894.372 240.233 897.712 240.853 Q 899.242 241.133 900.252 242.603 Z " fill="rgb(245,199,86)"/><path d=" M 797.962 326.893 Q 800.122 329.793 797.902 333.043 Q 795.412 336.683 791.752 334.103 Q 789.412 330.933 791.712 327.853 Q 794.112 324.633 797.962 326.893 Z " fill="rgb(255,122,28)"/><path d=" M 854.462 333.563 L 860.252 336.603 Q 855.222 347.683 847.652 356.043 Q 837.322 367.453 822.192 372.203 C 821.877 372.266 821.539 372.221 821.282 372.083 Q 820.992 371.813 820.922 371.353 Q 819.842 369.323 819.672 367.103 Q 822.562 366.993 825.002 365.603 Q 830.502 364.213 834.962 360.643 Q 841.932 357.473 845.892 351.233 Q 846.692 349.983 848.072 346.683 Q 849.062 344.343 850.252 342.103 L 854.462 333.563 Z " fill="rgb(207,52,53)"/><path d=" M 767.462 340.313 L 767.712 340.393 Q 766.762 341.793 767.462 343.603 Q 769.882 349.843 773.962 354.143 Q 779.482 359.243 785.992 362.993 Q 786.052 363.023 786.932 363.753 Q 787.522 364.243 788.422 364.103 Q 789.602 367.513 789.672 371.103 Q 776.332 365.163 766.522 354.443 C 766.347 354.268 766.055 354.23 765.832 354.353 L 765.462 354.643 L 763.172 351.103 Q 759.722 345.413 757.672 339.103 Q 757.612 338.013 758.562 337.483 Q 760.472 336.403 762.212 335.063 Q 766.042 334.483 766.262 338.043 Q 766.282 338.323 766.632 338.913 L 767.462 340.313 Z " fill="rgb(207,52,53)"/><path d=" M 795.462 367.813 Q 794.992 368.513 795.252 369.353 L 794.522 373.093 C 794.762 373.407 794.617 373.748 794.142 373.983 Q 790.222 378.423 789.672 371.103 Q 789.602 367.513 788.422 364.103 Q 787.442 360.883 787.892 357.603 C 787.929 357.281 788.108 356.991 788.382 356.813 Q 791.812 354.593 793.902 358.163 Q 796.422 362.473 795.462 367.813 Z " fill="rgb(207,72,56)" vector-effect="non-scaling-stroke" stroke-width="1" stroke="rgb(207,72,56)" stroke-linejoin="miter" stroke-linecap="butt" stroke-miterlimit="4"/><path d=" M 773.962 354.143 Q 769.882 349.843 767.462 343.603 Q 766.762 341.793 767.712 340.393 Q 769.822 339.473 771.282 337.653 Q 772.552 336.073 773.092 338.033 Q 775.242 345.873 773.962 354.143 Z " fill="rgb(251,173,76)"/><path d=" M 850.252 342.103 Q 849.062 344.343 848.072 346.683 Q 846.692 349.983 845.892 351.233 Q 841.932 357.473 834.962 360.643 Q 832.702 360.643 833.212 358.103 Q 834.532 351.543 839.842 347.513 Q 843.012 345.113 848.962 342.103 Q 849.772 341.693 850.252 342.103 Z " fill="rgb(251,173,76)"/><path d=" M 825.002 365.603 Q 822.562 366.993 819.672 367.103 Q 817.942 365.983 817.052 362.573 C 816.889 361.97 817.105 361.329 817.602 360.943 Q 820.572 358.593 824.162 359.763 Q 829.762 361.573 825.002 365.603 Z " fill="rgb(251,173,76)"/><path d=" M 811.922 368.603 L 814.672 372.603 Q 805.562 374.523 796.512 372.413 C 796.188 372.307 795.969 372.066 795.952 371.793 L 795.252 369.353 Q 794.992 368.513 795.462 367.813 L 811.922 368.603 Z " fill="rgb(188,44,66)"/><path d=" M 891.712 255.893 L 893.212 256.393 Q 893.882 257.273 894.922 257.603 Q 876.832 278.083 854.502 293.853 Q 852.842 292.283 851.962 290.143 Q 867.292 278.243 880.962 264.483 Q 881.942 263.503 882.682 262.463 Q 883.452 261.383 884.182 260.273 Q 884.902 259.193 883.212 259.313 Q 884.932 258.683 882.582 258.843 Q 881.962 258.883 882.552 258.723 Q 884.122 258.273 884.242 257.353 C 884.249 257.13 884.452 256.949 884.702 256.943 Q 885.612 257.043 886.712 256.603 Q 888.802 255.773 891.712 255.893 Z " fill="rgb(207,72,56)"/><path d=" M 763.172 351.103 L 765.462 354.643 Q 756.032 361.403 746.392 367.853 Q 731.482 377.823 714.662 384.063 Q 711.992 385.053 709.192 385.293 Q 706.122 385.553 704.402 384.473 Q 702.032 383.003 702.002 379.603 L 704.642 378.933 C 705.018 378.964 705.346 379.083 705.522 379.253 Q 706.792 380.273 708.462 379.813 Q 712.982 380.753 716.502 377.853 Q 719.172 377.543 720.502 375.353 Q 722.222 375.523 723.402 375.043 Q 728.112 373.123 734.152 369.793 Q 743.872 364.413 763.172 351.103 Z " fill="rgb(207,72,56)"/><path d=" M 778.172 328.353 Q 782.282 334.273 788.462 338.063 Q 791.932 340.483 796.652 342.163 Q 810.262 347.023 824.212 345.813 Q 831.392 345.243 836.402 342.293 Q 842.562 338.653 849.712 331.813 Q 852.422 331.683 854.462 333.563 L 850.252 342.103 Q 849.772 341.693 848.962 342.103 Q 843.012 345.113 839.842 347.513 Q 834.532 351.543 833.212 358.103 Q 832.702 360.643 834.962 360.643 Q 830.502 364.213 825.002 365.603 Q 829.762 361.573 824.162 359.763 Q 820.572 358.593 817.602 360.943 C 817.105 361.329 816.889 361.97 817.052 362.573 Q 817.942 365.983 819.672 367.103 Q 819.842 369.323 820.922 371.353 Q 820.512 371.633 820.002 371.353 Q 815.602 364.023 813.212 354.603 Q 811.862 349.283 808.372 351.253 Q 806.342 352.403 805.982 354.923 Q 805.422 358.813 807.692 362.203 Q 808.942 364.083 809.012 364.183 Q 810.382 366.443 811.922 368.603 L 795.462 367.813 Q 796.422 362.473 793.902 358.163 Q 791.812 354.593 788.382 356.813 C 788.108 356.991 787.929 357.281 787.892 357.603 Q 787.442 360.883 788.422 364.103 Q 787.522 364.243 786.932 363.753 Q 786.052 363.023 785.992 362.993 Q 779.482 359.243 773.962 354.143 Q 775.242 345.873 773.092 338.033 Q 772.552 336.073 771.282 337.653 Q 769.822 339.473 767.712 340.393 L 767.462 340.313 Q 767.472 336.063 771.152 333.043 Q 775.242 329.673 778.172 328.353 Z " fill="rgb(199,93,100)"/><path d=" M 900.252 242.603 Q 901.892 244.743 900.772 247.663 Q 898.522 253.563 894.922 257.603 Q 893.882 257.273 893.212 256.393 Q 894.062 256.353 894.192 255.693 Q 894.302 255.093 894.332 255.043 Q 895.102 253.003 896.172 251.103 Q 897.202 249.043 896.552 246.883 C 896.467 246.603 896.209 246.401 895.902 246.373 Q 891.492 246.083 887.652 247.543 Q 864.652 256.293 842.982 269.123 Q 841.072 270.253 825.872 279.483 Q 774.672 310.573 730.002 350.603 L 727.332 348.053 C 726.964 347.839 726.9 347.475 727.182 347.203 Q 727.462 346.043 726.462 345.313 Q 741.032 331.513 756.962 319.313 L 767.162 311.613 C 768.138 311.611 769.01 311.461 769.11 311.279 C 769.209 311.097 768.498 310.951 767.522 310.953 Q 767.602 310.763 767.752 310.603 Q 787.052 296.443 806.962 283.143 L 815.252 278.353 Q 816.432 278.513 818.022 277.663 Q 823.002 275.013 825.962 271.893 Q 839.642 263.463 853.922 256.103 Q 854.142 257.553 855.272 256.913 Q 870.362 248.373 886.962 243.363 Q 892.082 241.813 896.462 242.603 Q 898.812 243.023 900.252 242.603 Z " fill="rgb(251,133,39)"/><path d=" M 891.212 249.313 Q 892.942 250.473 890.712 251.103 C 888.711 251.072 886.864 251.495 886.588 252.047 C 886.312 252.6 887.711 253.072 889.712 253.103 Q 889.092 255.693 891.712 255.893 Q 888.802 255.773 886.712 256.603 Q 885.612 257.043 884.702 256.943 C 884.452 256.949 884.249 257.13 884.242 257.353 Q 884.122 258.273 882.552 258.723 Q 881.962 258.883 882.582 258.843 Q 884.932 258.683 883.212 259.313 Q 879.842 259.523 876.762 260.893 Q 858.582 269.043 841.712 279.643 Q 836.282 282.003 831.262 285.153 Q 810.262 298.323 789.962 312.563 L 776.462 322.313 Q 765.932 329.643 756.712 338.563 Q 738.452 352.943 724.272 367.663 Q 721.392 370.663 720.502 375.353 Q 719.172 377.543 716.502 377.853 Q 716.472 377.083 715.722 377.183 Q 711.332 377.803 713.502 374.923 Q 714.322 373.833 714.382 373.743 Q 718.072 368.453 723.772 362.663 Q 752.972 333.063 790.902 307.543 Q 821.912 286.673 829.572 281.673 Q 847.192 270.183 866.042 260.893 Q 866.202 260.813 875.652 255.983 Q 883.202 252.133 891.212 249.313 Z " fill="rgb(251,133,39)"/><path d=" M 726.462 345.313 Q 727.462 346.043 727.182 347.203 C 726.9 347.475 726.964 347.839 727.332 348.053 L 730.002 350.603 Q 719.192 359.913 710.772 371.413 Q 708.012 375.183 708.462 379.813 Q 706.792 380.273 705.522 379.253 C 705.346 379.083 705.018 378.964 704.642 378.933 L 702.002 379.603 Q 701.932 375.473 704.152 371.293 Q 708.412 363.263 715.772 355.663 Q 722.552 348.663 726.462 345.313 Z " fill="rgb(243,116,46)"/><path d=" M 825.962 271.893 Q 823.002 275.013 818.022 277.663 Q 816.432 278.513 815.252 278.353 Q 793.642 275.643 777.772 290.163 Q 776.762 291.093 776.422 291.853 Q 770.742 297.753 767.712 305.353 Q 767.162 306.733 767.752 310.603 Q 767.602 310.763 767.522 310.953 C 768.498 310.951 769.209 311.097 769.11 311.279 C 769.01 311.461 768.138 311.611 767.162 311.613 L 756.962 319.313 Q 756.932 317.413 757.652 314.543 Q 762.432 295.433 776.602 283.653 Q 784.462 277.113 793.892 273.823 Q 807.072 269.223 820.962 271.853 Q 824.212 272.463 825.962 271.893 Z " fill="rgb(224,62,48)"/><path d=" M 896.172 251.103 Q 894.412 250.883 894.822 249.083 C 894.87 248.961 894.859 248.826 894.792 248.711 C 894.725 248.597 894.609 248.514 894.472 248.483 Q 892.712 248.143 891.212 249.313 Q 883.202 252.133 875.652 255.983 Q 866.202 260.813 866.042 260.893 Q 847.192 270.183 829.572 281.673 Q 821.912 286.673 790.902 307.543 Q 752.972 333.063 723.772 362.663 Q 718.072 368.453 714.382 373.743 Q 714.322 373.833 713.502 374.923 Q 711.332 377.803 715.722 377.183 Q 716.472 377.083 716.502 377.853 Q 712.982 380.753 708.462 379.813 Q 708.012 375.183 710.772 371.413 Q 719.192 359.913 730.002 350.603 Q 774.672 310.573 825.872 279.483 Q 841.072 270.253 842.982 269.123 Q 864.652 256.293 887.652 247.543 Q 891.492 246.083 895.902 246.373 C 896.209 246.401 896.467 246.603 896.552 246.883 Q 897.202 249.043 896.172 251.103 Z " fill="rgb(254,227,97)"/><path d=" M 862.002 311.103 Q 860.072 308.173 859.962 304.643 Q 867.742 303.413 869.962 304.103 Q 873.872 305.323 870.522 307.913 Q 868.092 309.803 862.002 311.103 Z " fill="rgb(207,72,56)" vector-effect="non-scaling-stroke" stroke-width="1" stroke="rgb(207,72,56)" stroke-linejoin="miter" stroke-linecap="butt" stroke-miterlimit="4"/><path d=" M 854.672 318.353 Q 854.582 320.763 856.212 322.343 Q 857.412 323.503 857.492 323.593 Q 859.342 325.643 861.462 327.393 L 868.852 336.263 C 869.072 336.516 869.18 336.838 869.152 337.163 Q 869.042 339.933 866.012 338.713 Q 863.162 337.573 860.252 336.603 L 854.462 333.563 Q 852.422 331.683 849.712 331.813 Q 849.942 326.613 850.152 321.413 Q 850.182 320.623 849.002 319.853 Q 851.252 317.253 854.672 318.353 Z " fill="rgb(207,72,56)" vector-effect="non-scaling-stroke" stroke-width="1" stroke="rgb(207,72,56)" stroke-linejoin="miter" stroke-linecap="butt" stroke-miterlimit="4"/><path d=" M 820.002 371.353 Q 821.852 375.543 821.962 376.603 Q 822.212 378.893 820.222 380.433 C 819.994 380.605 819.672 380.565 819.492 380.343 Q 816.442 376.543 814.672 372.603 L 811.922 368.603 Q 810.382 366.443 809.012 364.183 Q 808.942 364.083 807.692 362.203 Q 805.422 358.813 805.982 354.923 Q 806.342 352.403 808.372 351.253 Q 811.862 349.283 813.212 354.603 Q 815.602 364.023 820.002 371.353 Z " fill="rgb(207,72,56)" vector-effect="non-scaling-stroke" stroke-width="1" stroke="rgb(207,72,56)" stroke-linejoin="miter" stroke-linecap="butt" stroke-miterlimit="4"/><path d=" M 815.252 278.353 L 806.962 283.143 Q 805.372 282.483 803.762 283.133 Q 799.302 284.923 794.712 286.353 Q 789.042 288.123 784.262 291.653 Q 783.262 292.383 780.462 293.853 Q 777.912 295.193 776.342 293.433 C 776.18 293.331 776.087 293.189 776.083 293.039 C 776.079 292.888 776.165 292.742 776.322 292.633 Q 776.502 292.273 776.422 291.853 Q 776.762 291.093 777.772 290.163 Q 793.642 275.643 815.252 278.353 Z " fill="rgb(254,213,85)"/><path d=" M 827.856 317.045 C 826.354 314.369 827.468 310.887 830.341 309.275 C 833.215 307.662 836.767 308.526 838.268 311.202 C 839.77 313.878 838.657 317.36 835.783 318.972 C 832.91 320.584 829.358 319.721 827.856 317.045 Z " fill="rgb(255,122,28)"/><path d=" M 823.33 332.121 C 825.441 333.551 825.902 336.563 824.358 338.843 C 822.814 341.124 819.846 341.815 817.735 340.385 C 815.623 338.956 815.162 335.944 816.707 333.663 C 818.251 331.383 821.218 330.692 823.33 332.121 Z " fill="rgb(255,122,28)"/></g></g></svg>