<?xml version="1.0" encoding="UTF-8" standalone="no"?><!-- Generator: Gravit.io --><svg xmlns="http://www.w3.org/2000/svg" xmlns:xlink="http://www.w3.org/1999/xlink" style="isolation:isolate" viewBox="710.978 560.132 127.985 122.847" width="127.985pt" height="122.847pt"><defs><clipPath id="_clipPath_MhKZ0r7jwjVMmIc0mHJbE7Osx3jl736l"><rect x="710.978" y="560.132" width="127.985" height="122.847"/></clipPath></defs><g clip-path="url(#_clipPath_MhKZ0r7jwjVMmIc0mHJbE7Osx3jl736l)"><rect x="710.978" y="560.132" width="127.985" height="122.847" style="fill:rgb(6,6,6)" fill-opacity="0"/><g><path d=" M 779.247 575.822 L 775.247 576.152 L 770.497 576.152 Q 755.217 577.342 742.537 585.862 Q 742.387 585.172 742.537 584.512 C 742.61 584.233 742.518 583.939 742.297 583.742 Q 741.407 582.892 741.497 581.362 Q 741.847 575.622 743.087 571.022 Q 744.697 565.012 749.717 561.342 Q 751.637 559.942 753.757 560.162 Q 755.257 560.312 757.347 561.782 Q 763.627 566.202 768.997 573.652 C 769.4 574.222 770.057 574.63 770.817 574.782 L 779.247 575.822 Z " fill="rgb(109,67,22)"/><path d=" M 779.247 575.822 Q 788.257 577.252 796.747 580.652 Q 798.257 582.122 800.457 581.612 Q 800.567 582.272 801.107 582.552 Q 801.667 582.842 801.717 582.882 Q 808.227 587.572 813.997 593.152 L 815.787 595.112 Q 816.177 597.002 817.287 598.612 Q 815.357 600.292 816.027 602.852 Q 817.937 610.062 816.837 617.322 Q 816.097 622.242 815.987 623.462 Q 815.717 626.542 815.407 629.632 Q 813.697 646.692 800.307 657.172 Q 795.017 661.322 781.147 669.762 Q 779.377 670.842 777.467 671.142 Q 775.477 671.452 773.477 671.642 Q 770.647 671.912 767.617 672.682 Q 760.877 674.392 754.997 673.862 Q 750.997 673.502 749.997 676.822 L 746.247 674.572 L 743.957 670.612 Q 743.717 668.822 745.057 668.672 Q 752.377 667.852 769.707 667.112 L 776.947 669.192 C 777.265 669.248 777.596 669.186 777.857 669.022 Q 782.307 665.962 783.577 660.632 Q 784.057 658.562 782.247 658.402 Q 782.037 658.362 781.997 658.152 Q 782.667 657.452 782.237 656.362 Q 780.007 650.782 783.687 646.302 Q 788.207 640.782 795.687 627.742 C 795.837 627.48 796.098 627.276 796.417 627.172 Q 797.887 626.702 798.287 625.362 Q 799.627 625.442 801.057 623.922 Q 808.297 616.222 810.207 607.112 Q 809.997 605.362 809.057 604.552 Q 805.237 601.232 801.077 597.982 C 800.844 597.797 800.51 597.805 800.287 598.002 L 795.997 601.902 Q 794.117 601.322 794.997 599.552 C 795.166 599.274 795.184 598.942 795.047 598.652 Q 794.427 597.142 793.937 594.422 Q 792.967 589.082 789.927 582.992 Q 787.467 578.072 781.747 577.112 Q 776.867 576.292 775.247 576.152 L 779.247 575.822 Z " fill="rgb(255,39,30)"/><path d=" M 770.497 576.152 L 775.247 576.152 Q 776.867 576.292 781.747 577.112 Q 787.467 578.072 789.927 582.992 Q 792.967 589.082 793.937 594.422 Q 794.427 597.142 795.047 598.652 C 795.184 598.942 795.166 599.274 794.997 599.552 Q 794.117 601.322 795.997 601.902 L 785.697 614.062 C 785.355 614.355 785.169 614.767 785.186 615.192 C 785.204 615.616 785.423 616.014 785.787 616.282 L 790.747 620.322 Q 788.987 620.662 787.687 622.802 Q 779.527 636.232 765.587 646.502 C 765.326 646.691 765.019 646.808 764.697 646.842 Q 757.117 647.492 749.737 649.342 Q 743.317 650.942 736.737 650.182 Q 735.137 649.992 733.787 650.862 Q 726.717 628.862 735.957 609.062 Q 738.847 602.872 744.017 596.322 Q 749.277 589.642 754.557 585.422 Q 761.617 579.792 770.247 577.102 Q 770.927 576.882 770.497 576.152 Z " fill="rgb(255,76,22)"/><path d=" M 818.747 577.572 L 817.497 578.652 Q 808.737 578.772 800.457 581.612 Q 798.257 582.122 796.747 580.652 Q 803.687 577.372 812.057 576.672 Q 815.787 576.362 818.747 577.572 Z " fill="rgb(169,50,50)"/><path d=" M 818.747 577.572 Q 822.807 580.962 821.057 586.422 Q 819.547 591.142 816.877 594.552 Q 816.667 594.822 816.407 594.932 Q 816.107 595.052 815.787 595.112 L 813.997 593.152 Q 814.677 591.742 815.367 590.342 Q 815.747 589.562 817.037 587.692 Q 819.927 583.492 817.497 578.652 L 818.747 577.572 Z " fill="rgb(193,92,30)"/><path d=" M 817.287 598.612 Q 821.467 605.112 823.887 612.442 Q 824.837 615.332 826.537 617.862 Q 826.497 618.252 826.247 618.382 C 825.968 618.461 825.821 618.678 825.907 618.882 L 826.457 622.112 L 826.707 624.112 Q 827.527 634.322 825.497 644.362 Q 825.437 644.682 825.537 645.612 L 823.537 648.862 Q 817.417 663.752 806.187 672.052 Q 780.277 691.182 749.997 676.822 Q 750.997 673.502 754.997 673.862 Q 760.877 674.392 767.617 672.682 Q 770.647 671.912 773.477 671.642 Q 775.477 671.452 777.467 671.142 Q 779.377 670.842 781.147 669.762 Q 795.017 661.322 800.307 657.172 Q 813.697 646.692 815.407 629.632 Q 815.717 626.542 815.987 623.462 Q 816.097 622.242 816.837 617.322 Q 817.937 610.062 816.027 602.852 Q 815.357 600.292 817.287 598.612 Z " fill="rgb(255,19,31)"/><path d=" M 826.537 617.862 Q 831.037 622.142 836.067 625.792 Q 837.487 626.812 838.287 628.362 L 838.207 629.112 Q 836.827 627.832 835.037 627.362 Q 833.807 626.572 827.187 621.672 Q 826.407 621.102 826.457 622.112 L 825.907 618.882 C 825.821 618.678 825.968 618.461 826.247 618.382 Q 826.497 618.252 826.537 617.862 Z " fill="rgb(190,73,34)"/><path d=" M 835.037 627.362 Q 834.907 628.652 833.497 628.112 Q 829.027 626.382 826.707 624.112 L 826.457 622.112 Q 826.407 621.102 827.187 621.672 Q 833.807 626.572 835.037 627.362 Z " fill="rgb(255,202,74)"/><path d=" M 838.287 628.362 Q 839.627 630.662 838.307 633.422 Q 833.327 643.842 823.537 648.862 L 825.537 645.612 Q 833.807 639.862 838.187 630.802 Q 838.387 630.392 838.207 629.112 L 838.287 628.362 Z " fill="rgb(138,41,42)"/><path d=" M 721.537 638.612 Q 725.047 652.582 733.957 663.862 Q 733.307 664.502 731.747 664.612 Q 727.847 664.892 724.897 664.832 Q 720.747 664.742 718.097 664.312 Q 708.827 662.802 711.627 653.922 Q 712.667 650.622 715.487 647.532 Q 718.047 644.722 721.037 642.362 C 721.305 642.166 721.46 641.867 721.457 641.552 L 721.537 638.612 Z " fill="rgb(138,41,42)"/><path d=" M 817.497 578.652 Q 819.927 583.492 817.037 587.692 Q 815.747 589.562 815.367 590.342 Q 814.677 591.742 813.997 593.152 Q 808.227 587.572 801.717 582.882 Q 801.667 582.842 801.107 582.552 Q 800.567 582.272 800.457 581.612 Q 808.737 578.772 817.497 578.652 Z " fill="rgb(252,165,21)"/><path d=" M 770.497 576.152 Q 770.927 576.882 770.247 577.102 Q 761.617 579.792 754.557 585.422 Q 749.277 589.642 744.017 596.322 Q 738.847 602.872 735.957 609.062 Q 726.717 628.862 733.787 650.862 Q 737.187 661.602 743.957 670.612 L 746.247 674.572 Q 739.347 670.062 733.957 663.862 Q 725.047 652.582 721.537 638.612 Q 719.207 625.952 722.937 614.052 Q 728.277 597.012 742.537 585.862 Q 755.217 577.342 770.497 576.152 Z " fill="rgb(255,196,34)"/><path d=" M 790.747 620.322 Q 791.067 620.612 791.497 620.652 L 798.287 625.362 Q 797.887 626.702 796.417 627.172 C 796.098 627.276 795.837 627.48 795.687 627.742 Q 788.207 640.782 783.687 646.302 Q 780.007 650.782 782.237 656.362 Q 782.667 657.452 781.997 658.152 Q 777.357 654.952 775.497 654.362 Q 772.687 653.472 770.187 655.552 Q 768.507 656.942 766.247 657.122 Q 764.037 657.302 763.367 657.722 Q 761.937 658.622 761.617 660.372 Q 761.267 662.282 762.947 662.892 L 769.787 665.362 L 769.707 667.112 Q 752.377 667.852 745.057 668.672 Q 743.717 668.822 743.957 670.612 Q 737.187 661.602 733.787 650.862 Q 735.137 649.992 736.737 650.182 Q 743.317 650.942 749.737 649.342 Q 757.117 647.492 764.697 646.842 C 765.019 646.808 765.326 646.691 765.587 646.502 Q 779.527 636.232 787.687 622.802 Q 788.987 620.662 790.747 620.322 Z " fill="rgb(255,57,27)"/><path d=" M 810.207 607.112 Q 806.937 605.542 803.807 603.712 Q 800.677 601.872 799.847 605.282 Q 799.247 607.792 797.847 609.952 Q 794.477 615.182 791.497 620.652 Q 791.067 620.612 790.747 620.322 L 785.787 616.282 C 785.423 616.014 785.204 615.616 785.186 615.192 C 785.169 614.767 785.355 614.355 785.697 614.062 L 795.997 601.902 L 800.287 598.002 C 800.51 597.805 800.844 597.797 801.077 597.982 Q 805.237 601.232 809.057 604.552 Q 809.997 605.362 810.207 607.112 Z " fill="rgb(254,212,28)"/><path d=" M 781.997 658.152 Q 782.037 658.362 782.247 658.402 Q 782.397 659.072 781.747 659.112 Q 777.347 659.412 773.977 658.722 Q 772.357 658.392 770.367 658.662 Q 768.287 658.952 769.737 660.482 Q 771.677 662.502 772.537 665.062 C 772.583 665.172 772.568 665.298 772.497 665.395 C 772.426 665.492 772.31 665.547 772.187 665.542 L 769.787 665.362 L 762.947 662.892 Q 761.267 662.282 761.617 660.372 Q 761.937 658.622 763.367 657.722 Q 764.037 657.302 766.247 657.122 Q 768.507 656.942 770.187 655.552 Q 772.687 653.472 775.497 654.362 Q 777.357 654.952 781.997 658.152 Z " fill="rgb(254,212,28)"/><path d=" M 810.207 607.112 Q 808.297 616.222 801.057 623.922 Q 799.627 625.442 798.287 625.362 L 791.497 620.652 Q 794.477 615.182 797.847 609.952 Q 799.247 607.792 799.847 605.282 Q 800.677 601.872 803.807 603.712 Q 806.937 605.542 810.207 607.112 Z " fill="rgb(254,126,18)"/><path d=" M 826.707 624.112 Q 829.027 626.382 833.497 628.112 Q 834.907 628.652 835.037 627.362 Q 836.827 627.832 838.207 629.112 Q 838.387 630.392 838.187 630.802 Q 833.807 639.862 825.537 645.612 Q 825.437 644.682 825.497 644.362 Q 827.527 634.322 826.707 624.112 Z " fill="rgb(254,126,18)"/><path d=" M 782.247 658.402 Q 784.057 658.562 783.577 660.632 Q 782.307 665.962 777.857 669.022 C 777.596 669.186 777.265 669.248 776.947 669.192 L 769.707 667.112 L 769.787 665.362 L 772.187 665.542 C 772.31 665.547 772.426 665.492 772.497 665.395 C 772.568 665.298 772.583 665.172 772.537 665.062 Q 771.677 662.502 769.737 660.482 Q 768.287 658.952 770.367 658.662 Q 772.357 658.392 773.977 658.722 Q 777.347 659.412 781.747 659.112 Q 782.397 659.072 782.247 658.402 Z " fill="rgb(254,106,14)"/><path d=" M 752.457 615.612 L 751.747 625.322 C 751.798 625.765 751.421 626.165 750.897 626.222 L 745.747 626.072 Q 746.187 622.722 746.737 619.402 Q 747.487 614.872 752.457 615.612 Z " fill="rgb(254,141,15)"/><path d=" M 750.997 563.072 Q 753.227 569.362 752.937 576.062 C 752.918 576.422 752.673 576.73 752.327 576.832 Q 750.187 577.442 749.287 579.612 L 744.497 582.332 Q 744.057 582.582 744.097 582.052 Q 744.317 579.242 745.247 573.612 Q 746.347 566.922 750.997 563.072 Z " fill="rgb(255,196,34)"/><path d=" M 752.457 615.612 Q 747.487 614.872 746.737 619.402 Q 746.187 622.722 745.747 626.072 Q 744.457 625.962 744.427 624.772 Q 744.407 623.532 744.397 623.462 Q 743.797 619.282 744.697 615.172 C 744.762 614.867 744.993 614.624 745.297 614.542 Q 748.957 613.622 752.057 614.552 Q 752.697 614.742 752.457 615.612 Z " fill="rgb(255,196,34)"/><path d=" M 723.537 649.612 Q 720.797 654.712 717.807 659.672 Q 716.887 661.212 715.747 661.402 Q 711.697 659.922 713.057 655.922 Q 715.327 649.282 720.817 645.132 C 721.019 644.986 721.278 644.942 721.518 645.013 C 721.757 645.084 721.949 645.261 722.037 645.492 L 723.537 649.612 Z " fill="rgb(255,196,34)"/><path d=" M 749.287 579.612 Q 750.187 577.442 752.327 576.832 C 752.673 576.73 752.918 576.422 752.937 576.062 Q 753.227 569.362 750.997 563.072 Q 753.157 561.662 755.557 563.302 Q 762.327 567.922 766.407 574.122 C 766.469 574.215 766.481 574.333 766.439 574.437 C 766.397 574.541 766.307 574.617 766.197 574.642 Q 757.507 576.292 749.287 579.612 Z " fill="rgb(254,138,28)"/><path d=" M 723.537 649.612 Q 726.487 656.192 730.937 661.852 Q 730.977 661.912 731.507 662.402 Q 731.847 662.712 731.617 663.042 C 731.398 663.171 731.084 663.187 730.837 663.082 Q 730.007 662.592 729.097 662.672 Q 727.497 662.812 727.377 662.802 Q 723.067 662.522 718.747 662.312 Q 717.117 662.232 715.747 661.402 Q 716.887 661.212 717.807 659.672 Q 720.797 654.712 723.537 649.612 Z " fill="rgb(254,138,28)"/></g></g></svg>