<?xml version="1.0" encoding="UTF-8" standalone="no"?><!-- Generator: Gravit.io --><svg xmlns="http://www.w3.org/2000/svg" xmlns:xlink="http://www.w3.org/1999/xlink" style="isolation:isolate" viewBox="154.667 183.197 258.917 178.358" width="258.917pt" height="178.358pt"><defs><clipPath id="_clipPath_dYYOxhqaLCFcY95BDyyCivXjyoNun9iA"><rect x="154.667" y="183.197" width="258.917" height="178.358"/></clipPath></defs><g clip-path="url(#_clipPath_dYYOxhqaLCFcY95BDyyCivXjyoNun9iA)"><path d=" M 273.586 183.703 Q 277.046 184.313 278.586 187.453 Q 259.266 187.783 245.896 199.553 Q 233.676 210.323 229.746 226.283 Q 229.626 226.783 230.096 226.583 Q 234.196 224.803 239.506 225.553 Q 240.566 225.713 242.376 226.993 Q 242.086 227.313 242.046 227.743 Q 240.496 227.123 238.836 227.283 Q 230.466 226.653 228.626 234.743 Q 228.286 236.213 227.496 236.873 L 225.236 241.233 C 225.12 241.51 224.883 241.747 224.566 241.903 Q 222.356 242.933 219.836 242.453 Q 217.546 240.103 216.606 236.943 Q 215.936 234.663 218.086 234.703 L 221.226 238.393 Q 221.576 238.803 221.616 238.233 Q 221.926 232.583 223.876 227.243 Q 224.866 227.473 224.896 226.733 Q 224.926 226.043 225.006 225.783 Q 225.456 224.453 225.336 223.033 Q 225.966 223.263 226.336 222.243 Q 234.276 200.243 255.276 189.183 Q 264.226 184.463 273.586 183.703 Z " fill="rgb(236,80,54)"/><path d=" M 278.586 187.453 Q 282.226 187.423 286.046 190.113 Q 270.466 193.773 257.786 203.443 Q 246.076 212.363 239.506 225.553 Q 234.196 224.803 230.096 226.583 Q 229.626 226.783 229.746 226.283 Q 233.676 210.323 245.896 199.553 Q 259.266 187.783 278.586 187.453 Z " fill="rgb(254,149,80)"/><path d=" M 409.876 206.493 Q 404.016 218.593 394.986 228.733 Q 392.376 226.213 389.926 227.173 Q 389.006 227.523 388.786 228.353 Q 388.426 229.733 390.776 229.603 Q 392.246 229.523 393.126 230.493 Q 381.426 242.553 368.046 252.743 Q 349.206 266.313 330.106 279.533 Q 330.046 279.573 319.286 287.253 Q 308.866 294.683 297.636 300.873 Q 294.206 302.763 290.776 304.623 Q 287.956 306.163 283.796 308.173 Q 264.346 317.613 246.586 329.973 Q 230.196 341.383 211.686 348.893 Q 203.046 352.403 200.776 353.933 Q 199.236 354.963 197.716 354.733 Q 196.716 354.573 197.536 353.993 Q 201.286 351.313 203.646 348.463 Q 203.816 348.263 205.286 345.853 Q 205.976 344.743 206.956 343.823 Q 207.316 343.503 206.846 343.573 Q 205.446 343.773 204.046 343.923 Q 202.636 344.073 201.476 344.833 Q 187.866 353.703 172.306 358.403 Q 166.036 360.293 159.566 359.243 Q 156.116 358.683 156.946 355.283 Q 157.986 351.073 160.576 347.013 Q 167.996 335.373 178.436 326.323 Q 189.566 316.663 201.166 307.583 Q 203.296 305.913 205.796 304.973 Q 206.286 304.793 205.926 305.173 Q 198.436 313.173 191.566 321.723 Q 187.906 326.273 186.776 331.983 Q 185.846 336.633 189.396 338.683 Q 191.966 340.163 195.836 339.993 Q 199.336 339.843 205.776 337.433 Q 214.386 334.213 222.696 330.273 Q 253.966 315.423 283.806 297.923 Q 287.916 295.503 301.116 287.893 Q 311.446 281.943 321.476 275.493 Q 332.706 268.273 338.216 264.553 Q 349.186 257.163 357.396 250.053 Q 368.256 240.663 379.106 231.273 Q 387.826 223.723 394.286 214.153 Q 397.546 209.333 397.316 202.923 C 397.3 202.611 397.477 202.32 397.766 202.183 Q 401.556 200.363 405.576 199.213 Q 409.556 198.063 410.586 201.493 Q 411.206 203.553 409.876 206.493 Z " fill="rgb(246,171,212)"/><path d=" M 322.126 201.493 Q 322.016 203.283 323.596 203.093 Q 324.056 203.033 324.576 203.123 Q 325.386 203.273 325.796 202.763 Q 326.636 210.963 332.166 216.213 Q 333.646 217.623 331.606 217.493 Q 330.036 217.393 328.476 217.293 Q 326.566 217.163 325.406 216.693 Q 321.146 214.993 320.616 210.553 Q 320.466 209.203 321.416 206.093 Q 322.106 203.873 322.126 201.493 Z " fill="rgb(220,75,79)"/><path d=" M 242.376 226.993 Q 246.026 227.953 247.086 231.993 Q 249.106 239.693 244.986 244.973 Q 242.416 248.263 238.716 249.073 Q 234.726 249.933 230.756 247.683 Q 230.656 247.633 230.356 247.373 Q 229.876 246.983 229.296 247.493 Q 228.866 247.173 228.336 247.203 Q 229.486 246.463 229.346 244.993 Q 228.966 240.833 227.496 236.873 Q 228.286 236.213 228.626 234.743 Q 228.276 239.343 230.976 242.113 Q 233.556 244.773 237.476 244.503 Q 242.326 244.163 244.586 239.033 Q 247.056 236.423 245.986 233.063 Q 244.926 229.723 242.046 227.743 Q 242.086 227.313 242.376 226.993 Z " fill="rgb(201,63,67)"/><path d=" M 286.046 190.113 Q 288.116 190.053 290.586 191.703 Q 295.276 194.093 294.646 199.503 Q 293.426 209.883 303.586 211.993 Q 308.766 213.063 310.086 213.263 Q 316.986 214.303 319.396 221.973 Q 319.546 222.463 319.136 222.153 Q 311.526 216.373 303.516 218.633 Q 297.086 220.443 294.956 226.743 Q 291.266 237.643 300.396 243.683 Q 302.836 245.293 302.196 248.023 Q 301.096 252.723 297.466 255.853 Q 294.566 258.363 292.536 261.083 Q 291.506 262.453 291.336 260.753 Q 290.836 255.823 289.186 251.243 Q 287.246 245.853 284.076 243.203 Q 278.756 238.743 270.866 240.843 Q 263.326 242.843 258.556 248.953 Q 256.896 251.083 254.446 252.263 Q 250.326 254.243 246.836 257.113 Q 244.416 259.103 243.566 261.783 Q 241.906 267.013 243.156 272.833 Q 243.966 276.603 240.456 275.023 Q 237.376 273.643 237.386 270.633 Q 237.386 269.313 238.336 267.523 Q 239.266 265.773 240.056 264.683 Q 242.206 261.673 238.716 260.863 L 222.646 257.093 Q 220.606 257.773 218.836 256.783 Q 213.496 253.733 215.086 247.743 Q 215.756 245.213 218.086 243.033 Q 219.026 242.963 219.836 242.453 Q 222.356 242.933 224.566 241.903 C 224.883 241.747 225.12 241.51 225.236 241.233 L 227.496 236.873 Q 228.966 240.833 229.346 244.993 Q 229.486 246.463 228.336 247.203 Q 227.696 247.183 225.896 246.683 Q 221.716 245.523 219.636 249.073 C 219.467 249.361 219.462 249.716 219.621 250.009 C 219.781 250.302 220.083 250.49 220.416 250.503 Q 222.686 250.603 224.476 251.673 C 225.058 252.027 225.442 252.629 225.516 253.303 Q 225.786 255.823 226.946 254.343 Q 229.316 251.343 229.296 247.493 Q 229.876 246.983 230.356 247.373 Q 230.656 247.633 230.756 247.683 Q 234.726 249.933 238.716 249.073 Q 242.416 248.263 244.986 244.973 Q 249.106 239.693 247.086 231.993 Q 246.026 227.953 242.376 226.993 Q 240.566 225.713 239.506 225.553 Q 246.076 212.363 257.786 203.443 Q 270.466 193.773 286.046 190.113 Z " fill="rgb(254,99,81)"/><path d=" M 300.626 191.743 Q 296.926 196.853 299.086 201.993 Q 301.176 206.973 306.576 206.683 Q 308.056 206.603 310.376 205.793 Q 312.236 205.133 314.086 204.453 Q 319.176 203.213 321.626 198.743 L 322.546 198.743 L 322.126 201.493 Q 322.106 203.873 321.416 206.093 Q 320.466 209.203 320.616 210.553 Q 321.146 214.993 325.406 216.693 Q 326.566 217.163 328.476 217.293 Q 330.036 217.393 331.606 217.493 Q 333.646 217.623 332.166 216.213 Q 326.636 210.963 325.796 202.763 L 327.046 201.493 Q 331.716 207.763 338.516 211.593 Q 341.646 210.283 342.086 208.743 Q 342.706 206.593 343.826 208.303 C 344.176 208.564 344.223 208.926 343.946 209.223 Q 343.756 210.293 345.086 210.533 Q 343.526 214.353 340.276 217.683 Q 339.176 218.803 340.336 219.953 Q 340.546 219.993 340.586 220.203 Q 340.356 221.223 340.876 222.243 Q 340.696 222.653 340.626 223.073 Q 340.566 223.433 340.766 223.893 Q 342.496 227.873 341.246 232.013 Q 341.116 232.433 341.176 232.993 Q 341.306 234.103 340.676 234.883 C 340.487 235.044 340.186 235.044 339.996 234.883 Q 339.006 233.933 338.506 235.023 C 338.27 235.317 338.259 235.669 338.476 235.973 Q 339.826 240.903 339.126 245.993 Q 338.116 254.823 332.926 262.073 Q 320.656 271.683 306.986 279.583 Q 295.616 284.643 285.336 291.703 Q 283.856 293.173 282.446 294.703 Q 281.686 295.513 280.846 295.753 Q 279.866 296.043 278.896 296.033 Q 268.586 295.293 258.666 292.763 Q 251.996 289.843 246.226 285.363 Q 241.976 282.053 237.856 278.583 Q 237.466 278.263 237.076 278.253 Q 236.156 278.223 236.586 279.243 Q 238.576 283.943 243.466 288.433 L 236.246 283.833 L 234.046 281.993 Q 234.516 281.393 233.996 280.823 Q 226.906 273.003 223.066 261.423 C 222.79 260.603 222.932 259.7 223.446 259.003 Q 223.656 258.713 222.646 257.093 L 238.716 260.863 Q 242.206 261.673 240.056 264.683 Q 239.266 265.773 238.336 267.523 Q 237.386 269.313 237.386 270.633 Q 237.376 273.643 240.456 275.023 Q 243.966 276.603 243.156 272.833 Q 241.906 267.013 243.566 261.783 Q 244.416 259.103 246.836 257.113 Q 250.326 254.243 254.446 252.263 Q 256.896 251.083 258.556 248.953 Q 263.326 242.843 270.866 240.843 Q 278.756 238.743 284.076 243.203 Q 287.246 245.853 289.186 251.243 Q 290.836 255.823 291.336 260.753 Q 291.506 262.453 292.536 261.083 Q 294.566 258.363 297.466 255.853 Q 301.096 252.723 302.196 248.023 Q 302.836 245.293 300.396 243.683 Q 291.266 237.643 294.956 226.743 Q 297.086 220.443 303.516 218.633 Q 311.526 216.373 319.136 222.153 Q 319.546 222.463 319.396 221.973 Q 316.986 214.303 310.086 213.263 Q 308.766 213.063 303.586 211.993 Q 293.426 209.883 294.646 199.503 Q 295.276 194.093 290.586 191.703 Q 290.816 188.643 293.206 188.223 Q 294.916 187.923 296.966 188.333 Q 299.596 188.853 300.626 191.743 Z " fill="rgb(174,31,57)"/><path d=" M 313.586 191.533 Q 316.856 193.183 317.266 196.523 Q 317.506 198.533 316.186 199.983 Q 314.866 201.433 312.836 202.033 Q 309.786 202.583 308.146 201.433 Q 303.726 198.323 307.276 194.183 Q 309.656 191.393 313.586 191.533 Z " fill="rgb(174,31,57)"/><path d=" M 304.336 188.203 L 300.626 191.743 Q 299.596 188.853 296.966 188.333 Q 294.916 187.923 293.206 188.223 Q 290.816 188.643 290.586 191.703 Q 288.116 190.053 286.046 190.113 Q 282.226 187.423 278.586 187.453 Q 277.046 184.313 273.586 183.703 Q 289.646 181.603 304.336 188.203 Z " fill="rgb(187,46,67)"/><path d=" M 228.336 247.203 Q 228.866 247.173 229.296 247.493 Q 229.316 251.343 226.946 254.343 Q 225.786 255.823 225.516 253.303 C 225.442 252.629 225.058 252.027 224.476 251.673 Q 222.686 250.603 220.416 250.503 C 220.083 250.49 219.781 250.302 219.621 250.009 C 219.462 249.716 219.467 249.361 219.636 249.073 Q 221.716 245.523 225.896 246.683 Q 227.696 247.183 228.336 247.203 Z " fill="rgb(187,46,67)"/><path d=" M 258.666 292.763 Q 256.776 292.743 256.636 293.933 C 256.572 294.201 256.792 294.461 257.136 294.523 Q 258.436 294.863 257.586 296.033 Q 249.736 293.513 243.466 288.433 Q 238.576 283.943 236.586 279.243 Q 236.156 278.223 237.076 278.253 Q 237.466 278.263 237.856 278.583 Q 241.976 282.053 246.226 285.363 Q 251.996 289.843 258.666 292.763 Z " fill="rgb(187,46,67)"/><path d=" M 238.836 227.283 Q 239.106 229.433 237.036 229.753 Q 235.086 230.053 233.776 231.823 Q 228.926 236.523 233.836 240.743 Q 239.336 245.473 243.126 239.243 Q 243.806 238.813 244.586 239.033 Q 242.326 244.163 237.476 244.503 Q 233.556 244.773 230.976 242.113 Q 228.276 239.343 228.626 234.743 Q 230.466 226.653 238.836 227.283 Z " fill="rgb(229,134,116)"/><path d=" M 332.586 287.703 L 332.876 288.993 Q 330.816 293.773 325.586 294.783 L 322.136 294.893 Q 321.386 294.913 322.106 294.633 Q 324.026 293.893 325.836 292.933 Q 325.986 292.853 328.426 291.753 Q 331.166 290.503 332.586 287.703 Z " fill="rgb(229,134,116)"/><path d=" M 412.586 206.283 Q 411.126 205.823 409.876 206.493 Q 411.206 203.553 410.586 201.493 Q 409.556 198.063 405.576 199.213 Q 401.556 200.363 397.766 202.183 C 397.477 202.32 397.3 202.611 397.316 202.923 Q 397.546 209.333 394.286 214.153 Q 387.826 223.723 379.106 231.273 Q 368.256 240.663 357.396 250.053 Q 349.186 257.163 338.216 264.553 Q 332.706 268.273 321.476 275.493 Q 311.446 281.943 301.116 287.893 Q 287.916 295.503 283.806 297.923 Q 253.966 315.423 222.696 330.273 Q 214.386 334.213 205.776 337.433 Q 199.336 339.843 195.836 339.993 Q 191.966 340.163 189.396 338.683 Q 185.846 336.633 186.776 331.983 Q 187.906 326.273 191.566 321.723 Q 198.436 313.173 205.926 305.173 Q 206.286 304.793 205.796 304.973 Q 203.296 305.913 201.166 307.583 Q 189.566 316.663 178.436 326.323 Q 167.996 335.373 160.576 347.013 Q 157.986 351.073 156.946 355.283 Q 156.116 358.683 159.566 359.243 Q 166.036 360.293 172.306 358.403 Q 187.866 353.703 201.476 344.833 Q 202.636 344.073 204.046 343.923 Q 205.446 343.773 206.846 343.573 Q 207.316 343.503 206.956 343.823 Q 205.976 344.743 205.286 345.853 Q 203.816 348.263 203.646 348.463 Q 201.286 351.313 197.536 353.993 Q 196.716 354.573 197.716 354.733 Q 199.236 354.963 200.776 353.933 Q 203.046 352.403 211.686 348.893 Q 230.196 341.383 246.586 329.973 Q 264.346 317.613 283.796 308.173 Q 287.956 306.163 290.776 304.623 Q 294.206 302.763 297.636 300.873 Q 308.866 294.683 319.286 287.253 Q 330.046 279.573 330.106 279.533 Q 349.206 266.313 368.046 252.743 Q 369.206 253.743 369.086 255.203 Q 351.436 268.663 332.686 280.573 L 310.466 295.773 L 303.836 300.283 Q 300.116 300.303 298.836 303.703 Q 295.146 302.463 292.026 304.933 Q 291.816 305.093 291.086 305.193 C 290.757 305.248 290.457 305.388 290.226 305.593 L 286.836 309.033 Q 266.806 319.923 247.796 332.493 Q 224.476 347.273 198.316 356.083 C 198.006 356.173 197.672 356.184 197.356 356.113 Q 193.956 355.053 196.916 352.583 Q 200.596 349.523 203.976 346.133 Q 205.056 345.053 204.076 344.983 C 203.734 345.015 203.418 345.125 203.186 345.293 Q 188.626 356.053 171.176 360.653 Q 168.726 361.303 166.416 361.453 Q 163.726 361.633 161.586 361.493 Q 157.856 361.253 156.036 358.633 Q 154.506 356.433 154.686 353.093 Q 154.866 349.833 156.646 347.053 Q 164.956 334.123 177.066 324.153 Q 185.706 317.043 185.786 316.973 Q 207.876 298.013 232.396 282.303 Q 232.856 282.013 234.046 281.993 L 236.246 283.833 Q 234.476 285.653 231.776 287.683 Q 214.576 300.593 199.056 317.203 Q 195.196 321.333 192.276 326.183 Q 190.386 329.323 190.586 333.043 Q 190.736 335.743 193.366 336.343 Q 196.036 336.963 199.296 335.753 Q 224.196 326.493 247.396 313.553 Q 255.556 309.013 266.906 303.623 Q 266.956 303.603 270.306 301.833 Q 272.616 300.613 276.026 299.433 Q 277.566 298.893 276.086 298.203 Q 277.706 297.713 278.896 296.033 Q 279.866 296.043 280.846 295.753 Q 281.686 295.513 282.446 294.703 Q 283.856 293.173 285.336 291.703 Q 287.946 291.353 290.226 290.063 C 290.5 289.934 290.815 289.868 291.136 289.873 Q 292.266 289.953 293.056 289.313 Q 294.166 288.403 294.266 288.353 Q 297.186 286.633 299.926 284.623 Q 300.526 284.183 303.666 282.503 Q 305.596 281.463 306.986 279.583 Q 320.656 271.683 332.926 262.073 Q 337.146 261.063 340.336 257.953 Q 352.656 249.243 355.086 247.243 Q 370.336 234.673 384.666 221.073 Q 389.456 216.533 392.516 210.673 Q 394.096 207.663 394.086 204.953 C 394.08 204.027 394.546 203.162 395.326 202.653 Q 399.606 199.853 403.846 198.673 Q 407.646 197.603 410.366 198.313 Q 415.376 199.633 412.586 206.283 Z " fill="rgb(154,83,142)"/><path d=" M 340.586 220.203 Q 340.546 219.993 340.336 219.953 Q 340.886 217.163 343.486 215.863 Q 350.176 212.513 358.356 209.333 Q 359.946 208.713 361.416 209.593 Q 362.376 210.153 361.516 211.183 Q 361.146 211.623 360.376 211.963 Q 350.696 216.183 343.526 219.933 Q 342.016 220.713 340.586 220.203 Z " fill="rgb(154,83,142)"/><path d=" M 394.986 228.733 L 393.126 230.493 Q 392.246 229.523 390.776 229.603 Q 388.426 229.733 388.786 228.353 Q 389.006 227.523 389.926 227.173 Q 392.376 226.213 394.986 228.733 Z " fill="rgb(154,83,142)"/><path d=" M 320.376 190.743 Q 323.086 194.313 321.626 198.743 Q 319.176 203.213 314.086 204.453 Q 314.316 202.763 312.836 202.033 Q 314.866 201.433 316.186 199.983 Q 317.506 198.533 317.266 196.523 Q 316.856 193.183 313.586 191.533 Q 315.546 190.213 317.586 191.243 Q 319.296 192.103 320.376 190.743 Z " fill="rgb(242,105,88)"/><path d=" M 345.086 210.533 Q 343.756 210.293 343.946 209.223 C 344.223 208.926 344.176 208.564 343.826 208.303 Q 342.706 206.593 342.086 208.743 Q 341.646 210.283 338.516 211.593 Q 341.276 207.283 341.286 203.993 Q 341.316 195.383 332.836 196.743 Q 328.926 197.373 327.046 201.493 L 325.796 202.763 Q 325.386 203.273 324.576 203.123 Q 324.056 203.033 323.596 203.093 Q 322.016 203.283 322.126 201.493 L 322.546 198.743 Q 326.076 191.093 333.576 190.963 Q 338.286 190.873 341.816 193.313 Q 345.666 195.963 346.836 200.993 Q 348.016 206.033 345.086 210.533 Z " fill="rgb(242,105,88)"/><path d=" M 258.666 292.763 Q 268.586 295.293 278.896 296.033 Q 277.706 297.713 276.086 298.203 Q 272.926 299.803 268.526 298.803 Q 260.026 296.873 257.586 296.033 Q 258.436 294.863 257.136 294.523 C 256.792 294.461 256.572 294.201 256.636 293.933 Q 256.776 292.743 258.666 292.763 Z " fill="rgb(255,148,111)"/><path d=" M 320.376 190.743 Q 319.296 192.103 317.586 191.243 Q 315.546 190.213 313.586 191.533 Q 309.656 191.393 307.276 194.183 Q 303.726 198.323 308.146 201.433 Q 309.786 202.583 312.836 202.033 Q 314.316 202.763 314.086 204.453 Q 312.236 205.133 310.376 205.793 Q 308.056 206.603 306.576 206.683 Q 301.176 206.973 299.086 201.993 Q 296.926 196.853 300.626 191.743 L 304.336 188.203 Q 309.266 186.113 313.086 186.243 Q 317.596 186.393 320.376 190.743 Z " fill="rgb(250,128,99)"/><path d=" M 238.836 227.283 Q 240.496 227.123 242.046 227.743 Q 244.926 229.723 245.986 233.063 Q 247.056 236.423 244.586 239.033 Q 243.806 238.813 243.126 239.243 Q 242.826 230.493 233.776 231.823 Q 235.086 230.053 237.036 229.753 Q 239.106 229.433 238.836 227.283 Z " fill="rgb(217,104,81)"/><path d=" M 332.586 287.703 Q 331.166 290.503 328.426 291.753 Q 325.986 292.853 325.836 292.933 Q 324.026 293.893 322.106 294.633 Q 321.386 294.913 322.136 294.893 L 325.586 294.783 L 321.586 295.993 Q 321.206 295.023 321.496 294.113 Q 321.716 293.413 322.706 292.893 Q 326.746 290.783 330.266 287.873 Q 330.546 287.643 331.146 287.543 Q 331.606 287.463 331.966 287.143 Q 332.866 286.353 332.586 287.703 Z " fill="rgb(217,104,81)"/><path d=" M 320.126 299.743 Q 320.656 303.363 319.776 306.763 Q 318.806 310.463 316.326 312.583 Q 312.526 315.823 307.146 313.933 Q 302.216 312.193 298.796 306.993 L 298.836 303.703 Q 300.116 300.303 303.836 300.283 Q 303.586 303.273 304.396 306.183 Q 304.896 307.963 307.086 308.993 Q 310.816 310.753 313.206 308.643 Q 315.066 307.023 315.006 303.783 Q 314.926 299.693 312.796 295.993 Q 313.726 294.043 316.826 292.733 C 317.186 292.581 317.603 292.723 317.796 293.063 Q 319.756 296.513 320.126 299.743 Z " fill="rgb(217,104,81)"/><path d=" M 340.376 256.243 L 340.336 257.953 Q 337.146 261.063 332.926 262.073 Q 338.116 254.823 339.126 245.993 Q 341.146 245.253 340.086 247.743 Q 339.426 249.313 340.376 256.243 Z " fill="rgb(219,108,84)"/><path d=" M 340.876 222.243 Q 341.266 222.623 341.586 224.243 Q 344.896 241.143 340.376 256.243 Q 339.426 249.313 340.086 247.743 Q 341.146 245.253 339.126 245.993 Q 339.826 240.903 338.476 235.973 C 338.259 235.669 338.27 235.317 338.506 235.023 Q 339.006 233.933 339.996 234.883 C 340.186 235.044 340.487 235.044 340.676 234.883 Q 341.306 234.103 341.176 232.993 Q 341.116 232.433 341.246 232.013 Q 342.496 227.873 340.766 223.893 Q 340.566 223.433 340.626 223.073 Q 340.696 222.653 340.876 222.243 Z " fill="rgb(161,63,68)"/><path d=" M 233.776 231.823 Q 242.826 230.493 243.126 239.243 Q 239.336 245.473 233.836 240.743 Q 228.926 236.523 233.776 231.823 Z " fill="rgb(161,63,68)"/><path d=" M 333.046 281.743 Q 334.186 285.443 332.876 288.993 L 332.586 287.703 Q 332.866 286.353 331.966 287.143 Q 331.606 287.463 331.146 287.543 Q 330.546 287.643 330.266 287.873 Q 326.746 290.783 322.706 292.893 Q 321.716 293.413 321.496 294.113 Q 321.206 295.023 321.586 295.993 Q 319.666 295.193 319.586 293.393 Q 319.526 292.073 320.816 290.873 Q 322.136 289.653 323.696 288.743 Q 326.206 287.273 326.726 286.893 Q 329.606 284.713 331.646 282.303 Q 332.256 281.593 333.046 281.743 Z " fill="rgb(161,63,68)"/><path d=" M 225.336 223.033 Q 225.456 224.453 225.006 225.783 Q 224.926 226.043 224.896 226.733 Q 224.866 227.473 223.876 227.243 Q 214.386 225.933 218.086 234.703 Q 215.936 234.663 216.606 236.943 Q 217.546 240.103 219.836 242.453 Q 219.026 242.963 218.086 243.033 Q 215.696 240.663 213.526 236.303 Q 211.606 232.453 212.346 228.883 Q 213.116 225.173 216.276 223.153 Q 220.166 220.663 225.336 223.033 Z " fill="rgb(225,114,58)"/><path d=" M 332.686 280.573 L 333.046 281.743 Q 332.256 281.593 331.646 282.303 Q 329.606 284.713 326.726 286.893 Q 326.206 287.273 323.696 288.743 Q 322.136 289.653 320.816 290.873 Q 319.526 292.073 319.586 293.393 Q 319.666 295.193 321.586 295.993 Q 320.126 297.533 320.126 299.743 Q 319.756 296.513 317.796 293.063 C 317.603 292.723 317.186 292.581 316.826 292.733 Q 313.726 294.043 312.796 295.993 Q 311.776 296.153 310.466 295.773 L 332.686 280.573 Z " fill="rgb(120,39,73)"/><path d=" M 412.586 206.283 Q 407.056 220.743 395.776 232.183 Q 382.866 245.273 369.086 255.203 Q 369.206 253.743 368.046 252.743 Q 381.426 242.553 393.126 230.493 L 394.986 228.733 Q 404.016 218.593 409.876 206.493 Q 411.126 205.823 412.586 206.283 Z " fill="rgb(131,74,141)"/><path d=" M 298.836 303.703 L 298.796 306.993 Q 297.826 305.473 295.816 305.923 Q 291.156 306.973 286.836 309.033 L 290.226 305.593 C 290.457 305.388 290.757 305.248 291.086 305.193 Q 291.816 305.093 292.026 304.933 Q 295.146 302.463 298.836 303.703 Z " fill="rgb(131,74,141)"/><path d=" M 306.986 279.583 Q 305.596 281.463 303.666 282.503 Q 300.526 284.183 299.926 284.623 Q 297.186 286.633 294.266 288.353 Q 294.166 288.403 293.056 289.313 Q 292.266 289.953 291.136 289.873 C 290.815 289.868 290.5 289.934 290.226 290.063 Q 287.946 291.353 285.336 291.703 Q 295.616 284.643 306.986 279.583 Z " fill="rgb(155,45,130)"/><path d=" M 254.836 212.033 L 257.086 215.453 Q 252.786 215.983 252.316 219.613 Q 252.006 221.983 253.536 223.483 Q 255.126 225.043 257.836 224.993 Q 260.376 224.943 261.126 222.743 L 264.126 225.023 C 264.293 225.088 264.417 225.197 264.47 225.327 C 264.522 225.457 264.499 225.596 264.406 225.713 Q 262.586 229.983 257.446 230.883 C 256.682 231.015 255.894 230.907 255.196 230.573 Q 253.246 229.633 252.396 230.753 C 252.312 230.845 252.293 230.971 252.345 231.08 C 252.398 231.189 252.513 231.263 252.646 231.273 Q 255.526 231.903 256.766 234.493 Q 253.166 234.543 250.666 232.463 Q 248.576 230.733 247.636 227.293 Q 244.876 217.233 254.836 212.033 Z " fill="rgb(181,36,57)"/><path d=" M 313.146 250.553 Q 309.356 255.313 309.336 262.923 Q 309.326 265.173 307.266 264.273 Q 306.146 263.793 305.076 261.933 C 304.899 261.651 304.849 261.319 304.936 261.003 Q 305.336 259.023 305.356 256.993 Q 305.386 252.343 306.976 248.483 Q 307.586 246.993 308.966 246.163 Q 312.416 244.103 315.496 241.693 Q 319.136 238.863 320.646 235.853 Q 323.336 230.513 322.286 223.933 C 322.237 223.644 322.323 223.35 322.522 223.124 C 322.721 222.898 323.014 222.763 323.326 222.753 L 330.286 222.493 C 330.763 222.497 331.204 222.725 331.446 223.093 Q 333.046 225.793 331.986 227.603 Q 331.726 228.053 328.816 229.903 Q 325.796 231.813 325.336 235.243 Q 324.476 241.663 324.396 243.053 Q 324.186 247.013 320.826 246.363 C 320.505 246.324 320.176 246.338 319.866 246.403 Q 315.136 248.053 313.146 250.553 Z " fill="rgb(254,99,81)"/><path d=" M 251.606 260.063 Q 252.296 259.113 253.286 258.463 Q 257.946 255.443 261.886 251.283 Q 268.056 244.753 275.586 244.493 Q 278.886 244.383 281.646 247.933 Q 283.996 250.943 284.986 254.523 Q 285.336 255.823 285.446 261.023 Q 285.576 267.413 288.946 272.933 Q 289.906 274.503 289.126 276.173 Q 286.826 281.093 283.446 277.963 Q 282.006 276.633 280.166 277.303 Q 276.306 278.693 272.386 279.893 Q 267.656 281.323 264.626 281.083 Q 260.576 280.753 256.906 278.673 Q 251.616 275.693 249.926 269.833 Q 248.396 264.523 251.606 260.063 Z " fill="rgb(254,99,81)"/><path d=" M 256.766 234.493 Q 255.526 231.903 252.646 231.273 C 252.513 231.263 252.398 231.189 252.345 231.08 C 252.293 230.971 252.312 230.845 252.396 230.753 Q 253.246 229.633 255.196 230.573 C 255.894 230.907 256.682 231.015 257.446 230.883 Q 262.586 229.983 264.406 225.713 C 264.499 225.596 264.522 225.457 264.47 225.327 C 264.417 225.197 264.293 225.088 264.126 225.023 L 261.126 222.743 Q 262.446 216.983 257.086 215.453 L 254.836 212.033 Q 263.506 209.503 267.846 214.853 Q 271.666 219.563 270.006 225.893 Q 267.816 234.243 256.766 234.493 Z " fill="rgb(174,31,57)"/><path d=" M 281.581 205.523 C 280.295 208.693 276.595 210.316 273.225 209.188 C 271.53 208.641 270.139 207.464 269.371 205.926 C 268.603 204.387 268.524 202.618 269.151 201.024 C 270.437 197.854 274.137 196.231 277.507 197.359 C 279.202 197.905 280.593 199.082 281.361 200.621 C 282.129 202.16 282.208 203.929 281.581 205.523 Z " fill="rgb(187,46,67)"/><path d=" M 257.086 215.453 Q 262.446 216.983 261.126 222.743 Q 260.376 224.943 257.836 224.993 Q 255.126 225.043 253.536 223.483 Q 252.006 221.983 252.316 219.613 Q 252.786 215.983 257.086 215.453 Z " fill="rgb(229,134,116)"/><path d=" M 299.126 230.743 L 304.836 232.703 Q 306.746 235.613 310.096 235.373 Q 311.466 235.273 311.976 235.683 Q 312.776 236.333 312.216 237.473 Q 311.886 238.133 311.126 238.713 Q 307.176 241.713 302.526 238.553 Q 298.106 235.563 299.126 230.743 Z " fill="rgb(242,105,88)"/><path d=" M 299.726 228.113 Q 302.576 229.673 305.836 229.283 Q 304.156 230.603 304.836 232.703 L 299.126 230.743 Q 299.076 229.173 299.726 228.113 Z " fill="rgb(216,69,71)"/><path d=" M 305.836 229.283 Q 302.576 229.673 299.726 228.113 Q 301.546 221.583 307.336 221.023 Q 310.416 220.723 312.466 222.143 Q 315.026 223.923 314.596 227.683 C 314.581 227.814 314.513 227.932 314.408 228.013 C 314.302 228.094 314.169 228.13 314.036 228.113 Q 309.796 227.603 305.836 229.283 Z " fill="rgb(250,128,99)"/><path d=" M 235.316 235.193 Q 235.706 233.883 237.336 234.013 Q 238.126 234.073 237.666 234.723 Q 236.556 236.303 236.326 238.053 Q 236.126 239.593 235.406 238.213 Q 234.776 237.013 235.316 235.193 Z " fill="rgb(191,83,81)"/><path d=" M 278.506 308.203 Q 280.986 305.103 284.626 303.593 Q 286.506 302.813 285.536 304.513 Q 285.296 304.913 284.846 305.173 Q 281.896 306.823 278.676 308.413 Q 278.116 308.693 278.506 308.203 Z " fill="rgb(131,74,141)"/><path d=" M 278.496 267.203 C 278.496 269.147 277.724 271.012 276.349 272.387 C 274.974 273.761 273.11 274.533 271.166 274.533 C 267.118 274.533 263.836 271.252 263.836 267.203 C 263.836 263.155 267.118 259.873 271.166 259.873 C 273.11 259.873 274.974 260.646 276.349 262.02 C 277.724 263.395 278.496 265.259 278.496 267.203 Z " fill="rgb(174,31,57)"/><path d=" M 271.503 200.902 C 272.441 199.289 274.705 198.855 276.556 199.932 C 278.407 201.009 279.148 203.193 278.209 204.805 C 277.271 206.417 275.007 206.852 273.156 205.775 C 271.305 204.697 270.564 202.514 271.503 200.902 Z " fill="rgb(242,105,88)"/><circle vector-effect="non-scaling-stroke" cx="272.435982963505" cy="267.7334188267978" r="2.430000000000007" fill="rgb(219,108,84)"/></g></svg>