<?xml version="1.0" encoding="UTF-8" standalone="no"?><!-- Generator: Gravit.io --><svg xmlns="http://www.w3.org/2000/svg" xmlns:xlink="http://www.w3.org/1999/xlink" style="isolation:isolate" viewBox="672.003 361.513 203.476 192.435" width="203.476pt" height="192.435pt"><defs><clipPath id="_clipPath_r9yLzwVkmMSFTI6svwXdIlhXAYK17cjS"><rect x="672.003" y="361.513" width="203.476" height="192.435"/></clipPath></defs><g clip-path="url(#_clipPath_r9yLzwVkmMSFTI6svwXdIlhXAYK17cjS)"><rect x="672.003" y="361.513" width="203.476" height="192.435" style="fill:rgb(6,6,6)" fill-opacity="0"/><g><path d=" M 819.524 448.032 Q 818.744 448.322 818.314 448.992 Q 815.554 449.702 814.274 452.282 Q 813.444 452.482 813.524 453.282 Q 812.614 452.482 812.164 453.502 C 812.131 453.778 811.928 454.04 811.594 454.242 Q 808.424 456.412 806.774 459.822 C 806.652 460.101 806.433 460.347 806.144 460.532 Q 805.184 461.162 803.254 462.972 Q 795.554 470.162 788.274 477.782 Q 784.044 479.072 782.564 483.242 Q 781.394 483.152 779.624 484.592 Q 777.024 486.722 774.554 489.012 Q 772.314 491.092 769.444 493.372 Q 763.754 497.892 759.064 503.492 L 752.084 508.772 C 751.77 508.79 751.533 508.903 751.512 509.046 C 751.49 509.189 751.69 509.323 751.994 509.372 L 752.064 509.742 Q 746.624 510.432 744.774 515.532 Q 744.504 515.272 744.174 515.282 Q 743.934 515.292 743.644 515.552 Q 731.124 526.342 722.254 532.722 Q 711.913 540.907 703.054 545.532 C 694.196 550.156 689.174 552.482 681.064 553.782 Q 673.454 555.002 672.064 547.282 Q 671.724 545.412 673.264 540.892 Q 676.254 532.062 681.334 524.232 Q 698.354 497.992 719.604 475.032 Q 721.394 474.342 721.604 475.972 Q 721.644 476.312 721.964 476.852 Q 722.284 477.382 721.814 477.992 Q 720.784 477.782 720.394 478.422 Q 720.084 478.912 720.024 478.982 Q 716.684 482.762 715.754 483.722 Q 696.714 503.332 684.024 527.532 Q 680.664 532.732 680.344 538.812 Q 680.234 540.982 681.224 541.982 Q 682.464 543.242 684.814 543.032 Q 691.834 542.392 697.234 539.442 Q 711.504 531.662 724.064 521.322 Q 743.594 506.192 771.124 482.092 Q 781.834 472.722 789.194 465.812 Q 789.984 465.062 803.714 452.042 Q 831.294 425.862 854.064 395.322 Q 859.284 388.642 863.124 380.092 Q 864.214 377.672 864.574 375.302 Q 865.004 372.472 863.454 370.732 Q 861.414 368.452 857.814 369.282 Q 846.724 371.832 835.774 379.032 L 823.564 386.572 Q 823.544 385.062 821.814 384.742 Q 834.694 375.152 851.624 366.592 Q 856.354 364.202 860.624 362.802 Q 866.464 360.882 870.154 361.822 Q 874.934 363.042 875.434 368.392 Q 875.724 371.482 874.144 375.982 Q 870.924 385.172 864.624 393.842 Q 853.434 409.272 844.984 418.972 Q 832.284 433.532 819.524 448.032 Z " fill="rgb(241,59,68)"/><path d=" M 713.314 490.742 Q 715.294 488.722 717.044 486.512 Q 717.084 486.462 717.804 485.782 Q 718.484 485.132 718.274 484.032 Q 719.404 481.522 721.804 480.262 Q 721.894 480.212 722.494 480.072 Q 723.014 479.952 723.104 479.282 Q 723.824 480.162 724.634 480.962 Q 726.154 482.482 724.314 483.742 Q 721.554 485.852 719.284 488.502 Q 710.204 499.112 703.054 511.102 Q 700.474 515.432 699.904 521.492 C 699.887 521.684 699.959 521.874 700.099 522.006 C 700.24 522.139 700.433 522.2 700.624 522.172 Q 704.704 521.562 707.474 520.012 Q 722.214 511.712 735.264 500.992 Q 736.134 500.282 740.744 495.942 Q 743.474 493.382 746.564 491.242 L 753.564 485.992 Q 756.604 483.742 759.394 481.202 Q 761.974 478.862 765.094 476.282 Q 768.824 473.192 772.064 469.572 Q 773.984 467.842 775.874 466.092 Q 777.084 464.972 776.604 463.782 Q 779.634 463.322 780.854 460.532 Q 783.414 459.142 785.104 456.782 Q 788.674 455.802 790.564 452.712 C 790.717 452.598 790.803 452.442 790.803 452.28 C 790.803 452.118 790.717 451.963 790.564 451.852 Q 790.304 451.582 789.854 451.532 L 786.524 449.532 Q 786.404 448.672 786.814 447.992 Q 791.224 452.692 794.024 446.782 Q 794.574 447.112 795.184 447.082 Q 795.654 447.052 796.194 446.602 Q 802.824 441.102 808.104 434.282 Q 815.004 428.082 820.024 420.282 Q 827.754 412.082 834.024 402.732 Q 837.904 396.942 840.084 390.482 Q 840.534 389.132 839.144 389.452 Q 830.754 391.412 823.474 395.402 C 823.363 395.443 823.28 395.529 823.25 395.633 C 823.221 395.738 823.248 395.848 823.324 395.932 L 823.564 396.242 Q 820.264 396.422 817.464 398.152 Q 816.224 398.912 817.024 400.282 Q 818.074 401.902 819.854 402.782 L 819.774 403.032 Q 818.174 403.412 817.564 404.992 Q 816.654 405.642 815.564 405.822 Q 811.114 405.692 810.814 401.532 Q 810.724 400.242 809.814 400.072 Q 811.434 399.612 810.564 397.992 Q 819.984 391.122 834.754 384.472 Q 840.324 381.962 845.224 383.062 Q 847.534 383.582 848.304 384.902 Q 849.294 386.592 847.874 389.092 Q 843.554 396.692 841.634 399.352 Q 829.174 416.552 814.454 431.772 Q 811.554 434.762 800.294 445.902 Q 783.514 462.502 766.144 478.472 Q 759.004 485.042 751.114 491.682 Q 732.584 507.292 722.754 514.722 Q 711.274 523.382 698.134 529.522 Q 696.534 530.272 694.774 530.282 Q 689.514 530.322 691.564 525.032 Q 693.834 519.192 695.204 516.722 Q 702.934 502.812 713.314 490.742 Z " fill="rgb(240,69,69)"/><path d=" M 794.814 427.572 Q 798.664 433.692 791.814 435.572 Q 786.244 436.032 783.864 431.252 Q 782.684 428.882 783.854 426.532 Q 784.314 425.102 786.064 424.782 Q 791.504 423.792 794.814 427.572 Z " fill="rgb(254,140,55)"/><path d=" M 808.354 424.782 Q 808.844 427.782 810.854 430.032 Q 808.994 431.872 808.104 434.282 Q 802.824 441.102 796.194 446.602 Q 795.654 447.052 795.184 447.082 Q 794.574 447.112 794.024 446.782 Q 794.324 444.632 792.754 444.092 Q 787.374 442.252 786.814 447.992 Q 786.404 448.672 786.524 449.532 L 786.354 449.532 Q 786.134 448.032 786.114 446.522 Q 786.104 446.472 786.514 444.232 Q 786.814 442.602 785.034 441.932 Q 784.594 441.772 784.224 441.422 Q 783.164 440.432 781.564 440.492 Q 784.314 439.382 785.404 437.822 Q 786.454 436.312 788.274 436.572 Q 790.994 436.942 791.814 435.572 Q 798.664 433.692 794.814 427.572 Q 796.994 427.282 798.014 428.902 C 798.149 429.125 798.441 429.226 798.704 429.142 Q 801.324 427.892 802.604 425.282 Q 803.994 426.322 806.064 426.532 Q 808.224 426.742 808.354 424.782 Z " fill="rgb(165,116,95)"/><path d=" M 764.814 426.322 Q 766.164 426.092 766.604 426.782 C 766.965 427.355 767.663 427.621 768.314 427.432 Q 770.524 426.782 770.774 428.282 L 770.104 430.282 Q 767.484 433.712 768.744 437.052 Q 769.834 439.962 773.224 441.042 Q 777.254 442.332 781.564 440.492 Q 783.164 440.432 784.224 441.422 Q 784.594 441.772 785.034 441.932 Q 786.814 442.602 786.514 444.232 Q 786.104 446.472 786.114 446.522 Q 786.134 448.032 786.354 449.532 Q 781.824 455.032 774.564 454.342 Q 774.514 454.332 773.604 454.472 L 772.494 454.652 C 772.118 454.611 771.844 454.376 771.864 454.112 Q 771.244 452.102 769.854 450.532 Q 769.104 449.862 768.924 448.972 Q 768.784 448.322 769.254 447.302 Q 770.134 445.362 770.734 443.332 C 770.882 443.018 770.879 442.671 770.724 442.362 Q 769.964 440.302 767.804 439.862 C 767.478 439.823 767.146 439.872 766.854 440.002 Q 764.354 441.282 763.004 443.222 Q 761.124 445.902 762.754 448.912 C 762.95 449.19 763.018 449.517 762.944 449.832 L 762.814 450.992 Q 761.814 452.212 761.564 453.782 C 761.457 454.446 760.901 454.949 760.224 454.992 Q 756.654 455.232 755.184 453.612 C 754.98 453.388 754.702 453.218 754.384 453.122 Q 752.484 452.692 751.194 451.342 Q 749.164 449.222 749.034 449.102 Q 746.974 447.242 745.874 444.972 Q 745.364 443.902 744.604 443.532 L 744.524 443.282 L 742.994 436.452 C 742.907 436.182 743.06 435.897 743.344 435.802 Q 745.484 435.072 747.774 435.282 Q 746.594 440.592 751.254 440.042 C 751.583 439.99 751.886 439.847 752.124 439.632 Q 757.124 434.972 756.104 428.032 L 758.754 428.322 Q 759.094 428.352 759.644 428.652 Q 760.174 428.922 760.564 428.402 Q 760.704 428.212 760.794 428.472 Q 760.864 428.652 761.024 428.782 Q 761.494 431.162 763.464 431.352 Q 764.974 431.502 766.264 430.332 Q 768.504 428.322 764.814 426.322 Z " fill="rgb(117,124,124)"/><path d=" M 731.604 437.532 Q 732.544 438.562 734.064 438.322 Q 732.114 438.042 732.164 439.292 Q 732.214 440.652 732.194 440.782 Q 731.584 444.202 730.444 446.712 Q 729.344 449.102 731.904 448.502 Q 733.954 448.012 735.154 447.022 Q 735.494 446.742 736.954 444.152 Q 738.584 441.282 742.024 440.282 L 744.524 443.282 L 744.604 443.532 Q 742.394 447.182 738.574 449.122 C 738.287 449.271 738.083 449.53 738.014 449.832 Q 737.554 451.492 736.274 452.602 Q 735.424 453.342 735.264 453.832 Q 734.864 455.052 736.264 455.482 Q 736.694 455.612 736.254 455.682 Q 734.804 455.912 733.314 455.862 Q 730.194 455.742 732.314 456.072 Q 729.704 456.872 728.544 459.002 Q 727.804 460.352 727.804 463.192 Q 727.804 465.362 727.854 467.532 Q 727.444 469.422 728.314 471.072 Q 728.154 474.672 730.314 472.242 L 734.564 470.992 Q 735.674 472.072 736.674 473.262 Q 737.844 474.672 739.064 475.032 Q 743.514 476.362 745.934 471.622 C 746.099 471.301 746.402 471.071 746.758 470.997 C 747.113 470.923 747.483 471.013 747.764 471.242 Q 748.834 472.132 750.064 472.242 L 752.854 475.532 Q 754.584 476.852 754.564 478.992 Q 749.864 480.122 751.574 484.242 Q 752.084 485.452 753.274 485.032 Q 753.254 485.582 753.564 485.992 L 746.564 491.242 Q 746.764 490.372 746.064 490.072 Q 748.384 488.992 749.944 486.992 C 750.017 486.909 750.037 486.794 749.997 486.693 C 749.958 486.591 749.865 486.518 749.754 486.502 Q 745.854 485.742 742.124 484.372 Q 740.274 483.692 739.304 483.992 Q 737.694 484.482 737.274 486.532 Q 735.754 486.452 734.564 485.492 Q 736.884 484.282 735.324 482.262 Q 731.894 477.802 727.374 481.342 Q 726.554 481.992 725.814 484.242 Q 724.964 484.312 724.314 483.742 Q 726.154 482.482 724.634 480.962 Q 723.824 480.162 723.104 479.282 L 721.814 477.992 Q 722.284 477.382 721.964 476.852 Q 721.644 476.312 721.604 475.972 Q 721.394 474.342 719.604 475.032 Q 719.224 470.512 721.054 466.412 Q 721.604 465.162 721.474 464.432 Q 721.264 463.362 720.314 462.572 Q 721.164 462.592 721.254 462.082 Q 721.454 461.032 721.484 459.952 Q 721.604 456.162 720.314 456.242 Q 720.804 455.262 721.124 452.842 Q 721.444 450.452 722.774 447.992 Q 723.654 446.372 725.844 443.982 Q 728.764 440.792 731.604 437.532 Z " fill="rgb(71,74,96)"/><path d=" M 769.854 450.532 Q 769.584 450.902 769.064 450.822 Q 766.244 449.432 763.774 451.282 Q 763.344 450.962 762.814 450.992 L 762.944 449.832 C 763.018 449.517 762.95 449.19 762.754 448.912 Q 761.124 445.902 763.004 443.222 Q 764.354 441.282 766.854 440.002 C 767.146 439.872 767.478 439.823 767.804 439.862 Q 769.964 440.302 770.724 442.362 C 770.879 442.671 770.882 443.018 770.734 443.332 Q 770.134 445.362 769.254 447.302 Q 768.784 448.322 768.924 448.972 Q 769.104 449.862 769.854 450.532 Z " fill="rgb(60,75,103)"/><path d=" M 854.064 395.322 Q 831.294 425.862 803.714 452.042 Q 789.984 465.062 789.194 465.812 Q 781.834 472.722 771.124 482.092 Q 743.594 506.192 724.064 521.322 Q 720.204 522.032 716.004 525.472 Q 714.284 526.872 713.294 527.742 Q 711.754 529.082 710.424 529.762 Q 707.044 531.482 703.744 533.332 Q 701.824 534.412 699.494 534.772 Q 697.224 535.122 694.984 535.652 Q 689.554 536.952 687.274 532.242 C 687.071 531.949 687.028 531.609 687.154 531.292 Q 687.554 528.592 685.004 528.592 Q 683.824 528.592 684.024 527.532 Q 696.714 503.332 715.754 483.722 Q 716.684 482.762 720.024 478.982 Q 720.084 478.912 720.394 478.422 Q 720.784 477.782 721.814 477.992 L 723.104 479.282 Q 723.014 479.952 722.494 480.072 Q 721.894 480.212 721.804 480.262 Q 719.404 481.522 718.274 484.032 Q 716.954 485.102 714.254 488.472 Q 713.204 489.782 713.314 490.742 Q 702.934 502.812 695.204 516.722 Q 693.834 519.192 691.564 525.032 Q 689.514 530.322 694.774 530.282 Q 696.534 530.272 698.134 529.522 Q 711.274 523.382 722.754 514.722 Q 732.584 507.292 751.114 491.682 Q 759.004 485.042 766.144 478.472 Q 783.514 462.502 800.294 445.902 Q 811.554 434.762 814.454 431.772 Q 829.174 416.552 841.634 399.352 Q 843.554 396.692 847.874 389.092 Q 849.294 386.592 848.304 384.902 Q 847.534 383.582 845.224 383.062 Q 840.324 381.962 834.754 384.472 Q 819.984 391.122 810.564 397.992 Q 808.484 399.332 806.064 399.742 Q 808.204 397.022 812.254 394.722 Q 816.104 392.532 823.564 386.572 L 835.774 379.032 Q 836.064 380.272 837.084 379.822 Q 841.914 377.642 846.684 375.332 Q 852.394 372.552 857.624 372.792 Q 860.384 372.922 860.124 375.662 Q 859.434 383.002 855.624 388.592 Q 853.824 391.242 853.504 392.722 Q 853.184 394.172 854.064 395.322 Z " fill="rgb(253,214,115)"/><path d=" M 813.524 453.282 Q 814.324 458.072 817.814 455.322 L 819.274 454.782 Q 819.064 455.742 819.694 456.442 C 819.934 456.664 820.031 456.975 819.954 457.272 Q 819.624 459.042 820.314 461.282 Q 821.284 464.452 820.424 468.302 C 820.329 468.616 820.353 468.948 820.494 469.252 Q 821.384 471.772 820.354 474.282 Q 821.054 471.952 820.374 470.972 Q 817.574 466.922 812.564 467.282 Q 812.014 467.322 811.564 467.992 Q 810.294 468.522 809.774 469.782 Q 808.524 470.992 808.864 472.772 Q 809.354 475.372 810.564 477.742 Q 805.364 485.292 800.724 493.202 Q 799.334 495.572 797.004 496.972 Q 794.744 498.322 790.764 498.662 Q 786.544 499.032 784.364 498.862 Q 780.804 498.592 777.894 496.612 C 777.114 496.085 776.176 495.838 775.234 495.912 Q 768.824 496.432 764.064 499.532 Q 763.434 499.942 764.064 500.742 Q 761.044 501.062 761.814 504.032 Q 761.894 504.342 761.774 506.032 Q 761.154 503.842 759.064 503.492 Q 763.754 497.892 769.444 493.372 Q 772.314 491.092 774.554 489.012 Q 777.024 486.722 779.624 484.592 Q 781.394 483.152 782.564 483.242 Q 784.284 485.062 786.424 484.792 Q 788.444 484.542 789.434 482.712 Q 790.754 480.272 788.274 477.782 Q 795.554 470.162 803.254 462.972 Q 805.184 461.162 806.144 460.532 C 806.433 460.347 806.652 460.101 806.774 459.822 Q 808.424 456.412 811.594 454.242 C 811.928 454.04 812.131 453.778 812.164 453.502 Q 812.614 452.482 813.524 453.282 Z " fill="rgb(77,72,87)"/><path d=" M 755.104 399.032 Q 750.974 404.782 749.314 397.742 Q 753.024 395.542 755.104 399.032 Z " fill="rgb(249,238,119)"/><path d=" M 764.814 426.322 Q 768.504 428.322 766.264 430.332 Q 764.974 431.502 763.464 431.352 Q 761.494 431.162 761.024 428.782 Q 761.564 425.812 764.814 426.322 Z " fill="rgb(255,227,39)"/><path d=" M 788.274 477.782 Q 790.754 480.272 789.434 482.712 Q 788.444 484.542 786.424 484.792 Q 784.284 485.062 782.564 483.242 Q 784.044 479.072 788.274 477.782 Z " fill="rgb(255,227,39)"/><path d=" M 807.064 406.072 Q 808.944 406.852 807.544 408.522 Q 804.204 412.512 801.014 408.642 C 800.895 408.529 800.875 408.371 800.964 408.242 L 801.024 408.032 Q 803.294 404.662 807.064 406.072 Z " fill="rgb(254,180,68)"/><path d=" M 812.064 417.072 Q 816.694 416.322 819.354 420.032 Q 817.034 423.572 813.814 426.322 Q 810.314 422.262 812.064 417.072 Z " fill="rgb(254,180,68)"/><path d=" M 769.064 450.822 Q 771.634 454.552 768.834 456.242 Q 766.864 457.422 764.704 456.612 Q 761.574 455.422 763.774 451.282 Q 766.244 449.432 769.064 450.822 Z " fill="rgb(254,180,68)"/><path d=" M 811.564 467.992 L 816.874 470.322 C 817.164 470.447 817.325 470.739 817.264 471.032 Q 816.674 476.002 812.254 472.592 Q 811.314 471.872 809.774 469.782 Q 810.294 468.522 811.564 467.992 Z " fill="rgb(254,180,68)"/><path d=" M 794.024 446.782 Q 791.224 452.692 786.814 447.992 Q 787.374 442.252 792.754 444.092 Q 794.324 444.632 794.024 446.782 Z " fill="rgb(255,157,68)"/><path d=" M 755.814 464.572 Q 753.934 463.372 753.824 461.112 Q 753.804 460.712 753.664 460.492 Q 753.264 459.842 752.874 460.592 Q 751.344 463.572 748.124 463.502 Q 745.454 463.442 744.204 465.462 Q 742.744 467.832 743.304 465.102 Q 743.974 461.792 741.024 461.032 Q 743.074 457.422 746.504 456.222 Q 750.924 454.662 754.004 457.342 Q 757.204 460.132 755.814 464.572 Z " fill="rgb(255,157,68)"/><path d=" M 736.564 456.492 Q 738.984 457.432 740.604 459.532 Q 740.634 460.092 740.274 460.532 L 738.004 464.482 C 737.835 464.831 737.466 465.095 737.014 465.192 Q 733.974 465.492 731.784 463.972 Q 730.374 462.982 730.094 461.542 Q 729.754 459.772 731.244 458.412 C 731.37 458.263 731.691 458.138 732.124 458.072 Q 732.774 457.952 733.014 457.332 C 732.945 457.074 733.196 456.819 733.614 456.722 L 736.564 456.492 Z " fill="rgb(255,157,68)"/><path d=" M 767.354 468.532 Q 766.844 469.192 766.444 469.832 Q 764.574 472.852 761.314 470.992 Q 759.184 468.252 757.564 468.032 Q 755.024 467.682 756.564 465.322 L 759.064 462.822 Q 764.194 459.942 766.754 465.092 Q 767.014 465.622 767.354 468.532 Z " fill="rgb(255,157,68)"/><path d=" M 819.774 403.032 Q 820.544 405.442 823.274 404.782 L 817.564 404.992 Q 818.174 403.412 819.774 403.032 Z " fill="rgb(179,59,60)"/><path d=" M 764.064 500.742 Q 768.624 502.492 767.024 506.112 Q 766.304 507.742 764.794 508.032 Q 762.774 508.412 761.774 506.032 Q 761.894 504.342 761.814 504.032 Q 761.044 501.062 764.064 500.742 Z " fill="rgb(245,199,86)"/><path d=" M 823.564 396.242 Q 829.244 400.752 823.274 404.782 Q 820.544 405.442 819.774 403.032 L 819.854 402.782 Q 824.284 401.962 822.034 398.502 C 821.87 398.275 821.569 398.171 821.284 398.242 Q 819.924 398.632 818.504 398.662 Q 816.854 398.692 817.024 400.282 Q 816.224 398.912 817.464 398.152 Q 820.264 396.422 823.564 396.242 Z " fill="rgb(251,173,76)"/><path d=" M 780.854 460.532 Q 779.634 463.322 776.604 463.782 Q 772.634 460.372 777.274 458.012 Q 781.494 455.872 780.854 460.532 Z " fill="rgb(251,173,76)"/><path d=" M 821.814 384.742 Q 823.544 385.062 823.564 386.572 Q 816.104 392.532 812.254 394.722 Q 808.204 397.022 806.064 399.742 Q 804.404 400.002 802.804 398.972 C 802.698 398.911 802.632 398.801 802.628 398.682 C 802.624 398.562 802.683 398.449 802.784 398.382 L 821.814 384.742 Z " fill="rgb(207,72,56)"/><path d=" M 798.104 408.782 Q 799.324 411.532 799.014 414.532 Q 798.534 419.292 803.064 419.782 Q 803.894 419.872 805.564 421.242 Q 800.514 420.882 802.604 425.282 Q 801.324 427.892 798.704 429.142 C 798.441 429.226 798.149 429.125 798.014 428.902 Q 796.994 427.282 794.814 427.572 Q 791.504 423.792 786.064 424.782 Q 784.314 425.102 783.854 426.532 Q 783.724 425.612 783.474 426.622 Q 782.994 428.642 781.804 430.292 C 781.609 430.566 781.289 430.724 780.953 430.712 C 780.617 430.7 780.309 430.519 780.134 430.232 Q 778.174 427.042 775.064 429.072 L 774.064 429.572 L 770.104 430.282 L 770.774 428.282 Q 770.734 427.432 771.274 426.782 Q 776.824 422.892 778.254 417.972 Q 779.864 412.442 774.864 413.252 C 774.546 413.312 774.274 413.507 774.124 413.782 L 771.014 419.252 Q 769.734 421.492 767.224 421.122 Q 763.284 420.542 761.624 416.222 Q 761.224 415.182 760.604 415.032 Q 759.354 413.132 760.964 411.672 Q 761.904 410.812 762.314 409.572 Q 765.584 407.522 769.344 408.632 C 769.644 408.702 769.965 408.642 770.204 408.472 Q 771.774 407.132 772.794 404.092 C 773.069 403.293 772.694 402.417 771.924 402.062 Q 769.584 400.962 767.354 402.572 Q 763.114 405.622 758.504 408.052 C 758.219 408.192 757.884 408.211 757.584 408.102 Q 756.214 407.512 758.264 407.272 Q 758.764 407.212 759.144 406.942 Q 767.684 401.072 769.504 399.722 Q 773.904 396.432 778.774 397.042 Q 780.634 397.272 783.294 399.132 Q 786.994 401.702 791.814 403.782 Q 795.304 405.282 798.104 408.782 Z " fill="rgb(153,144,108)"/><path d=" M 734.564 485.492 Q 729.964 486.752 725.814 484.242 Q 726.554 481.992 727.374 481.342 Q 731.894 477.802 735.324 482.262 Q 736.884 484.282 734.564 485.492 Z " fill="rgb(153,144,108)"/><path d=" M 730.314 472.242 Q 728.154 474.672 728.314 471.072 Q 729.284 470.442 729.844 469.472 C 729.89 469.203 730.121 468.95 730.494 468.762 Q 731.954 467.912 731.264 469.762 Q 730.794 471.002 730.314 472.242 Z " fill="rgb(240,161,86)"/><path d=" M 759.064 462.822 L 756.564 465.322 Q 755.624 465.462 755.814 464.572 Q 757.204 460.132 754.004 457.342 Q 750.924 454.662 746.504 456.222 Q 743.074 457.422 741.024 461.032 Q 740.144 461.672 740.274 460.532 Q 740.634 460.092 740.604 459.532 Q 743.304 455.662 749.064 455.282 Q 752.604 455.042 754.774 456.642 Q 755.614 457.252 756.864 459.702 Q 757.724 461.412 759.064 462.822 Z " fill="rgb(87,67,82)"/><path d=" M 775.064 429.072 Q 781.104 430.002 777.844 435.112 C 777.674 435.371 777.382 435.532 777.064 435.542 Q 768.414 435.672 774.064 429.572 L 775.064 429.072 Z " fill="rgb(252,181,41)"/><path d=" M 772.064 469.572 Q 768.824 473.192 765.094 476.282 Q 761.974 478.862 759.394 481.202 Q 756.604 483.742 753.564 485.992 Q 753.254 485.582 753.274 485.032 Q 754.384 484.172 755.474 483.302 Q 756.754 482.272 757.224 481.362 Q 758.544 478.812 754.564 478.992 Q 754.584 476.852 752.854 475.532 Q 757.094 475.672 759.624 472.342 Q 760.024 471.822 761.314 470.992 Q 764.574 472.852 766.444 469.832 Q 766.844 469.192 767.354 468.532 Q 767.834 470.422 767.744 468.532 Q 767.484 462.882 768.324 468.072 C 768.345 468.231 768.484 468.348 768.644 468.342 Q 770.554 468.322 772.064 469.572 Z " fill="rgb(111,79,112)"/><path d=" M 724.064 521.322 Q 711.504 531.662 697.234 539.442 Q 691.834 542.392 684.814 543.032 Q 682.464 543.242 681.224 541.982 Q 680.234 540.982 680.344 538.812 Q 680.664 532.732 684.024 527.532 Q 683.824 528.592 685.004 528.592 Q 687.554 528.592 687.154 531.292 C 687.028 531.609 687.071 531.949 687.274 532.242 Q 689.554 536.952 694.984 535.652 Q 697.224 535.122 699.494 534.772 Q 701.824 534.412 703.744 533.332 Q 707.044 531.482 710.424 529.762 Q 711.754 529.082 713.294 527.742 Q 714.284 526.872 716.004 525.472 Q 720.204 522.032 724.064 521.322 Z " fill="rgb(253,198,105)"/><path d=" M 775.024 385.532 Q 775.624 387.372 777.004 387.472 Q 780.694 387.742 782.784 388.422 C 783.083 388.524 783.323 388.75 783.444 389.042 L 784.274 391.032 Q 784.234 391.292 784.024 391.532 Q 782.914 393.652 780.314 393.532 Q 776.664 393.362 774.604 390.782 Q 773.554 388.002 775.024 385.532 Z " fill="rgb(243,116,46)"/><path d=" M 783.854 426.532 Q 782.684 428.882 783.864 431.252 Q 786.244 436.032 791.814 435.572 Q 790.994 436.942 788.274 436.572 Q 786.454 436.312 785.404 437.822 Q 784.314 439.382 781.564 440.492 Q 777.254 442.332 773.224 441.042 Q 769.834 439.962 768.744 437.052 Q 767.484 433.712 770.104 430.282 L 774.064 429.572 Q 768.414 435.672 777.064 435.542 C 777.382 435.532 777.674 435.371 777.844 435.112 Q 781.104 430.002 775.064 429.072 Q 778.174 427.042 780.134 430.232 C 780.309 430.519 780.617 430.7 780.953 430.712 C 781.289 430.724 781.609 430.566 781.804 430.292 Q 782.994 428.642 783.474 426.622 Q 783.724 425.612 783.854 426.532 Z " fill="rgb(243,116,46)"/><path d=" M 846.314 448.822 Q 848.364 452.012 846.764 454.582 Q 845.384 456.812 842.574 457.322 Q 839.094 457.962 836.754 454.592 Q 835.184 452.342 836.564 449.742 Q 838.114 450.772 839.854 450.992 Q 842.174 451.302 843.274 451.212 Q 845.274 451.032 846.314 448.822 Z " fill="rgb(243,116,46)"/><path d=" M 820.354 474.282 Q 817.254 480.482 810.564 477.742 Q 809.354 475.372 808.864 472.772 Q 808.524 470.992 809.774 469.782 Q 811.314 471.872 812.254 472.592 Q 816.674 476.002 817.264 471.032 C 817.325 470.739 817.164 470.447 816.874 470.322 L 811.564 467.992 Q 812.014 467.322 812.564 467.282 Q 817.574 466.922 820.374 470.972 Q 821.054 471.952 820.354 474.282 Z " fill="rgb(243,116,46)"/><path d=" M 819.524 448.032 Q 820.814 450.932 819.604 453.782 Q 820.054 451.002 818.314 448.992 Q 818.744 448.322 819.524 448.032 Z " fill="rgb(151,112,83)"/><path d=" M 789.854 451.532 Q 790.304 451.582 790.564 451.852 C 790.717 451.963 790.803 452.118 790.803 452.28 C 790.803 452.442 790.717 452.598 790.564 452.712 Q 788.674 455.802 785.104 456.782 Q 785.474 455.502 786.434 454.602 C 786.639 454.425 786.943 454.285 787.304 454.202 Q 789.394 453.762 789.854 451.532 Z " fill="rgb(174,64,97)"/><path d=" M 729.314 426.992 Q 730.474 427.722 729.994 429.262 C 729.715 430.135 730.086 431.084 730.884 431.542 Q 734.994 433.912 738.674 432.462 Q 740.254 431.832 739.854 433.782 Q 737.724 436.982 734.064 438.322 Q 732.544 438.562 731.604 437.532 Q 728.774 436.092 728.124 434.972 Q 725.484 430.432 729.314 426.992 Z " fill="rgb(255,93,34)"/><path d=" M 732.314 456.072 L 736.564 456.492 L 733.614 456.722 C 733.196 456.819 732.945 457.074 733.014 457.332 Q 732.774 457.952 732.124 458.072 C 731.691 458.138 731.37 458.263 731.244 458.412 Q 729.754 459.772 730.094 461.542 Q 730.374 462.982 731.784 463.972 Q 733.974 465.492 737.014 465.192 C 737.466 465.095 737.835 464.831 738.004 464.482 L 740.274 460.532 Q 740.144 461.672 741.024 461.032 Q 743.974 461.792 743.304 465.102 Q 742.744 467.832 744.204 465.462 Q 745.454 463.442 748.124 463.502 Q 751.344 463.572 752.874 460.592 Q 753.264 459.842 753.664 460.492 Q 753.804 460.712 753.824 461.112 Q 753.934 463.372 755.814 464.572 Q 755.624 465.462 756.564 465.322 Q 755.024 467.682 757.564 468.032 Q 759.184 468.252 761.314 470.992 Q 760.024 471.822 759.624 472.342 Q 757.094 475.672 752.854 475.532 L 750.064 472.242 Q 749.344 470.732 748.374 470.722 Q 744.704 470.682 741.554 468.852 C 741.288 468.698 740.961 468.687 740.684 468.822 L 737.564 470.322 Q 735.224 470.762 733.304 469.722 C 732.984 469.561 732.837 469.252 732.944 468.962 Q 733.034 467.332 731.054 467.442 Q 729.464 467.532 727.854 467.532 Q 727.804 465.362 727.804 463.192 Q 727.804 460.352 728.544 459.002 Q 729.704 456.872 732.314 456.072 Z " fill="rgb(255,93,34)"/><path d=" M 805.564 421.242 Q 808.054 422.122 808.354 424.782 Q 808.224 426.742 806.064 426.532 Q 803.994 426.322 802.604 425.282 Q 800.514 420.882 805.564 421.242 Z " fill="rgb(173,127,80)"/><path d=" M 814.274 452.282 Q 815.184 454.812 817.814 455.322 Q 814.324 458.072 813.524 453.282 Q 813.444 452.482 814.274 452.282 Z " fill="rgb(173,127,80)"/><path d=" M 819.354 420.032 Q 819.734 420.022 820.024 420.282 Q 815.004 428.082 808.104 434.282 Q 808.994 431.872 810.854 430.032 Q 813.004 428.752 813.814 426.322 Q 817.034 423.572 819.354 420.032 Z " fill="rgb(173,125,72)"/><path d=" M 720.314 456.242 Q 721.604 456.162 721.484 459.952 Q 721.454 461.032 721.254 462.082 Q 721.164 462.592 720.314 462.572 Q 717.104 459.462 720.314 456.242 Z " fill="rgb(173,125,72)"/><path d=" M 727.854 467.532 Q 729.464 467.532 731.054 467.442 Q 733.034 467.332 732.944 468.962 C 732.837 469.252 732.984 469.561 733.304 469.722 Q 735.224 470.762 737.564 470.322 L 734.564 470.992 L 730.314 472.242 Q 730.794 471.002 731.264 469.762 Q 731.954 467.912 730.494 468.762 C 730.121 468.95 729.89 469.203 729.844 469.472 Q 729.284 470.442 728.314 471.072 Q 727.444 469.422 727.854 467.532 Z " fill="rgb(173,125,72)"/><path d=" M 742.024 440.282 Q 738.584 441.282 736.954 444.152 Q 735.494 446.742 735.154 447.022 Q 733.954 448.012 731.904 448.502 Q 729.344 449.102 730.444 446.712 Q 731.584 444.202 732.194 440.782 Q 732.214 440.652 732.164 439.292 Q 732.114 438.042 734.064 438.322 Q 737.724 436.982 739.854 433.782 L 740.024 433.782 Q 740.794 428.182 741.054 435.772 C 741.068 435.936 741.018 436.099 740.914 436.232 Q 739.844 437.672 741.374 438.972 Q 742.154 439.632 742.024 440.282 Z " fill="rgb(90,85,105)"/><path d=" M 744.604 443.532 Q 745.364 443.902 745.874 444.972 Q 746.974 447.242 749.034 449.102 Q 749.164 449.222 751.194 451.342 Q 752.484 452.692 754.384 453.122 C 754.702 453.218 754.98 453.388 755.184 453.612 Q 756.654 455.232 760.224 454.992 C 760.901 454.949 761.457 454.446 761.564 453.782 Q 761.814 452.212 762.814 450.992 Q 763.344 450.962 763.774 451.282 Q 761.574 455.422 764.704 456.612 Q 766.864 457.422 768.834 456.242 Q 771.634 454.552 769.064 450.822 Q 769.584 450.902 769.854 450.532 Q 771.244 452.102 771.864 454.112 C 771.844 454.376 772.118 454.611 772.494 454.652 L 773.604 454.472 Q 774.514 454.332 774.564 454.342 Q 781.824 455.032 786.354 449.532 L 786.524 449.532 L 789.854 451.532 Q 789.394 453.762 787.304 454.202 C 786.943 454.285 786.639 454.425 786.434 454.602 Q 785.474 455.502 785.104 456.782 Q 783.414 459.142 780.854 460.532 Q 781.494 455.872 777.274 458.012 Q 772.634 460.372 776.604 463.782 Q 777.084 464.972 775.874 466.092 Q 773.984 467.842 772.064 469.572 Q 770.554 468.322 768.644 468.342 C 768.484 468.348 768.345 468.231 768.324 468.072 Q 767.484 462.882 767.744 468.532 Q 767.834 470.422 767.354 468.532 Q 767.014 465.622 766.754 465.092 Q 764.194 459.942 759.064 462.822 Q 757.724 461.412 756.864 459.702 Q 755.614 457.252 754.774 456.642 Q 752.604 455.042 749.064 455.282 Q 743.304 455.662 740.604 459.532 Q 738.984 457.432 736.564 456.492 L 732.314 456.072 Q 730.194 455.742 733.314 455.862 Q 734.804 455.912 736.254 455.682 Q 736.694 455.612 736.264 455.482 Q 734.864 455.052 735.264 453.832 Q 735.424 453.342 736.274 452.602 Q 737.554 451.492 738.014 449.832 C 738.083 449.53 738.287 449.271 738.574 449.122 Q 742.394 447.182 744.604 443.532 Z " fill="rgb(90,85,105)"/><path d=" M 819.854 402.782 Q 818.074 401.902 817.024 400.282 Q 816.854 398.692 818.504 398.662 Q 819.924 398.632 821.284 398.242 C 821.569 398.171 821.87 398.275 822.034 398.502 Q 824.284 401.962 819.854 402.782 Z " fill="rgb(254,227,97)"/><path d=" M 718.274 484.032 Q 718.484 485.132 717.804 485.782 Q 717.084 486.462 717.044 486.512 Q 715.294 488.722 713.314 490.742 Q 713.204 489.782 714.254 488.472 Q 716.954 485.102 718.274 484.032 Z " fill="rgb(251,143,76)"/><path d=" M 752.064 509.742 Q 754.824 512.742 753.454 515.682 Q 752.294 518.172 749.604 518.452 Q 746.634 518.772 744.774 515.532 Q 746.624 510.432 752.064 509.742 Z " fill="rgb(251,143,76)"/><path d=" M 750.064 472.242 Q 748.834 472.132 747.764 471.242 C 747.483 471.013 747.113 470.923 746.758 470.997 C 746.402 471.071 746.099 471.301 745.934 471.622 Q 743.514 476.362 739.064 475.032 Q 737.844 474.672 736.674 473.262 Q 735.674 472.072 734.564 470.992 L 737.564 470.322 L 740.684 468.822 C 740.961 468.687 741.288 468.698 741.554 468.852 Q 744.704 470.682 748.374 470.722 Q 749.344 470.732 750.064 472.242 Z " fill="rgb(105,121,113)"/><path d=" M 746.064 490.072 Q 741.274 489.212 737.274 486.532 Q 737.694 484.482 739.304 483.992 Q 740.274 483.692 742.124 484.372 Q 745.854 485.742 749.754 486.502 C 749.865 486.518 749.958 486.591 749.997 486.693 C 750.037 486.794 750.017 486.909 749.944 486.992 Q 748.384 488.992 746.064 490.072 Z " fill="rgb(105,121,113)"/><path d=" M 774.604 390.782 Q 776.664 393.362 780.314 393.532 Q 782.914 393.652 784.024 391.532 L 783.974 392.792 C 783.936 393.075 784.178 393.338 784.544 393.412 Q 791.624 395.362 803.124 400.722 Q 805.984 402.052 809.814 400.072 Q 810.724 400.242 810.814 401.532 Q 811.114 405.692 815.564 405.822 Q 817.234 406.002 815.824 406.392 Q 811.524 407.572 811.274 412.032 Q 810.394 410.082 809.814 408.032 Q 809.334 406.362 807.064 406.072 Q 803.294 404.662 801.024 408.032 L 798.104 408.782 Q 795.304 405.282 791.814 403.782 Q 786.994 401.702 783.294 399.132 Q 780.634 397.272 778.774 397.042 Q 773.904 396.432 769.504 399.722 Q 767.684 401.072 759.144 406.942 Q 758.764 407.212 758.264 407.272 Q 756.214 407.512 757.584 408.102 C 757.884 408.211 758.219 408.192 758.504 408.052 Q 763.114 405.622 767.354 402.572 Q 769.584 400.962 771.924 402.062 C 772.694 402.417 773.069 403.293 772.794 404.092 Q 771.774 407.132 770.204 408.472 C 769.965 408.642 769.644 408.702 769.344 408.632 Q 765.584 407.522 762.314 409.572 L 760.784 409.842 Q 759.964 409.992 759.814 409.982 Q 755.734 409.692 755.324 414.452 Q 755.124 416.782 752.774 416.782 Q 749.084 416.782 745.454 417.342 Q 742.814 417.762 741.234 419.372 Q 739.144 421.492 737.814 424.532 Q 737.074 426.222 734.854 425.532 Q 734.714 424.722 733.814 425.072 Q 730.944 425.812 731.564 423.282 Q 733.994 413.332 743.714 411.982 Q 747.624 411.442 748.724 410.812 Q 750.404 409.862 751.534 408.262 Q 753.384 405.652 753.444 405.592 Q 757.514 400.922 762.444 397.142 Q 767.824 393.022 773.624 391.842 Q 774.664 391.632 774.604 390.782 Z " fill="rgb(76,77,84)"/><path d=" M 753.274 485.032 Q 752.084 485.452 751.574 484.242 Q 749.864 480.122 754.564 478.992 Q 758.544 478.812 757.224 481.362 Q 756.754 482.272 755.474 483.302 Q 754.384 484.172 753.274 485.032 Z " fill="rgb(172,142,111)"/><path d=" M 771.274 426.782 Q 769.564 427.472 768.374 426.722 Q 766.044 425.242 763.594 423.972 Q 757.884 421.012 760.604 415.032 Q 761.224 415.182 761.624 416.222 Q 763.284 420.542 767.224 421.122 Q 769.734 421.492 771.014 419.252 L 774.124 413.782 C 774.274 413.507 774.546 413.312 774.864 413.252 Q 779.864 412.442 778.254 417.972 Q 776.824 422.892 771.274 426.782 Z " fill="rgb(70,85,85)"/><path d=" M 807.064 406.072 Q 809.334 406.362 809.814 408.032 Q 810.394 410.082 811.274 412.032 Q 812.164 414.442 812.064 417.072 Q 810.314 422.262 813.814 426.322 Q 813.004 428.752 810.854 430.032 Q 808.844 427.782 808.354 424.782 Q 808.054 422.122 805.564 421.242 Q 803.894 419.872 803.064 419.782 Q 798.534 419.292 799.014 414.532 Q 799.324 411.532 798.104 408.782 L 801.024 408.032 L 800.964 408.242 C 800.875 408.371 800.895 408.529 801.014 408.642 Q 804.204 412.512 807.544 408.522 Q 808.944 406.852 807.064 406.072 Z " fill="rgb(100,100,96)"/><path d=" M 756.104 428.032 Q 757.124 434.972 752.124 439.632 C 751.886 439.847 751.583 439.99 751.254 440.042 Q 746.594 440.592 747.774 435.282 Q 748.894 431.712 749.874 430.092 Q 751.634 427.202 755.064 427.322 Q 755.784 427.342 756.104 428.032 Z " fill="rgb(63,78,90)"/><path d=" M 749.314 397.742 Q 750.974 404.782 755.104 399.032 Q 756.564 400.662 754.874 402.592 Q 753.414 404.272 752.434 404.952 C 752.166 405.127 751.833 405.189 751.514 405.122 Q 747.244 404.192 747.814 399.532 Q 747.964 398.322 749.314 397.742 Z " fill="rgb(252,173,66)"/><path d=" M 733.814 425.072 Q 734.714 424.722 734.854 425.532 Q 741.084 427.052 740.024 433.782 L 739.854 433.782 Q 740.254 431.832 738.674 432.462 Q 734.994 433.912 730.884 431.542 C 730.086 431.084 729.715 430.135 729.994 429.262 Q 730.474 427.722 729.314 426.992 Q 731.024 424.982 733.814 425.072 Z " fill="rgb(252,173,66)"/><path d=" M 784.274 391.032 L 783.444 389.042 C 783.323 388.75 783.083 388.524 782.784 388.422 Q 780.694 387.742 777.004 387.472 Q 775.624 387.372 775.024 385.532 Q 777.304 382.022 781.064 383.032 Q 787.164 384.662 784.274 391.032 Z " fill="rgb(254,213,85)"/><circle vector-effect="non-scaling-stroke" cx="798.0942516446553" cy="392.8615387852433" r="2.6900000000000546" fill="rgb(254,213,85)"/><path d=" M 846.314 448.822 Q 845.274 451.032 843.274 451.212 Q 842.174 451.302 839.854 450.992 Q 838.114 450.772 836.564 449.742 Q 840.624 443.472 846.314 448.822 Z " fill="rgb(254,213,85)"/><path d=" M 818.314 448.992 Q 820.054 451.002 819.604 453.782 Q 819.634 454.342 819.274 454.782 L 817.814 455.322 Q 815.184 454.812 814.274 452.282 Q 815.554 449.702 818.314 448.992 Z " fill="rgb(254,213,85)"/><path d=" M 762.314 409.572 Q 761.904 410.812 760.964 411.672 Q 759.354 413.132 760.604 415.032 Q 757.884 421.012 763.594 423.972 Q 766.044 425.242 768.374 426.722 Q 769.564 427.472 771.274 426.782 Q 770.734 427.432 770.774 428.282 Q 770.524 426.782 768.314 427.432 C 767.663 427.621 766.965 427.355 766.604 426.782 Q 766.164 426.092 764.814 426.322 Q 761.564 425.812 761.024 428.782 Q 760.864 428.652 760.794 428.472 Q 760.704 428.212 760.564 428.402 Q 760.174 428.922 759.644 428.652 Q 759.094 428.352 758.754 428.322 L 756.104 428.032 Q 755.784 427.342 755.064 427.322 Q 751.634 427.202 749.874 430.092 Q 748.894 431.712 747.774 435.282 Q 745.484 435.072 743.344 435.802 C 743.06 435.897 742.907 436.182 742.994 436.452 L 744.524 443.282 L 742.024 440.282 Q 742.154 439.632 741.374 438.972 Q 739.844 437.672 740.914 436.232 C 741.018 436.099 741.068 435.936 741.054 435.772 Q 740.794 428.182 740.024 433.782 Q 741.084 427.052 734.854 425.532 Q 737.074 426.222 737.814 424.532 Q 739.144 421.492 741.234 419.372 Q 742.814 417.762 745.454 417.342 Q 749.084 416.782 752.774 416.782 Q 755.124 416.782 755.324 414.452 Q 755.734 409.692 759.814 409.982 Q 759.964 409.992 760.784 409.842 L 762.314 409.572 Z " fill="rgb(132,141,109)"/><path d=" M 854.064 395.322 Q 853.184 394.172 853.504 392.722 Q 853.824 391.242 855.624 388.592 Q 859.434 383.002 860.124 375.662 Q 860.384 372.922 857.624 372.792 Q 852.394 372.552 846.684 375.332 Q 841.914 377.642 837.084 379.822 Q 836.064 380.272 835.774 379.032 Q 846.724 371.832 857.814 369.282 Q 861.414 368.452 863.454 370.732 Q 865.004 372.472 864.574 375.302 Q 864.214 377.672 863.124 380.092 Q 859.284 388.642 854.064 395.322 Z " fill="rgb(254,233,135)"/><path d=" M 788.894 485.652 Q 790.854 483.982 791.624 481.452 C 791.704 481.183 791.962 480.999 792.254 481.002 Q 794.754 481.072 796.114 478.812 Q 797.824 475.972 799.814 475.282 Q 801.774 474.602 803.064 476.602 C 803.241 476.868 803.264 477.205 803.124 477.492 Q 801.804 480.472 799.164 482.432 C 798.896 482.625 798.697 482.894 798.594 483.202 Q 797.334 486.782 794.894 489.632 Q 793.534 491.202 791.704 491.532 Q 789.804 491.882 787.804 491.582 Q 784.374 491.072 780.944 489.992 Q 780.134 489.742 780.944 489.482 Q 782.194 489.092 783.384 488.582 Q 783.924 488.342 785.474 487.102 Q 786.554 486.232 788.014 486.022 C 788.351 485.956 788.656 485.828 788.894 485.652 Z " fill="rgb(82,92,119)"/><path d=" M 802.741 428.73 C 803.868 429.022 804.4 430.742 803.927 432.57 C 803.454 434.397 802.155 435.644 801.028 435.353 C 799.901 435.061 799.369 433.341 799.841 431.513 C 800.314 429.686 801.613 428.439 802.741 428.73 Z " fill="rgb(255,178,27)"/><path d=" M 780.191 409.898 C 780.365 407.947 782.381 406.53 784.69 406.736 C 786.999 406.942 788.732 408.693 788.558 410.645 C 788.383 412.596 786.368 414.014 784.059 413.807 C 781.75 413.601 780.017 411.85 780.191 409.898 Z " fill="rgb(254,180,68)"/><path d=" M 731.734 492.642 Q 733.114 490.702 735.624 492.032 C 735.917 492.183 736.123 492.455 736.184 492.772 Q 736.674 495.312 734.464 496.922 Q 732.364 498.442 731.334 495.642 Q 730.744 494.042 731.734 492.642 Z " fill="rgb(252,212,137)"/><path d=" M 719.202 498.646 C 720.448 497.113 722.792 496.95 724.432 498.283 C 726.073 499.616 726.393 501.944 725.147 503.477 C 723.9 505.01 721.557 505.173 719.916 503.84 C 718.276 502.507 717.956 500.179 719.202 498.646 Z " fill="rgb(254,213,85)"/></g></g></svg>