<?xml version="1.0" encoding="UTF-8" standalone="no"?><!-- Generator: Gravit.io --><svg xmlns="http://www.w3.org/2000/svg" xmlns:xlink="http://www.w3.org/1999/xlink" style="isolation:isolate" viewBox="162.888 153.095 183.109 140.133" width="183.109pt" height="140.133pt"><defs><clipPath id="_clipPath_R3HlUlEmsq2qZCRDM7qwBcfx7FlJqYjf"><rect x="162.888" y="153.095" width="183.109" height="140.133"/></clipPath></defs><g clip-path="url(#_clipPath_R3HlUlEmsq2qZCRDM7qwBcfx7FlJqYjf)"><path d=" M 250.863 168.023 Q 247.593 168.333 246.563 170.993 Q 246.083 172.203 246.043 172.293 Q 244.593 175.353 243.133 178.413 Q 241.543 176.033 241.843 173.163 Q 241.993 171.723 240.653 172.723 Q 238.713 174.183 238.303 176.663 Q 237.243 177.443 236.093 177.123 Q 237.613 174.043 239.473 171.153 Q 241.233 168.423 243.513 167.623 Q 247.113 166.353 250.863 168.023 Z " fill="rgb(254,162,51)"/><path d=" M 241.053 193.913 Q 241.603 194.323 242.343 194.203 Q 240.883 199.513 241.723 206.623 Q 241.953 208.513 240.513 209.773 Q 240.113 210.123 240.053 211.663 Q 239.543 208.213 236.843 206.123 L 241.053 193.913 Z " fill="rgb(254,162,51)"/><path d=" M 316.233 227.293 Q 326.183 237.403 324.653 250.223 Q 323.913 256.473 318.543 259.973 Q 315.893 261.703 313.183 261.593 Q 309.873 261.453 307.723 259.133 Q 305.583 256.823 305.153 253.103 Q 304.763 249.713 305.993 246.333 Q 307.043 243.443 308.293 240.643 Q 310.573 235.523 308.133 229.693 C 308.064 229.534 307.925 229.415 307.756 229.368 C 307.587 229.322 307.406 229.353 307.263 229.453 Q 300.813 234.293 294.693 239.243 Q 287.923 244.703 282.303 248.163 Q 268.143 256.883 252.923 264.853 C 252.554 265.05 252.288 265.396 252.193 265.803 Q 250.763 271.993 248.013 275.563 Q 245.973 278.213 243.023 279.153 Q 240.163 280.073 237.183 279.093 Q 233.573 277.923 231.333 274.493 Q 230.223 272.803 228.513 274.973 C 227.935 275.707 227.574 276.587 227.473 277.513 Q 227.263 279.363 226.883 281.743 Q 226.463 284.393 225.403 285.663 Q 222.913 288.643 219.473 284.543 Q 216.363 280.833 213.283 282.953 Q 211.883 283.913 210.783 286.523 Q 209.923 288.583 209.093 290.663 Q 208.153 293.013 205.733 293.213 Q 203.913 293.363 202.433 292.013 Q 201.163 290.863 200.153 289.103 Q 198.743 286.643 196.123 286.323 Q 195.473 286.243 191.553 286.573 Q 188.793 286.803 186.063 287.213 Q 182.673 287.723 180.593 287.603 Q 159.643 286.433 163.483 263.573 Q 165.893 257.013 169.823 251.283 Q 172.543 247.293 178.253 240.413 Q 187.653 229.073 200.253 220.263 Q 201.323 222.033 201.593 223.873 Q 191.673 232.573 186.903 237.473 Q 181.903 242.623 176.933 249.673 Q 172.233 256.353 170.933 259.203 Q 168.553 264.403 168.513 270.413 Q 168.493 273.503 170.533 276.973 Q 174.263 283.343 181.353 282.233 Q 184.963 281.673 188.593 281.483 Q 197.463 281.003 204.703 286.813 C 204.894 286.966 205.144 287.024 205.382 286.971 C 205.621 286.919 205.824 286.761 205.933 286.543 Q 207.393 283.703 207.333 279.773 Q 207.293 276.613 210.213 277.813 Q 212.303 278.673 214.193 277.863 Q 215.443 277.323 216.653 275.173 Q 221.073 267.313 230.403 262.443 C 231.01 262.123 231.461 261.571 231.653 260.913 Q 232.303 258.703 230.003 261.153 C 229.772 261.397 229.467 261.561 229.133 261.623 Q 220.033 263.303 211.533 267.353 Q 205.413 270.263 197.053 269.683 Q 193.523 269.433 191.223 267.663 Q 187.273 264.603 185.773 259.433 Q 184.833 256.163 185.783 252.353 Q 187.413 245.803 191.613 241.193 Q 195.593 236.843 195.673 236.743 Q 197.673 234.243 199.653 231.723 Q 201.063 229.933 202.283 231.223 Q 203.313 232.323 203.383 230.913 Q 203.913 232.543 205.173 233.743 Q 203.513 235.563 199.403 238.723 Q 192.393 244.123 190.093 253.623 Q 188.233 255.393 188.653 256.853 Q 191.153 265.483 200.343 262.823 Q 212.933 262.073 223.843 255.623 Q 225.013 255.633 224.503 256.913 C 224.391 257.175 224.41 257.471 224.554 257.719 C 224.698 257.966 224.952 258.137 225.243 258.183 L 231.723 259.383 C 232.251 259.442 232.768 259.235 233.023 258.863 L 235.383 254.163 L 238.193 250.713 Q 238.423 250.423 239.003 250.183 Q 240.983 249.353 241.403 246.713 L 248.843 244.373 Q 255.803 245.313 260.183 240.243 Q 267.243 234.143 275.033 229.043 Q 281.123 225.043 287.673 220.693 Q 289.693 221.073 292.903 218.723 Q 295.343 216.943 295.553 215.423 Q 309.433 206.583 317.723 192.163 Q 323.993 184.713 317.303 177.623 Q 314.463 174.993 311.093 174.913 Q 298.263 174.593 286.553 181.413 Q 284.293 180.743 283.253 178.043 Q 296.623 172.233 311.023 171.713 Q 315.173 171.563 317.443 172.843 Q 320.353 174.493 322.093 177.913 Q 325.513 184.653 323.113 191.373 Q 320.323 199.193 314.203 204.783 Q 304.983 213.203 295.273 221.043 Q 288.363 226.613 279.053 232.733 Q 264.823 242.083 250.333 251.433 Q 249.393 252.043 248.833 253.003 L 244.393 260.743 Q 243.363 262.543 245.313 261.833 Q 264.093 255.023 281.353 244.623 Q 283.393 243.393 284.393 242.193 Q 285.613 240.733 286.493 238.843 C 286.832 238.118 287.378 237.506 288.063 237.083 Q 291.443 234.993 294.183 232.143 Q 297.473 228.723 297.513 228.683 Q 302.523 224.163 308.983 221.603 Q 310.853 220.873 312.033 219.253 Q 315.563 214.453 319.053 209.113 Q 321.013 206.123 323.753 207.873 Q 325.083 208.723 325.123 208.743 Q 328.913 210.653 328.963 206.693 Q 329.003 204.213 329.263 203.183 Q 331.833 193.043 336.593 185.163 Q 342.443 175.483 340.693 164.953 Q 340.323 162.723 339.363 161.623 Q 338.183 160.273 336.153 159.603 Q 330.343 157.673 325.083 158.293 Q 300.453 161.223 280.093 175.203 Q 276.863 173.363 275.423 170.713 Q 286.303 163.983 296.093 160.663 Q 300.083 159.313 314.593 155.163 Q 323.223 152.693 330.733 153.173 Q 337.173 153.573 340.813 156.543 Q 345.303 160.193 345.893 166.913 Q 346.153 169.783 345.763 172.653 Q 344.053 185.233 336.843 195.643 Q 335.043 198.233 334.933 201.413 Q 334.693 208.493 333.343 211.163 Q 330.823 216.163 325.073 214.663 Q 322.893 214.093 321.253 215.623 Q 316.823 219.743 316.233 227.293 Z " fill="rgb(252,163,60)"/><path d=" M 275.423 170.713 Q 276.863 173.363 280.093 175.203 Q 281.283 177.383 283.253 178.043 Q 284.293 180.743 286.553 181.413 L 289.593 186.733 C 289.736 186.975 290.044 187.062 290.293 186.933 Q 302.903 180.663 317.303 177.623 Q 323.993 184.713 317.723 192.163 Q 312.863 191.053 308.463 192.623 Q 308.213 192.713 301.833 195.813 Q 298.703 197.333 295.263 199.093 C 294.98 199.236 294.808 199.529 294.823 199.843 L 295.553 215.423 Q 295.343 216.943 292.903 218.723 Q 289.693 221.073 287.673 220.693 Q 293.003 199.463 279.803 182.413 L 276.533 178.593 Q 274.273 173.503 270.283 171.723 Q 267.283 170.393 264.273 168.543 L 254.093 168.453 L 250.863 168.023 Q 247.113 166.353 243.513 167.623 Q 241.233 168.423 239.473 171.153 Q 237.613 174.043 236.093 177.123 Q 235.133 177.513 234.283 179.353 Q 232.633 182.883 232.093 184.913 Q 228.223 199.383 223.153 207.723 Q 219.493 213.753 219.413 220.433 C 219.407 220.882 219.602 221.311 219.946 221.603 C 220.29 221.895 220.747 222.02 221.193 221.943 Q 223.953 221.443 225.303 219.163 Q 226.503 219.683 225.533 220.853 Q 221.213 226.033 213.933 233.803 C 213.693 234.026 213.608 234.354 213.713 234.653 Q 214.003 235.573 214.663 236.263 C 214.867 236.45 215.188 236.45 215.393 236.263 Q 224.613 227.403 230.603 216.113 C 230.709 215.995 230.754 215.845 230.73 215.698 C 230.705 215.552 230.613 215.42 230.473 215.333 Q 229.653 214.753 228.663 215.273 C 228.241 215.5 227.907 215.858 227.713 216.293 Q 226.283 219.453 226.303 218.163 Q 230.593 211.133 233.343 201.163 Q 237.163 187.323 238.303 176.663 Q 238.713 174.183 240.653 172.723 Q 241.993 171.723 241.843 173.163 Q 241.543 176.033 243.133 178.413 Q 241.053 186.023 241.053 193.913 L 236.843 206.123 Q 233.563 210.743 231.813 216.113 C 231.688 216.415 231.729 216.753 231.923 217.023 Q 234.963 221.693 239.383 218.233 Q 233.423 231.953 221.353 240.833 Q 221.123 241.003 221.043 241.203 Q 220.823 241.743 221.863 241.213 Q 229.643 237.233 237.403 233.223 Q 243.543 230.053 247.313 225.783 Q 248.973 228.703 251.613 228.053 Q 252.013 227.963 251.723 228.253 Q 250.933 229.073 250.633 230.163 Q 241.833 237.593 231.363 242.463 Q 228.733 243.693 226.593 245.623 Q 225.603 245.953 224.953 246.713 C 224.86 246.806 224.824 246.934 224.856 247.056 C 224.888 247.178 224.984 247.278 225.113 247.323 Q 229.253 249.333 230.533 249.723 Q 234.033 250.783 235.383 254.163 L 233.023 258.863 C 232.768 259.235 232.251 259.442 231.723 259.383 L 225.243 258.183 C 224.952 258.137 224.698 257.966 224.554 257.719 C 224.41 257.471 224.391 257.175 224.503 256.913 Q 225.013 255.633 223.843 255.623 Q 224.503 255.443 224.993 255.023 C 225.108 254.945 225.173 254.816 225.165 254.682 C 225.157 254.548 225.077 254.427 224.953 254.363 L 219.643 251.343 C 219.203 251.181 218.694 251.219 218.293 251.443 L 200.343 262.823 Q 191.153 265.483 188.653 256.853 Q 188.233 255.393 190.093 253.623 Q 199.273 246.123 210.023 241.103 C 210.144 241.054 210.234 240.952 210.267 240.829 C 210.301 240.705 210.273 240.574 210.193 240.473 L 205.173 233.743 Q 203.913 232.543 203.383 230.913 L 201.593 223.873 Q 201.323 222.033 200.253 220.263 Q 199.353 208.463 202.713 197.513 Q 205.743 187.633 212.183 180.083 Q 224.333 165.833 243.843 163.413 Q 260.123 161.393 275.423 170.713 Z " fill="rgb(247,122,35)"/><path d=" M 264.273 168.543 Q 262.833 169.553 262.153 172.223 Q 261.353 175.373 261.303 176.163 Q 259.623 174.613 258.653 176.223 Q 255.043 182.233 252.653 190.223 Q 251.343 194.623 253.693 199.653 C 253.792 199.938 254.029 200.182 254.353 200.333 Q 255.813 200.933 257.053 199.663 L 255.963 205.433 Q 250.703 221.243 237.223 230.473 Q 236.523 230.943 236.873 230.183 Q 239.633 224.233 242.023 218.523 Q 243.493 215.033 244.093 209.413 Q 244.223 208.213 243.653 208.003 C 243.306 207.993 243.006 208.187 242.973 208.443 Q 242.143 210.683 241.953 213.093 Q 241.833 214.663 240.383 214.913 L 240.053 211.663 Q 240.113 210.123 240.513 209.773 Q 241.953 208.513 241.723 206.623 Q 240.883 199.513 242.343 194.203 Q 244.683 193.863 246.573 192.683 Q 248.183 191.673 249.003 189.293 Q 251.063 183.403 252.813 177.403 Q 252.833 177.323 253.603 175.073 Q 254.703 171.853 254.093 168.453 L 264.273 168.543 Z " fill="rgb(247,129,19)"/><path d=" M 264.273 168.543 Q 267.283 170.393 270.283 171.723 Q 274.273 173.503 276.533 178.593 L 275.133 192.163 Q 273.943 196.933 271.033 204.103 Q 267.783 212.103 261.803 217.163 Q 257.273 224.553 250.633 230.163 Q 250.933 229.073 251.723 228.253 Q 252.013 227.963 251.613 228.053 Q 248.973 228.703 247.313 225.783 Q 254.123 218.803 256.843 207.913 Q 257.213 206.433 255.963 205.433 L 257.053 199.663 Q 259.193 196.843 258.633 193.313 Q 258.213 190.753 257.383 187.693 C 257.299 187.397 257.42 187.083 257.683 186.913 Q 263.553 183.053 261.303 176.163 Q 261.353 175.373 262.153 172.223 Q 262.833 169.553 264.273 168.543 Z " fill="rgb(237,112,18)"/><path d=" M 261.803 217.163 Q 267.783 212.103 271.033 204.103 Q 273.943 196.933 275.133 192.163 Q 276.973 191.783 277.543 193.133 Q 277.873 193.923 277.363 195.273 Q 276.603 197.283 276.093 199.373 Q 275.343 202.483 274.953 203.503 Q 272.063 211.073 265.823 216.403 Q 264.043 217.923 261.803 217.163 Z " fill="rgb(200,77,17)"/><path d=" M 255.963 205.433 Q 257.213 206.433 256.843 207.913 Q 254.123 218.803 247.313 225.783 Q 243.543 230.053 237.403 233.223 Q 229.643 237.233 221.863 241.213 Q 220.823 241.743 221.043 241.203 Q 221.123 241.003 221.353 240.833 Q 233.423 231.953 239.383 218.233 L 240.383 214.913 Q 241.833 214.663 241.953 213.093 Q 242.143 210.683 242.973 208.443 C 243.006 208.187 243.306 207.993 243.653 208.003 Q 244.223 208.213 244.093 209.413 Q 243.493 215.033 242.023 218.523 Q 239.633 224.233 236.873 230.183 Q 236.523 230.943 237.223 230.473 Q 250.703 221.243 255.963 205.433 Z " fill="rgb(200,77,17)"/><path d=" M 238.303 176.663 Q 237.163 187.323 233.343 201.163 Q 230.593 211.133 226.303 218.163 Q 225.703 218.563 225.303 219.163 Q 223.953 221.443 221.193 221.943 C 220.747 222.02 220.29 221.895 219.946 221.603 C 219.602 221.311 219.407 220.882 219.413 220.433 Q 219.493 213.753 223.153 207.723 Q 228.223 199.383 232.093 184.913 Q 232.633 182.883 234.283 179.353 Q 235.133 177.513 236.093 177.123 Q 237.243 177.443 238.303 176.663 Z " fill="rgb(254,213,25)"/><path d=" M 236.843 206.123 Q 239.543 208.213 240.053 211.663 L 240.383 214.913 L 239.383 218.233 Q 234.963 221.693 231.923 217.023 C 231.729 216.753 231.688 216.415 231.813 216.113 Q 233.563 210.743 236.843 206.123 Z " fill="rgb(254,213,25)"/><path d=" M 250.863 168.023 L 254.093 168.453 Q 254.703 171.853 253.603 175.073 Q 252.833 177.323 252.813 177.403 Q 251.063 183.403 249.003 189.293 Q 248.183 191.673 246.573 192.683 Q 244.683 193.863 242.343 194.203 Q 241.603 194.323 241.053 193.913 Q 241.053 186.023 243.133 178.413 Q 244.593 175.353 246.043 172.293 Q 246.083 172.203 246.563 170.993 Q 247.593 168.333 250.863 168.023 Z " fill="rgb(253,199,24)"/><path d=" M 261.303 176.163 Q 263.553 183.053 257.683 186.913 C 257.42 187.083 257.299 187.397 257.383 187.693 Q 258.213 190.753 258.633 193.313 Q 259.193 196.843 257.053 199.663 Q 255.813 200.933 254.353 200.333 C 254.029 200.182 253.792 199.938 253.693 199.653 Q 251.343 194.623 252.653 190.223 Q 255.043 182.233 258.653 176.223 Q 259.623 174.613 261.303 176.163 Z " fill="rgb(253,199,24)"/><path d=" M 260.313 237.643 Q 259.303 238.523 260.183 240.243 Q 255.803 245.313 248.843 244.373 L 251.743 242.943 C 252.187 242.795 252.531 242.477 252.677 242.08 C 252.823 241.683 252.755 241.25 252.493 240.903 Q 251.183 238.763 251.953 237.273 Q 252.493 236.253 254.303 235.103 Q 257.843 232.873 260.313 237.643 Z " fill="rgb(249,139,42)"/><path d=" M 276.533 178.593 L 279.803 182.413 Q 278.783 182.543 279.803 185.423 Q 280.093 186.223 280.103 187.073 Q 280.203 191.423 279.973 196.423 Q 279.823 199.943 278.283 202.603 Q 276.173 206.253 276.313 210.143 Q 276.473 214.203 276.403 214.683 Q 276.043 216.973 275.053 219.113 Q 269.953 230.173 260.313 237.643 Q 257.843 232.873 254.303 235.103 Q 252.493 236.253 251.953 237.273 Q 251.183 238.763 252.493 240.903 C 252.755 241.25 252.823 241.683 252.677 242.08 C 252.531 242.477 252.187 242.795 251.743 242.943 L 248.843 244.373 L 241.403 246.713 Q 237.643 244.693 233.343 245.663 Q 229.773 246.473 226.593 245.623 Q 228.733 243.693 231.363 242.463 Q 241.833 237.593 250.633 230.163 Q 257.273 224.553 261.803 217.163 Q 264.043 217.923 265.823 216.403 Q 272.063 211.073 274.953 203.503 Q 275.343 202.483 276.093 199.373 Q 276.603 197.283 277.363 195.273 Q 277.873 193.923 277.543 193.133 Q 276.973 191.783 275.133 192.163 L 276.533 178.593 Z " fill="rgb(210,86,21)"/><path d=" M 225.303 219.163 Q 225.703 218.563 226.303 218.163 Q 226.283 219.453 227.713 216.293 C 227.907 215.858 228.241 215.5 228.663 215.273 Q 229.653 214.753 230.473 215.333 C 230.613 215.42 230.705 215.552 230.73 215.698 C 230.754 215.845 230.709 215.995 230.603 216.113 Q 224.613 227.403 215.393 236.263 C 215.188 236.45 214.867 236.45 214.663 236.263 Q 214.003 235.573 213.713 234.653 C 213.608 234.354 213.693 234.026 213.933 233.803 Q 221.213 226.033 225.533 220.853 Q 226.503 219.683 225.303 219.163 Z " fill="rgb(210,86,21)"/><path d=" M 279.803 182.413 Q 293.003 199.463 287.673 220.693 Q 281.123 225.043 275.033 229.043 Q 267.243 234.143 260.183 240.243 Q 259.303 238.523 260.313 237.643 Q 269.953 230.173 275.053 219.113 Q 276.043 216.973 276.403 214.683 Q 276.473 214.203 276.313 210.143 Q 276.173 206.253 278.283 202.603 Q 279.823 199.943 279.973 196.423 Q 280.203 191.423 280.103 187.073 Q 280.093 186.223 279.803 185.423 Q 278.783 182.543 279.803 182.413 Z " fill="rgb(156,57,27)"/><path d=" M 241.403 246.713 Q 240.983 249.353 239.003 250.183 Q 238.423 250.423 238.193 250.713 L 235.383 254.163 Q 234.033 250.783 230.533 249.723 Q 229.253 249.333 225.113 247.323 C 224.984 247.278 224.888 247.178 224.856 247.056 C 224.824 246.934 224.86 246.806 224.953 246.713 Q 225.603 245.953 226.593 245.623 Q 229.773 246.473 233.343 245.663 Q 237.643 244.693 241.403 246.713 Z " fill="rgb(156,57,27)"/><path d=" M 283.253 178.043 Q 281.283 177.383 280.093 175.203 Q 300.453 161.223 325.083 158.293 Q 330.343 157.673 336.153 159.603 Q 338.183 160.273 339.363 161.623 Q 340.323 162.723 340.693 164.953 Q 342.443 175.483 336.593 185.163 Q 331.833 193.043 329.263 203.183 Q 329.003 204.213 328.963 206.693 Q 328.913 210.653 325.123 208.743 Q 325.083 208.723 323.753 207.873 Q 321.013 206.123 319.053 209.113 Q 315.563 214.453 312.033 219.253 Q 310.853 220.873 308.983 221.603 Q 302.523 224.163 297.513 228.683 Q 297.473 228.723 294.183 232.143 Q 291.443 234.993 288.063 237.083 C 287.378 237.506 286.832 238.118 286.493 238.843 Q 285.613 240.733 284.393 242.193 Q 283.393 243.393 281.353 244.623 Q 264.093 255.023 245.313 261.833 Q 243.363 262.543 244.393 260.743 L 248.833 253.003 Q 249.393 252.043 250.333 251.433 Q 264.823 242.083 279.053 232.733 Q 288.363 226.613 295.273 221.043 Q 304.983 213.203 314.203 204.783 Q 320.323 199.193 323.113 191.373 Q 325.513 184.653 322.093 177.913 Q 320.353 174.493 317.443 172.843 Q 315.173 171.563 311.023 171.713 Q 296.623 172.233 283.253 178.043 Z " fill="rgb(254,245,104)"/><path d=" M 201.593 223.873 L 203.383 230.913 Q 203.313 232.323 202.283 231.223 Q 201.063 229.933 199.653 231.723 Q 197.673 234.243 195.673 236.743 Q 195.593 236.843 191.613 241.193 Q 187.413 245.803 185.783 252.353 Q 184.833 256.163 185.773 259.433 Q 187.273 264.603 191.223 267.663 Q 193.523 269.433 197.053 269.683 Q 205.413 270.263 211.533 267.353 Q 220.033 263.303 229.133 261.623 C 229.467 261.561 229.772 261.397 230.003 261.153 Q 232.303 258.703 231.653 260.913 C 231.461 261.571 231.01 262.123 230.403 262.443 Q 221.073 267.313 216.653 275.173 Q 215.443 277.323 214.193 277.863 Q 212.303 278.673 210.213 277.813 Q 207.293 276.613 207.333 279.773 Q 207.393 283.703 205.933 286.543 C 205.824 286.761 205.621 286.919 205.382 286.971 C 205.144 287.024 204.894 286.966 204.703 286.813 Q 197.463 281.003 188.593 281.483 Q 184.963 281.673 181.353 282.233 Q 174.263 283.343 170.533 276.973 Q 168.493 273.503 168.513 270.413 Q 168.553 264.403 170.933 259.203 Q 172.233 256.353 176.933 249.673 Q 181.903 242.623 186.903 237.473 Q 191.673 232.573 201.593 223.873 Z " fill="rgb(254,245,104)"/><path d=" M 223.133 178.233 Q 227.133 174.233 232.313 171.923 Q 232.783 171.723 232.633 172.203 Q 230.893 177.943 228.923 183.593 Q 225.663 192.983 224.843 194.833 Q 221.383 202.603 215.113 208.683 Q 210.793 212.863 206.273 216.863 Q 205.213 217.793 205.063 216.393 Q 204.713 212.993 205.543 209.403 Q 206.263 206.323 209.103 204.873 Q 215.733 201.483 219.033 194.853 Q 222.213 188.443 222.753 179.103 C 222.767 178.778 222.902 178.468 223.133 178.233 L 223.133 178.233 Z " fill="rgb(253,199,24)"/><path d=" M 216.373 183.203 Q 220.103 179.103 218.423 183.983 Q 218.163 184.733 218.043 185.493 Q 216.303 196.223 207.603 202.133 Q 206.163 203.113 206.593 201.423 Q 209.203 191.093 216.373 183.203 Z " fill="rgb(253,199,24)"/><path d=" M 244.743 198.453 Q 245.513 196.843 247.633 195.453 C 247.76 195.37 247.915 195.342 248.063 195.374 C 248.212 195.406 248.341 195.495 248.423 195.623 Q 250.023 198.163 250.303 201.063 Q 250.543 203.423 249.033 204.783 Q 247.563 206.103 245.403 206.313 C 245.103 206.344 244.816 206.184 244.683 205.913 Q 242.943 202.233 244.743 198.453 Z " fill="rgb(253,199,24)"/><path d=" M 208.233 220.063 Q 210.893 216.783 216.083 213.673 Q 217.973 212.533 218.113 214.733 Q 218.573 221.933 212.743 227.123 Q 211.103 228.583 209.813 228.933 Q 207.203 229.653 206.643 226.103 Q 206.103 222.693 208.233 220.063 Z " fill="rgb(253,199,24)"/><path d=" M 315.045 243.565 C 317.765 244.03 319.489 247.243 318.892 250.735 C 318.295 254.228 315.601 256.686 312.881 256.221 C 310.161 255.756 308.438 252.543 309.035 249.05 C 309.632 245.558 312.325 243.1 315.045 243.565 Z " fill="rgb(251,238,96)"/><path d="M 203.687 251.662 L 215.617 244.687 C 215.884 244.531 216.227 244.621 216.383 244.888 L 216.404 244.922 C 216.559 245.189 216.469 245.532 216.203 245.688 L 204.273 252.663 C 204.006 252.819 203.663 252.729 203.507 252.462 L 203.486 252.428 C 203.331 252.161 203.421 251.818 203.687 251.662 Z" style="stroke:none;fill:#D25615;stroke-miterlimit:10;"/><path d=" M 250.153 264.983 C 250.392 265.052 250.583 265.216 250.672 265.427 C 250.762 265.639 250.74 265.876 250.613 266.073 L 249.093 269.913 Q 247.983 272.703 247.093 270.413 L 245.343 265.933 C 245.269 265.747 245.278 265.539 245.37 265.36 C 245.461 265.181 245.626 265.048 245.823 264.993 Q 247.863 264.363 250.153 264.983 Z " fill="rgb(254,223,102)"/><path d=" M 238.033 274.723 Q 235.513 272.913 237.513 269.123 Q 238.673 266.913 240.713 268.343 Q 243.683 270.423 242.283 274.603 Q 241.423 277.163 238.033 274.723 Z " fill="rgb(254,223,102)"/><path d=" M 223.223 272.823 Q 223.663 272.313 224.303 272.083 Q 226.453 271.293 225.433 273.493 Q 225.103 274.213 225.023 274.903 Q 224.723 277.493 223.653 279.843 Q 223.233 280.763 222.573 281.043 Q 221.313 281.583 220.923 279.693 Q 220.203 276.233 223.223 272.823 Z " fill="rgb(254,237,123)"/></g></svg>