<?xml version="1.0" encoding="UTF-8" standalone="no"?><!-- Generator: Gravit.io --><svg xmlns="http://www.w3.org/2000/svg" xmlns:xlink="http://www.w3.org/1999/xlink" style="isolation:isolate" viewBox="60.113 143.139 259.24 200.123" width="259.24pt" height="200.123pt"><defs><clipPath id="_clipPath_tGt0lBmDf6Qau2YYOCnCiTEXl2Ezaspv"><rect x="60.113" y="143.139" width="259.24" height="200.123"/></clipPath></defs><g clip-path="url(#_clipPath_tGt0lBmDf6Qau2YYOCnCiTEXl2Ezaspv)"><path d=" M 219.599 159.706 Q 222.149 161.556 224.749 161.906 Q 227.749 163.816 230.309 164.296 Q 232.129 168.496 236.719 169.926 L 244.509 176.136 Q 242.259 180.416 245.199 184.136 Q 248.129 187.826 251.359 189.176 C 252.172 189.509 253.109 189.269 253.659 188.586 Q 256.059 185.616 258.229 185.806 C 258.563 185.804 258.89 185.763 259.169 185.686 Q 260.599 184.966 261.179 183.386 L 263.829 187.186 Q 262.829 192.526 263.309 197.906 Q 264.179 198.496 263.979 199.096 Q 263.849 199.506 263.119 199.756 Q 255.129 202.576 250.099 209.276 Q 245.859 214.386 248.279 220.076 Q 250.829 226.066 256.109 224.326 Q 257.749 223.776 260.689 221.636 Q 262.859 220.056 264.999 218.436 Q 268.769 215.586 273.219 218.416 Q 274.349 226.326 274.219 236.136 Q 274.189 238.486 276.139 241.446 Q 261.919 246.176 251.529 252.696 Q 239.039 260.546 227.809 272.306 Q 223.369 276.966 220.519 281.666 Q 217.439 286.766 215.119 292.306 Q 212.219 299.236 209.909 303.326 Q 206.029 310.166 198.549 312.816 Q 196.559 313.516 194.809 313.546 Q 192.319 313.586 191.029 312.576 Q 187.739 309.976 184.469 307.346 Q 183.119 306.426 181.579 306.056 Q 179.269 305.496 178.529 305.386 Q 176.729 305.116 175.379 306.246 Q 173.279 308.006 173.169 308.076 Q 170.929 309.566 169.179 311.636 Q 161.649 314.366 155.219 314.136 Q 148.189 313.886 142.859 307.846 Q 135.729 302.746 130.159 296.556 Q 132.289 289.026 136.139 282.436 L 140.889 281.686 Q 140.149 282.766 140.269 284.126 Q 140.349 284.946 141.379 286.196 Q 142.249 287.246 142.589 288.466 Q 141.769 291.006 143.029 293.326 Q 148.559 303.486 159.239 306.076 Q 162.749 306.926 165.219 307.136 Q 168.319 307.406 171.329 306.606 Q 172.739 306.236 175.579 304.296 Q 181.889 300.006 188.979 304.306 C 189.219 304.435 189.526 304.375 189.689 304.166 Q 190.279 303.226 190.379 302.076 C 190.519 301.762 190.439 301.424 190.159 301.146 Q 189.489 299.836 189.699 298.636 Q 196.459 296.936 201.409 293.576 Q 210.539 287.366 217.469 277.686 Q 236.119 251.626 234.919 219.106 Q 238.549 218.186 241.719 215.676 Q 246.789 208.766 244.049 201.386 Q 242.349 196.816 240.139 194.496 Q 236.989 191.176 231.629 192.436 L 227.729 193.536 Q 215.859 166.036 188.939 155.696 Q 182.319 153.166 174.679 152.516 Q 167.359 151.896 159.959 152.286 L 166.719 150.346 Q 181.449 146.916 194.719 150.386 Q 205.739 153.266 219.599 159.706 Z " fill="rgb(236,117,67)"/><path d=" M 159.959 152.286 Q 167.359 151.896 174.679 152.516 Q 182.319 153.166 188.939 155.696 Q 215.859 166.036 227.729 193.536 Q 226.509 194.106 225.639 194.566 Q 225.059 194.866 224.859 195.276 Q 224.439 196.176 226.749 195.226 C 227.307 194.993 227.951 195.151 228.339 195.616 Q 233.179 201.386 233.489 208.676 Q 233.649 212.276 233.359 213.596 Q 232.639 216.976 228.369 216.506 Q 227.739 216.436 227.429 216.476 Q 226.159 216.616 227.029 217.576 Q 227.349 217.936 227.909 218.106 Q 231.349 219.156 234.919 219.106 Q 236.119 251.626 217.469 277.686 Q 210.539 287.366 201.409 293.576 Q 196.459 296.936 189.699 298.636 Q 178.069 297.596 166.969 300.676 Q 166.109 300.336 166.629 299.806 Q 167.009 299.416 167.109 299.256 Q 167.999 297.856 168.759 296.386 Q 174.149 289.116 172.719 280.636 Q 171.289 272.156 165.369 266.836 Q 160.439 262.396 151.999 260.516 Q 144.739 258.886 137.239 259.566 Q 134.459 259.816 128.839 261.356 Q 124.689 262.496 120.459 263.296 Q 119.959 263.386 120.309 263.016 Q 122.499 260.676 125.009 258.666 Q 126.219 257.696 125.239 258.226 Q 116.699 262.806 107.349 263.126 Q 101.789 247.426 100.499 229.996 Q 109.219 225.376 119.099 224.936 Q 124.249 224.696 124.329 224.696 Q 129.079 224.326 130.409 224.076 Q 134.879 223.236 138.029 220.696 Q 142.989 216.716 140.909 212.296 Q 139.499 209.266 135.229 207.466 Q 130.339 205.386 125.059 205.406 Q 122.139 205.416 115.019 207.166 Q 109.499 208.516 103.859 209.606 Q 112.209 179.346 138.159 162.076 Q 148.669 155.076 159.959 152.286 Z " fill="rgb(255,197,56)"/><path d=" M 231.629 192.436 Q 235.229 193.296 237.679 195.316 Q 240.039 197.246 240.939 200.786 Q 242.399 206.466 240.639 212.316 Q 240.149 213.966 241.719 215.676 Q 238.549 218.186 234.919 219.106 Q 231.349 219.156 227.909 218.106 Q 227.349 217.936 227.029 217.576 Q 226.159 216.616 227.429 216.476 Q 227.739 216.436 228.369 216.506 Q 232.639 216.976 233.359 213.596 Q 233.649 212.276 233.489 208.676 Q 233.179 201.386 228.339 195.616 C 227.951 195.151 227.307 194.993 226.749 195.226 Q 224.439 196.176 224.859 195.276 Q 225.059 194.866 225.639 194.566 Q 226.509 194.106 227.729 193.536 L 231.629 192.436 Z " fill="rgb(223,52,51)"/><path d=" M 288.969 197.176 Q 288.989 197.456 289.159 197.636 Q 289.319 197.816 289.099 197.826 Q 288.119 197.866 288.799 198.216 C 288.932 198.289 289.01 198.434 288.999 198.586 L 288.709 202.256 Q 267.269 196.686 252.259 212.386 Q 250.019 212.046 250.099 209.276 Q 255.129 202.576 263.119 199.756 Q 263.849 199.506 263.979 199.096 Q 264.179 198.496 263.309 197.906 L 267.969 196.596 Q 273.739 196.816 279.469 196.136 Q 282.619 195.766 288.969 197.176 Z " fill="rgb(246,88,32)"/><path d=" M 288.969 197.176 Q 300.479 199.236 307.779 208.826 Q 315.529 218.996 318.299 230.616 Q 321.649 244.676 314.359 256.966 Q 309.889 264.496 302.149 268.546 Q 296.819 271.336 291.769 272.746 Q 289.859 273.276 289.659 275.236 Q 287.279 298.586 266.469 303.596 Q 256.329 304.566 246.959 300.716 C 246.773 300.64 246.565 300.648 246.386 300.739 C 246.208 300.829 246.077 300.992 246.029 301.186 Q 243.919 309.646 240.509 317.656 Q 235.859 328.526 226.379 335.576 Q 218.439 341.486 209.099 342.856 Q 200.039 344.186 191.039 341.156 Q 176.739 336.356 169.249 321.856 Q 169.859 321.486 170.179 320.186 C 170.045 319.898 170.25 319.589 170.689 319.416 L 173.429 318.136 Q 175.629 326.166 182.029 330.576 Q 187.119 334.076 193.299 335.366 Q 198.809 336.506 205.279 335.466 Q 226.069 332.146 235.529 312.266 Q 238.769 305.466 240.469 300.386 Q 244.919 287.106 254.599 277.736 Q 256.789 275.616 258.739 274.506 Q 261.209 273.116 263.719 272.636 Q 269.059 271.616 275.469 272.386 Q 278.059 272.696 284.539 272.156 Q 284.739 272.136 284.879 272.056 Q 285.519 271.696 284.689 271.586 Q 279.649 270.876 275.019 268.816 Q 273.229 268.026 275.119 267.526 Q 279.179 266.476 283.429 265.336 Q 285.479 264.786 290.619 264.126 Q 300.369 262.866 306.369 255.706 Q 310.029 251.326 311.789 245.316 Q 313.569 239.256 312.719 233.386 Q 310.549 218.416 298.529 207.576 Q 294.799 204.206 288.709 202.256 L 288.999 198.586 C 289.01 198.434 288.932 198.289 288.799 198.216 Q 288.119 197.866 289.099 197.826 Q 289.319 197.816 289.159 197.636 Q 288.989 197.456 288.969 197.176 Z " fill="rgb(233,70,30)"/><path d=" M 263.829 187.186 L 261.179 183.386 Q 260.649 179.416 259.719 177.136 Q 258.759 174.766 258.409 172.676 Q 257.739 168.586 257.599 168.176 Q 254.679 159.516 245.919 158.806 Q 242.029 158.486 237.739 160.246 Q 233.929 161.806 230.309 164.296 Q 227.749 163.816 224.749 161.906 Q 230.169 153.936 240.219 150.636 Q 250.679 147.196 259.469 153.136 Q 264.499 156.536 265.939 162.896 Q 267.329 169.006 266.029 176.446 Q 264.749 183.796 263.829 187.186 Z " fill="rgb(255,177,50)"/><path d=" M 288.709 202.256 Q 294.799 204.206 298.529 207.576 Q 310.549 218.416 312.719 233.386 Q 313.569 239.256 311.789 245.316 Q 310.029 251.326 306.369 255.706 Q 300.369 262.866 290.619 264.126 Q 285.479 264.786 283.429 265.336 Q 279.179 266.476 275.119 267.526 Q 273.229 268.026 275.019 268.816 Q 279.649 270.876 284.689 271.586 Q 285.519 271.696 284.879 272.056 Q 284.739 272.136 284.539 272.156 Q 278.059 272.696 275.469 272.386 Q 269.059 271.616 263.719 272.636 Q 261.209 273.116 258.739 274.506 Q 256.789 275.616 254.599 277.736 Q 244.919 287.106 240.469 300.386 Q 238.769 305.466 235.529 312.266 Q 226.069 332.146 205.279 335.466 Q 198.809 336.506 193.299 335.366 Q 187.119 334.076 182.029 330.576 Q 175.629 326.166 173.429 318.136 Q 173.949 309.736 182.469 310.676 Q 183.999 311.986 185.779 314.826 Q 188.299 318.826 193.459 319.056 Q 200.769 319.396 207.589 316.846 Q 215.209 313.986 217.629 306.226 Q 218.099 304.706 219.469 299.886 Q 221.569 292.506 225.549 285.636 Q 229.189 279.366 234.929 273.466 Q 249.239 258.766 268.859 251.436 Q 273.079 249.856 275.159 248.076 Q 275.929 247.406 276.109 247.826 C 276.438 247.936 276.611 248.119 276.566 248.307 C 276.522 248.494 276.265 248.661 275.889 248.746 Q 274.309 251.316 274.219 254.406 C 274.21 254.685 274.325 254.954 274.533 255.141 C 274.741 255.328 275.021 255.414 275.299 255.376 Q 281.459 254.496 286.109 250.266 Q 290.629 246.156 293.189 240.826 Q 295.909 235.186 295.159 229.576 Q 294.029 221.116 286.469 215.596 Q 273.589 206.666 261.269 215.116 Q 260.429 215.696 258.459 217.496 Q 256.619 219.176 255.409 219.576 Q 251.199 220.956 250.469 217.136 Q 250.029 214.836 252.259 212.386 Q 267.269 196.686 288.709 202.256 Z " fill="rgb(255,177,50)"/><path d=" M 165.619 293.456 Q 161.669 296.986 156.729 294.556 C 156.429 294.406 156.185 294.172 156.029 293.886 Q 153.249 288.946 152.619 283.056 Q 151.429 280.266 148.969 279.386 Q 144.059 277.636 138.369 276.996 Q 132.239 276.306 127.629 277.486 Q 120.619 279.276 114.659 284.576 Q 107.169 291.226 102.989 299.786 Q 102.379 301.016 103.709 300.636 Q 107.539 299.546 110.519 296.946 Q 113.109 294.686 110.719 297.636 Q 104.039 305.866 108.419 312.626 Q 111.799 317.846 119.199 319.656 Q 127.399 321.656 135.789 317.946 Q 138.299 316.836 140.139 318.076 L 146.969 322.676 Q 146.159 323.476 145.409 323.496 Q 141.489 324.396 140.719 324.636 Q 125.209 329.496 111.029 327.326 Q 90.149 324.126 90.469 302.136 Q 90.489 300.506 91.739 297.206 Q 91.809 297.016 93.069 293.526 Q 95.789 285.946 102.399 281.116 Q 106.919 277.806 112.009 275.366 Q 114.559 274.146 111.759 274.526 Q 105.139 275.426 99.379 277.426 Q 99.339 277.436 95.249 279.136 Q 83.719 283.936 73.909 275.696 Q 64.389 267.706 66.149 254.906 Q 68.159 240.246 76.999 228.406 Q 82.859 220.566 91.589 216.646 Q 94.329 215.406 99.599 214.616 Q 110.249 213.016 120.169 208.786 Q 123.079 207.546 124.429 207.446 Q 126.609 207.286 128.969 208.136 Q 133.349 209.716 135.259 210.546 Q 138.429 211.936 138.839 214.666 Q 139.199 217.026 137.249 219.136 Q 134.789 221.786 130.969 222.136 Q 125.839 222.616 116.969 222.606 Q 97.369 222.586 85.529 237.446 Q 76.769 248.456 81.709 259.806 Q 84.849 266.996 90.539 270.416 Q 96.889 274.226 105.349 272.096 Q 111.469 270.556 116.339 266.396 Q 117.679 265.256 119.369 265.756 Q 125.869 267.656 132.599 265.176 Q 142.109 261.666 151.769 264.716 Q 161.009 267.636 165.929 275.256 Q 168.829 279.756 168.799 284.126 Q 168.769 289.026 165.619 293.456 Z " fill="rgb(255,177,50)"/><path d=" M 267.969 196.596 L 263.309 197.906 Q 262.829 192.526 263.829 187.186 Q 264.749 183.796 266.029 176.446 Q 267.329 169.006 265.939 162.896 Q 264.499 156.536 259.469 153.136 Q 250.679 147.196 240.219 150.636 Q 230.169 153.936 224.749 161.906 Q 222.149 161.556 219.599 159.706 Q 227.679 150.986 237.769 146.176 Q 245.659 142.406 253.779 143.316 Q 262.109 144.266 267.639 149.986 Q 274.349 156.946 273.719 167.636 Q 272.959 180.506 267.969 196.596 Z " fill="rgb(235,71,26)"/><path d=" M 100.499 229.996 Q 94.159 233.806 90.289 239.926 Q 86.299 246.236 88.219 252.886 Q 92.169 266.566 107.349 263.126 Q 116.699 262.806 125.239 258.226 Q 126.219 257.696 125.009 258.666 Q 122.499 260.676 120.309 263.016 Q 119.959 263.386 120.459 263.296 Q 124.689 262.496 128.839 261.356 Q 134.459 259.816 137.239 259.566 Q 144.739 258.886 151.999 260.516 Q 160.439 262.396 165.369 266.836 Q 171.289 272.156 172.719 280.636 Q 174.149 289.116 168.759 296.386 L 165.619 293.456 Q 168.769 289.026 168.799 284.126 Q 168.829 279.756 165.929 275.256 Q 161.009 267.636 151.769 264.716 Q 142.109 261.666 132.599 265.176 Q 125.869 267.656 119.369 265.756 Q 117.679 265.256 116.339 266.396 Q 111.469 270.556 105.349 272.096 Q 96.889 274.226 90.539 270.416 Q 84.849 266.996 81.709 259.806 Q 76.769 248.456 85.529 237.446 Q 97.369 222.586 116.969 222.606 Q 125.839 222.616 130.969 222.136 Q 134.789 221.786 137.249 219.136 Q 139.199 217.026 138.839 214.666 Q 138.429 211.936 135.259 210.546 Q 133.349 209.716 128.969 208.136 Q 126.609 207.286 124.429 207.446 Q 123.079 207.546 120.169 208.786 Q 110.249 213.016 99.599 214.616 Q 94.329 215.406 91.589 216.646 Q 82.859 220.566 76.999 228.406 Q 68.159 240.246 66.149 254.906 Q 64.389 267.706 73.909 275.696 Q 83.719 283.936 95.249 279.136 Q 99.339 277.436 99.379 277.426 Q 105.139 275.426 111.759 274.526 Q 114.559 274.146 112.009 275.366 Q 106.919 277.806 102.399 281.116 Q 95.789 285.946 93.069 293.526 Q 91.809 297.016 91.739 297.206 Q 90.489 300.506 90.469 302.136 Q 90.149 324.126 111.029 327.326 Q 125.209 329.496 140.719 324.636 Q 141.489 324.396 145.409 323.496 L 146.969 328.596 Q 135.039 333.866 122.969 335.386 Q 119.739 335.796 116.239 335.286 Q 113.509 334.896 109.679 334.026 Q 95.989 330.936 89.669 319.306 Q 85.899 312.346 85.589 304.466 Q 85.269 296.516 88.619 288.916 C 88.687 288.762 88.677 288.585 88.592 288.44 C 88.506 288.295 88.356 288.2 88.189 288.186 Q 72.809 286.636 65.309 273.806 Q 58.269 261.746 60.769 247.846 Q 64.919 224.816 86.029 215.196 Q 92.129 212.426 103.859 209.606 Q 109.499 208.516 115.019 207.166 Q 122.139 205.416 125.059 205.406 Q 130.339 205.386 135.229 207.466 Q 139.499 209.266 140.909 212.296 Q 142.989 216.716 138.029 220.696 Q 134.879 223.236 130.409 224.076 Q 129.079 224.326 124.329 224.696 Q 124.249 224.696 119.099 224.936 Q 109.219 225.376 100.499 229.996 Z " fill="rgb(235,71,26)"/><path d=" M 261.179 183.386 Q 260.599 184.966 259.169 185.686 C 258.89 185.763 258.563 185.804 258.229 185.806 Q 256.059 185.616 253.659 188.586 C 253.109 189.269 252.172 189.509 251.359 189.176 Q 248.129 187.826 245.199 184.136 Q 242.259 180.416 244.509 176.136 Q 249.159 177.826 248.329 173.066 Q 247.959 170.986 246.619 169.596 Q 245.409 168.346 243.289 168.396 Q 239.879 168.496 236.719 169.926 Q 232.129 168.496 230.309 164.296 Q 233.929 161.806 237.739 160.246 Q 242.029 158.486 245.919 158.806 Q 254.679 159.516 257.599 168.176 Q 257.739 168.586 258.409 172.676 Q 258.759 174.766 259.719 177.136 Q 260.649 179.416 261.179 183.386 Z " fill="rgb(234,67,29)"/><path d=" M 286.469 215.596 Q 294.029 221.116 295.159 229.576 Q 295.909 235.186 293.189 240.826 Q 290.629 246.156 286.109 250.266 Q 281.459 254.496 275.299 255.376 C 275.021 255.414 274.741 255.328 274.533 255.141 C 274.325 254.954 274.21 254.685 274.219 254.406 Q 274.309 251.316 275.889 248.746 C 276.265 248.661 276.522 248.494 276.566 248.307 C 276.611 248.119 276.438 247.936 276.109 247.826 Q 275.929 247.406 275.159 248.076 Q 273.079 249.856 268.859 251.436 Q 249.239 258.766 234.929 273.466 Q 229.189 279.366 225.549 285.636 Q 221.569 292.506 219.469 299.886 Q 218.099 304.706 217.629 306.226 Q 215.209 313.986 207.589 316.846 Q 200.769 319.396 193.459 319.056 Q 188.299 318.826 185.779 314.826 Q 183.999 311.986 182.469 310.676 Q 182.959 308.576 184.469 307.346 Q 187.739 309.976 191.029 312.576 Q 192.319 313.586 194.809 313.546 Q 196.559 313.516 198.549 312.816 Q 206.029 310.166 209.909 303.326 Q 212.219 299.236 215.119 292.306 Q 217.439 286.766 220.519 281.666 Q 223.369 276.966 227.809 272.306 Q 239.039 260.546 251.529 252.696 Q 261.919 246.176 276.139 241.446 Q 278.619 242.256 280.409 241.326 Q 282.649 240.146 283.879 237.666 Q 284.869 235.666 284.819 232.946 Q 284.719 226.336 280.239 221.316 Q 279.939 220.976 279.789 220.456 Q 278.969 217.706 275.719 218.176 Q 276.999 217.596 279.719 217.886 Q 283.199 218.256 286.469 215.596 Z " fill="rgb(234,67,29)"/><path d=" M 152.619 283.056 Q 146.919 280.776 140.889 281.686 L 136.139 282.436 Q 128.459 283.266 122.219 287.846 Q 119.039 289.836 116.989 292.956 Q 115.069 295.876 116.389 299.166 Q 117.199 301.206 118.909 304.446 Q 121.839 310.036 127.979 310.796 Q 135.599 311.726 142.859 307.846 Q 148.189 313.886 155.219 314.136 Q 161.649 314.366 169.179 311.636 Q 168.439 313.256 167.789 314.916 Q 167.019 316.856 165.889 317.816 Q 164.159 319.306 161.949 320.076 Q 154.669 322.606 146.969 322.676 L 140.139 318.076 Q 138.299 316.836 135.789 317.946 Q 127.399 321.656 119.199 319.656 Q 111.799 317.846 108.419 312.626 Q 104.039 305.866 110.719 297.636 Q 113.109 294.686 110.519 296.946 Q 107.539 299.546 103.709 300.636 Q 102.379 301.016 102.989 299.786 Q 107.169 291.226 114.659 284.576 Q 120.619 279.276 127.629 277.486 Q 132.239 276.306 138.369 276.996 Q 144.059 277.636 148.969 279.386 Q 151.429 280.266 152.619 283.056 Z " fill="rgb(234,67,29)"/><path d=" M 140.889 281.686 Q 146.919 280.776 152.619 283.056 Q 153.249 288.946 156.029 293.886 C 156.185 294.172 156.429 294.406 156.729 294.556 Q 161.669 296.986 165.619 293.456 L 168.759 296.386 Q 167.999 297.856 167.109 299.256 Q 167.009 299.416 166.629 299.806 Q 166.109 300.336 166.969 300.676 Q 161.009 302.286 155.719 300.386 Q 147.029 297.266 142.589 288.466 Q 142.249 287.246 141.379 286.196 Q 140.349 284.946 140.269 284.126 Q 140.149 282.766 140.889 281.686 Z " fill="rgb(246,109,43)"/><path d=" M 136.139 282.436 Q 132.289 289.026 130.159 296.556 L 122.219 287.846 Q 128.459 283.266 136.139 282.436 Z " fill="rgb(252,187,40)"/><path d=" M 241.719 215.676 Q 240.149 213.966 240.639 212.316 Q 242.399 206.466 240.939 200.786 Q 240.039 197.246 237.679 195.316 Q 235.229 193.296 231.629 192.436 Q 236.989 191.176 240.139 194.496 Q 242.349 196.816 244.049 201.386 Q 246.789 208.766 241.719 215.676 Z " fill="rgb(230,88,66)"/><path d=" M 142.589 288.466 Q 147.029 297.266 155.719 300.386 Q 161.009 302.286 166.969 300.676 Q 178.069 297.596 189.699 298.636 Q 189.489 299.836 190.159 301.146 C 190.439 301.424 190.519 301.762 190.379 302.076 Q 190.279 303.226 189.689 304.166 C 189.526 304.375 189.219 304.435 188.979 304.306 Q 181.889 300.006 175.579 304.296 Q 172.739 306.236 171.329 306.606 Q 168.319 307.406 165.219 307.136 Q 162.749 306.926 159.239 306.076 Q 148.559 303.486 143.029 293.326 Q 141.769 291.006 142.589 288.466 Z " fill="rgb(230,88,66)"/><path d=" M 250.099 209.276 Q 250.019 212.046 252.259 212.386 Q 250.029 214.836 250.469 217.136 Q 251.199 220.956 255.409 219.576 Q 256.619 219.176 258.459 217.496 Q 260.429 215.696 261.269 215.116 Q 273.589 206.666 286.469 215.596 Q 283.199 218.256 279.719 217.886 Q 276.999 217.596 275.719 218.176 Q 274.079 217.906 273.219 218.416 Q 268.769 215.586 264.999 218.436 Q 262.859 220.056 260.689 221.636 Q 257.749 223.776 256.109 224.326 Q 250.829 226.066 248.279 220.076 Q 245.859 214.386 250.099 209.276 Z " fill="rgb(247,101,41)"/><path d=" M 184.469 307.346 Q 182.959 308.576 182.469 310.676 Q 173.949 309.736 173.429 318.136 L 170.689 319.416 C 170.25 319.589 170.045 319.898 170.179 320.186 Q 169.859 321.486 169.249 321.856 Q 157.319 323.936 146.969 328.596 L 145.409 323.496 Q 146.159 323.476 146.969 322.676 Q 154.669 322.606 161.949 320.076 Q 164.159 319.306 165.889 317.816 Q 167.019 316.856 167.789 314.916 Q 168.439 313.256 169.179 311.636 Q 170.929 309.566 173.169 308.076 Q 173.279 308.006 175.379 306.246 Q 176.729 305.116 178.529 305.386 Q 179.269 305.496 181.579 306.056 Q 183.119 306.426 184.469 307.346 Z " fill="rgb(247,101,41)"/><path d=" M 74.349 246.796 Q 75.169 245.806 75.459 247.056 Q 77.069 253.816 77.799 259.846 Q 78.009 261.616 77.709 262.916 Q 76.829 266.766 74.379 263.936 Q 73.579 263.006 73.059 261.506 Q 71.479 256.926 71.469 254.136 Q 71.449 250.276 74.349 246.796 Z " fill="rgb(243,76,35)"/><path d=" M 170.759 186.886 Q 171.969 189.386 174.499 188.146 Q 176.769 187.036 176.189 184.586 Q 174.439 177.116 167.719 176.386 Q 165.949 176.196 163.929 174.386 Q 170.309 172.366 174.969 175.396 Q 179.399 178.286 180.399 183.756 Q 181.569 190.106 176.019 195.186 Q 171.159 199.656 166.219 199.886 Q 160.719 200.146 158.169 195.296 Q 157.669 194.346 158.609 194.866 Q 162.259 196.906 165.909 194.576 Q 169.329 192.386 170.759 186.886 Z " fill="rgb(251,103,49)"/><path d=" M 215.889 225.366 C 216.239 224.549 216.129 223.609 215.599 222.896 Q 213.509 220.046 216.149 220.406 Q 217.889 220.646 218.949 222.046 Q 226.229 231.666 216.389 236.576 Q 214.369 237.596 214.199 235.336 Q 213.809 230.276 215.889 225.366 Z " fill="rgb(251,103,49)"/><path d=" M 197.219 236.066 Q 196.919 233.576 195.099 231.316 Q 194.509 230.576 195.329 231.056 Q 199.479 233.456 201.129 237.826 Q 203.549 244.196 198.989 249.176 Q 190.939 257.986 180.759 254.016 Q 176.559 252.376 174.409 249.756 Q 171.889 246.696 171.659 242.196 Q 171.469 238.666 173.349 236.096 Q 173.649 235.686 173.559 236.186 Q 172.279 243.266 178.969 245.636 Q 189.909 249.506 195.869 240.726 Q 197.499 238.326 197.219 236.066 Z " fill="rgb(251,103,49)"/><path d=" M 258.249 283.016 Q 256.869 286.986 260.159 286.576 Q 262.089 286.336 263.899 285.296 Q 266.129 284.036 267.079 283.026 Q 268.779 281.216 268.539 278.136 Q 271.199 274.256 276.219 274.596 C 276.548 274.617 276.863 274.739 277.119 274.946 Q 280.199 277.506 278.719 281.636 Q 276.629 287.456 271.909 290.826 Q 265.519 295.386 255.799 296.256 Q 254.699 296.356 252.149 296.086 Q 250.309 295.896 248.429 296.136 Q 247.839 296.216 248.079 295.666 Q 251.559 287.646 258.249 283.016 Z " fill="rgb(241,109,82)"/><path d=" M 268.539 278.136 Q 268.779 281.216 267.079 283.026 Q 266.129 284.036 263.899 285.296 Q 262.089 286.336 260.159 286.576 Q 256.869 286.986 258.249 283.016 Q 262.999 279.356 268.539 278.136 Z " fill="rgb(212,55,29)"/><path d=" M 163.929 174.386 Q 165.949 176.196 167.719 176.386 Q 174.439 177.116 176.189 184.586 Q 176.769 187.036 174.499 188.146 Q 171.969 189.386 170.759 186.886 Q 170.959 176.206 159.299 177.686 Q 158.139 177.826 158.969 177.006 Q 161.079 174.926 163.929 174.386 Z " fill="rgb(247,92,47)"/></g></svg>