<?xml version="1.0" encoding="UTF-8" standalone="no"?><!-- Generator: Gravit.io --><svg xmlns="http://www.w3.org/2000/svg" xmlns:xlink="http://www.w3.org/1999/xlink" style="isolation:isolate" viewBox="531 393.738 250.87 155.86" width="250.87pt" height="155.86pt"><defs><clipPath id="_clipPath_jUXhnnBsyhbAbBQ3LMalNzt8VXmirxT8"><rect x="531" y="393.738" width="250.87" height="155.86"/></clipPath></defs><g clip-path="url(#_clipPath_jUXhnnBsyhbAbBQ3LMalNzt8VXmirxT8)"><clipPath id="_clipPath_fRLBOPNhDjzV1Gi83z1cZMufI81EJuLF"><rect x="531" y="393.738" width="250.87" height="155.86" transform="matrix(1,0,0,1,0,0)" fill="rgb(255,255,255)"/></clipPath><g clip-path="url(#_clipPath_fRLBOPNhDjzV1Gi83z1cZMufI81EJuLF)"><g><path d=" M 653.615 393.908 L 678.825 403.688 Q 679.835 452.3 678.825 462 Q 628.825 481.538 599.325 497.198 Q 594.525 486.688 591.925 476.888 Q 588.435 463.738 590.635 449.698 Q 593.945 428.578 608.615 413.158 Q 610.625 411.968 611.865 409.988 L 616.115 406.658 Q 618.815 405.268 620.865 402.988 L 632.645 397.378 C 633.029 397.258 633.263 396.996 633.235 396.718 Q 633.295 396.278 633.115 395.908 Q 643.205 393.268 653.615 393.908 Z " fill="rgb(38,27,46)"/><path d=" M 570.115 490.408 L 585.325 478.698 L 588.595 488.978 Q 580.185 495.478 577.425 503.258 Q 574.565 511.328 582.675 512.888 Q 590.985 514.488 600.465 512.168 Q 612.035 509.348 623.115 504.988 Q 622.645 505.778 623.115 506.488 Q 606.175 513.458 588.095 515.998 Q 581.765 516.888 581.155 516.928 Q 577.335 517.158 574.115 515.948 Q 568.695 513.908 570.175 508.258 Q 571.965 501.488 575.535 494.068 Q 578.095 488.748 582.925 485.308 Q 584.255 484.358 583.545 484.178 C 583.201 484.181 582.872 484.271 582.635 484.428 Q 561.675 499.158 545.335 518.898 Q 540.995 524.138 539.425 528.758 Q 537.045 535.768 541.495 539.058 Q 544.255 541.088 550.165 541.328 Q 556.355 541.568 563.365 540.448 Q 578.335 538.048 590.025 534.038 Q 629.465 520.518 665.555 499.828 Q 675.435 494.168 682.815 489.718 Q 692.885 483.628 706.055 474.888 Q 726.695 461.168 741.495 448.308 Q 747.015 443.518 752.605 438.808 C 752.836 438.695 752.925 438.522 752.835 438.358 Q 752.855 438.228 752.915 438.118 Q 753.005 437.918 753.295 437.768 Q 754.915 436.948 756.115 435.648 Q 758.335 433.228 758.485 433.088 Q 766.495 425.708 771.695 416.078 Q 773.245 413.198 773.575 409.948 Q 773.985 406.048 771.305 404.258 Q 768.285 402.248 763.115 402.118 Q 754.055 401.908 745.165 403.688 Q 738.425 405.038 728.805 407.638 Q 726.085 408.368 724.315 409.878 L 723.615 409.408 Q 725.375 407.628 727.725 406.978 Q 730.355 406.248 730.455 406.218 Q 745.725 400.818 761.855 400.638 Q 768.305 400.568 771.145 402.138 Q 774.805 404.168 775.235 408.598 Q 775.525 411.548 773.895 415.588 Q 771.155 422.388 766.555 427.638 Q 756.015 439.648 743.125 450.398 Q 736.575 455.858 727.445 462.798 Q 714.615 472.548 699.115 482.448 Q 661.505 506.468 620.695 524.548 Q 594.985 535.948 567.525 541.998 Q 558.885 543.898 548.615 543.698 Q 544.995 543.628 542.125 542.178 Q 538.985 540.608 537.495 537.788 Q 535.345 533.738 537.615 528.698 Q 540.225 522.908 543.065 519.378 Q 551.885 508.418 557.175 503.758 Q 563.555 498.148 569.805 492.388 Q 570.895 491.378 570.115 490.408 Z " fill="rgb(245,138,40)" vector-effect="non-scaling-stroke" stroke-width="1" stroke="rgb(245,138,40)" stroke-opacity="100" stroke-linejoin="miter" stroke-linecap="butt" stroke-miterlimit="4"/><path d=" M 623.115 506.488 Q 642.835 498.558 661.465 488.408 Q 671.655 482.858 678.825 478.508 Q 692.405 470.278 707.305 458.888 Q 714.255 453.568 719.165 448.938 Q 724.135 444.248 727.655 440.548 Q 731.785 436.218 735.145 431.218 Q 736.865 428.668 736.615 424.698 Q 736.225 418.328 730.375 418.028 Q 717.945 420.968 710.715 423.408 L 721.115 410.738 Q 726.085 408.368 728.805 407.638 Q 738.425 405.038 745.165 403.688 Q 754.055 401.908 763.115 402.118 Q 768.285 402.248 771.305 404.258 Q 773.985 406.048 773.575 409.948 Q 773.245 413.198 771.695 416.078 Q 766.495 425.708 758.485 433.088 Q 758.335 433.228 756.115 435.648 Q 754.915 436.948 753.295 437.768 Q 753.005 437.918 752.915 438.118 Q 752.855 438.228 752.835 438.358 C 752.925 438.522 752.836 438.695 752.605 438.808 Q 747.015 443.518 741.495 448.308 Q 726.695 461.168 706.055 474.888 Q 692.885 483.628 682.815 489.718 Q 675.435 494.168 665.555 499.828 Q 629.465 520.518 590.025 534.038 Q 578.335 538.048 563.365 540.448 Q 556.355 541.568 550.165 541.328 Q 544.255 541.088 541.495 539.058 Q 537.045 535.768 539.425 528.758 Q 540.995 524.138 545.335 518.898 Q 561.675 499.158 582.635 484.428 C 582.872 484.271 583.201 484.181 583.545 484.178 Q 584.255 484.358 582.925 485.308 Q 578.095 488.748 575.535 494.068 Q 571.965 501.488 570.175 508.258 Q 568.695 513.908 574.115 515.948 Q 577.335 517.158 581.155 516.928 Q 581.765 516.888 588.095 515.998 Q 606.175 513.458 623.115 506.488 Z " fill="rgb(253,210,66)"/><path d=" M 723.615 409.408 L 724.315 409.878 L 715.585 420.078 Q 713.395 420.978 712.365 423.408 L 706.865 425.988 L 706.305 426.138 L 701.825 418.698 L 723.615 409.408 Z " fill="rgb(253,210,66)"/><path d=" M 623.115 506.488 Q 622.645 505.778 623.115 504.988 Q 659.615 490.388 692.025 468.148 Q 703.805 460.058 714.605 450.688 Q 721.165 444.988 726.805 438.368 Q 731.875 432.418 732.805 426.258 Q 733.165 423.838 731.485 422.278 Q 730.295 421.178 727.925 420.988 Q 719.905 420.328 712.365 423.408 Q 713.395 420.978 715.585 420.078 Q 722.815 417.638 730.375 418.028 Q 736.225 418.328 736.615 424.698 Q 736.865 428.668 735.145 431.218 Q 731.785 436.218 727.655 440.548 Q 724.135 444.248 719.165 448.938 Q 714.255 453.568 707.305 458.888 Q 692.405 470.278 678.825 478.508 Q 671.655 482.858 661.465 488.408 Q 642.835 498.558 623.115 506.488 Z " fill="rgb(245,138,40)"/><path d=" M 623.115 504.988 Q 612.035 509.348 600.465 512.168 Q 590.985 514.488 582.675 512.888 Q 574.565 511.328 577.425 503.258 Q 580.185 495.478 588.595 488.978 Q 698.33 443.26 703 436 L 709.405 434.198 Q 710.935 430.898 708.345 428.928 C 708.071 428.73 707.866 428.471 707.755 428.178 L 706.865 425.988 L 712.365 423.408 Q 719.905 420.328 727.925 420.988 Q 730.295 421.178 731.485 422.278 Q 733.165 423.838 732.805 426.258 Q 731.875 432.418 726.805 438.368 Q 721.165 444.988 714.605 450.688 Q 703.805 460.058 692.025 468.148 Q 659.615 490.388 623.115 504.988 Z " fill="rgb(38,27,46)"/><path d=" M 674.615 402.488 Q 689.935 410.818 699.205 425.388 Q 699.235 425.438 701.745 430.148 Q 703.805 434.028 707.255 436.988 Q 702.585 444.248 695.955 450.788 Q 670.135 476.268 636.615 490.198 Q 628.065 493.748 621.615 495.408 Q 622.975 493.098 625.555 492.898 Q 626.075 492.868 626.475 492.608 Q 629.345 490.788 632.655 489.948 Q 639.765 488.138 646.095 484.458 Q 646.125 484.448 648.765 483.178 Q 651.035 482.088 652.925 479.508 Q 661.105 468.358 665.535 460.068 Q 680.005 432.978 674.615 402.488 Z " fill="rgb(38,27,46)"/><path d=" M 769.405 431.948 Q 759.345 442.938 747.885 452.468 Q 723.175 473.028 695.895 490.038 Q 662.085 511.128 625.735 527.478 Q 602.885 537.748 578.795 544.588 Q 569.365 547.268 559.685 548.568 Q 551.945 549.608 548.515 549.598 Q 542.365 549.588 537.365 547.448 Q 531.175 544.788 531.005 538.808 Q 530.895 535.128 533.585 529.538 Q 536.665 523.138 541.345 517.668 Q 554.305 502.538 570.115 490.408 Q 570.895 491.378 569.805 492.388 Q 563.555 498.148 557.175 503.758 Q 551.885 508.418 543.065 519.378 Q 540.225 522.908 537.615 528.698 Q 535.345 533.738 537.495 537.788 Q 538.985 540.608 542.125 542.178 Q 544.995 543.628 548.615 543.698 Q 558.885 543.898 567.525 541.998 Q 594.985 535.948 620.695 524.548 Q 661.505 506.468 699.115 482.448 Q 714.615 472.548 727.445 462.798 Q 736.575 455.858 743.125 450.398 Q 756.015 439.648 766.555 427.638 Q 771.155 422.388 773.895 415.588 Q 775.525 411.548 775.235 408.598 Q 774.805 404.168 771.145 402.138 Q 768.305 400.568 761.855 400.638 Q 745.725 400.818 730.455 406.218 Q 730.355 406.248 727.725 406.978 Q 725.375 407.628 723.615 409.408 L 701.825 418.698 Q 700.105 417.428 699.365 415.488 Q 710.685 410.678 722.255 406.498 Q 739.135 400.408 756.935 398.078 Q 762.265 397.378 767.555 397.808 Q 774.415 398.358 777.655 400.538 Q 781.585 403.168 781.855 408.258 Q 782.045 411.668 779.955 416.228 Q 775.995 424.898 769.405 431.948 Z " fill="rgb(245,138,40)"/><path d=" M 620.865 402.988 Q 618.815 405.268 616.115 406.658 Q 617.445 403.558 620.865 402.988 Z " fill="rgb(244,204,102)"/><path d=" M 611.865 409.988 Q 610.625 411.968 608.615 413.158 Q 609.215 410.458 611.865 409.988 Z " fill="rgb(244,204,102)"/><path d=" M 706.305 426.138 L 706.865 425.988 L 707.755 428.178 C 707.866 428.471 708.071 428.73 708.345 428.928 Q 710.935 430.898 709.405 434.198 L 706.305 426.138 Z " fill="rgb(253,210,66)"/><path d=" M 633.115 395.908 Q 633.295 396.278 633.235 396.718 C 633.263 396.996 633.029 397.258 632.645 397.378 L 620.865 402.988 Q 617.445 403.558 616.115 406.658 L 611.865 409.988 Q 609.215 410.458 608.615 413.158 Q 593.945 428.578 590.635 449.698 Q 588.435 463.738 591.925 476.888 Q 594.525 486.688 599.325 497.198 Q 599.365 497.818 599.115 498.408 Q 595.025 499.568 592.675 496.638 Q 590.625 494.068 588.595 488.978 L 585.325 478.698 Q 576.345 443.458 599.375 416.208 Q 613.195 400.928 633.115 395.908 Z " fill="rgb(253,210,66)"/><path d=" M 573.805 514.008 Q 570.865 512.478 572.395 509.148 Q 572.605 508.698 572.885 509.108 Q 575.845 513.408 581.115 514.138 C 581.473 514.195 581.768 514.363 581.905 514.588 Q 582.375 515.438 580.605 515.398 Q 576.215 515.268 573.805 514.008 Z " fill="rgb(253,210,66)"/><path d=" M 653.615 393.908 Q 680.845 395.758 699.365 415.488 Q 700.105 417.428 701.825 418.698 L 706.305 426.138 L 709.405 434.198 L 707.255 436.988 Q 703.805 434.028 701.745 430.148 Q 699.235 425.438 699.205 425.388 Q 689.935 410.818 674.615 402.488 Q 665.455 397.818 655.365 395.738 L 652.675 395.138 C 652.51 395.122 652.363 395.058 652.272 394.963 C 652.18 394.867 652.152 394.749 652.195 394.638 Q 652.365 393.728 653.615 393.908 Z " fill="rgb(253,210,66)"/></g></g></g></svg>