<?xml version="1.0" encoding="UTF-8" standalone="no"?><!-- Generator: Gravit.io --><svg xmlns="http://www.w3.org/2000/svg" xmlns:xlink="http://www.w3.org/1999/xlink" style="isolation:isolate" viewBox="662.182 537.145 227.822 206.534" width="227.822pt" height="206.534pt"><defs><clipPath id="_clipPath_TtlpTd7qJDUn5uudZqqYGneus0ku97Dz"><rect x="662.182" y="537.145" width="227.822" height="206.534"/></clipPath></defs><g clip-path="url(#_clipPath_TtlpTd7qJDUn5uudZqqYGneus0ku97Dz)"><rect x="662.182" y="537.145" width="227.822" height="206.534" style="fill:rgb(6,6,6)" fill-opacity="0"/><g><line x1="769.274" y1="553.815" x2="770.944" y2="561.815"/><path d=" M 742.774 571.565 Q 745.374 571.655 746.694 573.495 Q 747.674 574.855 747.334 576.425 Q 746.854 578.655 744.034 578.115 C 743.702 578.015 743.465 577.789 743.414 577.525 L 742.444 575.065 Q 741.894 573.265 742.774 571.565 Z " fill="rgb(254,235,147)"/><path d=" M 683.944 670.315 Q 683.754 670.765 683.804 671.205 Q 683.844 671.525 684.244 671.915 Q 685.694 673.325 684.744 675.125 Q 684.684 675.245 684.054 675.825 Q 683.684 676.165 683.734 676.775 Q 682.194 678.075 681.024 679.705 Q 680.944 679.815 679.034 682.045 Q 676.894 684.555 679.674 687.625 Q 683.734 692.125 688.704 693.895 Q 695.074 696.165 701.774 697.135 Q 711.474 698.545 721.234 699.355 Q 723.324 700.085 723.474 702.065 C 723.487 702.181 723.442 702.295 723.348 702.381 C 723.255 702.467 723.122 702.516 722.984 702.515 Q 722.444 702.515 721.984 702.775 Q 701.404 702.875 681.524 697.675 Q 674.694 695.895 671.044 693.005 Q 667.984 690.585 668.594 686.965 Q 668.974 684.735 671.214 681.625 Q 676.284 674.635 683.944 670.315 Z " fill="rgb(255,202,33)"/><path d=" M 797.734 682.855 Q 796.704 681.235 794.964 681.665 C 794.665 681.712 794.36 681.609 794.194 681.405 Q 793.624 680.445 794.234 679.565 Q 796.814 675.875 800.694 671.385 Q 805.804 665.495 807.404 663.405 Q 811.364 658.235 816.294 651.125 Q 819.474 646.555 819.524 641.565 Q 820.474 641.835 821.444 641.805 Q 822.284 641.785 822.774 641.335 Q 823.724 640.445 821.674 639.625 Q 818.864 638.505 818.574 635.375 C 818.524 635.059 818.613 634.738 818.824 634.475 Q 823.754 627.205 823.774 618.315 Q 823.984 618.275 824.024 618.065 Q 824.534 617.945 825.174 617.255 Q 832.554 609.235 842.464 604.295 Q 843.904 603.575 843.524 605.145 Q 842.974 607.405 841.874 609.245 Q 835.234 620.325 826.454 629.785 Q 823.874 632.575 820.994 634.135 Q 819.484 634.955 821.184 635.225 Q 823.394 635.575 825.024 634.995 C 825.358 634.864 825.622 634.656 825.774 634.405 Q 828.334 630.885 832.334 628.655 C 832.519 628.576 832.731 628.576 832.916 628.655 C 833.101 628.733 833.242 628.882 833.304 629.065 L 834.284 631.915 C 834.443 632.319 834.401 632.772 834.17 633.142 C 833.94 633.511 833.546 633.756 833.104 633.805 Q 829.864 634.105 827.664 634.845 Q 825.804 635.465 827.714 635.565 L 836.724 636.015 Q 837.324 636.045 836.964 636.505 Q 831.904 642.885 830.244 649.525 C 829.884 650.258 830.131 651.083 830.874 651.635 L 833.034 654.125 C 833.288 654.349 833.367 654.678 833.239 654.97 C 833.111 655.263 832.798 655.467 832.434 655.495 Q 827.404 656.805 822.234 657.315 Q 819.814 657.555 818.144 658.355 Q 816.414 659.185 815.464 661.335 Q 813.754 665.205 814.364 669.585 Q 815.054 674.425 819.694 675.935 Q 822.834 676.955 825.084 677.815 Q 826.704 678.425 825.184 679.245 Q 821.344 681.325 817.044 681.935 C 816.733 681.966 816.424 681.855 816.214 681.635 Q 815.404 680.785 814.394 680.175 Q 811.124 678.195 810.764 682.065 Q 810.734 682.475 810.944 683.015 Q 811.614 684.715 809.484 684.405 C 809.16 684.373 808.833 684.415 808.534 684.525 Q 806.354 685.495 804.034 685.095 C 803.713 685.021 803.447 684.826 803.314 684.565 Q 801.464 681.305 797.734 682.855 Z " fill="rgb(45,17,32)"/><path d=" M 768.484 692.775 L 754.484 694.105 L 753.984 694.025 L 760.394 683.445 C 760.562 683.209 760.835 683.062 761.133 683.046 C 761.431 683.031 761.719 683.148 761.914 683.365 Q 765.654 687.755 768.484 692.775 Z " fill="rgb(45,17,32)"/><path d=" M 792.694 688.065 Q 792.814 688.385 793.234 688.355 Q 790.394 689.695 792.694 688.065 Z " fill="rgb(192,55,38)"/><path d=" M 807.024 552.315 L 808.044 553.845 C 808.446 554.113 808.471 554.511 808.104 554.805 Q 807.194 558.115 805.434 560.975 Q 804.344 562.755 800.974 565.645 Q 798.254 567.975 796.024 570.815 Q 796.054 570.195 795.804 569.675 C 795.582 569.418 795.578 569.083 795.794 568.825 L 798.944 563.565 Q 801.424 560.135 803.944 556.735 Q 803.984 556.685 805.574 554.905 Q 806.574 553.795 807.024 552.315 Z " fill="rgb(199,89,55)"/><path d=" M 815.984 691.605 Q 815.474 692.875 814.484 693.855 L 806.234 693.775 L 815.984 691.605 Z " fill="rgb(199,89,55)"/><path d=" M 753.984 694.025 L 754.484 694.105 Q 750.084 696.585 745.234 695.105 Q 745.454 695.065 745.484 694.855 L 753.984 694.025 Z " fill="rgb(194,72,30)"/><path d=" M 769.274 553.815 Q 768.904 558.095 770.944 561.815 Q 772.294 565.635 774.734 568.855 L 776.734 571.275 Q 764.514 575.355 759.694 587.315 Q 757.594 592.825 757.924 599.255 Q 758.024 601.165 756.234 602.105 Q 752.214 603.595 750.794 604.375 Q 746.704 606.645 745.944 611.315 Q 743.604 611.055 741.904 612.535 C 741.484 612.747 741.323 613.07 741.484 613.375 Q 741.254 614.425 740.234 614.855 L 733.974 603.715 C 733.859 603.522 733.651 603.402 733.425 603.398 C 733.198 603.394 732.985 603.507 732.864 603.695 Q 731.124 606.415 729.364 608.685 Q 726.444 612.435 721.594 611.285 C 721.364 611.234 721.124 611.297 720.952 611.456 C 720.779 611.614 720.698 611.846 720.734 612.075 Q 721.694 618.825 726.274 623.815 Q 725.824 625.205 724.704 626.085 Q 724.354 626.365 724.044 626.815 Q 723.174 628.085 721.524 627.565 Q 719.194 622.935 716.424 615.625 Q 714.594 610.825 716.214 606.455 Q 716.814 604.855 717.874 604.165 Q 719.834 602.885 721.044 606.005 Q 722.274 609.155 724.544 607.625 Q 728.534 604.945 730.304 600.525 C 730.43 600.228 730.441 599.899 730.334 599.595 Q 727.544 591.005 727.234 586.565 Q 726.254 572.495 737.294 565.125 Q 740.484 563.005 744.984 563.855 Q 744.654 566.205 745.694 568.315 Q 740.424 566.975 736.064 570.145 Q 730.694 574.055 730.234 581.565 Q 729.804 588.615 731.944 593.695 Q 735.344 601.765 741.094 608.385 C 741.172 608.455 741.281 608.484 741.386 608.465 C 741.492 608.445 741.58 608.378 741.624 608.285 Q 745.134 600.675 753.434 599.325 C 753.706 599.279 753.894 599.029 753.864 598.755 Q 752.534 587.495 759.764 578.855 Q 763.174 574.775 767.744 570.465 C 768.157 570.085 768.302 569.5 768.114 568.975 Q 766.434 564.035 764.514 558.805 Q 762.134 552.275 761.994 545.315 Q 761.914 540.715 764.294 538.125 Q 766.374 535.865 767.484 538.815 Q 768.694 542.045 769.274 553.815 Z " fill="rgb(253,196,91)"/><path d=" M 807.024 552.315 Q 806.574 553.795 805.574 554.905 Q 803.984 556.685 803.944 556.735 Q 801.424 560.135 798.944 563.565 Q 796.814 563.535 796.194 561.565 L 798.484 557.355 Q 800.914 554.475 804.044 552.385 Q 805.544 551.385 807.024 552.315 Z " fill="rgb(253,196,91)"/><circle vector-effect="non-scaling-stroke" cx="806.4538077580348" cy="579.745128022822" r="3.4600000000000364" fill="rgb(253,196,91)"/><path d=" M 717.287 598.107 C 716.976 596.922 717.82 595.672 719.17 595.318 C 720.521 594.963 721.87 595.638 722.181 596.823 C 722.492 598.008 721.648 599.258 720.297 599.612 C 718.947 599.967 717.598 599.292 717.287 598.107 Z " fill="rgb(253,196,91)"/><path d=" M 715.444 636.065 Q 713.114 637.025 710.754 636.685 Q 706.734 636.105 706.494 636.095 Q 700.274 636.085 697.734 636.815 Q 696.514 637.165 697.194 637.645 Q 697.414 637.805 697.814 637.865 Q 703.764 638.695 709.724 639.375 Q 710.104 639.415 710.234 639.775 Q 706.834 639.915 705.544 640.625 Q 700.144 643.625 695.634 640.875 Q 693.024 639.285 693.124 636.645 Q 693.214 634.355 695.214 632.975 Q 696.554 632.045 698.934 631.655 Q 705.954 630.495 713.294 634.005 Q 715.134 634.885 715.444 636.065 Z " fill="rgb(253,196,91)"/><path d=" M 825.234 722.025 Q 826.894 724.865 824.274 725.745 Q 823.834 725.885 823.474 726.265 Q 822.724 727.055 821.524 727.315 Q 817.974 728.215 815.274 730.605 Q 814.364 731.425 813.024 730.815 Q 814.444 720.125 825.234 722.025 Z " fill="rgb(253,196,91)"/><path d=" M 709.734 654.105 Q 708.684 655.795 708.484 657.775 Q 695.794 663.235 683.944 670.315 Q 676.284 674.635 671.214 681.625 Q 668.974 684.735 668.594 686.965 Q 667.984 690.585 671.044 693.005 Q 674.694 695.895 681.524 697.675 Q 701.404 702.875 721.984 702.775 Q 725.194 703.045 734.234 702.565 Q 752.334 701.605 755.634 701.025 Q 766.364 699.145 777.234 698.315 Q 782.134 697.945 804.524 693.815 L 806.234 693.775 L 814.484 693.855 Q 812.524 696.925 816.234 696.925 Q 818.874 696.925 816.664 694.755 C 816.387 694.49 816.237 694.119 816.252 693.737 C 816.267 693.355 816.446 692.998 816.744 692.755 Q 818.254 691.505 820.734 690.815 Q 829.434 691.145 837.774 693.565 Q 836.714 695.895 838.924 697.625 Q 840.884 699.165 840.194 702.065 L 827.154 696.375 Q 825.514 695.655 826.084 697.355 Q 826.844 699.635 824.444 700.145 Q 817.774 701.575 810.734 699.065 Q 805.004 697.025 798.894 699.085 C 798.595 699.188 798.359 699.42 798.254 699.715 Q 797.014 703.125 796.284 706.675 Q 796.154 707.315 795.854 707.725 Q 794.754 709.195 794.574 707.195 Q 794.534 706.715 794.694 706.075 Q 796.744 698.135 788.774 701.065 Q 786.204 700.135 783.944 701.815 L 779.984 702.355 Q 774.874 702.265 769.924 704.355 C 769.641 704.475 769.462 704.758 769.474 705.065 Q 769.624 708.695 769.784 712.065 Q 769.814 712.825 770.734 712.605 L 759.654 723.045 C 759.392 723.248 759.293 723.572 759.404 723.865 L 760.234 726.605 Q 756.604 726.655 756.204 724.115 Q 755.944 722.425 757.394 720.475 Q 759.694 717.385 763.154 715.475 Q 764.384 714.805 765.024 713.565 Q 768.004 710.615 766.194 705.495 C 766.061 705.121 765.688 704.889 765.294 704.935 Q 762.524 705.265 763.294 708.505 Q 763.584 709.705 763.024 710.065 L 759.594 705.655 C 759.433 705.42 759.145 705.249 758.804 705.185 Q 757.574 705.125 757.984 706.565 Q 758.804 709.475 756.294 707.755 Q 755.184 706.985 754.254 705.995 C 754.043 705.776 753.736 705.662 753.424 705.685 Q 743.604 706.755 733.744 707.485 Q 709.704 709.265 685.984 705.095 Q 677.714 703.635 670.314 699.725 Q 665.004 696.915 662.794 692.005 Q 661.384 688.875 663.224 685.475 Q 666.364 679.675 671.134 675.365 Q 674.164 672.615 681.444 667.965 Q 694.764 659.455 709.734 654.105 Z " fill="rgb(254,135,76)"/><path d=" M 712.734 659.275 Q 709.814 660.405 697.234 666.315 Q 694.014 667.825 692.824 668.885 Q 688.314 672.865 683.734 676.775 Q 683.684 676.165 684.054 675.825 Q 684.684 675.245 684.744 675.125 Q 685.694 673.325 684.244 671.915 Q 683.844 671.525 683.804 671.205 Q 683.754 670.765 683.944 670.315 Q 695.794 663.235 708.484 657.775 Q 709.234 657.715 709.904 657.445 Q 710.804 657.085 711.264 657.145 Q 712.884 657.355 712.734 659.275 Z " fill="rgb(254,200,62)"/><circle vector-effect="non-scaling-stroke" cx="850.6238077580347" cy="714.9251280228209" r="3.7999999999999545" fill="rgb(254,200,62)"/><path d=" M 774.774 732.815 L 773.404 734.385 C 773.206 734.573 772.889 734.594 772.664 734.435 Q 770.684 732.935 769.394 734.485 Q 768.884 735.095 767.864 736.485 Q 766.924 737.775 767.424 739.125 Q 768.564 742.255 767.074 740.355 C 766.874 740.123 766.775 739.836 766.794 739.545 Q 766.724 735.395 766.004 739.755 C 765.953 740.015 765.711 740.206 765.424 740.215 Q 764.194 740.235 763.484 741.355 Q 761.534 739.635 761.484 738.065 Q 761.234 729.395 769.984 729.815 Q 772.884 729.955 774.774 732.815 Z " fill="rgb(254,200,62)"/><path d=" M 796.194 561.565 Q 796.814 563.535 798.944 563.565 L 795.794 568.825 C 795.578 569.083 795.582 569.418 795.804 569.675 Q 796.054 570.195 796.024 570.815 Q 793.454 575.245 792.734 578.315 Q 791.674 582.825 796.064 585.225 Q 800.164 587.485 804.634 588.825 Q 805.704 589.135 806.114 589.685 Q 806.584 590.315 806.894 591.325 C 807.04 591.815 807.536 592.117 808.044 592.025 Q 813.894 590.935 819.144 588.415 Q 821.074 587.475 822.454 586.215 Q 823.944 584.855 825.184 583.235 Q 826.494 581.545 827.924 583.135 Q 832.934 588.695 831.604 595.035 Q 831.154 597.145 827.394 603.585 Q 824.854 607.925 823.044 612.125 Q 821.634 615.395 823.774 618.315 Q 823.754 627.205 818.824 634.475 C 818.613 634.738 818.524 635.059 818.574 635.375 Q 818.864 638.505 821.674 639.625 Q 823.724 640.445 822.774 641.335 Q 822.284 641.785 821.444 641.805 Q 820.474 641.835 819.524 641.565 Q 815.284 639.045 815.564 634.815 Q 815.654 633.425 817.414 630.275 Q 820.884 624.055 818.574 616.845 C 818.485 616.581 818.206 616.423 817.924 616.475 Q 808.374 618.375 803.964 627.085 Q 803.384 628.225 802.274 628.885 Q 801.244 629.505 801.604 628.265 L 803.194 622.635 C 803.274 622.378 803.215 622.101 803.036 621.89 C 802.856 621.678 802.577 621.558 802.284 621.565 L 797.494 621.565 C 796.553 621.562 795.738 620.916 795.524 620.005 Q 794.774 616.795 795.404 613.755 Q 796.414 608.875 796.424 608.635 Q 796.584 604.805 795.474 601.045 Q 794.824 598.825 796.184 597.195 L 799.684 592.985 C 799.908 592.742 799.993 592.405 799.91 592.087 C 799.828 591.77 799.589 591.514 799.274 591.405 Q 798.374 591.105 797.214 590.845 Q 796.124 590.595 795.124 590.795 Q 787.654 592.255 790.744 600.085 Q 791.304 601.505 789.944 600.795 Q 786.414 598.955 784.894 595.475 Q 783.924 593.245 785.794 591.575 L 790.804 587.095 C 791.031 586.897 791.082 586.57 790.924 586.315 Q 788.894 582.685 788.394 578.645 Q 788.074 576.015 789.324 573.195 Q 792.084 567.005 796.194 561.565 Z " fill="rgb(245,131,84)"/><path d=" M 759.694 587.315 Q 759.864 588.265 759.544 589.625 Q 757.544 598.245 761.984 606.065 Q 763.254 608.305 768.204 615.415 Q 768.484 615.815 768.474 615.315 Q 768.424 612.295 768.104 609.305 Q 767.624 604.875 769.244 608.285 Q 769.764 609.365 769.894 610.105 Q 770.164 611.505 770.914 610.225 L 772.994 606.655 C 773.467 605.955 774.422 605.694 775.224 606.045 Q 776.764 606.785 775.584 608.115 Q 774.634 609.175 774.594 609.225 Q 772.594 612.005 771.904 615.285 Q 771.434 617.515 772.054 621.205 Q 772.854 625.965 772.924 627.125 Q 773.114 630.595 770.694 634.315 L 768.734 636.775 Q 764.894 639.895 765.604 643.985 Q 766.094 646.845 768.674 648.785 Q 771.074 650.585 774.234 651.075 Q 776.424 651.425 777.994 650.375 Q 779.244 649.535 780.084 647.495 Q 781.664 643.675 781.234 638.815 Q 780.784 633.725 781.344 624.405 Q 781.454 622.635 780.884 620.295 Q 780.234 617.595 780.734 616.065 Q 781.544 613.585 782.234 616.065 Q 782.784 618.065 782.104 621.075 C 782.033 621.385 782.071 621.711 782.214 621.995 Q 783.284 624.135 783.674 626.875 Q 784.514 632.845 786.484 639.815 Q 788.154 645.715 794.244 646.645 Q 797.044 647.065 798.924 645.685 Q 801.164 644.045 801.454 641.045 Q 801.614 639.415 800.674 638.335 Q 798.974 636.395 797.074 639.205 C 796.914 639.467 796.657 639.689 796.334 639.845 Q 793.764 640.945 793.884 638.875 Q 793.934 637.925 794.674 637.095 Q 797.154 634.325 800.484 635.315 Q 804.594 636.535 804.234 640.815 Q 803.974 643.905 801.974 646.805 Q 799.414 650.515 798.294 653.375 Q 796.814 657.175 793.234 658.105 Q 785.274 659.485 781.244 652.995 C 781.094 652.751 780.79 652.65 780.524 652.755 Q 774.244 655.285 768.304 651.995 Q 758.854 646.765 763.984 636.815 Q 764.554 635.705 766.374 633.385 Q 767.874 631.455 768.244 629.755 Q 769.214 625.275 767.174 621.625 Q 761.704 611.865 756.234 602.105 Q 758.024 601.165 757.924 599.255 Q 757.594 592.825 759.694 587.315 Z " fill="rgb(245,131,84)"/><path d=" M 779.694 702.815 Q 778.894 707.475 775.274 710.565 Q 775.504 709.295 774.234 709.525 L 778.174 703.435 C 778.219 703.182 778.489 702.953 778.894 702.825 Q 779.274 702.735 779.694 702.815 Z " fill="rgb(245,131,84)"/><path d=" M 804.524 693.815 Q 782.134 697.945 777.234 698.315 Q 766.364 699.145 755.634 701.025 Q 752.334 701.605 734.234 702.565 Q 725.194 703.045 721.984 702.775 Q 722.444 702.515 722.984 702.515 C 723.122 702.516 723.255 702.467 723.348 702.381 C 723.442 702.295 723.487 702.181 723.474 702.065 Q 723.324 700.085 721.234 699.355 Q 729.514 699.635 744.174 698.755 Q 748.174 698.515 751.094 698.035 Q 755.804 697.275 757.954 697.155 Q 769.514 696.525 775.984 694.565 Q 784.734 691.915 789.174 692.125 Q 794.084 692.365 796.234 691.775 Q 800.024 691.925 803.684 691.005 C 803.995 690.946 804.322 690.997 804.584 691.145 Q 806.084 692.245 804.524 693.815 Z " fill="rgb(255,191,58)"/><path d=" M 716.984 562.525 Q 717.484 563.125 717.984 563.715 Q 718.554 564.405 718.724 565.055 Q 719.424 567.795 716.534 568.525 C 716.175 568.644 715.922 568.849 715.844 569.085 Q 715.564 569.505 714.984 569.605 Q 712.044 564.795 716.984 562.525 Z " fill="rgb(248,139,129)"/><path d=" M 793.274 555.565 Q 792.914 558.775 795.684 559.415 C 795.989 559.434 796.282 559.302 796.434 559.075 Q 797.224 557.945 798.484 557.355 L 796.194 561.565 Q 792.084 567.005 789.324 573.195 Q 788.074 576.015 788.394 578.645 Q 788.894 582.685 790.924 586.315 C 791.082 586.57 791.031 586.897 790.804 587.095 L 785.794 591.575 Q 783.924 593.245 784.894 595.475 Q 786.414 598.955 789.944 600.795 Q 791.304 601.505 790.744 600.085 Q 787.654 592.255 795.124 590.795 Q 796.124 590.595 797.214 590.845 Q 798.374 591.105 799.274 591.405 C 799.589 591.514 799.828 591.77 799.91 592.087 C 799.993 592.405 799.908 592.742 799.684 592.985 L 796.184 597.195 Q 794.824 598.825 795.474 601.045 Q 796.584 604.805 796.424 608.635 Q 796.414 608.875 795.404 613.755 Q 794.774 616.795 795.524 620.005 C 795.738 620.916 796.553 621.562 797.494 621.565 L 802.284 621.565 C 802.577 621.558 802.856 621.678 803.036 621.89 C 803.215 622.101 803.274 622.378 803.194 622.635 L 801.604 628.265 Q 801.244 629.505 802.274 628.885 Q 803.384 628.225 803.964 627.085 Q 808.374 618.375 817.924 616.475 C 818.206 616.423 818.485 616.581 818.574 616.845 Q 820.884 624.055 817.414 630.275 Q 815.654 633.425 815.564 634.815 Q 815.284 639.045 819.524 641.565 Q 819.474 646.555 816.294 651.125 Q 811.364 658.235 807.404 663.405 Q 805.804 665.495 800.694 671.385 Q 796.814 675.875 794.234 679.565 Q 793.624 680.445 794.194 681.405 C 794.36 681.609 794.665 681.712 794.964 681.665 Q 796.704 681.235 797.734 682.855 Q 796.134 684.395 798.294 685.255 Q 799.444 685.705 799.554 686.625 C 799.602 686.917 799.381 687.191 799.054 687.245 L 793.234 688.355 Q 792.814 688.385 792.694 688.065 Q 793.354 686.675 791.924 685.375 Q 790.274 683.885 789.054 683.015 Q 787.584 681.955 785.664 681.775 Q 779.634 681.215 775.924 686.255 Q 774.474 688.215 776.674 690.625 Q 777.404 691.425 776.234 691.605 Q 771.514 689.295 768.514 684.975 C 768.319 684.712 768.264 684.381 768.364 684.075 Q 769.404 679.875 768.774 675.565 Q 774.214 671.725 779.794 669.625 Q 787.814 666.625 793.404 660.675 C 793.616 660.451 793.699 660.134 793.624 659.835 L 793.234 658.105 Q 796.814 657.175 798.294 653.375 Q 799.414 650.515 801.974 646.805 Q 803.974 643.905 804.234 640.815 Q 804.594 636.535 800.484 635.315 Q 797.154 634.325 794.674 637.095 Q 793.934 637.925 793.884 638.875 Q 793.764 640.945 796.334 639.845 C 796.657 639.689 796.914 639.467 797.074 639.205 Q 798.974 636.395 800.674 638.335 Q 801.614 639.415 801.454 641.045 Q 801.164 644.045 798.924 645.685 Q 797.044 647.065 794.244 646.645 Q 788.154 645.715 786.484 639.815 Q 784.514 632.845 783.674 626.875 Q 783.284 624.135 782.214 621.995 C 782.071 621.711 782.033 621.385 782.104 621.075 Q 782.784 618.065 782.234 616.065 Q 781.544 613.585 780.734 616.065 Q 780.234 617.595 780.884 620.295 Q 781.454 622.635 781.344 624.405 Q 780.784 633.725 781.234 638.815 Q 781.664 643.675 780.084 647.495 Q 779.244 649.535 777.994 650.375 Q 776.424 651.425 774.234 651.075 Q 771.074 650.585 768.674 648.785 Q 766.094 646.845 765.604 643.985 Q 764.894 639.895 768.734 636.775 Q 769.884 640.615 772.574 643.395 Q 772.914 643.755 772.684 643.325 Q 770.414 639.135 770.694 634.315 Q 773.114 630.595 772.924 627.125 Q 772.854 625.965 772.054 621.205 Q 771.434 617.515 771.904 615.285 Q 772.594 612.005 774.594 609.225 Q 774.634 609.175 775.584 608.115 Q 776.764 606.785 775.224 606.045 C 774.422 605.694 773.467 605.955 772.994 606.655 L 770.914 610.225 Q 770.164 611.505 769.894 610.105 Q 769.764 609.365 769.244 608.285 Q 767.624 604.875 768.104 609.305 Q 768.424 612.295 768.474 615.315 Q 768.484 615.815 768.204 615.415 Q 763.254 608.305 761.984 606.065 Q 757.544 598.245 759.544 589.625 Q 759.864 588.265 759.694 587.315 Q 764.514 575.355 776.734 571.275 Q 780.934 570.445 779.484 566.065 Q 779.004 564.615 780.484 562.525 Q 781.894 564.885 784.484 565.855 Q 788.354 567.595 790.484 564.815 Q 792.974 561.565 793.274 555.565 Z " fill="rgb(76,34,49)"/><path d=" M 842.234 637.525 Q 842.374 637.555 842.434 637.645 C 842.639 637.652 842.788 637.729 842.766 637.817 C 842.744 637.906 842.559 637.972 842.354 637.965 L 838.194 643.565 L 834.944 648.145 Q 833.514 650.155 834.114 647.745 Q 835.454 642.315 839.424 638.755 Q 840.924 637.395 842.234 637.525 Z " fill="rgb(76,34,49)"/><path d=" M 765.024 713.565 Q 764.604 711.495 763.024 710.065 Q 763.584 709.705 763.294 708.505 Q 762.524 705.265 765.294 704.935 C 765.688 704.889 766.061 705.121 766.194 705.495 Q 768.004 710.615 765.024 713.565 Z " fill="rgb(76,34,49)"/><path d=" M 736.484 715.218 C 736.575 714.406 737.397 713.831 738.319 713.934 C 739.24 714.038 739.914 714.781 739.823 715.592 C 739.732 716.404 738.91 716.979 737.989 716.876 C 737.067 716.773 736.393 716.03 736.484 715.218 Z " fill="rgb(211,135,117)"/><path d=" M 853.948 626.344 C 854.08 625.131 855.305 624.268 856.682 624.418 C 858.06 624.568 859.071 625.674 858.939 626.886 C 858.807 628.099 857.582 628.962 856.205 628.812 C 854.828 628.663 853.817 627.557 853.948 626.344 Z " fill="rgb(253,172,107)"/><path d=" M 830.734 556.025 L 827.234 559.855 Q 822.194 557.625 818.794 561.875 Q 817.134 563.955 817.984 566.355 Q 818.234 567.695 819.024 568.815 Q 817.584 571.145 814.774 571.065 Q 810.504 564.365 814.174 559.085 Q 816.864 555.205 821.424 554.185 Q 826.094 553.145 830.734 556.025 Z " fill="rgb(254,181,100)"/><path d=" M 742.774 571.565 Q 741.894 573.265 742.444 575.065 Q 740.894 575.125 740.194 576.565 L 738.734 576.565 C 738.413 576.569 738.11 576.708 737.904 576.945 Q 735.664 579.635 735.554 583.125 C 735.751 583.43 735.588 583.777 735.164 583.955 Q 734.764 584.185 734.234 584.105 Q 732.274 574.295 741.494 571.365 Q 742.224 571.135 742.774 571.565 Z " fill="rgb(254,181,100)"/><circle vector-effect="non-scaling-stroke" cx="707.8438077580349" cy="614.0451280228212" r="2.6299999999999955" fill="rgb(254,181,100)"/><circle vector-effect="non-scaling-stroke" cx="847.8538077580345" cy="689.7251280228215" r="2.2799999999999727" fill="rgb(254,181,100)"/><path d=" M 825.234 722.025 Q 831.004 723.455 832.194 729.315 Q 831.004 730.655 829.884 729.625 Q 829.454 729.215 829.074 729.095 Q 826.274 728.145 823.464 727.225 Q 822.984 727.065 822.504 727.145 Q 822.014 727.225 821.524 727.315 Q 822.724 727.055 823.474 726.265 Q 823.834 725.885 824.274 725.745 Q 826.894 724.865 825.234 722.025 Z " fill="rgb(254,181,100)"/><path d=" M 745.043 557.422 C 744.915 555.583 746.585 553.966 748.771 553.813 C 750.957 553.66 752.836 555.029 752.964 556.868 C 753.093 558.707 751.423 560.324 749.237 560.477 C 747.051 560.63 745.172 559.261 745.043 557.422 Z " fill="rgb(254,161,73)"/><path d=" M 719.484 652.025 Q 720.444 651.885 720.184 653.055 C 720.087 653.476 720.278 653.911 720.654 654.125 Q 722.684 655.285 721.894 656.425 Q 721.614 656.835 720.344 657.315 Q 719.474 657.645 718.734 658.275 L 712.734 659.275 Q 712.884 657.355 711.264 657.145 Q 710.804 657.085 709.904 657.445 Q 709.234 657.715 708.484 657.775 Q 708.684 655.795 709.734 654.105 Q 714.294 651.565 719.484 652.025 Z " fill="rgb(254,161,73)"/><path d=" M 837.984 676.355 Q 839.374 668.585 846.724 665.695 Q 849.554 664.575 851.244 662.055 Q 852.914 659.545 850.074 660.535 Q 846.724 661.695 843.384 663.155 Q 840.904 664.225 839.914 662.515 Q 839.724 662.195 838.894 659.745 Q 836.394 652.345 840.944 645.815 Q 844.834 640.815 850.734 641.565 Q 863.124 643.145 872.174 648.375 Q 877.414 651.415 874.964 655.395 Q 873.904 657.105 870.374 659.575 Q 855.334 670.105 837.984 676.355 Z " fill="rgb(30,16,36)"/><path d=" M 736.024 677.815 Q 734.844 678.835 733.234 678.855 Q 730.974 678.445 728.904 679.465 Q 723.504 682.115 719.484 686.565 Q 716.644 689.705 718.734 694.275 Q 718.364 694.445 718.194 694.815 Q 712.904 694.725 707.174 692.875 Q 702.694 691.435 700.504 687.935 Q 698.644 684.955 698.944 680.375 Q 699.634 670.175 708.754 664.895 Q 711.584 663.255 712.004 662.985 Q 713.604 661.985 715.234 661.025 Q 715.614 661.225 715.294 661.625 Q 711.614 666.235 714.714 670.585 Q 715.454 671.625 715.704 670.375 Q 717.004 663.675 721.894 660.625 C 722.73 660.114 723.775 660.079 724.644 660.535 Q 735.254 666.195 736.024 677.815 Z " fill="rgb(30,16,36)"/><path d=" M 852.15 588.248 C 852.248 586.728 853.692 585.582 855.372 585.691 C 857.052 585.8 858.336 587.122 858.237 588.642 C 858.139 590.162 856.696 591.308 855.016 591.199 C 853.336 591.091 852.052 589.768 852.15 588.248 Z " fill="rgb(247,145,102)"/><path d=" M 839.034 714.445 Q 837.944 713.795 837.244 712.735 L 829.614 701.255 Q 829.114 700.505 829.964 700.805 Q 834.944 702.595 839.424 705.375 Q 841.754 706.835 843.134 710.125 Q 843.924 712.035 843.444 713.585 Q 842.534 716.535 839.034 714.445 Z " fill="rgb(247,145,102)"/><path d=" M 756.234 602.105 Q 761.704 611.865 767.174 621.625 Q 769.214 625.275 768.244 629.755 Q 767.874 631.455 766.374 633.385 Q 764.554 635.705 763.984 636.815 Q 758.854 646.765 768.304 651.995 Q 774.244 655.285 780.524 652.755 C 780.79 652.65 781.094 652.751 781.244 652.995 Q 785.274 659.485 793.234 658.105 L 793.624 659.835 C 793.699 660.134 793.616 660.451 793.404 660.675 Q 787.814 666.625 779.794 669.625 Q 774.214 671.725 768.774 675.565 Q 767.034 669.395 761.054 667.245 Q 757.974 666.135 754.744 665.755 Q 754.074 665.675 753.754 666.065 C 753.634 666.168 753.591 666.314 753.64 666.449 C 753.689 666.584 753.824 666.689 753.994 666.725 Q 757.284 668.355 759.044 669.005 Q 765.824 671.495 766.174 678.125 Q 766.354 681.575 763.604 680.125 C 763.024 679.955 762.773 679.677 762.974 679.425 L 761.724 677.265 C 761.558 677.042 761.252 676.898 760.914 676.885 Q 749.654 677.035 742.904 668.825 Q 741.514 667.145 740.484 663.855 Q 736.404 650.925 724.414 644.055 C 724.143 643.906 723.983 643.618 724.004 643.315 Q 724.214 639.605 726.424 636.705 C 726.618 636.469 726.924 636.335 727.244 636.345 Q 736.204 636.885 738.734 636.315 Q 746.134 634.645 739.484 631.815 Q 733.214 629.145 726.274 623.815 Q 721.694 618.825 720.734 612.075 C 720.698 611.846 720.779 611.614 720.952 611.456 C 721.124 611.297 721.364 611.234 721.594 611.285 Q 726.444 612.435 729.364 608.685 Q 731.124 606.415 732.864 603.695 C 732.985 603.507 733.198 603.394 733.425 603.398 C 733.651 603.402 733.859 603.522 733.974 603.715 L 740.234 614.855 Q 741.354 617.195 741.894 619.725 Q 742.104 620.695 742.444 621.185 Q 743.374 622.525 744.284 621.325 Q 744.704 620.765 744.844 619.675 Q 745.374 615.485 745.944 611.315 Q 746.704 606.645 750.794 604.375 Q 752.214 603.595 756.234 602.105 Z " fill="rgb(73,46,55)"/><path d=" M 737.531 547.065 C 737.063 544.88 738.606 542.693 740.975 542.185 C 743.344 541.677 745.648 543.039 746.116 545.225 C 746.585 547.41 745.042 549.597 742.673 550.105 C 740.304 550.613 738 549.251 737.531 547.065 Z " fill="rgb(255,184,63)"/><path d=" M 880.944 658.815 Q 881.004 659.805 880.234 660.815 Q 878.504 663.075 877.234 666.275 Q 871.884 670.115 864.924 673.755 Q 843.454 684.975 820.734 690.815 L 815.984 691.605 L 806.234 693.775 L 804.524 693.815 Q 806.084 692.245 804.584 691.145 C 804.322 690.997 803.995 690.946 803.684 691.005 Q 800.024 691.925 796.234 691.775 L 801.794 688.305 C 802.074 688.179 802.402 688.13 802.724 688.165 Q 807.894 689.175 813.984 687.315 Q 824.874 683.975 831.484 680.775 Q 836.654 681.825 841.224 679.695 Q 845.994 677.475 846.064 677.445 Q 857.274 673.195 865.674 668.505 Q 869.604 666.305 874.944 661.815 Q 875.014 663.605 877.054 663.235 C 877.487 663.123 877.767 662.918 877.794 662.695 L 880.944 658.815 Z " fill="rgb(254,173,58)"/><path d=" M 774.774 732.815 Q 777.874 737.545 774.294 741.125 Q 769.314 746.115 763.484 741.355 Q 764.194 740.235 765.424 740.215 C 765.711 740.206 765.953 740.015 766.004 739.755 Q 766.724 735.395 766.794 739.545 C 766.775 739.836 766.874 740.123 767.074 740.355 Q 768.564 742.255 767.424 739.125 Q 766.924 737.775 767.864 736.485 Q 768.884 735.095 769.394 734.485 Q 770.684 732.935 772.664 734.435 C 772.889 734.594 773.206 734.573 773.404 734.385 L 774.774 732.815 Z " fill="rgb(254,173,58)"/><path d=" M 827.234 559.855 Q 828.394 560.575 828.984 561.775 Q 828.144 562.135 828.684 565.225 C 828.758 565.593 828.545 565.958 828.184 566.085 L 822.424 568.005 Q 819.944 568.825 819.794 567.005 Q 819.604 564.615 817.984 566.355 Q 817.134 563.955 818.794 561.875 Q 822.194 557.625 827.234 559.855 Z " fill="rgb(166,82,100)"/><path d=" M 706.281 646.566 C 706.008 645.668 706.85 644.616 708.16 644.219 C 709.469 643.821 710.754 644.226 711.027 645.124 C 711.299 646.022 710.458 647.074 709.148 647.472 C 707.838 647.87 706.554 647.464 706.281 646.566 Z " fill="rgb(247,174,114)"/><path d=" M 793.024 554.565 Q 793.354 554.935 793.274 555.565 Q 792.974 561.565 790.484 564.815 Q 788.354 567.595 784.484 565.855 Q 786.214 559.775 791.044 556.625 Q 792.574 555.635 793.024 554.565 Z " fill="rgb(215,106,85)"/><path d=" M 736.024 677.815 Q 737.304 688.325 745.484 694.855 Q 745.454 695.065 745.234 695.105 Q 731.704 695.545 718.194 694.815 Q 718.364 694.445 718.734 694.275 Q 723.594 695.955 723.974 691.195 C 724.044 690.284 724.709 689.53 725.604 689.345 Q 729.624 688.515 733.314 687.005 Q 734.024 686.715 734.304 686.215 Q 735.014 684.985 732.984 685.035 Q 729.484 685.105 726.374 686.185 Q 724.874 686.705 726.154 685.765 Q 729.394 683.405 732.954 681.605 Q 733.884 681.135 734.114 680.585 Q 734.534 679.585 733.234 678.855 Q 734.844 678.835 736.024 677.815 Z " fill="rgb(44,21,42)"/><path d=" M 779.984 702.355 L 779.694 702.815 Q 779.274 702.735 778.894 702.825 C 778.489 702.953 778.219 703.182 778.174 703.435 L 774.234 709.525 L 770.734 712.605 Q 769.814 712.825 769.784 712.065 Q 769.624 708.695 769.474 705.065 C 769.462 704.758 769.641 704.475 769.924 704.355 Q 774.874 702.265 779.984 702.355 Z " fill="rgb(44,21,42)"/><path d=" M 752.339 541.909 C 752.133 540.712 753.038 539.556 754.359 539.327 C 755.681 539.099 756.922 539.885 757.128 541.082 C 757.335 542.278 756.43 543.435 755.108 543.663 C 753.787 543.891 752.546 543.105 752.339 541.909 Z " fill="rgb(251,155,84)"/><circle vector-effect="non-scaling-stroke" cx="809.5638077580347" cy="542.4651280228204" r="2.259999999999991" fill="rgb(251,155,84)"/><path d=" M 793.024 554.565 Q 792.574 555.635 791.044 556.625 Q 786.214 559.775 784.484 565.855 Q 781.894 564.885 780.484 562.525 Q 779.604 559.875 776.774 559.315 L 775.954 544.695 Q 775.864 543.095 777.224 543.915 Q 778.164 544.475 778.754 545.385 Q 779.184 546.035 779.384 547.345 Q 780.054 551.605 781.364 555.245 C 781.68 556.118 782.629 556.586 783.514 556.305 Q 787.294 555.095 790.564 553.095 Q 791.544 552.495 792.144 552.645 Q 793.174 552.915 793.024 554.565 Z " fill="rgb(251,155,84)"/><path d=" M 744.984 563.855 Q 756.624 566.465 755.774 578.565 Q 755.944 577.235 755.174 577.755 Q 752.444 577.605 749.734 577.275 Q 751.424 571.055 745.694 568.315 Q 744.654 566.205 744.984 563.855 Z " fill="rgb(251,155,84)"/><path d=" M 745.944 611.315 Q 745.374 615.485 744.844 619.675 Q 744.704 620.765 744.284 621.325 Q 743.374 622.525 742.444 621.185 Q 742.104 620.695 741.894 619.725 Q 741.354 617.195 740.234 614.855 Q 741.254 614.425 741.484 613.375 C 741.323 613.07 741.484 612.747 741.904 612.535 Q 743.604 611.055 745.944 611.315 Z " fill="rgb(251,155,84)"/><circle vector-effect="non-scaling-stroke" cx="846.2838077580348" cy="620.2751280228208" r="2.6900000000000546" fill="rgb(251,155,84)"/><path d=" M 698.704 652.275 Q 696.754 649.935 699.964 649.435 C 700.749 649.313 701.553 649.45 702.254 649.825 Q 704.784 651.185 701.294 652.835 C 700.403 653.256 699.339 653.026 698.704 652.275 Z " fill="rgb(251,155,84)"/><path d=" M 733.234 678.855 Q 734.534 679.585 734.114 680.585 Q 733.884 681.135 732.954 681.605 Q 729.394 683.405 726.154 685.765 Q 724.874 686.705 726.374 686.185 Q 729.484 685.105 732.984 685.035 Q 735.014 684.985 734.304 686.215 Q 734.024 686.715 733.314 687.005 Q 729.624 688.515 725.604 689.345 C 724.709 689.53 724.044 690.284 723.974 691.195 Q 723.594 695.955 718.734 694.275 Q 716.644 689.705 719.484 686.565 Q 723.504 682.115 728.904 679.465 Q 730.974 678.445 733.234 678.855 Z " fill="rgb(251,155,84)"/><path d=" M 842.514 685.325 C 842.841 685.444 843.031 685.719 842.984 686.005 L 843.234 688.565 Q 843.384 690.105 842.044 689.005 Q 841.264 688.355 840.724 687.525 Q 840.144 686.625 840.344 685.875 Q 840.664 684.705 842.514 685.325 Z " fill="rgb(251,155,84)"/><path d=" M 837.774 693.565 Q 842.194 694.995 845.424 697.375 Q 847.834 699.165 846.744 701.175 Q 845.904 702.725 844.044 703.015 Q 842.054 703.325 840.194 702.065 Q 840.884 699.165 838.924 697.625 Q 836.714 695.895 837.774 693.565 Z " fill="rgb(251,155,84)"/><path d=" M 788.774 701.065 Q 785.614 713.695 784.984 717.315 Q 784.194 721.895 782.154 719.315 Q 781.464 718.425 781.324 717.105 Q 780.934 713.295 781.974 709.565 Q 783.044 705.715 783.944 701.815 Q 786.204 700.135 788.774 701.065 Z " fill="rgb(251,155,84)"/><path d=" M 732.059 559.401 C 731.839 558.608 732.429 557.752 733.376 557.489 C 734.322 557.227 735.269 557.657 735.489 558.449 C 735.709 559.242 735.119 560.098 734.172 560.361 C 733.225 560.623 732.278 560.193 732.059 559.401 Z " fill="rgb(232,115,88)"/><path d=" M 714.984 569.605 Q 715.564 569.505 715.844 569.085 C 715.922 568.849 716.175 568.644 716.534 568.525 Q 719.424 567.795 718.724 565.055 Q 718.554 564.405 717.984 563.715 Q 717.484 563.125 716.984 562.525 Q 721.894 561.345 723.094 564.905 Q 724.064 567.765 722.154 569.885 Q 720.044 572.245 716.044 570.755 Q 715.454 570.535 714.984 569.605 Z " fill="rgb(232,115,88)"/><path d=" M 705.484 594.025 Q 712.364 596.155 707.794 601.375 Q 705.294 604.235 701.484 602.105 Q 702.174 600.795 703.134 599.745 Q 704.294 598.475 704.634 597.395 Q 705.164 595.735 705.484 594.025 Z " fill="rgb(232,115,88)"/><path d=" M 801.614 709.985 Q 800.754 708.155 803.494 708.275 C 803.823 708.335 804.112 708.488 804.304 708.705 Q 805.704 710.325 807.794 710.385 C 808.095 710.379 808.355 710.181 808.424 709.905 Q 809.594 705.835 811.754 702.505 Q 812.884 700.775 812.484 702.795 Q 811.264 709.055 816.164 712.885 Q 818.834 714.985 818.144 717.935 Q 817.724 719.775 815.844 719.595 Q 812.994 719.335 811.024 717.785 Q 807.034 714.625 803.004 711.515 Q 801.964 710.715 801.614 709.985 Z " fill="rgb(232,115,88)"/><path d=" M 842.234 632.605 Q 840.294 634.665 842.414 636.425 Q 842.714 636.675 842.884 636.885 Q 844.684 639.055 842.234 637.525 Q 840.924 637.395 839.424 638.755 Q 835.454 642.315 834.114 647.745 Q 833.514 650.155 834.944 648.145 L 838.194 643.565 Q 838.884 645.475 840.944 645.815 Q 836.394 652.345 838.894 659.745 Q 839.724 662.195 839.914 662.515 Q 840.904 664.225 843.384 663.155 Q 846.724 661.695 850.074 660.535 Q 852.914 659.545 851.244 662.055 Q 849.554 664.575 846.724 665.695 Q 839.374 668.585 837.984 676.355 L 831.484 680.775 Q 824.874 683.975 813.984 687.315 Q 807.894 689.175 802.724 688.165 C 802.402 688.13 802.074 688.179 801.794 688.305 L 796.234 691.775 Q 794.084 692.365 789.174 692.125 Q 784.734 691.915 775.984 694.565 Q 769.514 696.525 757.954 697.155 Q 755.804 697.275 751.094 698.035 Q 748.174 698.515 744.174 698.755 Q 729.514 699.635 721.234 699.355 Q 711.474 698.545 701.774 697.135 Q 695.074 696.165 688.704 693.895 Q 683.734 692.125 679.674 687.625 Q 676.894 684.555 679.034 682.045 Q 680.944 679.815 681.024 679.705 Q 682.194 678.075 683.734 676.775 Q 688.314 672.865 692.824 668.885 Q 694.014 667.825 697.234 666.315 Q 709.814 660.405 712.734 659.275 L 718.734 658.275 Q 719.214 658.525 718.754 658.805 Q 716.974 659.885 715.234 661.025 Q 713.604 661.985 712.004 662.985 Q 711.584 663.255 708.754 664.895 Q 699.634 670.175 698.944 680.375 Q 698.644 684.955 700.504 687.935 Q 702.694 691.435 707.174 692.875 Q 712.904 694.725 718.194 694.815 Q 731.704 695.545 745.234 695.105 Q 750.084 696.585 754.484 694.105 L 768.484 692.775 Q 772.644 694.435 776.234 691.605 Q 777.404 691.425 776.674 690.625 Q 774.474 688.215 775.924 686.255 Q 779.634 681.215 785.664 681.775 Q 787.584 681.955 789.054 683.015 Q 790.274 683.885 791.924 685.375 Q 793.354 686.675 792.694 688.065 Q 790.394 689.695 793.234 688.355 L 799.054 687.245 C 799.381 687.191 799.602 686.917 799.554 686.625 Q 799.444 685.705 798.294 685.255 Q 796.134 684.395 797.734 682.855 Q 801.464 681.305 803.314 684.565 C 803.447 684.826 803.713 685.021 804.034 685.095 Q 806.354 685.495 808.534 684.525 C 808.833 684.415 809.16 684.373 809.484 684.405 Q 811.614 684.715 810.944 683.015 Q 810.734 682.475 810.764 682.065 Q 811.124 678.195 814.394 680.175 Q 815.404 680.785 816.214 681.635 C 816.424 681.855 816.733 681.966 817.044 681.935 Q 821.344 681.325 825.184 679.245 Q 826.704 678.425 825.084 677.815 Q 822.834 676.955 819.694 675.935 Q 815.054 674.425 814.364 669.585 Q 813.754 665.205 815.464 661.335 Q 816.414 659.185 818.144 658.355 Q 819.814 657.555 822.234 657.315 Q 827.404 656.805 832.434 655.495 C 832.798 655.467 833.111 655.263 833.239 654.97 C 833.367 654.678 833.288 654.349 833.034 654.125 L 830.874 651.635 C 830.131 651.083 829.884 650.258 830.244 649.525 Q 831.904 642.885 836.964 636.505 Q 837.324 636.045 836.724 636.015 L 827.714 635.565 Q 825.804 635.465 827.664 634.845 Q 829.864 634.105 833.104 633.805 C 833.546 633.756 833.94 633.511 834.17 633.142 C 834.401 632.772 834.443 632.319 834.284 631.915 L 833.304 629.065 C 833.242 628.882 833.101 628.733 832.916 628.655 C 832.731 628.576 832.519 628.576 832.334 628.655 Q 828.334 630.885 825.774 634.405 C 825.622 634.656 825.358 634.864 825.024 634.995 Q 823.394 635.575 821.184 635.225 Q 819.484 634.955 820.994 634.135 Q 823.874 632.575 826.454 629.785 Q 835.234 620.325 841.874 609.245 Q 842.974 607.405 843.524 605.145 Q 843.904 603.575 842.464 604.295 Q 832.554 609.235 825.174 617.255 Q 824.534 617.945 824.024 618.065 Q 823.694 615.845 824.874 613.975 Q 832.384 602.075 845.584 597.525 Q 847.474 596.875 848.444 597.105 Q 850.194 597.525 850.234 600.035 Q 850.284 602.585 849.274 604.935 Q 847.354 609.395 843.704 614.005 Q 839.944 618.765 837.364 624.255 Q 835.384 628.495 837.794 631.755 Q 839.214 633.665 842.234 632.605 Z " fill="rgb(245,127,75)"/><path d=" M 776.774 559.315 Q 779.604 559.875 780.484 562.525 Q 779.004 564.615 779.484 566.065 Q 780.934 570.445 776.734 571.275 L 774.734 568.855 Q 776.664 568.345 776.954 566.655 Q 777.294 564.695 777.334 564.525 Q 778.044 561.875 776.774 559.315 Z " fill="rgb(138,40,65)"/><path d=" M 828.984 561.775 Q 832.064 566.015 828.044 568.875 Q 823.684 571.985 819.024 568.815 Q 818.234 567.695 817.984 566.355 Q 819.604 564.615 819.794 567.005 Q 819.944 568.825 822.424 568.005 L 828.184 566.085 C 828.545 565.958 828.758 565.593 828.684 565.225 Q 828.144 562.135 828.984 561.775 Z " fill="rgb(138,40,65)"/><path d=" M 770.694 634.315 Q 770.414 639.135 772.684 643.325 Q 772.914 643.755 772.574 643.395 Q 769.884 640.615 768.734 636.775 L 770.694 634.315 Z " fill="rgb(138,40,65)"/><path d=" M 715.444 636.065 Q 714.484 639.975 710.234 639.775 Q 710.104 639.415 709.724 639.375 Q 703.764 638.695 697.814 637.865 Q 697.414 637.805 697.194 637.645 Q 696.514 637.165 697.734 636.815 Q 700.274 636.085 706.494 636.095 Q 706.734 636.105 710.754 636.685 Q 713.114 637.025 715.444 636.065 Z " fill="rgb(223,82,77)"/><path d=" M 830.734 556.025 Q 835.824 560.285 835.154 565.825 Q 834.514 571.085 830.194 573.955 Q 825.694 576.945 819.414 574.645 Q 816.534 573.595 814.774 571.065 Q 817.584 571.145 819.024 568.815 Q 823.684 571.985 828.044 568.875 Q 832.064 566.015 828.984 561.775 Q 828.394 560.575 827.234 559.855 L 830.734 556.025 Z " fill="rgb(251,138,102)"/><circle vector-effect="non-scaling-stroke" cx="840.1938077580348" cy="582.7851280228206" r="4.309999999999945" fill="rgb(251,138,102)"/><path d=" M 836.824 596.625 C 836.526 596.606 836.281 596.386 836.234 596.095 Q 835.594 591.665 839.444 592.725 C 839.753 592.815 839.996 593.051 840.094 593.355 Q 841.204 596.815 836.824 596.625 Z " fill="rgb(251,138,102)"/><path d=" M 705.484 594.025 Q 705.164 595.735 704.634 597.395 Q 704.294 598.475 703.134 599.745 Q 702.174 600.795 701.484 602.105 Q 697.054 598.785 700.924 595.005 Q 702.684 593.275 705.484 594.025 Z " fill="rgb(251,138,102)"/><path d=" M 772.664 722.875 Q 770.544 722.755 772.124 721.545 L 774.314 719.865 Q 775.744 718.775 775.464 720.675 Q 775.124 723.015 772.664 722.875 Z " fill="rgb(251,138,102)"/><path d=" M 820.734 690.815 Q 818.254 691.505 816.744 692.755 C 816.446 692.998 816.267 693.355 816.252 693.737 C 816.237 694.119 816.387 694.49 816.664 694.755 Q 818.874 696.925 816.234 696.925 Q 812.524 696.925 814.484 693.855 Q 815.474 692.875 815.984 691.605 L 820.734 690.815 Z " fill="rgb(163,52,64)"/><path d=" M 740.194 576.565 Q 738.804 579.125 740.254 581.345 C 740.43 581.604 740.71 581.791 741.034 581.865 Q 747.234 583.115 749.734 577.275 Q 752.444 577.605 755.174 577.755 Q 755.944 577.235 755.774 578.565 Q 755.044 583.865 750.294 587.375 Q 744.354 591.765 737.644 588.425 Q 734.934 587.075 734.234 584.105 Q 734.764 584.185 735.164 583.955 C 735.588 583.777 735.751 583.43 735.554 583.125 Q 735.664 579.635 737.904 576.945 C 738.11 576.708 738.413 576.569 738.734 576.565 L 740.194 576.565 Z " fill="rgb(254,134,90)"/><path d=" M 726.274 623.815 Q 733.214 629.145 739.484 631.815 Q 746.134 634.645 738.734 636.315 Q 736.204 636.885 727.244 636.345 C 726.924 636.335 726.618 636.469 726.424 636.705 Q 724.214 639.605 724.004 643.315 C 723.983 643.618 724.143 643.906 724.414 644.055 Q 736.404 650.925 740.484 663.855 Q 741.514 667.145 742.904 668.825 Q 749.654 677.035 760.914 676.885 C 761.252 676.898 761.558 677.042 761.724 677.265 L 762.974 679.425 C 762.773 679.677 763.024 679.955 763.604 680.125 Q 766.354 681.575 766.174 678.125 Q 765.824 671.495 759.044 669.005 Q 757.284 668.355 753.994 666.725 C 753.824 666.689 753.689 666.584 753.64 666.449 C 753.591 666.314 753.634 666.168 753.754 666.065 Q 754.074 665.675 754.744 665.755 Q 757.974 666.135 761.054 667.245 Q 767.034 669.395 768.774 675.565 Q 769.404 679.875 768.364 684.075 C 768.264 684.381 768.319 684.712 768.514 684.975 Q 771.514 689.295 776.234 691.605 Q 772.644 694.435 768.484 692.775 Q 765.654 687.755 761.914 683.365 C 761.719 683.148 761.431 683.031 761.133 683.046 C 760.835 683.062 760.562 683.209 760.394 683.445 L 753.984 694.025 L 745.484 694.855 Q 737.304 688.325 736.024 677.815 Q 735.254 666.195 724.644 660.535 C 723.775 660.079 722.73 660.114 721.894 660.625 Q 717.004 663.675 715.704 670.375 Q 715.454 671.625 714.714 670.585 Q 711.614 666.235 715.294 661.625 Q 715.614 661.225 715.234 661.025 Q 716.974 659.885 718.754 658.805 Q 719.214 658.525 718.734 658.275 Q 719.474 657.645 720.344 657.315 Q 721.614 656.835 721.894 656.425 Q 722.684 655.285 720.654 654.125 C 720.278 653.911 720.087 653.476 720.184 653.055 Q 720.444 651.885 719.484 652.025 Q 720.054 651.325 719.364 650.635 C 719.034 650.418 718.879 650.115 718.944 649.815 Q 718.424 642.075 721.924 634.255 Q 723.354 631.055 721.524 627.565 Q 723.174 628.085 724.044 626.815 Q 724.354 626.365 724.704 626.085 Q 725.824 625.205 726.274 623.815 Z " fill="rgb(254,134,90)"/><path d=" M 832.194 729.315 Q 833.214 733.185 830.544 736.875 Q 826.164 742.955 819.234 740.565 Q 812.654 738.295 813.024 730.815 Q 814.364 731.425 815.274 730.605 Q 817.974 728.215 821.524 727.315 Q 822.014 727.225 822.504 727.145 Q 822.984 727.065 823.464 727.225 Q 826.274 728.145 829.074 729.095 Q 829.454 729.215 829.884 729.625 Q 831.004 730.655 832.194 729.315 Z " fill="rgb(254,134,90)"/><path d=" M 877.234 666.275 Q 878.504 663.075 880.234 660.815 Q 881.004 659.805 880.944 658.815 Q 883.994 655.815 884.424 654.755 Q 886.134 650.515 883.294 647.505 Q 879.374 643.345 873.104 641.095 Q 862.614 637.335 851.544 636.145 Q 850.594 636.045 849.934 636.235 Q 847.974 636.815 849.604 638.255 C 849.845 638.443 850.152 638.565 850.484 638.605 Q 865.224 639.905 876.424 647.375 Q 878.934 649.055 879.824 652.145 Q 880.424 654.215 879.284 656.315 Q 877.604 659.405 874.944 661.815 Q 869.604 666.305 865.674 668.505 Q 857.274 673.195 846.064 677.445 Q 845.994 677.475 841.224 679.695 Q 836.654 681.825 831.484 680.775 L 837.984 676.355 Q 855.334 670.105 870.374 659.575 Q 873.904 657.105 874.964 655.395 Q 877.414 651.415 872.174 648.375 Q 863.124 643.145 850.734 641.565 Q 844.834 640.815 840.944 645.815 Q 838.884 645.475 838.194 643.565 L 842.354 637.965 C 842.559 637.972 842.744 637.906 842.766 637.817 C 842.788 637.729 842.639 637.652 842.434 637.645 Q 842.374 637.555 842.234 637.525 Q 844.684 639.055 842.884 636.885 Q 842.714 636.675 842.414 636.425 Q 840.294 634.665 842.234 632.605 Q 845.834 632.005 849.404 632.425 Q 853.964 632.975 854.094 632.985 Q 866.194 634.015 878.294 638.755 Q 882.284 640.315 885.334 642.725 Q 888.944 645.575 889.754 648.895 Q 890.764 653.025 887.694 657.015 Q 883.354 662.645 877.234 666.275 Z " fill="rgb(255,143,67)"/><path d=" M 791.75 718.02 C 790.937 716.718 791.793 714.715 793.661 713.548 C 795.528 712.381 797.704 712.49 798.518 713.791 C 799.331 715.092 798.475 717.096 796.607 718.263 C 794.739 719.43 792.563 719.321 791.75 718.02 Z " fill="rgb(255,142,70)"/><path d=" M 880.944 658.815 L 877.794 662.695 C 877.767 662.918 877.487 663.123 877.054 663.235 Q 875.014 663.605 874.944 661.815 Q 877.604 659.405 879.284 656.315 Q 880.424 654.215 879.824 652.145 Q 878.934 649.055 876.424 647.375 Q 865.224 639.905 850.484 638.605 C 850.152 638.565 849.845 638.443 849.604 638.255 Q 847.974 636.815 849.934 636.235 Q 850.594 636.045 851.544 636.145 Q 862.614 637.335 873.104 641.095 Q 879.374 643.345 883.294 647.505 Q 886.134 650.515 884.424 654.755 Q 883.994 655.815 880.944 658.815 Z " fill="rgb(255,206,42)"/><path d=" M 774.234 709.525 Q 775.504 709.295 775.274 710.565 Q 768.364 718.895 767.044 721.625 Q 765.734 724.355 763.314 726.145 Q 761.894 727.195 760.234 726.605 L 759.404 723.865 C 759.293 723.572 759.392 723.248 759.654 723.045 L 770.734 712.605 L 774.234 709.525 Z " fill="rgb(251,206,77)"/><path d=" M 728.974 650.695 Q 729.114 651.525 727.134 652.055 C 726.952 652.101 726.76 652.05 726.625 651.919 C 726.491 651.789 726.433 651.598 726.474 651.415 Q 726.814 649.965 727.734 649.865 Q 728.824 649.755 728.974 650.695 Z " fill="rgb(223,92,48)"/><path d=" M 819.584 673.185 Q 817.744 672.525 817.484 670.585 Q 816.924 666.315 819.184 663.395 Q 820.904 661.165 825.054 660.075 Q 829.594 658.895 834.304 658.535 C 834.61 658.518 834.902 658.668 835.064 658.925 Q 836.024 660.525 836.564 662.285 Q 837.084 664.005 836.454 665.805 Q 835.024 669.935 832.074 673.365 Q 830.784 674.875 828.794 674.825 Q 823.794 674.705 819.584 673.185 Z " fill="rgb(45,17,32)"/><circle vector-effect="non-scaling-stroke" cx="849.3138077580343" cy="652.6351280228209" r="2.3999999999999773" fill="rgb(235,129,121)"/><path d=" M 729.684 633.335 Q 727.694 632.735 729.134 631.165 C 729.349 630.956 729.669 630.869 729.974 630.935 Q 733.504 631.845 736.874 633.255 Q 737.224 633.395 737.374 633.635 Q 737.714 634.205 736.734 634.245 Q 733.134 634.365 729.684 633.335 Z " fill="rgb(76,34,49)"/><path d=" M 785.324 653.965 Q 783.994 652.345 784.804 650.095 Q 785.174 649.075 785.364 648.355 Q 785.544 647.695 785.834 647.075 C 785.889 646.968 785.989 646.888 786.109 646.856 C 786.229 646.824 786.358 646.841 786.464 646.905 Q 790.474 649.475 796.214 649.585 C 796.449 649.59 796.666 649.709 796.794 649.903 C 796.922 650.097 796.944 650.341 796.854 650.555 Q 794.254 656.955 788.384 655.645 Q 786.334 655.185 785.324 653.965 Z " fill="rgb(76,34,49)"/><path d=" M 726.774 656.315 Q 726.254 656.105 726.774 655.785 L 729.034 654.385 C 729.288 654.255 729.605 654.221 729.894 654.295 Q 733.034 655.895 733.944 658.825 Q 734.884 661.815 732.664 660.425 Q 732.224 660.155 731.534 659.465 Q 729.524 657.445 726.774 656.315 Z " fill="rgb(76,34,49)"/><path d=" M 787.294 685.755 Q 789.674 686.935 788.544 688.175 Q 788.004 688.775 786.714 689.005 Q 783.884 689.515 781.044 689.935 C 780.732 689.969 780.426 689.843 780.244 689.605 Q 778.434 686.995 781.794 685.725 Q 784.894 684.555 787.294 685.755 Z " fill="rgb(76,34,49)"/><path d=" M 721.837 674.722 C 721.776 673.333 723.133 672.143 724.864 672.068 C 726.595 671.992 728.05 673.059 728.111 674.448 C 728.171 675.838 726.815 677.027 725.084 677.103 C 723.352 677.178 721.897 676.112 721.837 674.722 Z " fill="rgb(254,181,100)"/><path d=" M 684.434 687.855 Q 678.454 683.655 684.014 678.605 Q 689.454 673.645 696.524 669.445 Q 697.344 668.955 696.854 669.785 Q 690.324 680.795 697.324 691.815 Q 697.944 692.795 696.794 692.645 Q 689.954 691.745 684.434 687.855 Z " fill="rgb(30,16,36)"/><path d=" M 800.904 617.135 C 800.549 617.125 800.264 616.84 800.254 616.485 Q 800.044 610.035 799.304 604.305 Q 798.274 596.365 805.114 596.205 Q 809.284 596.105 809.334 596.095 Q 818.844 594.835 826.294 588.695 C 826.379 588.629 826.493 588.611 826.597 588.645 C 826.7 588.679 826.778 588.762 826.804 588.865 Q 828.444 595.155 825.024 600.615 Q 817.674 612.345 804.494 616.585 Q 802.624 617.185 800.904 617.135 Z " fill="rgb(44,21,42)"/><path d=" M 745.864 688.945 Q 740.634 684.235 740.234 676.815 Q 740.104 674.435 739.204 671.615 Q 739.054 671.145 739.404 671.465 Q 742.504 674.345 746.324 676.205 Q 751.804 678.855 757.604 681.655 C 757.925 681.809 758.073 682.184 757.944 682.515 Q 756.334 686.745 753.294 689.315 Q 751.544 690.795 749.684 690.655 Q 747.594 690.495 745.864 688.945 Z " fill="rgb(44,21,42)"/><path d=" M 826.644 732.105 C 826.644 733.132 826.236 734.116 825.51 734.842 C 824.785 735.567 823.8 735.975 822.774 735.975 C 821.747 735.975 820.763 735.567 820.037 734.842 C 819.312 734.116 818.904 733.132 818.904 732.105 C 818.904 731.079 819.312 730.094 820.037 729.369 C 820.763 728.643 821.747 728.235 822.774 728.235 C 823.8 728.235 824.785 728.643 825.51 729.369 C 826.236 730.094 826.644 731.079 826.644 732.105 Z " fill="rgb(138,40,65)"/><path d=" M 823.184 732.235 Q 821.474 731.635 822.854 730.385 C 823.079 730.179 823.403 730.103 823.704 730.185 Q 825.144 730.675 825.194 732.245 C 825.252 732.56 825.076 732.872 824.754 733.025 Q 824.224 733.265 823.894 732.825 C 823.813 732.589 823.557 732.377 823.184 732.235 L 823.184 732.235 Z " fill="rgb(136,81,135)"/></g></g></svg>