<?xml version="1.0" encoding="UTF-8" standalone="no"?><!-- Generator: Gravit.io --><svg xmlns="http://www.w3.org/2000/svg" xmlns:xlink="http://www.w3.org/1999/xlink" style="isolation:isolate" viewBox="956.815 976.011 161.414 152.351" width="161.414pt" height="152.351pt"><defs><clipPath id="_clipPath_M8q4u79bw0oBveEkH0CgZzaxe9PvwanD"><rect x="956.815" y="976.011" width="161.414" height="152.351"/></clipPath></defs><g clip-path="url(#_clipPath_M8q4u79bw0oBveEkH0CgZzaxe9PvwanD)"><rect x="956.815" y="976.011" width="161.414" height="152.351" transform="matrix(1,0,0,1,0,0)" fill="none"/><g><path d=" M 1006.889 1008.411 Q 1009.819 1019.451 1008.059 1030.181 Q 1007.599 1032.981 1006.249 1035.581 Q 1004.919 1038.141 1003.339 1040.561 Q 1000.439 1045.011 999.419 1046.161 Q 997.249 1048.601 993.889 1050.371 Q 991.319 1051.731 990.129 1055.121 Q 988.439 1059.941 988.419 1065.141 Q 987.989 1066.611 986.119 1067.061 Q 985.269 1064.861 986.119 1062.561 Q 988.879 1056.481 989.579 1049.841 Q 989.869 1047.031 987.939 1045.201 Q 986.389 1043.731 984.529 1042.421 C 984.246 1042.276 983.906 1042.266 983.612 1042.392 C 983.318 1042.518 983.106 1042.766 983.039 1043.061 L 982.539 1045.061 Q 981.989 1045.211 981.579 1044.851 Q 982.549 1042.831 982.589 1039.911 C 982.594 1039.612 982.41 1039.343 982.129 1039.241 Q 976.109 1037.031 969.829 1037.731 L 962.639 1034.041 Q 961.639 1033.531 962.759 1033.541 L 968.989 1033.591 Q 975.419 1036.201 982.269 1037.411 C 982.561 1037.453 982.843 1037.297 982.939 1037.041 L 984.539 1032.311 Q 984.409 1033.351 985.349 1033.201 Q 984.689 1038.391 988.459 1038.211 Q 990.469 1038.121 992.769 1036.511 Q 997.989 1032.851 999.639 1026.621 Q 1000.499 1023.401 1001.039 1018.311 Q 1001.089 1011.321 1006.889 1008.411 Z " fill="rgb(254,217,64)"/><path d=" M 1092.75 1049.682 Q 1093.509 1056.061 1092.139 1061.121 Q 1091.919 1061.941 1092.579 1062.271 Q 1092.049 1062.561 1091.749 1063.201 L 1086.579 1077.021 L 1076.265 1090.995 Q 1071.154 1085.52 1070.614 1080.01 Q 1086.42 1063.992 1092.75 1049.682 Z " fill="rgb(38,27,46)"/><path d=" M 983.619 1061.061 Q 987.237 1057.227 988.307 1058.277 Q 985.269 1064.861 986.119 1067.061 Q 985.949 1067.471 985.629 1067.631 C 985.489 1067.66 985.34 1067.636 985.222 1067.564 C 985.105 1067.493 985.03 1067.382 985.019 1067.261 L 983.619 1061.061 Z " fill="rgb(38,27,46)"/><path d=" M 1091.749 1063.201 L 1089.289 1071.761 C 1089.122 1072.055 1089.147 1072.405 1089.355 1072.676 C 1089.562 1072.948 1089.919 1073.098 1090.289 1073.071 L 1100.319 1071.111 Q 1096.379 1074.311 1089.579 1074.311 Q 1087.429 1074.311 1087.329 1077.021 Q 1086.959 1077.111 1086.579 1077.021 L 1091.749 1063.201 Z " fill="rgb(254,217,64)"/><path d=" M 965.269 998.371 Q 966.719 1000.011 968.229 1001.561 Q 969.679 1003.061 971.029 1004.901 Q 980.049 1017.231 994.079 1023.601 Q 993.299 1025.921 991.889 1027.371 Q 989.309 1030.031 986.279 1027.581 Q 978.239 1021.081 972.839 1012.421 Q 968.089 1004.791 967.109 1003.711 Q 963.099 999.271 957.479 996.711 Q 955.899 995.991 958.079 996.061 Q 960.109 996.131 965.269 998.371 Z " fill="rgb(254,217,64)"/><path d=" M 1059.329 996.851 Q 1054.019 1000.851 1051.399 1006.901 L 1052.869 1011.561 Q 1052.019 1011.931 1052.039 1012.811 Q 1051.589 1011.281 1050.349 1010.591 C 1050.239 1010.533 1050.107 1010.529 1049.993 1010.58 C 1049.879 1010.631 1049.796 1010.731 1049.769 1010.851 Q 1049.279 1013.011 1050.019 1015.871 Q 1052.429 1025.281 1060.269 1029.871 Q 1066.659 1033.621 1069.829 1034.561 Q 1085.185 1041.695 1093.005 1041.705 Q 1093.394 1043.931 1093.342 1045.951 C 1093.307 1047.298 1093.136 1048.611 1092.829 1049.891 Q 1086.499 1064.201 1076.279 1075.991 Q 1074.569 1077.961 1073.039 1080.061 Q 1072.649 1080.731 1071.869 1080.811 Q 1064.759 1070.271 1057.539 1080.811 Q 1055.749 1083.221 1055.999 1085.841 Q 1056.209 1088.011 1058.399 1090.021 Q 1061.749 1093.091 1066.019 1094.861 Q 1069.329 1096.241 1072.579 1097.771 Q 1071.839 1098.071 1071.369 1098.811 L 1059.033 1095.267 L 1054.4 1091.841 Q 1052.959 1085.171 1056.539 1079.871 Q 1056.989 1079.211 1057.169 1078.831 Q 1058.359 1076.301 1055.189 1078.721 Q 1049.569 1080.031 1043.579 1080.021 Q 1040.869 999.571 1040.039 997.811 Q 1041.009 996.951 1042.329 996.851 L 1047.829 995.771 Q 1049.529 995.181 1052.079 996.061 Q 1054.079 996.751 1059.329 996.851 Z " fill="rgb(38,27,46)"/><path d=" M 1083.309 1017.341 Q 1083.439 1020.551 1085.369 1023.311 Q 1086.689 1029.871 1091.479 1034.371 Q 1093.089 1037.621 1093.039 1041.811 Q 1085.219 1041.801 1077.569 1040.171 C 1077.228 1040.066 1077.036 1039.811 1077.109 1039.561 Q 1077.059 1039.291 1076.869 1039.061 Q 1076.599 1030.691 1075.589 1022.371 Q 1075.479 1021.451 1075.719 1018.271 Q 1075.959 1015.041 1073.579 1012.661 L 1073.089 1006.691 Q 1072.909 1004.431 1074.229 1006.321 Q 1076.459 1009.511 1079.259 1012.131 Q 1081.719 1014.431 1083.309 1017.341 Z " fill="rgb(38,27,46)"/><path d=" M 1012.785 1002.223 C 1016.584 1000.222 1028.546 996.479 1029.744 996.232 C 1037.003 993.949 1042.72 994.622 1046.889 998.245 Q 1046.446 1020.693 1046.219 1037.032 C 1045.863 1062.565 1045.903 1076.911 1046.337 1080.07 Q 1000.146 1089.137 998.386 1089.197 Q 997.389 1083.481 994.329 1081.101 Q 997.649 1082.161 1000.829 1080.801 Q 1003.639 1079.611 1006.579 1078.811 Q 1010.249 1077.821 1011.819 1073.171 Q 1012.805 1056.397 1005.425 1048.977 C 1005.243 1048.795 1003.541 1048.009 1003.726 1047.83 Q 1010.829 1021.709 1010.769 1015.629 Q 1009.577 1012.71 1006.657 1008 C 1005.952 1005.54 1009.294 1004.062 1012.785 1002.223 Z " fill="rgb(38,27,46)"/><path d=" M 1010.579 1006.521 Q 1013.499 1011.231 1013.559 1016.811 Q 1013.619 1022.891 1013.479 1028.971 Q 1013.329 1035.581 1011.889 1038.911 Q 1009.959 1043.371 1005.889 1047.361 C 1005.704 1047.54 1005.599 1047.786 1005.597 1048.044 C 1005.595 1048.301 1005.697 1048.549 1005.879 1048.731 Q 1013.259 1056.151 1014.029 1065.561 Q 1014.379 1069.921 1011.819 1073.171 Q 1012.239 1066.081 1008.419 1060.751 Q 1007.489 1058.011 1005.269 1055.371 Q 1001.949 1051.421 997.639 1053.871 Q 993.169 1056.421 990.559 1063.061 L 988.419 1065.141 C 988.168 1066.126 987.35 1066.834 985.934 1067.236 Q 984.381 1043.221 984.036 1042.335 C 986.348 1041.851 986.566 1038.789 986.047 1037.374 C 989.374 1037.653 1005.128 1023.538 1000.129 1011.507 C 1005.056 1006.92 1008.549 1005.268 1010.579 1006.521 Z " fill="rgb(38,27,46)"/><path d=" M 1001.553 1017.893 Q 1000.499 1023.401 999.639 1026.621 Q 997.989 1032.851 992.769 1036.511 Q 990.469 1038.121 988.459 1038.211 Q 984.689 1038.391 985.349 1033.201 Q 990.599 1033.951 993.519 1030.001 Q 997.197 1024.857 997.877 1018.147 L 1001.553 1017.893 Z " fill="rgb(38,27,46)"/><path d=" M 965.269 998.371 Q 969.299 999.481 972.559 1001.821 Q 977.459 1005.341 983.129 1007.421 Q 988.979 1009.571 995.129 1012.021 C 996.009 1012.369 996.584 1013.218 996.579 1014.161 Q 996.579 1019.841 994.079 1023.601 Q 980.049 1017.231 971.029 1004.901 Q 969.679 1003.061 968.229 1001.561 Q 966.719 1000.011 965.269 998.371 Z " fill="rgb(254,217,64)"/><path d=" M 984.539 1032.311 L 982.939 1037.041 C 982.843 1037.297 982.561 1037.453 982.269 1037.411 Q 975.419 1036.201 968.989 1033.591 Q 975.719 1032.481 982.139 1031.201 Q 982.319 1031.161 983.499 1030.811 Q 985.329 1030.271 984.539 1032.311 Z " fill="rgb(254,217,64)"/><path d=" M 1038.829 996.521 L 1042.329 996.851 Q 1041.009 996.951 1040.039 997.811 Q 1038.359 997.901 1038.829 996.521 Z " fill="rgb(38,27,46)"/><path d=" M 1047.968 995.994 L 1042.329 996.851 L 1038.829 996.521 Q 1036.339 996.171 1034.079 997.351 Q 1028.279 997.431 1023.079 999.851 L 1018.079 1001.351 Q 1013.109 1002.201 1010.579 1006.521 Q 1009.209 1008.001 1006.889 1008.411 Q 1001.089 1011.321 1001.039 1018.311 L 997.869 1018.311 L 997.219 1012.541 C 996.978 1012.26 997.059 1011.918 997.419 1011.701 Q 1017.769 990.001 1047.579 995.061 Q 1048.168 995.364 1047.968 995.994 Z " fill="rgb(38,27,46)"/><path d=" M 1078.619 980.311 Q 1073.649 986.831 1073.069 995.061 Q 1072.499 1003.111 1071.039 1011.261 Q 1070.619 1013.651 1068.469 1014.781 Q 1059.669 1019.451 1052.869 1011.561 L 1051.399 1006.901 L 1055.869 1008.311 Q 1058.839 1011.201 1061.519 1011.751 Q 1064.279 1012.311 1065.789 1009.311 L 1065.359 1011.051 C 1065.259 1011.368 1065.386 1011.709 1065.679 1011.911 Q 1066.729 1012.761 1067.389 1010.871 Q 1068.799 1006.881 1069.609 1004.371 Q 1070.359 1002.041 1070.719 997.631 Q 1071.399 989.251 1075.469 981.541 C 1075.814 980.891 1076.361 980.369 1077.029 980.051 Q 1078.299 979.441 1078.619 980.311 Z " fill="rgb(254,217,64)"/><path d=" M 1098.789 1008.311 Q 1097.229 1012.111 1094.579 1015.271 Q 1090.639 1020.081 1085.369 1023.311 Q 1083.439 1020.551 1083.309 1017.341 Q 1091.959 1014.231 1098.789 1008.311 Z " fill="rgb(254,217,64)"/><path d=" M 1006.869 1063.061 Q 1010.259 1067.181 1009.769 1071.751 Q 1009.519 1074.091 1007.039 1076.031 Q 1003.389 1078.881 997.829 1079.311 Q 992.439 1079.721 988.829 1078.811 Q 986.969 1078.341 979.829 1078.271 Q 977.889 1077.611 975.829 1077.791 Q 974.969 1077.861 975.049 1077.421 C 975.074 1077.17 975.354 1076.959 975.739 1076.901 Q 978.689 1076.331 981.639 1076.671 Q 985.989 1077.191 986.069 1077.191 Q 990.569 1077.451 995.069 1077.671 Q 1002.649 1078.041 1007.269 1072.251 Q 1009.419 1069.551 1007.019 1066.451 Q 1005.739 1064.941 1006.869 1063.061 Z " fill="rgb(254,217,64)"/><path d=" M 1008.419 1060.751 Q 998.899 1053.931 990.559 1063.061 Q 991.415 1054.675 995.885 1052.125 Q 1003.132 1049.66 1006.452 1053.61 Q 1007.489 1058.011 1008.419 1060.751 Z " fill="rgb(38,27,46)"/><path d=" M 1007.019 1066.451 Q 1009.419 1069.551 1007.269 1072.251 Q 1002.649 1078.041 995.069 1077.671 Q 990.569 1077.451 986.069 1077.191 Q 985.989 1077.191 981.639 1076.671 Q 978.689 1076.331 975.739 1076.901 C 975.354 1076.959 975.074 1077.17 975.049 1077.421 Q 974.969 1077.861 975.829 1077.791 Q 977.889 1077.611 979.829 1078.271 Q 969.209 1078.391 962.889 1079.371 Q 962.339 1079.461 962.499 1079.111 C 962.543 1078.964 962.691 1078.838 962.899 1078.771 Q 968.119 1076.751 973.389 1074.871 Q 974.379 1074.521 974.829 1074.771 L 980.329 1075.101 Q 990.689 1076.491 997.829 1076.061 Q 1001.119 1075.861 1004.369 1073.101 Q 1007.229 1070.661 1007.019 1066.451 Z " fill="rgb(254,217,64)"/><path d=" M 1073.579 979.771 Q 1073.359 981.611 1072.039 983.061 Q 1068.689 987.561 1068.019 990.251 Q 1066.019 998.311 1060.519 1005.751 Q 1058.639 1008.291 1055.869 1008.311 L 1051.399 1006.901 Q 1054.019 1000.851 1059.329 996.851 Q 1062.689 992.951 1066.889 986.371 Q 1069.219 982.721 1073.579 979.771 Z " fill="rgb(254,217,64)"/><path d=" M 1004.119 1061.061 Q 1000.869 1065.141 996.989 1068.611 Q 994.459 1070.861 992.119 1071.691 Q 989.489 1072.611 986.329 1072.811 Q 985.329 1072.871 984.649 1073.641 Q 983.769 1074.611 983.349 1074.791 Q 981.959 1075.381 980.329 1075.101 L 974.829 1074.771 Q 974.799 1074.281 975.379 1074.091 Q 984.519 1071.091 991.519 1064.501 Q 992.269 1063.791 995.889 1061.121 Q 999.439 1058.511 1004.119 1061.061 Z " fill="rgb(254,217,64)"/><path d=" M 1071.869 1080.811 L 1075.869 1090.061 Q 1077.049 1093.041 1074.579 1094.101 L 1061.059 1085.861 Q 1060.319 1082.571 1057.539 1080.811 Q 1064.759 1070.271 1071.869 1080.811 Z " fill="rgb(254,217,64)"/><path d=" M 1021.869 1077.561 L 1038.169 1080.581 C 1038.398 1080.617 1038.566 1080.774 1038.579 1080.961 L 1038.619 1081.311 Q 1032.369 1088.211 1031.019 1089.501 Q 1026.579 1093.711 1020.579 1095.021 Q 1014.869 1096.351 1010.139 1094.751 Q 1003.529 1092.501 999.329 1091.851 Q 994.749 1087.601 991.649 1081.721 C 991.568 1081.588 991.566 1081.422 991.645 1081.287 C 991.724 1081.153 991.87 1081.07 992.029 1081.071 L 994.329 1081.101 Q 997.389 1083.481 1001.369 1083.811 Q 1000.819 1084.451 999.579 1084.561 Q 998.589 1084.651 998.429 1085.511 C 998.332 1085.81 998.488 1086.127 998.809 1086.281 Q 1001.859 1088.221 1005.519 1086.751 Q 1012.199 1084.051 1017.579 1080.601 L 1021.869 1077.561 Z " fill="rgb(38,27,46)"/><path d=" M 1049.386 1043.216 Q 1051.791 1018.991 1048.001 1010.047 C 1047.82 1009.622 1051.543 1010.188 1052.932 1011.501 C 1052.021 1012.042 1051.84 1012.736 1052.329 1013.521 Q 1060.169 1022.521 1071.019 1017.001 Q 1072.926 1015.793 1073.626 1012.403 Q 1076.348 1015.091 1076.108 1018.321 Q 1081.279 1044.835 1081.389 1045.755 L 1049.386 1043.216 Z " fill="rgb(38,27,46)"/><path d=" M 1055.331 1091.712 Q 1054.23 1099.332 1048.31 1099.762 Q 1014.276 1101.555 1015.11 1098.609 Q 1027.344 1068.701 1060.16 1076.138 Q 1053.531 1085.222 1055.331 1091.712 Z " fill="rgb(38,27,46)"/><path d=" M 1039.539 1080.311 Q 1040.819 1081.021 1042.289 1081.061 Q 1037.329 1091.141 1028.079 1095.561 Q 1025.659 1096.711 1021.369 1096.811 Q 1023.409 1095.891 1020.579 1095.021 Q 1026.579 1093.711 1031.019 1089.501 Q 1032.369 1088.211 1038.619 1081.311 L 1039.539 1080.311 Z " fill="rgb(38,27,46)"/><path d=" M 1072.039 983.061 Q 1070.769 988.751 1069.449 994.431 Q 1069.439 994.481 1068.119 1001.371 Q 1067.339 1005.441 1065.789 1009.311 Q 1064.279 1012.311 1061.519 1011.751 Q 1058.839 1011.201 1055.869 1008.311 Q 1058.639 1008.291 1060.519 1005.751 Q 1066.019 998.311 1068.019 990.251 Q 1068.689 987.561 1072.039 983.061 Z " fill="rgb(254,217,64)"/><path d=" M 981.579 1044.851 Q 975.609 1041.821 969.829 1037.731 Q 976.109 1037.031 982.129 1039.241 C 982.41 1039.343 982.594 1039.612 982.589 1039.911 Q 982.549 1042.831 981.579 1044.851 Z " fill="rgb(254,217,64)"/><path d=" M 1092.579 1062.271 Q 1099.879 1066.011 1108.129 1067.471 Q 1104.469 1069.731 1100.319 1071.111 L 1090.289 1073.071 C 1089.919 1073.098 1089.562 1072.948 1089.355 1072.676 C 1089.147 1072.405 1089.122 1072.055 1089.289 1071.761 L 1091.749 1063.201 Q 1092.049 1062.561 1092.579 1062.271 Z " fill="rgb(254,217,64)"/><path d=" M 1057.539 1080.811 Q 1060.319 1082.571 1061.059 1085.861 Q 1067.609 1094.431 1076.769 1097.871 Q 1078.669 1098.591 1077.579 1099.851 L 1072.579 1097.771 Q 1069.329 1096.241 1066.019 1094.861 Q 1061.749 1093.091 1058.399 1090.021 Q 1056.209 1088.011 1055.999 1085.841 Q 1055.749 1083.221 1057.539 1080.811 Z " fill="rgb(254,217,64)"/><path d=" M 1075.869 1090.061 Q 1076.279 1090.371 1076.829 1090.351 L 1081.869 1097.801 Q 1077.699 1096.901 1074.579 1094.101 Q 1077.049 1093.041 1075.869 1090.061 Z " fill="rgb(254,217,64)"/><path d=" M 1100.869 1012.311 Q 1101.449 1009.711 1099.389 1011.371 Q 1097.709 1012.731 1097.269 1014.001 Q 1096.619 1015.831 1094.579 1015.271 Q 1097.229 1012.111 1098.789 1008.311 L 1103.529 1003.501 Q 1104.769 1002.241 1104.149 1003.861 L 1100.869 1012.311 Z " fill="rgb(254,217,64)"/><path d=" M 1015.039 1078.561 Q 1015.389 1080.631 1017.579 1080.601 Q 1012.199 1084.051 1005.519 1086.751 Q 1001.859 1088.221 998.809 1086.281 C 998.488 1086.127 998.332 1085.81 998.429 1085.511 Q 998.589 1084.651 999.579 1084.561 Q 1000.819 1084.451 1001.369 1083.811 Q 1003.129 1083.751 1004.459 1082.651 C 1004.699 1082.454 1005.008 1082.344 1005.329 1082.341 Q 1010.979 1082.641 1015.039 1078.561 Z " fill="rgb(38,27,46)"/><path d=" M 1054.759 1091.661 L 1059.479 1094.631 L 1056.759 1107.031 Q 1055.239 1113.401 1054.579 1122.311 Q 1054.519 1123.161 1054.049 1122.681 Q 1053.899 1122.531 1053.849 1122.261 Q 1052.509 1114.641 1047.879 1108.571 Q 1045.979 1104.341 1047.509 1099.541 Q 1048.079 1098.231 1047.829 1097.021 Q 1053.749 1096.591 1054.759 1091.661 Z " fill="rgb(254,217,64)"/><path d=" M 1100.869 1012.311 Q 1097.989 1019.661 1093.319 1026.041 Q 1092.449 1027.231 1091.129 1027.881 C 1090.872 1028.006 1090.678 1028.229 1090.591 1028.499 C 1090.505 1028.769 1090.533 1029.062 1090.669 1029.311 Q 1091.779 1031.341 1091.479 1034.371 Q 1086.689 1029.871 1085.369 1023.311 Q 1090.639 1020.081 1094.579 1015.271 Q 1096.619 1015.831 1097.269 1014.001 Q 1097.709 1012.731 1099.389 1011.371 Q 1101.449 1009.711 1100.869 1012.311 Z " fill="rgb(254,217,64)"/><path d=" M 1108.129 1067.471 L 1117.589 1067.351 Q 1118.529 1067.341 1118.089 1067.731 Q 1117.809 1067.991 1116.809 1068.241 Q 1115.979 1068.451 1115.249 1068.901 Q 1107.929 1073.401 1100.269 1076.251 Q 1095.209 1078.121 1087.329 1077.021 Q 1087.429 1074.311 1089.579 1074.311 Q 1096.379 1074.311 1100.319 1071.111 Q 1104.469 1069.731 1108.129 1067.471 Z " fill="rgb(254,217,64)"/><path d=" M 999.329 1091.851 Q 1000.757 1089.612 1006.467 1088.282 Q 1032.799 1098.211 1046.829 1098.351 Q 1047.829 1098.521 1047.509 1099.541 Q 1045.979 1104.341 1047.879 1108.571 L 1036.549 1110.031 C 1036.38 1110.053 1036.217 1109.963 1036.149 1109.811 Q 1034.269 1105.431 1030.769 1103.661 Q 1028.699 1102.611 1023.209 1102.601 Q 1019.959 1102.601 1016.719 1102.461 Q 1013.659 1102.331 1011.229 1101.051 Q 1004.499 1097.521 999.329 1091.851 Z " fill="rgb(38,27,46)"/><path d=" M 1059.479 1094.631 L 1071.369 1098.811 Q 1064.789 1103.551 1056.759 1107.031 L 1059.479 1094.631 Z " fill="rgb(38,27,46)"/><path d=" M 1004.119 1061.061 Q 1005.819 1061.611 1006.869 1063.061 Q 1005.739 1064.941 1007.019 1066.451 Q 1007.229 1070.661 1004.369 1073.101 Q 1001.119 1075.861 997.829 1076.061 Q 990.689 1076.491 980.329 1075.101 Q 981.959 1075.381 983.349 1074.791 Q 983.769 1074.611 984.649 1073.641 Q 985.329 1072.871 986.329 1072.811 Q 989.489 1072.611 992.119 1071.691 Q 994.459 1070.861 996.989 1068.611 Q 1000.869 1065.141 1004.119 1061.061 Z " fill="rgb(254,217,64)"/><path d=" M 1029.079 1108.851 Q 1025.909 1112.751 1024.369 1117.561 Q 1022.899 1123.161 1022.289 1117.561 L 1021.509 1108.251 C 1021.497 1108.117 1021.545 1107.985 1021.641 1107.885 C 1021.738 1107.785 1021.874 1107.726 1022.019 1107.721 Q 1025.649 1107.551 1029.079 1108.851 Z " fill="rgb(254,217,64)"/><path d=" M 1078.619 980.311 Q 1078.299 979.441 1077.029 980.051 C 1076.361 980.369 1075.814 980.891 1075.469 981.541 Q 1071.399 989.251 1070.719 997.631 Q 1070.359 1002.041 1069.609 1004.371 Q 1068.799 1006.881 1067.389 1010.871 Q 1066.729 1012.761 1065.679 1011.911 C 1065.386 1011.709 1065.259 1011.368 1065.359 1011.051 L 1065.789 1009.311 Q 1067.339 1005.441 1068.119 1001.371 Q 1069.439 994.481 1069.449 994.431 Q 1070.769 988.751 1072.039 983.061 Q 1073.359 981.611 1073.579 979.771 Q 1076.489 977.191 1080.509 976.191 Q 1083.299 975.491 1081.339 977.511 L 1078.619 980.311 Z " fill="rgb(254,217,64)"/><path d=" M 1061.059 1085.861 L 1074.579 1094.101 Q 1077.699 1096.901 1081.869 1097.801 Q 1083.659 1098.401 1084.849 1101.141 Q 1085.089 1101.691 1085.509 1102.121 Q 1086.519 1103.141 1085.309 1103.241 Q 1084.939 1103.271 1084.499 1103.081 Q 1081.019 1101.521 1077.579 1099.851 Q 1078.669 1098.591 1076.769 1097.871 Q 1067.609 1094.431 1061.059 1085.861 Z " fill="rgb(254,217,64)"/><path d=" M 1026.789 1121.811 Q 1025.059 1121.991 1025.889 1120.371 Q 1027.319 1117.601 1024.369 1117.561 Q 1025.909 1112.751 1029.079 1108.851 Q 1030.029 1108.861 1030.929 1109.151 Q 1032.469 1109.641 1032.009 1108.571 C 1031.893 1108.292 1031.641 1108.062 1031.309 1107.931 Q 1027.369 1106.321 1023.079 1106.291 Q 1020.239 1106.281 1017.879 1104.841 Q 1016.709 1104.131 1018.069 1104.311 Q 1021.439 1104.761 1024.829 1104.701 Q 1031.219 1104.601 1034.539 1109.911 C 1034.601 1110.007 1034.611 1110.128 1034.565 1110.233 C 1034.518 1110.338 1034.422 1110.412 1034.309 1110.431 Q 1032.529 1110.751 1031.979 1111.671 Q 1029.039 1116.561 1026.789 1121.811 Z " fill="rgb(254,217,64)"/><path d=" M 1024.369 1117.561 Q 1027.319 1117.601 1025.889 1120.371 Q 1025.059 1121.991 1026.789 1121.811 L 1023.919 1128.101 Q 1023.669 1128.641 1023.599 1128.061 L 1022.289 1117.561 Q 1022.899 1123.161 1024.369 1117.561 Z " fill="rgb(254,217,64)"/><path d=" M 1053.939 1096.081 Q 1056.479 1096.831 1055.639 1099.371 Q 1053.869 1104.791 1053.739 1109.741 Q 1053.409 1110.261 1053.029 1110.251 C 1052.538 1110.152 1052.264 1109.861 1052.409 1109.591 Q 1050.299 1103.511 1050.079 1101.311 Q 1049.669 1097.281 1053.939 1096.081 Z " fill="rgb(254,217,64)"/><path d=" M 1053.739 1109.741 Q 1053.869 1104.791 1055.639 1099.371 Q 1056.479 1096.831 1053.939 1096.081 Q 1057.739 1095.431 1057.019 1099.121 Q 1056.539 1101.581 1056.419 1102.691 Q 1055.989 1106.471 1053.739 1109.741 Z " fill="rgb(254,217,64)"/><path d=" M 986.119 1062.561 Q 985.049 1061.511 983.619 1061.061 Q 982.439 1053.111 982.539 1045.061 L 983.039 1043.061 C 983.106 1042.766 983.318 1042.518 983.612 1042.392 C 983.906 1042.266 984.246 1042.276 984.529 1042.421 Q 986.389 1043.731 987.939 1045.201 Q 989.869 1047.031 989.579 1049.841 Q 988.879 1056.481 986.119 1062.561 Z " fill="rgb(38,27,46)"/></g></g></svg>