<?xml version="1.0" encoding="UTF-8" standalone="no"?><!-- Generator: Gravit.io --><svg xmlns="http://www.w3.org/2000/svg" xmlns:xlink="http://www.w3.org/1999/xlink" style="isolation:isolate" viewBox="681.325 588.243 189.536 104.338" width="189.536pt" height="104.338pt"><defs><clipPath id="_clipPath_W4v9aYWm2x4cyfsRJAfqrzjHsf4F2rqj"><rect x="681.325" y="588.243" width="189.536" height="104.338"/></clipPath></defs><g clip-path="url(#_clipPath_W4v9aYWm2x4cyfsRJAfqrzjHsf4F2rqj)"><rect x="681.325" y="588.243" width="189.536" height="104.338" style="fill:rgb(6,6,6)" fill-opacity="0"/><g><path d=" M 778.846 590.058 Q 781.136 590.098 783.306 590.818 Q 791.556 593.538 798.766 598.408 Q 801.396 600.188 804.896 601.948 C 805.363 602.182 805.912 602.19 806.386 601.968 Q 809.226 600.618 811.926 600.118 Q 813.136 599.888 817.696 599.528 Q 826.446 598.848 835.096 600.128 Q 840.876 600.978 842.976 601.678 Q 847.176 603.088 849.746 606.368 Q 851.806 609.008 849.586 612.328 Q 846.346 617.168 841.306 620.098 Q 835.716 623.358 829.546 625.198 Q 827.566 625.778 824.996 625.768 Q 822.676 625.748 820.366 625.848 C 820.237 625.854 820.117 625.915 820.039 626.016 C 819.962 626.117 819.935 626.246 819.966 626.368 Q 820.775 629.818 824.806 629.098 Q 824.676 629.648 824.826 630.108 C 824.884 630.36 825.157 630.572 825.536 630.658 Q 827.226 631.108 827.366 632.758 C 827.328 633.049 827.505 633.328 827.816 633.468 Q 828.906 633.948 830.066 633.868 C 830.415 633.794 830.717 633.653 830.926 633.468 Q 832.446 632.198 833.916 633.158 Q 835.156 633.968 836.846 633.438 L 844.306 631.098 L 848.016 632.058 Q 854.766 636.728 849.516 643.308 Q 841.566 651.188 831.056 655.098 Q 830.056 654.918 830.266 653.808 L 836.546 650.948 C 836.807 650.822 836.934 650.535 836.846 650.268 Q 836.436 648.588 837.616 647.618 Q 840.496 645.278 841.306 644.348 Q 844.226 642.208 844.496 640.248 Q 845.576 632.318 838.616 636.368 Q 838.006 636.728 837.306 638.598 Q 836.176 637.858 834.306 638.558 Q 826.525 641.488 824.206 642.528 C 823.9 642.664 823.681 642.923 823.616 643.228 L 822.056 650.268 L 819.806 652.268 Q 817.586 652.508 816.006 654.008 Q 815.326 654.648 814.346 654.308 Q 814.616 653.718 814.596 653.058 L 816.846 646.558 Q 817.666 645.478 817.266 644.058 L 817.206 638.308 Q 817.206 637.388 817.346 636.938 Q 817.586 636.158 816.806 636.018 Q 815.796 634.458 816.016 632.558 Q 816.226 631.388 815.766 630.308 Q 814.916 622.958 810.556 617.018 L 809.266 613.808 Q 808.986 612.788 808.056 612.348 Q 807.296 608.628 804.056 607.018 Q 804.396 606.348 803.796 605.818 Q 802.266 604.478 800.596 603.308 Q 794.856 596.728 785.806 593.808 Q 782.356 592.698 779.806 594.598 Q 779.446 594.568 779.196 594.348 Q 779.025 594.208 778.946 593.798 Q 778.686 592.438 777.266 591.808 Q 777.746 590.678 778.846 590.058 Z " fill="rgb(241,155,174)"/><path d=" M 732.516 600.558 Q 732.386 602.058 732.186 603.538 Q 731.886 605.678 730.116 604.348 C 729.708 604.05 729.142 604.093 728.786 604.448 Q 723.526 609.788 721.096 616.808 Q 718.556 618.428 718.806 621.518 Q 716.956 623.358 716.616 626.038 Q 716.296 628.518 719.076 630.948 C 719.648 631.449 720.026 632.131 720.146 632.878 Q 720.906 637.468 725.646 638.868 C 726.039 638.969 726.338 639.145 726.476 639.358 L 729.016 642.808 Q 727.526 644.848 725.056 644.848 Q 718.586 641.688 715.786 635.088 Q 715.406 634.208 714.956 633.828 Q 713.626 632.728 713.306 635.058 Q 712.096 643.858 715.116 653.068 Q 716.196 656.378 716.346 656.658 Q 717.276 658.438 719.356 659.268 Q 721.236 660.018 723.096 660.808 Q 723.166 661.818 722.656 662.698 C 722.396 662.966 722.334 663.294 722.486 663.598 L 722.866 668.478 C 722.915 668.733 722.722 668.977 722.416 669.048 Q 719.286 669.988 718.166 667.968 Q 717.416 666.638 716.346 665.558 L 715.806 664.848 Q 716.216 664.358 715.806 663.558 Q 714.576 661.178 713.136 658.918 C 713.016 658.665 712.739 658.462 712.386 658.368 Q 711.696 658.288 711.056 658.768 L 710.266 645.558 Q 710.386 642.708 710.306 642.058 Q 709.546 635.678 711.556 629.558 Q 713.476 623.688 715.826 617.988 Q 715.856 617.908 715.946 617.788 Q 716.156 617.498 715.556 617.518 L 717.436 614.878 C 717.609 614.664 717.897 614.509 718.236 614.448 Q 719.776 614.218 718.556 613.018 Q 722.186 609.328 723.996 607.248 Q 727.746 602.928 732.516 600.558 Z " fill="rgb(229,144,24)"/><path d=" M 718.556 613.018 Q 719.776 614.218 718.236 614.448 C 717.897 614.509 717.609 614.664 717.436 614.878 L 715.556 617.518 Q 714.256 618.168 712.816 618.368 Q 697.326 620.498 684.866 629.118 Q 681.836 631.218 684.806 633.768 Q 684.436 633.938 684.266 634.308 Q 680.076 631.728 681.856 628.368 Q 682.696 626.778 685.616 624.578 Q 694.696 617.718 705.246 614.748 Q 709.116 613.658 711.306 612.598 Q 715.066 610.868 718.556 613.018 Z " fill="rgb(220,151,52)"/><path d=" M 837.306 638.598 Q 839.646 640.918 836.806 643.018 Q 829.956 647.708 822.056 650.268 L 823.616 643.228 C 823.681 642.923 823.9 642.664 824.206 642.528 Q 826.525 641.488 834.306 638.558 Q 836.176 637.858 837.306 638.598 Z " fill="rgb(41,22,80)"/><path d=" M 706.096 642.558 Q 706.276 643.718 705.556 644.518 L 703.556 645.848 Q 702.246 644.928 700.306 645.058 Q 693.506 645.508 686.586 643.318 Q 685.416 642.948 685.006 642.178 Q 684.296 640.858 685.846 639.938 C 686.049 639.814 686.314 639.866 686.456 640.058 Q 687.276 641.218 688.216 641.818 Q 688.976 642.298 690.516 642.358 Q 698.306 642.648 706.096 642.558 Z " fill="rgb(211,112,48)"/><path d=" M 814.596 653.058 Q 814.616 653.718 814.346 654.308 Q 814.126 654.838 813.596 654.808 Q 812.496 653.078 810.926 653.768 Q 809.136 654.558 809.056 654.578 Q 807.426 655.008 805.786 655.428 C 805.443 655.416 805.126 655.366 804.896 655.288 L 802.856 654.558 C 802.519 654.526 802.246 654.46 802.099 654.375 C 801.952 654.29 801.943 654.194 802.076 654.108 Q 800.556 651.938 802.496 649.998 Q 805.266 647.208 802.536 645.088 Q 802.176 644.808 802.086 644.538 Q 801.976 644.208 802.016 643.808 L 806.556 640.268 Q 807.136 639.998 807.556 640.308 Q 808.666 641.138 808.806 644.308 Q 808.966 648.018 812.566 648.288 C 812.873 648.35 813.106 648.555 813.156 648.808 L 814.596 653.058 Z " fill="rgb(52,29,70)"/><path d=" M 804.056 607.018 Q 807.296 608.628 808.056 612.348 Q 808.186 613.368 807.846 614.308 Q 804.775 619.798 798.806 620.808 Q 795.696 621.338 791.056 621.348 L 786.846 621.308 Q 786.546 620.448 787.106 620.028 C 787.344 619.974 787.527 619.86 787.603 619.72 C 787.679 619.58 787.64 619.428 787.496 619.308 L 785.646 613.148 C 785.369 612.757 785.424 612.283 785.786 611.938 Q 786.816 610.518 785.556 610.518 Q 787.536 610.438 788.866 608.618 Q 790.756 606.048 793.996 606.378 Q 796.036 606.588 796.126 606.588 Q 800.096 606.728 804.056 607.018 Z " fill="rgb(65,39,79)"/><path d=" M 804.306 623.268 Q 804.986 623.238 804.806 624.018 Q 798.266 631.548 794.746 633.498 Q 791.856 635.088 788.246 633.068 C 787.968 632.926 787.841 632.612 787.946 632.328 L 789.696 627.318 C 789.771 627.073 790.018 626.875 790.346 626.798 Q 791.126 626.608 790.306 626.018 L 794.056 625.268 Q 799.386 625.208 804.306 623.268 Z " fill="rgb(65,39,79)"/><path d=" M 705.556 644.518 Q 706.266 645.408 707.516 645.308 Q 708.776 646.438 710.266 645.558 L 711.056 658.768 Q 707.926 660.598 705.736 663.508 C 705.592 663.695 705.556 663.943 705.642 664.162 C 705.728 664.382 705.923 664.539 706.156 664.578 Q 710.896 665.398 715.806 664.848 L 716.346 665.558 Q 716.476 668.288 718.196 669.878 Q 719.476 671.048 722.256 671.198 Q 727.156 671.458 732.056 671.268 Q 732.996 671.518 735.556 671.308 Q 747.126 670.358 756.796 668.758 Q 762.906 667.758 776.466 665.138 Q 792.846 661.968 808.806 657.018 Q 809.496 656.998 809.826 657.368 C 810.03 657.473 810.142 657.634 810.129 657.801 C 810.115 657.969 809.976 658.123 809.756 658.218 Q 808.916 659.548 809.766 660.908 C 810.011 661.164 810.059 661.489 809.896 661.778 Q 809.775 662.398 810.306 662.848 L 806.806 664.098 L 793.556 668.018 Q 782.176 671.078 770.516 672.808 L 765.806 673.518 L 751.056 675.768 L 733.556 677.348 Q 729.656 676.828 725.806 677.598 Q 716.026 677.488 713.806 677.308 Q 710.236 677.008 709.026 673.478 C 708.931 673.201 708.669 673.006 708.366 672.988 Q 705.346 672.908 702.326 672.968 Q 698.376 673.038 696.506 671.948 Q 691.516 669.038 696.356 661.838 C 696.444 661.702 696.455 661.529 696.383 661.384 C 696.311 661.238 696.168 661.141 696.006 661.128 Q 692.256 660.858 689.596 659.938 Q 685.956 658.688 686.826 655.838 Q 687.306 654.238 689.346 652.678 Q 694.926 648.388 702.306 647.058 Q 703.196 646.898 703.556 645.848 L 705.556 644.518 Z " fill="rgb(254,217,64)"/><path d=" M 817.846 660.808 Q 816.396 664.568 813.306 668.808 Q 800.516 686.328 779.556 691.058 Q 768.996 693.438 757.556 692.098 Q 758.406 691.558 758.306 690.518 L 760.806 690.018 L 768.806 689.518 L 774.556 688.518 Q 785.896 686.368 795.056 679.348 Q 805.156 672.898 811.266 662.558 Q 813.025 660.918 815.376 660.458 Q 815.806 660.368 816.256 660.068 Q 817.446 659.258 817.846 660.808 Z " fill="rgb(228,138,192)"/><path d=" M 806.806 664.098 Q 806.506 664.738 805.116 665.368 Q 800.046 667.688 794.806 669.598 Q 793.525 669.348 793.556 668.018 L 806.806 664.098 Z " fill="rgb(173,88,24)"/><path d=" M 777.266 591.808 Q 778.686 592.438 778.946 593.798 Q 779.025 594.208 779.196 594.348 Q 779.446 594.568 779.806 594.598 Q 778.496 595.298 773.806 596.558 Q 771.296 597.238 769.846 596.558 L 768.556 595.598 Q 769.586 594.758 770.775 594.238 Q 773.566 593.028 769.806 592.848 L 772.306 592.598 L 777.266 591.808 Z " fill="rgb(192,94,46)"/><path d=" M 800.596 603.308 Q 802.266 604.478 803.796 605.818 Q 804.396 606.348 804.056 607.018 Q 800.096 606.728 796.126 606.588 Q 796.036 606.588 793.996 606.378 Q 790.756 606.048 788.866 608.618 Q 787.536 610.438 785.556 610.518 L 778.436 610.578 C 778.13 610.573 777.881 610.431 777.856 610.248 Q 777.826 610.008 778.275 609.828 Q 779.796 609.218 781.306 608.598 L 785.676 607.118 C 786.159 606.968 786.419 606.696 786.336 606.428 Q 787.226 604.748 788.366 604.118 Q 794.016 601.028 799.496 603.618 Q 800.356 604.028 800.596 603.308 Z " fill="rgb(192,94,46)"/><path d=" M 809.266 613.808 L 810.556 617.018 Q 807.036 619.718 804.306 623.268 Q 799.386 625.208 794.056 625.268 Q 794.846 624.028 794.466 622.108 C 794.383 621.699 793.994 621.424 793.576 621.478 Q 792.006 621.718 791.056 621.348 Q 795.696 621.338 798.806 620.808 Q 804.775 619.798 807.846 614.308 L 809.266 613.808 Z " fill="rgb(192,94,46)"/><path d=" M 816.016 632.558 Q 815.796 634.458 816.806 636.018 Q 811.426 637.548 806.556 640.268 L 802.016 643.808 Q 797.246 645.608 789.556 645.558 Q 784.856 645.528 775.556 647.518 Q 775.576 645.878 774.306 645.018 L 778.966 643.058 Q 780.166 642.558 780.906 642.558 Q 784.196 642.588 788.036 643.198 Q 793.186 644.018 797.556 641.268 Q 798.156 641.308 798.436 641.778 C 798.53 641.999 798.795 642.163 799.116 642.198 Q 802.216 641.828 804.876 640.118 Q 806.906 638.808 804.516 639.128 Q 802.666 639.378 800.556 640.558 Q 799.546 641.128 799.266 640.058 Q 800.886 638.398 804.996 636.748 Q 814.025 633.108 816.016 632.558 Z " fill="rgb(192,94,46)"/><path d=" M 747.596 591.808 L 749.306 592.598 L 749.016 593.058 L 746.806 592.268 L 747.596 591.808 Z " fill="rgb(151,71,55)"/><path d=" M 770.516 672.808 Q 770.886 673.878 770.056 674.518 Q 768.046 675.128 767.616 675.368 Q 764.046 677.348 761.306 677.018 L 762.746 676.748 C 763.079 676.674 763.35 676.515 763.496 676.308 Q 764.246 675.188 765.566 674.888 C 765.963 674.813 766.254 674.625 766.326 674.398 Q 766.576 673.828 765.806 673.518 L 770.516 672.808 Z " fill="rgb(151,71,55)"/><path d=" M 795.056 679.348 Q 785.896 686.368 774.556 688.518 L 774.806 685.848 Q 780.616 685.018 785.936 682.518 Q 788.796 681.168 791.746 679.998 Q 793.966 679.108 795.056 679.348 Z " fill="rgb(151,71,55)"/><path d=" M 846.056 630.518 Q 847.976 631.258 850.056 631.098 Q 848.576 630.928 848.016 632.058 L 844.306 631.098 Q 845.116 630.618 846.056 630.518 Z " fill="rgb(112,45,26)"/><path d=" M 797.556 641.268 L 799.266 640.058 Q 799.546 641.128 800.556 640.558 Q 802.666 639.378 804.516 639.128 Q 806.906 638.808 804.876 640.118 Q 802.216 641.828 799.116 642.198 C 798.795 642.163 798.53 641.999 798.436 641.778 Q 798.156 641.308 797.556 641.268 Z " fill="rgb(112,45,26)"/><path d=" M 793.556 668.018 Q 793.525 669.348 794.806 669.598 Q 790.396 671.368 789.366 672.118 Q 784.306 675.818 778.806 675.058 Q 773.376 674.308 770.056 674.518 Q 770.886 673.878 770.516 672.808 Q 782.176 671.078 793.556 668.018 Z " fill="rgb(112,45,26)"/><path d=" M 765.806 673.518 Q 766.576 673.828 766.326 674.398 C 766.254 674.625 765.963 674.813 765.566 674.888 Q 764.246 675.188 763.496 676.308 C 763.35 676.515 763.079 676.674 762.746 676.748 L 761.306 677.018 Q 756.066 677.278 751.056 675.768 L 765.806 673.518 Z " fill="rgb(112,45,26)"/><path d=" M 763.806 689.268 L 768.806 689.518 L 760.806 690.018 L 763.806 689.268 Z " fill="rgb(247,161,135)"/><path d=" M 800.596 603.308 Q 800.356 604.028 799.496 603.618 Q 794.016 601.028 788.366 604.118 Q 787.226 604.748 786.336 606.428 C 786.419 606.696 786.159 606.968 785.676 607.118 L 781.306 608.598 Q 780.036 608.138 779.976 606.868 C 779.991 606.581 779.808 606.315 779.516 606.198 Q 775.966 604.818 772.496 601.868 Q 769.916 599.678 769.846 596.558 Q 771.296 597.238 773.806 596.558 Q 778.496 595.298 779.806 594.598 Q 782.356 592.698 785.806 593.808 Q 794.856 596.728 800.596 603.308 Z " fill="rgb(72,44,85)"/><path d=" M 810.556 617.018 Q 814.916 622.958 815.766 630.308 Q 813.636 628.428 811.656 630.208 C 811.564 630.294 811.44 630.338 811.315 630.328 C 811.189 630.319 811.073 630.257 810.996 630.158 Q 808.256 626.738 804.806 624.018 Q 804.986 623.238 804.306 623.268 Q 807.036 619.718 810.556 617.018 Z " fill="rgb(72,44,85)"/><path d=" M 816.806 636.018 Q 817.586 636.158 817.346 636.938 Q 817.206 637.388 817.206 638.308 L 817.266 644.058 Q 816.246 645.108 816.846 646.558 L 814.596 653.058 L 813.156 648.808 C 813.106 648.555 812.873 648.35 812.566 648.288 Q 808.966 648.018 808.806 644.308 Q 808.666 641.138 807.556 640.308 Q 807.136 639.998 806.556 640.268 Q 811.426 637.548 816.806 636.018 Z " fill="rgb(72,44,85)"/><path d=" M 715.806 664.848 Q 710.896 665.398 706.156 664.578 C 705.923 664.539 705.728 664.382 705.642 664.162 C 705.556 663.943 705.592 663.695 705.736 663.508 Q 707.926 660.598 711.056 658.768 Q 711.696 658.288 712.386 658.368 C 712.739 658.462 713.016 658.665 713.136 658.918 Q 714.576 661.178 715.806 663.558 Q 716.216 664.358 715.806 664.848 Z " fill="rgb(39,26,56)"/><path d=" M 772.306 592.598 L 769.806 592.848 Q 764.926 593.288 760.476 595.698 Q 759.106 596.438 757.556 596.248 Q 753.166 595.688 749.016 593.058 L 749.306 592.598 L 755.525 591.448 Q 759.275 590.758 761.476 591.368 Q 766.796 592.828 772.306 592.598 Z " fill="rgb(69,43,52)"/><path d=" M 808.056 612.348 Q 808.986 612.788 809.266 613.808 L 807.846 614.308 Q 808.186 613.368 808.056 612.348 Z " fill="rgb(193,80,121)"/><path d=" M 817.266 644.058 Q 817.666 645.478 816.846 646.558 Q 816.246 645.108 817.266 644.058 Z " fill="rgb(193,80,121)"/><path d=" M 841.306 644.348 Q 839.416 642.618 836.806 643.018 Q 839.646 640.918 837.306 638.598 Q 838.006 636.728 838.616 636.368 Q 845.576 632.318 844.496 640.248 Q 844.226 642.208 841.306 644.348 Z " fill="rgb(248,177,133)"/><path d=" M 778.846 590.058 Q 777.746 590.678 777.266 591.808 L 772.306 592.598 Q 766.796 592.828 761.476 591.368 Q 759.275 590.758 755.525 591.448 L 749.306 592.598 L 747.596 591.808 Q 762.896 585.698 778.846 590.058 Z " fill="rgb(121,67,141)"/><path d=" M 836.806 643.018 Q 839.416 642.618 841.306 644.348 Q 840.496 645.278 837.616 647.618 Q 836.436 648.588 836.846 650.268 C 836.934 650.535 836.807 650.822 836.546 650.948 L 830.266 653.808 L 828.275 654.368 C 828.033 654.421 827.781 654.32 827.676 654.128 Q 827.496 653.648 827.916 653.658 C 828.181 653.654 828.417 653.52 828.516 653.318 Q 829.025 652.048 830.156 651.318 Q 831.036 650.748 831.256 650.558 Q 837.416 645.338 829.956 649.218 Q 829.336 649.538 828.586 649.678 Q 825.966 650.168 824.616 651.118 Q 822.206 652.828 819.806 652.268 L 822.056 650.268 Q 829.956 647.708 836.806 643.018 Z " fill="rgb(247,181,106)"/><path d=" M 706.096 642.558 Q 710.146 642.038 707.516 645.308 Q 706.266 645.408 705.556 644.518 Q 706.276 643.718 706.096 642.558 Z " fill="rgb(250,171,90)"/><path d=" M 858.556 607.768 Q 859.906 607.948 859.556 609.518 Q 863.786 612.768 862.556 617.308 Q 861.525 621.088 857.306 623.598 Q 853.656 625.888 849.806 627.808 Q 847.706 628.858 846.056 630.518 Q 845.116 630.618 844.306 631.098 L 836.846 633.438 Q 835.156 633.968 833.916 633.158 Q 832.446 632.198 830.926 633.468 C 830.717 633.653 830.415 633.794 830.066 633.868 Q 828.906 633.948 827.816 633.468 C 827.505 633.328 827.328 633.049 827.366 632.758 Q 827.226 631.108 825.536 630.658 C 825.157 630.572 824.884 630.36 824.826 630.108 Q 824.676 629.648 824.806 629.098 Q 832.036 628.588 839.056 626.808 Q 848.956 624.298 856.836 617.838 Q 858.956 616.098 858.266 614.178 Q 858.256 614.168 856.116 611.588 Q 854.106 609.168 858.556 607.768 Z " fill="rgb(253,191,83)"/><path d=" M 684.806 633.768 Q 685.556 634.778 686.426 635.678 Q 686.876 636.138 686.536 636.358 C 686.283 636.483 685.968 636.419 685.796 636.208 L 684.266 634.308 Q 684.436 633.938 684.806 633.768 Z " fill="rgb(206,95,42)"/><path d=" M 758.306 690.518 Q 758.406 691.558 757.556 692.098 Q 752.146 692.058 747.056 690.268 Q 746.775 688.458 749.306 688.808 Q 753.846 689.438 758.306 690.518 Z " fill="rgb(249,171,63)"/><path d=" M 850.056 631.098 Q 847.976 631.258 846.056 630.518 Q 847.706 628.858 849.806 627.808 Q 853.656 625.888 857.306 623.598 Q 857.266 623.828 857.336 623.938 C 857.471 623.992 857.651 623.995 857.796 623.948 Q 861.846 621.998 864.626 618.608 Q 866.486 616.358 866.466 614.508 Q 866.446 611.988 863.616 610.248 Q 861.275 608.798 859.556 609.518 Q 859.906 607.948 858.556 607.768 Q 866.736 605.168 870.246 612.368 Q 871.266 614.468 870.596 616.788 Q 870.126 618.408 868.386 620.388 Q 861.116 628.668 850.056 631.098 Z " fill="rgb(249,130,53)"/><path d=" M 830.266 653.808 Q 830.056 654.918 831.056 655.098 Q 825.096 657.868 820.366 659.368 Q 818.736 659.888 817.846 660.808 Q 817.446 659.258 816.256 660.068 Q 815.806 660.368 815.376 660.458 Q 813.025 660.918 811.266 662.558 Q 810.696 662.478 810.306 662.848 Q 809.775 662.398 809.896 661.778 C 810.059 661.489 810.011 661.164 809.766 660.908 Q 808.916 659.548 809.756 658.218 C 809.976 658.123 810.115 657.969 810.129 657.801 C 810.142 657.634 810.03 657.473 809.826 657.368 Q 809.496 656.998 808.806 657.018 L 813.596 654.808 Q 814.126 654.838 814.346 654.308 Q 815.326 654.648 816.006 654.008 Q 817.586 652.508 819.806 652.268 Q 822.206 652.828 824.616 651.118 Q 825.966 650.168 828.586 649.678 Q 829.336 649.538 829.956 649.218 Q 837.416 645.338 831.256 650.558 Q 831.036 650.748 830.156 651.318 Q 829.025 652.048 828.516 653.318 C 828.417 653.52 828.181 653.654 827.916 653.658 Q 827.496 653.648 827.676 654.128 C 827.781 654.32 828.033 654.421 828.275 654.368 L 830.266 653.808 Z " fill="rgb(249,176,76)"/><path d=" M 746.806 592.268 L 749.016 593.058 Q 753.166 595.688 757.556 596.248 Q 759.106 596.438 760.476 595.698 Q 764.926 593.288 769.806 592.848 Q 773.566 593.028 770.775 594.238 Q 769.586 594.758 768.556 595.598 Q 762.286 596.608 756.416 599.048 Q 753.806 600.138 749.056 599.308 Q 743.376 598.318 737.726 597.198 Q 737.226 597.098 737.306 596.598 Q 741.606 593.458 746.806 592.268 Z " fill="rgb(219,112,20)"/><path d=" M 721.096 616.808 Q 729.716 623.638 740.806 623.878 Q 747.116 624.008 750.496 626.118 Q 754.096 628.368 756.556 628.558 Q 759.246 628.768 762.796 627.258 Q 767.976 625.068 768.626 624.898 Q 772.766 623.848 778.306 623.808 Q 781.946 623.778 786.846 621.308 L 791.056 621.348 Q 792.006 621.718 793.576 621.478 C 793.994 621.424 794.383 621.699 794.466 622.108 Q 794.846 624.028 794.056 625.268 L 790.306 626.018 Q 785.926 626.738 781.636 627.848 Q 779.386 628.438 776.376 628.428 Q 770.506 628.408 765.366 630.868 Q 757.256 634.748 749.456 631.938 Q 743.706 629.858 743.346 629.808 Q 740.316 629.358 736.306 629.808 Q 732.196 630.278 728.096 627.708 Q 724.736 625.608 724.516 625.478 Q 721.506 623.738 718.806 621.518 Q 718.556 618.428 721.096 616.808 Z " fill="rgb(219,112,20)"/><path d=" M 729.016 642.808 Q 732.396 648.178 739.306 647.058 Q 743.716 646.348 750.566 646.908 Q 762.586 647.888 774.306 645.018 Q 775.576 645.878 775.556 647.518 Q 768.236 649.738 760.616 650.028 Q 757.696 650.148 753.046 650.758 Q 748.706 651.328 744.306 650.828 Q 740.796 650.428 737.286 650.908 Q 728.896 652.048 725.056 644.848 Q 727.526 644.848 729.016 642.808 Z " fill="rgb(219,112,20)"/><path d=" M 723.096 660.808 Q 727.046 662.308 731.206 662.568 Q 733.946 662.738 735.246 662.978 Q 737.326 663.348 739.256 663.748 Q 741.976 664.308 739.616 665.768 Q 738.206 666.648 736.656 666.898 Q 735.246 667.128 733.736 666.308 Q 731.776 665.248 730.236 663.838 C 730.032 663.654 729.763 663.559 729.489 663.574 C 729.215 663.589 728.958 663.713 728.776 663.918 Q 727.416 665.468 727.796 666.768 Q 727.986 667.388 729.266 668.928 Q 730.436 670.338 732.056 671.268 Q 727.156 671.458 722.256 671.198 Q 719.476 671.048 718.196 669.878 Q 716.476 668.288 716.346 665.558 Q 717.416 666.638 718.166 667.968 Q 719.286 669.988 722.416 669.048 C 722.722 668.977 722.915 668.733 722.866 668.478 L 722.486 663.598 C 722.334 663.294 722.396 662.966 722.656 662.698 Q 723.166 661.818 723.096 660.808 Z " fill="rgb(219,112,20)"/><path d=" M 733.556 677.348 Q 733.266 678.048 734.116 678.498 Q 740.056 681.678 746.806 682.058 Q 747.496 682.098 748.926 683.068 Q 749.946 683.758 751.006 683.968 Q 757.166 685.178 758.746 685.868 Q 763.286 687.858 765.056 688.098 Q 763.806 688.138 763.806 689.268 L 760.806 690.018 L 758.306 690.518 Q 753.846 689.438 749.306 688.808 Q 746.775 688.458 747.056 690.268 Q 735.096 686.178 725.806 677.598 Q 729.656 676.828 733.556 677.348 Z " fill="rgb(219,112,20)"/><path d=" M 774.806 685.848 L 774.556 688.518 L 768.806 689.518 L 763.806 689.268 Q 763.806 688.138 765.056 688.098 Q 766.376 688.078 767.696 687.928 Q 768.706 687.808 770.136 687.098 Q 772.316 685.998 774.806 685.848 Z " fill="rgb(181,117,89)"/><path d=" M 768.556 595.598 L 769.846 596.558 Q 769.916 599.678 772.496 601.868 Q 775.966 604.818 779.516 606.198 C 779.808 606.315 779.991 606.581 779.976 606.868 Q 780.036 608.138 781.306 608.598 Q 779.796 609.218 778.275 609.828 Q 777.826 610.008 777.856 610.248 C 777.881 610.431 778.13 610.573 778.436 610.578 L 785.556 610.518 Q 786.816 610.518 785.786 611.938 C 785.424 612.283 785.369 612.757 785.646 613.148 L 787.496 619.308 C 787.64 619.428 787.679 619.58 787.603 619.72 C 787.527 619.86 787.344 619.974 787.106 620.028 Q 786.546 620.448 786.846 621.308 Q 781.946 623.778 778.306 623.808 Q 772.766 623.848 768.626 624.898 Q 767.976 625.068 762.796 627.258 Q 759.246 628.768 756.556 628.558 Q 754.096 628.368 750.496 626.118 Q 747.116 624.008 740.806 623.878 Q 729.716 623.638 721.096 616.808 Q 723.526 609.788 728.786 604.448 C 729.142 604.093 729.708 604.05 730.116 604.348 Q 731.886 605.678 732.186 603.538 Q 732.386 602.058 732.516 600.558 L 737.306 596.598 Q 737.226 597.098 737.726 597.198 Q 743.376 598.318 749.056 599.308 Q 753.806 600.138 756.416 599.048 Q 762.286 596.608 768.556 595.598 Z " fill="rgb(38,27,46)"/><path d=" M 857.306 623.598 Q 861.525 621.088 862.556 617.308 Q 863.786 612.768 859.556 609.518 Q 861.275 608.798 863.616 610.248 Q 866.446 611.988 866.466 614.508 Q 866.486 616.358 864.626 618.608 Q 861.846 621.998 857.796 623.948 C 857.651 623.995 857.471 623.992 857.336 623.938 Q 857.266 623.828 857.306 623.598 Z " fill="rgb(38,27,46)"/><path d=" M 718.806 621.518 Q 721.506 623.738 724.516 625.478 Q 724.736 625.608 728.096 627.708 Q 732.196 630.278 736.306 629.808 Q 740.316 629.358 743.346 629.808 Q 743.706 629.858 749.456 631.938 Q 757.256 634.748 765.366 630.868 Q 770.506 628.408 776.376 628.428 Q 779.386 628.438 781.636 627.848 Q 785.926 626.738 790.306 626.018 Q 791.126 626.608 790.346 626.798 C 790.018 626.875 789.771 627.073 789.696 627.318 L 787.946 632.328 C 787.841 632.612 787.968 632.926 788.246 633.068 Q 791.856 635.088 794.746 633.498 Q 798.266 631.548 804.806 624.018 Q 808.256 626.738 810.996 630.158 C 811.073 630.257 811.189 630.319 811.315 630.328 C 811.44 630.338 811.564 630.294 811.656 630.208 Q 813.636 628.428 815.766 630.308 Q 816.226 631.388 816.016 632.558 Q 814.025 633.108 804.996 636.748 Q 800.886 638.398 799.266 640.058 L 797.556 641.268 Q 793.186 644.018 788.036 643.198 Q 784.196 642.588 780.906 642.558 Q 780.166 642.558 778.966 643.058 L 774.306 645.018 Q 762.586 647.888 750.566 646.908 Q 743.716 646.348 739.306 647.058 Q 732.396 648.178 729.016 642.808 L 726.476 639.358 C 726.338 639.145 726.039 638.969 725.646 638.868 Q 720.906 637.468 720.146 632.878 C 720.026 632.131 719.648 631.449 719.076 630.948 Q 716.296 628.518 716.616 626.038 Q 716.956 623.358 718.806 621.518 Z " fill="rgb(38,27,46)"/><path d=" M 725.056 644.848 Q 728.896 652.048 737.286 650.908 Q 740.796 650.428 744.306 650.828 Q 748.706 651.328 753.046 650.758 Q 757.696 650.148 760.616 650.028 Q 768.236 649.738 775.556 647.518 Q 784.856 645.528 789.556 645.558 Q 797.246 645.608 802.016 643.808 Q 801.976 644.208 802.086 644.538 Q 802.176 644.808 802.536 645.088 Q 805.266 647.208 802.496 649.998 Q 800.556 651.938 802.076 654.108 C 801.943 654.194 801.952 654.29 802.099 654.375 C 802.246 654.46 802.519 654.526 802.856 654.558 L 804.896 655.288 C 805.126 655.366 805.443 655.416 805.786 655.428 Q 807.426 655.008 809.056 654.578 Q 809.136 654.558 810.926 653.768 Q 812.496 653.078 813.596 654.808 L 808.806 657.018 Q 792.846 661.968 776.466 665.138 Q 762.906 667.758 756.796 668.758 Q 747.126 670.358 735.556 671.308 Q 732.996 671.518 732.056 671.268 Q 730.436 670.338 729.266 668.928 Q 727.986 667.388 727.796 666.768 Q 727.416 665.468 728.776 663.918 C 728.958 663.713 729.215 663.589 729.489 663.574 C 729.763 663.559 730.032 663.654 730.236 663.838 Q 731.776 665.248 733.736 666.308 Q 735.246 667.128 736.656 666.898 Q 738.206 666.648 739.616 665.768 Q 741.976 664.308 739.256 663.748 Q 737.326 663.348 735.246 662.978 Q 733.946 662.738 731.206 662.568 Q 727.046 662.308 723.096 660.808 Q 721.236 660.018 719.356 659.268 Q 717.276 658.438 716.346 656.658 Q 716.196 656.378 715.116 653.068 Q 712.096 643.858 713.306 635.058 Q 713.626 632.728 714.956 633.828 Q 715.406 634.208 715.786 635.088 Q 718.586 641.688 725.056 644.848 Z " fill="rgb(38,27,46)"/><path d=" M 811.266 662.558 Q 805.156 672.898 795.056 679.348 Q 793.966 679.108 791.746 679.998 Q 788.796 681.168 785.936 682.518 Q 780.616 685.018 774.806 685.848 Q 772.316 685.998 770.136 687.098 Q 768.706 687.808 767.696 687.928 Q 766.376 688.078 765.056 688.098 Q 763.286 687.858 758.746 685.868 Q 757.166 685.178 751.006 683.968 Q 749.946 683.758 748.926 683.068 Q 747.496 682.098 746.806 682.058 Q 740.056 681.678 734.116 678.498 Q 733.266 678.048 733.556 677.348 L 751.056 675.768 Q 756.066 677.278 761.306 677.018 Q 764.046 677.348 767.616 675.368 Q 768.046 675.128 770.056 674.518 Q 773.376 674.308 778.806 675.058 Q 784.306 675.818 789.366 672.118 Q 790.396 671.368 794.806 669.598 Q 800.046 667.688 805.116 665.368 Q 806.506 664.738 806.806 664.098 L 810.306 662.848 Q 810.696 662.478 811.266 662.558 Z " fill="rgb(38,27,46)"/><path d=" M 827.556 605.518 Q 824.486 604.918 824.766 607.558 Q 816.206 606.828 814.556 606.808 Q 811.025 606.768 809.096 606.058 Q 807.496 605.658 806.756 604.258 C 806.607 603.98 806.651 603.643 806.866 603.408 Q 808.406 601.598 810.746 601.898 Q 812.275 602.088 812.396 602.098 Q 815.306 602.258 816.306 602.558 Q 821.876 604.248 827.556 605.518 Z " fill="rgb(252,142,61)"/><path d=" M 809.096 606.058 Q 811.025 606.768 814.556 606.808 Q 816.206 606.828 824.766 607.558 Q 827.666 609.518 829.726 612.078 C 829.841 612.206 829.883 612.381 829.839 612.546 C 829.795 612.711 829.67 612.843 829.506 612.898 L 817.556 617.098 L 816.556 617.348 L 809.096 606.058 Z " fill="rgb(41,22,80)"/><path d=" M 747.376 666.768 Q 745.216 664.528 748.996 663.998 Q 751.076 663.708 759.806 663.058 Q 761.126 662.958 763.366 661.718 Q 764.076 661.328 766.426 659.518 Q 768.466 657.948 770.306 657.558 Q 775.366 656.488 781.316 656.858 Q 783.576 656.988 781.586 658.078 Q 777.916 660.098 773.576 660.688 Q 767.696 661.508 763.826 665.868 C 763.623 666.098 763.346 666.278 763.025 666.388 Q 755.716 668.568 748.236 667.218 C 747.904 667.147 747.604 666.99 747.376 666.768 Z " fill="rgb(173,88,24)"/><path d=" M 817.556 617.098 L 817.516 619.058 Q 816.646 618.478 816.556 617.348 L 817.556 617.098 Z " fill="rgb(151,71,55)"/><path d=" M 692.216 656.718 C 691.998 656.59 691.852 656.37 691.819 656.12 C 691.786 655.87 691.869 655.619 692.046 655.438 Q 696.926 650.478 704.826 650.298 Q 706.786 650.248 705.566 651.778 Q 703.986 653.778 701.916 655.748 Q 699.666 657.908 697.456 658.048 Q 694.836 658.208 692.216 656.718 Z " fill="rgb(45,28,62)"/><path d=" M 743.996 679.388 L 742.366 679.308 Q 741.636 679.278 742.366 679.128 L 748.566 677.888 C 748.697 677.862 748.834 677.891 748.943 677.969 C 749.053 678.046 749.126 678.165 749.146 678.298 Q 749.396 680.258 747.525 680.208 Q 745.986 680.168 745.956 680.168 Q 745.316 680.118 744.836 679.728 C 744.604 679.546 744.31 679.427 743.996 679.388 Z " fill="rgb(41,27,59)"/><path d=" M 827.556 605.518 Q 835.926 606.318 842.936 610.198 Q 845.256 611.488 843.506 613.488 Q 841.516 615.738 838.876 617.128 Q 830.036 621.778 820.056 622.288 C 819.708 622.28 819.393 622.147 819.226 621.938 L 817.516 619.058 L 817.556 617.098 L 829.506 612.898 C 829.67 612.843 829.795 612.711 829.839 612.546 C 829.883 612.381 829.841 612.206 829.726 612.078 Q 827.666 609.518 824.766 607.558 Q 824.486 604.918 827.556 605.518 Z " fill="rgb(225,66,21)"/><path d=" M 827.306 636.268 Q 824.336 636.728 823.806 639.518 Q 822.446 638.578 822.886 637.028 Q 823.036 636.508 822.936 636.068 Q 822.496 634.068 822.736 632.048 Q 822.786 631.608 822.866 632.048 Q 823.216 633.968 825.056 634.308 Q 826.976 634.668 827.306 636.268 Z " fill="rgb(255,162,115)"/><path d=" M 769.016 606.648 Q 771.096 607.218 769.136 608.118 Q 763.926 610.498 758.246 610.388 C 757.942 610.38 757.684 610.173 757.626 609.888 Q 757.176 607.748 758.716 606.588 Q 759.716 605.838 761.686 605.788 Q 765.525 605.698 769.016 606.648 Z " fill="rgb(219,112,20)"/><path d=" M 732.626 610.598 Q 732.246 609.778 733.006 608.928 Q 733.516 608.358 734.386 608.098 Q 737.546 607.148 740.246 609.368 Q 743.216 611.818 739.746 612.248 Q 736.876 612.598 734.186 611.718 Q 732.956 611.318 732.626 610.598 Z " fill="rgb(219,112,20)"/><path d=" M 823.806 639.518 Q 824.336 636.728 827.306 636.268 Q 828.386 635.628 828.946 636.708 Q 830.056 638.878 827.856 639.098 Q 827.386 639.148 826.946 639.388 Q 825.456 640.198 823.806 639.518 Z " fill="rgb(245,156,74)"/></g></g></svg>