<?xml version="1.0" encoding="UTF-8" standalone="no"?><!-- Generator: Gravit.io --><svg xmlns="http://www.w3.org/2000/svg" xmlns:xlink="http://www.w3.org/1999/xlink" style="isolation:isolate" viewBox="664.078 577.179 224.029 126.466" width="224.029pt" height="126.466pt"><defs><clipPath id="_clipPath_5Yv0cF0gi1UAOZvIOiw2qD57u7hXMTzO"><rect x="664.078" y="577.179" width="224.029" height="126.466"/></clipPath></defs><g clip-path="url(#_clipPath_5Yv0cF0gi1UAOZvIOiw2qD57u7hXMTzO)"><rect x="664.078" y="577.179" width="224.029" height="126.466" style="fill:rgb(6,6,6)" fill-opacity="0"/><path d=" M 710.835 639.285 L 711.755 652.785 Q 707.915 652.875 707.045 653.035 Q 702.495 653.845 698.285 652.525 Q 695.965 651.805 697.225 649.735 Q 698.695 647.325 701.195 646.015 Q 706.455 643.255 710.835 639.285 Z " fill="rgb(38,30,51)"/><path d=" M 721.045 667.325 Q 724.755 676.805 730.935 684.885 Q 732.285 686.635 734.125 687.765 Q 737.145 689.625 737.185 689.655 Q 746.355 696.105 757.295 698.785 Q 757.215 699.475 757.655 699.965 C 758.296 699.982 758.831 700.13 758.948 700.323 C 759.065 700.517 758.732 700.704 758.145 700.775 Q 758.195 701.485 757.545 701.825 Q 744.285 699.375 733.235 689.345 Q 722.305 679.425 717.045 667.825 L 721.045 667.325 Z " fill="rgb(245,127,75)"/><path d=" M 784.545 578.575 Q 791.765 579.915 798.295 583.245 Q 798.985 584.295 800.295 584.745 Q 799.445 584.685 799.305 585.305 Q 799.225 585.685 799.575 586.175 Q 801.615 589.075 803.665 591.955 Q 806.145 595.435 807.385 597.985 Q 812.975 609.515 812.045 621.785 Q 811.935 623.275 812.795 623.325 Q 789.965 632.935 763.295 641.035 Q 738.795 648.475 715.335 651.535 Q 713.535 614.395 741.355 592.095 Q 759.485 577.565 783.875 579.195 C 784.128 579.193 784.358 579.105 784.475 578.965 Q 784.565 578.795 784.545 578.575 Z " fill="rgb(45,17,32)"/><path d=" M 805.045 642.325 Q 804.995 644.575 804.215 646.715 Q 798.675 662.045 789.775 675.705 Q 779.645 691.255 762.175 697.245 Q 761.045 697.625 759.865 697.695 Q 757.015 697.855 757.295 698.785 Q 746.355 696.105 737.185 689.655 Q 737.145 689.625 734.125 687.765 Q 732.285 686.635 730.935 684.885 Q 724.755 676.805 721.045 667.325 Q 763.865 657.595 805.045 642.325 Z " fill="rgb(45,17,32)"/><path d=" M 836.755 630.035 L 833.045 630.995 L 805.045 642.325 Q 763.865 657.595 721.045 667.325 L 717.045 667.825 Q 704.105 670.005 691.025 670.995 Q 686.455 671.345 682.555 671.195 Q 677.765 671.005 674.105 670.475 Q 671.285 670.065 668.075 668.235 Q 663.105 665.405 664.315 661.015 Q 664.985 658.575 668.275 655.255 Q 674.465 648.975 682.295 644.745 Q 684.295 644.685 683.085 646.285 Q 677.435 649.385 674.535 654.935 Q 673.615 656.695 673.635 657.895 Q 673.675 659.665 675.235 660.845 Q 677.455 662.535 680.825 663.115 Q 693.915 665.375 706.935 663.925 Q 712.165 663.335 726.615 660.385 Q 792.185 646.965 851.575 615.785 Q 862.225 610.195 871.305 602.295 Q 874.075 599.885 875.525 596.525 Q 876.925 593.275 875.155 591.345 Q 874.045 590.125 871.075 589.505 Q 863.215 587.875 855.225 589.435 Q 839.875 592.455 824.715 596.345 C 824.35 596.44 824.063 596.628 823.925 596.865 Q 823.535 597.515 824.005 598.115 C 824.206 598.318 824.523 598.424 824.845 598.395 Q 830.735 597.405 836.555 596.065 Q 844.695 594.185 853.025 593.545 Q 859.685 593.035 865.015 595.855 Q 867.245 597.025 865.985 599.215 Q 863.915 602.825 860.485 605.225 Q 851.225 611.695 841.155 616.825 Q 784.765 645.585 722.565 657.615 Q 704.335 661.145 687.545 659.535 Q 684.775 659.265 683.065 656.715 C 682.874 656.438 682.786 656.107 682.815 655.775 Q 683.045 651.765 686.475 649.465 Q 698.155 641.645 710.235 634.475 Q 710.505 634.315 711.005 633.535 L 710.835 639.285 Q 706.455 643.255 701.195 646.015 Q 698.695 647.325 697.225 649.735 Q 695.965 651.805 698.285 652.525 Q 702.495 653.845 707.045 653.035 Q 707.915 652.875 711.755 652.785 Q 714.085 654.065 715.335 651.535 Q 738.795 648.475 763.295 641.035 Q 789.965 632.935 812.795 623.325 Q 819.835 620.445 829.545 615.785 Q 829.865 615.635 829.835 615.285 Q 830.945 615.425 831.585 614.535 Q 839.395 611.085 846.285 606.045 Q 848.615 604.325 850.045 601.955 C 850.234 601.641 850.281 601.261 850.177 600.91 C 850.072 600.558 849.825 600.266 849.495 600.105 Q 846.225 598.515 842.555 599.075 Q 834.835 600.235 825.715 600.585 Q 824.325 600.635 823.045 599.285 L 820.735 596.845 C 820.538 596.694 820.444 596.455 820.492 596.221 C 820.54 595.988 820.722 595.798 820.965 595.725 Q 838.705 590.075 857.025 586.935 Q 867.245 585.185 877.535 586.335 Q 880.905 586.715 883.885 588.285 Q 890.725 591.875 886.485 598.725 Q 885.045 601.045 881.535 604.135 Q 879.235 606.165 875.735 608.555 Q 857.485 620.985 837.605 629.095 Q 836.865 629.405 836.755 630.035 Z " fill="rgb(254,122,29)"/><path d=" M 683.085 646.285 L 702.795 635.995 Q 706.055 634.785 709.105 633.105 Q 710.115 632.545 711.085 633.035 L 711.005 633.535 Q 710.505 634.315 710.235 634.475 Q 698.155 641.645 686.475 649.465 Q 683.045 651.765 682.815 655.775 C 682.786 656.107 682.874 656.438 683.065 656.715 Q 684.775 659.265 687.545 659.535 Q 704.335 661.145 722.565 657.615 Q 784.765 645.585 841.155 616.825 Q 851.225 611.695 860.485 605.225 Q 863.915 602.825 865.985 599.215 Q 867.245 597.025 865.015 595.855 Q 859.685 593.035 853.025 593.545 Q 844.695 594.185 836.555 596.065 Q 830.735 597.405 824.845 598.395 C 824.523 598.424 824.206 598.318 824.005 598.115 Q 823.535 597.515 823.925 596.865 C 824.063 596.628 824.35 596.44 824.715 596.345 Q 839.875 592.455 855.225 589.435 Q 863.215 587.875 871.075 589.505 Q 874.045 590.125 875.155 591.345 Q 876.925 593.275 875.525 596.525 Q 874.075 599.885 871.305 602.295 Q 862.225 610.195 851.575 615.785 Q 792.185 646.965 726.615 660.385 Q 712.165 663.335 706.935 663.925 Q 693.915 665.375 680.825 663.115 Q 677.455 662.535 675.235 660.845 Q 673.675 659.665 673.635 657.895 Q 673.615 656.695 674.535 654.935 Q 677.435 649.385 683.085 646.285 Z " fill="rgb(250,224,53)"/><path d=" M 836.755 630.035 Q 840.665 653.935 828.145 674.375 Q 822.115 684.215 812.685 690.875 Q 787.755 708.465 757.545 701.825 Q 758.195 701.485 758.145 700.775 C 758.732 700.704 759.065 700.517 758.948 700.323 C 758.831 700.13 758.296 699.982 757.655 699.965 Q 757.215 699.475 757.295 698.785 Q 784.075 703.325 805.645 689.825 Q 814.675 684.165 820.695 676.815 Q 830.785 664.475 832.755 647.775 Q 833.735 639.405 833.045 630.995 L 836.755 630.035 Z " fill="rgb(245,127,75)"/><path d=" M 711.755 630.535 Q 711.935 631.925 711.085 633.035 Q 710.115 632.545 709.105 633.105 Q 706.055 634.785 702.795 635.995 L 702.795 634.075 Q 707.075 631.815 711.755 630.535 Z " fill="rgb(151,234,215)"/><path d=" M 702.795 634.075 L 702.795 635.995 L 683.085 646.285 Q 684.295 644.685 682.295 644.745 Q 692.235 638.815 702.795 634.075 Z " fill="rgb(195,227,217)"/><path d=" M 784.545 578.575 Q 784.565 578.795 784.475 578.965 C 784.358 579.105 784.128 579.193 783.875 579.195 Q 759.485 577.565 741.355 592.095 Q 713.535 614.395 715.335 651.535 Q 714.085 654.065 711.755 652.785 L 710.835 639.285 L 711.005 633.535 L 711.085 633.035 Q 711.935 631.925 711.755 630.535 Q 717.715 597.275 747.105 582.845 Q 764.385 574.365 784.545 578.575 Z " fill="rgb(250,206,55)"/><path d=" M 798.295 583.245 Q 810.195 587.525 818.965 596.235 Q 824.665 601.885 826.605 604.355 Q 830.115 608.805 831.585 614.535 Q 830.945 615.425 829.835 615.285 Q 819.975 595.235 800.295 584.745 Q 798.985 584.295 798.295 583.245 Z " fill="rgb(245,127,75)"/><path d=" M 833.045 630.995 Q 833.735 639.405 832.755 647.775 Q 830.785 664.475 820.695 676.815 Q 814.675 684.165 805.645 689.825 Q 784.075 703.325 757.295 698.785 Q 757.015 697.855 759.865 697.695 Q 761.045 697.625 762.175 697.245 Q 779.645 691.255 789.775 675.705 Q 798.675 662.045 804.215 646.715 Q 804.995 644.575 805.045 642.325 L 833.045 630.995 Z " fill="rgb(45,17,32)"/><path d=" M 800.295 584.745 Q 819.975 595.235 829.835 615.285 Q 829.865 615.635 829.545 615.785 Q 819.835 620.445 812.795 623.325 Q 811.935 623.275 812.045 621.785 Q 812.975 609.515 807.385 597.985 Q 806.145 595.435 803.665 591.955 Q 801.615 589.075 799.575 586.175 Q 799.225 585.685 799.305 585.305 Q 799.445 584.685 800.295 584.745 Z " fill="rgb(45,17,32)"/></g></svg>