<?xml version="1.0" encoding="UTF-8" standalone="no"?><!-- Generator: Gravit.io --><svg xmlns="http://www.w3.org/2000/svg" xmlns:xlink="http://www.w3.org/1999/xlink" style="isolation:isolate" viewBox="791.966 772.202 224.029 126.466" width="224.029pt" height="126.466pt"><defs><clipPath id="_clipPath_cxUBmcCOlGo8tPpmTWJTy1R3I3RN84IY"><rect x="791.966" y="772.202" width="224.029" height="126.466"/></clipPath></defs><g clip-path="url(#_clipPath_cxUBmcCOlGo8tPpmTWJTy1R3I3RN84IY)"><clipPath id="_clipPath_42ULjuHg6UIpF1asnrOUrEJ3z8Qe7fM0"><rect x="791.966" y="772.202" width="224.029" height="126.466" transform="matrix(1,0,0,1,0,0)" fill="rgb(255,255,255)"/></clipPath><g clip-path="url(#_clipPath_42ULjuHg6UIpF1asnrOUrEJ3z8Qe7fM0)"><g><rect x="791.966" y="772.202" width="224.029" height="126.466" transform="matrix(1,0,0,1,0,0)" fill="none"/><path d=" M 848.933 862.348 Q 852.643 871.828 858.823 879.908 Q 860.173 881.658 862.013 882.788 Q 865.033 884.648 865.073 884.678 Q 874.243 891.128 885.183 893.808 Q 885.103 894.498 885.543 894.988 C 886.184 895.005 886.719 895.153 886.836 895.346 C 886.953 895.54 886.62 895.727 886.033 895.798 Q 886.083 896.508 885.433 896.848 Q 872.173 894.398 861.123 884.368 Q 850.193 874.448 844.933 862.848 L 848.933 862.348 Z " fill="rgb(245,127,75)"/><path d=" M 912.433 773.598 Q 919.653 774.938 926.183 778.268 Q 926.873 779.318 928.183 779.768 Q 927.333 779.708 927.193 780.328 Q 927.113 780.708 927.463 781.198 Q 929.503 784.098 931.553 786.978 Q 934.033 790.458 935.273 793.008 Q 940.863 804.538 939.933 816.808 Q 939.823 818.298 940.683 818.348 Q 917.853 827.958 891.183 836.058 Q 866.683 843.498 843.223 846.558 Q 841.423 809.418 869.243 787.118 Q 887.373 772.588 911.763 774.218 C 912.016 774.216 912.246 774.128 912.363 773.988 Q 912.453 773.818 912.433 773.598 Z " fill="rgb(38,27,46)"/><path d=" M 932.933 837.348 Q 932.883 839.598 932.103 841.738 Q 926.563 857.068 917.663 870.728 Q 907.533 886.278 890.063 892.268 Q 888.933 892.648 887.753 892.718 Q 884.903 892.878 885.183 893.808 Q 874.243 891.128 865.073 884.678 Q 865.033 884.648 862.013 882.788 Q 860.173 881.658 858.823 879.908 Q 852.643 871.828 848.933 862.348 Q 891.753 852.618 932.933 837.348 Z " fill="rgb(38,27,46)"/><path d=" M 810.973 841.308 L 830.683 831.018 Q 833.943 829.808 836.993 828.128 Q 838.003 827.568 838.973 828.058 L 838.893 828.558 Q 838.393 829.338 838.123 829.498 Q 826.043 836.668 814.363 844.488 Q 810.933 846.788 810.703 850.798 C 810.674 851.13 810.762 851.461 810.953 851.738 Q 812.663 854.288 815.433 854.558 Q 832.223 856.168 850.453 852.638 Q 912.653 840.608 969.043 811.848 Q 979.113 806.718 988.373 800.248 Q 991.803 797.848 993.873 794.238 Q 995.133 792.048 992.903 790.878 Q 987.573 788.058 980.913 788.568 Q 972.583 789.208 964.443 791.088 Q 958.623 792.428 952.733 793.418 C 952.411 793.447 952.094 793.341 951.893 793.138 Q 951.423 792.538 951.813 791.888 C 951.951 791.651 952.238 791.463 952.603 791.368 Q 967.763 787.478 983.113 784.458 Q 991.103 782.898 998.963 784.528 Q 1001.933 785.148 1003.043 786.368 Q 1004.813 788.298 1003.413 791.548 Q 1001.963 794.908 999.193 797.318 Q 990.113 805.218 979.463 810.808 Q 920.073 841.988 854.503 855.408 Q 840.053 858.358 834.823 858.948 Q 821.803 860.398 808.713 858.138 Q 805.343 857.558 803.123 855.868 Q 801.563 854.688 801.523 852.918 Q 801.503 851.718 802.423 849.958 Q 805.323 844.408 810.973 841.308 Z " fill="rgb(250,224,53)"/><path d=" M 964.643 825.058 Q 968.553 848.958 956.033 869.398 Q 950.003 879.238 940.573 885.898 Q 915.643 903.488 885.433 896.848 Q 886.083 896.508 886.033 895.798 C 886.62 895.727 886.953 895.54 886.836 895.346 C 886.719 895.153 886.184 895.005 885.543 894.988 Q 885.103 894.498 885.183 893.808 Q 911.963 898.348 933.533 884.848 Q 942.563 879.188 948.583 871.838 Q 958.673 859.498 960.643 842.798 Q 961.623 834.428 960.933 826.018 L 964.643 825.058 Z " fill="rgb(245,127,75)"/><path d=" M 839.643 825.558 Q 839.823 826.948 838.973 828.058 Q 838.003 827.568 836.993 828.128 Q 833.48 830 830.22 831.21 L 830.683 829.098 Q 834.963 826.838 839.643 825.558 Z " fill="rgb(254,122,29)"/><path d=" M 830.683 829.098 L 830.683 831.018 L 810.973 841.308 Q 812.183 839.708 810.183 839.768 Q 820.123 833.838 830.683 829.098 Z " fill="rgb(254,122,29)"/><path d=" M 912.433 773.598 Q 912.453 773.818 912.363 773.988 C 912.246 774.128 912.016 774.216 911.763 774.218 Q 887.373 772.588 869.243 787.118 Q 841.423 809.418 843.223 846.558 Q 841.973 849.088 839.643 847.808 L 838.723 834.308 L 838.893 828.558 L 838.973 828.058 Q 839.823 826.948 839.643 825.558 Q 845.603 792.298 874.993 777.868 Q 892.273 769.388 912.433 773.598 Z " fill="rgb(250,206,55)"/><path d=" M 926.183 778.268 Q 938.083 782.548 946.853 791.258 Q 952.553 796.908 954.493 799.378 Q 958.003 803.828 959.473 809.558 Q 958.833 810.448 957.723 810.308 Q 947.863 790.258 928.183 779.768 Q 926.873 779.318 926.183 778.268 Z " fill="rgb(245,127,75)"/><path d=" M 960.933 826.018 Q 961.623 834.428 960.643 842.798 Q 958.673 859.498 948.583 871.838 Q 942.563 879.188 933.533 884.848 Q 911.963 898.348 885.183 893.808 Q 927.143 837.25 927.193 835 L 960.933 826.018 Z " fill="rgb(38,27,46)"/><path d=" M 928.183 779.768 Q 947.863 790.258 957.723 810.308 Q 957.753 810.658 957.433 810.808 Q 927.04 825.178 920 828.058 Q 924.92 779.38 925 779 Q 927.333 779.708 928.183 779.768 Z " fill="rgb(38,27,46)"/><path d=" M 964.643 825.058 L 960.933 826.018 L 932.933 837.348 Q 891.753 852.618 848.933 862.348 L 844.933 862.848 Q 831.993 865.028 818.913 866.018 Q 814.343 866.368 810.443 866.218 Q 805.653 866.028 801.993 865.498 Q 799.173 865.088 795.963 863.258 Q 790.993 860.428 792.203 856.038 Q 792.873 853.598 796.163 850.278 Q 802.353 843.998 810.183 839.768 Q 812.183 839.708 810.973 841.308 Q 805.323 844.408 802.423 849.958 Q 801.503 851.718 801.523 852.918 Q 801.563 854.688 803.123 855.868 Q 805.343 857.558 808.713 858.138 Q 821.803 860.398 834.823 858.948 Q 840.053 858.358 854.503 855.408 Q 920.073 841.988 979.463 810.808 Q 990.113 805.218 999.193 797.318 Q 1001.963 794.908 1003.413 791.548 Q 1004.813 788.298 1003.043 786.368 Q 1001.933 785.148 998.963 784.528 Q 991.103 782.898 983.113 784.458 Q 967.763 787.478 952.603 791.368 C 952.238 791.463 951.951 791.651 951.813 791.888 Q 951.423 792.538 951.893 793.138 C 952.094 793.341 952.411 793.447 952.733 793.418 Q 958.623 792.428 964.443 791.088 Q 972.583 789.208 980.913 788.568 Q 987.573 788.058 992.903 790.878 Q 995.133 792.048 993.873 794.238 Q 991.803 797.848 988.373 800.248 Q 979.113 806.718 969.043 811.848 Q 912.653 840.608 850.453 852.638 Q 832.223 856.168 815.433 854.558 Q 812.663 854.288 810.953 851.738 C 810.762 851.461 810.674 851.13 810.703 850.798 Q 810.933 846.788 814.363 844.488 Q 826.043 836.668 838.123 829.498 Q 838.393 829.338 838.893 828.558 L 838.723 834.308 Q 834.343 838.278 829.083 841.038 Q 826.583 842.348 825.113 844.758 Q 823.853 846.828 826.173 847.548 Q 830.383 848.868 834.933 848.058 Q 835.803 847.898 839.643 847.808 Q 841.973 849.088 843.223 846.558 Q 866.683 843.498 891.183 836.058 Q 917.853 827.958 940.683 818.348 Q 947.723 815.468 957.433 810.808 Q 957.753 810.658 957.723 810.308 Q 958.833 810.448 959.473 809.558 Q 967.283 806.108 974.173 801.068 Q 976.503 799.348 977.933 796.978 C 978.122 796.664 978.169 796.284 978.065 795.933 C 977.96 795.581 977.713 795.289 977.383 795.128 Q 974.113 793.538 970.443 794.098 Q 962.723 795.258 953.603 795.608 Q 952.213 795.658 950.933 794.308 L 948.623 791.868 C 948.426 791.717 948.332 791.478 948.38 791.244 C 948.428 791.011 948.61 790.821 948.853 790.748 Q 966.593 785.098 984.913 781.958 Q 995.133 780.208 1005.423 781.358 Q 1008.793 781.738 1011.773 783.308 Q 1018.613 786.898 1014.373 793.748 Q 1012.933 796.068 1009.423 799.158 Q 1007.123 801.188 1003.623 803.578 Q 985.373 816.008 965.493 824.118 Q 964.753 824.428 964.643 825.058 Z " fill="rgb(254,122,29)"/></g></g></g></svg>