
<svg xmlns="http://www.w3.org/2000/svg" version="1.1" viewBox="0 0 1024 1024">
<g stroke-width="2.00" fill="none" stroke-linecap="butt">
<path stroke="#c5bdcb" vector-effect="non-scaling-stroke" d="
  M 258.50 227.54
  Q 255.87 228.83 253.00 229.48
  Q 243.02 231.73 233.04 233.92
  Q 229.98 234.58 228.02 237.03
  Q 217.21 250.54 207.96 266.42
  A 3.00 2.90 50.8 0 0 207.75 268.92
  L 212.21 281.25"
/>
<path stroke="#adabbc" vector-effect="non-scaling-stroke" d="
  M 212.21 281.25
  Q 213.50 285.35 213.99 289.59
  Q 214.23 291.61 213.31 293.60
  Q 207.58 305.97 200.99 317.91
  Q 194.88 329.00 187.94 336.94
  Q 184.08 341.35 177.71 345.00"
/>
<path stroke="#c5bdcb" vector-effect="non-scaling-stroke" d="
  M 177.71 345.00
  Q 171.75 347.23 165.51 348.53
  Q 159.17 349.85 153.42 352.79
  Q 150.65 354.20 149.26 357.00
  Q 144.01 367.55 140.00 378.63
  Q 122.87 425.98 114.69 475.69
  Q 113.09 485.37 113.04 491.75"
/>
<path stroke="#adabbc" vector-effect="non-scaling-stroke" d="
  M 113.04 491.75
  Q 112.35 494.19 114.06 495.19
  Q 117.88 497.42 123.25 497.71
  Q 126.63 497.88 129.19 496.19
  Q 131.83 494.43 136.75 490.46"
/>
<path stroke="#9f98a1" vector-effect="non-scaling-stroke" d="
  M 136.75 490.46
  Q 141.38 489.90 145.31 492.94
  Q 150.25 496.76 153.06 501.46
  Q 156.13 506.62 158.06 512.31
  Q 162.66 525.90 163.13 540.25
  Q 163.88 563.42 157.06 585.52
  Q 153.43 597.29 147.04 607.80
  Q 143.97 612.86 139.55 616.80
  Q 132.73 622.88 123.50 622.71"
/>
<path stroke="#c5bcc8" vector-effect="non-scaling-stroke" d="
  M 123.50 622.71
  Q 113.90 620.93 108.17 613.47
  Q 107.61 612.74 107.71 613.66
  Q 111.15 643.86 118.50 673.00
  Q 119.02 675.08 119.79 676.25"
/>
<path stroke="#9f98a1" vector-effect="non-scaling-stroke" d="
  M 119.79 676.25
  L 120.58 678.76
  A 1.31 0.71 14.4 0 0 121.26 679.39
  L 139.21 687.75"
/>
<path stroke="#989399" vector-effect="non-scaling-stroke" d="
  M 139.21 687.75
  Q 174.49 704.68 204.25 730.04"
/>
<path stroke="#928d93" vector-effect="non-scaling-stroke" d="
  M 204.25 730.04
  Q 236.88 760.25 268.81 792.70
  Q 270.19 794.10 270.58 796.02
  Q 273.42 809.95 279.83 823.31
  Q 280.86 825.45 281.84 826.62
  Q 283.21 828.25 284.81 829.19
  Q 299.47 837.73 316.96 843.14
  Q 331.62 847.67 342.75 850.25
  Q 394.98 862.33 450.30 868.24
  Q 459.08 869.18 470.20 870.29
  Q 510.13 874.28 550.25 875.44
  Q 564.92 875.86 576.00 874.50
  Q 607.86 870.59 634.26 869.99
  Q 651.69 869.59 668.97 867.26
  Q 672.05 866.85 675.09 866.20
  Q 681.28 864.89 685.84 860.60
  Q 697.82 849.34 707.30 836.70
  A 1.18 1.17 -52.4 0 0 707.09 835.07
  Q 701.45 830.67 697.55 825.64
  A 0.68 0.68 -46.7 0 1 697.53 824.84
  Q 700.82 820.10 705.19 817.19
  Q 710.72 813.49 724.81 805.06
  Q 742.00 794.78 761.45 777.19
  Q 812.19 731.30 840.85 669.14
  Q 870.05 605.80 886.03 538.00
  Q 888.81 526.18 890.00 518.41
  Q 892.56 501.63 892.50 483.75
  Q 892.43 464.99 887.52 447.66
  Q 885.82 441.66 881.32 431.86
  Q 873.33 414.46 865.94 395.06
  Q 846.70 344.60 831.40 301.79
  Q 824.38 282.14 818.33 262.25
  A 1.95 1.94 58.8 0 1 818.80 260.33
  Q 824.21 254.75 828.50 248.31
  Q 830.51 245.31 828.69 242.56
  Q 821.09 231.09 810.00 219.21"
/>
<path stroke="#948f95" vector-effect="non-scaling-stroke" d="
  M 810.00 219.21
  Q 800.85 209.23 790.70 200.56
  A 1.06 1.05 47.4 0 0 789.40 200.50
  Q 786.93 202.26 784.36 203.66
  Q 778.15 207.04 772.60 204.92
  Q 769.49 203.73 764.08 198.15
  Q 759.35 193.27 756.19 189.56
  Q 744.78 176.17 733.18 165.68
  Q 731.68 164.32 730.48 163.73
  Q 728.85 162.94 727.25 162.75
  Q 700.67 159.55 667.50 156.76
  Q 647.11 155.05 626.75 152.96"
/>
<path stroke="#9f98a1" vector-effect="non-scaling-stroke" d="
  M 626.75 152.96
  Q 610.51 150.26 594.77 145.43
  Q 569.09 137.56 543.04 131.00"
/>
<path stroke="#adabbc" vector-effect="non-scaling-stroke" d="
  M 543.04 131.00
  Q 523.29 125.49 503.04 122.27
  Q 495.69 121.10 488.08 121.25
  A 1.22 1.22 -16.2 0 0 487.06 123.10
  Q 489.00 126.33 490.72 129.91
  Q 493.28 135.26 493.64 137.05
  Q 494.67 142.22 490.19 146.21
  Q 485.82 150.10 480.50 151.25
  Q 467.68 154.01 455.66 148.89
  Q 452.50 147.54 450.96 145.75
  Q 448.94 143.41 448.57 140.35
  Q 448.37 138.66 446.74 138.15
  Q 431.37 133.35 415.50 130.67
  A 3.19 3.15 37.9 0 0 413.71 130.88
  Q 349.30 158.91 295.16 201.43
  Q 285.91 208.69 276.56 215.81
  Q 266.46 223.51 258.50 227.54"
/>
<path stroke="#4d445d" vector-effect="non-scaling-stroke" d="
  M 543.04 131.00
  L 543.52 132.30
  A 1.02 0.77 57.0 0 1 543.46 133.16
  Q 536.82 142.43 524.50 147.00
  Q 510.02 152.37 493.30 152.71
  A 0.99 0.99 8.5 0 0 492.39 153.38
  Q 489.55 161.63 482.32 163.95
  Q 474.08 166.60 465.53 167.93
  Q 449.70 170.37 433.79 172.19
  Q 433.71 172.20 432.72 172.24
  Q 430.36 172.35 429.56 175.06
  Q 428.60 178.34 424.31 185.81
  Q 420.37 192.68 415.34 196.74
  Q 412.70 198.86 409.13 199.55
  Q 405.71 200.21 402.20 200.26
  Q 399.98 200.30 398.60 201.28
  Q 397.27 202.23 395.19 203.94
  Q 387.75 210.03 376.12 215.68
  Q 369.66 218.82 362.75 218.75
  Q 352.05 218.64 343.25 219.24
  Q 339.94 219.46 337.09 221.11
  Q 328.48 226.08 318.50 226.26
  Q 311.51 226.38 304.52 227.07
  A 2.26 2.25 -87.2 0 0 302.52 228.89
  Q 300.89 237.35 299.46 245.74
  Q 297.50 257.21 293.48 268.11
  Q 289.39 279.19 280.69 284.44
  Q 255.60 299.56 238.23 315.99
  Q 233.82 320.16 231.81 325.31
  Q 229.74 330.63 227.83 338.27
  Q 222.49 359.68 216.44 380.91
  Q 213.58 390.94 211.12 395.76
  Q 207.57 402.72 202.19 408.94
  Q 186.98 426.48 166.62 436.29
  Q 159.37 439.79 151.11 441.58
  A 0.70 0.70 -3.9 0 0 150.56 442.21
  Q 149.45 456.07 146.94 468.94
  Q 145.19 477.88 138.94 488.19
  Q 138.27 489.29 136.75 490.46"
/>
<path stroke="#736987" vector-effect="non-scaling-stroke" d="
  M 113.04 491.75
  Q 114.72 488.56 115.50 483.25
  Q 120.81 446.87 136.35 411.08
  Q 150.69 378.03 173.83 350.45
  Q 173.88 350.40 175.69 348.57
  Q 177.18 347.08 177.71 345.00"
/>
<path stroke="#736987" vector-effect="non-scaling-stroke" d="
  M 212.21 281.25
  Q 212.29 280.66 212.70 280.50
  A 1.13 0.62 -11.7 0 0 213.35 279.95
  Q 216.37 271.07 223.81 264.81
  Q 230.74 258.99 236.50 254.48
  Q 243.55 248.95 245.95 246.40
  Q 250.24 241.84 253.42 236.35
  Q 255.70 232.43 256.56 231.56
  Q 258.51 229.60 258.50 227.54"
/>
<path stroke="#342837" vector-effect="non-scaling-stroke" d="
  M 626.75 152.96
  Q 626.43 153.47 626.56 154.02
  Q 626.65 154.40 627.17 154.80
  Q 629.02 156.22 630.44 159.06
  Q 644.95 188.11 648.50 218.96"
/>
<path stroke="#382c3a" vector-effect="non-scaling-stroke" d="
  M 648.50 218.96
  Q 646.13 218.53 642.56 217.19
  Q 558.72 185.61 471.47 205.16
  Q 461.51 207.40 452.14 210.26
  Q 388.80 229.62 340.43 275.43
  Q 307.27 306.83 285.81 346.56
  Q 243.23 425.40 247.75 515.75
  Q 248.17 524.14 248.71 529.18
  Q 248.84 530.34 248.87 532.95
  Q 248.90 534.86 249.29 536.73
  Q 249.61 538.27 251.45 541.89
  Q 255.35 549.56 254.20 558.18
  Q 253.93 560.18 252.40 563.00
  Q 249.62 568.10 248.25 575.00
  Q 245.29 589.87 237.97 605.99
  Q 237.16 607.77 236.25 609.31
  Q 234.90 611.59 234.19 612.44
  Q 229.67 617.84 222.69 615.79
  Q 213.73 613.16 206.38 607.38
  Q 204.19 605.66 201.76 604.16
  A 0.50 0.49 25.3 0 0 201.03 604.42
  Q 194.97 622.18 186.29 638.68
  Q 181.00 648.73 175.69 655.61
  Q 165.24 669.17 150.56 679.81
  Q 145.24 683.67 140.72 685.55
  Q 139.94 685.87 139.65 686.37
  Q 139.29 686.98 139.21 687.75"
/>
<path stroke="#655569" vector-effect="non-scaling-stroke" d="
  M 119.79 676.25
  Q 119.65 671.32 119.23 666.40
  Q 118.67 659.77 118.67 656.57
  Q 118.68 640.53 122.00 624.25
  Q 122.29 622.85 123.50 622.71"
/>
<path stroke="#2b212c" vector-effect="non-scaling-stroke" d="
  M 757.96 297.00
  L 760.75 300.46"
/>
<path stroke="#2f232e" vector-effect="non-scaling-stroke" d="
  M 760.75 300.46
  L 760.62 300.76
  A 0.68 0.37 46.6 0 0 760.77 301.31
  L 765.23 307.33
  A 0.48 0.44 -33.6 0 1 765.07 307.99
  Q 763.34 309.04 762.35 310.84
  Q 760.91 313.44 759.65 316.14
  Q 758.80 317.95 757.83 319.00
  Q 756.46 320.49 755.19 321.19
  Q 752.91 322.43 752.35 324.52
  A 1.58 1.35 81.6 0 1 751.86 325.30
  Q 749.72 327.05 748.73 329.70
  Q 748.21 331.12 746.81 331.29
  A 1.42 0.99 9.1 0 0 745.98 331.69
  Q 743.06 335.15 744.03 339.60
  Q 744.50 341.75 743.02 342.56
  A 0.68 0.67 55.8 0 0 742.83 343.58
  Q 744.47 345.56 743.29 345.75"
/>
<path stroke="#49323b" vector-effect="non-scaling-stroke" d="
  M 743.29 345.75
  Q 738.33 337.55 731.56 325.44
  Q 724.02 311.92 713.67 295.15
  Q 708.94 287.49 703.01 280.73
  Q 693.05 269.39 677.76 271.60
  Q 671.75 272.46 665.75 273.35
  Q 657.69 274.55 653.68 274.49
  Q 642.61 274.33 632.32 269.68
  Q 617.08 262.79 602.06 255.44
  Q 587.52 248.32 575.00 244.46"
/>
<path stroke="#392935" vector-effect="non-scaling-stroke" d="
  M 575.00 244.46
  Q 561.98 239.90 543.25 237.50
  Q 532.94 236.18 524.57 236.44
  Q 518.65 236.63 510.65 238.86
  Q 481.96 246.85 451.94 258.44
  Q 428.82 267.36 408.33 277.61
  Q 396.07 283.74 390.59 286.85
  Q 373.55 296.53 359.69 309.94
  Q 339.51 329.45 324.03 354.02
  Q 313.15 371.28 306.22 390.49
  Q 298.83 410.98 297.28 432.73
  Q 296.29 446.69 296.25 451.50
  Q 296.13 464.80 293.50 475.00
  Q 290.39 487.06 283.99 506.31
  Q 282.70 510.17 282.55 513.88
  Q 282.12 524.32 282.50 541.00
  Q 283.08 566.84 284.49 584.75
  Q 284.94 590.57 286.03 596.69
  Q 286.86 601.35 288.19 608.56
  Q 290.64 621.93 294.99 633.64
  Q 307.57 667.53 337.92 687.03
  Q 352.81 696.60 370.25 703.00
  Q 382.67 707.56 386.00 708.71"
/>
<path stroke="#412e38" vector-effect="non-scaling-stroke" d="
  M 386.00 708.71
  Q 400.07 712.89 412.84 719.91
  Q 417.19 722.30 424.28 727.11
  Q 429.89 730.91 435.50 734.71"
/>
<path stroke="#2f232e" vector-effect="non-scaling-stroke" d="
  M 435.50 734.71
  Q 434.64 735.96 433.27 736.61
  A 1.57 1.46 -0.4 0 0 432.58 737.26
  Q 431.76 738.77 430.51 739.91
  Q 429.13 741.17 428.30 742.35
  Q 427.46 743.56 426.41 744.59
  Q 425.36 745.61 424.72 746.89
  Q 422.39 751.55 417.48 753.76
  Q 415.39 754.70 413.96 756.50
  Q 411.92 759.09 407.46 760.50
  A 1.26 1.26 -0.5 0 0 406.62 761.35
  Q 406.22 762.72 405.36 763.65
  A 1.44 0.93 76.7 0 0 405.06 764.50
  Q 405.05 765.24 404.10 764.86
  Q 402.95 764.40 401.75 764.29"
/>
<path stroke="#2b212c" vector-effect="non-scaling-stroke" d="
  M 401.75 764.29
  Q 369.05 749.12 341.69 725.92
  Q 334.10 719.48 327.10 712.27
  Q 307.77 692.33 292.49 668.60
  Q 290.26 665.14 287.80 668.44
  Q 287.09 669.40 284.55 670.48
  Q 284.51 670.50 281.88 671.26
  Q 279.66 671.90 278.46 673.88
  Q 278.42 673.95 277.82 676.11
  Q 277.29 678.01 274.48 677.73
  Q 271.63 677.44 270.75 681.37
  Q 270.29 683.41 268.65 684.11
  L 265.22 685.57
  A 1.39 1.25 -0.7 0 0 264.54 686.20
  Q 262.79 689.75 259.29 691.69
  Q 259.09 691.80 259.30 691.90
  Q 259.70 692.09 259.06 692.31
  Q 255.72 693.47 254.44 697.44
  Q 254.38 697.61 254.16 697.71
  A 0.51 0.43 -16.5 0 0 253.86 698.17
  Q 254.08 700.17 251.98 699.64
  A 1.13 0.87 -51.1 0 0 251.15 699.84
  L 247.88 702.20
  Q 247.34 702.60 247.17 702.86
  Q 245.72 705.08 244.50 706.00
  Q 243.00 707.13 241.18 706.24
  A 1.32 1.10 45.5 0 0 240.27 706.15
  Q 237.78 706.99 235.75 708.55
  Q 233.55 710.25 231.95 710.89
  Q 230.09 711.63 227.75 712.62
  A 1.99 1.98 80.8 0 0 226.53 714.33
  Q 226.38 716.82 223.50 717.50
  Q 221.06 718.08 220.56 718.56
  Q 217.82 721.25 214.00 721.71
  Q 212.04 721.95 211.16 723.49
  A 1.37 0.86 -73.6 0 1 210.47 724.10
  Q 209.77 724.29 209.05 724.18
  A 1.53 0.87 -42.9 0 0 208.19 724.38
  L 205.17 726.04
  A 1.26 0.72 -16.9 0 0 204.58 726.67
  Q 204.31 727.60 203.67 728.32
  A 0.28 0.28 28.3 0 0 203.81 728.78
  Q 204.99 729.09 204.25 730.04"
/>
<path stroke="#271d29" vector-effect="non-scaling-stroke" d="
  M 810.00 219.21
  Q 809.15 219.75 809.81 220.25
  A 0.33 0.31 46.0 0 1 809.82 220.77
  Q 808.68 221.51 807.85 222.59
  Q 805.78 225.28 803.58 227.84
  Q 794.52 238.36 782.49 236.50
  Q 777.54 235.73 767.70 230.46
  Q 760.50 226.61 753.69 222.61
  Q 750.93 220.98 751.48 224.14
  Q 753.04 233.02 757.06 240.94
  Q 758.88 244.52 764.75 255.00
  Q 768.24 261.23 769.17 269.08
  Q 769.92 275.42 768.52 281.85
  Q 767.14 288.18 764.22 294.06
  A 1.08 1.06 -83.7 0 1 763.52 294.63
  Q 758.47 295.92 755.13 291.84
  Q 754.02 290.48 754.48 291.52
  Q 754.56 291.68 754.70 291.83
  Q 756.85 294.10 757.96 297.00"
/>
<path stroke="#2d232f" vector-effect="non-scaling-stroke" d="
  M 757.96 297.00
  Q 713.15 245.43 651.19 220.31
  Q 648.95 219.41 648.50 218.96"
/>
<path stroke="#291d28" vector-effect="non-scaling-stroke" d="
  M 401.75 764.29
  Q 418.93 772.62 439.56 778.19
  Q 471.03 786.69 501.57 788.18
  Q 516.67 788.92 528.69 788.81
  Q 549.85 788.62 571.45 784.48
  Q 642.87 770.82 701.07 728.33
  Q 709.27 722.35 716.78 715.96
  Q 749.67 688.02 773.72 651.96
  Q 777.20 646.75 781.20 641.92
  A 1.39 1.39 49.8 0 1 783.47 642.11
  Q 785.37 645.41 788.58 647.49
  A 1.34 1.33 57.0 0 0 789.49 647.69
  Q 797.22 646.61 796.00 638.50
  Q 795.39 634.51 791.50 633.75
  A 3.55 0.83 8.4 0 1 788.81 632.69
  Q 787.79 631.00 788.03 629.16
  Q 788.17 628.10 789.34 625.99
  Q 817.58 575.09 824.00 514.50
  Q 825.35 501.76 825.36 491.49
  Q 825.36 489.47 825.04 471.50
  Q 824.61 447.10 819.06 421.44
  Q 804.32 353.19 760.75 300.46"
/>
<path stroke="#3f2a33" vector-effect="non-scaling-stroke" d="
  M 435.50 734.71
  Q 458.09 748.37 481.31 756.19
  Q 505.74 764.41 531.41 759.44
  Q 540.08 757.75 540.13 757.74
  Q 557.56 754.85 575.19 753.76
  Q 581.57 753.37 584.68 752.39
  Q 589.36 750.93 593.42 748.12
  Q 598.29 744.76 598.35 744.72
  Q 624.79 728.20 651.75 712.54"
/>
<path stroke="#51353e" vector-effect="non-scaling-stroke" d="
  M 575.00 244.46
  Q 574.52 245.00 574.83 245.45
  Q 575.17 245.94 575.20 246.01
  Q 575.61 247.13 575.33 248.21
  Q 575.11 249.09 574.02 249.74
  Q 570.92 251.60 567.68 253.22
  Q 566.55 253.78 563.51 254.60
  Q 561.35 255.19 559.43 256.43
  Q 557.43 257.71 555.24 258.04
  Q 553.47 258.30 553.07 260.04
  Q 552.69 261.69 551.37 261.45
  Q 550.16 261.22 550.10 261.22
  Q 547.17 261.22 548.20 263.62
  A 1.52 1.51 68.9 0 1 547.31 265.64
  Q 542.74 267.24 538.91 269.55
  Q 538.86 269.58 535.85 271.76
  Q 533.04 273.78 529.56 274.47
  A 1.24 1.21 -78.3 0 0 528.80 274.98
  Q 527.15 277.40 523.25 279.00
  Q 520.45 280.15 519.35 283.89
  A 0.36 0.31 13.7 0 0 519.63 284.29
  Q 520.23 284.43 519.00 284.96"
/>
<path stroke="#2d1e28" vector-effect="non-scaling-stroke" d="
  M 519.00 284.96
  Q 496.84 285.23 487.50 286.50
  Q 422.37 295.39 376.13 341.63
  Q 347.46 370.29 331.56 406.81
  Q 307.29 462.55 314.25 523.75
  Q 320.09 575.10 350.75 617.71"
/>
<path stroke="#49313a" vector-effect="non-scaling-stroke" d="
  M 350.75 617.71
  Q 350.35 618.53 350.03 618.18
  Q 349.34 617.44 348.82 616.56
  Q 347.73 614.69 347.15 615.49
  A 1.58 1.23 -76.1 0 1 346.45 616.04
  Q 345.52 616.34 345.25 617.50
  Q 344.39 621.16 344.75 624.25
  Q 344.89 625.45 346.62 626.45
  A 1.15 0.68 20.9 0 1 347.20 627.18
  L 347.33 629.76
  Q 347.36 630.47 347.48 630.70
  Q 348.22 632.17 348.84 633.69
  Q 349.08 634.26 349.22 635.51
  Q 349.34 636.48 349.78 637.32
  Q 350.28 638.28 351.79 639.06
  Q 353.71 640.06 355.34 641.01
  Q 357.41 642.22 356.81 644.55
  Q 356.31 646.51 357.17 647.93
  Q 357.28 648.11 359.56 649.76
  Q 360.78 650.65 361.20 652.20
  A 1.33 1.21 -84.0 0 0 361.74 652.93
  Q 365.31 655.10 363.52 659.26
  Q 361.91 663.02 362.67 666.89
  Q 363.10 669.12 363.40 669.57
  Q 364.16 670.68 366.30 670.79
  A 0.93 0.92 85.4 0 1 367.15 671.52
  Q 367.85 674.89 370.48 676.12
  A 1.62 1.27 3.4 0 1 371.18 676.74
  Q 373.40 680.73 373.25 683.00
  Q 373.08 685.70 375.69 687.56
  Q 379.34 690.17 380.07 694.81
  Q 380.46 697.30 381.19 698.99
  Q 382.59 702.24 383.25 705.75
  A 2.64 1.74 86.5 0 0 384.75 707.75
  Q 385.63 707.95 386.00 708.71"
/>
<path stroke="#472e37" vector-effect="non-scaling-stroke" d="
  M 743.29 345.75
  Q 747.58 352.40 753.74 357.18
  Q 754.82 358.02 761.23 361.65
  Q 771.90 367.70 777.25 379.15
  Q 780.79 386.73 781.75 390.75
  Q 787.89 416.52 789.62 442.91
  Q 790.27 452.75 790.57 456.57
  Q 791.11 463.41 791.50 470.25
  Q 792.02 479.32 795.13 491.78
  Q 797.72 502.14 797.20 512.59
  Q 796.86 519.18 793.46 532.17
  Q 785.33 563.21 783.75 570.25
  Q 778.34 594.36 763.26 611.01
  Q 760.93 613.60 760.89 613.64
  Q 752.25 623.44 748.06 629.56
  Q 729.45 656.75 713.93 685.25
  Q 713.10 686.76 711.44 687.20
  Q 692.95 692.06 675.81 700.06
  Q 666.30 704.51 651.75 712.54"
/>
<path stroke="#593941" vector-effect="non-scaling-stroke" d="
  M 651.75 712.54
  Q 650.20 712.63 648.91 713.46
  A 1.00 0.77 -44.5 0 1 648.04 713.57
  L 644.23 711.69
  A 1.50 1.23 86.9 0 1 643.57 710.97
  Q 641.89 707.16 638.43 708.40
  Q 636.00 709.27 633.98 707.98
  A 0.64 0.56 -63.8 0 1 633.78 707.24
  L 635.59 702.44
  Q 635.92 701.58 635.12 702.08
  Q 632.73 703.58 631.09 706.02
  A 0.66 0.48 42.9 0 0 631.23 706.73
  Q 631.63 707.18 631.13 707.84
  Q 631.03 707.97 630.82 708.09
  Q 630.29 708.40 630.84 708.60
  Q 631.10 708.69 630.84 708.74
  L 628.73 709.14
  A 1.70 1.28 45.5 0 1 627.81 709.00
  Q 626.60 708.44 625.59 709.38
  Q 625.07 709.87 624.80 709.98
  Q 623.80 710.39 623.81 709.31
  Q 624.31 708.59 623.25 708.71"
/>
<path stroke="#ab6f5c" vector-effect="non-scaling-stroke" d="
  M 623.25 708.71
  Q 639.99 697.32 649.93 679.68
  Q 652.85 674.49 655.93 669.11
  Q 656.92 667.37 658.86 666.85
  Q 664.06 665.46 669.94 663.44
  Q 676.90 661.04 682.90 653.96
  Q 682.93 653.92 684.83 651.31
  Q 686.86 648.52 690.00 646.96"
/>
<path stroke="#a3665a" vector-effect="non-scaling-stroke" d="
  M 690.00 646.96
  L 702.75 643.61
  A 1.68 1.48 45.0 0 1 703.73 643.67
  L 711.64 646.56
  A 1.62 1.57 34.1 0 0 713.26 646.27
  Q 716.47 643.44 719.21 639.90
  Q 721.92 636.39 722.00 636.29
  Q 735.78 619.13 745.31 600.66
  Q 746.68 598.00 746.75 595.02
  Q 746.97 586.01 749.00 577.25
  Q 750.05 572.72 754.54 566.25"
/>
<path stroke="#9c5d59" vector-effect="non-scaling-stroke" d="
  M 754.54 566.25
  Q 761.14 557.03 767.18 547.43
  Q 774.06 536.49 774.06 523.50
  Q 774.04 502.25 774.15 481.00
  Q 774.24 461.48 769.25 445.25
  Q 755.31 399.95 728.44 357.56
  Q 723.46 349.71 716.29 341.25"
/>
<path stroke="#a3665a" vector-effect="non-scaling-stroke" d="
  M 716.29 341.25
  Q 692.42 311.90 657.00 298.54"
/>
<path stroke="#ab6f5c" vector-effect="non-scaling-stroke" d="
  M 657.00 298.54
  Q 644.94 294.06 632.29 291.75"
/>
<path stroke="#af765d" vector-effect="non-scaling-stroke" d="
  M 632.29 291.75
  Q 594.05 284.07 555.08 284.18
  Q 553.09 284.19 542.92 284.03
  Q 536.84 283.93 530.76 284.33
  Q 530.39 284.36 530.50 284.71"
/>
<path stroke="#3d262e" vector-effect="non-scaling-stroke" d="
  M 530.50 284.71
  L 519.00 284.96"
/>
<path stroke="#ed9771" vector-effect="non-scaling-stroke" d="
  M 657.00 298.54
  Q 659.81 304.06 662.19 306.06
  Q 675.55 317.31 686.98 330.52
  Q 690.15 334.17 693.40 337.75
  Q 697.01 341.71 699.53 345.23
  Q 706.84 355.46 713.48 366.15
  Q 713.86 366.77 714.77 367.63
  Q 715.52 368.33 716.02 369.21
  Q 717.28 371.45 717.34 371.53
  Q 718.71 373.48 719.99 375.49
  Q 720.81 376.77 722.06 379.73
  Q 722.91 381.74 724.31 384.19
  Q 727.61 389.93 730.25 398.12
  Q 731.27 401.30 733.94 408.31
  Q 737.81 418.50 740.73 430.98
  Q 741.15 432.77 743.67 442.41
  Q 745.17 448.13 745.95 454.01
  Q 748.10 470.06 748.36 486.25
  Q 748.65 504.76 745.63 522.92
  Q 743.68 534.69 741.88 542.57
  Q 739.25 554.15 734.44 566.69
  Q 727.57 584.58 722.56 594.06
  Q 717.70 603.28 700.61 630.89
  Q 697.60 635.76 692.86 640.24
  Q 691.26 641.75 690.08 643.60
  Q 689.10 645.16 690.00 646.96"
/>
<path stroke="#a36b58" vector-effect="non-scaling-stroke" d="
  M 623.25 708.71
  Q 602.86 722.35 578.93 727.91
  Q 554.25 733.63 529.00 731.29"
/>
<path stroke="#f9a774" vector-effect="non-scaling-stroke" d="
  M 632.29 291.75
  L 632.53 294.43
  A 1.23 1.13 -74.3 0 0 632.95 295.26
  Q 647.28 307.30 661.19 319.81
  Q 670.22 327.93 679.81 338.69
  Q 688.96 348.95 695.81 360.01
  Q 699.15 365.39 703.81 372.55
  Q 707.98 378.96 711.35 385.85
  Q 712.08 387.34 711.31 386.21
  Q 709.87 384.09 708.53 381.91
  Q 708.06 381.15 708.51 382.10
  Q 712.86 391.42 716.52 401.03
  Q 716.55 401.09 719.57 408.51
  Q 721.90 414.21 724.00 422.00
  Q 726.72 432.10 727.95 439.67
  Q 728.36 442.15 728.66 447.34
  Q 728.88 451.20 729.37 455.04
  Q 730.38 462.92 730.58 466.53
  Q 731.15 476.39 731.68 486.25
  Q 732.50 501.51 731.75 504.75
  Q 730.97 508.14 731.30 510.52
  Q 731.61 512.87 731.02 515.16
  Q 729.05 522.76 728.11 529.23
  Q 725.95 544.23 721.14 558.54
  Q 719.86 562.37 717.46 566.49
  Q 713.89 572.60 713.19 574.19
  Q 707.56 586.88 701.20 599.22
  Q 695.21 610.82 687.00 620.96
  Q 683.16 625.71 679.38 630.50
  Q 679.32 630.57 676.41 633.80
  Q 674.81 635.58 672.81 638.56
  Q 670.02 642.73 661.48 651.41
  Q 657.03 655.92 651.58 660.08
  Q 646.33 664.08 641.02 668.01
  Q 631.96 674.72 623.43 682.09
  Q 623.38 682.14 621.30 684.13
  Q 620.02 685.36 618.51 686.24
  Q 615.81 687.83 614.49 688.96
  Q 611.64 691.40 608.39 693.31
  Q 607.48 693.85 608.47 692.97
  Q 609.15 692.36 608.79 692.31
  Q 608.61 692.28 608.37 692.44
  Q 594.67 701.97 579.14 708.07
  Q 578.60 708.28 578.92 708.53
  A 0.17 0.16 52.0 0 1 578.90 708.81
  Q 560.74 716.88 556.81 718.81
  Q 548.09 723.11 541.95 725.46
  Q 540.31 726.08 538.61 726.40
  Q 536.86 726.74 535.17 726.98
  Q 534.16 727.12 535.17 727.27
  Q 538.83 727.83 535.67 728.87
  Q 534.95 729.10 534.23 729.30
  Q 533.85 729.41 532.89 729.95
  Q 531.82 730.54 530.72 729.86
  A 0.55 0.51 34.4 0 0 530.01 729.96
  L 529.00 731.29"
/>
<path stroke="#a77259" vector-effect="non-scaling-stroke" d="
  M 529.00 731.29
  Q 485.82 728.00 449.46 704.75"
/>
<path stroke="#febc7d" vector-effect="non-scaling-stroke" d="
  M 449.46 704.75
  Q 449.95 702.73 451.75 703.00
  Q 458.94 704.09 465.25 704.29
  Q 469.76 704.44 478.75 704.13
  Q 500.30 703.38 521.25 698.00
  Q 551.30 690.28 579.51 677.55
  Q 588.98 673.28 597.61 669.05
  Q 610.42 662.77 622.67 655.40
  Q 631.29 650.21 638.94 643.68
  Q 643.88 639.46 646.69 635.44
  Q 649.28 631.72 652.80 625.84
  Q 655.67 621.05 658.27 615.86
  Q 681.02 570.38 691.92 520.59
  Q 696.03 501.82 697.75 480.75
  Q 699.07 464.59 697.83 449.19
  Q 697.01 439.04 695.33 429.35
  Q 689.69 396.94 671.94 370.06
  Q 645.44 329.94 598.93 315.46
  Q 598.87 315.44 592.90 313.83
  Q 587.52 312.37 584.44 310.31
  Q 581.23 308.16 579.10 306.91
  Q 576.12 305.15 573.85 303.46
  Q 570.99 301.35 568.19 300.06
  Q 565.82 298.98 564.36 297.60
  A 1.88 1.36 63.8 0 0 563.51 297.15
  Q 561.75 296.85 560.00 297.29"
/>
<path stroke="#8b5f47" vector-effect="non-scaling-stroke" d="
  M 560.00 297.29
  Q 545.79 289.74 530.50 284.71"
/>
<path stroke="#a87f61" vector-effect="non-scaling-stroke" d="
  M 449.46 704.75
  Q 421.60 688.03 397.39 666.37
  Q 384.87 655.16 372.64 643.64
  A 0.30 0.18 42.2 0 1 372.55 643.33
  Q 372.62 643.24 372.75 643.21"
/>
<path stroke="#fece89" vector-effect="non-scaling-stroke" d="
  M 499.21 669.25
  Q 499.44 670.54 502.48 670.45
  Q 503.96 670.41 505.41 670.65
  Q 508.18 671.12 511.59 669.98
  A 1.47 0.78 33.6 0 1 512.49 670.07
  Q 513.14 670.33 513.94 669.94
  Q 516.48 668.70 520.02 667.64
  Q 520.45 667.51 520.98 667.64
  Q 522.71 668.04 524.10 667.06
  Q 524.57 666.73 525.00 666.69
  L 529.19 666.23
  A 1.68 1.61 21.5 0 0 530.07 665.87
  Q 533.13 663.45 536.89 663.18
  Q 541.59 662.85 542.07 662.75
  Q 546.78 661.80 551.41 660.53
  Q 551.48 660.51 559.80 658.40
  Q 570.02 655.81 578.78 649.76
  Q 582.13 647.44 585.72 645.49
  Q 588.89 643.76 591.59 641.41
  Q 595.59 637.95 595.68 637.88
  Q 610.38 626.03 622.74 611.73
  Q 632.28 600.68 640.76 588.82
  Q 642.20 586.80 643.32 583.65
  Q 644.82 579.46 647.69 573.94
  Q 651.84 565.95 655.75 551.75
  Q 656.22 550.03 658.02 547.74
  Q 659.69 545.61 660.31 543.87
  Q 662.43 537.98 663.25 531.75
  Q 663.57 529.32 666.82 521.86
  Q 667.67 519.89 668.05 517.47
  Q 668.41 515.18 668.97 512.94
  Q 669.48 510.91 669.35 509.00
  Q 669.13 505.74 669.25 505.00
  Q 669.75 501.83 669.66 500.20
  Q 669.57 498.73 669.57 498.68
  Q 669.91 468.15 669.25 462.25
  Q 668.16 452.40 667.09 442.55
  Q 667.03 442.05 667.17 440.96
  Q 667.28 440.12 667.06 439.32
  Q 666.62 437.70 666.61 437.64
  Q 665.93 433.59 665.08 429.58
  Q 664.29 425.83 662.59 421.77
  Q 657.10 408.63 655.81 404.44
  Q 653.28 396.20 651.00 392.50
  Q 646.47 385.15 641.94 377.81
  Q 638.05 371.52 635.42 368.80
  A 1.74 1.57 -74.2 0 1 635.00 367.95
  Q 634.72 366.29 633.47 365.24
  Q 633.27 365.08 632.55 364.95
  L 630.25 364.54"
/>
<path stroke="#8c6c4f" vector-effect="non-scaling-stroke" d="
  M 560.00 297.29
  Q 603.93 321.71 630.25 364.54"
/>
<path stroke="#8c7153" vector-effect="non-scaling-stroke" d="
  M 630.25 364.54
  Q 668.42 429.34 656.60 503.23
  Q 655.01 513.17 652.50 522.80
  Q 636.32 584.84 588.06 626.81
  Q 550.02 659.90 499.21 669.25"
/>
<path stroke="#8c6c4f" vector-effect="non-scaling-stroke" d="
  M 499.21 669.25
  Q 488.33 671.00 476.00 671.50
  Q 419.50 673.81 372.75 643.21"
/>
<path stroke="#35222b" vector-effect="non-scaling-stroke" d="
  M 372.75 643.21
  Q 360.51 631.54 350.75 617.71"
/>
<path stroke="#de866e" vector-effect="non-scaling-stroke" d="
  M 716.29 341.25
  Q 716.07 345.68 718.46 349.24
  Q 720.62 352.45 720.69 352.56
  Q 726.28 362.36 731.81 372.19
  Q 737.99 383.14 745.50 404.00
  Q 749.81 415.95 755.32 442.29
  Q 765.69 491.75 757.69 541.58
  Q 757.67 541.69 757.13 546.96
  Q 756.85 549.68 755.92 552.28
  Q 755.80 552.63 755.87 553.23
  Q 755.96 553.98 755.50 555.00
  Q 753.73 558.90 753.29 564.49
  A 1.19 0.66 -76.2 0 0 753.54 565.41
  L 754.54 566.25"
/>
<path stroke="#a09ca7" vector-effect="non-scaling-stroke" d="
  M 262.21 167.50
  Q 265.53 169.02 269.05 168.91
  Q 272.48 168.80 275.38 166.70
  Q 280.24 163.16 282.50 156.50
  Q 283.54 153.42 281.75 151.71"
/>
<path stroke="#b6b2bf" vector-effect="non-scaling-stroke" d="
  M 281.75 151.71
  Q 280.78 150.40 279.00 151.00
  Q 269.55 154.16 262.56 160.21
  Q 260.62 161.88 260.33 163.43
  Q 259.90 165.78 262.21 167.50"
/>
<path stroke="#574f67" vector-effect="non-scaling-stroke" d="
  M 281.75 151.71
  Q 281.20 152.09 280.75 152.57
  Q 280.22 153.11 279.73 153.38
  Q 269.74 158.90 262.21 167.50"
/>
<path stroke="#928d93" vector-effect="non-scaling-stroke" d="
  M 869.19 353.31
  Q 875.87 358.39 883.78 359.80
  Q 888.17 360.58 891.22 359.78
  Q 895.18 358.74 897.69 355.44
  Q 900.70 351.46 901.73 346.35
  Q 902.56 342.21 902.49 336.62
  Q 902.43 331.50 901.06 326.19
  Q 900.26 323.08 898.22 321.16
  Q 896.57 319.60 893.20 319.02
  Q 884.45 317.53 877.00 319.25
  Q 870.12 320.84 866.62 326.65
  Q 864.77 329.73 864.05 335.21
  Q 863.27 341.06 863.75 344.25
  Q 864.58 349.81 869.19 353.31"
/>
<path stroke="#928d93" vector-effect="non-scaling-stroke" d="
  M 877.06 658.55
  Q 881.23 659.22 884.26 655.03
  Q 891.13 645.50 893.39 634.04
  Q 894.08 630.53 894.12 629.97
  Q 894.34 626.63 891.22 626.35
  Q 889.36 626.18 886.50 627.51
  Q 881.34 629.92 876.55 632.98
  Q 872.06 635.83 870.58 638.68
  Q 868.69 642.34 869.00 647.25
  Q 869.27 651.62 871.28 654.65
  Q 873.49 657.97 877.06 658.55"
/>
<path stroke="#9f98a1" vector-effect="non-scaling-stroke" d="
  M 174.25 764.71
  Q 179.42 769.19 185.81 771.22
  Q 190.34 772.67 193.35 771.44
  Q 197.53 769.74 198.09 764.23
  Q 198.49 760.32 196.56 757.44
  Q 191.79 750.29 182.79 749.75"
/>
<path stroke="#c5bdcb" vector-effect="non-scaling-stroke" d="
  M 182.79 749.75
  Q 175.62 747.95 171.00 748.75
  Q 165.87 749.64 167.00 754.75
  Q 168.40 761.08 174.25 764.71"
/>
<path stroke="#65566c" vector-effect="non-scaling-stroke" d="
  M 182.79 749.75
  Q 176.25 752.69 175.06 754.06
  Q 171.67 757.98 174.23 762.79
  Q 174.74 763.73 174.25 764.71"
/>
<path stroke="#97698d" vector-effect="non-scaling-stroke" d="
  M 383.05 200.75
  Q 382.09 201.66 382.56 203.04
  Q 382.72 203.52 382.67 203.99
  Q 382.49 205.50 383.48 206.17
  Q 383.88 206.43 385.33 207.09
  Q 387.64 208.13 389.69 205.69
  Q 391.45 203.58 391.51 201.75
  A 1.25 0.58 37.3 0 0 391.09 200.95
  L 388.97 198.73
  A 1.52 0.40 51.6 0 0 388.21 198.16
  Q 385.17 197.34 383.67 199.99
  Q 383.46 200.36 383.05 200.75"
/>
<path stroke="#4d445d" vector-effect="non-scaling-stroke" d="
  M 583.8270 181.4594
  A 8.36 5.15 40.5 0 0 580.8147 172.1139
  A 8.36 5.15 40.5 0 0 571.1130 170.6006
  A 8.36 5.15 40.5 0 0 574.1253 179.9461
  A 8.36 5.15 40.5 0 0 583.8270 181.4594"
/>
<path stroke="#774358" vector-effect="non-scaling-stroke" d="
  M 265.22 336.66
  L 265.25 336.75
  Q 265.31 336.94 265.36 336.75
  Q 265.74 335.11 265.37 333.48
  A 1.33 1.26 13.3 0 0 264.86 332.70
  Q 261.46 330.23 258.56 332.56
  Q 256.32 334.36 258.14 336.92
  Q 258.41 337.30 258.45 337.80
  Q 258.64 339.76 260.75 339.50
  Q 263.51 339.16 265.14 336.64
  Q 265.19 336.56 265.22 336.66"
/>
<path stroke="#4d445d" vector-effect="non-scaling-stroke" d="
  M 253.5482 363.7811
  A 7.61 3.71 130.1 0 0 261.2879 360.3497
  A 7.61 3.71 130.1 0 0 263.3518 352.1389
  A 7.61 3.71 130.1 0 0 255.6121 355.5703
  A 7.61 3.71 130.1 0 0 253.5482 363.7811"
/>
<path stroke="#4d3748" vector-effect="non-scaling-stroke" d="
  M 250.74 557.63
  Q 252.19 553.42 251.00 548.25
  Q 250.14 544.51 247.73 542.29
  Q 246.03 540.72 243.88 540.57
  Q 241.69 540.42 239.50 541.50
  Q 231.49 545.44 232.14 553.42
  Q 232.41 556.78 234.77 558.97
  Q 238.20 562.15 243.25 562.49
  Q 248.94 562.87 250.74 557.63"
/>
<path stroke="#4d445d" vector-effect="non-scaling-stroke" d="
  M 151.2083 652.1037
  A 9.95 7.62 107.8 0 0 161.5052 644.9594
  A 9.95 7.62 107.8 0 0 157.2917 633.1563
  A 9.95 7.62 107.8 0 0 146.9948 640.3006
  A 9.95 7.62 107.8 0 0 151.2083 652.1037"
/>
<path stroke="#946b7f" vector-effect="non-scaling-stroke" d="
  M 706.50 228.71
  Q 707.80 228.93 709.00 228.46"
/>
<path stroke="#5e3144" vector-effect="non-scaling-stroke" d="
  M 709.00 228.46
  Q 709.96 228.76 710.56 228.06
  Q 712.59 225.70 712.25 223.75
  Q 711.93 221.93 710.26 221.95
  Q 709.70 221.96 709.30 221.77
  Q 705.39 219.91 702.98 222.47
  Q 701.33 224.23 702.09 226.38
  Q 703.02 229.01 706.50 228.71"
/>
<path stroke="#c97c98" vector-effect="non-scaling-stroke" d="
  M 709.00 228.46
  Q 711.43 226.24 709.87 224.16
  Q 709.11 223.14 707.76 223.11
  Q 706.49 223.08 705.25 223.54"
/>
<path stroke="#a24b65" vector-effect="non-scaling-stroke" d="
  M 705.25 223.54
  Q 703.02 222.93 703.50 224.54"
/>
<path stroke="#c97c98" vector-effect="non-scaling-stroke" d="
  M 703.50 224.54
  Q 703.02 228.07 706.50 228.71"
/>
<path stroke="#d785a0" vector-effect="non-scaling-stroke" d="
  M 703.50 224.54
  L 705.25 223.54"
/>
<path stroke="#e7b0c9" vector-effect="non-scaling-stroke" d="
  M 388.3217 200.4427
  A 2.66 2.15 -42.8 0 0 384.9092 200.6725
  A 2.66 2.15 -42.8 0 0 384.4183 204.0573
  A 2.66 2.15 -42.8 0 0 387.8308 203.8275
  A 2.66 2.15 -42.8 0 0 388.3217 200.4427"
/>
<path stroke="#92697d" vector-effect="non-scaling-stroke" d="
  M 836.04 472.00
  Q 835.50 476.03 838.69 477.06
  Q 842.03 478.15 843.04 474.50"
/>
<path stroke="#5c2f41" vector-effect="non-scaling-stroke" d="
  M 843.04 474.50
  Q 843.97 474.19 844.00 473.50
  Q 844.22 468.49 839.25 468.51
  Q 835.66 468.52 836.04 472.00"
/>
<path stroke="#c97c98" vector-effect="non-scaling-stroke" d="
  M 843.04 474.50
  Q 842.55 472.84 841.59 471.45
  Q 840.52 469.90 838.96 469.93
  Q 837.01 469.97 836.04 472.00"
/>
<path stroke="#271d29" vector-effect="non-scaling-stroke" d="
  M 305.69 739.19
  Q 302.93 741.06 302.59 743.52
  Q 302.28 745.84 304.51 747.69
  Q 308.12 750.69 313.75 750.00
  Q 325.23 748.59 323.00 737.50
  Q 322.58 735.39 320.85 734.42
  Q 319.53 733.68 317.44 734.07
  Q 311.66 735.13 305.69 739.19"
/>
<path stroke="#432c35" vector-effect="non-scaling-stroke" d="
  M 341.33 763.28
  Q 337.27 767.36 341.60 771.41
  Q 344.40 774.03 349.17 774.30
  A 1.31 1.27 25.9 0 0 350.08 774.00
  Q 356.47 768.70 352.48 763.10
  Q 350.81 760.77 348.44 760.29
  Q 345.97 759.80 343.19 760.94
  Q 341.96 761.44 341.74 762.45
  A 1.82 1.06 86.0 0 1 341.33 763.28"
/>
<path stroke="#92697d" vector-effect="non-scaling-stroke" d="
  M 647.55 799.93
  A 1.59 1.59 0.0 0 0 645.96 798.34
  A 1.59 1.59 0.0 0 0 644.37 799.93
  A 1.59 1.59 0.0 0 0 645.96 801.52
  A 1.59 1.59 0.0 0 0 647.55 799.93"
/>
<path stroke="#92697d" vector-effect="non-scaling-stroke" d="
  M 473.54 816.50
  Q 473.27 818.61 474.21 820.50"
/>
<path stroke="#7c4b64" vector-effect="non-scaling-stroke" d="
  M 474.21 820.50
  Q 476.94 824.87 482.06 822.56
  Q 483.72 821.81 484.00 820.71"
/>
<path stroke="#6b384a" vector-effect="non-scaling-stroke" d="
  M 484.00 820.71
  Q 485.96 819.25 485.75 817.21
  Q 485.62 815.96 485.01 813.74
  Q 484.30 811.17 481.50 810.21"
/>
<path stroke="#5c2f41" vector-effect="non-scaling-stroke" d="
  M 481.50 810.21
  Q 477.60 807.67 474.20 810.69
  Q 471.50 813.09 472.70 816.81
  Q 473.24 818.47 473.22 817.00
  Q 473.21 815.37 473.54 816.50"
/>
<path stroke="#a24b65" vector-effect="non-scaling-stroke" d="
  M 481.50 810.21
  Q 480.14 810.42 479.25 811.46"
/>
<path stroke="#c893a6" vector-effect="non-scaling-stroke" d="
  M 479.25 811.46
  Q 474.45 811.67 473.71 816.50"
/>
<path stroke="#c97c98" vector-effect="non-scaling-stroke" d="
  M 473.71 816.50
  L 473.54 816.50"
/>
<path stroke="#c16888" vector-effect="non-scaling-stroke" d="
  M 484.00 820.71
  Q 484.17 819.57 483.75 818.54"
/>
<path stroke="#d69caf" vector-effect="non-scaling-stroke" d="
  M 483.75 818.54
  Q 484.65 817.12 483.81 815.44
  Q 482.29 812.36 479.25 811.46"
/>
<path stroke="#e899bb" vector-effect="non-scaling-stroke" d="
  M 477.50 819.21
  L 474.21 820.50"
/>
<path stroke="#e7b0c9" vector-effect="non-scaling-stroke" d="
  M 483.75 818.54
  Q 480.67 819.58 477.50 819.21"
/>
<path stroke="#fdcde2" vector-effect="non-scaling-stroke" d="
  M 477.50 819.21
  Q 476.17 817.96 474.50 817.25
  Q 473.57 817.46 473.71 816.50"
/>
<path stroke="#9a5c73" vector-effect="non-scaling-stroke" d="
  M 574.50 258.96
  L 572.25 260.54"
/>
<path stroke="#894959" vector-effect="non-scaling-stroke" d="
  M 572.25 260.54
  Q 568.81 263.24 571.31 267.19
  Q 572.39 268.89 573.76 269.37
  A 1.97 1.23 68.4 0 1 574.51 269.92
  Q 575.56 271.18 578.76 269.33
  Q 580.09 268.57 581.10 267.41
  Q 583.35 264.83 581.79 260.50"
/>
<path stroke="#9a5c73" vector-effect="non-scaling-stroke" d="
  M 581.79 260.50
  L 579.21 258.25"
/>
<path stroke="#7a4050" vector-effect="non-scaling-stroke" d="
  M 579.21 258.25
  Q 576.42 256.59 574.50 258.96"
/>
<path stroke="#b35f7f" vector-effect="non-scaling-stroke" d="
  M 579.21 258.25
  L 574.50 258.96"
/>
<path stroke="#c16888" vector-effect="non-scaling-stroke" d="
  M 581.79 260.50
  Q 582.33 262.84 580.79 264.25"
/>
<path stroke="#e7b0c9" vector-effect="non-scaling-stroke" d="
  M 580.79 264.25
  Q 581.08 262.92 580.00 262.75
  Q 575.90 258.44 572.54 263.25"
/>
<path stroke="#c16888" vector-effect="non-scaling-stroke" d="
  M 572.54 263.25
  L 572.25 260.54"
/>
<path stroke="#d69caf" vector-effect="non-scaling-stroke" d="
  M 572.54 263.25
  Q 572.18 266.63 574.61 267.76
  Q 576.49 268.62 578.32 267.55
  Q 580.11 266.50 580.79 264.25"
/>
<path stroke="#956b7e" vector-effect="non-scaling-stroke" d="
  M 793.93 639.94
  A 3.46 3.46 0.0 0 0 790.47 636.48
  A 3.46 3.46 0.0 0 0 787.01 639.94
  A 3.46 3.46 0.0 0 0 790.47 643.40
  A 3.46 3.46 0.0 0 0 793.93 639.94"
/>
<path stroke="#d785a0" vector-effect="non-scaling-stroke" d="
  M 259.96 337.00
  Q 261.72 338.33 262.94 336.94
  Q 264.65 334.98 262.50 333.21"
/>
<path stroke="#c16888" vector-effect="non-scaling-stroke" d="
  M 262.50 333.21
  Q 258.96 331.84 258.76 335.24
  A 1.20 1.09 -67.7 0 0 259.08 336.12
  L 259.96 337.00"
/>
<path stroke="#e899bb" vector-effect="non-scaling-stroke" d="
  M 262.50 333.21
  Q 258.93 333.16 259.96 337.00"
/>
<path stroke="#783f55" vector-effect="non-scaling-stroke" d="
  M 246.31 556.06
  Q 248.10 554.37 248.45 551.80
  Q 248.80 549.29 247.51 547.43
  Q 245.68 544.78 242.11 546.03
  Q 239.20 547.06 237.96 549.89
  Q 236.99 552.09 237.87 553.82
  Q 238.53 555.11 240.21 556.61
  Q 243.06 559.14 246.31 556.06"
/>
<path stroke="#a24b65" vector-effect="non-scaling-stroke" d="
  M 239.79 553.75
  Q 239.84 555.00 241.44 555.81
  Q 243.74 556.98 244.25 555.21"
/>
<path stroke="#c893a6" vector-effect="non-scaling-stroke" d="
  M 244.25 555.21
  Q 247.28 553.63 245.76 550.46
  Q 244.32 547.46 241.56 549.06
  Q 239.06 550.51 239.79 553.75"
/>
<path stroke="#d69caf" vector-effect="non-scaling-stroke" d="
  M 244.25 555.21
  Q 241.50 555.81 239.79 553.75"
/>
<path stroke="#b07a8c" vector-effect="non-scaling-stroke" d="
  M 350.3356 770.2698
  A 5.02 4.25 41.4 0 0 349.3806 763.7620
  A 5.02 4.25 41.4 0 0 342.8044 763.6302
  A 5.02 4.25 41.4 0 0 343.7594 770.1380
  A 5.02 4.25 41.4 0 0 350.3356 770.2698"
/>
</g>
<path fill="#ffffff" d="
  M 0.00 0.00
  L 1024.00 0.00
  L 1024.00 1024.00
  L 0.00 1024.00
  L 0.00 0.00
  Z
  M 258.50 227.54
  Q 255.87 228.83 253.00 229.48
  Q 243.02 231.73 233.04 233.92
  Q 229.98 234.58 228.02 237.03
  Q 217.21 250.54 207.96 266.42
  A 3.00 2.90 50.8 0 0 207.75 268.92
  L 212.21 281.25
  Q 213.50 285.35 213.99 289.59
  Q 214.23 291.61 213.31 293.60
  Q 207.58 305.97 200.99 317.91
  Q 194.88 329.00 187.94 336.94
  Q 184.08 341.35 177.71 345.00
  Q 171.75 347.23 165.51 348.53
  Q 159.17 349.85 153.42 352.79
  Q 150.65 354.20 149.26 357.00
  Q 144.01 367.55 140.00 378.63
  Q 122.87 425.98 114.69 475.69
  Q 113.09 485.37 113.04 491.75
  Q 112.35 494.19 114.06 495.19
  Q 117.88 497.42 123.25 497.71
  Q 126.63 497.88 129.19 496.19
  Q 131.83 494.43 136.75 490.46
  Q 141.38 489.90 145.31 492.94
  Q 150.25 496.76 153.06 501.46
  Q 156.13 506.62 158.06 512.31
  Q 162.66 525.90 163.13 540.25
  Q 163.88 563.42 157.06 585.52
  Q 153.43 597.29 147.04 607.80
  Q 143.97 612.86 139.55 616.80
  Q 132.73 622.88 123.50 622.71
  Q 113.90 620.93 108.17 613.47
  Q 107.61 612.74 107.71 613.66
  Q 111.15 643.86 118.50 673.00
  Q 119.02 675.08 119.79 676.25
  L 120.58 678.76
  A 1.31 0.71 14.4 0 0 121.26 679.39
  L 139.21 687.75
  Q 174.49 704.68 204.25 730.04
  Q 236.88 760.25 268.81 792.70
  Q 270.19 794.10 270.58 796.02
  Q 273.42 809.95 279.83 823.31
  Q 280.86 825.45 281.84 826.62
  Q 283.21 828.25 284.81 829.19
  Q 299.47 837.73 316.96 843.14
  Q 331.62 847.67 342.75 850.25
  Q 394.98 862.33 450.30 868.24
  Q 459.08 869.18 470.20 870.29
  Q 510.13 874.28 550.25 875.44
  Q 564.92 875.86 576.00 874.50
  Q 607.86 870.59 634.26 869.99
  Q 651.69 869.59 668.97 867.26
  Q 672.05 866.85 675.09 866.20
  Q 681.28 864.89 685.84 860.60
  Q 697.82 849.34 707.30 836.70
  A 1.18 1.17 -52.4 0 0 707.09 835.07
  Q 701.45 830.67 697.55 825.64
  A 0.68 0.68 -46.7 0 1 697.53 824.84
  Q 700.82 820.10 705.19 817.19
  Q 710.72 813.49 724.81 805.06
  Q 742.00 794.78 761.45 777.19
  Q 812.19 731.30 840.85 669.14
  Q 870.05 605.80 886.03 538.00
  Q 888.81 526.18 890.00 518.41
  Q 892.56 501.63 892.50 483.75
  Q 892.43 464.99 887.52 447.66
  Q 885.82 441.66 881.32 431.86
  Q 873.33 414.46 865.94 395.06
  Q 846.70 344.60 831.40 301.79
  Q 824.38 282.14 818.33 262.25
  A 1.95 1.94 58.8 0 1 818.80 260.33
  Q 824.21 254.75 828.50 248.31
  Q 830.51 245.31 828.69 242.56
  Q 821.09 231.09 810.00 219.21
  Q 800.85 209.23 790.70 200.56
  A 1.06 1.05 47.4 0 0 789.40 200.50
  Q 786.93 202.26 784.36 203.66
  Q 778.15 207.04 772.60 204.92
  Q 769.49 203.73 764.08 198.15
  Q 759.35 193.27 756.19 189.56
  Q 744.78 176.17 733.18 165.68
  Q 731.68 164.32 730.48 163.73
  Q 728.85 162.94 727.25 162.75
  Q 700.67 159.55 667.50 156.76
  Q 647.11 155.05 626.75 152.96
  Q 610.51 150.26 594.77 145.43
  Q 569.09 137.56 543.04 131.00
  Q 523.29 125.49 503.04 122.27
  Q 495.69 121.10 488.08 121.25
  A 1.22 1.22 -16.2 0 0 487.06 123.10
  Q 489.00 126.33 490.72 129.91
  Q 493.28 135.26 493.64 137.05
  Q 494.67 142.22 490.19 146.21
  Q 485.82 150.10 480.50 151.25
  Q 467.68 154.01 455.66 148.89
  Q 452.50 147.54 450.96 145.75
  Q 448.94 143.41 448.57 140.35
  Q 448.37 138.66 446.74 138.15
  Q 431.37 133.35 415.50 130.67
  A 3.19 3.15 37.9 0 0 413.71 130.88
  Q 349.30 158.91 295.16 201.43
  Q 285.91 208.69 276.56 215.81
  Q 266.46 223.51 258.50 227.54
  Z
  M 262.21 167.50
  Q 265.53 169.02 269.05 168.91
  Q 272.48 168.80 275.38 166.70
  Q 280.24 163.16 282.50 156.50
  Q 283.54 153.42 281.75 151.71
  Q 280.78 150.40 279.00 151.00
  Q 269.55 154.16 262.56 160.21
  Q 260.62 161.88 260.33 163.43
  Q 259.90 165.78 262.21 167.50
  Z
  M 869.19 353.31
  Q 875.87 358.39 883.78 359.80
  Q 888.17 360.58 891.22 359.78
  Q 895.18 358.74 897.69 355.44
  Q 900.70 351.46 901.73 346.35
  Q 902.56 342.21 902.49 336.62
  Q 902.43 331.50 901.06 326.19
  Q 900.26 323.08 898.22 321.16
  Q 896.57 319.60 893.20 319.02
  Q 884.45 317.53 877.00 319.25
  Q 870.12 320.84 866.62 326.65
  Q 864.77 329.73 864.05 335.21
  Q 863.27 341.06 863.75 344.25
  Q 864.58 349.81 869.19 353.31
  Z
  M 877.06 658.55
  Q 881.23 659.22 884.26 655.03
  Q 891.13 645.50 893.39 634.04
  Q 894.08 630.53 894.12 629.97
  Q 894.34 626.63 891.22 626.35
  Q 889.36 626.18 886.50 627.51
  Q 881.34 629.92 876.55 632.98
  Q 872.06 635.83 870.58 638.68
  Q 868.69 642.34 869.00 647.25
  Q 869.27 651.62 871.28 654.65
  Q 873.49 657.97 877.06 658.55
  Z
  M 174.25 764.71
  Q 179.42 769.19 185.81 771.22
  Q 190.34 772.67 193.35 771.44
  Q 197.53 769.74 198.09 764.23
  Q 198.49 760.32 196.56 757.44
  Q 191.79 750.29 182.79 749.75
  Q 175.62 747.95 171.00 748.75
  Q 165.87 749.64 167.00 754.75
  Q 168.40 761.08 174.25 764.71
  Z"
/>
<path fill="#5b5678" d="
  M 543.04 131.00
  L 543.52 132.30
  A 1.02 0.77 57.0 0 1 543.46 133.16
  Q 536.82 142.43 524.50 147.00
  Q 510.02 152.37 493.30 152.71
  A 0.99 0.99 8.5 0 0 492.39 153.38
  Q 489.55 161.63 482.32 163.95
  Q 474.08 166.60 465.53 167.93
  Q 449.70 170.37 433.79 172.19
  Q 433.71 172.20 432.72 172.24
  Q 430.36 172.35 429.56 175.06
  Q 428.60 178.34 424.31 185.81
  Q 420.37 192.68 415.34 196.74
  Q 412.70 198.86 409.13 199.55
  Q 405.71 200.21 402.20 200.26
  Q 399.98 200.30 398.60 201.28
  Q 397.27 202.23 395.19 203.94
  Q 387.75 210.03 376.12 215.68
  Q 369.66 218.82 362.75 218.75
  Q 352.05 218.64 343.25 219.24
  Q 339.94 219.46 337.09 221.11
  Q 328.48 226.08 318.50 226.26
  Q 311.51 226.38 304.52 227.07
  A 2.26 2.25 -87.2 0 0 302.52 228.89
  Q 300.89 237.35 299.46 245.74
  Q 297.50 257.21 293.48 268.11
  Q 289.39 279.19 280.69 284.44
  Q 255.60 299.56 238.23 315.99
  Q 233.82 320.16 231.81 325.31
  Q 229.74 330.63 227.83 338.27
  Q 222.49 359.68 216.44 380.91
  Q 213.58 390.94 211.12 395.76
  Q 207.57 402.72 202.19 408.94
  Q 186.98 426.48 166.62 436.29
  Q 159.37 439.79 151.11 441.58
  A 0.70 0.70 -3.9 0 0 150.56 442.21
  Q 149.45 456.07 146.94 468.94
  Q 145.19 477.88 138.94 488.19
  Q 138.27 489.29 136.75 490.46
  Q 131.83 494.43 129.19 496.19
  Q 126.63 497.88 123.25 497.71
  Q 117.88 497.42 114.06 495.19
  Q 112.35 494.19 113.04 491.75
  Q 114.72 488.56 115.50 483.25
  Q 120.81 446.87 136.35 411.08
  Q 150.69 378.03 173.83 350.45
  Q 173.88 350.40 175.69 348.57
  Q 177.18 347.08 177.71 345.00
  Q 184.08 341.35 187.94 336.94
  Q 194.88 329.00 200.99 317.91
  Q 207.58 305.97 213.31 293.60
  Q 214.23 291.61 213.99 289.59
  Q 213.50 285.35 212.21 281.25
  Q 212.29 280.66 212.70 280.50
  A 1.13 0.62 -11.7 0 0 213.35 279.95
  Q 216.37 271.07 223.81 264.81
  Q 230.74 258.99 236.50 254.48
  Q 243.55 248.95 245.95 246.40
  Q 250.24 241.84 253.42 236.35
  Q 255.70 232.43 256.56 231.56
  Q 258.51 229.60 258.50 227.54
  Q 266.46 223.51 276.56 215.81
  Q 285.91 208.69 295.16 201.43
  Q 349.30 158.91 413.71 130.88
  A 3.19 3.15 37.9 0 1 415.50 130.67
  Q 431.37 133.35 446.74 138.15
  Q 448.37 138.66 448.57 140.35
  Q 448.94 143.41 450.96 145.75
  Q 452.50 147.54 455.66 148.89
  Q 467.68 154.01 480.50 151.25
  Q 485.82 150.10 490.19 146.21
  Q 494.67 142.22 493.64 137.05
  Q 493.28 135.26 490.72 129.91
  Q 489.00 126.33 487.06 123.10
  A 1.22 1.22 -16.2 0 1 488.08 121.25
  Q 495.69 121.10 503.04 122.27
  Q 523.29 125.49 543.04 131.00
  Z
  M 383.05 200.75
  Q 382.09 201.66 382.56 203.04
  Q 382.72 203.52 382.67 203.99
  Q 382.49 205.50 383.48 206.17
  Q 383.88 206.43 385.33 207.09
  Q 387.64 208.13 389.69 205.69
  Q 391.45 203.58 391.51 201.75
  A 1.25 0.58 37.3 0 0 391.09 200.95
  L 388.97 198.73
  A 1.52 0.40 51.6 0 0 388.21 198.16
  Q 385.17 197.34 383.67 199.99
  Q 383.46 200.36 383.05 200.75
  Z"
/>
<path fill="#3e3142" d="
  M 543.04 131.00
  Q 569.09 137.56 594.77 145.43
  Q 610.51 150.26 626.75 152.96
  Q 626.43 153.47 626.56 154.02
  Q 626.65 154.40 627.17 154.80
  Q 629.02 156.22 630.44 159.06
  Q 644.95 188.11 648.50 218.96
  Q 646.13 218.53 642.56 217.19
  Q 558.72 185.61 471.47 205.16
  Q 461.51 207.40 452.14 210.26
  Q 388.80 229.62 340.43 275.43
  Q 307.27 306.83 285.81 346.56
  Q 243.23 425.40 247.75 515.75
  Q 248.17 524.14 248.71 529.18
  Q 248.84 530.34 248.87 532.95
  Q 248.90 534.86 249.29 536.73
  Q 249.61 538.27 251.45 541.89
  Q 255.35 549.56 254.20 558.18
  Q 253.93 560.18 252.40 563.00
  Q 249.62 568.10 248.25 575.00
  Q 245.29 589.87 237.97 605.99
  Q 237.16 607.77 236.25 609.31
  Q 234.90 611.59 234.19 612.44
  Q 229.67 617.84 222.69 615.79
  Q 213.73 613.16 206.38 607.38
  Q 204.19 605.66 201.76 604.16
  A 0.50 0.49 25.3 0 0 201.03 604.42
  Q 194.97 622.18 186.29 638.68
  Q 181.00 648.73 175.69 655.61
  Q 165.24 669.17 150.56 679.81
  Q 145.24 683.67 140.72 685.55
  Q 139.94 685.87 139.65 686.37
  Q 139.29 686.98 139.21 687.75
  L 121.26 679.39
  A 1.31 0.71 14.4 0 1 120.58 678.76
  L 119.79 676.25
  Q 119.65 671.32 119.23 666.40
  Q 118.67 659.77 118.67 656.57
  Q 118.68 640.53 122.00 624.25
  Q 122.29 622.85 123.50 622.71
  Q 132.73 622.88 139.55 616.80
  Q 143.97 612.86 147.04 607.80
  Q 153.43 597.29 157.06 585.52
  Q 163.88 563.42 163.13 540.25
  Q 162.66 525.90 158.06 512.31
  Q 156.13 506.62 153.06 501.46
  Q 150.25 496.76 145.31 492.94
  Q 141.38 489.90 136.75 490.46
  Q 138.27 489.29 138.94 488.19
  Q 145.19 477.88 146.94 468.94
  Q 149.45 456.07 150.56 442.21
  A 0.70 0.70 -3.9 0 1 151.11 441.58
  Q 159.37 439.79 166.62 436.29
  Q 186.98 426.48 202.19 408.94
  Q 207.57 402.72 211.12 395.76
  Q 213.58 390.94 216.44 380.91
  Q 222.49 359.68 227.83 338.27
  Q 229.74 330.63 231.81 325.31
  Q 233.82 320.16 238.23 315.99
  Q 255.60 299.56 280.69 284.44
  Q 289.39 279.19 293.48 268.11
  Q 297.50 257.21 299.46 245.74
  Q 300.89 237.35 302.52 228.89
  A 2.26 2.25 -87.2 0 1 304.52 227.07
  Q 311.51 226.38 318.50 226.26
  Q 328.48 226.08 337.09 221.11
  Q 339.94 219.46 343.25 219.24
  Q 352.05 218.64 362.75 218.75
  Q 369.66 218.82 376.12 215.68
  Q 387.75 210.03 395.19 203.94
  Q 397.27 202.23 398.60 201.28
  Q 399.98 200.30 402.20 200.26
  Q 405.71 200.21 409.13 199.55
  Q 412.70 198.86 415.34 196.74
  Q 420.37 192.68 424.31 185.81
  Q 428.60 178.34 429.56 175.06
  Q 430.36 172.35 432.72 172.24
  Q 433.71 172.20 433.79 172.19
  Q 449.70 170.37 465.53 167.93
  Q 474.08 166.60 482.32 163.95
  Q 489.55 161.63 492.39 153.38
  A 0.99 0.99 8.5 0 1 493.30 152.71
  Q 510.02 152.37 524.50 147.00
  Q 536.82 142.43 543.46 133.16
  A 1.02 0.77 57.0 0 0 543.52 132.30
  L 543.04 131.00
  Z
  M 583.8270 181.4594
  A 8.36 5.15 40.5 0 0 580.8147 172.1139
  A 8.36 5.15 40.5 0 0 571.1130 170.6006
  A 8.36 5.15 40.5 0 0 574.1253 179.9461
  A 8.36 5.15 40.5 0 0 583.8270 181.4594
  Z
  M 265.22 336.66
  L 265.25 336.75
  Q 265.31 336.94 265.36 336.75
  Q 265.74 335.11 265.37 333.48
  A 1.33 1.26 13.3 0 0 264.86 332.70
  Q 261.46 330.23 258.56 332.56
  Q 256.32 334.36 258.14 336.92
  Q 258.41 337.30 258.45 337.80
  Q 258.64 339.76 260.75 339.50
  Q 263.51 339.16 265.14 336.64
  Q 265.19 336.56 265.22 336.66
  Z
  M 253.5482 363.7811
  A 7.61 3.71 130.1 0 0 261.2879 360.3497
  A 7.61 3.71 130.1 0 0 263.3518 352.1389
  A 7.61 3.71 130.1 0 0 255.6121 355.5703
  A 7.61 3.71 130.1 0 0 253.5482 363.7811
  Z
  M 250.74 557.63
  Q 252.19 553.42 251.00 548.25
  Q 250.14 544.51 247.73 542.29
  Q 246.03 540.72 243.88 540.57
  Q 241.69 540.42 239.50 541.50
  Q 231.49 545.44 232.14 553.42
  Q 232.41 556.78 234.77 558.97
  Q 238.20 562.15 243.25 562.49
  Q 248.94 562.87 250.74 557.63
  Z
  M 151.2083 652.1037
  A 9.95 7.62 107.8 0 0 161.5052 644.9594
  A 9.95 7.62 107.8 0 0 157.2917 633.1563
  A 9.95 7.62 107.8 0 0 146.9948 640.3006
  A 9.95 7.62 107.8 0 0 151.2083 652.1037
  Z"
/>
<path fill="#6c657e" d="
  M 281.75 151.71
  Q 281.20 152.09 280.75 152.57
  Q 280.22 153.11 279.73 153.38
  Q 269.74 158.90 262.21 167.50
  Q 259.90 165.78 260.33 163.43
  Q 260.62 161.88 262.56 160.21
  Q 269.55 154.16 279.00 151.00
  Q 280.78 150.40 281.75 151.71
  Z"
/>
<path fill="#41384f" d="
  M 281.75 151.71
  Q 283.54 153.42 282.50 156.50
  Q 280.24 163.16 275.38 166.70
  Q 272.48 168.80 269.05 168.91
  Q 265.53 169.02 262.21 167.50
  Q 269.74 158.90 279.73 153.38
  Q 280.22 153.11 280.75 152.57
  Q 281.20 152.09 281.75 151.71
  Z"
/>
<path fill="#291f2b" d="
  M 626.75 152.96
  Q 647.11 155.05 667.50 156.76
  Q 700.67 159.55 727.25 162.75
  Q 728.85 162.94 730.48 163.73
  Q 731.68 164.32 733.18 165.68
  Q 744.78 176.17 756.19 189.56
  Q 759.35 193.27 764.08 198.15
  Q 769.49 203.73 772.60 204.92
  Q 778.15 207.04 784.36 203.66
  Q 786.93 202.26 789.40 200.50
  A 1.06 1.05 47.4 0 1 790.70 200.56
  Q 800.85 209.23 810.00 219.21
  Q 809.15 219.75 809.81 220.25
  A 0.33 0.31 46.0 0 1 809.82 220.77
  Q 808.68 221.51 807.85 222.59
  Q 805.78 225.28 803.58 227.84
  Q 794.52 238.36 782.49 236.50
  Q 777.54 235.73 767.70 230.46
  Q 760.50 226.61 753.69 222.61
  Q 750.93 220.98 751.48 224.14
  Q 753.04 233.02 757.06 240.94
  Q 758.88 244.52 764.75 255.00
  Q 768.24 261.23 769.17 269.08
  Q 769.92 275.42 768.52 281.85
  Q 767.14 288.18 764.22 294.06
  A 1.08 1.06 -83.7 0 1 763.52 294.63
  Q 758.47 295.92 755.13 291.84
  Q 754.02 290.48 754.48 291.52
  Q 754.56 291.68 754.70 291.83
  Q 756.85 294.10 757.96 297.00
  Q 713.15 245.43 651.19 220.31
  Q 648.95 219.41 648.50 218.96
  Q 644.95 188.11 630.44 159.06
  Q 629.02 156.22 627.17 154.80
  Q 626.65 154.40 626.56 154.02
  Q 626.43 153.47 626.75 152.96
  Z
  M 706.50 228.71
  Q 707.80 228.93 709.00 228.46
  Q 709.96 228.76 710.56 228.06
  Q 712.59 225.70 712.25 223.75
  Q 711.93 221.93 710.26 221.95
  Q 709.70 221.96 709.30 221.77
  Q 705.39 219.91 702.98 222.47
  Q 701.33 224.23 702.09 226.38
  Q 703.02 229.01 706.50 228.71
  Z"
/>
<ellipse fill="#5b5678" cx="0.00" cy="0.00" transform="translate(577.47,176.03) rotate(40.5)" rx="8.36" ry="5.15"/>
<path fill="#312632" d="
  M 648.50 218.96
  Q 648.95 219.41 651.19 220.31
  Q 713.15 245.43 757.96 297.00
  L 760.75 300.46
  L 760.62 300.76
  A 0.68 0.37 46.6 0 0 760.77 301.31
  L 765.23 307.33
  A 0.48 0.44 -33.6 0 1 765.07 307.99
  Q 763.34 309.04 762.35 310.84
  Q 760.91 313.44 759.65 316.14
  Q 758.80 317.95 757.83 319.00
  Q 756.46 320.49 755.19 321.19
  Q 752.91 322.43 752.35 324.52
  A 1.58 1.35 81.6 0 1 751.86 325.30
  Q 749.72 327.05 748.73 329.70
  Q 748.21 331.12 746.81 331.29
  A 1.42 0.99 9.1 0 0 745.98 331.69
  Q 743.06 335.15 744.03 339.60
  Q 744.50 341.75 743.02 342.56
  A 0.68 0.67 55.8 0 0 742.83 343.58
  Q 744.47 345.56 743.29 345.75
  Q 738.33 337.55 731.56 325.44
  Q 724.02 311.92 713.67 295.15
  Q 708.94 287.49 703.01 280.73
  Q 693.05 269.39 677.76 271.60
  Q 671.75 272.46 665.75 273.35
  Q 657.69 274.55 653.68 274.49
  Q 642.61 274.33 632.32 269.68
  Q 617.08 262.79 602.06 255.44
  Q 587.52 248.32 575.00 244.46
  Q 561.98 239.90 543.25 237.50
  Q 532.94 236.18 524.57 236.44
  Q 518.65 236.63 510.65 238.86
  Q 481.96 246.85 451.94 258.44
  Q 428.82 267.36 408.33 277.61
  Q 396.07 283.74 390.59 286.85
  Q 373.55 296.53 359.69 309.94
  Q 339.51 329.45 324.03 354.02
  Q 313.15 371.28 306.22 390.49
  Q 298.83 410.98 297.28 432.73
  Q 296.29 446.69 296.25 451.50
  Q 296.13 464.80 293.50 475.00
  Q 290.39 487.06 283.99 506.31
  Q 282.70 510.17 282.55 513.88
  Q 282.12 524.32 282.50 541.00
  Q 283.08 566.84 284.49 584.75
  Q 284.94 590.57 286.03 596.69
  Q 286.86 601.35 288.19 608.56
  Q 290.64 621.93 294.99 633.64
  Q 307.57 667.53 337.92 687.03
  Q 352.81 696.60 370.25 703.00
  Q 382.67 707.56 386.00 708.71
  Q 400.07 712.89 412.84 719.91
  Q 417.19 722.30 424.28 727.11
  Q 429.89 730.91 435.50 734.71
  Q 434.64 735.96 433.27 736.61
  A 1.57 1.46 -0.4 0 0 432.58 737.26
  Q 431.76 738.77 430.51 739.91
  Q 429.13 741.17 428.30 742.35
  Q 427.46 743.56 426.41 744.59
  Q 425.36 745.61 424.72 746.89
  Q 422.39 751.55 417.48 753.76
  Q 415.39 754.70 413.96 756.50
  Q 411.92 759.09 407.46 760.50
  A 1.26 1.26 -0.5 0 0 406.62 761.35
  Q 406.22 762.72 405.36 763.65
  A 1.44 0.93 76.7 0 0 405.06 764.50
  Q 405.05 765.24 404.10 764.86
  Q 402.95 764.40 401.75 764.29
  Q 369.05 749.12 341.69 725.92
  Q 334.10 719.48 327.10 712.27
  Q 307.77 692.33 292.49 668.60
  Q 290.26 665.14 287.80 668.44
  Q 287.09 669.40 284.55 670.48
  Q 284.51 670.50 281.88 671.26
  Q 279.66 671.90 278.46 673.88
  Q 278.42 673.95 277.82 676.11
  Q 277.29 678.01 274.48 677.73
  Q 271.63 677.44 270.75 681.37
  Q 270.29 683.41 268.65 684.11
  L 265.22 685.57
  A 1.39 1.25 -0.7 0 0 264.54 686.20
  Q 262.79 689.75 259.29 691.69
  Q 259.09 691.80 259.30 691.90
  Q 259.70 692.09 259.06 692.31
  Q 255.72 693.47 254.44 697.44
  Q 254.38 697.61 254.16 697.71
  A 0.51 0.43 -16.5 0 0 253.86 698.17
  Q 254.08 700.17 251.98 699.64
  A 1.13 0.87 -51.1 0 0 251.15 699.84
  L 247.88 702.20
  Q 247.34 702.60 247.17 702.86
  Q 245.72 705.08 244.50 706.00
  Q 243.00 707.13 241.18 706.24
  A 1.32 1.10 45.5 0 0 240.27 706.15
  Q 237.78 706.99 235.75 708.55
  Q 233.55 710.25 231.95 710.89
  Q 230.09 711.63 227.75 712.62
  A 1.99 1.98 80.8 0 0 226.53 714.33
  Q 226.38 716.82 223.50 717.50
  Q 221.06 718.08 220.56 718.56
  Q 217.82 721.25 214.00 721.71
  Q 212.04 721.95 211.16 723.49
  A 1.37 0.86 -73.6 0 1 210.47 724.10
  Q 209.77 724.29 209.05 724.18
  A 1.53 0.87 -42.9 0 0 208.19 724.38
  L 205.17 726.04
  A 1.26 0.72 -16.9 0 0 204.58 726.67
  Q 204.31 727.60 203.67 728.32
  A 0.28 0.28 28.3 0 0 203.81 728.78
  Q 204.99 729.09 204.25 730.04
  Q 174.49 704.68 139.21 687.75
  Q 139.29 686.98 139.65 686.37
  Q 139.94 685.87 140.72 685.55
  Q 145.24 683.67 150.56 679.81
  Q 165.24 669.17 175.69 655.61
  Q 181.00 648.73 186.29 638.68
  Q 194.97 622.18 201.03 604.42
  A 0.50 0.49 25.3 0 1 201.76 604.16
  Q 204.19 605.66 206.38 607.38
  Q 213.73 613.16 222.69 615.79
  Q 229.67 617.84 234.19 612.44
  Q 234.90 611.59 236.25 609.31
  Q 237.16 607.77 237.97 605.99
  Q 245.29 589.87 248.25 575.00
  Q 249.62 568.10 252.40 563.00
  Q 253.93 560.18 254.20 558.18
  Q 255.35 549.56 251.45 541.89
  Q 249.61 538.27 249.29 536.73
  Q 248.90 534.86 248.87 532.95
  Q 248.84 530.34 248.71 529.18
  Q 248.17 524.14 247.75 515.75
  Q 243.23 425.40 285.81 346.56
  Q 307.27 306.83 340.43 275.43
  Q 388.80 229.62 452.14 210.26
  Q 461.51 207.40 471.47 205.16
  Q 558.72 185.61 642.56 217.19
  Q 646.13 218.53 648.50 218.96
  Z"
/>
<path fill="#d27ba2" d="
  M 383.67 199.99
  Q 385.17 197.34 388.21 198.16
  A 1.52 0.40 51.6 0 1 388.97 198.73
  L 391.09 200.95
  A 1.25 0.58 37.3 0 1 391.51 201.75
  Q 391.45 203.58 389.69 205.69
  Q 387.64 208.13 385.33 207.09
  Q 383.88 206.43 383.48 206.17
  Q 382.49 205.50 382.67 203.99
  Q 382.72 203.52 382.56 203.04
  Q 382.09 201.66 383.05 200.75
  Q 383.46 200.36 383.67 199.99
  Z
  M 388.3217 200.4427
  A 2.66 2.15 -42.8 0 0 384.9092 200.6725
  A 2.66 2.15 -42.8 0 0 384.4183 204.0573
  A 2.66 2.15 -42.8 0 0 387.8308 203.8275
  A 2.66 2.15 -42.8 0 0 388.3217 200.4427
  Z"
/>
<ellipse fill="#fce4f0" cx="0.00" cy="0.00" transform="translate(386.37,202.25) rotate(-42.8)" rx="2.66" ry="2.15"/>
<path fill="#251b26" d="
  M 810.00 219.21
  Q 821.09 231.09 828.69 242.56
  Q 830.51 245.31 828.50 248.31
  Q 824.21 254.75 818.80 260.33
  A 1.95 1.94 58.8 0 0 818.33 262.25
  Q 824.38 282.14 831.40 301.79
  Q 846.70 344.60 865.94 395.06
  Q 873.33 414.46 881.32 431.86
  Q 885.82 441.66 887.52 447.66
  Q 892.43 464.99 892.50 483.75
  Q 892.56 501.63 890.00 518.41
  Q 888.81 526.18 886.03 538.00
  Q 870.05 605.80 840.85 669.14
  Q 812.19 731.30 761.45 777.19
  Q 742.00 794.78 724.81 805.06
  Q 710.72 813.49 705.19 817.19
  Q 700.82 820.10 697.53 824.84
  A 0.68 0.68 -46.7 0 0 697.55 825.64
  Q 701.45 830.67 707.09 835.07
  A 1.18 1.17 -52.4 0 1 707.30 836.70
  Q 697.82 849.34 685.84 860.60
  Q 681.28 864.89 675.09 866.20
  Q 672.05 866.85 668.97 867.26
  Q 651.69 869.59 634.26 869.99
  Q 607.86 870.59 576.00 874.50
  Q 564.92 875.86 550.25 875.44
  Q 510.13 874.28 470.20 870.29
  Q 459.08 869.18 450.30 868.24
  Q 394.98 862.33 342.75 850.25
  Q 331.62 847.67 316.96 843.14
  Q 299.47 837.73 284.81 829.19
  Q 283.21 828.25 281.84 826.62
  Q 280.86 825.45 279.83 823.31
  Q 273.42 809.95 270.58 796.02
  Q 270.19 794.10 268.81 792.70
  Q 236.88 760.25 204.25 730.04
  Q 204.99 729.09 203.81 728.78
  A 0.28 0.28 28.3 0 1 203.67 728.32
  Q 204.31 727.60 204.58 726.67
  A 1.26 0.72 -16.9 0 1 205.17 726.04
  L 208.19 724.38
  A 1.53 0.87 -42.9 0 1 209.05 724.18
  Q 209.77 724.29 210.47 724.10
  A 1.37 0.86 -73.6 0 0 211.16 723.49
  Q 212.04 721.95 214.00 721.71
  Q 217.82 721.25 220.56 718.56
  Q 221.06 718.08 223.50 717.50
  Q 226.38 716.82 226.53 714.33
  A 1.99 1.98 80.8 0 1 227.75 712.62
  Q 230.09 711.63 231.95 710.89
  Q 233.55 710.25 235.75 708.55
  Q 237.78 706.99 240.27 706.15
  A 1.32 1.10 45.5 0 1 241.18 706.24
  Q 243.00 707.13 244.50 706.00
  Q 245.72 705.08 247.17 702.86
  Q 247.34 702.60 247.88 702.20
  L 251.15 699.84
  A 1.13 0.87 -51.1 0 1 251.98 699.64
  Q 254.08 700.17 253.86 698.17
  A 0.51 0.43 -16.5 0 1 254.16 697.71
  Q 254.38 697.61 254.44 697.44
  Q 255.72 693.47 259.06 692.31
  Q 259.70 692.09 259.30 691.90
  Q 259.09 691.80 259.29 691.69
  Q 262.79 689.75 264.54 686.20
  A 1.39 1.25 -0.7 0 1 265.22 685.57
  L 268.65 684.11
  Q 270.29 683.41 270.75 681.37
  Q 271.63 677.44 274.48 677.73
  Q 277.29 678.01 277.82 676.11
  Q 278.42 673.95 278.46 673.88
  Q 279.66 671.90 281.88 671.26
  Q 284.51 670.50 284.55 670.48
  Q 287.09 669.40 287.80 668.44
  Q 290.26 665.14 292.49 668.60
  Q 307.77 692.33 327.10 712.27
  Q 334.10 719.48 341.69 725.92
  Q 369.05 749.12 401.75 764.29
  Q 418.93 772.62 439.56 778.19
  Q 471.03 786.69 501.57 788.18
  Q 516.67 788.92 528.69 788.81
  Q 549.85 788.62 571.45 784.48
  Q 642.87 770.82 701.07 728.33
  Q 709.27 722.35 716.78 715.96
  Q 749.67 688.02 773.72 651.96
  Q 777.20 646.75 781.20 641.92
  A 1.39 1.39 49.8 0 1 783.47 642.11
  Q 785.37 645.41 788.58 647.49
  A 1.34 1.33 57.0 0 0 789.49 647.69
  Q 797.22 646.61 796.00 638.50
  Q 795.39 634.51 791.50 633.75
  A 3.55 0.83 8.4 0 1 788.81 632.69
  Q 787.79 631.00 788.03 629.16
  Q 788.17 628.10 789.34 625.99
  Q 817.58 575.09 824.00 514.50
  Q 825.35 501.76 825.36 491.49
  Q 825.36 489.47 825.04 471.50
  Q 824.61 447.10 819.06 421.44
  Q 804.32 353.19 760.75 300.46
  L 757.96 297.00
  Q 756.85 294.10 754.70 291.83
  Q 754.56 291.68 754.48 291.52
  Q 754.02 290.48 755.13 291.84
  Q 758.47 295.92 763.52 294.63
  A 1.08 1.06 -83.7 0 0 764.22 294.06
  Q 767.14 288.18 768.52 281.85
  Q 769.92 275.42 769.17 269.08
  Q 768.24 261.23 764.75 255.00
  Q 758.88 244.52 757.06 240.94
  Q 753.04 233.02 751.48 224.14
  Q 750.93 220.98 753.69 222.61
  Q 760.50 226.61 767.70 230.46
  Q 777.54 235.73 782.49 236.50
  Q 794.52 238.36 803.58 227.84
  Q 805.78 225.28 807.85 222.59
  Q 808.68 221.51 809.82 220.77
  A 0.33 0.31 46.0 0 0 809.81 220.25
  Q 809.15 219.75 810.00 219.21
  Z
  M 836.04 472.00
  Q 835.50 476.03 838.69 477.06
  Q 842.03 478.15 843.04 474.50
  Q 843.97 474.19 844.00 473.50
  Q 844.22 468.49 839.25 468.51
  Q 835.66 468.52 836.04 472.00
  Z
  M 305.69 739.19
  Q 302.93 741.06 302.59 743.52
  Q 302.28 745.84 304.51 747.69
  Q 308.12 750.69 313.75 750.00
  Q 325.23 748.59 323.00 737.50
  Q 322.58 735.39 320.85 734.42
  Q 319.53 733.68 317.44 734.07
  Q 311.66 735.13 305.69 739.19
  Z
  M 341.33 763.28
  Q 337.27 767.36 341.60 771.41
  Q 344.40 774.03 349.17 774.30
  A 1.31 1.27 25.9 0 0 350.08 774.00
  Q 356.47 768.70 352.48 763.10
  Q 350.81 760.77 348.44 760.29
  Q 345.97 759.80 343.19 760.94
  Q 341.96 761.44 341.74 762.45
  A 1.82 1.06 86.0 0 1 341.33 763.28
  Z
  M 647.55 799.93
  A 1.59 1.59 0.0 0 0 645.96 798.34
  A 1.59 1.59 0.0 0 0 644.37 799.93
  A 1.59 1.59 0.0 0 0 645.96 801.52
  A 1.59 1.59 0.0 0 0 647.55 799.93
  Z
  M 473.54 816.50
  Q 473.27 818.61 474.21 820.50
  Q 476.94 824.87 482.06 822.56
  Q 483.72 821.81 484.00 820.71
  Q 485.96 819.25 485.75 817.21
  Q 485.62 815.96 485.01 813.74
  Q 484.30 811.17 481.50 810.21
  Q 477.60 807.67 474.20 810.69
  Q 471.50 813.09 472.70 816.81
  Q 473.24 818.47 473.22 817.00
  Q 473.21 815.37 473.54 816.50
  Z"
/>
<path fill="#93425c" d="
  M 709.00 228.46
  Q 711.43 226.24 709.87 224.16
  Q 709.11 223.14 707.76 223.11
  Q 706.49 223.08 705.25 223.54
  Q 703.02 222.93 703.50 224.54
  Q 703.02 228.07 706.50 228.71
  Q 703.02 229.01 702.09 226.38
  Q 701.33 224.23 702.98 222.47
  Q 705.39 219.91 709.30 221.77
  Q 709.70 221.96 710.26 221.95
  Q 711.93 221.93 712.25 223.75
  Q 712.59 225.70 710.56 228.06
  Q 709.96 228.76 709.00 228.46
  Z"
/>
<path fill="#feb6d3" d="
  M 709.00 228.46
  Q 707.80 228.93 706.50 228.71
  Q 703.02 228.07 703.50 224.54
  L 705.25 223.54
  Q 706.49 223.08 707.76 223.11
  Q 709.11 223.14 709.87 224.16
  Q 711.43 226.24 709.00 228.46
  Z"
/>
<path fill="#b0546d" d="
  M 705.25 223.54
  L 703.50 224.54
  Q 703.02 222.93 705.25 223.54
  Z"
/>
<path fill="#8b7b96" d="
  M 258.50 227.54
  Q 258.51 229.60 256.56 231.56
  Q 255.70 232.43 253.42 236.35
  Q 250.24 241.84 245.95 246.40
  Q 243.55 248.95 236.50 254.48
  Q 230.74 258.99 223.81 264.81
  Q 216.37 271.07 213.35 279.95
  A 1.13 0.62 -11.7 0 1 212.70 280.50
  Q 212.29 280.66 212.21 281.25
  L 207.75 268.92
  A 3.00 2.90 50.8 0 1 207.96 266.42
  Q 217.21 250.54 228.02 237.03
  Q 229.98 234.58 233.04 233.92
  Q 243.02 231.73 253.00 229.48
  Q 255.87 228.83 258.50 227.54
  Z"
/>
<path fill="#402c37" d="
  M 575.00 244.46
  Q 574.52 245.00 574.83 245.45
  Q 575.17 245.94 575.20 246.01
  Q 575.61 247.13 575.33 248.21
  Q 575.11 249.09 574.02 249.74
  Q 570.92 251.60 567.68 253.22
  Q 566.55 253.78 563.51 254.60
  Q 561.35 255.19 559.43 256.43
  Q 557.43 257.71 555.24 258.04
  Q 553.47 258.30 553.07 260.04
  Q 552.69 261.69 551.37 261.45
  Q 550.16 261.22 550.10 261.22
  Q 547.17 261.22 548.20 263.62
  A 1.52 1.51 68.9 0 1 547.31 265.64
  Q 542.74 267.24 538.91 269.55
  Q 538.86 269.58 535.85 271.76
  Q 533.04 273.78 529.56 274.47
  A 1.24 1.21 -78.3 0 0 528.80 274.98
  Q 527.15 277.40 523.25 279.00
  Q 520.45 280.15 519.35 283.89
  A 0.36 0.31 13.7 0 0 519.63 284.29
  Q 520.23 284.43 519.00 284.96
  Q 496.84 285.23 487.50 286.50
  Q 422.37 295.39 376.13 341.63
  Q 347.46 370.29 331.56 406.81
  Q 307.29 462.55 314.25 523.75
  Q 320.09 575.10 350.75 617.71
  Q 350.35 618.53 350.03 618.18
  Q 349.34 617.44 348.82 616.56
  Q 347.73 614.69 347.15 615.49
  A 1.58 1.23 -76.1 0 1 346.45 616.04
  Q 345.52 616.34 345.25 617.50
  Q 344.39 621.16 344.75 624.25
  Q 344.89 625.45 346.62 626.45
  A 1.15 0.68 20.9 0 1 347.20 627.18
  L 347.33 629.76
  Q 347.36 630.47 347.48 630.70
  Q 348.22 632.17 348.84 633.69
  Q 349.08 634.26 349.22 635.51
  Q 349.34 636.48 349.78 637.32
  Q 350.28 638.28 351.79 639.06
  Q 353.71 640.06 355.34 641.01
  Q 357.41 642.22 356.81 644.55
  Q 356.31 646.51 357.17 647.93
  Q 357.28 648.11 359.56 649.76
  Q 360.78 650.65 361.20 652.20
  A 1.33 1.21 -84.0 0 0 361.74 652.93
  Q 365.31 655.10 363.52 659.26
  Q 361.91 663.02 362.67 666.89
  Q 363.10 669.12 363.40 669.57
  Q 364.16 670.68 366.30 670.79
  A 0.93 0.92 85.4 0 1 367.15 671.52
  Q 367.85 674.89 370.48 676.12
  A 1.62 1.27 3.4 0 1 371.18 676.74
  Q 373.40 680.73 373.25 683.00
  Q 373.08 685.70 375.69 687.56
  Q 379.34 690.17 380.07 694.81
  Q 380.46 697.30 381.19 698.99
  Q 382.59 702.24 383.25 705.75
  A 2.64 1.74 86.5 0 0 384.75 707.75
  Q 385.63 707.95 386.00 708.71
  Q 382.67 707.56 370.25 703.00
  Q 352.81 696.60 337.92 687.03
  Q 307.57 667.53 294.99 633.64
  Q 290.64 621.93 288.19 608.56
  Q 286.86 601.35 286.03 596.69
  Q 284.94 590.57 284.49 584.75
  Q 283.08 566.84 282.50 541.00
  Q 282.12 524.32 282.55 513.88
  Q 282.70 510.17 283.99 506.31
  Q 290.39 487.06 293.50 475.00
  Q 296.13 464.80 296.25 451.50
  Q 296.29 446.69 297.28 432.73
  Q 298.83 410.98 306.22 390.49
  Q 313.15 371.28 324.03 354.02
  Q 339.51 329.45 359.69 309.94
  Q 373.55 296.53 390.59 286.85
  Q 396.07 283.74 408.33 277.61
  Q 428.82 267.36 451.94 258.44
  Q 481.96 246.85 510.65 238.86
  Q 518.65 236.63 524.57 236.44
  Q 532.94 236.18 543.25 237.50
  Q 561.98 239.90 575.00 244.46
  Z"
/>
<path fill="#613d44" d="
  M 575.00 244.46
  Q 587.52 248.32 602.06 255.44
  Q 617.08 262.79 632.32 269.68
  Q 642.61 274.33 653.68 274.49
  Q 657.69 274.55 665.75 273.35
  Q 671.75 272.46 677.76 271.60
  Q 693.05 269.39 703.01 280.73
  Q 708.94 287.49 713.67 295.15
  Q 724.02 311.92 731.56 325.44
  Q 738.33 337.55 743.29 345.75
  Q 747.58 352.40 753.74 357.18
  Q 754.82 358.02 761.23 361.65
  Q 771.90 367.70 777.25 379.15
  Q 780.79 386.73 781.75 390.75
  Q 787.89 416.52 789.62 442.91
  Q 790.27 452.75 790.57 456.57
  Q 791.11 463.41 791.50 470.25
  Q 792.02 479.32 795.13 491.78
  Q 797.72 502.14 797.20 512.59
  Q 796.86 519.18 793.46 532.17
  Q 785.33 563.21 783.75 570.25
  Q 778.34 594.36 763.26 611.01
  Q 760.93 613.60 760.89 613.64
  Q 752.25 623.44 748.06 629.56
  Q 729.45 656.75 713.93 685.25
  Q 713.10 686.76 711.44 687.20
  Q 692.95 692.06 675.81 700.06
  Q 666.30 704.51 651.75 712.54
  Q 650.20 712.63 648.91 713.46
  A 1.00 0.77 -44.5 0 1 648.04 713.57
  L 644.23 711.69
  A 1.50 1.23 86.9 0 1 643.57 710.97
  Q 641.89 707.16 638.43 708.40
  Q 636.00 709.27 633.98 707.98
  A 0.64 0.56 -63.8 0 1 633.78 707.24
  L 635.59 702.44
  Q 635.92 701.58 635.12 702.08
  Q 632.73 703.58 631.09 706.02
  A 0.66 0.48 42.9 0 0 631.23 706.73
  Q 631.63 707.18 631.13 707.84
  Q 631.03 707.97 630.82 708.09
  Q 630.29 708.40 630.84 708.60
  Q 631.10 708.69 630.84 708.74
  L 628.73 709.14
  A 1.70 1.28 45.5 0 1 627.81 709.00
  Q 626.60 708.44 625.59 709.38
  Q 625.07 709.87 624.80 709.98
  Q 623.80 710.39 623.81 709.31
  Q 624.31 708.59 623.25 708.71
  Q 639.99 697.32 649.93 679.68
  Q 652.85 674.49 655.93 669.11
  Q 656.92 667.37 658.86 666.85
  Q 664.06 665.46 669.94 663.44
  Q 676.90 661.04 682.90 653.96
  Q 682.93 653.92 684.83 651.31
  Q 686.86 648.52 690.00 646.96
  L 702.75 643.61
  A 1.68 1.48 45.0 0 1 703.73 643.67
  L 711.64 646.56
  A 1.62 1.57 34.1 0 0 713.26 646.27
  Q 716.47 643.44 719.21 639.90
  Q 721.92 636.39 722.00 636.29
  Q 735.78 619.13 745.31 600.66
  Q 746.68 598.00 746.75 595.02
  Q 746.97 586.01 749.00 577.25
  Q 750.05 572.72 754.54 566.25
  Q 761.14 557.03 767.18 547.43
  Q 774.06 536.49 774.06 523.50
  Q 774.04 502.25 774.15 481.00
  Q 774.24 461.48 769.25 445.25
  Q 755.31 399.95 728.44 357.56
  Q 723.46 349.71 716.29 341.25
  Q 692.42 311.90 657.00 298.54
  Q 644.94 294.06 632.29 291.75
  Q 594.05 284.07 555.08 284.18
  Q 553.09 284.19 542.92 284.03
  Q 536.84 283.93 530.76 284.33
  Q 530.39 284.36 530.50 284.71
  L 519.00 284.96
  Q 520.23 284.43 519.63 284.29
  A 0.36 0.31 13.7 0 1 519.35 283.89
  Q 520.45 280.15 523.25 279.00
  Q 527.15 277.40 528.80 274.98
  A 1.24 1.21 -78.3 0 1 529.56 274.47
  Q 533.04 273.78 535.85 271.76
  Q 538.86 269.58 538.91 269.55
  Q 542.74 267.24 547.31 265.64
  A 1.52 1.51 68.9 0 0 548.20 263.62
  Q 547.17 261.22 550.10 261.22
  Q 550.16 261.22 551.37 261.45
  Q 552.69 261.69 553.07 260.04
  Q 553.47 258.30 555.24 258.04
  Q 557.43 257.71 559.43 256.43
  Q 561.35 255.19 563.51 254.60
  Q 566.55 253.78 567.68 253.22
  Q 570.92 251.60 574.02 249.74
  Q 575.11 249.09 575.33 248.21
  Q 575.61 247.13 575.20 246.01
  Q 575.17 245.94 574.83 245.45
  Q 574.52 245.00 575.00 244.46
  Z
  M 574.50 258.96
  L 572.25 260.54
  Q 568.81 263.24 571.31 267.19
  Q 572.39 268.89 573.76 269.37
  A 1.97 1.23 68.4 0 1 574.51 269.92
  Q 575.56 271.18 578.76 269.33
  Q 580.09 268.57 581.10 267.41
  Q 583.35 264.83 581.79 260.50
  L 579.21 258.25
  Q 576.42 256.59 574.50 258.96
  Z"
/>
<path fill="#93425c" d="
  M 579.21 258.25
  L 574.50 258.96
  Q 576.42 256.59 579.21 258.25
  Z"
/>
<path fill="#d27ba2" d="
  M 579.21 258.25
  L 581.79 260.50
  Q 582.33 262.84 580.79 264.25
  Q 581.08 262.92 580.00 262.75
  Q 575.90 258.44 572.54 263.25
  L 572.25 260.54
  L 574.50 258.96
  L 579.21 258.25
  Z"
/>
<path fill="#b0546d" d="
  M 572.25 260.54
  L 572.54 263.25
  Q 572.18 266.63 574.61 267.76
  Q 576.49 268.62 578.32 267.55
  Q 580.11 266.50 580.79 264.25
  Q 582.33 262.84 581.79 260.50
  Q 583.35 264.83 581.10 267.41
  Q 580.09 268.57 578.76 269.33
  Q 575.56 271.18 574.51 269.92
  A 1.97 1.23 68.4 0 0 573.76 269.37
  Q 572.39 268.89 571.31 267.19
  Q 568.81 263.24 572.25 260.54
  Z"
/>
<path fill="#fce4f0" d="
  M 580.79 264.25
  Q 580.11 266.50 578.32 267.55
  Q 576.49 268.62 574.61 267.76
  Q 572.18 266.63 572.54 263.25
  Q 575.90 258.44 580.00 262.75
  Q 581.08 262.92 580.79 264.25
  Z"
/>
<path fill="#fdae75" d="
  M 632.29 291.75
  L 632.53 294.43
  A 1.23 1.13 -74.3 0 0 632.95 295.26
  Q 647.28 307.30 661.19 319.81
  Q 670.22 327.93 679.81 338.69
  Q 688.96 348.95 695.81 360.01
  Q 699.15 365.39 703.81 372.55
  Q 707.98 378.96 711.35 385.85
  Q 712.08 387.34 711.31 386.21
  Q 709.87 384.09 708.53 381.91
  Q 708.06 381.15 708.51 382.10
  Q 712.86 391.42 716.52 401.03
  Q 716.55 401.09 719.57 408.51
  Q 721.90 414.21 724.00 422.00
  Q 726.72 432.10 727.95 439.67
  Q 728.36 442.15 728.66 447.34
  Q 728.88 451.20 729.37 455.04
  Q 730.38 462.92 730.58 466.53
  Q 731.15 476.39 731.68 486.25
  Q 732.50 501.51 731.75 504.75
  Q 730.97 508.14 731.30 510.52
  Q 731.61 512.87 731.02 515.16
  Q 729.05 522.76 728.11 529.23
  Q 725.95 544.23 721.14 558.54
  Q 719.86 562.37 717.46 566.49
  Q 713.89 572.60 713.19 574.19
  Q 707.56 586.88 701.20 599.22
  Q 695.21 610.82 687.00 620.96
  Q 683.16 625.71 679.38 630.50
  Q 679.32 630.57 676.41 633.80
  Q 674.81 635.58 672.81 638.56
  Q 670.02 642.73 661.48 651.41
  Q 657.03 655.92 651.58 660.08
  Q 646.33 664.08 641.02 668.01
  Q 631.96 674.72 623.43 682.09
  Q 623.38 682.14 621.30 684.13
  Q 620.02 685.36 618.51 686.24
  Q 615.81 687.83 614.49 688.96
  Q 611.64 691.40 608.39 693.31
  Q 607.48 693.85 608.47 692.97
  Q 609.15 692.36 608.79 692.31
  Q 608.61 692.28 608.37 692.44
  Q 594.67 701.97 579.14 708.07
  Q 578.60 708.28 578.92 708.53
  A 0.17 0.16 52.0 0 1 578.90 708.81
  Q 560.74 716.88 556.81 718.81
  Q 548.09 723.11 541.95 725.46
  Q 540.31 726.08 538.61 726.40
  Q 536.86 726.74 535.17 726.98
  Q 534.16 727.12 535.17 727.27
  Q 538.83 727.83 535.67 728.87
  Q 534.95 729.10 534.23 729.30
  Q 533.85 729.41 532.89 729.95
  Q 531.82 730.54 530.72 729.86
  A 0.55 0.51 34.4 0 0 530.01 729.96
  L 529.00 731.29
  Q 485.82 728.00 449.46 704.75
  Q 449.95 702.73 451.75 703.00
  Q 458.94 704.09 465.25 704.29
  Q 469.76 704.44 478.75 704.13
  Q 500.30 703.38 521.25 698.00
  Q 551.30 690.28 579.51 677.55
  Q 588.98 673.28 597.61 669.05
  Q 610.42 662.77 622.67 655.40
  Q 631.29 650.21 638.94 643.68
  Q 643.88 639.46 646.69 635.44
  Q 649.28 631.72 652.80 625.84
  Q 655.67 621.05 658.27 615.86
  Q 681.02 570.38 691.92 520.59
  Q 696.03 501.82 697.75 480.75
  Q 699.07 464.59 697.83 449.19
  Q 697.01 439.04 695.33 429.35
  Q 689.69 396.94 671.94 370.06
  Q 645.44 329.94 598.93 315.46
  Q 598.87 315.44 592.90 313.83
  Q 587.52 312.37 584.44 310.31
  Q 581.23 308.16 579.10 306.91
  Q 576.12 305.15 573.85 303.46
  Q 570.99 301.35 568.19 300.06
  Q 565.82 298.98 564.36 297.60
  A 1.88 1.36 63.8 0 0 563.51 297.15
  Q 561.75 296.85 560.00 297.29
  Q 545.79 289.74 530.50 284.71
  Q 530.39 284.36 530.76 284.33
  Q 536.84 283.93 542.92 284.03
  Q 553.09 284.19 555.08 284.18
  Q 594.05 284.07 632.29 291.75
  Z"
/>
<path fill="#190f18" d="
  M 530.50 284.71
  Q 545.79 289.74 560.00 297.29
  Q 603.93 321.71 630.25 364.54
  Q 668.42 429.34 656.60 503.23
  Q 655.01 513.17 652.50 522.80
  Q 636.32 584.84 588.06 626.81
  Q 550.02 659.90 499.21 669.25
  Q 488.33 671.00 476.00 671.50
  Q 419.50 673.81 372.75 643.21
  Q 360.51 631.54 350.75 617.71
  Q 320.09 575.10 314.25 523.75
  Q 307.29 462.55 331.56 406.81
  Q 347.46 370.29 376.13 341.63
  Q 422.37 295.39 487.50 286.50
  Q 496.84 285.23 519.00 284.96
  L 530.50 284.71
  Z"
/>
<path fill="#f4a073" d="
  M 632.29 291.75
  Q 644.94 294.06 657.00 298.54
  Q 659.81 304.06 662.19 306.06
  Q 675.55 317.31 686.98 330.52
  Q 690.15 334.17 693.40 337.75
  Q 697.01 341.71 699.53 345.23
  Q 706.84 355.46 713.48 366.15
  Q 713.86 366.77 714.77 367.63
  Q 715.52 368.33 716.02 369.21
  Q 717.28 371.45 717.34 371.53
  Q 718.71 373.48 719.99 375.49
  Q 720.81 376.77 722.06 379.73
  Q 722.91 381.74 724.31 384.19
  Q 727.61 389.93 730.25 398.12
  Q 731.27 401.30 733.94 408.31
  Q 737.81 418.50 740.73 430.98
  Q 741.15 432.77 743.67 442.41
  Q 745.17 448.13 745.95 454.01
  Q 748.10 470.06 748.36 486.25
  Q 748.65 504.76 745.63 522.92
  Q 743.68 534.69 741.88 542.57
  Q 739.25 554.15 734.44 566.69
  Q 727.57 584.58 722.56 594.06
  Q 717.70 603.28 700.61 630.89
  Q 697.60 635.76 692.86 640.24
  Q 691.26 641.75 690.08 643.60
  Q 689.10 645.16 690.00 646.96
  Q 686.86 648.52 684.83 651.31
  Q 682.93 653.92 682.90 653.96
  Q 676.90 661.04 669.94 663.44
  Q 664.06 665.46 658.86 666.85
  Q 656.92 667.37 655.93 669.11
  Q 652.85 674.49 649.93 679.68
  Q 639.99 697.32 623.25 708.71
  Q 602.86 722.35 578.93 727.91
  Q 554.25 733.63 529.00 731.29
  L 530.01 729.96
  A 0.55 0.51 34.4 0 1 530.72 729.86
  Q 531.82 730.54 532.89 729.95
  Q 533.85 729.41 534.23 729.30
  Q 534.95 729.10 535.67 728.87
  Q 538.83 727.83 535.17 727.27
  Q 534.16 727.12 535.17 726.98
  Q 536.86 726.74 538.61 726.40
  Q 540.31 726.08 541.95 725.46
  Q 548.09 723.11 556.81 718.81
  Q 560.74 716.88 578.90 708.81
  A 0.17 0.16 52.0 0 0 578.92 708.53
  Q 578.60 708.28 579.14 708.07
  Q 594.67 701.97 608.37 692.44
  Q 608.61 692.28 608.79 692.31
  Q 609.15 692.36 608.47 692.97
  Q 607.48 693.85 608.39 693.31
  Q 611.64 691.40 614.49 688.96
  Q 615.81 687.83 618.51 686.24
  Q 620.02 685.36 621.30 684.13
  Q 623.38 682.14 623.43 682.09
  Q 631.96 674.72 641.02 668.01
  Q 646.33 664.08 651.58 660.08
  Q 657.03 655.92 661.48 651.41
  Q 670.02 642.73 672.81 638.56
  Q 674.81 635.58 676.41 633.80
  Q 679.32 630.57 679.38 630.50
  Q 683.16 625.71 687.00 620.96
  Q 695.21 610.82 701.20 599.22
  Q 707.56 586.88 713.19 574.19
  Q 713.89 572.60 717.46 566.49
  Q 719.86 562.37 721.14 558.54
  Q 725.95 544.23 728.11 529.23
  Q 729.05 522.76 731.02 515.16
  Q 731.61 512.87 731.30 510.52
  Q 730.97 508.14 731.75 504.75
  Q 732.50 501.51 731.68 486.25
  Q 731.15 476.39 730.58 466.53
  Q 730.38 462.92 729.37 455.04
  Q 728.88 451.20 728.66 447.34
  Q 728.36 442.15 727.95 439.67
  Q 726.72 432.10 724.00 422.00
  Q 721.90 414.21 719.57 408.51
  Q 716.55 401.09 716.52 401.03
  Q 712.86 391.42 708.51 382.10
  Q 708.06 381.15 708.53 381.91
  Q 709.87 384.09 711.31 386.21
  Q 712.08 387.34 711.35 385.85
  Q 707.98 378.96 703.81 372.55
  Q 699.15 365.39 695.81 360.01
  Q 688.96 348.95 679.81 338.69
  Q 670.22 327.93 661.19 319.81
  Q 647.28 307.30 632.95 295.26
  A 1.23 1.13 -74.3 0 1 632.53 294.43
  L 632.29 291.75
  Z"
/>
<path fill="#fec985" d="
  M 449.46 704.75
  Q 421.60 688.03 397.39 666.37
  Q 384.87 655.16 372.64 643.64
  A 0.30 0.18 42.2 0 1 372.55 643.33
  Q 372.62 643.24 372.75 643.21
  Q 419.50 673.81 476.00 671.50
  Q 488.33 671.00 499.21 669.25
  Q 499.44 670.54 502.48 670.45
  Q 503.96 670.41 505.41 670.65
  Q 508.18 671.12 511.59 669.98
  A 1.47 0.78 33.6 0 1 512.49 670.07
  Q 513.14 670.33 513.94 669.94
  Q 516.48 668.70 520.02 667.64
  Q 520.45 667.51 520.98 667.64
  Q 522.71 668.04 524.10 667.06
  Q 524.57 666.73 525.00 666.69
  L 529.19 666.23
  A 1.68 1.61 21.5 0 0 530.07 665.87
  Q 533.13 663.45 536.89 663.18
  Q 541.59 662.85 542.07 662.75
  Q 546.78 661.80 551.41 660.53
  Q 551.48 660.51 559.80 658.40
  Q 570.02 655.81 578.78 649.76
  Q 582.13 647.44 585.72 645.49
  Q 588.89 643.76 591.59 641.41
  Q 595.59 637.95 595.68 637.88
  Q 610.38 626.03 622.74 611.73
  Q 632.28 600.68 640.76 588.82
  Q 642.20 586.80 643.32 583.65
  Q 644.82 579.46 647.69 573.94
  Q 651.84 565.95 655.75 551.75
  Q 656.22 550.03 658.02 547.74
  Q 659.69 545.61 660.31 543.87
  Q 662.43 537.98 663.25 531.75
  Q 663.57 529.32 666.82 521.86
  Q 667.67 519.89 668.05 517.47
  Q 668.41 515.18 668.97 512.94
  Q 669.48 510.91 669.35 509.00
  Q 669.13 505.74 669.25 505.00
  Q 669.75 501.83 669.66 500.20
  Q 669.57 498.73 669.57 498.68
  Q 669.91 468.15 669.25 462.25
  Q 668.16 452.40 667.09 442.55
  Q 667.03 442.05 667.17 440.96
  Q 667.28 440.12 667.06 439.32
  Q 666.62 437.70 666.61 437.64
  Q 665.93 433.59 665.08 429.58
  Q 664.29 425.83 662.59 421.77
  Q 657.10 408.63 655.81 404.44
  Q 653.28 396.20 651.00 392.50
  Q 646.47 385.15 641.94 377.81
  Q 638.05 371.52 635.42 368.80
  A 1.74 1.57 -74.2 0 1 635.00 367.95
  Q 634.72 366.29 633.47 365.24
  Q 633.27 365.08 632.55 364.95
  L 630.25 364.54
  Q 603.93 321.71 560.00 297.29
  Q 561.75 296.85 563.51 297.15
  A 1.88 1.36 63.8 0 1 564.36 297.60
  Q 565.82 298.98 568.19 300.06
  Q 570.99 301.35 573.85 303.46
  Q 576.12 305.15 579.10 306.91
  Q 581.23 308.16 584.44 310.31
  Q 587.52 312.37 592.90 313.83
  Q 598.87 315.44 598.93 315.46
  Q 645.44 329.94 671.94 370.06
  Q 689.69 396.94 695.33 429.35
  Q 697.01 439.04 697.83 449.19
  Q 699.07 464.59 697.75 480.75
  Q 696.03 501.82 691.92 520.59
  Q 681.02 570.38 658.27 615.86
  Q 655.67 621.05 652.80 625.84
  Q 649.28 631.72 646.69 635.44
  Q 643.88 639.46 638.94 643.68
  Q 631.29 650.21 622.67 655.40
  Q 610.42 662.77 597.61 669.05
  Q 588.98 673.28 579.51 677.55
  Q 551.30 690.28 521.25 698.00
  Q 500.30 703.38 478.75 704.13
  Q 469.76 704.44 465.25 704.29
  Q 458.94 704.09 451.75 703.00
  Q 449.95 702.73 449.46 704.75
  Z"
/>
<path fill="#e58e6f" d="
  M 657.00 298.54
  Q 692.42 311.90 716.29 341.25
  Q 716.07 345.68 718.46 349.24
  Q 720.62 352.45 720.69 352.56
  Q 726.28 362.36 731.81 372.19
  Q 737.99 383.14 745.50 404.00
  Q 749.81 415.95 755.32 442.29
  Q 765.69 491.75 757.69 541.58
  Q 757.67 541.69 757.13 546.96
  Q 756.85 549.68 755.92 552.28
  Q 755.80 552.63 755.87 553.23
  Q 755.96 553.98 755.50 555.00
  Q 753.73 558.90 753.29 564.49
  A 1.19 0.66 -76.2 0 0 753.54 565.41
  L 754.54 566.25
  Q 750.05 572.72 749.00 577.25
  Q 746.97 586.01 746.75 595.02
  Q 746.68 598.00 745.31 600.66
  Q 735.78 619.13 722.00 636.29
  Q 721.92 636.39 719.21 639.90
  Q 716.47 643.44 713.26 646.27
  A 1.62 1.57 34.1 0 1 711.64 646.56
  L 703.73 643.67
  A 1.68 1.48 45.0 0 0 702.75 643.61
  L 690.00 646.96
  Q 689.10 645.16 690.08 643.60
  Q 691.26 641.75 692.86 640.24
  Q 697.60 635.76 700.61 630.89
  Q 717.70 603.28 722.56 594.06
  Q 727.57 584.58 734.44 566.69
  Q 739.25 554.15 741.88 542.57
  Q 743.68 534.69 745.63 522.92
  Q 748.65 504.76 748.36 486.25
  Q 748.10 470.06 745.95 454.01
  Q 745.17 448.13 743.67 442.41
  Q 741.15 432.77 740.73 430.98
  Q 737.81 418.50 733.94 408.31
  Q 731.27 401.30 730.25 398.12
  Q 727.61 389.93 724.31 384.19
  Q 722.91 381.74 722.06 379.73
  Q 720.81 376.77 719.99 375.49
  Q 718.71 373.48 717.34 371.53
  Q 717.28 371.45 716.02 369.21
  Q 715.52 368.33 714.77 367.63
  Q 713.86 366.77 713.48 366.15
  Q 706.84 355.46 699.53 345.23
  Q 697.01 341.71 693.40 337.75
  Q 690.15 334.17 686.98 330.52
  Q 675.55 317.31 662.19 306.06
  Q 659.81 304.06 657.00 298.54
  Z"
/>
<path fill="#2c1f29" d="
  M 760.75 300.46
  Q 804.32 353.19 819.06 421.44
  Q 824.61 447.10 825.04 471.50
  Q 825.36 489.47 825.36 491.49
  Q 825.35 501.76 824.00 514.50
  Q 817.58 575.09 789.34 625.99
  Q 788.17 628.10 788.03 629.16
  Q 787.79 631.00 788.81 632.69
  A 3.55 0.83 8.4 0 0 791.50 633.75
  Q 795.39 634.51 796.00 638.50
  Q 797.22 646.61 789.49 647.69
  A 1.34 1.33 57.0 0 1 788.58 647.49
  Q 785.37 645.41 783.47 642.11
  A 1.39 1.39 49.8 0 0 781.20 641.92
  Q 777.20 646.75 773.72 651.96
  Q 749.67 688.02 716.78 715.96
  Q 709.27 722.35 701.07 728.33
  Q 642.87 770.82 571.45 784.48
  Q 549.85 788.62 528.69 788.81
  Q 516.67 788.92 501.57 788.18
  Q 471.03 786.69 439.56 778.19
  Q 418.93 772.62 401.75 764.29
  Q 402.95 764.40 404.10 764.86
  Q 405.05 765.24 405.06 764.50
  A 1.44 0.93 76.7 0 1 405.36 763.65
  Q 406.22 762.72 406.62 761.35
  A 1.26 1.26 -0.5 0 1 407.46 760.50
  Q 411.92 759.09 413.96 756.50
  Q 415.39 754.70 417.48 753.76
  Q 422.39 751.55 424.72 746.89
  Q 425.36 745.61 426.41 744.59
  Q 427.46 743.56 428.30 742.35
  Q 429.13 741.17 430.51 739.91
  Q 431.76 738.77 432.58 737.26
  A 1.57 1.46 -0.4 0 1 433.27 736.61
  Q 434.64 735.96 435.50 734.71
  Q 458.09 748.37 481.31 756.19
  Q 505.74 764.41 531.41 759.44
  Q 540.08 757.75 540.13 757.74
  Q 557.56 754.85 575.19 753.76
  Q 581.57 753.37 584.68 752.39
  Q 589.36 750.93 593.42 748.12
  Q 598.29 744.76 598.35 744.72
  Q 624.79 728.20 651.75 712.54
  Q 666.30 704.51 675.81 700.06
  Q 692.95 692.06 711.44 687.20
  Q 713.10 686.76 713.93 685.25
  Q 729.45 656.75 748.06 629.56
  Q 752.25 623.44 760.89 613.64
  Q 760.93 613.60 763.26 611.01
  Q 778.34 594.36 783.75 570.25
  Q 785.33 563.21 793.46 532.17
  Q 796.86 519.18 797.20 512.59
  Q 797.72 502.14 795.13 491.78
  Q 792.02 479.32 791.50 470.25
  Q 791.11 463.41 790.57 456.57
  Q 790.27 452.75 789.62 442.91
  Q 787.89 416.52 781.75 390.75
  Q 780.79 386.73 777.25 379.15
  Q 771.90 367.70 761.23 361.65
  Q 754.82 358.02 753.74 357.18
  Q 747.58 352.40 743.29 345.75
  Q 744.47 345.56 742.83 343.58
  A 0.68 0.67 55.8 0 1 743.02 342.56
  Q 744.50 341.75 744.03 339.60
  Q 743.06 335.15 745.98 331.69
  A 1.42 0.99 9.1 0 1 746.81 331.29
  Q 748.21 331.12 748.73 329.70
  Q 749.72 327.05 751.86 325.30
  A 1.58 1.35 81.6 0 0 752.35 324.52
  Q 752.91 322.43 755.19 321.19
  Q 756.46 320.49 757.83 319.00
  Q 758.80 317.95 759.65 316.14
  Q 760.91 313.44 762.35 310.84
  Q 763.34 309.04 765.07 307.99
  A 0.48 0.44 -33.6 0 0 765.23 307.33
  L 760.77 301.31
  A 0.68 0.37 46.6 0 1 760.62 300.76
  L 760.75 300.46
  Z
  M 793.93 639.94
  A 3.46 3.46 0.0 0 0 790.47 636.48
  A 3.46 3.46 0.0 0 0 787.01 639.94
  A 3.46 3.46 0.0 0 0 790.47 643.40
  A 3.46 3.46 0.0 0 0 793.93 639.94
  Z"
/>
<path fill="#251b26" d="
  M 869.19 353.31
  Q 864.58 349.81 863.75 344.25
  Q 863.27 341.06 864.05 335.21
  Q 864.77 329.73 866.62 326.65
  Q 870.12 320.84 877.00 319.25
  Q 884.45 317.53 893.20 319.02
  Q 896.57 319.60 898.22 321.16
  Q 900.26 323.08 901.06 326.19
  Q 902.43 331.50 902.49 336.62
  Q 902.56 342.21 901.73 346.35
  Q 900.70 351.46 897.69 355.44
  Q 895.18 358.74 891.22 359.78
  Q 888.17 360.58 883.78 359.80
  Q 875.87 358.39 869.19 353.31
  Z"
/>
<path fill="#b0546d" d="
  M 265.14 336.64
  Q 263.51 339.16 260.75 339.50
  Q 258.64 339.76 258.45 337.80
  Q 258.41 337.30 258.14 336.92
  Q 256.32 334.36 258.56 332.56
  Q 261.46 330.23 264.86 332.70
  A 1.33 1.26 13.3 0 1 265.37 333.48
  Q 265.74 335.11 265.36 336.75
  Q 265.31 336.94 265.25 336.75
  L 265.22 336.66
  Q 265.19 336.56 265.14 336.64
  Z
  M 259.96 337.00
  Q 261.72 338.33 262.94 336.94
  Q 264.65 334.98 262.50 333.21
  Q 258.96 331.84 258.76 335.24
  A 1.20 1.09 -67.7 0 0 259.08 336.12
  L 259.96 337.00
  Z"
/>
<path fill="#d27ba2" d="
  M 262.50 333.21
  Q 258.93 333.16 259.96 337.00
  L 259.08 336.12
  A 1.20 1.09 -67.7 0 1 258.76 335.24
  Q 258.96 331.84 262.50 333.21
  Z"
/>
<path fill="#feb6d3" d="
  M 262.50 333.21
  Q 264.65 334.98 262.94 336.94
  Q 261.72 338.33 259.96 337.00
  Q 258.93 333.16 262.50 333.21
  Z"
/>
<path fill="#d67d6d" d="
  M 716.29 341.25
  Q 723.46 349.71 728.44 357.56
  Q 755.31 399.95 769.25 445.25
  Q 774.24 461.48 774.15 481.00
  Q 774.04 502.25 774.06 523.50
  Q 774.06 536.49 767.18 547.43
  Q 761.14 557.03 754.54 566.25
  L 753.54 565.41
  A 1.19 0.66 -76.2 0 1 753.29 564.49
  Q 753.73 558.90 755.50 555.00
  Q 755.96 553.98 755.87 553.23
  Q 755.80 552.63 755.92 552.28
  Q 756.85 549.68 757.13 546.96
  Q 757.67 541.69 757.69 541.58
  Q 765.69 491.75 755.32 442.29
  Q 749.81 415.95 745.50 404.00
  Q 737.99 383.14 731.81 372.19
  Q 726.28 362.36 720.69 352.56
  Q 720.62 352.45 718.46 349.24
  Q 716.07 345.68 716.29 341.25
  Z"
/>
<path fill="#8b7b96" d="
  M 177.71 345.00
  Q 177.18 347.08 175.69 348.57
  Q 173.88 350.40 173.83 350.45
  Q 150.69 378.03 136.35 411.08
  Q 120.81 446.87 115.50 483.25
  Q 114.72 488.56 113.04 491.75
  Q 113.09 485.37 114.69 475.69
  Q 122.87 425.98 140.00 378.63
  Q 144.01 367.55 149.26 357.00
  Q 150.65 354.20 153.42 352.79
  Q 159.17 349.85 165.51 348.53
  Q 171.75 347.23 177.71 345.00
  Z"
/>
<ellipse fill="#5b5678" cx="0.00" cy="0.00" transform="translate(258.45,357.96) rotate(130.1)" rx="7.61" ry="3.71"/>
<path fill="#fed28d" d="
  M 630.25 364.54
  L 632.55 364.95
  Q 633.27 365.08 633.47 365.24
  Q 634.72 366.29 635.00 367.95
  A 1.74 1.57 -74.2 0 0 635.42 368.80
  Q 638.05 371.52 641.94 377.81
  Q 646.47 385.15 651.00 392.50
  Q 653.28 396.20 655.81 404.44
  Q 657.10 408.63 662.59 421.77
  Q 664.29 425.83 665.08 429.58
  Q 665.93 433.59 666.61 437.64
  Q 666.62 437.70 667.06 439.32
  Q 667.28 440.12 667.17 440.96
  Q 667.03 442.05 667.09 442.55
  Q 668.16 452.40 669.25 462.25
  Q 669.91 468.15 669.57 498.68
  Q 669.57 498.73 669.66 500.20
  Q 669.75 501.83 669.25 505.00
  Q 669.13 505.74 669.35 509.00
  Q 669.48 510.91 668.97 512.94
  Q 668.41 515.18 668.05 517.47
  Q 667.67 519.89 666.82 521.86
  Q 663.57 529.32 663.25 531.75
  Q 662.43 537.98 660.31 543.87
  Q 659.69 545.61 658.02 547.74
  Q 656.22 550.03 655.75 551.75
  Q 651.84 565.95 647.69 573.94
  Q 644.82 579.46 643.32 583.65
  Q 642.20 586.80 640.76 588.82
  Q 632.28 600.68 622.74 611.73
  Q 610.38 626.03 595.68 637.88
  Q 595.59 637.95 591.59 641.41
  Q 588.89 643.76 585.72 645.49
  Q 582.13 647.44 578.78 649.76
  Q 570.02 655.81 559.80 658.40
  Q 551.48 660.51 551.41 660.53
  Q 546.78 661.80 542.07 662.75
  Q 541.59 662.85 536.89 663.18
  Q 533.13 663.45 530.07 665.87
  A 1.68 1.61 21.5 0 1 529.19 666.23
  L 525.00 666.69
  Q 524.57 666.73 524.10 667.06
  Q 522.71 668.04 520.98 667.64
  Q 520.45 667.51 520.02 667.64
  Q 516.48 668.70 513.94 669.94
  Q 513.14 670.33 512.49 670.07
  A 1.47 0.78 33.6 0 0 511.59 669.98
  Q 508.18 671.12 505.41 670.65
  Q 503.96 670.41 502.48 670.45
  Q 499.44 670.54 499.21 669.25
  Q 550.02 659.90 588.06 626.81
  Q 636.32 584.84 652.50 522.80
  Q 655.01 513.17 656.60 503.23
  Q 668.42 429.34 630.25 364.54
  Z"
/>
<path fill="#93425c" d="
  M 843.04 474.50
  Q 842.55 472.84 841.59 471.45
  Q 840.52 469.90 838.96 469.93
  Q 837.01 469.97 836.04 472.00
  Q 835.66 468.52 839.25 468.51
  Q 844.22 468.49 844.00 473.50
  Q 843.97 474.19 843.04 474.50
  Z"
/>
<path fill="#feb6d3" d="
  M 843.04 474.50
  Q 842.03 478.15 838.69 477.06
  Q 835.50 476.03 836.04 472.00
  Q 837.01 469.97 838.96 469.93
  Q 840.52 469.90 841.59 471.45
  Q 842.55 472.84 843.04 474.50
  Z"
/>
<path fill="#5c3c4e" d="
  M 250.74 557.63
  Q 248.94 562.87 243.25 562.49
  Q 238.20 562.15 234.77 558.97
  Q 232.41 556.78 232.14 553.42
  Q 231.49 545.44 239.50 541.50
  Q 241.69 540.42 243.88 540.57
  Q 246.03 540.72 247.73 542.29
  Q 250.14 544.51 251.00 548.25
  Q 252.19 553.42 250.74 557.63
  Z
  M 246.31 556.06
  Q 248.10 554.37 248.45 551.80
  Q 248.80 549.29 247.51 547.43
  Q 245.68 544.78 242.11 546.03
  Q 239.20 547.06 237.96 549.89
  Q 236.99 552.09 237.87 553.82
  Q 238.53 555.11 240.21 556.61
  Q 243.06 559.14 246.31 556.06
  Z"
/>
<path fill="#93425c" d="
  M 246.31 556.06
  Q 243.06 559.14 240.21 556.61
  Q 238.53 555.11 237.87 553.82
  Q 236.99 552.09 237.96 549.89
  Q 239.20 547.06 242.11 546.03
  Q 245.68 544.78 247.51 547.43
  Q 248.80 549.29 248.45 551.80
  Q 248.10 554.37 246.31 556.06
  Z
  M 239.79 553.75
  Q 239.84 555.00 241.44 555.81
  Q 243.74 556.98 244.25 555.21
  Q 247.28 553.63 245.76 550.46
  Q 244.32 547.46 241.56 549.06
  Q 239.06 550.51 239.79 553.75
  Z"
/>
<path fill="#fce4f0" d="
  M 244.25 555.21
  Q 241.50 555.81 239.79 553.75
  Q 239.06 550.51 241.56 549.06
  Q 244.32 547.46 245.76 550.46
  Q 247.28 553.63 244.25 555.21
  Z"
/>
<path fill="#b0546d" d="
  M 239.79 553.75
  Q 241.50 555.81 244.25 555.21
  Q 243.74 556.98 241.44 555.81
  Q 239.84 555.00 239.79 553.75
  Z"
/>
<path fill="#8b7890" d="
  M 123.50 622.71
  Q 122.29 622.85 122.00 624.25
  Q 118.68 640.53 118.67 656.57
  Q 118.67 659.77 119.23 666.40
  Q 119.65 671.32 119.79 676.25
  Q 119.02 675.08 118.50 673.00
  Q 111.15 643.86 107.71 613.66
  Q 107.61 612.74 108.17 613.47
  Q 113.90 620.93 123.50 622.71
  Z"
/>
<path fill="#51353d" d="
  M 350.75 617.71
  Q 360.51 631.54 372.75 643.21
  Q 372.62 643.24 372.55 643.33
  A 0.30 0.18 42.2 0 0 372.64 643.64
  Q 384.87 655.16 397.39 666.37
  Q 421.60 688.03 449.46 704.75
  Q 485.82 728.00 529.00 731.29
  Q 554.25 733.63 578.93 727.91
  Q 602.86 722.35 623.25 708.71
  Q 624.31 708.59 623.81 709.31
  Q 623.80 710.39 624.80 709.98
  Q 625.07 709.87 625.59 709.38
  Q 626.60 708.44 627.81 709.00
  A 1.70 1.28 45.5 0 0 628.73 709.14
  L 630.84 708.74
  Q 631.10 708.69 630.84 708.60
  Q 630.29 708.40 630.82 708.09
  Q 631.03 707.97 631.13 707.84
  Q 631.63 707.18 631.23 706.73
  A 0.66 0.48 42.9 0 1 631.09 706.02
  Q 632.73 703.58 635.12 702.08
  Q 635.92 701.58 635.59 702.44
  L 633.78 707.24
  A 0.64 0.56 -63.8 0 0 633.98 707.98
  Q 636.00 709.27 638.43 708.40
  Q 641.89 707.16 643.57 710.97
  A 1.50 1.23 86.9 0 0 644.23 711.69
  L 648.04 713.57
  A 1.00 0.77 -44.5 0 0 648.91 713.46
  Q 650.20 712.63 651.75 712.54
  Q 624.79 728.20 598.35 744.72
  Q 598.29 744.76 593.42 748.12
  Q 589.36 750.93 584.68 752.39
  Q 581.57 753.37 575.19 753.76
  Q 557.56 754.85 540.13 757.74
  Q 540.08 757.75 531.41 759.44
  Q 505.74 764.41 481.31 756.19
  Q 458.09 748.37 435.50 734.71
  Q 429.89 730.91 424.28 727.11
  Q 417.19 722.30 412.84 719.91
  Q 400.07 712.89 386.00 708.71
  Q 385.63 707.95 384.75 707.75
  A 2.64 1.74 86.5 0 1 383.25 705.75
  Q 382.59 702.24 381.19 698.99
  Q 380.46 697.30 380.07 694.81
  Q 379.34 690.17 375.69 687.56
  Q 373.08 685.70 373.25 683.00
  Q 373.40 680.73 371.18 676.74
  A 1.62 1.27 3.4 0 0 370.48 676.12
  Q 367.85 674.89 367.15 671.52
  A 0.93 0.92 85.4 0 0 366.30 670.79
  Q 364.16 670.68 363.40 669.57
  Q 363.10 669.12 362.67 666.89
  Q 361.91 663.02 363.52 659.26
  Q 365.31 655.10 361.74 652.93
  A 1.33 1.21 -84.0 0 1 361.20 652.20
  Q 360.78 650.65 359.56 649.76
  Q 357.28 648.11 357.17 647.93
  Q 356.31 646.51 356.81 644.55
  Q 357.41 642.22 355.34 641.01
  Q 353.71 640.06 351.79 639.06
  Q 350.28 638.28 349.78 637.32
  Q 349.34 636.48 349.22 635.51
  Q 349.08 634.26 348.84 633.69
  Q 348.22 632.17 347.48 630.70
  Q 347.36 630.47 347.33 629.76
  L 347.20 627.18
  A 1.15 0.68 20.9 0 0 346.62 626.45
  Q 344.89 625.45 344.75 624.25
  Q 344.39 621.16 345.25 617.50
  Q 345.52 616.34 346.45 616.04
  A 1.58 1.23 -76.1 0 0 347.15 615.49
  Q 347.73 614.69 348.82 616.56
  Q 349.34 617.44 350.03 618.18
  Q 350.35 618.53 350.75 617.71
  Z"
/>
<path fill="#251b26" d="
  M 871.28 654.65
  Q 869.27 651.62 869.00 647.25
  Q 868.69 642.34 870.58 638.68
  Q 872.06 635.83 876.55 632.98
  Q 881.34 629.92 886.50 627.51
  Q 889.36 626.18 891.22 626.35
  Q 894.34 626.63 894.12 629.97
  Q 894.08 630.53 893.39 634.04
  Q 891.13 645.50 884.26 655.03
  Q 881.23 659.22 877.06 658.55
  Q 873.49 657.97 871.28 654.65
  Z"
/>
<ellipse fill="#5b5678" cx="0.00" cy="0.00" transform="translate(154.25,642.63) rotate(107.8)" rx="9.95" ry="7.62"/>
<circle fill="#feb6d3" cx="790.47" cy="639.94" r="3.46"/>
<path fill="#291f2b" d="
  M 305.69 739.19
  Q 311.66 735.13 317.44 734.07
  Q 319.53 733.68 320.85 734.42
  Q 322.58 735.39 323.00 737.50
  Q 325.23 748.59 313.75 750.00
  Q 308.12 750.69 304.51 747.69
  Q 302.28 745.84 302.59 743.52
  Q 302.93 741.06 305.69 739.19
  Z"
/>
<path fill="#8b7b96" d="
  M 182.79 749.75
  Q 176.25 752.69 175.06 754.06
  Q 171.67 757.98 174.23 762.79
  Q 174.74 763.73 174.25 764.71
  Q 168.40 761.08 167.00 754.75
  Q 165.87 749.64 171.00 748.75
  Q 175.62 747.95 182.79 749.75
  Z"
/>
<path fill="#3e3142" d="
  M 182.79 749.75
  Q 191.79 750.29 196.56 757.44
  Q 198.49 760.32 198.09 764.23
  Q 197.53 769.74 193.35 771.44
  Q 190.34 772.67 185.81 771.22
  Q 179.42 769.19 174.25 764.71
  Q 174.74 763.73 174.23 762.79
  Q 171.67 757.98 175.06 754.06
  Q 176.25 752.69 182.79 749.75
  Z"
/>
<path fill="#613d44" d="
  M 341.74 762.45
  Q 341.96 761.44 343.19 760.94
  Q 345.97 759.80 348.44 760.29
  Q 350.81 760.77 352.48 763.10
  Q 356.47 768.70 350.08 774.00
  A 1.31 1.27 25.9 0 1 349.17 774.30
  Q 344.40 774.03 341.60 771.41
  Q 337.27 767.36 341.33 763.28
  A 1.82 1.06 86.0 0 0 341.74 762.45
  Z
  M 350.3356 770.2698
  A 5.02 4.25 41.4 0 0 349.3806 763.7620
  A 5.02 4.25 41.4 0 0 342.8044 763.6302
  A 5.02 4.25 41.4 0 0 343.7594 770.1380
  A 5.02 4.25 41.4 0 0 350.3356 770.2698
  Z"
/>
<ellipse fill="#feb6d3" cx="0.00" cy="0.00" transform="translate(346.57,766.95) rotate(41.4)" rx="5.02" ry="4.25"/>
<circle fill="#feb6d3" cx="645.96" cy="799.93" r="1.59"/>
<path fill="#93425c" d="
  M 481.50 810.21
  Q 480.14 810.42 479.25 811.46
  Q 474.45 811.67 473.71 816.50
  L 473.54 816.50
  Q 473.21 815.37 473.22 817.00
  Q 473.24 818.47 472.70 816.81
  Q 471.50 813.09 474.20 810.69
  Q 477.60 807.67 481.50 810.21
  Z"
/>
<path fill="#b0546d" d="
  M 481.50 810.21
  Q 484.30 811.17 485.01 813.74
  Q 485.62 815.96 485.75 817.21
  Q 485.96 819.25 484.00 820.71
  Q 484.17 819.57 483.75 818.54
  Q 484.65 817.12 483.81 815.44
  Q 482.29 812.36 479.25 811.46
  Q 480.14 810.42 481.50 810.21
  Z"
/>
<path fill="#fce4f0" d="
  M 479.25 811.46
  Q 482.29 812.36 483.81 815.44
  Q 484.65 817.12 483.75 818.54
  Q 480.67 819.58 477.50 819.21
  Q 476.17 817.96 474.50 817.25
  Q 473.57 817.46 473.71 816.50
  Q 474.45 811.67 479.25 811.46
  Z"
/>
<path fill="#feb6d3" d="
  M 473.54 816.50
  L 473.71 816.50
  Q 473.57 817.46 474.50 817.25
  Q 476.17 817.96 477.50 819.21
  L 474.21 820.50
  Q 473.27 818.61 473.54 816.50
  Z"
/>
<path fill="#d27ba2" d="
  M 483.75 818.54
  Q 484.17 819.57 484.00 820.71
  Q 483.72 821.81 482.06 822.56
  Q 476.94 824.87 474.21 820.50
  L 477.50 819.21
  Q 480.67 819.58 483.75 818.54
  Z"
/>
</svg>
