<?xml version="1.0" encoding="UTF-8" standalone="no"?><!-- Generator: Gravit.io --><svg xmlns="http://www.w3.org/2000/svg" xmlns:xlink="http://www.w3.org/1999/xlink" style="isolation:isolate" viewBox="651.136 579.685 249.914 121.453" width="249.914pt" height="121.453pt"><defs><clipPath id="_clipPath_Naz3CZJMgCyMOzWJdSQLdb2rkF6bJTyH"><rect x="651.136" y="579.685" width="249.914" height="121.453"/></clipPath></defs><g clip-path="url(#_clipPath_Naz3CZJMgCyMOzWJdSQLdb2rkF6bJTyH)"><rect x="651.136" y="579.685" width="249.914" height="121.453" style="fill:rgb(6,6,6)" fill-opacity="0"/><g><path d=" M 876.491 579.925 Q 883.521 580.665 887.741 581.885 Q 902.411 586.135 900.911 601.875 Q 900.551 605.695 898.871 608.995 Q 897.631 611.425 894.441 614.735 Q 885.751 623.785 873.931 632.325 Q 844.081 653.885 812.431 667.325 Q 776.181 682.705 733.241 693.345 Q 707.681 700.755 677.241 701.135 Q 659.891 701.355 652.051 687.325 Q 650.521 684.585 651.551 680.445 Q 652.641 676.055 657.781 670.195 Q 665.051 661.895 673.861 655.235 Q 683.361 648.035 693.621 641.965 Q 724.321 623.795 756.841 609.125 Q 777.721 599.695 802.931 591.575 Q 821.701 585.525 837.991 582.635 Q 859.371 578.845 876.491 579.925 Z " fill="rgb(254,122,29)"/><path d=" M 690.241 693.675 Q 690.451 690.605 687.881 689.865 Q 685.851 689.265 685.221 689.035 Q 683.881 688.515 682.421 688.495 Q 680.051 688.465 679.061 688.615 Q 676.631 688.965 676.931 691.945 Q 677.061 693.335 676.491 694.095 Q 665.191 694.745 659.741 685.175 L 661.491 684.575 C 661.994 684.419 662.235 684.12 662.081 683.845 Q 662.501 682.765 663.351 682.895 Q 663.821 682.975 664.411 683.675 Q 667.241 687.095 671.741 685.675 Q 680.211 683.225 688.401 680.015 Q 693.161 678.145 695.581 683.615 C 695.717 683.92 696.014 684.125 696.351 684.145 Q 704.561 684.575 712.801 684.095 Q 720.121 683.665 729.021 681.615 Q 754.801 675.685 779.681 666.705 Q 791.821 662.315 798.451 659.785 Q 822.231 650.705 847.241 636.635 Q 853.331 633.205 855.761 627.745 Q 856.521 626.025 857.191 621.885 Q 857.671 618.895 858.291 615.935 Q 858.751 613.755 860.201 612.385 Q 864.841 607.995 871.211 606.505 Q 874.651 605.695 876.501 608.645 Q 878.141 611.275 880.611 609.405 Q 885.511 605.695 888.521 600.265 Q 891.161 595.505 888.691 592.055 Q 886.831 589.455 882.981 588.365 Q 879.281 587.325 875.801 588.695 Q 866.001 592.565 858.231 592.935 Q 850.041 593.325 845.241 594.385 Q 838.831 595.805 833.491 595.395 Q 830.721 595.185 829.271 594.045 Q 827.371 592.545 826.991 589.845 Q 833.121 588.175 846.741 586.135 Q 860.491 584.075 871.881 584.635 Q 875.971 584.835 880.341 586.025 Q 886.741 587.775 888.491 588.885 Q 893.571 592.105 892.741 598.135 Q 891.591 606.495 885.471 612.615 Q 881.081 617.005 876.121 620.695 Q 874.321 622.035 866.001 627.745 Q 842.121 644.125 812.991 656.885 Q 775.391 673.355 743.681 683.825 Q 739.101 685.335 731.111 686.935 Q 727.851 687.595 718.321 688.975 Q 708.581 690.385 698.991 692.635 Q 697.011 693.095 690.241 693.675 Z " fill="rgb(254,177,48)"/><path d=" M 671.741 685.675 Q 667.991 686.245 665.281 683.845 Q 662.681 681.545 663.181 678.615 Q 663.471 676.905 665.731 674.245 Q 671.171 667.865 676.241 661.175 Q 679.001 658.505 682.151 656.275 Q 695.001 647.195 708.181 638.575 Q 719.061 631.455 737.741 624.095 Q 738.471 624.375 738.051 624.945 Q 737.821 629.635 742.411 627.415 Q 750.961 623.295 759.301 618.595 C 759.613 618.422 759.816 618.103 759.84 617.748 C 759.864 617.392 759.706 617.048 759.421 616.835 Q 758.211 615.915 756.981 616.645 Q 756.121 617.155 756.081 617.175 Q 754.301 618.035 752.571 618.975 Q 751.391 619.615 750.991 618.425 Q 755.281 616.585 759.411 614.405 Q 782.621 602.155 807.931 595.175 Q 817.471 592.535 826.991 589.845 Q 827.371 592.545 829.271 594.045 Q 830.721 595.185 833.491 595.395 Q 838.831 595.805 845.241 594.385 Q 850.041 593.325 858.231 592.935 Q 866.001 592.565 875.801 588.695 Q 879.281 587.325 882.981 588.365 Q 886.831 589.455 888.691 592.055 Q 891.161 595.505 888.521 600.265 Q 885.511 605.695 880.611 609.405 Q 878.141 611.275 876.501 608.645 Q 874.651 605.695 871.211 606.505 Q 864.841 607.995 860.201 612.385 Q 858.751 613.755 858.291 615.935 Q 857.671 618.895 857.191 621.885 Q 856.521 626.025 855.761 627.745 Q 853.331 633.205 847.241 636.635 Q 822.231 650.705 798.451 659.785 Q 791.821 662.315 779.681 666.705 Q 754.801 675.685 729.021 681.615 Q 720.121 683.665 712.801 684.095 Q 704.561 684.575 696.351 684.145 C 696.014 684.125 695.717 683.92 695.581 683.615 Q 693.161 678.145 688.401 680.015 Q 680.211 683.225 671.741 685.675 Z " fill="rgb(250,224,53)"/><path d=" M 737.741 624.095 L 750.991 618.425 Q 751.391 619.615 752.571 618.975 Q 754.301 618.035 756.081 617.175 Q 756.121 617.155 756.981 616.645 Q 758.211 615.915 759.421 616.835 C 759.706 617.048 759.864 617.392 759.84 617.748 C 759.816 618.103 759.613 618.422 759.301 618.595 Q 750.961 623.295 742.411 627.415 Q 737.821 629.635 738.051 624.945 Q 738.471 624.375 737.741 624.095 Z " fill="rgb(254,166,37)"/><path d=" M 676.241 661.175 Q 671.171 667.865 665.731 674.245 Q 663.471 676.905 663.181 678.615 Q 662.681 681.545 665.281 683.845 Q 667.991 686.245 671.741 685.675 Q 667.241 687.095 664.411 683.675 Q 663.821 682.975 663.351 682.895 Q 662.501 682.765 662.081 683.845 C 662.235 684.12 661.994 684.419 661.491 684.575 L 659.741 685.175 Q 657.621 682.285 659.011 678.895 Q 660.131 676.145 661.971 673.835 Q 667.261 667.175 674.271 662.355 Q 674.471 662.215 674.921 661.635 Q 675.361 661.055 676.241 661.175 Z " fill="rgb(246,194,54)"/><path d=" M 690.241 693.675 Q 683.391 694.435 676.491 694.095 Q 677.061 693.335 676.931 691.945 Q 676.631 688.965 679.061 688.615 Q 680.051 688.465 682.421 688.495 Q 683.881 688.515 685.221 689.035 Q 685.851 689.265 687.881 689.865 Q 690.451 690.605 690.241 693.675 Z " fill="rgb(246,194,54)"/><path d=" M 870.853 598.916 C 870.196 597.735 871.345 595.838 873.419 594.684 C 875.493 593.53 877.71 593.552 878.368 594.734 C 879.025 595.915 877.876 597.811 875.802 598.966 C 873.728 600.12 871.511 600.098 870.853 598.916 Z " fill="rgb(254,179,66)"/><path d=" M 699.821 665.335 Q 698.101 661.905 701.221 657.855 Q 704.881 653.105 709.851 649.705 Q 720.141 642.655 731.071 636.685 Q 738.621 632.555 748.831 627.495 Q 764.511 619.715 780.891 613.575 Q 791.281 609.675 799.921 607.515 Q 816.301 603.405 833.241 602.335 Q 837.441 602.065 841.491 603.115 Q 846.971 604.545 848.701 608.985 Q 850.051 612.455 848.231 617.195 Q 845.921 623.215 841.431 627.325 Q 834.241 633.905 823.681 639.315 Q 812.631 644.975 801.131 649.625 Q 790.381 653.965 782.521 656.935 Q 759.701 665.565 735.471 669.225 Q 724.781 670.835 712.991 670.635 Q 708.761 670.565 705.021 669.275 Q 701.111 667.915 699.821 665.335 Z " fill="rgb(253,127,30)"/><path d=" M 671.021 678.545 Q 670.331 677.405 671.081 675.685 Q 672.011 673.545 673.941 672.285 L 679.601 668.575 Q 681.871 667.095 684.481 667.885 Q 688.311 669.035 685.331 673.095 Q 684.131 674.715 682.341 675.645 Q 681.591 676.035 680.391 677.425 Q 679.301 678.685 678.431 679.145 Q 675.921 680.485 673.151 679.825 Q 671.581 679.455 671.021 678.545 Z " fill="rgb(254,166,44)"/><path d=" M 707.931 663.195 Q 706.041 662.505 707.171 660.835 Q 708.341 659.115 710.091 658.015 Q 721.061 651.125 732.501 645.095 Q 740.511 640.885 750.541 636.465 Q 775.491 625.445 801.341 616.725 Q 811.311 613.365 818.871 611.915 Q 828.851 610.005 836.991 609.885 Q 846.351 609.755 841.301 617.945 Q 838.891 621.865 833.651 625.765 Q 824.101 632.885 813.401 638.145 Q 768.911 660.005 719.491 664.685 Q 713.511 665.245 707.931 663.195 Z " fill="rgb(45,17,32)"/></g></g></svg>