<?xml version="1.0" encoding="UTF-8" standalone="no"?><!-- Generator: Gravit.io --><svg xmlns="http://www.w3.org/2000/svg" xmlns:xlink="http://www.w3.org/1999/xlink" style="isolation:isolate" viewBox="909.454 1472.396 333.975 169.957" width="333.975pt" height="169.957pt"><defs><clipPath id="_clipPath_Iz2SfljuCJELMLsNOVYgumj2CfhWjIdA"><rect x="909.454" y="1472.396" width="333.975" height="169.957"/></clipPath></defs><g clip-path="url(#_clipPath_Iz2SfljuCJELMLsNOVYgumj2CfhWjIdA)"><clipPath id="_clipPath_0SJ7g4kddFrnaBXsisyxcrGOuTojvsv5"><rect x="909.454" y="1472.396" width="333.975" height="169.957" transform="matrix(1,0,0,1,0,0)" fill="rgb(255,255,255)"/></clipPath><g clip-path="url(#_clipPath_0SJ7g4kddFrnaBXsisyxcrGOuTojvsv5)"><g><path d=" M 934.105 1641.357 Q 924.525 1638.088 915.825 1633.398 Q 914.975 1632.937 915.235 1632.347 C 915.367 1632.11 915.675 1631.95 916.025 1631.937 Q 919.135 1631.968 922.025 1633.187 Q 925.645 1634.708 929.325 1636.088 Q 933.755 1637.757 936.915 1637.887 Q 945.145 1638.247 952.055 1633.297 Q 952.465 1632.997 951.985 1632.838 Q 946.305 1630.917 941.155 1627.847 Q 936.575 1625.107 928.965 1623.247 Q 923.655 1621.958 925.795 1617.828 Q 926.475 1616.518 927.965 1615.208 Q 929.225 1614.097 930.665 1613.088 C 930.857 1612.956 930.978 1612.745 930.991 1612.514 C 931.005 1612.284 930.91 1612.06 930.735 1611.907 Q 929.275 1610.597 927.535 1609.708 Q 926.235 1609.037 923.875 1608.627 Q 918.825 1607.747 914.775 1606.437 Q 912.795 1605.797 911.215 1604.367 Q 909.505 1602.817 909.455 1600.887 Q 909.405 1598.557 911.395 1596.797 Q 913.445 1594.997 915.525 1593.227 Q 917.805 1590.187 919.855 1586.987 Q 922.775 1582.417 924.525 1581.087 Q 928.105 1578.377 933.055 1578.437 Q 933.305 1578.437 933.475 1578.547 Q 933.995 1578.877 933.215 1579.127 Q 923.095 1582.317 921.275 1592.187 Q 920.475 1596.528 925.255 1597.067 Q 929.375 1597.537 933.525 1597.657 Q 937.805 1597.778 941.985 1598.578 Q 945.775 1599.317 947.355 1601.127 Q 949.455 1603.537 947.535 1606.497 Q 946.515 1608.067 943.795 1609.518 Q 937.185 1613.047 930.795 1616.927 Q 928.725 1618.187 929.785 1619.737 C 929.952 1619.971 930.234 1620.15 930.575 1620.237 Q 937.235 1621.727 940.715 1623.747 Q 948.745 1628.437 951.025 1629.187 Q 954.575 1630.367 963.025 1630.667 C 963.366 1630.698 963.681 1630.826 963.905 1631.028 Q 964.725 1631.917 963.605 1632.468 Q 963.175 1632.677 962.395 1632.697 Q 959.075 1632.797 957.835 1633.747 Q 947.345 1641.857 934.105 1641.357 Z " fill="rgb(253,210,66)"/><path d=" M 1139.815 1494.437 C 1139.657 1494.181 1139.487 1493.954 1139.275 1493.727 Q 1134.885 1494.027 1130.505 1493.637 Q 1127.595 1493.387 1126.235 1491.797 Q 1124.465 1489.717 1124.275 1486.437 Q 1124.015 1481.937 1119.025 1482.977 Q 1113.535 1482.777 1108.355 1484.547 Q 1093.725 1489.537 1079.875 1496.387 Q 1074.435 1499.078 1068.535 1500.487 Q 1059.955 1502.537 1052.375 1507.217 Q 1038.095 1508.507 1028.085 1515.497 Q 1025.105 1517.587 1022.455 1521.747 Q 1020.285 1525.157 1019.035 1526.167 Q 1017.025 1527.787 1014.085 1528.997 Q 1007.745 1531.627 1003.285 1532.227 Q 1003.075 1532.257 1002.915 1532.337 Q 1002.005 1532.807 1003.515 1532.627 Q 1004.355 1532.527 1005.025 1532.897 L 999.265 1532.937 Q 997.405 1532.947 998.835 1531.747 Q 1005.235 1526.387 1013.465 1524.717 C 1013.778 1524.654 1014.041 1524.45 1014.175 1524.167 Q 1015.885 1520.517 1017.815 1516.987 Q 1024.825 1504.187 1039.775 1504.417 Q 1047.545 1504.527 1053.515 1499.687 Q 1058.735 1495.467 1066.525 1495.687 Q 1068.925 1495.757 1071.405 1493.837 Q 1072.475 1492.997 1072.555 1492.947 Q 1090.505 1479.967 1112.715 1473.627 Q 1123.955 1470.417 1133.545 1475.578 Q 1135.575 1476.667 1136.365 1478.427 Q 1137.225 1480.357 1137.275 1482.537 C 1137.286 1483.276 1137.515 1483.996 1137.935 1484.607 Q 1141.085 1489.247 1144.335 1492.167 C 1144.627 1492.368 1144.765 1492.681 1144.695 1492.987 Q 1144.515 1494.917 1142.335 1495.497 Q 1140.525 1495.987 1139.815 1494.437 Z " fill="rgb(253,210,66)"/><path d=" M 1232.275 1523.117 Q 1239.405 1527.047 1240.715 1527.997 Q 1244.575 1530.797 1242.945 1536.117 Q 1241.025 1542.397 1235.835 1546.997 Q 1230.525 1551.717 1225.715 1554.877 Q 1220.025 1558.607 1204.865 1566.117 Q 1188.185 1574.377 1170.275 1579.427 Q 1167.635 1580.167 1169.335 1578.997 Q 1170.695 1578.067 1178.195 1574.837 Q 1198.225 1566.207 1220.775 1553.687 Q 1226.955 1550.257 1231.475 1545.807 Q 1234.645 1542.677 1236.325 1540.328 Q 1238.605 1537.127 1239.345 1533.547 Q 1239.765 1531.547 1237.935 1530.537 L 1228.635 1525.407 Q 1226.275 1524.097 1227.025 1521.447 Q 1228.335 1516.777 1231.225 1512.857 Q 1233.135 1510.267 1230.355 1508.647 Q 1227.175 1506.787 1222.765 1506.527 Q 1213.585 1505.967 1204.455 1507.097 Q 1203.635 1507.197 1203.075 1507.187 Q 1200.325 1507.127 1202.105 1505.828 Q 1202.535 1505.507 1203.145 1505.337 Q 1209.175 1503.617 1218.525 1503.687 Q 1226.375 1503.747 1232.045 1505.927 Q 1234.545 1506.887 1235.315 1508.328 Q 1236.375 1510.297 1235.025 1512.937 Q 1233.385 1516.127 1232.675 1517.087 Q 1230.815 1519.578 1231.675 1522.397 C 1231.761 1522.701 1231.977 1522.961 1232.275 1523.117 L 1232.275 1523.117 Z " fill="rgb(253,210,66)"/><path d=" M 1073.775 1526.477 C 1105.46 1564.972 1089.692 1594.842 1026.442 1616.056 Q 1015.333 1612.646 1011.815 1604.937 C 998.052 1569.168 1013.905 1542.648 1059.345 1525.347 Q 1066.575 1524.497 1073.775 1526.477 Z " fill="rgb(38,27,46)"/><path d=" M 1059.345 1525.347 Q 1044.015 1531.797 1031.215 1542.307 Q 1030.845 1542.617 1031.325 1542.517 Q 1036.555 1541.417 1036.375 1545.377 Q 1036.295 1547.127 1034.685 1549.537 Q 1030.595 1555.647 1026.265 1561.907 C 1026.004 1562.288 1025.565 1562.507 1025.105 1562.487 Q 1021.515 1562.317 1018.485 1560.657 C 1018.136 1560.469 1017.702 1560.573 1017.475 1560.897 Q 1015.195 1564.137 1014.125 1567.017 Q 1007.195 1585.557 1011.815 1604.937 Q 1009.745 1605.648 1007.985 1604.187 Q 996.815 1574.807 1014.275 1550.187 Q 1030.355 1527.517 1059.345 1525.347 Z " fill="rgb(38,27,46)"/><path d=" M 1119.025 1482.977 Q 1112.285 1483.747 1106.045 1486.417 Q 1095.625 1490.867 1085.215 1495.377 Q 1081.375 1497.037 1078.815 1498.867 Q 1075.485 1501.267 1074.195 1501.697 Q 1071.905 1502.477 1068.775 1502.937 Q 1062.915 1503.807 1059.215 1507.127 Q 1055.855 1510.127 1051.775 1509.397 Q 1051.525 1507.897 1052.375 1507.217 Q 1059.955 1502.537 1068.535 1500.487 Q 1074.435 1499.078 1079.875 1496.387 Q 1093.725 1489.537 1108.355 1484.547 Q 1113.535 1482.777 1119.025 1482.977 Z " fill="rgb(245,138,40)"/><path d=" M 1144.485 1550.687 Q 1144.485 1554.437 1142.215 1556.127 Q 1138.335 1559.007 1136.525 1562.127 Q 1136.355 1562.417 1135.705 1565.037 Q 1135.265 1566.817 1133.465 1568.377 Q 1124.015 1576.578 1119.025 1579.977 Q 1114.125 1582.898 1109.335 1586.007 Q 1100.525 1591.718 1090.525 1594.898 Q 1089.365 1593.377 1089.485 1591.437 Q 1105.535 1585.487 1119.025 1574.977 Q 1124.945 1571.537 1128.235 1565.597 Q 1133.335 1554.867 1144.485 1550.687 Z " fill="rgb(245,138,40)"/><path d=" M 958.615 1584.167 Q 958.025 1586.278 959.565 1587.937 L 954.775 1588.727 Q 950.855 1586.927 949.715 1585.747 Q 946.425 1582.367 948.695 1577.907 Q 950.085 1575.187 947.045 1575.437 Q 943.825 1575.697 940.755 1574.947 Q 939.295 1574.597 938.905 1573.647 Q 938.515 1572.727 939.055 1571.747 Q 939.425 1571.067 940.335 1570.477 Q 942.835 1568.837 946.175 1568.377 Q 948.265 1568.097 948.695 1566.037 Q 949.145 1563.847 950.985 1561.907 Q 952.905 1559.887 954.415 1558.807 Q 956.895 1557.027 960.025 1557.437 Q 967.625 1558.427 970.585 1559.877 Q 972.675 1560.897 971.015 1562.017 Q 970.455 1562.397 969.425 1562.527 Q 963.295 1563.267 958.485 1567.187 Q 955.875 1569.307 957.715 1572.497 Q 958.945 1574.627 958.495 1577.197 Q 958.485 1577.277 957.685 1579.447 Q 956.795 1581.828 958.615 1584.167 Z " fill="rgb(253,210,66)"/><path d=" M 1173.525 1563.727 Q 1173.395 1565.157 1174.525 1565.897 Q 1170.965 1567.447 1167.725 1569.537 Q 1162.105 1573.167 1161.245 1573.647 Q 1144.665 1583.018 1130.465 1589.377 Q 1125.915 1591.407 1123.175 1593.387 C 1122.93 1593.552 1122.607 1593.642 1122.275 1593.637 Q 1120.935 1593.377 1121.025 1591.727 Q 1136.675 1582.487 1155.465 1572.877 Q 1162.385 1569.337 1170.525 1564.147 Q 1172.085 1564.347 1173.525 1563.727 Z " fill="rgb(253,210,66)"/><path d=" M 975.775 1584.477 Q 980.495 1585.708 984.325 1589.557 Q 979.485 1590.218 975.775 1586.727 Q 977.875 1585.528 975.775 1584.477 Z " fill="rgb(253,210,66)"/><path d=" M 1216.815 1534.937 L 1218.925 1536.578 C 1219.207 1536.775 1219.268 1537.126 1219.065 1537.387 Q 1215.825 1544.377 1209.275 1548.437 Q 1182.105 1565.277 1150.335 1581.747 Q 1132.035 1591.247 1118.805 1597.317 Q 1103.885 1604.747 1087.435 1607.907 Q 1087.255 1607.937 1087.115 1607.877 Q 1086.925 1607.787 1086.855 1607.648 C 1086.716 1607.551 1086.675 1607.416 1086.748 1607.295 C 1086.821 1607.173 1086.997 1607.086 1087.205 1607.067 Q 1089.635 1605.887 1092.155 1604.937 Q 1106.855 1599.407 1120.475 1592.088 Q 1120.775 1591.718 1121.025 1591.727 Q 1120.935 1593.377 1122.275 1593.637 C 1122.607 1593.642 1122.93 1593.552 1123.175 1593.387 Q 1125.915 1591.407 1130.465 1589.377 Q 1144.665 1583.018 1161.245 1573.647 Q 1162.105 1573.167 1167.725 1569.537 Q 1170.965 1567.447 1174.525 1565.897 Q 1189.695 1558.567 1192.965 1556.127 Q 1201.375 1549.857 1210.025 1544.877 Q 1211.465 1544.047 1212.005 1542.477 Q 1213.065 1539.427 1215.335 1537.497 Q 1216.895 1536.177 1216.815 1534.937 Z " fill="rgb(245,138,40)"/><path d=" M 975.775 1586.727 Q 979.485 1590.218 984.325 1589.557 L 992.845 1588.627 Q 996.175 1588.257 993.475 1590.227 Q 986.775 1595.117 978.815 1591.177 Q 973.945 1588.768 968.535 1589.997 Q 961.385 1591.627 954.775 1588.727 L 959.565 1587.937 Q 967.605 1586.227 975.775 1586.727 Z " fill="rgb(245,138,40)"/><path d=" M 1120.275 1508.227 Q 1116.025 1509.997 1113.245 1513.637 Q 1113.185 1513.727 1112.045 1514.957 Q 1110.565 1516.567 1112.035 1518.867 Q 1113.495 1521.147 1111.695 1523.177 Q 1108.065 1527.277 1102.775 1529.897 Q 1098.135 1531.387 1098.645 1527.927 Q 1098.865 1526.397 1100.355 1525.067 Q 1102.395 1523.257 1104.755 1521.627 C 1105.046 1521.429 1105.226 1521.105 1105.242 1520.752 C 1105.258 1520.4 1105.107 1520.061 1104.835 1519.837 Q 1101.705 1517.247 1104.085 1514.237 Q 1106.775 1510.847 1108.915 1507.197 Q 1110.035 1505.297 1107.835 1505.197 Q 1101.535 1504.917 1097.325 1509.047 L 1089.775 1512.147 Q 1085.205 1512.737 1084.025 1512.437 Q 1081.365 1511.767 1083.585 1510.497 Q 1085.075 1509.657 1092.775 1507.187 Q 1095.085 1506.447 1096.615 1503.597 Q 1097.905 1501.197 1100.175 1499.987 Q 1101.825 1499.107 1104.815 1498.427 Q 1109.585 1497.357 1113.725 1499.177 Q 1115.935 1500.147 1118.345 1499.967 Q 1123.755 1499.567 1122.525 1504.437 Q 1121.805 1507.297 1120.275 1508.227 Z " fill="rgb(253,210,66)"/><path d=" M 1216.815 1534.937 Q 1216.895 1536.177 1215.335 1537.497 Q 1213.065 1539.427 1212.005 1542.477 Q 1211.465 1544.047 1210.025 1544.877 Q 1201.375 1549.857 1192.965 1556.127 Q 1189.695 1558.567 1174.525 1565.897 Q 1173.395 1565.157 1173.525 1563.727 Q 1179.705 1561.177 1183.155 1555.607 Q 1188.315 1549.637 1193.925 1544.087 Q 1197.975 1540.067 1199.025 1534.417 Q 1199.445 1532.177 1197.185 1531.747 L 1192.085 1530.777 C 1191.164 1530.595 1190.485 1529.822 1190.435 1528.897 Q 1190.025 1522.578 1186.195 1520.717 Q 1184.785 1520.027 1178.245 1519.707 Q 1163.895 1519.027 1149.555 1519.997 Q 1144.615 1520.337 1144.505 1520.328 Q 1141.265 1520.017 1140.215 1516.787 Q 1139.635 1514.967 1141.425 1514.307 Q 1151.025 1510.787 1161.025 1509.647 Q 1167.265 1508.947 1173.525 1508.417 Q 1181.125 1507.777 1186.045 1508.307 Q 1197.895 1509.578 1208.615 1515.177 Q 1210.995 1516.427 1213.025 1518.578 C 1213.725 1519.308 1214.091 1520.292 1214.035 1521.297 Q 1213.915 1523.637 1213.625 1525.897 Q 1213.195 1529.197 1213.505 1530.477 Q 1214.185 1533.227 1216.815 1534.937 Z " fill="rgb(253,210,66)"/><path d=" M 1144.485 1550.687 Q 1133.335 1554.867 1128.235 1565.597 Q 1125.015 1565.307 1124.275 1563.237 Q 1123.765 1561.797 1125.075 1559.507 Q 1126.605 1556.817 1128.205 1554.177 Q 1128.465 1553.747 1127.955 1553.737 Q 1121.705 1553.697 1114.785 1556.647 Q 1111.265 1555.828 1111.855 1551.817 Q 1115.475 1550.257 1118.205 1548.107 Q 1120.815 1546.047 1124.025 1545.197 Q 1133.525 1542.657 1143.935 1544.287 C 1144.405 1544.351 1144.743 1544.719 1144.715 1545.137 L 1144.485 1550.687 Z " fill="rgb(253,210,66)"/><path d=" M 958.615 1584.167 L 975.775 1584.477 Q 977.875 1585.528 975.775 1586.727 Q 967.605 1586.227 959.565 1587.937 Q 958.025 1586.278 958.615 1584.167 Z " fill="rgb(253,210,66)"/><path d=" M 1007.985 1604.187 Q 1009.745 1605.648 1011.815 1604.937 L 1022.985 1608.757 Q 1027.215 1610.018 1032.025 1608.937 Q 1040.785 1606.968 1044.985 1605.687 Q 1045.435 1607.018 1045.265 1608.567 C 1045.214 1608.973 1044.886 1609.289 1044.475 1609.328 Q 1041.035 1609.637 1038.115 1610.807 Q 1034.955 1612.078 1033.205 1612.268 Q 1026.395 1613.018 1019.515 1612.328 Q 1016.165 1611.338 1012.945 1609.757 Q 1011.265 1608.937 1009.835 1608.667 Q 1008.185 1608.357 1006.525 1608.148 Q 998.705 1605.607 991.875 1609.357 Q 991.625 1609.497 988.445 1611.137 Q 986.435 1612.167 984.855 1613.828 C 984.733 1613.919 984.662 1614.055 984.662 1614.198 C 984.662 1614.341 984.733 1614.477 984.855 1614.567 L 985.525 1615.148 Q 987.865 1618.278 991.525 1617.937 Q 996.075 1617.518 1000.015 1618.278 Q 1003.525 1618.958 1003.565 1618.968 Q 1013.225 1620.377 1023.075 1620.107 Q 1036.535 1620.018 1049.785 1616.997 Q 1051.815 1616.537 1053.845 1616.797 C 1054.007 1616.795 1054.157 1616.868 1054.229 1616.986 C 1054.302 1617.103 1054.285 1617.244 1054.185 1617.347 Q 1053.915 1617.727 1053.215 1617.877 Q 1032.755 1622.137 1021.275 1624.227 Q 1011.195 1623.187 1001.065 1623.437 Q 997.315 1622.648 993.525 1623.398 L 985.015 1624.357 C 984.69 1624.379 984.366 1624.317 984.085 1624.177 Q 982.375 1623.137 980.685 1622.047 Q 978.915 1620.887 977.025 1620.757 Q 969.445 1620.237 962.265 1622.367 Q 960.185 1622.987 958.295 1621.947 Q 955.265 1620.297 956.705 1618.197 Q 957.465 1617.088 959.345 1616.328 Q 963.045 1614.847 967.255 1614.677 Q 969.645 1614.578 970.545 1612.367 Q 971.975 1608.887 975.725 1607.477 Q 976.385 1607.227 982.415 1606.417 Q 986.845 1605.817 992.525 1603.937 Q 999.405 1601.657 1007.985 1604.187 Z " fill="rgb(253,210,66)"/><path d=" M 1006.525 1608.148 L 1004.275 1608.477 Q 1000.425 1608.057 996.795 1609.247 Q 990.665 1611.268 985.525 1615.148 L 984.855 1614.567 C 984.733 1614.477 984.662 1614.341 984.662 1614.198 C 984.662 1614.055 984.733 1613.919 984.855 1613.828 Q 986.435 1612.167 988.445 1611.137 Q 991.625 1609.497 991.875 1609.357 Q 998.705 1605.607 1006.525 1608.148 Z " fill="rgb(245,138,40)"/><path d=" M 1021.275 1624.227 L 1019.025 1624.898 Q 1010.505 1625.497 1002.025 1624.398 Q 1001.395 1624.047 1001.065 1623.437 Q 1011.195 1623.187 1021.275 1624.227 Z " fill="rgb(245,138,40)"/><path d=" M 1089.485 1591.437 Q 1089.365 1593.377 1090.525 1594.898 Q 1088.385 1595.567 1077.775 1597.937 Q 1059.925 1601.917 1041.725 1611.037 Q 1035.515 1614.148 1032.275 1614.557 Q 1025.845 1615.377 1019.515 1612.328 Q 1026.395 1613.018 1033.205 1612.268 Q 1034.955 1612.078 1038.115 1610.807 Q 1041.035 1609.637 1044.475 1609.328 C 1044.886 1609.289 1045.214 1608.973 1045.265 1608.567 Q 1045.435 1607.018 1044.985 1605.687 Q 1055.455 1601.067 1066.195 1597.167 Q 1070.765 1595.497 1077.225 1594.247 Q 1083.395 1593.047 1089.485 1591.437 Z " fill="rgb(245,138,40)"/><path d=" M 1120.275 1508.227 Q 1117.135 1511.137 1115.685 1515.217 Q 1115.555 1515.597 1115.175 1516.047 Q 1114.195 1517.237 1114.775 1518.937 Q 1115.665 1521.547 1113.935 1523.887 Q 1109.795 1529.507 1102.775 1529.897 Q 1108.065 1527.277 1111.695 1523.177 Q 1113.495 1521.147 1112.035 1518.867 Q 1110.565 1516.567 1112.045 1514.957 Q 1113.185 1513.727 1113.245 1513.637 Q 1116.025 1509.997 1120.275 1508.227 Z " fill="rgb(245,138,40)"/><path d=" M 1073.775 1526.477 Q 1092.755 1529.987 1104.215 1543.247 Q 1109.885 1549.817 1111.855 1551.817 Q 1111.265 1555.828 1114.785 1556.647 Q 1117.575 1565.607 1119.025 1574.977 Q 1105.535 1585.487 1089.485 1591.437 Q 1083.395 1593.047 1077.225 1594.247 Q 1070.765 1595.497 1066.195 1597.167 Q 1055.455 1601.067 1044.985 1605.687 Q 1040.785 1606.968 1032.025 1608.937 Q 1027.215 1610.018 1022.985 1608.757 Q 1025.065 1608.597 1034.025 1606.937 Q 1050.625 1603.857 1062.895 1595.268 Q 1081.195 1582.458 1083.235 1559.937 Q 1084.925 1541.267 1073.775 1526.477 Z " fill="rgb(38,27,46)"/><path d=" M 1119.025 1579.977 Q 1118.795 1586.047 1120.475 1592.088 Q 1106.855 1599.407 1092.155 1604.937 Q 1089.635 1605.887 1087.205 1607.067 C 1086.997 1607.086 1086.821 1607.173 1086.748 1607.295 C 1086.675 1607.416 1086.716 1607.551 1086.855 1607.648 Q 1086.925 1607.787 1087.115 1607.877 Q 1087.255 1607.937 1087.435 1607.907 Q 1103.885 1604.747 1118.805 1597.317 Q 1113.355 1610.687 1111.965 1613.127 Q 1098.805 1636.137 1074.195 1641.167 Q 1064.195 1643.208 1054.315 1641.737 Q 1035.885 1638.997 1021.965 1625.497 Q 1021.135 1624.697 1019.025 1624.898 L 1021.275 1624.227 Q 1032.755 1622.137 1053.215 1617.877 Q 1053.915 1617.727 1054.185 1617.347 C 1054.285 1617.244 1054.302 1617.103 1054.229 1616.986 C 1054.157 1616.868 1054.007 1616.795 1053.845 1616.797 Q 1051.815 1616.537 1049.785 1616.997 Q 1036.535 1620.018 1023.075 1620.107 Q 1018.645 1618.157 1016.335 1615.377 Q 1011.395 1609.398 1004.275 1608.477 L 1006.525 1608.148 Q 1008.185 1608.357 1009.835 1608.667 Q 1011.265 1608.937 1012.945 1609.757 Q 1016.165 1611.338 1019.515 1612.328 Q 1025.845 1615.377 1032.275 1614.557 Q 1035.515 1614.148 1041.725 1611.037 Q 1059.925 1601.917 1077.775 1597.937 Q 1088.385 1595.567 1090.525 1594.898 Q 1100.525 1591.718 1109.335 1586.007 Q 1114.125 1582.898 1119.025 1579.977 Z " fill="rgb(38,27,46)"/><path d=" M 1052.375 1507.217 Q 1051.525 1507.897 1051.775 1509.397 Q 1037.335 1510.117 1026.195 1519.137 Q 1023.585 1521.247 1022.535 1524.437 Q 1021.515 1527.557 1018.515 1528.907 Q 1012.045 1531.828 1005.025 1532.897 Q 1004.355 1532.527 1003.515 1532.627 Q 1002.005 1532.807 1002.915 1532.337 Q 1003.075 1532.257 1003.285 1532.227 Q 1007.745 1531.627 1014.085 1528.997 Q 1017.025 1527.787 1019.035 1526.167 Q 1020.285 1525.157 1022.455 1521.747 Q 1025.105 1517.587 1028.085 1515.497 Q 1038.095 1508.507 1052.375 1507.217 Z " fill="rgb(245,138,40)"/><path d=" M 1097.325 1509.047 Q 1094.415 1512.487 1089.775 1512.147 L 1097.325 1509.047 Z " fill="rgb(245,138,40)"/><path d=" M 1001.065 1623.437 Q 1001.395 1624.047 1002.025 1624.398 L 993.525 1623.398 Q 997.315 1622.648 1001.065 1623.437 Z " fill="rgb(245,138,40)"/></g></g></g></svg>