<?xml version="1.0" encoding="UTF-8" standalone="no"?><!-- Generator: Gravit.io --><svg xmlns="http://www.w3.org/2000/svg" xmlns:xlink="http://www.w3.org/1999/xlink" style="isolation:isolate" viewBox="891.993 652.746 196.731 182.668" width="196.731pt" height="182.668pt"><defs><clipPath id="_clipPath_iS74AvgyqVJcGARijqYOeJIO1hKcaA9J"><rect x="891.993" y="652.746" width="196.731" height="182.668"/></clipPath></defs><g clip-path="url(#_clipPath_iS74AvgyqVJcGARijqYOeJIO1hKcaA9J)"><path d=" M 1014.25 780.148 Q 970.33 795.97 942.8 793 Q 979.016 765.768 1004.726 740.298 Q 1012.736 732.358 1020.116 723.848 Q 1020.126 723.838 1030.556 710.988 Q 1038.566 701.118 1047.606 692.368 C 1047.775 692.205 1048.006 692.122 1048.241 692.139 C 1048.475 692.156 1048.692 692.272 1048.836 692.458 Q 1058.226 704.558 1061.836 719.038 C 1061.919 719.343 1061.852 719.668 1061.656 719.918 Q 1044.77 753.718 1014.25 780.148 Z " fill="rgb(38,27,46)" vector-effect="non-scaling-stroke" stroke-width="1" stroke="rgb(38,27,46)" stroke-linejoin="miter" stroke-linecap="butt" stroke-miterlimit="4"/><path d=" M 1053.016 685.668 C 1053.405 685.529 1053.838 685.695 1054.036 686.058 Q 1056.016 689.638 1056.946 693.798 Q 1057.326 695.518 1056.186 694.788 Q 1055.856 694.578 1055.606 694.138 Q 1053.956 691.338 1052.176 688.628 Q 1051.506 687.598 1051.566 687.048 Q 1051.676 686.128 1053.016 685.668 L 1053.016 685.668 Z  M 951.336 816.208 Q 954.686 818.288 957.256 821.298 Q 954.876 822.708 956.476 824.428 C 956.693 824.645 956.992 824.796 957.326 824.858 Q 961.566 825.498 965.556 823.838 L 967.906 824.378 Q 968.446 824.498 968.906 824.368 Q 970.946 823.788 972.466 822.488 C 972.769 822.267 972.925 821.966 972.896 821.658 Q 973.326 819.448 975.516 818.628 Q 1009.256 820.468 1034.536 798.618 Q 1051.186 784.218 1058.956 764.528 Q 1064.336 750.888 1064.226 735.088 Q 1063.626 734.058 1062.706 733.548 C 1062.434 733.392 1062.222 733.149 1062.106 732.858 Q 1061.516 731.368 1060.526 732.758 Q 1059.876 733.688 1059.826 733.748 Q 1045.526 751.368 1032.706 762.778 Q 1022.146 772.158 1006.526 778.138 Q 1037.046 751.708 1061.656 719.918 C 1061.852 719.668 1061.919 719.343 1061.836 719.038 Q 1058.226 704.558 1048.836 692.458 C 1048.692 692.272 1048.475 692.156 1048.241 692.139 C 1048.006 692.122 1047.775 692.205 1047.606 692.368 Q 1038.566 701.118 1030.556 710.988 Q 1020.126 723.838 1020.116 723.848 Q 1012.736 732.358 1004.726 740.298 Q 981.5 763.47 954 787 Q 943.84 787.81 943 786 Q 967.766 765.608 992.546 743.888 Q 1004.016 733.838 1012.266 724.588 Q 1026.376 708.768 1040.406 689.008 Q 1042.356 686.258 1042.456 686.008 Q 1043.216 684.058 1041.366 682.038 C 1040.967 681.62 1040.308 681.584 1039.866 681.958 Q 1034.166 686.848 1029.556 691.628 Q 1014.446 707.308 996.936 720.248 Q 987.886 726.948 978.886 733.728 Q 965.286 743.988 953.576 756.288 Q 951.626 758.338 941.016 769.938 Q 934.756 776.778 928.726 783.838 Q 928.006 783.768 926.776 784.348 L 922.446 779.218 Q 935.536 764.888 948.486 750.798 Q 956.586 741.988 963.986 732.578 Q 965.796 730.278 967.146 727.508 C 967.289 727.217 967.279 726.873 967.119 726.591 C 966.959 726.309 966.669 726.124 966.346 726.098 Q 965.066 725.998 963.296 726.658 Q 957.686 728.758 952.506 731.668 Q 946.936 734.808 942.436 737.938 Q 929.676 746.798 922.326 761.148 Q 919.606 766.468 919.976 772.088 L 919.656 773.778 Q 919.576 774.238 919.226 773.938 Q 917.536 772.458 915.546 773.318 Q 915.496 773.338 914.596 773.998 Q 913.746 774.618 913.016 773.378 L 912.046 770.848 Q 911.846 770.348 911.576 770.838 Q 910.556 772.628 907.706 778.278 Q 906.116 781.408 906.336 784.958 Q 902.996 780.718 900.576 784.718 Q 900.376 785.038 900.336 785.648 Q 900.256 786.808 899.056 787.088 Q 898.806 779.498 902.706 770.278 Q 903.056 769.458 904.066 766.288 Q 904.706 764.308 905.086 762.198 Q 907.006 751.808 907.766 746.088 Q 908.446 740.968 903.826 743.148 Q 901.836 744.098 900.286 746.768 Q 897.986 750.718 895.936 754.808 Q 895.276 756.118 894.746 756.588 Q 893.556 757.648 892.666 756.178 Q 892.276 755.518 892.186 754.418 Q 891.736 748.758 892.336 743.098 Q 893.706 730.138 903.706 722.528 Q 913.006 715.438 917.986 705.538 Q 921.596 698.368 925.106 691.138 Q 930.176 680.678 932.826 677.088 Q 940.826 666.228 953.896 660.878 Q 961.016 657.958 966.516 658.088 Q 969.556 658.158 966.956 659.978 Q 962.616 663.028 958.356 666.188 Q 956.466 667.578 955.266 669.588 C 955.038 669.936 955.024 670.37 955.23 670.73 C 955.436 671.09 955.83 671.321 956.266 671.338 Q 963.326 671.968 969.646 668.908 Q 971.856 667.848 971.906 667.818 Q 984.816 662.008 994.266 659.838 Q 1002.766 657.888 1013.016 654.338 Q 1017.506 652.788 1023.016 652.748 Q 1033.616 652.668 1043.246 656.938 C 1043.583 657.081 1043.839 657.308 1043.966 657.578 Q 1044.566 658.748 1043.266 659.088 Q 1038.926 660.218 1032.146 660.528 Q 1029.976 660.628 1028.946 660.988 Q 1027.246 661.588 1026.146 662.798 Q 1024.806 664.278 1026.176 665.738 Q 1028.286 667.988 1031.156 668.798 Q 1035.506 670.028 1039.806 671.428 Q 1044.436 672.938 1046.756 674.638 Q 1049.766 676.838 1052.206 680.198 C 1052.433 680.498 1052.839 680.613 1053.196 680.478 Q 1059.146 678.108 1063.866 680.708 Q 1065.926 681.848 1065.586 683.928 L 1064.216 692.388 Q 1063.946 694.058 1065.196 693.038 Q 1070.486 688.688 1076.836 686.478 Q 1080.496 685.208 1082.796 685.968 Q 1086.416 687.168 1086.266 692.088 Q 1086.196 694.338 1085.076 697.988 Q 1079.626 715.788 1071.316 732.808 Q 1070.816 733.828 1070.746 735.038 L 1069.756 750.948 Q 1069.696 751.968 1070.566 751.458 Q 1074.566 749.128 1077.706 745.528 Q 1079.646 743.308 1085.276 738.358 Q 1086.286 737.468 1087.096 737.328 Q 1088.576 737.068 1088.716 738.618 Q 1088.786 739.388 1088.256 740.308 Q 1083.756 748.028 1075.456 757.528 Q 1064.456 770.098 1056.746 784.918 Q 1051.246 795.468 1043.066 804.138 Q 1037.486 810.058 1031.976 816.048 Q 1026.396 822.118 1019.536 826.518 Q 1013.376 830.468 1008.446 832.468 Q 1002.656 834.808 996.076 835.378 Q 992.176 835.708 995.036 833.038 Q 996.306 831.848 999.656 830.188 Q 1006.056 827.008 1009.326 823.898 Q 1011.186 822.138 1008.956 822.078 Q 1008.386 822.058 1007.586 822.268 Q 996.306 825.178 989.016 825.588 Q 974.816 826.388 963.266 829.088 Q 956.516 830.668 950.496 828.958 Q 947.536 828.118 946.036 825.848 Q 942.046 819.828 951.336 816.208 L 951.336 816.208 Z  M 1068.176 700.388 Q 1070.356 697.808 1073.276 695.638 C 1073.659 695.357 1074.141 695.248 1074.608 695.337 C 1075.075 695.426 1075.483 695.706 1075.736 696.108 Q 1076.796 697.788 1076.286 700.288 Q 1074.406 709.488 1069.176 717.628 Q 1068.836 718.168 1068.676 717.548 Q 1067.286 712.048 1065.596 706.518 Q 1064.776 703.808 1066.576 701.998 Q 1068.126 700.448 1068.176 700.388 Z " fill-rule="evenodd" fill="rgb(254,217,64)"/><path d=" M 922.446 779.218 Q 919.676 776.268 919.976 772.088 Q 919.606 766.468 922.326 761.148 Q 929.676 746.798 942.436 737.938 Q 946.936 734.808 952.506 731.668 Q 957.686 728.758 963.296 726.658 Q 965.066 725.998 966.346 726.098 C 966.669 726.124 966.959 726.309 967.119 726.591 C 967.279 726.873 967.289 727.217 967.146 727.508 Q 965.796 730.278 963.986 732.578 Q 956.586 741.988 948.486 750.798 Q 935.536 764.888 922.446 779.218 Z " fill="rgb(38,27,46)" vector-effect="non-scaling-stroke" stroke-width="1" stroke="rgb(38,27,46)" stroke-linejoin="miter" stroke-linecap="butt" stroke-miterlimit="4"/><path d=" M 1064.226 735.088 Q 1064.336 750.888 1058.956 764.528 Q 1051.186 784.218 1034.536 798.618 Q 1009.256 820.468 975.516 818.628 Q 969.336 817.508 963.496 814.988 Q 962.536 814.578 963.406 813.998 Q 975.456 805.998 988.456 799.278 Q 996.786 794.968 1008.186 786.748 Q 1027.476 772.828 1042.576 759.648 Q 1054.506 749.248 1064.226 735.088 Z " fill="rgb(38,27,46)"/><path d=" M 1003.726 780.148 Q 992.176 790.248 975.576 797.898 Q 963.346 803.548 955.056 806.208 Q 953.036 806.858 950.936 806.388 Q 943.856 804.788 936.676 802.478 Q 934.946 801.928 936.376 800.808 L 951.016 789.378 L 951.516 789.298 Q 979.046 792.268 1003.726 780.148 Z " fill="rgb(38,27,46)"/><path d=" M 937.606 696.938 Q 948.286 685.388 962.456 678.528 Q 984.196 667.988 1006.206 669.608 Q 1006.706 669.648 1006.296 669.938 Q 986.786 684.058 967.206 698.088 Q 956.616 705.668 951.176 710.028 Q 933.246 724.408 917.096 741.678 Q 915.746 743.118 915.946 741.148 Q 917.346 727.778 924.576 715.148 Q 930.786 704.318 937.606 696.938 Z " fill="rgb(38,27,46)" vector-effect="non-scaling-stroke" stroke-width="1" stroke="rgb(38,27,46)" stroke-linejoin="miter" stroke-linecap="butt" stroke-miterlimit="4"/><path d=" M 985.956 698.028 Q 1001.076 682.548 1019.086 671.598 C 1019.359 671.445 1019.691 671.408 1019.996 671.498 L 1030.996 675.708 Q 1031.466 675.888 1031.016 676.128 Q 1027.496 678.008 1023.956 681.028 Q 1012.366 690.918 998.716 699.638 Q 998.546 699.748 994.016 702.758 Q 989.216 705.958 984.766 707.588 Q 981.936 708.628 981.426 706.558 Q 981.146 705.418 981.866 703.858 Q 983.326 700.718 985.956 698.028 Z " fill="rgb(38,27,46)" vector-effect="non-scaling-stroke" stroke-width="1" stroke="rgb(38,27,46)" stroke-linejoin="miter" stroke-linecap="butt" stroke-miterlimit="4"/><path d=" M 1064.226 735.088 Q 1054.506 749.248 1042.576 759.648 Q 1027.476 772.828 1008.186 786.748 Q 996.786 794.968 988.456 799.278 Q 975.456 805.998 963.406 813.998 Q 962.536 814.578 963.496 814.988 Q 969.336 817.508 975.516 818.628 Q 973.326 819.448 972.896 821.658 C 972.925 821.966 972.769 822.267 972.466 822.488 Q 970.946 823.788 968.906 824.368 Q 968.446 824.498 967.906 824.378 L 965.556 823.838 Q 961.966 821.038 957.256 821.298 Q 954.686 818.288 951.336 816.208 Q 944.896 812.168 939.706 811.398 Q 933.816 810.538 927.866 806.128 C 927.461 805.844 926.907 805.882 926.546 806.218 Q 923.196 809.438 919.726 811.478 Q 916.136 813.598 913.306 813.178 Q 908.926 812.528 908.766 806.588 Q 908.656 802.518 910.516 799.518 Q 913.406 794.888 918.326 791.288 C 919.085 790.741 919.315 789.73 918.866 788.918 L 916.846 784.998 C 916.754 784.824 916.582 784.706 916.385 784.68 C 916.188 784.654 915.99 784.724 915.856 784.868 Q 913.476 787.608 910.676 789.818 Q 907.346 792.438 904.746 792.708 Q 900.156 793.168 899.056 787.088 Q 900.256 786.808 900.336 785.648 Q 900.376 785.038 900.576 784.718 Q 902.996 780.718 906.336 784.958 Q 911.266 782.898 913.206 778.778 Q 914.286 776.478 913.016 773.378 Q 913.746 774.618 914.596 773.998 Q 915.496 773.338 915.546 773.318 Q 917.536 772.458 919.226 773.938 Q 919.576 774.238 919.656 773.778 L 919.976 772.088 Q 919.676 776.268 922.446 779.218 L 926.776 784.348 Q 926.816 789.668 930.356 793.948 C 930.544 794.169 930.871 794.224 931.126 794.078 L 945 784 L 954 787 L 936.376 800.808 Q 934.946 801.928 936.676 802.478 Q 943.856 804.788 950.936 806.388 Q 953.036 806.858 955.056 806.208 Q 963.346 803.548 975.576 797.898 Q 992.176 790.248 1003.726 780.148 L 1006.526 778.138 Q 1022.146 772.158 1032.706 762.778 Q 1045.526 751.368 1059.826 733.748 Q 1059.876 733.688 1060.526 732.758 Q 1061.516 731.368 1062.106 732.858 C 1062.222 733.149 1062.434 733.392 1062.706 733.548 Q 1063.626 734.058 1064.226 735.088 Z  M 916.856 799.668 Q 917.966 798.118 919.486 796.948 Q 922.256 794.808 923.296 797.548 C 923.426 797.844 923.388 798.182 923.196 798.448 Q 921.326 801.348 918.216 802.878 C 917.924 803.013 917.586 803.024 917.286 802.908 Q 915.186 801.978 916.856 799.668 Z " fill-rule="evenodd" fill="rgb(254,217,64)"/><path d=" M 941.016 787 L 928.726 783.838 Q 934.756 776.778 941.016 769.938 Q 951.626 758.338 953.576 756.288 Q 965.286 743.988 978.886 733.728 Q 987.886 726.948 996.936 720.248 Q 1014.446 707.308 1029.556 691.628 Q 1034.166 686.848 1039.866 681.958 C 1040.308 681.584 1040.967 681.62 1041.366 682.038 Q 1043.216 684.058 1042.456 686.008 Q 1042.356 686.258 1040.406 689.008 Q 1026.376 708.768 1012.266 724.588 Q 1004.016 733.838 992.546 743.888 Q 966.266 765.81 941.016 787 Z " fill="rgb(38,27,46)" vector-effect="non-scaling-stroke" stroke-width="1" stroke="rgb(38,27,46)" stroke-linejoin="miter" stroke-linecap="butt" stroke-miterlimit="4"/><path d=" M 928.726 783.838 L 947 782 Q 943.309 786.107 941 788 Q 938.691 789.893 931.126 794.078 C 930.871 794.224 930.544 794.169 930.356 793.948 Q 926.816 789.668 926.776 784.348 Q 928.006 783.768 928.726 783.838 Z " fill="rgb(38,27,46)"/></g></svg>