
<svg xmlns="http://www.w3.org/2000/svg" version="1.1" viewBox="0 0 1024 1024">
<g stroke-width="2.00" fill="none" stroke-linecap="butt">
<path stroke="#999092" vector-effect="non-scaling-stroke" d="
  M 637.50 126.04
  Q 613.40 133.78 589.44 141.94
  Q 581.55 144.62 562.50 150.29"
/>
<path stroke="#a89c9e" vector-effect="non-scaling-stroke" d="
  M 562.50 150.29
  Q 541.76 155.84 520.75 160.21"
/>
<path stroke="#ad9c9d" vector-effect="non-scaling-stroke" d="
  M 520.75 160.21
  Q 496.18 164.12 471.63 168.13
  Q 462.53 169.62 452.04 172.14
  Q 433.04 176.71 416.94 179.69
  Q 366.81 188.96 321.09 207.96
  Q 298.35 217.41 281.81 229.31
  Q 267.62 239.52 254.34 255.19
  Q 248.53 262.03 248.46 262.12
  Q 232.36 280.67 216.29 299.25"
/>
<path stroke="#a89c9e" vector-effect="non-scaling-stroke" d="
  M 216.29 299.25
  Q 200.89 316.27 187.30 334.77
  Q 177.99 347.43 170.19 364.94
  Q 162.07 383.16 164.93 401.72
  Q 165.40 404.82 167.00 416.25
  Q 169.60 434.83 164.10 451.49
  Q 161.61 459.06 161.60 459.08
  Q 158.91 469.65 161.50 480.25
  Q 166.01 498.72 167.31 516.94
  Q 168.23 529.89 167.84 534.56
  Q 167.05 543.84 162.44 551.69
  Q 154.83 564.61 154.54 578.25
  Q 154.32 588.27 155.75 594.75
  Q 158.58 607.53 161.50 620.29"
/>
<path stroke="#999092" vector-effect="non-scaling-stroke" d="
  M 161.50 620.29
  Q 164.42 640.93 167.50 654.00
  Q 170.44 666.47 176.01 677.99
  Q 183.64 693.76 192.71 708.75"
/>
<path stroke="#958e90" vector-effect="non-scaling-stroke" d="
  M 192.71 708.75
  Q 199.93 721.29 207.82 733.44
  Q 214.18 743.22 219.96 753.35
  Q 224.46 761.23 220.52 769.35
  Q 219.25 771.97 218.13 774.66
  Q 216.60 778.32 217.61 781.67
  Q 218.35 784.16 221.48 787.02
  Q 226.73 791.81 233.00 795.29"
/>
<path stroke="#8e898b" vector-effect="non-scaling-stroke" d="
  M 233.00 795.29
  Q 247.77 804.51 261.97 814.59
  Q 262.04 814.64 265.27 817.19
  Q 270.35 821.21 276.84 821.30
  Q 278.61 821.33 280.54 820.58
  Q 282.32 819.88 284.07 819.08
  Q 289.01 816.83 294.16 817.22
  Q 296.56 817.41 303.94 819.31
  Q 314.03 821.92 322.94 826.56
  Q 334.66 832.67 345.67 840.89
  Q 356.61 849.06 358.24 850.10
  Q 365.00 854.44 371.94 857.56
  Q 435.47 886.21 505.27 891.82
  Q 514.81 892.58 525.24 892.83
  Q 558.80 893.61 589.50 890.00
  Q 609.08 887.70 630.89 882.14
  Q 644.72 878.62 644.77 878.61
  Q 675.97 870.97 682.75 869.50
  Q 688.89 868.17 699.87 866.81
  Q 709.33 865.63 713.43 864.18
  Q 720.19 861.79 725.69 857.44
  Q 727.39 856.08 728.56 854.00
  Q 729.35 852.61 729.69 849.80
  Q 730.16 845.85 731.56 843.56
  Q 733.85 839.83 739.64 836.19
  Q 748.25 830.78 756.81 825.30
  Q 759.95 823.29 760.73 822.19
  Q 762.76 819.35 759.14 816.38
  Q 754.59 812.64 753.44 811.31
  Q 749.23 806.48 752.06 801.56
  Q 753.76 798.61 757.26 795.27
  Q 759.01 793.60 763.55 790.10
  Q 791.78 768.37 814.34 740.89
  Q 821.39 732.30 826.69 725.17
  Q 844.45 701.25 855.66 673.47
  Q 863.89 653.08 870.43 632.10
  Q 876.54 612.47 879.81 589.56
  Q 884.35 557.75 883.74 528.25
  Q 883.18 500.96 876.86 474.43
  Q 869.09 441.81 857.20 410.51
  Q 852.10 397.06 849.83 391.91
  Q 842.54 375.39 831.49 360.96
  Q 828.49 357.04 822.19 348.81
  Q 817.23 342.34 813.78 335.72
  Q 809.98 328.43 808.74 321.16
  Q 805.50 302.18 816.58 285.37
  Q 822.24 276.78 825.50 270.25
  Q 830.63 259.98 821.18 253.89
  Q 815.92 250.50 810.94 248.81
  Q 794.68 243.30 786.99 240.52
  Q 765.76 232.81 747.05 220.18
  Q 734.24 211.53 724.23 199.77
  Q 720.64 195.55 717.69 189.56
  Q 714.27 182.63 715.86 175.74
  Q 716.64 172.34 719.03 168.72
  Q 721.17 165.48 723.96 162.71
  Q 730.12 156.61 732.06 155.06
  Q 738.69 149.81 743.89 143.15
  Q 748.67 137.05 747.50 130.25
  Q 745.95 121.24 736.81 117.69
  Q 731.28 115.54 727.75 115.04"
/>
<path stroke="#948f91" vector-effect="non-scaling-stroke" d="
  M 727.75 115.04
  Q 722.41 113.65 719.00 113.50
  Q 694.47 112.45 670.44 117.42
  Q 653.74 120.87 637.50 126.04"
/>
<path stroke="#23191d" vector-effect="non-scaling-stroke" d="
  M 727.75 115.04
  Q 727.43 116.63 725.25 117.25
  Q 716.73 119.66 707.40 124.55
  Q 698.13 129.41 691.46 135.19
  Q 682.76 142.73 676.56 152.31
  Q 670.27 162.02 668.07 173.32
  Q 666.21 182.89 668.39 190.61
  Q 670.82 199.28 677.38 206.12
  Q 682.23 211.18 685.82 217.18
  Q 688.68 221.96 687.75 226.50
  Q 685.88 235.62 687.23 242.91
  Q 689.38 254.58 700.95 257.21
  Q 704.28 257.96 707.57 258.90
  Q 718.23 261.94 725.44 270.31
  Q 729.14 274.61 730.46 279.14
  Q 731.04 281.11 730.44 283.24
  Q 729.83 285.41 728.94 287.19
  Q 723.30 298.38 719.75 309.21
  Q 713.44 328.45 719.46 347.75"
/>
<path stroke="#2e2024" vector-effect="non-scaling-stroke" d="
  M 719.46 347.75
  Q 716.18 346.54 714.65 343.33
  Q 711.76 337.28 710.16 330.77
  Q 708.00 321.99 711.87 313.90
  Q 713.77 309.92 715.51 305.86
  Q 717.12 302.09 714.44 298.31
  Q 706.97 287.80 698.04 281.20
  Q 691.07 276.05 685.81 272.69
  Q 676.58 266.78 668.91 259.93
  Q 665.82 257.18 663.58 254.15
  Q 661.22 250.96 659.20 247.55
  Q 654.87 240.24 650.66 232.86
  Q 650.06 231.79 647.02 226.86
  Q 644.49 222.75 644.00 220.50
  Q 642.88 215.34 645.35 210.64
  Q 647.43 206.71 644.42 203.58
  Q 635.61 194.41 636.00 182.25
  Q 636.11 178.79 638.22 172.11
  Q 641.01 163.28 642.70 154.18
  Q 643.71 148.80 642.92 144.80
  Q 641.60 138.13 637.56 132.43
  A 3.56 1.70 -74.7 0 1 637.16 130.23
  L 637.50 126.04"
/>
<path stroke="#2f1f23" vector-effect="non-scaling-stroke" d="
  M 746.04 392.25
  Q 746.05 395.22 747.94 399.81
  Q 753.31 412.90 754.68 429.48
  Q 756.88 455.97 755.25 482.50
  Q 754.50 494.75 752.50 515.50
  Q 752.17 518.88 753.81 522.29
  Q 754.79 524.32 757.92 527.62
  Q 761.72 531.63 763.69 534.31
  Q 767.00 538.83 768.27 544.54
  Q 769.21 548.78 769.46 555.51
  Q 769.70 562.23 768.50 569.50
  Q 767.19 577.39 760.31 580.56
  Q 758.56 581.37 751.75 585.81
  Q 746.35 589.33 743.83 591.92
  Q 737.55 598.40 735.30 607.24
  Q 734.74 609.41 734.28 615.33
  Q 734.03 618.54 733.50 623.50
  Q 732.38 633.91 729.54 643.03
  Q 727.38 649.99 722.16 661.43
  Q 716.83 673.11 710.12 684.10
  Q 705.27 692.02 697.31 699.31
  Q 693.65 702.67 689.37 703.88
  Q 686.53 704.67 682.14 703.80
  Q 672.04 701.80 662.04 699.31
  A 1.45 0.34 49.0 0 1 661.29 698.77
  Q 661.09 698.57 660.79 698.50"
/>
<path stroke="#3c2527" vector-effect="non-scaling-stroke" d="
  M 660.79 698.50
  Q 665.18 692.17 669.68 685.91
  Q 675.72 677.50 678.36 673.22
  Q 688.82 656.26 695.54 637.39
  Q 697.51 631.86 700.06 626.56
  Q 701.16 624.27 701.00 621.69
  A 0.56 0.56 -69.9 0 0 700.40 621.17
  Q 699.54 621.24 699.71 620.50"
/>
<path stroke="#693628" vector-effect="non-scaling-stroke" d="
  M 699.71 620.50
  Q 711.20 595.46 717.69 574.69
  Q 722.83 558.22 726.37 537.96
  Q 728.12 527.95 728.47 520.96
  Q 728.93 511.80 727.94 503.81
  Q 724.91 479.62 716.76 453.00
  Q 711.48 435.76 703.94 421.81
  Q 697.84 410.54 686.31 391.44
  Q 682.82 385.65 676.21 378.75"
/>
<path stroke="#3c2527" vector-effect="non-scaling-stroke" d="
  M 676.21 378.75
  Q 676.12 377.79 675.83 376.88
  Q 675.58 376.09 674.82 375.33
  Q 672.50 372.97 670.46 370.38
  Q 667.86 367.09 666.14 365.45
  Q 657.34 357.13 646.44 350.06
  Q 643.75 348.32 640.33 345.59
  Q 638.68 344.27 635.97 342.78
  Q 633.67 341.53 631.61 339.89
  Q 618.17 329.20 603.16 320.85
  Q 590.86 314.01 577.06 311.22
  Q 568.34 309.46 559.53 308.27
  Q 551.56 307.20 547.06 304.94
  Q 540.02 301.39 532.97 297.85
  Q 524.11 293.40 518.49 291.75
  Q 502.67 287.11 485.25 288.75
  Q 462.88 290.85 443.51 297.92
  Q 400.04 313.77 371.94 350.44
  Q 367.00 356.87 361.55 365.23
  Q 355.46 374.56 353.09 377.99
  Q 348.71 384.28 344.29 390.55
  Q 337.48 400.20 332.31 410.81
  Q 326.20 423.37 317.52 447.28
  Q 315.59 452.60 311.31 462.87
  Q 307.59 471.81 305.75 478.75
  Q 303.03 489.03 301.19 505.44
  Q 300.60 510.80 298.00 528.25
  Q 296.26 539.97 296.14 554.00
  Q 296.04 565.11 297.47 573.92
  Q 300.12 590.32 306.89 605.47
  Q 308.72 609.56 316.47 623.01
  Q 324.74 637.36 331.27 652.76
  A 2.22 2.22 -89.9 0 0 332.44 653.93
  Q 338.25 656.39 341.13 660.10
  Q 346.16 666.59 350.79 673.36
  Q 359.45 686.03 360.08 686.86
  Q 392.45 730.02 445.51 744.47
  Q 446.60 744.77 447.50 745.46"
/>
<path stroke="#2f1f23" vector-effect="non-scaling-stroke" d="
  M 447.50 745.46
  Q 444.77 746.21 440.50 746.25
  Q 414.07 746.50 390.94 735.81
  Q 378.09 729.87 368.19 720.93
  Q 361.16 714.58 355.47 705.60
  Q 349.13 695.61 343.81 682.94
  Q 334.94 661.80 333.19 657.31
  Q 331.91 654.06 328.94 653.31
  Q 328.17 653.12 325.61 652.78
  Q 323.81 652.54 322.26 652.73
  Q 312.64 653.95 305.94 660.44
  Q 299.30 666.86 291.63 676.62
  Q 285.42 684.53 277.69 690.94
  Q 269.08 698.09 258.06 695.44
  Q 254.38 694.55 246.85 691.85
  Q 241.36 689.87 237.89 689.85
  Q 230.47 689.82 223.84 693.77
  Q 218.79 696.77 213.70 699.70
  Q 203.73 705.44 192.71 708.75"
/>
<path stroke="#422d31" vector-effect="non-scaling-stroke" d="
  M 161.50 620.29
  Q 163.39 620.53 163.79 618.76
  Q 165.53 611.23 165.20 603.50
  Q 164.89 596.47 168.00 590.75
  Q 171.59 584.15 177.38 577.37
  Q 185.36 568.01 193.85 559.10
  Q 207.05 545.24 210.06 526.26
  Q 213.76 502.96 207.95 480.12
  Q 206.19 473.18 205.25 463.50
  Q 204.40 454.68 207.29 447.23
  Q 208.49 444.15 208.50 444.11
  Q 209.61 441.02 210.67 437.91
  Q 212.33 433.10 212.85 429.97
  Q 214.80 418.30 210.62 407.61
  Q 210.31 406.81 203.34 393.35
  Q 198.52 384.04 196.31 378.94
  Q 191.84 368.60 191.50 361.00
  Q 191.30 356.46 192.56 352.56
  Q 196.07 341.78 202.74 332.55
  Q 207.53 325.92 212.48 321.12
  Q 218.00 315.76 224.69 312.19
  Q 234.58 306.90 246.69 302.69
  Q 261.84 297.41 274.25 296.52
  Q 278.46 296.22 282.15 297.88
  Q 284.29 298.84 285.25 300.34
  Q 286.40 302.14 286.19 304.44
  Q 285.57 311.21 285.60 317.28
  Q 285.64 323.68 287.63 326.83
  Q 291.46 332.92 300.50 330.50
  Q 323.40 324.36 338.65 305.64
  Q 342.36 301.10 349.19 291.94
  Q 355.55 283.41 365.31 275.81
  Q 375.87 267.60 394.43 258.42
  Q 397.88 256.71 404.06 252.56
  Q 409.94 248.61 412.89 242.91
  Q 414.97 238.88 414.41 234.78
  Q 413.80 230.31 410.94 226.81
  Q 408.94 224.38 407.83 221.95
  Q 406.69 219.46 407.61 217.49
  Q 408.70 215.18 411.52 214.31
  Q 416.42 212.79 421.52 212.16
  Q 439.10 209.97 456.66 207.62
  Q 467.47 206.18 473.19 204.53
  Q 481.31 202.20 488.94 198.44
  Q 497.89 194.02 504.95 186.94
  Q 508.04 183.85 510.06 182.81
  Q 520.96 177.26 532.76 174.04
  Q 541.80 171.58 550.09 167.26
  Q 552.57 165.97 554.13 163.65
  Q 557.75 158.29 561.61 153.10
  Q 562.54 151.85 562.50 150.29"
/>
<path stroke="#24181b" vector-effect="non-scaling-stroke" d="
  M 233.00 795.29
  Q 235.26 793.93 236.75 794.50
  Q 241.35 796.27 245.97 797.98
  Q 258.06 802.48 269.40 797.67
  Q 269.41 797.67 276.36 793.96
  Q 289.51 786.95 304.75 787.46
  Q 321.22 788.02 337.25 791.65
  Q 347.89 794.06 347.92 794.06
  Q 362.99 797.05 377.50 798.00
  Q 388.08 798.69 397.61 799.93
  Q 412.34 801.85 412.42 801.86
  Q 428.22 803.70 431.94 804.31
  Q 441.23 805.84 453.81 810.44
  Q 458.04 811.98 472.49 816.70
  Q 478.96 818.82 483.24 819.82
  Q 488.71 821.09 494.26 821.94
  Q 500.25 822.85 507.25 822.00
  Q 517.19 820.79 524.25 819.25
  Q 540.84 815.63 557.26 811.34
  Q 570.96 807.75 574.63 806.32
  Q 583.24 802.96 590.44 797.19
  Q 594.90 793.60 596.43 788.22
  Q 596.83 786.82 596.77 782.74
  Q 596.67 776.34 601.06 772.31
  Q 606.80 767.05 617.37 762.04
  Q 635.68 753.36 655.19 747.94
  Q 665.83 744.98 673.06 751.24
  Q 673.11 751.29 674.26 752.42
  Q 676.67 754.77 679.25 754.50
  Q 687.64 753.61 695.73 747.21
  Q 707.09 738.21 718.38 729.11
  Q 734.10 716.44 746.97 701.02
  Q 751.78 695.25 758.96 685.02
  Q 770.15 669.04 776.19 659.44
  Q 791.67 634.81 794.43 604.24
  Q 796.66 579.48 802.25 555.25
  Q 810.75 518.43 824.06 483.06
  Q 825.42 479.47 825.73 476.40
  Q 826.02 473.63 824.52 469.83
  Q 818.63 454.91 811.04 440.79
  Q 805.85 431.10 804.52 429.13
  Q 800.46 423.09 794.94 419.56
  Q 789.00 415.77 780.11 412.48
  Q 767.04 407.65 765.61 406.93
  Q 754.59 401.45 746.04 392.25"
/>
<path stroke="#281a1e" vector-effect="non-scaling-stroke" d="
  M 746.04 392.25
  Q 735.81 378.35 726.99 363.50
  Q 722.51 355.96 719.46 347.75"
/>
<path stroke="#55393c" vector-effect="non-scaling-stroke" d="
  M 216.29 299.25
  Q 217.79 299.65 217.47 300.97
  A 0.48 0.45 -77.5 0 0 217.81 301.55
  Q 220.03 301.95 221.77 300.73
  Q 223.36 299.61 223.46 299.55
  Q 225.57 298.31 227.46 296.75
  Q 228.77 295.66 230.79 294.76
  Q 232.62 293.95 234.18 292.64
  Q 234.52 292.36 235.05 292.24
  Q 235.95 292.03 236.45 291.32
  Q 237.34 290.03 237.40 289.97
  Q 240.46 286.90 243.80 284.13
  A 0.36 0.33 -28.0 0 1 244.37 284.28
  L 244.88 286.31
  A 0.44 0.39 73.0 0 0 245.41 286.64
  Q 246.62 286.13 247.46 285.19
  Q 248.67 283.85 249.18 283.45
  Q 251.87 281.40 254.14 278.89
  Q 256.21 276.59 258.82 275.01
  Q 261.79 273.22 263.24 271.85
  Q 268.38 267.01 270.00 266.25
  Q 273.45 264.64 277.75 261.00
  Q 278.63 260.26 283.09 257.05
  Q 284.21 256.25 286.77 255.04
  Q 289.09 253.95 290.19 252.44
  Q 291.45 250.68 294.69 249.19
  Q 296.76 248.23 303.76 242.75
  Q 305.98 241.01 309.25 239.75
  Q 311.96 238.70 314.73 236.71
  Q 316.79 235.22 319.04 234.43
  Q 323.01 233.02 326.65 230.88
  Q 333.64 226.77 341.47 224.57
  A 1.49 1.32 -77.4 0 0 342.23 224.02
  Q 344.87 220.36 349.00 219.25
  Q 352.66 218.26 354.97 217.37
  A 1.39 1.21 -83.7 0 0 355.65 216.74
  Q 357.09 213.90 360.50 214.50
  A 4.92 1.89 19.7 0 0 363.19 214.44
  L 366.12 213.29
  Q 366.31 213.21 366.87 212.67
  Q 367.35 212.22 368.02 212.34
  A 1.61 0.90 24.9 0 0 368.95 212.27
  Q 375.97 208.67 383.48 206.25
  Q 383.94 206.10 385.05 206.00
  Q 385.90 205.93 386.63 205.52
  Q 388.44 204.51 388.66 204.44
  Q 393.34 202.88 398.19 201.94
  Q 398.85 201.81 401.28 200.23
  Q 402.77 199.26 404.49 198.90
  Q 414.27 196.87 423.52 193.13
  Q 424.87 192.58 426.50 191.18
  Q 428.35 189.58 429.75 189.50
  Q 432.98 189.31 436.04 188.26
  Q 444.96 185.19 453.79 181.90
  Q 457.17 180.64 461.75 179.63
  Q 465.82 178.74 469.79 177.50
  Q 473.49 176.34 477.74 175.41
  Q 481.77 174.53 485.70 173.23
  Q 487.62 172.60 492.25 172.50
  Q 494.21 172.46 502.94 170.78
  A 1.47 1.32 -73.0 0 0 503.74 170.30
  Q 505.28 168.47 507.10 169.70
  A 1.48 1.17 53.4 0 0 507.99 169.94
  L 510.28 169.65
  A 1.01 0.99 -82.5 0 0 511.09 169.02
  Q 512.45 165.53 515.14 165.07
  Q 516.71 164.79 517.26 164.51
  Q 518.24 163.99 519.16 163.35
  Q 519.56 163.07 520.05 163.02
  Q 522.73 162.74 520.23 162.05
  Q 519.85 161.94 520.20 161.75
  Q 521.27 161.17 519.82 161.08
  Q 519.53 161.06 519.80 160.99
  Q 520.46 160.81 520.75 160.21"
/>
<path stroke="#723a2a" vector-effect="non-scaling-stroke" d="
  M 676.21 378.75
  Q 671.78 374.27 659.56 364.19
  Q 650.00 356.29 643.03 351.17
  Q 636.59 346.44 629.33 342.81
  Q 621.32 338.82 614.50 336.50
  Q 605.87 333.57 586.50 328.50
  Q 583.51 327.72 581.75 328.29"
/>
<path stroke="#a26a42" vector-effect="non-scaling-stroke" d="
  M 581.75 328.29
  Q 568.06 324.27 554.02 321.62
  Q 545.37 319.99 536.75 318.21"
/>
<path stroke="#6f3a2b" vector-effect="non-scaling-stroke" d="
  M 536.75 318.21
  Q 470.26 299.43 415.49 339.76
  Q 405.54 347.09 394.44 357.19
  Q 393.06 358.44 393.00 359.96"
/>
<path stroke="#a26a42" vector-effect="non-scaling-stroke" d="
  M 393.00 359.96
  Q 389.89 362.79 384.69 368.94
  Q 376.16 379.00 363.57 392.42
  Q 354.03 402.58 350.33 407.40
  Q 340.05 420.77 333.04 436.25"
/>
<path stroke="#723a2a" vector-effect="non-scaling-stroke" d="
  M 333.04 436.25
  Q 330.57 439.38 329.81 441.31
  Q 325.54 452.24 320.57 462.86
  Q 314.10 476.67 312.76 480.99
  Q 309.93 490.12 309.00 500.50
  Q 306.24 531.39 309.42 559.43
  Q 311.00 573.36 314.56 585.94
  Q 319.49 603.33 329.56 618.89
  Q 338.82 633.22 341.69 638.56
  Q 349.51 653.14 360.19 667.56
  Q 379.36 693.46 406.25 710.25
  Q 428.84 724.36 453.16 729.71
  Q 461.59 731.56 472.87 733.11
  Q 487.29 735.10 504.75 735.50
  Q 548.12 736.50 586.74 723.21
  Q 609.24 715.46 626.94 707.19
  Q 651.17 695.86 667.99 674.97
  Q 672.88 668.89 679.11 658.37
  Q 690.10 639.82 699.71 620.50"
/>
<path stroke="#382325" vector-effect="non-scaling-stroke" d="
  M 660.79 698.50
  Q 656.35 703.61 648.94 710.69
  Q 638.87 720.30 625.79 722.69
  Q 617.80 724.15 617.77 724.16
  Q 607.56 726.78 598.41 732.13
  Q 589.86 737.13 581.69 739.69
  Q 562.34 745.74 540.48 748.61
  Q 527.92 750.26 516.31 748.94
  Q 505.96 747.76 493.84 745.17
  Q 493.77 745.15 490.55 744.39
  Q 480.13 741.93 468.25 744.25
  Q 459.47 745.97 447.50 745.46"
/>
<path stroke="#ce7b43" vector-effect="non-scaling-stroke" d="
  M 581.75 328.29
  Q 643.68 350.54 681.31 403.30
  Q 687.13 411.46 691.99 420.20
  Q 719.49 469.73 718.19 526.76
  Q 717.97 536.81 716.63 546.68
  Q 709.64 598.08 679.46 640.70
  Q 667.66 657.36 652.44 670.93
  Q 604.56 713.63 541.44 721.70
  Q 531.53 722.97 521.51 723.26
  Q 466.04 724.90 417.51 698.86
  Q 408.59 694.07 400.43 688.48
  Q 365.00 664.19 343.25 627.75
  Q 313.35 577.65 315.35 518.00
  Q 316.77 475.49 333.04 436.25"
/>
<path stroke="#cc7b44" vector-effect="non-scaling-stroke" d="
  M 536.75 318.21
  Q 535.66 318.28 529.50 318.00
  Q 453.76 314.50 393.00 359.96"
/>
<path stroke="#989093" vector-effect="non-scaling-stroke" d="
  M 797.90 138.86
  Q 795.85 143.00 797.06 147.44
  Q 799.41 156.04 806.78 161.01
  Q 812.49 164.85 818.43 165.19
  Q 825.19 165.58 830.94 161.19
  Q 835.38 157.79 834.36 152.81
  Q 834.15 151.82 831.86 147.63
  Q 829.52 143.35 829.58 138.25
  Q 829.66 130.68 822.50 129.00
  Q 811.45 126.40 803.25 132.67
  Q 799.55 135.51 797.90 138.86"
/>
<path stroke="#978e8f" vector-effect="non-scaling-stroke" d="
  M 352.2795 159.2186
  A 7.84 7.23 91.1 0 0 359.6587 151.5188
  A 7.84 7.23 91.1 0 0 352.5805 143.5414
  A 7.84 7.23 91.1 0 0 345.2013 151.2412
  A 7.84 7.23 91.1 0 0 352.2795 159.2186"
/>
<path stroke="#948f91" vector-effect="non-scaling-stroke" d="
  M 874.69 199.44
  A 3.24 3.24 0.0 0 0 871.45 196.20
  A 3.24 3.24 0.0 0 0 868.21 199.44
  A 3.24 3.24 0.0 0 0 871.45 202.68
  A 3.24 3.24 0.0 0 0 874.69 199.44"
/>
<path stroke="#999092" vector-effect="non-scaling-stroke" d="
  M 896.30 429.38
  Q 899.64 430.57 903.19 428.94
  Q 913.25 424.30 909.04 413.37
  Q 906.75 407.41 902.06 403.94
  Q 895.13 398.80 889.37 403.98
  Q 887.84 405.36 887.20 406.97
  Q 886.55 408.63 886.44 410.69
  Q 885.98 419.42 891.14 425.49
  Q 893.65 428.43 896.30 429.38"
/>
<path stroke="#978e8f" vector-effect="non-scaling-stroke" d="
  M 124.49 527.20
  A 5.79 5.79 0.0 0 0 118.70 521.41
  A 5.79 5.79 0.0 0 0 112.91 527.20
  A 5.79 5.79 0.0 0 0 118.70 532.99
  A 5.79 5.79 0.0 0 0 124.49 527.20"
/>
<path stroke="#978e8f" vector-effect="non-scaling-stroke" d="
  M 871.8476 737.4826
  A 6.83 6.14 128.4 0 0 880.9019 735.9438
  A 6.83 6.14 128.4 0 0 880.3324 726.7774
  A 6.83 6.14 128.4 0 0 871.2781 728.3162
  A 6.83 6.14 128.4 0 0 871.8476 737.4826"
/>
<path stroke="#989093" vector-effect="non-scaling-stroke" d="
  M 160.16 821.81
  Q 162.17 822.27 164.50 821.75
  Q 168.33 820.89 174.00 820.86
  Q 178.33 820.84 180.75 818.14
  Q 182.87 815.77 182.58 811.85
  Q 182.13 805.64 176.83 803.25
  Q 172.64 801.36 167.56 802.69
  Q 161.01 804.41 156.75 810.27
  Q 152.88 815.58 156.61 819.65
  Q 158.16 821.34 160.16 821.81"
/>
<path stroke="#997251" vector-effect="non-scaling-stroke" d="
  M 507.85 208.24
  A 3.53 3.53 0.0 0 0 504.32 204.71
  A 3.53 3.53 0.0 0 0 500.79 208.24
  A 3.53 3.53 0.0 0 0 504.32 211.77
  A 3.53 3.53 0.0 0 0 507.85 208.24"
/>
<path stroke="#2b1c1e" vector-effect="non-scaling-stroke" d="
  M 470.41 268.34
  Q 473.29 270.71 476.00 271.50
  Q 486.52 274.56 498.40 274.95
  Q 504.31 275.14 506.60 275.02
  Q 510.62 274.82 514.75 273.75
  Q 520.48 272.26 522.99 267.70
  Q 524.71 264.56 523.72 261.11
  Q 522.70 257.60 519.81 255.19
  Q 503.48 241.58 482.55 247.77
  Q 475.23 249.94 470.27 255.33
  Q 467.42 258.44 467.17 261.44
  Q 466.85 265.43 470.41 268.34"
/>
<path stroke="#985d40" vector-effect="non-scaling-stroke" d="
  M 598.80 282.73
  A 6.74 6.74 0.0 0 0 592.06 275.99
  A 6.74 6.74 0.0 0 0 585.32 282.73
  A 6.74 6.74 0.0 0 0 592.06 289.47
  A 6.74 6.74 0.0 0 0 598.80 282.73"
/>
<path stroke="#2b1c1e" vector-effect="non-scaling-stroke" d="
  M 637.1168 284.3283
  A 13.43 11.87 -16.8 0 0 620.8292 276.8466
  A 13.43 11.87 -16.8 0 0 611.4032 292.0917
  A 13.43 11.87 -16.8 0 0 627.6908 299.5734
  A 13.43 11.87 -16.8 0 0 637.1168 284.3283"
/>
<path stroke="#2b1c1e" vector-effect="non-scaling-stroke" d="
  M 311.3621 385.0139
  A 9.34 7.26 35.2 0 0 307.9149 373.6975
  A 9.34 7.26 35.2 0 0 296.0979 374.2461
  A 9.34 7.26 35.2 0 0 299.5451 385.5625
  A 9.34 7.26 35.2 0 0 311.3621 385.0139"
/>
<path stroke="#985d40" vector-effect="non-scaling-stroke" d="
  M 716.22 391.22
  A 4.79 4.79 0.0 0 0 711.43 386.43
  A 4.79 4.79 0.0 0 0 706.64 391.22
  A 4.79 4.79 0.0 0 0 711.43 396.01
  A 4.79 4.79 0.0 0 0 716.22 391.22"
/>
<path stroke="#2b1c1e" vector-effect="non-scaling-stroke" d="
  M 251.8257 572.1098
  A 12.55 11.93 89.7 0 0 263.6898 559.4975
  A 12.55 11.93 89.7 0 0 251.6943 547.0102
  A 12.55 11.93 89.7 0 0 239.8302 559.6225
  A 12.55 11.93 89.7 0 0 251.8257 572.1098"
/>
<path stroke="#997251" vector-effect="non-scaling-stroke" d="
  M 207.45 584.62
  A 7.11 7.11 0.0 0 0 200.34 577.51
  A 7.11 7.11 0.0 0 0 193.23 584.62
  A 7.11 7.11 0.0 0 0 200.34 591.73
  A 7.11 7.11 0.0 0 0 207.45 584.62"
/>
<path stroke="#3d2a2e" vector-effect="non-scaling-stroke" d="
  M 367.0959 234.0618
  A 12.39 8.86 -37.3 0 0 351.8709 234.5221
  A 12.39 8.86 -37.3 0 0 347.3841 249.0782
  A 12.39 8.86 -37.3 0 0 362.6091 248.6179
  A 12.39 8.86 -37.3 0 0 367.0959 234.0618"
/>
<path stroke="#8d5d35" vector-effect="non-scaling-stroke" d="
  M 360.71 447.50
  L 355.75 459.79"
/>
<path stroke="#ffc572" vector-effect="non-scaling-stroke" d="
  M 355.75 459.79
  Q 353.29 460.72 352.60 463.28
  Q 351.77 466.36 350.72 469.36
  Q 343.56 489.84 341.90 511.49
  Q 339.35 544.83 348.96 576.75"
/>
<path stroke="#ffb05d" vector-effect="non-scaling-stroke" d="
  M 348.96 576.75
  Q 348.36 576.66 348.64 577.15
  Q 349.94 579.51 348.63 581.61
  Q 348.23 582.25 348.21 582.61
  Q 348.19 583.21 348.59 583.71
  A 1.50 0.99 35.2 0 1 348.92 584.56
  Q 348.76 589.08 349.79 593.43
  Q 350.33 595.74 351.15 600.19
  Q 351.87 604.12 353.81 607.94
  Q 356.78 613.76 359.81 621.94
  Q 360.34 623.36 363.62 628.42
  Q 364.45 629.70 368.22 634.33
  Q 370.33 636.92 372.75 640.75
  Q 373.79 642.40 373.97 643.50
  A 1.83 1.06 -82.9 0 0 374.34 644.37
  Q 382.78 653.71 385.44 658.06
  Q 387.13 660.84 389.16 662.49
  Q 392.63 665.31 392.87 665.55
  Q 398.25 670.98 404.37 675.58
  Q 404.41 675.61 408.88 678.61
  Q 411.96 680.67 416.19 684.31
  Q 420.87 688.35 429.39 692.99
  Q 431.99 694.41 438.97 697.40
  Q 443.82 699.49 448.46 702.04
  Q 449.89 702.82 451.83 703.45
  Q 453.58 704.02 455.25 704.80
  Q 458.51 706.31 460.34 706.79
  Q 466.52 708.40 472.83 709.36
  Q 473.25 709.43 473.70 709.76
  Q 474.85 710.61 476.50 710.50
  Q 479.78 710.29 483.25 711.21
  Q 483.26 711.21 485.20 711.94
  Q 487.61 712.84 490.80 712.05
  A 1.62 1.61 -32.4 0 1 492.17 712.35
  Q 494.13 713.90 495.85 712.80
  A 2.04 1.23 -50.7 0 1 496.75 712.48
  Q 510.63 711.98 524.47 712.96
  Q 528.19 713.22 531.98 712.60
  Q 536.06 711.93 540.16 711.45
  Q 543.77 711.03 547.24 709.77
  Q 553.51 707.48 559.97 705.76
  Q 563.82 704.74 567.85 703.16
  Q 571.72 701.64 575.70 700.42
  Q 579.71 699.18 583.61 697.56
  Q 586.63 696.31 591.44 694.44
  Q 604.22 689.45 619.04 681.22
  Q 619.70 680.85 621.60 679.35
  Q 622.88 678.34 624.45 677.83
  A 1.51 1.43 -80.3 0 0 625.21 677.26
  Q 625.78 676.44 626.57 675.83
  Q 631.20 672.20 635.62 668.33
  A 0.92 0.89 -56.7 0 1 636.47 668.14
  L 637.26 668.36
  A 0.87 0.87 30.5 0 0 638.11 668.14
  Q 643.27 663.02 646.75 661.00
  Q 648.26 660.13 647.44 659.50
  A 0.45 0.40 40.0 0 1 647.35 658.88
  Q 657.09 648.58 667.10 638.53
  Q 668.92 636.70 671.80 632.96
  Q 674.03 630.05 676.71 627.52
  Q 677.02 627.23 677.11 626.86
  Q 677.21 626.46 677.26 626.06
  Q 677.33 625.54 677.61 625.15
  Q 680.56 621.10 684.31 614.06
  Q 694.86 594.29 697.96 588.39
  Q 702.32 580.10 705.34 571.22
  Q 705.37 571.13 706.47 568.49
  Q 707.10 566.98 707.23 565.35
  Q 707.38 563.37 707.53 562.68
  Q 707.82 561.36 708.13 560.04
  Q 708.16 559.94 709.10 557.03
  Q 709.60 555.48 709.60 553.84
  Q 709.62 551.54 709.73 550.67
  Q 710.13 547.41 710.75 540.00
  Q 710.79 539.55 711.57 537.47
  A 1.37 1.33 45.8 0 0 711.57 536.54
  Q 710.27 532.94 711.50 529.25
  Q 711.83 528.27 711.65 525.41
  Q 711.55 523.71 711.85 521.62
  Q 712.38 517.94 711.71 514.32
  Q 711.03 510.64 711.03 508.59
  Q 711.04 504.70 710.88 500.81
  Q 710.78 498.57 709.94 495.81
  Q 708.90 492.40 709.00 490.75
  Q 709.18 487.80 707.50 484.25
  Q 707.06 483.33 707.56 481.96
  A 1.87 1.44 -47.7 0 0 707.64 481.01
  Q 705.11 469.96 703.06 463.69
  Q 702.32 461.41 700.54 458.32
  Q 699.68 456.82 699.02 454.89
  Q 698.41 453.10 697.54 451.38
  Q 697.33 450.96 697.33 450.43
  Q 697.34 448.40 696.14 446.83
  A 1.86 1.55 27.3 0 1 695.77 445.95
  Q 695.52 443.84 694.30 442.23
  Q 692.23 439.51 692.16 439.39
  Q 689.20 434.29 686.48 429.06
  Q 684.76 425.76 682.18 422.53
  Q 679.53 419.21 677.56 416.19
  Q 674.73 411.84 671.67 408.28
  Q 670.01 406.36 667.09 402.54
  Q 664.84 399.61 662.06 397.14
  Q 661.72 396.84 661.52 396.34
  Q 660.91 394.86 659.54 393.98
  Q 654.80 390.92 650.94 386.81
  Q 649.94 385.76 648.09 384.46
  Q 646.96 383.67 645.31 382.09
  Q 643.44 380.29 641.01 379.22
  Q 634.98 376.55 629.10 373.57
  Q 628.42 373.22 623.15 370.87
  Q 620.80 369.82 617.25 368.00
  Q 610.26 364.40 608.75 363.50
  Q 604.95 361.22 601.63 359.83
  Q 596.04 357.47 595.96 357.44
  Q 589.39 354.38 582.67 351.67
  Q 582.61 351.65 581.90 351.22
  Q 581.36 350.91 580.92 351.32
  A 0.60 0.35 -51.8 0 1 580.51 351.48
  Q 580.13 351.40 580.46 351.10
  Q 580.66 350.93 580.41 350.87
  Q 572.06 348.83 563.19 345.06
  Q 548.20 338.70 531.54 336.06
  Q 530.13 335.84 527.56 335.09
  Q 525.58 334.52 523.49 334.31
  Q 512.45 333.21 501.38 333.71
  Q 500.53 333.75 499.72 334.16
  Q 498.95 334.56 498.15 334.91
  Q 497.05 335.41 495.63 335.45
  Q 492.03 335.56 488.50 336.26
  Q 483.71 337.22 478.81 337.08
  A 0.70 0.52 -78.2 0 0 478.25 337.57
  Q 478.13 337.96 477.77 338.13
  Q 477.43 338.28 476.75 338.09
  Q 473.71 337.25 471.32 339.23
  A 1.69 1.44 -62.6 0 1 470.43 339.59
  Q 465.09 339.89 461.94 341.19
  Q 457.76 342.91 439.88 351.11
  Q 439.77 351.16 432.95 354.16
  Q 424.56 357.85 416.82 362.76
  Q 414.98 363.93 413.04 365.67
  Q 411.25 367.28 409.44 368.85
  Q 407.32 370.68 403.66 373.15
  Q 392.51 380.70 383.96 391.07
  Q 381.27 394.33 378.45 399.18
  Q 375.99 403.42 373.57 407.69
  Q 373.55 407.72 371.16 411.61
  Q 369.59 414.17 368.53 416.95
  Q 368.07 418.16 366.69 420.99
  Q 365.69 423.03 365.36 425.28
  Q 364.88 428.49 364.26 429.93
  Q 363.21 432.37 362.00 434.75
  Q 361.03 436.66 361.44 440.50
  A 1.03 0.91 13.9 0 0 361.94 441.23
  Q 362.89 441.78 362.16 442.08
  A 2.01 2.00 -1.4 0 0 361.01 443.28
  Q 359.60 447.42 360.71 447.50"
/>
<path stroke="#ffc973" vector-effect="non-scaling-stroke" d="
  M 348.96 576.75
  Q 363.18 619.31 394.94 649.81
  Q 442.11 695.12 508.51 698.39
  Q 543.65 700.12 575.50 689.00
  Q 612.73 676.00 640.81 647.94
  Q 647.76 640.99 654.00 632.94
  Q 693.60 581.89 691.76 516.48
  Q 691.48 506.37 690.10 496.57
  Q 681.33 434.36 635.06 390.95
  Q 600.33 358.36 554.25 349.25
  Q 541.39 346.71 526.94 346.88
  Q 517.70 346.98 517.55 346.98
  Q 510.40 347.00 503.24 347.23
  A 1.56 1.39 21.7 0 0 502.36 347.55
  Q 500.58 348.97 503.25 348.79"
/>
<path stroke="#8d6236" vector-effect="non-scaling-stroke" d="
  M 503.25 348.79
  Q 463.86 351.18 431.81 369.06
  Q 383.95 395.78 360.71 447.50"
/>
<path stroke="#8d774b" vector-effect="non-scaling-stroke" d="
  M 355.75 459.79
  Q 340.90 502.40 348.25 545.50
  Q 354.78 583.82 379.46 615.75"
/>
<path stroke="#897449" vector-effect="non-scaling-stroke" d="
  M 379.46 615.75
  Q 408.92 654.18 453.57 671.20
  Q 462.83 674.73 472.66 677.05
  Q 524.55 689.31 573.75 669.75
  Q 613.00 654.15 640.29 621.07
  Q 646.62 613.40 651.98 604.86
  Q 684.31 553.41 675.82 492.43
  Q 674.42 482.38 671.80 472.85
  Q 659.98 429.79 628.50 397.46"
/>
<path stroke="#8d774b" vector-effect="non-scaling-stroke" d="
  M 628.50 397.46
  Q 577.05 345.93 503.25 348.79"
/>
<path stroke="#170c0c" vector-effect="non-scaling-stroke" d="
  M 628.50 397.46
  Q 627.72 397.63 627.44 398.69
  Q 625.99 404.14 625.45 407.24
  Q 625.36 407.75 625.09 408.13
  Q 624.73 408.63 624.68 409.00
  Q 623.60 416.36 620.56 425.81
  Q 612.79 450.02 602.09 470.14
  Q 586.62 499.23 565.52 524.54
  Q 544.56 549.69 523.44 567.44
  Q 501.91 585.53 477.58 599.65
  Q 458.41 610.77 437.24 617.35
  Q 421.02 622.39 405.81 619.44
  Q 391.95 616.74 385.31 614.19
  Q 381.38 612.68 379.46 615.75"
/>
<path stroke="#935b3d" vector-effect="non-scaling-stroke" d="
  M 310.85 705.08
  A 6.78 6.78 0.0 0 0 304.07 698.30
  A 6.78 6.78 0.0 0 0 297.29 705.08
  A 6.78 6.78 0.0 0 0 304.07 711.86
  A 6.78 6.78 0.0 0 0 310.85 705.08"
/>
<path stroke="#24181b" vector-effect="non-scaling-stroke" d="
  M 282.94 765.56
  Q 288.26 769.33 294.53 768.21
  Q 298.70 767.47 301.36 766.00
  Q 305.10 763.92 305.55 759.54
  Q 305.87 756.40 304.25 753.73
  Q 302.57 750.96 299.60 749.53
  Q 298.44 748.98 295.03 747.85
  Q 292.38 746.98 290.25 746.75
  Q 284.18 746.09 280.90 749.85
  Q 278.03 753.14 278.31 757.71
  Q 278.61 762.49 282.94 765.56"
/>
<path stroke="#935b3d" vector-effect="non-scaling-stroke" d="
  M 554.59 767.72
  A 3.06 3.06 0.0 0 0 551.53 764.66
  A 3.06 3.06 0.0 0 0 548.47 767.72
  A 3.06 3.06 0.0 0 0 551.53 770.78
  A 3.06 3.06 0.0 0 0 554.59 767.72"
/>
</g>
<path fill="#291e23" d="
  M 727.75 115.04
  Q 727.43 116.63 725.25 117.25
  Q 716.73 119.66 707.40 124.55
  Q 698.13 129.41 691.46 135.19
  Q 682.76 142.73 676.56 152.31
  Q 670.27 162.02 668.07 173.32
  Q 666.21 182.89 668.39 190.61
  Q 670.82 199.28 677.38 206.12
  Q 682.23 211.18 685.82 217.18
  Q 688.68 221.96 687.75 226.50
  Q 685.88 235.62 687.23 242.91
  Q 689.38 254.58 700.95 257.21
  Q 704.28 257.96 707.57 258.90
  Q 718.23 261.94 725.44 270.31
  Q 729.14 274.61 730.46 279.14
  Q 731.04 281.11 730.44 283.24
  Q 729.83 285.41 728.94 287.19
  Q 723.30 298.38 719.75 309.21
  Q 713.44 328.45 719.46 347.75
  Q 716.18 346.54 714.65 343.33
  Q 711.76 337.28 710.16 330.77
  Q 708.00 321.99 711.87 313.90
  Q 713.77 309.92 715.51 305.86
  Q 717.12 302.09 714.44 298.31
  Q 706.97 287.80 698.04 281.20
  Q 691.07 276.05 685.81 272.69
  Q 676.58 266.78 668.91 259.93
  Q 665.82 257.18 663.58 254.15
  Q 661.22 250.96 659.20 247.55
  Q 654.87 240.24 650.66 232.86
  Q 650.06 231.79 647.02 226.86
  Q 644.49 222.75 644.00 220.50
  Q 642.88 215.34 645.35 210.64
  Q 647.43 206.71 644.42 203.58
  Q 635.61 194.41 636.00 182.25
  Q 636.11 178.79 638.22 172.11
  Q 641.01 163.28 642.70 154.18
  Q 643.71 148.80 642.92 144.80
  Q 641.60 138.13 637.56 132.43
  A 3.56 1.70 -74.7 0 1 637.16 130.23
  L 637.50 126.04
  Q 653.74 120.87 670.44 117.42
  Q 694.47 112.45 719.00 113.50
  Q 722.41 113.65 727.75 115.04
  Z"
/>
<path fill="#1d1316" d="
  M 727.75 115.04
  Q 731.28 115.54 736.81 117.69
  Q 745.95 121.24 747.50 130.25
  Q 748.67 137.05 743.89 143.15
  Q 738.69 149.81 732.06 155.06
  Q 730.12 156.61 723.96 162.71
  Q 721.17 165.48 719.03 168.72
  Q 716.64 172.34 715.86 175.74
  Q 714.27 182.63 717.69 189.56
  Q 720.64 195.55 724.23 199.77
  Q 734.24 211.53 747.05 220.18
  Q 765.76 232.81 786.99 240.52
  Q 794.68 243.30 810.94 248.81
  Q 815.92 250.50 821.18 253.89
  Q 830.63 259.98 825.50 270.25
  Q 822.24 276.78 816.58 285.37
  Q 805.50 302.18 808.74 321.16
  Q 809.98 328.43 813.78 335.72
  Q 817.23 342.34 822.19 348.81
  Q 828.49 357.04 831.49 360.96
  Q 842.54 375.39 849.83 391.91
  Q 852.10 397.06 857.20 410.51
  Q 869.09 441.81 876.86 474.43
  Q 883.18 500.96 883.74 528.25
  Q 884.35 557.75 879.81 589.56
  Q 876.54 612.47 870.43 632.10
  Q 863.89 653.08 855.66 673.47
  Q 844.45 701.25 826.69 725.17
  Q 821.39 732.30 814.34 740.89
  Q 791.78 768.37 763.55 790.10
  Q 759.01 793.60 757.26 795.27
  Q 753.76 798.61 752.06 801.56
  Q 749.23 806.48 753.44 811.31
  Q 754.59 812.64 759.14 816.38
  Q 762.76 819.35 760.73 822.19
  Q 759.95 823.29 756.81 825.30
  Q 748.25 830.78 739.64 836.19
  Q 733.85 839.83 731.56 843.56
  Q 730.16 845.85 729.69 849.80
  Q 729.35 852.61 728.56 854.00
  Q 727.39 856.08 725.69 857.44
  Q 720.19 861.79 713.43 864.18
  Q 709.33 865.63 699.87 866.81
  Q 688.89 868.17 682.75 869.50
  Q 675.97 870.97 644.77 878.61
  Q 644.72 878.62 630.89 882.14
  Q 609.08 887.70 589.50 890.00
  Q 558.80 893.61 525.24 892.83
  Q 514.81 892.58 505.27 891.82
  Q 435.47 886.21 371.94 857.56
  Q 365.00 854.44 358.24 850.10
  Q 356.61 849.06 345.67 840.89
  Q 334.66 832.67 322.94 826.56
  Q 314.03 821.92 303.94 819.31
  Q 296.56 817.41 294.16 817.22
  Q 289.01 816.83 284.07 819.08
  Q 282.32 819.88 280.54 820.58
  Q 278.61 821.33 276.84 821.30
  Q 270.35 821.21 265.27 817.19
  Q 262.04 814.64 261.97 814.59
  Q 247.77 804.51 233.00 795.29
  Q 235.26 793.93 236.75 794.50
  Q 241.35 796.27 245.97 797.98
  Q 258.06 802.48 269.40 797.67
  Q 269.41 797.67 276.36 793.96
  Q 289.51 786.95 304.75 787.46
  Q 321.22 788.02 337.25 791.65
  Q 347.89 794.06 347.92 794.06
  Q 362.99 797.05 377.50 798.00
  Q 388.08 798.69 397.61 799.93
  Q 412.34 801.85 412.42 801.86
  Q 428.22 803.70 431.94 804.31
  Q 441.23 805.84 453.81 810.44
  Q 458.04 811.98 472.49 816.70
  Q 478.96 818.82 483.24 819.82
  Q 488.71 821.09 494.26 821.94
  Q 500.25 822.85 507.25 822.00
  Q 517.19 820.79 524.25 819.25
  Q 540.84 815.63 557.26 811.34
  Q 570.96 807.75 574.63 806.32
  Q 583.24 802.96 590.44 797.19
  Q 594.90 793.60 596.43 788.22
  Q 596.83 786.82 596.77 782.74
  Q 596.67 776.34 601.06 772.31
  Q 606.80 767.05 617.37 762.04
  Q 635.68 753.36 655.19 747.94
  Q 665.83 744.98 673.06 751.24
  Q 673.11 751.29 674.26 752.42
  Q 676.67 754.77 679.25 754.50
  Q 687.64 753.61 695.73 747.21
  Q 707.09 738.21 718.38 729.11
  Q 734.10 716.44 746.97 701.02
  Q 751.78 695.25 758.96 685.02
  Q 770.15 669.04 776.19 659.44
  Q 791.67 634.81 794.43 604.24
  Q 796.66 579.48 802.25 555.25
  Q 810.75 518.43 824.06 483.06
  Q 825.42 479.47 825.73 476.40
  Q 826.02 473.63 824.52 469.83
  Q 818.63 454.91 811.04 440.79
  Q 805.85 431.10 804.52 429.13
  Q 800.46 423.09 794.94 419.56
  Q 789.00 415.77 780.11 412.48
  Q 767.04 407.65 765.61 406.93
  Q 754.59 401.45 746.04 392.25
  Q 735.81 378.35 726.99 363.50
  Q 722.51 355.96 719.46 347.75
  Q 713.44 328.45 719.75 309.21
  Q 723.30 298.38 728.94 287.19
  Q 729.83 285.41 730.44 283.24
  Q 731.04 281.11 730.46 279.14
  Q 729.14 274.61 725.44 270.31
  Q 718.23 261.94 707.57 258.90
  Q 704.28 257.96 700.95 257.21
  Q 689.38 254.58 687.23 242.91
  Q 685.88 235.62 687.75 226.50
  Q 688.68 221.96 685.82 217.18
  Q 682.23 211.18 677.38 206.12
  Q 670.82 199.28 668.39 190.61
  Q 666.21 182.89 668.07 173.32
  Q 670.27 162.02 676.56 152.31
  Q 682.76 142.73 691.46 135.19
  Q 698.13 129.41 707.40 124.55
  Q 716.73 119.66 725.25 117.25
  Q 727.43 116.63 727.75 115.04
  Z"
/>
<path fill="#332125" d="
  M 637.50 126.04
  L 637.16 130.23
  A 3.56 1.70 -74.7 0 0 637.56 132.43
  Q 641.60 138.13 642.92 144.80
  Q 643.71 148.80 642.70 154.18
  Q 641.01 163.28 638.22 172.11
  Q 636.11 178.79 636.00 182.25
  Q 635.61 194.41 644.42 203.58
  Q 647.43 206.71 645.35 210.64
  Q 642.88 215.34 644.00 220.50
  Q 644.49 222.75 647.02 226.86
  Q 650.06 231.79 650.66 232.86
  Q 654.87 240.24 659.20 247.55
  Q 661.22 250.96 663.58 254.15
  Q 665.82 257.18 668.91 259.93
  Q 676.58 266.78 685.81 272.69
  Q 691.07 276.05 698.04 281.20
  Q 706.97 287.80 714.44 298.31
  Q 717.12 302.09 715.51 305.86
  Q 713.77 309.92 711.87 313.90
  Q 708.00 321.99 710.16 330.77
  Q 711.76 337.28 714.65 343.33
  Q 716.18 346.54 719.46 347.75
  Q 722.51 355.96 726.99 363.50
  Q 735.81 378.35 746.04 392.25
  Q 746.05 395.22 747.94 399.81
  Q 753.31 412.90 754.68 429.48
  Q 756.88 455.97 755.25 482.50
  Q 754.50 494.75 752.50 515.50
  Q 752.17 518.88 753.81 522.29
  Q 754.79 524.32 757.92 527.62
  Q 761.72 531.63 763.69 534.31
  Q 767.00 538.83 768.27 544.54
  Q 769.21 548.78 769.46 555.51
  Q 769.70 562.23 768.50 569.50
  Q 767.19 577.39 760.31 580.56
  Q 758.56 581.37 751.75 585.81
  Q 746.35 589.33 743.83 591.92
  Q 737.55 598.40 735.30 607.24
  Q 734.74 609.41 734.28 615.33
  Q 734.03 618.54 733.50 623.50
  Q 732.38 633.91 729.54 643.03
  Q 727.38 649.99 722.16 661.43
  Q 716.83 673.11 710.12 684.10
  Q 705.27 692.02 697.31 699.31
  Q 693.65 702.67 689.37 703.88
  Q 686.53 704.67 682.14 703.80
  Q 672.04 701.80 662.04 699.31
  A 1.45 0.34 49.0 0 1 661.29 698.77
  Q 661.09 698.57 660.79 698.50
  Q 665.18 692.17 669.68 685.91
  Q 675.72 677.50 678.36 673.22
  Q 688.82 656.26 695.54 637.39
  Q 697.51 631.86 700.06 626.56
  Q 701.16 624.27 701.00 621.69
  A 0.56 0.56 -69.9 0 0 700.40 621.17
  Q 699.54 621.24 699.71 620.50
  Q 711.20 595.46 717.69 574.69
  Q 722.83 558.22 726.37 537.96
  Q 728.12 527.95 728.47 520.96
  Q 728.93 511.80 727.94 503.81
  Q 724.91 479.62 716.76 453.00
  Q 711.48 435.76 703.94 421.81
  Q 697.84 410.54 686.31 391.44
  Q 682.82 385.65 676.21 378.75
  Q 676.12 377.79 675.83 376.88
  Q 675.58 376.09 674.82 375.33
  Q 672.50 372.97 670.46 370.38
  Q 667.86 367.09 666.14 365.45
  Q 657.34 357.13 646.44 350.06
  Q 643.75 348.32 640.33 345.59
  Q 638.68 344.27 635.97 342.78
  Q 633.67 341.53 631.61 339.89
  Q 618.17 329.20 603.16 320.85
  Q 590.86 314.01 577.06 311.22
  Q 568.34 309.46 559.53 308.27
  Q 551.56 307.20 547.06 304.94
  Q 540.02 301.39 532.97 297.85
  Q 524.11 293.40 518.49 291.75
  Q 502.67 287.11 485.25 288.75
  Q 462.88 290.85 443.51 297.92
  Q 400.04 313.77 371.94 350.44
  Q 367.00 356.87 361.55 365.23
  Q 355.46 374.56 353.09 377.99
  Q 348.71 384.28 344.29 390.55
  Q 337.48 400.20 332.31 410.81
  Q 326.20 423.37 317.52 447.28
  Q 315.59 452.60 311.31 462.87
  Q 307.59 471.81 305.75 478.75
  Q 303.03 489.03 301.19 505.44
  Q 300.60 510.80 298.00 528.25
  Q 296.26 539.97 296.14 554.00
  Q 296.04 565.11 297.47 573.92
  Q 300.12 590.32 306.89 605.47
  Q 308.72 609.56 316.47 623.01
  Q 324.74 637.36 331.27 652.76
  A 2.22 2.22 -89.9 0 0 332.44 653.93
  Q 338.25 656.39 341.13 660.10
  Q 346.16 666.59 350.79 673.36
  Q 359.45 686.03 360.08 686.86
  Q 392.45 730.02 445.51 744.47
  Q 446.60 744.77 447.50 745.46
  Q 444.77 746.21 440.50 746.25
  Q 414.07 746.50 390.94 735.81
  Q 378.09 729.87 368.19 720.93
  Q 361.16 714.58 355.47 705.60
  Q 349.13 695.61 343.81 682.94
  Q 334.94 661.80 333.19 657.31
  Q 331.91 654.06 328.94 653.31
  Q 328.17 653.12 325.61 652.78
  Q 323.81 652.54 322.26 652.73
  Q 312.64 653.95 305.94 660.44
  Q 299.30 666.86 291.63 676.62
  Q 285.42 684.53 277.69 690.94
  Q 269.08 698.09 258.06 695.44
  Q 254.38 694.55 246.85 691.85
  Q 241.36 689.87 237.89 689.85
  Q 230.47 689.82 223.84 693.77
  Q 218.79 696.77 213.70 699.70
  Q 203.73 705.44 192.71 708.75
  Q 183.64 693.76 176.01 677.99
  Q 170.44 666.47 167.50 654.00
  Q 164.42 640.93 161.50 620.29
  Q 163.39 620.53 163.79 618.76
  Q 165.53 611.23 165.20 603.50
  Q 164.89 596.47 168.00 590.75
  Q 171.59 584.15 177.38 577.37
  Q 185.36 568.01 193.85 559.10
  Q 207.05 545.24 210.06 526.26
  Q 213.76 502.96 207.95 480.12
  Q 206.19 473.18 205.25 463.50
  Q 204.40 454.68 207.29 447.23
  Q 208.49 444.15 208.50 444.11
  Q 209.61 441.02 210.67 437.91
  Q 212.33 433.10 212.85 429.97
  Q 214.80 418.30 210.62 407.61
  Q 210.31 406.81 203.34 393.35
  Q 198.52 384.04 196.31 378.94
  Q 191.84 368.60 191.50 361.00
  Q 191.30 356.46 192.56 352.56
  Q 196.07 341.78 202.74 332.55
  Q 207.53 325.92 212.48 321.12
  Q 218.00 315.76 224.69 312.19
  Q 234.58 306.90 246.69 302.69
  Q 261.84 297.41 274.25 296.52
  Q 278.46 296.22 282.15 297.88
  Q 284.29 298.84 285.25 300.34
  Q 286.40 302.14 286.19 304.44
  Q 285.57 311.21 285.60 317.28
  Q 285.64 323.68 287.63 326.83
  Q 291.46 332.92 300.50 330.50
  Q 323.40 324.36 338.65 305.64
  Q 342.36 301.10 349.19 291.94
  Q 355.55 283.41 365.31 275.81
  Q 375.87 267.60 394.43 258.42
  Q 397.88 256.71 404.06 252.56
  Q 409.94 248.61 412.89 242.91
  Q 414.97 238.88 414.41 234.78
  Q 413.80 230.31 410.94 226.81
  Q 408.94 224.38 407.83 221.95
  Q 406.69 219.46 407.61 217.49
  Q 408.70 215.18 411.52 214.31
  Q 416.42 212.79 421.52 212.16
  Q 439.10 209.97 456.66 207.62
  Q 467.47 206.18 473.19 204.53
  Q 481.31 202.20 488.94 198.44
  Q 497.89 194.02 504.95 186.94
  Q 508.04 183.85 510.06 182.81
  Q 520.96 177.26 532.76 174.04
  Q 541.80 171.58 550.09 167.26
  Q 552.57 165.97 554.13 163.65
  Q 557.75 158.29 561.61 153.10
  Q 562.54 151.85 562.50 150.29
  Q 581.55 144.62 589.44 141.94
  Q 613.40 133.78 637.50 126.04
  Z
  M 507.85 208.24
  A 3.53 3.53 0.0 0 0 504.32 204.71
  A 3.53 3.53 0.0 0 0 500.79 208.24
  A 3.53 3.53 0.0 0 0 504.32 211.77
  A 3.53 3.53 0.0 0 0 507.85 208.24
  Z
  M 470.41 268.34
  Q 473.29 270.71 476.00 271.50
  Q 486.52 274.56 498.40 274.95
  Q 504.31 275.14 506.60 275.02
  Q 510.62 274.82 514.75 273.75
  Q 520.48 272.26 522.99 267.70
  Q 524.71 264.56 523.72 261.11
  Q 522.70 257.60 519.81 255.19
  Q 503.48 241.58 482.55 247.77
  Q 475.23 249.94 470.27 255.33
  Q 467.42 258.44 467.17 261.44
  Q 466.85 265.43 470.41 268.34
  Z
  M 598.80 282.73
  A 6.74 6.74 0.0 0 0 592.06 275.99
  A 6.74 6.74 0.0 0 0 585.32 282.73
  A 6.74 6.74 0.0 0 0 592.06 289.47
  A 6.74 6.74 0.0 0 0 598.80 282.73
  Z
  M 637.1168 284.3283
  A 13.43 11.87 -16.8 0 0 620.8292 276.8466
  A 13.43 11.87 -16.8 0 0 611.4032 292.0917
  A 13.43 11.87 -16.8 0 0 627.6908 299.5734
  A 13.43 11.87 -16.8 0 0 637.1168 284.3283
  Z
  M 311.3621 385.0139
  A 9.34 7.26 35.2 0 0 307.9149 373.6975
  A 9.34 7.26 35.2 0 0 296.0979 374.2461
  A 9.34 7.26 35.2 0 0 299.5451 385.5625
  A 9.34 7.26 35.2 0 0 311.3621 385.0139
  Z
  M 716.22 391.22
  A 4.79 4.79 0.0 0 0 711.43 386.43
  A 4.79 4.79 0.0 0 0 706.64 391.22
  A 4.79 4.79 0.0 0 0 711.43 396.01
  A 4.79 4.79 0.0 0 0 716.22 391.22
  Z
  M 251.8257 572.1098
  A 12.55 11.93 89.7 0 0 263.6898 559.4975
  A 12.55 11.93 89.7 0 0 251.6943 547.0102
  A 12.55 11.93 89.7 0 0 239.8302 559.6225
  A 12.55 11.93 89.7 0 0 251.8257 572.1098
  Z
  M 207.45 584.62
  A 7.11 7.11 0.0 0 0 200.34 577.51
  A 7.11 7.11 0.0 0 0 193.23 584.62
  A 7.11 7.11 0.0 0 0 200.34 591.73
  A 7.11 7.11 0.0 0 0 207.45 584.62
  Z"
/>
<path fill="#312126" d="
  M 803.25 132.67
  Q 811.45 126.40 822.50 129.00
  Q 829.66 130.68 829.58 138.25
  Q 829.52 143.35 831.86 147.63
  Q 834.15 151.82 834.36 152.81
  Q 835.38 157.79 830.94 161.19
  Q 825.19 165.58 818.43 165.19
  Q 812.49 164.85 806.78 161.01
  Q 799.41 156.04 797.06 147.44
  Q 795.85 143.00 797.90 138.86
  Q 799.55 135.51 803.25 132.67
  Z"
/>
<ellipse fill="#2f1d1f" cx="0.00" cy="0.00" transform="translate(352.43,151.38) rotate(91.1)" rx="7.84" ry="7.23"/>
<path fill="#50383c" d="
  M 562.50 150.29
  Q 562.54 151.85 561.61 153.10
  Q 557.75 158.29 554.13 163.65
  Q 552.57 165.97 550.09 167.26
  Q 541.80 171.58 532.76 174.04
  Q 520.96 177.26 510.06 182.81
  Q 508.04 183.85 504.95 186.94
  Q 497.89 194.02 488.94 198.44
  Q 481.31 202.20 473.19 204.53
  Q 467.47 206.18 456.66 207.62
  Q 439.10 209.97 421.52 212.16
  Q 416.42 212.79 411.52 214.31
  Q 408.70 215.18 407.61 217.49
  Q 406.69 219.46 407.83 221.95
  Q 408.94 224.38 410.94 226.81
  Q 413.80 230.31 414.41 234.78
  Q 414.97 238.88 412.89 242.91
  Q 409.94 248.61 404.06 252.56
  Q 397.88 256.71 394.43 258.42
  Q 375.87 267.60 365.31 275.81
  Q 355.55 283.41 349.19 291.94
  Q 342.36 301.10 338.65 305.64
  Q 323.40 324.36 300.50 330.50
  Q 291.46 332.92 287.63 326.83
  Q 285.64 323.68 285.60 317.28
  Q 285.57 311.21 286.19 304.44
  Q 286.40 302.14 285.25 300.34
  Q 284.29 298.84 282.15 297.88
  Q 278.46 296.22 274.25 296.52
  Q 261.84 297.41 246.69 302.69
  Q 234.58 306.90 224.69 312.19
  Q 218.00 315.76 212.48 321.12
  Q 207.53 325.92 202.74 332.55
  Q 196.07 341.78 192.56 352.56
  Q 191.30 356.46 191.50 361.00
  Q 191.84 368.60 196.31 378.94
  Q 198.52 384.04 203.34 393.35
  Q 210.31 406.81 210.62 407.61
  Q 214.80 418.30 212.85 429.97
  Q 212.33 433.10 210.67 437.91
  Q 209.61 441.02 208.50 444.11
  Q 208.49 444.15 207.29 447.23
  Q 204.40 454.68 205.25 463.50
  Q 206.19 473.18 207.95 480.12
  Q 213.76 502.96 210.06 526.26
  Q 207.05 545.24 193.85 559.10
  Q 185.36 568.01 177.38 577.37
  Q 171.59 584.15 168.00 590.75
  Q 164.89 596.47 165.20 603.50
  Q 165.53 611.23 163.79 618.76
  Q 163.39 620.53 161.50 620.29
  Q 158.58 607.53 155.75 594.75
  Q 154.32 588.27 154.54 578.25
  Q 154.83 564.61 162.44 551.69
  Q 167.05 543.84 167.84 534.56
  Q 168.23 529.89 167.31 516.94
  Q 166.01 498.72 161.50 480.25
  Q 158.91 469.65 161.60 459.08
  Q 161.61 459.06 164.10 451.49
  Q 169.60 434.83 167.00 416.25
  Q 165.40 404.82 164.93 401.72
  Q 162.07 383.16 170.19 364.94
  Q 177.99 347.43 187.30 334.77
  Q 200.89 316.27 216.29 299.25
  Q 217.79 299.65 217.47 300.97
  A 0.48 0.45 -77.5 0 0 217.81 301.55
  Q 220.03 301.95 221.77 300.73
  Q 223.36 299.61 223.46 299.55
  Q 225.57 298.31 227.46 296.75
  Q 228.77 295.66 230.79 294.76
  Q 232.62 293.95 234.18 292.64
  Q 234.52 292.36 235.05 292.24
  Q 235.95 292.03 236.45 291.32
  Q 237.34 290.03 237.40 289.97
  Q 240.46 286.90 243.80 284.13
  A 0.36 0.33 -28.0 0 1 244.37 284.28
  L 244.88 286.31
  A 0.44 0.39 73.0 0 0 245.41 286.64
  Q 246.62 286.13 247.46 285.19
  Q 248.67 283.85 249.18 283.45
  Q 251.87 281.40 254.14 278.89
  Q 256.21 276.59 258.82 275.01
  Q 261.79 273.22 263.24 271.85
  Q 268.38 267.01 270.00 266.25
  Q 273.45 264.64 277.75 261.00
  Q 278.63 260.26 283.09 257.05
  Q 284.21 256.25 286.77 255.04
  Q 289.09 253.95 290.19 252.44
  Q 291.45 250.68 294.69 249.19
  Q 296.76 248.23 303.76 242.75
  Q 305.98 241.01 309.25 239.75
  Q 311.96 238.70 314.73 236.71
  Q 316.79 235.22 319.04 234.43
  Q 323.01 233.02 326.65 230.88
  Q 333.64 226.77 341.47 224.57
  A 1.49 1.32 -77.4 0 0 342.23 224.02
  Q 344.87 220.36 349.00 219.25
  Q 352.66 218.26 354.97 217.37
  A 1.39 1.21 -83.7 0 0 355.65 216.74
  Q 357.09 213.90 360.50 214.50
  A 4.92 1.89 19.7 0 0 363.19 214.44
  L 366.12 213.29
  Q 366.31 213.21 366.87 212.67
  Q 367.35 212.22 368.02 212.34
  A 1.61 0.90 24.9 0 0 368.95 212.27
  Q 375.97 208.67 383.48 206.25
  Q 383.94 206.10 385.05 206.00
  Q 385.90 205.93 386.63 205.52
  Q 388.44 204.51 388.66 204.44
  Q 393.34 202.88 398.19 201.94
  Q 398.85 201.81 401.28 200.23
  Q 402.77 199.26 404.49 198.90
  Q 414.27 196.87 423.52 193.13
  Q 424.87 192.58 426.50 191.18
  Q 428.35 189.58 429.75 189.50
  Q 432.98 189.31 436.04 188.26
  Q 444.96 185.19 453.79 181.90
  Q 457.17 180.64 461.75 179.63
  Q 465.82 178.74 469.79 177.50
  Q 473.49 176.34 477.74 175.41
  Q 481.77 174.53 485.70 173.23
  Q 487.62 172.60 492.25 172.50
  Q 494.21 172.46 502.94 170.78
  A 1.47 1.32 -73.0 0 0 503.74 170.30
  Q 505.28 168.47 507.10 169.70
  A 1.48 1.17 53.4 0 0 507.99 169.94
  L 510.28 169.65
  A 1.01 0.99 -82.5 0 0 511.09 169.02
  Q 512.45 165.53 515.14 165.07
  Q 516.71 164.79 517.26 164.51
  Q 518.24 163.99 519.16 163.35
  Q 519.56 163.07 520.05 163.02
  Q 522.73 162.74 520.23 162.05
  Q 519.85 161.94 520.20 161.75
  Q 521.27 161.17 519.82 161.08
  Q 519.53 161.06 519.80 160.99
  Q 520.46 160.81 520.75 160.21
  Q 541.76 155.84 562.50 150.29
  Z
  M 367.0959 234.0618
  A 12.39 8.86 -37.3 0 0 351.8709 234.5221
  A 12.39 8.86 -37.3 0 0 347.3841 249.0782
  A 12.39 8.86 -37.3 0 0 362.6091 248.6179
  A 12.39 8.86 -37.3 0 0 367.0959 234.0618
  Z"
/>
<path fill="#5a393b" d="
  M 520.75 160.21
  Q 520.46 160.81 519.80 160.99
  Q 519.53 161.06 519.82 161.08
  Q 521.27 161.17 520.20 161.75
  Q 519.85 161.94 520.23 162.05
  Q 522.73 162.74 520.05 163.02
  Q 519.56 163.07 519.16 163.35
  Q 518.24 163.99 517.26 164.51
  Q 516.71 164.79 515.14 165.07
  Q 512.45 165.53 511.09 169.02
  A 1.01 0.99 -82.5 0 1 510.28 169.65
  L 507.99 169.94
  A 1.48 1.17 53.4 0 1 507.10 169.70
  Q 505.28 168.47 503.74 170.30
  A 1.47 1.32 -73.0 0 1 502.94 170.78
  Q 494.21 172.46 492.25 172.50
  Q 487.62 172.60 485.70 173.23
  Q 481.77 174.53 477.74 175.41
  Q 473.49 176.34 469.79 177.50
  Q 465.82 178.74 461.75 179.63
  Q 457.17 180.64 453.79 181.90
  Q 444.96 185.19 436.04 188.26
  Q 432.98 189.31 429.75 189.50
  Q 428.35 189.58 426.50 191.18
  Q 424.87 192.58 423.52 193.13
  Q 414.27 196.87 404.49 198.90
  Q 402.77 199.26 401.28 200.23
  Q 398.85 201.81 398.19 201.94
  Q 393.34 202.88 388.66 204.44
  Q 388.44 204.51 386.63 205.52
  Q 385.90 205.93 385.05 206.00
  Q 383.94 206.10 383.48 206.25
  Q 375.97 208.67 368.95 212.27
  A 1.61 0.90 24.9 0 1 368.02 212.34
  Q 367.35 212.22 366.87 212.67
  Q 366.31 213.21 366.12 213.29
  L 363.19 214.44
  A 4.92 1.89 19.7 0 1 360.50 214.50
  Q 357.09 213.90 355.65 216.74
  A 1.39 1.21 -83.7 0 1 354.97 217.37
  Q 352.66 218.26 349.00 219.25
  Q 344.87 220.36 342.23 224.02
  A 1.49 1.32 -77.4 0 1 341.47 224.57
  Q 333.64 226.77 326.65 230.88
  Q 323.01 233.02 319.04 234.43
  Q 316.79 235.22 314.73 236.71
  Q 311.96 238.70 309.25 239.75
  Q 305.98 241.01 303.76 242.75
  Q 296.76 248.23 294.69 249.19
  Q 291.45 250.68 290.19 252.44
  Q 289.09 253.95 286.77 255.04
  Q 284.21 256.25 283.09 257.05
  Q 278.63 260.26 277.75 261.00
  Q 273.45 264.64 270.00 266.25
  Q 268.38 267.01 263.24 271.85
  Q 261.79 273.22 258.82 275.01
  Q 256.21 276.59 254.14 278.89
  Q 251.87 281.40 249.18 283.45
  Q 248.67 283.85 247.46 285.19
  Q 246.62 286.13 245.41 286.64
  A 0.44 0.39 73.0 0 1 244.88 286.31
  L 244.37 284.28
  A 0.36 0.33 -28.0 0 0 243.80 284.13
  Q 240.46 286.90 237.40 289.97
  Q 237.34 290.03 236.45 291.32
  Q 235.95 292.03 235.05 292.24
  Q 234.52 292.36 234.18 292.64
  Q 232.62 293.95 230.79 294.76
  Q 228.77 295.66 227.46 296.75
  Q 225.57 298.31 223.46 299.55
  Q 223.36 299.61 221.77 300.73
  Q 220.03 301.95 217.81 301.55
  A 0.48 0.45 -77.5 0 1 217.47 300.97
  Q 217.79 299.65 216.29 299.25
  Q 232.36 280.67 248.46 262.12
  Q 248.53 262.03 254.34 255.19
  Q 267.62 239.52 281.81 229.31
  Q 298.35 217.41 321.09 207.96
  Q 366.81 188.96 416.94 179.69
  Q 433.04 176.71 452.04 172.14
  Q 462.53 169.62 471.63 168.13
  Q 496.18 164.12 520.75 160.21
  Z"
/>
<circle fill="#291e23" cx="871.45" cy="199.44" r="3.24"/>
<circle fill="#ffc37d" cx="504.32" cy="208.24" r="3.53"/>
<ellipse fill="#2a1c20" cx="0.00" cy="0.00" transform="translate(357.24,241.57) rotate(-37.3)" rx="12.39" ry="8.86"/>
<path fill="#221617" d="
  M 470.41 268.34
  Q 466.85 265.43 467.17 261.44
  Q 467.42 258.44 470.27 255.33
  Q 475.23 249.94 482.55 247.77
  Q 503.48 241.58 519.81 255.19
  Q 522.70 257.60 523.72 261.11
  Q 524.71 264.56 522.99 267.70
  Q 520.48 272.26 514.75 273.75
  Q 510.62 274.82 506.60 275.02
  Q 504.31 275.14 498.40 274.95
  Q 486.52 274.56 476.00 271.50
  Q 473.29 270.71 470.41 268.34
  Z"
/>
<circle fill="#fc995a" cx="592.06" cy="282.73" r="6.74"/>
<ellipse fill="#221617" cx="0.00" cy="0.00" transform="translate(624.26,288.21) rotate(-16.8)" rx="13.43" ry="11.87"/>
<path fill="#452929" d="
  M 676.21 378.75
  Q 671.78 374.27 659.56 364.19
  Q 650.00 356.29 643.03 351.17
  Q 636.59 346.44 629.33 342.81
  Q 621.32 338.82 614.50 336.50
  Q 605.87 333.57 586.50 328.50
  Q 583.51 327.72 581.75 328.29
  Q 568.06 324.27 554.02 321.62
  Q 545.37 319.99 536.75 318.21
  Q 470.26 299.43 415.49 339.76
  Q 405.54 347.09 394.44 357.19
  Q 393.06 358.44 393.00 359.96
  Q 389.89 362.79 384.69 368.94
  Q 376.16 379.00 363.57 392.42
  Q 354.03 402.58 350.33 407.40
  Q 340.05 420.77 333.04 436.25
  Q 330.57 439.38 329.81 441.31
  Q 325.54 452.24 320.57 462.86
  Q 314.10 476.67 312.76 480.99
  Q 309.93 490.12 309.00 500.50
  Q 306.24 531.39 309.42 559.43
  Q 311.00 573.36 314.56 585.94
  Q 319.49 603.33 329.56 618.89
  Q 338.82 633.22 341.69 638.56
  Q 349.51 653.14 360.19 667.56
  Q 379.36 693.46 406.25 710.25
  Q 428.84 724.36 453.16 729.71
  Q 461.59 731.56 472.87 733.11
  Q 487.29 735.10 504.75 735.50
  Q 548.12 736.50 586.74 723.21
  Q 609.24 715.46 626.94 707.19
  Q 651.17 695.86 667.99 674.97
  Q 672.88 668.89 679.11 658.37
  Q 690.10 639.82 699.71 620.50
  Q 699.54 621.24 700.40 621.17
  A 0.56 0.56 -50.7 0 1 701.00 621.69
  Q 701.16 624.27 700.06 626.56
  Q 697.51 631.86 695.54 637.39
  Q 688.82 656.26 678.36 673.22
  Q 675.72 677.50 669.68 685.91
  Q 665.18 692.17 660.79 698.50
  Q 656.35 703.61 648.94 710.69
  Q 638.87 720.30 625.79 722.69
  Q 617.80 724.15 617.77 724.16
  Q 607.56 726.78 598.41 732.13
  Q 589.86 737.13 581.69 739.69
  Q 562.34 745.74 540.48 748.61
  Q 527.92 750.26 516.31 748.94
  Q 505.96 747.76 493.84 745.17
  Q 493.77 745.15 490.55 744.39
  Q 480.13 741.93 468.25 744.25
  Q 459.47 745.97 447.50 745.46
  Q 446.60 744.77 445.51 744.47
  Q 392.45 730.02 360.08 686.86
  Q 359.45 686.03 350.79 673.36
  Q 346.16 666.59 341.13 660.10
  Q 338.25 656.39 332.44 653.93
  A 2.22 2.22 89.9 0 1 331.27 652.76
  Q 324.74 637.36 316.47 623.01
  Q 308.72 609.56 306.89 605.47
  Q 300.12 590.32 297.47 573.92
  Q 296.04 565.11 296.14 554.00
  Q 296.26 539.97 298.00 528.25
  Q 300.60 510.80 301.19 505.44
  Q 303.03 489.03 305.75 478.75
  Q 307.59 471.81 311.31 462.87
  Q 315.59 452.60 317.52 447.28
  Q 326.20 423.37 332.31 410.81
  Q 337.48 400.20 344.29 390.55
  Q 348.71 384.28 353.09 377.99
  Q 355.46 374.56 361.55 365.23
  Q 367.00 356.87 371.94 350.44
  Q 400.04 313.77 443.51 297.92
  Q 462.88 290.85 485.25 288.75
  Q 502.67 287.11 518.49 291.75
  Q 524.11 293.40 532.97 297.85
  Q 540.02 301.39 547.06 304.94
  Q 551.56 307.20 559.53 308.27
  Q 568.34 309.46 577.06 311.22
  Q 590.86 314.01 603.16 320.85
  Q 618.17 329.20 631.61 339.89
  Q 633.67 341.53 635.97 342.78
  Q 638.68 344.27 640.33 345.59
  Q 643.75 348.32 646.44 350.06
  Q 657.34 357.13 666.14 365.45
  Q 667.86 367.09 670.46 370.38
  Q 672.50 372.97 674.82 375.33
  Q 675.58 376.09 675.83 376.88
  Q 676.12 377.79 676.21 378.75
  Z"
/>
<path fill="#994a2d" d="
  M 536.75 318.21
  Q 535.66 318.28 529.50 318.00
  Q 453.76 314.50 393.00 359.96
  Q 393.06 358.44 394.44 357.19
  Q 405.54 347.09 415.49 339.76
  Q 470.26 299.43 536.75 318.21
  Z"
/>
<path fill="#feab5b" d="
  M 536.75 318.21
  Q 545.37 319.99 554.02 321.62
  Q 568.06 324.27 581.75 328.29
  Q 643.68 350.54 681.31 403.30
  Q 687.13 411.46 691.99 420.20
  Q 719.49 469.73 718.19 526.76
  Q 717.97 536.81 716.63 546.68
  Q 709.64 598.08 679.46 640.70
  Q 667.66 657.36 652.44 670.93
  Q 604.56 713.63 541.44 721.70
  Q 531.53 722.97 521.51 723.26
  Q 466.04 724.90 417.51 698.86
  Q 408.59 694.07 400.43 688.48
  Q 365.00 664.19 343.25 627.75
  Q 313.35 577.65 315.35 518.00
  Q 316.77 475.49 333.04 436.25
  Q 340.05 420.77 350.33 407.40
  Q 354.03 402.58 363.57 392.42
  Q 376.16 379.00 384.69 368.94
  Q 389.89 362.79 393.00 359.96
  Q 453.76 314.50 529.50 318.00
  Q 535.66 318.28 536.75 318.21
  Z
  M 360.71 447.50
  L 355.75 459.79
  Q 353.29 460.72 352.60 463.28
  Q 351.77 466.36 350.72 469.36
  Q 343.56 489.84 341.90 511.49
  Q 339.35 544.83 348.96 576.75
  Q 348.36 576.66 348.64 577.15
  Q 349.94 579.51 348.63 581.61
  Q 348.23 582.25 348.21 582.61
  Q 348.19 583.21 348.59 583.71
  A 1.50 0.99 35.2 0 1 348.92 584.56
  Q 348.76 589.08 349.79 593.43
  Q 350.33 595.74 351.15 600.19
  Q 351.87 604.12 353.81 607.94
  Q 356.78 613.76 359.81 621.94
  Q 360.34 623.36 363.62 628.42
  Q 364.45 629.70 368.22 634.33
  Q 370.33 636.92 372.75 640.75
  Q 373.79 642.40 373.97 643.50
  A 1.83 1.06 -82.9 0 0 374.34 644.37
  Q 382.78 653.71 385.44 658.06
  Q 387.13 660.84 389.16 662.49
  Q 392.63 665.31 392.87 665.55
  Q 398.25 670.98 404.37 675.58
  Q 404.41 675.61 408.88 678.61
  Q 411.96 680.67 416.19 684.31
  Q 420.87 688.35 429.39 692.99
  Q 431.99 694.41 438.97 697.40
  Q 443.82 699.49 448.46 702.04
  Q 449.89 702.82 451.83 703.45
  Q 453.58 704.02 455.25 704.80
  Q 458.51 706.31 460.34 706.79
  Q 466.52 708.40 472.83 709.36
  Q 473.25 709.43 473.70 709.76
  Q 474.85 710.61 476.50 710.50
  Q 479.78 710.29 483.25 711.21
  Q 483.26 711.21 485.20 711.94
  Q 487.61 712.84 490.80 712.05
  A 1.62 1.61 -32.4 0 1 492.17 712.35
  Q 494.13 713.90 495.85 712.80
  A 2.04 1.23 -50.7 0 1 496.75 712.48
  Q 510.63 711.98 524.47 712.96
  Q 528.19 713.22 531.98 712.60
  Q 536.06 711.93 540.16 711.45
  Q 543.77 711.03 547.24 709.77
  Q 553.51 707.48 559.97 705.76
  Q 563.82 704.74 567.85 703.16
  Q 571.72 701.64 575.70 700.42
  Q 579.71 699.18 583.61 697.56
  Q 586.63 696.31 591.44 694.44
  Q 604.22 689.45 619.04 681.22
  Q 619.70 680.85 621.60 679.35
  Q 622.88 678.34 624.45 677.83
  A 1.51 1.43 -80.3 0 0 625.21 677.26
  Q 625.78 676.44 626.57 675.83
  Q 631.20 672.20 635.62 668.33
  A 0.92 0.89 -56.7 0 1 636.47 668.14
  L 637.26 668.36
  A 0.87 0.87 30.5 0 0 638.11 668.14
  Q 643.27 663.02 646.75 661.00
  Q 648.26 660.13 647.44 659.50
  A 0.45 0.40 40.0 0 1 647.35 658.88
  Q 657.09 648.58 667.10 638.53
  Q 668.92 636.70 671.80 632.96
  Q 674.03 630.05 676.71 627.52
  Q 677.02 627.23 677.11 626.86
  Q 677.21 626.46 677.26 626.06
  Q 677.33 625.54 677.61 625.15
  Q 680.56 621.10 684.31 614.06
  Q 694.86 594.29 697.96 588.39
  Q 702.32 580.10 705.34 571.22
  Q 705.37 571.13 706.47 568.49
  Q 707.10 566.98 707.23 565.35
  Q 707.38 563.37 707.53 562.68
  Q 707.82 561.36 708.13 560.04
  Q 708.16 559.94 709.10 557.03
  Q 709.60 555.48 709.60 553.84
  Q 709.62 551.54 709.73 550.67
  Q 710.13 547.41 710.75 540.00
  Q 710.79 539.55 711.57 537.47
  A 1.37 1.33 45.8 0 0 711.57 536.54
  Q 710.27 532.94 711.50 529.25
  Q 711.83 528.27 711.65 525.41
  Q 711.55 523.71 711.85 521.62
  Q 712.38 517.94 711.71 514.32
  Q 711.03 510.64 711.03 508.59
  Q 711.04 504.70 710.88 500.81
  Q 710.78 498.57 709.94 495.81
  Q 708.90 492.40 709.00 490.75
  Q 709.18 487.80 707.50 484.25
  Q 707.06 483.33 707.56 481.96
  A 1.87 1.44 -47.7 0 0 707.64 481.01
  Q 705.11 469.96 703.06 463.69
  Q 702.32 461.41 700.54 458.32
  Q 699.68 456.82 699.02 454.89
  Q 698.41 453.10 697.54 451.38
  Q 697.33 450.96 697.33 450.43
  Q 697.34 448.40 696.14 446.83
  A 1.86 1.55 27.3 0 1 695.77 445.95
  Q 695.52 443.84 694.30 442.23
  Q 692.23 439.51 692.16 439.39
  Q 689.20 434.29 686.48 429.06
  Q 684.76 425.76 682.18 422.53
  Q 679.53 419.21 677.56 416.19
  Q 674.73 411.84 671.67 408.28
  Q 670.01 406.36 667.09 402.54
  Q 664.84 399.61 662.06 397.14
  Q 661.72 396.84 661.52 396.34
  Q 660.91 394.86 659.54 393.98
  Q 654.80 390.92 650.94 386.81
  Q 649.94 385.76 648.09 384.46
  Q 646.96 383.67 645.31 382.09
  Q 643.44 380.29 641.01 379.22
  Q 634.98 376.55 629.10 373.57
  Q 628.42 373.22 623.15 370.87
  Q 620.80 369.82 617.25 368.00
  Q 610.26 364.40 608.75 363.50
  Q 604.95 361.22 601.63 359.83
  Q 596.04 357.47 595.96 357.44
  Q 589.39 354.38 582.67 351.67
  Q 582.61 351.65 581.90 351.22
  Q 581.36 350.91 580.92 351.32
  A 0.60 0.35 -51.8 0 1 580.51 351.48
  Q 580.13 351.40 580.46 351.10
  Q 580.66 350.93 580.41 350.87
  Q 572.06 348.83 563.19 345.06
  Q 548.20 338.70 531.54 336.06
  Q 530.13 335.84 527.56 335.09
  Q 525.58 334.52 523.49 334.31
  Q 512.45 333.21 501.38 333.71
  Q 500.53 333.75 499.72 334.16
  Q 498.95 334.56 498.15 334.91
  Q 497.05 335.41 495.63 335.45
  Q 492.03 335.56 488.50 336.26
  Q 483.71 337.22 478.81 337.08
  A 0.70 0.52 -78.2 0 0 478.25 337.57
  Q 478.13 337.96 477.77 338.13
  Q 477.43 338.28 476.75 338.09
  Q 473.71 337.25 471.32 339.23
  A 1.69 1.44 -62.6 0 1 470.43 339.59
  Q 465.09 339.89 461.94 341.19
  Q 457.76 342.91 439.88 351.11
  Q 439.77 351.16 432.95 354.16
  Q 424.56 357.85 416.82 362.76
  Q 414.98 363.93 413.04 365.67
  Q 411.25 367.28 409.44 368.85
  Q 407.32 370.68 403.66 373.15
  Q 392.51 380.70 383.96 391.07
  Q 381.27 394.33 378.45 399.18
  Q 375.99 403.42 373.57 407.69
  Q 373.55 407.72 371.16 411.61
  Q 369.59 414.17 368.53 416.95
  Q 368.07 418.16 366.69 420.99
  Q 365.69 423.03 365.36 425.28
  Q 364.88 428.49 364.26 429.93
  Q 363.21 432.37 362.00 434.75
  Q 361.03 436.66 361.44 440.50
  A 1.03 0.91 13.9 0 0 361.94 441.23
  Q 362.89 441.78 362.16 442.08
  A 2.01 2.00 -1.4 0 0 361.01 443.28
  Q 359.60 447.42 360.71 447.50
  Z"
/>
<path fill="#9e4a2b" d="
  M 676.21 378.75
  Q 682.82 385.65 686.31 391.44
  Q 697.84 410.54 703.94 421.81
  Q 711.48 435.76 716.76 453.00
  Q 724.91 479.62 727.94 503.81
  Q 728.93 511.80 728.47 520.96
  Q 728.12 527.95 726.37 537.96
  Q 722.83 558.22 717.69 574.69
  Q 711.20 595.46 699.71 620.50
  Q 690.10 639.82 679.11 658.37
  Q 672.88 668.89 667.99 674.97
  Q 651.17 695.86 626.94 707.19
  Q 609.24 715.46 586.74 723.21
  Q 548.12 736.50 504.75 735.50
  Q 487.29 735.10 472.87 733.11
  Q 461.59 731.56 453.16 729.71
  Q 428.84 724.36 406.25 710.25
  Q 379.36 693.46 360.19 667.56
  Q 349.51 653.14 341.69 638.56
  Q 338.82 633.22 329.56 618.89
  Q 319.49 603.33 314.56 585.94
  Q 311.00 573.36 309.42 559.43
  Q 306.24 531.39 309.00 500.50
  Q 309.93 490.12 312.76 480.99
  Q 314.10 476.67 320.57 462.86
  Q 325.54 452.24 329.81 441.31
  Q 330.57 439.38 333.04 436.25
  Q 316.77 475.49 315.35 518.00
  Q 313.35 577.65 343.25 627.75
  Q 365.00 664.19 400.43 688.48
  Q 408.59 694.07 417.51 698.86
  Q 466.04 724.90 521.51 723.26
  Q 531.53 722.97 541.44 721.70
  Q 604.56 713.63 652.44 670.93
  Q 667.66 657.36 679.46 640.70
  Q 709.64 598.08 716.63 546.68
  Q 717.97 536.81 718.19 526.76
  Q 719.49 469.73 691.99 420.20
  Q 687.13 411.46 681.31 403.30
  Q 643.68 350.54 581.75 328.29
  Q 583.51 327.72 586.50 328.50
  Q 605.87 333.57 614.50 336.50
  Q 621.32 338.82 629.33 342.81
  Q 636.59 346.44 643.03 351.17
  Q 650.00 356.29 659.56 364.19
  Q 671.78 374.27 676.21 378.75
  Z"
/>
<path fill="#ffb45e" d="
  M 348.96 576.75
  Q 363.18 619.31 394.94 649.81
  Q 442.11 695.12 508.51 698.39
  Q 543.65 700.12 575.50 689.00
  Q 612.73 676.00 640.81 647.94
  Q 647.76 640.99 654.00 632.94
  Q 693.60 581.89 691.76 516.48
  Q 691.48 506.37 690.10 496.57
  Q 681.33 434.36 635.06 390.95
  Q 600.33 358.36 554.25 349.25
  Q 541.39 346.71 526.94 346.88
  Q 517.70 346.98 517.55 346.98
  Q 510.40 347.00 503.24 347.23
  A 1.56 1.39 21.7 0 0 502.36 347.55
  Q 500.58 348.97 503.25 348.79
  Q 463.86 351.18 431.81 369.06
  Q 383.95 395.78 360.71 447.50
  Q 359.60 447.42 361.01 443.28
  A 2.01 2.00 -1.4 0 1 362.16 442.08
  Q 362.89 441.78 361.94 441.23
  A 1.03 0.91 13.9 0 1 361.44 440.50
  Q 361.03 436.66 362.00 434.75
  Q 363.21 432.37 364.26 429.93
  Q 364.88 428.49 365.36 425.28
  Q 365.69 423.03 366.69 420.99
  Q 368.07 418.16 368.53 416.95
  Q 369.59 414.17 371.16 411.61
  Q 373.55 407.72 373.57 407.69
  Q 375.99 403.42 378.45 399.18
  Q 381.27 394.33 383.96 391.07
  Q 392.51 380.70 403.66 373.15
  Q 407.32 370.68 409.44 368.85
  Q 411.25 367.28 413.04 365.67
  Q 414.98 363.93 416.82 362.76
  Q 424.56 357.85 432.95 354.16
  Q 439.77 351.16 439.88 351.11
  Q 457.76 342.91 461.94 341.19
  Q 465.09 339.89 470.43 339.59
  A 1.69 1.44 -62.6 0 0 471.32 339.23
  Q 473.71 337.25 476.75 338.09
  Q 477.43 338.28 477.77 338.13
  Q 478.13 337.96 478.25 337.57
  A 0.70 0.52 -78.2 0 1 478.81 337.08
  Q 483.71 337.22 488.50 336.26
  Q 492.03 335.56 495.63 335.45
  Q 497.05 335.41 498.15 334.91
  Q 498.95 334.56 499.72 334.16
  Q 500.53 333.75 501.38 333.71
  Q 512.45 333.21 523.49 334.31
  Q 525.58 334.52 527.56 335.09
  Q 530.13 335.84 531.54 336.06
  Q 548.20 338.70 563.19 345.06
  Q 572.06 348.83 580.41 350.87
  Q 580.66 350.93 580.46 351.10
  Q 580.13 351.40 580.51 351.48
  A 0.60 0.35 -51.8 0 0 580.92 351.32
  Q 581.36 350.91 581.90 351.22
  Q 582.61 351.65 582.67 351.67
  Q 589.39 354.38 595.96 357.44
  Q 596.04 357.47 601.63 359.83
  Q 604.95 361.22 608.75 363.50
  Q 610.26 364.40 617.25 368.00
  Q 620.80 369.82 623.15 370.87
  Q 628.42 373.22 629.10 373.57
  Q 634.98 376.55 641.01 379.22
  Q 643.44 380.29 645.31 382.09
  Q 646.96 383.67 648.09 384.46
  Q 649.94 385.76 650.94 386.81
  Q 654.80 390.92 659.54 393.98
  Q 660.91 394.86 661.52 396.34
  Q 661.72 396.84 662.06 397.14
  Q 664.84 399.61 667.09 402.54
  Q 670.01 406.36 671.67 408.28
  Q 674.73 411.84 677.56 416.19
  Q 679.53 419.21 682.18 422.53
  Q 684.76 425.76 686.48 429.06
  Q 689.20 434.29 692.16 439.39
  Q 692.23 439.51 694.30 442.23
  Q 695.52 443.84 695.77 445.95
  A 1.86 1.55 27.3 0 0 696.14 446.83
  Q 697.34 448.40 697.33 450.43
  Q 697.33 450.96 697.54 451.38
  Q 698.41 453.10 699.02 454.89
  Q 699.68 456.82 700.54 458.32
  Q 702.32 461.41 703.06 463.69
  Q 705.11 469.96 707.64 481.01
  A 1.87 1.44 -47.7 0 1 707.56 481.96
  Q 707.06 483.33 707.50 484.25
  Q 709.18 487.80 709.00 490.75
  Q 708.90 492.40 709.94 495.81
  Q 710.78 498.57 710.88 500.81
  Q 711.04 504.70 711.03 508.59
  Q 711.03 510.64 711.71 514.32
  Q 712.38 517.94 711.85 521.62
  Q 711.55 523.71 711.65 525.41
  Q 711.83 528.27 711.50 529.25
  Q 710.27 532.94 711.57 536.54
  A 1.37 1.33 45.8 0 1 711.57 537.47
  Q 710.79 539.55 710.75 540.00
  Q 710.13 547.41 709.73 550.67
  Q 709.62 551.54 709.60 553.84
  Q 709.60 555.48 709.10 557.03
  Q 708.16 559.94 708.13 560.04
  Q 707.82 561.36 707.53 562.68
  Q 707.38 563.37 707.23 565.35
  Q 707.10 566.98 706.47 568.49
  Q 705.37 571.13 705.34 571.22
  Q 702.32 580.10 697.96 588.39
  Q 694.86 594.29 684.31 614.06
  Q 680.56 621.10 677.61 625.15
  Q 677.33 625.54 677.26 626.06
  Q 677.21 626.46 677.11 626.86
  Q 677.02 627.23 676.71 627.52
  Q 674.03 630.05 671.80 632.96
  Q 668.92 636.70 667.10 638.53
  Q 657.09 648.58 647.35 658.88
  A 0.45 0.40 40.0 0 0 647.44 659.50
  Q 648.26 660.13 646.75 661.00
  Q 643.27 663.02 638.11 668.14
  A 0.87 0.87 30.5 0 1 637.26 668.36
  L 636.47 668.14
  A 0.92 0.89 -56.7 0 0 635.62 668.33
  Q 631.20 672.20 626.57 675.83
  Q 625.78 676.44 625.21 677.26
  A 1.51 1.43 -80.3 0 1 624.45 677.83
  Q 622.88 678.34 621.60 679.35
  Q 619.70 680.85 619.04 681.22
  Q 604.22 689.45 591.44 694.44
  Q 586.63 696.31 583.61 697.56
  Q 579.71 699.18 575.70 700.42
  Q 571.72 701.64 567.85 703.16
  Q 563.82 704.74 559.97 705.76
  Q 553.51 707.48 547.24 709.77
  Q 543.77 711.03 540.16 711.45
  Q 536.06 711.93 531.98 712.60
  Q 528.19 713.22 524.47 712.96
  Q 510.63 711.98 496.75 712.48
  A 2.04 1.23 -50.7 0 0 495.85 712.80
  Q 494.13 713.90 492.17 712.35
  A 1.62 1.61 -32.4 0 0 490.80 712.05
  Q 487.61 712.84 485.20 711.94
  Q 483.26 711.21 483.25 711.21
  Q 479.78 710.29 476.50 710.50
  Q 474.85 710.61 473.70 709.76
  Q 473.25 709.43 472.83 709.36
  Q 466.52 708.40 460.34 706.79
  Q 458.51 706.31 455.25 704.80
  Q 453.58 704.02 451.83 703.45
  Q 449.89 702.82 448.46 702.04
  Q 443.82 699.49 438.97 697.40
  Q 431.99 694.41 429.39 692.99
  Q 420.87 688.35 416.19 684.31
  Q 411.96 680.67 408.88 678.61
  Q 404.41 675.61 404.37 675.58
  Q 398.25 670.98 392.87 665.55
  Q 392.63 665.31 389.16 662.49
  Q 387.13 660.84 385.44 658.06
  Q 382.78 653.71 374.34 644.37
  A 1.83 1.06 -82.9 0 1 373.97 643.50
  Q 373.79 642.40 372.75 640.75
  Q 370.33 636.92 368.22 634.33
  Q 364.45 629.70 363.62 628.42
  Q 360.34 623.36 359.81 621.94
  Q 356.78 613.76 353.81 607.94
  Q 351.87 604.12 351.15 600.19
  Q 350.33 595.74 349.79 593.43
  Q 348.76 589.08 348.92 584.56
  A 1.50 0.99 35.2 0 0 348.59 583.71
  Q 348.19 583.21 348.21 582.61
  Q 348.23 582.25 348.63 581.61
  Q 349.94 579.51 348.64 577.15
  Q 348.36 576.66 348.96 576.75
  Z"
/>
<path fill="#ffde88" d="
  M 348.96 576.75
  Q 339.35 544.83 341.90 511.49
  Q 343.56 489.84 350.72 469.36
  Q 351.77 466.36 352.60 463.28
  Q 353.29 460.72 355.75 459.79
  Q 340.90 502.40 348.25 545.50
  Q 354.78 583.82 379.46 615.75
  Q 408.92 654.18 453.57 671.20
  Q 462.83 674.73 472.66 677.05
  Q 524.55 689.31 573.75 669.75
  Q 613.00 654.15 640.29 621.07
  Q 646.62 613.40 651.98 604.86
  Q 684.31 553.41 675.82 492.43
  Q 674.42 482.38 671.80 472.85
  Q 659.98 429.79 628.50 397.46
  Q 577.05 345.93 503.25 348.79
  Q 500.58 348.97 502.36 347.55
  A 1.56 1.39 21.7 0 1 503.24 347.23
  Q 510.40 347.00 517.55 346.98
  Q 517.70 346.98 526.94 346.88
  Q 541.39 346.71 554.25 349.25
  Q 600.33 358.36 635.06 390.95
  Q 681.33 434.36 690.10 496.57
  Q 691.48 506.37 691.76 516.48
  Q 693.60 581.89 654.00 632.94
  Q 647.76 640.99 640.81 647.94
  Q 612.73 676.00 575.50 689.00
  Q 543.65 700.12 508.51 698.39
  Q 442.11 695.12 394.94 649.81
  Q 363.18 619.31 348.96 576.75
  Z"
/>
<path fill="#1b0f0e" d="
  M 628.50 397.46
  Q 627.72 397.63 627.44 398.69
  Q 625.99 404.14 625.45 407.24
  Q 625.36 407.75 625.09 408.13
  Q 624.73 408.63 624.68 409.00
  Q 623.60 416.36 620.56 425.81
  Q 612.79 450.02 602.09 470.14
  Q 586.62 499.23 565.52 524.54
  Q 544.56 549.69 523.44 567.44
  Q 501.91 585.53 477.58 599.65
  Q 458.41 610.77 437.24 617.35
  Q 421.02 622.39 405.81 619.44
  Q 391.95 616.74 385.31 614.19
  Q 381.38 612.68 379.46 615.75
  Q 354.78 583.82 348.25 545.50
  Q 340.90 502.40 355.75 459.79
  L 360.71 447.50
  Q 383.95 395.78 431.81 369.06
  Q 463.86 351.18 503.25 348.79
  Q 577.05 345.93 628.50 397.46
  Z"
/>
<ellipse fill="#221617" cx="0.00" cy="0.00" transform="translate(303.73,379.63) rotate(35.2)" rx="9.34" ry="7.26"/>
<circle fill="#fc995a" cx="711.43" cy="391.22" r="4.79"/>
<path fill="#2a1c20" d="
  M 746.04 392.25
  Q 754.59 401.45 765.61 406.93
  Q 767.04 407.65 780.11 412.48
  Q 789.00 415.77 794.94 419.56
  Q 800.46 423.09 804.52 429.13
  Q 805.85 431.10 811.04 440.79
  Q 818.63 454.91 824.52 469.83
  Q 826.02 473.63 825.73 476.40
  Q 825.42 479.47 824.06 483.06
  Q 810.75 518.43 802.25 555.25
  Q 796.66 579.48 794.43 604.24
  Q 791.67 634.81 776.19 659.44
  Q 770.15 669.04 758.96 685.02
  Q 751.78 695.25 746.97 701.02
  Q 734.10 716.44 718.38 729.11
  Q 707.09 738.21 695.73 747.21
  Q 687.64 753.61 679.25 754.50
  Q 676.67 754.77 674.26 752.42
  Q 673.11 751.29 673.06 751.24
  Q 665.83 744.98 655.19 747.94
  Q 635.68 753.36 617.37 762.04
  Q 606.80 767.05 601.06 772.31
  Q 596.67 776.34 596.77 782.74
  Q 596.83 786.82 596.43 788.22
  Q 594.90 793.60 590.44 797.19
  Q 583.24 802.96 574.63 806.32
  Q 570.96 807.75 557.26 811.34
  Q 540.84 815.63 524.25 819.25
  Q 517.19 820.79 507.25 822.00
  Q 500.25 822.85 494.26 821.94
  Q 488.71 821.09 483.24 819.82
  Q 478.96 818.82 472.49 816.70
  Q 458.04 811.98 453.81 810.44
  Q 441.23 805.84 431.94 804.31
  Q 428.22 803.70 412.42 801.86
  Q 412.34 801.85 397.61 799.93
  Q 388.08 798.69 377.50 798.00
  Q 362.99 797.05 347.92 794.06
  Q 347.89 794.06 337.25 791.65
  Q 321.22 788.02 304.75 787.46
  Q 289.51 786.95 276.36 793.96
  Q 269.41 797.67 269.40 797.67
  Q 258.06 802.48 245.97 797.98
  Q 241.35 796.27 236.75 794.50
  Q 235.26 793.93 233.00 795.29
  Q 226.73 791.81 221.48 787.02
  Q 218.35 784.16 217.61 781.67
  Q 216.60 778.32 218.13 774.66
  Q 219.25 771.97 220.52 769.35
  Q 224.46 761.23 219.96 753.35
  Q 214.18 743.22 207.82 733.44
  Q 199.93 721.29 192.71 708.75
  Q 203.73 705.44 213.70 699.70
  Q 218.79 696.77 223.84 693.77
  Q 230.47 689.82 237.89 689.85
  Q 241.36 689.87 246.85 691.85
  Q 254.38 694.55 258.06 695.44
  Q 269.08 698.09 277.69 690.94
  Q 285.42 684.53 291.63 676.62
  Q 299.30 666.86 305.94 660.44
  Q 312.64 653.95 322.26 652.73
  Q 323.81 652.54 325.61 652.78
  Q 328.17 653.12 328.94 653.31
  Q 331.91 654.06 333.19 657.31
  Q 334.94 661.80 343.81 682.94
  Q 349.13 695.61 355.47 705.60
  Q 361.16 714.58 368.19 720.93
  Q 378.09 729.87 390.94 735.81
  Q 414.07 746.50 440.50 746.25
  Q 444.77 746.21 447.50 745.46
  Q 459.47 745.97 468.25 744.25
  Q 480.13 741.93 490.55 744.39
  Q 493.77 745.15 493.84 745.17
  Q 505.96 747.76 516.31 748.94
  Q 527.92 750.26 540.48 748.61
  Q 562.34 745.74 581.69 739.69
  Q 589.86 737.13 598.41 732.13
  Q 607.56 726.78 617.77 724.16
  Q 617.80 724.15 625.79 722.69
  Q 638.87 720.30 648.94 710.69
  Q 656.35 703.61 660.79 698.50
  Q 661.09 698.57 661.29 698.77
  A 1.45 0.34 49.0 0 0 662.04 699.31
  Q 672.04 701.80 682.14 703.80
  Q 686.53 704.67 689.37 703.88
  Q 693.65 702.67 697.31 699.31
  Q 705.27 692.02 710.12 684.10
  Q 716.83 673.11 722.16 661.43
  Q 727.38 649.99 729.54 643.03
  Q 732.38 633.91 733.50 623.50
  Q 734.03 618.54 734.28 615.33
  Q 734.74 609.41 735.30 607.24
  Q 737.55 598.40 743.83 591.92
  Q 746.35 589.33 751.75 585.81
  Q 758.56 581.37 760.31 580.56
  Q 767.19 577.39 768.50 569.50
  Q 769.70 562.23 769.46 555.51
  Q 769.21 548.78 768.27 544.54
  Q 767.00 538.83 763.69 534.31
  Q 761.72 531.63 757.92 527.62
  Q 754.79 524.32 753.81 522.29
  Q 752.17 518.88 752.50 515.50
  Q 754.50 494.75 755.25 482.50
  Q 756.88 455.97 754.68 429.48
  Q 753.31 412.90 747.94 399.81
  Q 746.05 395.22 746.04 392.25
  Z
  M 310.85 705.08
  A 6.78 6.78 0.0 0 0 304.07 698.30
  A 6.78 6.78 0.0 0 0 297.29 705.08
  A 6.78 6.78 0.0 0 0 304.07 711.86
  A 6.78 6.78 0.0 0 0 310.85 705.08
  Z
  M 282.94 765.56
  Q 288.26 769.33 294.53 768.21
  Q 298.70 767.47 301.36 766.00
  Q 305.10 763.92 305.55 759.54
  Q 305.87 756.40 304.25 753.73
  Q 302.57 750.96 299.60 749.53
  Q 298.44 748.98 295.03 747.85
  Q 292.38 746.98 290.25 746.75
  Q 284.18 746.09 280.90 749.85
  Q 278.03 753.14 278.31 757.71
  Q 278.61 762.49 282.94 765.56
  Z
  M 554.59 767.72
  A 3.06 3.06 0.0 0 0 551.53 764.66
  A 3.06 3.06 0.0 0 0 548.47 767.72
  A 3.06 3.06 0.0 0 0 551.53 770.78
  A 3.06 3.06 0.0 0 0 554.59 767.72
  Z"
/>
<path fill="#12090a" d="
  M 628.50 397.46
  Q 659.98 429.79 671.80 472.85
  Q 674.42 482.38 675.82 492.43
  Q 684.31 553.41 651.98 604.86
  Q 646.62 613.40 640.29 621.07
  Q 613.00 654.15 573.75 669.75
  Q 524.55 689.31 472.66 677.05
  Q 462.83 674.73 453.57 671.20
  Q 408.92 654.18 379.46 615.75
  Q 381.38 612.68 385.31 614.19
  Q 391.95 616.74 405.81 619.44
  Q 421.02 622.39 437.24 617.35
  Q 458.41 610.77 477.58 599.65
  Q 501.91 585.53 523.44 567.44
  Q 544.56 549.69 565.52 524.54
  Q 586.62 499.23 602.09 470.14
  Q 612.79 450.02 620.56 425.81
  Q 623.60 416.36 624.68 409.00
  Q 624.73 408.63 625.09 408.13
  Q 625.36 407.75 625.45 407.24
  Q 625.99 404.14 627.44 398.69
  Q 627.72 397.63 628.50 397.46
  Z"
/>
<path fill="#332125" d="
  M 891.14 425.49
  Q 885.98 419.42 886.44 410.69
  Q 886.55 408.63 887.20 406.97
  Q 887.84 405.36 889.37 403.98
  Q 895.13 398.80 902.06 403.94
  Q 906.75 407.41 909.04 413.37
  Q 913.25 424.30 903.19 428.94
  Q 899.64 430.57 896.30 429.38
  Q 893.65 428.43 891.14 425.49
  Z"
/>
<circle fill="#2f1d1f" cx="118.70" cy="527.20" r="5.79"/>
<ellipse fill="#221617" cx="0.00" cy="0.00" transform="translate(251.76,559.56) rotate(89.7)" rx="12.55" ry="11.93"/>
<circle fill="#ffc37d" cx="200.34" cy="584.62" r="7.11"/>
<circle fill="#fc995a" cx="304.07" cy="705.08" r="6.78"/>
<ellipse fill="#2f1d1f" cx="0.00" cy="0.00" transform="translate(876.09,732.13) rotate(128.4)" rx="6.83" ry="6.14"/>
<path fill="#1d1316" d="
  M 282.94 765.56
  Q 278.61 762.49 278.31 757.71
  Q 278.03 753.14 280.90 749.85
  Q 284.18 746.09 290.25 746.75
  Q 292.38 746.98 295.03 747.85
  Q 298.44 748.98 299.60 749.53
  Q 302.57 750.96 304.25 753.73
  Q 305.87 756.40 305.55 759.54
  Q 305.10 763.92 301.36 766.00
  Q 298.70 767.47 294.53 768.21
  Q 288.26 769.33 282.94 765.56
  Z"
/>
<circle fill="#fc995a" cx="551.53" cy="767.72" r="3.06"/>
<path fill="#312126" d="
  M 156.61 819.65
  Q 152.88 815.58 156.75 810.27
  Q 161.01 804.41 167.56 802.69
  Q 172.64 801.36 176.83 803.25
  Q 182.13 805.64 182.58 811.85
  Q 182.87 815.77 180.75 818.14
  Q 178.33 820.84 174.00 820.86
  Q 168.33 820.89 164.50 821.75
  Q 162.17 822.27 160.16 821.81
  Q 158.16 821.34 156.61 819.65
  Z"
/>
</svg>
