
<svg xmlns="http://www.w3.org/2000/svg" version="1.1" viewBox="0 0 1024 1024">
<g stroke-width="2.00" fill="none" stroke-linecap="butt">
<path stroke="#8e8c8e" vector-effect="non-scaling-stroke" d="
  M 258.13 755.26
  Q 254.77 756.83 251.00 756.75
  Q 243.19 756.59 236.81 757.56
  Q 233.51 758.07 233.19 760.81
  Q 233.00 762.44 234.29 764.84
  Q 237.04 769.97 240.82 774.44
  Q 269.73 808.64 307.94 832.06
  Q 349.28 857.41 391.86 873.02
  Q 435.66 889.07 481.56 897.45
  Q 485.74 898.21 489.07 895.83
  Q 493.43 892.73 497.42 889.16
  Q 509.78 878.13 523.36 868.64
  Q 534.49 860.87 545.06 857.56
  Q 568.97 850.09 589.43 862.66
  Q 595.51 866.40 601.38 871.64
  Q 606.99 876.64 611.53 882.72
  Q 613.53 885.41 616.25 885.75
  Q 636.56 888.33 656.54 889.47
  A 1.25 1.24 10.4 0 0 657.81 888.60
  Q 661.59 876.63 669.44 867.69
  Q 678.20 857.71 690.03 856.23
  Q 701.47 854.80 711.05 862.29
  A 2.90 2.87 -32.2 0 0 713.48 862.83
  Q 741.85 856.40 764.48 837.24
  Q 764.56 837.17 766.73 835.50
  Q 769.86 833.09 770.50 829.75
  Q 773.57 813.82 777.10 803.79
  Q 781.29 791.90 787.69 782.44
  Q 803.19 759.53 830.59 755.52
  A 2.18 2.15 16.5 0 0 831.92 754.81
  Q 865.66 717.07 889.94 674.19
  Q 892.78 669.18 890.27 664.29
  Q 888.64 661.10 888.59 660.95
  Q 880.88 642.04 882.55 621.50
  Q 883.73 607.01 891.44 595.01
  Q 893.82 591.31 894.41 589.59
  Q 895.35 586.87 895.75 583.50
  Q 900.57 542.68 899.16 504.25
  Q 896.81 440.47 875.61 380.34
  Q 863.68 346.49 843.47 316.83
  Q 841.13 313.41 839.81 312.44
  Q 837.64 310.84 835.87 311.88
  Q 834.82 312.49 833.87 314.68
  Q 832.78 317.19 831.63 319.67
  Q 830.39 322.37 829.20 323.34
  Q 827.35 324.84 824.75 324.75
  Q 821.38 324.63 818.17 322.53
  Q 804.77 313.77 797.56 299.44
  Q 794.61 293.56 790.41 283.10
  Q 787.73 276.41 784.58 270.95
  Q 776.89 257.58 768.86 244.41
  Q 766.08 239.84 761.04 241.17
  Q 759.00 241.71 758.92 241.73
  Q 746.96 244.11 736.75 241.25
  Q 718.97 236.26 703.26 224.79
  Q 695.84 219.37 687.91 211.99
  Q 675.33 200.29 664.81 185.44
  Q 650.58 165.33 640.81 145.37
  Q 631.71 126.80 630.25 123.25
  Q 628.67 119.40 625.71 117.56
  Q 623.71 116.32 619.03 116.04
  Q 586.59 114.11 566.25 114.25
  Q 517.24 114.59 463.50 124.00
  Q 439.70 128.17 413.87 135.78
  Q 411.87 136.37 410.69 137.62
  Q 409.51 138.86 408.31 140.56
  Q 402.84 148.29 394.49 159.20
  Q 369.72 191.57 336.00 214.47
  Q 316.78 227.53 293.31 235.81
  Q 268.06 244.73 243.98 248.62
  Q 218.43 252.75 194.19 244.35
  Q 194.13 244.33 190.89 242.96
  Q 183.47 239.83 178.19 246.94
  Q 154.63 278.62 140.94 312.94
  Q 122.86 358.25 114.17 399.94
  Q 113.75 401.97 114.38 404.02
  Q 120.54 424.31 121.92 445.51
  Q 122.10 448.29 122.00 455.25
  Q 121.75 472.91 112.12 487.14
  Q 109.38 491.19 104.96 493.06
  Q 104.57 493.23 104.01 493.18
  Q 102.27 493.05 102.22 494.65
  Q 102.18 495.75 102.17 495.84
  Q 99.05 518.76 98.00 535.25
  Q 96.79 554.18 99.75 570.25
  Q 107.98 614.99 112.24 651.28
  Q 112.53 653.72 112.99 655.67
  Q 113.82 659.12 114.31 659.94
  Q 117.60 665.32 123.94 663.19
  Q 132.65 660.25 140.89 658.19
  Q 151.03 655.65 158.28 655.32
  Q 175.61 654.52 191.65 662.14
  Q 203.03 667.55 211.94 675.06
  Q 243.61 701.76 262.41 739.32
  Q 265.35 745.19 263.03 750.39
  Q 261.58 753.65 258.13 755.26"
/>
<path stroke="#8e8c8e" vector-effect="non-scaling-stroke" d="
  M 236.7331 190.1060
  A 26.77 26.40 98.5 0 0 266.8000 167.5322
  A 26.77 26.40 98.5 0 0 244.6469 137.1540
  A 26.77 26.40 98.5 0 0 214.5800 159.7278
  A 26.77 26.40 98.5 0 0 236.7331 190.1060"
/>
<path stroke="#8b8a8c" vector-effect="non-scaling-stroke" d="
  M 819.49 235.55
  A 8.24 8.24 0.0 0 0 811.25 227.31
  A 8.24 8.24 0.0 0 0 803.01 235.55
  A 8.24 8.24 0.0 0 0 811.25 243.79
  A 8.24 8.24 0.0 0 0 819.49 235.55"
/>
<path stroke="#878687" vector-effect="non-scaling-stroke" d="
  M 925.79 626.75
  Q 926.08 637.60 934.11 642.68
  Q 938.92 645.73 944.35 645.80
  Q 950.30 645.87 955.00 642.00
  Q 963.31 635.15 962.18 625.45
  Q 961.31 617.98 956.40 613.26
  Q 951.10 608.16 942.50 608.54"
/>
<path stroke="#8e8c8e" vector-effect="non-scaling-stroke" d="
  M 942.50 608.54
  Q 935.53 609.15 930.69 614.44
  Q 925.83 619.75 925.79 626.75"
/>
<path stroke="#161216" vector-effect="non-scaling-stroke" d="
  M 942.50 608.54
  Q 943.01 609.81 944.09 610.41
  Q 945.73 611.32 946.03 611.63
  Q 950.42 616.18 949.14 621.94
  Q 948.27 625.87 945.10 628.84
  Q 941.95 631.78 937.75 632.75
  Q 932.21 634.03 928.85 629.61
  Q 928.21 628.77 927.39 628.15
  Q 926.53 627.51 925.79 626.75"
/>
<path stroke="#8b8a8c" vector-effect="non-scaling-stroke" d="
  M 193.27 759.73
  A 8.15 8.15 0.0 0 0 185.12 751.58
  A 8.15 8.15 0.0 0 0 176.97 759.73
  A 8.15 8.15 0.0 0 0 185.12 767.88
  A 8.15 8.15 0.0 0 0 193.27 759.73"
/>
<path stroke="#8b8a8c" vector-effect="non-scaling-stroke" d="
  M 804.54 852.47
  A 8.23 8.23 0.0 0 0 796.31 844.24
  A 8.23 8.23 0.0 0 0 788.08 852.47
  A 8.23 8.23 0.0 0 0 796.31 860.70
  A 8.23 8.23 0.0 0 0 804.54 852.47"
/>
<path stroke="#8b8a8c" vector-effect="non-scaling-stroke" d="
  M 352.95 913.07
  A 8.27 8.27 0.0 0 0 344.68 904.80
  A 8.27 8.27 0.0 0 0 336.41 913.07
  A 8.27 8.27 0.0 0 0 344.68 921.34
  A 8.27 8.27 0.0 0 0 352.95 913.07"
/>
<path stroke="#2a252d" vector-effect="non-scaling-stroke" d="
  M 592.31 125.41
  Q 590.75 127.62 592.60 129.59
  Q 608.78 146.85 626.07 162.68
  Q 632.38 168.45 639.22 173.56
  Q 644.37 177.41 648.94 178.31
  Q 652.09 178.93 653.27 176.02
  A 1.00 0.89 41.4 0 0 653.16 175.14
  Q 638.94 153.37 626.61 130.47
  Q 624.54 126.63 621.62 123.50
  A 2.53 2.51 -23.5 0 0 619.56 122.70
  Q 607.89 123.66 596.75 123.55
  Q 593.65 123.52 592.31 125.41"
/>
<path stroke="#2a252d" vector-effect="non-scaling-stroke" d="
  M 333.17 813.83
  Q 341.33 820.76 351.32 824.68
  Q 363.46 829.43 375.97 833.10
  Q 391.74 837.73 399.94 840.81
  Q 407.25 843.56 415.78 848.03
  Q 423.84 852.26 427.70 853.61
  Q 433.74 855.73 440.44 857.06
  Q 456.85 860.32 472.75 860.00
  Q 486.96 859.71 500.21 854.65
  Q 511.75 850.25 523.29 845.84
  Q 532.32 842.39 541.73 840.16
  Q 550.00 838.19 557.50 838.50
  Q 573.91 839.18 589.11 846.85
  Q 594.60 849.62 600.08 852.40
  Q 605.84 855.32 612.27 856.09
  Q 621.67 857.21 630.98 856.18
  Q 639.50 855.24 645.93 853.31
  Q 653.28 851.11 659.86 846.90
  Q 669.68 840.62 674.81 837.81
  Q 680.91 834.48 688.05 833.58
  Q 692.22 833.05 697.97 833.62
  Q 704.31 834.25 707.75 835.50
  Q 711.14 836.73 714.56 834.56
  Q 717.24 832.86 727.54 826.86
  Q 739.65 819.80 740.49 819.14
  Q 746.42 814.53 750.56 807.06
  Q 764.37 782.19 787.69 761.19
  Q 804.59 745.97 818.68 735.42
  Q 823.24 732.01 825.68 728.90
  Q 831.59 721.37 835.31 711.81
  Q 840.46 698.59 848.94 681.44
  Q 853.92 671.37 856.66 659.02
  Q 857.89 653.47 859.53 639.24
  Q 861.00 626.48 862.82 613.76
  Q 863.22 610.90 862.71 607.75
  Q 859.40 587.30 865.65 567.81
  Q 865.67 567.76 870.43 556.01
  Q 875.33 543.94 875.75 531.50
  Q 876.44 511.09 872.32 488.53
  Q 866.57 457.02 854.23 427.58
  Q 852.52 423.48 846.97 410.77
  Q 843.31 402.37 839.38 394.09
  Q 833.21 381.11 827.75 373.75
  Q 817.82 360.37 813.94 355.81
  Q 803.92 344.05 797.37 330.14
  Q 793.37 321.64 793.33 321.56
  Q 790.08 315.05 788.81 312.69
  Q 777.78 292.17 758.75 278.74
  Q 744.63 268.77 729.69 260.06
  Q 714.25 251.06 699.67 240.79
  Q 693.10 236.16 683.68 228.78
  Q 669.69 217.81 655.84 206.65
  Q 632.27 187.65 606.14 172.47
  Q 596.06 166.62 588.43 163.24
  Q 571.53 155.76 553.25 152.26
  Q 535.07 148.79 522.75 148.00
  Q 504.84 146.85 485.67 151.12
  Q 474.32 153.66 474.27 153.66
  Q 463.60 155.67 452.75 156.50
  Q 448.58 156.82 439.75 158.25
  Q 431.12 159.65 426.89 166.68
  Q 425.08 169.67 421.06 172.81
  Q 417.85 175.32 414.63 177.84
  Q 414.53 177.91 409.16 181.90
  Q 403.89 185.80 399.48 190.60
  Q 397.37 192.89 391.80 201.02
  Q 384.52 211.67 375.31 219.81
  Q 361.87 231.70 345.47 240.15
  Q 341.32 242.28 327.13 248.06
  Q 314.26 253.30 301.90 259.62
  Q 296.61 262.32 284.46 269.42
  Q 268.41 278.81 251.87 287.30
  Q 245.70 290.47 236.69 296.69
  Q 208.93 315.83 188.82 340.07
  Q 176.58 354.82 171.81 369.56
  Q 165.53 388.98 163.69 393.44
  Q 156.69 410.31 154.81 416.56
  Q 151.43 427.81 152.25 438.50
  Q 153.12 449.79 153.58 458.16
  Q 154.20 469.70 153.02 477.79
  Q 151.59 487.56 148.31 498.31
  Q 143.46 514.21 137.56 526.45
  Q 137.54 526.50 133.60 533.81
  Q 129.71 541.04 127.60 548.96
  Q 126.40 553.48 126.52 558.66
  Q 126.64 564.06 127.25 568.50
  Q 128.99 581.25 132.88 606.27
  Q 134.01 613.57 135.78 620.74
  Q 138.71 632.58 151.25 631.75
  Q 167.94 630.65 185.78 637.66
  Q 202.93 644.40 219.61 652.23
  Q 231.51 657.81 239.19 664.56
  Q 249.82 673.91 254.93 688.77
  Q 261.94 709.18 274.42 726.68
  Q 279.06 733.18 279.12 733.27
  Q 297.94 760.59 314.36 789.41
  Q 315.40 791.23 320.44 799.06
  Q 326.06 807.80 333.17 813.83"
/>
<path stroke="#2a252d" vector-effect="non-scaling-stroke" d="
  M 774.98 279.36
  Q 776.83 280.36 778.68 278.43
  Q 780.43 276.60 779.98 274.50
  Q 779.86 273.94 778.42 271.04
  Q 775.65 265.46 772.26 260.23
  Q 772.18 260.11 770.02 256.56
  Q 767.21 251.93 763.19 249.56
  Q 760.87 248.20 759.41 249.65
  Q 758.46 250.59 758.50 252.64
  Q 758.59 256.91 759.45 261.09
  Q 759.97 263.63 761.70 265.79
  Q 766.62 271.92 772.44 277.20
  Q 774.60 279.16 774.98 279.36"
/>
<path stroke="#2b252d" vector-effect="non-scaling-stroke" d="
  M 247.63 255.76
  Q 246.70 255.63 245.75 255.69
  Q 219.69 257.15 194.31 251.19
  Q 191.16 250.45 189.56 250.52
  A 1.07 0.94 -71.9 0 0 188.78 250.98
  Q 184.43 257.43 180.94 266.44
  Q 176.29 278.43 174.44 284.44
  Q 173.12 288.72 172.83 292.16
  Q 172.63 294.58 173.73 296.10
  Q 175.20 298.10 177.69 298.14
  Q 179.74 298.17 182.86 296.28
  Q 188.18 293.03 195.31 287.56
  Q 217.36 270.65 245.28 262.19
  Q 249.45 260.93 251.62 260.04
  Q 254.80 258.73 257.71 257.24
  Q 259.35 256.40 257.51 256.25
  Q 253.51 255.92 249.51 255.93
  Q 248.86 255.93 247.63 255.76"
/>
<path stroke="#2a252d" vector-effect="non-scaling-stroke" d="
  M 864.48 398.26
  Q 870.59 403.46 873.37 398.45
  Q 874.68 396.08 874.12 392.35
  Q 873.21 386.35 870.93 380.71
  Q 869.32 376.74 869.28 376.63
  Q 859.59 351.31 846.63 327.92
  Q 845.48 325.83 843.11 326.16
  Q 839.23 326.72 837.99 329.79
  Q 836.25 334.13 836.91 338.76
  Q 839.54 357.28 847.53 373.97
  Q 851.71 382.70 854.55 387.04
  Q 858.65 393.32 864.48 398.26"
/>
<path stroke="#2a252d" vector-effect="non-scaling-stroke" d="
  M 860.74 691.87
  Q 863.16 692.30 865.08 690.34
  Q 869.11 686.24 870.67 680.73
  Q 871.70 677.09 868.71 675.69
  A 1.41 1.32 -38.8 0 0 867.76 675.62
  Q 864.73 676.46 862.88 679.11
  Q 859.54 683.88 859.50 690.37
  A 1.51 1.51 5.4 0 0 860.74 691.87"
/>
<path stroke="#2b252d" vector-effect="non-scaling-stroke" d="
  M 265.93 772.83
  Q 269.76 775.24 273.98 776.78
  Q 278.12 778.28 279.99 778.75
  Q 283.26 779.55 286.41 779.09
  Q 289.63 778.61 287.95 775.83
  Q 282.51 766.82 274.11 759.55
  A 0.70 0.70 49.8 0 0 273.28 759.48
  Q 268.41 762.47 264.96 766.97
  Q 262.25 770.51 265.93 772.83"
/>
<path stroke="#403a46" vector-effect="non-scaling-stroke" d="
  M 441.55 215.37
  A 3.55 3.55 0.0 0 0 438.00 211.82
  A 3.55 3.55 0.0 0 0 434.45 215.37
  A 3.55 3.55 0.0 0 0 438.00 218.92
  A 3.55 3.55 0.0 0 0 441.55 215.37"
/>
<path stroke="#403a46" vector-effect="non-scaling-stroke" d="
  M 256.33 625.92
  Q 260.16 629.94 267.44 634.81
  Q 278.38 642.14 282.75 655.12
  Q 284.00 658.83 283.87 662.02
  Q 283.75 665.32 282.75 669.00
  Q 281.42 673.91 280.46 681.13
  Q 279.42 688.96 280.25 693.39
  Q 281.53 700.24 286.10 705.91
  Q 291.41 712.51 298.28 717.48
  Q 305.31 722.57 312.87 726.84
  Q 323.92 733.07 334.82 739.55
  Q 339.35 742.25 340.90 744.36
  Q 343.09 747.35 344.00 751.75
  Q 345.51 759.08 350.69 764.48
  Q 354.64 768.61 362.31 772.11
  Q 371.09 776.11 380.55 777.96
  Q 383.70 778.57 399.46 780.49
  Q 411.10 781.90 420.75 782.50
  Q 429.37 783.04 436.38 784.27
  Q 439.11 784.76 441.60 786.35
  Q 451.44 792.61 461.14 799.07
  Q 468.81 804.17 476.31 807.44
  Q 492.82 814.63 510.96 811.53
  Q 517.81 810.36 534.19 805.69
  Q 561.40 797.92 591.75 800.50
  Q 601.11 801.30 621.67 806.14
  Q 625.12 806.95 626.85 806.35
  Q 629.22 805.54 631.31 803.06
  Q 638.98 794.00 652.07 789.34
  Q 664.33 784.99 676.81 781.31
  Q 692.69 776.64 708.44 766.19
  Q 725.24 755.04 731.81 735.86
  Q 732.00 735.29 735.71 720.00
  Q 737.91 710.92 741.06 703.06
  Q 744.63 694.18 752.46 689.41
  Q 755.22 687.74 763.88 684.95
  Q 770.66 682.77 775.44 680.69
  Q 785.85 676.15 792.45 665.97
  Q 797.92 657.55 800.50 649.75
  Q 810.49 619.54 805.85 586.99
  Q 803.40 569.76 801.30 552.49
  Q 798.94 533.06 799.75 513.50
  Q 800.07 505.67 803.13 495.19
  Q 804.92 489.01 805.37 486.60
  Q 806.17 482.21 806.46 477.75
  Q 807.14 467.01 807.36 456.25
  Q 807.46 451.23 806.69 449.31
  Q 798.75 429.72 786.71 412.34
  Q 783.07 407.08 779.44 404.56
  Q 773.55 400.48 770.69 396.31
  Q 767.22 391.24 764.79 385.65
  Q 764.77 385.61 762.09 378.14
  Q 758.16 367.21 750.19 358.56
  Q 730.53 337.26 705.20 323.15
  Q 699.82 320.15 696.53 314.96
  Q 690.36 305.21 684.26 295.42
  Q 677.75 284.98 670.19 277.56
  Q 655.25 262.92 635.80 251.91
  Q 614.44 239.83 590.61 234.95
  Q 581.64 233.11 570.80 232.28
  Q 556.06 231.16 542.50 232.00
  Q 515.79 233.66 486.29 238.68
  Q 482.83 239.27 479.70 238.76
  Q 474.76 237.97 466.00 236.25
  Q 450.67 233.24 433.00 234.29
  Q 419.91 235.07 410.00 239.00
  Q 392.12 246.08 377.31 261.06
  Q 360.09 278.49 349.91 297.27
  Q 347.59 301.56 346.92 304.64
  Q 346.11 308.37 346.29 312.67
  A 2.33 2.33 -11.6 0 1 344.80 314.93
  Q 334.04 319.08 322.87 324.04
  Q 312.24 328.77 302.77 335.53
  Q 294.92 341.14 292.67 350.12
  Q 290.88 357.23 290.87 357.26
  Q 287.61 365.09 279.00 368.00
  Q 275.70 369.11 269.68 370.11
  A 0.49 0.49 -9.4 0 0 269.27 370.67
  Q 273.65 398.12 260.12 422.20
  Q 256.78 428.14 251.64 432.63
  Q 243.36 439.85 235.08 447.07
  Q 226.39 454.65 220.81 463.31
  Q 212.98 475.48 215.00 490.50
  Q 216.40 500.90 220.84 511.64
  Q 223.07 517.05 223.83 519.08
  Q 225.24 522.83 226.72 526.55
  Q 229.61 533.86 229.49 541.75
  Q 228.94 576.77 243.97 607.93
  Q 246.66 613.49 249.39 617.42
  Q 252.52 621.92 256.33 625.92"
/>
<path stroke="#29252e" vector-effect="non-scaling-stroke" d="
  M 233.42 380.77
  A 13.86 13.86 0.0 0 0 219.56 366.91
  A 13.86 13.86 0.0 0 0 205.70 380.77
  A 13.86 13.86 0.0 0 0 219.56 394.63
  A 13.86 13.86 0.0 0 0 233.42 380.77"
/>
<path stroke="#403a46" vector-effect="non-scaling-stroke" d="
  M 831.70 500.99
  A 3.47 3.47 0.0 0 0 828.23 497.52
  A 3.47 3.47 0.0 0 0 824.76 500.99
  A 3.47 3.47 0.0 0 0 828.23 504.46
  A 3.47 3.47 0.0 0 0 831.70 500.99"
/>
<path stroke="#29252e" vector-effect="non-scaling-stroke" d="
  M 783.67 722.88
  A 13.66 13.66 0.0 0 0 770.01 709.22
  A 13.66 13.66 0.0 0 0 756.35 722.88
  A 13.66 13.66 0.0 0 0 770.01 736.54
  A 13.66 13.66 0.0 0 0 783.67 722.88"
/>
<path stroke="#614a4c" vector-effect="non-scaling-stroke" d="
  M 435.54 799.68
  A 3.34 3.34 0.0 0 0 432.20 796.34
  A 3.34 3.34 0.0 0 0 428.86 799.68
  A 3.34 3.34 0.0 0 0 432.20 803.02
  A 3.34 3.34 0.0 0 0 435.54 799.68"
/>
<path stroke="#a37d53" vector-effect="non-scaling-stroke" d="
  M 305.96 414.75
  Q 306.37 415.17 306.96 415.00"
/>
<path stroke="#2c272f" vector-effect="non-scaling-stroke" d="
  M 306.96 415.00
  Q 288.19 446.25 281.25 481.25
  Q 270.55 535.24 286.25 588.46"
/>
<path stroke="#644f55" vector-effect="non-scaling-stroke" d="
  M 286.25 588.46
  Q 285.27 588.44 285.50 589.50
  Q 287.28 597.76 289.96 604.50"
/>
<path stroke="#a16c4f" vector-effect="non-scaling-stroke" d="
  M 289.96 604.50
  Q 302.02 642.00 326.00 673.21"
/>
<path stroke="#644f55" vector-effect="non-scaling-stroke" d="
  M 326.00 673.21
  Q 324.70 673.16 323.87 672.22
  Q 323.56 671.87 323.63 672.30
  Q 324.14 675.54 325.97 678.29
  Q 352.61 718.41 393.60 742.78
  Q 401.89 747.70 411.29 752.09
  Q 458.57 774.16 513.25 776.75
  Q 568.35 779.36 618.34 763.29
  Q 627.96 760.20 637.08 756.32
  Q 714.94 723.18 755.67 647.92
  Q 766.95 627.07 773.50 605.25
  Q 793.63 538.18 778.75 469.25
  Q 763.42 398.21 710.19 347.81
  Q 700.03 338.20 682.00 325.04"
/>
<path stroke="#6a5255" vector-effect="non-scaling-stroke" d="
  M 682.00 325.04
  L 677.75 322.21"
/>
<path stroke="#644f55" vector-effect="non-scaling-stroke" d="
  M 677.75 322.21
  Q 648.40 303.32 615.81 292.94
  Q 577.29 280.67 536.48 277.78
  Q 523.12 276.84 518.02 276.73
  Q 509.22 276.56 499.50 277.50
  Q 471.49 280.21 446.70 287.23
  Q 408.43 298.06 375.94 320.94
  Q 363.86 329.44 348.70 343.63
  Q 345.15 346.96 341.65 351.64
  Q 337.50 357.21 333.06 362.56
  Q 328.70 367.81 318.22 384.91
  Q 318.19 384.97 315.83 388.67
  Q 312.20 394.36 309.56 401.31
  Q 306.80 408.61 302.25 416.57
  A 1.34 1.27 55.2 0 0 302.11 417.48
  L 302.60 419.94
  Q 302.69 420.40 302.93 420.00
  L 305.96 414.75"
/>
<path stroke="#855f5b" vector-effect="non-scaling-stroke" d="
  M 677.75 322.21
  Q 672.84 321.96 670.44 325.99
  A 0.75 0.66 -67.8 0 1 669.71 326.35
  Q 667.49 325.90 665.61 324.75
  Q 662.42 322.80 661.47 322.38
  Q 658.03 320.86 654.77 318.97
  Q 646.91 314.43 638.54 310.90
  Q 629.02 306.87 619.60 302.60
  Q 611.01 298.71 601.79 296.67
  Q 601.34 296.57 601.80 296.50
  Q 604.14 296.15 600.85 295.49
  Q 595.22 294.37 589.61 293.08
  Q 589.26 293.00 589.57 293.19
  Q 591.18 294.19 589.52 293.69
  Q 579.49 290.71 569.15 289.43
  Q 560.02 288.30 554.94 287.42
  Q 535.47 284.03 515.69 283.82
  Q 512.53 283.79 508.56 284.73
  Q 501.76 286.35 494.75 286.65
  Q 493.96 286.68 492.70 287.06
  Q 491.67 287.37 490.59 287.37
  Q 487.97 287.37 487.90 287.37
  Q 481.44 287.96 475.00 288.63
  Q 467.88 289.36 462.24 290.74
  Q 452.97 293.01 443.96 296.20
  Q 442.46 296.73 439.42 297.27
  Q 437.07 297.68 434.89 298.65
  Q 433.43 299.31 432.10 299.56
  Q 430.63 299.82 429.19 300.20
  Q 427.73 300.58 425.21 302.05
  Q 423.33 303.15 420.69 304.19
  Q 417.43 305.46 403.24 312.60
  Q 403.18 312.62 401.30 313.32
  Q 400.08 313.76 399.28 314.83
  Q 398.95 315.27 398.55 315.48
  Q 396.66 316.45 394.79 317.44
  Q 394.12 317.80 390.97 319.21
  Q 388.61 320.28 386.55 321.85
  Q 383.95 323.84 382.56 324.62
  Q 380.42 325.82 378.31 327.06
  Q 377.77 327.38 375.56 328.81
  Q 373.17 330.36 370.53 331.39
  A 0.93 0.85 86.5 0 0 369.99 332.06
  Q 369.70 333.55 368.31 334.56
  Q 367.19 335.39 366.27 336.73
  Q 365.35 338.06 364.28 338.84
  Q 360.88 341.29 358.35 344.61
  Q 357.91 345.19 355.85 347.08
  Q 354.32 348.48 354.00 350.69
  Q 353.92 351.22 353.64 351.60
  Q 351.12 355.03 347.93 357.90
  Q 347.88 357.95 346.47 358.96
  Q 344.95 360.07 343.67 362.57
  Q 343.38 363.14 342.91 363.59
  Q 336.47 369.69 343.75 364.29"
/>
<path stroke="#be8959" vector-effect="non-scaling-stroke" d="
  M 343.75 364.29
  L 341.00 367.29"
/>
<path stroke="#7e5b5a" vector-effect="non-scaling-stroke" d="
  M 341.00 367.29
  Q 338.84 368.22 336.94 370.94
  Q 335.75 372.64 332.27 375.95
  Q 330.85 377.30 329.84 379.05
  Q 328.84 380.78 327.75 382.46"
/>
<path stroke="#be8959" vector-effect="non-scaling-stroke" d="
  M 327.75 382.46
  Q 315.42 397.63 305.96 414.75"
/>
<path stroke="#fdc25c" vector-effect="non-scaling-stroke" d="
  M 724.00 399.96
  L 721.42 400.78
  A 1.75 1.33 -73.6 0 0 720.65 401.35
  Q 719.55 402.74 718.50 401.82
  Q 717.46 400.91 717.37 400.85
  Q 699.72 389.72 681.09 380.33
  Q 681.02 380.29 678.64 378.88
  Q 676.62 377.68 674.25 377.52
  A 1.05 1.00 73.2 0 1 673.48 377.08
  Q 672.82 376.18 671.82 375.67
  Q 662.03 370.76 651.50 367.75
  Q 648.60 366.92 646.30 367.44
  Q 645.80 367.55 645.33 367.42
  Q 642.53 366.64 639.96 367.78
  A 0.85 0.73 50.5 0 1 639.15 367.64
  Q 638.48 367.10 637.71 367.50"
/>
<path stroke="#9a6d3b" vector-effect="non-scaling-stroke" d="
  M 637.71 367.50
  Q 588.18 324.33 523.67 314.76
  Q 513.84 313.31 503.78 312.86
  Q 427.69 309.45 365.25 353.46"
/>
<path stroke="#866233" vector-effect="non-scaling-stroke" d="
  M 365.25 353.46
  Q 329.96 378.41 306.96 415.00"
/>
<path stroke="#be8959" vector-effect="non-scaling-stroke" d="
  M 327.75 382.46
  L 341.00 367.29"
/>
<path stroke="#855f5b" vector-effect="non-scaling-stroke" d="
  M 682.00 325.04
  Q 683.33 329.05 680.37 333.25
  A 1.09 1.09 38.7 0 0 680.53 334.69
  Q 686.18 339.71 692.02 344.02
  Q 692.19 344.15 695.09 345.64
  Q 696.42 346.32 698.00 347.75
  Q 706.51 355.41 714.50 363.62
  A 0.24 0.21 -42.3 0 1 714.46 363.95
  Q 714.32 364.05 714.30 364.20
  Q 714.26 364.38 714.48 364.61
  Q 719.73 370.17 724.44 376.19
  Q 724.41 375.16 725.62 376.66
  Q 726.12 377.28 726.75 377.77
  Q 728.43 379.09 729.29 380.56
  Q 731.13 383.68 731.14 383.70
  Q 739.49 394.37 743.69 401.81
  Q 746.05 406.00 748.48 410.16
  Q 751.47 415.25 753.11 418.61
  Q 758.51 429.64 762.42 441.27
  Q 765.70 451.02 768.01 460.18
  Q 770.21 468.90 772.00 479.50
  Q 772.28 481.14 772.17 482.07
  A 0.78 0.73 21.7 0 0 772.51 482.79
  Q 773.13 483.21 773.12 484.01
  Q 773.10 485.41 773.12 485.50
  Q 773.34 486.85 773.66 488.18
  Q 774.01 489.65 774.11 490.86
  Q 775.15 503.99 776.34 517.10
  Q 776.69 520.85 776.47 525.91
  Q 776.32 529.46 776.25 534.75
  Q 776.18 540.34 774.97 554.85
  Q 774.80 556.90 773.91 560.02
  Q 773.18 562.59 772.91 565.24
  Q 772.42 570.00 771.88 572.15
  Q 769.41 581.90 768.69 586.69
  Q 767.71 593.15 766.19 596.94
  Q 765.63 598.34 765.47 599.42
  Q 765.21 601.22 764.95 601.86
  Q 763.96 604.28 763.05 606.74
  Q 762.73 607.60 761.64 609.60
  Q 760.86 611.05 760.51 612.65
  Q 759.71 616.42 759.39 617.21
  Q 755.62 626.84 751.08 636.13
  Q 750.93 636.43 749.01 639.57
  Q 748.11 641.02 747.19 643.19
  Q 745.50 647.13 740.14 654.51
  Q 739.35 655.59 737.91 658.36
  Q 736.86 660.39 735.29 662.04
  Q 732.70 664.76 731.86 666.05
  Q 726.09 674.81 719.80 683.22
  Q 719.74 683.30 716.35 688.33
  Q 714.49 691.07 712.07 693.34
  Q 709.94 695.33 708.41 697.13
  Q 706.68 699.15 704.72 700.92
  Q 699.21 705.90 699.14 705.96
  Q 694.48 710.34 687.00 716.00
  Q 678.14 722.71 673.18 725.93
  Q 673.13 725.97 669.09 728.26
  Q 667.22 729.32 664.94 730.94
  Q 658.53 735.49 649.68 740.22
  Q 649.13 740.52 647.57 741.60
  Q 646.51 742.34 645.30 742.78
  Q 641.89 744.01 641.82 744.05
  Q 631.31 748.96 613.81 755.56
  Q 608.56 757.55 604.74 758.62
  Q 597.24 760.74 596.97 760.82
  Q 591.46 762.43 585.73 763.08
  Q 582.30 763.47 571.00 765.50
  Q 551.07 769.08 526.65 769.25
  Q 526.60 769.25 517.85 769.46
  Q 509.65 769.66 501.51 768.42
  Q 498.52 767.97 494.68 768.01
  Q 493.93 768.02 494.63 768.29
  Q 497.39 769.37 494.32 768.65
  Q 479.48 765.17 464.34 763.40
  Q 464.28 763.40 461.65 763.24
  Q 459.91 763.14 458.30 762.56
  Q 454.26 761.10 453.92 761.02
  Q 430.17 755.16 408.98 742.96
  Q 408.94 742.94 405.78 741.41
  Q 404.40 740.74 402.69 739.56
  Q 397.61 736.07 389.27 731.91
  Q 388.85 731.70 388.56 731.27
  Q 387.46 729.61 385.54 729.06
  A 0.99 0.97 87.9 0 1 384.91 728.46
  Q 384.18 726.50 382.25 725.75
  Q 380.83 725.20 380.16 724.01
  Q 379.95 723.65 379.49 723.33
  L 376.18 721.02
  Q 375.59 720.61 376.19 720.38
  Q 376.53 720.26 376.94 720.56
  Q 380.89 723.45 385.30 725.54
  Q 385.63 725.69 385.98 726.20
  Q 386.49 726.92 387.25 725.96"
/>
<path stroke="#c48958" vector-effect="non-scaling-stroke" d="
  M 387.25 725.96
  Q 426.43 748.52 469.00 755.75
  Q 538.79 767.60 606.30 742.79
  Q 631.17 733.65 654.31 718.81
  Q 682.74 700.58 703.75 675.04"
/>
<path stroke="#c4965d" vector-effect="non-scaling-stroke" d="
  M 703.75 675.04
  Q 749.63 621.22 758.46 550.75"
/>
<path stroke="#c4a570" vector-effect="non-scaling-stroke" d="
  M 758.46 550.75
  Q 760.76 535.71 760.21 520.50"
/>
<path stroke="#c4975e" vector-effect="non-scaling-stroke" d="
  M 760.21 520.50
  Q 759.90 476.10 743.25 435.50
  Q 735.69 417.06 724.00 399.96"
/>
<path stroke="#c48d59" vector-effect="non-scaling-stroke" d="
  M 724.00 399.96
  Q 698.79 361.64 662.94 337.31
  Q 607.17 299.48 537.75 294.74
  Q 510.27 292.87 480.75 297.00
  Q 400.53 308.23 343.75 364.29"
/>
<path stroke="#9a7740" vector-effect="non-scaling-stroke" d="
  M 637.71 367.50
  Q 660.25 387.91 677.00 413.29"
/>
<path stroke="#9a8552" vector-effect="non-scaling-stroke" d="
  M 677.00 413.29
  Q 700.98 451.11 707.46 495.50"
/>
<path stroke="#291a19" vector-effect="non-scaling-stroke" d="
  M 707.46 495.50
  Q 706.48 495.63 705.94 496.69
  Q 702.97 502.53 698.46 509.25"
/>
<path stroke="#30201f" vector-effect="non-scaling-stroke" d="
  M 698.46 509.25
  Q 696.68 510.86 696.89 509.49
  A 1.45 1.17 -61.0 0 0 696.73 508.58
  Q 694.77 505.37 694.53 501.57
  Q 694.27 497.31 693.17 493.22
  Q 692.93 492.32 692.89 490.22
  Q 692.86 488.53 691.92 487.22
  Q 690.22 484.85 690.10 484.44
  Q 689.53 482.56 689.75 480.25
  Q 689.97 478.01 689.07 475.71
  Q 688.01 473.01 687.70 471.45
  Q 687.01 467.93 685.59 464.66
  Q 683.24 459.30 682.80 458.18
  Q 681.03 453.75 678.51 449.67
  Q 678.26 449.26 678.23 448.75
  Q 678.02 445.48 676.12 442.84
  Q 675.89 442.52 675.76 441.95
  Q 675.56 441.08 674.70 441.32
  A 0.69 0.59 -23.2 0 1 673.97 441.09
  Q 672.93 439.45 672.78 437.50
  A 1.83 1.50 -71.5 0 0 672.44 436.61
  Q 670.43 434.03 668.82 431.19
  Q 667.74 429.28 665.90 427.42
  Q 663.52 425.03 662.19 422.31
  Q 661.03 419.97 660.06 418.64
  Q 659.82 418.33 659.64 417.76
  Q 659.27 416.61 658.07 416.63
  A 1.53 0.94 -16.7 0 1 657.16 416.39
  Q 655.43 415.08 654.14 413.34
  Q 654.00 413.15 653.86 412.71
  Q 653.62 411.97 652.95 412.68
  A 0.35 0.35 -0.0 0 1 652.46 412.69
  Q 649.88 410.22 647.39 408.17
  Q 646.31 407.28 644.51 404.98
  Q 643.26 403.37 641.31 401.94
  Q 639.80 400.83 638.27 398.94
  Q 636.81 397.15 635.31 395.98
  Q 630.98 392.61 627.01 388.37
  Q 626.47 387.79 626.60 388.57
  Q 626.75 389.44 625.52 388.76
  Q 623.90 387.86 622.80 385.90
  A 5.04 4.99 0.9 0 0 620.97 384.03
  Q 619.57 383.21 619.26 381.82
  A 1.60 0.68 87.1 0 0 618.84 380.96
  Q 617.97 380.24 616.72 380.59
  A 0.71 0.66 62.7 0 1 616.00 380.33
  L 612.60 375.86
  A 1.24 0.80 -10.4 0 0 611.75 375.51
  Q 609.50 375.43 608.25 373.25
  Q 607.76 372.40 606.50 372.27
  A 1.88 1.29 -14.7 0 1 605.61 371.95
  Q 600.61 368.06 595.00 365.19
  Q 593.12 364.23 590.84 362.27
  Q 588.50 360.27 585.64 359.01
  A 1.57 1.12 81.0 0 1 584.99 358.35
  Q 584.42 357.28 583.06 356.69
  Q 576.84 353.99 569.61 349.33
  A 1.98 1.35 -19.2 0 0 568.68 349.08
  Q 567.43 349.06 566.59 348.33
  Q 565.17 347.09 565.07 347.05
  Q 564.14 346.62 563.06 346.65
  Q 562.51 346.67 562.11 346.48
  Q 560.65 345.79 559.28 344.94
  Q 557.87 344.07 556.38 343.69
  Q 552.00 342.56 547.90 340.69
  Q 544.73 339.24 541.83 338.64
  Q 537.50 337.75 533.25 336.55
  Q 529.69 335.54 526.50 335.16
  Q 523.08 334.75 519.66 334.29
  Q 519.60 334.28 515.37 333.56
  Q 512.24 333.02 509.50 333.25
  Q 503.75 333.74 499.44 333.31
  Q 498.19 333.19 493.76 333.60
  Q 493.00 333.67 490.79 333.37
  Q 489.22 333.16 487.71 333.79
  Q 487.21 334.00 486.75 333.97
  Q 481.35 333.65 476.05 334.48
  Q 473.69 334.85 470.40 334.99
  Q 467.55 335.10 464.75 335.75
  Q 461.53 336.50 458.26 336.80
  Q 454.43 337.16 451.82 337.80
  Q 443.60 339.80 435.24 341.17
  A 1.65 1.14 -64.2 0 0 434.43 341.63
  Q 433.44 342.62 432.13 342.05
  Q 431.61 341.82 431.19 341.85
  Q 424.24 342.45 417.55 344.42
  A 0.89 0.73 -88.5 0 0 417.01 345.05
  Q 416.76 346.08 415.42 345.72
  Q 414.86 345.57 414.44 345.65
  Q 409.19 346.58 404.12 348.21
  Q 403.26 348.49 401.95 348.51
  Q 400.82 348.53 399.73 348.84
  Q 396.86 349.66 396.57 349.71
  Q 390.51 350.81 384.67 352.73
  Q 382.19 353.55 379.10 354.22
  Q 376.26 354.83 373.50 355.75
  Q 371.42 356.44 367.29 355.50"
/>
<path stroke="#231717" vector-effect="non-scaling-stroke" d="
  M 367.29 355.50
  L 365.25 353.46"
/>
<path stroke="#140f11" vector-effect="non-scaling-stroke" d="
  M 658.00 555.71
  Q 661.16 554.70 658.10 557.47
  A 0.84 0.84 -43.4 0 0 658.06 558.68
  Q 660.07 560.72 660.34 563.10
  Q 660.49 564.37 659.23 567.15
  Q 658.03 569.78 657.44 573.44
  Q 656.66 578.20 652.88 588.92
  Q 652.36 590.41 651.44 594.94
  Q 650.80 598.07 648.12 600.99
  Q 647.28 601.91 646.38 603.40
  Q 645.68 604.57 644.56 605.81
  Q 643.54 606.96 643.09 608.56
  Q 642.47 610.79 642.11 611.43
  Q 640.87 613.56 638.31 616.81
  Q 637.14 618.30 632.20 625.92
  Q 632.13 626.02 631.08 628.20
  Q 630.08 630.25 627.29 632.02
  A 4.41 4.40 84.8 0 0 625.56 634.10
  Q 624.83 635.94 623.49 638.11
  Q 622.75 639.30 620.70 641.65
  Q 619.26 643.28 618.07 645.09
  Q 616.89 646.88 615.28 648.31
  Q 613.09 650.24 611.32 652.56
  Q 609.28 655.24 607.48 656.78
  Q 602.15 661.34 597.32 666.42
  Q 595.60 668.23 593.35 670.22
  Q 591.28 672.05 589.36 674.03
  Q 586.19 677.28 583.29 679.58
  Q 577.49 684.17 573.56 688.31
  Q 570.27 691.79 567.73 693.54
  A 1.83 1.67 87.4 0 0 567.12 694.27
  Q 566.16 696.33 564.24 697.55
  A 1.78 1.68 86.9 0 0 563.62 698.28
  Q 562.31 701.23 558.87 700.80
  Q 556.97 700.57 556.11 702.27
  Q 555.64 703.20 554.54 703.65
  A 1.11 1.01 -3.4 0 0 553.92 704.29
  Q 552.89 707.56 549.75 708.25
  Q 544.94 709.31 541.62 711.18
  A 1.73 1.55 -89.0 0 0 540.97 711.88
  L 540.67 712.49
  A 0.99 0.96 8.0 0 1 539.94 713.02
  L 537.30 713.48
  A 1.76 1.49 -67.6 0 0 536.45 713.92
  Q 534.60 715.69 532.30 716.73
  Q 530.13 717.71 529.45 718.12
  Q 528.08 718.93 526.73 719.77
  Q 524.92 720.88 522.45 721.36
  Q 518.94 722.04 516.19 723.44
  Q 514.28 724.41 512.56 724.35
  A 1.37 1.33 25.3 0 0 511.68 724.65
  Q 509.11 726.77 505.06 726.81
  Q 502.98 726.84 500.22 727.83
  Q 499.52 728.08 497.06 728.48
  Q 495.33 728.75 494.03 730.06
  A 1.12 0.98 21.2 0 1 493.20 730.36
  Q 492.13 730.31 491.37 731.28
  Q 490.33 732.59 488.67 732.81
  Q 481.08 733.82 475.04 735.67
  A 0.34 0.32 -29.5 0 0 474.87 736.21
  Q 475.38 736.74 476.13 736.75
  A 0.24 0.24 -83.3 0 1 476.36 737.05
  Q 475.93 738.67 475.00 739.04"
/>
<path stroke="#865e32" vector-effect="non-scaling-stroke" d="
  M 475.00 739.04
  Q 433.27 735.67 395.69 716.56
  Q 365.85 701.40 342.00 678.71"
/>
<path stroke="#84512f" vector-effect="non-scaling-stroke" d="
  M 342.00 678.71
  Q 308.58 646.41 291.29 603.25"
/>
<path stroke="#463435" vector-effect="non-scaling-stroke" d="
  M 291.29 603.25
  L 286.25 588.46"
/>
<path stroke="#fdda72" vector-effect="non-scaling-stroke" d="
  M 760.21 520.50
  L 759.94 519.30
  A 0.98 0.75 -89.1 0 0 759.46 518.65
  Q 758.39 518.17 758.13 516.92
  Q 756.86 510.73 754.35 505.00
  Q 752.98 501.87 748.66 493.93
  Q 738.92 476.00 726.23 460.05
  Q 720.88 453.34 714.11 446.56
  Q 707.69 440.14 700.94 434.06
  Q 691.27 425.36 681.71 416.54
  Q 680.53 415.46 679.60 414.17
  Q 679.07 413.43 678.51 413.28
  Q 677.79 413.09 677.00 413.29"
/>
<path stroke="#bc7854" vector-effect="non-scaling-stroke" d="
  M 326.00 673.21
  Q 333.30 682.12 341.46 690.25"
/>
<path stroke="#be8657" vector-effect="non-scaling-stroke" d="
  M 341.46 690.25
  Q 362.05 711.04 387.25 725.96"
/>
<path stroke="#fdd972" vector-effect="non-scaling-stroke" d="
  M 758.46 550.75
  Q 756.91 550.71 756.25 552.25
  Q 754.38 556.63 750.33 562.33
  Q 730.25 590.58 705.94 615.22
  Q 699.61 621.64 693.84 626.54
  Q 687.52 631.91 680.83 636.84
  Q 680.32 637.21 680.12 637.76
  A 1.50 0.43 -75.2 0 1 679.63 638.58
  Q 678.73 639.24 678.21 638.00"
/>
<path stroke="#8c7c4b" vector-effect="non-scaling-stroke" d="
  M 678.21 638.00
  Q 717.70 572.27 707.46 495.50"
/>
<path stroke="#fdbd5a" vector-effect="non-scaling-stroke" d="
  M 703.75 675.04
  Q 702.84 675.07 702.41 674.04
  A 0.63 0.63 72.8 0 0 701.71 673.67
  Q 694.93 675.12 689.04 677.24
  Q 685.97 678.35 682.80 678.99
  Q 679.08 679.74 676.88 680.68
  Q 674.04 681.90 671.25 683.25
  Q 670.27 683.72 667.30 683.37
  A 1.56 1.25 -53.0 0 0 666.39 683.60
  Q 664.29 684.90 658.95 685.94
  Q 658.87 685.96 658.80 685.93
  Q 656.70 685.35 654.87 686.00
  Q 652.25 686.94 651.56 686.99
  Q 648.66 687.22 645.75 687.02
  Q 643.33 686.86 640.50 688.75
  Q 639.04 689.72 638.66 688.55
  A 0.62 0.54 -21.8 0 1 639.01 687.86
  Q 640.85 687.04 641.25 686.50
  Q 641.73 685.86 641.30 685.65
  A 1.22 0.30 -22.9 0 0 640.37 685.80
  L 637.81 686.72
  A 1.47 1.15 0.7 0 0 637.10 687.26
  Q 636.52 688.18 635.25 687.71"
/>
<path stroke="#221718" vector-effect="non-scaling-stroke" d="
  M 698.46 509.25
  Q 687.99 526.05 674.25 540.29"
/>
<path stroke="#231b1f" vector-effect="non-scaling-stroke" d="
  M 674.25 540.29
  Q 673.37 540.61 672.75 541.29
  Q 672.45 541.63 672.44 541.18
  Q 672.43 538.96 671.81 537.19
  Q 671.03 534.93 671.12 532.74
  Q 671.23 530.32 671.23 530.25
  Q 670.86 512.53 667.90 495.09
  Q 667.23 491.14 665.65 485.93
  Q 664.28 481.40 663.08 476.82
  Q 662.23 473.58 660.49 470.13
  Q 658.86 466.89 657.53 463.52
  Q 655.56 458.48 653.61 454.93
  Q 650.49 449.21 647.74 443.29
  Q 646.60 440.84 642.81 436.19
  Q 637.43 429.58 631.85 423.13
  Q 631.78 423.06 629.90 420.66
  Q 628.13 418.40 625.06 415.94
  Q 623.13 414.39 621.00 411.52
  Q 619.90 410.03 617.94 408.59
  Q 615.86 407.05 614.33 404.89
  Q 612.49 402.30 610.56 401.19
  Q 608.57 400.04 607.32 398.53
  Q 605.21 395.99 604.57 395.53
  Q 602.80 394.26 600.77 393.38
  A 1.70 1.65 83.6 0 1 600.04 392.78
  Q 598.80 390.99 597.10 389.70
  Q 596.84 389.50 595.12 388.80
  Q 593.99 388.34 593.48 387.16
  A 1.40 1.12 85.9 0 0 592.86 386.49
  Q 587.30 383.94 582.06 378.44
  Q 580.78 377.09 578.53 376.14
  Q 576.33 375.21 574.97 374.08
  Q 571.40 371.12 569.44 370.31
  Q 567.52 369.53 566.43 368.46
  Q 564.29 366.38 564.25 366.35
  Q 558.55 362.31 554.44 360.56
  Q 546.63 357.24 538.81 353.94
  Q 535.66 352.61 533.31 352.25
  Q 532.83 352.18 532.40 351.90
  Q 530.78 350.83 528.98 350.82
  Q 525.55 350.80 525.40 350.78
  Q 521.86 350.16 518.44 349.08
  Q 515.99 348.31 513.42 348.34
  Q 508.70 348.40 504.02 347.65
  Q 502.65 347.43 502.32 347.77
  A 0.84 0.15 -48.9 0 1 501.75 348.23
  Q 494.94 348.03 488.15 348.57
  Q 487.84 348.60 485.54 348.31
  Q 484.13 348.14 482.81 349.07
  Q 481.71 349.85 480.62 349.32
  Q 480.08 349.06 479.69 349.07
  Q 466.14 349.39 452.96 352.59
  Q 452.57 352.69 452.94 352.85
  Q 454.64 353.61 452.56 353.50
  A 0.42 0.42 10.4 0 1 452.18 352.95
  Q 452.38 352.39 451.77 352.57
  Q 447.47 353.82 443.05 354.15
  Q 437.46 354.56 435.03 355.08
  Q 427.13 356.80 419.33 358.91
  A 0.57 0.41 -89.1 0 0 419.00 359.35
  Q 418.97 359.53 418.88 359.68
  A 1.01 0.54 13.5 0 1 418.00 359.91
  Q 415.61 359.59 413.70 361.00
  Q 413.28 361.32 412.81 361.38
  Q 406.98 362.16 404.50 363.25
  Q 402.42 364.16 398.00 364.75
  Q 395.66 365.06 391.46 366.64
  Q 389.65 367.32 386.88 367.58
  Q 384.35 367.83 382.25 368.75
  Q 375.33 371.78 368.50 372.04"
/>
<path stroke="#1c1517" vector-effect="non-scaling-stroke" d="
  M 368.50 372.04
  L 367.29 355.50"
/>
<path stroke="#8c6e39" vector-effect="non-scaling-stroke" d="
  M 678.21 638.00
  Q 660.61 666.21 635.25 687.71"
/>
<path stroke="#8c6133" vector-effect="non-scaling-stroke" d="
  M 635.25 687.71
  Q 597.67 719.19 551.81 732.06
  Q 514.93 742.42 475.00 739.04"
/>
<path stroke="#1b1519" vector-effect="non-scaling-stroke" d="
  M 674.25 540.29
  Q 666.57 548.46 658.00 555.71"
/>
<path stroke="#151317" vector-effect="non-scaling-stroke" d="
  M 658.00 555.71
  Q 648.10 563.51 639.25 568.75
  Q 609.15 586.58 573.50 586.53
  Q 548.56 586.50 527.00 579.75
  Q 472.44 562.68 432.10 520.41
  Q 402.97 489.88 387.25 452.00
  Q 371.58 414.24 368.50 372.04"
/>
<path stroke="#bc7854" vector-effect="non-scaling-stroke" d="
  M 291.29 603.25
  Q 290.34 603.68 289.96 604.50"
/>
<path stroke="#fba351" vector-effect="non-scaling-stroke" d="
  M 342.00 678.71
  Q 342.11 681.25 344.05 682.99
  A 0.95 0.84 27.3 0 1 344.37 683.81
  Q 343.93 686.36 341.74 687.80
  A 0.72 0.71 -23.1 0 0 341.44 688.54
  Q 341.63 689.40 341.46 690.25"
/>
<path stroke="#2a262e" vector-effect="non-scaling-stroke" d="
  M 572.20 405.89
  A 18.74 18.74 0.0 0 0 553.46 387.15
  A 18.74 18.74 0.0 0 0 534.72 405.89
  A 18.74 18.74 0.0 0 0 553.46 424.63
  A 18.74 18.74 0.0 0 0 572.20 405.89"
/>
<path stroke="#2a262e" vector-effect="non-scaling-stroke" d="
  M 644.39 452.57
  A 14.59 14.59 0.0 0 0 629.80 437.98
  A 14.59 14.59 0.0 0 0 615.21 452.57
  A 14.59 14.59 0.0 0 0 629.80 467.16
  A 14.59 14.59 0.0 0 0 644.39 452.57"
/>
<path stroke="#29252e" vector-effect="non-scaling-stroke" d="
  M 608.55 472.96
  A 2.89 2.89 0.0 0 0 605.66 470.07
  A 2.89 2.89 0.0 0 0 602.77 472.96
  A 2.89 2.89 0.0 0 0 605.66 475.85
  A 2.89 2.89 0.0 0 0 608.55 472.96"
/>
<path stroke="#2a262e" vector-effect="non-scaling-stroke" d="
  M 501.89 529.90
  A 2.71 2.71 0.0 0 0 499.18 527.19
  A 2.71 2.71 0.0 0 0 496.47 529.90
  A 2.71 2.71 0.0 0 0 499.18 532.61
  A 2.71 2.71 0.0 0 0 501.89 529.90"
/>
</g>
<path fill="#ffffff" d="
  M 0.00 0.00
  L 1024.00 0.00
  L 1024.00 1024.00
  L 0.00 1024.00
  L 0.00 0.00
  Z
  M 258.13 755.26
  Q 254.77 756.83 251.00 756.75
  Q 243.19 756.59 236.81 757.56
  Q 233.51 758.07 233.19 760.81
  Q 233.00 762.44 234.29 764.84
  Q 237.04 769.97 240.82 774.44
  Q 269.73 808.64 307.94 832.06
  Q 349.28 857.41 391.86 873.02
  Q 435.66 889.07 481.56 897.45
  Q 485.74 898.21 489.07 895.83
  Q 493.43 892.73 497.42 889.16
  Q 509.78 878.13 523.36 868.64
  Q 534.49 860.87 545.06 857.56
  Q 568.97 850.09 589.43 862.66
  Q 595.51 866.40 601.38 871.64
  Q 606.99 876.64 611.53 882.72
  Q 613.53 885.41 616.25 885.75
  Q 636.56 888.33 656.54 889.47
  A 1.25 1.24 10.4 0 0 657.81 888.60
  Q 661.59 876.63 669.44 867.69
  Q 678.20 857.71 690.03 856.23
  Q 701.47 854.80 711.05 862.29
  A 2.90 2.87 -32.2 0 0 713.48 862.83
  Q 741.85 856.40 764.48 837.24
  Q 764.56 837.17 766.73 835.50
  Q 769.86 833.09 770.50 829.75
  Q 773.57 813.82 777.10 803.79
  Q 781.29 791.90 787.69 782.44
  Q 803.19 759.53 830.59 755.52
  A 2.18 2.15 16.5 0 0 831.92 754.81
  Q 865.66 717.07 889.94 674.19
  Q 892.78 669.18 890.27 664.29
  Q 888.64 661.10 888.59 660.95
  Q 880.88 642.04 882.55 621.50
  Q 883.73 607.01 891.44 595.01
  Q 893.82 591.31 894.41 589.59
  Q 895.35 586.87 895.75 583.50
  Q 900.57 542.68 899.16 504.25
  Q 896.81 440.47 875.61 380.34
  Q 863.68 346.49 843.47 316.83
  Q 841.13 313.41 839.81 312.44
  Q 837.64 310.84 835.87 311.88
  Q 834.82 312.49 833.87 314.68
  Q 832.78 317.19 831.63 319.67
  Q 830.39 322.37 829.20 323.34
  Q 827.35 324.84 824.75 324.75
  Q 821.38 324.63 818.17 322.53
  Q 804.77 313.77 797.56 299.44
  Q 794.61 293.56 790.41 283.10
  Q 787.73 276.41 784.58 270.95
  Q 776.89 257.58 768.86 244.41
  Q 766.08 239.84 761.04 241.17
  Q 759.00 241.71 758.92 241.73
  Q 746.96 244.11 736.75 241.25
  Q 718.97 236.26 703.26 224.79
  Q 695.84 219.37 687.91 211.99
  Q 675.33 200.29 664.81 185.44
  Q 650.58 165.33 640.81 145.37
  Q 631.71 126.80 630.25 123.25
  Q 628.67 119.40 625.71 117.56
  Q 623.71 116.32 619.03 116.04
  Q 586.59 114.11 566.25 114.25
  Q 517.24 114.59 463.50 124.00
  Q 439.70 128.17 413.87 135.78
  Q 411.87 136.37 410.69 137.62
  Q 409.51 138.86 408.31 140.56
  Q 402.84 148.29 394.49 159.20
  Q 369.72 191.57 336.00 214.47
  Q 316.78 227.53 293.31 235.81
  Q 268.06 244.73 243.98 248.62
  Q 218.43 252.75 194.19 244.35
  Q 194.13 244.33 190.89 242.96
  Q 183.47 239.83 178.19 246.94
  Q 154.63 278.62 140.94 312.94
  Q 122.86 358.25 114.17 399.94
  Q 113.75 401.97 114.38 404.02
  Q 120.54 424.31 121.92 445.51
  Q 122.10 448.29 122.00 455.25
  Q 121.75 472.91 112.12 487.14
  Q 109.38 491.19 104.96 493.06
  Q 104.57 493.23 104.01 493.18
  Q 102.27 493.05 102.22 494.65
  Q 102.18 495.75 102.17 495.84
  Q 99.05 518.76 98.00 535.25
  Q 96.79 554.18 99.75 570.25
  Q 107.98 614.99 112.24 651.28
  Q 112.53 653.72 112.99 655.67
  Q 113.82 659.12 114.31 659.94
  Q 117.60 665.32 123.94 663.19
  Q 132.65 660.25 140.89 658.19
  Q 151.03 655.65 158.28 655.32
  Q 175.61 654.52 191.65 662.14
  Q 203.03 667.55 211.94 675.06
  Q 243.61 701.76 262.41 739.32
  Q 265.35 745.19 263.03 750.39
  Q 261.58 753.65 258.13 755.26
  Z
  M 236.7331 190.1060
  A 26.77 26.40 98.5 0 0 266.8000 167.5322
  A 26.77 26.40 98.5 0 0 244.6469 137.1540
  A 26.77 26.40 98.5 0 0 214.5800 159.7278
  A 26.77 26.40 98.5 0 0 236.7331 190.1060
  Z
  M 819.49 235.55
  A 8.24 8.24 0.0 0 0 811.25 227.31
  A 8.24 8.24 0.0 0 0 803.01 235.55
  A 8.24 8.24 0.0 0 0 811.25 243.79
  A 8.24 8.24 0.0 0 0 819.49 235.55
  Z
  M 925.79 626.75
  Q 926.08 637.60 934.11 642.68
  Q 938.92 645.73 944.35 645.80
  Q 950.30 645.87 955.00 642.00
  Q 963.31 635.15 962.18 625.45
  Q 961.31 617.98 956.40 613.26
  Q 951.10 608.16 942.50 608.54
  Q 935.53 609.15 930.69 614.44
  Q 925.83 619.75 925.79 626.75
  Z
  M 193.27 759.73
  A 8.15 8.15 0.0 0 0 185.12 751.58
  A 8.15 8.15 0.0 0 0 176.97 759.73
  A 8.15 8.15 0.0 0 0 185.12 767.88
  A 8.15 8.15 0.0 0 0 193.27 759.73
  Z
  M 804.54 852.47
  A 8.23 8.23 0.0 0 0 796.31 844.24
  A 8.23 8.23 0.0 0 0 788.08 852.47
  A 8.23 8.23 0.0 0 0 796.31 860.70
  A 8.23 8.23 0.0 0 0 804.54 852.47
  Z
  M 352.95 913.07
  A 8.27 8.27 0.0 0 0 344.68 904.80
  A 8.27 8.27 0.0 0 0 336.41 913.07
  A 8.27 8.27 0.0 0 0 344.68 921.34
  A 8.27 8.27 0.0 0 0 352.95 913.07
  Z"
/>
<path fill="#1d181d" d="
  M 263.03 750.39
  Q 265.35 745.19 262.41 739.32
  Q 243.61 701.76 211.94 675.06
  Q 203.03 667.55 191.65 662.14
  Q 175.61 654.52 158.28 655.32
  Q 151.03 655.65 140.89 658.19
  Q 132.65 660.25 123.94 663.19
  Q 117.60 665.32 114.31 659.94
  Q 113.82 659.12 112.99 655.67
  Q 112.53 653.72 112.24 651.28
  Q 107.98 614.99 99.75 570.25
  Q 96.79 554.18 98.00 535.25
  Q 99.05 518.76 102.17 495.84
  Q 102.18 495.75 102.22 494.65
  Q 102.27 493.05 104.01 493.18
  Q 104.57 493.23 104.96 493.06
  Q 109.38 491.19 112.12 487.14
  Q 121.75 472.91 122.00 455.25
  Q 122.10 448.29 121.92 445.51
  Q 120.54 424.31 114.38 404.02
  Q 113.75 401.97 114.17 399.94
  Q 122.86 358.25 140.94 312.94
  Q 154.63 278.62 178.19 246.94
  Q 183.47 239.83 190.89 242.96
  Q 194.13 244.33 194.19 244.35
  Q 218.43 252.75 243.98 248.62
  Q 268.06 244.73 293.31 235.81
  Q 316.78 227.53 336.00 214.47
  Q 369.72 191.57 394.49 159.20
  Q 402.84 148.29 408.31 140.56
  Q 409.51 138.86 410.69 137.62
  Q 411.87 136.37 413.87 135.78
  Q 439.70 128.17 463.50 124.00
  Q 517.24 114.59 566.25 114.25
  Q 586.59 114.11 619.03 116.04
  Q 623.71 116.32 625.71 117.56
  Q 628.67 119.40 630.25 123.25
  Q 631.71 126.80 640.81 145.37
  Q 650.58 165.33 664.81 185.44
  Q 675.33 200.29 687.91 211.99
  Q 695.84 219.37 703.26 224.79
  Q 718.97 236.26 736.75 241.25
  Q 746.96 244.11 758.92 241.73
  Q 759.00 241.71 761.04 241.17
  Q 766.08 239.84 768.86 244.41
  Q 776.89 257.58 784.58 270.95
  Q 787.73 276.41 790.41 283.10
  Q 794.61 293.56 797.56 299.44
  Q 804.77 313.77 818.17 322.53
  Q 821.38 324.63 824.75 324.75
  Q 827.35 324.84 829.20 323.34
  Q 830.39 322.37 831.63 319.67
  Q 832.78 317.19 833.87 314.68
  Q 834.82 312.49 835.87 311.88
  Q 837.64 310.84 839.81 312.44
  Q 841.13 313.41 843.47 316.83
  Q 863.68 346.49 875.61 380.34
  Q 896.81 440.47 899.16 504.25
  Q 900.57 542.68 895.75 583.50
  Q 895.35 586.87 894.41 589.59
  Q 893.82 591.31 891.44 595.01
  Q 883.73 607.01 882.55 621.50
  Q 880.88 642.04 888.59 660.95
  Q 888.64 661.10 890.27 664.29
  Q 892.78 669.18 889.94 674.19
  Q 865.66 717.07 831.92 754.81
  A 2.18 2.15 16.5 0 1 830.59 755.52
  Q 803.19 759.53 787.69 782.44
  Q 781.29 791.90 777.10 803.79
  Q 773.57 813.82 770.50 829.75
  Q 769.86 833.09 766.73 835.50
  Q 764.56 837.17 764.48 837.24
  Q 741.85 856.40 713.48 862.83
  A 2.90 2.87 -32.2 0 1 711.05 862.29
  Q 701.47 854.80 690.03 856.23
  Q 678.20 857.71 669.44 867.69
  Q 661.59 876.63 657.81 888.60
  A 1.25 1.24 10.4 0 1 656.54 889.47
  Q 636.56 888.33 616.25 885.75
  Q 613.53 885.41 611.53 882.72
  Q 606.99 876.64 601.38 871.64
  Q 595.51 866.40 589.43 862.66
  Q 568.97 850.09 545.06 857.56
  Q 534.49 860.87 523.36 868.64
  Q 509.78 878.13 497.42 889.16
  Q 493.43 892.73 489.07 895.83
  Q 485.74 898.21 481.56 897.45
  Q 435.66 889.07 391.86 873.02
  Q 349.28 857.41 307.94 832.06
  Q 269.73 808.64 240.82 774.44
  Q 237.04 769.97 234.29 764.84
  Q 233.00 762.44 233.19 760.81
  Q 233.51 758.07 236.81 757.56
  Q 243.19 756.59 251.00 756.75
  Q 254.77 756.83 258.13 755.26
  Q 261.58 753.65 263.03 750.39
  Z
  M 592.31 125.41
  Q 590.75 127.62 592.60 129.59
  Q 608.78 146.85 626.07 162.68
  Q 632.38 168.45 639.22 173.56
  Q 644.37 177.41 648.94 178.31
  Q 652.09 178.93 653.27 176.02
  A 1.00 0.89 41.4 0 0 653.16 175.14
  Q 638.94 153.37 626.61 130.47
  Q 624.54 126.63 621.62 123.50
  A 2.53 2.51 -23.5 0 0 619.56 122.70
  Q 607.89 123.66 596.75 123.55
  Q 593.65 123.52 592.31 125.41
  Z
  M 333.17 813.83
  Q 341.33 820.76 351.32 824.68
  Q 363.46 829.43 375.97 833.10
  Q 391.74 837.73 399.94 840.81
  Q 407.25 843.56 415.78 848.03
  Q 423.84 852.26 427.70 853.61
  Q 433.74 855.73 440.44 857.06
  Q 456.85 860.32 472.75 860.00
  Q 486.96 859.71 500.21 854.65
  Q 511.75 850.25 523.29 845.84
  Q 532.32 842.39 541.73 840.16
  Q 550.00 838.19 557.50 838.50
  Q 573.91 839.18 589.11 846.85
  Q 594.60 849.62 600.08 852.40
  Q 605.84 855.32 612.27 856.09
  Q 621.67 857.21 630.98 856.18
  Q 639.50 855.24 645.93 853.31
  Q 653.28 851.11 659.86 846.90
  Q 669.68 840.62 674.81 837.81
  Q 680.91 834.48 688.05 833.58
  Q 692.22 833.05 697.97 833.62
  Q 704.31 834.25 707.75 835.50
  Q 711.14 836.73 714.56 834.56
  Q 717.24 832.86 727.54 826.86
  Q 739.65 819.80 740.49 819.14
  Q 746.42 814.53 750.56 807.06
  Q 764.37 782.19 787.69 761.19
  Q 804.59 745.97 818.68 735.42
  Q 823.24 732.01 825.68 728.90
  Q 831.59 721.37 835.31 711.81
  Q 840.46 698.59 848.94 681.44
  Q 853.92 671.37 856.66 659.02
  Q 857.89 653.47 859.53 639.24
  Q 861.00 626.48 862.82 613.76
  Q 863.22 610.90 862.71 607.75
  Q 859.40 587.30 865.65 567.81
  Q 865.67 567.76 870.43 556.01
  Q 875.33 543.94 875.75 531.50
  Q 876.44 511.09 872.32 488.53
  Q 866.57 457.02 854.23 427.58
  Q 852.52 423.48 846.97 410.77
  Q 843.31 402.37 839.38 394.09
  Q 833.21 381.11 827.75 373.75
  Q 817.82 360.37 813.94 355.81
  Q 803.92 344.05 797.37 330.14
  Q 793.37 321.64 793.33 321.56
  Q 790.08 315.05 788.81 312.69
  Q 777.78 292.17 758.75 278.74
  Q 744.63 268.77 729.69 260.06
  Q 714.25 251.06 699.67 240.79
  Q 693.10 236.16 683.68 228.78
  Q 669.69 217.81 655.84 206.65
  Q 632.27 187.65 606.14 172.47
  Q 596.06 166.62 588.43 163.24
  Q 571.53 155.76 553.25 152.26
  Q 535.07 148.79 522.75 148.00
  Q 504.84 146.85 485.67 151.12
  Q 474.32 153.66 474.27 153.66
  Q 463.60 155.67 452.75 156.50
  Q 448.58 156.82 439.75 158.25
  Q 431.12 159.65 426.89 166.68
  Q 425.08 169.67 421.06 172.81
  Q 417.85 175.32 414.63 177.84
  Q 414.53 177.91 409.16 181.90
  Q 403.89 185.80 399.48 190.60
  Q 397.37 192.89 391.80 201.02
  Q 384.52 211.67 375.31 219.81
  Q 361.87 231.70 345.47 240.15
  Q 341.32 242.28 327.13 248.06
  Q 314.26 253.30 301.90 259.62
  Q 296.61 262.32 284.46 269.42
  Q 268.41 278.81 251.87 287.30
  Q 245.70 290.47 236.69 296.69
  Q 208.93 315.83 188.82 340.07
  Q 176.58 354.82 171.81 369.56
  Q 165.53 388.98 163.69 393.44
  Q 156.69 410.31 154.81 416.56
  Q 151.43 427.81 152.25 438.50
  Q 153.12 449.79 153.58 458.16
  Q 154.20 469.70 153.02 477.79
  Q 151.59 487.56 148.31 498.31
  Q 143.46 514.21 137.56 526.45
  Q 137.54 526.50 133.60 533.81
  Q 129.71 541.04 127.60 548.96
  Q 126.40 553.48 126.52 558.66
  Q 126.64 564.06 127.25 568.50
  Q 128.99 581.25 132.88 606.27
  Q 134.01 613.57 135.78 620.74
  Q 138.71 632.58 151.25 631.75
  Q 167.94 630.65 185.78 637.66
  Q 202.93 644.40 219.61 652.23
  Q 231.51 657.81 239.19 664.56
  Q 249.82 673.91 254.93 688.77
  Q 261.94 709.18 274.42 726.68
  Q 279.06 733.18 279.12 733.27
  Q 297.94 760.59 314.36 789.41
  Q 315.40 791.23 320.44 799.06
  Q 326.06 807.80 333.17 813.83
  Z
  M 774.98 279.36
  Q 776.83 280.36 778.68 278.43
  Q 780.43 276.60 779.98 274.50
  Q 779.86 273.94 778.42 271.04
  Q 775.65 265.46 772.26 260.23
  Q 772.18 260.11 770.02 256.56
  Q 767.21 251.93 763.19 249.56
  Q 760.87 248.20 759.41 249.65
  Q 758.46 250.59 758.50 252.64
  Q 758.59 256.91 759.45 261.09
  Q 759.97 263.63 761.70 265.79
  Q 766.62 271.92 772.44 277.20
  Q 774.60 279.16 774.98 279.36
  Z
  M 247.63 255.76
  Q 246.70 255.63 245.75 255.69
  Q 219.69 257.15 194.31 251.19
  Q 191.16 250.45 189.56 250.52
  A 1.07 0.94 -71.9 0 0 188.78 250.98
  Q 184.43 257.43 180.94 266.44
  Q 176.29 278.43 174.44 284.44
  Q 173.12 288.72 172.83 292.16
  Q 172.63 294.58 173.73 296.10
  Q 175.20 298.10 177.69 298.14
  Q 179.74 298.17 182.86 296.28
  Q 188.18 293.03 195.31 287.56
  Q 217.36 270.65 245.28 262.19
  Q 249.45 260.93 251.62 260.04
  Q 254.80 258.73 257.71 257.24
  Q 259.35 256.40 257.51 256.25
  Q 253.51 255.92 249.51 255.93
  Q 248.86 255.93 247.63 255.76
  Z
  M 864.48 398.26
  Q 870.59 403.46 873.37 398.45
  Q 874.68 396.08 874.12 392.35
  Q 873.21 386.35 870.93 380.71
  Q 869.32 376.74 869.28 376.63
  Q 859.59 351.31 846.63 327.92
  Q 845.48 325.83 843.11 326.16
  Q 839.23 326.72 837.99 329.79
  Q 836.25 334.13 836.91 338.76
  Q 839.54 357.28 847.53 373.97
  Q 851.71 382.70 854.55 387.04
  Q 858.65 393.32 864.48 398.26
  Z
  M 860.74 691.87
  Q 863.16 692.30 865.08 690.34
  Q 869.11 686.24 870.67 680.73
  Q 871.70 677.09 868.71 675.69
  A 1.41 1.32 -38.8 0 0 867.76 675.62
  Q 864.73 676.46 862.88 679.11
  Q 859.54 683.88 859.50 690.37
  A 1.51 1.51 5.4 0 0 860.74 691.87
  Z
  M 265.93 772.83
  Q 269.76 775.24 273.98 776.78
  Q 278.12 778.28 279.99 778.75
  Q 283.26 779.55 286.41 779.09
  Q 289.63 778.61 287.95 775.83
  Q 282.51 766.82 274.11 759.55
  A 0.70 0.70 49.8 0 0 273.28 759.48
  Q 268.41 762.47 264.96 766.97
  Q 262.25 770.51 265.93 772.83
  Z"
/>
<path fill="#36313c" d="
  M 592.31 125.41
  Q 593.65 123.52 596.75 123.55
  Q 607.89 123.66 619.56 122.70
  A 2.53 2.51 -23.5 0 1 621.62 123.50
  Q 624.54 126.63 626.61 130.47
  Q 638.94 153.37 653.16 175.14
  A 1.00 0.89 41.4 0 1 653.27 176.02
  Q 652.09 178.93 648.94 178.31
  Q 644.37 177.41 639.22 173.56
  Q 632.38 168.45 626.07 162.68
  Q 608.78 146.85 592.60 129.59
  Q 590.75 127.62 592.31 125.41
  Z"
/>
<ellipse fill="#1d181d" cx="0.00" cy="0.00" transform="translate(240.69,163.63) rotate(98.5)" rx="26.77" ry="26.40"/>
<path fill="#36313c" d="
  M 333.17 813.83
  Q 326.06 807.80 320.44 799.06
  Q 315.40 791.23 314.36 789.41
  Q 297.94 760.59 279.12 733.27
  Q 279.06 733.18 274.42 726.68
  Q 261.94 709.18 254.93 688.77
  Q 249.82 673.91 239.19 664.56
  Q 231.51 657.81 219.61 652.23
  Q 202.93 644.40 185.78 637.66
  Q 167.94 630.65 151.25 631.75
  Q 138.71 632.58 135.78 620.74
  Q 134.01 613.57 132.88 606.27
  Q 128.99 581.25 127.25 568.50
  Q 126.64 564.06 126.52 558.66
  Q 126.40 553.48 127.60 548.96
  Q 129.71 541.04 133.60 533.81
  Q 137.54 526.50 137.56 526.45
  Q 143.46 514.21 148.31 498.31
  Q 151.59 487.56 153.02 477.79
  Q 154.20 469.70 153.58 458.16
  Q 153.12 449.79 152.25 438.50
  Q 151.43 427.81 154.81 416.56
  Q 156.69 410.31 163.69 393.44
  Q 165.53 388.98 171.81 369.56
  Q 176.58 354.82 188.82 340.07
  Q 208.93 315.83 236.69 296.69
  Q 245.70 290.47 251.87 287.30
  Q 268.41 278.81 284.46 269.42
  Q 296.61 262.32 301.90 259.62
  Q 314.26 253.30 327.13 248.06
  Q 341.32 242.28 345.47 240.15
  Q 361.87 231.70 375.31 219.81
  Q 384.52 211.67 391.80 201.02
  Q 397.37 192.89 399.48 190.60
  Q 403.89 185.80 409.16 181.90
  Q 414.53 177.91 414.63 177.84
  Q 417.85 175.32 421.06 172.81
  Q 425.08 169.67 426.89 166.68
  Q 431.12 159.65 439.75 158.25
  Q 448.58 156.82 452.75 156.50
  Q 463.60 155.67 474.27 153.66
  Q 474.32 153.66 485.67 151.12
  Q 504.84 146.85 522.75 148.00
  Q 535.07 148.79 553.25 152.26
  Q 571.53 155.76 588.43 163.24
  Q 596.06 166.62 606.14 172.47
  Q 632.27 187.65 655.84 206.65
  Q 669.69 217.81 683.68 228.78
  Q 693.10 236.16 699.67 240.79
  Q 714.25 251.06 729.69 260.06
  Q 744.63 268.77 758.75 278.74
  Q 777.78 292.17 788.81 312.69
  Q 790.08 315.05 793.33 321.56
  Q 793.37 321.64 797.37 330.14
  Q 803.92 344.05 813.94 355.81
  Q 817.82 360.37 827.75 373.75
  Q 833.21 381.11 839.38 394.09
  Q 843.31 402.37 846.97 410.77
  Q 852.52 423.48 854.23 427.58
  Q 866.57 457.02 872.32 488.53
  Q 876.44 511.09 875.75 531.50
  Q 875.33 543.94 870.43 556.01
  Q 865.67 567.76 865.65 567.81
  Q 859.40 587.30 862.71 607.75
  Q 863.22 610.90 862.82 613.76
  Q 861.00 626.48 859.53 639.24
  Q 857.89 653.47 856.66 659.02
  Q 853.92 671.37 848.94 681.44
  Q 840.46 698.59 835.31 711.81
  Q 831.59 721.37 825.68 728.90
  Q 823.24 732.01 818.68 735.42
  Q 804.59 745.97 787.69 761.19
  Q 764.37 782.19 750.56 807.06
  Q 746.42 814.53 740.49 819.14
  Q 739.65 819.80 727.54 826.86
  Q 717.24 832.86 714.56 834.56
  Q 711.14 836.73 707.75 835.50
  Q 704.31 834.25 697.97 833.62
  Q 692.22 833.05 688.05 833.58
  Q 680.91 834.48 674.81 837.81
  Q 669.68 840.62 659.86 846.90
  Q 653.28 851.11 645.93 853.31
  Q 639.50 855.24 630.98 856.18
  Q 621.67 857.21 612.27 856.09
  Q 605.84 855.32 600.08 852.40
  Q 594.60 849.62 589.11 846.85
  Q 573.91 839.18 557.50 838.50
  Q 550.00 838.19 541.73 840.16
  Q 532.32 842.39 523.29 845.84
  Q 511.75 850.25 500.21 854.65
  Q 486.96 859.71 472.75 860.00
  Q 456.85 860.32 440.44 857.06
  Q 433.74 855.73 427.70 853.61
  Q 423.84 852.26 415.78 848.03
  Q 407.25 843.56 399.94 840.81
  Q 391.74 837.73 375.97 833.10
  Q 363.46 829.43 351.32 824.68
  Q 341.33 820.76 333.17 813.83
  Z
  M 441.55 215.37
  A 3.55 3.55 0.0 0 0 438.00 211.82
  A 3.55 3.55 0.0 0 0 434.45 215.37
  A 3.55 3.55 0.0 0 0 438.00 218.92
  A 3.55 3.55 0.0 0 0 441.55 215.37
  Z
  M 256.33 625.92
  Q 260.16 629.94 267.44 634.81
  Q 278.38 642.14 282.75 655.12
  Q 284.00 658.83 283.87 662.02
  Q 283.75 665.32 282.75 669.00
  Q 281.42 673.91 280.46 681.13
  Q 279.42 688.96 280.25 693.39
  Q 281.53 700.24 286.10 705.91
  Q 291.41 712.51 298.28 717.48
  Q 305.31 722.57 312.87 726.84
  Q 323.92 733.07 334.82 739.55
  Q 339.35 742.25 340.90 744.36
  Q 343.09 747.35 344.00 751.75
  Q 345.51 759.08 350.69 764.48
  Q 354.64 768.61 362.31 772.11
  Q 371.09 776.11 380.55 777.96
  Q 383.70 778.57 399.46 780.49
  Q 411.10 781.90 420.75 782.50
  Q 429.37 783.04 436.38 784.27
  Q 439.11 784.76 441.60 786.35
  Q 451.44 792.61 461.14 799.07
  Q 468.81 804.17 476.31 807.44
  Q 492.82 814.63 510.96 811.53
  Q 517.81 810.36 534.19 805.69
  Q 561.40 797.92 591.75 800.50
  Q 601.11 801.30 621.67 806.14
  Q 625.12 806.95 626.85 806.35
  Q 629.22 805.54 631.31 803.06
  Q 638.98 794.00 652.07 789.34
  Q 664.33 784.99 676.81 781.31
  Q 692.69 776.64 708.44 766.19
  Q 725.24 755.04 731.81 735.86
  Q 732.00 735.29 735.71 720.00
  Q 737.91 710.92 741.06 703.06
  Q 744.63 694.18 752.46 689.41
  Q 755.22 687.74 763.88 684.95
  Q 770.66 682.77 775.44 680.69
  Q 785.85 676.15 792.45 665.97
  Q 797.92 657.55 800.50 649.75
  Q 810.49 619.54 805.85 586.99
  Q 803.40 569.76 801.30 552.49
  Q 798.94 533.06 799.75 513.50
  Q 800.07 505.67 803.13 495.19
  Q 804.92 489.01 805.37 486.60
  Q 806.17 482.21 806.46 477.75
  Q 807.14 467.01 807.36 456.25
  Q 807.46 451.23 806.69 449.31
  Q 798.75 429.72 786.71 412.34
  Q 783.07 407.08 779.44 404.56
  Q 773.55 400.48 770.69 396.31
  Q 767.22 391.24 764.79 385.65
  Q 764.77 385.61 762.09 378.14
  Q 758.16 367.21 750.19 358.56
  Q 730.53 337.26 705.20 323.15
  Q 699.82 320.15 696.53 314.96
  Q 690.36 305.21 684.26 295.42
  Q 677.75 284.98 670.19 277.56
  Q 655.25 262.92 635.80 251.91
  Q 614.44 239.83 590.61 234.95
  Q 581.64 233.11 570.80 232.28
  Q 556.06 231.16 542.50 232.00
  Q 515.79 233.66 486.29 238.68
  Q 482.83 239.27 479.70 238.76
  Q 474.76 237.97 466.00 236.25
  Q 450.67 233.24 433.00 234.29
  Q 419.91 235.07 410.00 239.00
  Q 392.12 246.08 377.31 261.06
  Q 360.09 278.49 349.91 297.27
  Q 347.59 301.56 346.92 304.64
  Q 346.11 308.37 346.29 312.67
  A 2.33 2.33 -11.6 0 1 344.80 314.93
  Q 334.04 319.08 322.87 324.04
  Q 312.24 328.77 302.77 335.53
  Q 294.92 341.14 292.67 350.12
  Q 290.88 357.23 290.87 357.26
  Q 287.61 365.09 279.00 368.00
  Q 275.70 369.11 269.68 370.11
  A 0.49 0.49 -9.4 0 0 269.27 370.67
  Q 273.65 398.12 260.12 422.20
  Q 256.78 428.14 251.64 432.63
  Q 243.36 439.85 235.08 447.07
  Q 226.39 454.65 220.81 463.31
  Q 212.98 475.48 215.00 490.50
  Q 216.40 500.90 220.84 511.64
  Q 223.07 517.05 223.83 519.08
  Q 225.24 522.83 226.72 526.55
  Q 229.61 533.86 229.49 541.75
  Q 228.94 576.77 243.97 607.93
  Q 246.66 613.49 249.39 617.42
  Q 252.52 621.92 256.33 625.92
  Z
  M 233.42 380.77
  A 13.86 13.86 0.0 0 0 219.56 366.91
  A 13.86 13.86 0.0 0 0 205.70 380.77
  A 13.86 13.86 0.0 0 0 219.56 394.63
  A 13.86 13.86 0.0 0 0 233.42 380.77
  Z
  M 831.70 500.99
  A 3.47 3.47 0.0 0 0 828.23 497.52
  A 3.47 3.47 0.0 0 0 824.76 500.99
  A 3.47 3.47 0.0 0 0 828.23 504.46
  A 3.47 3.47 0.0 0 0 831.70 500.99
  Z
  M 783.67 722.88
  A 13.66 13.66 0.0 0 0 770.01 709.22
  A 13.66 13.66 0.0 0 0 756.35 722.88
  A 13.66 13.66 0.0 0 0 770.01 736.54
  A 13.66 13.66 0.0 0 0 783.67 722.88
  Z
  M 435.54 799.68
  A 3.34 3.34 0.0 0 0 432.20 796.34
  A 3.34 3.34 0.0 0 0 428.86 799.68
  A 3.34 3.34 0.0 0 0 432.20 803.02
  A 3.34 3.34 0.0 0 0 435.54 799.68
  Z"
/>
<circle fill="#49424f" cx="438.00" cy="215.37" r="3.55"/>
<circle fill="#171418" cx="811.25" cy="235.55" r="8.24"/>
<path fill="#49424f" d="
  M 256.33 625.92
  Q 252.52 621.92 249.39 617.42
  Q 246.66 613.49 243.97 607.93
  Q 228.94 576.77 229.49 541.75
  Q 229.61 533.86 226.72 526.55
  Q 225.24 522.83 223.83 519.08
  Q 223.07 517.05 220.84 511.64
  Q 216.40 500.90 215.00 490.50
  Q 212.98 475.48 220.81 463.31
  Q 226.39 454.65 235.08 447.07
  Q 243.36 439.85 251.64 432.63
  Q 256.78 428.14 260.12 422.20
  Q 273.65 398.12 269.27 370.67
  A 0.49 0.49 -9.4 0 1 269.68 370.11
  Q 275.70 369.11 279.00 368.00
  Q 287.61 365.09 290.87 357.26
  Q 290.88 357.23 292.67 350.12
  Q 294.92 341.14 302.77 335.53
  Q 312.24 328.77 322.87 324.04
  Q 334.04 319.08 344.80 314.93
  A 2.33 2.33 -11.6 0 0 346.29 312.67
  Q 346.11 308.37 346.92 304.64
  Q 347.59 301.56 349.91 297.27
  Q 360.09 278.49 377.31 261.06
  Q 392.12 246.08 410.00 239.00
  Q 419.91 235.07 433.00 234.29
  Q 450.67 233.24 466.00 236.25
  Q 474.76 237.97 479.70 238.76
  Q 482.83 239.27 486.29 238.68
  Q 515.79 233.66 542.50 232.00
  Q 556.06 231.16 570.80 232.28
  Q 581.64 233.11 590.61 234.95
  Q 614.44 239.83 635.80 251.91
  Q 655.25 262.92 670.19 277.56
  Q 677.75 284.98 684.26 295.42
  Q 690.36 305.21 696.53 314.96
  Q 699.82 320.15 705.20 323.15
  Q 730.53 337.26 750.19 358.56
  Q 758.16 367.21 762.09 378.14
  Q 764.77 385.61 764.79 385.65
  Q 767.22 391.24 770.69 396.31
  Q 773.55 400.48 779.44 404.56
  Q 783.07 407.08 786.71 412.34
  Q 798.75 429.72 806.69 449.31
  Q 807.46 451.23 807.36 456.25
  Q 807.14 467.01 806.46 477.75
  Q 806.17 482.21 805.37 486.60
  Q 804.92 489.01 803.13 495.19
  Q 800.07 505.67 799.75 513.50
  Q 798.94 533.06 801.30 552.49
  Q 803.40 569.76 805.85 586.99
  Q 810.49 619.54 800.50 649.75
  Q 797.92 657.55 792.45 665.97
  Q 785.85 676.15 775.44 680.69
  Q 770.66 682.77 763.88 684.95
  Q 755.22 687.74 752.46 689.41
  Q 744.63 694.18 741.06 703.06
  Q 737.91 710.92 735.71 720.00
  Q 732.00 735.29 731.81 735.86
  Q 725.24 755.04 708.44 766.19
  Q 692.69 776.64 676.81 781.31
  Q 664.33 784.99 652.07 789.34
  Q 638.98 794.00 631.31 803.06
  Q 629.22 805.54 626.85 806.35
  Q 625.12 806.95 621.67 806.14
  Q 601.11 801.30 591.75 800.50
  Q 561.40 797.92 534.19 805.69
  Q 517.81 810.36 510.96 811.53
  Q 492.82 814.63 476.31 807.44
  Q 468.81 804.17 461.14 799.07
  Q 451.44 792.61 441.60 786.35
  Q 439.11 784.76 436.38 784.27
  Q 429.37 783.04 420.75 782.50
  Q 411.10 781.90 399.46 780.49
  Q 383.70 778.57 380.55 777.96
  Q 371.09 776.11 362.31 772.11
  Q 354.64 768.61 350.69 764.48
  Q 345.51 759.08 344.00 751.75
  Q 343.09 747.35 340.90 744.36
  Q 339.35 742.25 334.82 739.55
  Q 323.92 733.07 312.87 726.84
  Q 305.31 722.57 298.28 717.48
  Q 291.41 712.51 286.10 705.91
  Q 281.53 700.24 280.25 693.39
  Q 279.42 688.96 280.46 681.13
  Q 281.42 673.91 282.75 669.00
  Q 283.75 665.32 283.87 662.02
  Q 284.00 658.83 282.75 655.12
  Q 278.38 642.14 267.44 634.81
  Q 260.16 629.94 256.33 625.92
  Z
  M 305.96 414.75
  Q 306.37 415.17 306.96 415.00
  Q 288.19 446.25 281.25 481.25
  Q 270.55 535.24 286.25 588.46
  Q 285.27 588.44 285.50 589.50
  Q 287.28 597.76 289.96 604.50
  Q 302.02 642.00 326.00 673.21
  Q 324.70 673.16 323.87 672.22
  Q 323.56 671.87 323.63 672.30
  Q 324.14 675.54 325.97 678.29
  Q 352.61 718.41 393.60 742.78
  Q 401.89 747.70 411.29 752.09
  Q 458.57 774.16 513.25 776.75
  Q 568.35 779.36 618.34 763.29
  Q 627.96 760.20 637.08 756.32
  Q 714.94 723.18 755.67 647.92
  Q 766.95 627.07 773.50 605.25
  Q 793.63 538.18 778.75 469.25
  Q 763.42 398.21 710.19 347.81
  Q 700.03 338.20 682.00 325.04
  L 677.75 322.21
  Q 648.40 303.32 615.81 292.94
  Q 577.29 280.67 536.48 277.78
  Q 523.12 276.84 518.02 276.73
  Q 509.22 276.56 499.50 277.50
  Q 471.49 280.21 446.70 287.23
  Q 408.43 298.06 375.94 320.94
  Q 363.86 329.44 348.70 343.63
  Q 345.15 346.96 341.65 351.64
  Q 337.50 357.21 333.06 362.56
  Q 328.70 367.81 318.22 384.91
  Q 318.19 384.97 315.83 388.67
  Q 312.20 394.36 309.56 401.31
  Q 306.80 408.61 302.25 416.57
  A 1.34 1.27 55.2 0 0 302.11 417.48
  L 302.60 419.94
  Q 302.69 420.40 302.93 420.00
  L 305.96 414.75
  Z"
/>
<path fill="#36313c" d="
  M 772.44 277.20
  Q 766.62 271.92 761.70 265.79
  Q 759.97 263.63 759.45 261.09
  Q 758.59 256.91 758.50 252.64
  Q 758.46 250.59 759.41 249.65
  Q 760.87 248.20 763.19 249.56
  Q 767.21 251.93 770.02 256.56
  Q 772.18 260.11 772.26 260.23
  Q 775.65 265.46 778.42 271.04
  Q 779.86 273.94 779.98 274.50
  Q 780.43 276.60 778.68 278.43
  Q 776.83 280.36 774.98 279.36
  Q 774.60 279.16 772.44 277.20
  Z"
/>
<path fill="#38323d" d="
  M 249.51 255.93
  Q 253.51 255.92 257.51 256.25
  Q 259.35 256.40 257.71 257.24
  Q 254.80 258.73 251.62 260.04
  Q 249.45 260.93 245.28 262.19
  Q 217.36 270.65 195.31 287.56
  Q 188.18 293.03 182.86 296.28
  Q 179.74 298.17 177.69 298.14
  Q 175.20 298.10 173.73 296.10
  Q 172.63 294.58 172.83 292.16
  Q 173.12 288.72 174.44 284.44
  Q 176.29 278.43 180.94 266.44
  Q 184.43 257.43 188.78 250.98
  A 1.07 0.94 -71.9 0 1 189.56 250.52
  Q 191.16 250.45 194.31 251.19
  Q 219.69 257.15 245.75 255.69
  Q 246.70 255.63 247.63 255.76
  Q 248.86 255.93 249.51 255.93
  Z"
/>
<path fill="#7e5b5a" d="
  M 677.75 322.21
  Q 672.84 321.96 670.44 325.99
  A 0.75 0.66 -67.8 0 1 669.71 326.35
  Q 667.49 325.90 665.61 324.75
  Q 662.42 322.80 661.47 322.38
  Q 658.03 320.86 654.77 318.97
  Q 646.91 314.43 638.54 310.90
  Q 629.02 306.87 619.60 302.60
  Q 611.01 298.71 601.79 296.67
  Q 601.34 296.57 601.80 296.50
  Q 604.14 296.15 600.85 295.49
  Q 595.22 294.37 589.61 293.08
  Q 589.26 293.00 589.57 293.19
  Q 591.18 294.19 589.52 293.69
  Q 579.49 290.71 569.15 289.43
  Q 560.02 288.30 554.94 287.42
  Q 535.47 284.03 515.69 283.82
  Q 512.53 283.79 508.56 284.73
  Q 501.76 286.35 494.75 286.65
  Q 493.96 286.68 492.70 287.06
  Q 491.67 287.37 490.59 287.37
  Q 487.97 287.37 487.90 287.37
  Q 481.44 287.96 475.00 288.63
  Q 467.88 289.36 462.24 290.74
  Q 452.97 293.01 443.96 296.20
  Q 442.46 296.73 439.42 297.27
  Q 437.07 297.68 434.89 298.65
  Q 433.43 299.31 432.10 299.56
  Q 430.63 299.82 429.19 300.20
  Q 427.73 300.58 425.21 302.05
  Q 423.33 303.15 420.69 304.19
  Q 417.43 305.46 403.24 312.60
  Q 403.18 312.62 401.30 313.32
  Q 400.08 313.76 399.28 314.83
  Q 398.95 315.27 398.55 315.48
  Q 396.66 316.45 394.79 317.44
  Q 394.12 317.80 390.97 319.21
  Q 388.61 320.28 386.55 321.85
  Q 383.95 323.84 382.56 324.62
  Q 380.42 325.82 378.31 327.06
  Q 377.77 327.38 375.56 328.81
  Q 373.17 330.36 370.53 331.39
  A 0.93 0.85 86.5 0 0 369.99 332.06
  Q 369.70 333.55 368.31 334.56
  Q 367.19 335.39 366.27 336.73
  Q 365.35 338.06 364.28 338.84
  Q 360.88 341.29 358.35 344.61
  Q 357.91 345.19 355.85 347.08
  Q 354.32 348.48 354.00 350.69
  Q 353.92 351.22 353.64 351.60
  Q 351.12 355.03 347.93 357.90
  Q 347.88 357.95 346.47 358.96
  Q 344.95 360.07 343.67 362.57
  Q 343.38 363.14 342.91 363.59
  Q 336.47 369.69 343.75 364.29
  L 341.00 367.29
  Q 338.84 368.22 336.94 370.94
  Q 335.75 372.64 332.27 375.95
  Q 330.85 377.30 329.84 379.05
  Q 328.84 380.78 327.75 382.46
  Q 315.42 397.63 305.96 414.75
  L 302.93 420.00
  Q 302.69 420.40 302.60 419.94
  L 302.11 417.48
  A 1.34 1.27 55.2 0 1 302.25 416.57
  Q 306.80 408.61 309.56 401.31
  Q 312.20 394.36 315.83 388.67
  Q 318.19 384.97 318.22 384.91
  Q 328.70 367.81 333.06 362.56
  Q 337.50 357.21 341.65 351.64
  Q 345.15 346.96 348.70 343.63
  Q 363.86 329.44 375.94 320.94
  Q 408.43 298.06 446.70 287.23
  Q 471.49 280.21 499.50 277.50
  Q 509.22 276.56 518.02 276.73
  Q 523.12 276.84 536.48 277.78
  Q 577.29 280.67 615.81 292.94
  Q 648.40 303.32 677.75 322.21
  Z"
/>
<path fill="#8b625b" d="
  M 677.75 322.21
  L 682.00 325.04
  Q 683.33 329.05 680.37 333.25
  A 1.09 1.09 38.7 0 0 680.53 334.69
  Q 686.18 339.71 692.02 344.02
  Q 692.19 344.15 695.09 345.64
  Q 696.42 346.32 698.00 347.75
  Q 706.51 355.41 714.50 363.62
  A 0.24 0.21 -42.3 0 1 714.46 363.95
  Q 714.32 364.05 714.30 364.20
  Q 714.26 364.38 714.48 364.61
  Q 719.73 370.17 724.44 376.19
  Q 724.41 375.16 725.62 376.66
  Q 726.12 377.28 726.75 377.77
  Q 728.43 379.09 729.29 380.56
  Q 731.13 383.68 731.14 383.70
  Q 739.49 394.37 743.69 401.81
  Q 746.05 406.00 748.48 410.16
  Q 751.47 415.25 753.11 418.61
  Q 758.51 429.64 762.42 441.27
  Q 765.70 451.02 768.01 460.18
  Q 770.21 468.90 772.00 479.50
  Q 772.28 481.14 772.17 482.07
  A 0.78 0.73 21.7 0 0 772.51 482.79
  Q 773.13 483.21 773.12 484.01
  Q 773.10 485.41 773.12 485.50
  Q 773.34 486.85 773.66 488.18
  Q 774.01 489.65 774.11 490.86
  Q 775.15 503.99 776.34 517.10
  Q 776.69 520.85 776.47 525.91
  Q 776.32 529.46 776.25 534.75
  Q 776.18 540.34 774.97 554.85
  Q 774.80 556.90 773.91 560.02
  Q 773.18 562.59 772.91 565.24
  Q 772.42 570.00 771.88 572.15
  Q 769.41 581.90 768.69 586.69
  Q 767.71 593.15 766.19 596.94
  Q 765.63 598.34 765.47 599.42
  Q 765.21 601.22 764.95 601.86
  Q 763.96 604.28 763.05 606.74
  Q 762.73 607.60 761.64 609.60
  Q 760.86 611.05 760.51 612.65
  Q 759.71 616.42 759.39 617.21
  Q 755.62 626.84 751.08 636.13
  Q 750.93 636.43 749.01 639.57
  Q 748.11 641.02 747.19 643.19
  Q 745.50 647.13 740.14 654.51
  Q 739.35 655.59 737.91 658.36
  Q 736.86 660.39 735.29 662.04
  Q 732.70 664.76 731.86 666.05
  Q 726.09 674.81 719.80 683.22
  Q 719.74 683.30 716.35 688.33
  Q 714.49 691.07 712.07 693.34
  Q 709.94 695.33 708.41 697.13
  Q 706.68 699.15 704.72 700.92
  Q 699.21 705.90 699.14 705.96
  Q 694.48 710.34 687.00 716.00
  Q 678.14 722.71 673.18 725.93
  Q 673.13 725.97 669.09 728.26
  Q 667.22 729.32 664.94 730.94
  Q 658.53 735.49 649.68 740.22
  Q 649.13 740.52 647.57 741.60
  Q 646.51 742.34 645.30 742.78
  Q 641.89 744.01 641.82 744.05
  Q 631.31 748.96 613.81 755.56
  Q 608.56 757.55 604.74 758.62
  Q 597.24 760.74 596.97 760.82
  Q 591.46 762.43 585.73 763.08
  Q 582.30 763.47 571.00 765.50
  Q 551.07 769.08 526.65 769.25
  Q 526.60 769.25 517.85 769.46
  Q 509.65 769.66 501.51 768.42
  Q 498.52 767.97 494.68 768.01
  Q 493.93 768.02 494.63 768.29
  Q 497.39 769.37 494.32 768.65
  Q 479.48 765.17 464.34 763.40
  Q 464.28 763.40 461.65 763.24
  Q 459.91 763.14 458.30 762.56
  Q 454.26 761.10 453.92 761.02
  Q 430.17 755.16 408.98 742.96
  Q 408.94 742.94 405.78 741.41
  Q 404.40 740.74 402.69 739.56
  Q 397.61 736.07 389.27 731.91
  Q 388.85 731.70 388.56 731.27
  Q 387.46 729.61 385.54 729.06
  A 0.99 0.97 87.9 0 1 384.91 728.46
  Q 384.18 726.50 382.25 725.75
  Q 380.83 725.20 380.16 724.01
  Q 379.95 723.65 379.49 723.33
  L 376.18 721.02
  Q 375.59 720.61 376.19 720.38
  Q 376.53 720.26 376.94 720.56
  Q 380.89 723.45 385.30 725.54
  Q 385.63 725.69 385.98 726.20
  Q 386.49 726.92 387.25 725.96
  Q 426.43 748.52 469.00 755.75
  Q 538.79 767.60 606.30 742.79
  Q 631.17 733.65 654.31 718.81
  Q 682.74 700.58 703.75 675.04
  Q 749.63 621.22 758.46 550.75
  Q 760.76 535.71 760.21 520.50
  Q 759.90 476.10 743.25 435.50
  Q 735.69 417.06 724.00 399.96
  Q 698.79 361.64 662.94 337.31
  Q 607.17 299.48 537.75 294.74
  Q 510.27 292.87 480.75 297.00
  Q 400.53 308.23 343.75 364.29
  Q 336.47 369.69 342.91 363.59
  Q 343.38 363.14 343.67 362.57
  Q 344.95 360.07 346.47 358.96
  Q 347.88 357.95 347.93 357.90
  Q 351.12 355.03 353.64 351.60
  Q 353.92 351.22 354.00 350.69
  Q 354.32 348.48 355.85 347.08
  Q 357.91 345.19 358.35 344.61
  Q 360.88 341.29 364.28 338.84
  Q 365.35 338.06 366.27 336.73
  Q 367.19 335.39 368.31 334.56
  Q 369.70 333.55 369.99 332.06
  A 0.93 0.85 86.5 0 1 370.53 331.39
  Q 373.17 330.36 375.56 328.81
  Q 377.77 327.38 378.31 327.06
  Q 380.42 325.82 382.56 324.62
  Q 383.95 323.84 386.55 321.85
  Q 388.61 320.28 390.97 319.21
  Q 394.12 317.80 394.79 317.44
  Q 396.66 316.45 398.55 315.48
  Q 398.95 315.27 399.28 314.83
  Q 400.08 313.76 401.30 313.32
  Q 403.18 312.62 403.24 312.60
  Q 417.43 305.46 420.69 304.19
  Q 423.33 303.15 425.21 302.05
  Q 427.73 300.58 429.19 300.20
  Q 430.63 299.82 432.10 299.56
  Q 433.43 299.31 434.89 298.65
  Q 437.07 297.68 439.42 297.27
  Q 442.46 296.73 443.96 296.20
  Q 452.97 293.01 462.24 290.74
  Q 467.88 289.36 475.00 288.63
  Q 481.44 287.96 487.90 287.37
  Q 487.97 287.37 490.59 287.37
  Q 491.67 287.37 492.70 287.06
  Q 493.96 286.68 494.75 286.65
  Q 501.76 286.35 508.56 284.73
  Q 512.53 283.79 515.69 283.82
  Q 535.47 284.03 554.94 287.42
  Q 560.02 288.30 569.15 289.43
  Q 579.49 290.71 589.52 293.69
  Q 591.18 294.19 589.57 293.19
  Q 589.26 293.00 589.61 293.08
  Q 595.22 294.37 600.85 295.49
  Q 604.14 296.15 601.80 296.50
  Q 601.34 296.57 601.79 296.67
  Q 611.01 298.71 619.60 302.60
  Q 629.02 306.87 638.54 310.90
  Q 646.91 314.43 654.77 318.97
  Q 658.03 320.86 661.47 322.38
  Q 662.42 322.80 665.61 324.75
  Q 667.49 325.90 669.71 326.35
  A 0.75 0.66 -67.8 0 0 670.44 325.99
  Q 672.84 321.96 677.75 322.21
  Z"
/>
<path fill="#fdb757" d="
  M 724.00 399.96
  L 721.42 400.78
  A 1.75 1.33 -73.6 0 0 720.65 401.35
  Q 719.55 402.74 718.50 401.82
  Q 717.46 400.91 717.37 400.85
  Q 699.72 389.72 681.09 380.33
  Q 681.02 380.29 678.64 378.88
  Q 676.62 377.68 674.25 377.52
  A 1.05 1.00 73.2 0 1 673.48 377.08
  Q 672.82 376.18 671.82 375.67
  Q 662.03 370.76 651.50 367.75
  Q 648.60 366.92 646.30 367.44
  Q 645.80 367.55 645.33 367.42
  Q 642.53 366.64 639.96 367.78
  A 0.85 0.73 50.5 0 1 639.15 367.64
  Q 638.48 367.10 637.71 367.50
  Q 588.18 324.33 523.67 314.76
  Q 513.84 313.31 503.78 312.86
  Q 427.69 309.45 365.25 353.46
  Q 329.96 378.41 306.96 415.00
  Q 306.37 415.17 305.96 414.75
  Q 315.42 397.63 327.75 382.46
  L 341.00 367.29
  L 343.75 364.29
  Q 400.53 308.23 480.75 297.00
  Q 510.27 292.87 537.75 294.74
  Q 607.17 299.48 662.94 337.31
  Q 698.79 361.64 724.00 399.96
  Z"
/>
<path fill="#37221f" d="
  M 637.71 367.50
  Q 660.25 387.91 677.00 413.29
  Q 700.98 451.11 707.46 495.50
  Q 706.48 495.63 705.94 496.69
  Q 702.97 502.53 698.46 509.25
  Q 696.68 510.86 696.89 509.49
  A 1.45 1.17 -61.0 0 0 696.73 508.58
  Q 694.77 505.37 694.53 501.57
  Q 694.27 497.31 693.17 493.22
  Q 692.93 492.32 692.89 490.22
  Q 692.86 488.53 691.92 487.22
  Q 690.22 484.85 690.10 484.44
  Q 689.53 482.56 689.75 480.25
  Q 689.97 478.01 689.07 475.71
  Q 688.01 473.01 687.70 471.45
  Q 687.01 467.93 685.59 464.66
  Q 683.24 459.30 682.80 458.18
  Q 681.03 453.75 678.51 449.67
  Q 678.26 449.26 678.23 448.75
  Q 678.02 445.48 676.12 442.84
  Q 675.89 442.52 675.76 441.95
  Q 675.56 441.08 674.70 441.32
  A 0.69 0.59 -23.2 0 1 673.97 441.09
  Q 672.93 439.45 672.78 437.50
  A 1.83 1.50 -71.5 0 0 672.44 436.61
  Q 670.43 434.03 668.82 431.19
  Q 667.74 429.28 665.90 427.42
  Q 663.52 425.03 662.19 422.31
  Q 661.03 419.97 660.06 418.64
  Q 659.82 418.33 659.64 417.76
  Q 659.27 416.61 658.07 416.63
  A 1.53 0.94 -16.7 0 1 657.16 416.39
  Q 655.43 415.08 654.14 413.34
  Q 654.00 413.15 653.86 412.71
  Q 653.62 411.97 652.95 412.68
  A 0.35 0.35 -0.0 0 1 652.46 412.69
  Q 649.88 410.22 647.39 408.17
  Q 646.31 407.28 644.51 404.98
  Q 643.26 403.37 641.31 401.94
  Q 639.80 400.83 638.27 398.94
  Q 636.81 397.15 635.31 395.98
  Q 630.98 392.61 627.01 388.37
  Q 626.47 387.79 626.60 388.57
  Q 626.75 389.44 625.52 388.76
  Q 623.90 387.86 622.80 385.90
  A 5.04 4.99 0.9 0 0 620.97 384.03
  Q 619.57 383.21 619.26 381.82
  A 1.60 0.68 87.1 0 0 618.84 380.96
  Q 617.97 380.24 616.72 380.59
  A 0.71 0.66 62.7 0 1 616.00 380.33
  L 612.60 375.86
  A 1.24 0.80 -10.4 0 0 611.75 375.51
  Q 609.50 375.43 608.25 373.25
  Q 607.76 372.40 606.50 372.27
  A 1.88 1.29 -14.7 0 1 605.61 371.95
  Q 600.61 368.06 595.00 365.19
  Q 593.12 364.23 590.84 362.27
  Q 588.50 360.27 585.64 359.01
  A 1.57 1.12 81.0 0 1 584.99 358.35
  Q 584.42 357.28 583.06 356.69
  Q 576.84 353.99 569.61 349.33
  A 1.98 1.35 -19.2 0 0 568.68 349.08
  Q 567.43 349.06 566.59 348.33
  Q 565.17 347.09 565.07 347.05
  Q 564.14 346.62 563.06 346.65
  Q 562.51 346.67 562.11 346.48
  Q 560.65 345.79 559.28 344.94
  Q 557.87 344.07 556.38 343.69
  Q 552.00 342.56 547.90 340.69
  Q 544.73 339.24 541.83 338.64
  Q 537.50 337.75 533.25 336.55
  Q 529.69 335.54 526.50 335.16
  Q 523.08 334.75 519.66 334.29
  Q 519.60 334.28 515.37 333.56
  Q 512.24 333.02 509.50 333.25
  Q 503.75 333.74 499.44 333.31
  Q 498.19 333.19 493.76 333.60
  Q 493.00 333.67 490.79 333.37
  Q 489.22 333.16 487.71 333.79
  Q 487.21 334.00 486.75 333.97
  Q 481.35 333.65 476.05 334.48
  Q 473.69 334.85 470.40 334.99
  Q 467.55 335.10 464.75 335.75
  Q 461.53 336.50 458.26 336.80
  Q 454.43 337.16 451.82 337.80
  Q 443.60 339.80 435.24 341.17
  A 1.65 1.14 -64.2 0 0 434.43 341.63
  Q 433.44 342.62 432.13 342.05
  Q 431.61 341.82 431.19 341.85
  Q 424.24 342.45 417.55 344.42
  A 0.89 0.73 -88.5 0 0 417.01 345.05
  Q 416.76 346.08 415.42 345.72
  Q 414.86 345.57 414.44 345.65
  Q 409.19 346.58 404.12 348.21
  Q 403.26 348.49 401.95 348.51
  Q 400.82 348.53 399.73 348.84
  Q 396.86 349.66 396.57 349.71
  Q 390.51 350.81 384.67 352.73
  Q 382.19 353.55 379.10 354.22
  Q 376.26 354.83 373.50 355.75
  Q 371.42 356.44 367.29 355.50
  L 365.25 353.46
  Q 427.69 309.45 503.78 312.86
  Q 513.84 313.31 523.67 314.76
  Q 588.18 324.33 637.71 367.50
  Z"
/>
<path fill="#7e5b5a" d="
  M 682.00 325.04
  Q 700.03 338.20 710.19 347.81
  Q 763.42 398.21 778.75 469.25
  Q 793.63 538.18 773.50 605.25
  Q 766.95 627.07 755.67 647.92
  Q 714.94 723.18 637.08 756.32
  Q 627.96 760.20 618.34 763.29
  Q 568.35 779.36 513.25 776.75
  Q 458.57 774.16 411.29 752.09
  Q 401.89 747.70 393.60 742.78
  Q 352.61 718.41 325.97 678.29
  Q 324.14 675.54 323.63 672.30
  Q 323.56 671.87 323.87 672.22
  Q 324.70 673.16 326.00 673.21
  Q 333.30 682.12 341.46 690.25
  Q 362.05 711.04 387.25 725.96
  Q 386.49 726.92 385.98 726.20
  Q 385.63 725.69 385.30 725.54
  Q 380.89 723.45 376.94 720.56
  Q 376.53 720.26 376.19 720.38
  Q 375.59 720.61 376.18 721.02
  L 379.49 723.33
  Q 379.95 723.65 380.16 724.01
  Q 380.83 725.20 382.25 725.75
  Q 384.18 726.50 384.91 728.46
  A 0.99 0.97 87.9 0 0 385.54 729.06
  Q 387.46 729.61 388.56 731.27
  Q 388.85 731.70 389.27 731.91
  Q 397.61 736.07 402.69 739.56
  Q 404.40 740.74 405.78 741.41
  Q 408.94 742.94 408.98 742.96
  Q 430.17 755.16 453.92 761.02
  Q 454.26 761.10 458.30 762.56
  Q 459.91 763.14 461.65 763.24
  Q 464.28 763.40 464.34 763.40
  Q 479.48 765.17 494.32 768.65
  Q 497.39 769.37 494.63 768.29
  Q 493.93 768.02 494.68 768.01
  Q 498.52 767.97 501.51 768.42
  Q 509.65 769.66 517.85 769.46
  Q 526.60 769.25 526.65 769.25
  Q 551.07 769.08 571.00 765.50
  Q 582.30 763.47 585.73 763.08
  Q 591.46 762.43 596.97 760.82
  Q 597.24 760.74 604.74 758.62
  Q 608.56 757.55 613.81 755.56
  Q 631.31 748.96 641.82 744.05
  Q 641.89 744.01 645.30 742.78
  Q 646.51 742.34 647.57 741.60
  Q 649.13 740.52 649.68 740.22
  Q 658.53 735.49 664.94 730.94
  Q 667.22 729.32 669.09 728.26
  Q 673.13 725.97 673.18 725.93
  Q 678.14 722.71 687.00 716.00
  Q 694.48 710.34 699.14 705.96
  Q 699.21 705.90 704.72 700.92
  Q 706.68 699.15 708.41 697.13
  Q 709.94 695.33 712.07 693.34
  Q 714.49 691.07 716.35 688.33
  Q 719.74 683.30 719.80 683.22
  Q 726.09 674.81 731.86 666.05
  Q 732.70 664.76 735.29 662.04
  Q 736.86 660.39 737.91 658.36
  Q 739.35 655.59 740.14 654.51
  Q 745.50 647.13 747.19 643.19
  Q 748.11 641.02 749.01 639.57
  Q 750.93 636.43 751.08 636.13
  Q 755.62 626.84 759.39 617.21
  Q 759.71 616.42 760.51 612.65
  Q 760.86 611.05 761.64 609.60
  Q 762.73 607.60 763.05 606.74
  Q 763.96 604.28 764.95 601.86
  Q 765.21 601.22 765.47 599.42
  Q 765.63 598.34 766.19 596.94
  Q 767.71 593.15 768.69 586.69
  Q 769.41 581.90 771.88 572.15
  Q 772.42 570.00 772.91 565.24
  Q 773.18 562.59 773.91 560.02
  Q 774.80 556.90 774.97 554.85
  Q 776.18 540.34 776.25 534.75
  Q 776.32 529.46 776.47 525.91
  Q 776.69 520.85 776.34 517.10
  Q 775.15 503.99 774.11 490.86
  Q 774.01 489.65 773.66 488.18
  Q 773.34 486.85 773.12 485.50
  Q 773.10 485.41 773.12 484.01
  Q 773.13 483.21 772.51 482.79
  A 0.78 0.73 21.7 0 1 772.17 482.07
  Q 772.28 481.14 772.00 479.50
  Q 770.21 468.90 768.01 460.18
  Q 765.70 451.02 762.42 441.27
  Q 758.51 429.64 753.11 418.61
  Q 751.47 415.25 748.48 410.16
  Q 746.05 406.00 743.69 401.81
  Q 739.49 394.37 731.14 383.70
  Q 731.13 383.68 729.29 380.56
  Q 728.43 379.09 726.75 377.77
  Q 726.12 377.28 725.62 376.66
  Q 724.41 375.16 724.44 376.19
  Q 719.73 370.17 714.48 364.61
  Q 714.26 364.38 714.30 364.20
  Q 714.32 364.05 714.46 363.95
  A 0.24 0.21 -42.3 0 0 714.50 363.62
  Q 706.51 355.41 698.00 347.75
  Q 696.42 346.32 695.09 345.64
  Q 692.19 344.15 692.02 344.02
  Q 686.18 339.71 680.53 334.69
  A 1.09 1.09 38.7 0 1 680.37 333.25
  Q 683.33 329.05 682.00 325.04
  Z"
/>
<path fill="#36313c" d="
  M 864.48 398.26
  Q 858.65 393.32 854.55 387.04
  Q 851.71 382.70 847.53 373.97
  Q 839.54 357.28 836.91 338.76
  Q 836.25 334.13 837.99 329.79
  Q 839.23 326.72 843.11 326.16
  Q 845.48 325.83 846.63 327.92
  Q 859.59 351.31 869.28 376.63
  Q 869.32 376.74 870.93 380.71
  Q 873.21 386.35 874.12 392.35
  Q 874.68 396.08 873.37 398.45
  Q 870.59 403.46 864.48 398.26
  Z"
/>
<path fill="#291d1e" d="
  M 698.46 509.25
  Q 687.99 526.05 674.25 540.29
  Q 673.37 540.61 672.75 541.29
  Q 672.45 541.63 672.44 541.18
  Q 672.43 538.96 671.81 537.19
  Q 671.03 534.93 671.12 532.74
  Q 671.23 530.32 671.23 530.25
  Q 670.86 512.53 667.90 495.09
  Q 667.23 491.14 665.65 485.93
  Q 664.28 481.40 663.08 476.82
  Q 662.23 473.58 660.49 470.13
  Q 658.86 466.89 657.53 463.52
  Q 655.56 458.48 653.61 454.93
  Q 650.49 449.21 647.74 443.29
  Q 646.60 440.84 642.81 436.19
  Q 637.43 429.58 631.85 423.13
  Q 631.78 423.06 629.90 420.66
  Q 628.13 418.40 625.06 415.94
  Q 623.13 414.39 621.00 411.52
  Q 619.90 410.03 617.94 408.59
  Q 615.86 407.05 614.33 404.89
  Q 612.49 402.30 610.56 401.19
  Q 608.57 400.04 607.32 398.53
  Q 605.21 395.99 604.57 395.53
  Q 602.80 394.26 600.77 393.38
  A 1.70 1.65 83.6 0 1 600.04 392.78
  Q 598.80 390.99 597.10 389.70
  Q 596.84 389.50 595.12 388.80
  Q 593.99 388.34 593.48 387.16
  A 1.40 1.12 85.9 0 0 592.86 386.49
  Q 587.30 383.94 582.06 378.44
  Q 580.78 377.09 578.53 376.14
  Q 576.33 375.21 574.97 374.08
  Q 571.40 371.12 569.44 370.31
  Q 567.52 369.53 566.43 368.46
  Q 564.29 366.38 564.25 366.35
  Q 558.55 362.31 554.44 360.56
  Q 546.63 357.24 538.81 353.94
  Q 535.66 352.61 533.31 352.25
  Q 532.83 352.18 532.40 351.90
  Q 530.78 350.83 528.98 350.82
  Q 525.55 350.80 525.40 350.78
  Q 521.86 350.16 518.44 349.08
  Q 515.99 348.31 513.42 348.34
  Q 508.70 348.40 504.02 347.65
  Q 502.65 347.43 502.32 347.77
  A 0.84 0.15 -48.9 0 1 501.75 348.23
  Q 494.94 348.03 488.15 348.57
  Q 487.84 348.60 485.54 348.31
  Q 484.13 348.14 482.81 349.07
  Q 481.71 349.85 480.62 349.32
  Q 480.08 349.06 479.69 349.07
  Q 466.14 349.39 452.96 352.59
  Q 452.57 352.69 452.94 352.85
  Q 454.64 353.61 452.56 353.50
  A 0.42 0.42 10.4 0 1 452.18 352.95
  Q 452.38 352.39 451.77 352.57
  Q 447.47 353.82 443.05 354.15
  Q 437.46 354.56 435.03 355.08
  Q 427.13 356.80 419.33 358.91
  A 0.57 0.41 -89.1 0 0 419.00 359.35
  Q 418.97 359.53 418.88 359.68
  A 1.01 0.54 13.5 0 1 418.00 359.91
  Q 415.61 359.59 413.70 361.00
  Q 413.28 361.32 412.81 361.38
  Q 406.98 362.16 404.50 363.25
  Q 402.42 364.16 398.00 364.75
  Q 395.66 365.06 391.46 366.64
  Q 389.65 367.32 386.88 367.58
  Q 384.35 367.83 382.25 368.75
  Q 375.33 371.78 368.50 372.04
  L 367.29 355.50
  Q 371.42 356.44 373.50 355.75
  Q 376.26 354.83 379.10 354.22
  Q 382.19 353.55 384.67 352.73
  Q 390.51 350.81 396.57 349.71
  Q 396.86 349.66 399.73 348.84
  Q 400.82 348.53 401.95 348.51
  Q 403.26 348.49 404.12 348.21
  Q 409.19 346.58 414.44 345.65
  Q 414.86 345.57 415.42 345.72
  Q 416.76 346.08 417.01 345.05
  A 0.89 0.73 -88.5 0 1 417.55 344.42
  Q 424.24 342.45 431.19 341.85
  Q 431.61 341.82 432.13 342.05
  Q 433.44 342.62 434.43 341.63
  A 1.65 1.14 -64.2 0 1 435.24 341.17
  Q 443.60 339.80 451.82 337.80
  Q 454.43 337.16 458.26 336.80
  Q 461.53 336.50 464.75 335.75
  Q 467.55 335.10 470.40 334.99
  Q 473.69 334.85 476.05 334.48
  Q 481.35 333.65 486.75 333.97
  Q 487.21 334.00 487.71 333.79
  Q 489.22 333.16 490.79 333.37
  Q 493.00 333.67 493.76 333.60
  Q 498.19 333.19 499.44 333.31
  Q 503.75 333.74 509.50 333.25
  Q 512.24 333.02 515.37 333.56
  Q 519.60 334.28 519.66 334.29
  Q 523.08 334.75 526.50 335.16
  Q 529.69 335.54 533.25 336.55
  Q 537.50 337.75 541.83 338.64
  Q 544.73 339.24 547.90 340.69
  Q 552.00 342.56 556.38 343.69
  Q 557.87 344.07 559.28 344.94
  Q 560.65 345.79 562.11 346.48
  Q 562.51 346.67 563.06 346.65
  Q 564.14 346.62 565.07 347.05
  Q 565.17 347.09 566.59 348.33
  Q 567.43 349.06 568.68 349.08
  A 1.98 1.35 -19.2 0 1 569.61 349.33
  Q 576.84 353.99 583.06 356.69
  Q 584.42 357.28 584.99 358.35
  A 1.57 1.12 81.0 0 0 585.64 359.01
  Q 588.50 360.27 590.84 362.27
  Q 593.12 364.23 595.00 365.19
  Q 600.61 368.06 605.61 371.95
  A 1.88 1.29 -14.7 0 0 606.50 372.27
  Q 607.76 372.40 608.25 373.25
  Q 609.50 375.43 611.75 375.51
  A 1.24 0.80 -10.4 0 1 612.60 375.86
  L 616.00 380.33
  A 0.71 0.66 62.7 0 0 616.72 380.59
  Q 617.97 380.24 618.84 380.96
  A 1.60 0.68 87.1 0 1 619.26 381.82
  Q 619.57 383.21 620.97 384.03
  A 5.04 4.99 0.9 0 1 622.80 385.90
  Q 623.90 387.86 625.52 388.76
  Q 626.75 389.44 626.60 388.57
  Q 626.47 387.79 627.01 388.37
  Q 630.98 392.61 635.31 395.98
  Q 636.81 397.15 638.27 398.94
  Q 639.80 400.83 641.31 401.94
  Q 643.26 403.37 644.51 404.98
  Q 646.31 407.28 647.39 408.17
  Q 649.88 410.22 652.46 412.69
  A 0.35 0.35 0.0 0 0 652.95 412.68
  Q 653.62 411.97 653.86 412.71
  Q 654.00 413.15 654.14 413.34
  Q 655.43 415.08 657.16 416.39
  A 1.53 0.94 -16.7 0 0 658.07 416.63
  Q 659.27 416.61 659.64 417.76
  Q 659.82 418.33 660.06 418.64
  Q 661.03 419.97 662.19 422.31
  Q 663.52 425.03 665.90 427.42
  Q 667.74 429.28 668.82 431.19
  Q 670.43 434.03 672.44 436.61
  A 1.83 1.50 -71.5 0 1 672.78 437.50
  Q 672.93 439.45 673.97 441.09
  A 0.69 0.59 -23.2 0 0 674.70 441.32
  Q 675.56 441.08 675.76 441.95
  Q 675.89 442.52 676.12 442.84
  Q 678.02 445.48 678.23 448.75
  Q 678.26 449.26 678.51 449.67
  Q 681.03 453.75 682.80 458.18
  Q 683.24 459.30 685.59 464.66
  Q 687.01 467.93 687.70 471.45
  Q 688.01 473.01 689.07 475.71
  Q 689.97 478.01 689.75 480.25
  Q 689.53 482.56 690.10 484.44
  Q 690.22 484.85 691.92 487.22
  Q 692.86 488.53 692.89 490.22
  Q 692.93 492.32 693.17 493.22
  Q 694.27 497.31 694.53 501.57
  Q 694.77 505.37 696.73 508.58
  A 1.45 1.17 -61.0 0 1 696.89 509.49
  Q 696.68 510.86 698.46 509.25
  Z"
/>
<path fill="#1c191f" d="
  M 674.25 540.29
  Q 666.57 548.46 658.00 555.71
  Q 648.10 563.51 639.25 568.75
  Q 609.15 586.58 573.50 586.53
  Q 548.56 586.50 527.00 579.75
  Q 472.44 562.68 432.10 520.41
  Q 402.97 489.88 387.25 452.00
  Q 371.58 414.24 368.50 372.04
  Q 375.33 371.78 382.25 368.75
  Q 384.35 367.83 386.88 367.58
  Q 389.65 367.32 391.46 366.64
  Q 395.66 365.06 398.00 364.75
  Q 402.42 364.16 404.50 363.25
  Q 406.98 362.16 412.81 361.38
  Q 413.28 361.32 413.70 361.00
  Q 415.61 359.59 418.00 359.91
  A 1.01 0.54 13.5 0 0 418.88 359.68
  Q 418.97 359.53 419.00 359.35
  A 0.57 0.41 -89.1 0 1 419.33 358.91
  Q 427.13 356.80 435.03 355.08
  Q 437.46 354.56 443.05 354.15
  Q 447.47 353.82 451.77 352.57
  Q 452.38 352.39 452.18 352.95
  A 0.42 0.42 10.4 0 0 452.56 353.50
  Q 454.64 353.61 452.94 352.85
  Q 452.57 352.69 452.96 352.59
  Q 466.14 349.39 479.69 349.07
  Q 480.08 349.06 480.62 349.32
  Q 481.71 349.85 482.81 349.07
  Q 484.13 348.14 485.54 348.31
  Q 487.84 348.60 488.15 348.57
  Q 494.94 348.03 501.75 348.23
  A 0.84 0.15 -48.9 0 0 502.32 347.77
  Q 502.65 347.43 504.02 347.65
  Q 508.70 348.40 513.42 348.34
  Q 515.99 348.31 518.44 349.08
  Q 521.86 350.16 525.40 350.78
  Q 525.55 350.80 528.98 350.82
  Q 530.78 350.83 532.40 351.90
  Q 532.83 352.18 533.31 352.25
  Q 535.66 352.61 538.81 353.94
  Q 546.63 357.24 554.44 360.56
  Q 558.55 362.31 564.25 366.35
  Q 564.29 366.38 566.43 368.46
  Q 567.52 369.53 569.44 370.31
  Q 571.40 371.12 574.97 374.08
  Q 576.33 375.21 578.53 376.14
  Q 580.78 377.09 582.06 378.44
  Q 587.30 383.94 592.86 386.49
  A 1.40 1.12 85.9 0 1 593.48 387.16
  Q 593.99 388.34 595.12 388.80
  Q 596.84 389.50 597.10 389.70
  Q 598.80 390.99 600.04 392.78
  A 1.70 1.65 83.6 0 0 600.77 393.38
  Q 602.80 394.26 604.57 395.53
  Q 605.21 395.99 607.32 398.53
  Q 608.57 400.04 610.56 401.19
  Q 612.49 402.30 614.33 404.89
  Q 615.86 407.05 617.94 408.59
  Q 619.90 410.03 621.00 411.52
  Q 623.13 414.39 625.06 415.94
  Q 628.13 418.40 629.90 420.66
  Q 631.78 423.06 631.85 423.13
  Q 637.43 429.58 642.81 436.19
  Q 646.60 440.84 647.74 443.29
  Q 650.49 449.21 653.61 454.93
  Q 655.56 458.48 657.53 463.52
  Q 658.86 466.89 660.49 470.13
  Q 662.23 473.58 663.08 476.82
  Q 664.28 481.40 665.65 485.93
  Q 667.23 491.14 667.90 495.09
  Q 670.86 512.53 671.23 530.25
  Q 671.23 530.32 671.12 532.74
  Q 671.03 534.93 671.81 537.19
  Q 672.43 538.96 672.44 541.18
  Q 672.45 541.63 672.75 541.29
  Q 673.37 540.61 674.25 540.29
  Z
  M 572.20 405.89
  A 18.74 18.74 0.0 0 0 553.46 387.15
  A 18.74 18.74 0.0 0 0 534.72 405.89
  A 18.74 18.74 0.0 0 0 553.46 424.63
  A 18.74 18.74 0.0 0 0 572.20 405.89
  Z
  M 644.39 452.57
  A 14.59 14.59 0.0 0 0 629.80 437.98
  A 14.59 14.59 0.0 0 0 615.21 452.57
  A 14.59 14.59 0.0 0 0 629.80 467.16
  A 14.59 14.59 0.0 0 0 644.39 452.57
  Z
  M 608.55 472.96
  A 2.89 2.89 0.0 0 0 605.66 470.07
  A 2.89 2.89 0.0 0 0 602.77 472.96
  A 2.89 2.89 0.0 0 0 605.66 475.85
  A 2.89 2.89 0.0 0 0 608.55 472.96
  Z
  M 501.89 529.90
  A 2.71 2.71 0.0 0 0 499.18 527.19
  A 2.71 2.71 0.0 0 0 496.47 529.90
  A 2.71 2.71 0.0 0 0 499.18 532.61
  A 2.71 2.71 0.0 0 0 501.89 529.90
  Z"
/>
<path fill="#0e0c0f" d="
  M 365.25 353.46
  L 367.29 355.50
  L 368.50 372.04
  Q 371.58 414.24 387.25 452.00
  Q 402.97 489.88 432.10 520.41
  Q 472.44 562.68 527.00 579.75
  Q 548.56 586.50 573.50 586.53
  Q 609.15 586.58 639.25 568.75
  Q 648.10 563.51 658.00 555.71
  Q 661.16 554.70 658.10 557.47
  A 0.84 0.84 -43.4 0 0 658.06 558.68
  Q 660.07 560.72 660.34 563.10
  Q 660.49 564.37 659.23 567.15
  Q 658.03 569.78 657.44 573.44
  Q 656.66 578.20 652.88 588.92
  Q 652.36 590.41 651.44 594.94
  Q 650.80 598.07 648.12 600.99
  Q 647.28 601.91 646.38 603.40
  Q 645.68 604.57 644.56 605.81
  Q 643.54 606.96 643.09 608.56
  Q 642.47 610.79 642.11 611.43
  Q 640.87 613.56 638.31 616.81
  Q 637.14 618.30 632.20 625.92
  Q 632.13 626.02 631.08 628.20
  Q 630.08 630.25 627.29 632.02
  A 4.41 4.40 84.8 0 0 625.56 634.10
  Q 624.83 635.94 623.49 638.11
  Q 622.75 639.30 620.70 641.65
  Q 619.26 643.28 618.07 645.09
  Q 616.89 646.88 615.28 648.31
  Q 613.09 650.24 611.32 652.56
  Q 609.28 655.24 607.48 656.78
  Q 602.15 661.34 597.32 666.42
  Q 595.60 668.23 593.35 670.22
  Q 591.28 672.05 589.36 674.03
  Q 586.19 677.28 583.29 679.58
  Q 577.49 684.17 573.56 688.31
  Q 570.27 691.79 567.73 693.54
  A 1.83 1.67 87.4 0 0 567.12 694.27
  Q 566.16 696.33 564.24 697.55
  A 1.78 1.68 86.9 0 0 563.62 698.28
  Q 562.31 701.23 558.87 700.80
  Q 556.97 700.57 556.11 702.27
  Q 555.64 703.20 554.54 703.65
  A 1.11 1.01 -3.4 0 0 553.92 704.29
  Q 552.89 707.56 549.75 708.25
  Q 544.94 709.31 541.62 711.18
  A 1.73 1.55 -89.0 0 0 540.97 711.88
  L 540.67 712.49
  A 0.99 0.96 8.0 0 1 539.94 713.02
  L 537.30 713.48
  A 1.76 1.49 -67.6 0 0 536.45 713.92
  Q 534.60 715.69 532.30 716.73
  Q 530.13 717.71 529.45 718.12
  Q 528.08 718.93 526.73 719.77
  Q 524.92 720.88 522.45 721.36
  Q 518.94 722.04 516.19 723.44
  Q 514.28 724.41 512.56 724.35
  A 1.37 1.33 25.3 0 0 511.68 724.65
  Q 509.11 726.77 505.06 726.81
  Q 502.98 726.84 500.22 727.83
  Q 499.52 728.08 497.06 728.48
  Q 495.33 728.75 494.03 730.06
  A 1.12 0.98 21.2 0 1 493.20 730.36
  Q 492.13 730.31 491.37 731.28
  Q 490.33 732.59 488.67 732.81
  Q 481.08 733.82 475.04 735.67
  A 0.34 0.32 -29.5 0 0 474.87 736.21
  Q 475.38 736.74 476.13 736.75
  A 0.24 0.24 -83.3 0 1 476.36 737.05
  Q 475.93 738.67 475.00 739.04
  Q 433.27 735.67 395.69 716.56
  Q 365.85 701.40 342.00 678.71
  Q 308.58 646.41 291.29 603.25
  L 286.25 588.46
  Q 270.55 535.24 281.25 481.25
  Q 288.19 446.25 306.96 415.00
  Q 329.96 378.41 365.25 353.46
  Z"
/>
<circle fill="#1c191f" cx="219.56" cy="380.77" r="13.86"/>
<path fill="#fdcc60" d="
  M 724.00 399.96
  Q 735.69 417.06 743.25 435.50
  Q 759.90 476.10 760.21 520.50
  L 759.94 519.30
  A 0.98 0.75 -89.1 0 0 759.46 518.65
  Q 758.39 518.17 758.13 516.92
  Q 756.86 510.73 754.35 505.00
  Q 752.98 501.87 748.66 493.93
  Q 738.92 476.00 726.23 460.05
  Q 720.88 453.34 714.11 446.56
  Q 707.69 440.14 700.94 434.06
  Q 691.27 425.36 681.71 416.54
  Q 680.53 415.46 679.60 414.17
  Q 679.07 413.43 678.51 413.28
  Q 677.79 413.09 677.00 413.29
  Q 660.25 387.91 637.71 367.50
  Q 638.48 367.10 639.15 367.64
  A 0.85 0.73 50.5 0 0 639.96 367.78
  Q 642.53 366.64 645.33 367.42
  Q 645.80 367.55 646.30 367.44
  Q 648.60 366.92 651.50 367.75
  Q 662.03 370.76 671.82 375.67
  Q 672.82 376.18 673.48 377.08
  A 1.05 1.00 73.2 0 0 674.25 377.52
  Q 676.62 377.68 678.64 378.88
  Q 681.02 380.29 681.09 380.33
  Q 699.72 389.72 717.37 400.85
  Q 717.46 400.91 718.50 401.82
  Q 719.55 402.74 720.65 401.35
  A 1.75 1.33 -73.6 0 1 721.42 400.78
  L 724.00 399.96
  Z"
/>
<path fill="#7e5b5a" d="
  M 341.00 367.29
  L 327.75 382.46
  Q 328.84 380.78 329.84 379.05
  Q 330.85 377.30 332.27 375.95
  Q 335.75 372.64 336.94 370.94
  Q 338.84 368.22 341.00 367.29
  Z"
/>
<circle fill="#38323d" cx="553.46" cy="405.89" r="18.74"/>
<path fill="#fde784" d="
  M 677.00 413.29
  Q 677.79 413.09 678.51 413.28
  Q 679.07 413.43 679.60 414.17
  Q 680.53 415.46 681.71 416.54
  Q 691.27 425.36 700.94 434.06
  Q 707.69 440.14 714.11 446.56
  Q 720.88 453.34 726.23 460.05
  Q 738.92 476.00 748.66 493.93
  Q 752.98 501.87 754.35 505.00
  Q 756.86 510.73 758.13 516.92
  Q 758.39 518.17 759.46 518.65
  A 0.98 0.75 -89.1 0 1 759.94 519.30
  L 760.21 520.50
  Q 760.76 535.71 758.46 550.75
  Q 756.91 550.71 756.25 552.25
  Q 754.38 556.63 750.33 562.33
  Q 730.25 590.58 705.94 615.22
  Q 699.61 621.64 693.84 626.54
  Q 687.52 631.91 680.83 636.84
  Q 680.32 637.21 680.12 637.76
  A 1.50 0.43 -75.2 0 1 679.63 638.58
  Q 678.73 639.24 678.21 638.00
  Q 717.70 572.27 707.46 495.50
  Q 700.98 451.11 677.00 413.29
  Z"
/>
<circle fill="#38323d" cx="629.80" cy="452.57" r="14.59"/>
<circle fill="#36313c" cx="605.66" cy="472.96" r="2.89"/>
<path fill="#1a1112" d="
  M 707.46 495.50
  Q 717.70 572.27 678.21 638.00
  Q 660.61 666.21 635.25 687.71
  Q 597.67 719.19 551.81 732.06
  Q 514.93 742.42 475.00 739.04
  Q 475.93 738.67 476.36 737.05
  A 0.24 0.24 -83.3 0 0 476.13 736.75
  Q 475.38 736.74 474.87 736.21
  A 0.34 0.32 -29.5 0 1 475.04 735.67
  Q 481.08 733.82 488.67 732.81
  Q 490.33 732.59 491.37 731.28
  Q 492.13 730.31 493.20 730.36
  A 1.12 0.98 21.2 0 0 494.03 730.06
  Q 495.33 728.75 497.06 728.48
  Q 499.52 728.08 500.22 727.83
  Q 502.98 726.84 505.06 726.81
  Q 509.11 726.77 511.68 724.65
  A 1.37 1.33 25.3 0 1 512.56 724.35
  Q 514.28 724.41 516.19 723.44
  Q 518.94 722.04 522.45 721.36
  Q 524.92 720.88 526.73 719.77
  Q 528.08 718.93 529.45 718.12
  Q 530.13 717.71 532.30 716.73
  Q 534.60 715.69 536.45 713.92
  A 1.76 1.49 -67.6 0 1 537.30 713.48
  L 539.94 713.02
  A 0.99 0.96 8.0 0 0 540.67 712.49
  L 540.97 711.88
  A 1.73 1.55 -89.0 0 1 541.62 711.18
  Q 544.94 709.31 549.75 708.25
  Q 552.89 707.56 553.92 704.29
  A 1.11 1.01 -3.4 0 1 554.54 703.65
  Q 555.64 703.20 556.11 702.27
  Q 556.97 700.57 558.87 700.80
  Q 562.31 701.23 563.62 698.28
  A 1.78 1.68 86.9 0 1 564.24 697.55
  Q 566.16 696.33 567.12 694.27
  A 1.83 1.67 87.4 0 1 567.73 693.54
  Q 570.27 691.79 573.56 688.31
  Q 577.49 684.17 583.29 679.58
  Q 586.19 677.28 589.36 674.03
  Q 591.28 672.05 593.35 670.22
  Q 595.60 668.23 597.32 666.42
  Q 602.15 661.34 607.48 656.78
  Q 609.28 655.24 611.32 652.56
  Q 613.09 650.24 615.28 648.31
  Q 616.89 646.88 618.07 645.09
  Q 619.26 643.28 620.70 641.65
  Q 622.75 639.30 623.49 638.11
  Q 624.83 635.94 625.56 634.10
  A 4.41 4.40 84.8 0 1 627.29 632.02
  Q 630.08 630.25 631.08 628.20
  Q 632.13 626.02 632.20 625.92
  Q 637.14 618.30 638.31 616.81
  Q 640.87 613.56 642.11 611.43
  Q 642.47 610.79 643.09 608.56
  Q 643.54 606.96 644.56 605.81
  Q 645.68 604.57 646.38 603.40
  Q 647.28 601.91 648.12 600.99
  Q 650.80 598.07 651.44 594.94
  Q 652.36 590.41 652.88 588.92
  Q 656.66 578.20 657.44 573.44
  Q 658.03 569.78 659.23 567.15
  Q 660.49 564.37 660.34 563.10
  Q 660.07 560.72 658.06 558.68
  A 0.84 0.84 -43.4 0 1 658.10 557.47
  Q 661.16 554.70 658.00 555.71
  Q 666.57 548.46 674.25 540.29
  Q 687.99 526.05 698.46 509.25
  Q 702.97 502.53 705.94 496.69
  Q 706.48 495.63 707.46 495.50
  Z"
/>
<circle fill="#49424f" cx="828.23" cy="500.99" r="3.47"/>
<circle fill="#38323d" cx="499.18" cy="529.90" r="2.71"/>
<path fill="#fdca5f" d="
  M 758.46 550.75
  Q 749.63 621.22 703.75 675.04
  Q 702.84 675.07 702.41 674.04
  A 0.63 0.63 72.8 0 0 701.71 673.67
  Q 694.93 675.12 689.04 677.24
  Q 685.97 678.35 682.80 678.99
  Q 679.08 679.74 676.88 680.68
  Q 674.04 681.90 671.25 683.25
  Q 670.27 683.72 667.30 683.37
  A 1.56 1.25 -53.0 0 0 666.39 683.60
  Q 664.29 684.90 658.95 685.94
  Q 658.87 685.96 658.80 685.93
  Q 656.70 685.35 654.87 686.00
  Q 652.25 686.94 651.56 686.99
  Q 648.66 687.22 645.75 687.02
  Q 643.33 686.86 640.50 688.75
  Q 639.04 689.72 638.66 688.55
  A 0.62 0.54 -21.8 0 1 639.01 687.86
  Q 640.85 687.04 641.25 686.50
  Q 641.73 685.86 641.30 685.65
  A 1.22 0.30 -22.9 0 0 640.37 685.80
  L 637.81 686.72
  A 1.47 1.15 0.7 0 0 637.10 687.26
  Q 636.52 688.18 635.25 687.71
  Q 660.61 666.21 678.21 638.00
  Q 678.73 639.24 679.63 638.58
  A 1.50 0.43 -75.2 0 0 680.12 637.76
  Q 680.32 637.21 680.83 636.84
  Q 687.52 631.91 693.84 626.54
  Q 699.61 621.64 705.94 615.22
  Q 730.25 590.58 750.33 562.33
  Q 754.38 556.63 756.25 552.25
  Q 756.91 550.71 758.46 550.75
  Z"
/>
<path fill="#7e5b5a" d="
  M 286.25 588.46
  L 291.29 603.25
  Q 290.34 603.68 289.96 604.50
  Q 287.28 597.76 285.50 589.50
  Q 285.27 588.44 286.25 588.46
  Z"
/>
<path fill="#f9954e" d="
  M 291.29 603.25
  Q 308.58 646.41 342.00 678.71
  Q 342.11 681.25 344.05 682.99
  A 0.95 0.84 27.3 0 1 344.37 683.81
  Q 343.93 686.36 341.74 687.80
  A 0.72 0.71 -23.1 0 0 341.44 688.54
  Q 341.63 689.40 341.46 690.25
  Q 333.30 682.12 326.00 673.21
  Q 302.02 642.00 289.96 604.50
  Q 290.34 603.68 291.29 603.25
  Z"
/>
<path fill="#1d181d" d="
  M 942.50 608.54
  Q 943.01 609.81 944.09 610.41
  Q 945.73 611.32 946.03 611.63
  Q 950.42 616.18 949.14 621.94
  Q 948.27 625.87 945.10 628.84
  Q 941.95 631.78 937.75 632.75
  Q 932.21 634.03 928.85 629.61
  Q 928.21 628.77 927.39 628.15
  Q 926.53 627.51 925.79 626.75
  Q 925.83 619.75 930.69 614.44
  Q 935.53 609.15 942.50 608.54
  Z"
/>
<path fill="#0e0c0f" d="
  M 942.50 608.54
  Q 951.10 608.16 956.40 613.26
  Q 961.31 617.98 962.18 625.45
  Q 963.31 635.15 955.00 642.00
  Q 950.30 645.87 944.35 645.80
  Q 938.92 645.73 934.11 642.68
  Q 926.08 637.60 925.79 626.75
  Q 926.53 627.51 927.39 628.15
  Q 928.21 628.77 928.85 629.61
  Q 932.21 634.03 937.75 632.75
  Q 941.95 631.78 945.10 628.84
  Q 948.27 625.87 949.14 621.94
  Q 950.42 616.18 946.03 611.63
  Q 945.73 611.32 944.09 610.41
  Q 943.01 609.81 942.50 608.54
  Z"
/>
<path fill="#fdb054" d="
  M 703.75 675.04
  Q 682.74 700.58 654.31 718.81
  Q 631.17 733.65 606.30 742.79
  Q 538.79 767.60 469.00 755.75
  Q 426.43 748.52 387.25 725.96
  Q 362.05 711.04 341.46 690.25
  Q 341.63 689.40 341.44 688.54
  A 0.72 0.71 -23.1 0 1 341.74 687.80
  Q 343.93 686.36 344.37 683.81
  A 0.95 0.84 27.3 0 0 344.05 682.99
  Q 342.11 681.25 342.00 678.71
  Q 365.85 701.40 395.69 716.56
  Q 433.27 735.67 475.00 739.04
  Q 514.93 742.42 551.81 732.06
  Q 597.67 719.19 635.25 687.71
  Q 636.52 688.18 637.10 687.26
  A 1.47 1.15 0.7 0 1 637.81 686.72
  L 640.37 685.80
  A 1.22 0.30 -22.9 0 1 641.30 685.65
  Q 641.73 685.86 641.25 686.50
  Q 640.85 687.04 639.01 687.86
  A 0.62 0.54 -21.8 0 0 638.66 688.55
  Q 639.04 689.72 640.50 688.75
  Q 643.33 686.86 645.75 687.02
  Q 648.66 687.22 651.56 686.99
  Q 652.25 686.94 654.87 686.00
  Q 656.70 685.35 658.80 685.93
  Q 658.87 685.96 658.95 685.94
  Q 664.29 684.90 666.39 683.60
  A 1.56 1.25 -53.0 0 1 667.30 683.37
  Q 670.27 683.72 671.25 683.25
  Q 674.04 681.90 676.88 680.68
  Q 679.08 679.74 682.80 678.99
  Q 685.97 678.35 689.04 677.24
  Q 694.93 675.12 701.71 673.67
  A 0.63 0.63 72.8 0 1 702.41 674.04
  Q 702.84 675.07 703.75 675.04
  Z"
/>
<path fill="#36313c" d="
  M 860.74 691.87
  A 1.51 1.51 5.4 0 1 859.50 690.37
  Q 859.54 683.88 862.88 679.11
  Q 864.73 676.46 867.76 675.62
  A 1.41 1.32 -38.8 0 1 868.71 675.69
  Q 871.70 677.09 870.67 680.73
  Q 869.11 686.24 865.08 690.34
  Q 863.16 692.30 860.74 691.87
  Z"
/>
<circle fill="#1c191f" cx="770.01" cy="722.88" r="13.66"/>
<circle fill="#171418" cx="185.12" cy="759.73" r="8.15"/>
<path fill="#38323d" d="
  M 265.93 772.83
  Q 262.25 770.51 264.96 766.97
  Q 268.41 762.47 273.28 759.48
  A 0.70 0.70 49.8 0 1 274.11 759.55
  Q 282.51 766.82 287.95 775.83
  Q 289.63 778.61 286.41 779.09
  Q 283.26 779.55 279.99 778.75
  Q 278.12 778.28 273.98 776.78
  Q 269.76 775.24 265.93 772.83
  Z"
/>
<circle fill="#8b625b" cx="432.20" cy="799.68" r="3.34"/>
<circle fill="#171418" cx="796.31" cy="852.47" r="8.23"/>
<circle fill="#171418" cx="344.68" cy="913.07" r="8.27"/>
</svg>
