<?xml version="1.0" encoding="UTF-8" standalone="no"?><!-- Generator: Gravit.io --><svg xmlns="http://www.w3.org/2000/svg" xmlns:xlink="http://www.w3.org/1999/xlink" style="isolation:isolate" viewBox="877.603 671.387 114.721 114.394" width="114.721pt" height="114.394pt"><defs><clipPath id="_clipPath_G6YHfVibE5YFIuHUrrfZ6mvT7BlEszrl"><rect x="877.603" y="671.387" width="114.721" height="114.394"/></clipPath></defs><g clip-path="url(#_clipPath_G6YHfVibE5YFIuHUrrfZ6mvT7BlEszrl)"><rect x="877.603" y="671.387" width="114.721" height="114.394" style="fill:rgb(6,6,6)" fill-opacity="0"/><path d=" M 887.572 693.73 Q 889.142 694.73 889.862 696.44 Q 888.592 699.71 889.072 701.69 Q 889.302 702.65 890.032 701.94 L 890.032 703.44 Q 889.792 705.88 887.572 704.9 Q 888.472 699.75 885.032 695.94 Q 885.292 695.12 884.572 695.15 L 887.572 693.73 Z " fill="rgb(68,44,112)"/><path d=" M 913.322 674.48 L 913.362 675.44 Q 913.532 679.92 910.882 683.5 Q 909.902 684.81 909.572 686.4 Q 903.642 686.5 899.862 681.94 Q 899.902 681.36 899.322 681.4 Q 899.832 680.89 900.572 680.9 Q 902.552 683.91 906.082 684.39 C 906.391 684.421 906.696 684.296 906.892 684.06 Q 910.382 679.83 908.512 675.25 Q 907.642 673.14 904.572 673.4 Q 909.212 671.21 913.322 674.48 Z " fill="rgb(131,81,58)"/><path d=" M 989.822 731.15 L 989.362 731.19 Q 986.882 725.99 981.822 727.94 Q 975.542 730.36 976.572 737.69 Q 977.142 741.73 978.822 743.48 Q 977.582 750.92 970.202 752.72 C 969.758 752.825 969.291 752.735 968.919 752.472 C 968.547 752.21 968.307 751.8 968.262 751.35 Q 967.932 748.32 967.702 744.7 Q 967.542 742.1 965.902 743.31 C 965.613 743.51 965.435 743.803 965.412 744.12 Q 964.932 746.68 964.802 749.28 Q 964.792 749.37 964.572 751.45 Q 964.162 755.15 968.072 755.69 Q 970.972 756.09 974.092 754.88 Q 974.332 754.79 976.152 753.46 Q 977.402 752.54 978.962 753.37 C 979.228 753.426 979.519 753.404 979.762 753.31 L 980.532 752.94 Q 970.092 768.9 952.882 777.25 Q 952.292 777.54 952.112 778.19 Q 951.862 773.64 949.632 770.38 Q 948.112 768.15 945.562 767.86 Q 943.662 767.64 941.192 768.71 Q 932.612 772.43 936.662 782.51 Q 937.352 784.24 935.642 785 Q 929.852 787.56 928.002 781.73 C 927.81 781.124 927.176 780.776 926.562 780.94 Q 923.562 781.75 920.712 780.68 C 920.414 780.566 920.194 780.319 920.122 780.02 Q 919.422 777.3 919.502 774.48 Q 919.512 774.23 919.432 774.04 Q 919.102 773.28 918.862 774.2 Q 918.192 776.71 915.802 777.54 Q 915.322 777.71 914.982 778.06 Q 912.172 781.01 908.712 779.51 Q 907.312 778.91 906.142 777.12 Q 905.142 775.59 904.182 774.05 Q 902.832 771.92 900.312 774.14 Q 898.712 775.55 897.052 774.21 Q 895.412 772.88 893.862 770.08 Q 892.362 767.36 894.192 765 C 894.439 764.773 894.483 764.436 894.302 764.17 Q 893.842 763.32 892.942 762.91 Q 891.872 762.41 892.982 762.21 L 896.032 761.69 Q 895.122 763.75 896.782 765 Q 899.772 767.24 903.192 766.75 Q 907.102 766.18 907.542 766.17 Q 923.812 765.75 937.322 756.82 Q 938.792 755.85 940.592 754.92 Q 942.282 754.05 943.902 753.03 Q 944.652 752.55 944.532 751.69 Q 945.052 751.09 945.672 751.2 Q 946.602 751.37 946.642 751.37 Q 953.732 751.35 959.382 755.63 Q 961.562 757.28 962.822 756.94 Q 964.162 756.58 963.672 755.83 Q 963.442 755.49 962.812 755.3 Q 960.512 754.64 957.382 752.88 Q 954.892 751.48 947.322 748.4 Q 951.612 745.54 954.202 740.87 C 954.51 740.337 954.364 739.659 953.862 739.3 Q 952.042 737.95 950.672 736.35 Q 949.192 734.61 948.972 732.52 Q 948.372 726.9 954.272 725.1 Q 954.892 724.91 955.392 724.97 Q 956.572 725.11 956.052 725.98 C 955.93 726.217 955.651 726.412 955.282 726.52 Q 951.142 727.89 951.072 731.69 Q 951.032 733.84 952.942 734.99 Q 954.412 735.88 956.342 735.62 Q 959.922 735.15 961.642 731.87 Q 962.712 729.8 962.762 729.72 Q 966.302 723.78 968.572 717.23 Q 972.022 716.63 975.322 715.43 Q 979.612 713.87 981.122 709.62 Q 982.022 707.09 980.602 708.98 Q 978.262 712.12 974.622 713.38 Q 972.622 714.06 972.562 714.07 Q 971.392 714.29 970.322 713.4 Q 971.682 711.55 970.822 708.69 Q 969.402 703.97 966.822 701.48 Q 967.972 700.67 969.342 701.03 C 969.65 701.086 969.973 701.018 970.202 700.85 Q 971.232 699.78 969.392 699.1 Q 966.192 697.9 963.072 699.15 Q 963.572 698.24 962.762 697 Q 959.472 692 957.852 686.22 Q 956.672 681.99 953.312 679.18 Q 952.202 678.26 953.642 678.38 Q 957.782 678.74 961.572 680.48 Q 958.712 687.54 965.882 689.63 Q 968.382 690.35 971.582 688.62 C 971.86 688.464 972.071 688.211 972.172 687.91 Q 974.652 680.44 967.532 677.19 Q 970.052 676.53 972.162 678.1 Q 978.312 682.69 973.062 689.14 C 972.987 689.236 972.962 689.361 972.993 689.479 C 973.024 689.597 973.109 689.693 973.222 689.74 Q 974.982 690.44 976.172 691.82 Q 990.692 708.69 989.822 731.15 Z " fill="rgb(66,151,172)"/><path d=" M 967.532 677.19 Q 974.652 680.44 972.172 687.91 C 972.071 688.211 971.86 688.464 971.582 688.62 Q 968.382 690.35 965.882 689.63 Q 958.712 687.54 961.572 680.48 Q 961.802 680.42 961.862 680.19 L 967.532 677.19 Z " fill="rgb(106,64,56)"/><path d=" M 897.612 702.94 Q 897.222 703.74 896.322 703.73 Q 894.072 703.42 891.842 703.69 Q 891.782 703.7 890.972 703.97 Q 890.332 704.18 890.032 703.44 L 890.032 701.94 L 890.782 697.44 Q 891.792 696.1 891.542 694.69 Q 891.142 692.48 891.222 692.11 Q 891.732 689.98 893.912 688.8 Q 898.182 686.49 899.862 681.94 Q 903.642 686.5 909.572 686.4 Q 917.892 685.99 916.032 677.94 Q 916.122 676.75 917.302 676.38 Q 927.992 673.05 938.572 673.69 Q 944.582 674.05 950.682 676.68 Q 951.072 676.85 951.642 676.82 Q 952.852 676.77 952.522 677.74 C 952.428 678.014 952.171 678.229 951.842 678.31 Q 948.542 679.08 945.182 679.21 Q 939.212 679.45 938.492 679.54 Q 923.122 681.49 909.532 689.16 Q 901.082 693.92 897.612 702.94 Z " fill="rgb(193,236,104)"/><path d=" M 883.322 695.9 L 885.032 695.94 Q 888.472 699.75 887.572 704.9 Q 885.172 708.04 882.072 705.9 Q 878.612 700.25 883.322 695.9 Z " fill="rgb(193,236,104)"/><path d=" M 895.322 707.73 L 892.612 711.94 Q 890.962 715.96 889.322 724.19 Q 886.722 737.23 893.572 747.23 Q 893.682 748.23 893.012 748.71 C 892.753 748.813 892.443 748.741 892.282 748.54 Q 891.042 746.93 889.262 745.93 C 888.981 745.827 888.654 745.775 888.322 745.78 Q 887.082 745.9 886.112 744.94 Q 883.332 741.78 882.632 738.88 Q 880.622 730.53 880.502 721.94 Q 880.422 716.39 882.552 711.32 Q 882.572 711.27 882.882 710.01 Q 883.182 708.84 884.822 709.15 Q 888.182 708.63 888.882 708.25 Q 891.962 706.58 895.322 707.73 Z " fill="rgb(193,236,104)"/><path d=" M 895.322 707.73 L 896.982 711.65 Q 897.152 712.06 897.552 712.4 L 901.922 716.13 Q 903.092 717.12 902.832 719.08 Q 902.212 723.9 898.632 727 Q 896.492 728.86 895.322 730.89 Q 894.102 733.01 894.442 735.7 Q 895.092 740.82 899.052 744.47 Q 901.262 746.5 903.502 748.5 Q 906.012 750.75 906.012 754.19 Q 906.002 757.79 904.622 761.07 Q 904.232 762.01 903.662 762.53 Q 902.102 763.95 901.712 761.12 Q 901.382 758.74 902.512 754.13 Q 903.392 750.5 899.632 748.38 Q 898.702 747.85 897.242 745.9 Q 896.842 745.36 895.142 743.22 Q 891.732 738.93 891.522 733.44 Q 891.432 730.91 892.252 729.04 Q 893.172 726.94 895.022 725.37 Q 897.112 723.59 898.262 721.08 Q 900.202 716.84 896.852 713.12 Q 896.552 712.79 896.362 712.28 Q 895.852 710.9 894.672 711.59 Q 894.102 711.93 893.762 711.93 L 892.612 711.94 L 895.322 707.73 Z " fill="rgb(193,236,104)"/><path d=" M 919.112 699.94 L 919.282 698.19 Q 926.122 693.97 932.842 698.44 Q 936.312 700.74 936.182 704.19 Q 936.082 707.08 933.192 709.07 Q 926.822 713.47 920.382 707.63 Q 917.142 704.68 919.112 699.94 Z " fill="rgb(125,93,87)"/><path d=" M 889.862 696.44 Q 890.212 697.05 890.782 697.44 L 890.032 701.94 Q 889.302 702.65 889.072 701.69 Q 888.592 699.71 889.862 696.44 Z " fill="rgb(125,93,87)"/><path d=" M 913.362 675.44 Q 915.202 676.13 916.032 677.94 Q 917.892 685.99 909.572 686.4 Q 909.902 684.81 910.882 683.5 Q 913.532 679.92 913.362 675.44 Z " fill="rgb(189,114,80)"/><path d=" M 985.322 742.4 Q 983.382 743.11 981.322 742.9 Q 979.842 742.61 979.382 741.88 Q 977.622 739.06 977.982 734.93 Q 978.362 730.73 982.512 729.13 Q 984.552 728.34 986.052 729.19 Q 987.272 729.89 987.892 731.75 Q 988.742 734.36 988.322 737.69 Q 987.892 741.05 985.322 742.4 Z " fill="rgb(189,114,80)"/><path d=" M 961.862 680.19 Q 961.802 680.42 961.572 680.48 Q 957.782 678.74 953.642 678.38 Q 952.202 678.26 953.312 679.18 Q 956.672 681.99 957.852 686.22 Q 959.472 692 962.762 697 Q 963.572 698.24 963.072 699.15 Q 958.022 704.9 960.132 711.63 Q 961.872 717.14 968.572 717.23 Q 966.302 723.78 962.762 729.72 Q 962.712 729.8 961.642 731.87 Q 959.922 735.15 956.342 735.62 Q 954.412 735.88 952.942 734.99 Q 951.032 733.84 951.072 731.69 Q 951.142 727.89 955.282 726.52 C 955.651 726.412 955.93 726.217 956.052 725.98 Q 956.572 725.11 955.392 724.97 Q 954.892 724.91 954.272 725.1 Q 948.372 726.9 948.972 732.52 Q 949.192 734.61 950.672 736.35 Q 952.042 737.95 953.862 739.3 C 954.364 739.659 954.51 740.337 954.202 740.87 Q 951.612 745.54 947.322 748.4 L 942.072 750.13 C 941.721 750.115 941.402 750.002 941.222 749.83 Q 940.002 748.74 938.162 749.51 C 937.409 749.817 936.547 749.476 936.212 748.74 Q 934.392 744.73 937.412 742.61 Q 937.882 742.27 938.062 742.08 Q 938.922 741.1 937.322 741.19 Q 934.902 741.33 934.072 743.69 Q 932.912 746.99 934.432 750.23 Q 935.372 752.23 937.502 751.62 Q 939.402 751.06 940.882 751.71 C 941.166 751.832 941.489 751.843 941.782 751.74 Q 943.132 751.23 944.532 751.69 Q 944.652 752.55 943.902 753.03 Q 942.282 754.05 940.592 754.92 Q 938.792 755.85 937.322 756.82 Q 923.812 765.75 907.542 766.17 Q 907.102 766.18 903.192 766.75 Q 899.772 767.24 896.782 765 Q 895.122 763.75 896.032 761.69 Q 896.872 760.52 896.282 759.19 Q 896.072 755.92 898.122 756.81 Q 899.122 757.24 899.612 757.24 Q 901.402 757.24 900.822 755.88 Q 900.592 755.36 899.802 754.5 Q 896.582 750.97 893.572 747.23 Q 886.722 737.23 889.322 724.19 Q 890.962 715.96 892.612 711.94 L 893.762 711.93 Q 894.102 711.93 894.672 711.59 Q 895.852 710.9 896.362 712.28 Q 896.552 712.79 896.852 713.12 Q 900.202 716.84 898.262 721.08 Q 897.112 723.59 895.022 725.37 Q 893.172 726.94 892.252 729.04 Q 891.432 730.91 891.522 733.44 Q 891.732 738.93 895.142 743.22 Q 896.842 745.36 897.242 745.9 Q 898.702 747.85 899.632 748.38 Q 903.392 750.5 902.512 754.13 Q 901.382 758.74 901.712 761.12 Q 902.102 763.95 903.662 762.53 Q 904.232 762.01 904.622 761.07 Q 906.002 757.79 906.012 754.19 Q 906.012 750.75 903.502 748.5 Q 901.262 746.5 899.052 744.47 Q 895.092 740.82 894.442 735.7 Q 894.102 733.01 895.322 730.89 Q 896.492 728.86 898.632 727 Q 902.212 723.9 902.832 719.08 Q 903.092 717.12 901.922 716.13 L 897.552 712.4 Q 897.152 712.06 896.982 711.65 L 895.322 707.73 Q 891.962 706.58 888.882 708.25 Q 888.182 708.63 884.822 709.15 L 885.572 708.23 Q 890.542 705.74 896.012 705.98 C 896.312 706.002 896.563 706.208 896.632 706.49 Q 898.532 713.71 905.072 715.19 Q 909.822 716.27 912.412 712.95 Q 913.222 711.91 914.422 707.62 Q 915.542 703.6 918.112 700.24 Q 918.572 699.64 919.112 699.94 Q 917.142 704.68 920.382 707.63 Q 926.822 713.47 933.192 709.07 Q 936.082 707.08 936.182 704.19 Q 936.312 700.74 932.842 698.44 Q 926.122 693.97 919.282 698.19 Q 913.522 702.11 912.612 709.19 Q 911.962 707.16 910.742 708.39 C 910.462 708.675 910.074 708.828 909.674 708.809 C 909.275 708.79 908.903 708.601 908.652 708.29 Q 905.782 704.77 902.232 705.51 C 901.913 705.546 901.586 705.504 901.312 705.39 L 897.612 702.94 Q 901.082 693.92 909.532 689.16 Q 923.122 681.49 938.492 679.54 Q 939.212 679.45 945.182 679.21 Q 948.542 679.08 951.842 678.31 C 952.171 678.229 952.428 678.014 952.522 677.74 Q 952.852 676.77 951.642 676.82 Q 951.072 676.85 950.682 676.68 Q 944.582 674.05 938.572 673.69 Q 927.992 673.05 917.302 676.38 Q 916.122 676.75 916.032 677.94 Q 915.202 676.13 913.362 675.44 L 913.322 674.48 Q 938.242 666.78 961.012 678.25 Q 962.022 678.76 961.862 680.19 Z " fill="rgb(115,226,161)"/><path d=" M 899.322 681.4 Q 899.902 681.36 899.862 681.94 Q 898.182 686.49 893.912 688.8 Q 891.732 689.98 891.222 692.11 Q 891.142 692.48 891.542 694.69 Q 891.792 696.1 890.782 697.44 Q 890.212 697.05 889.862 696.44 Q 889.142 694.73 887.572 693.73 Q 887.212 693.64 887.432 693.29 Q 892.062 686.05 899.322 681.4 Z " fill="rgb(115,226,161)"/><path d=" M 884.572 695.15 Q 885.292 695.12 885.032 695.94 L 883.322 695.9 Q 883.772 695.26 884.572 695.15 Z " fill="rgb(115,226,161)"/><path d=" M 881.322 706.65 Q 883.002 708.53 885.572 708.23 L 884.822 709.15 Q 883.182 708.84 882.882 710.01 Q 882.572 711.27 882.552 711.32 Q 880.422 716.39 880.502 721.94 Q 880.622 730.53 882.632 738.88 Q 883.332 741.78 886.112 744.94 Q 885.472 745.24 885.532 745.94 Q 880.862 743.37 879.322 737.44 Q 875.632 723.26 879.862 709.25 Q 880.312 707.78 881.322 706.65 Z " fill="rgb(115,226,161)"/><path d=" M 989.362 731.19 L 989.822 731.15 Q 992.262 732.12 992.322 735.19 Q 992.422 740.6 987.822 742.48 L 987.322 742.4 Q 990.212 737.25 989.362 731.19 Z " fill="rgb(115,226,161)"/><path d=" M 947.322 748.4 Q 954.892 751.48 957.382 752.88 Q 960.512 754.64 962.812 755.3 Q 963.442 755.49 963.672 755.83 Q 964.162 756.58 962.822 756.94 Q 961.562 757.28 959.382 755.63 Q 953.732 751.35 946.642 751.37 Q 946.602 751.37 945.672 751.2 Q 945.052 751.09 944.532 751.69 Q 943.132 751.23 941.782 751.74 C 941.489 751.843 941.166 751.832 940.882 751.71 Q 939.402 751.06 937.502 751.62 Q 935.372 752.23 934.432 750.23 Q 932.912 746.99 934.072 743.69 Q 934.902 741.33 937.322 741.19 Q 938.922 741.1 938.062 742.08 Q 937.882 742.27 937.412 742.61 Q 934.392 744.73 936.212 748.74 C 936.547 749.476 937.409 749.817 938.162 749.51 Q 940.002 748.74 941.222 749.83 C 941.402 750.002 941.721 750.115 942.072 750.13 L 947.322 748.4 Z " fill="rgb(34,137,156)"/><path d=" M 987.322 742.4 L 987.822 742.48 Q 985.992 750.99 981.002 758.12 Q 970.062 773.75 951.942 780.57 Q 951.522 780.74 951.632 780.27 L 952.112 778.19 Q 952.292 777.54 952.882 777.25 Q 970.092 768.9 980.532 752.94 Q 982.252 749.45 983.772 745.87 Q 984.162 744.95 984.762 744.3 Q 985.392 743.62 986.072 742.98 L 987.322 742.4 Z " fill="rgb(79,236,221)"/><path d=" M 966.822 701.48 Q 969.402 703.97 970.822 708.69 Q 971.682 711.55 970.322 713.4 Q 964.192 715.69 962.262 710 Q 959.922 703.14 966.822 701.48 Z " fill="rgb(151,218,136)"/><path d=" M 897.612 702.94 L 901.312 705.39 C 901.586 705.504 901.913 705.546 902.232 705.51 Q 905.782 704.77 908.652 708.29 C 908.903 708.601 909.275 708.79 909.674 708.809 C 910.074 708.828 910.462 708.675 910.742 708.39 Q 911.962 707.16 912.612 709.19 Q 911.572 713.96 907.012 713.63 Q 900.692 713.17 899.322 707.19 Q 898.682 704.39 896.322 703.73 Q 897.222 703.74 897.612 702.94 Z " fill="rgb(151,218,136)"/><path d=" M 886.112 744.94 Q 887.082 745.9 888.322 745.78 C 888.654 745.775 888.981 745.827 889.262 745.93 Q 891.042 746.93 892.282 748.54 C 892.443 748.741 892.753 748.813 893.012 748.71 Q 893.682 748.23 893.572 747.23 Q 896.582 750.97 899.802 754.5 Q 900.592 755.36 900.822 755.88 Q 901.402 757.24 899.612 757.24 Q 899.122 757.24 898.122 756.81 Q 896.072 755.92 896.282 759.19 Q 894.212 758.09 893.572 756.19 Q 891.292 749.43 885.532 745.94 Q 885.472 745.24 886.112 744.94 Z " fill="rgb(151,218,136)"/><path d=" M 904.572 673.4 Q 907.642 673.14 908.512 675.25 Q 910.382 679.83 906.892 684.06 C 906.696 684.296 906.391 684.421 906.082 684.39 Q 902.552 683.91 900.572 680.9 Q 899.342 675.27 904.572 673.4 Z " fill="rgb(204,140,56)"/><path d=" M 881.712 761.44 Q 878.122 756.95 881.012 750.88 Q 881.682 749.47 885.132 747.67 C 885.411 747.523 885.746 747.527 886.022 747.68 Q 889.312 749.55 891.072 754.19 Q 892.442 757.79 890.722 760.29 Q 888.842 763.01 886.052 763.37 Q 883.522 763.7 881.712 761.44 Z " fill="rgb(204,140,56)"/><path d=" M 989.362 731.19 Q 990.212 737.25 987.322 742.4 L 986.072 742.98 Q 985.342 743.05 985.322 742.4 Q 987.892 741.05 988.322 737.69 Q 988.742 734.36 987.892 731.75 Q 987.272 729.89 986.052 729.19 Q 984.552 728.34 982.512 729.13 Q 978.362 730.73 977.982 734.93 Q 977.622 739.06 979.382 741.88 Q 979.842 742.61 981.322 742.9 Q 980.252 743.72 978.822 743.48 Q 977.142 741.73 976.572 737.69 Q 975.542 730.36 981.822 727.94 Q 986.882 725.99 989.362 731.19 Z " fill="rgb(91,58,85)"/><path d=" M 948.862 774.69 L 947.642 780.95 C 947.604 781.257 947.445 781.544 947.192 781.76 L 944.742 783.91 Q 944.192 784.41 944.852 784.44 L 945.572 784.48 Q 943.112 785.7 940.992 784.72 Q 939.322 783.95 938.312 781.6 Q 935.242 774.4 941.782 771.25 Q 944.142 770.11 945.962 770.86 Q 948.222 771.77 948.862 774.69 Z " fill="rgb(188,107,63)"/><path d=" M 948.862 774.69 Q 950.182 775.86 949.942 779.74 Q 949.762 782.66 948.302 783.29 L 945.572 784.48 L 944.852 784.44 Q 944.192 784.41 944.742 783.91 L 947.192 781.76 C 947.445 781.544 947.604 781.257 947.642 780.95 L 948.862 774.69 Z " fill="rgb(123,65,60)"/><path d=" M 919.282 698.19 L 919.112 699.94 Q 918.572 699.64 918.112 700.24 Q 915.542 703.6 914.422 707.62 Q 913.222 711.91 912.412 712.95 Q 909.822 716.27 905.072 715.19 Q 898.532 713.71 896.632 706.49 C 896.563 706.208 896.312 706.002 896.012 705.98 Q 890.542 705.74 885.572 708.23 Q 883.002 708.53 881.322 706.65 Q 881.592 706.17 882.072 705.9 Q 885.172 708.04 887.572 704.9 Q 889.792 705.88 890.032 703.44 Q 890.332 704.18 890.972 703.97 Q 891.782 703.7 891.842 703.69 Q 894.072 703.42 896.322 703.73 Q 898.682 704.39 899.322 707.19 Q 900.692 713.17 907.012 713.63 Q 911.572 713.96 912.612 709.19 Q 913.522 702.11 919.282 698.19 Z " fill="rgb(48,123,161)"/><path d=" M 966.822 701.48 Q 959.922 703.14 962.262 710 Q 964.192 715.69 970.322 713.4 Q 971.392 714.29 972.562 714.07 Q 972.622 714.06 974.622 713.38 Q 978.262 712.12 980.602 708.98 Q 982.022 707.09 981.122 709.62 Q 979.612 713.87 975.322 715.43 Q 972.022 716.63 968.572 717.23 Q 961.872 717.14 960.132 711.63 Q 958.022 704.9 963.072 699.15 Q 966.192 697.9 969.392 699.1 Q 971.232 699.78 970.202 700.85 C 969.973 701.018 969.65 701.086 969.342 701.03 Q 967.972 700.67 966.822 701.48 Z " fill="rgb(48,123,161)"/><path d=" M 985.322 742.4 Q 985.342 743.05 986.072 742.98 Q 985.392 743.62 984.762 744.3 Q 984.162 744.95 983.772 745.87 Q 982.252 749.45 980.532 752.94 L 979.762 753.31 C 979.519 753.404 979.228 753.426 978.962 753.37 Q 977.402 752.54 976.152 753.46 Q 974.332 754.79 974.092 754.88 Q 970.972 756.09 968.072 755.69 Q 964.162 755.15 964.572 751.45 Q 964.792 749.37 964.802 749.28 Q 964.932 746.68 965.412 744.12 C 965.435 743.803 965.613 743.51 965.902 743.31 Q 967.542 742.1 967.702 744.7 Q 967.932 748.32 968.262 751.35 C 968.307 751.8 968.547 752.21 968.919 752.472 C 969.291 752.735 969.758 752.825 970.202 752.72 Q 977.582 750.92 978.822 743.48 Q 980.252 743.72 981.322 742.9 Q 983.382 743.11 985.322 742.4 Z " fill="rgb(48,123,161)"/><path d=" M 923.682 697.68 Q 925.602 697.04 927.792 698.21 C 928.052 698.35 928.243 698.591 928.32 698.877 C 928.398 699.162 928.355 699.467 928.202 699.72 Q 927.172 701.44 927.882 703.95 Q 928.532 706.25 926.212 706.84 Q 923.352 707.57 921.282 706.17 C 921.001 705.982 920.817 705.701 920.772 705.39 Q 920.242 702.75 921.152 700.34 Q 921.942 698.26 923.682 697.68 Z " fill="rgb(232,147,63)"/><path d=" M 908.482 730.82 Q 906.992 728.54 907.332 725.44 Q 907.672 722.4 909.952 721.19 Q 911.672 720.28 914.412 720.63 Q 920.092 721.36 922.512 726.25 Q 923.972 729.22 920.812 731.66 Q 916.982 734.63 912.732 733.64 Q 909.902 732.99 908.482 730.82 Z " fill="rgb(125,93,87)"/><path d=" M 964.195 679.399 C 966.328 677.922 969.335 678.565 970.906 680.834 C 972.477 683.103 972.021 686.144 969.888 687.62 C 967.755 689.097 964.749 688.454 963.178 686.185 C 961.607 683.916 962.063 680.876 964.195 679.399 Z " fill="rgb(188,107,63)"/><path d=" M 959.312 758.22 Q 961.662 756.83 960.272 759.11 L 954.672 768.25 Q 954.172 769.06 953.782 768.14 Q 953.452 767.35 952.732 766.52 Q 950.622 764.09 953.312 762.16 Q 956.502 759.87 959.312 758.22 Z " fill="rgb(48,123,161)"/><path d=" M 908.452 771.7 Q 907.662 771.09 908.652 770.75 Q 913.622 769.03 913.042 773.66 Q 912.852 775.1 911.772 774.26 L 908.452 771.7 Z " fill="rgb(48,123,161)"/><path d=" M 911.558 721.939 C 913.212 721.692 914.794 723.091 915.088 725.062 C 915.383 727.032 914.279 728.833 912.625 729.08 C 910.971 729.327 909.39 727.928 909.095 725.957 C 908.801 723.987 909.904 722.186 911.558 721.939 Z " fill="rgb(219,184,58)"/></g></svg>