<?xml version="1.0" encoding="UTF-8" standalone="no"?><!-- Generator: Gravit.io --><svg xmlns="http://www.w3.org/2000/svg" xmlns:xlink="http://www.w3.org/1999/xlink" style="isolation:isolate" viewBox="802.475 644.642 144.886 140.4" width="144.886pt" height="140.4pt"><defs><clipPath id="_clipPath_0O6oOUb6HaNIKyqPQiwvopwUyuZHdMdO"><rect x="802.475" y="644.642" width="144.886" height="140.4"/></clipPath></defs><g clip-path="url(#_clipPath_0O6oOUb6HaNIKyqPQiwvopwUyuZHdMdO)"><rect x="802.475" y="644.642" width="144.886" height="140.4" style="fill:rgb(6,6,6)" fill-opacity="0"/><path d=" M 902.925 647.422 Q 905.294 647.452 906.745 648.882 Q 907.985 650.102 908.164 652.342 Q 908.365 654.802 907.555 657.222 Q 907.044 658.742 905.145 659.292 C 904.825 659.351 904.493 659.262 904.255 659.054 C 904.017 658.845 903.901 658.543 903.944 658.242 L 904.384 651.632 Q 904.235 649.362 902.925 647.422 Z " fill="rgb(253,129,61)"/><path d=" M 834.675 664.172 Q 833.705 667.022 835.675 668.922 L 832.815 670.582 Q 830.775 671.772 829.745 669.832 Q 825.444 661.712 834.675 664.172 Z " fill="rgb(253,129,61)"/><path d=" M 840.925 675.672 Q 841.104 677.182 839.935 678.152 Q 838.284 679.522 836.425 680.592 Q 837.634 677.232 840.925 675.672 Z " fill="rgb(181,54,35)"/><path d=" M 826.175 700.342 Q 838.925 704.322 853.735 701.692 Q 868.095 699.142 881.865 706.692 Q 884.164 707.952 889.784 712.042 Q 889.854 712.092 892.875 714.422 Q 902.275 721.672 914.425 721.922 L 917.175 722.422 Q 913.155 723.932 912.134 728.132 Q 902.784 725.402 894.465 720.492 Q 891.865 718.962 887.784 715.742 Q 883.294 712.222 881.115 710.942 Q 868.474 703.582 852.425 706.382 Q 841.284 708.322 827.805 705.492 Q 825.824 705.072 824.544 705.452 Q 823.284 705.832 821.425 706.632 Q 819.205 707.592 815.895 706.202 Q 813.824 705.332 810.595 708.102 C 810.371 708.296 810.063 708.358 809.782 708.266 C 809.501 708.173 809.289 707.94 809.224 707.652 Q 808.995 706.572 810.495 705.472 Q 811.405 704.812 811.634 704.542 Q 813.055 702.932 809.675 703.342 Q 813.065 703.032 816.375 703.842 Q 816.414 703.852 818.405 704.612 Q 820.985 705.582 824.284 704.082 Q 825.615 703.472 824.305 702.792 L 819.715 700.382 L 826.175 700.342 Z " fill="rgb(181,54,35)"/><path d=" M 889.215 652.882 Q 890.985 653.062 890.895 655.732 C 890.851 656.06 890.995 656.385 891.275 656.594 C 891.555 656.803 891.933 656.867 892.275 656.762 L 896.215 654.852 C 896.626 654.699 896.776 654.355 896.555 654.072 Q 896.465 652.512 897.965 651.882 Q 899.085 651.212 899.474 649.892 Q 900.245 647.292 902.925 647.422 Q 904.235 649.362 904.384 651.632 Q 903.745 651.652 903.324 652.032 Q 903.015 652.312 902.884 652.972 Q 902.465 655.192 901.884 657.382 Q 899.405 660.422 901.235 663.322 Q 904.565 668.592 911.615 670.442 Q 914.115 671.102 915.425 670.592 Q 916.955 670.522 917.194 671.822 C 917.232 672.121 917.396 672.398 917.655 672.602 L 919.574 674.272 C 919.755 674.412 919.84 674.63 919.799 674.845 C 919.758 675.059 919.596 675.237 919.375 675.312 Q 917.645 676.152 917.425 677.682 Q 917.324 678.302 918.235 680.262 Q 919.254 682.442 917.634 684.632 Q 912.965 684.842 912.175 680.382 Q 911.895 678.782 910.175 678.092 Q 910.595 677.502 909.865 676.942 Q 904.664 672.972 898.675 672.112 Q 890.705 670.972 882.664 671.552 Q 868.935 672.552 855.175 673.272 Q 853.315 673.362 850.715 673.822 Q 848.495 674.212 846.235 674.402 C 845.911 674.45 845.613 674.587 845.384 674.792 Q 844.034 676.052 842.224 676.282 C 842.106 676.286 841.994 676.234 841.929 676.144 C 841.863 676.055 841.854 675.94 841.905 675.842 Q 842.345 674.412 841.465 674.882 Q 839.354 671.122 835.675 668.922 Q 833.705 667.022 834.675 664.172 Q 836.444 663.632 838.085 664.052 Q 839.194 664.352 840.694 665.952 Q 843.065 668.472 845.985 669.822 Q 846.875 670.232 847.555 669.732 C 847.837 669.547 847.903 669.199 847.705 668.942 Q 846.455 666.462 844.805 664.232 Q 842.944 661.722 842.405 658.482 Q 842.044 656.392 843.955 655.472 Q 847.104 653.952 848.254 657.682 Q 849.655 662.222 852.865 665.692 Q 856.044 669.112 856.615 664.302 C 856.662 663.906 857.011 663.614 857.414 663.632 Q 859.854 663.782 862.224 664.282 Q 862.294 664.302 863.095 664.552 Q 864.794 665.072 864.955 662.662 C 864.985 662.202 864.824 661.75 864.509 661.413 C 864.195 661.076 863.755 660.884 863.294 660.882 Q 860.365 660.862 857.754 659.772 Q 856.134 659.082 855.995 657.432 C 855.909 657.132 856.06 656.821 856.384 656.632 Q 858.104 655.132 859.425 651.882 Q 860.634 648.892 861.694 645.572 C 861.873 645.011 862.402 644.632 862.995 644.642 L 866.854 644.692 C 866.965 644.693 867.067 644.749 867.128 644.842 C 867.188 644.934 867.198 645.051 867.155 645.152 Q 864.354 651.352 864.425 652.882 Q 864.585 656.292 865.534 653.092 Q 866.595 649.472 868.815 646.462 C 868.989 646.216 869.266 646.031 869.595 645.942 Q 870.845 645.722 871.815 646.532 C 872.089 646.746 872.217 647.066 872.155 647.382 Q 871.985 650.962 870.395 654.192 C 870.264 654.463 870.307 654.784 870.504 655.012 Q 874.444 659.752 874.375 665.942 C 874.319 666.063 874.341 666.198 874.434 666.306 C 874.526 666.414 874.678 666.483 874.845 666.492 Q 875.185 666.422 875.365 666.072 Q 876.965 662.932 876.925 659.002 Q 876.895 657.062 877.995 655.462 Q 880.125 652.342 882.645 648.682 Q 883.694 647.142 884.914 647.012 Q 886.384 646.862 887.534 648.072 C 887.776 648.299 887.856 648.625 887.745 648.922 Q 886.824 652.752 886.414 656.662 Q 886.284 657.912 886.685 657.172 Q 887.865 654.972 889.215 652.882 Z " fill="rgb(241,104,47)"/><path d=" M 809.675 703.342 Q 813.055 702.932 811.634 704.542 Q 811.405 704.812 810.495 705.472 Q 808.995 706.572 809.224 707.652 C 809.289 707.94 809.501 708.173 809.782 708.266 C 810.063 708.358 810.371 708.296 810.595 708.102 Q 813.824 705.332 815.895 706.202 Q 819.205 707.592 821.425 706.632 Q 823.284 705.832 824.544 705.452 Q 825.824 705.072 827.805 705.492 Q 841.284 708.322 852.425 706.382 Q 868.474 703.582 881.115 710.942 Q 883.294 712.222 887.784 715.742 Q 891.865 718.962 894.465 720.492 Q 902.784 725.402 912.134 728.132 L 912.715 728.632 Q 910.305 733.332 906.675 737.172 Q 897.664 734.762 888.715 732.152 Q 883.715 730.692 874.965 728.852 Q 862.435 726.222 850.544 721.362 Q 842.115 717.922 839.235 716.572 Q 832.315 713.322 824.925 711.382 Q 822.555 710.762 821.675 712.632 Q 821.104 713.842 822.425 714.342 Q 820.754 714.302 820.104 715.672 C 819.988 715.855 819.735 715.94 819.504 715.872 Q 818.965 715.672 819.044 716.582 C 819.085 716.893 818.996 717.207 818.794 717.462 Q 817.724 718.952 818.555 720.792 Q 820.675 725.452 825.925 725.882 Q 831.854 726.372 835.884 727.932 Q 838.574 728.962 839.794 730.692 Q 841.284 732.792 841.134 735.632 Q 834.305 731.032 826.104 730.592 Q 825.574 730.562 826.055 730.802 L 841.884 738.632 Q 858.015 747.102 876.175 749.092 Q 878.034 749.512 886.425 750.632 Q 888.145 750.862 888.925 750.422 Q 887.865 752.752 884.925 752.422 Q 882.065 751.522 880.425 752.132 Q 875.965 753.792 871.275 754.422 Q 867.995 754.862 867.595 754.822 Q 865.815 754.632 864.115 752.942 Q 859.854 748.722 853.985 751.942 Q 851.265 753.442 845.425 760.352 Q 843.805 762.282 842.275 763.172 Q 840.925 763.972 841.194 762.432 Q 842.215 756.552 838.465 752.382 Q 837.425 749.372 834.705 750.262 C 834.38 750.388 834.114 750.595 833.944 750.852 Q 832.824 752.452 831.824 754.132 Q 830.414 756.492 829.474 757.192 Q 827.275 758.802 823.925 758.382 Q 821.074 758.022 819.655 756.252 Q 818.145 754.352 818.765 752.282 Q 819.495 749.892 823.465 750.192 Q 824.815 750.292 826.055 750.852 Q 828.224 751.822 827.595 748.722 C 827.396 747.755 827.889 746.778 828.784 746.362 Q 830.615 745.502 829.395 743.082 Q 829.025 742.352 828.375 741.842 Q 827.254 740.972 826.625 740.092 Q 825.745 738.862 825.205 739.402 Q 824.655 739.972 823.944 741.492 C 823.757 741.888 823.444 742.211 823.055 742.412 Q 821.294 743.302 819.694 744.402 Q 817.555 745.872 816.175 745.752 Q 813.815 745.542 812.835 742.862 C 812.719 742.56 812.756 742.222 812.935 741.952 Q 814.694 739.292 818.315 738.832 C 819.056 738.738 819.64 738.159 819.735 737.422 Q 820.044 735.012 820.104 732.252 Q 820.125 730.932 819.534 730.292 Q 818.634 729.322 817.175 729.882 Q 816.025 730.322 812.425 732.922 Q 811.634 730.242 808.925 729.592 Q 810.944 728.312 811.645 726.252 Q 812.634 723.292 812.884 722.842 Q 813.914 721.002 814.884 719.132 L 816.985 716.652 Q 817.425 716.122 817.485 715.832 Q 817.835 713.902 815.905 713.262 C 815.595 713.191 815.266 713.216 814.974 713.332 Q 813.455 714.032 812.044 714.932 Q 810.354 716.022 809.034 716.162 Q 804.074 716.692 802.835 712.492 Q 801.854 709.162 803.544 706.462 Q 805.395 703.492 809.675 703.342 Z " fill="rgb(241,104,47)"/><path d=" M 920.425 698.842 L 920.884 698.882 Q 920.354 700.452 921.335 701.712 Q 923.065 703.952 921.925 706.592 Q 921.414 706.222 920.965 706.632 Q 912.284 704.382 903.435 702.992 Q 898.194 702.172 894.985 701.392 Q 890.074 700.192 886.675 699.132 Q 871.515 694.432 857.395 692.322 Q 842.245 690.072 827.175 687.342 L 825.965 685.892 Q 825.615 685.462 826.235 685.432 Q 828.655 685.312 830.675 684.092 Q 832.754 684.452 834.425 684.132 Q 840.525 682.952 846.414 682.782 Q 851.845 682.632 858.435 683.132 Q 878.055 684.632 895.025 694.872 Q 895.134 694.932 897.565 696.702 Q 899.615 698.182 902.175 698.622 Q 911.284 700.212 920.425 698.842 Z " fill="rgb(179,61,34)"/><path d=" M 906.675 737.172 Q 906.965 737.582 907.425 737.842 Q 906.585 737.942 906.235 738.692 Q 905.235 740.882 903.215 742.132 Q 901.044 741.252 899.044 740.012 Q 896.944 738.702 894.875 738.012 Q 892.705 737.292 890.625 736.342 C 890.33 736.26 890.004 736.256 889.705 736.332 L 887.925 736.922 Q 880.555 733.822 872.715 732.182 Q 866.534 730.882 860.595 728.752 Q 841.384 721.862 822.425 714.342 Q 821.104 713.842 821.675 712.632 Q 822.555 710.762 824.925 711.382 Q 832.315 713.322 839.235 716.572 Q 842.115 717.922 850.544 721.362 Q 862.435 726.222 874.965 728.852 Q 883.715 730.692 888.715 732.152 Q 897.664 734.762 906.675 737.172 Z " fill="rgb(179,61,34)"/><path d=" M 824.175 681.342 Q 826.854 683.912 830.675 683.422 Q 830.324 683.732 830.675 684.092 Q 828.655 685.312 826.235 685.432 Q 825.615 685.462 825.965 685.892 L 827.175 687.342 Q 821.685 686.872 821.175 692.172 Q 818.354 690.842 815.435 690.882 C 814.456 690.891 813.581 690.28 813.254 689.362 Q 812.384 686.902 814.595 687.292 Q 818.685 688.022 816.175 684.842 Q 814.625 682.092 815.965 679.382 Q 820.425 678.802 824.175 681.342 Z " fill="rgb(242,113,42)"/><path d=" M 826.925 696.672 Q 826.824 697.442 826.205 697.902 Q 824.555 699.162 826.175 700.342 L 819.715 700.382 Q 818.775 698.312 820.235 697.192 Q 822.985 695.102 826.925 696.672 Z " fill="rgb(242,113,42)"/><path d=" M 910.175 678.092 Q 905.025 679.282 900.354 682.022 Q 898.444 683.142 899.034 685.282 Q 900.104 689.112 903.104 691.512 Q 904.944 692.982 909.655 694.272 Q 914.205 695.512 918.634 697.132 Q 919.925 697.612 920.425 698.842 Q 911.284 700.212 902.175 698.622 Q 899.615 698.182 897.565 696.702 Q 895.134 694.932 895.025 694.872 Q 878.055 684.632 858.435 683.132 Q 851.845 682.632 846.414 682.782 Q 840.525 682.952 834.425 684.132 Q 832.754 684.452 830.675 684.092 Q 830.324 683.732 830.675 683.422 Q 833.784 682.472 836.425 680.592 Q 838.284 679.522 839.935 678.152 Q 841.104 677.182 840.925 675.672 L 841.465 674.882 Q 842.345 674.412 841.905 675.842 C 841.854 675.94 841.863 676.055 841.929 676.144 C 841.994 676.234 842.106 676.286 842.224 676.282 Q 844.034 676.052 845.384 674.792 C 845.613 674.587 845.911 674.45 846.235 674.402 Q 848.495 674.212 850.715 673.822 Q 853.315 673.362 855.175 673.272 Q 868.935 672.552 882.664 671.552 Q 890.705 670.972 898.675 672.112 Q 904.664 672.972 909.865 676.942 Q 910.595 677.502 910.175 678.092 Z " fill="rgb(250,170,58)"/><path d=" M 827.175 687.342 Q 842.245 690.072 857.395 692.322 Q 871.515 694.432 886.675 699.132 Q 890.074 700.192 894.985 701.392 Q 898.194 702.172 903.435 702.992 Q 912.284 704.382 920.965 706.632 Q 918.925 713.472 917.145 720.372 Q 916.625 722.422 914.425 721.922 Q 902.275 721.672 892.875 714.422 Q 889.854 712.092 889.784 712.042 Q 884.164 707.952 881.865 706.692 Q 868.095 699.142 853.735 701.692 Q 838.925 704.322 826.175 700.342 Q 824.555 699.162 826.205 697.902 Q 826.824 697.442 826.925 696.672 Q 827.425 696.552 827.115 696.192 Q 824.865 693.612 821.175 692.172 Q 821.685 686.872 827.175 687.342 Z " fill="rgb(250,170,58)"/><path d=" M 822.425 714.342 Q 841.384 721.862 860.595 728.752 Q 866.534 730.882 872.715 732.182 Q 880.555 733.822 887.925 736.922 L 898.784 742.682 C 898.951 742.772 899.069 742.93 899.106 743.113 C 899.142 743.297 899.094 743.487 898.974 743.632 Q 897.534 745.482 895.875 747.582 Q 895.224 748.412 894.175 748.092 Q 890.004 739.622 881.125 740.132 Q 878.495 740.282 877.085 741.602 Q 875.365 743.202 875.215 745.882 L 876.175 749.092 Q 858.015 747.102 841.884 738.632 Q 841.134 737.202 841.134 735.632 Q 841.284 732.792 839.794 730.692 Q 838.574 728.962 835.884 727.932 Q 831.854 726.372 825.925 725.882 Q 820.675 725.452 818.555 720.792 Q 817.724 718.952 818.794 717.462 C 818.996 717.207 819.085 716.893 819.044 716.582 Q 818.965 715.672 819.504 715.872 C 819.735 715.94 819.988 715.855 820.104 715.672 Q 820.754 714.302 822.425 714.342 Z " fill="rgb(250,170,58)"/><path d=" M 897.965 651.882 Q 896.465 652.512 896.555 654.072 C 896.776 654.355 896.626 654.699 896.215 654.852 L 892.275 656.762 C 891.933 656.867 891.555 656.803 891.275 656.594 C 890.995 656.385 890.851 656.06 890.895 655.732 Q 890.985 653.062 889.215 652.882 Q 890.074 650.832 891.504 649.192 Q 892.884 647.612 894.465 647.692 Q 896.625 647.802 897.275 650.562 Q 897.455 651.312 897.965 651.882 Z " fill="rgb(220,78,48)"/><path d=" M 929.884 665.382 Q 930.125 667.642 928.115 669.822 Q 926.164 671.922 923.745 673.442 C 923.524 673.582 923.436 673.86 923.534 674.102 Q 925.074 678.022 922.865 680.572 Q 921.065 682.632 921.345 684.892 C 921.377 685.202 921.567 685.478 921.854 685.632 Q 924.504 687.062 927.425 686.092 Q 931.164 685.822 931.925 689.342 Q 930.395 690.112 931.705 690.702 C 932.006 690.833 932.35 690.851 932.664 690.752 L 937.745 688.942 Q 940.004 688.132 940.634 690.272 Q 943.465 699.962 932.705 698.172 Q 931.324 697.942 932.444 697.102 Q 934.235 695.772 932.944 693.552 C 932.8 693.313 932.482 693.225 932.224 693.352 Q 931.504 693.782 931.134 694.632 L 927.164 696.242 C 926.826 696.373 926.562 696.573 926.414 696.812 Q 924.754 699.362 921.425 698.592 Q 922.245 697.262 921.675 696.092 Q 921.175 690.242 917.175 686.092 Q 917.845 685.512 917.634 684.632 Q 919.254 682.442 918.235 680.262 Q 917.324 678.302 917.425 677.682 Q 917.645 676.152 919.375 675.312 C 919.596 675.237 919.758 675.059 919.799 674.845 C 919.84 674.63 919.755 674.412 919.574 674.272 L 917.655 672.602 C 917.396 672.398 917.232 672.121 917.194 671.822 Q 916.955 670.522 915.425 670.592 Q 918.995 669.702 920.235 666.192 Q 920.705 664.862 923.155 661.052 C 923.315 660.799 923.613 660.652 923.925 660.672 Q 926.134 660.952 926.925 662.632 Q 928.025 664.972 929.884 665.382 Z " fill="rgb(220,78,48)"/><path d=" M 903.215 742.132 Q 901.534 743.482 900.194 745.162 Q 899.645 745.852 900.425 746.422 Q 900.565 748.032 897.335 748.372 C 896.323 748.479 895.431 749.079 894.955 749.972 Q 894.574 750.692 893.215 750.632 Q 893.265 749.152 894.175 748.092 Q 895.224 748.412 895.875 747.582 Q 897.534 745.482 898.974 743.632 C 899.094 743.487 899.142 743.297 899.106 743.113 C 899.069 742.93 898.951 742.772 898.784 742.682 L 887.925 736.922 L 889.705 736.332 C 890.004 736.256 890.33 736.26 890.625 736.342 Q 892.705 737.292 894.875 738.012 Q 896.944 738.702 899.044 740.012 Q 901.044 741.252 903.215 742.132 Z " fill="rgb(220,78,48)"/><path d=" M 910.175 678.092 Q 911.895 678.782 912.175 680.382 Q 912.965 684.842 917.634 684.632 Q 917.845 685.512 917.175 686.092 Q 914.034 685.682 913.185 689.332 C 913.015 689.834 913.213 690.38 913.675 690.682 L 921.675 696.092 Q 922.245 697.262 921.425 698.592 Q 921.004 698.562 920.884 698.882 L 920.425 698.842 Q 919.925 697.612 918.634 697.132 Q 914.205 695.512 909.655 694.272 Q 904.944 692.982 903.104 691.512 Q 900.104 689.112 899.034 685.282 Q 898.444 683.142 900.354 682.022 Q 905.025 679.282 910.175 678.092 Z " fill="rgb(215,106,64)"/><path d=" M 931.925 689.342 Q 931.164 685.822 927.425 686.092 Q 929.925 684.102 932.955 684.052 Q 934.585 684.022 935.685 684.872 Q 937.835 686.532 934.585 688.522 Q 933.354 689.272 931.925 689.342 Z " fill="rgb(215,106,64)"/><path d=" M 921.925 706.592 L 925.675 708.672 Q 926.715 710.182 928.305 711.092 C 928.584 711.217 928.908 711.263 929.224 711.222 Q 933.465 710.402 937.015 712.842 C 937.28 712.992 937.598 713.072 937.925 713.072 Q 938.955 713.022 939.595 713.682 C 940.23 714.318 941.158 714.563 942.025 714.322 Q 944.395 713.662 944.965 715.382 Q 941.384 718.132 938.235 716.322 Q 934.985 714.442 932.335 715.172 C 932.002 715.259 931.744 715.48 931.645 715.762 L 928.884 723.882 Q 927.625 724.302 926.425 723.672 Q 921.884 722.452 917.175 722.422 L 914.425 721.922 Q 916.625 722.422 917.145 720.372 Q 918.925 713.472 920.965 706.632 Q 921.414 706.222 921.925 706.592 Z " fill="rgb(215,106,64)"/><path d=" M 932.525 717.292 Q 933.495 715.652 934.125 717.452 Q 935.634 721.702 932.215 725.222 C 931.997 725.442 931.695 725.588 931.365 725.632 Q 929.485 725.742 930.025 723.402 Q 930.745 720.302 932.525 717.292 Z " fill="rgb(215,106,64)"/><path d=" M 919.675 746.172 Q 922.395 749.862 923.194 754.512 Q 923.485 756.172 924.405 754.762 Q 926.215 751.952 926.845 748.622 C 927.08 748.328 926.99 747.98 926.615 747.732 Q 926.305 747.202 926.425 746.592 L 931.865 748.312 C 932.854 748.645 933.34 749.538 932.974 750.352 Q 932.625 754.192 929.315 754.902 C 928.804 755.013 928.436 755.46 928.425 755.982 Q 928.375 758.892 925.294 759.542 Q 922.675 760.092 922.465 757.422 Q 921.914 750.392 916.175 747.592 Q 914.914 746.752 916.175 746.132 Q 917.645 745.402 919.675 746.172 Z " fill="rgb(215,106,64)"/><path d=" M 901.884 657.382 Q 904.365 662.252 908.074 666.172 Q 910.004 668.202 912.025 668.292 Q 913.845 668.382 915.354 667.392 Q 916.405 666.692 917.324 664.812 Q 918.775 661.802 920.495 658.922 Q 921.784 656.772 924.065 657.812 Q 929.145 660.112 929.884 665.382 Q 928.025 664.972 926.925 662.632 Q 926.134 660.952 923.925 660.672 C 923.613 660.652 923.315 660.799 923.155 661.052 Q 920.705 664.862 920.235 666.192 Q 918.995 669.702 915.425 670.592 Q 914.115 671.102 911.615 670.442 Q 904.565 668.592 901.235 663.322 Q 899.405 660.422 901.884 657.382 Z " fill="rgb(191,57,35)"/><path d=" M 944.965 715.382 Q 944.395 713.662 942.025 714.322 C 941.158 714.563 940.23 714.318 939.595 713.682 Q 938.955 713.022 937.925 713.072 C 937.598 713.072 937.28 712.992 937.015 712.842 Q 933.465 710.402 929.224 711.222 C 928.908 711.263 928.584 711.217 928.305 711.092 Q 926.715 710.182 925.675 708.672 L 929.175 707.342 Q 934.555 707.472 939.914 707.052 Q 942.585 706.852 943.854 707.422 Q 945.815 708.322 946.824 710.462 Q 948.495 713.962 944.965 715.382 Z " fill="rgb(191,57,35)"/><path d=" M 814.884 719.132 Q 813.914 721.002 812.884 722.842 Q 812.634 723.292 811.645 726.252 Q 810.944 728.312 808.925 729.592 Q 806.474 731.042 804.884 728.882 Q 806.185 726.302 808.525 725.222 Q 809.995 724.542 810.875 723.182 Q 812.585 720.542 814.884 719.132 Z " fill="rgb(191,57,35)"/><path d=" M 926.425 723.672 Q 927.625 724.302 928.884 723.882 Q 929.495 729.502 934.675 729.292 Q 935.025 729.282 937.685 729.062 Q 939.185 728.932 940.675 728.592 Q 940.175 734.212 934.675 735.672 L 929.565 735.442 Q 929.145 735.422 928.875 735.272 Q 927.115 734.302 926.675 733.172 Q 926.944 732.192 926.444 731.292 C 926.251 731.025 926.203 730.7 926.315 730.402 Q 927.205 727.052 926.425 723.672 Z " fill="rgb(191,57,35)"/><path d=" M 923.925 745.842 L 926.425 746.592 Q 926.305 747.202 926.615 747.732 C 926.99 747.98 927.08 748.328 926.845 748.622 Q 926.215 751.952 924.405 754.762 Q 923.485 756.172 923.194 754.512 Q 922.395 749.862 919.675 746.172 L 923.925 745.842 Z " fill="rgb(191,57,35)"/><path d=" M 912.715 728.632 Q 919.935 730.192 926.675 733.172 Q 927.115 734.302 928.875 735.272 Q 929.145 735.422 929.565 735.442 L 934.675 735.672 Q 933.815 735.862 933.134 736.382 Q 931.534 735.592 929.925 736.172 Q 924.925 736.162 921.074 738.912 Q 919.544 740.012 917.444 739.632 L 907.425 737.842 Q 906.965 737.582 906.675 737.172 Q 910.305 733.332 912.715 728.632 Z " fill="rgb(223,62,42)"/><path d=" M 900.425 746.422 Q 907.455 748.582 913.884 752.132 Q 915.824 755.632 914.145 759.192 C 913.959 759.478 913.927 759.816 914.055 760.122 Q 914.925 762.842 917.865 763.162 C 918.186 763.199 918.46 763.382 918.585 763.642 Q 919.965 766.652 917.125 768.812 Q 914.315 770.952 912.694 768.802 Q 911.145 766.752 910.664 766.352 Q 909.044 765.002 907.465 763.612 Q 903.585 760.182 905.004 755.672 Q 905.585 753.832 903.995 754.942 Q 901.754 756.502 902.794 759.082 Q 903.784 761.542 904.905 763.942 Q 905.815 765.922 905.444 767.082 Q 904.875 768.832 902.474 768.842 C 902.143 768.812 901.831 768.696 901.585 768.512 Q 898.175 765.822 895.865 762.112 C 895.722 761.881 895.41 761.771 895.125 761.852 Q 894.384 762.212 894.485 763.192 Q 894.735 765.612 893.164 764.822 C 892.728 764.65 892.483 764.394 892.504 764.132 Q 891.854 763.062 890.705 762.602 Q 890.194 762.402 890.485 762.872 Q 892.455 766.012 896.365 768.692 Q 896.884 769.052 899.055 771.002 Q 900.675 772.472 901.034 773.832 Q 901.815 776.732 898.865 778.402 C 898.581 778.548 898.251 778.594 897.935 778.532 Q 891.985 777.192 889.474 771.502 Q 888.294 768.832 888.895 771.792 Q 889.444 774.502 889.735 777.262 Q 890.015 780.022 888.765 781.702 Q 886.125 785.272 881.145 783.552 C 880.872 783.459 880.716 783.178 880.784 782.902 Q 881.095 781.442 880.925 780.882 Q 879.294 775.552 878.175 767.882 Q 878.065 767.162 877.585 767.352 C 877.186 767.505 877.002 767.83 877.145 768.132 Q 876.835 772.842 876.875 777.562 Q 876.905 780.922 875.715 782.402 Q 873.995 784.542 870.675 784.672 Q 868.224 785.232 867.235 783.322 Q 865.495 779.932 865.365 778.942 L 863.465 764.632 Q 861.534 762.342 861.254 759.332 C 861.381 759.277 861.431 759.187 861.381 759.102 C 861.331 759.017 861.191 758.954 861.025 758.942 Q 860.905 758.942 860.805 759.082 Q 860.735 759.172 860.724 759.322 Q 859.944 767.662 857.384 775.632 Q 853.104 774.892 852.485 770.322 Q 852.044 766.982 852.134 765.632 Q 851.824 764.552 851.085 763.692 C 850.859 763.447 850.732 763.14 850.724 762.822 Q 850.574 760.452 849.315 761.562 C 848.558 762.233 848.101 763.175 848.044 764.182 Q 847.705 769.872 844.125 771.112 Q 841.004 772.182 837.685 771.832 Q 833.854 771.422 832.745 768.492 C 832.389 767.635 832.489 766.668 833.015 765.892 L 838.865 756.282 C 839.201 755.753 839.213 755.092 838.895 754.552 Q 838.245 753.312 838.465 752.382 Q 842.215 756.552 841.194 762.432 Q 840.925 763.972 842.275 763.172 Q 843.805 762.282 845.425 760.352 Q 851.265 753.442 853.985 751.942 Q 859.854 748.722 864.115 752.942 Q 865.815 754.632 867.595 754.822 Q 867.995 754.862 871.275 754.422 Q 875.965 753.792 880.425 752.132 Q 882.065 751.522 884.925 752.422 Q 885.854 754.622 888.375 754.122 Q 891.585 753.492 893.215 750.632 Q 894.574 750.692 894.955 749.972 C 895.431 749.079 896.323 748.479 897.335 748.372 Q 900.565 748.032 900.425 746.422 Z " fill="rgb(223,62,42)"/><path d=" M 917.175 722.422 Q 921.884 722.452 926.425 723.672 Q 927.205 727.052 926.315 730.402 C 926.203 730.7 926.251 731.025 926.444 731.292 Q 926.944 732.192 926.675 733.172 Q 919.935 730.192 912.715 728.632 L 912.134 728.132 Q 913.155 723.932 917.175 722.422 Z " fill="rgb(158,39,37)"/><path d=" M 863.465 764.632 L 865.365 778.942 Q 865.495 779.932 867.235 783.322 Q 868.224 785.232 870.675 784.672 Q 864.095 786.422 862.925 779.882 Q 862.375 776.792 862.485 766.942 C 862.426 766.661 862.592 766.379 862.914 766.212 Q 863.615 765.692 863.465 764.632 Z " fill="rgb(158,39,37)"/><path d=" M 817.925 677.092 Q 814.995 676.722 815.965 679.382 Q 814.625 682.092 816.175 684.842 Q 812.645 685.032 812.925 680.882 Q 813.265 675.862 817.925 677.092 Z " fill="rgb(147,47,39)"/><path d=" M 931.134 694.632 Q 930.565 697.752 929.115 700.572 Q 928.284 702.172 929.175 707.342 L 925.675 708.672 L 921.925 706.592 Q 923.065 703.952 921.335 701.712 Q 920.354 700.452 920.884 698.882 Q 921.004 698.562 921.425 698.592 Q 924.754 699.362 926.414 696.812 C 926.562 696.573 926.826 696.373 927.164 696.242 L 931.134 694.632 Z " fill="rgb(147,47,39)"/><path d=" M 929.925 736.172 Q 928.715 737.962 926.625 738.612 Q 923.585 739.552 920.965 742.372 C 920.767 742.571 920.673 742.842 920.705 743.114 C 920.738 743.386 920.895 743.63 921.134 743.782 L 923.925 745.842 L 919.675 746.172 Q 917.645 745.402 916.175 746.132 Q 914.914 746.752 916.175 747.592 Q 913.485 748.932 913.884 752.132 Q 907.455 748.582 900.425 746.422 Q 899.645 745.852 900.194 745.162 Q 901.534 743.482 903.215 742.132 Q 905.235 740.882 906.235 738.692 Q 906.585 737.942 907.425 737.842 L 917.444 739.632 Q 919.544 740.012 921.074 738.912 Q 924.925 736.162 929.925 736.172 Z " fill="rgb(147,47,39)"/><path d=" M 852.134 765.632 Q 852.044 766.982 852.485 770.322 Q 853.104 774.892 857.384 775.632 Q 856.754 777.422 854.615 776.692 Q 852.685 776.042 851.794 774.652 Q 851.115 773.592 851.395 771.492 Q 851.784 768.562 852.134 765.632 Z " fill="rgb(147,47,39)"/><path d=" M 817.925 677.092 Q 823.765 678.972 829.865 678.252 C 830.195 678.232 830.497 678.391 830.585 678.632 Q 830.745 679.272 829.794 679.802 C 829.078 680.202 828.251 680.363 827.435 680.262 Q 824.765 679.922 824.175 681.342 Q 820.425 678.802 815.965 679.382 Q 814.995 676.722 817.925 677.092 Z " fill="rgb(163,74,42)"/><path d=" M 894.175 748.092 Q 893.265 749.152 893.215 750.632 Q 891.585 753.492 888.375 754.122 Q 885.854 754.622 884.925 752.422 Q 887.865 752.752 888.925 750.422 Q 891.604 749.262 891.625 747.132 Q 891.645 745.542 889.925 744.002 Q 885.455 740.012 879.675 741.132 Q 876.205 741.802 875.215 745.882 Q 875.365 743.202 877.085 741.602 Q 878.495 740.282 881.125 740.132 Q 890.004 739.622 894.175 748.092 Z " fill="rgb(163,74,42)"/><path d=" M 826.544 743.262 Q 825.595 742.882 825.185 742.152 C 825.111 742.031 825.096 741.885 825.144 741.752 C 825.192 741.619 825.298 741.513 825.435 741.462 Q 826.835 740.862 827.015 742.912 C 827.028 743.032 826.976 743.149 826.88 743.221 C 826.783 743.293 826.655 743.309 826.544 743.262 L 826.544 743.262 Z " fill="rgb(163,74,42)"/><path d=" M 917.175 686.092 Q 921.175 690.242 921.675 696.092 L 913.675 690.682 C 913.213 690.38 913.015 689.834 913.185 689.332 Q 914.034 685.682 917.175 686.092 Z " fill="rgb(232,147,63)"/><path d=" M 804.884 728.882 Q 806.474 731.042 808.925 729.592 Q 811.634 730.242 812.425 732.922 Q 808.625 735.272 805.675 731.382 Q 804.565 729.912 804.884 728.882 Z " fill="rgb(232,147,63)"/><path d=" M 841.134 735.632 Q 841.134 737.202 841.884 738.632 L 826.055 730.802 Q 825.574 730.562 826.104 730.592 Q 834.305 731.032 841.134 735.632 Z " fill="rgb(232,147,63)"/><path d=" M 888.925 750.422 Q 888.145 750.862 886.425 750.632 Q 878.034 749.512 876.175 749.092 L 875.215 745.882 Q 876.205 741.802 879.675 741.132 Q 885.455 740.012 889.925 744.002 Q 891.645 745.542 891.625 747.132 Q 891.604 749.262 888.925 750.422 Z " fill="rgb(232,147,63)"/><path d=" M 933.134 736.382 Q 933.815 735.862 934.675 735.672 Q 940.175 734.212 940.675 728.592 Q 941.895 728.052 942.835 728.552 Q 943.604 728.962 943.865 730.152 Q 944.995 735.352 939.585 737.242 Q 936.175 738.432 933.134 736.382 Z " fill="rgb(189,114,80)"/><path d=" M 875.936 718.597 C 874.214 721.062 870.425 722.186 867.003 721.246 C 864.874 720.815 863.101 719.671 862.171 718.127 C 861.24 716.583 861.248 714.801 862.193 713.267 C 863.915 710.802 867.704 709.678 871.126 710.618 C 873.255 711.049 875.028 712.193 875.958 713.737 C 876.889 715.281 876.881 717.063 875.936 718.597 Z " fill="rgb(191,57,35)"/><path d=" M 906.335 690.132 C 905.414 689.763 904.644 689.098 904.145 688.242 Q 901.694 684.112 906.375 683.302 C 906.782 683.235 907.199 683.348 907.515 683.612 Q 910.294 685.942 908.455 689.122 Q 907.574 690.632 906.335 690.132 Z " fill="rgb(232,147,63)"/><path d=" M 865.222 714.452 C 865.7 712.764 868.114 711.966 870.61 712.672 C 873.106 713.378 874.745 715.323 874.267 717.012 C 873.789 718.701 871.375 719.498 868.879 718.792 C 866.383 718.086 864.744 716.141 865.222 714.452 Z " fill="rgb(242,113,42)"/></g></svg>