<?xml version="1.0" encoding="UTF-8" standalone="no"?><!-- Generator: Gravit.io --><svg xmlns="http://www.w3.org/2000/svg" xmlns:xlink="http://www.w3.org/1999/xlink" style="isolation:isolate" viewBox="184.539 228.068 145.47 130.313" width="145.47pt" height="130.313pt"><defs><clipPath id="_clipPath_lyIWrNOL6lEd7nUKN6su6QqDrEI1QSrY"><rect x="184.539" y="228.068" width="145.47" height="130.313"/></clipPath></defs><g clip-path="url(#_clipPath_lyIWrNOL6lEd7nUKN6su6QqDrEI1QSrY)"><g><path d=" M 266.929 238.033 Q 264.379 239.583 261.489 239.743 C 261.181 239.735 260.903 239.573 260.769 239.323 Q 259.469 237.023 256.679 237.953 Q 254.669 238.623 254.429 240.823 Q 254.109 243.713 251.929 241.323 Q 249.529 238.703 247.849 241.573 Q 247.619 241.973 247.179 242.243 Q 246.009 242.983 245.639 244.323 Q 244.769 243.033 245.189 241.603 C 245.287 241.301 245.273 240.976 245.149 240.683 Q 244.909 240.053 244.929 239.363 Q 246.739 238.043 248.929 237.533 L 249.179 237.933 C 249.329 238.157 249.613 238.269 249.889 238.213 Q 251.449 237.843 253.029 237.653 Q 254.439 237.483 256.149 237.063 Q 259.559 236.233 263.429 236.573 Q 265.609 236.763 266.929 238.033 Z " fill="rgb(142,190,75)"/><path d=" M 281.429 237.783 Q 295.789 241.283 306.679 251.283 L 294.719 261.323 Q 293.569 257.413 291.219 254.073 Q 287.719 247.453 283.489 241.263 Q 282.349 239.593 281.719 239.323 Q 281.689 238.743 281.179 238.533 Q 281.029 238.033 281.429 237.783 Z " fill="rgb(52,61,79)"/><path d=" M 266.929 238.033 Q 269.339 239.523 267.869 241.763 Q 265.969 244.643 261.679 245.613 Q 255.289 247.103 247.179 245.823 Q 245.699 245.593 245.639 244.573 L 245.639 244.323 Q 246.009 242.983 247.179 242.243 Q 247.619 241.973 247.849 241.573 Q 249.529 238.703 251.929 241.323 Q 254.109 243.713 254.429 240.823 Q 254.669 238.623 256.679 237.953 Q 259.469 237.023 260.769 239.323 C 260.903 239.573 261.181 239.735 261.489 239.743 Q 264.379 239.583 266.929 238.033 Z " fill="rgb(182,219,96)"/><path d=" M 281.179 238.533 Q 281.689 238.743 281.719 239.323 Q 281.649 241.433 279.939 242.593 Q 276.649 244.813 276.269 241.813 Q 276.079 240.243 277.019 239.183 Q 278.539 237.483 281.179 238.533 Z " fill="rgb(182,219,96)"/><path d=" M 273.179 243.363 Q 276.179 242.993 277.269 247.083 Q 277.699 248.733 276.989 250.273 Q 276.709 250.883 274.929 250.863 Q 270.709 248.163 273.179 243.363 Z " fill="rgb(182,219,96)"/><path d=" M 311.679 258.033 Q 304.349 263.153 297.679 269.113 Q 296.349 268.053 296.389 266.323 L 296.929 265.613 L 309.439 254.973 C 309.574 254.863 309.753 254.818 309.927 254.851 C 310.1 254.884 310.248 254.991 310.329 255.143 L 311.679 258.033 Z " fill="rgb(90,91,71)"/><path d=" M 311.179 246.783 Q 311.509 247.103 311.679 247.533 L 306.679 251.283 Q 295.789 241.283 281.429 237.783 Q 276.479 235.873 271.179 235.533 Q 259.769 233.743 248.929 237.533 Q 246.739 238.043 244.929 239.363 L 238.929 240.863 Q 238.229 240.423 237.619 240.753 Q 230.329 244.663 223.679 249.573 Q 220.709 251.773 221.429 255.783 Q 217.129 259.413 213.929 264.033 Q 211.879 265.763 211.139 268.323 Q 208.509 271.493 209.219 275.573 L 209.179 276.783 Q 206.249 276.213 206.389 273.333 C 206.403 273.006 206.32 272.683 206.149 272.403 Q 204.929 270.433 206.749 269.313 C 207.101 269.141 207.333 268.894 207.399 268.623 Q 208.469 266.193 205.719 265.573 Q 217.439 242.573 240.239 233.063 Q 249.429 229.223 259.559 228.343 Q 288.909 225.803 311.179 246.783 Z " fill="rgb(168,187,156)"/><path d=" M 317.969 254.823 L 322.139 260.823 Q 331.159 278.573 329.319 297.723 Q 328.379 307.533 324.379 317.003 Q 315.379 338.283 295.249 349.563 Q 286.219 354.623 276.679 356.793 Q 256.419 361.383 236.509 352.713 Q 221.489 346.163 211.829 332.943 Q 197.209 312.933 198.929 288.573 Q 199.119 285.873 198.889 284.823 Q 201.369 280.913 199.469 276.573 Q 202.859 277.073 205.219 279.573 Q 206.359 281.133 206.619 282.923 Q 206.659 283.223 206.169 286.143 Q 205.749 288.593 208.179 290.033 Q 207.449 290.463 207.909 292.193 C 207.978 292.44 207.915 292.706 207.743 292.897 C 207.57 293.087 207.312 293.176 207.059 293.133 Q 204.319 292.693 205.639 294.573 Q 206.059 304.393 209.469 313.573 Q 212.369 322.053 217.799 329.173 C 217.813 329.193 217.837 329.204 217.862 329.202 C 217.887 329.2 217.908 329.185 217.919 329.163 L 217.969 329.073 Q 219.319 332.133 222.389 333.233 C 222.679 333.339 222.872 333.595 222.879 333.883 Q 223.029 335.583 224.969 335.823 L 224.969 336.073 Q 229.379 341.693 236.119 345.133 Q 244.679 349.513 252.949 352.003 Q 260.429 354.253 268.179 353.283 L 274.429 352.113 L 278.679 351.283 L 283.929 349.613 Q 300.659 343.643 311.469 329.573 Q 320.029 318.993 322.679 305.613 Q 327.949 284.153 317.139 265.073 L 314.679 261.533 Q 314.779 260.213 313.679 259.783 L 313.719 259.573 L 317.969 254.823 Z " fill="rgb(168,187,156)"/><path d=" M 313.719 259.573 L 313.679 259.783 Q 307.069 267.463 300.739 272.133 Q 298.739 273.613 298.139 274.573 Q 297.729 275.553 296.679 275.783 L 281.679 285.113 Q 276.519 286.193 271.929 288.863 Q 270.489 288.113 271.389 286.573 Q 286.129 280.213 297.679 269.113 Q 304.349 263.153 311.679 258.033 Q 313.459 257.663 313.719 259.573 Z " fill="rgb(242,220,131)"/><path d=" M 328.719 249.573 Q 323.719 250.973 320.719 255.153 C 320.538 255.398 320.538 255.727 320.719 255.973 Q 321.679 257.403 321.839 259.093 C 321.74 259.268 321.849 259.46 322.099 259.553 Q 322.249 259.623 322.429 259.613 Q 322.079 260.153 322.139 260.823 L 317.969 254.823 Q 315.389 250.683 311.679 247.533 Q 311.509 247.103 311.179 246.783 Q 315.269 242.883 320.119 240.013 Q 323.489 238.013 326.329 238.233 Q 330.549 238.563 329.929 242.313 L 328.719 249.573 Z " fill="rgb(171,122,113)"/><path d=" M 205.179 266.283 L 202.819 271.903 C 202.719 272.142 202.437 272.265 202.179 272.183 Q 200.149 271.283 198.189 270.763 Q 197.249 270.513 196.649 270.663 Q 195.539 270.933 195.559 272.043 Q 195.579 272.863 196.379 273.773 Q 197.749 275.343 199.469 276.573 Q 201.369 280.913 198.889 284.823 Q 190.439 276.563 185.409 265.863 Q 182.759 260.213 188.179 258.073 Q 190.549 257.133 194.489 258.763 Q 200.699 261.333 205.179 266.283 Z " fill="rgb(171,122,113)"/><path d=" M 313.679 259.783 Q 314.779 260.213 314.679 261.533 Q 313.279 261.783 312.369 263.263 Q 311.639 264.433 309.679 266.033 Q 305.589 270.653 300.529 274.223 C 300.245 274.402 300.077 274.693 300.079 275.003 Q 299.959 277.593 302.179 279.113 Q 302.149 279.323 301.929 279.363 L 300.469 280.073 L 298.139 274.573 Q 298.739 273.613 300.739 272.133 Q 307.069 267.463 313.679 259.783 Z " fill="rgb(171,122,113)"/><path d=" M 294.639 261.573 L 296.929 265.613 L 296.389 266.323 Q 287.819 271.613 279.199 276.813 Q 264.799 285.493 248.429 289.283 Q 248.639 288.763 249.119 288.593 C 249.203 288.571 249.268 288.507 249.288 288.426 C 249.309 288.345 249.283 288.26 249.219 288.203 Q 248.469 287.463 248.679 286.073 Q 248.849 284.923 247.429 285.283 Q 268.989 279.993 286.679 266.613 L 294.639 261.573 Z " fill="rgb(247,244,117)"/><path d=" M 314.679 261.533 L 317.139 265.073 L 309.719 270.573 Q 309.609 268.713 310.309 266.983 Q 310.749 265.893 309.679 266.033 Q 311.639 264.433 312.369 263.263 Q 313.279 261.783 314.679 261.533 Z " fill="rgb(189,153,136)"/><path d=" M 273.969 269.823 Q 278.119 269.093 280.619 267.763 Q 283.759 266.083 286.679 266.613 Q 268.989 279.993 247.429 285.283 L 237.429 286.783 Q 235.559 283.163 235.529 279.173 Q 235.519 278.083 236.459 275.533 Q 237.219 273.473 237.159 270.803 C 237.154 270.515 237.003 270.25 236.757 270.1 C 236.512 269.95 236.207 269.936 235.949 270.063 Q 233.069 271.453 229.969 270.823 Q 228.939 269.913 227.799 270.283 Q 226.619 270.663 226.499 270.693 Q 224.599 271.103 223.199 272.313 Q 221.829 273.503 221.449 275.353 Q 220.569 279.683 225.929 280.533 Q 224.479 280.953 222.969 280.573 Q 219.349 277.393 217.869 277.133 Q 215.819 276.783 214.989 278.653 C 214.843 278.905 214.586 279.084 214.285 279.142 C 213.984 279.2 213.67 279.131 213.429 278.953 L 209.219 275.573 Q 208.509 271.493 211.139 268.323 Q 211.589 270.263 213.369 270.483 C 213.696 270.481 214.007 270.369 214.229 270.173 Q 220.009 264.823 224.239 262.883 Q 226.679 261.773 229.539 263.243 Q 231.719 264.373 231.749 264.383 Q 237.139 266.573 243.179 265.273 Q 244.909 264.893 246.069 266.233 Q 247.569 267.963 248.639 269.503 Q 250.509 272.223 251.119 272.833 Q 254.439 276.193 259.129 277.063 Q 261.399 277.483 263.149 276.723 Q 265.089 275.883 266.469 274.123 Q 268.449 271.633 271.639 273.073 C 271.958 273.197 272.318 273.183 272.626 273.034 C 272.934 272.885 273.161 272.615 273.249 272.293 L 273.969 269.823 Z " fill="rgb(135,169,34)"/><path d=" M 328.719 249.573 Q 326.289 255.033 322.429 259.613 Q 322.249 259.623 322.099 259.553 C 321.849 259.46 321.74 259.268 321.839 259.093 Q 321.679 257.403 320.719 255.973 C 320.538 255.727 320.538 255.398 320.719 255.153 Q 323.719 250.973 328.719 249.573 Z " fill="rgb(224,161,117)"/><path d=" M 309.679 266.033 Q 310.749 265.893 310.309 266.983 Q 309.609 268.713 309.719 270.573 Q 307.959 276.643 302.179 279.113 Q 299.959 277.593 300.079 275.003 C 300.077 274.693 300.245 274.402 300.529 274.223 Q 305.589 270.653 309.679 266.033 Z " fill="rgb(224,161,117)"/><path d=" M 296.389 266.323 Q 296.349 268.053 297.679 269.113 Q 286.129 280.213 271.389 286.573 Q 259.049 292.103 246.149 296.173 C 245.841 296.241 245.507 296.223 245.219 296.123 L 241.679 294.033 L 241.329 293.583 Q 240.979 293.113 240.639 292.963 Q 239.179 292.323 240.679 290.863 L 248.429 289.283 Q 264.799 285.493 279.199 276.813 Q 287.819 271.613 296.389 266.323 Z " fill="rgb(150,186,50)"/><path d=" M 229.969 270.823 Q 232.849 274.053 232.639 278.323 L 228.679 280.783 L 225.929 280.533 Q 220.569 279.683 221.449 275.353 Q 221.829 273.503 223.199 272.313 Q 224.599 271.103 226.499 270.693 Q 226.619 270.663 227.799 270.283 Q 228.939 269.913 229.969 270.823 Z " fill="rgb(248,110,32)"/><path d=" M 298.139 274.573 L 300.469 280.073 Q 299.749 280.883 298.679 281.113 Q 298.279 279.343 297.769 277.623 Q 297.739 277.553 297.599 276.633 Q 297.479 275.833 296.679 275.783 Q 297.729 275.553 298.139 274.573 Z " fill="rgb(232,175,102)"/><path d=" M 237.429 286.783 L 228.429 286.283 Q 228.449 285.483 228.149 284.773 C 228.087 284.524 227.83 284.308 227.459 284.193 L 225.119 283.293 C 224.757 283.141 224.54 282.874 224.549 282.593 Q 224.119 281.343 222.969 280.573 Q 224.479 280.953 225.929 280.533 L 228.679 280.783 Q 232.499 282.303 232.639 278.323 Q 232.849 274.053 229.969 270.823 Q 233.069 271.453 235.949 270.063 C 236.207 269.936 236.512 269.95 236.757 270.1 C 237.003 270.25 237.154 270.515 237.159 270.803 Q 237.219 273.473 236.459 275.533 Q 235.519 278.083 235.529 279.173 Q 235.559 283.163 237.429 286.783 Z " fill="rgb(138,133,47)"/><path d=" M 209.219 275.573 L 213.429 278.953 C 213.67 279.131 213.984 279.2 214.285 279.142 C 214.586 279.084 214.843 278.905 214.989 278.653 Q 215.819 276.783 217.869 277.133 Q 219.349 277.393 222.969 280.573 Q 224.119 281.343 224.549 282.593 C 224.54 282.874 224.757 283.141 225.119 283.293 L 227.459 284.193 C 227.83 284.308 228.087 284.524 228.149 284.773 Q 228.449 285.483 228.429 286.283 Q 221.579 285.373 215.679 281.783 L 209.179 276.783 L 209.219 275.573 Z " fill="rgb(138,133,47)"/><path d=" M 301.929 279.363 Q 301.349 281.793 301.739 283.263 Q 302.599 286.403 300.489 289.633 Q 299.409 291.303 300.139 294.073 L 299.969 294.073 Q 296.109 292.093 292.009 290.683 Q 290.719 290.233 289.629 289.543 Q 288.499 288.823 287.369 288.133 Q 286.319 288.133 286.389 287.073 L 298.679 281.113 Q 299.749 280.883 300.469 280.073 L 301.929 279.363 Z " fill="rgb(93,126,44)"/><path d=" M 205.219 279.573 L 213.389 285.073 Q 220.689 290.313 230.179 290.823 Q 236.439 291.163 240.679 290.863 Q 239.179 292.323 240.639 292.963 Q 240.979 293.113 241.329 293.583 L 241.679 294.033 Q 239.809 294.103 238.389 295.323 Q 230.039 295.323 221.849 293.713 Q 221.059 293.553 219.869 293.623 Q 218.739 293.693 217.849 293.443 C 217.149 293.243 216.402 293.286 215.729 293.563 Q 213.569 294.433 214.429 295.283 L 212.219 295.573 Q 212.609 294.423 212.309 293.363 Q 212.059 292.493 210.999 291.773 Q 209.629 290.833 208.179 290.033 Q 205.749 288.593 206.169 286.143 Q 206.659 283.223 206.619 282.923 Q 206.359 281.133 205.219 279.573 Z " fill="rgb(171,165,82)"/><path d=" M 215.679 281.783 Q 221.579 285.373 228.429 286.283 L 237.429 286.783 L 247.429 285.283 Q 248.849 284.923 248.679 286.073 Q 248.469 287.463 249.219 288.203 C 249.283 288.26 249.309 288.345 249.288 288.426 C 249.268 288.507 249.203 288.571 249.119 288.593 Q 248.639 288.763 248.429 289.283 L 240.679 290.863 Q 236.439 291.163 230.179 290.823 Q 220.689 290.313 213.389 285.073 Q 213.399 282.573 215.679 281.783 Z " fill="rgb(242,235,144)"/><path d=" M 205.719 265.573 Q 208.469 266.193 207.399 268.623 C 207.333 268.894 207.101 269.141 206.749 269.313 Q 204.929 270.433 206.149 272.403 C 206.32 272.683 206.403 273.006 206.389 273.333 Q 206.249 276.213 209.179 276.783 L 215.679 281.783 Q 213.399 282.573 213.389 285.073 L 205.219 279.573 Q 202.859 277.073 199.469 276.573 Q 197.749 275.343 196.379 273.773 Q 195.579 272.863 195.559 272.043 Q 195.539 270.933 196.649 270.663 Q 197.249 270.513 198.189 270.763 Q 200.149 271.283 202.179 272.183 C 202.437 272.265 202.719 272.142 202.819 271.903 L 205.179 266.283 Q 205.539 266.023 205.719 265.573 Z " fill="rgb(222,208,143)"/><path d=" M 281.679 285.113 Q 279.449 287.773 282.229 289.343 Q 282.429 289.453 283.169 289.493 Q 283.739 289.533 283.719 290.323 L 283.679 290.533 Q 281.409 291.533 279.869 294.263 Q 279.509 294.903 277.639 297.073 L 276.469 297.073 Q 273.819 295.013 272.049 292.183 C 272.045 292.012 271.828 291.86 271.519 291.813 L 271.179 291.863 Q 270.109 291.043 268.679 291.283 Q 269.919 289.543 271.929 288.863 Q 276.519 286.193 281.679 285.113 Z " fill="rgb(222,208,143)"/><path d=" M 271.389 286.573 Q 270.489 288.113 271.929 288.863 Q 269.919 289.543 268.679 291.283 Q 253.459 296.503 250.429 297.323 Q 248.079 297.953 247.389 298.823 Q 247.099 299.083 246.719 299.073 Q 246.939 297.513 245.739 297.883 Q 242.499 298.883 239.889 298.573 Q 238.779 297.113 238.389 295.323 Q 239.809 294.103 241.679 294.033 L 245.219 296.123 C 245.507 296.223 245.841 296.241 246.149 296.173 Q 259.049 292.103 271.389 286.573 Z " fill="rgb(220,234,96)"/><path d=" M 208.179 290.033 Q 209.629 290.833 210.999 291.773 Q 212.059 292.493 212.309 293.363 Q 212.609 294.423 212.219 295.573 Q 211.369 297.523 209.179 297.363 Q 207.029 296.443 205.639 294.573 Q 204.319 292.693 207.059 293.133 C 207.312 293.176 207.57 293.087 207.743 292.897 C 207.915 292.706 207.978 292.44 207.909 292.193 Q 207.449 290.463 208.179 290.033 Z " fill="rgb(214,206,162)"/><path d=" M 232.639 278.323 Q 232.499 282.303 228.679 280.783 L 232.639 278.323 Z " fill="rgb(182,96,85)"/><path d=" M 238.389 295.323 Q 238.779 297.113 239.889 298.573 L 242.929 304.363 L 242.929 304.533 Q 241.839 304.813 241.549 304.243 C 241.175 303.527 240.429 303.072 239.609 303.063 L 230.679 303.033 L 225.929 301.783 L 214.429 295.283 Q 213.569 294.433 215.729 293.563 C 216.402 293.286 217.149 293.243 217.849 293.443 Q 218.739 293.693 219.869 293.623 Q 221.059 293.553 221.849 293.713 Q 230.039 295.323 238.389 295.323 Z " fill="rgb(185,166,97)"/><path d=" M 299.969 294.073 L 300.139 294.073 Q 300.569 294.673 301.219 295.073 Q 300.239 296.813 300.429 298.773 C 300.412 299.083 300.563 299.386 300.849 299.613 Q 302.319 301.093 303.169 302.973 Q 303.459 303.603 303.389 304.213 Q 303.199 305.953 302.029 304.923 C 301.588 304.696 301.414 304.377 301.569 304.083 Q 301.039 302.283 299.239 302.143 C 298.897 302.183 298.588 302.3 298.369 302.473 Q 297.219 303.413 297.389 301.573 L 299.969 294.073 Z " fill="rgb(83,122,119)"/><path d=" M 296.179 307.783 Q 293.289 313.923 289.219 319.323 L 287.639 313.073 L 287.639 309.573 Q 288.619 306.483 287.549 303.593 C 287.446 303.295 287.236 303.033 286.949 302.843 Q 282.839 300.063 278.179 298.283 L 277.639 297.073 Q 279.509 294.903 279.869 294.263 Q 281.409 291.533 283.679 290.533 Q 284.709 290.353 285.399 291.163 C 285.571 291.37 285.86 291.478 286.149 291.443 Q 288.129 290.943 289.709 291.673 Q 291.019 292.283 291.799 294.203 Q 293.379 298.103 293.929 302.323 Q 294.099 303.603 296.179 307.783 Z " fill="rgb(106,136,53)"/><path d=" M 225.929 301.783 L 230.679 303.033 Q 230.259 303.443 230.429 304.033 Q 224.469 301.283 224.889 307.323 Q 220.379 307.943 217.509 304.713 C 217.343 304.506 217.035 304.367 216.689 304.343 Q 215.979 304.483 215.679 305.283 Q 213.989 304.603 212.719 305.823 Q 212.719 301.403 210.179 297.863 Q 212.189 296.393 214.429 298.323 Q 218.919 302.193 225.929 301.783 Z " fill="rgb(106,136,53)"/><path d=" M 291.219 254.073 Q 293.569 257.413 294.719 261.323 L 294.639 261.573 L 286.679 266.613 Q 283.759 266.083 280.619 267.763 Q 278.119 269.093 273.969 269.823 L 274.479 263.463 C 274.508 262.513 275.147 261.654 276.139 261.233 L 291.219 254.073 Z " fill="rgb(123,157,40)"/><path d=" M 276.469 297.073 L 277.639 297.073 L 278.179 298.283 Q 277.869 298.293 277.559 298.333 Q 277.249 298.373 276.989 298.583 Q 271.639 302.843 267.219 308.073 Q 267.239 307.583 267.009 307.203 C 266.829 306.996 266.504 306.917 266.219 307.013 Q 262.379 308.583 259.869 311.013 Q 256.729 314.043 252.949 315.203 Q 250.559 315.933 246.889 316.343 Q 243.809 316.683 240.689 316.273 Q 236.329 315.703 233.419 311.493 C 233.237 311.23 233.206 310.893 233.339 310.603 Q 234.569 307.813 232.719 306.823 Q 232.199 304.893 230.429 304.033 Q 230.259 303.443 230.679 303.033 L 239.609 303.063 C 240.429 303.072 241.175 303.527 241.549 304.243 Q 241.839 304.813 242.929 304.533 Q 248.019 304.583 253.099 304.583 Q 259.579 304.583 263.179 303.673 Q 270.429 301.843 276.469 297.073 Z " fill="rgb(123,157,40)"/><path d=" M 311.679 247.533 Q 315.389 250.683 317.969 254.823 L 313.719 259.573 Q 313.459 257.663 311.679 258.033 L 310.329 255.143 C 310.248 254.991 310.1 254.884 309.927 254.851 C 309.753 254.818 309.574 254.863 309.439 254.973 L 296.929 265.613 L 294.639 261.573 L 294.719 261.323 L 306.679 251.283 L 311.679 247.533 Z " fill="rgb(222,221,154)"/><path d=" M 246.719 299.073 Q 246.299 300.173 245.929 301.293 Q 245.909 301.363 245.629 302.893 Q 245.309 304.693 242.929 304.363 L 239.889 298.573 Q 242.499 298.883 245.739 297.883 Q 246.939 297.513 246.719 299.073 Z " fill="rgb(222,221,154)"/><path d=" M 278.179 298.283 Q 282.839 300.063 286.949 302.843 C 287.236 303.033 287.446 303.295 287.549 303.593 Q 288.619 306.483 287.639 309.573 Q 285.899 311.333 285.469 313.823 L 284.889 315.323 Q 284.079 316.003 283.789 315.063 C 283.551 314.758 283.577 314.398 283.859 314.103 Q 286.229 307.783 280.479 304.503 Q 278.169 303.183 276.429 305.203 Q 274.979 306.893 273.679 308.823 Q 273.049 309.763 273.769 310.113 C 274.149 310.248 274.388 310.48 274.409 310.733 Q 275.969 315.073 275.479 310.083 Q 275.429 309.523 275.529 309.073 Q 276.419 305.143 279.279 306.403 Q 280.849 307.093 282.009 308.853 Q 285.109 313.533 280.929 318.033 Q 278.049 322.083 273.179 322.783 Q 265.859 322.093 262.889 315.573 Q 264.599 311.553 267.219 308.073 Q 271.639 302.843 276.989 298.583 Q 277.249 298.373 277.559 298.333 Q 277.869 298.293 278.179 298.283 Z " fill="rgb(182,211,90)"/><path d=" M 230.429 304.033 Q 232.199 304.893 232.719 306.823 Q 232.409 308.723 230.239 309.133 Q 226.709 309.813 224.889 307.323 Q 224.469 301.283 230.429 304.033 Z " fill="rgb(206,186,152)"/><path d=" M 286.389 287.073 Q 286.319 288.133 287.369 288.133 Q 288.499 288.823 289.629 289.543 Q 290.719 290.233 292.009 290.683 Q 296.109 292.093 299.969 294.073 L 297.389 301.573 L 296.389 307.823 L 296.179 307.783 Q 294.099 303.603 293.929 302.323 Q 293.379 298.103 291.799 294.203 Q 291.019 292.283 289.709 291.673 Q 288.129 290.943 286.149 291.443 C 285.86 291.478 285.571 291.37 285.399 291.163 Q 284.709 290.353 283.679 290.533 L 283.719 290.323 Q 284.599 289.443 283.899 288.263 C 283.836 288.166 283.832 288.043 283.888 287.942 C 283.943 287.841 284.051 287.776 284.169 287.773 Q 285.539 287.723 286.389 287.073 Z " fill="rgb(129,161,58)"/><path d=" M 214.429 295.283 L 225.929 301.783 Q 218.919 302.193 214.429 298.323 Q 212.189 296.393 210.179 297.863 Q 209.589 297.783 209.179 297.363 Q 211.369 297.523 212.219 295.573 L 214.429 295.283 Z " fill="rgb(129,161,58)"/><path d=" M 284.889 315.323 Q 285.189 315.763 285.139 316.133 C 285.207 316.388 284.916 316.632 284.449 316.713 Q 282.849 317.263 281.719 318.573 Q 281.639 317.873 280.929 318.033 Q 285.109 313.533 282.009 308.853 Q 280.849 307.093 279.279 306.403 Q 276.419 305.143 275.529 309.073 Q 275.429 309.523 275.479 310.083 Q 275.969 315.073 274.409 310.733 C 274.388 310.48 274.149 310.248 273.769 310.113 Q 273.049 309.763 273.679 308.823 Q 274.979 306.893 276.429 305.203 Q 278.169 303.183 280.479 304.503 Q 286.229 307.783 283.859 314.103 C 283.577 314.398 283.551 314.758 283.789 315.063 Q 284.079 316.003 284.889 315.323 Z " fill="rgb(129,161,58)"/><path d=" M 271.179 235.533 Q 276.479 235.873 281.429 237.783 Q 281.029 238.033 281.179 238.533 Q 278.539 237.483 277.019 239.183 Q 276.079 240.243 276.269 241.813 Q 276.649 244.813 279.939 242.593 Q 281.649 241.433 281.719 239.323 Q 282.349 239.593 283.489 241.263 Q 287.719 247.453 291.219 254.073 L 276.139 261.233 C 275.147 261.654 274.508 262.513 274.479 263.463 L 273.969 269.823 L 273.249 272.293 C 273.161 272.615 272.934 272.885 272.626 273.034 C 272.318 273.183 271.958 273.197 271.639 273.073 Q 268.449 271.633 266.469 274.123 Q 265.089 275.883 263.149 276.723 Q 261.399 277.483 259.129 277.063 Q 254.439 276.193 251.119 272.833 Q 250.509 272.223 248.639 269.503 Q 247.569 267.963 246.069 266.233 Q 244.909 264.893 243.179 265.273 Q 237.139 266.573 231.749 264.383 Q 231.719 264.373 229.539 263.243 Q 226.679 261.773 224.239 262.883 Q 220.009 264.823 214.229 270.173 C 214.007 270.369 213.696 270.481 213.369 270.483 Q 211.589 270.263 211.139 268.323 Q 211.879 265.763 213.929 264.033 Q 215.369 262.863 217.139 262.373 C 217.45 262.288 217.726 262.109 217.929 261.863 Q 219.909 259.503 222.719 258.263 C 223.004 258.188 223.314 258.253 223.529 258.433 Q 224.789 259.553 226.329 258.993 Q 228.019 258.383 228.109 258.363 Q 230.989 257.673 233.719 256.523 C 234.014 256.405 234.342 256.387 234.649 256.473 Q 239.599 258.043 244.189 255.963 Q 244.679 255.743 245.769 254.723 Q 246.559 253.983 247.679 253.783 L 252.639 255.323 Q 255.659 258.263 256.119 259.883 Q 256.879 262.583 259.219 262.873 Q 261.039 263.093 262.809 261.873 Q 264.419 260.773 265.359 258.913 Q 266.389 256.863 267.469 254.823 Q 271.449 254.413 273.989 253.133 Q 275.159 252.553 274.929 250.863 Q 276.709 250.883 276.989 250.273 Q 277.699 248.733 277.269 247.083 Q 276.179 242.993 273.179 243.363 Q 271.439 242.383 271.429 241.013 Q 271.429 240.073 271.149 239.173 Q 270.039 235.553 271.179 235.533 Z " fill="rgb(80,118,52)"/><path d=" M 205.639 294.573 Q 207.029 296.443 209.179 297.363 Q 209.589 297.783 210.179 297.863 Q 212.719 301.403 212.719 305.823 L 210.139 313.073 L 209.469 313.573 Q 206.059 304.393 205.639 294.573 Z " fill="rgb(80,118,52)"/><path d=" M 224.889 307.323 Q 226.709 309.813 230.239 309.133 Q 232.409 308.723 232.719 306.823 Q 234.569 307.813 233.339 310.603 C 233.206 310.893 233.237 311.23 233.419 311.493 Q 236.329 315.703 240.689 316.273 Q 243.809 316.683 246.889 316.343 Q 250.559 315.933 252.949 315.203 Q 256.729 314.043 259.869 311.013 Q 262.379 308.583 266.219 307.013 C 266.504 306.917 266.829 306.996 267.009 307.203 Q 267.239 307.583 267.219 308.073 Q 264.599 311.553 262.889 315.573 Q 262.129 316.293 261.429 317.823 Q 258.259 324.793 250.429 326.073 Q 245.759 326.843 236.929 327.113 Q 233.499 326.583 230.429 324.993 C 230.102 324.844 229.875 324.592 229.809 324.303 L 228.719 320.573 Q 227.129 318.143 224.429 317.033 Q 222.419 315.133 221.009 312.753 Q 218.659 308.783 215.679 305.283 Q 215.979 304.483 216.689 304.343 C 217.035 304.367 217.343 304.506 217.509 304.713 Q 220.379 307.943 224.889 307.323 Z " fill="rgb(80,118,52)"/><path d=" M 245.639 244.573 Q 245.699 245.593 247.179 245.823 Q 255.289 247.103 261.679 245.613 Q 263.109 247.333 262.679 249.533 Q 254.449 247.653 252.639 255.323 L 247.679 253.783 L 244.419 249.533 C 244.206 249.274 244.106 248.949 244.139 248.623 Q 244.299 246.393 245.639 244.573 Z " fill="rgb(120,167,45)"/><path d=" M 215.679 305.283 Q 218.659 308.783 221.009 312.753 Q 222.419 315.133 224.429 317.033 L 218.179 323.863 Q 216.639 323.943 215.619 322.383 Q 212.639 317.863 210.139 313.073 L 212.719 305.823 Q 213.989 304.603 215.679 305.283 Z " fill="rgb(120,167,45)"/><path d=" M 317.139 265.073 Q 327.949 284.153 322.679 305.613 L 320.219 308.823 Q 317.369 312.873 314.109 315.223 Q 312.449 316.413 310.619 315.513 Q 306.169 313.303 303.749 316.393 Q 301.219 319.623 297.549 321.493 Q 293.789 323.413 290.949 326.443 Q 288.689 328.843 287.769 329.543 Q 286.029 330.863 284.029 332.003 C 283.793 332.14 283.643 332.386 283.631 332.657 C 283.619 332.927 283.746 333.185 283.969 333.343 L 288.639 336.823 Q 289.289 339.153 291.379 339.063 C 291.708 339.022 292.002 338.863 292.189 338.623 Q 295.099 334.923 290.179 333.783 Q 288.589 333.613 289.039 332.333 C 289.145 332.079 289.424 331.908 289.739 331.903 Q 300.119 332.113 308.679 326.283 Q 310.919 327.153 311.469 329.573 Q 300.659 343.643 283.929 349.613 Q 283.269 349.253 283.139 348.603 Q 282.979 347.793 282.939 347.683 Q 280.759 342.263 275.749 339.873 Q 272.899 338.513 269.959 339.323 Q 266.979 340.143 264.559 342.233 C 264.305 342.449 264.144 342.748 264.109 343.073 Q 263.849 345.533 264.679 348.823 Q 265.499 352.073 268.179 353.283 Q 260.429 354.253 252.949 352.003 Q 244.679 349.513 236.119 345.133 Q 229.379 341.693 224.969 336.073 L 226.929 336.533 Q 248.549 343.043 268.759 333.283 Q 276.769 329.423 281.679 326.323 Q 283.659 325.073 285.929 322.613 L 289.219 319.323 Q 293.289 313.923 296.179 307.783 L 296.389 307.823 Q 301.179 313.443 306.969 308.603 Q 312.789 303.743 309.999 295.533 C 309.844 295.08 309.459 294.745 308.989 294.653 Q 304.639 293.823 301.219 295.073 Q 300.569 294.673 300.139 294.073 Q 299.409 291.303 300.489 289.633 Q 302.599 286.403 301.739 283.263 Q 301.349 281.793 301.929 279.363 Q 302.149 279.323 302.179 279.113 Q 307.959 276.643 309.719 270.573 L 317.139 265.073 Z " fill="rgb(46,73,88)"/><path d=" M 322.679 305.613 Q 320.029 318.993 311.469 329.573 Q 310.919 327.153 308.679 326.283 Q 310.399 325.483 311.709 324.103 Q 317.209 318.293 320.009 310.793 Q 320.099 310.543 320.549 309.993 Q 321.019 309.403 320.219 308.823 L 322.679 305.613 Z " fill="rgb(46,73,88)"/><path d=" M 320.219 308.823 Q 321.019 309.403 320.549 309.993 Q 320.099 310.543 320.009 310.793 Q 317.209 318.293 311.709 324.103 Q 310.399 325.483 308.679 326.283 Q 300.119 332.113 289.739 331.903 C 289.424 331.908 289.145 332.079 289.039 332.333 Q 288.589 333.613 290.179 333.783 Q 288.879 333.453 288.789 334.563 Q 288.689 335.693 288.639 336.823 L 283.969 333.343 C 283.746 333.185 283.619 332.927 283.631 332.657 C 283.643 332.386 283.793 332.14 284.029 332.003 Q 286.029 330.863 287.769 329.543 Q 288.689 328.843 290.949 326.443 Q 293.789 323.413 297.549 321.493 Q 301.219 319.623 303.749 316.393 Q 306.169 313.303 310.619 315.513 Q 312.449 316.413 314.109 315.223 Q 317.369 312.873 320.219 308.823 Z " fill="rgb(68,101,75)"/><path d=" M 296.679 275.783 Q 297.479 275.833 297.599 276.633 Q 297.739 277.553 297.769 277.623 Q 298.279 279.343 298.679 281.113 L 286.389 287.073 Q 285.539 287.723 284.169 287.773 C 284.051 287.776 283.943 287.841 283.888 287.942 C 283.832 288.043 283.836 288.166 283.899 288.263 Q 284.599 289.443 283.719 290.323 Q 283.739 289.533 283.169 289.493 Q 282.429 289.453 282.229 289.343 Q 279.449 287.773 281.679 285.113 L 296.679 275.783 Z " fill="rgb(190,182,77)"/><path d=" M 271.179 291.863 L 271.519 291.813 C 271.828 291.86 272.045 292.012 272.049 292.183 Q 273.819 295.013 276.469 297.073 Q 270.429 301.843 263.179 303.673 Q 259.579 304.583 253.099 304.583 Q 248.019 304.583 242.929 304.533 L 242.929 304.363 Q 245.309 304.693 245.629 302.893 Q 245.909 301.363 245.929 301.293 Q 246.299 300.173 246.719 299.073 Q 247.099 299.083 247.389 298.823 Q 247.289 302.683 251.179 301.823 Q 262.529 299.303 271.679 294.733 C 271.971 294.6 272.137 294.309 272.089 294.013 Q 271.969 292.823 271.179 291.863 Z " fill="rgb(190,182,77)"/><path d=" M 287.639 309.573 L 287.639 313.073 Q 286.299 312.823 285.469 313.823 Q 285.899 311.333 287.639 309.573 Z " fill="rgb(190,182,77)"/><path d=" M 271.179 235.533 Q 270.039 235.553 271.149 239.173 Q 271.429 240.073 271.429 241.013 Q 271.439 242.383 273.179 243.363 Q 270.709 248.163 274.929 250.863 Q 275.159 252.553 273.989 253.133 Q 271.449 254.413 267.469 254.823 Q 266.439 250.933 262.679 249.533 Q 263.109 247.333 261.679 245.613 Q 265.969 244.643 267.869 241.763 Q 269.339 239.523 266.929 238.033 Q 265.609 236.763 263.429 236.573 Q 259.559 236.233 256.149 237.063 Q 254.439 237.483 253.029 237.653 Q 251.449 237.843 249.889 238.213 C 249.613 238.269 249.329 238.157 249.179 237.933 L 248.929 237.533 Q 259.769 233.743 271.179 235.533 Z " fill="rgb(100,142,57)"/><path d=" M 244.929 239.363 Q 244.909 240.053 245.149 240.683 C 245.273 240.976 245.287 241.301 245.189 241.603 Q 244.769 243.033 245.639 244.323 L 245.639 244.573 Q 244.299 246.393 244.139 248.623 C 244.106 248.949 244.206 249.274 244.419 249.533 L 247.679 253.783 Q 246.559 253.983 245.769 254.723 Q 244.679 255.743 244.189 255.963 Q 239.599 258.043 234.649 256.473 C 234.342 256.387 234.014 256.405 233.719 256.523 Q 230.989 257.673 228.109 258.363 Q 228.019 258.383 226.329 258.993 Q 224.789 259.553 223.529 258.433 C 223.314 258.253 223.004 258.188 222.719 258.263 Q 219.909 259.503 217.929 261.863 C 217.726 262.109 217.45 262.288 217.139 262.373 Q 215.369 262.863 213.929 264.033 Q 217.129 259.413 221.429 255.783 Q 222.659 254.833 224.539 255.543 C 225.171 255.78 225.875 255.733 226.469 255.413 Q 230.579 253.203 234.029 250.623 Q 237.569 247.993 238.309 247.003 Q 240.199 244.463 238.929 240.863 L 244.929 239.363 Z " fill="rgb(100,142,57)"/><path d=" M 210.139 313.073 Q 212.639 317.863 215.619 322.383 Q 216.639 323.943 218.179 323.863 Q 216.729 326.393 217.969 329.073 L 217.919 329.163 C 217.908 329.185 217.887 329.2 217.862 329.202 C 217.837 329.204 217.813 329.193 217.799 329.173 Q 212.369 322.053 209.469 313.573 L 210.139 313.073 Z " fill="rgb(100,142,57)"/><path d=" M 287.639 313.073 L 289.219 319.323 L 285.929 322.613 Q 284.779 322.293 283.589 322.273 Q 281.959 322.243 281.349 321.853 Q 279.659 320.773 281.719 318.573 Q 282.849 317.263 284.449 316.713 C 284.916 316.632 285.207 316.388 285.139 316.133 Q 285.189 315.763 284.889 315.323 L 285.469 313.823 Q 286.299 312.823 287.639 313.073 Z " fill="rgb(221,129,68)"/><path d=" M 262.889 315.573 Q 265.859 322.093 273.179 322.783 Q 271.229 323.693 270.319 325.553 C 270.186 325.837 269.954 326.076 269.659 326.233 Q 265.659 328.283 262.749 331.693 C 262.519 331.932 262.444 332.255 262.549 332.553 Q 262.829 334.123 261.429 334.283 Q 262.509 331.973 261.209 330.443 Q 260.059 329.083 258.159 329.253 Q 255.409 329.513 256.179 333.533 L 254.479 334.653 Q 253.919 335.013 253.619 335.063 Q 252.179 335.313 250.679 336.573 Q 249.119 337.883 247.549 336.653 Q 247.349 336.493 246.699 336.193 L 244.179 335.033 Q 248.179 334.213 250.769 331.283 Q 251.599 330.343 251.809 329.283 Q 252.279 326.843 249.699 327.413 Q 243.289 328.823 236.929 327.113 Q 245.759 326.843 250.429 326.073 Q 258.259 324.793 261.429 317.823 Q 262.129 316.293 262.889 315.573 Z " fill="rgb(118,156,56)"/><path d=" M 238.929 240.863 Q 240.199 244.463 238.309 247.003 Q 237.569 247.993 234.029 250.623 Q 230.579 253.203 226.469 255.413 C 225.875 255.733 225.171 255.78 224.539 255.543 Q 222.659 254.833 221.429 255.783 Q 220.709 251.773 223.679 249.573 Q 230.329 244.663 237.619 240.753 Q 238.229 240.423 238.929 240.863 Z " fill="rgb(179,204,127)"/><path d=" M 224.429 317.033 Q 227.129 318.143 228.719 320.573 Q 228.909 321.583 228.209 321.963 C 227.851 322.119 227.604 322.338 227.509 322.583 Q 226.669 323.983 225.489 322.513 Q 224.489 321.243 223.719 319.823 Q 223.459 319.353 223.309 319.843 Q 222.909 321.133 223.849 322.153 Q 227.089 325.693 226.739 330.493 Q 226.699 331.023 226.799 331.643 Q 226.889 332.233 226.889 332.823 Q 226.489 333.373 226.719 334.073 Q 226.269 335.323 224.969 335.823 Q 223.029 335.583 222.879 333.883 C 222.872 333.595 222.679 333.339 222.389 333.233 Q 219.319 332.133 217.969 329.073 Q 216.729 326.393 218.179 323.863 L 224.429 317.033 Z " fill="rgb(179,204,127)"/><path d=" M 280.929 318.033 Q 281.639 317.873 281.719 318.573 Q 279.659 320.773 281.349 321.853 Q 281.959 322.243 283.589 322.273 Q 284.779 322.293 285.929 322.613 Q 283.659 325.073 281.679 326.323 Q 276.769 329.423 268.759 333.283 Q 248.549 343.043 226.929 336.533 Q 227.249 335.273 226.719 334.073 Q 226.489 333.373 226.889 332.823 Q 228.169 334.093 229.179 334.323 Q 236.609 335.983 244.179 335.033 L 246.699 336.193 Q 247.349 336.493 247.549 336.653 Q 249.119 337.883 250.679 336.573 Q 252.179 335.313 253.619 335.063 Q 253.919 335.013 254.479 334.653 L 256.179 333.533 Q 258.479 335.793 261.429 334.283 Q 262.829 334.123 262.549 332.553 C 262.444 332.255 262.519 331.932 262.749 331.693 Q 265.659 328.283 269.659 326.233 C 269.954 326.076 270.186 325.837 270.319 325.553 Q 271.229 323.693 273.179 322.783 Q 278.049 322.083 280.929 318.033 Z " fill="rgb(99,138,73)"/><path d=" M 228.719 320.573 L 229.809 324.303 C 229.875 324.592 230.102 324.844 230.429 324.993 Q 233.499 326.583 236.929 327.113 Q 243.289 328.823 249.699 327.413 Q 252.279 326.843 251.809 329.283 Q 251.599 330.343 250.769 331.283 Q 248.179 334.213 244.179 335.033 Q 236.609 335.983 229.179 334.323 Q 228.169 334.093 226.889 332.823 Q 226.889 332.233 226.799 331.643 Q 226.699 331.023 226.739 330.493 Q 227.089 325.693 223.849 322.153 Q 222.909 321.133 223.309 319.843 Q 223.459 319.353 223.719 319.823 Q 224.489 321.243 225.489 322.513 Q 226.669 323.983 227.509 322.583 C 227.604 322.338 227.851 322.119 228.209 321.963 Q 228.909 321.583 228.719 320.573 Z " fill="rgb(159,189,52)"/><path d=" M 262.679 249.533 Q 266.439 250.933 267.469 254.823 Q 266.389 256.863 265.359 258.913 Q 264.419 260.773 262.809 261.873 Q 261.039 263.093 259.219 262.873 Q 256.879 262.583 256.119 259.883 Q 255.659 258.263 252.639 255.323 Q 254.449 247.653 262.679 249.533 Z " fill="rgb(180,214,109)"/><path d=" M 261.429 334.283 Q 258.479 335.793 256.179 333.533 Q 255.409 329.513 258.159 329.253 Q 260.059 329.083 261.209 330.443 Q 262.509 331.973 261.429 334.283 Z " fill="rgb(180,214,109)"/><path d=" M 290.179 333.783 Q 295.099 334.923 292.189 338.623 C 292.002 338.863 291.708 339.022 291.379 339.063 Q 289.289 339.153 288.639 336.823 Q 288.689 335.693 288.789 334.563 Q 288.879 333.453 290.179 333.783 Z " fill="rgb(118,146,109)"/><path d=" M 226.719 334.073 Q 227.249 335.273 226.929 336.533 L 224.969 336.073 L 224.969 335.823 Q 226.269 335.323 226.719 334.073 Z " fill="rgb(118,146,109)"/><path d=" M 296.389 307.823 L 297.389 301.573 Q 297.219 303.413 298.369 302.473 C 298.588 302.3 298.897 302.183 299.239 302.143 Q 301.039 302.283 301.569 304.083 C 301.414 304.377 301.588 304.696 302.029 304.923 Q 303.199 305.953 303.389 304.213 Q 303.459 303.603 303.169 302.973 Q 302.319 301.093 300.849 299.613 C 300.563 299.386 300.412 299.083 300.429 298.773 Q 300.239 296.813 301.219 295.073 Q 304.639 293.823 308.989 294.653 C 309.459 294.745 309.844 295.08 309.999 295.533 Q 312.789 303.743 306.969 308.603 Q 301.179 313.443 296.389 307.823 Z " fill="rgb(97,139,147)"/><path d=" M 283.929 349.613 L 278.679 351.283 Q 279.549 350.873 278.929 350.073 Q 278.819 345.903 275.739 343.893 Q 273.769 342.603 272.219 342.173 Q 269.949 341.553 268.139 343.483 C 267.553 344.035 267.458 344.873 267.909 345.523 L 270.689 351.163 C 270.737 351.428 270.973 351.668 271.329 351.813 Q 272.809 352.303 274.429 352.113 L 268.179 353.283 Q 265.499 352.073 264.679 348.823 Q 263.849 345.533 264.109 343.073 C 264.144 342.748 264.305 342.449 264.559 342.233 Q 266.979 340.143 269.959 339.323 Q 272.899 338.513 275.749 339.873 Q 280.759 342.263 282.939 347.683 Q 282.979 347.793 283.139 348.603 Q 283.269 349.253 283.929 349.613 Z " fill="rgb(97,139,147)"/><path d=" M 278.679 351.283 L 274.429 352.113 Q 272.809 352.303 271.329 351.813 C 270.973 351.668 270.737 351.428 270.689 351.163 L 267.909 345.523 C 267.458 344.873 267.553 344.035 268.139 343.483 Q 269.949 341.553 272.219 342.173 Q 273.769 342.603 275.739 343.893 Q 278.819 345.903 278.929 350.073 Q 279.549 350.873 278.679 351.283 Z " fill="rgb(65,92,114)"/><path d=" M 268.679 291.283 Q 270.109 291.043 271.179 291.863 Q 271.969 292.823 272.089 294.013 C 272.137 294.309 271.971 294.6 271.679 294.733 Q 262.529 299.303 251.179 301.823 Q 247.289 302.683 247.389 298.823 Q 248.079 297.953 250.429 297.323 Q 253.459 296.503 268.679 291.283 Z " fill="rgb(193,145,64)"/><path d=" M 309.825 280.196 C 311.244 279.173 313.303 279.6 314.42 281.148 C 315.537 282.697 315.292 284.786 313.873 285.809 C 312.454 286.832 310.395 286.406 309.278 284.857 C 308.161 283.308 308.406 281.22 309.825 280.196 Z " fill="rgb(83,122,119)"/><path d=" M 272.989 316.883 Q 271.719 317.893 271.159 316.613 C 271.097 316.515 271.099 316.399 271.165 316.302 C 271.231 316.206 271.353 316.142 271.489 316.133 L 273.139 315.823 Q 273.619 315.733 273.479 316.123 Q 273.299 316.643 272.989 316.883 Z " fill="rgb(159,189,52)"/></g></g></svg>