<?xml version="1.0" encoding="UTF-8" standalone="no"?><!-- Generator: Gravit.io --><svg xmlns="http://www.w3.org/2000/svg" xmlns:xlink="http://www.w3.org/1999/xlink" style="isolation:isolate" viewBox="141.95 240.652 230.646 105.146" width="230.646pt" height="105.146pt"><defs><clipPath id="_clipPath_5yr5hfKRMTirlcWWIBHsJf4LHWNEe9mn"><rect x="141.95" y="240.652" width="230.646" height="105.146"/></clipPath></defs><g clip-path="url(#_clipPath_5yr5hfKRMTirlcWWIBHsJf4LHWNEe9mn)"><g><path d=" M 243.346 252.232 Q 241.916 253.712 239.886 253.772 Q 239.196 249.922 239.816 246.082 C 239.826 245.953 239.894 245.833 240.006 245.75 C 240.117 245.667 240.262 245.628 240.406 245.642 Q 241.496 245.912 242.096 247.522 Q 242.946 249.822 243.346 252.232 Z " fill="rgb(238,145,79)"/><path d=" M 292.596 249.562 L 295.306 251.522 Q 294.676 252.132 294.906 252.772 C 295.012 253.043 295.302 253.245 295.656 253.292 Q 297.206 253.482 298.596 252.732 Q 305.456 258.262 310.806 265.272 Q 308.836 265.272 307.656 263.462 Q 306.566 261.782 304.386 262.772 L 302.056 260.272 Q 297.126 254.822 290.166 252.432 Q 272.826 246.462 256.096 253.732 Q 235.236 261.852 227.886 283.022 Q 222.806 298.732 228.346 314.232 Q 226.506 314.312 225.056 315.522 Q 224.536 314.632 223.596 314.232 L 221.056 307.022 Q 221.616 301.092 220.306 295.272 Q 220.106 284.682 223.886 274.772 L 224.846 273.062 Q 226.146 271.772 226.556 270.022 L 227.846 267.312 L 239.886 253.772 Q 241.916 253.712 243.346 252.232 Q 246.696 251.352 248.796 248.672 Q 249.116 248.262 249.546 248.082 Q 271.416 239.052 292.596 249.562 Z " fill="rgb(207,231,114)"/><path d=" M 351.346 273.562 Q 343.606 280.762 346.036 291.082 Q 346.266 292.082 345.386 292.022 Q 342.336 286.692 342.156 281.712 Q 341.906 274.662 346.766 270.402 Q 348.196 269.142 353.986 266.562 Q 358.076 264.742 361.796 262.202 Q 364.056 260.652 364.096 257.922 Q 364.206 251.022 357.386 249.372 Q 334.916 243.932 323.056 263.022 Q 318.736 269.052 321.286 277.082 Q 324.566 287.422 328.906 293.962 Q 332.636 299.562 333.886 304.772 Q 333.806 310.872 332.166 316.732 C 332.188 317.014 331.95 317.276 331.576 317.382 Q 330.926 317.492 330.806 316.522 Q 331.876 311.392 329.846 306.272 Q 327.946 301.482 324.886 297.832 Q 322.696 295.232 322.156 293.622 Q 321.336 291.182 321.346 288.522 Q 321.346 287.962 320.806 287.272 Q 320.586 283.812 318.636 281.022 L 314.596 271.232 L 314.636 267.772 Q 320.516 252.182 336.096 246.232 Q 336.846 247.372 337.846 247.022 Q 343.836 244.902 349.606 244.682 Q 354.806 244.482 358.046 245.292 Q 362.506 246.412 365.446 249.932 Q 368.036 253.032 368.136 256.802 Q 368.246 261.152 365.226 264.162 Q 363.576 265.802 358.136 268.232 Q 352.046 270.952 350.786 271.962 Q 348.136 274.072 351.346 273.562 Z " fill="rgb(255,196,74)"/><path d=" M 302.056 260.272 Q 300.106 260.892 300.346 263.522 Q 300.816 268.602 300.156 274.922 Q 299.786 278.492 298.356 283.492 Q 297.146 287.712 296.046 291.962 Q 293.716 301.012 285.876 306.042 Q 278.586 310.702 270.326 313.302 Q 270.216 313.342 268.636 314.152 Q 267.556 314.702 266.386 314.022 Q 264.846 304.872 256.516 304.852 Q 253.756 304.852 251.866 305.942 Q 249.596 307.252 248.596 309.772 Q 246.406 315.272 250.806 319.272 L 252.386 321.022 Q 252.246 322.012 251.346 322.022 Q 243.316 322.072 235.386 319.382 Q 234.516 319.092 233.256 318.982 Q 232.156 318.882 231.096 318.562 L 228.346 314.232 Q 222.806 298.732 227.886 283.022 Q 229.746 281.832 232.136 282.522 Q 234.336 283.172 235.766 281.372 Q 237.566 279.112 240.076 279.032 C 240.297 279.023 240.501 278.912 240.626 278.732 Q 247.236 269.292 253.086 263.082 Q 253.136 263.022 255.266 261.142 Q 258.646 258.172 256.096 253.732 Q 272.826 246.462 290.166 252.432 Q 297.126 254.822 302.056 260.272 Z " fill="rgb(100,200,110)"/><path d=" M 256.096 253.732 Q 258.646 258.172 255.266 261.142 Q 253.136 263.022 253.086 263.082 Q 247.236 269.292 240.626 278.732 C 240.501 278.912 240.297 279.023 240.076 279.032 Q 237.566 279.112 235.766 281.372 Q 234.336 283.172 232.136 282.522 Q 229.746 281.832 227.886 283.022 Q 235.236 261.852 256.096 253.732 Z " fill="rgb(104,215,149)"/><path d=" M 197.306 256.522 Q 197.756 258.122 197.556 259.772 Q 196.926 259.172 196.806 258.342 Q 196.756 257.982 196.556 257.392 Q 196.306 256.652 197.306 256.522 Z " fill="rgb(191,99,33)"/><path d=" M 212.846 265.982 Q 210.756 266.052 208.846 267.062 Q 202.286 266.732 198.556 261.522 Q 198.996 258.832 200.656 260.582 Q 205.146 265.322 212.846 265.982 Z " fill="rgb(248,197,48)"/><path d=" M 302.056 260.272 L 304.386 262.772 Q 317.286 278.922 315.556 299.772 Q 314.586 299.742 314.156 300.332 Q 310.676 305.162 305.996 308.072 Q 305.966 308.092 300.506 310.542 Q 295.396 312.852 292.396 317.832 Q 290.396 321.172 288.286 322.462 Q 285.506 324.162 281.596 325.112 Q 279.626 325.582 274.626 326.622 Q 267.766 328.052 260.826 327.452 Q 257.996 327.212 251.016 325.382 Q 246.146 324.102 241.176 323.282 Q 239.596 323.032 238.766 323.642 Q 237.566 324.522 237.806 326.272 L 235.846 324.732 L 231.096 318.562 Q 232.156 318.882 233.256 318.982 Q 234.516 319.092 235.386 319.382 Q 243.316 322.072 251.346 322.022 Q 252.246 322.012 252.386 321.022 Q 258.546 324.442 263.786 320.712 Q 266.016 319.122 265.556 315.772 L 266.386 314.022 Q 267.556 314.702 268.636 314.152 Q 270.216 313.342 270.326 313.302 Q 278.586 310.702 285.876 306.042 Q 293.716 301.012 296.046 291.962 Q 297.146 287.712 298.356 283.492 Q 299.786 278.492 300.156 274.922 Q 300.816 268.602 300.346 263.522 Q 300.106 260.892 302.056 260.272 Z " fill="rgb(66,143,119)"/><path d=" M 310.806 265.272 L 314.596 271.232 L 318.636 281.022 L 320.386 287.272 Q 321.536 293.372 320.886 299.522 Q 320.336 306.492 317.886 313.022 Q 316.796 312.392 315.786 310.832 Q 314.866 309.422 313.596 310.232 Q 315.246 305.122 315.556 299.772 Q 317.286 278.922 304.386 262.772 Q 306.566 261.782 307.656 263.462 Q 308.836 265.272 310.806 265.272 Z " fill="rgb(158,232,224)"/><path d=" M 212.846 265.982 L 220.096 268.062 Q 220.576 270.832 223.086 271.842 Q 223.606 272.052 223.986 272.382 Q 224.396 272.742 224.846 273.062 L 223.886 274.772 Q 222.656 274.552 222.116 273.482 Q 220.846 270.962 218.246 269.932 Q 213.666 268.122 208.846 267.062 Q 210.756 266.052 212.846 265.982 Z " fill="rgb(213,135,51)"/><path d=" M 220.096 268.062 L 226.556 270.022 Q 226.146 271.772 224.846 273.062 Q 224.396 272.742 223.986 272.382 Q 223.606 272.052 223.086 271.842 Q 220.576 270.832 220.096 268.062 Z " fill="rgb(182,75,31)"/><path d=" M 298.596 252.732 Q 297.206 253.482 295.656 253.292 C 295.302 253.245 295.012 253.043 294.906 252.772 Q 294.676 252.132 295.306 251.522 Q 295.586 247.952 297.116 244.732 C 297.641 244.486 297.645 244.086 297.126 243.822 L 296.806 242.522 L 297.716 241.092 C 297.868 240.834 298.179 240.665 298.526 240.652 Q 299.236 240.732 299.096 242.022 Q 298.766 245.002 298.596 252.732 Z " fill="rgb(252,225,91)"/><path d=" M 199.806 251.272 Q 199.846 254.392 200.786 256.582 Q 202.446 260.502 206.846 261.062 Q 209.916 262.012 213.106 262.472 Q 220.906 263.622 227.846 267.312 L 226.556 270.022 L 220.096 268.062 L 212.846 265.982 Q 205.146 265.322 200.656 260.582 Q 198.996 258.832 198.556 261.522 Q 197.766 260.802 197.556 259.772 Q 197.756 258.122 197.306 256.522 Q 197.616 254.112 198.786 251.962 Q 198.716 251.002 199.806 251.272 Z " fill="rgb(252,225,91)"/><path d=" M 199.846 279.312 Q 200.106 279.642 200.596 279.562 Q 210.896 282.902 218.596 290.482 L 220.306 295.272 Q 221.616 301.092 221.056 307.022 L 220.136 305.772 Q 217.946 301.882 216.406 297.712 Q 215.006 293.902 209.716 289.932 Q 202.626 284.612 194.186 282.622 Q 190.616 281.782 184.416 281.782 Q 179.506 281.782 174.596 281.732 L 188.046 281.342 Q 188.436 281.332 188.026 281.312 Q 185.196 281.152 182.596 280.172 Q 180.216 279.272 178.396 279.212 Q 173.866 279.072 169.346 278.772 Q 163.596 278.392 155.426 281.882 Q 149.706 284.332 146.656 288.582 Q 142.536 294.342 147.786 299.132 Q 148.066 299.382 148.336 299.922 Q 148.766 300.762 149.906 301.462 Q 153.366 303.562 156.916 304.122 Q 158.846 304.412 164.276 304.262 Q 169.216 304.112 175.176 303.312 C 175.785 303.237 176.398 303.41 176.876 303.792 Q 177.156 304.022 177.116 304.302 C 177.061 304.386 177.059 304.485 177.11 304.569 C 177.161 304.654 177.26 304.714 177.376 304.732 Q 179.986 304.822 182.596 304.882 Q 184.356 304.922 182.846 305.482 Q 175.306 305.242 167.846 306.232 Q 159.336 307.432 151.766 304.372 Q 146.326 302.172 144.236 298.552 Q 141.436 293.702 144.906 287.832 Q 146.846 284.552 151.016 282.182 Q 157.216 278.672 164.046 277.552 Q 168.656 276.792 177.676 276.822 Q 188.856 276.862 199.846 279.312 Z " fill="rgb(252,225,91)"/><path d=" M 174.596 281.732 Q 167.006 282.252 159.846 284.732 Q 156.206 285.582 153.346 287.982 Q 149.986 290.092 149.886 294.022 L 149.856 294.242 Q 149.806 294.542 149.716 294.252 Q 149.276 292.732 149.826 291.302 C 149.912 291.186 149.935 291.044 149.889 290.914 C 149.843 290.783 149.732 290.677 149.586 290.622 Q 148.256 290.102 147.596 291.272 Q 146.256 293.652 147.906 296.232 Q 150.336 300.032 154.876 300.552 Q 158.276 300.942 161.686 301.352 Q 164.896 301.742 168.526 301.542 Q 176.556 301.092 184.596 301.522 Q 186.176 301.602 192.056 303.672 C 192.614 303.804 192.872 304.08 192.666 304.322 Q 192.846 304.652 193.256 304.742 Q 193.826 304.862 193.926 304.902 Q 195.486 305.522 196.906 306.412 Q 197.786 306.972 198.276 306.962 Q 199.306 306.952 199.386 305.522 Q 209.876 313.642 204.886 326.272 Q 203.956 327.492 204.076 325.472 Q 204.226 322.702 202.866 320.442 C 202.697 320.162 202.616 319.838 202.636 319.512 Q 202.766 316.712 201.286 314.832 Q 194.436 306.172 182.846 305.482 Q 184.356 304.922 182.596 304.882 Q 179.986 304.822 177.376 304.732 C 177.26 304.714 177.161 304.654 177.11 304.569 C 177.059 304.485 177.061 304.386 177.116 304.302 Q 177.156 304.022 176.876 303.792 C 176.398 303.41 175.785 303.237 175.176 303.312 Q 169.216 304.112 164.276 304.262 Q 158.846 304.412 156.916 304.122 Q 153.366 303.562 149.906 301.462 Q 148.766 300.762 148.336 299.922 Q 148.066 299.382 147.786 299.132 Q 142.536 294.342 146.656 288.582 Q 149.706 284.332 155.426 281.882 Q 163.596 278.392 169.346 278.772 Q 173.866 279.072 178.396 279.212 Q 180.216 279.272 182.596 280.172 Q 185.196 281.152 188.026 281.312 Q 188.436 281.332 188.046 281.342 L 174.596 281.732 Z " fill="rgb(251,205,71)"/><path d=" M 174.596 281.732 Q 179.506 281.782 184.416 281.782 Q 190.616 281.782 194.186 282.622 Q 202.626 284.612 209.716 289.932 Q 215.006 293.902 216.406 297.712 Q 217.946 301.882 220.136 305.772 Q 219.346 306.912 219.306 308.272 Q 215.796 301.732 215.096 299.772 Q 212.136 291.542 204.186 288.272 Q 202.996 287.782 201.786 286.802 Q 200.666 285.902 199.346 285.272 Q 195.966 283.652 195.096 283.772 Q 192.916 284.062 190.856 283.632 Q 188.076 283.042 186.746 283.082 Q 179.476 283.292 172.196 283.622 Q 170.506 283.702 166.056 284.372 Q 162.976 284.832 159.846 284.732 Q 167.006 282.252 174.596 281.732 Z " fill="rgb(139,53,34)"/><path d=" M 296.806 242.522 L 297.126 243.822 C 297.645 244.086 297.641 244.486 297.116 244.732 Q 295.586 247.952 295.306 251.522 L 292.596 249.562 Q 294.656 247.772 295.096 245.022 Q 295.236 244.172 296.806 242.522 Z " fill="rgb(168,61,72)"/><path d=" M 199.846 279.312 Q 188.856 276.862 177.676 276.822 Q 168.656 276.792 164.046 277.552 Q 157.216 278.672 151.016 282.182 Q 146.846 284.552 144.906 287.832 Q 141.436 293.702 144.236 298.552 Q 146.326 302.172 151.766 304.372 Q 159.336 307.432 167.846 306.232 L 173.036 306.932 Q 173.436 306.992 173.036 307.072 Q 171.736 307.352 170.406 307.342 Q 168.856 307.342 167.796 307.502 Q 162.196 308.402 156.646 307.192 Q 156.586 307.182 154.626 306.922 Q 153.256 306.742 152.216 305.862 Q 151.816 305.532 151.346 305.442 Q 148.986 305.012 147.176 303.582 Q 145.346 302.142 143.946 300.522 Q 142.186 298.502 142.006 295.742 Q 141.866 293.572 142.076 291.292 Q 142.296 288.902 143.626 286.992 Q 144.886 285.192 147.396 282.882 Q 149.386 281.042 152.156 279.832 Q 159.646 276.582 167.326 275.632 Q 174.056 274.812 182.886 275.322 Q 192.536 275.872 201.806 278.922 Q 202.486 279.152 201.796 279.192 L 199.846 279.312 Z " fill="rgb(168,61,72)"/><path d=" M 200.596 279.562 Q 203.166 279.122 206.656 280.712 Q 212.516 283.372 218.036 288.582 Q 219.026 289.522 218.596 290.482 Q 210.896 282.902 200.596 279.562 Z " fill="rgb(168,61,72)"/><path d=" M 320.386 287.272 L 320.806 287.272 Q 321.346 287.962 321.346 288.522 Q 321.336 291.182 322.156 293.622 Q 322.696 295.232 324.886 297.832 Q 327.946 301.482 329.846 306.272 Q 331.876 311.392 330.806 316.522 Q 330.106 317.802 330.056 319.272 Q 329.006 320.922 329.366 318.522 Q 329.806 315.642 329.956 312.732 Q 330.116 309.632 329.086 307.102 Q 327.166 302.342 323.336 297.722 C 323.227 297.589 323.061 297.516 322.889 297.526 C 322.717 297.536 322.56 297.627 322.466 297.772 Q 321.306 299.562 320.886 299.522 Q 321.536 293.372 320.386 287.272 Z " fill="rgb(168,61,72)"/><path d=" M 345.386 292.022 Q 346.266 292.082 346.036 291.082 Q 343.606 280.762 351.346 273.562 Q 357.186 270.872 363.096 268.352 Q 368.886 265.882 370.236 260.612 Q 371.456 255.872 369.076 251.142 Q 366.196 245.442 359.096 243.792 Q 347.136 241.012 336.096 246.232 Q 320.516 252.182 314.636 267.772 Q 311.626 267.042 312.906 264.582 Q 314.766 261.032 322.536 252.712 Q 325.946 249.052 330.906 246.692 Q 335.576 244.462 340.316 242.792 Q 351.216 238.942 362.576 243.582 Q 366.616 245.232 369.296 248.622 C 369.548 248.883 369.665 249.201 369.626 249.522 Q 369.786 251.312 370.736 251.562 Q 372.626 252.052 372.596 254.002 Q 372.546 257.372 371.736 260.592 Q 371.296 262.362 369.756 264.102 Q 368.386 265.652 367.156 267.332 Q 366.236 268.602 363.926 268.592 Q 363.666 268.592 363.846 268.772 L 363.936 268.862 C 363.963 268.881 363.976 268.912 363.972 268.942 C 363.968 268.972 363.947 268.999 363.916 269.012 Q 361.926 269.962 359.936 270.902 Q 359.886 270.932 356.136 272.382 Q 353.216 273.522 351.166 275.772 Q 349.246 277.862 348.446 281.972 Q 347.426 287.212 347.596 289.272 Q 347.846 292.312 346.856 294.102 C 346.798 294.202 346.693 294.267 346.575 294.277 C 346.457 294.287 346.342 294.24 346.266 294.152 Q 345.566 293.262 345.386 292.022 Z " fill="rgb(113,55,53)"/><path d=" M 323.056 263.022 Q 323.406 263.622 323.106 264.242 Q 320.306 270.052 322.906 276.212 Q 323.876 278.502 324.556 281.372 Q 325.256 284.352 326.416 286.382 Q 328.776 290.482 333.536 298.332 Q 335.846 302.142 335.806 307.272 Q 335.416 305.612 333.886 304.772 Q 332.636 299.562 328.906 293.962 Q 324.566 287.422 321.286 277.082 Q 318.736 269.052 323.056 263.022 Z " fill="rgb(113,55,53)"/><path d=" M 204.886 326.272 Q 209.876 313.642 199.386 305.522 Q 190.206 298.972 178.846 299.212 Q 165.726 299.482 157.096 299.022 Q 151.996 298.752 149.886 294.022 Q 149.986 290.092 153.346 287.982 Q 156.306 287.262 154.096 288.772 Q 151.666 290.432 152.026 293.972 Q 152.036 294.102 151.966 295.062 Q 151.886 296.282 153.896 296.612 Q 154.406 296.702 154.866 296.932 Q 156.786 297.912 158.216 297.312 Q 158.756 297.092 159.166 297.102 Q 170.756 297.382 182.346 297.522 Q 184.426 297.542 185.416 298.012 Q 185.996 298.282 186.356 298.302 Q 200.416 299.372 206.616 311.142 Q 207.876 313.542 207.896 316.672 Q 207.926 320.622 207.656 323.332 Q 207.416 325.752 204.886 326.272 Z " fill="rgb(113,55,53)"/><path d=" M 315.556 299.772 Q 315.246 305.122 313.596 310.232 Q 302.716 336.952 273.596 338.972 Q 259.476 339.952 246.906 332.462 Q 241.086 328.992 237.806 326.272 Q 237.566 324.522 238.766 323.642 Q 239.596 323.032 241.176 323.282 Q 246.146 324.102 251.016 325.382 Q 257.996 327.212 260.826 327.452 Q 267.766 328.052 274.626 326.622 Q 279.626 325.582 281.596 325.112 Q 285.506 324.162 288.286 322.462 Q 290.396 321.172 292.396 317.832 Q 295.396 312.852 300.506 310.542 Q 305.966 308.092 305.996 308.072 Q 310.676 305.162 314.156 300.332 Q 314.586 299.742 315.556 299.772 Z " fill="rgb(51,99,106)"/><path d=" M 206.846 261.062 Q 202.446 260.502 200.786 256.582 Q 199.846 254.392 199.806 251.272 Q 200.276 247.612 201.276 250.572 Q 201.696 251.802 201.806 253.102 Q 202.426 260.162 208.786 260.912 Q 209.286 260.972 208.786 260.992 L 206.846 261.062 Z " fill="rgb(167,64,95)"/><path d=" M 333.886 304.772 Q 335.416 305.612 335.806 307.272 Q 335.846 312.032 333.406 317.582 Q 332.326 320.032 330.846 320.982 Q 331.226 319.652 330.056 319.272 Q 330.106 317.802 330.806 316.522 Q 330.926 317.492 331.576 317.382 C 331.95 317.276 332.188 317.014 332.166 316.732 Q 333.806 310.872 333.886 304.772 Z " fill="rgb(167,64,95)"/><path d=" M 220.136 305.772 L 221.056 307.022 L 223.596 314.232 Q 220.946 319.032 220.806 324.522 L 220.526 326.722 Q 220.506 326.872 220.486 326.702 L 219.676 320.512 C 219.614 320.19 219.659 319.861 219.806 319.562 Q 222.226 313.862 219.306 308.272 Q 219.346 306.912 220.136 305.772 Z " fill="rgb(161,54,98)"/><path d=" M 265.556 315.772 Q 266.016 319.122 263.786 320.712 Q 258.546 324.442 252.386 321.022 L 250.806 319.272 L 251.286 318.162 Q 251.586 317.472 251.586 317.272 Q 251.526 309.652 258.526 309.272 Q 260.226 309.182 261.506 309.962 Q 262.896 310.822 263.826 312.172 Q 264.086 312.542 264.486 314.012 Q 264.766 315.002 265.556 315.772 Z " fill="rgb(46,93,77)"/><path d=" M 317.886 313.022 Q 306.886 339.822 278.156 345.062 Q 267.326 347.032 256.846 343.732 Q 242.456 338.842 232.636 327.272 L 235.846 324.732 L 237.806 326.272 Q 241.086 328.992 246.906 332.462 Q 259.476 339.952 273.596 338.972 Q 302.716 336.952 313.596 310.232 Q 314.866 309.422 315.786 310.832 Q 316.796 312.392 317.886 313.022 Z " fill="rgb(147,233,237)"/><path d=" M 228.346 314.232 L 231.096 318.562 L 235.846 324.732 L 232.636 327.272 Q 229.036 323.422 226.556 318.772 L 225.056 315.522 Q 226.506 314.312 228.346 314.232 Z " fill="rgb(186,247,175)"/><path d=" M 266.386 314.022 L 265.556 315.772 Q 264.766 315.002 264.486 314.012 Q 264.086 312.542 263.826 312.172 Q 262.896 310.822 261.506 309.962 Q 260.226 309.182 258.526 309.272 Q 251.526 309.652 251.586 317.272 Q 251.586 317.472 251.286 318.162 L 250.806 319.272 Q 246.406 315.272 248.596 309.772 Q 249.596 307.252 251.866 305.942 Q 253.756 304.852 256.516 304.852 Q 264.846 304.872 266.386 314.022 Z " fill="rgb(49,113,90)"/><path d=" M 351.346 273.562 Q 348.136 274.072 350.786 271.962 Q 352.046 270.952 358.136 268.232 Q 363.576 265.802 365.226 264.162 Q 368.246 261.152 368.136 256.802 Q 368.036 253.032 365.446 249.932 Q 362.506 246.412 358.046 245.292 Q 354.806 244.482 349.606 244.682 Q 343.836 244.902 337.846 247.022 Q 336.846 247.372 336.096 246.232 Q 347.136 241.012 359.096 243.792 Q 366.196 245.442 369.076 251.142 Q 371.456 255.872 370.236 260.612 Q 368.886 265.882 363.096 268.352 Q 357.186 270.872 351.346 273.562 Z " fill="rgb(247,210,144)"/><path d=" M 149.886 294.022 Q 151.996 298.752 157.096 299.022 Q 165.726 299.482 178.846 299.212 Q 190.206 298.972 199.386 305.522 Q 199.306 306.952 198.276 306.962 Q 197.786 306.972 196.906 306.412 Q 195.486 305.522 193.926 304.902 Q 193.826 304.862 193.256 304.742 Q 192.846 304.652 192.666 304.322 C 192.872 304.08 192.614 303.804 192.056 303.672 Q 186.176 301.602 184.596 301.522 Q 176.556 301.092 168.526 301.542 Q 164.896 301.742 161.686 301.352 Q 158.276 300.942 154.876 300.552 Q 150.336 300.032 147.906 296.232 Q 146.256 293.652 147.596 291.272 Q 148.256 290.102 149.586 290.622 C 149.732 290.677 149.843 290.783 149.889 290.914 C 149.935 291.044 149.912 291.186 149.826 291.302 Q 149.276 292.732 149.716 294.252 Q 149.806 294.542 149.856 294.242 L 149.886 294.022 Z " fill="rgb(247,210,144)"/><path d=" M 223.596 314.232 Q 224.536 314.632 225.056 315.522 L 226.556 318.772 L 222.596 327.622 C 222.178 327.897 222.143 328.267 222.506 328.572 Q 222.616 329.592 221.866 330.022 C 221.756 330.064 221.63 330.053 221.53 329.993 C 221.43 329.933 221.369 329.831 221.366 329.722 L 220.806 324.522 Q 220.946 319.032 223.596 314.232 Z " fill="rgb(247,210,144)"/><path d=" M 318.636 281.022 Q 320.586 283.812 320.806 287.272 L 320.386 287.272 L 318.636 281.022 Z " fill="rgb(151,155,122)"/><path d=" M 216.846 243.212 Q 215.536 244.672 215.166 242.772 C 215.11 242.459 215.216 242.14 215.446 241.922 Q 217.126 240.312 217.166 242.332 C 217.183 242.654 217.068 242.969 216.846 243.212 Z " fill="rgb(238,145,79)"/><path d=" M 184.656 262.712 Q 187.236 264.422 190.346 264.522 C 190.677 264.532 190.955 264.732 191.016 265.002 Q 191.166 265.842 190.036 265.962 Q 186.776 266.282 184.036 264.352 Q 182.046 262.952 181.736 260.932 Q 181.296 258.042 184.626 256.912 C 184.929 256.843 185.252 256.941 185.416 257.152 Q 185.696 257.722 185.036 258.462 Q 182.506 261.282 184.656 262.712 Z " fill="rgb(238,145,79)"/><path d=" M 171.426 269.602 Q 172.056 267.782 172.896 269.562 C 173.066 269.849 173.07 270.193 172.906 270.482 Q 172.326 271.622 171.546 270.512 C 171.349 270.246 171.304 269.905 171.426 269.602 L 171.426 269.602 Z " fill="rgb(238,145,79)"/><path d=" M 198.419 271.137 C 198.247 270.81 198.459 270.358 198.894 270.129 C 199.328 269.9 199.821 269.98 199.994 270.307 C 200.166 270.634 199.953 271.085 199.519 271.315 C 199.084 271.544 198.592 271.464 198.419 271.137 Z " fill="rgb(116,63,97)"/><path d=" M 211.661 272.577 C 211.853 272.229 212.37 272.146 212.814 272.391 C 213.259 272.637 213.464 273.119 213.272 273.466 C 213.08 273.814 212.563 273.898 212.118 273.652 C 211.674 273.407 211.469 272.925 211.661 272.577 Z " fill="rgb(158,232,224)"/><path d=" M 291.906 267.104 C 294.699 267.284 296.8 269.993 296.596 273.149 C 296.392 276.305 293.959 278.72 291.167 278.54 C 288.374 278.359 286.273 275.651 286.477 272.495 C 286.681 269.339 289.114 266.923 291.906 267.104 Z " fill="rgb(55,102,78)"/><path d=" M 272.786 271.082 Q 268.846 267.742 272.346 266.292 Q 274.106 265.562 275.766 266.482 Q 279.456 268.522 278.176 273.232 C 278.141 273.355 278.056 273.458 277.94 273.517 C 277.825 273.575 277.689 273.585 277.566 273.542 Q 274.296 272.372 272.786 271.082 Z " fill="rgb(49,113,90)"/><path d=" M 270.426 319.482 Q 267.206 316.032 270.336 314.742 Q 272.236 313.972 273.696 315.142 Q 275.656 316.702 274.906 319.832 Q 274.446 321.752 272.796 321.102 Q 271.426 320.562 270.426 319.482 Z " fill="rgb(49,113,90)"/></g></g></svg>