<?xml version="1.0" encoding="UTF-8" standalone="no"?><!-- Generator: Gravit.io --><svg xmlns="http://www.w3.org/2000/svg" xmlns:xlink="http://www.w3.org/1999/xlink" style="isolation:isolate" viewBox="212.256 206.037 143.74 132.677" width="143.74pt" height="132.677pt"><defs><clipPath id="_clipPath_aVuEN1EorGIgBrvwaBrxEQAg8wtkZKOs"><rect x="212.256" y="206.037" width="143.74" height="132.677"/></clipPath></defs><g clip-path="url(#_clipPath_aVuEN1EorGIgBrvwaBrxEQAg8wtkZKOs)"><path d=" M 260.801 232.303 Q 263.391 233.603 263.791 236.593 Q 264.561 242.353 269.211 246.013 L 268.501 247.733 Q 268.201 248.453 268.901 248.063 Q 269.931 247.493 270.301 246.883 L 273.011 243.843 Q 273.351 246.283 274.791 247.353 Q 271.821 251.863 269.671 256.783 Q 268.551 259.343 267.341 261.023 Q 265.211 263.993 264.241 264.783 Q 262.921 265.863 260.551 265.383 L 262.121 265.003 C 262.415 264.93 262.643 264.702 262.711 264.413 Q 263.121 262.533 264.271 261.053 Q 265.841 259.033 266.091 258.103 Q 266.561 256.363 266.411 254.523 C 266.415 254.205 266.288 253.894 266.051 253.643 Q 261.881 248.443 259.091 242.343 Q 257.851 239.083 257.841 235.593 Q 258.901 233.563 260.801 232.303 Z " fill="rgb(159,134,102)"/><path d=" M 221.091 237.343 Q 220.651 248.393 226.201 258.263 Q 221.241 258.033 220.451 253.433 Q 219.761 249.473 219.731 249.323 Q 218.171 243.063 219.091 236.593 Q 220.631 235.683 221.091 237.343 Z " fill="rgb(126,203,137)"/><path d=" M 259.091 242.343 Q 261.881 248.443 266.051 253.643 C 266.288 253.894 266.415 254.205 266.411 254.523 Q 266.561 256.363 266.091 258.103 Q 265.841 259.033 264.271 261.053 Q 263.121 262.533 262.711 264.413 C 262.643 264.702 262.415 264.93 262.121 265.003 L 260.551 265.383 Q 256.161 265.703 259.761 262.843 Q 262.371 260.153 261.761 256.343 Q 262.141 255.423 262.081 256.853 Q 262.061 257.363 262.481 257.073 Q 264.731 255.543 263.231 253.403 Q 262.111 251.803 262.031 251.663 Q 260.001 248.043 257.811 244.523 C 257.576 244.268 257.557 243.923 257.761 243.653 Q 258.211 242.853 259.091 242.343 Z " fill="rgb(192,203,129)"/><path d=" M 307.801 243.133 Q 310.041 242.583 311.341 244.343 Q 309.841 247.893 306.341 246.593 Q 305.381 245.493 306.341 244.593 Q 307.261 244.053 307.801 243.133 Z " fill="rgb(192,203,129)"/><path d=" M 282.011 247.593 Q 282.021 249.503 280.511 250.563 Q 279.071 251.573 279.611 253.133 C 279.656 253.248 279.751 253.34 279.871 253.384 C 279.992 253.428 280.127 253.42 280.241 253.363 Q 285.051 250.813 288.821 246.973 L 291.201 247.513 Q 288.411 250.453 289.801 255.053 Q 287.871 257.603 289.781 258.963 Q 289.851 259.013 292.571 260.533 Q 297.011 263.013 301.551 259.803 Q 302.771 260.743 303.051 262.303 Q 299.151 265.593 294.741 266.033 Q 287.721 266.723 282.051 269.133 Q 280.651 269.733 278.141 271.843 Q 275.711 273.893 272.591 274.843 Q 271.761 273.393 272.301 271.843 Q 273.161 269.363 270.801 269.093 L 268.061 268.773 Q 266.401 268.583 267.411 267.383 Q 271.121 262.953 274.201 258.213 Q 276.101 255.293 275.011 251.033 C 274.835 250.338 274.917 249.603 275.241 248.963 Q 275.771 247.903 274.791 247.353 Q 273.351 246.283 273.011 243.843 Q 274.481 243.093 275.491 244.153 Q 276.401 245.123 277.641 247.583 C 277.755 247.855 278.007 248.074 278.331 248.183 Q 280.241 248.683 282.011 247.593 Z " fill="rgb(184,114,105)"/><path d=" M 274.791 247.353 Q 275.771 247.903 275.241 248.963 C 274.917 249.603 274.835 250.338 275.011 251.033 Q 276.101 255.293 274.201 258.213 Q 271.121 262.953 267.411 267.383 Q 266.401 268.583 268.061 268.773 L 270.801 269.093 Q 273.161 269.363 272.301 271.843 Q 271.761 273.393 272.591 274.843 L 268.571 276.473 C 268.455 276.518 268.367 276.614 268.33 276.732 C 268.293 276.851 268.312 276.98 268.381 277.083 Q 269.491 278.703 271.131 279.673 Q 271.591 279.953 273.731 280.273 Q 275.531 280.533 275.821 282.533 C 275.796 282.841 275.959 283.138 276.261 283.333 Q 278.281 284.773 278.261 282.403 C 278.281 282.103 278.093 281.821 277.781 281.683 Q 274.791 280.083 277.201 277.453 C 277.288 277.37 277.416 277.318 277.555 277.306 C 277.694 277.295 277.833 277.326 277.941 277.393 Q 278.241 277.923 277.561 279.183 Q 280.911 282.593 285.801 280.803 Q 289.491 279.413 291.111 276.153 Q 291.831 274.713 293.051 274.633 Q 292.731 275.063 292.761 275.593 Q 292.361 276.143 292.591 276.843 Q 291.171 278.423 292.521 279.783 Q 291.781 284.213 294.991 287.123 Q 295.531 287.613 296.261 287.733 Q 299.221 288.213 296.841 285.843 Q 299.631 285.763 300.001 283.093 C 300.026 282.787 300.213 282.513 300.501 282.363 Q 303.001 281.053 305.081 279.123 Q 308.021 276.403 311.561 274.633 Q 313.691 273.573 315.201 273.973 Q 317.471 274.563 317.741 277.473 Q 315.631 279.443 313.241 281.013 Q 309.631 283.383 309.571 283.423 Q 304.801 286.783 299.961 290.063 C 299.598 290.263 299.392 290.534 299.391 290.813 L 298.591 292.633 C 298.559 292.695 298.566 292.767 298.609 292.823 C 298.653 292.879 298.726 292.909 298.801 292.903 L 299.271 292.883 Q 300.091 292.863 299.281 293.243 Q 296.831 294.393 294.481 295.723 Q 292.391 296.893 290.311 296.973 Q 284.931 297.183 279.611 296.363 C 279.295 296.291 279.042 296.084 278.941 295.813 Q 278.181 294.083 276.591 295.593 Q 276.631 295.013 276.051 295.053 Q 277.001 293.733 277.091 292.093 Q 281.111 293.613 283.121 289.893 Q 283.991 288.283 282.411 287.353 Q 280.121 286.023 277.481 286.993 Q 274.411 287.183 271.361 290.153 Q 268.911 292.553 264.301 293.303 L 266.591 290.843 C 267.187 290.651 267.383 290.317 267.061 290.043 Q 267.961 283.703 265.051 278.053 Q 266.381 276.403 266.881 274.383 C 266.971 274.079 266.887 273.751 266.661 273.523 L 265.301 272.133 Q 267.401 269.233 264.931 267.923 Q 264.081 267.473 261.571 267.283 Q 257.321 266.953 253.571 264.863 Q 251.061 263.463 250.161 260.763 Q 249.791 259.663 250.221 259.773 Q 250.441 259.823 250.641 260.173 Q 252.391 263.083 254.551 263.843 Q 256.691 264.593 258.511 262.343 Q 259.071 262.753 259.761 262.843 Q 256.161 265.703 260.551 265.383 Q 262.921 265.863 264.241 264.783 Q 265.211 263.993 267.341 261.023 Q 268.551 259.343 269.671 256.783 Q 271.821 251.863 274.791 247.353 Z " fill="rgb(142,98,120)"/><path d=" M 311.341 244.343 Q 317.901 246.753 313.801 253.133 Q 308.901 258.293 303.051 262.303 Q 302.771 260.743 301.551 259.803 Q 302.071 258.743 300.961 258.203 Q 295.661 255.663 289.801 255.053 Q 288.411 250.453 291.201 247.513 Q 297.121 248.393 302.801 249.093 Q 306.151 249.503 306.341 246.593 Q 309.841 247.893 311.341 244.343 Z " fill="rgb(161,106,117)"/><path d=" M 258.511 262.343 Q 256.691 264.593 254.551 263.843 Q 252.391 263.083 250.641 260.173 Q 250.441 259.823 250.221 259.773 Q 249.791 259.663 250.161 260.763 Q 251.061 263.463 253.571 264.863 Q 257.321 266.953 261.571 267.283 Q 264.081 267.473 264.931 267.923 Q 267.401 269.233 265.301 272.133 Q 261.761 268.503 257.131 271.003 Q 253.861 272.763 253.051 274.343 Q 251.481 277.383 253.081 279.423 Q 254.351 281.023 257.021 281.113 Q 261.481 281.253 265.051 278.053 Q 267.961 283.703 267.061 290.043 C 267.383 290.317 267.187 290.651 266.591 290.843 L 264.301 293.303 Q 257.141 293.793 252.051 288.343 Q 249.561 285.663 248.681 282.613 Q 247.391 278.133 247.291 277.853 Q 245.791 273.533 246.141 268.933 Q 246.211 267.953 246.051 266.893 Q 245.821 265.443 246.051 264.843 Q 246.641 263.293 247.051 258.593 Q 247.341 255.193 250.591 247.683 Q 251.491 244.293 253.491 246.153 Q 259.321 251.593 259.801 259.093 Q 259.911 260.733 258.511 262.343 Z " fill="rgb(161,106,117)"/><path d=" M 313.801 253.133 L 314.591 254.593 L 312.011 259.593 Q 310.621 261.003 310.551 263.053 Q 309.971 263.183 309.551 263.633 Q 307.521 263.923 307.861 265.453 Q 308.071 266.383 309.131 266.913 Q 310.951 267.813 313.051 267.843 C 313.394 267.871 313.705 267.994 313.911 268.183 Q 314.551 268.933 314.281 269.933 C 314.225 270.223 313.996 270.478 313.661 270.623 Q 307.101 273.853 302.361 278.903 Q 301.061 280.303 299.361 280.303 Q 298.981 280.313 299.341 280.133 Q 300.111 279.763 300.051 278.593 Q 299.981 277.373 300.931 276.423 C 301.3 276.205 301.477 275.903 301.411 275.603 Q 301.921 272.843 298.801 273.133 Q 295.531 272.393 293.051 274.633 Q 291.831 274.713 291.111 276.153 Q 289.491 279.413 285.801 280.803 Q 282.111 279.333 277.561 279.183 Q 278.241 277.923 277.941 277.393 C 277.833 277.326 277.694 277.295 277.555 277.306 C 277.416 277.318 277.288 277.37 277.201 277.453 Q 274.791 280.083 277.781 281.683 C 278.093 281.821 278.281 282.103 278.261 282.403 Q 278.281 284.773 276.261 283.333 C 275.959 283.138 275.796 282.841 275.821 282.533 Q 275.531 280.533 273.731 280.273 Q 271.591 279.953 271.131 279.673 Q 269.491 278.703 268.381 277.083 C 268.312 276.98 268.293 276.851 268.33 276.732 C 268.367 276.614 268.455 276.518 268.571 276.473 L 272.591 274.843 Q 275.711 273.893 278.141 271.843 Q 280.651 269.733 282.051 269.133 Q 287.721 266.723 294.741 266.033 Q 299.151 265.593 303.051 262.303 Q 308.901 258.293 313.801 253.133 Z " fill="rgb(161,106,117)"/><path d=" M 318.341 239.843 Q 317.451 241.853 315.301 241.553 Q 315.601 238.473 318.341 239.843 Z " fill="rgb(59,56,87)"/><path d=" M 288.821 246.973 Q 285.051 250.813 280.241 253.363 C 280.127 253.42 279.992 253.428 279.871 253.384 C 279.751 253.34 279.656 253.248 279.611 253.133 Q 279.071 251.573 280.511 250.563 Q 282.021 249.503 282.011 247.593 Q 284.921 244.473 288.821 246.973 Z " fill="rgb(211,130,125)"/><path d=" M 277.561 279.183 Q 282.111 279.333 285.801 280.803 Q 280.911 282.593 277.561 279.183 Z " fill="rgb(211,130,125)"/><path d=" M 336.078 263.023 C 336.715 263.094 337.147 263.912 337.044 264.85 C 336.94 265.788 336.34 266.493 335.703 266.423 C 335.067 266.352 334.634 265.534 334.738 264.596 C 334.841 263.658 335.442 262.953 336.078 263.023 Z " fill="rgb(194,199,155)"/><path d=" M 269.211 246.013 Q 269.521 246.723 270.301 246.883 Q 269.931 247.493 268.901 248.063 Q 268.201 248.453 268.501 247.733 L 269.211 246.013 Z " fill="rgb(109,104,123)"/><path d=" M 304.091 229.593 Q 309.631 233.303 314.571 237.983 Q 314.481 240.013 315.301 241.553 Q 317.451 241.853 318.341 239.843 Q 322.701 238.693 324.411 242.183 Q 319.871 245.733 316.921 250.193 Q 316.691 250.543 317.051 250.633 L 316.801 251.803 Q 315.351 252.103 315.841 253.343 Q 315.401 254.163 314.591 254.593 L 313.801 253.133 Q 317.901 246.753 311.341 244.343 Q 310.041 242.583 307.801 243.133 L 306.051 242.553 Q 304.831 241.543 303.411 241.463 Q 300.921 241.333 300.711 241.273 Q 297.171 240.373 293.861 238.793 Q 290.761 237.313 290.621 233.903 C 290.571 233.769 290.596 233.625 290.689 233.509 C 290.782 233.393 290.933 233.317 291.101 233.303 Q 291.931 233.343 292.541 234.953 C 292.686 235.342 293.01 235.636 293.411 235.743 Q 298.981 237.263 301.701 233.453 Q 301.911 233.163 302.031 232.523 Q 302.251 231.303 303.741 231.453 C 303.848 231.462 303.953 231.419 304.024 231.338 C 304.095 231.258 304.123 231.148 304.101 231.043 Q 303.951 230.343 304.091 229.593 Z " fill="rgb(124,90,110)"/><path d=" M 250.591 247.683 Q 247.341 255.193 247.051 258.593 Q 246.641 263.293 246.051 264.843 Q 245.821 265.443 246.051 266.893 Q 246.211 267.953 246.141 268.933 Q 245.791 273.533 247.291 277.853 Q 247.391 278.133 248.681 282.613 Q 249.561 285.663 252.051 288.343 Q 257.141 293.793 264.301 293.303 Q 268.911 292.553 271.361 290.153 Q 274.411 287.183 277.481 286.993 Q 274.511 289.033 277.091 292.093 Q 277.001 293.733 276.051 295.053 L 273.801 296.633 Q 271.921 295.923 271.051 297.553 Q 270.451 297.713 269.871 297.903 Q 269.431 298.043 268.691 298.113 Q 266.951 298.263 268.551 299.803 L 265.351 299.313 C 265.054 299.268 264.804 299.078 264.691 298.813 Q 264.141 297.503 262.971 296.823 Q 262.391 296.493 260.531 296.383 Q 258.541 296.273 257.121 294.993 Q 255.151 293.223 254.441 292.803 Q 247.671 288.733 244.831 281.173 Q 243.011 276.313 243.051 273.843 Q 243.101 271.143 242.091 269.843 Q 243.711 258.913 247.681 248.633 C 247.782 248.369 248.044 248.168 248.371 248.103 L 250.591 247.683 Z " fill="rgb(124,90,110)"/><path d=" M 289.801 255.053 Q 295.661 255.663 300.961 258.203 Q 302.071 258.743 301.551 259.803 Q 297.011 263.013 292.571 260.533 Q 289.851 259.013 289.781 258.963 Q 287.871 257.603 289.801 255.053 Z " fill="rgb(124,90,110)"/><path d=" M 330.721 259.553 Q 330.461 271.963 327.301 283.843 Q 326.571 286.583 320.801 297.053 Q 319.701 297.663 320.021 298.583 C 320.08 298.693 320.086 298.821 320.037 298.934 C 319.987 299.048 319.887 299.138 319.761 299.183 Q 316.331 300.363 314.261 303.343 Q 311.241 304.553 308.921 306.823 Q 308.781 306.963 307.461 308.103 Q 305.461 309.843 307.601 311.603 Q 308.021 311.963 308.181 312.373 Q 309.031 314.663 308.491 317.043 Q 308.421 317.363 308.451 317.043 Q 308.601 315.533 307.091 315.343 Q 306.191 310.673 302.761 307.343 Q 301.561 305.873 299.551 306.303 Q 301.121 305.523 302.671 306.283 C 302.945 306.398 303.264 306.402 303.541 306.293 Q 305.841 305.023 308.081 303.683 Q 317.511 298.043 321.991 288.033 Q 325.431 280.333 325.771 269.133 Q 325.811 267.863 325.531 267.093 Q 324.691 264.843 322.741 267.533 Q 321.511 269.223 321.011 273.093 Q 320.411 276.293 317.741 277.473 Q 317.471 274.563 315.201 273.973 Q 313.691 273.573 311.561 274.633 Q 308.021 276.403 305.081 279.123 Q 303.001 281.053 300.501 282.363 C 300.213 282.513 300.026 282.787 300.001 283.093 Q 299.631 285.763 296.841 285.843 Q 295.901 284.713 296.591 283.343 Q 298.161 282.533 297.501 280.803 C 297.404 280.527 297.159 280.299 296.831 280.183 Q 294.161 279.233 292.591 276.843 Q 292.361 276.143 292.761 275.593 Q 293.251 276.433 294.301 276.633 Q 297.451 280.193 300.091 276.343 Q 301.011 274.193 298.801 273.133 Q 301.921 272.843 301.411 275.603 C 301.477 275.903 301.3 276.205 300.931 276.423 Q 299.981 277.373 300.051 278.593 Q 300.111 279.763 299.341 280.133 Q 298.981 280.313 299.361 280.303 Q 301.061 280.303 302.361 278.903 Q 307.101 273.853 313.661 270.623 C 313.996 270.478 314.225 270.223 314.281 269.933 Q 314.551 268.933 313.911 268.183 C 313.705 267.994 313.394 267.871 313.051 267.843 Q 310.951 267.813 309.131 266.913 Q 308.071 266.383 307.861 265.453 Q 307.521 263.923 309.551 263.633 Q 308.521 265.613 310.801 265.843 Q 321.991 266.993 330.721 259.553 Z " fill="rgb(124,90,110)"/><path d=" M 265.301 272.133 L 266.661 273.523 C 266.887 273.751 266.971 274.079 266.881 274.383 Q 266.381 276.403 265.051 278.053 Q 261.481 281.253 257.021 281.113 Q 254.351 281.023 253.081 279.423 Q 251.481 277.383 253.051 274.343 Q 253.861 272.763 257.131 271.003 Q 261.761 268.503 265.301 272.133 Z " fill="rgb(124,90,110)"/><path d=" M 249.304 234.453 C 249.826 234.406 250.352 235.483 250.477 236.857 C 250.602 238.231 250.28 239.385 249.757 239.433 C 249.235 239.48 248.71 238.403 248.585 237.029 C 248.46 235.655 248.782 234.501 249.304 234.453 Z " fill="rgb(121,179,211)"/><path d=" M 269.761 226.843 Q 275.101 234.393 283.741 237.453 Q 289.421 242.243 296.511 241.603 Q 301.211 242.623 306.051 242.553 L 307.801 243.133 Q 307.261 244.053 306.341 244.593 Q 306.371 243.003 305.421 243.843 Q 305.151 244.083 304.921 244.543 Q 304.301 245.753 303.531 246.873 C 303.347 247.129 303.048 247.279 302.731 247.273 Q 282.361 247.053 267.371 233.523 Q 265.741 232.053 267.051 230.553 Q 268.071 230.333 268.761 231.423 Q 268.971 231.753 269.141 231.403 Q 269.581 230.523 268.841 229.593 L 268.511 228.343 Q 268.521 227.063 269.761 226.843 Z " fill="rgb(154,183,128)"/><path d=" M 331.011 245.343 Q 330.971 246.023 330.111 248.903 Q 329.061 252.403 330.831 254.943 Q 325.341 258.083 319.421 260.203 L 327.761 253.483 C 327.911 253.389 328 253.23 327.998 253.06 C 327.996 252.89 327.903 252.733 327.751 252.643 Q 327.191 252.283 326.521 253.043 Q 323.891 256.053 320.331 257.703 Q 320.061 257.833 317.181 259.583 Q 314.831 261.023 312.011 259.593 L 314.591 254.593 Q 315.401 254.163 315.841 253.343 Q 323.871 250.893 330.341 245.593 Q 330.631 245.333 331.011 245.343 Z " fill="rgb(101,76,99)"/><path d=" M 321.011 273.093 Q 320.811 276.263 319.951 279.293 Q 319.931 279.373 319.331 281.943 Q 318.761 284.433 316.911 286.253 C 316.688 286.435 316.38 286.555 316.041 286.593 Q 314.191 286.673 313.301 288.303 Q 311.461 289.323 309.241 291.783 Q 305.091 296.373 303.151 299.323 L 297.001 302.373 C 296.691 302.513 296.492 302.788 296.481 303.093 Q 296.341 305.003 298.201 304.913 Q 299.021 304.873 299.391 304.993 Q 300.541 305.353 297.031 305.333 C 296.609 305.326 296.244 305.627 296.171 306.043 Q 295.861 307.823 297.511 307.343 L 300.051 309.883 Q 300.001 310.623 300.221 310.973 Q 293.661 314.003 286.611 315.113 Q 283.441 315.613 278.461 315.543 Q 272.661 315.463 270.301 315.343 Q 266.161 315.133 263.051 312.133 L 266.051 311.803 Q 269.551 312.633 273.021 312.163 Q 275.171 311.873 279.771 310.913 Q 284.731 309.893 289.051 307.053 Q 290.941 307.173 291.551 305.383 Q 295.091 303.063 295.051 298.853 C 295.04 298.635 294.912 298.439 294.712 298.333 C 294.513 298.227 294.27 298.227 294.071 298.333 L 286.591 302.593 Q 284.931 299.923 281.991 299.943 Q 281.731 299.943 279.121 299.823 Q 277.431 299.743 276.101 300.923 C 275.879 301.117 275.57 301.213 275.261 301.183 L 270.801 300.303 Q 274.641 299.083 276.591 295.593 Q 278.181 294.083 278.941 295.813 C 279.042 296.084 279.295 296.291 279.611 296.363 Q 284.931 297.183 290.311 296.973 Q 292.391 296.893 294.481 295.723 Q 296.831 294.393 299.281 293.243 Q 300.091 292.863 299.271 292.883 L 298.801 292.903 C 298.726 292.909 298.653 292.879 298.609 292.823 C 298.566 292.767 298.559 292.695 298.591 292.633 L 299.391 290.813 C 299.392 290.534 299.598 290.263 299.961 290.063 Q 304.801 286.783 309.571 283.423 Q 309.631 283.383 313.241 281.013 Q 315.631 279.443 317.741 277.473 Q 320.411 276.293 321.011 273.093 Z " fill="rgb(101,76,99)"/><path d=" M 263.261 215.843 L 263.761 216.593 L 264.591 218.343 L 265.341 221.843 Q 265.141 222.923 264.401 223.743 C 264.196 223.969 264.124 224.283 264.211 224.573 Q 264.401 225.273 264.021 225.183 Q 263.641 225.093 263.581 225.093 Q 261.381 225.153 260.541 227.053 Q 260.421 227.333 260.471 228.013 L 260.801 232.303 Q 258.901 233.563 257.841 235.593 Q 256.571 226.933 260.761 219.343 L 263.261 215.843 Z " fill="rgb(89,61,85)"/><path d=" M 299.551 306.303 L 299.301 306.383 Q 298.051 306.223 297.511 307.343 Q 295.861 307.823 296.171 306.043 C 296.244 305.627 296.609 305.326 297.031 305.333 Q 300.541 305.353 299.391 304.993 Q 299.021 304.873 298.201 304.913 Q 296.341 305.003 296.481 303.093 C 296.492 302.788 296.691 302.513 297.001 302.373 L 303.151 299.323 Q 311.281 296.643 314.741 290.783 Q 316.191 288.303 313.301 288.303 Q 314.191 286.673 316.041 286.593 C 316.38 286.555 316.688 286.435 316.911 286.253 Q 318.761 284.433 319.331 281.943 Q 319.931 279.373 319.951 279.293 Q 320.811 276.263 321.011 273.093 Q 321.511 269.223 322.741 267.533 Q 324.691 264.843 325.531 267.093 Q 325.811 267.863 325.771 269.133 Q 325.431 280.333 321.991 288.033 Q 317.511 298.043 308.081 303.683 Q 305.841 305.023 303.541 306.293 C 303.264 306.402 302.945 306.398 302.671 306.283 Q 301.121 305.523 299.551 306.303 Z " fill="rgb(89,61,85)"/><path d=" M 242.091 269.843 Q 243.101 271.143 243.051 273.843 Q 243.011 276.313 244.831 281.173 Q 247.671 288.733 254.441 292.803 Q 255.151 293.223 257.121 294.993 Q 258.541 296.273 260.531 296.383 Q 262.391 296.493 262.971 296.823 Q 264.141 297.503 264.691 298.813 C 264.804 299.078 265.054 299.268 265.351 299.313 L 268.551 299.803 Q 269.621 300.313 270.801 300.303 L 275.261 301.183 C 275.57 301.213 275.879 301.117 276.101 300.923 Q 277.431 299.743 279.121 299.823 Q 281.731 299.943 281.991 299.943 Q 284.931 299.923 286.591 302.593 Q 278.661 306.913 269.551 306.353 Q 266.761 306.183 264.041 306.743 Q 263.471 306.853 263.071 306.663 Q 262.011 306.183 263.341 305.543 C 263.675 305.4 263.914 305.161 264.001 304.883 Q 264.671 303.083 263.041 302.673 C 262.706 302.675 262.38 302.738 262.111 302.853 Q 261.141 303.353 260.301 303.093 Q 257.571 302.243 251.551 299.843 Q 247.781 298.343 245.511 295.623 Q 239.921 288.923 240.051 279.593 Q 240.071 278.013 240.871 277.123 Q 241.271 276.673 241.371 276.303 Q 242.131 273.213 241.301 270.133 Q 241.821 270.213 242.091 269.843 Z " fill="rgb(89,61,85)"/><path d=" M 292.591 276.843 Q 294.161 279.233 296.831 280.183 C 297.159 280.299 297.404 280.527 297.501 280.803 Q 298.161 282.533 296.591 283.343 Q 295.821 280.713 292.521 279.783 Q 291.171 278.423 292.591 276.843 Z " fill="rgb(89,61,85)"/><path d=" M 221.591 228.843 Q 222.761 230.423 222.111 232.653 Q 221.901 233.373 221.091 237.343 Q 220.631 235.683 219.091 236.593 Q 219.621 232.493 221.591 228.843 Z " fill="rgb(145,161,142)"/><path d=" M 292.521 279.783 Q 295.821 280.713 296.591 283.343 Q 295.901 284.713 296.841 285.843 Q 299.221 288.213 296.261 287.733 Q 295.531 287.613 294.991 287.123 Q 291.781 284.213 292.521 279.783 Z " fill="rgb(145,161,142)"/><path d=" M 265.341 221.843 L 265.761 222.343 L 268.511 228.343 L 268.841 229.593 Q 268.261 230.533 267.051 230.553 Q 265.741 232.053 267.371 233.523 Q 282.361 247.053 302.731 247.273 C 303.048 247.279 303.347 247.129 303.531 246.873 Q 304.301 245.753 304.921 244.543 Q 305.151 244.083 305.421 243.843 Q 306.371 243.003 306.341 244.593 Q 305.381 245.493 306.341 246.593 Q 306.151 249.503 302.801 249.093 Q 297.121 248.393 291.201 247.513 L 288.821 246.973 Q 284.921 244.473 282.011 247.593 Q 280.241 248.683 278.331 248.183 C 278.007 248.074 277.755 247.855 277.641 247.583 Q 276.401 245.123 275.491 244.153 Q 274.481 243.093 273.011 243.843 L 270.301 246.883 Q 269.521 246.723 269.211 246.013 Q 264.561 242.353 263.791 236.593 Q 263.391 233.603 260.801 232.303 L 260.471 228.013 Q 260.421 227.333 260.541 227.053 Q 261.381 225.153 263.581 225.093 Q 263.641 225.093 264.021 225.183 Q 264.401 225.273 264.211 224.573 C 264.124 224.283 264.196 223.969 264.401 223.743 Q 265.141 222.923 265.341 221.843 Z " fill="rgb(74,80,111)"/><path d=" M 237.851 267.923 Q 230.481 266.003 227.301 259.633 Q 229.351 259.343 229.531 256.713 Q 229.641 255.023 230.631 256.403 Q 231.611 257.753 232.361 260.323 Q 233.741 264.993 237.851 267.923 Z " fill="rgb(74,80,111)"/><path d=" M 236.111 275.623 L 237.801 275.553 Q 239.321 276.273 237.661 277.043 C 236.943 277.376 236.456 278.061 236.381 278.843 Q 235.111 291.303 241.741 300.393 Q 244.201 303.763 247.991 305.443 Q 253.651 307.963 259.801 307.843 Q 261.961 307.803 262.841 309.393 Q 263.091 309.853 263.481 310.103 L 266.051 311.803 L 263.051 312.133 L 261.541 310.563 C 261.376 310.366 261.086 310.218 260.741 310.153 Q 254.161 310.123 252.051 309.843 Q 247.041 309.183 243.331 306.283 Q 239.821 303.533 237.111 299.583 Q 235.131 296.703 234.311 293.243 Q 233.321 289.053 232.951 286.523 Q 232.071 280.583 236.111 275.623 Z " fill="rgb(74,80,111)"/><path d=" M 355.301 283.553 Q 354.251 283.463 353.301 283.803 Q 346.421 292.083 336.801 296.883 L 334.301 296.553 L 337.741 294.233 C 338.138 294.04 338.315 293.728 338.201 293.423 Q 339.191 288.603 344.371 289.213 C 344.694 289.234 345.016 289.168 345.291 289.023 Q 348.061 287.273 351.111 283.403 Q 353.101 280.883 355.301 283.553 Z " fill="rgb(74,80,111)"/><path d=" M 277.091 292.093 Q 274.511 289.033 277.481 286.993 Q 280.121 286.023 282.411 287.353 Q 283.991 288.283 283.121 289.893 Q 281.111 293.613 277.091 292.093 Z " fill="rgb(128,155,159)"/><path d=" M 313.301 288.303 Q 316.191 288.303 314.741 290.783 Q 311.281 296.643 303.151 299.323 Q 305.091 296.373 309.241 291.783 Q 311.461 289.323 313.301 288.303 Z " fill="rgb(75,181,185)"/><path d=" M 298.801 273.133 Q 301.011 274.193 300.091 276.343 Q 299.531 274.443 297.381 275.303 Q 295.821 275.923 294.301 276.633 Q 293.251 276.433 292.761 275.593 Q 292.731 275.063 293.051 274.633 Q 295.531 272.393 298.801 273.133 Z " fill="rgb(144,188,194)"/><path d=" M 276.051 295.053 Q 276.631 295.013 276.591 295.593 Q 274.641 299.083 270.801 300.303 Q 269.621 300.313 268.551 299.803 Q 266.951 298.263 268.691 298.113 Q 269.431 298.043 269.871 297.903 Q 270.451 297.713 271.051 297.553 Q 272.691 297.803 273.801 296.633 L 276.051 295.053 Z " fill="rgb(144,188,194)"/><path d=" M 264.591 218.343 Q 266.551 218.643 267.521 220.383 Q 273.411 230.933 283.741 237.453 Q 275.101 234.393 269.761 226.843 L 267.031 222.563 C 266.933 222.311 266.632 222.114 266.251 222.053 Q 265.961 222.073 265.761 222.343 L 265.341 221.843 L 264.591 218.343 Z " fill="rgb(114,133,143)"/><path d=" M 273.801 296.633 Q 272.691 297.803 271.051 297.553 Q 271.921 295.923 273.801 296.633 Z " fill="rgb(114,133,143)"/><path d=" M 296.511 241.603 Q 289.421 242.243 283.741 237.453 Q 273.411 230.933 267.521 220.383 Q 266.551 218.643 264.591 218.343 L 263.761 216.593 Q 264.661 214.203 266.271 216.383 Q 268.071 218.813 269.961 221.173 Q 271.761 223.443 274.331 225.303 Q 282.281 231.063 289.991 237.153 Q 290.611 237.643 291.361 238.853 C 291.245 239.072 291.535 239.294 292.091 239.413 L 296.511 241.603 Z " fill="rgb(127,199,163)"/><path d=" M 260.761 219.343 Q 256.571 226.933 257.841 235.593 Q 257.851 239.083 259.091 242.343 Q 258.211 242.853 257.761 243.653 C 257.557 243.923 257.576 244.268 257.811 244.523 Q 260.001 248.043 262.031 251.663 Q 262.111 251.803 263.231 253.403 Q 264.731 255.543 262.481 257.073 Q 262.061 257.363 262.081 256.853 Q 262.141 255.423 261.761 256.343 Q 260.671 252.533 259.741 251.403 Q 257.121 248.243 254.741 244.903 Q 254.111 244.033 254.121 243.383 C 255.024 243.351 255.725 243.119 255.687 242.865 C 255.648 242.611 254.884 242.431 253.981 242.463 Q 251.641 238.353 251.261 233.593 Q 252.701 231.193 252.301 228.343 Q 252.111 226.993 253.551 223.303 L 260.761 219.343 Z " fill="rgb(127,199,163)"/><path d=" M 269.761 226.843 Q 268.521 227.063 268.511 228.343 L 265.761 222.343 Q 265.961 222.073 266.251 222.053 C 266.632 222.114 266.933 222.311 267.031 222.563 L 269.761 226.843 Z " fill="rgb(127,199,163)"/><path d=" M 300.051 223.053 L 300.301 223.133 Q 301.151 224.443 300.551 226.053 Q 298.431 229.653 297.571 233.873 Q 294.961 234.813 293.261 233.373 Q 291.841 232.173 292.201 229.893 Q 292.551 227.633 293.761 225.593 Q 294.391 224.333 295.551 223.553 L 296.761 223.843 L 295.201 229.793 C 295.15 229.917 295.169 230.056 295.252 230.165 C 295.334 230.273 295.468 230.336 295.611 230.333 Q 296.251 230.303 296.481 229.573 Q 297.321 226.903 298.361 224.303 C 298.488 224.189 298.536 224.035 298.49 223.889 C 298.444 223.744 298.31 223.626 298.131 223.573 Q 297.871 223.493 297.551 223.553 Q 298.731 223.013 300.051 223.053 Z " fill="rgb(127,199,163)"/><path d=" M 330.341 245.593 Q 323.871 250.893 315.841 253.343 Q 315.351 252.103 316.801 251.803 Q 323.981 249.553 328.991 245.283 Q 330.101 244.333 330.341 245.593 Z " fill="rgb(127,199,163)"/><circle vector-effect="non-scaling-stroke" cx="238.56082244452273" cy="251.32295818498096" r="1.5999999999999943" fill="rgb(127,199,163)"/><path d=" M 300.051 317.053 Q 301.151 317.003 301.051 318.343 Q 300.861 320.853 298.421 321.443 Q 296.001 322.033 296.761 320.303 Q 297.011 319.743 297.641 319.143 Q 298.811 318.053 300.051 317.053 Z " fill="rgb(127,199,163)"/><path d=" M 266.801 207.053 Q 270.141 208.243 267.571 210.613 Q 265.041 212.933 263.261 215.843 L 260.761 219.343 L 253.551 223.303 Q 255.671 216.513 261.241 211.533 Q 262.491 210.413 263.561 208.533 C 263.609 208.264 263.868 208.02 264.261 207.873 L 266.801 207.053 Z " fill="rgb(113,204,180)"/><path d=" M 297.551 223.553 Q 297.871 223.493 298.131 223.573 C 298.31 223.626 298.444 223.744 298.49 223.889 C 298.536 224.035 298.488 224.189 298.361 224.303 Q 297.321 226.903 296.481 229.573 Q 296.251 230.303 295.611 230.333 C 295.468 230.336 295.334 230.273 295.252 230.165 C 295.169 230.056 295.15 229.917 295.201 229.793 L 296.761 223.843 Q 297.031 223.473 297.551 223.553 Z " fill="rgb(113,204,180)"/><path d=" M 221.301 228.553 Q 221.531 228.613 221.591 228.843 Q 219.621 232.493 219.091 236.593 Q 218.171 243.063 219.731 249.323 Q 219.761 249.473 220.451 253.433 Q 221.241 258.033 226.201 258.263 L 227.301 259.633 Q 230.481 266.003 237.851 267.923 L 241.301 270.133 Q 242.131 273.213 241.371 276.303 Q 241.271 276.673 240.871 277.123 Q 240.071 278.013 240.051 279.593 Q 239.921 288.923 245.511 295.623 Q 247.781 298.343 251.551 299.843 Q 257.571 302.243 260.301 303.093 Q 261.141 303.353 262.111 302.853 C 262.38 302.738 262.706 302.675 263.041 302.673 Q 264.671 303.083 264.001 304.883 C 263.914 305.161 263.675 305.4 263.341 305.543 Q 262.011 306.183 263.071 306.663 Q 263.471 306.853 264.041 306.743 Q 266.761 306.183 269.551 306.353 Q 278.661 306.913 286.591 302.593 L 294.071 298.333 C 294.27 298.227 294.513 298.227 294.712 298.333 C 294.912 298.439 295.04 298.635 295.051 298.853 Q 295.091 303.063 291.551 305.383 Q 289.961 305.743 289.051 307.053 Q 284.731 309.893 279.771 310.913 Q 275.171 311.873 273.021 312.163 Q 269.551 312.633 266.051 311.803 L 263.481 310.103 Q 263.091 309.853 262.841 309.393 Q 261.961 307.803 259.801 307.843 Q 253.651 307.963 247.991 305.443 Q 244.201 303.763 241.741 300.393 Q 235.111 291.303 236.381 278.843 C 236.456 278.061 236.943 277.376 237.661 277.043 Q 239.321 276.273 237.801 275.553 L 233.151 271.183 C 232.956 271.042 232.628 270.937 232.241 270.893 Q 230.751 270.783 229.591 269.793 Q 228.631 268.983 227.551 269.633 Q 222.991 265.973 220.261 260.843 Q 221.001 257.243 218.051 255.053 Q 216.221 249.633 215.551 241.593 Q 215.181 237.143 216.301 234.133 Q 217.621 232.353 218.591 230.363 Q 219.431 228.663 221.301 228.553 Z " fill="rgb(113,204,180)"/><path d=" M 330.091 239.843 Q 330.671 241.463 329.711 242.533 Q 328.681 243.683 328.581 243.823 Q 327.911 244.793 327.241 245.283 Q 322.961 248.373 317.051 250.633 Q 316.691 250.543 316.921 250.193 Q 319.871 245.733 324.411 242.183 Q 325.081 241.763 327.801 239.093 Q 329.571 237.363 330.091 239.843 Z " fill="rgb(113,204,180)"/><path d=" M 330.831 254.943 Q 331.921 258.163 330.721 259.553 Q 321.991 266.993 310.801 265.843 Q 308.521 265.613 309.551 263.633 Q 309.971 263.183 310.551 263.053 Q 312.211 262.313 313.941 261.753 Q 314.431 261.593 316.731 261.413 Q 318.291 261.293 319.421 260.203 Q 325.341 258.083 330.831 254.943 Z " fill="rgb(113,204,180)"/><path d=" M 353.301 283.803 Q 355.331 283.613 354.411 285.643 Q 351.901 291.213 346.111 294.653 Q 344.251 295.763 342.071 297.763 Q 339.791 299.843 337.961 300.663 Q 334.951 302.003 331.711 302.703 Q 331.541 302.743 327.471 303.773 Q 322.721 304.973 318.071 302.983 C 317.947 302.937 317.852 302.841 317.811 302.721 C 317.771 302.6 317.789 302.469 317.861 302.363 Q 319.591 299.663 323.051 299.583 Q 328.211 299.463 331.301 299.093 Q 334.201 298.743 336.801 296.883 Q 346.421 292.083 353.301 283.803 Z " fill="rgb(113,204,180)"/><path d=" M 220.178 290.353 C 219.874 288.776 221.255 287.182 223.261 286.795 C 225.266 286.409 227.14 287.376 227.444 288.953 C 227.748 290.53 226.366 292.124 224.361 292.51 C 222.356 292.897 220.481 291.93 220.178 290.353 Z " fill="rgb(113,204,180)"/><path d=" M 299.301 306.383 Q 300.891 307.343 302.761 307.343 Q 306.191 310.673 307.091 315.343 L 307.231 319.093 Q 307.251 319.683 307.121 320.053 L 305.011 326.093 Q 300.281 333.093 292.801 336.883 Q 291.581 335.253 292.801 333.633 L 299.341 327.093 Q 304.151 320.463 302.051 312.343 Q 301.731 311.103 300.051 309.883 L 297.511 307.343 Q 298.051 306.223 299.301 306.383 Z " fill="rgb(113,204,180)"/><path d=" M 327.841 320.843 Q 327.801 322.093 326.961 322.723 Q 326.311 323.223 325.321 323.693 Q 324.181 324.243 323.471 323.103 Q 323.251 322.743 322.761 322.483 Q 321.881 322.003 322.301 320.633 Q 325.171 318.243 327.841 320.843 Z " fill="rgb(113,204,180)"/><path d=" M 293.761 225.593 Q 292.551 227.633 292.201 229.893 Q 291.841 232.173 293.261 233.373 Q 294.961 234.813 297.571 233.873 Q 299.521 233.983 299.811 232.153 C 299.829 231.839 299.961 231.537 300.191 231.283 Q 302.191 228.823 300.551 226.053 Q 301.151 224.443 300.301 223.133 Q 301.891 223.793 302.051 226.093 Q 302.181 227.953 304.091 229.593 Q 303.951 230.343 304.101 231.043 C 304.123 231.148 304.095 231.258 304.024 231.338 C 303.953 231.419 303.848 231.462 303.741 231.453 Q 302.251 231.303 302.031 232.523 Q 301.911 233.163 301.701 233.453 Q 298.981 237.263 293.411 235.743 C 293.01 235.636 292.686 235.342 292.541 234.953 Q 291.931 233.343 291.101 233.303 C 290.933 233.317 290.782 233.393 290.689 233.509 C 290.596 233.625 290.571 233.769 290.621 233.903 Q 290.761 237.313 293.861 238.793 Q 297.171 240.373 300.711 241.273 Q 300.921 241.333 303.411 241.463 Q 304.831 241.543 306.051 242.553 Q 301.211 242.623 296.511 241.603 L 292.091 239.413 C 291.535 239.294 291.245 239.072 291.361 238.853 Q 290.611 237.643 289.991 237.153 Q 282.281 231.063 274.331 225.303 Q 271.761 223.443 269.961 221.173 Q 268.071 218.813 266.271 216.383 Q 264.661 214.203 263.761 216.593 L 263.261 215.843 Q 265.041 212.933 267.571 210.613 Q 270.141 208.243 266.801 207.053 L 262.301 207.553 Q 266.661 204.713 269.451 207.193 Q 271.021 208.603 271.811 212.663 Q 272.641 216.933 273.791 222.423 C 273.948 223.215 274.596 223.818 275.401 223.923 Q 277.361 224.173 279.181 225.753 C 279.414 225.956 279.719 226.077 280.041 226.093 Q 283.291 226.153 286.451 226.863 Q 288.611 227.353 290.171 226.943 Q 292.021 226.443 293.761 225.593 Z " fill="rgb(87,99,112)"/><path d=" M 330.551 238.033 L 330.091 239.843 Q 329.571 237.363 327.801 239.093 Q 325.081 241.763 324.411 242.183 Q 322.701 238.693 318.341 239.843 Q 315.601 238.473 315.301 241.553 Q 314.481 240.013 314.571 237.983 Q 315.111 235.753 317.121 235.573 Q 318.821 235.423 318.971 235.403 Q 325.371 234.213 330.551 238.033 Z " fill="rgb(87,99,112)"/><path d=" M 319.421 260.203 Q 318.291 261.293 316.731 261.413 Q 314.431 261.593 313.941 261.753 Q 312.211 262.313 310.551 263.053 Q 310.621 261.003 312.011 259.593 Q 314.831 261.023 317.181 259.583 Q 320.061 257.833 320.331 257.703 Q 323.891 256.053 326.521 253.043 Q 327.191 252.283 327.751 252.643 C 327.903 252.733 327.996 252.89 327.998 253.06 C 328 253.23 327.911 253.389 327.761 253.483 L 319.421 260.203 Z " fill="rgb(87,99,112)"/><path d=" M 322.301 320.633 Q 321.881 322.003 322.761 322.483 Q 323.251 322.743 323.471 323.103 Q 324.181 324.243 325.321 323.693 Q 326.311 323.223 326.961 322.723 Q 327.801 322.093 327.841 320.843 Q 328.911 324.853 325.031 326.193 C 324.724 326.292 324.387 326.267 324.101 326.123 Q 321.001 324.413 322.301 320.633 Z " fill="rgb(87,99,112)"/><path d=" M 300.051 223.053 Q 298.731 223.013 297.551 223.553 Q 297.031 223.473 296.761 223.843 L 295.551 223.553 Q 297.631 221.473 300.051 223.053 Z " fill="rgb(77,124,124)"/><path d=" M 221.301 228.553 Q 219.431 228.663 218.591 230.363 Q 217.621 232.353 216.301 234.133 Q 215.231 234.003 214.761 233.093 Q 215.311 231.263 216.411 229.693 Q 218.261 227.053 221.301 228.553 Z " fill="rgb(77,124,124)"/><path d=" M 268.841 229.593 Q 269.581 230.523 269.141 231.403 Q 268.971 231.753 268.761 231.423 Q 268.071 230.333 267.051 230.553 Q 268.261 230.533 268.841 229.593 Z " fill="rgb(77,124,124)"/><path d=" M 214.761 233.093 Q 215.231 234.003 216.301 234.133 Q 215.181 237.143 215.551 241.593 Q 216.221 249.633 218.051 255.053 Q 217.191 255.423 217.011 256.343 Q 213.131 253.793 214.631 249.553 Q 214.801 249.053 214.731 248.603 Q 214.111 244.683 212.491 241.473 C 212.222 240.971 212.182 240.384 212.381 239.853 L 214.761 233.093 Z " fill="rgb(77,124,124)"/><path d=" M 330.551 238.033 Q 332.321 241.773 331.011 245.343 Q 330.631 245.333 330.341 245.593 Q 330.101 244.333 328.991 245.283 Q 323.981 249.553 316.801 251.803 L 317.051 250.633 Q 322.961 248.373 327.241 245.283 Q 327.911 244.793 328.581 243.823 Q 328.681 243.683 329.711 242.533 Q 330.671 241.463 330.091 239.843 L 330.551 238.033 Z " fill="rgb(77,124,124)"/><path d=" M 355.301 283.553 Q 356.551 284.983 355.551 287.093 Q 352.241 294.083 346.741 298.833 C 346.391 299.042 346.201 299.338 346.221 299.643 L 345.851 301.603 C 346.157 301.88 345.985 302.229 345.441 302.433 Q 344.491 303.143 343.971 301.613 C 343.878 301.336 343.655 301.121 343.375 301.037 C 343.094 300.954 342.791 301.012 342.561 301.193 Q 339.801 303.383 336.461 304.353 Q 331.711 305.723 331.371 305.833 Q 325.501 307.703 319.291 306.673 C 318.886 306.61 318.568 306.44 318.451 306.223 L 318.121 305.643 C 318.105 305.413 317.861 305.204 317.491 305.103 Q 315.591 304.813 314.261 303.343 Q 316.331 300.363 319.761 299.183 C 319.887 299.138 319.987 299.048 320.037 298.934 C 320.086 298.821 320.08 298.693 320.021 298.583 Q 319.701 297.663 320.801 297.053 Q 327.651 298.953 334.301 296.553 L 336.801 296.883 Q 334.201 298.743 331.301 299.093 Q 328.211 299.463 323.051 299.583 Q 319.591 299.663 317.861 302.363 C 317.789 302.469 317.771 302.6 317.811 302.721 C 317.852 302.841 317.947 302.937 318.071 302.983 Q 322.721 304.973 327.471 303.773 Q 331.541 302.743 331.711 302.703 Q 334.951 302.003 337.961 300.663 Q 339.791 299.843 342.071 297.763 Q 344.251 295.763 346.111 294.653 Q 351.901 291.213 354.411 285.643 Q 355.331 283.613 353.301 283.803 Q 354.251 283.463 355.301 283.553 Z " fill="rgb(77,124,124)"/><path d=" M 291.551 305.383 Q 290.941 307.173 289.051 307.053 Q 289.961 305.743 291.551 305.383 Z " fill="rgb(77,124,124)"/><path d=" M 299.301 306.383 L 299.551 306.303 Q 301.561 305.873 302.761 307.343 Q 300.891 307.343 299.301 306.383 Z " fill="rgb(77,124,124)"/><path d=" M 305.011 326.093 Q 302.491 334.893 294.221 338.163 Q 292.571 338.823 291.411 338.693 Q 288.931 338.403 290.011 335.343 Q 290.541 337.663 292.801 336.883 Q 300.281 333.093 305.011 326.093 Z " fill="rgb(77,124,124)"/><path d=" M 266.801 207.053 L 264.261 207.873 C 263.868 208.02 263.609 208.264 263.561 208.533 Q 262.491 210.413 261.241 211.533 Q 255.671 216.513 253.551 223.303 Q 252.111 226.993 252.301 228.343 Q 252.701 231.193 251.261 233.593 Q 250.311 232.713 250.341 231.593 Q 250.391 230.053 250.381 229.943 Q 250.141 227.453 251.021 224.663 Q 251.321 223.713 250.721 224.513 Q 249.641 225.953 248.111 226.133 Q 247.531 226.203 247.891 225.743 L 254.221 217.803 Q 254.571 217.353 254.031 217.353 Q 251.321 217.323 251.371 216.413 Q 251.401 215.823 252.621 215.123 Q 254.521 214.023 256.381 212.863 Q 258.281 211.663 256.051 210.843 Q 253.791 210.013 256.111 208.903 Q 257.641 208.183 258.541 209.413 C 258.67 209.605 258.973 209.706 259.261 209.653 L 262.301 207.553 L 266.801 207.053 Z " fill="rgb(99,160,150)"/><path d=" M 300.551 226.053 Q 302.191 228.823 300.191 231.283 C 299.961 231.537 299.829 231.839 299.811 232.153 Q 299.521 233.983 297.571 233.873 Q 298.431 229.653 300.551 226.053 Z " fill="rgb(99,160,150)"/><path d=" M 218.051 255.053 Q 221.001 257.243 220.261 260.843 Q 217.821 259.243 217.011 256.343 Q 217.191 255.423 218.051 255.053 Z " fill="rgb(99,160,150)"/><path d=" M 237.801 275.553 L 236.111 275.623 Q 231.161 273.413 227.551 269.633 Q 228.631 268.983 229.591 269.793 Q 230.751 270.783 232.241 270.893 C 232.628 270.937 232.956 271.042 233.151 271.183 L 237.801 275.553 Z " fill="rgb(99,160,150)"/><path d=" M 300.091 276.343 Q 297.451 280.193 294.301 276.633 Q 295.821 275.923 297.381 275.303 Q 299.531 274.443 300.091 276.343 Z " fill="rgb(99,160,150)"/><path d=" M 239.491 312.903 Q 237.491 311.373 239.491 309.543 Q 242.261 307.023 241.801 311.093 Q 241.431 314.393 239.491 312.903 Z " fill="rgb(99,160,150)"/><path d=" M 300.051 309.883 Q 301.731 311.103 302.051 312.343 Q 304.151 320.463 299.341 327.093 Q 299.081 325.123 300.311 322.863 Q 300.891 321.793 299.771 322.253 Q 298.521 322.763 298.421 321.443 Q 300.861 320.853 301.051 318.343 Q 301.151 317.003 300.051 317.053 Q 301.091 314.173 300.221 310.973 Q 300.001 310.623 300.051 309.883 Z " fill="rgb(99,160,150)"/><path d=" M 292.801 333.633 Q 291.581 335.253 292.801 336.883 Q 290.541 337.663 290.011 335.343 Q 290.771 333.403 292.801 333.633 Z " fill="rgb(99,160,150)"/><path d=" M 293.291 258.143 Q 292.891 260.213 291.381 258.613 Q 290.961 258.163 290.451 257.883 Q 288.481 256.803 290.711 256.423 Q 291.261 256.333 291.881 256.423 Q 295.571 257.003 298.611 258.473 C 298.859 258.591 299.037 258.82 299.09 259.09 C 299.143 259.36 299.066 259.639 298.881 259.843 Q 297.411 261.483 296.691 260.183 Q 295.711 258.453 293.841 257.803 C 293.719 257.773 293.589 257.793 293.484 257.858 C 293.379 257.923 293.309 258.027 293.291 258.143 Z " fill="rgb(157,170,161)"/><path d=" M 261.751 286.583 Q 261.421 287.523 260.821 286.763 C 260.6 286.505 260.558 286.159 260.711 285.863 Q 261.351 284.103 261.771 285.733 Q 261.881 286.183 261.751 286.583 Z " fill="rgb(211,130,125)"/><path d=" M 261.301 278.133 Q 259.971 277.783 261.021 277.083 Q 262.431 276.143 261.491 274.653 Q 260.531 273.133 258.801 273.593 Q 257.311 273.983 257.261 272.593 Q 258.641 271.083 260.551 271.843 Q 262.001 272.413 263.491 272.903 Q 267.591 274.263 263.801 276.593 L 261.301 278.133 Z " fill="rgb(154,183,128)"/><path d=" M 257.261 272.593 Q 257.311 273.983 258.801 273.593 Q 260.531 273.133 261.491 274.653 Q 262.431 276.143 261.021 277.083 Q 259.971 277.783 261.301 278.133 Q 259.391 279.023 257.931 278.053 Q 256.771 277.283 255.801 275.983 Q 254.391 274.083 257.261 272.593 Z " fill="rgb(145,161,142)"/><path d=" M 247.361 302.873 Q 240.401 296.553 238.941 289.483 Q 238.571 287.723 239.271 288.413 Q 239.461 288.603 239.621 288.953 Q 242.391 295.193 247.251 299.933 Q 247.581 300.253 248.101 300.393 Q 249.131 300.663 250.031 301.233 Q 250.691 301.643 250.721 302.213 Q 250.781 302.993 249.771 303.353 C 248.941 303.654 248.012 303.469 247.361 302.873 Z " fill="rgb(102,204,150)"/><path d=" M 266.148 240.306 C 266.429 240.01 267.505 240.575 268.55 241.566 C 269.595 242.558 270.215 243.603 269.934 243.9 C 269.653 244.196 268.576 243.631 267.531 242.64 C 266.487 241.648 265.866 240.603 266.148 240.306 Z " fill="rgb(114,133,143)"/><path d=" M 248.873 293.334 C 249.646 293.311 250.298 294.161 250.33 295.231 C 250.362 296.302 249.761 297.189 248.988 297.212 C 248.216 297.235 247.563 296.385 247.531 295.314 C 247.5 294.244 248.101 293.357 248.873 293.334 Z " fill="rgb(113,204,180)"/></g></svg>