<?xml version="1.0" encoding="UTF-8" standalone="no"?><!-- Generator: Gravit.io --><svg xmlns="http://www.w3.org/2000/svg" xmlns:xlink="http://www.w3.org/1999/xlink" style="isolation:isolate" viewBox="220.27 207.581 127.712 129.59" width="127.712pt" height="129.59pt"><defs><clipPath id="_clipPath_qXi1VeFXWV0OezPH1amUVEUs8ROWpams"><rect x="220.27" y="207.581" width="127.712" height="129.59"/></clipPath></defs><g clip-path="url(#_clipPath_qXi1VeFXWV0OezPH1amUVEUs8ROWpams)"><path d=" M 280.937 213.591 L 277.937 213.931 C 277.578 213.982 277.283 214.115 277.137 214.291 Q 274.697 217.551 271.627 220.011 Q 262.677 221.391 256.237 227.891 L 243.937 244.091 Q 241.617 246.661 241.227 250.131 Q 238.847 255.051 239.227 260.631 Q 237.927 263.141 238.397 265.881 L 238.727 267.131 Q 238.767 268.651 240.187 268.671 C 240.504 268.68 240.777 268.849 240.867 269.091 Q 241.367 270.671 239.937 271.591 Q 237.057 274.601 240.317 276.581 C 240.592 276.639 240.911 276.657 241.217 276.631 L 243.897 276.131 Q 243.967 277.171 244.937 277.591 Q 240.617 280.631 239.307 285.651 C 239.277 285.769 239.302 285.895 239.376 285.993 C 239.45 286.09 239.565 286.148 239.687 286.151 L 241.817 286.191 Q 242.827 286.641 242.997 287.781 Q 243.087 288.471 242.587 289.521 Q 241.777 291.191 241.117 293.091 C 240.97 293.457 241.141 293.867 241.517 294.051 L 245.147 296.131 L 248.187 301.171 L 252.457 306.611 L 253.397 309.381 L 255.977 312.631 Q 256.347 314.641 258.147 315.631 L 261.387 319.461 Q 262.347 320.601 260.987 320.151 L 256.447 318.671 Q 256.137 318.571 255.527 318.611 L 254.687 318.671 L 253.727 318.131 Q 253.637 316.751 252.377 316.691 Q 249.887 316.571 248.937 314.631 Q 248.417 313.571 247.187 313.671 L 242.227 309.881 Q 240.517 306.811 239.787 303.371 C 239.731 303.081 239.525 302.83 239.227 302.691 Q 237.917 302.051 238.617 300.741 C 239.359 300.503 239.479 300.095 238.887 299.821 Q 238.827 298.491 237.477 299.631 Q 233.407 299.061 231.627 295.231 Q 231.897 294.181 231.387 292.841 C 231.263 292.538 231.236 292.208 231.307 291.891 Q 232.177 288.091 228.837 287.721 Q 223.837 283.111 226.237 277.101 C 226.372 276.8 226.376 276.463 226.247 276.161 Q 224.867 272.741 224.937 271.881 Q 225.107 269.641 225.077 267.411 Q 225.057 265.711 225.607 263.051 Q 226.127 260.511 225.767 257.881 C 225.253 257.587 225.306 257.165 225.887 256.921 L 228.437 253.091 Q 230.177 253.021 227.647 249.891 C 227.458 249.667 227.396 249.364 227.483 249.085 C 227.57 248.806 227.793 248.59 228.077 248.511 Q 231.717 247.431 230.897 243.131 L 233.397 238.631 Q 233.747 236.631 235.527 235.271 Q 236.547 234.471 237.227 232.381 L 240.787 227.791 Q 241.627 227.201 241.437 226.671 Q 243.377 225.481 244.687 223.591 Q 246.297 222.691 246.977 221.491 Q 248.047 221.131 248.437 220.591 L 252.397 218.371 Q 260.917 212.051 271.387 210.651 Q 275.627 210.081 276.487 210.171 Q 279.387 210.481 280.937 213.591 Z " fill="rgb(253,203,43)"/><path d=" M 271.627 220.011 Q 275.847 221.711 276.437 226.381 Q 277.257 232.831 274.167 237.851 Q 272.677 240.271 270.097 240.351 L 261.027 240.631 Q 258.777 240.701 258.617 238.321 Q 258.277 233.481 256.237 227.891 Q 262.677 221.391 271.627 220.011 Z " fill="rgb(91,84,91)"/><path d=" M 232.977 237.881 L 233.397 238.631 L 230.897 243.131 Q 230.407 243.501 230.227 244.131 Q 230.167 243.331 229.687 242.671 Q 231.967 240.701 232.977 237.881 Z " fill="rgb(170,119,72)"/><path d=" M 321.687 241.841 Q 323.887 241.621 322.747 243.691 Q 322.367 244.381 322.437 245.841 Q 315.207 243.551 311.247 249.191 Q 305.097 257.961 299.187 262.921 Q 297.647 263.301 297.187 262.171 Q 303.047 256.271 306.627 250.071 Q 309.307 245.431 314.117 244.161 Q 316.607 243.501 316.737 243.461 Q 319.217 242.661 321.687 241.841 Z " fill="rgb(170,119,72)"/><path d=" M 322.437 245.841 L 322.797 246.611 Q 314.857 250.711 310.737 258.731 Q 301.777 267.161 291.187 273.421 Q 289.107 272.561 290.407 271.741 Q 291.127 271.291 291.427 270.931 Q 295.057 266.691 299.187 262.921 Q 305.097 257.961 311.247 249.191 Q 315.207 243.551 322.437 245.841 Z " fill="rgb(216,193,91)"/><path d=" M 272.427 251.121 L 278.687 251.921 Q 279.797 252.901 278.377 253.571 Q 275.637 254.861 274.187 256.421 Q 271.107 255.011 267.337 256.371 Q 265.217 258.721 261.997 259.141 C 261.865 259.166 261.753 259.239 261.691 259.341 C 261.629 259.444 261.624 259.564 261.677 259.671 Q 261.777 260.261 261.127 260.571 Q 258.547 261.761 256.987 263.731 C 256.712 263.99 256.598 264.312 256.667 264.631 Q 256.557 266.111 255.617 266.951 Q 255.327 267.201 253.087 267.691 Q 251.717 267.991 251.157 269.341 C 250.995 269.621 251.072 269.956 251.347 270.171 Q 252.547 271.581 250.687 272.171 Q 245.287 272.941 239.937 271.591 Q 241.367 270.671 240.867 269.091 C 240.777 268.849 240.504 268.68 240.187 268.671 Q 238.767 268.651 238.727 267.131 Q 239.477 268.251 240.247 268.321 Q 243.327 268.591 247.377 267.631 Q 248.877 267.281 249.547 266.441 Q 250.397 265.381 250.487 263.951 C 250.487 263.636 250.628 263.336 250.877 263.121 Q 252.897 261.301 250.267 261.761 Q 249.797 261.841 249.147 262.081 Q 244.797 263.641 240.177 263.851 Q 239.227 263.901 238.827 264.321 Q 238.277 264.911 238.397 265.881 Q 237.927 263.141 239.227 260.631 L 241.727 258.111 Q 242.187 257.641 242.487 257.551 Q 247.167 256.131 249.497 252.941 Q 251.857 249.721 255.027 248.901 Q 256.507 248.521 258.687 249.471 Q 265.307 252.351 272.427 251.121 Z " fill="rgb(216,193,91)"/><path d=" M 290.727 221.881 Q 290.227 223.651 288.857 224.731 Q 287.207 223.391 287.317 221.561 C 287.335 221.241 287.527 220.956 287.817 220.821 Q 289.467 220.051 290.727 221.881 Z " fill="rgb(198,205,144)"/><path d=" M 327.777 286.131 Q 323.677 291.191 320.247 293.941 Q 317.407 296.231 315.867 298.891 C 315.732 299.132 315.472 299.332 315.137 299.451 Q 314.327 299.731 313.947 300.431 Q 313.377 301.471 313.177 301.681 Q 311.297 303.611 308.897 304.881 Q 309.267 304.151 309.147 303.381 Q 316.007 292.101 327.777 286.131 Z " fill="rgb(158,86,66)"/><path d=" M 271.687 313.841 Q 269.017 314.121 267.647 316.381 Q 266.777 316.091 267.077 314.291 C 267.123 314.078 267.073 313.856 266.94 313.681 C 266.806 313.506 266.602 313.393 266.377 313.371 L 255.977 312.631 L 253.397 309.381 Q 262.867 310.281 271.687 313.841 Z " fill="rgb(158,86,66)"/><path d=" M 323.687 272.631 Q 318.797 269.181 316.087 263.601 Q 316.637 252.671 326.397 253.321 Q 329.547 253.531 331.387 255.211 Q 333.577 257.201 333.937 260.381 Q 334.337 263.861 333.387 267.441 Q 332.757 269.851 330.847 271.031 Q 327.677 272.981 323.687 272.631 Z " fill="rgb(107,106,107)"/><path d=" M 332.727 234.881 Q 336.287 240.311 336.457 247.701 C 336.468 248.301 336.77 248.86 337.267 249.201 Q 342.437 252.721 343.147 258.791 C 343.193 259.171 343.075 259.553 342.824 259.843 C 342.572 260.132 342.211 260.302 341.827 260.311 Q 340.167 260.351 340.597 262.151 Q 342.447 269.941 341.187 277.841 L 339.227 277.381 Q 338.667 276.971 337.977 276.881 Q 337.197 276.431 336.797 275.701 Q 336.497 275.161 336.637 274.141 Q 336.807 272.771 336.647 271.381 Q 338.787 262.661 336.737 253.931 C 336.669 253.619 336.488 253.339 336.227 253.141 Q 334.687 251.941 333.277 250.611 Q 331.177 248.611 329.877 247.961 Q 326.487 246.261 322.797 246.611 L 322.437 245.841 Q 322.367 244.381 322.747 243.691 Q 323.887 241.621 321.687 241.841 Q 325.027 240.921 328.087 239.361 Q 328.267 239.271 330.947 238.421 Q 333.097 237.741 332.727 234.881 Z " fill="rgb(109,83,83)"/><path d=" M 336.647 271.381 Q 336.807 272.771 336.637 274.141 Q 336.497 275.161 336.797 275.701 Q 337.197 276.431 337.977 276.881 L 336.467 280.181 Q 335.637 281.971 335.827 283.141 Q 336.387 286.541 337.897 286.381 Q 337.717 290.471 334.467 292.431 Q 334.847 291.061 334.497 288.821 Q 334.267 287.291 333.547 286.471 Q 333.197 286.081 333.107 285.631 L 332.687 283.591 Q 333.397 282.461 334.647 281.971 C 335.033 281.883 335.255 281.591 335.147 281.311 Q 335.007 280.521 333.797 279.961 Q 332.637 279.691 332.057 278.401 C 331.978 278.128 331.74 277.894 331.407 277.761 Q 329.637 277.181 328.437 278.381 Q 326.237 280.561 324.167 281.041 Q 315.657 283.011 306.937 283.591 Q 306.067 283.561 305.687 282.921 Q 316.647 282.401 326.407 277.501 Q 329.107 275.551 332.377 274.821 Q 333.707 274.521 336.647 271.381 Z " fill="rgb(150,112,109)"/><path d=" M 239.937 271.591 Q 245.287 272.941 250.687 272.171 Q 251.127 273.121 250.377 273.651 C 250.102 273.754 249.773 273.797 249.447 273.771 Q 245.937 273.061 243.897 276.131 L 241.217 276.631 C 240.911 276.657 240.592 276.639 240.317 276.581 Q 237.057 274.601 239.937 271.591 Z " fill="rgb(199,167,79)"/><path d=" M 323.687 272.631 Q 323.997 272.891 324.937 272.881 Q 327.207 272.861 325.677 273.021 Q 323.167 273.291 326.177 273.391 C 326.321 273.396 326.452 273.473 326.525 273.597 C 326.598 273.72 326.602 273.873 326.537 274.001 Q 325.557 275.851 326.407 277.501 Q 316.647 282.401 305.687 282.921 Q 300.547 282.801 295.907 284.911 Q 295.257 285.211 294.917 285.161 Q 294.127 285.041 295.167 283.611 Q 295.467 283.191 295.657 282.711 Q 296.127 281.491 297.237 281.081 Q 298.137 280.751 298.227 280.711 Q 305.207 277.301 312.937 276.341 L 315.457 276.511 C 315.935 276.603 316.252 276.782 316.287 276.981 Q 318.207 278.781 319.937 276.631 Q 322.217 273.801 323.687 272.631 Z " fill="rgb(199,167,79)"/><path d=" M 244.937 277.591 Q 246.107 278.421 246.737 279.681 C 246.897 279.972 246.925 280.309 246.817 280.621 Q 245.707 284.781 241.817 286.191 L 239.687 286.151 C 239.565 286.148 239.45 286.09 239.376 285.993 C 239.302 285.895 239.277 285.769 239.307 285.651 Q 240.617 280.631 244.937 277.591 Z " fill="rgb(199,167,79)"/><path d=" M 315.437 220.591 L 313.627 220.701 C 313.29 220.765 313.07 221.033 313.127 221.311 Q 313.027 223.151 311.647 224.381 Q 309.027 222.301 307.057 219.421 Q 311.527 219.001 315.437 220.591 Z " fill="rgb(148,136,109)"/><path d=" M 310.737 258.731 Q 310.827 258.931 311.437 258.921 Q 310.547 261.581 311.187 263.631 Q 313.147 269.891 317.447 274.501 Q 318.277 275.401 316.957 275.631 L 312.937 276.341 Q 305.207 277.301 298.227 280.711 Q 298.137 280.751 297.237 281.081 Q 296.127 281.491 295.657 282.711 Q 295.467 283.191 295.167 283.611 Q 294.127 285.041 294.917 285.161 Q 295.257 285.211 295.907 284.911 Q 300.547 282.801 305.687 282.921 Q 306.067 283.561 306.937 283.591 Q 299.447 284.131 292.587 287.241 Q 288.397 289.141 279.687 291.381 Q 277.037 292.061 275.937 290.171 Q 281.617 284.571 282.987 276.691 L 286.367 276.251 C 286.83 276.24 287.272 276.37 287.557 276.601 L 290.377 280.201 Q 291.367 281.461 291.817 280.011 Q 292.997 276.241 290.687 273.671 Q 291.097 273.691 291.187 273.421 Q 301.777 267.161 310.737 258.731 Z " fill="rgb(148,136,109)"/><path d=" M 238.727 267.131 L 238.397 265.881 Q 238.277 264.911 238.827 264.321 Q 239.227 263.901 240.177 263.851 Q 244.797 263.641 249.147 262.081 Q 249.797 261.841 250.267 261.761 Q 252.897 261.301 250.877 263.121 C 250.628 263.336 250.487 263.636 250.487 263.951 Q 250.397 265.381 249.547 266.441 Q 248.877 267.281 247.377 267.631 Q 243.327 268.591 240.247 268.321 Q 239.477 268.251 238.727 267.131 Z " fill="rgb(148,136,109)"/><path d=" M 337.977 276.881 Q 338.667 276.971 339.227 277.381 Q 338.807 279.441 340.007 278.881 C 340.279 278.789 340.597 278.796 340.857 278.901 Q 341.787 279.651 341.437 281.091 Q 338.247 282.751 337.897 286.381 Q 336.387 286.541 335.827 283.141 Q 335.637 281.971 336.467 280.181 L 337.977 276.881 Z " fill="rgb(148,136,109)"/><path d=" M 332.147 234.131 L 332.727 234.881 Q 333.097 237.741 330.947 238.421 Q 328.267 239.271 328.087 239.361 Q 325.027 240.921 321.687 241.841 Q 319.217 242.661 316.737 243.461 Q 316.607 243.501 314.117 244.161 Q 309.307 245.431 306.627 250.071 Q 303.047 256.271 297.187 262.171 Q 294.797 263.931 291.937 264.671 Q 287.167 264.281 284.247 262.321 Q 277.867 258.031 274.187 256.421 Q 275.637 254.861 278.377 253.571 Q 279.797 252.901 278.687 251.921 Q 282.137 250.831 283.457 247.531 C 283.55 247.294 283.799 247.11 284.117 247.041 L 287.227 246.381 L 293.187 243.421 Q 298.587 242.011 302.247 242.321 Q 304.417 242.501 306.067 242.391 Q 307.487 242.291 309.707 241.461 Q 320.757 237.291 332.147 234.131 Z " fill="rgb(223,170,64)"/><path d=" M 333.797 279.961 L 330.367 284.081 C 330.18 284.265 329.918 284.364 329.649 284.352 C 329.379 284.341 329.127 284.22 328.957 284.021 Q 328.217 283.111 327.147 282.581 C 326.855 282.454 326.518 282.443 326.217 282.551 L 322.057 284.401 Q 320.847 284.041 319.937 284.421 Q 317.317 283.251 314.647 285.081 C 314.033 285.495 313.272 285.637 312.547 285.471 Q 305.417 283.761 299.377 287.071 Q 296.687 288.541 294.467 289.331 Q 290.797 290.651 289.477 291.321 Q 285.237 293.471 280.807 295.231 Q 280.747 295.251 276.517 297.111 Q 273.157 298.581 268.437 299.631 Q 259.277 301.671 255.647 302.101 L 248.187 301.171 L 245.147 296.131 L 245.187 295.671 Q 246.077 295.581 246.187 296.381 Q 246.387 297.811 250.187 297.881 Q 262.047 298.101 273.457 295.011 C 273.919 294.896 274.127 294.621 273.927 294.391 Q 274.057 293.971 274.687 293.671 Q 276.057 292.351 274.187 291.171 L 275.937 290.171 Q 277.037 292.061 279.687 291.381 Q 288.397 289.141 292.587 287.241 Q 299.447 284.131 306.937 283.591 Q 315.657 283.011 324.167 281.041 Q 326.237 280.561 328.437 278.381 Q 329.637 277.181 331.407 277.761 C 331.74 277.894 331.978 278.128 332.057 278.401 Q 332.637 279.691 333.797 279.961 Z " fill="rgb(223,170,64)"/><path d=" M 333.797 279.961 Q 335.007 280.521 335.147 281.311 C 335.255 281.591 335.033 281.883 334.647 281.971 Q 333.397 282.461 332.687 283.591 L 327.777 286.131 Q 316.007 292.101 309.147 303.381 L 305.207 308.441 C 305.013 308.675 304.728 308.85 304.397 308.941 Q 298.837 310.311 293.297 308.991 Q 292.077 308.701 290.537 308.831 Q 289.097 308.941 287.697 308.691 Q 283.647 307.961 283.607 307.961 Q 281.147 307.891 278.737 308.451 Q 276.087 309.061 278.657 309.961 Q 284.237 311.891 290.217 313.251 Q 296.927 314.781 303.467 312.251 Q 302.757 314.371 300.677 315.011 C 300.37 315.103 300.094 315.276 299.877 315.511 Q 298.897 316.611 297.457 316.721 Q 295.637 316.861 295.547 316.881 Q 290.497 317.771 285.127 316.691 Q 276.057 314.871 271.687 313.841 Q 262.867 310.281 253.397 309.381 L 252.457 306.611 Q 259.537 306.211 266.457 307.731 Q 272.317 308.401 277.607 305.861 Q 280.017 304.711 281.487 304.561 Q 283.577 304.341 285.677 304.591 Q 288.587 304.931 289.217 304.971 Q 291.007 305.091 292.787 305.291 Q 296.517 305.701 298.107 305.431 Q 303.237 304.551 305.057 299.851 Q 306.687 295.611 306.717 295.571 Q 308.257 293.031 310.997 290.941 Q 316.757 286.561 322.057 284.401 L 326.217 282.551 C 326.518 282.443 326.855 282.454 327.147 282.581 Q 328.217 283.111 328.957 284.021 C 329.127 284.22 329.379 284.341 329.649 284.352 C 329.918 284.364 330.18 284.265 330.367 284.081 L 333.797 279.961 Z " fill="rgb(223,170,64)"/><path d=" M 307.057 219.421 Q 309.027 222.301 311.647 224.381 Q 313.027 226.191 312.247 229.191 Q 310.787 234.811 307.687 240.131 Q 306.957 241.401 308.327 240.831 L 313.907 238.481 C 314.178 238.371 314.36 238.118 314.377 237.831 Q 314.437 237.001 314.877 236.571 Q 316.827 234.611 319.647 232.901 Q 321.717 231.651 324.537 231.271 Q 327.127 230.931 329.727 230.631 L 332.147 234.131 Q 320.757 237.291 309.707 241.461 Q 307.487 242.291 306.067 242.391 Q 304.417 242.501 302.247 242.321 Q 298.587 242.011 293.187 243.421 L 290.397 238.131 Q 286.137 231.841 288.857 224.731 Q 290.227 223.651 290.727 221.881 Q 291.587 221.211 291.727 220.131 Q 295.927 221.931 300.667 222.331 Q 302.817 222.521 304.267 220.911 Q 305.427 219.621 307.057 219.421 Z " fill="rgb(109,102,93)"/><path d=" M 332.687 283.591 L 333.107 285.631 Q 333.197 286.081 333.547 286.471 Q 334.267 287.291 334.497 288.821 Q 334.847 291.061 334.467 292.431 Q 332.147 295.091 331.937 297.381 Q 331.787 299.051 331.097 300.041 Q 330.177 301.371 330.107 301.491 Q 327.607 306.321 322.737 308.921 Q 321.457 309.611 321.057 310.891 C 320.753 311.171 320.823 311.537 321.227 311.781 Q 321.707 312.641 321.147 313.631 Q 320.347 309.581 316.727 310.441 Q 316.277 310.551 315.777 310.421 Q 313.797 309.901 312.397 311.631 Q 310.997 311.411 311.347 313.461 Q 307.837 314.921 304.517 317.741 C 304.225 317.941 304.106 318.249 304.207 318.541 L 304.397 323.631 Q 304.327 321.121 303.327 322.931 Q 302.157 325.021 302.187 328.381 Q 302.197 330.141 300.977 332.381 Q 301.187 326.821 300.307 322.011 Q 299.897 319.771 297.617 319.671 Q 291.267 319.391 292.517 324.981 C 292.658 325.583 292.31 326.191 291.717 326.381 Q 288.517 327.391 291.407 327.751 Q 288.537 328.291 287.587 326.651 C 287.481 326.394 287.227 326.18 286.887 326.061 Q 282.987 325.071 279.317 325.771 L 268.897 318.731 L 267.647 316.381 Q 269.017 314.121 271.687 313.841 Q 276.057 314.871 285.127 316.691 Q 290.497 317.771 295.547 316.881 Q 295.637 316.861 297.457 316.721 Q 298.897 316.611 299.877 315.511 C 300.094 315.276 300.37 315.103 300.677 315.011 Q 302.757 314.371 303.467 312.251 Q 302.597 310.641 305.567 309.261 C 306.85 309.11 307.827 308.792 308.178 308.412 C 308.528 308.031 308.206 307.638 307.317 307.361 L 308.897 304.881 Q 311.297 303.611 313.177 301.681 Q 313.377 301.471 313.947 300.431 Q 314.327 299.731 315.137 299.451 C 315.472 299.332 315.732 299.132 315.867 298.891 Q 317.407 296.231 320.247 293.941 Q 323.677 291.191 327.777 286.131 L 332.687 283.591 Z " fill="rgb(123,91,70)"/><path d=" M 322.057 284.401 Q 316.757 286.561 310.997 290.941 Q 308.257 293.031 306.717 295.571 Q 306.687 295.611 305.057 299.851 Q 303.237 304.551 298.107 305.431 Q 296.517 305.701 292.787 305.291 Q 291.007 305.091 289.217 304.971 Q 288.587 304.931 285.677 304.591 Q 283.577 304.341 281.487 304.561 Q 280.017 304.711 277.607 305.861 Q 272.317 308.401 266.457 307.731 Q 264.787 305.441 262.187 305.161 C 261.852 305.123 261.573 304.937 261.467 304.681 Q 260.997 303.491 262.187 302.921 Q 277.627 302.321 290.467 293.951 Q 297.367 289.461 306.757 287.621 Q 309.567 287.071 312.397 287.501 Q 315.567 287.991 319.937 284.421 Q 320.847 284.041 322.057 284.401 Z " fill="rgb(128,89,62)"/><path d=" M 287.857 217.531 L 291.727 220.131 Q 291.587 221.211 290.727 221.881 Q 289.467 220.051 287.817 220.821 C 287.527 220.956 287.335 221.241 287.317 221.561 Q 287.207 223.391 288.857 224.731 Q 286.137 231.841 290.397 238.131 L 286.187 239.341 L 282.137 238.861 C 281.813 238.805 281.539 238.625 281.394 238.373 C 281.249 238.12 281.25 237.824 281.397 237.571 Q 282.837 231.361 283.127 225.191 Q 283.377 219.671 287.857 217.531 Z " fill="rgb(139,136,115)"/><path d=" M 240.787 227.791 L 237.227 232.381 Q 236.517 229.601 236.377 226.691 Q 236.227 223.631 235.997 223.071 Q 235.107 220.841 236.437 221.451 C 237.179 221.599 237.468 221.9 237.097 222.141 L 240.787 227.791 Z " fill="rgb(139,136,115)"/><path d=" M 243.937 244.091 Q 245.267 244.061 245.557 246.271 C 245.672 247.199 245.38 248.132 244.757 248.831 Q 242.677 251.151 241.227 250.131 Q 241.617 246.661 243.937 244.091 Z " fill="rgb(139,136,115)"/><path d=" M 287.147 245.881 L 287.227 246.381 L 284.117 247.041 C 283.799 247.11 283.55 247.294 283.457 247.531 Q 282.137 250.831 278.687 251.921 L 272.427 251.121 Q 277.237 249.051 281.057 245.401 C 281.378 245.165 281.812 245.052 282.247 245.091 L 287.147 245.881 Z " fill="rgb(139,136,115)"/><path d=" M 252.437 286.341 Q 250.837 286.581 251.877 287.691 Q 253.307 289.241 256.777 290.801 Q 258.257 291.461 262.287 292.301 Q 265.387 292.951 268.877 294.441 Q 270.297 295.051 271.577 293.971 C 271.807 293.78 272.114 293.706 272.407 293.771 Q 273.547 294.031 274.687 293.671 Q 274.057 293.971 273.927 294.391 C 274.127 294.621 273.919 294.896 273.457 295.011 Q 262.047 298.101 250.187 297.881 Q 246.387 297.811 246.187 296.381 Q 246.077 295.581 245.187 295.671 L 242.867 294.431 C 242.532 294.294 242.346 293.998 242.407 293.701 Q 242.717 290.271 245.327 289.031 Q 246.937 288.271 247.397 287.921 Q 248.347 287.221 249.297 286.511 Q 250.797 285.371 252.437 286.341 Z " fill="rgb(139,136,115)"/><path d=" M 274.187 256.421 Q 277.867 258.031 284.247 262.321 Q 287.167 264.281 291.937 264.671 Q 290.547 266.451 288.887 267.981 Q 287.147 269.601 286.657 270.821 Q 285.127 274.621 290.687 273.671 Q 292.997 276.241 291.817 280.011 Q 291.367 281.461 290.377 280.201 L 287.557 276.601 C 287.272 276.37 286.83 276.24 286.367 276.251 L 282.987 276.691 Q 282.197 275.481 282.487 274.391 Q 284.337 267.561 280.317 263.431 Q 278.867 261.941 273.977 259.671 Q 270.637 258.121 267.337 256.371 Q 271.107 255.011 274.187 256.421 Z " fill="rgb(118,115,100)"/><path d=" M 341.437 281.091 Q 341.787 279.651 340.857 278.901 C 340.597 278.796 340.279 278.789 340.007 278.881 Q 338.807 279.441 339.227 277.381 L 341.187 277.841 Q 343.087 278.211 343.157 276.881 C 343.18 276.49 343.379 276.13 343.699 275.901 C 344.019 275.672 344.426 275.598 344.807 275.701 Q 348.257 276.671 347.957 279.331 C 347.924 279.654 347.758 279.949 347.497 280.151 Q 345.847 281.411 343.627 280.191 Q 342.357 279.501 341.437 281.091 Z " fill="rgb(118,115,100)"/><path d=" M 252.437 286.341 L 267.867 292.071 C 268.439 292.28 269.082 292.138 269.507 291.711 Q 271.957 289.141 274.187 291.171 Q 276.057 292.351 274.687 293.671 Q 273.547 294.031 272.407 293.771 C 272.114 293.706 271.807 293.78 271.577 293.971 Q 270.297 295.051 268.877 294.441 Q 265.387 292.951 262.287 292.301 Q 258.257 291.461 256.777 290.801 Q 253.307 289.241 251.877 287.691 Q 250.837 286.581 252.437 286.341 Z " fill="rgb(118,115,100)"/><path d=" M 329.727 230.631 Q 327.127 230.931 324.537 231.271 Q 321.717 231.651 319.647 232.901 Q 316.827 234.611 314.877 236.571 Q 314.437 237.001 314.377 237.831 C 314.36 238.118 314.178 238.371 313.907 238.481 L 308.327 240.831 Q 306.957 241.401 307.687 240.131 Q 310.787 234.811 312.247 229.191 Q 313.027 226.191 311.647 224.381 Q 313.027 223.151 313.127 221.311 C 313.07 221.033 313.29 220.765 313.627 220.701 L 315.437 220.591 Q 317.077 221.621 318.187 219.881 Q 320.507 216.231 322.907 219.701 C 323.139 219.97 323.23 220.306 323.157 220.631 Q 323.017 221.801 322.157 221.351 C 321.674 221.169 321.471 220.852 321.657 220.571 Q 321.397 219.631 320.477 219.311 C 320.36 219.282 320.235 219.313 320.147 219.393 C 320.06 219.472 320.022 219.589 320.047 219.701 Q 320.307 221.621 321.937 222.681 C 322.204 222.848 322.351 223.141 322.317 223.441 Q 322.267 224.151 322.367 224.861 Q 322.747 227.651 324.087 225.691 C 324.258 225.437 324.53 225.27 324.834 225.233 C 325.137 225.197 325.442 225.294 325.667 225.501 Q 328.177 227.761 329.727 230.631 Z " fill="rgb(169,153,108)"/><path d=" M 322.797 246.611 Q 326.487 246.261 329.877 247.961 Q 331.177 248.611 333.277 250.611 Q 334.687 251.941 336.227 253.141 C 336.488 253.339 336.669 253.619 336.737 253.931 Q 338.787 262.661 336.647 271.381 Q 333.707 274.521 332.377 274.821 Q 329.107 275.551 326.407 277.501 Q 325.557 275.851 326.537 274.001 C 326.602 273.873 326.598 273.72 326.525 273.597 C 326.452 273.473 326.321 273.396 326.177 273.391 Q 323.167 273.291 325.677 273.021 Q 327.207 272.861 324.937 272.881 Q 323.997 272.891 323.687 272.631 Q 327.677 272.981 330.847 271.031 Q 332.757 269.851 333.387 267.441 Q 334.337 263.861 333.937 260.381 Q 333.577 257.201 331.387 255.211 Q 329.547 253.531 326.397 253.321 Q 316.637 252.671 316.087 263.601 Q 311.117 260.131 314.797 255.701 C 315.099 255.471 315.19 255.128 315.027 254.831 Q 314.757 253.941 313.997 255.191 Q 312.237 258.091 311.437 258.921 Q 310.827 258.931 310.737 258.731 Q 314.857 250.711 322.797 246.611 Z " fill="rgb(169,153,108)"/><path d=" M 230.227 244.131 Q 230.407 243.501 230.897 243.131 Q 231.717 247.431 228.077 248.511 C 227.793 248.59 227.57 248.806 227.483 249.085 C 227.396 249.364 227.458 249.667 227.647 249.891 Q 230.177 253.021 228.437 253.091 Q 225.087 247.791 221.137 242.921 Q 219.787 241.251 220.537 239.401 C 220.65 239.11 220.936 238.924 221.247 238.941 Q 222.597 238.991 223.127 239.941 Q 223.957 241.441 226.937 245.131 Q 229.437 248.221 230.227 244.131 Z " fill="rgb(221,217,129)"/><path d=" M 316.087 263.601 Q 318.797 269.181 323.687 272.631 Q 322.217 273.801 319.937 276.631 Q 318.207 278.781 316.287 276.981 C 316.252 276.782 315.935 276.603 315.457 276.511 L 312.937 276.341 L 316.957 275.631 Q 318.277 275.401 317.447 274.501 Q 313.147 269.891 311.187 263.631 Q 310.547 261.581 311.437 258.921 Q 312.237 258.091 313.997 255.191 Q 314.757 253.941 315.027 254.831 C 315.19 255.128 315.099 255.471 314.797 255.701 Q 311.117 260.131 316.087 263.601 Z " fill="rgb(221,217,129)"/><path d=" M 267.337 256.371 Q 270.637 258.121 273.977 259.671 Q 278.867 261.941 280.317 263.431 Q 284.337 267.561 282.487 274.391 Q 282.197 275.481 282.987 276.691 Q 281.617 284.571 275.937 290.171 L 274.187 291.171 Q 271.957 289.141 269.507 291.711 C 269.082 292.138 268.439 292.28 267.867 292.071 L 252.437 286.341 Q 250.797 285.371 249.297 286.511 Q 248.347 287.221 247.397 287.921 Q 246.937 288.271 245.327 289.031 Q 242.717 290.271 242.407 293.701 C 242.346 293.998 242.532 294.294 242.867 294.431 L 245.187 295.671 L 245.147 296.131 L 241.517 294.051 C 241.141 293.867 240.97 293.457 241.117 293.091 Q 241.777 291.191 242.587 289.521 Q 243.087 288.471 242.997 287.781 Q 242.827 286.641 241.817 286.191 Q 245.707 284.781 246.817 280.621 C 246.925 280.309 246.897 279.972 246.737 279.681 Q 246.107 278.421 244.937 277.591 Q 243.967 277.171 243.897 276.131 Q 245.937 273.061 249.447 273.771 C 249.773 273.797 250.102 273.754 250.377 273.651 Q 251.127 273.121 250.687 272.171 Q 252.547 271.581 251.347 270.171 C 251.072 269.956 250.995 269.621 251.157 269.341 Q 251.717 267.991 253.087 267.691 Q 255.327 267.201 255.617 266.951 Q 256.557 266.111 256.667 264.631 C 256.598 264.312 256.712 263.99 256.987 263.731 Q 258.547 261.761 261.127 260.571 Q 261.777 260.261 261.677 259.671 C 261.624 259.564 261.629 259.444 261.691 259.341 C 261.753 259.239 261.865 259.166 261.997 259.141 Q 265.217 258.721 267.337 256.371 Z " fill="rgb(202,206,113)"/><path d=" M 242.227 309.881 Q 241.757 314.621 239.917 318.571 C 239.747 318.936 239.317 319.107 238.937 318.961 Q 235.517 317.541 234.787 314.961 Q 234.447 313.761 234.857 309.781 Q 235.387 304.521 237.477 299.631 Q 238.827 298.491 238.887 299.821 C 239.479 300.095 239.359 300.503 238.617 300.741 Q 237.917 302.051 239.227 302.691 C 239.525 302.83 239.731 303.081 239.787 303.371 Q 240.517 306.811 242.227 309.881 Z " fill="rgb(202,206,113)"/><path d=" M 248.187 301.171 L 255.647 302.101 L 262.187 302.921 Q 260.997 303.491 261.467 304.681 C 261.573 304.937 261.852 305.123 262.187 305.161 Q 264.787 305.441 266.457 307.731 Q 259.537 306.211 252.457 306.611 L 248.187 301.171 Z " fill="rgb(170,98,67)"/><path d=" M 309.147 303.381 Q 309.267 304.151 308.897 304.881 L 307.317 307.361 C 308.206 307.638 308.528 308.031 308.178 308.412 C 307.827 308.792 306.85 309.11 305.567 309.261 Q 302.597 310.641 303.467 312.251 Q 296.927 314.781 290.217 313.251 Q 284.237 311.891 278.657 309.961 Q 276.087 309.061 278.737 308.451 Q 281.147 307.891 283.607 307.961 Q 283.647 307.961 287.697 308.691 Q 289.097 308.941 290.537 308.831 Q 292.077 308.701 293.297 308.991 Q 298.837 310.311 304.397 308.941 C 304.728 308.85 305.013 308.675 305.207 308.441 L 309.147 303.381 Z " fill="rgb(170,98,67)"/><path d=" M 280.937 213.591 L 287.857 217.531 Q 283.377 219.671 283.127 225.191 Q 282.837 231.361 281.397 237.571 C 281.25 237.824 281.249 238.12 281.394 238.373 C 281.539 238.625 281.813 238.805 282.137 238.861 L 286.187 239.341 L 289.327 241.801 C 289.584 241.998 289.69 242.321 289.597 242.621 Q 289.117 244.721 287.147 245.881 L 282.247 245.091 C 281.812 245.052 281.378 245.165 281.057 245.401 Q 277.237 249.051 272.427 251.121 Q 265.307 252.351 258.687 249.471 Q 256.507 248.521 255.027 248.901 Q 251.857 249.721 249.497 252.941 Q 247.167 256.131 242.487 257.551 Q 242.187 257.641 241.727 258.111 L 239.227 260.631 Q 238.847 255.051 241.227 250.131 Q 242.677 251.151 244.757 248.831 C 245.38 248.132 245.672 247.199 245.557 246.271 Q 245.267 244.061 243.937 244.091 L 256.237 227.891 Q 258.277 233.481 258.617 238.321 Q 258.777 240.701 261.027 240.631 L 270.097 240.351 Q 272.677 240.271 274.167 237.851 Q 277.257 232.831 276.437 226.381 Q 275.847 221.711 271.627 220.011 Q 274.697 217.551 277.137 214.291 C 277.283 214.115 277.578 213.982 277.937 213.931 L 280.937 213.591 Z " fill="rgb(202,223,115)"/><path d=" M 247.187 313.671 Q 248.417 313.571 248.937 314.631 Q 249.887 316.571 252.377 316.691 Q 253.637 316.751 253.727 318.131 Q 252.847 321.881 251.937 325.631 Q 251.437 327.681 249.247 327.401 C 248.917 327.346 248.615 327.195 248.387 326.971 Q 245.467 324.021 246.187 319.881 Q 246.997 315.221 247.187 313.671 Z " fill="rgb(202,223,115)"/><path d=" M 311.347 313.461 Q 312.097 318.251 312.667 322.631 Q 313.187 326.631 311.957 330.311 Q 311.347 332.141 310.107 332.811 Q 308.127 333.871 306.497 331.571 Q 304.487 328.721 304.397 323.631 L 304.207 318.541 C 304.106 318.249 304.225 317.941 304.517 317.741 Q 307.837 314.921 311.347 313.461 Z " fill="rgb(177,194,146)"/><path d=" M 252.397 218.371 L 248.437 220.591 L 246.437 213.871 Q 245.867 211.961 247.827 212.681 Q 251.297 213.971 252.397 218.371 Z " fill="rgb(182,178,95)"/><path d=" M 290.397 238.131 L 293.187 243.421 L 287.227 246.381 L 287.147 245.881 Q 289.117 244.721 289.597 242.621 C 289.69 242.321 289.584 241.998 289.327 241.801 L 286.187 239.341 L 290.397 238.131 Z " fill="rgb(182,178,95)"/><path d=" M 268.897 318.731 L 279.317 325.771 Q 273.257 327.551 267.437 325.341 Q 268.247 324.031 266.797 323.591 C 265.985 323.336 265.369 322.67 265.177 321.841 Q 264.577 319.201 262.207 320.011 C 261.911 320.114 261.758 320.408 261.857 320.681 Q 262.137 322.161 261.837 323.591 Q 261.647 324.481 261.197 326.211 Q 260.357 329.511 257.627 326.191 Q 256.837 325.231 255.687 319.921 L 254.687 318.671 L 255.527 318.611 Q 256.137 318.571 256.447 318.671 L 260.987 320.151 Q 262.347 320.601 261.387 319.461 L 258.147 315.631 Q 259.457 314.651 260.717 315.841 Q 262.457 317.481 264.237 319.081 Q 266.667 321.271 268.897 318.731 Z " fill="rgb(182,178,95)"/><path d=" M 245.437 209.671 Q 245.477 215.671 246.977 221.491 Q 246.297 222.691 244.687 223.591 Q 240.617 217.801 240.837 210.871 Q 240.897 209.091 241.827 208.181 Q 243.577 206.461 245.437 209.671 Z " fill="rgb(194,209,125)"/><path d=" M 241.437 226.671 Q 241.627 227.201 240.787 227.791 L 237.097 222.141 C 237.468 221.9 237.179 221.599 236.437 221.451 Q 235.107 220.841 235.997 223.071 Q 236.227 223.631 236.377 226.691 Q 236.517 229.601 237.227 232.381 Q 236.547 234.471 235.527 235.271 L 232.497 217.871 C 232.426 217.557 232.503 217.23 232.707 216.971 Q 234.327 214.661 236.007 216.331 Q 236.657 216.971 237.427 218.721 Q 239.227 222.791 241.437 226.671 Z " fill="rgb(194,209,125)"/><path d=" M 232.977 237.881 Q 231.967 240.701 229.687 242.671 Q 225.727 238.291 225.247 233.071 Q 224.877 228.991 227.577 230.411 Q 228.567 230.931 229.417 232.221 Q 231.267 235.001 232.977 237.881 Z " fill="rgb(194,209,125)"/><path d=" M 228.837 287.721 Q 232.177 288.091 231.307 291.891 C 231.236 292.208 231.263 292.538 231.387 292.841 Q 231.897 294.181 231.627 295.231 Q 230.357 298.441 227.937 297.311 C 227.629 297.158 227.41 296.896 227.337 296.591 Q 225.827 291.911 228.837 287.721 Z " fill="rgb(194,209,125)"/><path d=" M 321.147 313.631 Q 321.867 315.321 322.647 316.981 Q 323.607 319.021 323.287 320.451 Q 322.697 323.171 319.717 322.441 Q 318.087 322.031 316.777 320.471 Q 313.587 316.631 312.397 311.631 Q 313.797 309.901 315.777 310.421 Q 316.277 310.551 316.727 310.441 Q 320.347 309.581 321.147 313.631 Z " fill="rgb(194,209,125)"/><path d=" M 300.977 332.381 Q 300.377 337.021 295.687 337.171 Q 290.887 333.931 291.407 327.751 Q 288.517 327.391 291.717 326.381 C 292.31 326.191 292.658 325.583 292.517 324.981 Q 291.267 319.391 297.617 319.671 Q 299.897 319.771 300.307 322.011 Q 301.187 326.821 300.977 332.381 Z " fill="rgb(194,209,125)"/><path d=" M 255.687 319.921 Q 256.837 325.231 257.627 326.191 Q 260.357 329.511 261.197 326.211 Q 261.647 324.481 261.837 323.591 Q 262.137 322.161 261.857 320.681 C 261.758 320.408 261.911 320.114 262.207 320.011 Q 264.577 319.201 265.177 321.841 C 265.369 322.67 265.985 323.336 266.797 323.591 Q 268.247 324.031 267.437 325.341 L 265.287 324.651 C 264.775 324.524 264.229 324.709 263.957 325.101 Q 260.547 331.731 256.897 327.421 Q 255.667 325.981 255.547 323.861 Q 255.427 321.891 255.687 319.921 Z " fill="rgb(194,209,125)"/><path d=" M 297.187 262.171 Q 297.647 263.301 299.187 262.921 Q 295.057 266.691 291.427 270.931 Q 291.127 271.291 290.407 271.741 Q 289.107 272.561 291.187 273.421 Q 291.097 273.691 290.687 273.671 Q 285.127 274.621 286.657 270.821 Q 287.147 269.601 288.887 267.981 Q 290.547 266.451 291.937 264.671 Q 294.797 263.931 297.187 262.171 Z " fill="rgb(215,154,59)"/><path d=" M 319.937 284.421 Q 315.567 287.991 312.397 287.501 Q 309.567 287.071 306.757 287.621 Q 297.367 289.461 290.467 293.951 Q 277.627 302.321 262.187 302.921 L 255.647 302.101 Q 259.277 301.671 268.437 299.631 Q 273.157 298.581 276.517 297.111 Q 280.747 295.251 280.807 295.231 Q 285.237 293.471 289.477 291.321 Q 290.797 290.651 294.467 289.331 Q 296.687 288.541 299.377 287.071 Q 305.417 283.761 312.547 285.471 C 313.272 285.637 314.033 285.495 314.647 285.081 Q 317.317 283.251 319.937 284.421 Z " fill="rgb(215,154,59)"/><path d=" M 255.977 312.631 L 266.377 313.371 C 266.602 313.393 266.806 313.506 266.94 313.681 C 267.073 313.856 267.123 314.078 267.077 314.291 Q 266.777 316.091 267.647 316.381 L 268.897 318.731 Q 266.667 321.271 264.237 319.081 Q 262.457 317.481 260.717 315.841 Q 259.457 314.651 258.147 315.631 Q 256.347 314.641 255.977 312.631 Z " fill="rgb(215,154,59)"/><path d=" M 292.452 230.062 C 292.138 227.471 294.592 225.039 297.929 224.635 C 301.266 224.231 304.23 226.007 304.543 228.599 C 304.857 231.191 302.402 233.623 299.066 234.026 C 295.729 234.43 292.765 232.654 292.452 230.062 Z " fill="rgb(255,181,47)"/><path d=" M 263.377 233.421 Q 261.527 231.341 263.157 228.951 Q 264.127 227.521 266.267 226.461 Q 273.347 222.941 270.247 232.191 Q 269.337 234.911 266.817 234.971 Q 264.797 235.021 263.377 233.421 Z " fill="rgb(255,181,47)"/><path d=" M 325.414 257.188 C 327.47 256.833 329.49 258.575 329.922 261.077 C 330.354 263.579 329.036 265.898 326.98 266.254 C 324.925 266.609 322.905 264.866 322.473 262.364 C 322.04 259.862 323.359 257.543 325.414 257.188 Z " fill="rgb(255,181,47)"/><path d=" M 259.007 280.871 Q 256.397 279.071 255.567 276.321 Q 254.867 273.991 256.057 271.061 Q 257.007 268.721 258.457 266.651 Q 260.017 264.431 262.167 263.461 Q 266.077 261.701 269.767 263.371 Q 272.957 264.811 274.417 268.481 Q 277.007 274.941 272.137 280.331 Q 270.077 282.601 269.027 283.191 Q 267.097 284.251 264.437 283.381 Q 261.037 282.261 259.007 280.871 Z " fill="rgb(107,106,107)"/><path d=" M 246.127 259.941 Q 245.877 259.971 245.707 259.891 C 245.555 259.841 245.449 259.735 245.431 259.612 C 245.412 259.488 245.483 259.366 245.617 259.291 Q 246.257 258.151 247.247 257.691 Q 256.037 253.661 266.257 253.091 Q 266.757 253.071 266.327 253.331 Q 257.567 258.681 247.397 260.311 C 247.095 260.344 246.787 260.298 246.517 260.181 Q 246.317 260.071 246.127 259.941 Z " fill="rgb(148,136,109)"/><path d=" M 280.827 256.421 Q 280.357 256.191 280.817 255.951 Q 284.857 253.871 288.157 251.351 Q 291.227 249.031 293.317 248.401 Q 297.037 247.291 300.687 247.631 Q 302.217 247.771 303.237 247.351 Q 303.667 247.181 303.447 247.571 Q 299.837 254.171 294.047 258.681 Q 292.597 259.811 290.767 259.571 Q 285.827 258.911 280.827 256.421 Z " fill="rgb(123,91,70)"/><path d=" M 250.607 291.651 C 250.452 291.877 250.192 292.012 249.915 292.01 C 249.637 292.008 249.38 291.869 249.227 291.641 Q 248.467 290.461 248.677 288.681 C 248.674 288.368 248.84 288.072 249.127 287.881 Q 250.047 287.241 250.517 288.161 Q 250.827 288.771 251.037 289.441 Q 251.367 290.521 250.607 291.651 Z " fill="rgb(169,153,108)"/><path d=" M 244.077 219.041 Q 243.767 220.091 243.677 219.001 Q 243.517 217.061 242.617 215.221 Q 242.427 214.841 242.447 214.501 Q 242.567 213.101 243.567 214.521 Q 244.857 216.361 244.077 219.041 Z " fill="rgb(194,209,125)"/><path d=" M 261.245 275.715 C 259.68 274.043 260.14 271.065 262.272 269.07 C 264.404 267.076 267.405 266.814 268.97 268.486 C 270.535 270.159 270.075 273.136 267.943 275.131 C 265.811 277.126 262.81 277.388 261.245 275.715 Z " fill="rgb(255,181,47)"/></g></svg>