<?xml version="1.0" encoding="UTF-8" standalone="no"?><!-- Generator: Gravit.io --><svg xmlns="http://www.w3.org/2000/svg" xmlns:xlink="http://www.w3.org/1999/xlink" style="isolation:isolate" viewBox="217.691 219.832 132.87 105.087" width="132.87pt" height="105.087pt"><defs><clipPath id="_clipPath_M189xn9I14EQkpq9eb1dH5r459KFizzn"><rect x="217.691" y="219.832" width="132.87" height="105.087"/></clipPath></defs><g clip-path="url(#_clipPath_M189xn9I14EQkpq9eb1dH5r459KFizzn)"><path d=" M 224.434 233.666 Q 222.714 234.936 221.104 234.966 Q 219.344 234.986 219.494 236.286 C 219.49 236.592 219.694 236.88 220.034 237.046 Q 224.224 239.696 228.844 241.476 Q 229.414 241.696 231.584 242.046 Q 233.094 242.286 234.254 243.216 Q 236.714 245.206 236.904 245.336 Q 239.744 247.256 241.484 250.516 C 241.89 251.284 242.754 251.708 243.624 251.566 L 251.604 250.066 L 250.104 252.316 L 249.394 252.776 Q 249.374 252.116 248.844 251.886 C 248.523 251.852 248.196 251.927 247.964 252.086 Q 242.204 256.606 238.644 251.606 Q 235.874 247.716 235.774 247.616 Q 233.364 245.326 230.104 244.316 Q 224.974 241.586 219.904 238.736 Q 217.774 237.546 217.694 235.726 Q 217.604 233.716 219.744 233.696 L 224.434 233.666 Z " fill="rgb(129,204,100)"/><path d=" M 224.434 233.666 Q 235.454 235.276 244.374 242.016 Q 247.214 244.166 250.554 242.726 Q 255.304 240.696 259.654 244.596 L 251.604 250.066 L 243.624 251.566 C 242.754 251.708 241.89 251.284 241.484 250.516 Q 239.744 247.256 236.904 245.336 Q 236.714 245.206 234.254 243.216 Q 233.094 242.286 231.584 242.046 Q 229.414 241.696 228.844 241.476 Q 224.224 239.696 220.034 237.046 C 219.694 236.88 219.49 236.592 219.494 236.286 Q 219.344 234.986 221.104 234.966 Q 222.714 234.936 224.434 233.666 Z " fill="rgb(150,193,76)"/><path d=" M 281.294 239.616 Q 285.784 239.086 288.044 240.336 Q 289.054 240.906 289.154 240.036 L 302.704 246.556 L 300.354 246.486 Q 295.224 244.056 289.704 243.726 Q 287.994 243.616 281.024 243.356 Q 273.744 243.086 267.164 245.836 Q 260.244 248.736 257.294 255.816 C 257.157 256.111 257.149 256.446 257.274 256.745 Q 258.184 259.106 260.024 260.876 Q 260.104 260.946 260.934 261.906 Q 261.844 262.966 263.314 262.526 Q 262.694 263.276 262.854 264.236 Q 262.624 264.296 262.564 264.526 Q 262.264 264.826 261.854 264.736 Q 261.744 263.806 260.894 263.276 L 256.574 258.066 C 255.893 257.398 255.662 256.468 255.964 255.616 Q 257.024 251.716 259.804 248.196 Q 260.774 246.966 262.024 246.006 Q 263.604 244.786 265.604 244.166 Q 266.244 243.966 266.504 243.686 Q 267.094 243.066 266.354 242.486 Q 273.624 239.756 281.294 239.616 Z " fill="rgb(156,153,59)"/><path d=" M 250.964 254.316 Q 249.824 259.126 246.964 263.176 Q 243.374 268.096 241.414 273.086 Q 239.654 277.566 240.064 282.776 L 237.894 283.776 Q 238.264 271.926 244.394 261.776 Q 245.994 261.416 246.754 259.946 Q 248.374 256.856 250.964 254.316 Z " fill="rgb(103,141,99)"/><path d=" M 289.154 240.036 Q 289.054 240.906 288.044 240.336 Q 285.784 239.086 281.294 239.616 Q 282.894 233.536 286.984 229.856 C 287.214 229.65 287.528 229.548 287.844 229.576 Q 290.624 229.976 290.854 232.776 Q 291.104 235.726 289.154 240.036 Z " fill="rgb(164,185,83)"/><path d=" M 266.354 242.486 Q 267.094 243.066 266.504 243.686 Q 266.244 243.966 265.604 244.166 Q 263.604 244.786 262.024 246.006 Q 260.774 246.966 259.804 248.196 Q 257.024 251.716 255.964 255.616 C 255.662 256.468 255.893 257.398 256.574 258.066 L 260.894 263.276 Q 259.704 265.106 257.854 266.316 Q 255.984 266.236 254.714 267.636 Q 253.004 269.516 251.674 271.666 C 251.532 271.924 251.262 272.12 250.934 272.206 Q 248.794 272.626 247.914 270.466 Q 246.674 267.396 246.964 263.176 Q 249.824 259.126 250.964 254.316 Q 250.774 253.156 250.104 252.316 L 251.604 250.066 L 259.654 244.596 Q 263.064 244.056 266.354 242.486 Z " fill="rgb(164,185,83)"/><path d=" M 300.354 246.486 Q 298.684 248.296 296.794 249.856 Q 295.064 251.286 292.824 251.476 Q 290.064 251.726 287.664 251.466 Q 279.854 250.626 273.404 254.116 Q 270.144 255.876 267.914 257.526 Q 265.254 259.466 263.394 262.276 L 263.314 262.526 Q 261.844 262.966 260.934 261.906 Q 260.104 260.946 260.024 260.876 Q 258.184 259.106 257.274 256.745 C 257.149 256.446 257.157 256.111 257.294 255.816 Q 260.244 248.736 267.164 245.836 Q 273.744 243.086 281.024 243.356 Q 287.994 243.616 289.704 243.726 Q 295.224 244.056 300.354 246.486 Z " fill="rgb(164,185,83)"/><path d=" M 230.104 244.316 Q 233.364 245.326 235.774 247.616 Q 235.874 247.716 238.644 251.606 Q 242.204 256.606 247.964 252.086 C 248.196 251.927 248.523 251.852 248.844 251.886 Q 249.374 252.116 249.394 252.776 Q 247.404 255.576 246.544 257.966 Q 245.794 260.056 244.144 261.026 L 242.534 259.536 C 242.285 259.413 241.955 259.355 241.624 259.376 Q 238.054 259.995 236.414 257.216 Q 232.964 251.346 229.634 247.916 L 230.104 244.316 Z " fill="rgb(99,205,116)"/><path d=" M 300.354 246.486 L 302.704 246.556 Q 304.614 247.495 306.114 250.306 Q 298.464 252.346 290.614 252.046 C 290.279 252.096 289.985 252.232 289.794 252.426 Q 289.324 252.876 288.634 252.856 Q 287.664 252.826 287.564 252.836 Q 284.224 253.166 280.854 253.026 Q 278.074 252.906 273.354 255.736 L 263.394 262.276 Q 265.254 259.466 267.914 257.526 Q 270.144 255.876 273.404 254.116 Q 279.854 250.626 287.664 251.466 Q 290.064 251.726 292.824 251.476 Q 295.064 251.286 296.794 249.856 Q 298.684 248.296 300.354 246.486 Z " fill="rgb(136,176,119)"/><path d=" M 306.644 261.276 Q 309.814 266.436 315.564 267.396 Q 318.484 267.886 319.004 267.886 Q 320.704 267.906 322.014 266.636 C 322.104 266.553 322.225 266.508 322.349 266.512 C 322.473 266.516 322.591 266.568 322.674 266.656 Q 325.134 269.726 324.524 273.456 Q 324.624 287.836 318.474 300.336 Q 315.954 305.456 311.864 309.156 Q 300.714 319.245 286.104 320.526 Q 277.484 321.276 265.064 319.026 Q 266.934 317.896 271.174 318.146 C 271.417 318.162 271.651 318.059 271.803 317.87 C 271.955 317.68 272.004 317.428 271.934 317.196 Q 271.904 317.086 271.264 316.976 Q 267.204 316.226 267.814 312.026 Q 268.394 310.495 270.104 310.776 Q 270.684 310.866 271.604 310.516 Q 272.374 310.216 273.044 310.206 Q 280.034 310.036 285.734 306.366 Q 286.994 305.556 290.244 302.406 Q 292.414 300.306 294.914 298.586 Q 296.054 297.806 299.564 292.926 C 299.73 292.706 300.039 292.649 300.274 292.796 Q 303.754 295.076 307.164 297.466 Q 310.304 299.656 314.254 298.116 Q 314.994 297.836 315.444 297.356 Q 316.584 296.156 315.124 295.696 Q 314.584 295.526 313.584 295.656 Q 309.194 296.226 306.814 292.896 Q 305.104 290.486 305.054 290.426 Q 303.764 288.916 302.404 287.456 C 302.001 287.011 301.984 286.339 302.364 285.876 Q 303.354 284.676 303.064 283.026 Q 303.314 282.086 302.784 281.626 Q 303.374 280.196 302.914 279.706 Q 305.444 275.706 305.654 271.296 L 306.644 261.276 Z " fill="rgb(51,90,115)"/><path d=" M 246.964 263.176 Q 246.674 267.396 247.914 270.466 Q 248.794 272.626 250.934 272.206 C 251.262 272.12 251.532 271.924 251.674 271.666 Q 253.004 269.516 254.714 267.636 Q 255.984 266.236 257.854 266.316 L 253.614 272.336 C 253.427 272.504 253.124 272.541 252.884 272.426 Q 251.664 271.716 250.914 273.086 Q 247.374 279.516 243.604 285.816 Q 242.184 286.736 240.644 286.026 L 240.064 282.776 Q 239.654 277.566 241.414 273.086 Q 243.374 268.096 246.964 263.176 Z " fill="rgb(116,183,118)"/><path d=" M 260.894 263.276 Q 261.744 263.806 261.854 264.736 Q 261.004 265.936 261.524 267.096 C 261.793 267.697 261.764 268.389 261.444 268.966 Q 259.364 272.796 256.494 275.236 Q 254.214 277.166 253.524 278.556 Q 251.884 281.826 252.104 285.026 Q 252.794 295.196 249.994 303.086 L 247.604 300.816 Q 249.934 299.636 249.354 297.526 Q 247.744 291.626 247.374 285.886 C 247.361 285.639 247.223 285.416 247.01 285.293 C 246.796 285.17 246.534 285.164 246.314 285.276 Q 243.964 286.486 243.604 285.816 Q 247.374 279.516 250.914 273.086 Q 251.664 271.716 252.884 272.426 C 253.124 272.541 253.427 272.504 253.614 272.336 L 257.854 266.316 Q 259.704 265.106 260.894 263.276 Z " fill="rgb(73,171,126)"/><path d=" M 302.784 281.626 Q 303.314 282.086 303.064 283.026 Q 300.844 285.136 299.884 287.926 Q 298.934 290.666 298.104 291.806 Q 293.334 298.286 285.474 304.946 C 285.149 305.222 284.72 305.342 284.299 305.274 C 283.878 305.207 283.507 304.959 283.284 304.596 Q 282.614 303.506 280.694 303.886 Q 280.064 304.006 279.614 304.396 Q 278.264 305.586 280.854 305.706 Q 281.384 305.726 281.614 306.006 C 281.763 306.109 281.821 306.266 281.767 306.413 C 281.712 306.559 281.554 306.672 281.354 306.706 Q 274.234 310.495 266.104 310.566 Q 260.074 310.446 254.954 307.406 Q 253.804 306.726 253.314 305.526 Q 256.524 303.006 261.654 302.406 C 262.467 302.307 263.056 301.586 262.984 300.776 Q 262.634 296.296 266.054 292.495 Q 271.784 286.146 276.964 278.976 Q 278.524 276.816 276.324 274.906 L 269.274 268.816 C 269.03 268.614 268.976 268.277 269.144 268.016 Q 270.364 265.706 272.454 264.716 Q 274.154 263.916 275.684 265.006 Q 283.734 270.806 290.914 277.466 Q 295.494 281.706 302.784 281.626 Z " fill="rgb(58,145,116)"/><path d=" M 324.524 273.456 Q 328.324 284.636 324.504 295.446 Q 318.276 309.064 313.869 312.826 C 309.462 316.587 297.344 323.976 286.354 324.776 Q 271.764 325.836 257.104 319.066 Q 258.214 318.336 259.254 318.936 C 259.517 319.064 259.834 319.154 260.174 319.196 L 265.064 319.026 Q 277.484 321.276 286.104 320.526 Q 300.714 319.245 311.864 309.156 Q 315.954 305.456 318.474 300.336 Q 324.624 287.836 324.524 273.456 Z " fill="rgb(107,185,92)"/><path d=" M 306.114 250.306 Q 306.464 251.526 306.104 255.026 Q 305.824 257.676 306.644 261.276 L 305.654 271.296 Q 305.034 269.456 304.344 267.486 Q 301.884 260.466 293.794 258.946 Q 292.584 258.716 293.564 257.976 Q 296.204 255.986 293.834 255.116 Q 292.964 254.806 291.874 254.266 Q 290.824 253.766 289.604 253.766 Q 286.794 253.776 284.044 254.226 Q 282.834 254.426 280.604 255.696 Q 277.174 257.656 273.354 255.736 Q 278.074 252.906 280.854 253.026 Q 284.224 253.166 287.564 252.836 Q 287.664 252.826 288.634 252.856 Q 289.324 252.876 289.794 252.426 C 289.985 252.232 290.279 252.096 290.614 252.046 Q 298.464 252.346 306.114 250.306 Z " fill="rgb(74,182,133)"/><path d=" M 247.604 300.816 Q 242.304 294.296 240.644 286.026 Q 242.184 286.736 243.604 285.816 Q 243.964 286.486 246.314 285.276 C 246.534 285.164 246.796 285.17 247.01 285.293 C 247.223 285.416 247.361 285.639 247.374 285.886 Q 247.744 291.626 249.354 297.526 Q 249.934 299.636 247.604 300.816 Z " fill="rgb(74,182,133)"/><path d=" M 250.104 252.316 Q 250.774 253.156 250.964 254.316 Q 248.374 256.856 246.754 259.946 Q 245.994 261.416 244.394 261.776 L 244.144 261.026 Q 245.794 260.056 246.544 257.966 Q 247.404 255.576 249.394 252.776 L 250.104 252.316 Z " fill="rgb(57,102,77)"/><path d=" M 302.914 279.706 Q 303.374 280.196 302.784 281.626 Q 295.494 281.706 290.914 277.466 Q 283.734 270.806 275.684 265.006 Q 274.154 263.916 272.454 264.716 Q 270.364 265.706 269.144 268.016 C 268.976 268.277 269.03 268.614 269.274 268.816 L 276.324 274.906 Q 278.524 276.816 276.964 278.976 Q 271.784 286.146 266.054 292.495 Q 262.634 296.296 262.984 300.776 C 263.056 301.586 262.467 302.307 261.654 302.406 Q 256.524 303.006 253.314 305.526 Q 252.634 305.446 252.354 304.816 L 259.554 301.426 C 260.582 300.943 261.182 300.088 261.134 299.176 Q 262.844 291.296 267.114 287.286 Q 271.264 283.376 274.114 279.326 C 274.643 278.567 274.541 277.536 273.874 276.896 Q 268.314 271.546 263.584 266.646 Q 263.144 266.196 262.944 265.666 Q 262.734 265.106 262.564 264.526 Q 262.624 264.296 262.854 264.236 Q 264.814 265.066 266.184 266.476 C 266.299 266.59 266.456 266.655 266.619 266.655 C 266.783 266.655 266.94 266.59 267.054 266.476 Q 269.464 263.916 272.144 263.016 Q 274.014 262.386 275.644 263.486 Q 282.884 268.396 289.294 274.086 Q 295.674 279.745 302.914 279.706 Z " fill="rgb(57,102,77)"/><path d=" M 303.064 283.026 Q 303.354 284.676 302.364 285.876 C 301.984 286.339 302.001 287.011 302.404 287.456 Q 303.764 288.916 305.054 290.426 Q 305.104 290.486 306.814 292.896 Q 309.194 296.226 313.584 295.656 Q 314.584 295.526 315.124 295.696 Q 316.584 296.156 315.444 297.356 Q 314.994 297.836 314.254 298.116 Q 310.304 299.656 307.164 297.466 Q 303.754 295.076 300.274 292.796 C 300.039 292.649 299.73 292.706 299.564 292.926 Q 296.054 297.806 294.914 298.586 Q 292.414 300.306 290.244 302.406 Q 286.994 305.556 285.734 306.366 Q 280.034 310.036 273.044 310.206 Q 272.374 310.216 271.604 310.516 Q 270.684 310.866 270.104 310.776 Q 268.394 310.495 267.814 312.026 Q 266.294 312.016 266.104 310.566 Q 274.234 310.495 281.354 306.706 C 281.554 306.672 281.712 306.559 281.767 306.413 C 281.821 306.266 281.763 306.109 281.614 306.006 Q 281.384 305.726 280.854 305.706 Q 278.264 305.586 279.614 304.396 Q 280.064 304.006 280.694 303.886 Q 282.614 303.506 283.284 304.596 C 283.507 304.959 283.878 305.207 284.299 305.274 C 284.72 305.342 285.149 305.222 285.474 304.946 Q 293.334 298.286 298.104 291.806 Q 298.934 290.666 299.884 287.926 Q 300.844 285.136 303.064 283.026 Z " fill="rgb(55,76,92)"/><path d=" M 305.654 271.296 Q 305.444 275.706 302.914 279.706 Q 295.674 279.745 289.294 274.086 Q 282.884 268.396 275.644 263.486 Q 274.014 262.386 272.144 263.016 Q 269.464 263.916 267.054 266.476 C 266.94 266.59 266.783 266.655 266.619 266.655 C 266.456 266.655 266.299 266.59 266.184 266.476 Q 264.814 265.066 262.854 264.236 Q 262.694 263.276 263.314 262.526 L 263.394 262.276 L 273.354 255.736 Q 277.174 257.656 280.604 255.696 Q 282.834 254.426 284.044 254.226 Q 286.794 253.776 289.604 253.766 Q 290.824 253.766 291.874 254.266 Q 292.964 254.806 293.834 255.116 Q 296.204 255.986 293.564 257.976 Q 292.584 258.716 293.794 258.946 Q 301.884 260.466 304.344 267.486 Q 305.034 269.456 305.654 271.296 Z " fill="rgb(60,150,115)"/><path d=" M 262.564 264.526 Q 262.734 265.106 262.944 265.666 Q 263.144 266.196 263.584 266.646 Q 268.314 271.546 273.874 276.896 C 274.541 277.536 274.643 278.567 274.114 279.326 Q 271.264 283.376 267.114 287.286 Q 262.844 291.296 261.134 299.176 C 261.182 300.088 260.582 300.943 259.554 301.426 L 252.354 304.816 Q 250.804 304.176 249.994 303.086 Q 252.794 295.196 252.104 285.026 Q 251.884 281.826 253.524 278.556 Q 254.214 277.166 256.494 275.236 Q 259.364 272.796 261.444 268.966 C 261.764 268.389 261.793 267.697 261.524 267.096 Q 261.004 265.936 261.854 264.736 Q 262.264 264.826 262.564 264.526 Z " fill="rgb(60,150,115)"/><path d=" M 240.064 282.776 L 240.644 286.026 Q 242.304 294.296 247.604 300.816 L 249.994 303.086 Q 250.804 304.176 252.354 304.816 Q 252.634 305.446 253.314 305.526 Q 253.804 306.726 254.954 307.406 Q 260.074 310.446 266.104 310.566 Q 266.294 312.016 267.814 312.026 Q 267.204 316.226 271.264 316.976 Q 271.904 317.086 271.934 317.196 C 272.004 317.428 271.955 317.68 271.803 317.87 C 271.651 318.059 271.417 318.162 271.174 318.146 Q 266.934 317.896 265.064 319.026 L 260.174 319.196 C 259.834 319.154 259.517 319.064 259.254 318.936 Q 258.214 318.336 257.104 319.066 Q 251.104 315.576 247.544 310.086 Q 244.434 305.306 241.624 299.166 Q 238.264 291.836 237.894 283.776 L 240.064 282.776 Z " fill="rgb(45,112,123)"/><path d=" M 347.314 222.776 Q 347.844 225.816 345.854 227.776 Q 344.364 229.245 340.814 232.026 L 337.934 234.436 Q 336.624 235.526 336.144 235.716 Q 333.204 236.866 332.234 238.995 C 332.126 239.256 331.888 239.479 331.564 239.626 L 330.274 240.256 C 329.744 240.425 329.495 240.71 329.644 240.976 Q 328.734 242.745 326.864 242.676 Q 324.874 242.606 324.824 242.616 Q 322.124 243.086 320.244 245.995 C 319.906 246.51 319.309 246.795 318.694 246.736 Q 311.464 246.006 318.424 243.116 Q 319.904 242.495 321.124 240.556 Q 324.574 229.516 336.604 227.276 Q 341.584 226.346 347.314 222.776 Z " fill="rgb(153,202,86)"/><path d=" M 340.814 232.026 Q 338.034 235.506 334.104 237.606 C 333.808 237.77 333.603 238.025 333.534 238.316 Q 333.074 239.726 331.654 240.346 Q 330.134 241.006 329.584 242.576 Q 328.754 244.956 326.384 245.916 C 326.088 246.038 325.852 246.263 325.724 246.546 Q 324.564 249.186 322.054 250.546 C 321.771 250.699 321.557 250.948 321.454 251.245 Q 320.484 253.806 317.604 253.796 C 317.278 253.795 316.959 253.889 316.684 254.066 Q 314.174 255.666 311.104 255.316 L 307.644 255.276 L 307.234 246.586 C 307.192 246.307 307.362 246.038 307.644 245.936 Q 312.094 244.476 315.564 241.276 Q 315.544 241.816 316.034 241.816 Q 316.274 241.816 316.604 241.606 Q 318.514 240.336 321.124 240.556 Q 319.904 242.495 318.424 243.116 Q 311.464 246.006 318.694 246.736 C 319.309 246.795 319.906 246.51 320.244 245.995 Q 322.124 243.086 324.824 242.616 Q 324.874 242.606 326.864 242.676 Q 328.734 242.745 329.644 240.976 C 329.495 240.71 329.744 240.425 330.274 240.256 L 331.564 239.626 C 331.888 239.479 332.126 239.256 332.234 238.995 Q 333.204 236.866 336.144 235.716 Q 336.624 235.526 337.934 234.436 L 340.814 232.026 Z " fill="rgb(129,204,100)"/><path d=" M 349.224 220.106 Q 347.774 221.316 347.314 222.776 Q 341.584 226.346 336.604 227.276 Q 324.574 229.516 321.124 240.556 Q 318.514 240.336 316.604 241.606 Q 316.274 241.816 316.034 241.816 Q 315.544 241.816 315.564 241.276 L 319.464 238.086 C 319.717 237.88 319.889 237.598 319.954 237.286 Q 321.224 231.245 325.644 227.696 Q 327.894 225.896 333.064 224.516 Q 340.874 222.436 343.544 220.966 Q 346.594 219.276 349.224 220.106 Z " fill="rgb(150,193,76)"/><path d=" M 349.224 220.106 Q 351.654 225.436 349.664 229.956 Q 348.664 232.216 344.794 235.466 Q 342.884 237.066 341.014 238.706 Q 339.354 240.156 337.964 242.506 Q 334.624 248.156 329.734 252.616 Q 329.404 250.666 330.884 249.306 Q 333.774 246.676 335.924 243.406 Q 337.544 240.936 335.664 241.226 C 335.324 241.318 335.047 241.506 334.894 241.745 Q 334.024 242.926 332.724 243.466 Q 330.924 244.216 330.344 244.676 Q 323.484 250.046 322.044 251.716 Q 320.584 253.406 319.014 254.016 Q 316.694 254.916 316.464 255.026 Q 313.924 256.206 311.104 255.316 Q 314.174 255.666 316.684 254.066 C 316.959 253.889 317.278 253.795 317.604 253.796 Q 320.484 253.806 321.454 251.245 C 321.557 250.948 321.771 250.699 322.054 250.546 Q 324.564 249.186 325.724 246.546 C 325.852 246.263 326.088 246.038 326.384 245.916 Q 328.754 244.956 329.584 242.576 Q 330.134 241.006 331.654 240.346 Q 333.074 239.726 333.534 238.316 C 333.603 238.025 333.808 237.77 334.104 237.606 Q 338.034 235.506 340.814 232.026 Q 344.364 229.245 345.854 227.776 Q 347.844 225.816 347.314 222.776 Q 347.774 221.316 349.224 220.106 Z " fill="rgb(99,205,116)"/><path d=" M 329.734 252.616 Q 329.104 256.386 327.764 259.756 Q 326.804 262.176 324.804 263.316 Q 320.334 265.876 314.854 264.786 Q 307.354 263.286 307.644 255.276 L 311.104 255.316 Q 313.924 256.206 316.464 255.026 Q 316.694 254.916 319.014 254.016 Q 320.584 253.406 322.044 251.716 Q 323.484 250.046 330.344 244.676 Q 330.924 244.216 332.724 243.466 Q 334.024 242.926 334.894 241.745 C 335.047 241.506 335.324 241.318 335.664 241.226 Q 337.544 240.936 335.924 243.406 Q 333.774 246.676 330.884 249.306 Q 329.404 250.666 329.734 252.616 Z " fill="rgb(99,205,116)"/><path d=" M 281.404 292.606 Q 282.014 290.886 284.364 290.096 L 290.764 287.946 C 290.954 287.89 291.161 287.916 291.326 288.016 C 291.491 288.115 291.594 288.278 291.604 288.456 Q 291.644 290.046 290.054 290.656 Q 287.174 291.756 284.424 292.995 C 283.722 293.308 283.138 293.833 282.754 294.495 Q 282.224 295.426 281.664 295.656 C 281.518 295.673 281.369 295.633 281.261 295.547 C 281.153 295.461 281.099 295.339 281.114 295.216 Q 281.004 293.736 281.404 292.606 Z " fill="rgb(57,102,77)"/></g></svg>