<?xml version="1.0" encoding="UTF-8" standalone="no"?><!-- Generator: Gravit.io --><svg xmlns="http://www.w3.org/2000/svg" xmlns:xlink="http://www.w3.org/1999/xlink" style="isolation:isolate" viewBox="220.024 915.842 14.881 16.424" width="14.881pt" height="16.424pt"><defs><clipPath id="_clipPath_oK438baSIfVly854Aj9VP5gZuqJvpZjf"><rect x="220.024" y="915.842" width="14.881" height="16.424"/></clipPath></defs><g clip-path="url(#_clipPath_oK438baSIfVly854Aj9VP5gZuqJvpZjf)"><rect x="220.024" y="915.842" width="14.881" height="16.424" style="fill:rgb(0,0,0)" fill-opacity="0"/><g/><g/><g/><g/><g/><g/><g/><g/><g/><g/><g/><g/><g/><g/><g/><g/><g/><g/><g/><g/><g/><g/><g/><g/><g/><g/><g/><g/><g/><g/><g/><g/><g/><g/><g/><g/><g/><g/><g/><g/><g/><g/><g/><g/><g/><g/><g/><g/><g/><g/><g/><g/><g/><g/><g/><g/><g/><g/><g/><g/><g/><g/><g/><g/><g/><g/><g/><g/><g/><g/><g/><g/><g/><g/><g/><g/><g/><g/><g/><g/><g/><g/><g/><g/><g/><g/><g/><g/><g/><g/><g/><g/><g/><g/><g/><g/><g/><g/><g/><g/><g/><g/><g/><g/><g/><g/><g/><g/><g/><g/><g/><g/><g/><g/><g/><g/><g/><g/><g/><g/><g/><g/><g/><g/><g/><g/><g/><g/><g/><g/><g/><g/><g/><g/><g/><g/><g/><g/><g/><g/><g/><g/><g/><g/><g/><g/><g/><g/><g/><g/><g/><g/><g/><g/><g/><g/><g/><g/><g/><g/><g/><g/><g/><g/><g/><g/><g/><g/><g/><g/><g/><g/><g/><g/><g/><g/><g/><g/><g/><g/><g/><g/><g/><g/><g/><g/><g/><g/><g/><g/><path d=" M 230.938 925.401 L 232.098 928.861 Q 232.428 929.821 231.548 929.341 Q 228.318 927.561 226.978 930.871 Q 225.848 933.661 224.848 930.871 Q 223.928 928.281 222.518 925.961 Q 222.478 925.901 220.628 923.781 Q 218.948 921.851 221.938 920.281 Q 224.518 918.931 225.168 917.021 Q 225.908 914.841 227.288 916.691 Q 229.798 920.071 233.538 919.681 Q 235.668 919.461 234.478 921.371 Q 233.228 923.361 231.218 924.671 C 230.957 924.822 230.84 925.125 230.938 925.401 Z " fill="rgb(253,242,165)"/></g></svg>