<?xml version="1.0" encoding="UTF-8" standalone="no"?><!-- Generator: Gravit.io --><svg xmlns="http://www.w3.org/2000/svg" xmlns:xlink="http://www.w3.org/1999/xlink" style="isolation:isolate" viewBox="216.864 913.882 21.2 20.344" width="21.2pt" height="20.344pt"><defs><clipPath id="_clipPath_d1Qvrh19hUhoGzLu4y8fJnNUNc9Y07Pl"><rect x="216.864" y="913.882" width="21.2" height="20.344"/></clipPath></defs><g clip-path="url(#_clipPath_d1Qvrh19hUhoGzLu4y8fJnNUNc9Y07Pl)"><rect x="216.864" y="913.882" width="21.2" height="20.344" style="fill:rgb(0,0,0)" fill-opacity="0"/><g/><g/><g/><g/><g/><g/><g/><g/><g/><g/><g/><g/><g/><g/><g/><g/><g/><g/><g/><g/><g/><g/><g/><g/><g/><g/><g/><g/><g/><g/><g/><g/><g/><g/><g/><g/><g/><g/><g/><g/><g/><g/><g/><g/><g/><g/><g/><g/><g/><g/><g/><g/><g/><g/><g/><g/><g/><g/><g/><g/><g/><g/><g/><g/><g/><g/><g/><g/><g/><g/><g/><g/><g/><g/><g/><g/><g/><g/><g/><g/><g/><g/><g/><g/><g/><g/><g/><g/><g/><g/><g/><g/><g/><g/><g/><g/><g/><g/><g/><g/><g/><g/><g/><g/><g/><g/><g/><g/><g/><g/><g/><g/><g/><g/><g/><g/><g/><g/><g/><g/><g/><g/><g/><g/><g/><g/><g/><g/><g/><g/><g/><g/><g/><g/><g/><g/><g/><g/><g/><g/><g/><g/><g/><g/><g/><g/><g/><g/><g/><g/><g/><g/><g/><g/><g/><g/><g/><g/><g/><g/><g/><g/><g/><g/><g/><g/><g/><g/><g/><g/><g/><g/><g/><g/><g/><g/><g/><g/><g/><g/><g/><g/><g/><g/><g/><g/><g/><g/><g/><g/><path d=" M 237.962 920.464 L 234.042 925.674 C 233.308 926.434 233.24 927.488 233.872 928.314 L 235.352 931.714 Q 236.102 933.444 234.472 932.374 Q 232.562 931.104 230.382 932.664 Q 229.182 933.524 227.632 934.174 C 227.297 934.309 226.914 934.172 226.742 933.854 Q 223.962 928.674 218.552 927.844 Q 215.852 927.424 217.472 925.234 Q 218.292 924.124 219.542 923.254 Q 221.232 922.094 221.732 921.504 Q 223.992 918.884 224.962 914.984 Q 225.442 913.074 226.822 914.474 Q 231.792 919.514 237.792 920.064 Q 238.232 920.114 237.962 920.464 Z " fill="rgb(253,242,165)"/></g></svg>