<?xml version="1.0" encoding="UTF-8" standalone="no"?><!-- Generator: Gravit.io --><svg xmlns="http://www.w3.org/2000/svg" xmlns:xlink="http://www.w3.org/1999/xlink" style="isolation:isolate" viewBox="139.458 860.264 13.927 16.122" width="13.927pt" height="16.122pt"><defs><clipPath id="_clipPath_VUTVf2ChK33mBZqXryCNkaXAmLmsVWDP"><rect x="139.458" y="860.264" width="13.927" height="16.122"/></clipPath></defs><g clip-path="url(#_clipPath_VUTVf2ChK33mBZqXryCNkaXAmLmsVWDP)"><rect x="139.458" y="860.264" width="13.927" height="16.122" style="fill:rgb(0,0,0)" fill-opacity="0"/><g/><g/><g/><g/><g/><g/><g/><g/><g/><g/><g/><g/><g/><g/><g/><g/><g/><g/><g/><g/><g/><g/><g/><g/><g/><g/><g/><g/><g/><g/><g/><g/><g/><g/><g/><g/><g/><g/><g/><g/><g/><g/><g/><g/><g/><g/><g/><g/><g/><g/><g/><g/><g/><g/><g/><g/><g/><g/><g/><g/><g/><g/><g/><g/><g/><g/><g/><g/><g/><g/><g/><g/><g/><g/><g/><g/><g/><g/><g/><g/><g/><g/><g/><g/><g/><g/><g/><g/><g/><g/><g/><g/><g/><g/><g/><g/><g/><g/><g/><g/><g/><g/><g/><g/><g/><g/><g/><g/><g/><g/><g/><g/><g/><g/><g/><g/><g/><g/><g/><g/><g/><g/><g/><g/><g/><g/><g/><g/><g/><g/><g/><g/><g/><g/><g/><g/><g/><g/><g/><g/><g/><g/><g/><g/><g/><g/><g/><g/><g/><g/><g/><g/><g/><g/><g/><g/><g/><g/><g/><g/><g/><g/><g/><g/><g/><g/><g/><g/><g/><g/><g/><g/><g/><g/><g/><g/><g/><g/><g/><g/><g/><g/><g/><g/><g/><g/><g/><g/><g/><g/><path d=" M 147.538 864.618 L 152.948 865.788 C 153.235 865.845 153.424 866.105 153.378 866.378 Q 152.988 869.028 150.578 870.368 C 149.644 870.815 149.312 871.729 149.808 872.488 L 150.448 876.008 Q 150.558 876.578 149.978 876.288 Q 148.408 875.508 145.938 873.878 Q 143.238 872.108 139.968 873.368 C 139.851 873.405 139.721 873.391 139.62 873.329 C 139.518 873.267 139.458 873.166 139.458 873.058 L 139.838 866.008 C 139.809 865.706 140.013 865.417 140.368 865.258 Q 143.098 863.648 144.108 860.548 Q 144.278 860.028 144.548 860.458 L 146.828 864.058 C 146.937 864.304 147.195 864.507 147.538 864.618 Z " fill="rgb(253,242,165)"/></g></svg>