<?xml version="1.0" encoding="UTF-8" standalone="no"?><!-- Generator: Gravit.io --><svg xmlns="http://www.w3.org/2000/svg" xmlns:xlink="http://www.w3.org/1999/xlink" style="isolation:isolate" viewBox="152.688 879.817 12.14 11.886" width="12.14pt" height="11.886pt"><defs><clipPath id="_clipPath_EAw8KOKz9vL6Gw9TtAFEDqPHd6qlCLXR"><rect x="152.688" y="879.817" width="12.14" height="11.886"/></clipPath></defs><g clip-path="url(#_clipPath_EAw8KOKz9vL6Gw9TtAFEDqPHd6qlCLXR)"><rect x="152.688" y="879.817" width="12.14" height="11.886" style="fill:rgb(0,0,0)" fill-opacity="0"/><g/><g/><g/><g/><g/><g/><g/><g/><g/><g/><g/><g/><g/><g/><g/><g/><g/><g/><g/><g/><g/><g/><g/><g/><g/><g/><g/><g/><g/><g/><g/><g/><g/><g/><g/><g/><g/><g/><g/><g/><g/><g/><g/><g/><g/><g/><g/><g/><g/><g/><g/><g/><g/><g/><g/><g/><g/><g/><g/><g/><g/><g/><g/><g/><g/><g/><g/><g/><g/><g/><g/><g/><g/><g/><g/><g/><g/><g/><g/><g/><g/><g/><g/><g/><g/><g/><g/><g/><g/><g/><g/><g/><g/><g/><g/><g/><g/><g/><g/><g/><g/><g/><g/><g/><g/><g/><g/><g/><g/><g/><g/><g/><g/><g/><g/><g/><g/><g/><g/><g/><g/><g/><g/><g/><g/><g/><g/><g/><g/><g/><g/><g/><g/><g/><g/><g/><g/><g/><g/><g/><g/><g/><g/><g/><g/><g/><g/><g/><g/><g/><g/><g/><g/><g/><g/><g/><g/><g/><g/><g/><g/><g/><g/><g/><g/><g/><g/><g/><g/><g/><g/><g/><g/><g/><g/><g/><g/><g/><g/><g/><g/><g/><g/><g/><g/><g/><g/><g/><g/><g/><g><path d=" M 155.84 884.027 Q 156.61 882.527 156.4 880.807 Q 156.2 879.157 157.49 880.257 L 161 883.217 C 161.247 883.375 161.571 883.444 161.89 883.407 Q 162.89 883.207 163.85 883.437 C 164.171 883.519 164.437 883.74 164.57 884.037 Q 165.42 885.987 163.47 887.087 C 163.379 887.132 163.343 887.239 163.39 887.327 Q 165.89 893.727 160.43 890.767 Q 157.94 889.417 155.13 890.217 Q 152.72 890.897 153.05 888.767 Q 153.13 888.267 152.96 887.827 Q 151.88 884.917 155.09 884.507 C 155.415 884.462 155.695 884.283 155.84 884.027 Z " fill="rgb(253,242,165)"/></g></g></svg>