<?xml version="1.0" encoding="UTF-8" standalone="no"?><!-- Generator: Gravit.io --><svg xmlns="http://www.w3.org/2000/svg" xmlns:xlink="http://www.w3.org/1999/xlink" style="isolation:isolate" viewBox="857.385 412.305 246.535 236.271" width="246.535pt" height="236.271pt"><defs><clipPath id="_clipPath_wP4GHS0ZW5HBEtWWEGQ8pelcVhu8Xaa0"><rect x="857.385" y="412.305" width="246.535" height="236.271"/></clipPath></defs><g clip-path="url(#_clipPath_wP4GHS0ZW5HBEtWWEGQ8pelcVhu8Xaa0)"><path d=" M 1000.496 428.59 L 993.246 433.84 Q 992.056 433.4 990.956 433.8 L 984.186 433.54 C 983.413 433.514 982.675 433.857 982.206 434.46 Q 980.436 436.78 979.046 439.3 Q 975.296 446.12 967.806 448.36 Q 965.856 448.95 964.856 447.65 Q 966.056 446.23 967.316 444.78 Q 968.386 443.56 969.996 442.15 Q 973.666 438.96 977.276 434.81 Q 977.716 434.3 977.056 434.46 Q 968.966 436.53 961.836 438.94 Q 961.766 438.97 953.906 442.07 Q 948.956 444.02 943.706 445.05 L 946.996 439.76 Q 965.036 431.25 983.996 428.8 Q 991.626 427.82 1000.496 428.59 Z " fill="rgb(199,74,64)"/><path d=" M 1073.746 471.01 Q 1077.106 475.19 1078.746 480.26 Q 1067.466 482.97 1057.286 488.55 L 1051.536 473.8 Q 1057.266 473.79 1062.996 474.05 Q 1066.856 474.23 1073.746 471.01 Z " fill="rgb(222,92,63)"/><path d=" M 990.956 433.8 Q 983.956 445.16 976.996 451.8 Q 968.276 460.13 955.206 465.52 Q 953.296 466.32 951.576 466.7 Q 948.876 467.29 947.746 467.05 Q 943.046 466.05 942.496 461.8 Q 941.886 457.12 943.746 450.05 Q 944.176 448.43 942.746 448.51 Q 942.756 448.18 943.486 447.6 Q 946.366 454.22 953.806 452.36 Q 960.206 450.77 964.856 447.65 Q 965.856 448.95 967.806 448.36 Q 975.296 446.12 979.046 439.3 Q 980.436 436.78 982.206 434.46 C 982.675 433.857 983.413 433.514 984.186 433.54 L 990.956 433.8 Z " fill="rgb(252,138,33)"/><path d=" M 1078.746 480.26 L 1079.246 480.84 Q 1068.906 486.32 1057.996 490.59 Q 1057.306 489.83 1057.206 488.8 L 1057.286 488.55 Q 1067.466 482.97 1078.746 480.26 Z " fill="rgb(195,75,40)"/><path d=" M 1001.126 442.34 Q 1016.416 444.48 1031.116 450.27 Q 1028.016 449.27 1028.206 452.05 Q 1022.516 448.87 1016.076 449.46 Q 1015.246 449.53 1014.476 449.87 Q 1010.006 451.82 1016.996 451.32 Q 1020.176 451.1 1023.556 452.74 Q 1031.646 456.66 1037.186 462.61 Q 1041.596 467.35 1046.666 465.74 L 1051.536 473.8 L 1057.286 488.55 L 1057.206 488.8 Q 1049.016 491.62 1034.186 497.49 Q 1023.296 501.79 1015.436 509.25 Q 1008.036 514.64 1004.346 522.95 Q 1002.696 526.66 1002.666 526.73 Q 1000.626 530.99 998.616 535.27 Q 995.026 542.92 992.586 544.94 Q 987.286 549.35 979.306 545.49 Q 976.086 543.93 971.616 539.88 C 971.388 539.712 971.088 539.594 970.756 539.54 L 968.996 539.34 Q 967.796 537.78 966.556 536.25 Q 965.726 535.23 964.206 533.12 Q 954.446 519.58 936.986 520.64 Q 928.806 521.13 920.696 522.29 Q 912.466 523.47 905.406 527.66 Q 903.946 528.52 901.806 529.53 Q 899.956 530.4 898.266 531.55 Q 896.636 532.65 898.496 532.84 Q 897.606 533.89 895.266 534.28 Q 897.136 525.68 898.576 517.04 Q 899.216 513.16 900.486 508.68 Q 901.256 505.93 901.926 503.14 Q 902.616 500.26 903.756 497.77 Q 906.946 490.79 909.936 483.74 Q 914.256 473.54 923.606 462.92 Q 923.686 462.83 925.036 460.89 Q 926.546 458.72 929.496 459.26 Q 926.116 466.2 927.796 473.79 Q 929.766 482.67 936.446 486.94 Q 941.986 490.47 950.646 490.06 Q 965.406 489.37 975.266 478.42 Q 977.156 476.32 982.076 468.67 Q 984.686 464.63 988.686 458.74 Q 995.626 448.51 1001.126 442.34 Z " fill="rgb(255,183,25)"/><path d=" M 1060.206 503.55 Q 1060.706 504.35 1060.456 505.3 Q 1055.366 509.07 1053.976 515.29 Q 1053.076 519.29 1051.826 523.19 Q 1050.026 528.82 1049.976 531.09 Q 1049.756 539.81 1058.296 545.13 Q 1061.346 553.43 1059.176 562.62 Q 1059.016 563.28 1059.246 563.6 Q 1059.596 564.07 1060.456 563.8 Q 1059.176 568.08 1059.206 572.55 Q 1054.286 564.21 1045.536 561.53 Q 1041.166 560.19 1037.246 561.03 Q 1033.006 561.94 1029.516 564.84 Q 1028.096 566.03 1029.416 565.86 Q 1029.696 565.82 1030.046 565.67 Q 1046.286 558.81 1055.746 573.34 L 1057.536 577.55 Q 1057.516 580.57 1055.776 582.13 L 1044.996 589.09 Q 1042.956 584.34 1039.236 580.96 Q 1036.826 578.77 1034.166 578.12 Q 1031.606 577.49 1028.246 577.55 Q 1006.646 577.94 992.716 592.78 Q 983.916 602.14 981.436 605.74 Q 977.816 610.98 973.686 612.24 Q 963.766 615.25 961.556 616.61 Q 956.236 619.9 953.036 625.3 Q 950.006 627.33 947.436 625.67 Q 946.436 625.02 945.496 623.12 Q 944.786 621.68 943.886 620.26 Q 947.256 611.75 956.626 609.2 Q 957.776 608.88 956.696 608.37 Q 942.896 601.76 930.866 592.04 Q 939.426 587.52 947.996 588.55 Q 956.116 589.53 963.656 591.39 Q 966.016 591.97 964.186 590.37 Q 961.986 588.43 959.246 587.34 Q 961.176 586.11 963.936 586.63 Q 966.256 587.07 964.536 585.47 L 957.996 579.34 L 966.656 580.33 C 967.54 580.395 968.387 580.008 968.826 579.34 Q 970.406 576.47 966.726 577.2 Q 962.726 577.99 959.106 576.67 Q 956.766 575.81 954.816 575.53 Q 952.476 575.18 949.746 574.3 Q 946.786 573.34 943.106 573.11 Q 939.736 572.9 936.456 573.73 Q 927.346 576.02 918.726 582.87 C 918.463 583.078 918.316 583.4 918.332 583.735 C 918.348 584.071 918.524 584.378 918.806 584.56 Q 919.206 584.81 920.246 584.34 Q 920.836 586.83 919.526 588.89 C 919.279 589.158 919.182 589.484 919.256 589.8 Q 919.466 593.13 922.436 591.74 Q 924.896 590.58 926.746 590.84 Q 921.316 595.13 915.056 598.01 Q 908.256 601.49 901.386 604.89 Q 899.816 605.67 898.866 605.72 Q 897.446 605.79 896.196 605.07 Q 894.126 603.86 896.296 602.87 Q 904.546 599.09 909.706 591.72 C 909.917 591.469 909.93 591.122 909.736 590.86 L 905.496 584.51 L 908.456 581.21 C 908.564 581.107 908.614 580.967 908.593 580.827 C 908.572 580.688 908.481 580.564 908.346 580.49 Q 906.706 579.17 906.306 577.74 Q 903.666 568.27 899.206 559.87 Q 910.576 549.91 920.806 543.36 Q 923.646 541.55 927.726 542.19 Q 934.096 543.18 938.746 547.05 Q 942.436 550.11 947.006 554.79 Q 951.166 559.06 956.396 561.93 Q 966.366 567.43 976.306 572.99 Q 979.496 574.77 984.726 574.31 Q 993.996 573.51 1002.556 569.86 Q 1007.456 567.78 1011.316 564.12 Q 1014.626 560.99 1016.166 556.91 Q 1017.066 554.54 1017.406 548.54 Q 1017.806 541.44 1018.996 538.3 Q 1022.216 529.77 1028.056 523.36 Q 1032.176 518.85 1037.296 514.23 Q 1040.596 511.25 1044.476 509.45 Q 1052.096 505.91 1060.206 503.55 Z " fill="rgb(255,183,25)"/><path d=" M 1037.426 439.36 Q 1036.166 446 1031.116 450.27 Q 1016.416 444.48 1001.126 442.34 Q 1002.866 437.49 1007.496 434.59 Q 1012.586 430.57 1017.996 431.05 Q 1028.246 431.96 1037.426 439.36 Z " fill="rgb(220,96,75)"/><path d=" M 1090.526 511.86 Q 1093.876 532.46 1089.286 552.69 L 1087.716 557.46 Q 1084.546 567.14 1079.246 575.84 Q 1075.846 574.86 1073.126 572.62 C 1072.874 572.418 1072.743 572.111 1072.776 571.8 Q 1073.046 567.02 1073.556 565.11 Q 1075.736 556.92 1073.746 548.88 Q 1072.826 545.16 1072.596 543.63 Q 1072.196 540.96 1071.816 538.29 Q 1070.756 530.97 1074.476 524.62 Q 1075.926 522.16 1077.466 519.76 Q 1079.516 516.59 1079.456 512.8 Q 1085.056 510.68 1090.526 511.86 Z " fill="rgb(220,96,75)"/><path d=" M 1002.816 547.88 Q 1004.556 548.22 1003.996 550.3 Q 1003.096 553.67 999.976 556.28 Q 993.396 561.78 984.746 561.73 Q 978.446 561.7 973.746 557.55 Q 967.846 552.34 958.936 540.36 Q 953.976 533.71 946.036 531.08 Q 940.116 529.12 930.786 529.44 Q 913.726 530.02 898.326 538.03 Q 894.976 539.77 892.996 540.05 Q 890.306 540.43 890.746 537.59 L 895.266 534.28 Q 897.606 533.89 898.496 532.84 Q 918.566 522.48 941.236 523.92 Q 955.616 524.83 963.186 537.61 Q 967.006 544.08 972.896 549.47 Q 979.736 555.72 985.956 556.77 Q 996.016 558.47 1002.816 547.88 Z " fill="rgb(254,248,54)"/><path d=" M 1037.426 439.36 Q 1028.246 431.96 1017.996 431.05 Q 1012.586 430.57 1007.496 434.59 Q 1006.476 434.54 1006.496 433.59 Q 1007.096 433.19 1007.496 432.59 Q 1020.876 423.95 1033.936 431.36 Q 1038.496 433.95 1037.426 439.36 Z " fill="rgb(160,55,43)"/><path d=" M 993.246 433.84 Q 990.286 436.81 987.906 440.23 Q 984.036 445.79 983.086 446.97 Q 980.406 450.27 977.706 453.55 Q 967.026 464.49 952.476 469.24 Q 940.386 473.19 939.806 460.74 Q 939.616 456.5 941.246 450.59 L 942.746 448.51 Q 944.176 448.43 943.746 450.05 Q 941.886 457.12 942.496 461.8 Q 943.046 466.05 947.746 467.05 Q 948.876 467.29 951.576 466.7 Q 953.296 466.32 955.206 465.52 Q 968.276 460.13 976.996 451.8 Q 983.956 445.16 990.956 433.8 Q 992.056 433.4 993.246 433.84 Z " fill="rgb(210,82,35)"/><path d=" M 1060.456 513.55 L 1063.536 515.55 L 1062.536 517.3 Q 1058.376 523.57 1058.246 529.05 Q 1058.136 533.9 1060.686 542.11 Q 1062.226 547.08 1061.986 556.3 Q 1061.886 560.19 1060.456 563.8 Q 1059.596 564.07 1059.246 563.6 Q 1059.016 563.28 1059.176 562.62 Q 1061.346 553.43 1058.296 545.13 Q 1051.226 535.84 1055.686 525.99 Q 1059.196 518.23 1060.456 513.55 Z " fill="rgb(210,82,35)"/><path d=" M 1070.706 546.55 Q 1073.506 554.28 1071.836 562.37 Q 1071.046 566.21 1070.246 570.06 Q 1069.746 572.45 1071.646 573.98 Q 1073.546 575.52 1076.496 576.34 Q 1075.996 580.63 1074.206 584.55 L 1073.496 584.59 Q 1065.736 581.07 1060.496 574.34 Q 1065.746 564.23 1065.706 552.8 Q 1065.286 550.54 1066.626 549.12 Q 1067.596 548.09 1068.306 547.43 Q 1069.296 546.52 1070.706 546.55 Z " fill="rgb(238,136,43)"/><path d=" M 938.246 446.34 Q 938.926 446.15 939.536 446.34 C 939.906 446.481 940.13 446.748 940.116 447.03 L 941.246 450.59 Q 939.616 456.5 939.806 460.74 Q 940.386 473.19 952.476 469.24 Q 967.026 464.49 977.706 453.55 Q 980.216 455.21 977.936 457.74 Q 970.706 465.76 960.056 471.11 Q 953.316 474.5 946.746 474.76 Q 938.266 475.09 936.326 466.99 Q 933.776 456.33 938.246 446.34 Z " fill="rgb(253,242,46)"/><path d=" M 957.996 579.34 L 964.536 585.47 Q 966.256 587.07 963.936 586.63 Q 961.176 586.11 959.246 587.34 Q 942.056 581.6 926.746 590.84 Q 924.896 590.58 922.436 591.74 Q 919.466 593.13 919.256 589.8 C 919.182 589.484 919.279 589.158 919.526 588.89 Q 920.836 586.83 920.246 584.34 Q 929.366 578.81 936.496 577.55 Q 946.026 575.87 957.996 579.34 Z " fill="rgb(253,242,46)"/><path d=" M 1035.746 582.34 Q 1035.346 583.82 1034.086 583.74 Q 1032.816 583.66 1032.776 583.66 Q 1024.746 584.26 1018.806 586.36 Q 1013.446 588.26 1006.576 592.18 Q 1004.756 593.22 1003.596 593.21 Q 1001.176 593.2 1001.206 590.3 Q 1008.216 584.19 1017.326 582.18 Q 1023.746 580.77 1029.246 580.55 Q 1032.636 580.42 1035.746 582.34 Z " fill="rgb(253,242,46)"/><path d=" M 1006.086 426.48 Q 1008.026 429.46 1007.496 432.59 Q 1007.096 433.19 1006.496 433.59 Q 1000.776 437.77 996.706 443.47 Q 993.616 447.79 993.526 447.91 Q 985.456 458.57 978.356 469.89 Q 974.426 476.16 967.056 481.36 Q 959.876 486.44 951.926 487.21 Q 943.816 488 938.106 484.36 Q 931.516 480.17 930.246 471.05 Q 929.826 468.01 930.786 460.55 Q 930.886 465.09 932.596 461.9 Q 932.946 461.26 933.476 460.72 Q 934.686 459.46 934.746 458.55 Q 935.176 452.05 938.246 446.34 Q 933.776 456.33 936.326 466.99 Q 938.266 475.09 946.746 474.76 Q 953.316 474.5 960.056 471.11 Q 970.706 465.76 977.936 457.74 Q 980.216 455.21 977.706 453.55 Q 980.406 450.27 983.086 446.97 Q 984.036 445.79 987.906 440.23 Q 990.286 436.81 993.246 433.84 L 1000.496 428.59 L 1006.086 426.48 Z " fill="rgb(255,218,35)"/><path d=" M 1052.206 493.3 Q 1052.826 494.52 1054.036 494.22 C 1054.322 494.165 1054.619 494.25 1054.806 494.44 Q 1056.956 497.22 1058.036 500.55 Q 1051.816 503.3 1045.566 505.96 Q 1040.496 508.12 1037.106 510.75 Q 1030.486 515.9 1025.016 522.33 Q 1018.786 529.68 1015.956 538.78 Q 1015.266 541.01 1014.986 543.9 Q 1014.736 546.51 1014.536 549.12 Q 1014.146 554 1012.786 556.69 Q 1009.826 562.52 1003.756 565.77 Q 1000.356 567.58 991.556 570.11 Q 982.876 572.61 976.156 568.81 Q 965.786 562.94 955.306 557.24 Q 952.836 555.89 944.346 547.9 Q 940.766 544.52 938.706 543.2 Q 935.576 541.21 932.016 539.99 Q 925.106 537.64 918.926 541.31 Q 909.436 546.93 901.116 554.06 Q 899.966 555.05 899.216 556.36 Q 897.486 559.38 899.206 559.87 Q 903.666 568.27 906.306 577.74 Q 906.706 579.17 908.346 580.49 C 908.481 580.564 908.572 580.688 908.593 580.827 C 908.614 580.967 908.564 581.107 908.456 581.21 L 905.496 584.51 Q 900.256 585.12 896.616 588.92 Q 895.616 589.97 894.296 590.62 C 894.066 590.731 893.795 590.724 893.571 590.6 C 893.348 590.476 893.2 590.252 893.176 590 Q 892.366 581.68 900.316 579.76 C 900.532 579.709 900.71 579.56 900.797 579.359 C 900.884 579.158 900.868 578.928 900.756 578.74 Q 896.486 571.31 893.926 562.8 C 893.889 562.685 893.801 562.594 893.688 562.552 C 893.574 562.511 893.448 562.525 893.346 562.59 Q 889.036 565.35 884.796 568.12 Q 882.646 569.52 880.206 569.88 Q 877.526 570.28 875.566 569.15 Q 872.456 567.35 874.306 563.11 Q 875.556 560.25 878.956 559.24 C 879.073 559.205 879.2 559.228 879.298 559.3 C 879.396 559.373 879.455 559.488 879.456 559.61 Q 879.446 561.13 878.416 562.56 Q 877.166 564.29 879.156 563.52 Q 883.916 561.67 887.436 558.48 Q 890.436 555.75 890.756 555.34 Q 892.256 553.39 891.686 550.51 Q 891.146 547.8 893.446 544.77 Q 893.886 544.2 893.166 544.37 L 884.246 546.51 Q 883.186 545.65 884.656 545.26 Q 885.156 545.12 884.736 544.82 Q 881.596 542.6 884.056 540.11 Q 885.026 539.14 890.746 537.59 Q 890.306 540.43 892.996 540.05 Q 894.976 539.77 898.326 538.03 Q 913.726 530.02 930.786 529.44 Q 940.116 529.12 946.036 531.08 Q 953.976 533.71 958.936 540.36 Q 967.846 552.34 973.746 557.55 Q 978.446 561.7 984.746 561.73 Q 993.396 561.78 999.976 556.28 Q 1003.096 553.67 1003.996 550.3 Q 1004.556 548.22 1002.816 547.88 Q 1006.236 530.59 1013.056 518.11 Q 1018.346 508.45 1029.686 502.74 Q 1038.476 498.31 1052.206 493.3 Z " fill="rgb(255,218,35)"/><path d=" M 1035.746 582.34 Q 1040.706 585.86 1043.456 591.3 Q 1044.776 595.84 1044.266 600.55 Q 1043.746 605.34 1042.706 610.05 L 1039.996 610.8 Q 1037.706 611.43 1038.246 609.05 Q 1038.596 607.48 1037.786 607.8 Q 1038.176 597.54 1030.796 593.1 Q 1026.306 590.4 1020.776 591.1 Q 1015.866 591.73 1010.686 594.49 Q 1005.146 597.44 1001.056 601.36 Q 994.346 607.8 986.506 616.33 Q 986.426 616.41 984.726 618.49 Q 982.806 620.83 979.996 622.09 L 978.496 622.59 L 967.926 621.94 C 967.767 621.931 967.62 621.862 967.518 621.751 C 967.415 621.639 967.368 621.494 967.386 621.35 L 967.746 617.84 Q 976.496 616.85 982.436 610.49 Q 985.106 607.63 987.486 604.53 Q 993.556 596.65 1001.206 590.3 Q 1001.176 593.2 1003.596 593.21 Q 1004.756 593.22 1006.576 592.18 Q 1013.446 588.26 1018.806 586.36 Q 1024.746 584.26 1032.776 583.66 Q 1032.816 583.66 1034.086 583.74 Q 1035.346 583.82 1035.746 582.34 Z " fill="rgb(255,218,35)"/><path d=" M 1006.496 433.59 Q 1006.476 434.54 1007.496 434.59 Q 1002.866 437.49 1001.126 442.34 Q 995.626 448.51 988.686 458.74 Q 984.686 464.63 982.076 468.67 Q 977.156 476.32 975.266 478.42 Q 965.406 489.37 950.646 490.06 Q 941.986 490.47 936.446 486.94 Q 929.766 482.67 927.796 473.79 Q 926.116 466.2 929.496 459.26 Q 930.816 459 930.786 460.55 Q 929.826 468.01 930.246 471.05 Q 931.516 480.17 938.106 484.36 Q 943.816 488 951.926 487.21 Q 959.876 486.44 967.056 481.36 Q 974.426 476.16 978.356 469.89 Q 985.456 458.57 993.526 447.91 Q 993.616 447.79 996.706 443.47 Q 1000.776 437.77 1006.496 433.59 Z " fill="rgb(227,98,24)"/><path d=" M 1057.206 488.8 Q 1057.306 489.83 1057.996 490.59 L 1052.206 493.3 Q 1038.476 498.31 1029.686 502.74 Q 1018.346 508.45 1013.056 518.11 Q 1006.236 530.59 1002.816 547.88 Q 996.016 558.47 985.956 556.77 Q 979.736 555.72 972.896 549.47 Q 967.006 544.08 963.186 537.61 Q 955.616 524.83 941.236 523.92 Q 918.566 522.48 898.496 532.84 Q 896.636 532.65 898.266 531.55 Q 899.956 530.4 901.806 529.53 Q 903.946 528.52 905.406 527.66 Q 912.466 523.47 920.696 522.29 Q 928.806 521.13 936.986 520.64 Q 954.446 519.58 964.206 533.12 Q 965.726 535.23 966.556 536.25 Q 967.796 537.78 968.996 539.34 Q 971.906 543.15 974.936 546.86 Q 978.006 550.62 982.206 552.58 Q 986.626 554.65 990.996 553.61 Q 995.946 552.43 998.646 548.14 Q 999.866 546.2 1001.426 539.65 Q 1005.366 523.1 1015.436 509.25 Q 1023.296 501.79 1034.186 497.49 Q 1049.016 491.62 1057.206 488.8 Z " fill="rgb(227,98,24)"/><path d=" M 1059.456 499.8 L 1060.206 503.55 Q 1052.096 505.91 1044.476 509.45 Q 1040.596 511.25 1037.296 514.23 Q 1032.176 518.85 1028.056 523.36 Q 1022.216 529.77 1018.996 538.3 Q 1017.806 541.44 1017.406 548.54 Q 1017.066 554.54 1016.166 556.91 Q 1014.626 560.99 1011.316 564.12 Q 1007.456 567.78 1002.556 569.86 Q 993.996 573.51 984.726 574.31 Q 979.496 574.77 976.306 572.99 Q 966.366 567.43 956.396 561.93 Q 951.166 559.06 947.006 554.79 Q 942.436 550.11 938.746 547.05 Q 934.096 543.18 927.726 542.19 Q 923.646 541.55 920.806 543.36 Q 910.576 549.91 899.206 559.87 Q 897.486 559.38 899.216 556.36 Q 899.966 555.05 901.116 554.06 Q 909.436 546.93 918.926 541.31 Q 925.106 537.64 932.016 539.99 Q 935.576 541.21 938.706 543.2 Q 940.766 544.52 944.346 547.9 Q 952.836 555.89 955.306 557.24 Q 965.786 562.94 976.156 568.81 Q 982.876 572.61 991.556 570.11 Q 1000.356 567.58 1003.756 565.77 Q 1009.826 562.52 1012.786 556.69 Q 1014.146 554 1014.536 549.12 Q 1014.736 546.51 1014.986 543.9 Q 1015.266 541.01 1015.956 538.78 Q 1018.786 529.68 1025.016 522.33 Q 1030.486 515.9 1037.106 510.75 Q 1040.496 508.12 1045.566 505.96 Q 1051.816 503.3 1058.036 500.55 L 1059.456 499.8 Z " fill="rgb(227,98,24)"/><path d=" M 957.996 579.34 Q 946.026 575.87 936.496 577.55 Q 929.366 578.81 920.246 584.34 Q 919.206 584.81 918.806 584.56 C 918.524 584.378 918.348 584.071 918.332 583.735 C 918.316 583.4 918.463 583.078 918.726 582.87 Q 927.346 576.02 936.456 573.73 Q 939.736 572.9 943.106 573.11 Q 946.786 573.34 949.746 574.3 Q 952.476 575.18 954.816 575.53 Q 956.766 575.81 959.106 576.67 Q 962.726 577.99 966.726 577.2 Q 970.406 576.47 968.826 579.34 C 968.387 580.008 967.54 580.395 966.656 580.33 L 957.996 579.34 Z " fill="rgb(227,98,24)"/><path d=" M 1044.996 589.09 L 1043.456 591.3 Q 1040.706 585.86 1035.746 582.34 Q 1032.636 580.42 1029.246 580.55 Q 1023.746 580.77 1017.326 582.18 Q 1008.216 584.19 1001.206 590.3 Q 993.556 596.65 987.486 604.53 Q 985.106 607.63 982.436 610.49 Q 976.496 616.85 967.746 617.84 Q 965.146 618.17 962.556 618.59 Q 960.646 618.9 960.586 620.79 Q 956.536 622.03 954.246 625.51 L 953.036 625.3 Q 956.236 619.9 961.556 616.61 Q 963.766 615.25 973.686 612.24 Q 977.816 610.98 981.436 605.74 Q 983.916 602.14 992.716 592.78 Q 1006.646 577.94 1028.246 577.55 Q 1031.606 577.49 1034.166 578.12 Q 1036.826 578.77 1039.236 580.96 Q 1042.956 584.34 1044.996 589.09 Z " fill="rgb(227,98,24)"/><path d=" M 959.246 587.34 Q 961.986 588.43 964.186 590.37 Q 966.016 591.97 963.656 591.39 Q 956.116 589.53 947.996 588.55 Q 939.426 587.52 930.866 592.04 L 916.536 599.72 L 915.056 598.01 Q 921.316 595.13 926.746 590.84 Q 942.056 581.6 959.246 587.34 Z " fill="rgb(227,98,24)"/><path d=" M 1037.786 607.8 Q 1038.286 608.79 1037.676 609.89 Q 1035.206 607.21 1033.566 603.95 Q 1033.846 593.37 1022.746 593.44 Q 1019.546 593.46 1016.576 594.66 Q 1008.996 597.72 1003.096 603.39 Q 993.206 612.88 984.246 623.26 L 982.246 624.01 Q 981.626 622.49 979.996 622.09 Q 982.806 620.83 984.726 618.49 Q 986.426 616.41 986.506 616.33 Q 994.346 607.8 1001.056 601.36 Q 1005.146 597.44 1010.686 594.49 Q 1015.866 591.73 1020.776 591.1 Q 1026.306 590.4 1030.796 593.1 Q 1038.176 597.54 1037.786 607.8 Z " fill="rgb(227,98,24)"/><path d=" M 1033.566 603.95 Q 1029.566 610.07 1025.806 612.36 Q 1020.636 615.52 1014.456 618.11 Q 1012.576 618.91 1013.996 617.44 Q 1015.556 615.83 1015.496 614.36 C 1015.486 614.069 1015.242 613.834 1014.936 613.82 Q 1009.886 613.55 1009.576 618.36 C 1009.58 618.668 1009.404 618.955 1009.116 619.11 Q 1004.976 621.37 1000.246 622.01 L 984.246 623.26 Q 993.206 612.88 1003.096 603.39 Q 1008.996 597.72 1016.576 594.66 Q 1019.546 593.46 1022.746 593.44 Q 1033.846 593.37 1033.566 603.95 Z " fill="rgb(255,180,27)"/><path d=" M 1059.246 572.76 Q 1059.716 573.69 1060.496 574.34 Q 1065.736 581.07 1073.496 584.59 Q 1069.286 592.73 1062.246 599.29 Q 1064.506 587.19 1057.536 577.55 L 1055.746 573.34 Q 1057.216 571.44 1059.246 572.76 Z " fill="rgb(202,62,68)"/><path d=" M 1033.566 603.95 Q 1035.206 607.21 1037.676 609.89 Q 1038.036 615.22 1035.936 619.92 Q 1010.546 632.25 982.246 630.84 L 987.816 630.66 C 988.125 630.618 988.361 630.394 988.386 630.12 Q 988.606 628.96 989.266 628.01 C 989.425 627.767 989.692 627.568 990.026 627.44 L 997.536 624.49 Q 997.966 624.32 998.486 624.39 Q 1000.056 624.61 999.726 623.34 C 999.634 623.083 999.747 622.804 1000.006 622.65 Q 1000.336 622.4 1000.246 622.01 Q 1004.976 621.37 1009.116 619.11 C 1009.404 618.955 1009.58 618.668 1009.576 618.36 Q 1009.886 613.55 1014.936 613.82 C 1015.242 613.834 1015.486 614.069 1015.496 614.36 Q 1015.556 615.83 1013.996 617.44 Q 1012.576 618.91 1014.456 618.11 Q 1020.636 615.52 1025.806 612.36 Q 1029.566 610.07 1033.566 603.95 Z " fill="rgb(202,62,68)"/><path d=" M 1044.816 441.93 Q 1041.996 449.67 1038.466 455.67 C 1038.342 455.882 1038.328 456.142 1038.429 456.366 C 1038.531 456.591 1038.735 456.752 1038.976 456.8 Q 1042.866 457.52 1046.556 456.22 Q 1052.156 454.25 1056.536 450.3 Q 1061.386 448.55 1066.136 446.57 Q 1069.516 445.16 1070.806 443.74 Q 1072.786 441.56 1072.976 438.38 C 1072.993 438.083 1073.149 437.812 1073.398 437.648 C 1073.646 437.484 1073.957 437.448 1074.236 437.55 Q 1075.906 438.14 1076.906 439.47 Q 1077.986 440.92 1078.566 442.18 Q 1079.506 444.23 1077.806 446.36 Q 1075.586 449.15 1072.646 450.4 Q 1067.026 452.8 1061.456 455.3 Q 1053.746 458.83 1046.706 463.55 L 1044.226 464.45 C 1043.903 464.481 1043.573 464.419 1043.316 464.28 Q 1041.356 463.02 1039.866 461.19 Q 1035.066 455.31 1028.206 452.05 Q 1028.016 449.27 1031.116 450.27 Q 1036.166 446 1037.426 439.36 Q 1038.496 433.95 1033.936 431.36 Q 1020.876 423.95 1007.496 432.59 Q 1008.026 429.46 1006.086 426.48 Q 1014.336 423.56 1022.846 422.8 Q 1029.696 422.19 1032.136 422.58 Q 1037.036 423.35 1040.586 427.44 Q 1044.456 431.89 1045.496 436.8 Q 1046.096 439.63 1044.816 441.93 Z " fill="rgb(254,198,38)"/><path d=" M 1042.706 610.05 L 1041.866 616 Q 1041.146 618.62 1040.776 621.51 Q 1040.276 625.36 1039.616 626.95 Q 1037.766 631.45 1033.556 635.36 Q 1028.936 639.66 1025.316 641.38 Q 1012.796 647.31 1008.686 648.24 Q 1005.066 649.05 1001.546 647.91 Q 999.986 647.4 999.776 645.98 C 999.741 645.747 999.81 645.51 999.963 645.331 C 1000.117 645.153 1000.341 645.05 1000.576 645.05 Q 1006.206 645.04 1010.896 642.79 Q 1022.176 637.38 1029.686 630.74 Q 1033.956 626.96 1035.936 619.92 Q 1038.036 615.22 1037.676 609.89 Q 1038.286 608.79 1037.786 607.8 Q 1038.596 607.48 1038.246 609.05 Q 1037.706 611.43 1039.996 610.8 L 1042.706 610.05 Z " fill="rgb(254,198,38)"/><path d=" M 1061.456 455.3 Q 1068.626 462.34 1073.746 471.01 Q 1066.856 474.23 1062.996 474.05 Q 1057.266 473.79 1051.536 473.8 L 1046.666 465.74 L 1046.706 463.55 Q 1053.746 458.83 1061.456 455.3 Z " fill="rgb(187,58,64)"/><path d=" M 1082.496 488.59 Q 1086.436 496.43 1088.246 505.01 L 1083.746 506.09 Q 1080.746 505.51 1078.036 506.38 Q 1076.896 506.74 1072.896 508.57 Q 1069.246 510.24 1066.246 513.01 L 1063.536 515.55 L 1060.456 513.55 Q 1061.136 509.42 1060.456 505.3 Q 1060.706 504.35 1060.206 503.55 L 1059.456 499.8 Q 1070.596 493.4 1082.496 488.59 Z " fill="rgb(187,58,64)"/><path d=" M 1079.456 512.8 Q 1079.516 516.59 1077.466 519.76 Q 1075.926 522.16 1074.476 524.62 Q 1070.756 530.97 1071.816 538.29 Q 1072.196 540.96 1072.596 543.63 Q 1072.826 545.16 1073.746 548.88 Q 1075.736 556.92 1073.556 565.11 Q 1073.046 567.02 1072.776 571.8 C 1072.743 572.111 1072.874 572.418 1073.126 572.62 Q 1075.846 574.86 1079.246 575.84 L 1079.246 576.51 Q 1077.866 576.73 1076.496 576.34 Q 1073.546 575.52 1071.646 573.98 Q 1069.746 572.45 1070.246 570.06 Q 1071.046 566.21 1071.836 562.37 Q 1073.506 554.28 1070.706 546.55 Q 1065.146 530.21 1075.136 516.45 Q 1076.606 514.42 1078.746 513.09 Q 1079.046 512.8 1079.456 512.8 Z " fill="rgb(187,58,64)"/><path d=" M 1055.776 582.13 Q 1060.546 592.92 1057.286 604.3 Q 1050.626 611.47 1041.866 616 L 1042.706 610.05 Q 1043.746 605.34 1044.266 600.55 Q 1044.776 595.84 1043.456 591.3 L 1044.996 589.09 L 1055.776 582.13 Z " fill="rgb(187,58,64)"/><path d=" M 979.996 622.09 Q 981.626 622.49 982.246 624.01 Q 977.166 626.48 972.616 629.87 L 967.746 629.76 Q 973.456 626.67 978.496 622.59 L 979.996 622.09 Z " fill="rgb(187,58,64)"/><path d=" M 1000.246 622.01 Q 1000.336 622.4 1000.006 622.65 C 999.747 622.804 999.634 623.083 999.726 623.34 Q 1000.056 624.61 998.486 624.39 Q 997.966 624.32 997.536 624.49 L 990.026 627.44 C 989.692 627.568 989.425 627.767 989.266 628.01 Q 988.606 628.96 988.386 630.12 C 988.361 630.394 988.125 630.618 987.816 630.66 L 982.246 630.84 Q 977.556 630.92 972.616 629.87 Q 977.166 626.48 982.246 624.01 L 984.246 623.26 L 1000.246 622.01 Z " fill="rgb(223,72,59)"/><path d=" M 964.856 447.65 Q 960.206 450.77 953.806 452.36 Q 946.366 454.22 943.486 447.6 Q 942.636 446.46 943.706 445.05 Q 948.956 444.02 953.906 442.07 Q 961.766 438.97 961.836 438.94 Q 968.966 436.53 977.056 434.46 Q 977.716 434.3 977.276 434.81 Q 973.666 438.96 969.996 442.15 Q 968.386 443.56 967.316 444.78 Q 966.056 446.23 964.856 447.65 Z " fill="rgb(254,173,32)"/><path d=" M 1015.436 509.25 Q 1005.366 523.1 1001.426 539.65 Q 999.866 546.2 998.646 548.14 Q 995.946 552.43 990.996 553.61 Q 986.626 554.65 982.206 552.58 Q 978.006 550.62 974.936 546.86 Q 971.906 543.15 968.996 539.34 L 970.756 539.54 C 971.088 539.594 971.388 539.712 971.616 539.88 Q 976.086 543.93 979.306 545.49 Q 987.286 549.35 992.586 544.94 Q 995.026 542.92 998.616 535.27 Q 1000.626 530.99 1002.666 526.73 Q 1002.696 526.66 1004.346 522.95 Q 1008.036 514.64 1015.436 509.25 Z " fill="rgb(253,150,31)"/><path d=" M 930.866 592.04 Q 942.896 601.76 956.696 608.37 Q 957.776 608.88 956.626 609.2 Q 947.256 611.75 943.886 620.26 Q 928.356 612.28 916.536 599.72 L 930.866 592.04 Z " fill="rgb(253,150,31)"/><path d=" M 1028.206 452.05 Q 1035.066 455.31 1039.866 461.19 Q 1041.356 463.02 1043.316 464.28 C 1043.573 464.419 1043.903 464.481 1044.226 464.45 L 1046.706 463.55 L 1046.666 465.74 Q 1041.596 467.35 1037.186 462.61 Q 1031.646 456.66 1023.556 452.74 Q 1020.176 451.1 1016.996 451.32 Q 1010.006 451.82 1014.476 449.87 Q 1015.246 449.53 1016.076 449.46 Q 1022.516 448.87 1028.206 452.05 Z " fill="rgb(227,96,34)"/><path d=" M 1059.206 572.55 L 1059.246 572.76 Q 1057.216 571.44 1055.746 573.34 Q 1046.286 558.81 1030.046 565.67 Q 1029.696 565.82 1029.416 565.86 Q 1028.096 566.03 1029.516 564.84 Q 1033.006 561.94 1037.246 561.03 Q 1041.166 560.19 1045.536 561.53 Q 1054.286 564.21 1059.206 572.55 Z " fill="rgb(227,96,34)"/><path d=" M 1082.496 488.59 Q 1070.596 493.4 1059.456 499.8 L 1058.036 500.55 Q 1056.956 497.22 1054.806 494.44 C 1054.619 494.25 1054.322 494.165 1054.036 494.22 Q 1052.826 494.52 1052.206 493.3 L 1057.996 490.59 Q 1068.906 486.32 1079.246 480.84 Q 1084.616 478.26 1090.226 476.23 Q 1095.796 474.21 1098.806 469.11 Q 1100.716 465.86 1097.376 464.22 Q 1092.716 461.93 1088.416 465 Q 1086.536 466.34 1087.306 464.16 Q 1087.916 462.44 1090.326 461.05 Q 1098.376 456.39 1102.936 463.86 Q 1104.596 466.59 1103.456 471.69 Q 1101.586 480.09 1093.936 483.99 Q 1092.086 484.92 1082.496 488.59 Z " fill="rgb(255,202,38)"/><path d=" M 1088.246 505.01 Q 1089.936 505.92 1091.336 507.21 Q 1094.336 509.96 1090.526 511.86 Q 1085.056 510.68 1079.456 512.8 Q 1079.046 512.8 1078.746 513.09 Q 1078.046 511.72 1079.226 509.58 L 1083.746 506.09 L 1088.246 505.01 Z " fill="rgb(253,190,53)"/><path d=" M 1062.536 517.3 Q 1063.536 517.34 1063.506 518.55 Q 1063.416 522.96 1063.436 527.37 Q 1063.466 531.42 1063.996 536.18 Q 1064.936 544.48 1065.706 552.8 Q 1065.746 564.23 1060.496 574.34 Q 1059.716 573.69 1059.246 572.76 L 1059.206 572.55 Q 1059.176 568.08 1060.456 563.8 Q 1061.886 560.19 1061.986 556.3 Q 1062.226 547.08 1060.686 542.11 Q 1058.136 533.9 1058.246 529.05 Q 1058.376 523.57 1062.536 517.3 Z " fill="rgb(253,219,55)"/><path d=" M 1060.456 505.3 Q 1061.136 509.42 1060.456 513.55 Q 1059.196 518.23 1055.686 525.99 Q 1051.226 535.84 1058.296 545.13 Q 1049.756 539.81 1049.976 531.09 Q 1050.026 528.82 1051.826 523.19 Q 1053.076 519.29 1053.976 515.29 Q 1055.366 509.07 1060.456 505.3 Z " fill="rgb(244,119,36)"/><path d=" M 1079.226 509.58 Q 1078.046 511.72 1078.746 513.09 Q 1076.606 514.42 1075.136 516.45 Q 1065.146 530.21 1070.706 546.55 Q 1069.296 546.52 1068.306 547.43 Q 1067.596 548.09 1066.626 549.12 Q 1065.286 550.54 1065.706 552.8 Q 1064.936 544.48 1063.996 536.18 Q 1063.466 531.42 1063.436 527.37 Q 1063.416 522.96 1063.506 518.55 Q 1063.536 517.34 1062.536 517.3 L 1063.536 515.55 L 1066.246 513.01 L 1079.226 509.58 Z " fill="rgb(248,152,46)"/><path d=" M 1083.746 506.09 L 1079.226 509.58 L 1066.246 513.01 Q 1069.246 510.24 1072.896 508.57 Q 1076.896 506.74 1078.036 506.38 Q 1080.746 505.51 1083.746 506.09 Z " fill="rgb(231,117,61)"/><path d=" M 1057.536 577.55 Q 1064.506 587.19 1062.246 599.29 L 1057.286 604.3 Q 1060.546 592.92 1055.776 582.13 Q 1057.516 580.57 1057.536 577.55 Z " fill="rgb(231,117,61)"/><path d=" M 1056.536 450.3 Q 1052.156 454.25 1046.556 456.22 Q 1042.866 457.52 1038.976 456.8 C 1038.735 456.752 1038.531 456.591 1038.429 456.366 C 1038.328 456.142 1038.342 455.882 1038.466 455.67 Q 1041.996 449.67 1044.816 441.93 Q 1051.546 445.02 1056.536 450.3 Z " fill="rgb(197,70,54)"/><path d=" M 960.586 620.79 Q 959.946 622.88 961.266 623.35 Q 961.436 623.41 963.366 623.64 Q 967.226 624.09 971.266 623.24 Q 972.676 622.95 971.626 623.92 L 966.256 628.87 Q 959.726 628.79 954.246 625.51 Q 956.536 622.03 960.586 620.79 Z " fill="rgb(197,70,54)"/><path d=" M 1074.206 584.55 Q 1075.996 580.63 1076.496 576.34 Q 1077.866 576.73 1079.246 576.51 Q 1082.886 578.9 1086.566 578.82 Q 1088.446 578.77 1089.236 577.06 Q 1090.676 573.96 1092.436 576.03 Q 1093.326 577.07 1093.486 578.39 Q 1093.806 580.96 1091.556 582.86 Q 1087.866 586 1083.236 585.79 Q 1078.666 585.58 1074.206 584.55 Z " fill="rgb(251,164,54)"/><path d=" M 967.746 617.84 L 967.386 621.35 C 967.368 621.494 967.415 621.639 967.518 621.751 C 967.62 621.862 967.767 621.931 967.926 621.94 L 978.496 622.59 Q 973.456 626.67 967.746 629.76 Q 966.436 630.33 966.256 628.87 L 971.626 623.92 Q 972.676 622.95 971.266 623.24 Q 967.226 624.09 963.366 623.64 Q 961.436 623.41 961.266 623.35 Q 959.946 622.88 960.586 620.79 Q 960.646 618.9 962.556 618.59 Q 965.146 618.17 967.746 617.84 Z " fill="rgb(251,164,54)"/><path d=" M 1001.163 473.859 C 1001.09 472.774 1002.311 471.809 1003.886 471.704 C 1005.461 471.599 1006.798 472.395 1006.87 473.48 C 1006.942 474.565 1005.722 475.531 1004.147 475.635 C 1002.572 475.74 1001.235 474.944 1001.163 473.859 Z " fill="rgb(252,138,33)"/><path d=" M 908.426 498.75 Q 909.556 497.02 910.846 498.44 Q 911.536 499.2 911.576 499.24 Q 917.356 504.65 924.496 502.8 Q 929.196 501.58 936.536 498.12 Q 938.986 496.96 941.186 496.83 Q 943.566 496.69 946.116 496.82 Q 946.856 496.86 946.206 497.21 Q 941.996 499.48 937.636 502.16 Q 932.346 505.41 926.326 506.95 Q 914.726 509.92 908.436 500.43 C 908.093 499.923 908.089 499.261 908.426 498.75 L 908.426 498.75 Z " fill="rgb(195,75,40)"/><path d=" M 946.996 439.76 L 943.706 445.05 Q 942.636 446.46 943.486 447.6 Q 942.756 448.18 942.746 448.51 L 941.246 450.59 L 940.116 447.03 C 940.13 446.748 939.906 446.481 939.536 446.34 Q 938.926 446.15 938.246 446.34 Q 935.176 452.05 934.746 458.55 Q 934.686 459.46 933.476 460.72 Q 932.946 461.26 932.596 461.9 Q 930.886 465.09 930.786 460.55 Q 930.816 459 929.496 459.26 Q 926.546 458.72 925.036 460.89 Q 923.686 462.83 923.606 462.92 Q 914.256 473.54 909.936 483.74 Q 906.946 490.79 903.756 497.77 Q 902.616 500.26 901.926 503.14 Q 901.256 505.93 900.486 508.68 Q 899.216 513.16 898.576 517.04 Q 897.136 525.68 895.266 534.28 L 890.746 537.59 Q 885.026 539.14 884.056 540.11 Q 881.596 542.6 884.736 544.82 Q 885.156 545.12 884.656 545.26 Q 883.186 545.65 884.246 546.51 Q 876.836 547.53 869.476 546.69 Q 864.176 546.08 861.466 544.11 Q 857.456 541.18 857.386 535.91 Q 857.346 532.76 859.246 528.99 Q 861.246 525.05 863.436 522.99 Q 876.396 510.78 892.786 501.3 C 893.356 500.969 893.783 500.442 893.986 499.82 Q 902.796 473.4 923.426 454.48 Q 927.466 450.77 932.066 446.66 Q 933.456 445.41 933.506 443.55 Q 933.826 432.52 942.506 426.55 Q 943.586 425.8 948.336 423.64 Q 951.336 422.28 954.046 420.4 Q 960.426 415.98 960.856 415.75 Q 964.466 413.81 968.486 412.47 Q 970.526 411.79 970.796 413.92 Q 971.116 416.54 968.186 417.24 Q 965.486 417.87 962.136 420.06 Q 959.466 421.8 957.056 424.31 Q 950.606 431.03 946.996 439.76 Z  M 871.766 525.31 Q 879.236 516.99 889.766 513.04 C 889.913 512.994 890.075 513.023 890.195 513.115 C 890.316 513.208 890.38 513.352 890.366 513.5 L 889.196 532.83 C 889.228 533.396 888.8 533.897 888.186 534.01 L 876.626 535.49 Q 874.546 535.76 871.636 534.92 Q 868.206 533.93 869.016 530.55 Q 869.736 527.57 871.766 525.31 Z " fill-rule="evenodd" fill="rgb(254,198,38)"/><path d=" M 1084.812 531.31 C 1085.336 531.298 1085.777 531.96 1085.796 532.788 C 1085.815 533.616 1085.404 534.297 1084.88 534.309 C 1084.356 534.321 1083.915 533.659 1083.896 532.831 C 1083.878 532.004 1084.288 531.322 1084.812 531.31 Z " fill="rgb(160,55,43)"/><path d=" M 916.957 479.306 C 916.989 478.302 917.919 477.516 919.033 477.551 C 920.148 477.586 921.027 478.429 920.995 479.433 C 920.964 480.437 920.033 481.224 918.919 481.189 C 917.805 481.154 916.926 480.31 916.957 479.306 Z " fill="rgb(210,82,35)"/><path d=" M 1013.036 491.12 Q 1007.746 492.8 999.806 498.78 Q 999.626 498.92 999.416 498.99 Q 986.956 503.31 979.496 514.13 Q 974.636 517.65 968.996 514.76 Q 969.226 513.32 969.806 512.86 Q 975.506 508.38 980.916 504.14 Q 984.116 502.46 985.936 498.99 Q 990.006 491.21 998.096 488.29 Q 1000.366 487.47 1002.956 488.02 Q 1008.016 489.1 1013.036 491.12 Z " fill="rgb(255,218,35)"/><path d=" M 1013.036 491.12 Q 1008.016 489.1 1002.956 488.02 Q 1000.366 487.47 998.096 488.29 Q 990.006 491.21 985.936 498.99 Q 984.116 502.46 980.916 504.14 Q 983.066 494.75 989.306 489.61 Q 1001.306 479.74 1014.496 488.67 Q 1015.596 489.41 1015.966 489.97 Q 1016.976 491.5 1013.036 491.12 Z " fill="rgb(227,98,24)"/><path d=" M 1016.826 559.69 Q 1020.816 555.1 1025.006 552.08 Q 1029.116 549.13 1034.186 549.79 C 1034.36 549.803 1034.519 549.872 1034.626 549.98 C 1034.732 550.088 1034.775 550.226 1034.746 550.36 Q 1034.676 550.85 1033.996 551.05 Q 1030.536 552.08 1027.056 554.65 Q 1022.736 557.84 1018.446 561.1 Q 1017.826 561.57 1017.316 561.7 Q 1015.706 562.14 1016.556 560.13 Q 1016.656 559.89 1016.826 559.69 Z " fill="rgb(227,98,24)"/><path d=" M 983.4 582.759 C 983.574 581.826 984.579 581.23 985.643 581.429 C 986.706 581.628 987.427 582.547 987.253 583.48 C 987.078 584.413 986.073 585.009 985.01 584.81 C 983.947 584.611 983.225 583.692 983.4 582.759 Z " fill="rgb(227,98,24)"/><circle vector-effect="non-scaling-stroke" cx="997.6762328025286" cy="516.0796943068672" r="2.909999999999968" fill="rgb(227,96,34)"/><path d=" M 968.996 514.76 Q 974.636 517.65 979.496 514.13 Q 980.716 514.29 981.546 514 C 981.816 513.932 982.147 513.9 982.476 513.91 Q 983.106 514.19 982.746 515.05 Q 981.856 517.15 978.746 519.05 Q 975.716 520.92 972.476 519.35 Q 969.366 517.84 968.186 515.61 Q 967.676 514.66 968.996 514.76 Z " fill="rgb(244,119,36)"/><path d=" M 942.869 432.053 C 943.271 432.304 942.625 434.066 941.426 435.985 C 940.226 437.904 938.926 439.258 938.524 439.007 C 938.121 438.755 938.768 436.993 939.967 435.074 C 941.166 433.155 942.466 431.801 942.869 432.053 Z " fill="rgb(88,30,43)"/></g></svg>