<?xml version="1.0" encoding="UTF-8" standalone="no"?><!-- Generator: Gravit.io --><svg xmlns="http://www.w3.org/2000/svg" xmlns:xlink="http://www.w3.org/1999/xlink" style="isolation:isolate" viewBox="798.673 430.284 62.697 74.263" width="62.697pt" height="74.263pt"><defs><clipPath id="_clipPath_dScRcGqZuVHUUWVPxvRvGYlfj33xXI04"><rect x="798.673" y="430.284" width="62.697" height="74.263"/></clipPath></defs><g clip-path="url(#_clipPath_dScRcGqZuVHUUWVPxvRvGYlfj33xXI04)"><path d=" M 852.031 472.499 Q 849.231 475.479 849.531 471.749 Q 850.471 471.399 851.491 471.409 Q 852.721 471.419 852.031 472.499 Z " fill="rgb(225,146,73)"/><path d=" M 825.991 493.539 L 826.701 493.499 Q 827.501 496.199 825.811 497.859 C 825.585 498.062 825.258 498.152 824.941 498.099 Q 823.951 497.809 824.211 496.739 Q 824.311 496.309 825.061 495.439 Q 825.761 494.619 825.991 493.539 Z " fill="rgb(225,146,73)"/><path d=" M 837.281 451.499 Q 838.271 451.239 838.741 452.039 Q 836.981 453.309 837.781 454.999 Q 840.401 458.059 843.151 455.359 C 843.361 455.169 843.667 455.107 843.941 455.199 Q 844.831 455.499 845.741 455.209 Q 846.861 454.109 848.241 454.789 L 848.241 455.459 Q 845.881 455.959 844.531 457.749 Q 843.001 458.399 842.991 459.749 Q 842.971 462.719 842.031 464.749 Q 840.791 463.369 839.031 462.749 Q 838.641 461.599 837.741 461.999 Q 835.321 463.089 833.931 461.849 Q 833.211 461.209 832.681 458.869 Q 832.171 456.599 831.241 454.459 L 831.611 452.759 C 831.666 452.512 831.952 452.32 832.311 452.289 L 836.241 451.959 Q 836.941 452.399 837.281 451.499 Z " fill="rgb(252,142,61)"/><path d=" M 852.701 472.499 L 852.031 472.499 Q 852.721 471.419 851.491 471.409 Q 850.471 471.399 849.531 471.749 Q 849.561 471.509 849.741 471.289 Q 851.181 470.439 852.801 470.239 C 852.945 470.224 853.09 470.261 853.203 470.342 C 853.315 470.423 853.387 470.541 853.401 470.669 Q 853.461 471.579 852.701 472.499 Z " fill="rgb(202,78,39)"/><path d=" M 856.451 471.999 Q 856.681 473.039 856.281 473.999 Q 853.221 472.489 856.451 471.999 Z " fill="rgb(202,78,39)"/><path d=" M 839.321 492.429 Q 835.801 490.519 838.411 490.689 Q 838.941 490.729 839.541 490.569 Q 841.301 490.089 840.691 491.889 C 840.601 492.159 840.397 492.375 840.132 492.479 C 839.868 492.583 839.571 492.565 839.321 492.429 Z " fill="rgb(211,132,61)"/><path d=" M 833.281 496.499 Q 833.321 497.079 832.741 497.039 Q 831.231 496.339 831.411 494.699 Q 831.471 494.199 831.781 493.909 Q 832.451 493.279 832.811 494.549 Q 833.091 495.499 833.281 496.499 Z " fill="rgb(47,19,31)"/><path d=" M 848.241 454.789 Q 849.531 454.869 849.741 456.249 Q 850.191 459.129 848.281 460.749 Q 848.491 458.979 847.741 457.459 Q 849.421 456.739 848.241 455.459 L 848.241 454.789 Z " fill="rgb(172,79,57)"/><path d=" M 834.951 444.249 L 834.991 444.959 Q 834.321 445.229 833.811 445.739 Q 833.241 446.309 832.901 446.469 Q 831.221 447.249 831.991 445.149 C 832.094 444.885 832.357 444.687 832.681 444.629 L 834.951 444.249 Z " fill="rgb(112,45,26)"/><path d=" M 837.781 454.999 Q 836.981 453.309 838.741 452.039 Q 840.211 451.079 840.451 452.759 C 840.503 453.076 840.424 453.399 840.231 453.659 Q 839.361 454.849 837.781 454.999 Z " fill="rgb(112,45,26)"/><path d=" M 848.241 455.459 Q 849.421 456.739 847.741 457.459 L 844.531 457.749 Q 845.881 455.959 848.241 455.459 Z " fill="rgb(112,45,26)"/><path d=" M 837.491 445.289 L 836.741 444.709 Q 837.001 443.769 837.771 443.409 C 837.898 443.353 838.045 443.353 838.171 443.411 C 838.298 443.469 838.393 443.578 838.431 443.709 Q 838.741 444.749 837.491 445.289 Z " fill="rgb(253,135,125)"/><path d=" M 834.951 444.249 L 832.681 444.629 C 832.357 444.687 832.094 444.885 831.991 445.149 Q 831.221 447.249 832.901 446.469 Q 833.241 446.309 833.811 445.739 Q 834.321 445.229 834.991 444.959 Q 835.911 445.109 836.741 444.709 L 837.491 445.289 Q 833.891 447.939 836.241 451.959 L 832.311 452.289 C 831.952 452.32 831.666 452.512 831.611 452.759 L 831.241 454.459 Q 830.031 456.289 829.421 458.359 Q 828.641 460.969 827.861 461.829 Q 826.511 463.319 824.491 463.989 Q 820.261 465.399 816.471 467.059 Q 814.991 467.709 816.521 468.179 L 825.431 470.919 C 826.241 471.164 826.83 471.835 826.941 472.639 Q 827.881 479.159 829.381 484.109 Q 830.141 486.639 830.461 484.009 Q 831.101 478.699 832.141 473.729 Q 832.961 469.819 836.991 470.039 Q 838.451 471.769 840.121 471.079 Q 842.601 470.059 842.691 470.039 Q 843.901 469.829 845.991 469.499 Q 848.011 469.179 847.431 467.459 C 847.335 467.2 847.056 467.031 846.751 467.049 Q 844.961 467.189 843.181 466.999 Q 841.061 466.759 842.031 464.749 Q 842.971 462.719 842.991 459.749 Q 843.001 458.399 844.531 457.749 L 847.741 457.459 Q 848.491 458.979 848.281 460.749 L 847.961 462.249 Q 847.861 462.689 848.391 462.469 L 850.321 461.649 Q 851.091 461.329 851.201 461.249 Q 853.391 459.689 855.241 462.249 Q 856.101 463.439 855.251 463.979 C 854.988 464.049 854.702 463.939 854.601 463.729 Q 853.801 462.199 852.431 463.439 Q 851.141 464.589 850.441 466.959 C 850.404 467.072 850.426 467.195 850.5 467.289 C 850.573 467.382 850.69 467.435 850.811 467.429 Q 853.761 467.269 856.051 465.309 Q 858.341 463.359 857.241 466.249 Q 856.581 467.979 859.251 466.399 C 859.518 466.241 859.838 466.201 860.136 466.289 C 860.433 466.376 860.681 466.582 860.821 466.859 Q 862.621 470.409 858.521 469.589 Q 855.761 469.049 856.451 471.999 Q 853.221 472.489 856.281 473.999 Q 853.671 475.719 852.701 472.499 Q 853.461 471.579 853.401 470.669 C 853.387 470.541 853.315 470.423 853.203 470.342 C 853.09 470.261 852.945 470.224 852.801 470.239 Q 851.181 470.439 849.741 471.289 L 845.981 472.399 C 845.843 472.424 845.727 472.503 845.666 472.613 C 845.605 472.723 845.607 472.851 845.671 472.959 Q 846.281 474.199 847.791 474.509 C 848.128 474.58 848.418 474.787 848.591 475.079 Q 849.641 476.859 851.491 476.749 Q 853.561 476.629 852.181 477.939 Q 850.961 479.089 849.301 479.089 C 849.015 479.092 848.769 479.288 848.711 479.559 Q 848.031 482.849 845.551 480.429 Q 845.221 480.119 844.971 480.119 Q 844.451 480.129 845.051 481.219 Q 845.661 482.319 846.801 483.009 C 846.911 483.059 846.985 483.159 846.997 483.274 C 847.01 483.388 846.958 483.5 846.861 483.569 Q 844.191 485.639 841.611 483.349 Q 841.191 482.979 841.101 483.469 Q 840.911 484.389 841.631 484.969 Q 842.581 485.749 842.601 485.779 Q 843.611 487.079 840.981 486.809 C 840.654 486.803 840.34 486.898 840.121 487.069 Q 839.461 487.789 839.941 488.869 C 840.016 488.976 840.033 489.109 839.986 489.229 C 839.939 489.348 839.834 489.44 839.701 489.479 Q 837.961 489.949 837.431 488.059 Q 836.631 485.279 834.431 486.689 Q 832.761 487.749 833.311 489.219 Q 833.711 490.269 834.091 490.809 Q 834.531 491.459 835.421 491.549 C 835.777 491.599 836.076 491.747 836.231 491.949 Q 836.981 493.089 835.751 493.829 C 835.36 493.878 835.054 493.983 834.92 494.113 C 834.785 494.244 834.837 494.386 835.061 494.499 L 834.451 496.499 L 833.281 496.499 Q 833.091 495.499 832.811 494.549 Q 832.451 493.279 831.781 493.909 Q 831.471 494.199 831.411 494.699 Q 831.231 496.339 832.741 497.039 L 832.531 497.749 Q 829.571 499.369 833.601 499.169 Q 834.881 499.099 834.251 500.179 L 831.921 504.189 C 831.795 504.38 831.588 504.509 831.355 504.539 C 831.122 504.57 830.886 504.501 830.711 504.349 Q 829.321 503.109 828.601 501.339 Q 827.891 499.559 827.801 499.209 Q 827.491 497.949 828.351 496.819 C 828.734 496.573 828.876 496.246 828.731 495.939 Q 828.801 494.689 828.371 493.519 C 828.3 493.235 828.033 493.011 827.691 492.949 Q 827.071 492.909 826.701 493.499 L 825.991 493.539 Q 825.471 492.549 825.991 491.499 Q 827.471 488.539 825.801 486.689 Q 824.241 484.949 824.361 486.569 C 824.259 486.87 824.428 487.183 824.811 487.399 Q 826.041 488.639 825.191 490.249 Q 824.951 490.709 824.941 491.189 Q 824.891 493.939 822.441 495.279 C 822.157 495.428 821.818 495.443 821.521 495.319 Q 820.041 494.639 820.791 493.239 C 820.929 493.008 821.216 492.846 821.551 492.809 Q 822.781 492.719 823.611 491.819 C 823.846 491.582 823.939 491.253 823.861 490.939 Q 823.321 487.799 820.111 488.879 C 819.224 489.175 818.552 489.904 818.331 490.809 Q 817.641 493.639 815.501 491.329 C 814.934 490.727 814.188 490.317 813.371 490.159 Q 811.831 489.869 812.521 487.439 Q 813.371 484.429 816.551 484.689 Q 819.251 484.909 819.681 482.499 Q 819.771 481.999 819.371 482.339 Q 817.341 484.079 814.731 483.819 Q 814.291 483.769 813.781 483.939 Q 812.521 484.349 811.621 483.449 C 811.406 483.231 811.402 482.883 811.611 482.659 Q 812.431 481.749 813.701 482.039 C 813.821 482.064 813.946 482.038 814.043 481.971 C 814.139 481.903 814.197 481.8 814.201 481.689 Q 814.191 478.819 810.791 481.119 Q 809.281 482.129 809.551 480.469 L 809.951 477.999 L 810.201 476.499 Q 810.541 473.049 807.281 473.699 C 806.92 473.805 806.626 473.97 806.441 474.169 Q 804.981 475.489 804.421 473.669 C 804.335 473.361 804.153 473.085 803.901 472.879 Q 803.151 472.269 802.621 471.469 Q 802.581 471.399 802.161 470.329 Q 801.761 469.299 800.401 469.749 C 800.096 469.816 799.764 469.827 799.451 469.779 Q 797.331 468.969 800.991 467.419 C 801.725 467.106 802.294 466.505 802.561 465.759 Q 803.601 462.899 806.051 464.189 Q 807.301 464.839 807.951 465.289 Q 808.791 465.889 809.181 465.889 Q 809.871 465.899 810.241 465.259 C 810.444 464.99 810.39 464.639 810.111 464.419 Q 808.701 462.759 806.941 462.079 C 806.02 461.734 805.529 460.734 805.821 459.799 Q 807.151 455.469 808.761 458.309 Q 808.941 458.629 808.961 459.249 Q 808.991 460.449 810.281 459.959 C 810.578 459.869 810.904 459.855 811.211 459.919 Q 812.791 460.459 813.241 460.499 Q 814.741 460.629 814.411 459.579 Q 814.291 459.209 813.761 458.669 Q 812.551 457.439 812.051 455.789 C 812.263 455.662 812.332 455.502 812.242 455.348 C 812.151 455.193 811.909 455.057 811.571 454.969 L 810.021 453.989 C 809.89 453.958 809.792 453.867 809.771 453.755 C 809.749 453.643 809.808 453.532 809.921 453.469 L 811.331 452.289 C 811.6 452.096 811.761 451.812 811.771 451.509 Q 811.971 449.619 813.111 450.429 C 813.621 450.635 813.822 450.954 813.621 451.239 Q 814.201 452.949 815.991 452.819 C 816.12 452.81 816.236 452.741 816.303 452.634 C 816.37 452.527 816.381 452.395 816.331 452.279 L 814.961 448.949 C 814.702 448.67 814.676 448.321 814.891 448.029 Q 815.561 446.159 816.551 448.439 Q 816.971 449.389 818.821 451.209 C 819.07 451.433 819.216 451.733 819.231 452.049 L 819.511 454.689 C 819.302 454.802 819.235 454.971 819.339 455.125 C 819.444 455.279 819.702 455.389 820.001 455.409 Q 820.511 455.379 820.451 453.469 Q 820.431 452.779 820.601 452.109 Q 821.261 449.569 818.791 449.019 C 818.468 448.954 818.224 448.729 818.171 448.449 Q 817.861 446.939 819.031 446.229 C 819.153 446.178 819.292 446.174 819.417 446.22 C 819.541 446.265 819.64 446.355 819.691 446.469 Q 821.091 449.489 823.991 451.189 C 824.112 451.243 824.256 451.256 824.389 451.226 C 824.522 451.196 824.635 451.125 824.701 451.029 Q 824.871 450.519 824.151 450.109 Q 822.381 449.119 821.851 447.239 C 821.731 446.948 821.842 446.626 822.131 446.429 Q 823.051 445.559 823.261 444.309 Q 823.841 440.689 826.081 442.829 C 826.285 443.018 826.602 443.03 826.821 442.859 Q 829.411 440.599 827.081 438.979 C 826.505 438.582 826.35 437.804 826.731 437.219 Q 829.061 433.529 830.311 436.289 Q 830.541 436.819 830.841 436.399 Q 831.131 435.989 830.861 435.599 Q 830.441 435.009 830.411 434.749 Q 830.141 432.719 831.021 430.869 Q 831.601 429.669 832.051 430.929 Q 832.941 433.419 831.801 435.709 Q 831.671 435.969 831.661 436.189 Q 831.651 437.119 832.431 436.189 Q 833.611 434.769 834.951 435.129 C 835.268 435.212 835.5 435.483 835.531 435.809 Q 835.651 437.079 834.151 437.619 Q 829.541 439.259 832.031 443.269 C 832.183 443.478 832.484 443.535 832.711 443.399 Q 833.351 442.979 834.071 442.709 Q 836.531 441.819 834.951 444.249 Z " fill="rgb(249,130,53)"/><path d=" M 810.021 448.099 Q 811.301 445.739 812.901 447.369 C 813.182 447.585 813.274 447.93 813.131 448.229 Q 812.881 448.879 812.161 449.099 C 811.857 449.189 811.613 449.39 811.491 449.649 Q 810.741 451.289 809.761 449.919 C 809.56 449.656 809.511 449.314 809.631 449.009 Q 809.791 448.529 810.021 448.099 Z " fill="rgb(249,130,53)"/><path d=" M 831.241 454.459 Q 832.171 456.599 832.681 458.869 Q 833.211 461.209 833.931 461.849 Q 835.321 463.089 837.741 461.999 Q 838.641 461.599 839.031 462.749 Q 834.201 465.039 837.591 468.939 C 837.758 469.026 837.864 469.168 837.878 469.322 C 837.892 469.477 837.812 469.627 837.661 469.729 Q 837.401 469.969 836.991 470.039 Q 832.961 469.819 832.141 473.729 Q 831.101 478.699 830.461 484.009 Q 830.141 486.639 829.381 484.109 Q 827.881 479.159 826.941 472.639 C 826.83 471.835 826.241 471.164 825.431 470.919 L 816.521 468.179 Q 814.991 467.709 816.471 467.059 Q 820.261 465.399 824.491 463.989 Q 826.511 463.319 827.861 461.829 Q 828.641 460.969 829.421 458.359 Q 830.031 456.289 831.241 454.459 Z " fill="rgb(253,235,60)"/><path d=" M 839.031 462.749 Q 840.791 463.369 842.031 464.749 Q 841.061 466.759 843.181 466.999 Q 844.961 467.189 846.751 467.049 C 847.056 467.031 847.335 467.2 847.431 467.459 Q 848.011 469.179 845.991 469.499 Q 843.901 469.829 842.691 470.039 Q 842.601 470.059 840.121 471.079 Q 838.451 471.769 836.991 470.039 Q 837.401 469.969 837.661 469.729 C 837.812 469.627 837.892 469.477 837.878 469.322 C 837.864 469.168 837.758 469.026 837.591 468.939 Q 834.201 465.039 839.031 462.749 Z " fill="rgb(254,181,45)"/><path d=" M 810.201 476.499 L 809.951 477.999 L 807.051 477.189 Q 804.431 476.449 807.431 474.939 Q 808.961 474.159 808.661 475.829 C 808.473 475.963 808.385 476.132 808.417 476.299 C 808.449 476.467 808.598 476.618 808.831 476.719 Q 809.341 477.199 810.201 476.499 Z " fill="rgb(181,117,89)"/><path d=" M 833.281 496.499 L 834.451 496.499 Q 833.921 497.639 832.531 497.749 L 832.741 497.039 Q 833.321 497.079 833.281 496.499 Z " fill="rgb(181,117,89)"/><path d=" M 845.741 455.209 Q 844.831 455.499 843.941 455.199 C 843.667 455.107 843.361 455.169 843.151 455.359 Q 840.401 458.059 837.781 454.999 Q 839.361 454.849 840.231 453.659 C 840.424 453.399 840.503 453.076 840.451 452.759 Q 840.211 451.079 838.741 452.039 Q 838.271 451.239 837.281 451.499 Q 837.541 450.829 836.991 449.499 Q 836.041 447.199 838.511 446.129 C 838.899 445.964 839.234 445.698 839.481 445.359 Q 842.021 441.839 845.221 445.479 C 845.64 445.953 845.716 446.636 845.411 447.189 Q 844.651 448.569 843.511 449.129 C 843.11 449.262 842.858 449.5 842.841 449.759 Q 842.441 450.899 843.791 451.519 C 843.979 451.606 844.198 451.599 844.38 451.5 C 844.562 451.401 844.685 451.222 844.711 451.019 Q 845.121 447.709 848.171 448.409 C 848.613 448.501 849.074 448.473 849.501 448.329 Q 852.201 447.389 850.681 449.689 Q 850.321 450.229 849.661 452.039 C 849.57 452.342 849.371 452.611 849.091 452.809 Q 847.131 454.189 848.261 450.789 Q 848.431 450.289 848.041 450.619 Q 845.951 452.399 845.741 455.209 Z " fill="rgb(230,105,41)"/><path d=" M 816.181 487.809 Q 815.951 487.809 815.831 487.659 Q 815.731 487.549 815.771 487.319 Q 816.261 484.499 817.711 486.579 C 817.944 486.837 818.019 487.176 817.911 487.489 Q 817.571 488.809 816.181 487.809 Z " fill="rgb(47,19,31)"/><path d=" M 812.521 453.759 Q 811.871 453.179 812.751 452.879 C 813.058 452.788 813.394 452.881 813.591 453.109 Q 813.911 453.589 813.391 453.879 C 813.102 454.006 812.757 453.958 812.521 453.759 Z " fill="rgb(172,79,57)"/><path d=" M 827.411 444.119 Q 828.491 442.739 828.511 444.249 C 828.516 444.572 828.382 444.883 828.141 445.109 Q 826.891 446.289 827.111 444.819 Q 827.161 444.439 827.411 444.119 Z " fill="rgb(112,45,26)"/><path d=" M 826.641 447.159 Q 827.971 447.909 828.621 449.409 Q 829.131 450.619 828.351 450.329 Q 828.091 450.229 827.861 449.929 Q 826.721 448.429 826.181 448.059 Q 825.601 447.669 825.821 447.289 C 826.017 447.095 826.363 447.04 826.641 447.159 Z " fill="rgb(112,45,26)"/><path d=" M 806.551 470.219 Q 805.681 470.549 805.731 469.559 C 805.689 469.259 805.922 468.983 806.271 468.919 L 808.491 468.699 Q 809.161 468.639 809.461 468.559 Q 810.231 468.379 810.051 469.439 C 810.008 469.755 809.793 470.028 809.481 470.159 Q 808.491 470.549 807.441 470.189 C 807.149 470.11 806.836 470.121 806.551 470.219 Z " fill="rgb(112,45,26)"/><path d=" M 813.621 472.199 Q 811.871 475.199 810.261 472.919 C 810.173 472.808 810.136 472.667 810.158 472.529 C 810.181 472.391 810.261 472.268 810.381 472.189 Q 811.441 471.459 813.231 471.509 C 813.394 471.512 813.543 471.601 813.623 471.743 C 813.703 471.885 813.703 472.058 813.621 472.199 Z " fill="rgb(72,44,85)"/><path d=" M 808.981 460.509 Q 809.041 460.819 808.481 460.939 C 808.166 460.977 807.853 460.85 807.671 460.609 Q 806.811 459.469 808.441 460.049 Q 808.931 460.219 808.981 460.509 Z " fill="rgb(230,105,41)"/><path d=" M 823.561 453.529 Q 822.891 451.829 824.091 453.369 Q 824.791 454.259 823.951 453.929 C 823.766 453.848 823.626 453.704 823.561 453.529 L 823.561 453.529 Z " fill="rgb(159,28,73)"/></g></svg>