<?xml version="1.0" encoding="UTF-8" standalone="no"?><!-- Generator: Gravit.io --><svg xmlns="http://www.w3.org/2000/svg" xmlns:xlink="http://www.w3.org/1999/xlink" style="isolation:isolate" viewBox="706.76 381.982 258.47 246.014" width="258.47pt" height="246.014pt"><defs><clipPath id="_clipPath_ZNi7nfJbn5Znf7iVtaFbHjcRdHp6dZG3"><rect x="706.76" y="381.982" width="258.47" height="246.014"/></clipPath></defs><g clip-path="url(#_clipPath_ZNi7nfJbn5Znf7iVtaFbHjcRdHp6dZG3)"><path d=" M 830.241 603.395 Q 829.381 605.565 829.481 608.555 Q 829.561 611.185 827.411 612.705 Q 824.601 614.675 822.941 619.285 Q 821.421 623.495 819.121 627.355 Q 818.291 628.745 818.251 627.125 Q 818.121 621.905 816.691 616.655 Q 816.151 614.675 813.271 612.355 Q 808.771 608.725 803.191 605.515 C 802.406 605.07 801.819 604.345 801.551 603.485 Q 799.761 597.775 801.261 592.125 Q 802.821 586.255 802.821 586.205 Q 802.831 583.175 800.001 581.725 Q 798.131 580.765 795.231 581.025 Q 786.721 581.785 779.631 587.345 Q 777.081 589.335 776.411 592.095 Q 775.521 595.695 775.691 599.425 C 775.719 600.071 775.226 600.622 774.581 600.665 Q 770.461 600.925 768.361 603.765 Q 766.661 606.075 766.721 609.885 Q 766.781 613.565 768.321 616.885 Q 768.761 617.845 767.761 617.515 Q 762.131 615.645 759.061 611.355 Q 755.881 606.925 756.211 601.805 Q 756.581 596.225 761.691 592.405 Q 763.191 591.285 767.391 589.305 Q 774.391 586.015 770.891 580.815 Q 770.111 579.645 767.381 577.675 Q 765.441 576.265 763.831 574.465 C 763.609 574.229 763.513 573.908 763.571 573.595 Q 764.001 570.805 766.131 567.345 Q 768.511 563.465 765.251 560.845 Q 763.551 559.475 761.141 559.065 Q 760.191 558.915 756.771 559.325 Q 754.141 559.635 752.251 558.845 Q 742.041 554.555 736.281 563.745 C 736.015 564.169 735.456 564.298 735.031 564.035 Q 732.831 562.655 732.141 561.275 Q 728.901 554.795 732.101 548.235 Q 734.551 543.195 738.751 539.475 Q 742.811 535.875 746.991 532.695 Q 748.921 531.225 748.191 528.915 Q 746.581 523.815 742.041 522.845 Q 739.151 522.225 735.351 522.855 Q 731.951 523.425 729.011 525.485 Q 723.351 529.445 716.921 528.615 Q 712.221 527.995 709.501 525.445 Q 706.141 522.295 706.901 516.935 C 706.938 516.663 707.108 516.426 707.354 516.304 C 707.6 516.182 707.891 516.19 708.131 516.325 Q 712.471 518.785 717.191 518.405 Q 719.661 518.205 721.151 515.355 Q 723.421 511.025 728.141 509.625 Q 732.471 508.335 736.891 507.335 Q 739.231 506.815 738.651 504.485 Q 738.061 502.155 736.041 500.575 Q 728.141 494.395 719.751 492.865 C 719.364 492.794 719.041 492.528 718.896 492.162 C 718.752 491.796 718.806 491.381 719.041 491.065 Q 723.591 484.895 729.411 485.865 Q 731.401 486.195 731.991 486.015 Q 733.221 485.655 733.771 484.375 C 733.951 484.076 733.955 483.728 733.781 483.425 Q 729.791 471.395 722.801 460.825 Q 722.771 460.765 721.451 459.085 Q 718.731 455.625 722.271 451.375 C 722.365 451.265 722.507 451.207 722.653 451.217 C 722.8 451.226 722.932 451.304 723.011 451.425 Q 723.731 452.565 724.091 454.125 Q 724.851 457.405 727.201 459.375 Q 729.461 461.265 732.571 461.385 Q 738.211 461.595 739.361 454.895 Q 741.451 442.675 729.741 440.095 Q 728.561 439.835 729.581 439.175 Q 731.731 437.765 734.441 437.905 Q 745.981 438.485 745.661 450.155 Q 745.451 458.275 753.511 458.705 Q 760.331 459.075 766.451 455.605 C 767.326 455.114 767.959 454.285 768.201 453.315 Q 769.911 446.465 767.941 439.405 Q 766.921 435.755 767.541 428.465 Q 767.551 428.395 767.541 425.345 Q 767.541 421.935 770.621 420.485 Q 772.501 419.605 772.571 419.565 Q 774.571 418.445 776.231 417.515 Q 778.021 416.505 777.201 418.385 Q 775.171 423.015 776.221 427.955 Q 777.631 434.525 784.181 435.715 Q 788.001 436.405 790.691 434.525 Q 792.751 433.095 794.331 429.585 Q 796.651 424.455 796.231 418.955 Q 796.101 417.225 797.001 415.725 Q 798.691 412.905 797.161 410.005 Q 795.521 406.905 795.441 403.405 Q 795.401 401.685 796.381 403.215 Q 799.761 408.525 805.121 406.725 Q 806.951 406.115 808.851 404.475 Q 810.381 403.165 812.011 401.415 C 812.702 400.676 813.818 400.525 814.681 401.055 Q 817.141 402.585 818.421 405.865 C 818.639 406.403 818.587 407.011 818.281 407.505 Q 817.151 409.375 816.821 411.375 Q 816.501 413.295 817.361 415.325 Q 820.181 421.975 827.531 420.675 Q 829.141 420.395 831.731 419.305 Q 833.821 418.425 835.801 417.555 C 836.449 417.283 837.198 417.391 837.741 417.835 Q 839.661 419.425 841.901 420.375 Q 844.301 421.385 846.611 421.165 Q 850.391 420.805 852.431 417.885 Q 854.151 415.425 853.821 411.075 Q 853.551 407.495 852.661 403.985 Q 852.411 402.995 852.491 402.295 Q 852.751 400.265 854.151 401.395 Q 854.551 401.715 855.121 402.505 Q 857.391 405.625 859.001 406.845 Q 861.241 408.545 864.951 408.345 Q 869.311 408.115 873.001 406.165 Q 876.401 404.375 878.871 402.075 Q 881.611 399.515 882.841 395.885 Q 883.341 394.425 883.141 391.365 Q 882.961 388.635 883.631 385.945 C 883.707 385.633 883.887 385.355 884.141 385.155 Q 887.841 382.255 892.361 381.985 Q 892.761 381.955 892.551 382.295 Q 890.581 385.445 890.351 387.175 Q 889.811 391.215 890.161 395.255 Q 890.231 396.115 890.151 400.055 Q 890.081 403.065 891.751 405.095 Q 893.891 407.685 892.521 410.935 Q 891.591 413.125 893.391 413.725 C 893.708 413.781 894.041 413.746 894.331 413.625 Q 898.641 411.455 901.511 407.685 Q 903.841 404.635 905.131 403.855 Q 908.811 401.615 913.441 402.325 Q 913.941 402.395 913.591 402.755 Q 909.531 406.845 907.381 412.545 Q 906.731 414.245 905.131 415.115 Q 902.711 416.415 900.231 418.185 Q 898.211 419.625 897.681 421.475 Q 897.031 423.735 897.691 425.905 Q 899.731 432.595 905.871 431.665 Q 906.751 431.525 911.641 429.385 Q 916.681 427.175 922.421 427.835 Q 924.421 428.065 922.171 428.585 Q 916.091 430.005 912.551 434.465 Q 909.011 438.925 907.851 444.035 Q 906.291 450.875 912.501 456.345 Q 913.791 457.475 919.991 459.985 Q 920.021 460.005 926.021 461.975 Q 932.021 463.945 936.421 468.535 Q 938.511 470.715 940.201 471.325 Q 946.991 473.765 952.121 467.845 Q 957.001 462.205 954.691 454.895 Q 953.891 452.375 956.181 453.685 Q 964.501 458.435 965.171 467.325 Q 965.621 473.245 962.681 478.425 Q 959.951 483.235 954.751 487.215 Q 946.031 493.895 934.621 493.395 Q 931.461 493.245 933.121 495.945 Q 933.961 497.315 935.061 498.685 Q 936.421 500.405 936.971 501.405 Q 941.241 509.135 939.291 517.055 Q 938.821 518.945 936.861 518.515 L 923.181 515.495 C 922.864 515.436 922.535 515.509 922.281 515.695 Q 920.751 516.905 921.811 518.365 Q 922.231 518.945 923.651 519.815 Q 928.961 523.085 931.381 527.965 Q 935.931 537.145 930.881 545.435 Q 929.371 547.905 927.821 545.455 Q 926.321 543.065 923.861 541.965 Q 921.341 540.825 920.331 543.405 Q 916.751 552.565 924.081 558.815 Q 924.111 558.845 925.741 560.005 Q 928.401 561.885 928.281 565.225 C 928.281 565.521 928.08 565.786 927.781 565.885 Q 921.241 568.145 914.521 569.735 Q 912.391 570.235 910.821 569.965 Q 908.841 569.615 907.231 568.675 Q 905.031 567.385 903.391 569.335 Q 898.621 574.985 900.471 581.705 Q 901.881 586.825 901.881 586.835 Q 902.161 590.395 899.721 592.335 Q 898.081 593.645 898.011 591.555 Q 897.811 585.475 895.771 581.235 Q 894.041 577.635 891.351 576.255 Q 887.811 574.445 883.881 577.345 Q 881.371 579.195 880.461 582.665 Q 879.901 584.825 879.271 586.965 Q 878.591 589.285 877.131 590.745 Q 876.061 591.805 874.861 592.715 Q 873.201 593.985 872.701 594.775 Q 870.881 597.715 874.131 600.175 Q 876.291 601.795 878.381 603.495 Q 880.461 605.195 879.341 607.945 Q 878.491 610.015 876.731 611.405 Q 871.341 615.665 870.971 622.565 Q 870.901 623.895 869.791 623.155 Q 866.561 621.015 865.371 618.055 Q 864.781 616.585 864.971 611.675 Q 865.441 599.785 856.851 591.845 Q 854.541 589.695 851.781 589.385 Q 843.861 588.475 841.861 597.225 C 841.797 597.507 841.539 597.702 841.251 597.685 Q 836.941 597.435 833.491 599.665 Q 831.111 601.205 830.241 603.395 Z " fill="rgb(255,181,38)"/><path d=" M 903.421 478.085 Q 905.761 478.915 907.021 481.875 Q 909.041 486.615 914.141 487.625 C 914.459 487.694 914.742 487.86 914.941 488.095 Q 919.721 493.835 924.641 499.445 Q 924.881 499.725 924.941 500.055 Q 925.311 502.035 924.161 500.485 Q 920.891 496.075 913.421 496.185 Q 911.341 496.205 910.151 497.645 L 907.501 500.835 C 906.993 501.415 906.891 502.226 907.241 502.905 Q 908.091 504.835 906.801 505.115 Q 905.231 505.475 905.151 505.515 Q 903.951 506.185 903.241 507.405 C 903.062 507.674 903.054 508.008 903.221 508.285 Q 904.271 510.525 904.721 512.935 Q 905.521 517.315 905.651 517.685 Q 906.761 520.925 908.971 523.645 Q 911.481 526.735 913.711 529.245 Q 915.161 530.885 913.011 530.875 L 901.871 530.845 Q 900.821 530.835 901.581 531.605 L 903.061 533.075 C 903.37 533.316 903.506 533.642 903.431 533.965 Q 903.801 537.725 902.051 541.245 Q 901.111 543.135 898.691 542.425 L 895.131 541.385 C 894.812 541.361 894.526 541.555 894.481 541.825 Q 893.541 545.215 895.751 547.595 Q 899.501 551.615 905.561 554.625 C 905.898 554.758 906.103 555.043 906.081 555.345 Q 906.111 556.515 904.441 556.655 Q 899.651 557.055 897.251 555.845 Q 893.031 553.715 891.681 558.485 Q 891.101 560.535 888.991 560.895 Q 884.781 561.615 881.571 559.255 Q 881.501 559.205 880.121 557.755 Q 878.501 556.045 876.291 557.995 Q 875.021 559.105 873.851 560.315 Q 872.771 561.425 874.201 561.805 C 874.591 561.9 874.886 562.078 875.011 562.295 Q 875.581 563.165 874.191 563.175 Q 874.071 563.175 873.271 562.895 L 872.251 562.525 C 871.902 562.529 871.572 562.621 871.351 562.775 Q 868.421 564.955 864.311 566.075 Q 863.491 566.305 864.251 566.825 L 869.071 570.125 C 869.806 570.561 870.141 571.28 869.931 571.975 Q 869.981 575.385 869.141 577.965 Q 868.011 581.425 864.681 582.515 C 864.374 582.597 864.042 582.516 863.821 582.305 Q 862.861 581.255 864.511 580.825 C 864.834 580.742 865.076 580.515 865.141 580.235 Q 865.521 578.615 864.801 577.075 Q 864.031 575.405 862.291 576.655 C 861.802 576.999 861.135 576.952 860.701 576.545 Q 859.241 575.135 856.971 574.745 Q 849.351 573.435 843.031 569.005 C 842.774 568.831 842.462 568.72 842.131 568.685 Q 839.301 568.575 838.501 570.715 Q 838.061 571.915 838.921 574.485 Q 839.491 576.185 839.701 577.975 C 839.733 578.263 839.544 578.531 839.261 578.595 Q 836.341 579.225 833.471 577.625 C 832.694 577.204 831.726 577.403 831.181 578.095 Q 829.221 580.625 828.051 583.165 Q 826.821 585.845 824.101 586.925 C 823.774 587.057 823.502 587.25 823.311 587.485 Q 821.501 589.785 821.001 592.215 Q 820.331 595.525 818.781 597.815 C 818.607 598.078 818.347 598.282 818.041 598.395 Q 815.041 599.465 814.541 596.565 Q 814.351 595.475 814.731 593.255 Q 815.641 587.965 816.371 582.655 C 816.676 582.358 816.596 581.978 816.181 581.745 L 812.151 577.395 Q 811.671 576.875 811.581 576.625 Q 809.611 571.425 807.351 566.365 Q 806.531 564.535 805.531 563.815 Q 803.091 562.065 802.231 566.665 Q 801.001 573.235 796.501 568.345 Q 793.401 564.985 789.131 567.345 Q 786.381 568.855 784.681 570.395 Q 782.411 572.445 779.481 573.145 C 779.132 573.228 778.765 573.13 778.505 572.884 C 778.245 572.638 778.127 572.277 778.191 571.925 Q 779.371 565.415 779.031 558.845 Q 778.931 556.825 778.411 556.075 Q 777.421 554.645 775.041 555.525 Q 772.751 556.385 773.611 554.095 Q 774.151 552.645 774.451 551.315 Q 774.731 550.005 774.271 548.525 Q 773.541 546.225 772.641 543.795 C 772.592 543.661 772.49 543.554 772.359 543.499 C 772.228 543.444 772.08 543.446 771.951 543.505 Q 765.051 546.765 757.931 547.365 C 757.625 547.387 757.339 547.222 757.221 546.955 Q 756.451 545.065 758.001 543.465 Q 760.091 541.295 762.191 539.155 Q 767.891 533.335 761.011 530.555 C 760.154 530.205 759.572 529.398 759.511 528.475 Q 759.151 523.105 756.101 520.125 Q 755.341 519.385 751.321 517.415 Q 748.751 516.165 746.701 514.275 Q 745.111 512.815 747.241 511.975 L 755.271 508.775 C 755.566 508.664 755.788 508.433 755.87 508.151 C 755.952 507.869 755.886 507.567 755.691 507.335 Q 752.651 502.065 750.261 497.025 Q 748.191 492.635 753.131 492.445 Q 755.961 492.335 758.141 494.225 Q 759.141 495.105 758.731 493.755 L 757.161 488.675 Q 756.301 485.915 759.321 486.765 Q 761.611 487.405 762.951 484.915 Q 764.471 482.105 767.461 480.945 Q 769.301 480.235 770.671 478.955 Q 771.831 477.865 772.111 475.795 Q 772.341 473.985 772.621 472.185 Q 772.811 470.895 774.071 470.675 C 774.441 470.612 774.77 470.402 774.985 470.094 C 775.199 469.786 775.28 469.404 775.211 469.035 Q 773.981 462.265 776.481 456.035 Q 777.671 453.055 778.831 450.205 C 778.99 449.813 779.332 449.525 779.745 449.433 C 780.158 449.341 780.59 449.458 780.901 449.745 Q 783.831 452.465 785.281 457.295 Q 785.781 458.965 787.331 459.775 Q 791.221 461.815 796.171 462.845 Q 797.921 463.215 796.641 461.975 Q 794.841 460.235 793.351 458.235 Q 790.601 454.525 794.281 451.955 Q 798.981 448.675 801.131 443.605 Q 801.991 441.575 803.421 437.285 Q 804.501 434.065 804.851 430.665 Q 804.981 429.395 805.331 428.725 Q 806.271 426.945 807.451 428.425 Q 807.871 428.945 808.161 430.005 Q 809.141 433.605 811.011 436.835 Q 811.981 438.505 813.561 439.325 Q 814.791 439.955 816.911 439.795 Q 820.551 439.535 823.121 438.935 Q 825.891 438.305 826.991 435.685 Q 829.031 430.795 831.661 426.585 Q 832.241 425.645 832.781 425.255 Q 833.941 424.425 834.481 425.705 Q 834.681 426.175 834.701 427.155 Q 834.781 430.265 835.481 432.695 Q 836.141 434.965 838.331 434.705 L 846.461 433.745 C 846.775 433.726 847.089 433.785 847.361 433.915 Q 851.631 436.375 855.691 433.175 Q 860.391 429.465 863.511 422.205 C 863.722 421.714 864.091 421.307 864.561 421.045 Q 873.251 416.335 879.541 408.725 Q 880.401 407.675 880.871 408.955 Q 881.911 411.795 881.141 414.485 Q 880.871 415.425 879.181 417.955 Q 878.031 419.675 877.321 421.545 C 877.161 421.961 877.208 422.429 877.449 422.804 C 877.69 423.179 878.096 423.417 878.541 423.445 Q 885.661 423.915 880.631 428.105 Q 878.921 429.535 877.351 431.125 Q 873.691 434.805 875.261 439.425 C 875.396 439.729 875.41 440.064 875.301 440.375 Q 873.951 445.185 875.241 449.995 C 875.319 450.275 875.572 450.476 875.871 450.495 Q 880.531 450.785 885.191 450.565 Q 887.451 450.455 886.781 451.745 Q 886.521 452.245 885.761 452.725 Q 880.671 455.905 876.051 459.745 Q 873.001 462.285 876.991 462.005 Q 878.581 461.885 878.911 461.875 Q 884.921 461.695 890.941 461.405 Q 892.951 461.305 894.281 461.845 Q 894.951 462.115 896.621 464.005 Q 898.071 465.635 899.991 466.615 Q 901.171 467.215 904.041 467.595 Q 911.501 468.575 916.481 473.805 Q 918.961 476.395 915.451 475.655 Q 909.591 474.425 903.391 477.165 Q 902.261 477.665 903.421 478.085 Z " fill="rgb(255,119,27)"/><path d=" M 888.461 488.815 Q 889.671 490.285 888.651 491.625 Q 886.311 494.715 889.241 496.615 Q 891.041 497.775 891.761 499.585 Q 892.381 501.145 891.421 503.115 Q 889.311 507.425 885.991 510.975 Q 884.191 512.905 886.701 513.735 Q 888.791 514.435 889.781 516.165 Q 890.261 516.995 890.591 519.755 Q 890.971 522.825 892.131 525.735 Q 892.701 527.155 891.191 526.905 Q 889.571 526.645 888.011 526.955 Q 885.921 527.365 885.261 527.755 Q 883.881 528.575 884.191 530.905 Q 884.541 533.585 883.421 536.755 C 883.312 537.056 883.09 537.304 882.801 537.445 Q 880.921 538.335 879.271 538.205 C 878.858 538.171 878.45 538.314 878.149 538.598 C 877.847 538.882 877.681 539.281 877.691 539.695 Q 877.721 541.565 876.411 542.225 C 876.118 542.296 875.799 542.247 875.561 542.095 Q 873.621 540.685 871.881 542.595 Q 866.891 548.055 865.691 551.155 Q 864.431 554.425 861.931 555.125 Q 854.851 557.105 848.461 555.585 Q 846.561 555.135 845.411 556.705 Q 843.691 559.055 841.251 558.595 Q 838.531 558.075 833.611 555.155 C 833.359 555.03 833.041 555.076 832.851 555.265 L 830.491 558.625 C 829.98 559.369 828.97 559.778 827.951 559.655 Q 825.411 558.815 822.911 557.875 Q 822.841 557.845 820.401 557.135 Q 816.911 556.115 815.991 552.455 C 815.952 552.195 815.684 552.006 815.381 552.025 L 809.411 553.475 C 809.103 553.523 808.776 553.523 808.471 553.475 Q 805.621 552.265 804.181 549.575 C 803.955 549.148 803.506 548.885 803.021 548.895 Q 798.661 548.985 794.651 548.785 Q 791.851 548.655 790.501 547.605 Q 788.661 546.195 788.131 543.615 Q 787.721 541.645 785.251 541.655 Q 783.261 541.665 783.681 539.725 Q 783.961 538.405 783.501 537.385 Q 783.281 536.905 781.921 535.865 Q 780.161 534.525 780.011 532.215 Q 779.991 531.825 780.231 531.275 Q 780.701 530.205 780.331 529.165 C 780.23 528.899 779.964 528.694 779.631 528.625 Q 773.751 527.455 768.221 522.985 Q 767.751 522.595 768.321 522.385 Q 771.921 521.065 774.381 518.865 C 775.137 518.195 775.282 517.073 774.721 516.235 Q 772.501 512.895 768.531 510.825 Q 766.701 509.865 768.181 508.415 Q 770.281 506.355 770.481 503.465 C 770.46 503.153 770.589 502.848 770.841 502.615 Q 774.381 499.065 779.811 498.625 C 780.546 498.538 781.133 497.996 781.251 497.295 L 782.391 491.455 C 782.415 491.167 782.664 490.931 782.991 490.885 L 788.191 490.675 C 788.853 490.639 789.391 490.247 789.481 489.735 L 791.181 479.015 C 791.193 478.621 791.488 478.278 791.921 478.155 Q 795.521 477.405 799.191 477.605 Q 801.951 477.755 803.691 476.025 Q 805.321 474.395 805.971 474.165 Q 807.441 473.625 809.061 473.885 Q 811.371 474.255 811.851 471.965 Q 812.831 467.235 815.561 463.865 Q 816.821 462.305 818.801 462.635 Q 823.481 463.395 825.311 459.425 Q 828.421 452.665 831.271 448.225 Q 832.931 445.635 832.451 448.675 Q 831.271 456.245 836.291 452.955 Q 839.811 450.655 843.211 448.175 Q 844.101 447.525 844.141 448.255 Q 844.161 448.535 843.941 448.865 Q 841.641 452.245 841.681 455.955 C 841.687 456.253 841.841 456.529 842.091 456.691 C 842.341 456.853 842.656 456.881 842.931 456.765 Q 847.681 454.755 851.501 451.715 Q 854.581 449.265 852.631 452.845 Q 851.411 455.065 851.681 457.085 C 851.809 458.03 852.654 458.777 853.731 458.895 L 859.431 459.515 C 859.892 459.587 860.286 459.845 860.493 460.209 C 860.7 460.573 860.695 461.002 860.481 461.365 Q 859.971 463.265 860.641 464.115 Q 860.861 464.395 862.691 465.235 Q 864.991 466.275 867.451 466.905 C 868.004 467.048 868.407 467.52 868.461 468.085 Q 868.771 471.505 872.271 471.955 C 872.47 471.98 872.649 472.09 872.762 472.257 C 872.875 472.423 872.911 472.63 872.861 472.825 Q 871.891 476.485 875.501 476.365 Q 880.861 476.175 884.821 479.575 C 885.062 479.777 885.173 480.09 885.111 480.395 L 884.591 483.355 C 884.344 483.658 884.412 484.024 884.761 484.275 L 888.461 488.815 Z " fill="rgb(255,181,36)"/></g></svg>