<?xml version="1.0" encoding="UTF-8" standalone="no"?><!-- Generator: Gravit.io --><svg xmlns="http://www.w3.org/2000/svg" xmlns:xlink="http://www.w3.org/1999/xlink" style="isolation:isolate" viewBox="782.603 449.96 106.785 110.059" width="106.785pt" height="110.059pt"><defs><clipPath id="_clipPath_FoxZJ3u7KuTc6j1xCjxxcwcK68u5kDz1"><rect x="782.603" y="449.96" width="106.785" height="110.059"/></clipPath></defs><g clip-path="url(#_clipPath_FoxZJ3u7KuTc6j1xCjxxcwcK68u5kDz1)"><path d=" M 818.835 485.366 Q 817.595 487.426 816.095 489.306 Q 814.215 491.656 813.475 493.256 Q 811.835 496.826 810.965 500.686 C 810.941 501.002 810.752 501.293 810.445 501.486 Q 808.995 502.466 807.085 502.116 Q 806.805 500.106 804.835 501.636 C 804.615 501.81 804.322 501.863 804.055 501.777 C 803.788 501.691 803.581 501.476 803.505 501.206 Q 802.855 498.976 805.745 498.236 C 806.128 498.147 806.45 497.898 806.626 497.557 C 806.801 497.215 806.812 496.816 806.655 496.466 L 805.755 494.366 Q 806.785 490.276 811.545 489.366 Q 812.925 489.106 813.545 487.156 Q 815.625 484.366 818.835 485.366 Z " fill="rgb(255,209,36)"/><path d=" M 869.335 499.606 Q 865.875 499.606 864.295 497.366 Q 863.345 496.006 862.735 495.396 C 862.201 495.187 862 494.859 862.225 494.566 L 861.805 492.286 Q 866.465 490.266 869.355 493.056 Q 870.755 494.416 870.785 496.166 Q 870.805 498.106 869.335 499.606 Z " fill="rgb(255,209,36)"/><path d=" M 865.795 505.076 Q 860.935 505.716 860.115 511.996 C 860.07 512.331 860.161 512.67 860.368 512.936 C 860.574 513.203 860.88 513.376 861.215 513.416 Q 865.745 513.946 868.925 509.716 Q 868.435 515.646 862.855 518.196 Q 857.625 516.786 857.875 511.606 Q 858.105 506.826 862.215 502.986 C 862.73 502.625 863.462 502.682 863.905 503.116 L 865.795 505.076 Z " fill="rgb(254,198,35)"/><path d=" M 840.545 541.326 Q 837.275 539.216 840.295 536.406 Q 842.945 533.966 846.355 535.306 Q 849.725 536.616 847.485 539.556 Q 844.845 543.016 840.545 541.326 Z " fill="rgb(254,198,35)"/><path d=" M 878.295 511.156 Q 877.905 511.256 877.625 511.486 C 877.334 511.698 877.262 512.061 877.455 512.346 L 879.045 516.326 Q 877.985 517.416 876.635 517.526 Q 874.315 517.726 874.115 517.796 Q 871.275 518.756 869.045 520.826 Q 866.495 522.316 865.585 525.116 Q 863.545 525.116 861.935 526.306 C 861.664 526.492 861.566 526.814 861.695 527.096 Q 862.535 530.056 860.215 531.036 Q 858.075 531.936 857.985 531.986 Q 854.255 534.226 850.925 537.036 C 850.672 537.252 850.515 537.548 850.485 537.866 Q 849.825 542.886 845.795 546.076 Q 842.055 546.996 839.295 546.616 Q 837.525 546.376 837.365 544.676 C 837.31 544.366 837.445 544.053 837.725 543.846 L 840.545 541.326 Q 844.845 543.016 847.485 539.556 Q 849.725 536.616 846.355 535.306 Q 842.945 533.966 840.295 536.406 L 834.235 536.766 C 833.927 536.799 833.674 537.008 833.605 537.286 Q 832.825 539.826 830.555 541.076 C 830.44 541.129 830.308 541.133 830.189 541.088 C 830.071 541.042 829.979 540.951 829.935 540.836 Q 828.785 538.026 826.235 537.426 Q 823.975 536.896 814.855 536.096 C 814.528 536.023 814.265 535.838 814.145 535.596 L 813.535 534.576 C 813.43 534.351 813.143 534.164 812.755 534.066 Q 811.515 533.696 810.855 532.556 Q 809.675 530.486 810.045 528.866 Q 810.595 526.436 808.545 525.326 Q 807.095 522.676 804.985 521.676 Q 800.695 519.636 798.075 516.476 Q 797.255 515.486 796.475 514.776 Q 795.785 514.146 795.135 513.476 C 794.909 513.251 794.799 512.939 794.835 512.626 Q 795.385 506.656 799.855 503.676 Q 801.775 502.396 800.175 501.416 C 799.785 501.246 799.54 501.001 799.495 500.736 Q 798.655 499.046 798.295 496.116 Q 797.975 493.536 795.495 491.376 C 795.233 491.189 795.136 490.868 795.255 490.586 Q 796.255 487.666 798.875 487.876 Q 800.645 488.026 802.705 488.926 Q 805.915 490.326 805.755 494.366 L 806.655 496.466 C 806.812 496.816 806.801 497.215 806.626 497.557 C 806.45 497.898 806.128 498.147 805.745 498.236 Q 802.855 498.976 803.505 501.206 C 803.581 501.476 803.788 501.691 804.055 501.777 C 804.322 501.863 804.615 501.81 804.835 501.636 Q 806.805 500.106 807.085 502.116 Q 806.685 504.216 807.295 506.326 Q 801.705 510.456 806.795 514.656 Q 811.745 519.376 816.655 524.136 Q 817.165 524.636 819.405 525.936 Q 821.445 527.116 822.065 529.816 Q 825.855 532.126 827.855 533.056 Q 830.035 534.056 831.655 532.416 C 831.873 532.201 832.165 532.057 832.485 532.006 Q 835.985 531.636 839.385 530.826 Q 841.705 530.266 844.795 530.206 Q 849.375 530.116 853.595 528.366 Q 858.545 526.626 857.755 521.366 L 862.855 518.196 Q 868.435 515.646 868.925 509.716 L 866.005 505.116 L 864.965 502.986 C 864.744 502.755 864.68 502.443 864.794 502.163 C 864.909 501.883 865.186 501.675 865.525 501.616 Q 867.755 501.296 869.335 499.606 Q 870.805 498.106 870.785 496.166 Q 870.755 494.416 869.355 493.056 Q 866.465 490.266 861.805 492.286 Q 859.495 488.886 858.605 484.886 Q 858.015 482.206 857.145 480.716 Q 856.005 478.776 854.695 476.936 Q 853.655 475.486 853.915 474.406 Q 854.205 473.186 855.315 471.846 C 855.548 471.567 855.884 471.392 856.247 471.362 C 856.609 471.332 856.969 471.449 857.245 471.686 Q 858.385 472.666 859.595 473.566 Q 861.755 475.176 861.995 477.636 Q 862.015 477.836 861.605 480.416 Q 861.355 482.006 862.085 483.316 Q 862.855 484.676 865.255 485.366 Q 868.215 486.226 869.295 486.366 Q 871.585 486.656 873.225 488.036 Q 874.265 488.916 876.175 490.886 Q 879.645 494.466 876.995 499.416 Q 876.225 500.856 876.555 502.456 Q 876.955 504.406 876.545 505.426 C 876.368 505.71 876.343 506.038 876.475 506.336 Q 876.835 507.536 875.985 508.366 C 875.542 508.575 875.353 508.878 875.485 509.166 Q 874.935 511.906 878.295 511.156 Z " fill="rgb(255,123,15)"/><path d=" M 831.055 470.236 Q 834.725 472.746 836.425 475.966 C 836.548 476.196 836.757 476.367 837.007 476.442 C 837.257 476.517 837.526 476.49 837.755 476.366 Q 841.485 474.346 843.635 477.746 Q 845.185 480.196 846.065 478.026 C 846.121 477.736 846.336 477.47 846.665 477.286 Q 849.675 475.536 851.795 477.866 Q 853.545 479.786 854.685 483.746 Q 854.705 483.816 855.095 486.526 Q 855.355 488.336 856.615 490.366 C 857.005 490.986 857.144 491.729 857.005 492.446 Q 856.585 494.696 854.495 494.036 Q 848.305 492.096 850.625 486.296 Q 851.475 484.166 849.215 484.546 Q 846.965 484.926 845.785 483.576 Q 845.405 483.146 845.025 482.996 Q 843.725 482.486 842.415 482.016 Q 841.515 481.696 839.995 480.726 Q 837.285 479.006 834.605 480.176 Q 831.845 481.386 829.615 481.326 Q 826.555 481.256 826.445 481.266 Q 823.725 481.556 821.045 482.156 Q 818.915 481.496 820.295 479.866 Q 823.185 476.476 831.055 470.236 Z " fill="rgb(254,215,34)"/><path d=" M 807.295 506.326 L 807.545 506.326 Q 808.785 506.146 809.805 506.596 Q 810.625 506.966 811.155 508.196 Q 811.835 509.806 812.675 511.426 C 812.874 511.821 812.784 512.3 812.455 512.596 Q 809.975 514.786 806.795 514.656 Q 801.705 510.456 807.295 506.326 Z " fill="rgb(254,215,34)"/><path d=" M 817.515 515.296 Q 819.785 520.236 824.985 521.446 Q 825.315 521.526 825.935 521.356 L 832.455 519.626 C 833.479 519.592 834.465 519.936 835.095 520.546 L 838.895 524.346 C 839.1 524.553 839.104 524.884 838.905 525.096 Q 832.525 531.856 824.555 529.206 Q 823.635 527.446 824.285 525.756 C 824.573 525.635 824.745 525.466 824.762 525.289 C 824.779 525.111 824.639 524.941 824.375 524.816 Q 824.075 524.076 823.035 524.246 C 822.719 524.285 822.398 524.236 822.115 524.106 L 813.965 519.786 C 813.203 519.428 812.879 518.559 813.235 517.826 Q 815.505 512.736 817.515 515.296 Z " fill="rgb(254,215,34)"/><path d=" M 869.045 520.826 Q 876.525 523.186 870.805 526.796 Q 869.185 527.816 867.975 527.756 Q 865.975 527.656 865.585 525.116 Q 866.495 522.316 869.045 520.826 Z " fill="rgb(254,215,34)"/><path d=" M 865.795 505.076 L 866.005 505.116 L 868.925 509.716 Q 865.745 513.946 861.215 513.416 C 860.88 513.376 860.574 513.203 860.368 512.936 C 860.161 512.67 860.07 512.331 860.115 511.996 Q 860.935 505.716 865.795 505.076 Z " fill="rgb(254,216,49)"/><path d=" M 857.755 521.366 Q 858.545 526.626 853.595 528.366 Q 852.245 527.426 850.995 527.116 Q 846.705 526.066 849.675 522.506 Q 850.925 521.026 852.545 520.076 Q 854.005 519.236 855.295 519.576 Q 856.775 519.966 857.755 521.366 Z " fill="rgb(254,216,49)"/><path d=" M 831.055 470.236 Q 823.185 476.476 820.295 479.866 Q 818.915 481.496 821.045 482.156 Q 820.585 484.216 818.835 485.366 Q 815.625 484.366 813.545 487.156 Q 813.615 485.366 815.485 484.966 Q 817.485 484.546 817.505 482.876 Q 817.525 480.686 817.615 480.386 Q 820.405 470.816 831.055 470.236 Z " fill="rgb(253,172,25)"/><path d=" M 817.515 515.296 Q 815.505 512.736 813.235 517.826 C 812.879 518.559 813.203 519.428 813.965 519.786 L 822.115 524.106 C 822.398 524.236 822.719 524.285 823.035 524.246 Q 824.075 524.076 824.375 524.816 C 824.639 524.941 824.779 525.111 824.762 525.289 C 824.745 525.466 824.573 525.635 824.285 525.756 Q 823.635 527.446 824.555 529.206 Q 823.555 528.876 822.065 529.816 Q 821.445 527.116 819.405 525.936 Q 817.165 524.636 816.655 524.136 Q 811.745 519.376 806.795 514.656 Q 809.975 514.786 812.455 512.596 C 812.784 512.3 812.874 511.821 812.675 511.426 Q 811.835 509.806 811.155 508.196 Q 810.625 506.966 809.805 506.596 Q 808.785 506.146 807.545 506.326 Q 809.145 504.426 810.735 505.676 Q 811.755 506.486 814.495 510.206 C 814.684 510.453 814.981 510.607 815.305 510.626 Q 820.765 510.846 817.515 515.296 Z " fill="rgb(253,172,25)"/><path d=" M 808.545 525.326 Q 810.595 526.436 810.045 528.866 Q 809.675 530.486 810.855 532.556 Q 811.515 533.696 812.755 534.066 C 813.143 534.164 813.43 534.351 813.535 534.576 L 814.145 535.596 C 814.265 535.838 814.528 536.023 814.855 536.096 Q 823.975 536.896 826.235 537.426 Q 828.785 538.026 829.935 540.836 C 829.979 540.951 830.071 541.042 830.189 541.088 C 830.308 541.133 830.44 541.129 830.555 541.076 Q 832.825 539.826 833.605 537.286 C 833.674 537.008 833.927 536.799 834.235 536.766 L 840.295 536.406 Q 837.275 539.216 840.545 541.326 L 837.725 543.846 C 837.445 544.053 837.31 544.366 837.365 544.676 Q 837.525 546.376 839.295 546.616 Q 842.055 546.996 845.795 546.076 Q 850.705 547.946 847.395 551.506 C 847.182 551.736 847.093 552.051 847.155 552.356 Q 847.545 554.326 846.755 556.166 Q 846.565 556.616 846.595 557.116 Q 846.755 559.536 844.735 558.596 Q 844.405 558.446 844.035 557.946 Q 843.195 556.816 841.545 557.156 Q 837.055 558.436 836.365 554.116 C 836.321 553.809 836.154 553.527 835.895 553.326 Q 834.885 552.476 834.745 551.176 C 834.738 551.058 834.679 550.948 834.583 550.875 C 834.488 550.802 834.364 550.773 834.245 550.796 Q 830.665 551.536 828.355 548.556 Q 827.815 547.846 824.985 548.556 Q 821.085 549.516 819.055 546.356 L 818.595 543.676 C 818.572 543.577 818.498 543.495 818.397 543.459 C 818.296 543.423 818.183 543.437 818.095 543.496 Q 816.345 544.836 814.105 544.826 C 813.772 544.777 813.48 544.628 813.295 544.416 Q 812.325 543.346 811.765 544.706 C 811.661 544.983 811.412 545.191 811.105 545.256 Q 808.895 545.636 806.795 546.396 Q 804.285 547.316 803.165 547.096 Q 800.805 546.626 800.515 543.676 Q 800.245 540.906 801.335 538.366 Q 803.235 538.326 804.815 537.336 C 805.113 537.158 805.267 536.853 805.215 536.546 Q 805.195 535.366 805.485 534.256 Q 805.705 533.436 806.595 532.316 Q 807.585 531.066 808.275 529.626 C 808.399 529.377 808.301 529.075 808.055 528.946 Q 805.495 527.616 802.545 527.866 Q 800.095 528.076 801.295 525.116 Q 802.545 522.046 805.545 523.456 C 805.915 523.622 806.137 523.882 806.145 524.156 Q 806.755 525.606 808.545 525.326 Z " fill="rgb(253,172,25)"/><path d=" M 878.295 511.156 Q 874.935 511.906 875.485 509.166 C 875.353 508.878 875.542 508.575 875.985 508.366 Q 876.835 507.536 876.475 506.336 C 876.343 506.038 876.368 505.71 876.545 505.426 Q 876.955 504.406 876.555 502.456 Q 876.225 500.856 876.995 499.416 Q 879.645 494.466 876.175 490.886 Q 874.265 488.916 873.225 488.036 Q 871.585 486.656 869.295 486.366 Q 868.215 486.226 865.255 485.366 Q 862.855 484.676 862.085 483.316 Q 861.355 482.006 861.605 480.416 Q 862.015 477.836 861.995 477.636 Q 861.755 475.176 859.595 473.566 Q 858.385 472.666 857.245 471.686 C 856.969 471.449 856.609 471.332 856.247 471.362 C 855.884 471.392 855.548 471.567 855.315 471.846 Q 854.205 473.186 853.915 474.406 Q 853.655 475.486 854.695 476.936 Q 856.005 478.776 857.145 480.716 Q 858.015 482.206 858.605 484.886 Q 859.495 488.886 861.805 492.286 L 862.225 494.566 C 862 494.859 862.201 495.187 862.735 495.396 Q 863.345 496.006 864.295 497.366 Q 865.875 499.606 869.335 499.606 Q 867.755 501.296 865.525 501.616 C 865.186 501.675 864.909 501.883 864.794 502.163 C 864.68 502.443 864.744 502.755 864.965 502.986 L 866.005 505.116 L 865.795 505.076 L 863.905 503.116 C 863.462 502.682 862.73 502.625 862.215 502.986 Q 858.105 506.826 857.875 511.606 Q 857.625 516.786 862.855 518.196 L 857.755 521.366 Q 856.775 519.966 855.295 519.576 Q 854.005 519.236 852.545 520.076 Q 850.925 521.026 849.675 522.506 Q 846.705 526.066 850.995 527.116 Q 852.245 527.426 853.595 528.366 Q 849.375 530.116 844.795 530.206 Q 841.705 530.266 839.385 530.826 Q 835.985 531.636 832.485 532.006 C 832.165 532.057 831.873 532.201 831.655 532.416 Q 830.035 534.056 827.855 533.056 Q 825.855 532.126 822.065 529.816 Q 823.555 528.876 824.555 529.206 Q 832.525 531.856 838.905 525.096 C 839.104 524.884 839.1 524.553 838.895 524.346 L 835.095 520.546 C 834.465 519.936 833.479 519.592 832.455 519.626 L 825.935 521.356 Q 825.315 521.526 824.985 521.446 Q 819.785 520.236 817.515 515.296 Q 820.765 510.846 815.305 510.626 C 814.981 510.607 814.684 510.453 814.495 510.206 Q 811.755 506.486 810.735 505.676 Q 809.145 504.426 807.545 506.326 L 807.295 506.326 Q 806.685 504.216 807.085 502.116 Q 808.995 502.466 810.445 501.486 C 810.752 501.293 810.941 501.002 810.965 500.686 Q 811.835 496.826 813.475 493.256 Q 814.215 491.656 816.095 489.306 Q 817.595 487.426 818.835 485.366 Q 820.585 484.216 821.045 482.156 Q 823.725 481.556 826.445 481.266 Q 826.555 481.256 829.615 481.326 Q 831.845 481.386 834.605 480.176 Q 837.285 479.006 839.995 480.726 Q 841.515 481.696 842.415 482.016 Q 843.725 482.486 845.025 482.996 Q 845.405 483.146 845.785 483.576 Q 846.965 484.926 849.215 484.546 Q 851.475 484.166 850.625 486.296 Q 848.305 492.096 854.495 494.036 Q 856.585 494.696 857.005 492.446 C 857.144 491.729 857.005 490.986 856.615 490.366 Q 855.355 488.336 855.095 486.526 Q 854.705 483.816 854.685 483.746 Q 853.545 479.786 851.795 477.866 Q 849.675 475.536 846.665 477.286 C 846.336 477.47 846.121 477.736 846.065 478.026 Q 845.185 480.196 843.635 477.746 Q 841.485 474.346 837.755 476.366 C 837.526 476.49 837.257 476.517 837.007 476.442 C 836.757 476.367 836.548 476.196 836.425 475.966 Q 834.725 472.746 831.055 470.236 Q 820.405 470.816 817.615 480.386 Q 817.525 480.686 817.505 482.876 Q 817.485 484.546 815.485 484.966 Q 813.615 485.366 813.545 487.156 Q 812.925 489.106 811.545 489.366 Q 806.785 490.276 805.755 494.366 Q 805.915 490.326 802.705 488.926 Q 800.645 488.026 798.875 487.876 Q 796.255 487.666 795.255 490.586 C 795.136 490.868 795.233 491.189 795.495 491.376 Q 797.975 493.536 798.295 496.116 Q 798.655 499.046 799.495 500.736 C 799.54 501.001 799.785 501.246 800.175 501.416 Q 801.775 502.396 799.855 503.676 Q 795.385 506.656 794.835 512.626 C 794.799 512.939 794.909 513.251 795.135 513.476 Q 795.785 514.146 796.475 514.776 Q 797.255 515.486 798.075 516.476 Q 800.695 519.636 804.985 521.676 Q 807.095 522.676 808.545 525.326 Q 806.755 525.606 806.145 524.156 C 806.137 523.882 805.915 523.622 805.545 523.456 Q 802.545 522.046 801.295 525.116 Q 800.095 528.076 802.545 527.866 Q 805.495 527.616 808.055 528.946 C 808.301 529.075 808.399 529.377 808.275 529.626 Q 807.585 531.066 806.595 532.316 Q 805.705 533.436 805.485 534.256 Q 805.195 535.366 805.215 536.546 C 805.267 536.853 805.113 537.158 804.815 537.336 Q 803.235 538.326 801.335 538.366 Q 801.485 535.456 802.665 532.936 C 802.943 532.353 802.795 531.656 802.305 531.236 Q 797.275 526.946 794.965 520.836 C 794.864 520.553 794.605 520.348 794.295 520.306 Q 792.095 520.086 788.985 520.556 Q 785.435 521.086 782.935 518.426 C 782.705 518.187 782.586 517.87 782.605 517.546 Q 782.725 514.786 785.825 513.486 C 786.29 513.289 786.509 512.753 786.315 512.286 Q 784.835 508.776 789.155 507.096 C 789.999 506.773 790.55 505.963 790.535 505.066 Q 790.525 503.226 792.515 500.846 Q 794.665 498.276 791.855 496.556 Q 789.155 494.896 789.795 492.866 L 791.815 486.496 C 791.965 486.195 791.836 485.85 791.505 485.666 Q 787.665 482.586 789.005 478.416 Q 789.695 476.266 791.285 475.346 Q 793.205 474.226 795.545 475.366 Q 797.045 476.096 797.755 476.386 C 798.042 476.502 798.371 476.439 798.595 476.226 Q 800.195 474.746 801.445 472.986 Q 803.125 470.636 804.395 469.996 Q 807.785 468.266 812.175 469.746 Q 814.095 470.396 813.675 468.406 Q 812.845 464.476 816.545 462.826 Q 820.485 463.896 820.375 460.046 Q 820.305 457.546 822.235 456.056 C 824.81 456.132 827.302 455.76 827.802 455.224 C 828.301 454.689 826.62 454.192 824.045 454.116 Q 824.995 447.956 830.235 450.926 Q 831.615 451.716 832.515 453.836 Q 833.335 455.766 834.375 456.846 Q 835.365 457.866 836.325 458.916 Q 836.405 459.006 837.865 461.126 Q 839.345 463.256 841.895 462.046 Q 841.935 462.026 844.005 460.446 Q 845.945 458.966 847.985 460.426 Q 850.855 462.496 853.555 460.106 Q 854.945 458.886 856.175 460.256 Q 857.855 462.136 859.815 460.136 Q 862.345 457.566 865.515 458.036 Q 867.815 458.376 868.025 460.686 Q 868.345 464.036 866.535 466.626 Q 865.075 468.716 867.435 469.686 Q 870.385 470.896 871.525 473.996 Q 871.895 475.016 871.675 475.766 Q 871.395 476.686 870.515 477.286 Q 869.055 478.266 870.715 478.926 L 873.925 480.186 Q 875.725 480.886 876.135 482.936 Q 877.195 488.196 881.545 487.366 Q 883.255 487.036 885.245 487.576 Q 887.255 488.116 888.395 489.326 Q 890.415 491.486 888.325 494.046 Q 887.835 494.646 886.045 495.916 Q 885.025 496.646 884.135 497.516 C 883.898 497.733 883.834 498.059 883.975 498.336 Q 885.015 501.376 881.975 502.806 Q 879.785 503.836 881.105 505.856 Q 883.965 510.286 878.295 511.156 Z " fill="rgb(254,144,17)"/><path d=" M 879.045 516.326 Q 881.095 517.876 880.655 521.516 C 880.615 521.834 880.734 522.152 880.975 522.366 Q 883.095 524.236 883.385 526.376 Q 883.745 528.966 881.645 530.026 Q 879.675 531.036 876.465 529.646 Q 874.765 528.916 874.025 530.616 Q 872.875 533.266 869.035 534.026 C 868.749 534.085 868.534 534.319 868.505 534.606 Q 867.895 539.956 861.155 539.846 Q 859.015 539.816 858.455 541.876 Q 857.435 545.636 851.985 548.146 C 851.624 548.31 851.435 548.706 851.535 549.086 Q 852.055 551.146 850.345 551.936 Q 848.595 552.746 848.545 554.676 Q 848.475 557.366 846.915 559.526 C 846.734 559.779 846.44 559.953 846.105 560.006 Q 844.925 560.106 843.885 559.456 C 843.446 559.268 843.222 558.996 843.285 558.726 Q 842.735 557.626 841.545 557.156 Q 843.195 556.816 844.035 557.946 Q 844.405 558.446 844.735 558.596 Q 846.755 559.536 846.595 557.116 Q 846.565 556.616 846.755 556.166 Q 847.545 554.326 847.155 552.356 C 847.093 552.051 847.182 551.736 847.395 551.506 Q 850.705 547.946 845.795 546.076 Q 849.825 542.886 850.485 537.866 C 850.515 537.548 850.672 537.252 850.925 537.036 Q 854.255 534.226 857.985 531.986 Q 858.075 531.936 860.215 531.036 Q 862.535 530.056 861.695 527.096 C 861.566 526.814 861.664 526.492 861.935 526.306 Q 863.545 525.116 865.585 525.116 Q 865.975 527.656 867.975 527.756 Q 869.185 527.816 870.805 526.796 Q 876.525 523.186 869.045 520.826 Q 871.275 518.756 874.115 517.796 Q 874.315 517.726 876.635 517.526 Q 877.985 517.416 879.045 516.326 Z " fill="rgb(254,144,17)"/><path d=" M 821.615 500.366 Q 819.875 503.716 821.875 506.736 Q 822.635 507.886 823.545 508.066 Q 824.635 508.286 825.845 507.396 C 826.21 507.133 826.715 507.171 827.035 507.486 L 831.045 511.496 C 831.161 511.611 831.217 511.773 831.198 511.935 C 831.178 512.098 831.085 512.242 830.945 512.326 Q 823.295 516.936 821.875 508.356 C 821.818 508.04 821.652 507.753 821.405 507.546 Q 817.305 504.226 816.735 502.926 Q 815.385 499.856 817.725 497.546 Q 820.935 494.366 825.545 494.866 Q 828.435 495.186 828.295 497.866 Q 828.115 501.126 831.345 500.406 Q 832.575 500.136 832.075 501.296 Q 830.935 503.916 828.205 504.896 Q 827.205 505.256 827.585 504.266 Q 828.125 502.846 827.935 501.296 C 827.897 500.973 827.737 500.676 827.485 500.466 Q 825.125 498.476 822.315 499.706 C 822.015 499.844 821.769 500.076 821.615 500.366 L 821.615 500.366 Z " fill="rgb(254,232,38)"/><path d=" M 853.935 468.836 Q 851.215 472.436 847.955 471.796 Q 845.625 471.326 845.585 469.186 C 845.577 468.887 845.79 468.624 846.095 468.556 Q 849.035 467.876 853.685 468.276 Q 854.315 468.336 853.935 468.836 Z " fill="rgb(254,198,35)"/><path d=" M 825.565 493.246 Q 820.415 489.356 826.545 486.366 Q 829.265 485.046 831.205 487.766 C 831.394 488.031 831.489 488.351 831.475 488.676 Q 831.305 492.136 828.225 493.536 C 827.351 493.926 826.333 493.815 825.565 493.246 L 825.565 493.246 Z " fill="rgb(254,215,34)"/><path d=" M 844.485 494.776 C 844.484 494.536 844.375 494.31 844.19 494.159 C 844.004 494.008 843.76 493.948 843.525 493.996 Q 837.995 495.106 835.585 493.596 Q 833.595 492.366 834.035 490.076 Q 834.575 487.206 836.715 486.816 Q 838.225 486.536 840.375 487.036 Q 842.505 487.536 843.785 489.446 C 844.054 489.71 844.107 490.054 843.925 490.356 Q 843.575 492.316 845.595 492.626 Q 849.065 493.166 851.015 495.946 C 851.27 496.216 851.373 496.543 851.305 496.866 Q 851.425 499.256 852.755 501.216 C 852.937 501.472 852.975 501.798 852.855 502.086 Q 852.515 502.986 852.375 503.936 Q 852.285 504.596 852.625 505.756 Q 853.285 508.016 852.165 510.206 Q 849.955 514.556 846.595 517.986 Q 844.995 519.626 843.375 519.516 Q 841.545 519.396 839.735 517.926 Q 836.875 515.616 839.225 513.496 C 839.454 513.347 839.766 513.251 840.105 513.226 L 846.805 513.166 C 847.238 513.147 847.625 512.913 847.818 512.554 C 848.011 512.196 847.979 511.768 847.735 511.436 L 845.265 506.566 C 845.14 506.314 845.237 506.009 845.485 505.876 Q 847.325 504.846 849.025 503.606 Q 850.515 502.516 849.615 501.246 C 849.438 501.045 849.123 501.014 848.905 501.176 Q 847.565 502.216 846.115 503.096 Q 843.895 504.446 844.865 502.936 Q 845.355 502.186 846.915 500.676 C 847.117 500.48 847.226 500.207 847.212 499.925 C 847.199 499.644 847.065 499.382 846.845 499.206 Q 844.475 497.286 844.485 494.776 Z " fill="rgb(254,215,34)"/><path d=" M 808.875 478.056 Q 811.365 478.646 810.825 481.146 Q 809.725 486.196 802.715 485.056 C 802.341 484.996 802.019 484.759 801.852 484.421 C 801.685 484.083 801.694 483.686 801.875 483.356 Q 802.885 481.496 803.745 480.116 Q 805.525 477.276 808.875 478.056 Z " fill="rgb(254,216,49)"/><path d=" M 834.655 501.376 C 834.261 501.134 834.012 500.712 833.99 500.25 C 833.968 499.788 834.176 499.345 834.545 499.066 Q 835.915 498.036 837.795 499.116 Q 838.465 499.496 841.355 499.756 C 841.499 499.768 841.632 499.833 841.724 499.936 C 841.817 500.039 841.86 500.173 841.845 500.306 Q 841.695 501.886 840.105 501.956 Q 838.745 502.016 838.015 502.116 Q 836.275 502.366 834.655 501.376 Z " fill="rgb(254,216,49)"/><path d=" M 835.115 511.246 Q 832.805 509.106 830.715 508.536 C 830.359 508.437 830.066 508.28 829.875 508.086 Q 828.965 507.106 830.575 507.506 Q 832.975 508.086 834.905 506.676 C 835.141 506.512 835.449 506.4 835.785 506.356 Q 837.875 506.366 839.825 507.706 C 840.109 507.833 840.27 508.09 840.23 508.354 C 840.19 508.619 839.958 508.838 839.645 508.906 L 835.885 511.266 C 835.648 511.396 835.341 511.388 835.115 511.246 Z " fill="rgb(254,216,49)"/></g></svg>