<?xml version="1.0" encoding="UTF-8" standalone="no"?><!-- Generator: Gravit.io --><svg xmlns="http://www.w3.org/2000/svg" xmlns:xlink="http://www.w3.org/1999/xlink" style="isolation:isolate" viewBox="55.478 131.619 268.51 223.161" width="268.51pt" height="223.161pt"><defs><clipPath id="_clipPath_DPumeLPjWcI825QXOxw3P8K0sP4OAcQ2"><rect x="55.478" y="131.619" width="268.51" height="223.161"/></clipPath></defs><g clip-path="url(#_clipPath_DPumeLPjWcI825QXOxw3P8K0sP4OAcQ2)"><path d=" M 168.063 155.279 Q 169.953 166.519 160.993 172.449 Q 156.513 175.409 153.553 178.469 Q 149.493 182.419 145.613 186.569 Q 142.273 190.149 137.313 188.319 Q 135.903 187.799 135.783 187.759 Q 131.503 186.359 130.613 185.949 Q 126.753 184.179 123.233 185.049 Q 121.313 185.519 119.653 187.549 Q 118.213 189.309 116.903 191.159 C 116.745 191.413 116.477 191.62 116.143 191.749 Q 114.013 192.449 112.763 190.509 Q 114.933 187.179 117.073 183.839 Q 120.243 178.849 119.853 173.079 Q 119.533 168.489 119.533 168.419 Q 119.813 157.259 127.003 149.769 Q 131.803 144.779 138.823 142.689 Q 145.723 140.629 152.973 141.659 Q 158.453 142.439 161.993 145.519 Q 166.423 149.359 168.063 155.279 Z " fill="rgb(255,211,38)"/><path d=" M 262.553 144.969 Q 269.273 146.039 268.283 153.009 Q 267.593 157.809 264.573 162.059 Q 260.393 159.119 258.363 154.949 Q 254.783 147.539 262.553 144.969 Z " fill="rgb(255,211,38)"/><path d=" M 197.523 144.449 Q 197.973 151.189 201.243 158.319 Q 202.193 160.389 203.483 161.739 Q 204.713 162.999 206.983 163.589 Q 212.813 165.099 218.813 163.819 Q 222.063 163.119 222.593 159.759 Q 227.633 157.849 231.283 161.529 Q 233.033 163.299 235.263 162.259 Q 235.863 169.139 228.913 172.039 C 228.562 172.191 228.391 172.59 228.523 172.949 Q 231.983 182.139 237.723 189.709 Q 238.403 190.599 250.363 203.849 Q 259.233 213.689 267.993 223.629 Q 269.543 225.379 270.023 227.519 Q 271.443 233.799 271.053 238.259 Q 270.503 244.549 265.743 250.199 Q 263.463 252.899 261.063 253.529 Q 257.673 254.419 255.233 256.649 Q 253.473 258.249 250.933 261.429 Q 246.643 266.789 246.243 274.269 Q 245.273 275.779 247.033 278.599 Q 240.423 286.949 232.913 294.519 Q 232.833 294.599 230.653 296.949 Q 227.823 299.989 223.363 302.819 Q 220.923 304.379 218.613 304.039 C 218.47 304.014 218.347 303.936 218.276 303.825 C 218.205 303.713 218.193 303.58 218.243 303.459 Q 218.523 301.919 216.953 301.539 Q 215.123 301.119 213.513 302.049 Q 204.553 307.249 195.163 307.379 Q 193.063 307.399 188.503 306.699 Q 185.173 306.189 181.823 305.879 Q 176.243 305.349 171.893 304.429 Q 163.043 302.549 160.803 302.759 Q 152.733 303.509 146.363 300.199 Q 135.753 294.679 133.643 293.699 Q 130.133 290.819 128.553 290.759 Q 124.153 290.599 120.093 289.009 Q 122.533 281.979 121.903 274.449 L 125.403 276.479 Q 126.793 277.289 126.593 275.599 Q 126.153 271.949 124.453 269.089 Q 120.043 261.699 117.573 253.509 Q 116.213 249.009 116.643 245.899 Q 117.153 242.239 119.243 238.449 Q 121.203 234.869 119.783 230.559 Q 119.063 228.359 119.043 228.299 Q 118.023 224.659 117.053 221.009 Q 116.313 218.229 116.113 221.069 Q 115.813 225.219 113.923 228.909 Q 111.393 233.849 108.113 238.319 Q 105.723 241.589 106.073 246.079 Q 106.183 247.609 107.533 249.989 Q 109.043 252.649 109.863 256.199 Q 111.333 262.539 116.553 267.469 Q 113.533 265.959 110.263 265.319 Q 108.063 264.879 106.493 265.799 Q 104.683 266.859 103.653 268.719 Q 102.813 270.219 102.183 271.589 Q 101.533 272.999 101.303 274.759 Q 100.843 278.309 104.013 279.009 Q 104.383 281.559 103.153 280.389 Q 102.643 279.889 102.383 279.709 Q 99.113 277.339 95.853 274.939 Q 93.953 273.539 95.193 271.539 Q 96.643 269.209 98.523 266.789 Q 100.463 264.279 100.933 262.779 Q 101.663 260.509 101.413 257.999 Q 101.063 254.679 100.753 251.349 Q 100.433 248.049 99.063 246.159 Q 97.403 243.859 94.923 242.279 Q 92.683 240.969 93.303 238.469 Q 94.723 236.469 94.773 234.819 C 94.806 233.881 94.139 233.064 93.213 232.909 Q 85.093 231.549 78.343 234.219 Q 73.943 235.959 72.303 237.439 Q 69.443 240.029 70.343 244.759 Q 70.253 247.009 68.283 249.209 C 67.948 249.5 67.462 249.635 66.983 249.569 L 61.563 248.429 Q 56.783 242.419 61.363 235.569 Q 67.733 226.069 78.373 223.589 Q 78.393 223.579 80.883 223.169 Q 86.523 222.229 89.473 217.189 Q 91.423 213.859 91.903 210.129 Q 92.213 207.709 91.303 206.019 Q 90.283 204.109 88.233 202.869 C 87.848 202.638 87.593 202.243 87.54 201.8 C 87.488 201.356 87.643 200.913 87.963 200.599 Q 89.503 199.039 92.123 198.099 Q 96.513 196.529 99.463 199.379 Q 99.843 199.749 101.233 201.949 Q 102.093 203.299 103.283 204.349 Q 105.253 206.089 105.333 206.169 Q 109.373 210.189 113.743 214.059 Q 115.363 215.499 114.693 213.429 Q 112.493 206.719 110.923 200.289 Q 109.443 194.199 103.243 192.319 Q 97.373 190.539 94.613 189.819 C 94.497 189.797 94.403 189.718 94.366 189.613 C 94.329 189.508 94.354 189.392 94.433 189.309 Q 97.083 186.229 100.993 187.819 Q 102.523 188.449 102.803 187.049 Q 107.543 189.499 112.763 190.509 Q 114.013 192.449 116.143 191.749 C 116.477 191.62 116.745 191.413 116.903 191.159 Q 118.213 189.309 119.653 187.549 Q 121.313 185.519 123.233 185.049 Q 126.753 184.179 130.613 185.949 Q 131.503 186.359 135.783 187.759 Q 135.903 187.799 137.313 188.319 Q 142.273 190.149 145.613 186.569 Q 149.493 182.419 153.553 178.469 Q 156.233 182.689 159.843 186.349 Q 159.133 190.069 158.613 193.319 Q 157.893 197.939 158.813 202.559 C 158.962 203.308 158.676 204.077 158.073 204.549 Q 155.833 206.299 152.633 206.709 Q 149.503 207.119 146.603 208.329 Q 144.953 209.019 144.553 210.759 Q 143.333 216.089 145.063 221.299 Q 145.573 222.839 145.523 223.789 Q 145.433 225.479 144.493 224.079 Q 142.223 220.719 139.133 218.139 C 138.889 217.945 138.574 217.829 138.243 217.809 Q 136.173 217.819 136.003 219.409 Q 135.893 220.409 136.893 221.739 Q 139.383 225.079 142.003 228.329 Q 143.303 229.949 141.933 231.519 Q 138.963 234.899 137.693 239.269 C 137.584 239.585 137.584 239.923 137.693 240.239 Q 139.533 246.789 138.303 253.529 Q 137.943 255.499 138.903 257.259 Q 140.893 260.919 143.643 264.149 Q 146.633 267.659 151.303 267.509 Q 155.483 267.379 161.853 265.519 Q 169.503 263.279 175.393 267.719 Q 177.693 269.449 178.833 270.669 Q 180.483 272.419 181.053 274.759 Q 181.903 278.249 184.803 279.799 L 191.453 283.629 Q 189.053 287.079 191.363 289.699 Q 193.983 292.659 197.243 291.699 Q 204.103 289.669 201.263 282.509 Q 203.603 280.299 201.113 278.699 Q 196.933 275.999 190.263 276.449 Q 194.673 269.979 200.803 269.259 Q 204.893 268.779 206.583 272.199 Q 206.823 272.679 208.033 276.319 Q 208.783 278.539 209.213 280.519 Q 209.893 283.589 213.033 283.509 Q 218.993 283.359 224.363 280.819 Q 228.183 279.019 230.463 276.279 Q 232.363 273.999 232.403 273.959 Q 238.053 267.839 238.993 265.699 Q 240.453 262.379 240.873 258.769 Q 241.743 251.409 242.003 244.009 Q 242.233 237.659 238.313 232.629 C 237.748 231.904 237.744 230.889 238.303 230.159 Q 240.213 227.649 242.923 225.829 Q 244.483 224.769 244.493 222.879 Q 244.573 208.239 235.073 196.239 Q 232.863 193.449 229.303 193.009 Q 226.763 192.689 223.753 192.249 C 223.329 192.18 222.97 191.909 222.801 191.529 C 222.631 191.15 222.673 190.713 222.913 190.369 L 225.863 185.399 Q 226.813 183.799 225.643 182.059 Q 223.903 179.449 221.603 177.759 Q 212.063 170.729 200.563 167.709 Q 194.333 166.069 188.803 167.009 Q 184.763 167.699 177.823 169.749 Q 176.993 162.179 173.883 155.279 Q 182.083 153.889 189.923 155.319 Q 192.663 155.819 194.083 154.979 Q 196.293 153.669 196.553 150.759 Q 196.923 146.529 197.523 144.449 Z " fill="rgb(255,126,27)"/><path d=" M 315.803 184.549 Q 324.593 195.339 316.103 203.509 Q 313.543 205.979 308.693 207.669 Q 301.743 210.099 294.583 211.889 Q 288.673 213.369 283.073 217.679 C 282.842 217.852 282.547 217.919 282.263 217.863 C 281.978 217.808 281.731 217.636 281.583 217.389 L 267.953 194.519 C 267.784 194.25 267.792 193.911 267.973 193.649 Q 269.963 190.689 272.743 190.029 Q 283.983 180.849 298.073 179.119 Q 303.323 178.479 307.413 179.849 Q 311.973 181.379 315.803 184.549 Z " fill="rgb(254,152,40)"/><path d=" M 288.593 225.509 Q 286.093 230.719 290.063 234.699 Q 291.883 235.879 291.303 238.219 Q 290.063 240.289 290.493 243.069 Q 290.663 244.209 290.173 245.929 Q 286.163 247.629 284.233 251.429 Q 282.993 253.869 282.383 254.749 Q 281.643 255.809 280.943 256.879 Q 280.483 257.559 279.423 258.929 Q 276.013 263.319 275.763 269.009 Q 270.633 268.819 264.293 271.979 C 263.947 272.143 263.536 272.1 263.233 271.869 Q 260.693 269.849 257.363 271.319 Q 254.703 272.509 251.553 276.009 Q 249.603 278.189 247.033 278.599 Q 245.273 275.779 246.243 274.269 Q 255.103 268.179 264.363 258.569 Q 270.283 252.439 273.293 245.229 Q 273.863 243.869 277.383 232.799 Q 279.323 226.729 281.013 220.219 C 281.046 220.111 281.128 220.023 281.238 219.976 C 281.348 219.93 281.474 219.931 281.583 219.979 L 286.013 222.149 C 286.335 222.29 286.561 222.527 286.633 222.799 Q 287.193 224.399 288.593 225.509 Z " fill="rgb(238,78,29)"/><path d=" M 307.463 232.569 Q 311.513 239.139 307.973 244.729 Q 306.273 247.409 303.013 248.299 Q 296.313 250.139 290.173 245.929 Q 290.663 244.209 290.493 243.069 Q 290.063 240.289 291.303 238.219 Q 294.573 236.959 297.323 234.769 Q 301.643 231.299 307.463 232.569 Z " fill="rgb(253,147,29)"/><path d=" M 116.553 267.469 Q 119.893 270.849 121.903 274.449 Q 122.533 281.979 120.093 289.009 L 118.053 290.549 L 111.313 291.809 Q 108.743 290.059 105.803 289.969 Q 112.253 286.819 114.993 281.949 Q 117.233 277.939 114.423 274.849 Q 112.963 273.249 111.153 273.019 Q 109.083 272.749 107.283 274.249 Q 104.983 276.169 104.013 279.009 Q 100.843 278.309 101.303 274.759 Q 101.533 272.999 102.183 271.589 Q 102.813 270.219 103.653 268.719 Q 104.683 266.859 106.493 265.799 Q 108.063 264.879 110.263 265.319 Q 113.533 265.959 116.553 267.469 Z " fill="rgb(255,174,35)"/><path d=" M 168.063 155.279 Q 171.513 155.819 173.883 155.279 Q 176.993 162.179 177.823 169.749 Q 170.963 172.719 164.983 177.189 Q 160.163 180.789 159.843 186.349 Q 156.233 182.689 153.553 178.469 Q 156.513 175.409 160.993 172.449 Q 169.953 166.519 168.063 155.279 Z " fill="rgb(254,157,36)"/><path d=" M 93.303 238.469 Q 92.683 240.969 94.923 242.279 Q 93.853 243.809 93.253 245.319 Q 92.393 247.469 91.743 248.349 Q 90.673 249.809 89.503 251.169 Q 88.333 252.529 86.633 253.189 Q 83.673 254.339 80.603 255.189 C 80.274 255.303 80.001 255.492 79.823 255.729 Q 78.633 257.179 76.863 256.199 Q 67.763 251.139 61.563 248.429 L 66.983 249.569 C 67.462 249.635 67.948 249.5 68.283 249.209 Q 70.253 247.009 70.343 244.759 Q 75.843 247.529 82.363 245.069 Q 89.203 242.499 93.303 238.469 Z " fill="rgb(254,157,36)"/><path d=" M 190.263 276.449 Q 196.933 275.999 201.113 278.699 Q 203.603 280.299 201.263 282.509 Q 195.753 279.819 191.453 283.629 L 184.803 279.799 Q 187.943 278.539 190.263 276.449 Z " fill="rgb(254,157,36)"/><path d=" M 219.053 132.219 Q 227.073 137.359 232.083 145.239 Q 233.763 147.889 234.273 151.309 Q 235.063 156.749 235.263 162.259 Q 233.033 163.299 231.283 161.529 Q 227.633 157.849 222.593 159.759 Q 222.543 156.349 224.933 154.089 C 225.193 153.866 225.356 153.573 225.393 153.259 Q 226.643 145.539 220.113 140.949 Q 212.343 135.469 203.593 138.249 Q 210.093 132.529 219.053 132.219 Z " fill="rgb(254,147,37)"/><path d=" M 264.573 162.059 Q 267.593 157.809 268.283 153.009 Q 269.273 146.039 262.553 144.969 Q 269.913 141.279 275.113 146.699 Q 279.053 150.789 276.553 157.009 Q 273.553 164.509 264.573 162.059 Z " fill="rgb(254,147,37)"/><path d=" M 105.803 289.969 Q 108.743 290.059 111.313 291.809 Q 107.853 292.569 104.323 292.739 Q 99.213 292.979 97.303 292.659 Q 93.413 291.999 90.493 288.819 Q 87.183 285.229 86.453 280.279 Q 89.353 282.919 92.433 285.359 Q 92.533 285.439 95.333 288.019 Q 99.573 291.939 105.803 289.969 Z " fill="rgb(254,147,37)"/><path d=" M 120.093 289.009 Q 124.153 290.599 128.553 290.759 Q 130.133 290.819 133.643 293.699 Q 137.073 300.109 139.053 306.519 Q 139.553 308.119 139.123 309.739 Q 138.563 311.879 139.973 312.199 Q 136.133 317.829 130.383 320.599 Q 118.673 326.239 111.033 316.269 Q 115.663 314.759 118.493 312.199 Q 120.843 310.069 123.453 309.189 Q 126.303 308.229 127.173 307.449 Q 129.773 305.149 130.413 301.639 Q 130.863 299.179 130.643 297.989 Q 130.223 295.709 127.123 295.549 Q 122.453 295.299 117.783 294.849 Q 119.373 292.619 118.053 290.549 L 120.093 289.009 Z " fill="rgb(254,147,37)"/><path d=" M 222.593 159.759 Q 222.063 163.119 218.813 163.819 Q 212.813 165.099 206.983 163.589 Q 204.713 162.999 203.483 161.739 Q 202.193 160.389 201.243 158.319 Q 197.973 151.189 197.523 144.449 Q 198.883 140.029 203.593 138.249 Q 212.343 135.469 220.113 140.949 Q 226.643 145.539 225.393 153.259 C 225.356 153.573 225.193 153.866 224.933 154.089 Q 222.543 156.349 222.593 159.759 Z " fill="rgb(255,208,35)"/><path d=" M 190.263 276.449 Q 187.943 278.539 184.803 279.799 Q 181.903 278.249 181.053 274.759 Q 180.483 272.419 178.833 270.669 Q 177.693 269.449 175.393 267.719 Q 169.503 263.279 161.853 265.519 Q 155.483 267.379 151.303 267.509 Q 146.633 267.659 143.643 264.149 Q 140.893 260.919 138.903 257.259 Q 137.943 255.499 138.303 253.529 Q 139.533 246.789 137.693 240.239 C 137.584 239.923 137.584 239.585 137.693 239.269 Q 138.963 234.899 141.933 231.519 Q 143.303 229.949 142.003 228.329 Q 139.383 225.079 136.893 221.739 Q 135.893 220.409 136.003 219.409 Q 136.173 217.819 138.243 217.809 C 138.574 217.829 138.889 217.945 139.133 218.139 Q 142.223 220.719 144.493 224.079 Q 145.433 225.479 145.523 223.789 Q 145.573 222.839 145.063 221.299 Q 143.333 216.089 144.553 210.759 Q 144.953 209.019 146.603 208.329 Q 149.503 207.119 152.633 206.709 Q 155.833 206.299 158.073 204.549 C 158.676 204.077 158.962 203.308 158.813 202.559 Q 157.893 197.939 158.613 193.319 Q 159.133 190.069 159.843 186.349 Q 160.163 180.789 164.983 177.189 Q 170.963 172.719 177.823 169.749 Q 184.763 167.699 188.803 167.009 Q 194.333 166.069 200.563 167.709 Q 212.063 170.729 221.603 177.759 Q 223.903 179.449 225.643 182.059 Q 226.813 183.799 225.863 185.399 L 222.913 190.369 C 222.673 190.713 222.631 191.15 222.801 191.529 C 222.97 191.909 223.329 192.18 223.753 192.249 Q 226.763 192.689 229.303 193.009 Q 232.863 193.449 235.073 196.239 Q 244.573 208.239 244.493 222.879 Q 244.483 224.769 242.923 225.829 Q 240.213 227.649 238.303 230.159 C 237.744 230.889 237.748 231.904 238.313 232.629 Q 242.233 237.659 242.003 244.009 Q 241.743 251.409 240.873 258.769 Q 240.453 262.379 238.993 265.699 Q 238.053 267.839 232.403 273.959 Q 232.363 273.999 230.463 276.279 Q 228.183 279.019 224.363 280.819 Q 218.993 283.359 213.033 283.509 Q 209.893 283.589 209.213 280.519 Q 208.783 278.539 208.033 276.319 Q 206.823 272.679 206.583 272.199 Q 204.893 268.779 200.803 269.259 Q 194.673 269.979 190.263 276.449 Z " fill="rgb(255,208,35)"/><path d=" M 102.803 187.049 Q 102.523 188.449 100.993 187.819 Q 97.083 186.229 94.433 189.309 C 94.354 189.392 94.329 189.508 94.366 189.613 C 94.403 189.718 94.497 189.797 94.613 189.819 Q 97.373 190.539 103.243 192.319 Q 109.443 194.199 110.923 200.289 Q 112.493 206.719 114.693 213.429 Q 115.363 215.499 113.743 214.059 Q 109.373 210.189 105.333 206.169 Q 105.253 206.089 103.283 204.349 Q 102.093 203.299 101.233 201.949 Q 99.843 199.749 99.463 199.379 Q 96.513 196.529 92.123 198.099 Q 89.503 199.039 87.963 200.599 C 87.643 200.913 87.488 201.356 87.54 201.8 C 87.593 202.243 87.848 202.638 88.233 202.869 Q 90.283 204.109 91.303 206.019 Q 92.213 207.709 91.903 210.129 Q 91.423 213.859 89.473 217.189 Q 86.523 222.229 80.883 223.169 Q 78.393 223.579 78.373 223.589 Q 67.733 226.069 61.363 235.569 Q 56.783 242.419 61.563 248.429 Q 67.763 251.139 76.863 256.199 Q 78.633 257.179 79.823 255.729 C 80.001 255.492 80.274 255.303 80.603 255.189 Q 83.673 254.339 86.633 253.189 Q 88.333 252.529 89.503 251.169 Q 90.673 249.809 91.743 248.349 Q 92.393 247.469 93.253 245.319 Q 93.853 243.809 94.923 242.279 Q 97.403 243.859 99.063 246.159 Q 100.433 248.049 100.753 251.349 Q 101.063 254.679 101.413 257.999 Q 101.663 260.509 100.933 262.779 Q 100.463 264.279 98.523 266.789 Q 96.643 269.209 95.193 271.539 Q 93.953 273.539 95.853 274.939 Q 99.113 277.339 102.383 279.709 Q 102.643 279.889 103.153 280.389 Q 104.383 281.559 104.013 279.009 Q 104.983 276.169 107.283 274.249 Q 109.083 272.749 111.153 273.019 Q 112.963 273.249 114.423 274.849 Q 117.233 277.939 114.993 281.949 Q 112.253 286.819 105.803 289.969 Q 99.573 291.939 95.333 288.019 Q 92.533 285.439 92.433 285.359 Q 89.353 282.919 86.453 280.279 Q 84.683 277.199 85.473 274.029 Q 85.963 272.069 88.643 269.189 Q 91.073 266.579 92.493 264.699 Q 94.283 262.319 94.643 259.019 Q 95.113 254.689 91.863 254.199 Q 90.493 253.999 87.313 254.879 Q 83.453 255.939 79.603 257.049 Q 69.813 259.859 62.353 254.679 Q 58.613 252.089 56.873 247.549 Q 52.933 237.259 60.123 229.029 Q 62.483 226.319 66.533 224.289 Q 70.143 222.479 73.953 221.099 Q 78.053 219.609 81.033 215.819 C 81.663 215.016 81.562 213.861 80.803 213.179 Q 79.663 212.159 78.043 210.779 Q 75.763 208.839 75.093 206.139 Q 74.523 203.879 75.273 200.909 Q 76.743 195.149 81.743 190.949 Q 91.293 182.929 102.803 187.049 Z " fill="rgb(255,208,35)"/><path d=" M 121.903 274.449 Q 119.893 270.849 116.553 267.469 Q 111.333 262.539 109.863 256.199 Q 109.043 252.649 107.533 249.989 Q 106.183 247.609 106.073 246.079 Q 105.723 241.589 108.113 238.319 Q 111.393 233.849 113.923 228.909 Q 115.813 225.219 116.113 221.069 Q 116.313 218.229 117.053 221.009 Q 118.023 224.659 119.043 228.299 Q 119.063 228.359 119.783 230.559 Q 121.203 234.869 119.243 238.449 Q 117.153 242.239 116.643 245.899 Q 116.213 249.009 117.573 253.509 Q 120.043 261.699 124.453 269.089 Q 126.153 271.949 126.593 275.599 Q 126.793 277.289 125.403 276.479 L 121.903 274.449 Z " fill="rgb(255,208,35)"/><path d=" M 201.263 282.509 Q 204.103 289.669 197.243 291.699 Q 193.983 292.659 191.363 289.699 Q 189.053 287.079 191.453 283.629 Q 195.753 279.819 201.263 282.509 Z " fill="rgb(255,208,35)"/><path d=" M 117.783 294.849 Q 122.453 295.299 127.123 295.549 Q 130.223 295.709 130.643 297.989 Q 130.863 299.179 130.413 301.639 Q 129.773 305.149 127.173 307.449 Q 126.303 308.229 123.453 309.189 Q 120.843 310.069 118.493 312.199 Q 115.663 314.759 111.033 316.269 Q 106.453 311.539 107.763 305.879 Q 108.513 302.609 111.693 299.519 Q 114.483 296.809 117.783 294.849 Z " fill="rgb(255,208,35)"/><path d=" M 317.093 182.009 Q 317.013 183.489 315.803 184.549 Q 311.973 181.379 307.413 179.849 Q 303.323 178.479 298.073 179.119 Q 283.983 180.849 272.743 190.029 Q 272.063 188.029 272.303 186.799 Q 274.433 186.439 276.163 185.129 Q 279.443 182.659 282.713 180.159 Q 287.763 176.289 295.053 175.509 Q 299.913 174.989 303.783 175.039 Q 307.873 175.099 310.973 176.909 Q 314.413 178.909 317.093 182.009 Z " fill="rgb(254,130,30)"/><path d=" M 183.303 330.049 Q 178.533 324.789 171.553 326.219 Q 171.153 324.369 169.863 325.369 Q 169.413 325.719 169.013 325.799 Q 163.653 326.879 158.303 325.549 Q 155.783 321.969 156.313 317.099 Q 165.893 317.789 174.343 316.499 C 175.212 316.363 176.09 316.685 176.663 317.349 Q 180.933 322.269 183.563 326.819 Q 184.043 327.649 183.903 328.419 Q 183.753 329.269 183.303 330.049 Z " fill="rgb(254,130,30)"/><path d=" M 221.903 326.949 L 223.803 333.219 Q 222.523 333.699 222.383 334.959 C 222.223 335.265 222.333 335.604 222.673 335.849 Q 223.733 337.339 223.743 338.699 Q 223.753 340.059 222.853 344.449 Q 222.833 344.529 222.493 346.719 Q 221.523 352.989 214.243 350.349 Q 210.653 346.719 210.993 341.009 Q 211.143 338.589 210.803 333.009 Q 210.623 330.019 208.633 327.049 Q 212.153 323.709 215.803 323.509 Q 218.983 323.329 221.903 326.949 Z " fill="rgb(254,130,30)"/><path d=" M 272.303 186.799 Q 272.063 188.029 272.743 190.029 Q 269.963 190.689 267.973 193.649 C 267.792 193.911 267.784 194.25 267.953 194.519 L 281.583 217.389 C 281.731 217.636 281.978 217.808 282.263 217.863 C 282.547 217.919 282.842 217.852 283.073 217.679 Q 288.673 213.369 294.583 211.889 Q 301.743 210.099 308.693 207.669 Q 313.543 205.979 316.103 203.509 Q 324.593 195.339 315.803 184.549 Q 317.013 183.489 317.093 182.009 Q 326.163 191.459 323.303 204.009 Q 322.353 208.169 319.123 210.929 Q 316.633 213.059 312.423 214.909 Q 308.473 216.659 304.053 217.009 Q 302.673 217.119 297.363 218.319 Q 291.813 219.579 288.593 225.509 Q 287.193 224.399 286.633 222.799 C 286.561 222.527 286.335 222.29 286.013 222.149 L 281.583 219.979 C 281.474 219.931 281.348 219.93 281.238 219.976 C 281.128 220.023 281.046 220.111 281.013 220.219 Q 279.323 226.729 277.383 232.799 Q 273.863 243.869 273.293 245.229 Q 270.283 252.439 264.363 258.569 Q 255.103 268.179 246.243 274.269 Q 246.643 266.789 250.933 261.429 Q 253.473 258.249 255.233 256.649 Q 257.673 254.419 261.063 253.529 Q 263.463 252.899 265.743 250.199 Q 270.503 244.549 271.053 238.259 Q 271.443 233.799 270.023 227.519 Q 269.543 225.379 267.993 223.629 Q 259.233 213.689 250.363 203.849 Q 238.403 190.599 237.723 189.709 Q 231.983 182.139 228.523 172.949 C 228.391 172.59 228.562 172.191 228.913 172.039 Q 235.863 169.139 235.263 162.259 Q 235.063 156.749 234.273 151.309 Q 233.763 147.889 232.083 145.239 Q 227.073 137.359 219.053 132.219 Q 231.043 129.729 238.893 137.579 Q 241.293 139.979 243.303 143.719 Q 245.103 147.079 246.323 150.709 Q 247.493 154.169 246.883 157.769 Q 245.993 163.019 245.043 168.319 C 244.925 168.971 245.234 169.626 245.813 169.949 Q 256.593 175.959 266.863 183.699 Q 270.093 186.129 272.303 186.799 Z " fill="rgb(240,103,38)"/><path d=" M 275.763 269.009 Q 280.733 272.519 283.433 277.669 Q 285.853 282.259 285.103 287.199 Q 283.673 296.599 273.873 298.389 Q 269.713 299.139 267.213 298.829 Q 263.623 298.369 261.053 295.509 Q 258.293 292.429 255.373 295.329 Q 249.283 301.359 243.113 307.319 Q 238.453 311.829 241.613 316.459 Q 242.133 317.209 243.593 318.449 Q 245.073 319.709 245.493 320.569 Q 249.033 327.959 248.053 336.759 Q 247.643 340.399 246.113 342.829 Q 242.523 348.539 238.743 351.449 Q 237.413 352.459 235.033 353.219 Q 233.433 353.729 231.013 353.959 Q 226.413 354.399 221.803 354.759 Q 217.643 355.089 214.243 350.349 Q 221.523 352.989 222.493 346.719 Q 222.833 344.529 222.853 344.449 Q 223.753 340.059 223.743 338.699 Q 223.733 337.339 222.673 335.849 C 222.333 335.604 222.223 335.265 222.383 334.959 Q 222.523 333.699 223.803 333.219 Q 225.943 336.949 227.863 337.699 Q 231.773 339.209 233.683 336.779 Q 234.923 335.199 234.933 331.969 Q 234.943 325.829 232.013 320.279 Q 229.583 315.659 225.143 315.529 C 224.129 315.503 223.241 316.201 223.033 317.189 Q 221.933 322.309 221.903 326.949 Q 218.983 323.329 215.803 323.509 Q 212.153 323.709 208.633 327.049 Q 197.083 331.319 184.803 331.799 L 183.303 330.049 Q 183.753 329.269 183.903 328.419 Q 184.043 327.649 183.563 326.819 Q 180.933 322.269 176.663 317.349 C 176.09 316.685 175.212 316.363 174.343 316.499 Q 165.893 317.789 156.313 317.099 Q 150.203 307.429 139.973 312.199 Q 138.563 311.879 139.123 309.739 Q 139.553 308.119 139.053 306.519 Q 137.073 300.109 133.643 293.699 Q 135.753 294.679 146.363 300.199 Q 152.733 303.509 160.803 302.759 Q 163.043 302.549 171.893 304.429 Q 176.243 305.349 181.823 305.879 Q 185.173 306.189 188.503 306.699 Q 193.063 307.399 195.163 307.379 Q 204.553 307.249 213.513 302.049 Q 215.123 301.119 216.953 301.539 Q 218.523 301.919 218.243 303.459 C 218.193 303.58 218.205 303.713 218.276 303.825 C 218.347 303.936 218.47 304.014 218.613 304.039 Q 220.923 304.379 223.363 302.819 Q 227.823 299.989 230.653 296.949 Q 232.833 294.599 232.913 294.519 Q 240.423 286.949 247.033 278.599 Q 249.603 278.189 251.553 276.009 Q 254.703 272.509 257.363 271.319 Q 260.693 269.849 263.233 271.869 C 263.536 272.1 263.947 272.143 264.293 271.979 Q 270.633 268.819 275.763 269.009 Z " fill="rgb(240,103,38)"/><path d=" M 171.553 326.219 Q 168.953 328.169 170.303 331.759 Q 172.043 336.389 175.053 338.469 Q 162.633 337.229 158.303 325.549 Q 163.653 326.879 169.013 325.799 Q 169.413 325.719 169.863 325.369 Q 171.153 324.369 171.553 326.219 Z " fill="rgb(240,103,38)"/><path d=" M 183.303 330.049 L 184.803 331.799 Q 185.733 334.959 184.073 336.969 Q 182.783 338.539 179.883 338.709 Q 177.473 338.849 175.053 338.469 Q 172.043 336.389 170.303 331.759 Q 168.953 328.169 171.553 326.219 Q 178.533 324.789 183.303 330.049 Z " fill="rgb(255,203,30)"/><path d=" M 307.463 232.569 Q 301.643 231.299 297.323 234.769 Q 294.573 236.959 291.303 238.219 Q 291.883 235.879 290.063 234.699 Q 297.893 225.149 307.463 232.569 Z " fill="rgb(254,109,37)"/><circle vector-effect="non-scaling-stroke" cx="179.20289356144713" cy="298.91907264128895" r="3.990000000000009" fill="rgb(255,211,38)"/><path d=" M 137.993 158.449 Q 140.133 155.499 142.853 154.139 Q 145.543 152.789 147.663 154.299 Q 149.863 155.869 150.303 159.259 Q 150.973 164.349 147.093 166.389 Q 145.273 167.339 145.213 167.379 Q 141.033 169.959 136.963 172.729 C 136.706 172.894 136.375 172.909 136.103 172.769 Q 133.443 171.229 133.893 167.929 Q 134.533 163.209 137.993 158.449 Z " fill="rgb(255,126,27)" vector-effect="non-scaling-stroke" stroke-width="1" stroke="rgb(255,126,27)" stroke-linejoin="miter" stroke-linecap="butt" stroke-miterlimit="4"/><path d=" M 145.783 175.999 Q 140.673 182.649 133.753 177.019 C 133.494 176.813 133.32 176.522 133.263 176.199 Q 132.433 171.549 136.993 174.229 Q 140.783 176.469 145.073 174.999 Q 147.083 174.319 145.783 175.999 Z " fill="rgb(255,126,27)"/><path d=" M 168.873 210.659 Q 173.883 205.699 180.163 202.479 Q 183.993 200.509 186.713 200.479 Q 190.733 200.419 193.423 203.439 Q 194.933 205.129 197.213 205.059 Q 203.063 204.869 207.303 205.259 Q 209.553 205.459 211.373 207.329 Q 211.913 207.889 213.733 211.039 Q 214.973 213.179 216.723 214.919 Q 218.803 216.969 219.783 218.609 Q 221.713 221.849 223.863 224.949 Q 227.553 230.259 226.193 235.919 Q 225.213 239.959 221.923 242.609 Q 218.663 245.229 214.233 245.879 C 213.916 245.928 213.634 246.097 213.453 246.349 Q 212.203 248.119 211.013 249.939 Q 209.993 251.479 208.663 252.129 Q 207.413 252.749 206.033 253.129 C 205.721 253.224 205.442 253.393 205.223 253.619 Q 198.223 261.119 188.493 262.949 Q 185.213 263.559 181.543 262.299 Q 173.223 259.419 168.703 251.889 Q 167.693 250.209 166.713 248.509 Q 165.523 246.459 164.313 245.489 Q 161.813 243.479 158.843 243.309 Q 155.483 243.109 158.353 241.329 Q 160.843 239.789 162.023 237.349 Q 162.883 235.559 162.333 232.589 Q 160.983 225.209 161.303 222.259 Q 161.643 219.119 164.193 215.799 Q 165.783 213.719 168.873 210.659 Z " fill="rgb(255,128,25)"/><path d=" M 126.113 239.199 C 126.257 238.9 126.52 238.676 126.838 238.581 C 127.155 238.486 127.498 238.528 127.783 238.699 Q 131.813 241.079 135.493 243.569 Q 137.403 244.869 137.203 247.359 Q 137.063 249.129 136.233 251.119 Q 134.363 255.619 128.553 256.009 Q 125.723 256.199 123.813 255.009 Q 121.933 253.829 121.253 251.309 Q 120.263 247.639 122.893 244.349 Q 124.723 242.069 126.113 239.199 Z " fill="rgb(255,208,35)"/><path d=" M 148.973 274.609 Q 151.153 272.799 154.553 273.009 Q 158.583 273.259 161.343 275.339 Q 164.113 277.439 164.713 281.129 Q 165.383 285.219 162.993 288.439 Q 160.983 291.139 157.143 292.139 Q 150.483 293.869 144.743 290.069 Q 141.993 288.249 142.893 284.279 Q 143.603 281.179 145.433 278.729 Q 147.683 275.689 148.973 274.609 Z " fill="rgb(255,208,35)"/><path d=" M 220.013 290.049 Q 220.573 287.319 223.333 286.909 Q 229.893 285.929 230.243 290.309 Q 230.463 292.999 228.493 294.649 Q 227.073 295.849 225.113 295.999 Q 223.333 296.139 221.903 294.969 Q 219.433 292.949 220.013 290.049 Z " fill="rgb(255,208,35)"/><path d=" M 261.743 275.199 Q 263.393 272.499 265.503 273.079 Q 266.843 273.449 268.073 275.519 Q 271.783 281.759 273.303 287.509 Q 274.163 290.749 271.003 292.159 Q 267.303 293.809 264.683 291.919 Q 262.883 290.619 261.043 287.529 Q 257.673 281.829 261.743 275.199 Z " fill="rgb(255,203,30)"/><path d=" M 280.833 199.289 Q 289.633 190.859 301.823 194.119 Q 305.863 195.209 304.493 198.699 Q 303.853 200.319 301.993 201.619 Q 301.223 202.149 298.763 203.589 Q 289.513 208.979 279.223 204.569 C 278.644 204.319 278.347 203.678 278.533 203.079 Q 279.213 200.849 280.833 199.289 Z " fill="rgb(255,208,35)" vector-effect="non-scaling-stroke" stroke-width="1" stroke="rgb(255,208,35)" stroke-linejoin="miter" stroke-linecap="butt" stroke-miterlimit="4"/><path d=" M 168.363 226.809 Q 178.353 217.369 189.793 210.599 Q 192.963 208.719 195.713 208.679 Q 201.783 208.589 206.863 212.949 Q 210.663 216.209 211.303 220.759 Q 211.973 225.539 211.533 234.609 Q 211.323 238.919 209.913 242.159 Q 208.233 246.009 205.993 248.949 Q 204.543 250.849 202.193 251.349 Q 201.873 251.409 197.903 251.689 Q 190.673 252.179 184.803 251.259 Q 180.903 250.649 177.673 248.249 Q 175.323 246.509 172.933 242.419 Q 170.873 238.909 168.873 235.359 Q 167.213 232.409 167.303 229.179 C 167.32 228.279 167.703 227.424 168.363 226.809 L 168.363 226.809 Z " fill="rgb(255,208,35)"/></g></svg>