<?xml version="1.0" encoding="UTF-8" standalone="no"?><!-- Generator: Gravit.io --><svg xmlns="http://www.w3.org/2000/svg" xmlns:xlink="http://www.w3.org/1999/xlink" style="isolation:isolate" viewBox="1557.722 1826.714 30.667 41.136" width="30.667pt" height="41.136pt"><defs><clipPath id="_clipPath_vPFfhmIP8ETAYDKpr832WnR0JlN4TyHR"><rect x="1557.722" y="1826.714" width="30.667" height="41.136"/></clipPath></defs><g clip-path="url(#_clipPath_vPFfhmIP8ETAYDKpr832WnR0JlN4TyHR)"><rect x="1557.722" y="1826.714" width="30.667" height="41.136" style="fill:rgb(6,6,6)" fill-opacity="0"/><path d=" M 1572.729 1835.479 L 1574.189 1844.129 Q 1574.459 1845.769 1576.249 1846.189 Q 1582.179 1847.549 1588.009 1848.369 Q 1588.539 1848.449 1588.329 1848.729 C 1588.228 1848.836 1588.057 1848.912 1587.859 1848.939 Q 1585.859 1849.099 1577.689 1850.229 Q 1575.259 1850.569 1574.489 1852.249 Q 1574.309 1852.629 1573.859 1855.609 Q 1573.069 1860.769 1572.719 1865.989 Q 1572.699 1866.329 1572.789 1866.959 Q 1572.909 1867.829 1572.419 1867.849 C 1572.232 1867.817 1572.069 1867.735 1571.968 1867.62 C 1571.867 1867.506 1571.835 1867.369 1571.879 1867.239 L 1569.559 1851.499 C 1569.484 1850.89 1569.01 1850.399 1568.389 1850.289 L 1558.309 1848.769 C 1557.934 1848.744 1557.675 1848.592 1557.729 1848.429 Q 1557.709 1848.199 1558.189 1848.019 L 1567.189 1846.249 C 1568.199 1846.029 1568.945 1845.214 1569.039 1844.229 Q 1570.169 1836.009 1571.129 1826.999 Q 1571.179 1826.489 1571.389 1826.889 Q 1571.439 1826.969 1571.449 1827.079 Q 1571.779 1831.329 1572.729 1835.479 Z " fill="rgb(216,145,214)"/></g></svg>