<?xml version="1.0" encoding="UTF-8" standalone="no"?><!-- Generator: Gravit.io --><svg xmlns="http://www.w3.org/2000/svg" xmlns:xlink="http://www.w3.org/1999/xlink" style="isolation:isolate" viewBox="1495.59 1801.143 92.799 96.38" width="92.799pt" height="96.38pt"><defs><clipPath id="_clipPath_t6DfqScEERPSbZp458tU7lZZkrsndhy9"><rect x="1495.59" y="1801.143" width="92.799" height="96.38"/></clipPath></defs><g clip-path="url(#_clipPath_t6DfqScEERPSbZp458tU7lZZkrsndhy9)"><rect x="1495.59" y="1801.143" width="92.799" height="96.38" style="fill:rgb(6,6,6)" fill-opacity="0"/><path d=" M 1526.397 1848.699 L 1528.167 1861.389 Q 1528.407 1863.159 1530.247 1863.489 L 1552.117 1867.449 Q 1554.397 1867.859 1552.097 1868.229 L 1530.357 1871.699 Q 1528.657 1871.969 1528.357 1873.689 L 1524.347 1897.039 C 1524.396 1897.242 1524.232 1897.444 1523.957 1897.519 Q 1523.647 1897.559 1523.607 1897.199 Q 1522.787 1889.709 1522.067 1885.949 L 1520.497 1874.269 Q 1520.237 1872.369 1518.207 1871.969 Q 1507.127 1869.779 1496.077 1868.029 Q 1495.087 1867.879 1496.107 1867.729 Q 1507.967 1865.999 1519.117 1863.319 C 1519.64 1863.193 1520.037 1862.772 1520.127 1862.249 L 1524.277 1838.889 C 1524.108 1838.783 1524.062 1838.637 1524.156 1838.504 C 1524.25 1838.371 1524.47 1838.271 1524.737 1838.239 Q 1525.037 1838.229 1525.077 1838.949 Q 1525.397 1843.869 1526.397 1848.699 Z " fill="rgb(217,163,219)"/></g></svg>