<?xml version="1.0" encoding="UTF-8" standalone="no"?><!-- Generator: Gravit.io --><svg xmlns="http://www.w3.org/2000/svg" xmlns:xlink="http://www.w3.org/1999/xlink" style="isolation:isolate" viewBox="1538.666 1801.143 46.206 47.995" width="46.206pt" height="47.995pt"><defs><clipPath id="_clipPath_wNWwJoRvXplt3PuZMzy4KzkSe60s8z7t"><rect x="1538.666" y="1801.143" width="46.206" height="47.995"/></clipPath></defs><g clip-path="url(#_clipPath_wNWwJoRvXplt3PuZMzy4KzkSe60s8z7t)"><rect x="1538.666" y="1801.143" width="46.206" height="47.995" style="fill:rgb(6,6,6)" fill-opacity="0"/><path d=" M 1558.538 1802.603 Q 1558.838 1799.703 1559.418 1802.563 L 1562.998 1820.093 C 1563.09 1820.547 1563.457 1820.903 1563.928 1820.993 Q 1573.948 1822.893 1584.408 1824.163 Q 1584.628 1824.183 1584.748 1824.293 Q 1585.128 1824.613 1584.348 1824.703 Q 1577.288 1825.533 1567.158 1827.493 Q 1564.508 1828.013 1563.828 1830.053 Q 1563.798 1830.133 1563.378 1833.813 Q 1562.528 1841.243 1561.808 1848.683 Q 1561.788 1848.893 1561.678 1849.013 Q 1561.358 1849.373 1561.248 1848.693 Q 1559.818 1839.243 1557.838 1829.533 C 1557.757 1829.098 1557.423 1828.752 1556.988 1828.653 Q 1548.288 1826.743 1539.288 1826.193 Q 1537.918 1826.103 1539.568 1825.763 Q 1547.788 1824.033 1555.868 1821.673 C 1556.302 1821.553 1556.616 1821.183 1556.658 1820.743 L 1558.538 1802.603 Z " fill="rgb(247,84,153)"/></g></svg>