<?xml version="1.0" encoding="UTF-8" standalone="no"?><!-- Generator: Gravit.io --><svg xmlns="http://www.w3.org/2000/svg" xmlns:xlink="http://www.w3.org/1999/xlink" style="isolation:isolate" viewBox="202.676 616 28.391 24.954" width="28.391pt" height="24.954pt"><defs><clipPath id="_clipPath_l3DluiLq0LReYlUJFGhhNNjxDz8blFnw"><rect x="202.676" y="616" width="28.391" height="24.954"/></clipPath></defs><g clip-path="url(#_clipPath_l3DluiLq0LReYlUJFGhhNNjxDz8blFnw)"><rect x="202.676" y="616" width="28.391" height="24.954" style="fill:rgb(0,0,0)" fill-opacity="0"/><g/><g/><g/><g/><g/><g/><g/><g/><g/><g/><g/><g/><g/><g/><g/><g/><g/><g/><g/><g/><g/><g/><g/><g/><g/><g/><g/><g/><g/><g/><g/><g/><g/><g/><g/><g/><g/><g/><g/><g/><g/><g/><g/><g/><g/><g/><g/><g/><g/><g/><g/><g/><g/><g/><g/><g/><g/><g/><g/><g/><g/><g/><g/><g/><g/><g/><g/><g/><g/><g/><g/><g/><g/><g/><g/><g/><g/><g/><g/><g/><g/><g/><g/><g/><g/><g/><g/><g/><g/><g/><g/><g/><g/><g/><g/><g/><g/><g/><g/><g/><g/><g/><g/><g/><g/><g/><g/><g/><g/><g/><g/><g/><g/><g/><g/><g/><g/><g/><g/><g/><g/><g/><g/><g/><g/><g/><g/><g/><g/><g/><g/><g/><g/><g/><g/><g/><g/><g/><g/><g/><g/><g/><g/><g/><g/><g/><g/><g/><g/><g/><g/><g/><g/><g/><g/><g/><g/><g/><g/><g/><g/><g/><g/><g/><g/><g/><g/><g/><g/><g/><g/><g/><g/><g/><g/><g/><g/><g/><g/><g/><g/><g/><g/><g/><g/><g/><g/><g/><g/><g/><path d=" M 218.238 616.528 Q 216.338 619.608 213.408 621.728 Q 210.068 624.158 205.418 627.288 C 205.25 627.401 205.135 627.578 205.099 627.778 C 205.063 627.978 205.11 628.183 205.228 628.348 Q 210.498 635.588 216.408 640.028 Q 213.898 640.358 211.448 638.028 Q 208.298 635.038 207.508 633.718 Q 205.948 631.088 203.498 629.208 Q 201.858 627.948 203.488 626.718 L 217.548 616.178 C 217.668 616.095 217.81 616.044 217.958 616.028 Q 220.178 615.878 218.238 616.528 Z " fill="rgb(119,67,71)"/><path d=" M 218.238 616.528 Q 221.218 618.318 221.698 619.028 Q 223.118 621.118 225.478 621.888 Q 225.768 621.988 226.228 622.438 L 230.388 626.518 C 230.762 626.747 231.005 627.098 231.056 627.485 C 231.108 627.871 230.963 628.257 230.658 628.548 Q 226.058 634.128 220.038 639.268 Q 219.998 639.308 218.998 640.418 Q 217.868 641.658 216.408 640.028 Q 210.498 635.588 205.228 628.348 C 205.11 628.183 205.063 627.978 205.099 627.778 C 205.135 627.578 205.25 627.401 205.418 627.288 Q 210.068 624.158 213.408 621.728 Q 216.338 619.608 218.238 616.528 Z " fill="rgb(234,136,42)"/><path d=" M 214.998 622.618 Q 217.308 620.808 220.138 622.088 Q 222.568 623.198 224.738 626.008 Q 226.928 628.858 224.928 631.788 Q 223.078 634.498 220.268 636.038 Q 218.548 636.988 216.978 636.578 Q 215.358 636.148 213.888 634.838 Q 210.608 631.908 208.968 628.538 C 208.831 628.262 208.875 627.931 209.078 627.698 Q 210.598 625.858 212.558 624.528 Q 212.678 624.448 214.998 622.618 Z " fill="rgb(251,245,76)"/></g></svg>