<?xml version="1.0" encoding="UTF-8" standalone="no"?><!-- Generator: Gravit.io --><svg xmlns="http://www.w3.org/2000/svg" xmlns:xlink="http://www.w3.org/1999/xlink" style="isolation:isolate" viewBox="97.909 790 26.091 25.555" width="26.091pt" height="25.555pt"><defs><clipPath id="_clipPath_XqvGURobJuoAZrhPenEHksoIuECfJdlN"><rect x="97.909" y="790" width="26.091" height="25.555"/></clipPath></defs><g clip-path="url(#_clipPath_XqvGURobJuoAZrhPenEHksoIuECfJdlN)"><rect x="97.909" y="790" width="26.091" height="25.555" style="fill:rgb(0,0,0)" fill-opacity="0"/><g/><g/><g/><g/><g/><g/><g/><g/><g/><g/><g/><g/><g/><g/><g/><g/><g/><g/><g/><g/><g/><g/><g/><g/><g/><g/><g/><g/><g/><g/><g/><g/><g/><g/><g/><g/><g/><g/><g/><g/><g/><g/><g/><g/><g/><g/><g/><g/><g/><g/><g/><g/><g/><g/><g/><g/><g/><g/><g/><g/><g/><g/><g/><g/><g/><g/><g/><g/><g/><g/><g/><g/><g/><g/><g/><g/><g/><g/><g/><g/><g/><g/><g/><g/><g/><g/><g/><g/><g/><g/><g/><g/><g/><g/><g/><g/><g/><g/><g/><g/><g/><g/><g/><g/><g/><g/><g/><g/><g/><g/><g/><g/><g/><g/><g/><g/><g/><g/><g/><g/><g/><g/><g/><g/><g/><g/><g/><g/><g/><g/><g/><g/><g/><g/><g/><g/><g/><g/><g/><g/><g/><g/><g/><g/><g/><g/><g/><g/><g/><g/><g/><g/><g/><g/><g/><g/><g/><g/><g/><g/><g/><g/><g/><g/><g/><g/><g/><g/><g/><g/><g/><g/><g/><g/><g/><g/><g/><g/><g/><g/><g/><g/><g/><g/><g/><g/><g/><g/><g/><g/><g><path d=" M 117.324 813.411 Q 118.774 812.791 117.204 814.211 Q 116.904 814.481 116.574 814.631 Q 113.254 816.211 108.664 815.091 Q 93.264 811.311 99.914 796.211 Q 101.374 792.901 104.184 791.601 Q 105.954 790.791 109.944 790.191 Q 118.454 788.911 122.674 796.231 Q 124.144 798.781 123.984 801.341 Q 123.804 804.131 122.314 806.601 Q 121.734 807.551 121.794 808.661 C 122.102 808.969 122.044 809.332 121.644 809.601 Q 120.884 811.061 119.404 811.701 Q 118.464 812.111 118.054 812.481 Q 117.624 812.861 117.214 813.271 Q 116.924 813.571 117.324 813.411 Z " fill="rgb(66,47,55)"/><path d=" M 119.894 801.401 Q 120.024 802.281 119.604 802.951 Q 119.284 803.451 119.224 803.831 Q 118.234 810.031 112.104 811.861 Q 104.064 811.841 102.274 805.041 Q 101.584 802.431 102.464 800.311 Q 103.414 798.041 105.664 796.461 Q 112.954 791.341 118.794 797.961 Q 119.524 798.791 119.894 801.401 Z " fill="rgb(251,183,82)"/><path d=" M 119.894 801.401 Q 120.454 804.271 119.844 807.051 Q 119.244 809.761 117.224 810.981 Q 114.974 812.341 112.104 811.861 Q 118.234 810.031 119.224 803.831 Q 119.284 803.451 119.604 802.951 Q 120.024 802.281 119.894 801.401 Z " fill="rgb(178,69,66)"/><path d=" M 105.304 800.121 C 105.206 799.883 105.244 799.613 105.404 799.411 Q 110.244 793.211 115.294 799.711 Q 117.084 802.031 116.164 805.851 C 116.098 806.146 115.857 806.371 115.554 806.421 Q 108.294 807.581 105.304 800.121 Z " fill="rgb(248,227,109)"/></g></g></svg>