<?xml version="1.0" encoding="UTF-8" standalone="no"?><!-- Generator: Gravit.io --><svg xmlns="http://www.w3.org/2000/svg" xmlns:xlink="http://www.w3.org/1999/xlink" style="isolation:isolate" viewBox="140.922 688.897 20.997 20.667" width="20.997pt" height="20.667pt"><defs><clipPath id="_clipPath_6GwQ64dt6ONTrlRRuuo5GCds8r961ZLW"><rect x="140.922" y="688.897" width="20.997" height="20.667"/></clipPath></defs><g clip-path="url(#_clipPath_6GwQ64dt6ONTrlRRuuo5GCds8r961ZLW)"><rect x="140.922" y="688.897" width="20.997" height="20.667" style="fill:rgb(0,0,0)" fill-opacity="0"/><g/><g/><g/><g/><g/><g/><g/><g/><g/><g/><g/><g/><g/><g/><g/><g/><g/><g/><g/><g/><g/><g/><g/><g/><g/><g/><g/><g/><g/><g/><g/><g/><g/><g/><g/><g/><g/><g/><g/><g/><g/><g/><g/><g/><g/><g/><g/><g/><g/><g/><g/><g/><g/><g/><g/><g/><g/><g/><g/><g/><g/><g/><g/><g/><g/><g/><g/><g/><g/><g/><g/><g/><g/><g/><g/><g/><g/><g/><g/><g/><g/><g/><g/><g/><g/><g/><g/><g/><g/><g/><g/><g/><g/><g/><g/><g/><g/><g/><g/><g/><g/><g/><g/><g/><g/><g/><g/><g/><g/><g/><g/><g/><g/><g/><g/><g/><g/><g/><g/><g/><g/><g/><g/><g/><g/><g/><g/><g/><g/><g/><g/><g/><g/><g/><g/><g/><g/><g/><g/><g/><g/><g/><g/><g/><g/><g/><g/><g/><g/><g/><g/><g/><g/><g/><g/><g/><g/><g/><g/><g/><g/><g/><g/><g/><g/><g/><g/><g/><g/><g/><g/><g/><g/><g/><g/><g/><g/><g/><g/><g/><g/><g/><g/><g/><g/><g/><g/><g/><g/><g/><g><path d=" M 159.997 696.63 Q 160.867 701.95 157.207 705.38 Q 152.567 709.73 146.807 706.74 Q 143.397 704.98 143.167 701.13 L 143.207 700.81 Q 143.237 700.48 143.537 700.89 Q 148.087 707.43 154.787 703.16 C 155.07 702.98 155.283 702.725 155.397 702.43 Q 157.437 697.44 153.767 694.32 Q 149.637 690.8 144.837 694.49 Q 144.507 694.75 144.417 694.38 L 144.957 692.92 Q 149.507 689.16 155.237 691.31 Q 158.997 692.72 159.997 696.63 Z " fill="rgb(246,156,79)"/><path d=" M 143.167 701.13 Q 142.527 697.53 144.417 694.38 Q 144.507 694.75 144.837 694.49 Q 149.637 690.8 153.767 694.32 Q 157.437 697.44 155.397 702.43 C 155.283 702.725 155.07 702.98 154.787 703.16 Q 148.087 707.43 143.537 700.89 Q 143.237 700.48 143.207 700.81 L 143.167 701.13 Z " fill="rgb(253,236,110)"/><path d=" M 144.957 692.92 L 144.417 694.38 Q 142.527 697.53 143.167 701.13 Q 143.397 704.98 146.807 706.74 Q 152.567 709.73 157.207 705.38 Q 160.867 701.95 159.997 696.63 Q 160.627 697.66 160.527 698.89 C 160.49 699.2 160.575 699.512 160.767 699.77 Q 161.667 701.1 160.997 702.88 Q 159.537 705.15 157.487 706.92 Q 152.217 711.47 145.927 708.19 Q 142.797 706.55 141.827 703.41 Q 141.107 701.1 140.957 699.87 Q 140.727 697.92 142.027 696.18 Q 143.037 694.84 143.957 693.42 Q 144.357 692.93 144.957 692.92 Z " fill="rgb(123,58,51)"/><path d=" M 160.997 702.88 Q 161.667 701.1 160.767 699.77 C 160.575 699.512 160.49 699.2 160.527 698.89 Q 160.627 697.66 159.997 696.63 Q 158.997 692.72 155.237 691.31 Q 149.507 689.16 144.957 692.92 Q 144.357 692.93 143.957 693.42 Q 142.037 693.95 142.897 692.84 Q 146.437 688.26 152.277 689 Q 155.547 689.41 158.157 691.12 Q 160.887 692.91 161.617 695.92 Q 162.447 699.35 160.997 702.88 Z " fill="rgb(97,53,56)"/></g></g></svg>