<?xml version="1.0" encoding="UTF-8" standalone="no"?><!-- Generator: Gravit.io --><svg xmlns="http://www.w3.org/2000/svg" xmlns:xlink="http://www.w3.org/1999/xlink" style="isolation:isolate" viewBox="72.549 679.522 21.046 20.324" width="21.046pt" height="20.324pt"><defs><clipPath id="_clipPath_IIXkVAS16OlbmoxOCqYFzehbxB3Wfj2E"><rect x="72.549" y="679.522" width="21.046" height="20.324"/></clipPath></defs><g clip-path="url(#_clipPath_IIXkVAS16OlbmoxOCqYFzehbxB3Wfj2E)"><rect x="72.549" y="679.522" width="21.046" height="20.324" style="fill:rgb(0,0,0)" fill-opacity="0"/><g/><g/><g/><g/><g/><g/><g/><g/><g/><g/><g/><g/><g/><g/><g/><g/><g/><g/><g/><g/><g/><g/><g/><g/><g/><g/><g/><g/><g/><g/><g/><g/><g/><g/><g/><g/><g/><g/><g/><g/><g/><g/><g/><g/><g/><g/><g/><g/><g/><g/><g/><g/><g/><g/><g/><g/><g/><g/><g/><g/><g/><g/><g/><g/><g/><g/><g/><g/><g/><g/><g/><g/><g/><g/><g/><g/><g/><g/><g/><g/><g/><g/><g/><g/><g/><g/><g/><g/><g/><g/><g/><g/><g/><g/><g/><g/><g/><g/><g/><g/><g/><g/><g/><g/><g/><g/><g/><g/><g/><g/><g/><g/><g/><g/><g/><g/><g/><g/><g/><g/><g/><g/><g/><g/><g/><g/><g/><g/><g/><g/><g/><g/><g/><g/><g/><g/><g/><g/><g/><g/><g/><g/><g/><g/><g/><g/><g/><g/><g/><g/><g/><g/><g/><g/><g/><g/><g/><g/><g/><g/><g/><g/><g/><g/><g/><g/><g/><g/><g/><g/><g/><g/><g/><g/><g/><g/><g/><g/><g/><g/><g/><g/><g/><g/><g/><g/><g/><g/><g/><g/><g><path d=" M 80.443 681.803 Q 81.043 681.223 81.703 681.223 C 81.99 681.214 82.241 681.055 82.333 680.823 Q 83.093 678.603 84.953 680.173 Q 89.283 683.843 93.213 687.933 C 93.474 688.168 93.611 688.481 93.593 688.803 Q 93.633 691.393 91.443 692.803 Q 88.013 695.003 85.543 697.453 C 85.321 697.623 85.019 697.72 84.703 697.723 Q 83.563 697.643 83.273 698.793 Q 83.103 699.483 82.863 699.683 Q 82.273 700.163 81.683 699.233 Q 80.153 696.813 77.193 694.423 Q 76.163 693.603 72.923 690.403 C 72.593 690.192 72.467 689.857 72.603 689.553 Q 72.863 688.403 74.633 688.433 C 74.993 688.439 75.331 688.257 75.523 687.953 Q 77.683 684.423 80.443 681.803 Z " fill="rgb(234,136,42)"/><path d=" M 76.353 691.293 C 76.144 691.169 75.997 690.965 75.948 690.729 C 75.898 690.493 75.951 690.248 76.093 690.053 L 81.383 682.623 C 81.6 682.34 81.933 682.163 82.295 682.14 C 82.656 682.117 83.01 682.25 83.263 682.503 L 89.673 689.073 Q 91.873 691.333 89.083 692.763 L 83.953 695.413 C 83.672 695.545 83.34 695.53 83.073 695.373 L 76.353 691.293 Z " fill="rgb(251,245,76)"/></g></g></svg>