<?xml version="1.0" encoding="UTF-8" standalone="no"?><!-- Generator: Gravit.io --><svg xmlns="http://www.w3.org/2000/svg" xmlns:xlink="http://www.w3.org/1999/xlink" style="isolation:isolate" viewBox="164.649 863.877 17.351 17.123" width="17.351pt" height="17.123pt"><defs><clipPath id="_clipPath_oEStOClVZ1fM75j6ROLEZuJYX5PA1f23"><rect x="164.649" y="863.877" width="17.351" height="17.123"/></clipPath></defs><g clip-path="url(#_clipPath_oEStOClVZ1fM75j6ROLEZuJYX5PA1f23)"><rect x="164.649" y="863.877" width="17.351" height="17.123" style="fill:rgb(0,0,0)" fill-opacity="0"/><g/><g/><g/><g/><g/><g/><g/><g/><g/><g/><g/><g/><g/><g/><g/><g/><g/><g/><g/><g/><g/><g/><g/><g/><g/><g/><g/><g/><g/><g/><g/><g/><g/><g/><g/><g/><g/><g/><g/><g/><g/><g/><g/><g/><g/><g/><g/><g/><g/><g/><g/><g/><g/><g/><g/><g/><g/><g/><g/><g/><g/><g/><g/><g/><g/><g/><g/><g/><g/><g/><g/><g/><g/><g/><g/><g/><g/><g/><g/><g/><g/><g/><g/><g/><g/><g/><g/><g/><g/><g/><g/><g/><g/><g/><g/><g/><g/><g/><g/><g/><g/><g/><g/><g/><g/><g/><g/><g/><g/><g/><g/><g/><g/><g/><g/><g/><g/><g/><g/><g/><g/><g/><g/><g/><g/><g/><g/><g/><g/><g/><g/><g/><g/><g/><g/><g/><g/><g/><g/><g/><g/><g/><g/><g/><g/><g/><g/><g/><g/><g/><g/><g/><g/><g/><g/><g/><g/><g/><g/><g/><g/><g/><g/><g/><g/><g/><g/><g/><g/><g/><g/><g/><g/><g/><g/><g/><g/><g/><g/><g/><g/><g/><g/><g/><g/><g/><g/><g/><g/><g/><g><path d=" M 168.952 865.756 Q 171.012 864.016 173.832 863.886 Q 176.402 863.766 178.602 865.236 Q 183.552 868.546 181.292 875.376 Q 180.222 878.596 179.482 879.066 Q 171.982 883.716 166.482 877.186 Q 163.642 873.826 165.202 870.516 Q 166.452 867.866 168.952 865.756 Z " fill="rgb(178,69,66)"/><path d=" M 180.252 874.126 Q 179.522 875.206 179.002 874.326 C 178.955 874.258 178.876 874.216 178.791 874.216 C 178.707 874.216 178.628 874.258 178.582 874.326 Q 177.842 875.626 175.852 876.436 Q 170.442 878.646 167.582 874.376 Q 167.112 867.636 172.472 866.406 Q 175.892 865.606 178.292 867.526 Q 181.032 869.726 180.252 874.126 Z " fill="rgb(253,229,93)"/><path d=" M 180.252 874.126 Q 179.942 879.076 174.792 879.386 Q 169.052 879.736 167.582 874.376 Q 170.442 878.646 175.852 876.436 Q 177.842 875.626 178.582 874.326 C 178.628 874.258 178.707 874.216 178.791 874.216 C 178.876 874.216 178.955 874.258 179.002 874.326 Q 179.522 875.206 180.252 874.126 Z " fill="rgb(253,189,88)"/></g></g></svg>