<?xml version="1.0" encoding="UTF-8" standalone="no"?><!-- Generator: Gravit.io --><svg xmlns="http://www.w3.org/2000/svg" xmlns:xlink="http://www.w3.org/1999/xlink" style="isolation:isolate" viewBox="8 757.53 32.016 32.212" width="32.016pt" height="32.212pt"><defs><clipPath id="_clipPath_JOtNG6VZI9ajLxsrJg3B9JeLBuUpXci1"><rect x="8" y="757.53" width="32.016" height="32.212"/></clipPath></defs><g clip-path="url(#_clipPath_JOtNG6VZI9ajLxsrJg3B9JeLBuUpXci1)"><rect x="8" y="757.53" width="32.016" height="32.212" style="fill:rgb(0,0,0)" fill-opacity="0"/><g/><g/><g/><g/><g/><g/><g/><g/><g/><g/><g/><g/><g/><g/><g/><g/><g/><g/><g/><g/><g/><g/><g/><g/><g/><g/><g/><g/><g/><g/><g/><g/><g/><g/><g/><g/><g/><g/><g/><g/><g/><g/><g/><g/><g/><g/><g/><g/><g/><g/><g/><g/><g/><g/><g/><g/><g/><g/><g/><g/><g/><g/><g/><g/><g/><g/><g/><g/><g/><g/><g/><g/><g/><g/><g/><g/><g/><g/><g/><g/><g/><g/><g/><g/><g/><g/><g/><g/><g/><g/><g/><g/><g/><g/><g/><g/><g/><g/><g/><g/><g/><g/><g/><g/><g/><g/><g/><g/><g/><g/><g/><g/><g/><g/><g/><g/><g/><g/><g/><g/><g/><g/><g/><g/><g/><g/><g/><g/><g/><g/><g/><g/><g/><g/><g/><g/><g/><g/><g/><g/><g/><g/><g/><g/><g/><g/><g/><g/><g/><g/><g/><g/><g/><g/><g/><g/><g/><g/><g/><g/><g/><g/><g/><g/><g/><g/><g/><g/><g/><g/><g/><g/><g/><g/><g/><g/><g/><g/><g/><g/><g/><g/><g/><g/><g/><g/><g/><g/><g/><g/><g><path d=" M 12.479 763.127 Q 16.379 759.147 20.439 758.057 Q 25.229 756.777 29.769 758.607 Q 33.789 760.227 36.759 764.097 Q 43.239 772.557 36.829 782.417 Q 36.049 783.627 34.179 785.377 Q 33.199 786.287 32.309 787.287 Q 31.309 788.407 30.189 788.787 Q 25.519 790.387 19.939 789.307 Q 17.319 788.797 15.809 787.257 Q 14.119 785.547 13.989 785.427 Q 10.019 781.997 8.529 776.787 Q 6.939 771.247 10.129 765.497 Q 10.859 764.177 11.669 763.697 Q 12.279 763.337 12.479 763.127 Z " fill="rgb(74,48,106)"/><path d=" M 11.229 776.307 Q 11.269 777.957 12.509 778.807 C 12.797 778.989 13.007 779.241 13.109 779.527 Q 13.839 781.357 15.249 782.247 Q 17.769 783.827 18.939 785.017 Q 17.189 784.967 16.379 783.867 Q 16.009 783.377 15.639 783.377 Q 14.999 783.377 15.529 783.907 Q 20.019 788.347 25.939 787.057 Q 30.699 786.017 34.369 781.697 Q 34.589 781.437 35.149 781.137 Q 35.969 780.697 36.499 779.367 Q 39.779 771.167 34.229 765.807 L 32.899 764.557 L 30.439 761.517 Q 29.799 760.617 27.939 760.557 Q 13.619 760.097 27.789 759.817 Q 28.209 759.807 27.819 759.687 Q 25.829 759.067 23.689 759.117 Q 20.839 759.177 22.329 758.667 Q 22.669 758.557 23.079 758.547 Q 31.199 758.437 35.689 764.057 Q 42.609 772.707 36.429 781.787 Q 35.469 783.197 33.629 784.477 Q 32.549 785.237 31.489 786.017 Q 30.259 786.927 29.229 787.327 Q 23.379 789.557 17.599 786.667 Q 13.879 784.807 12.019 781.467 Q 10.319 778.427 9.779 774.507 Q 9.189 770.277 10.999 766.117 Q 11.249 765.557 13.239 763.937 Q 13.599 763.637 13.279 763.997 Q 8.429 769.527 10.889 776.867 Q 11.239 777.887 11.229 776.307 Z " fill="rgb(74,48,106)"/><path d=" M 34.229 765.807 Q 39.779 771.167 36.499 779.367 Q 35.969 780.697 35.149 781.137 Q 34.589 781.437 34.369 781.697 Q 30.699 786.017 25.939 787.057 Q 20.019 788.347 15.529 783.907 Q 14.999 783.377 15.639 783.377 Q 16.009 783.377 16.379 783.867 Q 17.189 784.967 18.939 785.017 Q 24.359 785.937 29.619 784.467 Q 30.749 784.157 30.689 783.097 Q 34.089 780.957 34.939 778.557 Q 37.019 772.717 34.229 765.807 Z " fill="rgb(107,61,145)"/><path d=" M 30.439 761.517 L 32.899 764.557 Q 31.129 763.697 29.399 762.757 Q 27.419 761.687 25.739 761.577 Q 18.759 761.137 14.129 766.507 Q 11.969 769.027 12.899 772.307 Q 12.509 776.247 15.629 779.367 Q 19.889 783.647 25.189 784.017 Q 28.039 784.207 30.689 783.097 Q 30.749 784.157 29.619 784.467 Q 24.359 785.937 18.939 785.017 Q 17.769 783.827 15.249 782.247 Q 13.839 781.357 13.109 779.527 C 13.007 779.241 12.797 778.989 12.509 778.807 Q 11.269 777.957 11.229 776.307 Q 9.899 769.107 14.139 764.357 Q 17.029 761.127 21.639 760.537 Q 26.029 759.977 30.439 761.517 Z " fill="rgb(131,55,145)"/><path d=" M 32.899 764.557 L 34.229 765.807 Q 37.019 772.717 34.939 778.557 Q 34.089 780.957 30.689 783.097 Q 28.039 784.207 25.189 784.017 Q 29.189 783.177 31.549 780.267 Q 33.439 777.927 33.449 774.397 Q 33.459 771.307 32.549 768.057 C 32.459 767.736 32.275 767.448 32.019 767.227 Q 30.659 766.057 30.649 765.437 C 30.63 764.773 30.205 764.19 29.579 763.967 Q 21.699 761.147 16.379 765.747 Q 13.759 768.007 12.899 772.307 Q 11.969 769.027 14.129 766.507 Q 18.759 761.137 25.739 761.577 Q 27.419 761.687 29.399 762.757 Q 31.129 763.697 32.899 764.557 Z " fill="rgb(131,55,145)"/><path d=" M 25.189 784.017 Q 19.889 783.647 15.629 779.367 Q 12.509 776.247 12.899 772.307 Q 13.759 768.007 16.379 765.747 Q 21.699 761.147 29.579 763.967 C 30.205 764.19 30.63 764.773 30.649 765.437 Q 30.659 766.057 32.019 767.227 C 32.275 767.448 32.459 767.736 32.549 768.057 Q 33.459 771.307 33.449 774.397 Q 33.439 777.927 31.549 780.267 Q 29.189 783.177 25.189 784.017 Z " fill="rgb(184,77,199)"/><path d=" M 20.874 765.144 C 25.065 763.791 29.626 766.278 31.053 770.694 C 32.479 775.111 30.235 779.796 26.044 781.15 C 21.853 782.504 17.292 780.017 15.865 775.6 C 14.439 771.183 16.683 766.498 20.874 765.144 Z " fill="rgb(242,209,248)"/></g></g></svg>