<?xml version="1.0" encoding="UTF-8" standalone="no"?><!-- Generator: Gravit.io --><svg xmlns="http://www.w3.org/2000/svg" xmlns:xlink="http://www.w3.org/1999/xlink" style="isolation:isolate" viewBox="85 867.344 36.667 40.382" width="36.667pt" height="40.382pt"><defs><clipPath id="_clipPath_i9z8ilKcQaA22f6YKXfJBgcWpP40NLlv"><rect x="85" y="867.344" width="36.667" height="40.382"/></clipPath></defs><g clip-path="url(#_clipPath_i9z8ilKcQaA22f6YKXfJBgcWpP40NLlv)"><rect x="85" y="867.344" width="36.667" height="40.382" style="fill:rgb(0,0,0)" fill-opacity="0"/><g/><g/><g/><g/><g/><g/><g/><g/><g/><g/><g/><g/><g/><g/><g/><g/><g/><g/><g/><g/><g/><g/><g/><g/><g/><g/><g/><g/><g/><g/><g/><g/><g/><g/><g/><g/><g/><g/><g/><g/><g/><g/><g/><g/><g/><g/><g/><g/><g/><g/><g/><g/><g/><g/><g/><g/><g/><g/><g/><g/><g/><g/><g/><g/><g/><g/><g/><g/><g/><g/><g/><g/><g/><g/><g/><g/><g/><g/><g/><g/><g/><g/><g/><g/><g/><g/><g/><g/><g/><g/><g/><g/><g/><g/><g/><g/><g/><g/><g/><g/><g/><g/><g/><g/><g/><g/><g/><g/><g/><g/><g/><g/><g/><g/><g/><g/><g/><g/><g/><g/><g/><g/><g/><g/><g/><g/><g/><g/><g/><g/><g/><g/><g/><g/><g/><g/><g/><g/><g/><g/><g/><g/><g/><g/><g/><g/><g/><g/><g/><g/><g/><g/><g/><g/><g/><g/><g/><g/><g/><g/><g/><g/><g/><g/><g/><g/><g/><g/><g/><g/><g/><g/><g/><g/><g/><g/><g/><g/><g/><g/><g/><g/><g/><g/><g/><g/><g/><g/><g/><g/><g><path d=" M 119.871 893.175 Q 119.481 893.545 118.911 893.465 L 118.091 890.095 C 118.008 889.762 117.717 889.52 117.371 889.495 Q 109.221 888.965 101.841 891.075 C 101.468 891.172 101.195 891.382 101.111 891.635 L 99.881 894.815 C 99.698 894.952 99.622 895.126 99.669 895.297 C 99.717 895.469 99.883 895.623 100.131 895.725 L 102.401 898.775 C 102.618 899.029 102.601 899.388 102.361 899.625 Q 101.621 900.565 100.661 899.465 Q 97.771 895.435 91.661 895.765 Q 89.731 895.875 88.661 894.265 Q 86.891 891.625 87.771 888.745 C 87.852 888.493 88.106 888.297 88.431 888.235 Q 89.291 888.065 89.491 887.265 C 89.617 886.994 89.451 886.693 89.111 886.575 Q 87.311 885.595 89.021 883.025 Q 90.141 881.325 92.361 880.935 L 98.201 879.885 C 98.511 879.817 98.742 879.577 98.781 879.285 Q 100.151 872.605 101.681 870.275 Q 104.071 866.655 106.141 870.675 Q 110.401 878.995 111.931 880.655 Q 113.281 882.115 115.911 881.925 Q 118.221 881.755 118.811 884.005 Q 119.881 888.015 119.871 893.175 Z " fill="rgb(253,187,83)"/><path d=" M 118.911 893.465 Q 115.951 894.685 112.931 895.785 Q 111.051 896.465 109.611 897.755 Q 108.411 898.815 107.541 900.895 Q 106.541 903.245 105.551 906.165 Q 104.651 908.785 102.521 907.005 Q 99.971 904.865 100.581 900.465 L 100.661 899.465 Q 101.621 900.565 102.361 899.625 C 102.601 899.388 102.618 899.029 102.401 898.775 L 100.131 895.725 C 99.883 895.623 99.717 895.469 99.669 895.297 C 99.622 895.126 99.698 894.952 99.881 894.815 L 101.111 891.635 C 101.195 891.382 101.468 891.172 101.841 891.075 Q 109.221 888.965 117.371 889.495 C 117.717 889.52 118.008 889.762 118.091 890.095 L 118.911 893.465 Z " fill="rgb(251,168,79)"/><path d=" M 119.871 893.175 Q 119.881 888.015 118.811 884.005 Q 118.221 881.755 115.911 881.925 Q 113.281 882.115 111.931 880.655 Q 110.401 878.995 106.141 870.675 Q 104.071 866.655 101.681 870.275 Q 100.151 872.605 98.781 879.285 C 98.742 879.577 98.511 879.817 98.201 879.885 L 92.361 880.935 Q 90.141 881.325 89.021 883.025 Q 87.311 885.595 89.111 886.575 C 89.451 886.693 89.617 886.994 89.491 887.265 Q 89.291 888.065 88.431 888.235 C 88.106 888.297 87.852 888.493 87.771 888.745 Q 86.891 891.625 88.661 894.265 Q 89.731 895.875 91.661 895.765 Q 97.771 895.435 100.661 899.465 L 100.581 900.465 Q 96.251 898.185 91.011 897.335 Q 88.711 896.955 87.521 894.945 Q 87.351 894.645 86.011 893.995 C 85.717 893.853 85.507 893.596 85.441 893.295 Q 83.391 884.365 90.881 879.425 C 91.156 879.27 91.477 879.18 91.811 879.165 Q 96.361 879.145 97.571 874.705 C 97.398 874.607 97.356 874.487 97.454 874.376 C 97.553 874.264 97.783 874.17 98.091 874.115 Q 98.311 873.945 98.311 873.655 Q 98.281 870.125 101.311 868.405 Q 104.261 866.715 105.621 867.715 Q 107.901 869.385 109.681 871.535 Q 109.931 871.835 112.271 875.585 Q 113.571 877.665 115.351 879.365 Q 115.691 879.675 118.191 881.055 Q 119.771 881.925 120.351 883.685 Q 121.071 885.905 121.171 886.165 Q 122.611 889.965 119.871 893.175 Z " fill="rgb(97,53,56)"/></g></g></svg>