<?xml version="1.0" encoding="UTF-8" standalone="no"?><!-- Generator: Gravit.io --><svg xmlns="http://www.w3.org/2000/svg" xmlns:xlink="http://www.w3.org/1999/xlink" style="isolation:isolate" viewBox="90.602 891.295 33.012 33.705" width="33.012pt" height="33.705pt"><defs><clipPath id="_clipPath_ZEXpPf8KityCWCxCh2o4EN5HpXtp7CqN"><rect x="90.602" y="891.295" width="33.012" height="33.705"/></clipPath></defs><g clip-path="url(#_clipPath_ZEXpPf8KityCWCxCh2o4EN5HpXtp7CqN)"><rect x="90.602" y="891.295" width="33.012" height="33.705" style="fill:rgb(0,0,0)" fill-opacity="0"/><g/><g/><g/><g/><g/><g/><g/><g/><g/><g/><g/><g/><g/><g/><g/><g/><g/><g/><g/><g/><g/><g/><g/><g/><g/><g/><g/><g/><g/><g/><g/><g/><g/><g/><g/><g/><g/><g/><g/><g/><g/><g/><g/><g/><g/><g/><g/><g/><g/><g/><g/><g/><g/><g/><g/><g/><g/><g/><g/><g/><g/><g/><g/><g/><g/><g/><g/><g/><g/><g/><g/><g/><g/><g/><g/><g/><g/><g/><g/><g/><g/><g/><g/><g/><g/><g/><g/><g/><g/><g/><g/><g/><g/><g/><g/><g/><g/><g/><g/><g/><g/><g/><g/><g/><g/><g/><g/><g/><g/><g/><g/><g/><g/><g/><g/><g/><g/><g/><g/><g/><g/><g/><g/><g/><g/><g/><g/><g/><g/><g/><g/><g/><g/><g/><g/><g/><g/><g/><g/><g/><g/><g/><g/><g/><g/><g/><g/><g/><g/><g/><g/><g/><g/><g/><g/><g/><g/><g/><g/><g/><g/><g/><g/><g/><g/><g/><g/><g/><g/><g/><g/><g/><g/><g/><g/><g/><g/><g/><g/><g/><g/><g/><g/><g/><g/><g/><g/><g/><g/><g/><g><path d=" M 92.602 912.717 Q 91.332 911.737 90.652 908.797 C 90.537 908.325 90.62 907.827 90.882 907.417 Q 93.812 902.707 97.712 898.807 Q 98.072 898.447 98.392 898.057 Q 101.522 894.277 105.332 891.927 Q 107.532 890.577 109.182 892.107 Q 109.562 892.467 110.012 892.617 Q 111.642 893.157 112.682 894.637 Q 113.042 895.147 113.542 895.517 Q 116.412 897.657 117.612 899.717 C 117.757 899.991 117.994 900.224 118.292 900.387 Q 121.322 901.957 122.812 904.797 Q 124.272 907.577 123.072 910.607 Q 122.092 913.077 120.132 914.927 Q 117.322 917.567 117.272 917.627 Q 114.232 920.957 111.132 924.237 C 110.92 924.467 110.634 924.634 110.312 924.717 Q 105.012 925.867 101.492 922.337 Q 98.552 919.397 98.422 919.277 Q 95.492 916.677 93.312 913.397 Q 93.112 913.107 92.602 912.717 Z " fill="rgb(88,55,72)"/><path d=" M 101.292 900.357 Q 103.562 897.477 106.982 894.267 C 107.193 894.073 107.517 894.06 107.742 894.237 Q 114.012 899.317 118.552 905.997 Q 119.792 907.827 119.012 909.907 Q 117.102 914.977 112.762 917.987 Q 111.732 918.697 110.972 919.707 Q 109.062 922.227 106.852 922.007 C 106.525 921.968 106.225 921.811 106.012 921.567 L 96.592 911.037 C 96.074 910.447 95.363 909.989 94.542 909.717 Q 91.922 908.997 94.032 908.267 Q 94.572 908.077 94.912 907.727 Q 97.822 904.727 101.292 900.357 Z " fill="rgb(234,136,42)"/><path d=" M 121.072 906.347 Q 124.202 907.727 121.792 908.477 Q 119.382 909.227 119.812 907.007 C 119.865 906.736 120.038 906.503 120.283 906.374 C 120.529 906.246 120.819 906.236 121.072 906.347 Z " fill="rgb(213,123,94)"/><path d=" M 106.492 918.057 Q 100.382 913.367 98.502 909.397 C 98.358 909.097 98.333 908.755 98.432 908.437 Q 100.402 902.217 107.282 900.137 Q 108.982 899.627 110.402 900.687 Q 114.012 903.407 115.162 908.047 Q 115.842 910.797 114.502 913.097 Q 112.922 915.787 109.992 917.767 C 109.358 918.193 108.859 918.789 108.552 919.487 Q 107.722 921.347 107.252 919.247 C 107.15 918.775 106.881 918.353 106.492 918.057 Z " fill="rgb(251,245,76)"/></g></g></svg>