<?xml version="1.0" encoding="UTF-8" standalone="no"?><!-- Generator: Gravit.io --><svg xmlns="http://www.w3.org/2000/svg" xmlns:xlink="http://www.w3.org/1999/xlink" style="isolation:isolate" viewBox="107.985 880 18.001 16.883" width="18.001pt" height="16.883pt"><defs><clipPath id="_clipPath_6TqhdCuTStF6XP1C1NsZtxIVc6hzS4fE"><rect x="107.985" y="880" width="18.001" height="16.883"/></clipPath></defs><g clip-path="url(#_clipPath_6TqhdCuTStF6XP1C1NsZtxIVc6hzS4fE)"><rect x="107.985" y="880" width="18.001" height="16.883" style="fill:rgb(0,0,0)" fill-opacity="0"/><g/><g/><g/><g/><g/><g/><g/><g/><g/><g/><g/><g/><g/><g/><g/><g/><g/><g/><g/><g/><g/><g/><g/><g/><g/><g/><g/><g/><g/><g/><g/><g/><g/><g/><g/><g/><g/><g/><g/><g/><g/><g/><g/><g/><g/><g/><g/><g/><g/><g/><g/><g/><g/><g/><g/><g/><g/><g/><g/><g/><g/><g/><g/><g/><g/><g/><g/><g/><g/><g/><g/><g/><g/><g/><g/><g/><g/><g/><g/><g/><g/><g/><g/><g/><g/><g/><g/><g/><g/><g/><g/><g/><g/><g/><g/><g/><g/><g/><g/><g/><g/><g/><g/><g/><g/><g/><g/><g/><g/><g/><g/><g/><g/><g/><g/><g/><g/><g/><g/><g/><g/><g/><g/><g/><g/><g/><g/><g/><g/><g/><g/><g/><g/><g/><g/><g/><g/><g/><g/><g/><g/><g/><g/><g/><g/><g/><g/><g/><g/><g/><g/><g/><g/><g/><g/><g/><g/><g/><g/><g/><g/><g/><g/><g/><g/><g/><g/><g/><g/><g/><g/><g/><g/><g/><g/><g/><g/><g/><g/><g/><g/><g/><g/><g/><g/><g/><g/><g/><g/><g/><g><path d=" M 116.859 895.48 L 116.649 894.52 Q 117.619 894.4 117.879 893.43 Q 119.589 887.23 124.219 882.78 Q 125.469 881.59 123.719 881.76 L 113.869 882.71 C 113.557 882.736 113.271 882.889 113.085 883.13 C 112.9 883.372 112.832 883.678 112.899 883.97 Q 114.059 889.3 116.359 894.23 Q 112.009 893.09 111.679 888.73 Q 111.639 888.24 111.379 887.81 Q 109.789 885.14 110.679 882.14 C 110.647 881.907 110.91 881.688 111.339 881.59 L 114.649 880.27 L 124.139 880 C 124.475 880.015 124.788 880.13 125.009 880.32 Q 126.559 881.98 125.649 884.98 Q 124.809 887.75 123.619 889.4 Q 121.999 891.66 121.659 892.36 Q 120.899 894 120.019 895.57 Q 118.519 898.24 116.859 895.48 Z " fill="rgb(233,113,76)"/><path d=" M 116.649 894.52 Q 116.419 894.46 116.359 894.23 Q 114.059 889.3 112.899 883.97 C 112.832 883.678 112.9 883.372 113.085 883.13 C 113.271 882.889 113.557 882.736 113.869 882.71 L 123.719 881.76 Q 125.469 881.59 124.219 882.78 Q 119.589 887.23 117.879 893.43 Q 117.619 894.4 116.649 894.52 Z " fill="rgb(252,245,111)"/><path d=" M 114.649 880.27 L 111.339 881.59 C 110.91 881.688 110.647 881.907 110.679 882.14 Q 109.789 885.14 111.379 887.81 Q 111.639 888.24 111.679 888.73 Q 112.009 893.09 116.359 894.23 Q 116.419 894.46 116.649 894.52 L 116.859 895.48 Q 115.179 896.34 113.329 896.31 C 113.023 896.294 112.759 896.098 112.669 895.82 Q 110.839 890.67 110.089 889.54 Q 108.579 887.3 108.089 884.69 Q 107.769 882.95 108.429 881.85 Q 109.329 880.35 111.319 880.4 Q 112.059 880.42 112.949 880.26 Q 113.779 880.11 114.649 880.27 Z " fill="rgb(222,93,83)"/></g></g></svg>