<?xml version="1.0" encoding="UTF-8" standalone="no"?><!-- Generator: Gravit.io --><svg xmlns="http://www.w3.org/2000/svg" xmlns:xlink="http://www.w3.org/1999/xlink" style="isolation:isolate" viewBox="106.399 882.632 35.794 40.368" width="35.794pt" height="40.368pt"><defs><clipPath id="_clipPath_Q8pcPi1vxrMzJusic3oqiEGgv6kiHq5v"><rect x="106.399" y="882.632" width="35.794" height="40.368"/></clipPath></defs><g clip-path="url(#_clipPath_Q8pcPi1vxrMzJusic3oqiEGgv6kiHq5v)"><rect x="106.399" y="882.632" width="35.794" height="40.368" style="fill:rgb(0,0,0)" fill-opacity="0"/><g/><g/><g/><g/><g/><g/><g/><g/><g/><g/><g/><g/><g/><g/><g/><g/><g/><g/><g/><g/><g/><g/><g/><g/><g/><g/><g/><g/><g/><g/><g/><g/><g/><g/><g/><g/><g/><g/><g/><g/><g/><g/><g/><g/><g/><g/><g/><g/><g/><g/><g/><g/><g/><g/><g/><g/><g/><g/><g/><g/><g/><g/><g/><g/><g/><g/><g/><g/><g/><g/><g/><g/><g/><g/><g/><g/><g/><g/><g/><g/><g/><g/><g/><g/><g/><g/><g/><g/><g/><g/><g/><g/><g/><g/><g/><g/><g/><g/><g/><g/><g/><g/><g/><g/><g/><g/><g/><g/><g/><g/><g/><g/><g/><g/><g/><g/><g/><g/><g/><g/><g/><g/><g/><g/><g/><g/><g/><g/><g/><g/><g/><g/><g/><g/><g/><g/><g/><g/><g/><g/><g/><g/><g/><g/><g/><g/><g/><g/><g/><g/><g/><g/><g/><g/><g/><g/><g/><g/><g/><g/><g/><g/><g/><g/><g/><g/><g/><g/><g/><g/><g/><g/><g/><g/><g/><g/><g/><g/><g/><g/><g/><g/><g/><g/><g/><g/><g/><g/><g/><g/><g><g><path d=" M 128.275 916.16 L 125.235 921.2 Q 123.935 923.08 122.725 921.06 Q 120.815 917.88 120.345 914.67 C 120.251 914.025 119.659 913.569 119.005 913.64 Q 113.075 914.34 108.835 911.55 C 108.214 911.147 107.95 910.375 108.195 909.68 Q 109.435 906.06 111.585 903.3 C 112.03 902.808 112.096 902.133 111.755 901.58 L 109.085 895.37 C 108.931 895.027 108.957 894.632 109.156 894.312 C 109.355 893.992 109.702 893.786 110.085 893.76 L 117.725 893.14 C 118.754 893.044 119.623 892.387 119.935 891.47 Q 121.235 887.48 123.205 885.28 Q 125.725 882.47 127.335 885.88 Q 129.365 890.17 130.925 894.65 Q 131.965 897.63 135.035 898.39 Q 136.695 898.8 138.815 899.67 C 139.553 899.976 139.963 900.771 139.785 901.55 Q 138.865 905.67 135.755 907.92 Q 133.505 909.56 131.215 911.14 Q 128.625 912.95 128.275 916.16 Z " fill="rgb(251,183,82)"/><path d=" M 128.275 916.16 Q 128.625 912.95 131.215 911.14 Q 133.505 909.56 135.755 907.92 Q 138.865 905.67 139.785 901.55 C 139.963 900.771 139.553 899.976 138.815 899.67 Q 136.695 898.8 135.035 898.39 Q 131.965 897.63 130.925 894.65 Q 129.365 890.17 127.335 885.88 Q 125.725 882.47 123.205 885.28 Q 121.235 887.48 119.935 891.47 C 119.623 892.387 118.754 893.044 117.725 893.14 L 110.085 893.76 C 109.702 893.786 109.355 893.992 109.156 894.312 C 108.957 894.632 108.931 895.027 109.085 895.37 L 111.755 901.58 C 112.096 902.133 112.03 902.808 111.585 903.3 Q 109.435 906.06 108.195 909.68 C 107.95 910.375 108.214 911.147 108.835 911.55 Q 113.075 914.34 119.005 913.64 C 119.659 913.569 120.251 914.025 120.345 914.67 Q 120.815 917.88 122.725 921.06 Q 123.935 923.08 125.235 921.2 Q 125.795 922.86 122.735 923 C 122.032 922.982 121.41 922.57 121.165 921.96 L 118.525 915.76 C 118.163 914.998 117.304 914.556 116.425 914.68 Q 113.335 915.18 110.455 914.48 Q 108.165 913.92 107.225 912.48 Q 106.165 910.84 106.465 908.39 Q 107.195 902.34 106.835 897.64 Q 106.565 893.95 109.595 892.48 Q 110.835 891.89 110.925 891.84 Q 115.435 889.26 118.585 886.01 Q 120.975 883.56 123.855 882.65 C 124.169 882.593 124.501 882.672 124.695 882.85 L 124.925 883.25 C 124.995 883.418 125.21 883.529 125.445 883.52 Q 127.245 882.85 128.465 884.76 Q 129.995 887.17 134.055 892.2 Q 135.195 893.61 136.905 894.73 Q 138.515 895.8 140.065 896.96 C 140.337 897.155 140.472 897.457 140.425 897.76 Q 140.405 899.13 141.165 899.65 Q 142.825 900.76 141.805 902.48 Q 138.645 907.83 133.965 911.64 Q 131.315 913.79 130.255 915.4 Q 129.845 916.03 129.455 916.16 Q 128.915 916.35 128.275 916.16 Z " fill="rgb(81,50,57)"/></g></g></g></svg>