<?xml version="1.0" encoding="UTF-8" standalone="no"?><!-- Generator: Gravit.io --><svg xmlns="http://www.w3.org/2000/svg" xmlns:xlink="http://www.w3.org/1999/xlink" style="isolation:isolate" viewBox="109.665 839.356 31.257 31.644" width="31.257pt" height="31.644pt"><defs><clipPath id="_clipPath_4qjccbxDxao1emhS7y1WULk25yUXCFn0"><rect x="109.665" y="839.356" width="31.257" height="31.644"/></clipPath></defs><g clip-path="url(#_clipPath_4qjccbxDxao1emhS7y1WULk25yUXCFn0)"><rect x="109.665" y="839.356" width="31.257" height="31.644" style="fill:rgb(0,0,0)" fill-opacity="0"/><g/><g/><g/><g/><g/><g/><g/><g/><g/><g/><g/><g/><g/><g/><g/><g/><g/><g/><g/><g/><g/><g/><g/><g/><g/><g/><g/><g/><g/><g/><g/><g/><g/><g/><g/><g/><g/><g/><g/><g/><g/><g/><g/><g/><g/><g/><g/><g/><g/><g/><g/><g/><g/><g/><g/><g/><g/><g/><g/><g/><g/><g/><g/><g/><g/><g/><g/><g/><g/><g/><g/><g/><g/><g/><g/><g/><g/><g/><g/><g/><g/><g/><g/><g/><g/><g/><g/><g/><g/><g/><g/><g/><g/><g/><g/><g/><g/><g/><g/><g/><g/><g/><g/><g/><g/><g/><g/><g/><g/><g/><g/><g/><g/><g/><g/><g/><g/><g/><g/><g/><g/><g/><g/><g/><g/><g/><g/><g/><g/><g/><g/><g/><g/><g/><g/><g/><g/><g/><g/><g/><g/><g/><g/><g/><g/><g/><g/><g/><g/><g/><g/><g/><g/><g/><g/><g/><g/><g/><g/><g/><g/><g/><g/><g/><g/><g/><g/><g/><g/><g/><g/><g/><g/><g/><g/><g/><g/><g/><g/><g/><g/><g/><g/><g/><g/><g/><g/><g/><g/><g/><g><path d=" M 111.052 860.928 Q 108.922 856.768 110.062 852.168 Q 111.762 845.358 117.512 841.838 Q 118.662 841.138 121.022 840.568 Q 122.252 840.268 123.442 839.838 Q 124.812 839.328 125.862 839.358 Q 131.542 839.498 135.362 843.118 Q 136.912 844.588 137.852 845.178 Q 138.332 845.488 138.542 845.868 Q 141.662 851.748 140.692 858.128 Q 140.142 861.698 137.672 864.478 Q 135.262 867.188 132.082 869.108 Q 126.892 872.248 121.052 870.178 Q 118.432 869.248 117.052 868.178 Q 113.262 865.238 111.052 860.928 Z " fill="rgb(80,43,67)"/><path d=" M 134.672 848.808 Q 136.292 851.038 136.842 853.228 Q 137.332 855.208 137.262 858.018 Q 137.132 862.918 133.172 865.428 Q 129.942 867.478 125.642 867.478 Q 121.562 867.478 118.462 865.438 Q 114.532 862.868 112.812 858.098 Q 110.732 852.328 114.362 847.118 Q 115.702 845.198 117.452 844.068 Q 118.932 843.118 121.482 842.958 Q 124.042 842.808 126.612 842.818 Q 129.512 842.828 130.882 845.178 C 131.039 845.452 131.275 845.677 131.562 845.828 Q 133.112 846.658 134.672 848.808 Z " fill="rgb(138,46,70)"/><path d=" M 121.112 863.868 Q 117.082 862.358 114.862 858.368 Q 114.242 857.258 114.182 851.688 C 114.175 851.365 114.281 851.05 114.482 850.798 Q 115.272 849.818 115.982 848.778 Q 117.672 846.278 120.322 845.398 Q 122.672 844.618 125.552 844.738 Q 128.342 844.868 130.622 846.458 Q 132.572 847.828 133.882 850.408 Q 138.122 858.778 129.112 864.368 Q 127.172 865.568 124.942 865.108 Q 123.732 864.848 121.112 863.868 Z " fill="rgb(202,69,74)"/><path d=" M 119.24 849.06 C 122.351 846.149 127.387 846.468 130.479 849.773 C 133.572 853.077 133.556 858.124 130.445 861.035 C 127.334 863.946 122.298 863.627 119.206 860.322 C 116.113 857.018 116.128 851.972 119.24 849.06 Z " fill="rgb(254,239,143)"/></g></g></svg>