<?xml version="1.0" encoding="UTF-8" standalone="no"?><!-- Generator: Gravit.io --><svg xmlns="http://www.w3.org/2000/svg" xmlns:xlink="http://www.w3.org/1999/xlink" style="isolation:isolate" viewBox="108.066 822 34.147 32.201" width="34.147pt" height="32.201pt"><defs><clipPath id="_clipPath_IA47y5IOmx6VX1cDnesSw362iMKTJan6"><rect x="108.066" y="822" width="34.147" height="32.201"/></clipPath></defs><g clip-path="url(#_clipPath_IA47y5IOmx6VX1cDnesSw362iMKTJan6)"><rect x="108.066" y="822" width="34.147" height="32.201" style="fill:rgb(0,0,0)" fill-opacity="0"/><g/><g/><g/><g/><g/><g/><g/><g/><g/><g/><g/><g/><g/><g/><g/><g/><g/><g/><g/><g/><g/><g/><g/><g/><g/><g/><g/><g/><g/><g/><g/><g/><g/><g/><g/><g/><g/><g/><g/><g/><g/><g/><g/><g/><g/><g/><g/><g/><g/><g/><g/><g/><g/><g/><g/><g/><g/><g/><g/><g/><g/><g/><g/><g/><g/><g/><g/><g/><g/><g/><g/><g/><g/><g/><g/><g/><g/><g/><g/><g/><g/><g/><g/><g/><g/><g/><g/><g/><g/><g/><g/><g/><g/><g/><g/><g/><g/><g/><g/><g/><g/><g/><g/><g/><g/><g/><g/><g/><g/><g/><g/><g/><g/><g/><g/><g/><g/><g/><g/><g/><g/><g/><g/><g/><g/><g/><g/><g/><g/><g/><g/><g/><g/><g/><g/><g/><g/><g/><g/><g/><g/><g/><g/><g/><g/><g/><g/><g/><g/><g/><g/><g/><g/><g/><g/><g/><g/><g/><g/><g/><g/><g/><g/><g/><g/><g/><g/><g/><g/><g/><g/><g/><g/><g/><g/><g/><g/><g/><g/><g/><g/><g/><g/><g/><g/><g/><g/><g/><g/><g/><g><path d=" M 139.7 830.169 Q 144.47 837.319 140.19 844.069 Q 138.52 846.709 137.88 847.629 Q 136.65 849.389 134.85 850.699 Q 125.97 857.179 115.95 851.669 Q 112.57 849.809 110.54 847.059 Q 108.64 844.479 108.22 840.619 Q 107.87 837.479 108.32 834.349 Q 108.77 831.219 110.77 828.759 Q 117.6 820.379 128.51 822.389 Q 132.15 823.059 134.85 825.059 Q 137.679 827.159 139.7 830.169 Z " fill="rgb(63,37,54)"/><path d=" M 121.14 849.729 Q 120.58 849.199 119.989 848.709 Q 119.59 848.379 118.679 847.929 Q 116.34 846.789 114.7 843.669 Q 111.95 838.399 113.83 832.669 Q 114.679 830.049 117.109 829.079 Q 117.57 828.899 117.88 828.519 Q 118.91 827.289 120.39 826.869 Q 120.549 826.829 123.239 826.359 Q 131.02 824.999 135.7 831.919 Q 137.01 833.849 137.21 835.909 Q 137.44 838.229 137.2 840.039 Q 136.9 842.389 134.89 844.729 Q 132.51 847.509 131.5 848.009 Q 126.65 850.449 121.14 849.729 Z " fill="rgb(115,43,59)"/><path d=" M 121.14 849.729 Q 126.65 850.449 131.5 848.009 Q 132.51 847.509 134.89 844.729 Q 136.9 842.389 137.2 840.039 Q 137.44 838.229 137.21 835.909 Q 137.01 833.849 135.7 831.919 Q 131.02 824.999 123.239 826.359 Q 120.549 826.829 120.39 826.869 Q 118.91 827.289 117.88 828.519 Q 117.57 828.899 117.109 829.079 Q 114.679 830.049 113.83 832.669 Q 111.95 838.399 114.7 843.669 Q 116.34 846.789 118.679 847.929 Q 119.59 848.379 119.989 848.709 Q 120.58 849.199 121.14 849.729 Q 119.799 849.829 118.81 849.009 Q 118.4 848.669 117.97 848.549 Q 115 847.709 113.62 845.319 Q 112.72 843.769 111.82 840.509 Q 110.12 834.279 114.71 829.049 Q 118.65 824.549 124.7 825.049 Q 126.78 825.219 128.89 825.029 C 129.219 825.009 129.548 825.071 129.84 825.209 Q 133.01 826.889 135.31 829.529 Q 137.31 831.819 137.609 834.999 Q 137.91 838.249 137.33 841.469 Q 136.989 843.379 135.51 845.009 Q 133.299 847.449 132.64 847.979 Q 127.739 851.879 121.14 849.729 Z " fill="rgb(93,39,67)"/><path d=" M 134.85 836.729 Q 133.67 831.999 129.859 829.459 Q 127.7 828.009 126.359 827.619 Q 124.28 827.019 122.19 828.269 Q 120.97 828.989 119.62 829.359 C 119.145 829.481 118.864 829.686 118.88 829.899 L 115.429 833.729 Q 115.01 831.999 116.7 830.289 Q 120.83 826.129 125.9 826.599 Q 126.02 826.609 127.89 826.629 Q 129.53 826.639 130.4 828.049 C 130.555 828.307 130.798 828.522 131.1 828.669 Q 136.39 830.929 134.85 836.729 Z " fill="rgb(138,46,70)"/><path d=" M 134.85 836.729 Q 135.13 842.679 130.39 845.729 Q 127.57 847.539 124.34 847.319 Q 121.359 847.119 118.799 845.179 Q 113.57 841.199 115.429 833.729 L 118.88 829.899 C 118.864 829.686 119.145 829.481 119.62 829.359 Q 120.97 828.989 122.19 828.269 Q 124.28 827.019 126.359 827.619 Q 127.7 828.009 129.859 829.459 Q 133.67 831.999 134.85 836.729 Z " fill="rgb(202,69,74)"/><path d=" M 119.946 831.502 C 123.277 828.872 128.192 829.535 130.914 832.983 C 133.637 836.43 133.144 841.365 129.813 843.996 C 126.482 846.626 121.567 845.963 118.845 842.515 C 116.122 839.067 116.615 834.133 119.946 831.502 Z " fill="rgb(254,234,136)"/></g></g></svg>