
<svg xmlns="http://www.w3.org/2000/svg" version="1.1" viewBox="0 0 1024 1024">
<g stroke-width="2.00" fill="none" stroke-linecap="butt">
<path stroke="#fdebe8" vector-effect="non-scaling-stroke" d="
  M 398.50 138.54
  Q 394.32 139.24 389.06 141.06
  Q 302.94 170.90 239.74 235.10
  Q 232.78 242.16 226.22 249.85
  Q 151.41 337.41 136.25 451.75
  Q 128.09 513.30 139.00 577.00
  Q 139.09 577.50 139.54 578.75"
/>
<path stroke="#c3a1ba" vector-effect="non-scaling-stroke" d="
  M 139.54 578.75
  Q 151.13 641.18 182.50 696.29"
/>
<path stroke="#bd9db0" vector-effect="non-scaling-stroke" d="
  M 182.50 696.29
  Q 191.80 713.47 203.25 729.29"
/>
<path stroke="#ab969c" vector-effect="non-scaling-stroke" d="
  M 203.25 729.29
  Q 246.11 789.79 309.21 828.75"
/>
<path stroke="#a09195" vector-effect="non-scaling-stroke" d="
  M 309.21 828.75
  Q 389.11 879.40 483.76 886.64
  Q 531.85 890.31 576.50 881.50
  Q 666.17 863.80 738.64 807.18
  Q 746.58 800.98 754.03 794.42
  Q 814.74 740.97 849.31 666.56
  Q 883.29 593.44 885.96 513.50"
/>
<path stroke="#ab969c" vector-effect="non-scaling-stroke" d="
  M 885.96 513.50
  Q 888.21 443.29 866.21 376.75"
/>
<path stroke="#f4b9ad" vector-effect="non-scaling-stroke" d="
  M 866.21 376.75
  Q 865.96 375.24 865.46 373.80
  Q 837.65 294.09 778.83 233.67
  Q 747.17 201.14 709.19 178.06
  Q 648.92 141.45 578.95 127.74
  Q 572.27 126.43 565.50 125.71"
/>
<path stroke="#fcddd9" vector-effect="non-scaling-stroke" d="
  M 565.50 125.71
  Q 532.35 121.28 492.00 122.50
  Q 455.90 123.59 422.06 131.56
  Q 411.37 134.08 398.50 138.54"
/>
<path stroke="#f09687" vector-effect="non-scaling-stroke" d="
  M 565.50 125.71
  Q 558.77 126.94 557.00 127.00
  Q 549.13 127.25 547.53 127.61
  Q 541.20 129.06 535.00 130.96"
/>
<path stroke="#f7a79c" vector-effect="non-scaling-stroke" d="
  M 535.00 130.96
  Q 521.57 134.75 508.13 138.46
  Q 450.49 154.37 399.10 184.88
  Q 361.27 207.33 329.06 234.56
  Q 281.32 274.93 241.69 325.19
  Q 236.15 332.22 231.62 342.42
  Q 231.19 343.37 231.42 344.13
  Q 231.68 345.01 232.29 345.75"
/>
<path stroke="#b3787a" vector-effect="non-scaling-stroke" d="
  M 232.29 345.75
  Q 225.70 353.22 223.71 363.00"
/>
<path stroke="#f7a79c" vector-effect="non-scaling-stroke" d="
  M 223.71 363.00
  Q 222.35 363.44 221.67 364.68
  Q 216.04 374.99 209.50 384.75
  Q 208.83 385.75 208.00 386.04"
/>
<path stroke="#a87374" vector-effect="non-scaling-stroke" d="
  M 208.00 386.04
  Q 204.78 383.42 201.29 385.50"
/>
<path stroke="#fac9c2" vector-effect="non-scaling-stroke" d="
  M 201.29 385.50
  Q 201.09 383.89 202.54 382.61
  Q 203.85 381.46 204.72 379.95
  Q 213.70 364.38 224.30 349.30
  Q 224.36 349.22 227.94 344.42
  Q 230.17 341.42 232.04 338.19
  Q 232.84 336.80 236.87 330.06
  Q 239.31 325.99 240.94 321.48
  Q 245.17 309.75 249.87 298.20
  Q 266.02 258.54 292.14 224.63
  Q 333.85 170.50 395.54 141.11
  Q 396.49 140.66 397.15 139.99
  Q 397.85 139.29 398.50 138.54"
/>
<path stroke="#aa8184" vector-effect="non-scaling-stroke" d="
  M 201.29 385.50
  Q 197.64 388.48 198.29 393.25"
/>
<path stroke="#fac9c2" vector-effect="non-scaling-stroke" d="
  M 190.46 407.25
  Q 189.08 408.06 188.25 409.36
  Q 186.99 411.34 186.95 411.38
  Q 180.04 420.25 173.06 429.06
  Q 166.04 437.93 157.97 452.48
  Q 146.16 473.75 144.14 497.96
  Q 144.09 498.54 144.40 501.51
  Q 144.58 503.19 144.08 505.16
  Q 143.92 505.79 143.94 506.44
  Q 144.94 542.07 159.57 574.61
  Q 160.46 576.60 164.00 584.25
  Q 164.39 585.10 164.96 585.00"
/>
<path stroke="#c18da3" vector-effect="non-scaling-stroke" d="
  M 165.75 586.96
  Q 152.11 584.59 139.54 578.75"
/>
<path stroke="#b36670" vector-effect="non-scaling-stroke" d="
  M 583.25 164.96
  L 564.13 175.24
  A 3.84 3.45 -52.5 0 1 561.87 175.66
  Q 553.66 174.43 544.75 174.98
  Q 537.83 175.40 532.50 178.00
  Q 528.16 180.12 526.75 185.21"
/>
<path stroke="#bd6a7d" vector-effect="non-scaling-stroke" d="
  M 526.75 185.21
  Q 525.67 187.27 525.50 188.00
  Q 522.91 199.05 522.75 211.50
  Q 522.75 211.87 522.25 211.79"
/>
<path stroke="#b16564" vector-effect="non-scaling-stroke" d="
  M 522.25 211.79
  Q 517.27 209.84 510.00 209.00
  Q 500.93 207.96 495.82 214.09
  Q 494.21 216.04 493.83 217.80
  Q 493.33 220.19 494.81 222.19
  Q 498.54 227.21 505.50 227.44
  Q 508.25 227.53 511.00 227.46"
/>
<path stroke="#f68875" vector-effect="non-scaling-stroke" d="
  M 511.00 227.46
  Q 511.39 228.92 510.31 229.31
  Q 506.50 230.70 502.61 229.28
  Q 500.78 228.62 499.02 229.45
  Q 493.95 231.87 489.20 235.42
  Q 482.68 240.29 476.47 245.54
  Q 467.16 253.40 467.05 253.49
  Q 451.40 266.46 436.09 279.82
  Q 433.86 281.76 431.50 283.54"
/>
<path stroke="#be6b7e" vector-effect="non-scaling-stroke" d="
  M 431.50 283.54
  Q 422.02 280.75 412.31 278.96
  Q 400.44 276.77 389.14 280.78
  Q 371.43 287.07 357.28 299.08
  Q 351.07 304.34 346.79 308.99
  Q 341.74 314.48 338.19 320.69
  Q 331.95 331.60 334.21 344.50"
/>
<path stroke="#ae646a" vector-effect="non-scaling-stroke" d="
  M 334.21 344.50
  Q 336.01 357.43 341.40 369.33
  Q 346.27 380.08 351.64 390.58
  Q 352.98 393.20 353.75 396.04"
/>
<path stroke="#a45f5f" vector-effect="non-scaling-stroke" d="
  M 353.75 396.04
  Q 354.24 400.16 352.81 404.81
  Q 349.20 416.60 342.13 425.64
  Q 338.36 430.47 334.31 435.06
  Q 330.06 439.89 326.46 448.50"
/>
<path stroke="#f68875" vector-effect="non-scaling-stroke" d="
  M 326.46 448.50
  Q 324.71 448.29 323.56 449.31
  Q 290.56 478.88 259.19 504.44
  Q 254.13 508.56 252.50 510.79"
/>
<path stroke="#a45f5f" vector-effect="non-scaling-stroke" d="
  M 252.50 510.79
  Q 246.78 510.00 241.00 510.21"
/>
<path stroke="#be6b7e" vector-effect="non-scaling-stroke" d="
  M 241.00 510.21
  Q 239.70 510.09 234.50 510.50
  Q 227.29 511.07 222.61 515.08
  Q 219.53 517.73 216.41 524.96
  Q 209.60 540.73 204.84 557.28
  Q 202.81 564.36 203.50 570.50
  Q 204.45 578.94 197.39 582.46
  Q 182.39 589.92 165.75 586.96"
/>
<path stroke="#f8b6ac" vector-effect="non-scaling-stroke" d="
  M 165.75 586.96
  Q 165.80 585.79 164.96 585.00"
/>
<path stroke="#f7a79c" vector-effect="non-scaling-stroke" d="
  M 164.96 585.00
  Q 164.12 582.18 163.04 579.45
  Q 161.21 574.79 161.17 569.75
  Q 160.94 542.30 163.75 515.00
  Q 163.86 513.91 163.71 513.50"
/>
<path stroke="#a35d5a" vector-effect="non-scaling-stroke" d="
  M 163.71 513.50
  L 169.04 511.50"
/>
<path stroke="#b16664" vector-effect="non-scaling-stroke" d="
  M 169.04 511.50
  Q 179.97 508.06 174.21 497.80
  Q 171.22 492.48 165.00 493.21"
/>
<path stroke="#f7a79c" vector-effect="non-scaling-stroke" d="
  M 165.00 493.21
  L 165.45 492.98
  A 0.77 0.44 -20.3 0 0 165.90 492.44
  Q 165.90 491.43 166.25 489.25
  Q 172.95 447.71 188.81 411.56
  Q 190.30 408.16 190.46 407.25"
/>
<path stroke="#f8b6ac" vector-effect="non-scaling-stroke" d="
  M 190.46 407.25
  Q 193.18 402.03 196.22 396.98
  Q 196.97 395.74 197.05 394.32
  A 0.90 0.75 81.9 0 1 197.51 393.58
  L 198.29 393.25"
/>
<path stroke="#a7605e" vector-effect="non-scaling-stroke" d="
  M 198.29 393.25
  Q 200.19 396.42 203.75 396.25
  Q 209.25 395.99 209.31 390.31
  Q 209.35 387.36 208.00 386.04"
/>
<path stroke="#b16564" vector-effect="non-scaling-stroke" d="
  M 223.71 363.00
  Q 223.73 366.96 225.06 369.44
  Q 230.89 380.30 240.66 388.10
  Q 250.04 395.60 258.18 396.75
  Q 268.99 398.28 278.26 389.76
  Q 284.59 383.96 290.07 377.41
  Q 297.35 368.72 299.58 364.40
  Q 303.36 357.06 303.14 348.25
  Q 302.89 338.24 299.65 328.83
  Q 298.13 324.41 294.50 323.00
  Q 279.55 317.17 263.58 322.87
  Q 258.80 324.58 253.94 329.19
  Q 250.92 332.05 244.43 336.17
  Q 237.86 340.33 232.29 345.75"
/>
<path stroke="#9f4f4a" vector-effect="non-scaling-stroke" d="
  M 866.21 376.75
  Q 859.46 380.71 850.75 381.00
  Q 841.81 381.30 835.25 376.29"
/>
<path stroke="#ee775f" vector-effect="non-scaling-stroke" d="
  M 835.25 376.29
  Q 836.52 375.10 838.20 375.24
  A 1.59 1.11 61.6 0 1 839.04 375.66
  Q 842.34 378.76 846.55 378.09
  Q 850.96 377.38 851.03 377.38
  Q 854.29 377.25 857.54 377.36
  Q 859.88 377.43 861.03 376.42
  Q 862.76 374.90 862.32 372.54
  Q 862.10 371.36 861.43 369.30
  Q 860.99 367.91 860.06 366.19
  Q 858.66 363.57 855.69 354.31
  Q 854.49 350.58 853.21 347.95
  Q 851.05 343.53 851.01 343.43
  Q 847.31 334.90 843.09 326.61
  Q 842.89 326.23 841.19 322.28
  Q 840.24 320.08 838.80 318.15
  A 1.87 1.65 -68.1 0 1 838.48 317.25
  Q 838.24 314.28 835.81 312.19
  Q 834.36 310.94 833.66 309.10
  Q 832.69 306.55 832.18 305.77
  Q 830.30 302.92 828.29 300.16
  A 1.10 0.90 -12.3 0 0 827.50 299.76
  Q 826.15 299.68 825.57 298.48
  Q 824.69 296.68 824.66 296.64
  Q 821.52 292.22 816.79 288.53
  A 2.50 2.47 57.1 0 0 814.70 288.07
  Q 809.12 289.39 805.50 294.03
  A 0.35 0.34 -42.3 0 1 804.93 294.01
  Q 798.78 284.14 790.90 275.61
  Q 786.84 271.21 784.19 269.56
  Q 782.04 268.23 777.75 267.79"
/>
<path stroke="#9f4f4a" vector-effect="non-scaling-stroke" d="
  M 777.75 267.79
  Q 772.35 264.63 767.19 262.81
  Q 757.89 259.54 747.83 257.65
  Q 737.51 255.71 733.85 254.55
  Q 720.08 250.22 707.25 242.50
  Q 699.67 237.94 694.04 232.25"
/>
<path stroke="#944b43" vector-effect="non-scaling-stroke" d="
  M 694.04 232.25
  Q 685.07 221.20 681.50 210.25
  Q 677.63 198.37 673.75 186.50
  Q 670.05 175.19 658.25 170.96"
/>
<path stroke="#a35052" vector-effect="non-scaling-stroke" d="
  M 658.25 170.96
  Q 657.13 170.14 655.84 169.62
  Q 635.05 161.35 612.75 159.25
  Q 598.02 157.86 583.50 165.04"
/>
<path stroke="#ad555a" vector-effect="non-scaling-stroke" d="
  M 583.50 165.04
  L 583.25 164.96"
/>
<path stroke="#ef8371" vector-effect="non-scaling-stroke" d="
  M 583.25 164.96
  Q 561.90 149.09 544.44 137.81
  Q 538.40 133.91 535.00 130.96"
/>
<path stroke="#b3797a" vector-effect="non-scaling-stroke" d="
  M 165.00 493.21
  Q 155.13 492.81 148.06 497.56
  Q 142.63 501.22 146.46 507.00"
/>
<path stroke="#a47070" vector-effect="non-scaling-stroke" d="
  M 146.46 507.00
  Q 152.96 515.36 163.71 513.50"
/>
<path stroke="#5f2e38" vector-effect="non-scaling-stroke" d="
  M 169.04 511.50
  Q 170.74 511.01 170.92 509.56
  A 0.42 0.38 -1.4 0 0 170.44 509.14
  Q 162.99 510.29 156.19 508.56
  Q 150.61 507.14 148.50 506.75
  Q 146.93 506.46 146.46 507.00"
/>
<path stroke="#5c2f43" vector-effect="non-scaling-stroke" d="
  M 361.46 380.25
  L 361.23 380.25
  A 0.35 0.35 11.5 0 0 360.91 380.46
  Q 358.31 386.33 356.50 392.50
  Q 356.00 394.21 353.75 396.04"
/>
<path stroke="#6d3657" vector-effect="non-scaling-stroke" d="
  M 248.29 535.25
  Q 242.68 523.31 241.00 510.21"
/>
<path stroke="#a4534e" vector-effect="non-scaling-stroke" d="
  M 252.50 510.79
  Q 255.19 511.62 255.75 511.75
  Q 261.82 513.13 264.54 518.63
  Q 266.00 521.59 267.02 524.74
  Q 269.07 531.13 273.38 535.94
  Q 277.12 540.12 281.67 541.58
  Q 286.32 543.09 292.00 542.50
  Q 305.33 541.12 316.13 536.64
  Q 321.67 534.35 324.25 531.89
  Q 328.08 528.21 328.50 523.00
  Q 329.15 514.95 325.06 504.19
  Q 322.79 498.18 321.72 491.00
  Q 320.78 484.70 321.18 477.47
  Q 322.00 462.70 326.46 448.50"
/>
<path stroke="#b25953" vector-effect="non-scaling-stroke" d="
  M 521.25 225.46
  L 511.00 227.46"
/>
<path stroke="#773b62" vector-effect="non-scaling-stroke" d="
  M 360.54 378.25
  Q 351.89 363.14 340.54 349.96
  Q 338.44 347.52 335.90 345.55
  Q 335.66 345.37 335.31 344.79
  Q 334.94 344.17 334.21 344.50"
/>
<path stroke="#803e6a" vector-effect="non-scaling-stroke" d="
  M 583.29 208.25
  Q 582.85 215.38 577.24 218.16
  Q 575.27 219.14 571.08 219.60
  Q 566.08 220.14 564.75 220.25
  Q 558.37 220.78 553.06 223.56
  Q 550.91 224.69 546.43 229.27
  Q 542.46 233.34 540.08 235.20
  Q 530.29 242.87 518.88 247.44
  A 1.14 1.11 1.9 0 0 518.29 247.98
  Q 515.19 254.20 512.33 259.02
  Q 508.99 264.68 503.99 269.00
  Q 493.46 278.10 480.47 283.17
  Q 472.90 286.12 459.50 290.25
  Q 453.25 292.17 449.50 287.54"
/>
<path stroke="#be5e6b" vector-effect="non-scaling-stroke" d="
  M 449.50 287.54
  Q 455.53 287.67 460.75 286.50
  Q 478.59 282.49 494.31 272.31
  Q 514.27 259.40 519.25 237.50
  Q 520.85 230.47 521.25 225.46"
/>
<path stroke="#793b5b" vector-effect="non-scaling-stroke" d="
  M 521.25 225.46
  Q 522.43 224.63 523.61 223.82
  Q 528.12 220.70 526.11 216.11
  Q 525.62 214.98 524.38 213.80
  Q 523.32 212.79 522.25 211.79"
/>
<path stroke="#643249" vector-effect="non-scaling-stroke" d="
  M 649.79 213.75
  Q 648.69 225.71 649.75 235.50
  Q 650.29 240.51 652.71 246.75"
/>
<path stroke="#76395d" vector-effect="non-scaling-stroke" d="
  M 652.71 246.75
  Q 650.14 246.70 648.94 245.81
  Q 632.52 233.67 614.96 223.28
  Q 599.81 214.32 583.29 208.25"
/>
<path stroke="#7b3c66" vector-effect="non-scaling-stroke" d="
  M 583.29 208.25
  Q 580.88 189.35 565.90 178.05
  A 1.67 1.66 -24.8 0 0 565.00 177.72
  Q 554.95 177.19 544.96 178.36
  Q 543.51 178.53 542.05 178.59
  Q 535.08 178.89 529.78 183.28
  Q 528.39 184.43 526.75 185.21"
/>
<path stroke="#bf5f6c" vector-effect="non-scaling-stroke" d="
  M 432.25 283.96
  L 431.50 283.54"
/>
<path stroke="#4f293a" vector-effect="non-scaling-stroke" d="
  M 658.25 170.96
  Q 657.08 170.92 656.15 171.43
  Q 655.36 171.87 654.96 173.05
  Q 652.96 178.97 652.25 186.75
  Q 651.03 200.12 650.04 213.50"
/>
<path stroke="#5a2d41" vector-effect="non-scaling-stroke" d="
  M 650.04 213.50
  Q 650.00 213.71 649.79 213.75"
/>
<path stroke="#673351" vector-effect="non-scaling-stroke" d="
  M 649.79 213.75
  Q 643.64 210.97 637.04 209.56
  Q 631.62 208.41 626.31 206.79
  Q 623.47 205.93 622.06 203.94
  Q 607.55 183.46 585.68 166.26
  A 2.40 2.33 63.3 0 0 584.22 165.75
  Q 583.27 165.75 583.50 165.04"
/>
<path stroke="#4b2831" vector-effect="non-scaling-stroke" d="
  M 694.04 232.25
  Q 692.80 233.17 691.90 232.36
  Q 690.88 231.46 690.83 231.43
  Q 688.73 230.17 685.94 229.31
  Q 682.28 228.19 678.49 226.38
  Q 671.48 223.05 671.28 222.96
  Q 661.78 218.77 652.45 214.22
  Q 652.09 214.04 651.51 214.06
  Q 650.67 214.08 650.04 213.50"
/>
<path stroke="#a5544d" vector-effect="non-scaling-stroke" d="
  M 777.75 267.79
  Q 796.65 279.59 804.73 300.39
  Q 808.62 310.42 812.47 320.45
  Q 814.12 324.72 815.63 327.20
  Q 817.46 330.21 819.94 333.31
  Q 824.03 338.44 826.19 344.75
  Q 827.50 348.60 827.91 354.41
  Q 828.19 358.33 828.50 364.25
  Q 828.90 371.81 835.25 376.29"
/>
<path stroke="#4b2831" vector-effect="non-scaling-stroke" d="
  M 885.96 513.50
  Q 884.98 513.43 884.33 512.86
  A 0.95 0.77 54.8 0 0 883.52 512.63
  Q 879.81 513.69 876.94 516.94
  Q 870.78 523.90 868.50 532.25
  Q 867.23 536.90 866.42 545.56
  Q 866.16 548.32 865.69 549.36
  Q 864.71 551.50 862.50 552.00
  Q 858.27 552.96 849.51 551.66
  Q 842.70 550.65 838.75 551.50
  Q 833.11 552.71 830.50 559.00
  Q 827.47 566.32 827.41 572.50
  Q 827.22 591.39 821.87 609.46
  Q 820.88 612.78 821.00 617.00
  Q 821.14 622.00 824.38 624.41
  Q 826.54 626.01 831.49 626.36
  Q 836.12 626.68 841.07 626.48
  Q 842.49 626.42 841.77 627.65
  Q 834.15 640.70 825.16 653.16
  Q 822.35 657.06 813.28 669.26
  Q 791.09 699.12 765.60 726.21
  Q 759.42 732.77 751.55 740.43
  Q 738.97 752.67 726.10 764.60
  Q 719.05 771.14 711.80 776.26
  A 2.04 2.02 47.6 0 1 709.32 776.14
  Q 707.48 774.57 705.62 774.62
  Q 704.14 774.67 702.49 776.40
  Q 699.77 779.27 697.55 782.58
  Q 696.50 784.14 697.84 785.46
  Q 699.21 786.82 697.57 787.99
  Q 696.67 788.64 696.60 788.70
  Q 674.85 806.72 651.87 823.15
  Q 643.05 829.45 632.68 832.67
  Q 594.33 844.60 554.74 851.42
  A 1.15 1.01 57.1 0 1 553.88 851.18
  Q 551.98 849.67 549.66 850.62
  Q 545.97 852.13 542.06 852.57
  Q 538.14 853.01 535.56 851.91
  Q 532.32 850.52 530.54 847.14
  A 1.37 0.65 71.8 0 0 529.88 846.45
  L 528.07 845.87
  A 0.59 0.50 -73.1 0 0 527.41 846.30
  Q 526.24 850.29 528.78 853.38
  Q 529.84 854.66 528.20 854.93
  Q 502.11 859.26 475.74 859.01
  Q 470.35 858.96 455.75 858.56
  Q 421.57 857.64 387.70 852.83
  Q 387.60 852.81 379.78 851.84
  Q 373.49 851.07 367.37 849.45
  Q 363.78 848.51 360.18 847.82
  Q 356.55 847.14 352.98 846.17
  Q 345.45 844.12 342.28 843.36
  Q 335.42 841.69 328.72 839.41
  A 1.76 1.49 76.3 0 1 327.95 838.85
  Q 326.05 836.42 322.94 835.06
  Q 318.85 833.28 315.30 829.91
  A 1.81 1.62 -15.0 0 0 314.45 829.48
  Q 312.69 829.14 311.15 828.12
  Q 309.57 827.07 309.21 828.75"
/>
<path stroke="#62323d" vector-effect="non-scaling-stroke" d="
  M 245.96 756.00
  Q 247.26 756.85 251.50 758.75
  Q 301.87 781.36 355.44 786.56
  Q 402.89 791.17 447.34 785.82
  Q 457.02 784.66 467.11 782.80
  Q 552.06 767.14 627.69 718.98
  Q 628.94 718.19 627.61 717.52
  Q 623.87 715.65 619.53 713.32
  Q 619.41 713.26 614.77 710.95
  Q 611.19 709.16 609.94 707.56
  Q 605.48 701.87 609.19 695.19
  Q 611.32 691.34 613.80 688.32
  Q 617.03 684.39 618.67 683.17
  Q 621.60 680.99 625.75 681.00
  Q 632.70 681.01 638.59 683.76
  Q 644.58 686.55 645.25 692.50
  Q 646.20 700.93 642.49 708.52
  Q 642.10 709.31 642.85 708.83
  Q 655.90 700.42 668.10 690.68
  Q 674.56 685.52 683.49 677.92
  Q 742.03 628.10 780.90 561.44
  Q 782.51 558.69 783.79 555.65
  A 1.79 1.77 43.0 0 0 783.73 554.15
  Q 781.92 550.63 780.34 547.06
  Q 778.94 543.88 777.71 539.66
  Q 776.09 534.11 774.49 528.55
  Q 771.46 518.08 779.66 514.55
  Q 783.17 513.04 786.49 513.40
  Q 790.14 513.79 793.12 516.37
  Q 796.60 519.39 798.82 523.45
  Q 799.41 524.53 799.95 523.42
  Q 810.50 501.50 817.77 478.26
  Q 827.84 446.05 832.97 412.49
  A 3.36 3.35 30.6 0 0 832.31 409.93
  Q 817.45 390.60 800.23 373.34
  Q 800.19 373.31 796.87 370.07
  Q 782.52 356.08 773.91 337.89
  Q 766.43 322.09 759.04 306.25"
/>
<path stroke="#69344c" vector-effect="non-scaling-stroke" d="
  M 652.71 246.75
  Q 654.97 251.87 658.64 256.10
  Q 665.33 263.80 671.98 271.53
  Q 677.07 277.45 684.03 279.93
  Q 688.27 281.44 698.15 281.88
  Q 712.93 282.55 727.73 282.15
  Q 736.24 281.93 737.26 282.06
  Q 742.43 282.71 746.19 286.06
  Q 754.83 293.77 759.04 306.25"
/>
<path stroke="#743951" vector-effect="non-scaling-stroke" d="
  M 759.04 306.25
  Q 758.24 306.79 757.88 306.27
  Q 757.45 305.67 757.27 305.55
  Q 744.85 298.00 731.26 301.82
  Q 727.87 302.78 724.44 305.41
  Q 720.89 308.14 717.48 311.04
  Q 713.32 314.58 711.06 315.85
  Q 707.27 317.97 703.50 318.75
  Q 692.46 321.04 679.74 319.61
  Q 668.11 318.30 659.06 315.94
  Q 647.54 312.94 638.73 304.02
  Q 633.79 299.03 628.16 294.85
  Q 617.29 286.77 604.34 288.67
  Q 600.59 289.22 596.34 290.92
  Q 592.46 292.48 588.80 294.55
  Q 570.26 305.02 557.53 322.07
  Q 554.76 325.77 551.76 329.29
  Q 545.37 336.77 535.94 339.70
  Q 522.97 343.72 517.81 345.81
  Q 506.34 350.48 496.86 358.16
  Q 489.68 363.97 485.89 370.01
  Q 481.36 377.22 480.25 385.50
  Q 478.80 396.27 479.71 410.99
  Q 480.36 421.32 473.86 429.12
  Q 470.82 432.77 464.81 437.56
  Q 457.39 443.48 448.56 443.09
  A 0.99 0.85 16.0 0 0 447.75 443.46
  L 446.75 444.96"
/>
<path stroke="#6e3650" vector-effect="non-scaling-stroke" d="
  M 446.75 444.96
  Q 444.09 446.22 441.72 447.96
  Q 432.49 454.74 423.25 461.51
  Q 414.36 468.02 406.54 475.73
  Q 401.75 480.44 398.35 485.09
  Q 394.89 489.84 391.56 495.56
  Q 384.30 508.06 383.69 521.94
  Q 383.50 526.25 384.31 529.72
  Q 384.89 532.18 386.91 533.98
  Q 390.83 537.47 395.79 539.50"
/>
<path stroke="#743951" vector-effect="non-scaling-stroke" d="
  M 395.79 539.50
  Q 391.54 550.24 382.44 556.44
  Q 368.73 565.76 351.85 573.89
  Q 343.20 578.05 337.50 582.75
  Q 327.75 590.78 332.33 603.43
  Q 336.00 613.55 339.94 623.57
  Q 340.68 625.46 340.50 627.48
  Q 338.54 649.30 326.08 666.27
  Q 319.71 674.95 311.81 680.08
  Q 300.74 687.25 287.00 688.75
  Q 263.53 691.30 258.00 692.25
  Q 251.48 693.37 245.17 695.39
  Q 240.37 696.93 236.69 700.20
  Q 234.51 702.14 233.71 704.47
  Q 232.93 706.76 232.75 709.75
  Q 232.14 720.02 236.56 728.13
  Q 237.37 729.63 238.20 731.49
  Q 238.96 733.22 239.97 734.82
  A 1.15 1.06 38.6 0 1 240.11 735.73
  Q 239.20 738.67 237.36 741.17
  A 1.50 1.32 -30.9 0 0 237.07 742.07
  Q 237.20 745.00 238.81 746.94
  Q 243.91 753.05 245.96 756.00"
/>
<path stroke="#69344c" vector-effect="non-scaling-stroke" d="
  M 245.96 756.00
  Q 236.37 751.31 227.67 745.19
  Q 219.43 739.40 219.34 739.34
  Q 213.47 735.36 207.67 731.29
  Q 207.57 731.22 206.17 729.86
  Q 205.01 728.72 203.25 729.29"
/>
<path stroke="#813f6b" vector-effect="non-scaling-stroke" d="
  M 182.50 696.29
  Q 184.00 695.36 184.31 695.06
  Q 201.50 678.93 199.53 655.87
  Q 199.22 652.18 197.87 647.24
  Q 196.72 643.01 195.43 638.81
  Q 192.32 628.65 192.90 618.01
  Q 193.21 612.15 195.49 606.75
  Q 200.28 595.42 208.73 586.49
  Q 216.52 578.27 224.92 570.67
  Q 239.94 557.10 248.06 538.56
  Q 248.40 537.80 248.29 535.25"
/>
<path stroke="#67334c" vector-effect="non-scaling-stroke" d="
  M 248.29 535.25
  Q 254.13 545.08 263.06 550.44
  Q 280.39 560.82 301.50 559.20
  Q 311.84 558.40 320.90 553.88
  Q 326.23 551.23 329.93 547.69
  Q 334.16 543.62 336.44 538.69
  Q 340.91 528.99 342.44 516.24
  Q 343.14 510.41 342.19 506.81
  Q 340.77 501.50 339.71 496.10
  Q 338.85 491.70 339.45 488.36
  Q 340.16 484.47 341.86 480.84
  Q 345.46 473.18 348.46 465.29
  Q 351.90 456.24 351.89 451.23
  Q 351.88 444.27 348.41 436.73
  Q 347.32 434.37 349.81 433.60
  Q 355.11 431.97 362.27 431.50
  Q 363.89 431.39 364.78 430.04
  Q 365.70 428.66 367.46 428.97
  Q 381.89 431.50 395.23 425.79
  Q 400.60 423.50 399.89 417.48
  Q 399.26 412.12 396.44 408.31
  Q 392.98 403.65 386.75 403.72
  Q 377.67 403.83 369.21 407.89
  A 0.32 0.32 77.2 0 1 368.75 407.60
  Q 368.75 393.90 362.17 382.07
  Q 361.69 381.21 361.46 380.25"
/>
<path stroke="#713757" vector-effect="non-scaling-stroke" d="
  M 361.46 380.25
  L 360.54 378.25"
/>
<path stroke="#813f6b" vector-effect="non-scaling-stroke" d="
  M 360.54 378.25
  Q 362.40 377.30 363.94 374.19
  Q 373.46 354.90 389.21 333.20
  Q 407.48 308.00 428.81 285.31
  Q 430.01 284.04 432.25 283.96"
/>
<path stroke="#b95b62" vector-effect="non-scaling-stroke" d="
  M 432.25 283.96
  Q 440.68 286.72 449.50 287.54"
/>
<path stroke="#673441" vector-effect="non-scaling-stroke" d="
  M 395.79 539.50
  Q 396.10 539.25 396.50 539.21"
/>
<path stroke="#60303a" vector-effect="non-scaling-stroke" d="
  M 396.50 539.21
  Q 397.72 540.12 398.56 540.44
  Q 412.03 545.55 440.94 554.56
  Q 459.76 560.43 476.28 562.94
  Q 491.07 565.18 493.98 565.84
  Q 505.96 568.54 518.57 572.88
  A 2.13 2.12 24.9 0 0 521.07 571.97
  Q 525.17 565.10 528.56 556.61
  A 1.81 1.80 12.5 0 1 530.35 555.47
  Q 542.84 556.30 555.09 555.64
  Q 563.66 555.17 571.69 552.99
  Q 583.04 549.90 593.91 545.29
  Q 599.36 542.98 604.16 538.22
  A 2.61 2.60 31.0 0 1 606.75 537.58
  L 631.96 545.29
  A 0.71 0.71 27.1 0 0 632.74 545.04
  Q 643.23 531.27 645.81 529.06
  Q 648.25 526.98 652.50 525.75
  Q 658.92 523.89 675.37 516.28
  Q 697.33 506.12 717.39 494.59
  Q 718.91 493.72 719.26 492.01
  Q 721.80 479.76 722.55 468.04
  Q 722.67 466.14 721.60 464.56
  Q 712.80 451.54 702.75 438.71
  A 1.23 1.14 72.4 0 0 701.94 438.25
  L 670.65 434.66
  A 0.64 0.63 0.6 0 1 670.09 434.10
  Q 668.57 419.16 667.13 405.07
  Q 666.84 402.22 665.02 400.17
  A 1.15 1.09 -18.8 0 0 664.19 399.79
  Q 660.91 399.67 657.82 400.84
  Q 639.70 407.75 625.82 421.31
  Q 619.98 427.02 614.23 432.82
  Q 607.59 439.52 603.30 442.05
  Q 594.20 447.43 583.71 447.88
  Q 575.24 448.25 564.17 444.39
  Q 547.40 438.54 533.09 427.48
  A 0.53 0.53 29.8 0 0 532.28 427.70
  Q 527.83 438.70 524.55 449.87
  Q 524.53 449.90 523.68 453.68
  Q 522.64 458.29 519.14 460.79
  Q 517.81 461.73 510.38 464.66
  Q 502.22 467.88 491.06 471.06
  Q 458.49 480.37 429.00 484.04"
/>
<path stroke="#673441" vector-effect="non-scaling-stroke" d="
  M 429.00 484.04
  Q 428.23 483.45 428.54 482.65
  Q 428.83 481.88 428.85 481.81
  Q 431.04 472.20 434.81 465.06
  Q 439.51 456.17 447.34 446.36
  Q 448.33 445.12 446.75 444.96"
/>
<path stroke="#592c38" vector-effect="non-scaling-stroke" d="
  M 396.50 539.21
  Q 397.29 536.83 397.44 535.94
  Q 401.87 509.38 402.50 502.50
  Q 403.08 496.13 404.00 493.25
  Q 405.09 489.82 408.19 488.94
  Q 415.86 486.76 429.00 484.04"
/>
<path stroke="#b0625e" vector-effect="non-scaling-stroke" d="
  M 519.18 149.66
  A 3.64 3.64 0.0 0 0 515.54 146.02
  A 3.64 3.64 0.0 0 0 511.90 149.66
  A 3.64 3.64 0.0 0 0 515.54 153.30
  A 3.64 3.64 0.0 0 0 519.18 149.66"
/>
<path stroke="#a35d5a" vector-effect="non-scaling-stroke" d="
  M 469.75 187.21
  Q 472.99 187.87 477.00 187.00
  Q 483.16 185.67 488.11 182.61
  Q 493.68 179.16 496.26 174.29
  Q 498.96 169.18 498.43 163.02
  Q 498.23 160.67 497.46 159.22
  Q 496.52 157.44 494.77 156.22
  Q 490.60 153.32 485.50 153.21"
/>
<path stroke="#b16564" vector-effect="non-scaling-stroke" d="
  M 485.50 153.21
  Q 473.40 152.62 464.19 159.78
  Q 461.45 161.91 460.31 164.14
  Q 458.95 166.81 458.91 170.00
  Q 458.86 173.86 459.38 177.68
  Q 460.59 186.72 469.75 187.21"
/>
<path stroke="#5f2e38" vector-effect="non-scaling-stroke" d="
  M 485.50 153.21
  Q 483.58 153.15 483.75 155.00
  Q 484.47 162.70 483.62 169.89
  Q 482.83 176.54 480.16 180.00
  Q 476.75 184.43 470.56 186.06
  Q 469.76 186.28 469.75 187.21"
/>
<path stroke="#b0625e" vector-effect="non-scaling-stroke" d="
  M 437.71 247.50
  Q 442.25 250.47 447.50 249.01
  Q 453.64 247.29 456.75 241.79"
/>
<path stroke="#b16564" vector-effect="non-scaling-stroke" d="
  M 456.75 241.79
  Q 458.86 238.05 456.85 235.63
  Q 455.47 233.98 452.17 233.27
  Q 445.38 231.81 439.48 235.60
  Q 437.33 236.98 436.36 237.74
  Q 434.59 239.14 434.06 240.81
  Q 432.53 245.62 437.71 247.50"
/>
<path stroke="#6c333c" vector-effect="non-scaling-stroke" d="
  M 456.75 241.79
  Q 453.99 242.35 449.94 244.44
  Q 446.55 246.18 441.47 246.67
  Q 441.12 246.70 439.60 246.45
  Q 438.35 246.24 437.71 247.50"
/>
<path stroke="#b0625e" vector-effect="non-scaling-stroke" d="
  M 287.73 419.25
  A 4.07 4.07 0.0 0 0 283.66 415.18
  A 4.07 4.07 0.0 0 0 279.59 419.25
  A 4.07 4.07 0.0 0 0 283.66 423.32
  A 4.07 4.07 0.0 0 0 287.73 419.25"
/>
<path stroke="#b0625e" vector-effect="non-scaling-stroke" d="
  M 226.22 461.08
  A 3.89 3.89 0.0 0 0 222.33 457.19
  A 3.89 3.89 0.0 0 0 218.44 461.08
  A 3.89 3.89 0.0 0 0 222.33 464.97
  A 3.89 3.89 0.0 0 0 226.22 461.08"
/>
<path stroke="#a35d5a" vector-effect="non-scaling-stroke" d="
  M 240.25 474.29
  Q 240.27 476.35 241.06 477.19
  Q 249.87 486.41 262.25 482.21"
/>
<path stroke="#b16564" vector-effect="non-scaling-stroke" d="
  M 262.25 482.21
  Q 266.36 481.05 266.98 477.72
  Q 267.42 475.35 265.73 472.16
  Q 259.94 461.23 246.45 464.74
  Q 239.14 466.65 240.25 474.29"
/>
<path stroke="#5f2e38" vector-effect="non-scaling-stroke" d="
  M 262.25 482.21
  Q 262.11 481.21 261.05 481.49
  Q 260.36 481.67 259.67 481.49
  Q 249.76 479.02 242.78 476.13
  A 2.03 1.37 73.1 0 1 242.04 475.53
  Q 241.35 474.60 240.25 474.29"
/>
<path stroke="#4f2933" vector-effect="non-scaling-stroke" d="
  M 797.79 571.90
  Q 799.65 572.84 801.69 570.94
  Q 806.49 566.46 809.34 561.16
  Q 812.04 556.14 811.71 550.89
  Q 811.36 545.41 808.67 540.38
  Q 804.65 532.89 800.45 526.59
  Q 799.67 525.41 799.08 526.70
  Q 793.14 539.90 786.71 551.35
  Q 786.67 551.43 785.82 552.72
  Q 784.68 554.43 785.24 556.15
  Q 785.30 556.32 787.08 559.49
  Q 790.30 565.21 795.13 569.65
  Q 797.30 571.65 797.79 571.90"
/>
<path stroke="#4f2933" vector-effect="non-scaling-stroke" d="
  M 438.90 805.37
  Q 446.55 809.78 455.25 810.71
  Q 458.98 811.11 461.36 809.65
  Q 464.30 807.84 465.64 804.41
  A 0.44 0.44 17.3 0 0 465.33 803.82
  Q 455.32 801.24 446.40 796.04
  Q 443.67 794.45 441.95 791.83
  A 1.13 1.13 -35.6 0 0 440.32 791.56
  Q 436.15 794.74 435.94 800.01
  Q 435.81 803.58 438.90 805.37"
/>
<path stroke="#62323d" vector-effect="non-scaling-stroke" d="
  M 612.54 388.47
  Q 611.24 387.13 609.55 387.25
  A 0.48 0.45 83.7 0 0 609.14 387.80
  Q 609.76 391.61 609.71 395.44
  Q 609.66 399.75 607.80 402.67
  Q 605.07 406.96 600.10 409.14
  Q 598.56 409.81 597.20 410.49
  Q 596.41 410.89 597.29 410.95
  Q 603.61 411.40 608.83 409.25
  Q 612.50 407.74 614.32 405.15
  Q 616.40 402.21 616.41 398.25
  Q 616.44 392.50 612.54 388.47"
/>
<path stroke="#60303a" vector-effect="non-scaling-stroke" d="
  M 481.42 644.09
  Q 485.67 647.50 492.25 648.75
  Q 509.07 651.95 517.43 638.24
  Q 517.69 637.81 517.21 637.93
  Q 508.71 639.95 501.56 637.69
  Q 494.75 635.53 490.81 628.62
  A 0.91 0.88 75.8 0 0 490.07 628.16
  Q 485.06 627.93 479.08 629.26
  A 2.28 2.27 2.2 0 0 477.41 630.80
  Q 474.84 638.82 481.42 644.09"
/>
<path stroke="#60303a" vector-effect="non-scaling-stroke" d="
  M 258.09 734.65
  Q 258.64 735.13 259.27 735.48
  Q 272.80 743.03 286.69 748.56
  Q 294.84 751.81 302.17 749.60
  Q 308.24 747.77 311.30 743.35
  Q 314.75 738.35 313.00 731.36
  Q 311.48 725.28 308.94 720.81
  Q 301.63 708.00 287.95 705.57
  Q 281.25 704.38 273.53 704.75
  Q 266.08 705.12 259.26 708.10
  Q 252.64 711.00 250.35 715.31
  Q 247.17 721.30 252.24 728.31
  Q 254.52 731.47 258.09 734.65"
/>
<path stroke="#63313c" vector-effect="non-scaling-stroke" d="
  M 396.69 751.06
  Q 398.63 752.29 401.16 752.63
  Q 403.32 752.91 405.78 752.26
  Q 410.04 751.12 414.56 748.31
  Q 421.13 744.24 424.64 740.89
  Q 430.46 735.33 426.75 728.00
  Q 424.65 723.85 420.99 722.82
  Q 418.40 722.10 414.49 722.62
  Q 410.99 723.08 408.31 725.06
  Q 402.27 729.53 396.16 736.92
  Q 392.37 741.51 393.50 746.25
  Q 394.28 749.54 396.69 751.06"
/>
<path stroke="#a66d6c" vector-effect="non-scaling-stroke" d="
  M 633.00 459.71
  Q 616.25 465.05 601.00 473.79"
/>
<path stroke="#9b4a43" vector-effect="non-scaling-stroke" d="
  M 601.00 473.79
  Q 591.32 478.67 583.94 484.44
  Q 578.48 488.70 582.31 493.21
  Q 583.59 494.71 585.71 495.64
  Q 587.65 496.50 589.76 496.95
  Q 602.75 499.70 614.82 496.08
  Q 623.47 493.49 632.94 487.74
  Q 642.92 481.68 650.69 472.44
  Q 654.23 468.23 655.73 463.26
  Q 656.45 460.88 655.83 459.22
  Q 654.92 456.81 652.19 456.56
  Q 643.35 455.74 633.00 459.71"
/>
<path stroke="#ef8f7e" vector-effect="non-scaling-stroke" d="
  M 601.00 473.79
  Q 608.47 484.80 621.97 483.26
  Q 624.95 482.92 627.11 480.86
  Q 633.63 474.63 633.55 465.66
  Q 633.55 465.55 633.81 462.89
  Q 633.98 461.21 633.00 459.71"
/>
<path stroke="#49262e" vector-effect="non-scaling-stroke" d="
  M 638.21 487.97
  Q 635.14 490.28 634.44 490.69
  Q 630.32 493.08 619.43 497.27
  Q 612.46 499.95 607.22 500.42
  Q 598.84 501.18 590.49 499.36
  A 0.62 0.57 16.6 0 0 589.80 499.70
  Q 588.63 502.46 590.31 504.94
  Q 592.06 507.51 595.17 509.34
  Q 604.09 514.56 614.51 514.17
  Q 632.72 513.48 648.46 504.47
  Q 657.68 499.19 665.69 489.69
  Q 671.32 483.00 673.28 475.58
  Q 673.94 473.08 673.52 471.38
  Q 672.97 469.10 671.06 467.69
  Q 666.83 464.56 659.93 465.45
  Q 657.95 465.71 657.16 467.54
  Q 656.23 469.67 654.59 471.83
  Q 652.92 474.04 651.67 475.85
  Q 648.29 480.76 643.29 484.08
  Q 641.83 485.06 640.73 485.97
  Q 639.50 487.00 638.21 487.97"
/>
<path stroke="#49262e" vector-effect="non-scaling-stroke" d="
  M 488.25 520.96
  Q 490.06 520.47 489.77 522.36
  A 2.40 2.40 83.8 0 1 488.26 524.24
  Q 481.61 526.85 474.50 527.53
  Q 470.22 527.94 466.20 526.82
  Q 460.89 525.33 459.78 525.11
  Q 444.02 522.00 430.86 512.62
  Q 427.45 510.19 423.98 507.85
  A 0.38 0.37 25.1 0 0 423.41 508.05
  Q 422.15 512.38 424.39 516.34
  Q 426.23 519.60 428.70 522.34
  Q 430.28 524.09 433.95 527.51
  Q 452.77 545.02 479.01 546.84
  Q 486.66 547.37 492.19 544.94
  Q 497.09 542.78 498.00 538.50
  Q 499.53 531.32 495.55 524.18
  Q 495.51 524.11 494.25 521.60
  Q 493.46 520.01 491.94 518.06
  Q 490.42 516.12 489.21 518.00"
/>
<path stroke="#9b4a43" vector-effect="non-scaling-stroke" d="
  M 489.21 518.00
  Q 487.76 513.63 483.75 511.29"
/>
<path stroke="#a66a69" vector-effect="non-scaling-stroke" d="
  M 483.75 511.29
  Q 469.26 502.26 453.00 496.96"
/>
<path stroke="#9b4a43" vector-effect="non-scaling-stroke" d="
  M 453.00 496.96
  Q 439.62 491.10 427.93 488.98
  Q 425.18 488.49 422.40 488.29
  Q 419.51 488.09 417.94 489.51
  Q 416.47 490.85 416.73 493.36
  Q 416.95 495.58 418.26 497.49
  Q 420.98 501.46 424.57 504.67
  Q 446.03 523.81 475.00 525.00
  Q 482.04 525.29 488.25 520.96"
/>
<path stroke="#ef8c7b" vector-effect="non-scaling-stroke" d="
  M 453.00 496.96
  Q 452.31 497.10 452.06 498.06
  Q 451.02 502.16 450.96 505.25
  Q 450.80 513.36 456.62 515.76
  Q 460.02 517.16 467.00 516.96
  Q 473.10 516.79 478.92 514.63
  Q 481.77 513.56 483.75 511.29"
/>
<path stroke="#924840" vector-effect="non-scaling-stroke" d="
  M 489.21 518.00
  Q 489.13 519.61 488.25 520.96"
/>
</g>
<path fill="#f8bab2" d="
  M 565.50 125.71
  Q 558.77 126.94 557.00 127.00
  Q 549.13 127.25 547.53 127.61
  Q 541.20 129.06 535.00 130.96
  Q 521.57 134.75 508.13 138.46
  Q 450.49 154.37 399.10 184.88
  Q 361.27 207.33 329.06 234.56
  Q 281.32 274.93 241.69 325.19
  Q 236.15 332.22 231.62 342.42
  Q 231.19 343.37 231.42 344.13
  Q 231.68 345.01 232.29 345.75
  Q 225.70 353.22 223.71 363.00
  Q 222.35 363.44 221.67 364.68
  Q 216.04 374.99 209.50 384.75
  Q 208.83 385.75 208.00 386.04
  Q 204.78 383.42 201.29 385.50
  Q 201.09 383.89 202.54 382.61
  Q 203.85 381.46 204.72 379.95
  Q 213.70 364.38 224.30 349.30
  Q 224.36 349.22 227.94 344.42
  Q 230.17 341.42 232.04 338.19
  Q 232.84 336.80 236.87 330.06
  Q 239.31 325.99 240.94 321.48
  Q 245.17 309.75 249.87 298.20
  Q 266.02 258.54 292.14 224.63
  Q 333.85 170.50 395.54 141.11
  Q 396.49 140.66 397.15 139.99
  Q 397.85 139.29 398.50 138.54
  Q 411.37 134.08 422.06 131.56
  Q 455.90 123.59 492.00 122.50
  Q 532.35 121.28 565.50 125.71
  Z"
/>
<path fill="#e8725b" d="
  M 565.50 125.71
  Q 572.27 126.43 578.95 127.74
  Q 648.92 141.45 709.19 178.06
  Q 747.17 201.14 778.83 233.67
  Q 837.65 294.09 865.46 373.80
  Q 865.96 375.24 866.21 376.75
  Q 859.46 380.71 850.75 381.00
  Q 841.81 381.30 835.25 376.29
  Q 836.52 375.10 838.20 375.24
  A 1.59 1.11 61.6 0 1 839.04 375.66
  Q 842.34 378.76 846.55 378.09
  Q 850.96 377.38 851.03 377.38
  Q 854.29 377.25 857.54 377.36
  Q 859.88 377.43 861.03 376.42
  Q 862.76 374.90 862.32 372.54
  Q 862.10 371.36 861.43 369.30
  Q 860.99 367.91 860.06 366.19
  Q 858.66 363.57 855.69 354.31
  Q 854.49 350.58 853.21 347.95
  Q 851.05 343.53 851.01 343.43
  Q 847.31 334.90 843.09 326.61
  Q 842.89 326.23 841.19 322.28
  Q 840.24 320.08 838.80 318.15
  A 1.87 1.65 -68.1 0 1 838.48 317.25
  Q 838.24 314.28 835.81 312.19
  Q 834.36 310.94 833.66 309.10
  Q 832.69 306.55 832.18 305.77
  Q 830.30 302.92 828.29 300.16
  A 1.10 0.90 -12.3 0 0 827.50 299.76
  Q 826.15 299.68 825.57 298.48
  Q 824.69 296.68 824.66 296.64
  Q 821.52 292.22 816.79 288.53
  A 2.50 2.47 57.1 0 0 814.70 288.07
  Q 809.12 289.39 805.50 294.03
  A 0.35 0.34 -42.3 0 1 804.93 294.01
  Q 798.78 284.14 790.90 275.61
  Q 786.84 271.21 784.19 269.56
  Q 782.04 268.23 777.75 267.79
  Q 772.35 264.63 767.19 262.81
  Q 757.89 259.54 747.83 257.65
  Q 737.51 255.71 733.85 254.55
  Q 720.08 250.22 707.25 242.50
  Q 699.67 237.94 694.04 232.25
  Q 685.07 221.20 681.50 210.25
  Q 677.63 198.37 673.75 186.50
  Q 670.05 175.19 658.25 170.96
  Q 657.13 170.14 655.84 169.62
  Q 635.05 161.35 612.75 159.25
  Q 598.02 157.86 583.50 165.04
  L 583.25 164.96
  Q 561.90 149.09 544.44 137.81
  Q 538.40 133.91 535.00 130.96
  Q 541.20 129.06 547.53 127.61
  Q 549.13 127.25 557.00 127.00
  Q 558.77 126.94 565.50 125.71
  Z"
/>
<path fill="#f59486" d="
  M 535.00 130.96
  Q 538.40 133.91 544.44 137.81
  Q 561.90 149.09 583.25 164.96
  L 564.13 175.24
  A 3.84 3.45 -52.5 0 1 561.87 175.66
  Q 553.66 174.43 544.75 174.98
  Q 537.83 175.40 532.50 178.00
  Q 528.16 180.12 526.75 185.21
  Q 525.67 187.27 525.50 188.00
  Q 522.91 199.05 522.75 211.50
  Q 522.75 211.87 522.25 211.79
  Q 517.27 209.84 510.00 209.00
  Q 500.93 207.96 495.82 214.09
  Q 494.21 216.04 493.83 217.80
  Q 493.33 220.19 494.81 222.19
  Q 498.54 227.21 505.50 227.44
  Q 508.25 227.53 511.00 227.46
  Q 511.39 228.92 510.31 229.31
  Q 506.50 230.70 502.61 229.28
  Q 500.78 228.62 499.02 229.45
  Q 493.95 231.87 489.20 235.42
  Q 482.68 240.29 476.47 245.54
  Q 467.16 253.40 467.05 253.49
  Q 451.40 266.46 436.09 279.82
  Q 433.86 281.76 431.50 283.54
  Q 422.02 280.75 412.31 278.96
  Q 400.44 276.77 389.14 280.78
  Q 371.43 287.07 357.28 299.08
  Q 351.07 304.34 346.79 308.99
  Q 341.74 314.48 338.19 320.69
  Q 331.95 331.60 334.21 344.50
  Q 336.01 357.43 341.40 369.33
  Q 346.27 380.08 351.64 390.58
  Q 352.98 393.20 353.75 396.04
  Q 354.24 400.16 352.81 404.81
  Q 349.20 416.60 342.13 425.64
  Q 338.36 430.47 334.31 435.06
  Q 330.06 439.89 326.46 448.50
  Q 324.71 448.29 323.56 449.31
  Q 290.56 478.88 259.19 504.44
  Q 254.13 508.56 252.50 510.79
  Q 246.78 510.00 241.00 510.21
  Q 239.70 510.09 234.50 510.50
  Q 227.29 511.07 222.61 515.08
  Q 219.53 517.73 216.41 524.96
  Q 209.60 540.73 204.84 557.28
  Q 202.81 564.36 203.50 570.50
  Q 204.45 578.94 197.39 582.46
  Q 182.39 589.92 165.75 586.96
  Q 165.80 585.79 164.96 585.00
  Q 164.12 582.18 163.04 579.45
  Q 161.21 574.79 161.17 569.75
  Q 160.94 542.30 163.75 515.00
  Q 163.86 513.91 163.71 513.50
  L 169.04 511.50
  Q 179.97 508.06 174.21 497.80
  Q 171.22 492.48 165.00 493.21
  L 165.45 492.98
  A 0.77 0.44 -20.3 0 0 165.90 492.44
  Q 165.90 491.43 166.25 489.25
  Q 172.95 447.71 188.81 411.56
  Q 190.30 408.16 190.46 407.25
  Q 193.18 402.03 196.22 396.98
  Q 196.97 395.74 197.05 394.32
  A 0.90 0.75 81.9 0 1 197.51 393.58
  L 198.29 393.25
  Q 200.19 396.42 203.75 396.25
  Q 209.25 395.99 209.31 390.31
  Q 209.35 387.36 208.00 386.04
  Q 208.83 385.75 209.50 384.75
  Q 216.04 374.99 221.67 364.68
  Q 222.35 363.44 223.71 363.00
  Q 223.73 366.96 225.06 369.44
  Q 230.89 380.30 240.66 388.10
  Q 250.04 395.60 258.18 396.75
  Q 268.99 398.28 278.26 389.76
  Q 284.59 383.96 290.07 377.41
  Q 297.35 368.72 299.58 364.40
  Q 303.36 357.06 303.14 348.25
  Q 302.89 338.24 299.65 328.83
  Q 298.13 324.41 294.50 323.00
  Q 279.55 317.17 263.58 322.87
  Q 258.80 324.58 253.94 329.19
  Q 250.92 332.05 244.43 336.17
  Q 237.86 340.33 232.29 345.75
  Q 231.68 345.01 231.42 344.13
  Q 231.19 343.37 231.62 342.42
  Q 236.15 332.22 241.69 325.19
  Q 281.32 274.93 329.06 234.56
  Q 361.27 207.33 399.10 184.88
  Q 450.49 154.37 508.13 138.46
  Q 521.57 134.75 535.00 130.96
  Z
  M 519.18 149.66
  A 3.64 3.64 0.0 0 0 515.54 146.02
  A 3.64 3.64 0.0 0 0 511.90 149.66
  A 3.64 3.64 0.0 0 0 515.54 153.30
  A 3.64 3.64 0.0 0 0 519.18 149.66
  Z
  M 469.75 187.21
  Q 472.99 187.87 477.00 187.00
  Q 483.16 185.67 488.11 182.61
  Q 493.68 179.16 496.26 174.29
  Q 498.96 169.18 498.43 163.02
  Q 498.23 160.67 497.46 159.22
  Q 496.52 157.44 494.77 156.22
  Q 490.60 153.32 485.50 153.21
  Q 473.40 152.62 464.19 159.78
  Q 461.45 161.91 460.31 164.14
  Q 458.95 166.81 458.91 170.00
  Q 458.86 173.86 459.38 177.68
  Q 460.59 186.72 469.75 187.21
  Z
  M 437.71 247.50
  Q 442.25 250.47 447.50 249.01
  Q 453.64 247.29 456.75 241.79
  Q 458.86 238.05 456.85 235.63
  Q 455.47 233.98 452.17 233.27
  Q 445.38 231.81 439.48 235.60
  Q 437.33 236.98 436.36 237.74
  Q 434.59 239.14 434.06 240.81
  Q 432.53 245.62 437.71 247.50
  Z
  M 287.73 419.25
  A 4.07 4.07 0.0 0 0 283.66 415.18
  A 4.07 4.07 0.0 0 0 279.59 419.25
  A 4.07 4.07 0.0 0 0 283.66 423.32
  A 4.07 4.07 0.0 0 0 287.73 419.25
  Z
  M 226.22 461.08
  A 3.89 3.89 0.0 0 0 222.33 457.19
  A 3.89 3.89 0.0 0 0 218.44 461.08
  A 3.89 3.89 0.0 0 0 222.33 464.97
  A 3.89 3.89 0.0 0 0 226.22 461.08
  Z
  M 240.25 474.29
  Q 240.27 476.35 241.06 477.19
  Q 249.87 486.41 262.25 482.21
  Q 266.36 481.05 266.98 477.72
  Q 267.42 475.35 265.73 472.16
  Q 259.94 461.23 246.45 464.74
  Q 239.14 466.65 240.25 474.29
  Z"
/>
<path fill="#fbd7d1" d="
  M 398.50 138.54
  Q 397.85 139.29 397.15 139.99
  Q 396.49 140.66 395.54 141.11
  Q 333.85 170.50 292.14 224.63
  Q 266.02 258.54 249.87 298.20
  Q 245.17 309.75 240.94 321.48
  Q 239.31 325.99 236.87 330.06
  Q 232.84 336.80 232.04 338.19
  Q 230.17 341.42 227.94 344.42
  Q 224.36 349.22 224.30 349.30
  Q 213.70 364.38 204.72 379.95
  Q 203.85 381.46 202.54 382.61
  Q 201.09 383.89 201.29 385.50
  Q 197.64 388.48 198.29 393.25
  L 197.51 393.58
  A 0.90 0.75 81.9 0 0 197.05 394.32
  Q 196.97 395.74 196.22 396.98
  Q 193.18 402.03 190.46 407.25
  Q 189.08 408.06 188.25 409.36
  Q 186.99 411.34 186.95 411.38
  Q 180.04 420.25 173.06 429.06
  Q 166.04 437.93 157.97 452.48
  Q 146.16 473.75 144.14 497.96
  Q 144.09 498.54 144.40 501.51
  Q 144.58 503.19 144.08 505.16
  Q 143.92 505.79 143.94 506.44
  Q 144.94 542.07 159.57 574.61
  Q 160.46 576.60 164.00 584.25
  Q 164.39 585.10 164.96 585.00
  Q 165.80 585.79 165.75 586.96
  Q 152.11 584.59 139.54 578.75
  Q 139.09 577.50 139.00 577.00
  Q 128.09 513.30 136.25 451.75
  Q 151.41 337.41 226.22 249.85
  Q 232.78 242.16 239.74 235.10
  Q 302.94 170.90 389.06 141.06
  Q 394.32 139.24 398.50 138.54
  Z"
/>
<circle fill="#6b2f36" cx="515.54" cy="149.66" r="3.64"/>
<path fill="#6d3642" d="
  M 485.50 153.21
  Q 483.58 153.15 483.75 155.00
  Q 484.47 162.70 483.62 169.89
  Q 482.83 176.54 480.16 180.00
  Q 476.75 184.43 470.56 186.06
  Q 469.76 186.28 469.75 187.21
  Q 460.59 186.72 459.38 177.68
  Q 458.86 173.86 458.91 170.00
  Q 458.95 166.81 460.31 164.14
  Q 461.45 161.91 464.19 159.78
  Q 473.40 152.62 485.50 153.21
  Z"
/>
<path fill="#50252d" d="
  M 485.50 153.21
  Q 490.60 153.32 494.77 156.22
  Q 496.52 157.44 497.46 159.22
  Q 498.23 160.67 498.43 163.02
  Q 498.96 169.18 496.26 174.29
  Q 493.68 179.16 488.11 182.61
  Q 483.16 185.67 477.00 187.00
  Q 472.99 187.87 469.75 187.21
  Q 469.76 186.28 470.56 186.06
  Q 476.75 184.43 480.16 180.00
  Q 482.83 176.54 483.62 169.89
  Q 484.47 162.70 483.75 155.00
  Q 483.58 153.15 485.50 153.21
  Z"
/>
<path fill="#5d2e49" d="
  M 658.25 170.96
  Q 657.08 170.92 656.15 171.43
  Q 655.36 171.87 654.96 173.05
  Q 652.96 178.97 652.25 186.75
  Q 651.03 200.12 650.04 213.50
  Q 650.00 213.71 649.79 213.75
  Q 643.64 210.97 637.04 209.56
  Q 631.62 208.41 626.31 206.79
  Q 623.47 205.93 622.06 203.94
  Q 607.55 183.46 585.68 166.26
  A 2.40 2.33 63.3 0 0 584.22 165.75
  Q 583.27 165.75 583.50 165.04
  Q 598.02 157.86 612.75 159.25
  Q 635.05 161.35 655.84 169.62
  Q 657.13 170.14 658.25 170.96
  Z"
/>
<path fill="#713759" d="
  M 583.25 164.96
  L 583.50 165.04
  Q 583.27 165.75 584.22 165.75
  A 2.40 2.33 63.3 0 1 585.68 166.26
  Q 607.55 183.46 622.06 203.94
  Q 623.47 205.93 626.31 206.79
  Q 631.62 208.41 637.04 209.56
  Q 643.64 210.97 649.79 213.75
  Q 648.69 225.71 649.75 235.50
  Q 650.29 240.51 652.71 246.75
  Q 650.14 246.70 648.94 245.81
  Q 632.52 233.67 614.96 223.28
  Q 599.81 214.32 583.29 208.25
  Q 580.88 189.35 565.90 178.05
  A 1.67 1.66 -24.8 0 0 565.00 177.72
  Q 554.95 177.19 544.96 178.36
  Q 543.51 178.53 542.05 178.59
  Q 535.08 178.89 529.78 183.28
  Q 528.39 184.43 526.75 185.21
  Q 528.16 180.12 532.50 178.00
  Q 537.83 175.40 544.75 174.98
  Q 553.66 174.43 561.87 175.66
  A 3.84 3.45 -52.5 0 0 564.13 175.24
  L 583.25 164.96
  Z"
/>
<path fill="#40232a" d="
  M 658.25 170.96
  Q 670.05 175.19 673.75 186.50
  Q 677.63 198.37 681.50 210.25
  Q 685.07 221.20 694.04 232.25
  Q 692.80 233.17 691.90 232.36
  Q 690.88 231.46 690.83 231.43
  Q 688.73 230.17 685.94 229.31
  Q 682.28 228.19 678.49 226.38
  Q 671.48 223.05 671.28 222.96
  Q 661.78 218.77 652.45 214.22
  Q 652.09 214.04 651.51 214.06
  Q 650.67 214.08 650.04 213.50
  Q 651.03 200.12 652.25 186.75
  Q 652.96 178.97 654.96 173.05
  Q 655.36 171.87 656.15 171.43
  Q 657.08 170.92 658.25 170.96
  Z"
/>
<path fill="#854073" d="
  M 583.29 208.25
  Q 582.85 215.38 577.24 218.16
  Q 575.27 219.14 571.08 219.60
  Q 566.08 220.14 564.75 220.25
  Q 558.37 220.78 553.06 223.56
  Q 550.91 224.69 546.43 229.27
  Q 542.46 233.34 540.08 235.20
  Q 530.29 242.87 518.88 247.44
  A 1.14 1.11 1.9 0 0 518.29 247.98
  Q 515.19 254.20 512.33 259.02
  Q 508.99 264.68 503.99 269.00
  Q 493.46 278.10 480.47 283.17
  Q 472.90 286.12 459.50 290.25
  Q 453.25 292.17 449.50 287.54
  Q 455.53 287.67 460.75 286.50
  Q 478.59 282.49 494.31 272.31
  Q 514.27 259.40 519.25 237.50
  Q 520.85 230.47 521.25 225.46
  Q 522.43 224.63 523.61 223.82
  Q 528.12 220.70 526.11 216.11
  Q 525.62 214.98 524.38 213.80
  Q 523.32 212.79 522.25 211.79
  Q 522.75 211.87 522.75 211.50
  Q 522.91 199.05 525.50 188.00
  Q 525.67 187.27 526.75 185.21
  Q 528.39 184.43 529.78 183.28
  Q 535.08 178.89 542.05 178.59
  Q 543.51 178.53 544.96 178.36
  Q 554.95 177.19 565.00 177.72
  A 1.67 1.66 -24.8 0 1 565.90 178.05
  Q 580.88 189.35 583.29 208.25
  Z"
/>
<path fill="#7b3b60" d="
  M 583.29 208.25
  Q 599.81 214.32 614.96 223.28
  Q 632.52 233.67 648.94 245.81
  Q 650.14 246.70 652.71 246.75
  Q 654.97 251.87 658.64 256.10
  Q 665.33 263.80 671.98 271.53
  Q 677.07 277.45 684.03 279.93
  Q 688.27 281.44 698.15 281.88
  Q 712.93 282.55 727.73 282.15
  Q 736.24 281.93 737.26 282.06
  Q 742.43 282.71 746.19 286.06
  Q 754.83 293.77 759.04 306.25
  Q 758.24 306.79 757.88 306.27
  Q 757.45 305.67 757.27 305.55
  Q 744.85 298.00 731.26 301.82
  Q 727.87 302.78 724.44 305.41
  Q 720.89 308.14 717.48 311.04
  Q 713.32 314.58 711.06 315.85
  Q 707.27 317.97 703.50 318.75
  Q 692.46 321.04 679.74 319.61
  Q 668.11 318.30 659.06 315.94
  Q 647.54 312.94 638.73 304.02
  Q 633.79 299.03 628.16 294.85
  Q 617.29 286.77 604.34 288.67
  Q 600.59 289.22 596.34 290.92
  Q 592.46 292.48 588.80 294.55
  Q 570.26 305.02 557.53 322.07
  Q 554.76 325.77 551.76 329.29
  Q 545.37 336.77 535.94 339.70
  Q 522.97 343.72 517.81 345.81
  Q 506.34 350.48 496.86 358.16
  Q 489.68 363.97 485.89 370.01
  Q 481.36 377.22 480.25 385.50
  Q 478.80 396.27 479.71 410.99
  Q 480.36 421.32 473.86 429.12
  Q 470.82 432.77 464.81 437.56
  Q 457.39 443.48 448.56 443.09
  A 0.99 0.85 16.0 0 0 447.75 443.46
  L 446.75 444.96
  Q 444.09 446.22 441.72 447.96
  Q 432.49 454.74 423.25 461.51
  Q 414.36 468.02 406.54 475.73
  Q 401.75 480.44 398.35 485.09
  Q 394.89 489.84 391.56 495.56
  Q 384.30 508.06 383.69 521.94
  Q 383.50 526.25 384.31 529.72
  Q 384.89 532.18 386.91 533.98
  Q 390.83 537.47 395.79 539.50
  Q 391.54 550.24 382.44 556.44
  Q 368.73 565.76 351.85 573.89
  Q 343.20 578.05 337.50 582.75
  Q 327.75 590.78 332.33 603.43
  Q 336.00 613.55 339.94 623.57
  Q 340.68 625.46 340.50 627.48
  Q 338.54 649.30 326.08 666.27
  Q 319.71 674.95 311.81 680.08
  Q 300.74 687.25 287.00 688.75
  Q 263.53 691.30 258.00 692.25
  Q 251.48 693.37 245.17 695.39
  Q 240.37 696.93 236.69 700.20
  Q 234.51 702.14 233.71 704.47
  Q 232.93 706.76 232.75 709.75
  Q 232.14 720.02 236.56 728.13
  Q 237.37 729.63 238.20 731.49
  Q 238.96 733.22 239.97 734.82
  A 1.15 1.06 38.6 0 1 240.11 735.73
  Q 239.20 738.67 237.36 741.17
  A 1.50 1.32 -30.9 0 0 237.07 742.07
  Q 237.20 745.00 238.81 746.94
  Q 243.91 753.05 245.96 756.00
  Q 236.37 751.31 227.67 745.19
  Q 219.43 739.40 219.34 739.34
  Q 213.47 735.36 207.67 731.29
  Q 207.57 731.22 206.17 729.86
  Q 205.01 728.72 203.25 729.29
  Q 191.80 713.47 182.50 696.29
  Q 184.00 695.36 184.31 695.06
  Q 201.50 678.93 199.53 655.87
  Q 199.22 652.18 197.87 647.24
  Q 196.72 643.01 195.43 638.81
  Q 192.32 628.65 192.90 618.01
  Q 193.21 612.15 195.49 606.75
  Q 200.28 595.42 208.73 586.49
  Q 216.52 578.27 224.92 570.67
  Q 239.94 557.10 248.06 538.56
  Q 248.40 537.80 248.29 535.25
  Q 254.13 545.08 263.06 550.44
  Q 280.39 560.82 301.50 559.20
  Q 311.84 558.40 320.90 553.88
  Q 326.23 551.23 329.93 547.69
  Q 334.16 543.62 336.44 538.69
  Q 340.91 528.99 342.44 516.24
  Q 343.14 510.41 342.19 506.81
  Q 340.77 501.50 339.71 496.10
  Q 338.85 491.70 339.45 488.36
  Q 340.16 484.47 341.86 480.84
  Q 345.46 473.18 348.46 465.29
  Q 351.90 456.24 351.89 451.23
  Q 351.88 444.27 348.41 436.73
  Q 347.32 434.37 349.81 433.60
  Q 355.11 431.97 362.27 431.50
  Q 363.89 431.39 364.78 430.04
  Q 365.70 428.66 367.46 428.97
  Q 381.89 431.50 395.23 425.79
  Q 400.60 423.50 399.89 417.48
  Q 399.26 412.12 396.44 408.31
  Q 392.98 403.65 386.75 403.72
  Q 377.67 403.83 369.21 407.89
  A 0.32 0.32 77.2 0 1 368.75 407.60
  Q 368.75 393.90 362.17 382.07
  Q 361.69 381.21 361.46 380.25
  L 360.54 378.25
  Q 362.40 377.30 363.94 374.19
  Q 373.46 354.90 389.21 333.20
  Q 407.48 308.00 428.81 285.31
  Q 430.01 284.04 432.25 283.96
  Q 440.68 286.72 449.50 287.54
  Q 453.25 292.17 459.50 290.25
  Q 472.90 286.12 480.47 283.17
  Q 493.46 278.10 503.99 269.00
  Q 508.99 264.68 512.33 259.02
  Q 515.19 254.20 518.29 247.98
  A 1.14 1.11 1.9 0 1 518.88 247.44
  Q 530.29 242.87 540.08 235.20
  Q 542.46 233.34 546.43 229.27
  Q 550.91 224.69 553.06 223.56
  Q 558.37 220.78 564.75 220.25
  Q 566.08 220.14 571.08 219.60
  Q 575.27 219.14 577.24 218.16
  Q 582.85 215.38 583.29 208.25
  Z"
/>
<path fill="#6d3642" d="
  M 522.25 211.79
  Q 523.32 212.79 524.38 213.80
  Q 525.62 214.98 526.11 216.11
  Q 528.12 220.70 523.61 223.82
  Q 522.43 224.63 521.25 225.46
  L 511.00 227.46
  Q 508.25 227.53 505.50 227.44
  Q 498.54 227.21 494.81 222.19
  Q 493.33 220.19 493.83 217.80
  Q 494.21 216.04 495.82 214.09
  Q 500.93 207.96 510.00 209.00
  Q 517.27 209.84 522.25 211.79
  Z"
/>
<path fill="#562c38" d="
  M 650.04 213.50
  Q 650.67 214.08 651.51 214.06
  Q 652.09 214.04 652.45 214.22
  Q 661.78 218.77 671.28 222.96
  Q 671.48 223.05 678.49 226.38
  Q 682.28 228.19 685.94 229.31
  Q 688.73 230.17 690.83 231.43
  Q 690.88 231.46 691.90 232.36
  Q 692.80 233.17 694.04 232.25
  Q 699.67 237.94 707.25 242.50
  Q 720.08 250.22 733.85 254.55
  Q 737.51 255.71 747.83 257.65
  Q 757.89 259.54 767.19 262.81
  Q 772.35 264.63 777.75 267.79
  Q 796.65 279.59 804.73 300.39
  Q 808.62 310.42 812.47 320.45
  Q 814.12 324.72 815.63 327.20
  Q 817.46 330.21 819.94 333.31
  Q 824.03 338.44 826.19 344.75
  Q 827.50 348.60 827.91 354.41
  Q 828.19 358.33 828.50 364.25
  Q 828.90 371.81 835.25 376.29
  Q 841.81 381.30 850.75 381.00
  Q 859.46 380.71 866.21 376.75
  Q 888.21 443.29 885.96 513.50
  Q 884.98 513.43 884.33 512.86
  A 0.95 0.77 54.8 0 0 883.52 512.63
  Q 879.81 513.69 876.94 516.94
  Q 870.78 523.90 868.50 532.25
  Q 867.23 536.90 866.42 545.56
  Q 866.16 548.32 865.69 549.36
  Q 864.71 551.50 862.50 552.00
  Q 858.27 552.96 849.51 551.66
  Q 842.70 550.65 838.75 551.50
  Q 833.11 552.71 830.50 559.00
  Q 827.47 566.32 827.41 572.50
  Q 827.22 591.39 821.87 609.46
  Q 820.88 612.78 821.00 617.00
  Q 821.14 622.00 824.38 624.41
  Q 826.54 626.01 831.49 626.36
  Q 836.12 626.68 841.07 626.48
  Q 842.49 626.42 841.77 627.65
  Q 834.15 640.70 825.16 653.16
  Q 822.35 657.06 813.28 669.26
  Q 791.09 699.12 765.60 726.21
  Q 759.42 732.77 751.55 740.43
  Q 738.97 752.67 726.10 764.60
  Q 719.05 771.14 711.80 776.26
  A 2.04 2.02 47.6 0 1 709.32 776.14
  Q 707.48 774.57 705.62 774.62
  Q 704.14 774.67 702.49 776.40
  Q 699.77 779.27 697.55 782.58
  Q 696.50 784.14 697.84 785.46
  Q 699.21 786.82 697.57 787.99
  Q 696.67 788.64 696.60 788.70
  Q 674.85 806.72 651.87 823.15
  Q 643.05 829.45 632.68 832.67
  Q 594.33 844.60 554.74 851.42
  A 1.15 1.01 57.1 0 1 553.88 851.18
  Q 551.98 849.67 549.66 850.62
  Q 545.97 852.13 542.06 852.57
  Q 538.14 853.01 535.56 851.91
  Q 532.32 850.52 530.54 847.14
  A 1.37 0.65 71.8 0 0 529.88 846.45
  L 528.07 845.87
  A 0.59 0.50 -73.1 0 0 527.41 846.30
  Q 526.24 850.29 528.78 853.38
  Q 529.84 854.66 528.20 854.93
  Q 502.11 859.26 475.74 859.01
  Q 470.35 858.96 455.75 858.56
  Q 421.57 857.64 387.70 852.83
  Q 387.60 852.81 379.78 851.84
  Q 373.49 851.07 367.37 849.45
  Q 363.78 848.51 360.18 847.82
  Q 356.55 847.14 352.98 846.17
  Q 345.45 844.12 342.28 843.36
  Q 335.42 841.69 328.72 839.41
  A 1.76 1.49 76.3 0 1 327.95 838.85
  Q 326.05 836.42 322.94 835.06
  Q 318.85 833.28 315.30 829.91
  A 1.81 1.62 -15.0 0 0 314.45 829.48
  Q 312.69 829.14 311.15 828.12
  Q 309.57 827.07 309.21 828.75
  Q 246.11 789.79 203.25 729.29
  Q 205.01 728.72 206.17 729.86
  Q 207.57 731.22 207.67 731.29
  Q 213.47 735.36 219.34 739.34
  Q 219.43 739.40 227.67 745.19
  Q 236.37 751.31 245.96 756.00
  Q 247.26 756.85 251.50 758.75
  Q 301.87 781.36 355.44 786.56
  Q 402.89 791.17 447.34 785.82
  Q 457.02 784.66 467.11 782.80
  Q 552.06 767.14 627.69 718.98
  Q 628.94 718.19 627.61 717.52
  Q 623.87 715.65 619.53 713.32
  Q 619.41 713.26 614.77 710.95
  Q 611.19 709.16 609.94 707.56
  Q 605.48 701.87 609.19 695.19
  Q 611.32 691.34 613.80 688.32
  Q 617.03 684.39 618.67 683.17
  Q 621.60 680.99 625.75 681.00
  Q 632.70 681.01 638.59 683.76
  Q 644.58 686.55 645.25 692.50
  Q 646.20 700.93 642.49 708.52
  Q 642.10 709.31 642.85 708.83
  Q 655.90 700.42 668.10 690.68
  Q 674.56 685.52 683.49 677.92
  Q 742.03 628.10 780.90 561.44
  Q 782.51 558.69 783.79 555.65
  A 1.79 1.77 43.0 0 0 783.73 554.15
  Q 781.92 550.63 780.34 547.06
  Q 778.94 543.88 777.71 539.66
  Q 776.09 534.11 774.49 528.55
  Q 771.46 518.08 779.66 514.55
  Q 783.17 513.04 786.49 513.40
  Q 790.14 513.79 793.12 516.37
  Q 796.60 519.39 798.82 523.45
  Q 799.41 524.53 799.95 523.42
  Q 810.50 501.50 817.77 478.26
  Q 827.84 446.05 832.97 412.49
  A 3.36 3.35 30.6 0 0 832.31 409.93
  Q 817.45 390.60 800.23 373.34
  Q 800.19 373.31 796.87 370.07
  Q 782.52 356.08 773.91 337.89
  Q 766.43 322.09 759.04 306.25
  Q 754.83 293.77 746.19 286.06
  Q 742.43 282.71 737.26 282.06
  Q 736.24 281.93 727.73 282.15
  Q 712.93 282.55 698.15 281.88
  Q 688.27 281.44 684.03 279.93
  Q 677.07 277.45 671.98 271.53
  Q 665.33 263.80 658.64 256.10
  Q 654.97 251.87 652.71 246.75
  Q 650.29 240.51 649.75 235.50
  Q 648.69 225.71 649.79 213.75
  Q 650.00 213.71 650.04 213.50
  Z
  M 797.79 571.90
  Q 799.65 572.84 801.69 570.94
  Q 806.49 566.46 809.34 561.16
  Q 812.04 556.14 811.71 550.89
  Q 811.36 545.41 808.67 540.38
  Q 804.65 532.89 800.45 526.59
  Q 799.67 525.41 799.08 526.70
  Q 793.14 539.90 786.71 551.35
  Q 786.67 551.43 785.82 552.72
  Q 784.68 554.43 785.24 556.15
  Q 785.30 556.32 787.08 559.49
  Q 790.30 565.21 795.13 569.65
  Q 797.30 571.65 797.79 571.90
  Z
  M 438.90 805.37
  Q 446.55 809.78 455.25 810.71
  Q 458.98 811.11 461.36 809.65
  Q 464.30 807.84 465.64 804.41
  A 0.44 0.44 17.3 0 0 465.33 803.82
  Q 455.32 801.24 446.40 796.04
  Q 443.67 794.45 441.95 791.83
  A 1.13 1.13 -35.6 0 0 440.32 791.56
  Q 436.15 794.74 435.94 800.01
  Q 435.81 803.58 438.90 805.37
  Z"
/>
<path fill="#f67b63" d="
  M 521.25 225.46
  Q 520.85 230.47 519.25 237.50
  Q 514.27 259.40 494.31 272.31
  Q 478.59 282.49 460.75 286.50
  Q 455.53 287.67 449.50 287.54
  Q 440.68 286.72 432.25 283.96
  L 431.50 283.54
  Q 433.86 281.76 436.09 279.82
  Q 451.40 266.46 467.05 253.49
  Q 467.16 253.40 476.47 245.54
  Q 482.68 240.29 489.20 235.42
  Q 493.95 231.87 499.02 229.45
  Q 500.78 228.62 502.61 229.28
  Q 506.50 230.70 510.31 229.31
  Q 511.39 228.92 511.00 227.46
  L 521.25 225.46
  Z"
/>
<path fill="#6d3642" d="
  M 456.75 241.79
  Q 453.99 242.35 449.94 244.44
  Q 446.55 246.18 441.47 246.67
  Q 441.12 246.70 439.60 246.45
  Q 438.35 246.24 437.71 247.50
  Q 432.53 245.62 434.06 240.81
  Q 434.59 239.14 436.36 237.74
  Q 437.33 236.98 439.48 235.60
  Q 445.38 231.81 452.17 233.27
  Q 455.47 233.98 456.85 235.63
  Q 458.86 238.05 456.75 241.79
  Z"
/>
<path fill="#6b2f36" d="
  M 456.75 241.79
  Q 453.64 247.29 447.50 249.01
  Q 442.25 250.47 437.71 247.50
  Q 438.35 246.24 439.60 246.45
  Q 441.12 246.70 441.47 246.67
  Q 446.55 246.18 449.94 244.44
  Q 453.99 242.35 456.75 241.79
  Z"
/>
<path fill="#f47b62" d="
  M 835.25 376.29
  Q 828.90 371.81 828.50 364.25
  Q 828.19 358.33 827.91 354.41
  Q 827.50 348.60 826.19 344.75
  Q 824.03 338.44 819.94 333.31
  Q 817.46 330.21 815.63 327.20
  Q 814.12 324.72 812.47 320.45
  Q 808.62 310.42 804.73 300.39
  Q 796.65 279.59 777.75 267.79
  Q 782.04 268.23 784.19 269.56
  Q 786.84 271.21 790.90 275.61
  Q 798.78 284.14 804.93 294.01
  A 0.35 0.34 -42.3 0 0 805.50 294.03
  Q 809.12 289.39 814.70 288.07
  A 2.50 2.47 57.1 0 1 816.79 288.53
  Q 821.52 292.22 824.66 296.64
  Q 824.69 296.68 825.57 298.48
  Q 826.15 299.68 827.50 299.76
  A 1.10 0.90 -12.3 0 1 828.29 300.16
  Q 830.30 302.92 832.18 305.77
  Q 832.69 306.55 833.66 309.10
  Q 834.36 310.94 835.81 312.19
  Q 838.24 314.28 838.48 317.25
  A 1.87 1.65 -68.1 0 0 838.80 318.15
  Q 840.24 320.08 841.19 322.28
  Q 842.89 326.23 843.09 326.61
  Q 847.31 334.90 851.01 343.43
  Q 851.05 343.53 853.21 347.95
  Q 854.49 350.58 855.69 354.31
  Q 858.66 363.57 860.06 366.19
  Q 860.99 367.91 861.43 369.30
  Q 862.10 371.36 862.32 372.54
  Q 862.76 374.90 861.03 376.42
  Q 859.88 377.43 857.54 377.36
  Q 854.29 377.25 851.03 377.38
  Q 850.96 377.38 846.55 378.09
  Q 842.34 378.76 839.04 375.66
  A 1.59 1.11 61.6 0 0 838.20 375.24
  Q 836.52 375.10 835.25 376.29
  Z"
/>
<path fill="#874275" d="
  M 431.50 283.54
  L 432.25 283.96
  Q 430.01 284.04 428.81 285.31
  Q 407.48 308.00 389.21 333.20
  Q 373.46 354.90 363.94 374.19
  Q 362.40 377.30 360.54 378.25
  Q 351.89 363.14 340.54 349.96
  Q 338.44 347.52 335.90 345.55
  Q 335.66 345.37 335.31 344.79
  Q 334.94 344.17 334.21 344.50
  Q 331.95 331.60 338.19 320.69
  Q 341.74 314.48 346.79 308.99
  Q 351.07 304.34 357.28 299.08
  Q 371.43 287.07 389.14 280.78
  Q 400.44 276.77 412.31 278.96
  Q 422.02 280.75 431.50 283.54
  Z"
/>
<path fill="#6d3742" d="
  M 759.04 306.25
  Q 766.43 322.09 773.91 337.89
  Q 782.52 356.08 796.87 370.07
  Q 800.19 373.31 800.23 373.34
  Q 817.45 390.60 832.31 409.93
  A 3.36 3.35 30.6 0 1 832.97 412.49
  Q 827.84 446.05 817.77 478.26
  Q 810.50 501.50 799.95 523.42
  Q 799.41 524.53 798.82 523.45
  Q 796.60 519.39 793.12 516.37
  Q 790.14 513.79 786.49 513.40
  Q 783.17 513.04 779.66 514.55
  Q 771.46 518.08 774.49 528.55
  Q 776.09 534.11 777.71 539.66
  Q 778.94 543.88 780.34 547.06
  Q 781.92 550.63 783.73 554.15
  A 1.79 1.77 43.0 0 1 783.79 555.65
  Q 782.51 558.69 780.90 561.44
  Q 742.03 628.10 683.49 677.92
  Q 674.56 685.52 668.10 690.68
  Q 655.90 700.42 642.85 708.83
  Q 642.10 709.31 642.49 708.52
  Q 646.20 700.93 645.25 692.50
  Q 644.58 686.55 638.59 683.76
  Q 632.70 681.01 625.75 681.00
  Q 621.60 680.99 618.67 683.17
  Q 617.03 684.39 613.80 688.32
  Q 611.32 691.34 609.19 695.19
  Q 605.48 701.87 609.94 707.56
  Q 611.19 709.16 614.77 710.95
  Q 619.41 713.26 619.53 713.32
  Q 623.87 715.65 627.61 717.52
  Q 628.94 718.19 627.69 718.98
  Q 552.06 767.14 467.11 782.80
  Q 457.02 784.66 447.34 785.82
  Q 402.89 791.17 355.44 786.56
  Q 301.87 781.36 251.50 758.75
  Q 247.26 756.85 245.96 756.00
  Q 243.91 753.05 238.81 746.94
  Q 237.20 745.00 237.07 742.07
  A 1.50 1.32 -30.9 0 1 237.36 741.17
  Q 239.20 738.67 240.11 735.73
  A 1.15 1.06 38.6 0 0 239.97 734.82
  Q 238.96 733.22 238.20 731.49
  Q 237.37 729.63 236.56 728.13
  Q 232.14 720.02 232.75 709.75
  Q 232.93 706.76 233.71 704.47
  Q 234.51 702.14 236.69 700.20
  Q 240.37 696.93 245.17 695.39
  Q 251.48 693.37 258.00 692.25
  Q 263.53 691.30 287.00 688.75
  Q 300.74 687.25 311.81 680.08
  Q 319.71 674.95 326.08 666.27
  Q 338.54 649.30 340.50 627.48
  Q 340.68 625.46 339.94 623.57
  Q 336.00 613.55 332.33 603.43
  Q 327.75 590.78 337.50 582.75
  Q 343.20 578.05 351.85 573.89
  Q 368.73 565.76 382.44 556.44
  Q 391.54 550.24 395.79 539.50
  Q 396.10 539.25 396.50 539.21
  Q 397.72 540.12 398.56 540.44
  Q 412.03 545.55 440.94 554.56
  Q 459.76 560.43 476.28 562.94
  Q 491.07 565.18 493.98 565.84
  Q 505.96 568.54 518.57 572.88
  A 2.13 2.12 24.9 0 0 521.07 571.97
  Q 525.17 565.10 528.56 556.61
  A 1.81 1.80 12.5 0 1 530.35 555.47
  Q 542.84 556.30 555.09 555.64
  Q 563.66 555.17 571.69 552.99
  Q 583.04 549.90 593.91 545.29
  Q 599.36 542.98 604.16 538.22
  A 2.61 2.60 31.0 0 1 606.75 537.58
  L 631.96 545.29
  A 0.71 0.71 27.1 0 0 632.74 545.04
  Q 643.23 531.27 645.81 529.06
  Q 648.25 526.98 652.50 525.75
  Q 658.92 523.89 675.37 516.28
  Q 697.33 506.12 717.39 494.59
  Q 718.91 493.72 719.26 492.01
  Q 721.80 479.76 722.55 468.04
  Q 722.67 466.14 721.60 464.56
  Q 712.80 451.54 702.75 438.71
  A 1.23 1.14 72.4 0 0 701.94 438.25
  L 670.65 434.66
  A 0.64 0.63 0.6 0 1 670.09 434.10
  Q 668.57 419.16 667.13 405.07
  Q 666.84 402.22 665.02 400.17
  A 1.15 1.09 -18.8 0 0 664.19 399.79
  Q 660.91 399.67 657.82 400.84
  Q 639.70 407.75 625.82 421.31
  Q 619.98 427.02 614.23 432.82
  Q 607.59 439.52 603.30 442.05
  Q 594.20 447.43 583.71 447.88
  Q 575.24 448.25 564.17 444.39
  Q 547.40 438.54 533.09 427.48
  A 0.53 0.53 29.8 0 0 532.28 427.70
  Q 527.83 438.70 524.55 449.87
  Q 524.53 449.90 523.68 453.68
  Q 522.64 458.29 519.14 460.79
  Q 517.81 461.73 510.38 464.66
  Q 502.22 467.88 491.06 471.06
  Q 458.49 480.37 429.00 484.04
  Q 428.23 483.45 428.54 482.65
  Q 428.83 481.88 428.85 481.81
  Q 431.04 472.20 434.81 465.06
  Q 439.51 456.17 447.34 446.36
  Q 448.33 445.12 446.75 444.96
  L 447.75 443.46
  A 0.99 0.85 16.0 0 1 448.56 443.09
  Q 457.39 443.48 464.81 437.56
  Q 470.82 432.77 473.86 429.12
  Q 480.36 421.32 479.71 410.99
  Q 478.80 396.27 480.25 385.50
  Q 481.36 377.22 485.89 370.01
  Q 489.68 363.97 496.86 358.16
  Q 506.34 350.48 517.81 345.81
  Q 522.97 343.72 535.94 339.70
  Q 545.37 336.77 551.76 329.29
  Q 554.76 325.77 557.53 322.07
  Q 570.26 305.02 588.80 294.55
  Q 592.46 292.48 596.34 290.92
  Q 600.59 289.22 604.34 288.67
  Q 617.29 286.77 628.16 294.85
  Q 633.79 299.03 638.73 304.02
  Q 647.54 312.94 659.06 315.94
  Q 668.11 318.30 679.74 319.61
  Q 692.46 321.04 703.50 318.75
  Q 707.27 317.97 711.06 315.85
  Q 713.32 314.58 717.48 311.04
  Q 720.89 308.14 724.44 305.41
  Q 727.87 302.78 731.26 301.82
  Q 744.85 298.00 757.27 305.55
  Q 757.45 305.67 757.88 306.27
  Q 758.24 306.79 759.04 306.25
  Z
  M 612.54 388.47
  Q 611.24 387.13 609.55 387.25
  A 0.48 0.45 83.7 0 0 609.14 387.80
  Q 609.76 391.61 609.71 395.44
  Q 609.66 399.75 607.80 402.67
  Q 605.07 406.96 600.10 409.14
  Q 598.56 409.81 597.20 410.49
  Q 596.41 410.89 597.29 410.95
  Q 603.61 411.40 608.83 409.25
  Q 612.50 407.74 614.32 405.15
  Q 616.40 402.21 616.41 398.25
  Q 616.44 392.50 612.54 388.47
  Z
  M 481.42 644.09
  Q 485.67 647.50 492.25 648.75
  Q 509.07 651.95 517.43 638.24
  Q 517.69 637.81 517.21 637.93
  Q 508.71 639.95 501.56 637.69
  Q 494.75 635.53 490.81 628.62
  A 0.91 0.88 75.8 0 0 490.07 628.16
  Q 485.06 627.93 479.08 629.26
  A 2.28 2.27 2.2 0 0 477.41 630.80
  Q 474.84 638.82 481.42 644.09
  Z
  M 258.09 734.65
  Q 258.64 735.13 259.27 735.48
  Q 272.80 743.03 286.69 748.56
  Q 294.84 751.81 302.17 749.60
  Q 308.24 747.77 311.30 743.35
  Q 314.75 738.35 313.00 731.36
  Q 311.48 725.28 308.94 720.81
  Q 301.63 708.00 287.95 705.57
  Q 281.25 704.38 273.53 704.75
  Q 266.08 705.12 259.26 708.10
  Q 252.64 711.00 250.35 715.31
  Q 247.17 721.30 252.24 728.31
  Q 254.52 731.47 258.09 734.65
  Z
  M 396.69 751.06
  Q 398.63 752.29 401.16 752.63
  Q 403.32 752.91 405.78 752.26
  Q 410.04 751.12 414.56 748.31
  Q 421.13 744.24 424.64 740.89
  Q 430.46 735.33 426.75 728.00
  Q 424.65 723.85 420.99 722.82
  Q 418.40 722.10 414.49 722.62
  Q 410.99 723.08 408.31 725.06
  Q 402.27 729.53 396.16 736.92
  Q 392.37 741.51 393.50 746.25
  Q 394.28 749.54 396.69 751.06
  Z"
/>
<path fill="#6d3642" d="
  M 223.71 363.00
  Q 225.70 353.22 232.29 345.75
  Q 237.86 340.33 244.43 336.17
  Q 250.92 332.05 253.94 329.19
  Q 258.80 324.58 263.58 322.87
  Q 279.55 317.17 294.50 323.00
  Q 298.13 324.41 299.65 328.83
  Q 302.89 338.24 303.14 348.25
  Q 303.36 357.06 299.58 364.40
  Q 297.35 368.72 290.07 377.41
  Q 284.59 383.96 278.26 389.76
  Q 268.99 398.28 258.18 396.75
  Q 250.04 395.60 240.66 388.10
  Q 230.89 380.30 225.06 369.44
  Q 223.73 366.96 223.71 363.00
  Z"
/>
<path fill="#66334e" d="
  M 360.54 378.25
  L 361.46 380.25
  L 361.23 380.25
  A 0.35 0.35 11.5 0 0 360.91 380.46
  Q 358.31 386.33 356.50 392.50
  Q 356.00 394.21 353.75 396.04
  Q 352.98 393.20 351.64 390.58
  Q 346.27 380.08 341.40 369.33
  Q 336.01 357.43 334.21 344.50
  Q 334.94 344.17 335.31 344.79
  Q 335.66 345.37 335.90 345.55
  Q 338.44 347.52 340.54 349.96
  Q 351.89 363.14 360.54 378.25
  Z"
/>
<path fill="#522a38" d="
  M 361.46 380.25
  Q 361.69 381.21 362.17 382.07
  Q 368.75 393.90 368.75 407.60
  A 0.32 0.32 77.2 0 0 369.21 407.89
  Q 377.67 403.83 386.75 403.72
  Q 392.98 403.65 396.44 408.31
  Q 399.26 412.12 399.89 417.48
  Q 400.60 423.50 395.23 425.79
  Q 381.89 431.50 367.46 428.97
  Q 365.70 428.66 364.78 430.04
  Q 363.89 431.39 362.27 431.50
  Q 355.11 431.97 349.81 433.60
  Q 347.32 434.37 348.41 436.73
  Q 351.88 444.27 351.89 451.23
  Q 351.90 456.24 348.46 465.29
  Q 345.46 473.18 341.86 480.84
  Q 340.16 484.47 339.45 488.36
  Q 338.85 491.70 339.71 496.10
  Q 340.77 501.50 342.19 506.81
  Q 343.14 510.41 342.44 516.24
  Q 340.91 528.99 336.44 538.69
  Q 334.16 543.62 329.93 547.69
  Q 326.23 551.23 320.90 553.88
  Q 311.84 558.40 301.50 559.20
  Q 280.39 560.82 263.06 550.44
  Q 254.13 545.08 248.29 535.25
  Q 242.68 523.31 241.00 510.21
  Q 246.78 510.00 252.50 510.79
  Q 255.19 511.62 255.75 511.75
  Q 261.82 513.13 264.54 518.63
  Q 266.00 521.59 267.02 524.74
  Q 269.07 531.13 273.38 535.94
  Q 277.12 540.12 281.67 541.58
  Q 286.32 543.09 292.00 542.50
  Q 305.33 541.12 316.13 536.64
  Q 321.67 534.35 324.25 531.89
  Q 328.08 528.21 328.50 523.00
  Q 329.15 514.95 325.06 504.19
  Q 322.79 498.18 321.72 491.00
  Q 320.78 484.70 321.18 477.47
  Q 322.00 462.70 326.46 448.50
  Q 330.06 439.89 334.31 435.06
  Q 338.36 430.47 342.13 425.64
  Q 349.20 416.60 352.81 404.81
  Q 354.24 400.16 353.75 396.04
  Q 356.00 394.21 356.50 392.50
  Q 358.31 386.33 360.91 380.46
  A 0.35 0.35 11.5 0 1 361.23 380.25
  L 361.46 380.25
  Z"
/>
<path fill="#582b36" d="
  M 208.00 386.04
  Q 209.35 387.36 209.31 390.31
  Q 209.25 395.99 203.75 396.25
  Q 200.19 396.42 198.29 393.25
  Q 197.64 388.48 201.29 385.50
  Q 204.78 383.42 208.00 386.04
  Z"
/>
<path fill="#562c38" d="
  M 612.54 388.47
  Q 616.44 392.50 616.41 398.25
  Q 616.40 402.21 614.32 405.15
  Q 612.50 407.74 608.83 409.25
  Q 603.61 411.40 597.29 410.95
  Q 596.41 410.89 597.20 410.49
  Q 598.56 409.81 600.10 409.14
  Q 605.07 406.96 607.80 402.67
  Q 609.66 399.75 609.71 395.44
  Q 609.76 391.61 609.14 387.80
  A 0.48 0.45 83.7 0 1 609.55 387.25
  Q 611.24 387.13 612.54 388.47
  Z"
/>
<path fill="#522831" d="
  M 396.50 539.21
  Q 397.29 536.83 397.44 535.94
  Q 401.87 509.38 402.50 502.50
  Q 403.08 496.13 404.00 493.25
  Q 405.09 489.82 408.19 488.94
  Q 415.86 486.76 429.00 484.04
  Q 458.49 480.37 491.06 471.06
  Q 502.22 467.88 510.38 464.66
  Q 517.81 461.73 519.14 460.79
  Q 522.64 458.29 523.68 453.68
  Q 524.53 449.90 524.55 449.87
  Q 527.83 438.70 532.28 427.70
  A 0.53 0.53 29.8 0 1 533.09 427.48
  Q 547.40 438.54 564.17 444.39
  Q 575.24 448.25 583.71 447.88
  Q 594.20 447.43 603.30 442.05
  Q 607.59 439.52 614.23 432.82
  Q 619.98 427.02 625.82 421.31
  Q 639.70 407.75 657.82 400.84
  Q 660.91 399.67 664.19 399.79
  A 1.15 1.09 -18.8 0 1 665.02 400.17
  Q 666.84 402.22 667.13 405.07
  Q 668.57 419.16 670.09 434.10
  A 0.64 0.63 0.6 0 0 670.65 434.66
  L 701.94 438.25
  A 1.23 1.14 72.4 0 1 702.75 438.71
  Q 712.80 451.54 721.60 464.56
  Q 722.67 466.14 722.55 468.04
  Q 721.80 479.76 719.26 492.01
  Q 718.91 493.72 717.39 494.59
  Q 697.33 506.12 675.37 516.28
  Q 658.92 523.89 652.50 525.75
  Q 648.25 526.98 645.81 529.06
  Q 643.23 531.27 632.74 545.04
  A 0.71 0.71 27.1 0 1 631.96 545.29
  L 606.75 537.58
  A 2.61 2.60 31.0 0 0 604.16 538.22
  Q 599.36 542.98 593.91 545.29
  Q 583.04 549.90 571.69 552.99
  Q 563.66 555.17 555.09 555.64
  Q 542.84 556.30 530.35 555.47
  A 1.81 1.80 12.5 0 0 528.56 556.61
  Q 525.17 565.10 521.07 571.97
  A 2.13 2.12 24.9 0 1 518.57 572.88
  Q 505.96 568.54 493.98 565.84
  Q 491.07 565.18 476.28 562.94
  Q 459.76 560.43 440.94 554.56
  Q 412.03 545.55 398.56 540.44
  Q 397.72 540.12 396.50 539.21
  Z
  M 633.00 459.71
  Q 616.25 465.05 601.00 473.79
  Q 591.32 478.67 583.94 484.44
  Q 578.48 488.70 582.31 493.21
  Q 583.59 494.71 585.71 495.64
  Q 587.65 496.50 589.76 496.95
  Q 602.75 499.70 614.82 496.08
  Q 623.47 493.49 632.94 487.74
  Q 642.92 481.68 650.69 472.44
  Q 654.23 468.23 655.73 463.26
  Q 656.45 460.88 655.83 459.22
  Q 654.92 456.81 652.19 456.56
  Q 643.35 455.74 633.00 459.71
  Z
  M 638.21 487.97
  Q 635.14 490.28 634.44 490.69
  Q 630.32 493.08 619.43 497.27
  Q 612.46 499.95 607.22 500.42
  Q 598.84 501.18 590.49 499.36
  A 0.62 0.57 16.6 0 0 589.80 499.70
  Q 588.63 502.46 590.31 504.94
  Q 592.06 507.51 595.17 509.34
  Q 604.09 514.56 614.51 514.17
  Q 632.72 513.48 648.46 504.47
  Q 657.68 499.19 665.69 489.69
  Q 671.32 483.00 673.28 475.58
  Q 673.94 473.08 673.52 471.38
  Q 672.97 469.10 671.06 467.69
  Q 666.83 464.56 659.93 465.45
  Q 657.95 465.71 657.16 467.54
  Q 656.23 469.67 654.59 471.83
  Q 652.92 474.04 651.67 475.85
  Q 648.29 480.76 643.29 484.08
  Q 641.83 485.06 640.73 485.97
  Q 639.50 487.00 638.21 487.97
  Z
  M 488.25 520.96
  Q 490.06 520.47 489.77 522.36
  A 2.40 2.40 83.8 0 1 488.26 524.24
  Q 481.61 526.85 474.50 527.53
  Q 470.22 527.94 466.20 526.82
  Q 460.89 525.33 459.78 525.11
  Q 444.02 522.00 430.86 512.62
  Q 427.45 510.19 423.98 507.85
  A 0.38 0.37 25.1 0 0 423.41 508.05
  Q 422.15 512.38 424.39 516.34
  Q 426.23 519.60 428.70 522.34
  Q 430.28 524.09 433.95 527.51
  Q 452.77 545.02 479.01 546.84
  Q 486.66 547.37 492.19 544.94
  Q 497.09 542.78 498.00 538.50
  Q 499.53 531.32 495.55 524.18
  Q 495.51 524.11 494.25 521.60
  Q 493.46 520.01 491.94 518.06
  Q 490.42 516.12 489.21 518.00
  Q 487.76 513.63 483.75 511.29
  Q 469.26 502.26 453.00 496.96
  Q 439.62 491.10 427.93 488.98
  Q 425.18 488.49 422.40 488.29
  Q 419.51 488.09 417.94 489.51
  Q 416.47 490.85 416.73 493.36
  Q 416.95 495.58 418.26 497.49
  Q 420.98 501.46 424.57 504.67
  Q 446.03 523.81 475.00 525.00
  Q 482.04 525.29 488.25 520.96
  Z"
/>
<path fill="#f8bab2" d="
  M 190.46 407.25
  Q 190.30 408.16 188.81 411.56
  Q 172.95 447.71 166.25 489.25
  Q 165.90 491.43 165.90 492.44
  A 0.77 0.44 -20.3 0 1 165.45 492.98
  L 165.00 493.21
  Q 155.13 492.81 148.06 497.56
  Q 142.63 501.22 146.46 507.00
  Q 152.96 515.36 163.71 513.50
  Q 163.86 513.91 163.75 515.00
  Q 160.94 542.30 161.17 569.75
  Q 161.21 574.79 163.04 579.45
  Q 164.12 582.18 164.96 585.00
  Q 164.39 585.10 164.00 584.25
  Q 160.46 576.60 159.57 574.61
  Q 144.94 542.07 143.94 506.44
  Q 143.92 505.79 144.08 505.16
  Q 144.58 503.19 144.40 501.51
  Q 144.09 498.54 144.14 497.96
  Q 146.16 473.75 157.97 452.48
  Q 166.04 437.93 173.06 429.06
  Q 180.04 420.25 186.95 411.38
  Q 186.99 411.34 188.25 409.36
  Q 189.08 408.06 190.46 407.25
  Z"
/>
<circle fill="#6b2f36" cx="283.66" cy="419.25" r="4.07"/>
<path fill="#60303f" d="
  M 446.75 444.96
  Q 448.33 445.12 447.34 446.36
  Q 439.51 456.17 434.81 465.06
  Q 431.04 472.20 428.85 481.81
  Q 428.83 481.88 428.54 482.65
  Q 428.23 483.45 429.00 484.04
  Q 415.86 486.76 408.19 488.94
  Q 405.09 489.82 404.00 493.25
  Q 403.08 496.13 402.50 502.50
  Q 401.87 509.38 397.44 535.94
  Q 397.29 536.83 396.50 539.21
  Q 396.10 539.25 395.79 539.50
  Q 390.83 537.47 386.91 533.98
  Q 384.89 532.18 384.31 529.72
  Q 383.50 526.25 383.69 521.94
  Q 384.30 508.06 391.56 495.56
  Q 394.89 489.84 398.35 485.09
  Q 401.75 480.44 406.54 475.73
  Q 414.36 468.02 423.25 461.51
  Q 432.49 454.74 441.72 447.96
  Q 444.09 446.22 446.75 444.96
  Z"
/>
<path fill="#f67b63" d="
  M 326.46 448.50
  Q 322.00 462.70 321.18 477.47
  Q 320.78 484.70 321.72 491.00
  Q 322.79 498.18 325.06 504.19
  Q 329.15 514.95 328.50 523.00
  Q 328.08 528.21 324.25 531.89
  Q 321.67 534.35 316.13 536.64
  Q 305.33 541.12 292.00 542.50
  Q 286.32 543.09 281.67 541.58
  Q 277.12 540.12 273.38 535.94
  Q 269.07 531.13 267.02 524.74
  Q 266.00 521.59 264.54 518.63
  Q 261.82 513.13 255.75 511.75
  Q 255.19 511.62 252.50 510.79
  Q 254.13 508.56 259.19 504.44
  Q 290.56 478.88 323.56 449.31
  Q 324.71 448.29 326.46 448.50
  Z"
/>
<path fill="#e46c55" d="
  M 601.00 473.79
  Q 608.47 484.80 621.97 483.26
  Q 624.95 482.92 627.11 480.86
  Q 633.63 474.63 633.55 465.66
  Q 633.55 465.55 633.81 462.89
  Q 633.98 461.21 633.00 459.71
  Q 643.35 455.74 652.19 456.56
  Q 654.92 456.81 655.83 459.22
  Q 656.45 460.88 655.73 463.26
  Q 654.23 468.23 650.69 472.44
  Q 642.92 481.68 632.94 487.74
  Q 623.47 493.49 614.82 496.08
  Q 602.75 499.70 589.76 496.95
  Q 587.65 496.50 585.71 495.64
  Q 583.59 494.71 582.31 493.21
  Q 578.48 488.70 583.94 484.44
  Q 591.32 478.67 601.00 473.79
  Z"
/>
<circle fill="#6b2f36" cx="222.33" cy="461.08" r="3.89"/>
<path fill="#f9b1a7" d="
  M 633.00 459.71
  Q 633.98 461.21 633.81 462.89
  Q 633.55 465.55 633.55 465.66
  Q 633.63 474.63 627.11 480.86
  Q 624.95 482.92 621.97 483.26
  Q 608.47 484.80 601.00 473.79
  Q 616.25 465.05 633.00 459.71
  Z"
/>
<path fill="#6d3642" d="
  M 262.25 482.21
  Q 262.11 481.21 261.05 481.49
  Q 260.36 481.67 259.67 481.49
  Q 249.76 479.02 242.78 476.13
  A 2.03 1.37 73.1 0 1 242.04 475.53
  Q 241.35 474.60 240.25 474.29
  Q 239.14 466.65 246.45 464.74
  Q 259.94 461.23 265.73 472.16
  Q 267.42 475.35 266.98 477.72
  Q 266.36 481.05 262.25 482.21
  Z"
/>
<path fill="#40232a" d="
  M 638.21 487.97
  Q 639.50 487.00 640.73 485.97
  Q 641.83 485.06 643.29 484.08
  Q 648.29 480.76 651.67 475.85
  Q 652.92 474.04 654.59 471.83
  Q 656.23 469.67 657.16 467.54
  Q 657.95 465.71 659.93 465.45
  Q 666.83 464.56 671.06 467.69
  Q 672.97 469.10 673.52 471.38
  Q 673.94 473.08 673.28 475.58
  Q 671.32 483.00 665.69 489.69
  Q 657.68 499.19 648.46 504.47
  Q 632.72 513.48 614.51 514.17
  Q 604.09 514.56 595.17 509.34
  Q 592.06 507.51 590.31 504.94
  Q 588.63 502.46 589.80 499.70
  A 0.62 0.57 16.6 0 1 590.49 499.36
  Q 598.84 501.18 607.22 500.42
  Q 612.46 499.95 619.43 497.27
  Q 630.32 493.08 634.44 490.69
  Q 635.14 490.28 638.21 487.97
  Z"
/>
<path fill="#50252d" d="
  M 240.25 474.29
  Q 241.35 474.60 242.04 475.53
  A 2.03 1.37 73.1 0 0 242.78 476.13
  Q 249.76 479.02 259.67 481.49
  Q 260.36 481.67 261.05 481.49
  Q 262.11 481.21 262.25 482.21
  Q 249.87 486.41 241.06 477.19
  Q 240.27 476.35 240.25 474.29
  Z"
/>
<path fill="#e46c55" d="
  M 453.00 496.96
  Q 452.31 497.10 452.06 498.06
  Q 451.02 502.16 450.96 505.25
  Q 450.80 513.36 456.62 515.76
  Q 460.02 517.16 467.00 516.96
  Q 473.10 516.79 478.92 514.63
  Q 481.77 513.56 483.75 511.29
  Q 487.76 513.63 489.21 518.00
  Q 489.13 519.61 488.25 520.96
  Q 482.04 525.29 475.00 525.00
  Q 446.03 523.81 424.57 504.67
  Q 420.98 501.46 418.26 497.49
  Q 416.95 495.58 416.73 493.36
  Q 416.47 490.85 417.94 489.51
  Q 419.51 488.09 422.40 488.29
  Q 425.18 488.49 427.93 488.98
  Q 439.62 491.10 453.00 496.96
  Z"
/>
<path fill="#6d3742" d="
  M 165.00 493.21
  Q 171.22 492.48 174.21 497.80
  Q 179.97 508.06 169.04 511.50
  Q 170.74 511.01 170.92 509.56
  A 0.42 0.38 -1.4 0 0 170.44 509.14
  Q 162.99 510.29 156.19 508.56
  Q 150.61 507.14 148.50 506.75
  Q 146.93 506.46 146.46 507.00
  Q 142.63 501.22 148.06 497.56
  Q 155.13 492.81 165.00 493.21
  Z"
/>
<path fill="#f9aba1" d="
  M 453.00 496.96
  Q 469.26 502.26 483.75 511.29
  Q 481.77 513.56 478.92 514.63
  Q 473.10 516.79 467.00 516.96
  Q 460.02 517.16 456.62 515.76
  Q 450.80 513.36 450.96 505.25
  Q 451.02 502.16 452.06 498.06
  Q 452.31 497.10 453.00 496.96
  Z"
/>
<path fill="#50252d" d="
  M 169.04 511.50
  L 163.71 513.50
  Q 152.96 515.36 146.46 507.00
  Q 146.93 506.46 148.50 506.75
  Q 150.61 507.14 156.19 508.56
  Q 162.99 510.29 170.44 509.14
  A 0.42 0.38 -1.4 0 1 170.92 509.56
  Q 170.74 511.01 169.04 511.50
  Z"
/>
<path fill="#40232a" d="
  M 488.25 520.96
  Q 489.13 519.61 489.21 518.00
  Q 490.42 516.12 491.94 518.06
  Q 493.46 520.01 494.25 521.60
  Q 495.51 524.11 495.55 524.18
  Q 499.53 531.32 498.00 538.50
  Q 497.09 542.78 492.19 544.94
  Q 486.66 547.37 479.01 546.84
  Q 452.77 545.02 433.95 527.51
  Q 430.28 524.09 428.70 522.34
  Q 426.23 519.60 424.39 516.34
  Q 422.15 512.38 423.41 508.05
  A 0.38 0.37 25.1 0 1 423.98 507.85
  Q 427.45 510.19 430.86 512.62
  Q 444.02 522.00 459.78 525.11
  Q 460.89 525.33 466.20 526.82
  Q 470.22 527.94 474.50 527.53
  Q 481.61 526.85 488.26 524.24
  A 2.40 2.40 83.8 0 0 489.77 522.36
  Q 490.06 520.47 488.25 520.96
  Z"
/>
<path fill="#874275" d="
  M 241.00 510.21
  Q 242.68 523.31 248.29 535.25
  Q 248.40 537.80 248.06 538.56
  Q 239.94 557.10 224.92 570.67
  Q 216.52 578.27 208.73 586.49
  Q 200.28 595.42 195.49 606.75
  Q 193.21 612.15 192.90 618.01
  Q 192.32 628.65 195.43 638.81
  Q 196.72 643.01 197.87 647.24
  Q 199.22 652.18 199.53 655.87
  Q 201.50 678.93 184.31 695.06
  Q 184.00 695.36 182.50 696.29
  Q 151.13 641.18 139.54 578.75
  Q 152.11 584.59 165.75 586.96
  Q 182.39 589.92 197.39 582.46
  Q 204.45 578.94 203.50 570.50
  Q 202.81 564.36 204.84 557.28
  Q 209.60 540.73 216.41 524.96
  Q 219.53 517.73 222.61 515.08
  Q 227.29 511.07 234.50 510.50
  Q 239.70 510.09 241.00 510.21
  Z"
/>
<path fill="#40232a" d="
  M 885.96 513.50
  Q 883.29 593.44 849.31 666.56
  Q 814.74 740.97 754.03 794.42
  Q 746.58 800.98 738.64 807.18
  Q 666.17 863.80 576.50 881.50
  Q 531.85 890.31 483.76 886.64
  Q 389.11 879.40 309.21 828.75
  Q 309.57 827.07 311.15 828.12
  Q 312.69 829.14 314.45 829.48
  A 1.81 1.62 -15.0 0 1 315.30 829.91
  Q 318.85 833.28 322.94 835.06
  Q 326.05 836.42 327.95 838.85
  A 1.76 1.49 76.3 0 0 328.72 839.41
  Q 335.42 841.69 342.28 843.36
  Q 345.45 844.12 352.98 846.17
  Q 356.55 847.14 360.18 847.82
  Q 363.78 848.51 367.37 849.45
  Q 373.49 851.07 379.78 851.84
  Q 387.60 852.81 387.70 852.83
  Q 421.57 857.64 455.75 858.56
  Q 470.35 858.96 475.74 859.01
  Q 502.11 859.26 528.20 854.93
  Q 529.84 854.66 528.78 853.38
  Q 526.24 850.29 527.41 846.30
  A 0.59 0.50 -73.1 0 1 528.07 845.87
  L 529.88 846.45
  A 1.37 0.65 71.8 0 1 530.54 847.14
  Q 532.32 850.52 535.56 851.91
  Q 538.14 853.01 542.06 852.57
  Q 545.97 852.13 549.66 850.62
  Q 551.98 849.67 553.88 851.18
  A 1.15 1.01 57.1 0 0 554.74 851.42
  Q 594.33 844.60 632.68 832.67
  Q 643.05 829.45 651.87 823.15
  Q 674.85 806.72 696.60 788.70
  Q 696.67 788.64 697.57 787.99
  Q 699.21 786.82 697.84 785.46
  Q 696.50 784.14 697.55 782.58
  Q 699.77 779.27 702.49 776.40
  Q 704.14 774.67 705.62 774.62
  Q 707.48 774.57 709.32 776.14
  A 2.04 2.02 47.6 0 0 711.80 776.26
  Q 719.05 771.14 726.10 764.60
  Q 738.97 752.67 751.55 740.43
  Q 759.42 732.77 765.60 726.21
  Q 791.09 699.12 813.28 669.26
  Q 822.35 657.06 825.16 653.16
  Q 834.15 640.70 841.77 627.65
  Q 842.49 626.42 841.07 626.48
  Q 836.12 626.68 831.49 626.36
  Q 826.54 626.01 824.38 624.41
  Q 821.14 622.00 821.00 617.00
  Q 820.88 612.78 821.87 609.46
  Q 827.22 591.39 827.41 572.50
  Q 827.47 566.32 830.50 559.00
  Q 833.11 552.71 838.75 551.50
  Q 842.70 550.65 849.51 551.66
  Q 858.27 552.96 862.50 552.00
  Q 864.71 551.50 865.69 549.36
  Q 866.16 548.32 866.42 545.56
  Q 867.23 536.90 868.50 532.25
  Q 870.78 523.90 876.94 516.94
  Q 879.81 513.69 883.52 512.63
  A 0.95 0.77 54.8 0 1 884.33 512.86
  Q 884.98 513.43 885.96 513.50
  Z"
/>
<path fill="#47252e" d="
  M 795.13 569.65
  Q 790.30 565.21 787.08 559.49
  Q 785.30 556.32 785.24 556.15
  Q 784.68 554.43 785.82 552.72
  Q 786.67 551.43 786.71 551.35
  Q 793.14 539.90 799.08 526.70
  Q 799.67 525.41 800.45 526.59
  Q 804.65 532.89 808.67 540.38
  Q 811.36 545.41 811.71 550.89
  Q 812.04 556.14 809.34 561.16
  Q 806.49 566.46 801.69 570.94
  Q 799.65 572.84 797.79 571.90
  Q 797.30 571.65 795.13 569.65
  Z"
/>
<path fill="#522831" d="
  M 481.42 644.09
  Q 474.84 638.82 477.41 630.80
  A 2.28 2.27 2.2 0 1 479.08 629.26
  Q 485.06 627.93 490.07 628.16
  A 0.91 0.88 75.8 0 1 490.81 628.62
  Q 494.75 635.53 501.56 637.69
  Q 508.71 639.95 517.21 637.93
  Q 517.69 637.81 517.43 638.24
  Q 509.07 651.95 492.25 648.75
  Q 485.67 647.50 481.42 644.09
  Z"
/>
<path fill="#522831" d="
  M 258.09 734.65
  Q 254.52 731.47 252.24 728.31
  Q 247.17 721.30 250.35 715.31
  Q 252.64 711.00 259.26 708.10
  Q 266.08 705.12 273.53 704.75
  Q 281.25 704.38 287.95 705.57
  Q 301.63 708.00 308.94 720.81
  Q 311.48 725.28 313.00 731.36
  Q 314.75 738.35 311.30 743.35
  Q 308.24 747.77 302.17 749.60
  Q 294.84 751.81 286.69 748.56
  Q 272.80 743.03 259.27 735.48
  Q 258.64 735.13 258.09 734.65
  Z"
/>
<path fill="#582b36" d="
  M 396.69 751.06
  Q 394.28 749.54 393.50 746.25
  Q 392.37 741.51 396.16 736.92
  Q 402.27 729.53 408.31 725.06
  Q 410.99 723.08 414.49 722.62
  Q 418.40 722.10 420.99 722.82
  Q 424.65 723.85 426.75 728.00
  Q 430.46 735.33 424.64 740.89
  Q 421.13 744.24 414.56 748.31
  Q 410.04 751.12 405.78 752.26
  Q 403.32 752.91 401.16 752.63
  Q 398.63 752.29 396.69 751.06
  Z"
/>
<path fill="#47252e" d="
  M 438.90 805.37
  Q 435.81 803.58 435.94 800.01
  Q 436.15 794.74 440.32 791.56
  A 1.13 1.13 -35.6 0 1 441.95 791.83
  Q 443.67 794.45 446.40 796.04
  Q 455.32 801.24 465.33 803.82
  A 0.44 0.44 17.3 0 1 465.64 804.41
  Q 464.30 807.84 461.36 809.65
  Q 458.98 811.11 455.25 810.71
  Q 446.55 809.78 438.90 805.37
  Z"
/>
</svg>
