
<svg xmlns="http://www.w3.org/2000/svg" version="1.1" viewBox="0 0 1024 1024">
<g stroke-width="2.00" fill="none" stroke-linecap="butt">
<path stroke="#dcf5fd" vector-effect="non-scaling-stroke" d="
  M 495.50 140.72
  L 486.98 151.36
  A 0.81 0.79 -51.8 0 0 487.10 152.49
  Q 491.72 156.14 495.45 160.58
  A 1.29 1.28 -28.8 0 0 496.82 160.97
  Q 499.11 160.25 501.39 159.70
  Q 504.55 158.94 505.82 158.16
  Q 509.04 156.20 510.66 152.34
  A 1.02 0.95 30.3 0 0 510.32 151.20
  L 496.66 140.60
  A 0.84 0.81 38.1 0 0 495.50 140.72"
/>
<path stroke="#aee8e0" vector-effect="non-scaling-stroke" d="
  M 383.75 164.79
  Q 362.76 172.16 349.69 187.44
  Q 333.97 205.80 343.79 229.50"
/>
<path stroke="#e7fdff" vector-effect="non-scaling-stroke" d="
  M 343.79 229.50
  Q 343.56 230.31 342.82 230.36
  Q 342.17 230.40 341.88 230.56
  Q 291.18 259.87 253.50 304.71"
/>
<path stroke="#defcff" vector-effect="non-scaling-stroke" d="
  M 253.50 304.71
  Q 246.19 313.38 239.29 323.26
  A 1.00 0.99 -56.1 0 1 237.94 323.53
  Q 236.51 322.64 235.75 322.79"
/>
<path stroke="#9dd2e8" vector-effect="non-scaling-stroke" d="
  M 235.75 322.79
  Q 228.44 312.79 229.21 300.25"
/>
<path stroke="#aee8e0" vector-effect="non-scaling-stroke" d="
  M 229.21 300.25
  Q 229.25 286.53 231.50 273.00
  Q 231.77 271.35 231.49 268.31
  Q 231.44 267.81 231.07 268.14
  Q 223.06 275.29 211.06 287.81
  Q 193.28 306.36 189.64 330.54
  Q 187.96 341.72 189.94 350.41
  Q 193.63 366.64 208.71 376.25"
/>
<path stroke="#defcff" vector-effect="non-scaling-stroke" d="
  M 208.71 376.25
  Q 192.87 411.64 185.50 449.71"
/>
<path stroke="#aee8e0" vector-effect="non-scaling-stroke" d="
  M 185.50 449.71
  Q 178.27 447.01 172.44 443.31
  Q 170.22 441.91 168.03 442.43
  A 0.84 0.78 -88.9 0 0 167.44 443.04
  Q 165.68 450.05 168.94 457.06
  Q 172.97 465.77 182.08 467.43
  Q 182.54 467.51 182.86 467.73
  Q 183.21 467.97 183.54 468.25"
/>
<path stroke="#defcff" vector-effect="non-scaling-stroke" d="
  M 183.54 468.25
  Q 182.32 475.08 181.50 487.50
  Q 178.45 533.58 186.69 576.56
  Q 189.27 590.04 191.97 599.38
  Q 192.89 602.55 193.70 605.80
  Q 194.51 609.03 195.46 612.21
  Q 195.49 612.30 197.54 620.01
  Q 199.10 625.90 202.30 631.13
  Q 202.37 631.23 203.13 632.84
  Q 203.70 634.06 204.96 634.75"
/>
<path stroke="#a7d5f6" vector-effect="non-scaling-stroke" d="
  M 204.96 634.75
  Q 212.00 655.98 225.44 678.31
  Q 243.80 708.83 265.46 732.00"
/>
<path stroke="#a8d3eb" vector-effect="non-scaling-stroke" d="
  M 265.46 732.00
  Q 312.55 782.27 376.94 808.81
  Q 423.75 828.10 473.25 832.46"
/>
<path stroke="#9193a7" vector-effect="non-scaling-stroke" d="
  M 473.25 832.46
  Q 474.59 832.84 476.75 833.00
  Q 531.08 837.09 583.42 824.10
  Q 637.81 810.61 685.00 780.46"
/>
<path stroke="#a7e3e8" vector-effect="non-scaling-stroke" d="
  M 685.00 780.46
  Q 687.28 782.47 689.07 784.94
  Q 691.68 788.55 695.34 790.57
  Q 697.00 791.48 698.84 791.04
  Q 703.57 789.90 706.46 786.25"
/>
<path stroke="#9dd2e8" vector-effect="non-scaling-stroke" d="
  M 706.46 786.25
  Q 714.47 777.05 715.02 764.75
  Q 715.11 762.75 715.50 760.79"
/>
<path stroke="#9193a7" vector-effect="non-scaling-stroke" d="
  M 715.50 760.79
  Q 757.29 727.08 785.85 681.59
  Q 828.35 613.86 833.50 533.75
  Q 835.84 497.30 830.50 464.75
  Q 830.43 464.34 829.96 463.25"
/>
<path stroke="#9dd2e8" vector-effect="non-scaling-stroke" d="
  M 829.96 463.25
  Q 832.50 461.91 835.08 460.67
  Q 838.35 459.09 840.03 457.78
  Q 850.55 449.57 849.46 435.25"
/>
<path stroke="#a4e3e8" vector-effect="non-scaling-stroke" d="
  M 849.46 435.25
  Q 849.82 424.89 845.31 413.69
  Q 841.36 403.86 836.22 394.96
  Q 835.54 393.79 835.07 395.05
  Q 829.96 408.51 823.19 421.19
  Q 822.66 422.18 821.79 422.25"
/>
<path stroke="#9193a7" vector-effect="non-scaling-stroke" d="
  M 821.79 422.25
  Q 821.68 420.85 821.25 419.50
  Q 809.73 382.93 790.96 349.50"
/>
<path stroke="#a4e3e8" vector-effect="non-scaling-stroke" d="
  M 790.96 349.50
  Q 799.47 334.28 796.25 316.60
  Q 795.86 314.43 793.93 315.50
  Q 786.02 319.88 778.69 324.94
  Q 778.11 325.33 777.29 324.75"
/>
<path stroke="#a1ccf2" vector-effect="non-scaling-stroke" d="
  M 777.29 324.75
  L 774.46 321.25"
/>
<path stroke="#a7d5f6" vector-effect="non-scaling-stroke" d="
  M 774.46 321.25
  Q 763.50 305.66 753.19 294.56
  Q 752.29 293.60 752.25 293.04"
/>
<path stroke="#9ad3eb" vector-effect="non-scaling-stroke" d="
  M 752.25 293.04
  Q 761.62 286.05 763.71 274.50"
/>
<path stroke="#a4e3e8" vector-effect="non-scaling-stroke" d="
  M 763.71 274.50
  Q 764.65 271.42 764.75 269.50
  Q 765.87 248.14 753.80 230.71
  Q 745.73 219.06 736.28 209.18
  Q 734.83 207.66 734.50 209.73
  Q 732.41 222.98 726.54 235.00"
/>
<path stroke="#9ad3eb" vector-effect="non-scaling-stroke" d="
  M 726.54 235.00
  Q 720.57 245.62 711.96 254.25"
/>
<path stroke="#a7d5f6" vector-effect="non-scaling-stroke" d="
  M 711.96 254.25
  Q 710.99 254.78 710.00 254.21"
/>
<path stroke="#bbebfb" vector-effect="non-scaling-stroke" d="
  M 710.00 254.21
  Q 666.35 220.37 614.00 202.71"
/>
<path stroke="#9ad3eb" vector-effect="non-scaling-stroke" d="
  M 614.00 202.71
  Q 613.58 202.13 613.94 201.19
  Q 615.44 197.26 615.21 192.25
  Q 614.94 186.63 610.25 183.71"
/>
<path stroke="#a7e3e8" vector-effect="non-scaling-stroke" d="
  M 610.25 183.71
  Q 606.68 180.78 602.45 178.94
  A 1.83 1.66 -34.9 0 0 601.51 178.82
  Q 587.87 180.67 578.81 184.56
  Q 574.57 186.38 573.96 192.00"
/>
<path stroke="#bbebfb" vector-effect="non-scaling-stroke" d="
  M 573.96 192.00
  Q 573.71 192.84 573.00 193.29"
/>
<path stroke="#defcff" vector-effect="non-scaling-stroke" d="
  M 573.00 193.29
  Q 571.64 193.15 570.75 192.20
  A 1.44 1.13 66.7 0 0 569.94 191.76
  Q 537.74 188.09 527.25 187.50
  Q 475.62 184.59 425.50 197.04"
/>
<path stroke="#e7fdff" vector-effect="non-scaling-stroke" d="
  M 425.50 197.04
  Q 409.71 200.71 394.29 205.75"
/>
<path stroke="#9dd2e8" vector-effect="non-scaling-stroke" d="
  M 394.29 205.75
  Q 390.80 201.40 387.88 196.65
  Q 385.28 192.40 385.50 186.25
  Q 385.89 175.20 388.67 164.81
  Q 389.13 163.07 387.45 163.61
  L 383.75 164.79"
/>
<path stroke="#84d0e8" vector-effect="non-scaling-stroke" d="
  M 394.29 205.75
  Q 394.42 206.01 394.38 206.26
  A 1.03 0.60 -13.8 0 1 393.75 206.87
  L 371.25 216.04"
/>
<path stroke="#4bbbc9" vector-effect="non-scaling-stroke" d="
  M 371.25 216.04
  Q 369.94 214.68 371.68 213.75
  A 2.09 2.09 -11.8 0 0 372.78 212.07
  Q 373.18 207.07 373.48 201.86
  Q 373.86 195.34 374.54 191.70
  Q 376.96 178.85 383.35 167.33
  Q 383.99 166.16 383.75 164.79"
/>
<path stroke="#95e6e0" vector-effect="non-scaling-stroke" d="
  M 371.25 216.04
  Q 356.71 222.75 345.00 229.75
  Q 344.15 230.26 343.79 229.50"
/>
<path stroke="#9ae7fa" vector-effect="non-scaling-stroke" d="
  M 573.00 193.29
  Q 564.81 195.00 556.50 194.72
  Q 549.06 194.48 549.00 194.48
  Q 514.22 194.38 484.00 198.00
  Q 453.75 201.63 425.29 210.10
  A 1.69 1.68 85.5 0 0 424.10 211.50
  Q 421.23 234.15 415.75 253.46"
/>
<path stroke="#9decfc" vector-effect="non-scaling-stroke" d="
  M 415.75 253.46
  Q 405.03 290.63 378.80 318.16
  Q 372.48 324.80 364.09 331.70
  Q 353.07 340.78 341.04 348.53
  Q 318.88 362.81 293.28 369.11
  Q 262.88 376.60 233.64 368.50
  A 2.07 2.07 -67.3 0 0 231.28 369.47
  Q 214.97 398.45 205.21 429.25"
/>
<path stroke="#99e7fa" vector-effect="non-scaling-stroke" d="
  M 205.21 429.25
  Q 189.22 474.48 188.36 522.50
  Q 187.75 556.89 193.70 590.76
  Q 194.15 593.31 194.96 595.75"
/>
<path stroke="#85d1f5" vector-effect="non-scaling-stroke" d="
  M 194.96 595.75
  Q 199.40 615.39 204.96 634.75"
/>
<path stroke="#8ce4e0" vector-effect="non-scaling-stroke" d="
  M 183.54 468.25
  Q 186.72 469.70 190.09 469.27
  Q 191.89 469.04 192.23 467.33
  L 195.00 453.51
  A 1.76 1.68 11.9 0 0 193.64 451.53
  L 185.50 449.71"
/>
<path stroke="#8ce4e0" vector-effect="non-scaling-stroke" d="
  M 208.71 376.25
  L 216.79 360.25"
/>
<path stroke="#7bcfe8" vector-effect="non-scaling-stroke" d="
  M 216.79 360.25
  Q 226.05 343.12 237.45 326.49
  A 0.93 0.84 -44.8 0 0 237.50 325.50
  L 235.75 322.79"
/>
<path stroke="#c5fafe" vector-effect="non-scaling-stroke" d="
  M 253.50 304.71
  L 254.51 304.42
  A 0.86 0.63 -27.3 0 1 255.28 304.54
  Q 256.19 305.40 257.44 305.81
  Q 259.85 306.60 259.00 308.50
  Q 254.22 319.20 251.11 330.49
  Q 249.99 334.55 248.86 336.81
  Q 247.34 339.82 245.36 342.60
  Q 244.64 343.60 245.33 344.22
  A 0.52 0.46 -51.2 0 0 246.05 344.10
  Q 268.76 314.18 292.69 289.94
  Q 321.08 261.17 356.49 239.22
  Q 364.92 233.99 374.03 229.61
  Q 396.76 218.69 419.25 211.50
  Q 423.17 210.25 423.50 206.50
  Q 423.66 204.62 425.50 197.04"
/>
<path stroke="#71d0f6" vector-effect="non-scaling-stroke" d="
  M 291.50 516.54
  Q 280.29 539.57 297.19 558.30
  Q 299.97 561.39 306.19 567.31
  Q 314.06 574.82 322.19 582.04
  Q 326.21 585.61 326.51 591.00
  Q 326.67 593.75 326.83 596.49
  Q 327.04 599.99 327.80 601.89
  Q 329.75 606.82 334.75 609.75
  Q 339.64 612.62 344.75 612.97
  A 0.93 0.79 -8.2 0 1 345.49 613.44
  Q 346.38 615.34 344.50 616.75
  Q 338.99 620.88 335.06 623.31
  Q 331.98 625.22 324.52 633.28
  Q 322.65 635.30 322.73 638.08
  A 1.17 0.55 -40.5 0 1 322.42 638.77
  Q 322.26 638.96 322.25 639.21"
/>
<path stroke="#62c0f1" vector-effect="non-scaling-stroke" d="
  M 322.25 639.21
  Q 290.46 635.12 269.75 629.75
  Q 255.89 626.16 245.00 622.25
  Q 218.88 612.87 196.19 595.56
  Q 195.63 595.14 194.96 595.75"
/>
<path stroke="#58b5f0" vector-effect="non-scaling-stroke" d="
  M 353.25 643.79
  Q 378.88 648.23 390.50 651.25
  Q 403.47 654.63 414.74 659.56
  A 1.49 1.49 26.9 0 1 415.43 661.67
  Q 412.19 667.21 411.62 672.52
  Q 411.29 675.54 412.29 677.86
  Q 413.45 680.54 415.81 682.19
  Q 423.86 687.77 434.46 692.00"
/>
<path stroke="#58b5f0" vector-effect="non-scaling-stroke" d="
  M 435.00 692.54
  Q 435.64 697.68 438.06 701.44
  Q 443.40 709.73 451.70 716.79
  Q 455.09 719.68 458.16 722.89
  A 0.36 0.35 -33.7 0 1 458.04 723.46
  Q 453.29 725.60 446.50 727.75
  Q 426.98 733.94 398.79 743.86
  Q 388.91 747.34 384.06 750.81
  Q 382.12 752.20 384.50 752.96"
/>
<path stroke="#49a1e8" vector-effect="non-scaling-stroke" d="
  M 384.50 752.96
  Q 380.74 756.89 378.87 761.78
  Q 376.88 766.98 378.01 771.87
  Q 379.61 778.81 386.19 783.31
  Q 396.21 790.17 406.32 795.18
  Q 406.55 795.29 424.37 803.78
  Q 434.00 808.36 444.21 812.26
  Q 446.63 813.19 446.52 815.52
  L 446.00 826.46"
/>
<path stroke="#50a8e1" vector-effect="non-scaling-stroke" d="
  M 446.00 826.46
  Q 444.02 827.72 442.00 827.05
  Q 439.89 826.35 439.79 826.32
  Q 435.46 825.36 424.75 822.25
  Q 399.96 815.06 388.02 810.70
  Q 371.58 804.69 356.25 796.25
  Q 355.04 795.58 350.80 793.52
  Q 348.43 792.36 345.57 790.44
  Q 341.96 788.01 338.08 786.02
  Q 335.87 784.88 333.18 783.06
  Q 330.79 781.45 328.20 780.19
  Q 326.81 779.52 325.15 778.34
  Q 323.82 777.40 322.06 776.44
  Q 319.88 775.24 317.91 773.26
  Q 315.73 771.06 313.96 769.96
  Q 301.71 762.44 291.09 752.82
  Q 286.17 748.36 280.59 743.52
  Q 275.29 738.91 270.44 733.81
  Q 269.53 732.87 266.69 731.81
  Q 265.68 731.44 265.46 732.00"
/>
<path stroke="#63c0f1" vector-effect="non-scaling-stroke" d="
  M 710.00 254.21
  Q 708.42 254.73 708.00 256.00
  Q 696.47 290.64 665.06 309.56
  Q 648.87 319.32 631.79 325.00"
/>
<path stroke="#70d0f6" vector-effect="non-scaling-stroke" d="
  M 631.79 325.00
  Q 631.70 324.80 631.54 324.74
  A 0.66 0.22 12.3 0 1 631.12 324.49
  Q 626.76 315.79 619.79 308.96
  Q 613.85 303.14 611.50 298.75
  Q 608.57 293.27 602.44 291.80
  Q 595.85 290.22 589.16 290.17
  Q 584.69 290.14 575.84 290.82
  Q 558.93 292.11 543.14 298.34
  Q 538.84 300.03 536.19 301.69
  Q 532.37 304.08 530.31 306.81
  Q 527.21 310.93 528.25 314.75
  Q 529.86 320.68 530.71 326.75"
/>
<path stroke="#73d4f7" vector-effect="non-scaling-stroke" d="
  M 530.71 326.75
  Q 530.13 327.10 529.48 326.79
  Q 488.30 307.67 447.75 328.04"
/>
<path stroke="#7adbf8" vector-effect="non-scaling-stroke" d="
  M 447.75 328.04
  Q 450.09 326.14 452.80 325.31
  A 0.22 0.22 60.7 0 0 452.90 324.95
  Q 451.21 323.04 449.24 322.08
  Q 449.18 322.05 446.20 321.18
  Q 442.70 320.15 441.50 316.75
  Q 440.59 314.15 438.66 313.07
  Q 436.42 311.80 436.37 311.77
  Q 434.54 310.43 433.81 310.06
  Q 430.01 308.14 433.25 305.49
  Q 434.10 304.79 432.45 304.98
  Q 430.09 305.24 430.41 302.99
  Q 430.49 302.42 430.34 302.03
  Q 429.48 299.83 427.28 298.87
  A 1.28 1.20 1.5 0 1 426.63 298.23
  Q 425.95 296.64 424.69 295.51
  A 1.54 1.42 17.8 0 1 424.23 294.70
  Q 423.72 292.18 422.21 290.22
  Q 420.16 287.54 420.12 287.48
  Q 414.40 278.66 412.56 276.69
  Q 410.37 274.34 411.77 272.54
  Q 413.25 270.65 413.29 270.58
  Q 416.52 264.22 415.80 257.00
  A 1.64 0.93 -44.8 0 1 416.05 256.11
  Q 416.38 255.55 415.94 255.22
  A 0.61 0.56 29.0 0 1 415.72 254.56
  Q 415.90 254.03 415.75 253.46"
/>
<path stroke="#4bbbc9" vector-effect="non-scaling-stroke" d="
  M 229.21 300.25
  Q 229.34 301.89 227.79 301.65
  A 0.89 0.89 22.2 0 0 226.92 302.01
  Q 219.49 312.50 216.34 324.84
  Q 214.31 332.79 213.69 341.24
  Q 213.08 349.58 214.34 357.94
  Q 214.69 360.27 216.79 360.25"
/>
<path stroke="#76d9f9" vector-effect="non-scaling-stroke" d="
  M 447.75 328.04
  Q 427.22 338.55 410.95 354.57
  Q 402.76 362.64 397.42 369.28
  Q 390.15 378.31 385.12 388.91
  Q 380.20 399.28 381.79 410.02
  Q 382.72 416.27 386.67 423.89
  Q 390.09 430.46 394.66 436.37
  Q 397.58 440.15 399.98 444.29
  Q 401.78 447.41 398.56 448.32
  Q 392.28 450.10 385.97 451.79
  Q 367.26 456.79 349.93 465.43
  Q 327.99 476.36 310.25 493.25
  Q 299.73 503.26 293.00 514.71"
/>
<path stroke="#74d5f8" vector-effect="non-scaling-stroke" d="
  M 293.00 514.71
  L 291.50 516.54"
/>
<path stroke="#7adaf8" vector-effect="non-scaling-stroke" d="
  M 291.50 516.54
  Q 290.54 516.70 289.66 515.77
  A 1.44 1.43 72.5 0 0 288.80 515.32
  Q 277.33 513.80 266.53 511.61
  Q 250.40 508.34 238.58 497.78
  Q 232.79 492.61 229.09 485.40
  Q 220.19 468.06 222.15 447.88
  Q 222.18 447.61 221.99 447.82
  Q 221.58 448.27 221.79 447.06
  Q 222.26 444.42 222.73 441.79
  Q 223.09 439.80 222.26 441.11
  Q 222.05 441.44 221.89 441.09
  L 221.70 440.70
  A 0.83 0.83 -10.9 0 0 221.00 440.23
  Q 216.65 439.96 214.20 436.24
  Q 213.93 435.82 213.49 435.57
  Q 209.19 433.19 208.26 428.30
  Q 207.99 426.90 207.69 428.30
  Q 207.18 430.64 206.01 429.31
  A 0.20 0.18 -51.5 0 0 205.70 429.36
  Q 205.51 429.72 205.21 429.25"
/>
<path stroke="#66c6f4" vector-effect="non-scaling-stroke" d="
  M 525.79 712.50
  Q 526.06 715.92 522.75 715.25
  Q 482.63 707.18 438.50 693.25
  Q 436.17 692.52 435.00 692.54"
/>
<path stroke="#5dbbf1" vector-effect="non-scaling-stroke" d="
  M 435.00 692.54
  Q 434.63 692.37 434.46 692.00"
/>
<path stroke="#66c6f4" vector-effect="non-scaling-stroke" d="
  M 434.46 692.00
  Q 434.02 671.46 432.50 658.00
  Q 431.91 652.77 428.08 649.96
  Q 425.73 648.23 420.06 647.02
  Q 415.04 645.94 411.50 645.75
  Q 389.85 644.56 368.24 642.87
  Q 364.25 642.56 356.81 641.31
  Q 355.09 641.03 354.66 642.58
  A 1.56 0.70 -84.5 0 1 354.19 643.40
  Q 353.77 643.69 353.25 643.79"
/>
<path stroke="#5dbbf1" vector-effect="non-scaling-stroke" d="
  M 353.25 643.79
  L 322.25 639.21"
/>
<path stroke="#52acec" vector-effect="non-scaling-stroke" d="
  M 424.50 761.54
  Q 423.38 760.33 421.50 760.00
  Q 406.30 757.35 384.50 752.96"
/>
<path stroke="#4a9fdd" vector-effect="non-scaling-stroke" d="
  M 446.00 826.46
  Q 447.63 826.44 450.31 827.44
  Q 453.75 828.72 460.49 828.92
  Q 460.78 828.93 461.88 828.80
  Q 462.60 828.72 463.30 828.89
  Q 464.87 829.28 465.28 829.31
  Q 469.90 829.68 474.00 831.79"
/>
<path stroke="#42b6d4" vector-effect="non-scaling-stroke" d="
  M 610.25 183.71
  Q 600.48 188.54 591.65 194.95
  A 1.21 0.91 79.8 0 0 591.25 195.75
  L 591.21 196.25"
/>
<path stroke="#63cee3" vector-effect="non-scaling-stroke" d="
  M 591.21 196.25
  L 573.96 192.00"
/>
<path stroke="#56b1ed" vector-effect="non-scaling-stroke" d="
  M 630.75 325.71
  Q 615.11 330.82 605.94 332.94
  Q 603.10 333.59 601.79 335.00"
/>
<path stroke="#4678a2" vector-effect="non-scaling-stroke" d="
  M 601.79 335.00
  Q 598.38 329.47 592.81 323.69
  Q 588.97 319.70 584.04 318.86
  Q 581.27 318.38 574.45 318.93
  Q 564.47 319.74 555.30 324.07
  Q 552.75 325.27 554.43 327.45
  L 559.93 334.56
  Q 561.25 336.25 559.45 337.18
  L 542.25 346.04"
/>
<path stroke="#6ccef7" vector-effect="non-scaling-stroke" d="
  M 542.25 346.04
  Q 541.44 345.40 542.45 344.66
  Q 543.24 344.10 544.06 343.60
  Q 544.83 343.13 544.10 342.90
  A 0.46 0.45 13.4 0 1 543.78 342.40
  Q 543.99 341.15 542.80 340.79
  A 1.15 0.99 -1.0 0 1 542.13 340.23
  Q 541.51 338.83 540.26 338.06
  Q 539.32 337.49 537.61 337.52
  Q 534.93 337.58 532.25 337.72
  A 0.60 0.57 -7.3 0 1 531.63 337.27
  L 530.09 329.99
  A 1.52 1.10 -44.2 0 1 530.25 329.08
  Q 530.83 328.00 530.71 326.75"
/>
<path stroke="#497ca3" vector-effect="non-scaling-stroke" d="
  M 542.25 346.04
  Q 530.37 351.79 518.97 358.44
  Q 515.41 360.52 512.06 358.94
  Q 506.91 356.50 505.18 350.45
  Q 503.85 345.80 500.02 344.63
  Q 497.16 343.75 493.09 345.23
  Q 488.44 346.91 485.19 350.19
  Q 482.06 353.35 479.28 355.41
  Q 477.66 356.62 475.21 356.98
  Q 460.78 359.09 448.06 367.06
  Q 433.16 376.40 423.56 390.56
  Q 420.21 395.51 419.19 400.91
  Q 418.31 405.59 420.08 410.93
  Q 421.77 416.00 424.56 420.19
  Q 432.91 432.71 444.94 448.31
  Q 446.50 450.34 449.46 455.25"
/>
<path stroke="#4d80a6" vector-effect="non-scaling-stroke" d="
  M 449.46 455.25
  Q 452.00 460.16 448.41 464.18
  Q 446.29 466.54 443.94 467.69
  Q 433.07 472.95 420.42 476.35
  Q 395.34 483.08 370.28 489.84
  Q 359.80 492.67 349.92 497.16
  Q 335.18 503.86 324.00 515.54"
/>
<path stroke="#6dcff7" vector-effect="non-scaling-stroke" d="
  M 324.00 515.54
  Q 319.99 516.06 317.49 512.96
  A 0.85 0.80 64.1 0 0 316.70 512.66
  Q 309.87 514.10 307.00 514.00
  Q 301.59 513.82 297.25 514.75
  Q 294.88 515.26 293.00 514.71"
/>
<path stroke="#56bee7" vector-effect="non-scaling-stroke" d="
  M 614.00 202.71
  L 591.21 196.25"
/>
<path stroke="#49a1e8" vector-effect="non-scaling-stroke" d="
  M 774.46 321.25
  Q 766.25 329.00 759.44 332.94
  Q 741.89 343.10 723.70 350.72
  Q 721.75 351.54 720.47 349.86
  Q 718.43 347.16 716.19 344.68
  Q 714.39 342.70 712.04 341.90
  Q 708.76 340.79 706.25 340.75
  Q 674.23 340.21 642.36 337.18
  Q 639.17 336.88 638.66 336.70
  Q 636.80 336.03 635.81 333.94
  Q 633.98 330.04 630.75 325.71"
/>
<path stroke="#5cbaf1" vector-effect="non-scaling-stroke" d="
  M 630.75 325.71
  L 631.79 325.00"
/>
<path stroke="#38639c" vector-effect="non-scaling-stroke" d="
  M 409.46 782.25
  Q 408.17 777.13 410.56 773.31
  Q 415.32 765.73 424.50 761.54"
/>
<path stroke="#4777a4" vector-effect="non-scaling-stroke" d="
  M 424.50 761.54
  Q 435.10 757.56 443.00 755.50
  Q 450.51 753.54 486.91 744.31
  Q 497.97 741.51 508.80 737.90
  Q 518.37 734.70 524.19 729.94
  Q 533.19 722.56 525.79 712.50"
/>
<path stroke="#4c7ca5" vector-effect="non-scaling-stroke" d="
  M 525.79 712.50
  Q 520.49 705.32 513.44 701.06
  Q 496.47 690.82 476.31 681.94
  Q 472.25 680.15 470.11 677.06
  Q 468.76 675.12 468.65 671.60
  Q 468.34 662.05 468.31 652.50
  Q 468.29 645.80 465.05 640.55
  Q 462.72 636.76 457.16 633.34
  Q 448.46 627.97 440.00 625.50
  Q 423.55 620.70 401.76 617.90
  Q 389.33 616.30 377.02 613.91
  Q 374.32 613.38 371.93 612.06
  Q 370.35 611.18 370.85 609.45
  Q 371.69 606.52 373.29 603.80
  Q 376.24 598.77 378.81 593.53
  Q 380.97 589.14 380.11 584.79
  Q 379.44 581.39 376.10 577.44
  Q 370.24 570.52 361.56 565.94
  Q 345.56 557.49 340.30 554.96
  Q 334.93 552.38 325.69 545.81
  Q 315.42 538.52 318.00 526.75
  Q 319.01 522.14 324.00 515.54"
/>
<path stroke="#367790" vector-effect="non-scaling-stroke" d="
  M 821.79 422.25
  Q 820.48 426.20 818.94 430.06
  Q 817.73 433.11 817.71 435.78
  Q 817.68 440.67 818.54 445.50"
/>
<path stroke="#2f6690" vector-effect="non-scaling-stroke" d="
  M 818.54 445.50
  Q 818.94 450.01 819.92 454.41
  Q 819.95 454.56 820.33 456.73
  Q 820.76 459.23 822.26 461.42
  Q 823.24 462.84 825.44 462.97
  L 829.96 463.25"
/>
<path stroke="#2f6690" vector-effect="non-scaling-stroke" d="
  M 715.50 760.79
  Q 710.17 757.73 705.50 761.46"
/>
<path stroke="#39768f" vector-effect="non-scaling-stroke" d="
  M 705.50 761.46
  Q 694.87 766.23 685.86 773.58
  Q 683.37 775.61 684.56 778.44
  Q 685.06 779.63 685.00 780.46"
/>
<path stroke="#3a6692" vector-effect="non-scaling-stroke" d="
  M 473.25 832.46
  Q 473.54 832.05 474.00 831.79"
/>
<path stroke="#335f99" vector-effect="non-scaling-stroke" d="
  M 474.00 831.79
  Q 478.85 827.38 480.75 822.50
  Q 482.32 818.47 480.00 815.11
  Q 479.03 813.71 476.94 812.50
  Q 474.72 811.22 473.25 810.75
  Q 457.95 805.89 442.31 802.26
  Q 435.70 800.72 429.34 798.37
  Q 420.81 795.23 414.04 789.22
  Q 410.81 786.35 409.46 782.25"
/>
<path stroke="#282a51" vector-effect="non-scaling-stroke" d="
  M 409.46 782.25
  Q 410.16 781.28 410.69 780.25
  Q 411.01 779.64 411.31 778.02
  Q 411.77 775.51 414.00 773.25
  Q 418.02 769.16 422.47 767.37
  Q 425.07 766.32 425.85 765.79
  Q 427.18 764.88 428.82 763.44
  A 1.89 1.86 25.3 0 1 430.13 762.98
  Q 436.00 763.20 441.14 764.29
  Q 463.21 768.94 485.75 769.94
  Q 511.25 771.07 536.75 770.00
  Q 566.90 768.74 598.79 758.11
  Q 599.91 757.74 599.38 757.19
  Q 599.15 756.95 598.67 756.89
  Q 589.71 755.73 579.81 751.69
  Q 577.91 750.91 576.77 749.70
  Q 575.61 748.47 575.62 746.47
  Q 575.64 741.56 580.19 738.69
  Q 590.94 731.90 602.40 728.79
  Q 626.62 722.21 651.75 722.97
  Q 658.11 723.16 664.20 724.91
  Q 667.17 725.76 669.42 728.33
  A 1.94 1.94 55.5 0 0 671.78 728.77
  Q 724.54 701.18 762.40 655.95
  Q 768.44 648.74 774.87 640.32
  Q 786.85 624.66 795.50 609.75
  Q 807.43 589.18 815.90 563.84
  Q 817.96 557.67 820.50 545.00
  Q 826.96 512.77 824.00 483.00
  Q 822.92 472.13 820.26 464.74
  Q 820.10 464.31 818.48 461.36
  Q 817.49 459.57 817.44 457.56
  Q 817.36 454.95 816.35 452.87
  Q 814.65 449.38 814.63 449.32
  Q 812.84 444.41 812.31 442.69
  Q 809.99 435.04 804.44 425.81
  Q 787.61 397.85 763.17 379.05
  Q 758.71 375.61 753.66 373.11
  Q 750.10 371.33 746.47 372.44
  Q 743.58 373.32 743.47 373.34
  Q 739.88 374.19 736.42 375.42
  Q 732.84 376.70 729.40 377.47
  Q 725.38 378.36 721.47 379.66
  Q 718.56 380.64 715.50 380.78
  Q 712.39 380.93 710.75 378.46"
/>
<path stroke="#335f99" vector-effect="non-scaling-stroke" d="
  M 771.25 361.04
  Q 763.39 364.83 754.00 367.50
  Q 724.99 375.74 716.58 378.15
  Q 713.70 378.97 710.75 378.46"
/>
<path stroke="#38639c" vector-effect="non-scaling-stroke" d="
  M 710.75 378.46
  Q 702.51 375.37 695.05 370.70
  Q 693.12 369.50 692.52 367.49
  Q 691.54 364.24 691.49 364.16
  Q 690.38 362.54 688.25 362.01
  Q 684.43 361.05 680.49 360.87
  Q 661.50 360.01 642.50 360.45
  Q 637.31 360.57 619.56 360.19
  Q 613.92 360.07 611.79 355.50"
/>
<path stroke="#335f99" vector-effect="non-scaling-stroke" d="
  M 601.79 335.00
  Q 608.35 344.50 611.79 355.50"
/>
<path stroke="#282a51" vector-effect="non-scaling-stroke" d="
  M 611.79 355.50
  Q 611.64 357.06 609.43 355.77
  A 3.68 3.68 58.0 0 0 607.32 355.28
  Q 599.04 355.82 590.67 357.17
  Q 587.52 357.68 574.19 360.16
  Q 540.58 366.42 512.06 376.06
  Q 467.27 391.21 427.24 417.90
  A 1.49 1.48 -34.6 0 0 426.85 419.99
  Q 431.21 426.11 435.20 431.82
  Q 436.42 433.57 441.17 439.88
  Q 444.19 443.89 446.85 448.17
  Q 448.17 450.30 449.84 452.17
  Q 450.58 453.00 450.49 453.68
  Q 450.38 454.58 449.46 455.25"
/>
<path stroke="#42a8e2" vector-effect="non-scaling-stroke" d="
  M 752.25 293.04
  Q 751.02 292.99 750.52 292.05
  Q 749.75 290.62 749.73 290.58
  Q 744.74 284.22 742.69 282.56
  Q 740.06 280.43 734.75 275.00
  Q 728.88 268.99 713.44 256.31
  Q 712.09 255.21 711.96 254.25"
/>
<path stroke="#42b6d1" vector-effect="non-scaling-stroke" d="
  M 849.46 435.25
  Q 848.48 435.40 846.69 436.44
  Q 839.08 440.82 829.19 442.94
  Q 823.83 444.08 818.54 445.50"
/>
<path stroke="#44b6d1" vector-effect="non-scaling-stroke" d="
  M 706.46 786.25
  Q 704.66 786.09 704.81 783.94
  Q 705.59 772.95 705.93 768.82
  Q 705.94 768.76 706.52 765.87
  Q 707.00 763.48 705.50 761.46"
/>
<path stroke="#367790" vector-effect="non-scaling-stroke" d="
  M 790.96 349.50
  Q 786.27 356.47 778.24 358.97
  Q 774.76 360.06 771.25 361.04"
/>
<path stroke="#46b0db" vector-effect="non-scaling-stroke" d="
  M 771.25 361.04
  Q 769.86 358.91 768.09 357.11
  Q 766.25 355.25 765.94 353.70
  Q 765.36 350.79 766.74 348.01
  Q 767.55 346.37 767.57 346.33
  Q 772.35 335.50 777.29 324.75"
/>
<path stroke="#3fb7d4" vector-effect="non-scaling-stroke" d="
  M 763.71 274.50
  Q 762.80 274.38 761.91 274.20
  Q 760.98 274.01 760.11 274.20
  Q 747.56 276.90 734.98 274.25
  Q 732.04 273.63 732.56 270.66
  Q 734.34 260.45 733.54 249.77
  Q 733.08 243.49 730.19 238.56
  Q 728.99 236.51 726.54 235.00"
/>
<path stroke="#dcf5fd" vector-effect="non-scaling-stroke" d="
  M 280.66 219.26
  L 272.77 242.17
  A 1.07 1.05 4.8 0 0 273.95 243.54
  L 292.84 240.65
  A 1.17 1.17 1.8 0 0 293.81 239.74
  L 295.73 230.74
  A 1.26 1.24 22.8 0 0 295.19 229.45
  Q 287.99 224.75 282.08 218.96
  A 0.88 0.84 32.0 0 0 280.66 219.26"
/>
<path stroke="#dcf5fd" vector-effect="non-scaling-stroke" d="
  M 792.03 275.11
  L 804.06 284.87
  A 0.71 0.68 -58.7 0 0 805.12 284.58
  Q 807.08 280.27 808.68 275.97
  Q 809.93 272.64 808.14 269.59
  Q 804.69 263.69 800.16 258.53
  A 0.35 0.35 35.2 0 0 799.57 258.63
  Q 796.14 266.94 791.84 273.71
  A 1.09 1.03 -54.4 0 0 792.03 275.11"
/>
<path stroke="#aeeefd" vector-effect="non-scaling-stroke" d="
  M 332.99 388.70
  Q 339.86 394.95 348.25 395.00
  A 1.37 1.31 9.0 0 0 349.55 394.10
  L 354.44 379.20
  A 0.47 0.46 3.2 0 0 353.90 378.61
  Q 341.93 381.09 333.06 387.46
  A 0.80 0.80 48.5 0 0 332.99 388.70"
/>
<path stroke="#7991a6" vector-effect="non-scaling-stroke" d="
  M 539.25 796.24
  Q 543.72 797.87 548.25 798.44
  A 1.52 1.04 23.6 0 0 549.19 798.26
  L 553.80 795.13
  Q 554.26 794.82 553.73 794.62
  L 544.60 791.12
  A 1.86 1.69 30.0 0 0 542.60 791.55
  L 539.05 795.64
  A 0.40 0.36 29.5 0 0 539.25 796.24"
/>
<path stroke="#352f54" vector-effect="non-scaling-stroke" d="
  M 732.54 424.50
  Q 731.65 427.07 727.73 425.97
  A 2.26 2.23 -47.9 0 0 726.33 426.05
  Q 723.87 427.05 721.25 427.12
  Q 717.06 427.24 712.96 428.01
  Q 695.62 431.29 678.50 435.54"
/>
<path stroke="#312e54" vector-effect="non-scaling-stroke" d="
  M 678.50 435.54
  Q 675.88 434.54 673.19 430.81
  Q 668.42 424.22 666.81 421.69
  Q 660.33 411.43 647.75 408.25
  Q 640.30 406.37 633.96 406.05
  Q 627.16 405.72 627.06 405.71
  Q 599.28 403.61 572.40 410.13
  Q 564.44 412.05 553.13 415.49
  Q 532.57 421.72 510.06 431.81
  Q 482.05 444.37 460.04 459.91
  Q 459.96 459.96 457.75 461.32
  Q 456.19 462.28 454.81 463.81
  Q 451.19 467.85 446.71 471.37
  Q 438.20 478.06 438.17 478.08
  Q 423.97 490.49 412.45 505.43
  Q 406.36 513.32 406.32 513.37
  Q 403.90 516.72 400.75 521.75
  Q 391.96 535.80 389.00 549.50
  Q 388.00 554.12 388.00 560.75
  Q 388.00 567.41 390.70 572.50
  Q 391.61 574.21 392.47 575.95
  Q 393.43 577.90 394.47 579.25
  Q 402.03 589.09 413.00 594.48
  Q 417.87 596.88 423.97 598.91
  Q 429.60 600.77 435.51 601.69
  Q 448.98 603.77 462.50 605.50
  Q 469.84 606.44 493.25 605.88
  Q 498.90 605.75 505.00 606.57
  A 2.61 2.60 -6.2 0 1 507.10 608.25
  Q 509.09 613.69 511.73 619.36
  Q 518.74 634.46 534.61 639.55
  Q 541.93 641.90 553.56 643.19
  Q 580.46 646.17 602.99 644.97
  Q 603.31 644.95 609.98 644.28
  Q 612.71 644.01 617.00 643.75
  Q 673.81 640.33 720.28 607.52
  Q 727.42 602.48 735.97 595.12
  Q 744.47 587.82 752.60 580.11
  Q 759.47 573.60 764.08 565.32
  Q 765.48 562.81 767.25 560.54"
/>
<path stroke="#352f54" vector-effect="non-scaling-stroke" d="
  M 767.25 560.54
  Q 780.78 546.34 788.06 535.31
  Q 797.71 520.69 801.67 501.99
  Q 803.35 494.04 804.39 487.02
  Q 805.59 478.89 805.25 471.75
  Q 804.35 453.04 790.65 442.10
  Q 784.93 437.52 777.16 433.75
  Q 769.96 430.26 761.96 428.79
  Q 760.51 428.52 758.63 427.90
  Q 756.97 427.35 755.24 427.04
  Q 753.32 426.69 752.50 424.96"
/>
<path stroke="#738ca8" vector-effect="non-scaling-stroke" d="
  M 752.50 424.96
  Q 751.83 421.90 749.79 419.50"
/>
<path stroke="#8896a8" vector-effect="non-scaling-stroke" d="
  M 749.79 419.50
  L 741.18 405.23
  A 0.34 0.34 -41.8 0 0 740.61 405.20
  Q 735.79 411.77 732.03 418.71
  Q 731.17 420.31 731.34 421.59
  Q 731.56 423.15 732.54 424.50"
/>
<path stroke="#cef4fc" vector-effect="non-scaling-stroke" d="
  M 749.79 419.50
  Q 749.56 420.84 748.06 421.56
  Q 742.80 424.11 736.04 428.75"
/>
<path stroke="#9198a8" vector-effect="non-scaling-stroke" d="
  M 736.04 428.75
  L 732.54 424.50"
/>
<path stroke="#6a8fa9" vector-effect="non-scaling-stroke" d="
  M 728.00 486.29
  Q 720.16 494.23 714.94 504.94
  Q 708.18 518.79 705.96 533.25"
/>
<path stroke="#5b8caa" vector-effect="non-scaling-stroke" d="
  M 705.96 533.25
  L 705.21 538.50"
/>
<path stroke="#6a8fa9" vector-effect="non-scaling-stroke" d="
  M 489.54 528.50
  L 488.96 532.25"
/>
<path stroke="#5b8caa" vector-effect="non-scaling-stroke" d="
  M 488.96 532.25
  Q 487.90 539.08 488.21 546.00"
/>
<path stroke="#7c8ea8" vector-effect="non-scaling-stroke" d="
  M 752.50 424.96
  Q 746.35 429.20 739.52 432.24
  A 0.72 0.64 -30.6 0 1 738.71 432.08
  L 736.04 428.75"
/>
<path stroke="#87eaff" vector-effect="non-scaling-stroke" d="
  M 594.29 550.25
  Q 573.58 576.42 541.15 574.76
  Q 532.69 574.32 526.08 571.99
  Q 518.66 569.37 512.44 564.56
  Q 503.24 557.45 496.41 547.33
  Q 493.08 542.40 491.94 536.56
  Q 491.67 535.22 488.96 532.25"
/>
<path stroke="#3a3054" vector-effect="non-scaling-stroke" d="
  M 678.50 435.54
  Q 655.75 441.65 633.01 447.79
  Q 625.74 449.75 618.31 450.89
  Q 613.47 451.62 609.15 451.32
  Q 604.90 451.03 600.00 450.25
  Q 595.13 449.47 588.52 448.92
  Q 579.49 448.16 577.00 447.99
  Q 551.60 446.27 528.25 453.75
  Q 496.37 463.96 469.40 486.14
  Q 452.73 499.85 441.62 518.35
  Q 438.40 523.71 436.55 529.64
  Q 435.15 534.10 436.08 537.46
  Q 437.92 544.16 445.50 546.00
  Q 454.55 548.19 464.59 547.89
  Q 467.72 547.79 476.41 547.21
  Q 482.33 546.82 488.21 546.00"
/>
<path stroke="#578aa9" vector-effect="non-scaling-stroke" d="
  M 488.21 546.00
  Q 490.84 567.83 505.35 584.17
  Q 509.84 589.23 516.07 591.93
  Q 526.32 596.35 537.49 596.91
  Q 564.37 598.24 585.56 583.32
  Q 592.81 578.20 595.23 573.96
  Q 598.73 567.81 597.00 559.75
  Q 595.84 554.33 594.29 550.25"
/>
<path stroke="#668ea9" vector-effect="non-scaling-stroke" d="
  M 594.29 550.25
  Q 585.20 525.33 563.43 510.28
  Q 550.01 501.00 534.50 499.75
  Q 522.53 498.79 511.64 503.37
  Q 503.06 506.98 497.69 512.99
  Q 491.86 519.52 489.54 528.50"
/>
<path stroke="#3a3054" vector-effect="non-scaling-stroke" d="
  M 489.54 528.50
  Q 488.54 526.75 489.41 525.23
  Q 489.68 524.75 489.71 524.32
  Q 489.92 521.12 491.29 518.19
  A 1.89 1.41 -11.2 0 1 491.92 517.49
  Q 495.02 515.45 495.75 511.00
  Q 496.11 508.82 498.04 507.79
  Q 500.55 506.46 501.06 506.06
  Q 505.23 502.79 510.14 500.84
  Q 511.63 500.25 515.40 499.75
  Q 517.55 499.46 520.75 498.75
  Q 537.49 495.02 554.06 502.95
  Q 576.64 513.75 589.56 535.19
  Q 597.17 547.81 599.67 561.52
  Q 600.45 565.83 600.03 569.02
  Q 599.47 573.25 597.50 576.25
  Q 592.69 583.59 585.68 587.30
  Q 583.80 588.29 582.26 589.74
  Q 580.49 591.41 581.60 593.55
  Q 586.50 602.98 597.25 603.75
  Q 605.06 604.31 617.58 603.11
  Q 628.83 602.02 628.93 602.02
  Q 660.78 599.19 692.31 593.81
  Q 703.18 591.95 713.34 587.73
  Q 717.41 586.04 720.05 582.56
  Q 722.35 579.52 723.49 577.45
  Q 724.35 575.89 724.15 574.33
  L 723.10 566.00
  A 0.78 0.72 4.4 0 0 722.52 565.38
  Q 715.29 563.58 708.82 559.98
  Q 705.20 557.97 703.88 555.29
  Q 702.06 551.61 702.25 546.50
  Q 702.45 541.23 705.21 538.50"
/>
<path stroke="#578aa9" vector-effect="non-scaling-stroke" d="
  M 705.21 538.50
  Q 704.32 545.84 706.10 552.97
  Q 706.78 555.69 709.69 557.56
  Q 718.64 563.32 728.50 563.09
  Q 753.68 562.52 765.16 540.67
  Q 770.69 530.16 771.29 518.25"
/>
<path stroke="#668ea9" vector-effect="non-scaling-stroke" d="
  M 771.29 518.25
  Q 773.02 502.35 767.94 489.81
  Q 763.33 478.45 752.00 477.25
  Q 738.32 475.80 728.00 486.29"
/>
<path stroke="#3a3054" vector-effect="non-scaling-stroke" d="
  M 728.00 486.29
  Q 727.17 485.85 727.74 485.01
  Q 735.50 473.79 749.07 474.14
  Q 750.77 474.19 752.83 474.81
  Q 754.68 475.37 756.53 475.90
  Q 766.59 478.78 769.45 488.13
  Q 771.31 494.20 771.36 494.34
  Q 772.74 498.41 773.23 502.68
  Q 773.51 505.10 773.19 511.32
  Q 772.99 515.28 773.00 520.00
  Q 773.02 527.46 770.19 534.94
  Q 767.96 540.83 762.82 549.15
  Q 762.58 549.54 762.54 550.06
  Q 762.33 553.10 759.96 554.90
  A 0.67 0.64 -30.1 0 0 759.74 555.66
  Q 761.68 560.58 767.25 560.54"
/>
<path stroke="#87eaff" vector-effect="non-scaling-stroke" d="
  M 771.29 518.25
  Q 771.00 517.22 771.15 518.48
  Q 771.43 520.75 768.38 519.31
  A 0.73 0.73 -65.7 0 0 767.41 519.68
  Q 760.23 536.19 746.16 544.73
  Q 735.63 551.13 723.81 547.31
  Q 715.17 544.52 710.06 537.69
  Q 707.92 534.82 705.96 533.25"
/>
<path stroke="#8896a8" vector-effect="non-scaling-stroke" d="
  M 714.61 416.74
  Q 716.73 418.85 718.69 419.14
  A 0.64 0.58 -75.9 0 0 719.35 418.70
  Q 721.84 410.90 714.74 415.52
  A 0.79 0.79 51.1 0 0 714.61 416.74"
/>
<path stroke="#bdf6fd" vector-effect="non-scaling-stroke" d="
  M 725.62 510.78
  Q 731.37 515.27 737.14 517.36
  Q 740.52 518.59 742.88 519.10
  Q 745.84 519.75 748.90 519.49
  Q 750.99 519.31 752.10 517.96
  Q 753.30 516.48 753.68 514.49
  Q 755.53 504.71 755.76 494.34
  Q 755.81 491.86 753.98 490.19
  Q 750.83 487.31 744.87 486.37
  Q 743.02 486.08 741.54 487.21
  Q 733.09 493.70 726.87 503.14
  Q 724.89 506.14 724.78 508.98
  A 2.18 2.16 -70.3 0 0 725.62 510.78"
/>
<path stroke="#bdf6fd" vector-effect="non-scaling-stroke" d="
  M 515.35 538.96
  Q 516.07 539.39 518.19 540.31
  Q 527.81 544.49 537.26 548.40
  A 1.76 1.75 42.6 0 0 538.75 548.34
  Q 550.67 542.28 558.06 531.01
  Q 559.27 529.15 558.38 527.12
  Q 553.92 516.96 544.00 510.50
  Q 540.07 507.94 536.20 506.96
  Q 533.49 506.28 531.33 507.03
  Q 528.96 507.85 527.06 509.81
  Q 517.64 519.52 513.36 531.90
  Q 512.54 534.26 512.85 535.68
  Q 513.31 537.74 515.35 538.96"
/>
<path stroke="#66c6f4" vector-effect="non-scaling-stroke" d="
  M 395.65 622.85
  Q 385.15 621.97 374.75 624.01
  Q 373.64 624.23 373.65 625.02
  A 0.67 0.53 3.1 0 0 374.25 625.55
  Q 385.66 626.63 404.75 626.50
  Q 408.31 626.48 410.32 625.49
  Q 410.78 625.26 410.30 625.04
  Q 406.31 623.20 401.99 623.06
  Q 395.85 622.87 395.65 622.85"
/>
<path stroke="#84caf4" vector-effect="non-scaling-stroke" d="
  M 281.96 680.25
  L 280.77 684.80
  A 1.07 0.88 18.8 0 0 281.45 685.90
  L 302.13 694.26
  A 1.08 1.07 -74.1 0 0 303.59 693.44
  L 306.63 676.24
  A 1.14 0.78 -67.9 0 0 306.44 675.36
  Q 305.87 674.75 305.00 674.54"
/>
<path stroke="#96d3f6" vector-effect="non-scaling-stroke" d="
  M 305.00 674.54
  Q 296.68 671.32 287.72 669.18
  A 1.43 1.38 17.3 0 0 286.08 670.00
  L 281.96 680.25"
/>
<path stroke="#ccf3fd" vector-effect="non-scaling-stroke" d="
  M 305.00 674.54
  Q 305.38 677.11 303.64 678.44
  Q 301.80 679.85 301.69 679.96
  Q 299.31 682.22 296.32 683.36
  Q 293.51 684.43 290.22 683.73
  Q 285.79 682.78 281.96 680.25"
/>
<path stroke="#84caf4" vector-effect="non-scaling-stroke" d="
  M 317.21 690.38
  A 1.28 1.28 0.0 0 0 315.93 689.10
  A 1.28 1.28 0.0 0 0 314.65 690.38
  A 1.28 1.28 0.0 0 0 315.93 691.66
  A 1.28 1.28 0.0 0 0 317.21 690.38"
/>
<path stroke="#84caf4" vector-effect="non-scaling-stroke" d="
  M 275.30 721.62
  L 283.27 724.76
  A 0.51 0.48 -82.5 0 0 283.92 724.23
  Q 283.56 718.73 278.24 717.36
  A 1.19 1.12 33.8 0 0 277.33 717.51
  Q 275.29 718.85 275.08 721.23
  A 0.41 0.36 -77.8 0 0 275.30 721.62"
/>
</g>
<path fill="#b9eafb" d="
  M 495.50 140.72
  A 0.84 0.81 38.1 0 1 496.66 140.60
  L 510.32 151.20
  A 1.02 0.95 30.3 0 1 510.66 152.34
  Q 509.04 156.20 505.82 158.16
  Q 504.55 158.94 501.39 159.70
  Q 499.11 160.25 496.82 160.97
  A 1.29 1.28 -28.8 0 1 495.45 160.58
  Q 491.72 156.14 487.10 152.49
  A 0.81 0.79 -51.8 0 1 486.98 151.36
  L 495.50 140.72
  Z"
/>
<path fill="#3aa5d1" d="
  M 394.29 205.75
  Q 394.42 206.01 394.38 206.26
  A 1.03 0.60 -13.8 0 1 393.75 206.87
  L 371.25 216.04
  Q 369.94 214.68 371.68 213.75
  A 2.09 2.09 -11.8 0 0 372.78 212.07
  Q 373.18 207.07 373.48 201.86
  Q 373.86 195.34 374.54 191.70
  Q 376.96 178.85 383.35 167.33
  Q 383.99 166.16 383.75 164.79
  L 387.45 163.61
  Q 389.13 163.07 388.67 164.81
  Q 385.89 175.20 385.50 186.25
  Q 385.28 192.40 387.88 196.65
  Q 390.80 201.40 394.29 205.75
  Z"
/>
<path fill="#5cd0c1" d="
  M 383.75 164.79
  Q 383.99 166.16 383.35 167.33
  Q 376.96 178.85 374.54 191.70
  Q 373.86 195.34 373.48 201.86
  Q 373.18 207.07 372.78 212.07
  A 2.09 2.09 -11.8 0 1 371.68 213.75
  Q 369.94 214.68 371.25 216.04
  Q 356.71 222.75 345.00 229.75
  Q 344.15 230.26 343.79 229.50
  Q 333.97 205.80 349.69 187.44
  Q 362.76 172.16 383.75 164.79
  Z"
/>
<path fill="#4ec6d0" d="
  M 610.25 183.71
  Q 600.48 188.54 591.65 194.95
  A 1.21 0.91 79.8 0 0 591.25 195.75
  L 591.21 196.25
  L 573.96 192.00
  Q 574.57 186.38 578.81 184.56
  Q 587.87 180.67 601.51 178.82
  A 1.83 1.66 -34.9 0 1 602.45 178.94
  Q 606.68 180.78 610.25 183.71
  Z"
/>
<path fill="#35a6d7" d="
  M 610.25 183.71
  Q 614.94 186.63 615.21 192.25
  Q 615.44 197.26 613.94 201.19
  Q 613.58 202.13 614.00 202.71
  L 591.21 196.25
  L 591.25 195.75
  A 1.21 0.91 79.8 0 1 591.65 194.95
  Q 600.48 188.54 610.25 183.71
  Z"
/>
<path fill="#bcf8fe" d="
  M 573.00 193.29
  Q 564.81 195.00 556.50 194.72
  Q 549.06 194.48 549.00 194.48
  Q 514.22 194.38 484.00 198.00
  Q 453.75 201.63 425.29 210.10
  A 1.69 1.68 85.5 0 0 424.10 211.50
  Q 421.23 234.15 415.75 253.46
  Q 405.03 290.63 378.80 318.16
  Q 372.48 324.80 364.09 331.70
  Q 353.07 340.78 341.04 348.53
  Q 318.88 362.81 293.28 369.11
  Q 262.88 376.60 233.64 368.50
  A 2.07 2.07 -67.3 0 0 231.28 369.47
  Q 214.97 398.45 205.21 429.25
  Q 189.22 474.48 188.36 522.50
  Q 187.75 556.89 193.70 590.76
  Q 194.15 593.31 194.96 595.75
  Q 199.40 615.39 204.96 634.75
  Q 203.70 634.06 203.13 632.84
  Q 202.37 631.23 202.30 631.13
  Q 199.10 625.90 197.54 620.01
  Q 195.49 612.30 195.46 612.21
  Q 194.51 609.03 193.70 605.80
  Q 192.89 602.55 191.97 599.38
  Q 189.27 590.04 186.69 576.56
  Q 178.45 533.58 181.50 487.50
  Q 182.32 475.08 183.54 468.25
  Q 186.72 469.70 190.09 469.27
  Q 191.89 469.04 192.23 467.33
  L 195.00 453.51
  A 1.76 1.68 11.9 0 0 193.64 451.53
  L 185.50 449.71
  Q 192.87 411.64 208.71 376.25
  L 216.79 360.25
  Q 226.05 343.12 237.45 326.49
  A 0.93 0.84 -44.8 0 0 237.50 325.50
  L 235.75 322.79
  Q 236.51 322.64 237.94 323.53
  A 1.00 0.99 -56.1 0 0 239.29 323.26
  Q 246.19 313.38 253.50 304.71
  L 254.51 304.42
  A 0.86 0.63 -27.3 0 1 255.28 304.54
  Q 256.19 305.40 257.44 305.81
  Q 259.85 306.60 259.00 308.50
  Q 254.22 319.20 251.11 330.49
  Q 249.99 334.55 248.86 336.81
  Q 247.34 339.82 245.36 342.60
  Q 244.64 343.60 245.33 344.22
  A 0.52 0.46 -51.2 0 0 246.05 344.10
  Q 268.76 314.18 292.69 289.94
  Q 321.08 261.17 356.49 239.22
  Q 364.92 233.99 374.03 229.61
  Q 396.76 218.69 419.25 211.50
  Q 423.17 210.25 423.50 206.50
  Q 423.66 204.62 425.50 197.04
  Q 475.62 184.59 527.25 187.50
  Q 537.74 188.09 569.94 191.76
  A 1.44 1.13 66.7 0 1 570.75 192.20
  Q 571.64 193.15 573.00 193.29
  Z"
/>
<path fill="#77d6f6" d="
  M 573.96 192.00
  L 591.21 196.25
  L 614.00 202.71
  Q 666.35 220.37 710.00 254.21
  Q 708.42 254.73 708.00 256.00
  Q 696.47 290.64 665.06 309.56
  Q 648.87 319.32 631.79 325.00
  Q 631.70 324.80 631.54 324.74
  A 0.66 0.22 12.3 0 1 631.12 324.49
  Q 626.76 315.79 619.79 308.96
  Q 613.85 303.14 611.50 298.75
  Q 608.57 293.27 602.44 291.80
  Q 595.85 290.22 589.16 290.17
  Q 584.69 290.14 575.84 290.82
  Q 558.93 292.11 543.14 298.34
  Q 538.84 300.03 536.19 301.69
  Q 532.37 304.08 530.31 306.81
  Q 527.21 310.93 528.25 314.75
  Q 529.86 320.68 530.71 326.75
  Q 530.13 327.10 529.48 326.79
  Q 488.30 307.67 447.75 328.04
  Q 450.09 326.14 452.80 325.31
  A 0.22 0.22 60.7 0 0 452.90 324.95
  Q 451.21 323.04 449.24 322.08
  Q 449.18 322.05 446.20 321.18
  Q 442.70 320.15 441.50 316.75
  Q 440.59 314.15 438.66 313.07
  Q 436.42 311.80 436.37 311.77
  Q 434.54 310.43 433.81 310.06
  Q 430.01 308.14 433.25 305.49
  Q 434.10 304.79 432.45 304.98
  Q 430.09 305.24 430.41 302.99
  Q 430.49 302.42 430.34 302.03
  Q 429.48 299.83 427.28 298.87
  A 1.28 1.20 1.5 0 1 426.63 298.23
  Q 425.95 296.64 424.69 295.51
  A 1.54 1.42 17.8 0 1 424.23 294.70
  Q 423.72 292.18 422.21 290.22
  Q 420.16 287.54 420.12 287.48
  Q 414.40 278.66 412.56 276.69
  Q 410.37 274.34 411.77 272.54
  Q 413.25 270.65 413.29 270.58
  Q 416.52 264.22 415.80 257.00
  A 1.64 0.93 -44.8 0 1 416.05 256.11
  Q 416.38 255.55 415.94 255.22
  A 0.61 0.56 29.0 0 1 415.72 254.56
  Q 415.90 254.03 415.75 253.46
  Q 421.23 234.15 424.10 211.50
  A 1.69 1.68 85.5 0 1 425.29 210.10
  Q 453.75 201.63 484.00 198.00
  Q 514.22 194.38 549.00 194.48
  Q 549.06 194.48 556.50 194.72
  Q 564.81 195.00 573.00 193.29
  Q 573.71 192.84 573.96 192.00
  Z"
/>
<path fill="#cefbfe" d="
  M 425.50 197.04
  Q 423.66 204.62 423.50 206.50
  Q 423.17 210.25 419.25 211.50
  Q 396.76 218.69 374.03 229.61
  Q 364.92 233.99 356.49 239.22
  Q 321.08 261.17 292.69 289.94
  Q 268.76 314.18 246.05 344.10
  A 0.52 0.46 -51.2 0 1 245.33 344.22
  Q 244.64 343.60 245.36 342.60
  Q 247.34 339.82 248.86 336.81
  Q 249.99 334.55 251.11 330.49
  Q 254.22 319.20 259.00 308.50
  Q 259.85 306.60 257.44 305.81
  Q 256.19 305.40 255.28 304.54
  A 0.86 0.63 -27.3 0 0 254.51 304.42
  L 253.50 304.71
  Q 291.18 259.87 341.88 230.56
  Q 342.17 230.40 342.82 230.36
  Q 343.56 230.31 343.79 229.50
  Q 344.15 230.26 345.00 229.75
  Q 356.71 222.75 371.25 216.04
  L 393.75 206.87
  A 1.03 0.60 -13.8 0 0 394.38 206.26
  Q 394.42 206.01 394.29 205.75
  Q 409.71 200.71 425.50 197.04
  Z"
/>
<path fill="#49c7d1" d="
  M 763.71 274.50
  Q 762.80 274.38 761.91 274.20
  Q 760.98 274.01 760.11 274.20
  Q 747.56 276.90 734.98 274.25
  Q 732.04 273.63 732.56 270.66
  Q 734.34 260.45 733.54 249.77
  Q 733.08 243.49 730.19 238.56
  Q 728.99 236.51 726.54 235.00
  Q 732.41 222.98 734.50 209.73
  Q 734.83 207.66 736.28 209.18
  Q 745.73 219.06 753.80 230.71
  Q 765.87 248.14 764.75 269.50
  Q 764.65 271.42 763.71 274.50
  Z"
/>
<path fill="#b9eafb" d="
  M 280.66 219.26
  A 0.88 0.84 32.0 0 1 282.08 218.96
  Q 287.99 224.75 295.19 229.45
  A 1.26 1.24 22.8 0 1 295.73 230.74
  L 293.81 239.74
  A 1.17 1.17 1.8 0 1 292.84 240.65
  L 273.95 243.54
  A 1.07 1.05 4.8 0 1 272.77 242.17
  L 280.66 219.26
  Z"
/>
<path fill="#35a6d7" d="
  M 726.54 235.00
  Q 728.99 236.51 730.19 238.56
  Q 733.08 243.49 733.54 249.77
  Q 734.34 260.45 732.56 270.66
  Q 732.04 273.63 734.98 274.25
  Q 747.56 276.90 760.11 274.20
  Q 760.98 274.01 761.91 274.20
  Q 762.80 274.38 763.71 274.50
  Q 761.62 286.05 752.25 293.04
  Q 751.02 292.99 750.52 292.05
  Q 749.75 290.62 749.73 290.58
  Q 744.74 284.22 742.69 282.56
  Q 740.06 280.43 734.75 275.00
  Q 728.88 268.99 713.44 256.31
  Q 712.09 255.21 711.96 254.25
  Q 720.57 245.62 726.54 235.00
  Z"
/>
<path fill="#7ddffa" d="
  M 415.75 253.46
  Q 415.90 254.03 415.72 254.56
  A 0.61 0.56 29.0 0 0 415.94 255.22
  Q 416.38 255.55 416.05 256.11
  A 1.64 0.93 -44.8 0 0 415.80 257.00
  Q 416.52 264.22 413.29 270.58
  Q 413.25 270.65 411.77 272.54
  Q 410.37 274.34 412.56 276.69
  Q 414.40 278.66 420.12 287.48
  Q 420.16 287.54 422.21 290.22
  Q 423.72 292.18 424.23 294.70
  A 1.54 1.42 17.8 0 0 424.69 295.51
  Q 425.95 296.64 426.63 298.23
  A 1.28 1.20 1.5 0 0 427.28 298.87
  Q 429.48 299.83 430.34 302.03
  Q 430.49 302.42 430.41 302.99
  Q 430.09 305.24 432.45 304.98
  Q 434.10 304.79 433.25 305.49
  Q 430.01 308.14 433.81 310.06
  Q 434.54 310.43 436.37 311.77
  Q 436.42 311.80 438.66 313.07
  Q 440.59 314.15 441.50 316.75
  Q 442.70 320.15 446.20 321.18
  Q 449.18 322.05 449.24 322.08
  Q 451.21 323.04 452.90 324.95
  A 0.22 0.22 60.7 0 1 452.80 325.31
  Q 450.09 326.14 447.75 328.04
  Q 427.22 338.55 410.95 354.57
  Q 402.76 362.64 397.42 369.28
  Q 390.15 378.31 385.12 388.91
  Q 380.20 399.28 381.79 410.02
  Q 382.72 416.27 386.67 423.89
  Q 390.09 430.46 394.66 436.37
  Q 397.58 440.15 399.98 444.29
  Q 401.78 447.41 398.56 448.32
  Q 392.28 450.10 385.97 451.79
  Q 367.26 456.79 349.93 465.43
  Q 327.99 476.36 310.25 493.25
  Q 299.73 503.26 293.00 514.71
  L 291.50 516.54
  Q 290.54 516.70 289.66 515.77
  A 1.44 1.43 72.5 0 0 288.80 515.32
  Q 277.33 513.80 266.53 511.61
  Q 250.40 508.34 238.58 497.78
  Q 232.79 492.61 229.09 485.40
  Q 220.19 468.06 222.15 447.88
  Q 222.18 447.61 221.99 447.82
  Q 221.58 448.27 221.79 447.06
  Q 222.26 444.42 222.73 441.79
  Q 223.09 439.80 222.26 441.11
  Q 222.05 441.44 221.89 441.09
  L 221.70 440.70
  A 0.83 0.83 -10.9 0 0 221.00 440.23
  Q 216.65 439.96 214.20 436.24
  Q 213.93 435.82 213.49 435.57
  Q 209.19 433.19 208.26 428.30
  Q 207.99 426.90 207.69 428.30
  Q 207.18 430.64 206.01 429.31
  A 0.20 0.18 -51.5 0 0 205.70 429.36
  Q 205.51 429.72 205.21 429.25
  Q 214.97 398.45 231.28 369.47
  A 2.07 2.07 -67.3 0 1 233.64 368.50
  Q 262.88 376.60 293.28 369.11
  Q 318.88 362.81 341.04 348.53
  Q 353.07 340.78 364.09 331.70
  Q 372.48 324.80 378.80 318.16
  Q 405.03 290.63 415.75 253.46
  Z
  M 332.99 388.70
  Q 339.86 394.95 348.25 395.00
  A 1.37 1.31 9.0 0 0 349.55 394.10
  L 354.44 379.20
  A 0.47 0.46 3.2 0 0 353.90 378.61
  Q 341.93 381.09 333.06 387.46
  A 0.80 0.80 48.5 0 0 332.99 388.70
  Z"
/>
<path fill="#4eaaec" d="
  M 710.00 254.21
  Q 710.99 254.78 711.96 254.25
  Q 712.09 255.21 713.44 256.31
  Q 728.88 268.99 734.75 275.00
  Q 740.06 280.43 742.69 282.56
  Q 744.74 284.22 749.73 290.58
  Q 749.75 290.62 750.52 292.05
  Q 751.02 292.99 752.25 293.04
  Q 752.29 293.60 753.19 294.56
  Q 763.50 305.66 774.46 321.25
  Q 766.25 329.00 759.44 332.94
  Q 741.89 343.10 723.70 350.72
  Q 721.75 351.54 720.47 349.86
  Q 718.43 347.16 716.19 344.68
  Q 714.39 342.70 712.04 341.90
  Q 708.76 340.79 706.25 340.75
  Q 674.23 340.21 642.36 337.18
  Q 639.17 336.88 638.66 336.70
  Q 636.80 336.03 635.81 333.94
  Q 633.98 330.04 630.75 325.71
  L 631.79 325.00
  Q 648.87 319.32 665.06 309.56
  Q 696.47 290.64 708.00 256.00
  Q 708.42 254.73 710.00 254.21
  Z"
/>
<path fill="#b9eafb" d="
  M 792.03 275.11
  A 1.09 1.03 -54.4 0 1 791.84 273.71
  Q 796.14 266.94 799.57 258.63
  A 0.35 0.35 35.2 0 1 800.16 258.53
  Q 804.69 263.69 808.14 269.59
  Q 809.93 272.64 808.68 275.97
  Q 807.08 280.27 805.12 284.58
  A 0.71 0.68 -58.7 0 1 804.06 284.87
  L 792.03 275.11
  Z"
/>
<path fill="#5cd0c1" d="
  M 229.21 300.25
  Q 229.34 301.89 227.79 301.65
  A 0.89 0.89 22.2 0 0 226.92 302.01
  Q 219.49 312.50 216.34 324.84
  Q 214.31 332.79 213.69 341.24
  Q 213.08 349.58 214.34 357.94
  Q 214.69 360.27 216.79 360.25
  L 208.71 376.25
  Q 193.63 366.64 189.94 350.41
  Q 187.96 341.72 189.64 330.54
  Q 193.28 306.36 211.06 287.81
  Q 223.06 275.29 231.07 268.14
  Q 231.44 267.81 231.49 268.31
  Q 231.77 271.35 231.50 273.00
  Q 229.25 286.53 229.21 300.25
  Z"
/>
<path fill="#69c9f5" d="
  M 631.79 325.00
  L 630.75 325.71
  Q 615.11 330.82 605.94 332.94
  Q 603.10 333.59 601.79 335.00
  Q 598.38 329.47 592.81 323.69
  Q 588.97 319.70 584.04 318.86
  Q 581.27 318.38 574.45 318.93
  Q 564.47 319.74 555.30 324.07
  Q 552.75 325.27 554.43 327.45
  L 559.93 334.56
  Q 561.25 336.25 559.45 337.18
  L 542.25 346.04
  Q 541.44 345.40 542.45 344.66
  Q 543.24 344.10 544.06 343.60
  Q 544.83 343.13 544.10 342.90
  A 0.46 0.45 13.4 0 1 543.78 342.40
  Q 543.99 341.15 542.80 340.79
  A 1.15 0.99 -1.0 0 1 542.13 340.23
  Q 541.51 338.83 540.26 338.06
  Q 539.32 337.49 537.61 337.52
  Q 534.93 337.58 532.25 337.72
  A 0.60 0.57 -7.3 0 1 531.63 337.27
  L 530.09 329.99
  A 1.52 1.10 -44.2 0 1 530.25 329.08
  Q 530.83 328.00 530.71 326.75
  Q 529.86 320.68 528.25 314.75
  Q 527.21 310.93 530.31 306.81
  Q 532.37 304.08 536.19 301.69
  Q 538.84 300.03 543.14 298.34
  Q 558.93 292.11 575.84 290.82
  Q 584.69 290.14 589.16 290.17
  Q 595.85 290.22 602.44 291.80
  Q 608.57 293.27 611.50 298.75
  Q 613.85 303.14 619.79 308.96
  Q 626.76 315.79 631.12 324.49
  A 0.66 0.22 12.3 0 0 631.54 324.74
  Q 631.70 324.80 631.79 325.00
  Z"
/>
<path fill="#3aa5d1" d="
  M 229.21 300.25
  Q 228.44 312.79 235.75 322.79
  L 237.50 325.50
  A 0.93 0.84 -44.8 0 1 237.45 326.49
  Q 226.05 343.12 216.79 360.25
  Q 214.69 360.27 214.34 357.94
  Q 213.08 349.58 213.69 341.24
  Q 214.31 332.79 216.34 324.84
  Q 219.49 312.50 226.92 302.01
  A 0.89 0.89 22.2 0 1 227.79 301.65
  Q 229.34 301.89 229.21 300.25
  Z"
/>
<path fill="#49c7d1" d="
  M 790.96 349.50
  Q 786.27 356.47 778.24 358.97
  Q 774.76 360.06 771.25 361.04
  Q 769.86 358.91 768.09 357.11
  Q 766.25 355.25 765.94 353.70
  Q 765.36 350.79 766.74 348.01
  Q 767.55 346.37 767.57 346.33
  Q 772.35 335.50 777.29 324.75
  Q 778.11 325.33 778.69 324.94
  Q 786.02 319.88 793.93 315.50
  Q 795.86 314.43 796.25 316.60
  Q 799.47 334.28 790.96 349.50
  Z"
/>
<path fill="#6ed2f8" d="
  M 530.71 326.75
  Q 530.83 328.00 530.25 329.08
  A 1.52 1.10 -44.2 0 0 530.09 329.99
  L 531.63 337.27
  A 0.60 0.57 -7.3 0 0 532.25 337.72
  Q 534.93 337.58 537.61 337.52
  Q 539.32 337.49 540.26 338.06
  Q 541.51 338.83 542.13 340.23
  A 1.15 0.99 -1.0 0 0 542.80 340.79
  Q 543.99 341.15 543.78 342.40
  A 0.46 0.45 13.4 0 0 544.10 342.90
  Q 544.83 343.13 544.06 343.60
  Q 543.24 344.10 542.45 344.66
  Q 541.44 345.40 542.25 346.04
  Q 530.37 351.79 518.97 358.44
  Q 515.41 360.52 512.06 358.94
  Q 506.91 356.50 505.18 350.45
  Q 503.85 345.80 500.02 344.63
  Q 497.16 343.75 493.09 345.23
  Q 488.44 346.91 485.19 350.19
  Q 482.06 353.35 479.28 355.41
  Q 477.66 356.62 475.21 356.98
  Q 460.78 359.09 448.06 367.06
  Q 433.16 376.40 423.56 390.56
  Q 420.21 395.51 419.19 400.91
  Q 418.31 405.59 420.08 410.93
  Q 421.77 416.00 424.56 420.19
  Q 432.91 432.71 444.94 448.31
  Q 446.50 450.34 449.46 455.25
  Q 452.00 460.16 448.41 464.18
  Q 446.29 466.54 443.94 467.69
  Q 433.07 472.95 420.42 476.35
  Q 395.34 483.08 370.28 489.84
  Q 359.80 492.67 349.92 497.16
  Q 335.18 503.86 324.00 515.54
  Q 319.99 516.06 317.49 512.96
  A 0.85 0.80 64.1 0 0 316.70 512.66
  Q 309.87 514.10 307.00 514.00
  Q 301.59 513.82 297.25 514.75
  Q 294.88 515.26 293.00 514.71
  Q 299.73 503.26 310.25 493.25
  Q 327.99 476.36 349.93 465.43
  Q 367.26 456.79 385.97 451.79
  Q 392.28 450.10 398.56 448.32
  Q 401.78 447.41 399.98 444.29
  Q 397.58 440.15 394.66 436.37
  Q 390.09 430.46 386.67 423.89
  Q 382.72 416.27 381.79 410.02
  Q 380.20 399.28 385.12 388.91
  Q 390.15 378.31 397.42 369.28
  Q 402.76 362.64 410.95 354.57
  Q 427.22 338.55 447.75 328.04
  Q 488.30 307.67 529.48 326.79
  Q 530.13 327.10 530.71 326.75
  Z"
/>
<path fill="#23264e" d="
  M 601.79 335.00
  Q 608.35 344.50 611.79 355.50
  Q 611.64 357.06 609.43 355.77
  A 3.68 3.68 58.0 0 0 607.32 355.28
  Q 599.04 355.82 590.67 357.17
  Q 587.52 357.68 574.19 360.16
  Q 540.58 366.42 512.06 376.06
  Q 467.27 391.21 427.24 417.90
  A 1.49 1.48 -34.6 0 0 426.85 419.99
  Q 431.21 426.11 435.20 431.82
  Q 436.42 433.57 441.17 439.88
  Q 444.19 443.89 446.85 448.17
  Q 448.17 450.30 449.84 452.17
  Q 450.58 453.00 450.49 453.68
  Q 450.38 454.58 449.46 455.25
  Q 446.50 450.34 444.94 448.31
  Q 432.91 432.71 424.56 420.19
  Q 421.77 416.00 420.08 410.93
  Q 418.31 405.59 419.19 400.91
  Q 420.21 395.51 423.56 390.56
  Q 433.16 376.40 448.06 367.06
  Q 460.78 359.09 475.21 356.98
  Q 477.66 356.62 479.28 355.41
  Q 482.06 353.35 485.19 350.19
  Q 488.44 346.91 493.09 345.23
  Q 497.16 343.75 500.02 344.63
  Q 503.85 345.80 505.18 350.45
  Q 506.91 356.50 512.06 358.94
  Q 515.41 360.52 518.97 358.44
  Q 530.37 351.79 542.25 346.04
  L 559.45 337.18
  Q 561.25 336.25 559.93 334.56
  L 554.43 327.45
  Q 552.75 325.27 555.30 324.07
  Q 564.47 319.74 574.45 318.93
  Q 581.27 318.38 584.04 318.86
  Q 588.97 319.70 592.81 323.69
  Q 598.38 329.47 601.79 335.00
  Z"
/>
<path fill="#4398e4" d="
  M 774.46 321.25
  L 777.29 324.75
  Q 772.35 335.50 767.57 346.33
  Q 767.55 346.37 766.74 348.01
  Q 765.36 350.79 765.94 353.70
  Q 766.25 355.25 768.09 357.11
  Q 769.86 358.91 771.25 361.04
  Q 763.39 364.83 754.00 367.50
  Q 724.99 375.74 716.58 378.15
  Q 713.70 378.97 710.75 378.46
  Q 702.51 375.37 695.05 370.70
  Q 693.12 369.50 692.52 367.49
  Q 691.54 364.24 691.49 364.16
  Q 690.38 362.54 688.25 362.01
  Q 684.43 361.05 680.49 360.87
  Q 661.50 360.01 642.50 360.45
  Q 637.31 360.57 619.56 360.19
  Q 613.92 360.07 611.79 355.50
  Q 608.35 344.50 601.79 335.00
  Q 603.10 333.59 605.94 332.94
  Q 615.11 330.82 630.75 325.71
  Q 633.98 330.04 635.81 333.94
  Q 636.80 336.03 638.66 336.70
  Q 639.17 336.88 642.36 337.18
  Q 674.23 340.21 706.25 340.75
  Q 708.76 340.79 712.04 341.90
  Q 714.39 342.70 716.19 344.68
  Q 718.43 347.16 720.47 349.86
  Q 721.75 351.54 723.70 350.72
  Q 741.89 343.10 759.44 332.94
  Q 766.25 329.00 774.46 321.25
  Z"
/>
<path fill="#23264e" d="
  M 790.96 349.50
  Q 809.73 382.93 821.25 419.50
  Q 821.68 420.85 821.79 422.25
  Q 820.48 426.20 818.94 430.06
  Q 817.73 433.11 817.71 435.78
  Q 817.68 440.67 818.54 445.50
  Q 818.94 450.01 819.92 454.41
  Q 819.95 454.56 820.33 456.73
  Q 820.76 459.23 822.26 461.42
  Q 823.24 462.84 825.44 462.97
  L 829.96 463.25
  Q 830.43 464.34 830.50 464.75
  Q 835.84 497.30 833.50 533.75
  Q 828.35 613.86 785.85 681.59
  Q 757.29 727.08 715.50 760.79
  Q 710.17 757.73 705.50 761.46
  Q 694.87 766.23 685.86 773.58
  Q 683.37 775.61 684.56 778.44
  Q 685.06 779.63 685.00 780.46
  Q 637.81 810.61 583.42 824.10
  Q 531.08 837.09 476.75 833.00
  Q 474.59 832.84 473.25 832.46
  Q 473.54 832.05 474.00 831.79
  Q 478.85 827.38 480.75 822.50
  Q 482.32 818.47 480.00 815.11
  Q 479.03 813.71 476.94 812.50
  Q 474.72 811.22 473.25 810.75
  Q 457.95 805.89 442.31 802.26
  Q 435.70 800.72 429.34 798.37
  Q 420.81 795.23 414.04 789.22
  Q 410.81 786.35 409.46 782.25
  Q 410.16 781.28 410.69 780.25
  Q 411.01 779.64 411.31 778.02
  Q 411.77 775.51 414.00 773.25
  Q 418.02 769.16 422.47 767.37
  Q 425.07 766.32 425.85 765.79
  Q 427.18 764.88 428.82 763.44
  A 1.89 1.86 25.3 0 1 430.13 762.98
  Q 436.00 763.20 441.14 764.29
  Q 463.21 768.94 485.75 769.94
  Q 511.25 771.07 536.75 770.00
  Q 566.90 768.74 598.79 758.11
  Q 599.91 757.74 599.38 757.19
  Q 599.15 756.95 598.67 756.89
  Q 589.71 755.73 579.81 751.69
  Q 577.91 750.91 576.77 749.70
  Q 575.61 748.47 575.62 746.47
  Q 575.64 741.56 580.19 738.69
  Q 590.94 731.90 602.40 728.79
  Q 626.62 722.21 651.75 722.97
  Q 658.11 723.16 664.20 724.91
  Q 667.17 725.76 669.42 728.33
  A 1.94 1.94 55.5 0 0 671.78 728.77
  Q 724.54 701.18 762.40 655.95
  Q 768.44 648.74 774.87 640.32
  Q 786.85 624.66 795.50 609.75
  Q 807.43 589.18 815.90 563.84
  Q 817.96 557.67 820.50 545.00
  Q 826.96 512.77 824.00 483.00
  Q 822.92 472.13 820.26 464.74
  Q 820.10 464.31 818.48 461.36
  Q 817.49 459.57 817.44 457.56
  Q 817.36 454.95 816.35 452.87
  Q 814.65 449.38 814.63 449.32
  Q 812.84 444.41 812.31 442.69
  Q 809.99 435.04 804.44 425.81
  Q 787.61 397.85 763.17 379.05
  Q 758.71 375.61 753.66 373.11
  Q 750.10 371.33 746.47 372.44
  Q 743.58 373.32 743.47 373.34
  Q 739.88 374.19 736.42 375.42
  Q 732.84 376.70 729.40 377.47
  Q 725.38 378.36 721.47 379.66
  Q 718.56 380.64 715.50 380.78
  Q 712.39 380.93 710.75 378.46
  Q 713.70 378.97 716.58 378.15
  Q 724.99 375.74 754.00 367.50
  Q 763.39 364.83 771.25 361.04
  Q 774.76 360.06 778.24 358.97
  Q 786.27 356.47 790.96 349.50
  Z
  M 539.25 796.24
  Q 543.72 797.87 548.25 798.44
  A 1.52 1.04 23.6 0 0 549.19 798.26
  L 553.80 795.13
  Q 554.26 794.82 553.73 794.62
  L 544.60 791.12
  A 1.86 1.69 30.0 0 0 542.60 791.55
  L 539.05 795.64
  A 0.40 0.36 29.5 0 0 539.25 796.24
  Z"
/>
<path fill="#2c2d54" d="
  M 611.79 355.50
  Q 613.92 360.07 619.56 360.19
  Q 637.31 360.57 642.50 360.45
  Q 661.50 360.01 680.49 360.87
  Q 684.43 361.05 688.25 362.01
  Q 690.38 362.54 691.49 364.16
  Q 691.54 364.24 692.52 367.49
  Q 693.12 369.50 695.05 370.70
  Q 702.51 375.37 710.75 378.46
  Q 712.39 380.93 715.50 380.78
  Q 718.56 380.64 721.47 379.66
  Q 725.38 378.36 729.40 377.47
  Q 732.84 376.70 736.42 375.42
  Q 739.88 374.19 743.47 373.34
  Q 743.58 373.32 746.47 372.44
  Q 750.10 371.33 753.66 373.11
  Q 758.71 375.61 763.17 379.05
  Q 787.61 397.85 804.44 425.81
  Q 809.99 435.04 812.31 442.69
  Q 812.84 444.41 814.63 449.32
  Q 814.65 449.38 816.35 452.87
  Q 817.36 454.95 817.44 457.56
  Q 817.49 459.57 818.48 461.36
  Q 820.10 464.31 820.26 464.74
  Q 822.92 472.13 824.00 483.00
  Q 826.96 512.77 820.50 545.00
  Q 817.96 557.67 815.90 563.84
  Q 807.43 589.18 795.50 609.75
  Q 786.85 624.66 774.87 640.32
  Q 768.44 648.74 762.40 655.95
  Q 724.54 701.18 671.78 728.77
  A 1.94 1.94 55.5 0 1 669.42 728.33
  Q 667.17 725.76 664.20 724.91
  Q 658.11 723.16 651.75 722.97
  Q 626.62 722.21 602.40 728.79
  Q 590.94 731.90 580.19 738.69
  Q 575.64 741.56 575.62 746.47
  Q 575.61 748.47 576.77 749.70
  Q 577.91 750.91 579.81 751.69
  Q 589.71 755.73 598.67 756.89
  Q 599.15 756.95 599.38 757.19
  Q 599.91 757.74 598.79 758.11
  Q 566.90 768.74 536.75 770.00
  Q 511.25 771.07 485.75 769.94
  Q 463.21 768.94 441.14 764.29
  Q 436.00 763.20 430.13 762.98
  A 1.89 1.86 25.3 0 0 428.82 763.44
  Q 427.18 764.88 425.85 765.79
  Q 425.07 766.32 422.47 767.37
  Q 418.02 769.16 414.00 773.25
  Q 411.77 775.51 411.31 778.02
  Q 411.01 779.64 410.69 780.25
  Q 410.16 781.28 409.46 782.25
  Q 408.17 777.13 410.56 773.31
  Q 415.32 765.73 424.50 761.54
  Q 435.10 757.56 443.00 755.50
  Q 450.51 753.54 486.91 744.31
  Q 497.97 741.51 508.80 737.90
  Q 518.37 734.70 524.19 729.94
  Q 533.19 722.56 525.79 712.50
  Q 520.49 705.32 513.44 701.06
  Q 496.47 690.82 476.31 681.94
  Q 472.25 680.15 470.11 677.06
  Q 468.76 675.12 468.65 671.60
  Q 468.34 662.05 468.31 652.50
  Q 468.29 645.80 465.05 640.55
  Q 462.72 636.76 457.16 633.34
  Q 448.46 627.97 440.00 625.50
  Q 423.55 620.70 401.76 617.90
  Q 389.33 616.30 377.02 613.91
  Q 374.32 613.38 371.93 612.06
  Q 370.35 611.18 370.85 609.45
  Q 371.69 606.52 373.29 603.80
  Q 376.24 598.77 378.81 593.53
  Q 380.97 589.14 380.11 584.79
  Q 379.44 581.39 376.10 577.44
  Q 370.24 570.52 361.56 565.94
  Q 345.56 557.49 340.30 554.96
  Q 334.93 552.38 325.69 545.81
  Q 315.42 538.52 318.00 526.75
  Q 319.01 522.14 324.00 515.54
  Q 335.18 503.86 349.92 497.16
  Q 359.80 492.67 370.28 489.84
  Q 395.34 483.08 420.42 476.35
  Q 433.07 472.95 443.94 467.69
  Q 446.29 466.54 448.41 464.18
  Q 452.00 460.16 449.46 455.25
  Q 450.38 454.58 450.49 453.68
  Q 450.58 453.00 449.84 452.17
  Q 448.17 450.30 446.85 448.17
  Q 444.19 443.89 441.17 439.88
  Q 436.42 433.57 435.20 431.82
  Q 431.21 426.11 426.85 419.99
  A 1.49 1.48 -34.6 0 1 427.24 417.90
  Q 467.27 391.21 512.06 376.06
  Q 540.58 366.42 574.19 360.16
  Q 587.52 357.68 590.67 357.17
  Q 599.04 355.82 607.32 355.28
  A 3.68 3.68 58.0 0 1 609.43 355.77
  Q 611.64 357.06 611.79 355.50
  Z
  M 732.54 424.50
  Q 731.65 427.07 727.73 425.97
  A 2.26 2.23 -47.9 0 0 726.33 426.05
  Q 723.87 427.05 721.25 427.12
  Q 717.06 427.24 712.96 428.01
  Q 695.62 431.29 678.50 435.54
  Q 675.88 434.54 673.19 430.81
  Q 668.42 424.22 666.81 421.69
  Q 660.33 411.43 647.75 408.25
  Q 640.30 406.37 633.96 406.05
  Q 627.16 405.72 627.06 405.71
  Q 599.28 403.61 572.40 410.13
  Q 564.44 412.05 553.13 415.49
  Q 532.57 421.72 510.06 431.81
  Q 482.05 444.37 460.04 459.91
  Q 459.96 459.96 457.75 461.32
  Q 456.19 462.28 454.81 463.81
  Q 451.19 467.85 446.71 471.37
  Q 438.20 478.06 438.17 478.08
  Q 423.97 490.49 412.45 505.43
  Q 406.36 513.32 406.32 513.37
  Q 403.90 516.72 400.75 521.75
  Q 391.96 535.80 389.00 549.50
  Q 388.00 554.12 388.00 560.75
  Q 388.00 567.41 390.70 572.50
  Q 391.61 574.21 392.47 575.95
  Q 393.43 577.90 394.47 579.25
  Q 402.03 589.09 413.00 594.48
  Q 417.87 596.88 423.97 598.91
  Q 429.60 600.77 435.51 601.69
  Q 448.98 603.77 462.50 605.50
  Q 469.84 606.44 493.25 605.88
  Q 498.90 605.75 505.00 606.57
  A 2.61 2.60 -6.2 0 1 507.10 608.25
  Q 509.09 613.69 511.73 619.36
  Q 518.74 634.46 534.61 639.55
  Q 541.93 641.90 553.56 643.19
  Q 580.46 646.17 602.99 644.97
  Q 603.31 644.95 609.98 644.28
  Q 612.71 644.01 617.00 643.75
  Q 673.81 640.33 720.28 607.52
  Q 727.42 602.48 735.97 595.12
  Q 744.47 587.82 752.60 580.11
  Q 759.47 573.60 764.08 565.32
  Q 765.48 562.81 767.25 560.54
  Q 780.78 546.34 788.06 535.31
  Q 797.71 520.69 801.67 501.99
  Q 803.35 494.04 804.39 487.02
  Q 805.59 478.89 805.25 471.75
  Q 804.35 453.04 790.65 442.10
  Q 784.93 437.52 777.16 433.75
  Q 769.96 430.26 761.96 428.79
  Q 760.51 428.52 758.63 427.90
  Q 756.97 427.35 755.24 427.04
  Q 753.32 426.69 752.50 424.96
  Q 751.83 421.90 749.79 419.50
  L 741.18 405.23
  A 0.34 0.34 -41.8 0 0 740.61 405.20
  Q 735.79 411.77 732.03 418.71
  Q 731.17 420.31 731.34 421.59
  Q 731.56 423.15 732.54 424.50
  Z
  M 714.61 416.74
  Q 716.73 418.85 718.69 419.14
  A 0.64 0.58 -75.9 0 0 719.35 418.70
  Q 721.84 410.90 714.74 415.52
  A 0.79 0.79 51.1 0 0 714.61 416.74
  Z"
/>
<path fill="#defcff" d="
  M 332.99 388.70
  A 0.80 0.80 48.5 0 1 333.06 387.46
  Q 341.93 381.09 353.90 378.61
  A 0.47 0.46 3.2 0 1 354.44 379.20
  L 349.55 394.10
  A 1.37 1.31 9.0 0 1 348.25 395.00
  Q 339.86 394.95 332.99 388.70
  Z"
/>
<path fill="#49c7d1" d="
  M 849.46 435.25
  Q 848.48 435.40 846.69 436.44
  Q 839.08 440.82 829.19 442.94
  Q 823.83 444.08 818.54 445.50
  Q 817.68 440.67 817.71 435.78
  Q 817.73 433.11 818.94 430.06
  Q 820.48 426.20 821.79 422.25
  Q 822.66 422.18 823.19 421.19
  Q 829.96 408.51 835.07 395.05
  Q 835.54 393.79 836.22 394.96
  Q 841.36 403.86 845.31 413.69
  Q 849.82 424.89 849.46 435.25
  Z"
/>
<path fill="#e3fefc" d="
  M 749.79 419.50
  Q 749.56 420.84 748.06 421.56
  Q 742.80 424.11 736.04 428.75
  L 732.54 424.50
  Q 731.56 423.15 731.34 421.59
  Q 731.17 420.31 732.03 418.71
  Q 735.79 411.77 740.61 405.20
  A 0.34 0.34 -41.8 0 1 741.18 405.23
  L 749.79 419.50
  Z"
/>
<path fill="#352e53" d="
  M 678.50 435.54
  Q 655.75 441.65 633.01 447.79
  Q 625.74 449.75 618.31 450.89
  Q 613.47 451.62 609.15 451.32
  Q 604.90 451.03 600.00 450.25
  Q 595.13 449.47 588.52 448.92
  Q 579.49 448.16 577.00 447.99
  Q 551.60 446.27 528.25 453.75
  Q 496.37 463.96 469.40 486.14
  Q 452.73 499.85 441.62 518.35
  Q 438.40 523.71 436.55 529.64
  Q 435.15 534.10 436.08 537.46
  Q 437.92 544.16 445.50 546.00
  Q 454.55 548.19 464.59 547.89
  Q 467.72 547.79 476.41 547.21
  Q 482.33 546.82 488.21 546.00
  Q 490.84 567.83 505.35 584.17
  Q 509.84 589.23 516.07 591.93
  Q 526.32 596.35 537.49 596.91
  Q 564.37 598.24 585.56 583.32
  Q 592.81 578.20 595.23 573.96
  Q 598.73 567.81 597.00 559.75
  Q 595.84 554.33 594.29 550.25
  Q 585.20 525.33 563.43 510.28
  Q 550.01 501.00 534.50 499.75
  Q 522.53 498.79 511.64 503.37
  Q 503.06 506.98 497.69 512.99
  Q 491.86 519.52 489.54 528.50
  Q 488.54 526.75 489.41 525.23
  Q 489.68 524.75 489.71 524.32
  Q 489.92 521.12 491.29 518.19
  A 1.89 1.41 -11.2 0 1 491.92 517.49
  Q 495.02 515.45 495.75 511.00
  Q 496.11 508.82 498.04 507.79
  Q 500.55 506.46 501.06 506.06
  Q 505.23 502.79 510.14 500.84
  Q 511.63 500.25 515.40 499.75
  Q 517.55 499.46 520.75 498.75
  Q 537.49 495.02 554.06 502.95
  Q 576.64 513.75 589.56 535.19
  Q 597.17 547.81 599.67 561.52
  Q 600.45 565.83 600.03 569.02
  Q 599.47 573.25 597.50 576.25
  Q 592.69 583.59 585.68 587.30
  Q 583.80 588.29 582.26 589.74
  Q 580.49 591.41 581.60 593.55
  Q 586.50 602.98 597.25 603.75
  Q 605.06 604.31 617.58 603.11
  Q 628.83 602.02 628.93 602.02
  Q 660.78 599.19 692.31 593.81
  Q 703.18 591.95 713.34 587.73
  Q 717.41 586.04 720.05 582.56
  Q 722.35 579.52 723.49 577.45
  Q 724.35 575.89 724.15 574.33
  L 723.10 566.00
  A 0.78 0.72 4.4 0 0 722.52 565.38
  Q 715.29 563.58 708.82 559.98
  Q 705.20 557.97 703.88 555.29
  Q 702.06 551.61 702.25 546.50
  Q 702.45 541.23 705.21 538.50
  Q 704.32 545.84 706.10 552.97
  Q 706.78 555.69 709.69 557.56
  Q 718.64 563.32 728.50 563.09
  Q 753.68 562.52 765.16 540.67
  Q 770.69 530.16 771.29 518.25
  Q 773.02 502.35 767.94 489.81
  Q 763.33 478.45 752.00 477.25
  Q 738.32 475.80 728.00 486.29
  Q 727.17 485.85 727.74 485.01
  Q 735.50 473.79 749.07 474.14
  Q 750.77 474.19 752.83 474.81
  Q 754.68 475.37 756.53 475.90
  Q 766.59 478.78 769.45 488.13
  Q 771.31 494.20 771.36 494.34
  Q 772.74 498.41 773.23 502.68
  Q 773.51 505.10 773.19 511.32
  Q 772.99 515.28 773.00 520.00
  Q 773.02 527.46 770.19 534.94
  Q 767.96 540.83 762.82 549.15
  Q 762.58 549.54 762.54 550.06
  Q 762.33 553.10 759.96 554.90
  A 0.67 0.64 -30.1 0 0 759.74 555.66
  Q 761.68 560.58 767.25 560.54
  Q 765.48 562.81 764.08 565.32
  Q 759.47 573.60 752.60 580.11
  Q 744.47 587.82 735.97 595.12
  Q 727.42 602.48 720.28 607.52
  Q 673.81 640.33 617.00 643.75
  Q 612.71 644.01 609.98 644.28
  Q 603.31 644.95 602.99 644.97
  Q 580.46 646.17 553.56 643.19
  Q 541.93 641.90 534.61 639.55
  Q 518.74 634.46 511.73 619.36
  Q 509.09 613.69 507.10 608.25
  A 2.61 2.60 -6.2 0 0 505.00 606.57
  Q 498.90 605.75 493.25 605.88
  Q 469.84 606.44 462.50 605.50
  Q 448.98 603.77 435.51 601.69
  Q 429.60 600.77 423.97 598.91
  Q 417.87 596.88 413.00 594.48
  Q 402.03 589.09 394.47 579.25
  Q 393.43 577.90 392.47 575.95
  Q 391.61 574.21 390.70 572.50
  Q 388.00 567.41 388.00 560.75
  Q 388.00 554.12 389.00 549.50
  Q 391.96 535.80 400.75 521.75
  Q 403.90 516.72 406.32 513.37
  Q 406.36 513.32 412.45 505.43
  Q 423.97 490.49 438.17 478.08
  Q 438.20 478.06 446.71 471.37
  Q 451.19 467.85 454.81 463.81
  Q 456.19 462.28 457.75 461.32
  Q 459.96 459.96 460.04 459.91
  Q 482.05 444.37 510.06 431.81
  Q 532.57 421.72 553.13 415.49
  Q 564.44 412.05 572.40 410.13
  Q 599.28 403.61 627.06 405.71
  Q 627.16 405.72 633.96 406.05
  Q 640.30 406.37 647.75 408.25
  Q 660.33 411.43 666.81 421.69
  Q 668.42 424.22 673.19 430.81
  Q 675.88 434.54 678.50 435.54
  Z"
/>
<path fill="#e3fefc" d="
  M 714.61 416.74
  A 0.79 0.79 51.1 0 1 714.74 415.52
  Q 721.84 410.90 719.35 418.70
  A 0.64 0.58 -75.9 0 1 718.69 419.14
  Q 716.73 418.85 714.61 416.74
  Z"
/>
<path fill="#b9eafb" d="
  M 749.79 419.50
  Q 751.83 421.90 752.50 424.96
  Q 746.35 429.20 739.52 432.24
  A 0.72 0.64 -30.6 0 1 738.71 432.08
  L 736.04 428.75
  Q 742.80 424.11 748.06 421.56
  Q 749.56 420.84 749.79 419.50
  Z"
/>
<path fill="#3e3154" d="
  M 732.54 424.50
  L 736.04 428.75
  L 738.71 432.08
  A 0.72 0.64 -30.6 0 0 739.52 432.24
  Q 746.35 429.20 752.50 424.96
  Q 753.32 426.69 755.24 427.04
  Q 756.97 427.35 758.63 427.90
  Q 760.51 428.52 761.96 428.79
  Q 769.96 430.26 777.16 433.75
  Q 784.93 437.52 790.65 442.10
  Q 804.35 453.04 805.25 471.75
  Q 805.59 478.89 804.39 487.02
  Q 803.35 494.04 801.67 501.99
  Q 797.71 520.69 788.06 535.31
  Q 780.78 546.34 767.25 560.54
  Q 761.68 560.58 759.74 555.66
  A 0.67 0.64 -30.1 0 1 759.96 554.90
  Q 762.33 553.10 762.54 550.06
  Q 762.58 549.54 762.82 549.15
  Q 767.96 540.83 770.19 534.94
  Q 773.02 527.46 773.00 520.00
  Q 772.99 515.28 773.19 511.32
  Q 773.51 505.10 773.23 502.68
  Q 772.74 498.41 771.36 494.34
  Q 771.31 494.20 769.45 488.13
  Q 766.59 478.78 756.53 475.90
  Q 754.68 475.37 752.83 474.81
  Q 750.77 474.19 749.07 474.14
  Q 735.50 473.79 727.74 485.01
  Q 727.17 485.85 728.00 486.29
  Q 720.16 494.23 714.94 504.94
  Q 708.18 518.79 705.96 533.25
  L 705.21 538.50
  Q 702.45 541.23 702.25 546.50
  Q 702.06 551.61 703.88 555.29
  Q 705.20 557.97 708.82 559.98
  Q 715.29 563.58 722.52 565.38
  A 0.78 0.72 4.4 0 1 723.10 566.00
  L 724.15 574.33
  Q 724.35 575.89 723.49 577.45
  Q 722.35 579.52 720.05 582.56
  Q 717.41 586.04 713.34 587.73
  Q 703.18 591.95 692.31 593.81
  Q 660.78 599.19 628.93 602.02
  Q 628.83 602.02 617.58 603.11
  Q 605.06 604.31 597.25 603.75
  Q 586.50 602.98 581.60 593.55
  Q 580.49 591.41 582.26 589.74
  Q 583.80 588.29 585.68 587.30
  Q 592.69 583.59 597.50 576.25
  Q 599.47 573.25 600.03 569.02
  Q 600.45 565.83 599.67 561.52
  Q 597.17 547.81 589.56 535.19
  Q 576.64 513.75 554.06 502.95
  Q 537.49 495.02 520.75 498.75
  Q 517.55 499.46 515.40 499.75
  Q 511.63 500.25 510.14 500.84
  Q 505.23 502.79 501.06 506.06
  Q 500.55 506.46 498.04 507.79
  Q 496.11 508.82 495.75 511.00
  Q 495.02 515.45 491.92 517.49
  A 1.89 1.41 -11.2 0 0 491.29 518.19
  Q 489.92 521.12 489.71 524.32
  Q 489.68 524.75 489.41 525.23
  Q 488.54 526.75 489.54 528.50
  L 488.96 532.25
  Q 487.90 539.08 488.21 546.00
  Q 482.33 546.82 476.41 547.21
  Q 467.72 547.79 464.59 547.89
  Q 454.55 548.19 445.50 546.00
  Q 437.92 544.16 436.08 537.46
  Q 435.15 534.10 436.55 529.64
  Q 438.40 523.71 441.62 518.35
  Q 452.73 499.85 469.40 486.14
  Q 496.37 463.96 528.25 453.75
  Q 551.60 446.27 577.00 447.99
  Q 579.49 448.16 588.52 448.92
  Q 595.13 449.47 600.00 450.25
  Q 604.90 451.03 609.15 451.32
  Q 613.47 451.62 618.31 450.89
  Q 625.74 449.75 633.01 447.79
  Q 655.75 441.65 678.50 435.54
  Q 695.62 431.29 712.96 428.01
  Q 717.06 427.24 721.25 427.12
  Q 723.87 427.05 726.33 426.05
  A 2.26 2.23 -47.9 0 1 727.73 425.97
  Q 731.65 427.07 732.54 424.50
  Z"
/>
<path fill="#76d5f6" d="
  M 291.50 516.54
  Q 280.29 539.57 297.19 558.30
  Q 299.97 561.39 306.19 567.31
  Q 314.06 574.82 322.19 582.04
  Q 326.21 585.61 326.51 591.00
  Q 326.67 593.75 326.83 596.49
  Q 327.04 599.99 327.80 601.89
  Q 329.75 606.82 334.75 609.75
  Q 339.64 612.62 344.75 612.97
  A 0.93 0.79 -8.2 0 1 345.49 613.44
  Q 346.38 615.34 344.50 616.75
  Q 338.99 620.88 335.06 623.31
  Q 331.98 625.22 324.52 633.28
  Q 322.65 635.30 322.73 638.08
  A 1.17 0.55 -40.5 0 1 322.42 638.77
  Q 322.26 638.96 322.25 639.21
  Q 290.46 635.12 269.75 629.75
  Q 255.89 626.16 245.00 622.25
  Q 218.88 612.87 196.19 595.56
  Q 195.63 595.14 194.96 595.75
  Q 194.15 593.31 193.70 590.76
  Q 187.75 556.89 188.36 522.50
  Q 189.22 474.48 205.21 429.25
  Q 205.51 429.72 205.70 429.36
  A 0.20 0.18 -51.5 0 1 206.01 429.31
  Q 207.18 430.64 207.69 428.30
  Q 207.99 426.90 208.26 428.30
  Q 209.19 433.19 213.49 435.57
  Q 213.93 435.82 214.20 436.24
  Q 216.65 439.96 221.00 440.23
  A 0.83 0.83 -10.9 0 1 221.70 440.70
  L 221.89 441.09
  Q 222.05 441.44 222.26 441.11
  Q 223.09 439.80 222.73 441.79
  Q 222.26 444.42 221.79 447.06
  Q 221.58 448.27 221.99 447.82
  Q 222.18 447.61 222.15 447.88
  Q 220.19 468.06 229.09 485.40
  Q 232.79 492.61 238.58 497.78
  Q 250.40 508.34 266.53 511.61
  Q 277.33 513.80 288.80 515.32
  A 1.44 1.43 72.5 0 1 289.66 515.77
  Q 290.54 516.70 291.50 516.54
  Z"
/>
<path fill="#3aa5d1" d="
  M 849.46 435.25
  Q 850.55 449.57 840.03 457.78
  Q 838.35 459.09 835.08 460.67
  Q 832.50 461.91 829.96 463.25
  L 825.44 462.97
  Q 823.24 462.84 822.26 461.42
  Q 820.76 459.23 820.33 456.73
  Q 819.95 454.56 819.92 454.41
  Q 818.94 450.01 818.54 445.50
  Q 823.83 444.08 829.19 442.94
  Q 839.08 440.82 846.69 436.44
  Q 848.48 435.40 849.46 435.25
  Z"
/>
<path fill="#5cd0c1" d="
  M 185.50 449.71
  L 193.64 451.53
  A 1.76 1.68 11.9 0 1 195.00 453.51
  L 192.23 467.33
  Q 191.89 469.04 190.09 469.27
  Q 186.72 469.70 183.54 468.25
  Q 183.21 467.97 182.86 467.73
  Q 182.54 467.51 182.08 467.43
  Q 172.97 465.77 168.94 457.06
  Q 165.68 450.05 167.44 443.04
  A 0.84 0.78 -88.9 0 1 168.03 442.43
  Q 170.22 441.91 172.44 443.31
  Q 178.27 447.01 185.50 449.71
  Z"
/>
<path fill="#96edfe" d="
  M 771.29 518.25
  Q 771.00 517.22 771.15 518.48
  Q 771.43 520.75 768.38 519.31
  A 0.73 0.73 -65.7 0 0 767.41 519.68
  Q 760.23 536.19 746.16 544.73
  Q 735.63 551.13 723.81 547.31
  Q 715.17 544.52 710.06 537.69
  Q 707.92 534.82 705.96 533.25
  Q 708.18 518.79 714.94 504.94
  Q 720.16 494.23 728.00 486.29
  Q 738.32 475.80 752.00 477.25
  Q 763.33 478.45 767.94 489.81
  Q 773.02 502.35 771.29 518.25
  Z
  M 725.62 510.78
  Q 731.37 515.27 737.14 517.36
  Q 740.52 518.59 742.88 519.10
  Q 745.84 519.75 748.90 519.49
  Q 750.99 519.31 752.10 517.96
  Q 753.30 516.48 753.68 514.49
  Q 755.53 504.71 755.76 494.34
  Q 755.81 491.86 753.98 490.19
  Q 750.83 487.31 744.87 486.37
  Q 743.02 486.08 741.54 487.21
  Q 733.09 493.70 726.87 503.14
  Q 724.89 506.14 724.78 508.98
  A 2.18 2.16 -70.3 0 0 725.62 510.78
  Z"
/>
<path fill="#e3fefc" d="
  M 725.62 510.78
  A 2.18 2.16 -70.3 0 1 724.78 508.98
  Q 724.89 506.14 726.87 503.14
  Q 733.09 493.70 741.54 487.21
  Q 743.02 486.08 744.87 486.37
  Q 750.83 487.31 753.98 490.19
  Q 755.81 491.86 755.76 494.34
  Q 755.53 504.71 753.68 514.49
  Q 753.30 516.48 752.10 517.96
  Q 750.99 519.31 748.90 519.49
  Q 745.84 519.75 742.88 519.10
  Q 740.52 518.59 737.14 517.36
  Q 731.37 515.27 725.62 510.78
  Z"
/>
<path fill="#96edfe" d="
  M 594.29 550.25
  Q 573.58 576.42 541.15 574.76
  Q 532.69 574.32 526.08 571.99
  Q 518.66 569.37 512.44 564.56
  Q 503.24 557.45 496.41 547.33
  Q 493.08 542.40 491.94 536.56
  Q 491.67 535.22 488.96 532.25
  L 489.54 528.50
  Q 491.86 519.52 497.69 512.99
  Q 503.06 506.98 511.64 503.37
  Q 522.53 498.79 534.50 499.75
  Q 550.01 501.00 563.43 510.28
  Q 585.20 525.33 594.29 550.25
  Z
  M 515.35 538.96
  Q 516.07 539.39 518.19 540.31
  Q 527.81 544.49 537.26 548.40
  A 1.76 1.75 42.6 0 0 538.75 548.34
  Q 550.67 542.28 558.06 531.01
  Q 559.27 529.15 558.38 527.12
  Q 553.92 516.96 544.00 510.50
  Q 540.07 507.94 536.20 506.96
  Q 533.49 506.28 531.33 507.03
  Q 528.96 507.85 527.06 509.81
  Q 517.64 519.52 513.36 531.90
  Q 512.54 534.26 512.85 535.68
  Q 513.31 537.74 515.35 538.96
  Z"
/>
<path fill="#e3fefc" d="
  M 515.35 538.96
  Q 513.31 537.74 512.85 535.68
  Q 512.54 534.26 513.36 531.90
  Q 517.64 519.52 527.06 509.81
  Q 528.96 507.85 531.33 507.03
  Q 533.49 506.28 536.20 506.96
  Q 540.07 507.94 544.00 510.50
  Q 553.92 516.96 558.38 527.12
  Q 559.27 529.15 558.06 531.01
  Q 550.67 542.28 538.75 548.34
  A 1.76 1.75 42.6 0 1 537.26 548.40
  Q 527.81 544.49 518.19 540.31
  Q 516.07 539.39 515.35 538.96
  Z"
/>
<path fill="#6bcbf5" d="
  M 324.00 515.54
  Q 319.01 522.14 318.00 526.75
  Q 315.42 538.52 325.69 545.81
  Q 334.93 552.38 340.30 554.96
  Q 345.56 557.49 361.56 565.94
  Q 370.24 570.52 376.10 577.44
  Q 379.44 581.39 380.11 584.79
  Q 380.97 589.14 378.81 593.53
  Q 376.24 598.77 373.29 603.80
  Q 371.69 606.52 370.85 609.45
  Q 370.35 611.18 371.93 612.06
  Q 374.32 613.38 377.02 613.91
  Q 389.33 616.30 401.76 617.90
  Q 423.55 620.70 440.00 625.50
  Q 448.46 627.97 457.16 633.34
  Q 462.72 636.76 465.05 640.55
  Q 468.29 645.80 468.31 652.50
  Q 468.34 662.05 468.65 671.60
  Q 468.76 675.12 470.11 677.06
  Q 472.25 680.15 476.31 681.94
  Q 496.47 690.82 513.44 701.06
  Q 520.49 705.32 525.79 712.50
  Q 526.06 715.92 522.75 715.25
  Q 482.63 707.18 438.50 693.25
  Q 436.17 692.52 435.00 692.54
  Q 434.63 692.37 434.46 692.00
  Q 434.02 671.46 432.50 658.00
  Q 431.91 652.77 428.08 649.96
  Q 425.73 648.23 420.06 647.02
  Q 415.04 645.94 411.50 645.75
  Q 389.85 644.56 368.24 642.87
  Q 364.25 642.56 356.81 641.31
  Q 355.09 641.03 354.66 642.58
  A 1.56 0.70 -84.5 0 1 354.19 643.40
  Q 353.77 643.69 353.25 643.79
  L 322.25 639.21
  Q 322.26 638.96 322.42 638.77
  A 1.17 0.55 -40.5 0 0 322.73 638.08
  Q 322.65 635.30 324.52 633.28
  Q 331.98 625.22 335.06 623.31
  Q 338.99 620.88 344.50 616.75
  Q 346.38 615.34 345.49 613.44
  A 0.93 0.79 -8.2 0 0 344.75 612.97
  Q 339.64 612.62 334.75 609.75
  Q 329.75 606.82 327.80 601.89
  Q 327.04 599.99 326.83 596.49
  Q 326.67 593.75 326.51 591.00
  Q 326.21 585.61 322.19 582.04
  Q 314.06 574.82 306.19 567.31
  Q 299.97 561.39 297.19 558.30
  Q 280.29 539.57 291.50 516.54
  L 293.00 514.71
  Q 294.88 515.26 297.25 514.75
  Q 301.59 513.82 307.00 514.00
  Q 309.87 514.10 316.70 512.66
  A 0.85 0.80 64.1 0 1 317.49 512.96
  Q 319.99 516.06 324.00 515.54
  Z
  M 395.65 622.85
  Q 385.15 621.97 374.75 624.01
  Q 373.64 624.23 373.65 625.02
  A 0.67 0.53 3.1 0 0 374.25 625.55
  Q 385.66 626.63 404.75 626.50
  Q 408.31 626.48 410.32 625.49
  Q 410.78 625.26 410.30 625.04
  Q 406.31 623.20 401.99 623.06
  Q 395.85 622.87 395.65 622.85
  Z"
/>
<path fill="#78e6ff" d="
  M 771.29 518.25
  Q 770.69 530.16 765.16 540.67
  Q 753.68 562.52 728.50 563.09
  Q 718.64 563.32 709.69 557.56
  Q 706.78 555.69 706.10 552.97
  Q 704.32 545.84 705.21 538.50
  L 705.96 533.25
  Q 707.92 534.82 710.06 537.69
  Q 715.17 544.52 723.81 547.31
  Q 735.63 551.13 746.16 544.73
  Q 760.23 536.19 767.41 519.68
  A 0.73 0.73 -65.7 0 1 768.38 519.31
  Q 771.43 520.75 771.15 518.48
  Q 771.00 517.22 771.29 518.25
  Z"
/>
<path fill="#78e6ff" d="
  M 488.96 532.25
  Q 491.67 535.22 491.94 536.56
  Q 493.08 542.40 496.41 547.33
  Q 503.24 557.45 512.44 564.56
  Q 518.66 569.37 526.08 571.99
  Q 532.69 574.32 541.15 574.76
  Q 573.58 576.42 594.29 550.25
  Q 595.84 554.33 597.00 559.75
  Q 598.73 567.81 595.23 573.96
  Q 592.81 578.20 585.56 583.32
  Q 564.37 598.24 537.49 596.91
  Q 526.32 596.35 516.07 591.93
  Q 509.84 589.23 505.35 584.17
  Q 490.84 567.83 488.21 546.00
  Q 487.90 539.08 488.96 532.25
  Z"
/>
<path fill="#4eaaec" d="
  M 322.25 639.21
  L 353.25 643.79
  Q 378.88 648.23 390.50 651.25
  Q 403.47 654.63 414.74 659.56
  A 1.49 1.49 26.9 0 1 415.43 661.67
  Q 412.19 667.21 411.62 672.52
  Q 411.29 675.54 412.29 677.86
  Q 413.45 680.54 415.81 682.19
  Q 423.86 687.77 434.46 692.00
  Q 434.63 692.37 435.00 692.54
  Q 435.64 697.68 438.06 701.44
  Q 443.40 709.73 451.70 716.79
  Q 455.09 719.68 458.16 722.89
  A 0.36 0.35 -33.7 0 1 458.04 723.46
  Q 453.29 725.60 446.50 727.75
  Q 426.98 733.94 398.79 743.86
  Q 388.91 747.34 384.06 750.81
  Q 382.12 752.20 384.50 752.96
  Q 380.74 756.89 378.87 761.78
  Q 376.88 766.98 378.01 771.87
  Q 379.61 778.81 386.19 783.31
  Q 396.21 790.17 406.32 795.18
  Q 406.55 795.29 424.37 803.78
  Q 434.00 808.36 444.21 812.26
  Q 446.63 813.19 446.52 815.52
  L 446.00 826.46
  Q 444.02 827.72 442.00 827.05
  Q 439.89 826.35 439.79 826.32
  Q 435.46 825.36 424.75 822.25
  Q 399.96 815.06 388.02 810.70
  Q 371.58 804.69 356.25 796.25
  Q 355.04 795.58 350.80 793.52
  Q 348.43 792.36 345.57 790.44
  Q 341.96 788.01 338.08 786.02
  Q 335.87 784.88 333.18 783.06
  Q 330.79 781.45 328.20 780.19
  Q 326.81 779.52 325.15 778.34
  Q 323.82 777.40 322.06 776.44
  Q 319.88 775.24 317.91 773.26
  Q 315.73 771.06 313.96 769.96
  Q 301.71 762.44 291.09 752.82
  Q 286.17 748.36 280.59 743.52
  Q 275.29 738.91 270.44 733.81
  Q 269.53 732.87 266.69 731.81
  Q 265.68 731.44 265.46 732.00
  Q 243.80 708.83 225.44 678.31
  Q 212.00 655.98 204.96 634.75
  Q 199.40 615.39 194.96 595.75
  Q 195.63 595.14 196.19 595.56
  Q 218.88 612.87 245.00 622.25
  Q 255.89 626.16 269.75 629.75
  Q 290.46 635.12 322.25 639.21
  Z
  M 281.96 680.25
  L 280.77 684.80
  A 1.07 0.88 18.8 0 0 281.45 685.90
  L 302.13 694.26
  A 1.08 1.07 -74.1 0 0 303.59 693.44
  L 306.63 676.24
  A 1.14 0.78 -67.9 0 0 306.44 675.36
  Q 305.87 674.75 305.00 674.54
  Q 296.68 671.32 287.72 669.18
  A 1.43 1.38 17.3 0 0 286.08 670.00
  L 281.96 680.25
  Z
  M 317.21 690.38
  A 1.28 1.28 0.0 0 0 315.93 689.10
  A 1.28 1.28 0.0 0 0 314.65 690.38
  A 1.28 1.28 0.0 0 0 315.93 691.66
  A 1.28 1.28 0.0 0 0 317.21 690.38
  Z
  M 275.30 721.62
  L 283.27 724.76
  A 0.51 0.48 -82.5 0 0 283.92 724.23
  Q 283.56 718.73 278.24 717.36
  A 1.19 1.12 33.8 0 0 277.33 717.51
  Q 275.29 718.85 275.08 721.23
  A 0.41 0.36 -77.8 0 0 275.30 721.62
  Z"
/>
<path fill="#61c0f3" d="
  M 401.99 623.06
  Q 406.31 623.20 410.30 625.04
  Q 410.78 625.26 410.32 625.49
  Q 408.31 626.48 404.75 626.50
  Q 385.66 626.63 374.25 625.55
  A 0.67 0.53 3.1 0 1 373.65 625.02
  Q 373.64 624.23 374.75 624.01
  Q 385.15 621.97 395.65 622.85
  Q 395.85 622.87 401.99 623.06
  Z"
/>
<path fill="#61c0f3" d="
  M 434.46 692.00
  Q 423.86 687.77 415.81 682.19
  Q 413.45 680.54 412.29 677.86
  Q 411.29 675.54 411.62 672.52
  Q 412.19 667.21 415.43 661.67
  A 1.49 1.49 26.9 0 0 414.74 659.56
  Q 403.47 654.63 390.50 651.25
  Q 378.88 648.23 353.25 643.79
  Q 353.77 643.69 354.19 643.40
  A 1.56 0.70 -84.5 0 0 354.66 642.58
  Q 355.09 641.03 356.81 641.31
  Q 364.25 642.56 368.24 642.87
  Q 389.85 644.56 411.50 645.75
  Q 415.04 645.94 420.06 647.02
  Q 425.73 648.23 428.08 649.96
  Q 431.91 652.77 432.50 658.00
  Q 434.02 671.46 434.46 692.00
  Z"
/>
<path fill="#defcff" d="
  M 305.00 674.54
  Q 305.38 677.11 303.64 678.44
  Q 301.80 679.85 301.69 679.96
  Q 299.31 682.22 296.32 683.36
  Q 293.51 684.43 290.22 683.73
  Q 285.79 682.78 281.96 680.25
  L 286.08 670.00
  A 1.43 1.38 17.3 0 1 287.72 669.18
  Q 296.68 671.32 305.00 674.54
  Z"
/>
<path fill="#b9eafb" d="
  M 305.00 674.54
  Q 305.87 674.75 306.44 675.36
  A 1.14 0.78 -67.9 0 1 306.63 676.24
  L 303.59 693.44
  A 1.08 1.07 -74.1 0 1 302.13 694.26
  L 281.45 685.90
  A 1.07 0.88 18.8 0 1 280.77 684.80
  L 281.96 680.25
  Q 285.79 682.78 290.22 683.73
  Q 293.51 684.43 296.32 683.36
  Q 299.31 682.22 301.69 679.96
  Q 301.80 679.85 303.64 678.44
  Q 305.38 677.11 305.00 674.54
  Z"
/>
<circle fill="#b9eafb" cx="315.93" cy="690.38" r="1.28"/>
<path fill="#61c0f3" d="
  M 435.00 692.54
  Q 436.17 692.52 438.50 693.25
  Q 482.63 707.18 522.75 715.25
  Q 526.06 715.92 525.79 712.50
  Q 533.19 722.56 524.19 729.94
  Q 518.37 734.70 508.80 737.90
  Q 497.97 741.51 486.91 744.31
  Q 450.51 753.54 443.00 755.50
  Q 435.10 757.56 424.50 761.54
  Q 423.38 760.33 421.50 760.00
  Q 406.30 757.35 384.50 752.96
  Q 382.12 752.20 384.06 750.81
  Q 388.91 747.34 398.79 743.86
  Q 426.98 733.94 446.50 727.75
  Q 453.29 725.60 458.04 723.46
  A 0.36 0.35 -33.7 0 0 458.16 722.89
  Q 455.09 719.68 451.70 716.79
  Q 443.40 709.73 438.06 701.44
  Q 435.64 697.68 435.00 692.54
  Z"
/>
<path fill="#b9eafb" d="
  M 275.30 721.62
  A 0.41 0.36 -77.8 0 1 275.08 721.23
  Q 275.29 718.85 277.33 717.51
  A 1.19 1.12 33.8 0 1 278.24 717.36
  Q 283.56 718.73 283.92 724.23
  A 0.51 0.48 -82.5 0 1 283.27 724.76
  L 275.30 721.62
  Z"
/>
<path fill="#51a6d6" d="
  M 446.00 826.46
  Q 447.63 826.44 450.31 827.44
  Q 453.75 828.72 460.49 828.92
  Q 460.78 828.93 461.88 828.80
  Q 462.60 828.72 463.30 828.89
  Q 464.87 829.28 465.28 829.31
  Q 469.90 829.68 474.00 831.79
  Q 473.54 832.05 473.25 832.46
  Q 423.75 828.10 376.94 808.81
  Q 312.55 782.27 265.46 732.00
  Q 265.68 731.44 266.69 731.81
  Q 269.53 732.87 270.44 733.81
  Q 275.29 738.91 280.59 743.52
  Q 286.17 748.36 291.09 752.82
  Q 301.71 762.44 313.96 769.96
  Q 315.73 771.06 317.91 773.26
  Q 319.88 775.24 322.06 776.44
  Q 323.82 777.40 325.15 778.34
  Q 326.81 779.52 328.20 780.19
  Q 330.79 781.45 333.18 783.06
  Q 335.87 784.88 338.08 786.02
  Q 341.96 788.01 345.57 790.44
  Q 348.43 792.36 350.80 793.52
  Q 355.04 795.58 356.25 796.25
  Q 371.58 804.69 388.02 810.70
  Q 399.96 815.06 424.75 822.25
  Q 435.46 825.36 439.79 826.32
  Q 439.89 826.35 442.00 827.05
  Q 444.02 827.72 446.00 826.46
  Z"
/>
<path fill="#4398e4" d="
  M 384.50 752.96
  Q 406.30 757.35 421.50 760.00
  Q 423.38 760.33 424.50 761.54
  Q 415.32 765.73 410.56 773.31
  Q 408.17 777.13 409.46 782.25
  Q 410.81 786.35 414.04 789.22
  Q 420.81 795.23 429.34 798.37
  Q 435.70 800.72 442.31 802.26
  Q 457.95 805.89 473.25 810.75
  Q 474.72 811.22 476.94 812.50
  Q 479.03 813.71 480.00 815.11
  Q 482.32 818.47 480.75 822.50
  Q 478.85 827.38 474.00 831.79
  Q 469.90 829.68 465.28 829.31
  Q 464.87 829.28 463.30 828.89
  Q 462.60 828.72 461.88 828.80
  Q 460.78 828.93 460.49 828.92
  Q 453.75 828.72 450.31 827.44
  Q 447.63 826.44 446.00 826.46
  L 446.52 815.52
  Q 446.63 813.19 444.21 812.26
  Q 434.00 808.36 424.37 803.78
  Q 406.55 795.29 406.32 795.18
  Q 396.21 790.17 386.19 783.31
  Q 379.61 778.81 378.01 771.87
  Q 376.88 766.98 378.87 761.78
  Q 380.74 756.89 384.50 752.96
  Z"
/>
<path fill="#3aa5d1" d="
  M 715.50 760.79
  Q 715.11 762.75 715.02 764.75
  Q 714.47 777.05 706.46 786.25
  Q 704.66 786.09 704.81 783.94
  Q 705.59 772.95 705.93 768.82
  Q 705.94 768.76 706.52 765.87
  Q 707.00 763.48 705.50 761.46
  Q 710.17 757.73 715.50 760.79
  Z"
/>
<path fill="#4ec6d0" d="
  M 705.50 761.46
  Q 707.00 763.48 706.52 765.87
  Q 705.94 768.76 705.93 768.82
  Q 705.59 772.95 704.81 783.94
  Q 704.66 786.09 706.46 786.25
  Q 703.57 789.90 698.84 791.04
  Q 697.00 791.48 695.34 790.57
  Q 691.68 788.55 689.07 784.94
  Q 687.28 782.47 685.00 780.46
  Q 685.06 779.63 684.56 778.44
  Q 683.37 775.61 685.86 773.58
  Q 694.87 766.23 705.50 761.46
  Z"
/>
<path fill="#cefbfe" d="
  M 539.25 796.24
  A 0.40 0.36 29.5 0 1 539.05 795.64
  L 542.60 791.55
  A 1.86 1.69 30.0 0 1 544.60 791.12
  L 553.73 794.62
  Q 554.26 794.82 553.80 795.13
  L 549.19 798.26
  A 1.52 1.04 23.6 0 1 548.25 798.44
  Q 543.72 797.87 539.25 796.24
  Z"
/>
</svg>
