
<svg xmlns="http://www.w3.org/2000/svg" version="1.1" viewBox="0 0 1024 1024">
<g stroke-width="2.00" fill="none" stroke-linecap="butt">
<path stroke="#ffd3c8" vector-effect="non-scaling-stroke" d="
  M 437.71 178.25
  Q 433.01 180.07 428.00 180.79"
/>
<path stroke="#ffd6ce" vector-effect="non-scaling-stroke" d="
  M 428.00 180.79
  Q 338.21 201.07 269.72 262.22
  Q 222.90 304.03 194.46 360.00"
/>
<path stroke="#ffd3c8" vector-effect="non-scaling-stroke" d="
  M 194.46 360.00
  Q 177.67 392.83 168.50 430.25
  Q 160.66 462.26 160.04 493.50"
/>
<path stroke="#ffd1c4" vector-effect="non-scaling-stroke" d="
  M 160.04 493.50
  L 159.79 501.50"
/>
<path stroke="#febdb1" vector-effect="non-scaling-stroke" d="
  M 159.79 501.50
  Q 159.80 502.45 159.25 503.21"
/>
<path stroke="#908f99" vector-effect="non-scaling-stroke" d="
  M 159.25 503.21
  Q 150.16 514.12 145.00 529.00
  Q 142.24 536.96 140.72 543.36
  Q 139.16 549.98 138.98 552.67
  Q 138.65 557.65 140.56 562.19
  Q 145.69 574.35 154.00 588.00
  Q 160.58 598.83 167.08 609.72
  Q 173.95 621.23 176.51 627.33
  Q 181.46 639.07 183.31 651.76
  Q 185.03 663.64 185.04 663.68
  Q 187.25 675.87 189.99 687.95
  Q 192.07 697.08 197.44 703.31
  Q 204.49 711.50 215.12 718.91
  Q 220.33 722.55 225.69 725.96
  Q 229.78 728.57 232.58 731.41
  Q 235.28 734.14 238.69 737.81
  Q 274.37 776.27 320.12 803.35
  Q 323.15 805.14 324.94 807.56
  Q 332.29 817.49 340.60 824.88
  Q 347.40 830.93 355.25 832.75
  Q 364.14 834.81 375.25 834.57
  Q 378.64 834.49 382.03 834.51
  Q 385.31 834.54 388.69 835.51
  Q 420.74 844.77 453.65 849.73
  Q 455.34 849.99 456.68 851.05
  Q 470.13 861.76 484.83 870.70
  Q 486.76 871.87 488.91 871.20
  Q 509.24 864.86 527.29 853.36
  Q 529.02 852.25 531.03 852.12
  Q 571.11 849.37 610.04 839.64
  Q 614.47 838.53 619.08 838.31
  Q 637.49 837.43 657.75 834.50
  Q 667.26 833.12 675.80 830.58
  Q 684.32 828.04 689.49 824.52
  Q 695.78 820.22 700.29 813.78
  Q 704.52 807.74 708.38 801.45
  Q 709.66 799.36 712.31 797.56
  Q 767.82 760.02 807.46 706.21
  Q 808.59 704.67 810.30 703.82
  Q 825.41 696.32 838.45 685.67
  Q 843.67 681.41 845.75 674.50
  Q 852.26 652.87 855.66 632.73
  Q 856.09 630.15 858.31 627.56
  Q 865.41 619.30 879.71 601.32
  Q 879.76 601.25 880.96 599.86
  Q 883.62 596.77 883.48 593.05
  Q 883.37 590.38 880.79 585.98
  Q 875.85 577.57 869.59 569.47
  A 0.98 0.97 44.2 0 1 869.57 568.30
  Q 880.00 553.87 887.93 537.93
  Q 889.68 534.40 891.56 528.56
  Q 893.77 521.70 891.49 515.38
  Q 883.60 493.51 872.24 473.23
  Q 870.94 470.91 870.19 466.81
  Q 855.46 386.38 808.51 318.34
  Q 806.26 315.08 805.01 311.56
  Q 793.74 279.87 786.47 247.01
  Q 785.37 242.04 784.08 237.12
  Q 782.97 232.92 781.03 231.16
  Q 778.34 228.72 774.00 228.00
  Q 764.35 226.41 760.75 226.27
  Q 737.35 225.38 714.06 229.28
  A 2.53 2.50 -29.9 0 1 712.05 228.75
  Q 703.59 221.79 694.73 214.54
  Q 692.07 212.36 691.19 210.56
  Q 685.08 198.13 677.90 179.49
  Q 676.18 175.04 674.96 173.85
  Q 672.52 171.47 668.25 172.00
  Q 645.51 174.81 619.89 175.72
  Q 619.77 175.72 618.13 175.83
  Q 615.53 176.01 613.81 175.19
  Q 597.39 167.35 580.78 159.94
  Q 577.94 158.67 574.95 158.57
  Q 572.35 158.48 569.33 160.01
  Q 563.19 163.10 558.06 167.68
  Q 556.05 169.48 555.34 171.49
  Q 554.55 173.76 554.54 176.25"
/>
<path stroke="#febdb1" vector-effect="non-scaling-stroke" d="
  M 554.54 176.25
  Q 553.71 176.69 552.74 176.56
  Q 543.15 175.31 533.50 174.54"
/>
<path stroke="#ffd1c4" vector-effect="non-scaling-stroke" d="
  M 533.50 174.54
  Q 525.29 173.41 517.00 173.54"
/>
<path stroke="#ffd3c8" vector-effect="non-scaling-stroke" d="
  M 517.00 173.54
  Q 516.15 173.64 515.50 173.21"
/>
<path stroke="#908f99" vector-effect="non-scaling-stroke" d="
  M 515.50 173.21
  Q 514.68 170.06 511.92 168.35
  Q 494.51 157.51 476.64 149.14
  Q 474.44 148.11 472.32 149.31
  Q 457.56 157.65 444.94 168.94
  Q 440.87 172.58 437.71 178.25"
/>
<path stroke="#906362" vector-effect="non-scaling-stroke" d="
  M 515.50 173.21
  L 497.75 172.96"
/>
<path stroke="#292338" vector-effect="non-scaling-stroke" d="
  M 497.75 172.96
  Q 496.59 172.10 495.72 170.98
  Q 494.71 169.67 493.72 169.09
  Q 484.87 163.87 475.39 159.79
  A 2.58 2.56 -47.8 0 0 473.14 159.91
  Q 465.24 164.31 458.08 170.08
  Q 458.04 170.12 454.55 172.43
  Q 452.19 174.00 451.00 176.71"
/>
<path stroke="#906362" vector-effect="non-scaling-stroke" d="
  M 451.00 176.71
  Q 445.10 177.81 439.15 178.52
  Q 439.03 178.54 438.52 178.71
  Q 437.98 178.89 437.71 178.25"
/>
<path stroke="#976767" vector-effect="non-scaling-stroke" d="
  M 497.75 172.96
  Q 474.25 173.26 451.00 176.71"
/>
<path stroke="#fea58d" vector-effect="non-scaling-stroke" d="
  M 517.00 173.54
  Q 516.79 174.96 515.55 175.07
  A 0.98 0.82 9.6 0 0 514.81 175.50
  Q 511.03 182.36 510.75 190.25
  Q 510.70 191.75 509.21 196.00"
/>
<path stroke="#af7678" vector-effect="non-scaling-stroke" d="
  M 509.21 196.00
  Q 506.66 194.00 503.43 194.90
  Q 497.31 196.61 493.30 201.53
  Q 490.96 204.40 491.00 207.25
  Q 491.06 211.60 494.49 212.52
  Q 496.79 213.14 499.87 211.83
  Q 505.53 209.41 508.96 204.00"
/>
<path stroke="#fea58d" vector-effect="non-scaling-stroke" d="
  M 508.96 204.00
  Q 511.54 209.05 507.09 212.14
  Q 502.37 215.41 495.99 213.90
  Q 493.89 213.40 492.62 215.14
  Q 491.92 216.11 490.42 217.15
  Q 489.68 217.67 488.26 219.09
  Q 486.94 220.41 484.56 221.56
  Q 481.35 223.12 479.43 226.20
  Q 478.30 228.01 476.23 228.52
  Q 474.30 228.99 472.84 230.95
  Q 471.47 232.79 471.42 232.85
  Q 466.26 238.89 460.26 244.11
  Q 458.72 245.46 457.58 247.57
  Q 456.00 250.51 453.78 252.98
  Q 451.04 256.04 449.82 258.00
  Q 447.97 260.95 446.03 263.83
  A 1.15 1.02 10.3 0 1 445.25 264.30
  Q 443.21 264.59 442.56 266.06
  Q 440.83 270.00 438.01 272.12
  Q 434.42 274.83 434.37 274.88
  Q 428.82 280.21 424.84 286.82
  Q 424.30 287.72 423.32 288.87
  Q 422.47 289.86 421.81 290.98
  Q 420.51 293.17 419.66 294.10
  Q 411.32 303.18 403.69 308.69
  Q 397.84 312.90 393.90 316.62
  Q 392.39 318.05 390.12 319.16
  Q 383.97 322.17 380.82 328.34
  Q 380.02 329.91 379.11 330.70
  Q 377.98 331.67 376.70 332.43
  A 1.08 1.05 34.8 0 1 375.92 332.56
  Q 372.49 331.87 370.96 334.25"
/>
<path stroke="#fd917a" vector-effect="non-scaling-stroke" d="
  M 370.96 334.25
  Q 362.64 332.70 355.50 332.50
  Q 347.12 332.26 339.54 335.33
  Q 332.11 338.35 327.12 343.80
  Q 321.90 349.51 319.63 357.33
  Q 317.19 365.74 317.32 374.50
  Q 317.54 389.52 318.79 404.50"
/>
<path stroke="#fea58d" vector-effect="non-scaling-stroke" d="
  M 318.79 404.50
  Q 318.76 406.65 317.13 407.59
  A 1.68 1.15 24.5 0 1 316.20 407.75
  Q 311.99 407.30 309.02 410.52
  Q 306.60 413.13 303.99 415.54
  Q 303.61 415.89 300.63 417.95
  Q 299.19 418.95 297.44 420.69
  Q 294.99 423.11 289.55 426.11
  Q 284.54 428.87 281.37 431.02
  Q 276.51 434.30 271.55 437.43
  Q 270.63 438.01 268.22 439.26
  Q 265.89 440.46 265.12 441.50
  Q 262.92 444.48 259.23 444.93
  Q 252.93 445.70 247.82 449.20
  Q 246.05 450.41 244.49 450.71
  Q 241.97 451.20 240.75 451.00
  Q 237.28 450.44 235.60 453.60
  Q 234.78 455.14 233.31 456.07
  Q 230.71 457.69 228.43 459.74
  Q 227.76 460.34 227.31 460.42
  Q 226.32 460.59 226.31 459.03
  Q 226.31 458.56 225.99 458.95
  L 223.82 461.62
  A 1.26 0.51 4.0 0 1 222.93 461.91
  Q 221.90 461.96 220.19 462.69
  Q 215.15 464.82 210.31 467.31
  Q 208.11 468.45 204.79 467.57
  Q 204.39 467.47 203.96 467.07
  Q 202.70 465.89 200.97 466.35
  A 1.49 1.49 -41.2 0 1 200.05 466.29
  Q 198.28 465.58 196.50 466.50
  Q 195.62 466.95 193.01 466.79
  A 1.73 1.32 -52.6 0 0 192.09 467.04
  Q 190.73 467.87 189.75 466.75
  Q 187.18 463.81 185.73 466.09
  Q 184.57 467.91 182.41 467.73
  Q 174.23 467.03 167.26 470.35
  A 0.77 0.75 76.7 0 0 166.83 471.07
  Q 167.02 476.72 165.86 482.26
  A 1.57 1.36 -17.4 0 1 165.36 483.07
  Q 162.84 485.23 161.58 488.33
  Q 161.45 488.66 161.39 489.08
  Q 160.98 492.07 160.62 489.54
  Q 160.61 489.45 160.60 489.53
  L 160.04 493.50"
/>
<path stroke="#feaa97" vector-effect="non-scaling-stroke" d="
  M 194.46 360.00
  Q 194.76 360.23 195.02 359.90
  Q 195.23 359.64 195.17 359.97
  Q 194.87 361.48 194.13 362.85
  Q 193.38 364.23 194.30 363.94
  A 0.62 0.55 -22.7 0 1 195.00 364.18
  Q 197.07 367.88 196.50 371.25
  Q 195.37 377.97 196.14 383.42
  Q 196.65 386.93 196.94 387.97
  Q 197.64 390.43 199.56 391.94
  Q 201.28 393.28 202.02 394.56
  A 0.88 0.86 74.9 0 0 202.75 394.99
  L 204.04 395.00"
/>
<path stroke="#feb7a1" vector-effect="non-scaling-stroke" d="
  M 204.04 395.00
  Q 200.87 400.74 198.76 406.91
  Q 197.73 409.92 198.18 411.69
  Q 199.04 415.08 203.69 413.94
  Q 205.81 413.42 212.10 409.54
  Q 231.42 397.64 249.73 384.25
  Q 295.28 350.94 337.52 313.51
  Q 338.46 312.68 339.34 312.55
  Q 340.39 312.41 341.50 312.71"
/>
<path stroke="#a16d6d" vector-effect="non-scaling-stroke" d="
  M 341.50 312.71
  Q 343.96 317.12 348.44 316.19
  Q 356.91 314.41 360.00 305.50
  Q 361.90 300.03 356.50 297.21"
/>
<path stroke="#feb7a1" vector-effect="non-scaling-stroke" d="
  M 356.50 297.21
  Q 362.77 291.50 369.19 285.97
  Q 390.52 267.59 410.70 247.95
  Q 420.89 238.03 428.81 226.27
  Q 430.55 223.69 431.19 221.89
  Q 432.23 218.99 431.69 216.81
  Q 430.91 213.69 426.71 213.00"
/>
<path stroke="#feaa97" vector-effect="non-scaling-stroke" d="
  M 426.71 213.00
  Q 425.88 211.82 426.44 210.66
  Q 426.59 210.34 427.39 209.67
  Q 427.95 209.20 428.25 208.54"
/>
<path stroke="#b4787b" vector-effect="non-scaling-stroke" d="
  M 428.25 208.54
  Q 435.21 206.72 437.96 200.71
  Q 439.53 197.29 438.02 194.79
  Q 436.12 191.66 431.04 192.75"
/>
<path stroke="#feaa97" vector-effect="non-scaling-stroke" d="
  M 431.04 192.75
  Q 430.02 191.59 428.50 191.25
  Q 426.52 190.80 426.75 189.00
  L 427.40 183.97
  A 0.58 0.52 17.1 0 0 427.06 183.41
  Q 426.17 183.00 427.45 182.76
  A 0.29 0.25 66.6 0 0 427.59 182.33
  Q 427.14 181.66 428.00 180.79"
/>
<path stroke="#a17d7d" vector-effect="non-scaling-stroke" d="
  M 356.50 297.21
  Q 353.30 296.12 350.28 297.55
  Q 344.74 300.18 341.81 305.56
  Q 340.19 308.54 341.50 312.71"
/>
<path stroke="#a47e81" vector-effect="non-scaling-stroke" d="
  M 249.50 336.96
  Q 253.19 341.06 258.21 341.61
  Q 261.76 341.99 266.10 340.24
  Q 269.89 338.71 273.18 336.18
  Q 282.43 329.05 287.56 318.56
  Q 293.36 306.69 289.71 292.25"
/>
<path stroke="#fd8f76" vector-effect="non-scaling-stroke" d="
  M 533.50 174.54
  Q 534.14 178.13 535.87 181.35
  Q 543.13 194.80 547.94 209.31
  Q 549.40 213.73 549.27 218.90
  Q 549.17 223.06 547.43 225.73
  Q 545.50 228.71 542.06 230.81
  Q 535.44 234.87 531.23 236.78
  Q 520.22 241.76 509.16 246.63
  Q 487.49 256.17 467.94 269.50
  Q 455.50 277.98 448.81 286.06
  Q 438.52 298.50 435.51 316.75
  Q 431.74 339.69 408.24 340.25
  Q 402.29 340.40 396.43 339.38
  Q 383.63 337.15 370.96 334.25"
/>
<path stroke="#af7474" vector-effect="non-scaling-stroke" d="
  M 508.96 204.00
  Q 511.97 199.99 509.21 196.00"
/>
<path stroke="#b47b80" vector-effect="non-scaling-stroke" d="
  M 431.04 192.75
  Q 428.03 193.70 425.06 195.81
  Q 421.64 198.26 420.92 201.96
  Q 420.31 205.13 422.13 207.17
  Q 424.23 209.53 428.25 208.54"
/>
<path stroke="#febaa7" vector-effect="non-scaling-stroke" d="
  M 426.71 213.00
  Q 420.37 212.30 417.25 213.00
  Q 390.37 219.07 369.56 231.31
  Q 349.74 242.98 331.53 257.03
  Q 309.87 273.75 289.71 292.25"
/>
<path stroke="#a47177" vector-effect="non-scaling-stroke" d="
  M 289.71 292.25
  Q 288.96 289.41 287.04 287.25"
/>
<path stroke="#af797d" vector-effect="non-scaling-stroke" d="
  M 287.04 287.25
  Q 282.06 281.02 274.50 282.50
  Q 264.78 284.41 256.98 291.98
  Q 244.67 303.92 244.25 321.25
  Q 244.18 324.28 245.25 327.79"
/>
<path stroke="#a47177" vector-effect="non-scaling-stroke" d="
  M 245.25 327.79
  Q 246.25 332.90 249.50 336.96"
/>
<path stroke="#febaa7" vector-effect="non-scaling-stroke" d="
  M 249.50 336.96
  Q 248.32 337.16 247.69 338.09
  Q 246.83 339.33 246.75 339.42
  Q 231.13 356.25 217.40 374.66
  Q 210.12 384.43 204.04 395.00"
/>
<path stroke="#ae5f60" vector-effect="non-scaling-stroke" d="
  M 554.79 176.75
  Q 553.33 194.54 561.04 210.45
  Q 563.68 215.89 566.03 221.45
  Q 568.11 226.38 567.76 231.75
  Q 567.50 235.54 565.48 238.42
  Q 564.04 240.49 560.36 242.84
  Q 552.78 247.69 543.50 251.00
  Q 530.82 255.52 497.00 268.75
  Q 482.83 274.30 473.81 286.06
  Q 467.60 294.17 469.52 303.70
  Q 470.12 306.68 472.25 310.93
  Q 474.31 315.04 476.06 317.69
  Q 480.60 324.54 482.27 331.91
  Q 483.40 336.90 482.67 340.63
  Q 481.80 345.08 478.70 348.71
  Q 474.77 353.32 470.31 356.31
  Q 464.00 360.55 456.81 364.22
  Q 446.90 369.28 442.61 370.45
  Q 437.42 371.87 431.98 371.50
  Q 427.95 371.23 421.79 368.91
  Q 401.64 361.32 382.16 352.12
  Q 375.37 348.92 368.20 346.82
  Q 363.32 345.39 360.17 346.06
  Q 355.69 347.03 353.06 350.81
  Q 348.63 357.20 347.36 367.32
  Q 345.28 383.95 344.86 400.69
  Q 344.48 415.73 344.47 415.81
  Q 343.91 431.62 343.43 447.44
  Q 343.15 456.51 342.05 465.51
  Q 339.68 485.00 323.13 495.17
  Q 308.91 503.92 297.69 509.19
  Q 286.53 514.42 277.28 522.52
  Q 269.64 529.20 268.62 539.20
  Q 268.31 542.19 268.30 542.30
  Q 268.03 544.43 267.80 546.57
  Q 267.41 550.16 266.69 552.31
  Q 263.79 561.05 256.52 567.01
  Q 254.09 569.00 251.08 568.12
  Q 248.16 567.28 245.56 565.69
  Q 242.25 563.66 232.88 554.67
  Q 229.84 551.75 227.53 549.93
  Q 223.77 546.95 221.69 545.81
  Q 212.00 540.50 201.78 543.35
  Q 199.97 543.86 198.74 542.45
  Q 187.12 529.28 173.94 519.31
  Q 168.17 514.95 160.25 513.96"
/>
<path stroke="#fd8f75" vector-effect="non-scaling-stroke" d="
  M 159.79 501.50
  Q 161.14 498.04 164.50 498.75
  Q 172.97 500.54 180.10 507.65
  Q 182.10 509.65 184.19 511.55
  Q 186.16 513.35 188.96 514.45
  Q 194.78 516.74 196.94 518.31
  Q 199.37 520.09 206.56 524.69
  Q 211.47 527.83 216.33 529.20
  Q 218.72 529.88 220.35 529.60
  Q 222.36 529.27 224.19 527.94
  Q 228.75 524.62 231.81 520.81
  Q 245.19 504.21 263.57 493.68
  Q 271.69 489.04 271.71 489.03
  Q 279.57 484.27 287.28 479.26
  Q 311.47 463.53 317.44 435.19
  Q 320.24 421.87 318.79 404.50"
/>
<path stroke="#553d58" vector-effect="non-scaling-stroke" d="
  M 287.04 287.25
  Q 286.00 289.12 285.94 290.94
  Q 285.66 299.37 281.74 306.46
  Q 276.94 315.16 270.24 322.48
  Q 265.78 327.36 259.96 330.48
  Q 254.39 333.46 248.71 330.96
  A 1.34 1.10 87.1 0 1 248.08 330.27
  Q 247.50 328.81 246.31 327.76
  A 0.51 0.34 -40.9 0 0 245.77 327.83
  Q 245.55 328.00 245.25 327.79"
/>
<path stroke="#8f4d4b" vector-effect="non-scaling-stroke" d="
  M 159.25 503.21
  Q 159.96 504.80 159.75 507.00
  Q 159.45 510.15 160.25 513.96"
/>
<path stroke="#403149" vector-effect="non-scaling-stroke" d="
  M 160.25 513.96
  Q 159.99 514.13 159.77 514.34
  Q 159.57 514.53 159.46 514.85
  Q 154.30 529.46 150.33 544.45
  Q 150.30 544.55 149.48 547.41
  Q 148.14 552.02 148.75 555.25
  Q 149.42 558.82 153.31 566.69
  Q 158.09 576.35 171.65 598.32
  Q 178.24 608.98 181.36 615.79
  Q 186.81 627.68 190.50 640.29"
/>
<path stroke="#362a42" vector-effect="non-scaling-stroke" d="
  M 190.50 640.29
  Q 191.01 643.54 191.51 646.79
  Q 194.08 663.48 198.55 679.75
  Q 201.45 690.28 202.77 693.14
  Q 205.82 699.78 211.56 704.44
  Q 221.23 712.27 234.69 720.31
  Q 237.10 721.75 241.21 726.50"
/>
<path stroke="#3b2f47" vector-effect="non-scaling-stroke" d="
  M 241.21 726.50
  Q 256.54 743.49 274.00 758.29"
/>
<path stroke="#352b42" vector-effect="non-scaling-stroke" d="
  M 274.00 758.29
  Q 299.99 781.17 329.85 798.71
  Q 334.68 801.55 337.83 806.18
  Q 339.63 808.83 343.31 813.19
  Q 347.24 817.84 352.25 820.54
  Q 356.45 822.81 363.09 823.86
  Q 368.74 824.76 374.50 824.77
  Q 378.50 824.78 382.50 824.99
  Q 386.22 825.18 390.32 826.42
  Q 423.69 836.52 458.25 841.29"
/>
<path stroke="#292338" vector-effect="non-scaling-stroke" d="
  M 458.25 841.29
  Q 459.71 841.34 460.74 842.26
  Q 472.66 852.84 487.40 861.26
  Q 488.86 862.10 490.42 861.49
  Q 502.85 856.64 514.99 849.80
  Q 516.76 848.80 518.58 847.18
  Q 520.24 845.68 522.00 844.29"
/>
<path stroke="#352b42" vector-effect="non-scaling-stroke" d="
  M 522.00 844.29
  L 544.00 842.21"
/>
<path stroke="#2d263c" vector-effect="non-scaling-stroke" d="
  M 544.00 842.21
  Q 575.55 838.57 606.39 831.08
  Q 611.81 829.77 617.26 829.36
  Q 630.18 828.41 643.05 826.99
  Q 647.87 826.46 666.50 823.00
  Q 676.02 821.23 683.29 816.93
  Q 687.53 814.42 691.06 809.84
  Q 695.19 804.48 698.42 798.49
  Q 700.24 795.11 704.06 792.81
  Q 712.55 787.72 721.19 781.00
  Q 726.23 777.09 736.73 768.42
  Q 773.85 737.78 802.29 698.75"
/>
<path stroke="#292338" vector-effect="non-scaling-stroke" d="
  M 802.29 698.75
  Q 806.58 694.87 811.72 692.20
  Q 819.42 688.21 826.56 683.31
  Q 834.97 677.55 838.31 669.31
  Q 841.62 661.16 845.00 646.00
  Q 846.68 638.46 846.95 633.16
  Q 846.98 632.57 846.45 629.42
  Q 846.01 626.82 847.81 624.81
  Q 860.98 610.16 873.10 594.80
  Q 874.11 593.51 873.58 591.96
  Q 872.53 588.96 871.09 586.62
  Q 865.31 577.28 858.81 568.43
  A 0.94 0.93 45.3 0 1 858.81 567.32
  Q 869.33 553.05 877.69 537.44
  Q 880.51 532.16 882.65 525.47
  Q 883.47 522.89 883.21 521.06
  Q 882.90 518.95 881.81 516.69
  Q 880.91 514.79 878.21 507.50"
/>
<path stroke="#2d263c" vector-effect="non-scaling-stroke" d="
  M 878.21 507.50
  Q 872.09 491.79 864.31 476.83
  Q 863.22 474.74 862.73 472.90
  Q 862.17 470.84 861.78 468.74
  Q 855.17 433.18 842.00 399.50
  Q 827.47 362.34 808.01 333.31
  Q 803.24 326.20 798.48 319.07
  Q 795.24 314.21 793.34 308.68
  Q 783.20 279.26 776.89 248.77
  Q 775.98 244.35 774.74 239.98
  Q 774.14 237.85 771.97 237.45
  Q 755.65 234.42 739.00 235.89
  Q 732.90 236.43 727.97 236.91
  Q 722.46 237.44 717.00 238.48
  Q 714.35 238.99 712.00 240.29"
/>
<path stroke="#362a42" vector-effect="non-scaling-stroke" d="
  M 712.00 240.29
  Q 699.15 228.96 685.88 218.14
  Q 682.80 215.63 681.56 212.94
  Q 674.62 197.84 668.92 182.93
  A 1.48 1.48 -13.7 0 0 667.37 181.99
  Q 643.07 184.69 616.70 185.57
  Q 614.90 185.63 613.23 184.95
  Q 599.67 179.47 585.89 172.92
  Q 580.32 170.27 575.16 168.48
  Q 573.62 167.94 572.20 168.75
  L 560.00 175.71"
/>
<path stroke="#403149" vector-effect="non-scaling-stroke" d="
  M 560.00 175.71
  L 554.79 176.75"
/>
<path stroke="#8f4d4b" vector-effect="non-scaling-stroke" d="
  M 554.79 176.75
  Q 554.81 176.34 554.54 176.25"
/>
<path stroke="#698da1" vector-effect="non-scaling-stroke" d="
  M 698.79 514.00
  L 696.29 511.00"
/>
<path stroke="#799aa2" vector-effect="non-scaling-stroke" d="
  M 696.29 511.00
  Q 680.89 492.91 656.99 490.86
  Q 644.46 489.78 632.75 494.26
  Q 610.22 502.88 597.87 523.57
  Q 589.42 537.74 589.50 553.75
  Q 589.58 570.74 600.00 584.54"
/>
<path stroke="#698da1" vector-effect="non-scaling-stroke" d="
  M 600.00 584.54
  Q 609.85 598.14 625.73 603.80
  Q 638.09 608.21 651.25 608.04"
/>
<path stroke="#5a415c" vector-effect="non-scaling-stroke" d="
  M 546.75 695.54
  L 544.79 695.75"
/>
<path stroke="#694965" vector-effect="non-scaling-stroke" d="
  M 544.79 695.75
  Q 541.17 693.91 537.07 694.62
  Q 531.27 695.62 525.50 696.75
  Q 521.55 697.52 516.14 697.31
  Q 510.90 697.10 507.55 695.74
  Q 503.12 693.93 500.31 690.44
  Q 493.91 682.46 487.45 674.53
  Q 478.38 663.41 466.06 656.87
  Q 456.59 651.84 447.19 650.61
  Q 434.91 649.01 422.74 653.33
  Q 411.00 657.50 401.44 664.44
  Q 388.77 673.63 377.06 685.56
  Q 363.09 699.81 340.25 719.46"
/>
<path stroke="#5a415c" vector-effect="non-scaling-stroke" d="
  M 340.25 719.46
  Q 339.59 719.36 339.21 719.75"
/>
<path stroke="#553c58" vector-effect="non-scaling-stroke" d="
  M 339.21 719.75
  Q 328.60 716.99 326.69 716.56
  Q 306.56 712.02 287.34 704.67
  Q 277.67 700.97 269.10 696.51
  Q 259.18 691.34 249.78 685.24
  Q 230.45 672.67 212.17 658.63
  Q 201.61 650.51 194.94 643.56
  Q 192.51 641.03 190.50 640.29"
/>
<path stroke="#3c2f47" vector-effect="non-scaling-stroke" d="
  M 522.00 844.29
  Q 495.99 845.51 470.05 843.44
  Q 467.59 843.24 465.49 842.85
  Q 461.99 842.21 461.00 841.75
  Q 459.39 841.01 458.25 841.29"
/>
<path stroke="#4f3a56" vector-effect="non-scaling-stroke" d="
  M 339.21 719.75
  Q 338.35 720.99 337.18 721.92
  Q 328.01 729.20 316.39 732.27
  Q 313.92 732.92 311.60 731.83
  Q 306.95 729.64 301.61 726.61
  Q 293.13 721.80 283.58 721.11
  Q 281.56 720.97 275.97 721.67
  Q 268.84 722.57 261.77 720.68
  Q 258.96 719.93 256.81 720.06
  Q 249.51 720.53 242.56 724.31
  Q 241.46 724.91 241.21 726.50"
/>
<path stroke="#42314b" vector-effect="non-scaling-stroke" d="
  M 712.00 240.29
  Q 715.54 245.10 716.75 251.75
  Q 717.42 255.44 720.57 269.38
  Q 723.03 280.30 725.04 286.86
  Q 734.15 316.51 751.02 342.72
  Q 766.62 366.96 789.06 382.94
  Q 800.11 390.81 814.39 396.33
  Q 814.48 396.36 816.65 397.01
  Q 818.57 397.58 819.83 399.00
  Q 820.85 400.16 821.64 403.19
  Q 825.03 416.36 829.48 429.22
  Q 833.32 440.32 836.38 451.67
  Q 840.48 466.87 841.88 482.49
  Q 842.72 491.80 843.02 502.00
  Q 843.31 511.99 842.57 521.56
  Q 842.43 523.39 840.84 524.31
  Q 791.66 552.79 777.39 607.24
  Q 773.75 621.13 773.90 635.50
  Q 774.00 644.75 774.00 654.00
  Q 773.99 670.79 763.15 683.42
  Q 754.32 693.71 744.44 700.69
  Q 729.22 711.44 710.57 720.83
  Q 689.10 731.65 667.32 741.83
  Q 649.64 750.09 632.25 758.96"
/>
<path stroke="#4f3a56" vector-effect="non-scaling-stroke" d="
  M 632.25 758.96
  Q 626.89 745.73 614.48 739.21
  Q 614.43 739.19 611.82 738.08
  Q 607.93 736.43 606.44 732.23
  Q 605.41 729.34 602.94 728.56
  Q 594.00 725.73 585.19 722.56
  Q 576.50 719.43 570.14 713.03
  Q 564.78 707.64 564.73 707.60
  Q 559.69 703.19 555.19 700.81
  Q 549.67 697.90 546.75 695.54"
/>
<path stroke="#553c58" vector-effect="non-scaling-stroke" d="
  M 546.75 695.54
  Q 560.27 688.59 562.69 687.19
  Q 594.01 668.92 623.19 642.44
  Q 638.17 628.84 651.69 611.15
  A 1.13 0.64 66.5 0 0 651.78 610.29
  L 651.25 608.04"
/>
<path stroke="#5f869a" vector-effect="non-scaling-stroke" d="
  M 651.25 608.04
  Q 678.12 606.36 694.56 587.06
  Q 709.42 569.62 709.75 548.00
  Q 710.02 529.97 698.79 514.00"
/>
<path stroke="#553c58" vector-effect="non-scaling-stroke" d="
  M 698.79 514.00
  L 699.60 513.77
  A 0.90 0.70 88.7 0 0 700.13 513.06
  Q 702.88 492.72 704.27 472.25
  Q 704.53 468.32 704.52 464.38
  Q 704.51 461.39 705.05 456.55
  Q 705.69 450.88 704.78 445.25
  Q 704.03 440.59 704.00 437.67
  Q 703.82 419.96 700.75 401.75
  Q 683.35 298.68 611.19 224.06
  Q 584.03 195.98 560.00 175.71"
/>
<path stroke="#352a41" vector-effect="non-scaling-stroke" d="
  M 878.21 507.50
  Q 866.11 513.37 853.79 518.76
  Q 848.87 520.91 844.09 524.17
  Q 842.61 525.19 843.20 526.88
  Q 849.46 544.88 854.77 562.54
  Q 854.95 563.14 856.56 567.76
  Q 857.83 571.43 857.50 573.25
  Q 852.22 601.99 840.94 628.92
  Q 840.61 629.69 839.17 632.31
  Q 838.35 633.79 837.56 635.81
  Q 834.78 642.89 829.37 655.27
  Q 821.41 673.44 808.50 688.51
  Q 806.46 690.90 804.74 693.51
  Q 804.67 693.62 803.13 695.37
  Q 801.94 696.71 802.29 698.75"
/>
<path stroke="#41324b" vector-effect="non-scaling-stroke" d="
  M 544.00 842.21
  Q 548.87 828.20 556.96 815.75"
/>
<path stroke="#473650" vector-effect="non-scaling-stroke" d="
  M 556.96 815.75
  Q 569.91 795.97 587.81 783.31
  Q 607.38 769.48 632.25 758.96"
/>
<path stroke="#4e3b56" vector-effect="non-scaling-stroke" d="
  M 556.96 815.75
  Q 555.78 815.85 554.64 815.71
  Q 553.38 815.55 552.38 815.81
  Q 547.43 817.10 539.25 818.00
  Q 460.69 826.65 386.77 804.44
  Q 348.41 792.92 312.40 775.38
  Q 301.52 770.08 290.56 764.94
  Q 281.80 760.83 278.56 758.44
  Q 276.10 756.62 274.00 758.29"
/>
<path stroke="#83e4e5" vector-effect="non-scaling-stroke" d="
  M 696.29 511.00
  Q 696.04 512.25 695.43 511.61
  Q 695.03 511.20 694.87 511.09
  Q 690.79 508.28 685.75 508.53
  Q 679.40 508.85 673.25 510.54"
/>
<path stroke="#aaf5e5" vector-effect="non-scaling-stroke" d="
  M 673.25 510.54
  Q 664.90 499.64 650.50 499.25
  Q 636.43 498.87 624.73 505.26
  Q 618.48 508.67 614.66 514.67
  Q 611.92 518.96 612.69 523.42
  Q 613.29 526.97 616.83 530.69
  Q 622.54 536.69 630.50 539.79"
/>
<path stroke="#83e4e5" vector-effect="non-scaling-stroke" d="
  M 630.50 539.79
  Q 629.58 540.85 627.25 541.50
  Q 617.61 544.19 609.16 551.67
  Q 598.52 561.11 599.26 575.50
  Q 599.45 579.02 599.93 582.50
  Q 599.98 582.83 600.34 583.36
  Q 600.77 583.99 600.00 584.54"
/>
<path stroke="#634763" vector-effect="non-scaling-stroke" d="
  M 544.79 695.75
  Q 544.27 696.42 543.00 697.00
  Q 473.29 728.72 397.00 726.00
  Q 365.67 724.88 340.25 719.46"
/>
<path stroke="#9be8e3" vector-effect="non-scaling-stroke" d="
  M 673.25 510.54
  Q 676.31 519.39 672.40 526.30
  Q 669.35 531.68 661.43 535.80
  Q 647.23 543.19 630.50 539.79"
/>
<path stroke="#4f3a56" vector-effect="non-scaling-stroke" d="
  M 637.7382 207.5345
  A 11.82 7.30 19.7 0 0 629.0708 196.6773
  A 11.82 7.30 19.7 0 0 615.4818 199.5655
  A 11.82 7.30 19.7 0 0 624.1492 210.4227
  A 11.82 7.30 19.7 0 0 637.7382 207.5345"
/>
<path stroke="#42314b" vector-effect="non-scaling-stroke" d="
  M 787.9840 481.9005
  A 4.31 3.79 78.3 0 0 790.8213 476.9114
  A 4.31 3.79 78.3 0 0 786.2360 473.4595
  A 4.31 3.79 78.3 0 0 783.3987 478.4486
  A 4.31 3.79 78.3 0 0 787.9840 481.9005"
/>
<path stroke="#44324c" vector-effect="non-scaling-stroke" d="
  M 757.40 521.95
  Q 759.16 523.14 761.20 522.55
  Q 764.83 521.49 767.89 518.94
  Q 770.73 516.58 773.00 513.49
  Q 777.45 507.43 776.94 499.63
  Q 776.78 497.14 776.08 495.99
  Q 774.85 494.00 772.06 494.56
  Q 768.30 495.33 764.55 498.57
  Q 757.70 504.50 754.54 513.02
  Q 752.46 518.64 757.40 521.95"
/>
<path stroke="#44324c" vector-effect="non-scaling-stroke" d="
  M 648.71 721.31
  Q 652.98 724.54 658.44 721.69
  Q 667.41 716.99 674.72 707.96
  Q 678.86 702.86 680.25 697.75
  Q 681.81 692.03 678.00 688.25
  Q 674.68 684.95 670.15 684.55
  Q 666.34 684.21 662.17 686.36
  Q 658.48 688.26 654.94 691.44
  Q 646.61 698.91 642.77 708.44
  Q 641.86 710.69 642.38 712.67
  Q 642.95 714.89 644.26 716.72
  Q 646.21 719.42 648.71 721.31"
/>
<path stroke="#af7578" vector-effect="non-scaling-stroke" d="
  M 421.1947 277.5067
  A 6.79 3.92 -35.4 0 0 413.3892 278.2447
  A 6.79 3.92 -35.4 0 0 410.1253 285.3733
  A 6.79 3.92 -35.4 0 0 417.9308 284.6353
  A 6.79 3.92 -35.4 0 0 421.1947 277.5067"
/>
<path stroke="#a87171" vector-effect="non-scaling-stroke" d="
  M 195.71 461.00
  Q 201.33 467.11 209.00 463.25
  Q 222.26 456.58 226.50 442.00
  Q 228.21 436.10 226.50 431.46"
/>
<path stroke="#af7678" vector-effect="non-scaling-stroke" d="
  M 226.50 431.46
  Q 224.42 427.05 220.00 426.50
  Q 214.93 425.87 210.69 428.29
  Q 207.65 430.03 203.69 434.15
  Q 197.70 440.38 194.94 449.44
  Q 193.00 455.77 195.71 461.00"
/>
<path stroke="#593f58" vector-effect="non-scaling-stroke" d="
  M 226.50 431.46
  Q 224.72 432.33 224.44 434.05
  Q 224.02 436.65 223.98 436.76
  Q 220.62 445.87 212.31 454.06
  Q 207.77 458.55 202.70 459.36
  Q 200.46 459.72 200.31 459.75
  Q 198.67 460.06 196.99 460.21
  A 1.65 1.21 -61.1 0 0 196.15 460.60
  L 195.71 461.00"
/>
<path stroke="#694965" vector-effect="non-scaling-stroke" d="
  M 548.6900 286.3225
  A 5.89 5.67 53.3 0 0 549.7161 278.2115
  A 5.89 5.67 53.3 0 0 541.6500 276.8775
  A 5.89 5.67 53.3 0 0 540.6239 284.9885
  A 5.89 5.67 53.3 0 0 548.6900 286.3225"
/>
<path stroke="#694965" vector-effect="non-scaling-stroke" d="
  M 564.19 382.81
  Q 576.01 390.00 594.12 397.48
  Q 597.47 398.86 597.90 398.94
  Q 600.12 399.31 602.06 397.56
  Q 606.89 393.21 609.95 389.68
  Q 622.37 375.38 632.57 359.44
  Q 637.34 351.99 638.05 350.69
  Q 640.59 346.08 641.92 341.06
  Q 642.36 339.38 640.97 338.34
  Q 624.57 326.03 606.98 317.45
  Q 605.22 316.59 603.43 317.41
  Q 578.87 328.74 560.05 346.83
  A 1.45 1.44 60.8 0 0 559.65 348.25
  Q 560.69 352.28 561.84 356.42
  Q 563.19 361.23 563.38 364.72
  Q 563.75 371.38 562.67 378.03
  Q 562.09 381.54 564.19 382.81"
/>
<path stroke="#694965" vector-effect="non-scaling-stroke" d="
  M 695.0708 417.5486
  A 6.47 6.00 74.3 0 0 699.0962 409.6964
  A 6.47 6.00 74.3 0 0 691.5692 405.0914
  A 6.47 6.00 74.3 0 0 687.5438 412.9436
  A 6.47 6.00 74.3 0 0 695.0708 417.5486"
/>
<path stroke="#694965" vector-effect="non-scaling-stroke" d="
  M 405.9030 428.6787
  A 10.70 7.54 128.2 0 0 418.4454 424.9328
  A 10.70 7.54 128.2 0 0 419.1370 411.8613
  A 10.70 7.54 128.2 0 0 406.5946 415.6072
  A 10.70 7.54 128.2 0 0 405.9030 428.6787"
/>
<path stroke="#694965" vector-effect="non-scaling-stroke" d="
  M 500.2212 477.8242
  A 7.50 7.08 70.6 0 0 504.4080 468.3983
  A 7.50 7.08 70.6 0 0 495.2388 463.6758
  A 7.50 7.08 70.6 0 0 491.0520 473.1017
  A 7.50 7.08 70.6 0 0 500.2212 477.8242"
/>
<path stroke="#694965" vector-effect="non-scaling-stroke" d="
  M 540.53 511.33
  Q 534.06 508.74 527.05 508.33
  Q 521.91 508.03 517.25 509.64
  Q 512.26 511.37 508.31 514.31
  Q 506.09 515.97 506.13 518.57
  Q 506.13 518.73 506.85 522.94
  Q 510.32 543.15 521.82 560.20
  Q 523.14 562.15 525.35 561.38
  Q 535.28 557.93 544.07 551.96
  Q 547.27 549.78 547.91 549.00
  Q 549.48 547.06 549.25 544.00
  Q 548.09 528.53 542.67 513.53
  Q 542.09 511.95 540.53 511.33"
/>
<path stroke="#698da1" vector-effect="non-scaling-stroke" d="
  M 328.50 617.54
  Q 345.82 630.70 366.00 630.25
  Q 382.73 629.88 396.35 620.37
  Q 417.97 605.28 420.25 578.75
  Q 421.79 560.80 412.29 545.00"
/>
<path stroke="#789ba1" vector-effect="non-scaling-stroke" d="
  M 412.29 545.00
  Q 410.19 541.36 408.31 539.19
  Q 393.38 521.92 371.88 517.22
  Q 361.46 514.94 352.02 516.22
  Q 334.54 518.58 321.73 531.98
  Q 307.72 546.65 305.90 566.01
  Q 304.96 576.01 307.47 585.84
  Q 312.34 604.88 328.50 617.54"
/>
<path stroke="#82e5e4" vector-effect="non-scaling-stroke" d="
  M 412.29 545.00
  Q 411.37 545.26 410.50 544.92
  Q 409.31 544.45 408.90 544.40
  Q 399.56 543.24 397.25 542.75
  Q 393.03 541.85 390.81 544.81
  Q 376.34 564.16 358.06 577.61
  Q 344.22 587.78 340.81 591.06
  Q 336.22 595.48 332.92 600.92
  Q 328.56 608.11 329.15 616.48
  A 1.07 0.33 -46.4 0 1 328.80 617.18
  L 328.50 617.54"
/>
<path stroke="#694965" vector-effect="non-scaling-stroke" d="
  M 562.7623 600.2656
  A 8.79 7.52 78.9 0 0 568.4493 590.1922
  A 8.79 7.52 78.9 0 0 559.3777 583.0144
  A 8.79 7.52 78.9 0 0 553.6907 593.0878
  A 8.79 7.52 78.9 0 0 562.7623 600.2656"
/>
<path stroke="#694965" vector-effect="non-scaling-stroke" d="
  M 204.4462 609.6050
  A 5.23 4.84 53.7 0 0 205.2507 602.5247
  A 5.23 4.84 53.7 0 0 198.2538 601.1750
  A 5.23 4.84 53.7 0 0 197.4493 608.2553
  A 5.23 4.84 53.7 0 0 204.4462 609.6050"
/>
<path stroke="#694965" vector-effect="non-scaling-stroke" d="
  M 274.94 692.81
  Q 280.92 696.22 285.28 693.25
  Q 288.49 691.05 289.96 685.59
  Q 291.42 680.15 291.00 674.00
  Q 290.18 662.06 287.20 651.62
  Q 285.83 646.83 285.43 645.75
  Q 284.38 642.91 282.60 640.27
  A 2.36 2.35 -17.2 0 0 280.66 639.25
  Q 272.48 639.26 265.22 641.45
  Q 262.90 642.14 261.90 643.49
  Q 260.62 645.21 260.65 647.50
  Q 260.67 649.90 260.67 650.01
  Q 259.57 668.83 268.56 685.38
  Q 271.54 690.88 274.94 692.81"
/>
<path stroke="#b47b80" vector-effect="non-scaling-stroke" d="
  M 378.0844 214.0337
  A 5.75 2.90 -35.1 0 0 371.7125 214.9674
  A 5.75 2.90 -35.1 0 0 368.6756 220.6463
  A 5.75 2.90 -35.1 0 0 375.0475 219.7126
  A 5.75 2.90 -35.1 0 0 378.0844 214.0337"
/>
<path stroke="#a9f6e4" vector-effect="non-scaling-stroke" d="
  M 383.81 551.31
  Q 387.77 546.85 386.22 541.22
  Q 384.63 535.46 379.70 532.05
  Q 372.24 526.89 363.34 525.07
  Q 343.10 520.92 329.97 536.20
  Q 327.70 538.84 327.50 541.00
  Q 327.08 545.56 329.13 549.83
  Q 330.85 553.41 334.49 556.70
  Q 342.46 563.90 353.17 563.99
  Q 358.41 564.03 365.14 561.89
  Q 370.97 560.03 376.45 557.22
  Q 380.36 555.22 383.81 551.31"
/>
</g>
<path fill="#211f33" d="
  M 515.50 173.21
  L 497.75 172.96
  Q 496.59 172.10 495.72 170.98
  Q 494.71 169.67 493.72 169.09
  Q 484.87 163.87 475.39 159.79
  A 2.58 2.56 -47.8 0 0 473.14 159.91
  Q 465.24 164.31 458.08 170.08
  Q 458.04 170.12 454.55 172.43
  Q 452.19 174.00 451.00 176.71
  Q 445.10 177.81 439.15 178.52
  Q 439.03 178.54 438.52 178.71
  Q 437.98 178.89 437.71 178.25
  Q 440.87 172.58 444.94 168.94
  Q 457.56 157.65 472.32 149.31
  Q 474.44 148.11 476.64 149.14
  Q 494.51 157.51 511.92 168.35
  Q 514.68 170.06 515.50 173.21
  Z"
/>
<path fill="#211f33" d="
  M 159.25 503.21
  Q 159.96 504.80 159.75 507.00
  Q 159.45 510.15 160.25 513.96
  Q 159.99 514.13 159.77 514.34
  Q 159.57 514.53 159.46 514.85
  Q 154.30 529.46 150.33 544.45
  Q 150.30 544.55 149.48 547.41
  Q 148.14 552.02 148.75 555.25
  Q 149.42 558.82 153.31 566.69
  Q 158.09 576.35 171.65 598.32
  Q 178.24 608.98 181.36 615.79
  Q 186.81 627.68 190.50 640.29
  Q 191.01 643.54 191.51 646.79
  Q 194.08 663.48 198.55 679.75
  Q 201.45 690.28 202.77 693.14
  Q 205.82 699.78 211.56 704.44
  Q 221.23 712.27 234.69 720.31
  Q 237.10 721.75 241.21 726.50
  Q 256.54 743.49 274.00 758.29
  Q 299.99 781.17 329.85 798.71
  Q 334.68 801.55 337.83 806.18
  Q 339.63 808.83 343.31 813.19
  Q 347.24 817.84 352.25 820.54
  Q 356.45 822.81 363.09 823.86
  Q 368.74 824.76 374.50 824.77
  Q 378.50 824.78 382.50 824.99
  Q 386.22 825.18 390.32 826.42
  Q 423.69 836.52 458.25 841.29
  Q 459.71 841.34 460.74 842.26
  Q 472.66 852.84 487.40 861.26
  Q 488.86 862.10 490.42 861.49
  Q 502.85 856.64 514.99 849.80
  Q 516.76 848.80 518.58 847.18
  Q 520.24 845.68 522.00 844.29
  L 544.00 842.21
  Q 575.55 838.57 606.39 831.08
  Q 611.81 829.77 617.26 829.36
  Q 630.18 828.41 643.05 826.99
  Q 647.87 826.46 666.50 823.00
  Q 676.02 821.23 683.29 816.93
  Q 687.53 814.42 691.06 809.84
  Q 695.19 804.48 698.42 798.49
  Q 700.24 795.11 704.06 792.81
  Q 712.55 787.72 721.19 781.00
  Q 726.23 777.09 736.73 768.42
  Q 773.85 737.78 802.29 698.75
  Q 806.58 694.87 811.72 692.20
  Q 819.42 688.21 826.56 683.31
  Q 834.97 677.55 838.31 669.31
  Q 841.62 661.16 845.00 646.00
  Q 846.68 638.46 846.95 633.16
  Q 846.98 632.57 846.45 629.42
  Q 846.01 626.82 847.81 624.81
  Q 860.98 610.16 873.10 594.80
  Q 874.11 593.51 873.58 591.96
  Q 872.53 588.96 871.09 586.62
  Q 865.31 577.28 858.81 568.43
  A 0.94 0.93 45.3 0 1 858.81 567.32
  Q 869.33 553.05 877.69 537.44
  Q 880.51 532.16 882.65 525.47
  Q 883.47 522.89 883.21 521.06
  Q 882.90 518.95 881.81 516.69
  Q 880.91 514.79 878.21 507.50
  Q 872.09 491.79 864.31 476.83
  Q 863.22 474.74 862.73 472.90
  Q 862.17 470.84 861.78 468.74
  Q 855.17 433.18 842.00 399.50
  Q 827.47 362.34 808.01 333.31
  Q 803.24 326.20 798.48 319.07
  Q 795.24 314.21 793.34 308.68
  Q 783.20 279.26 776.89 248.77
  Q 775.98 244.35 774.74 239.98
  Q 774.14 237.85 771.97 237.45
  Q 755.65 234.42 739.00 235.89
  Q 732.90 236.43 727.97 236.91
  Q 722.46 237.44 717.00 238.48
  Q 714.35 238.99 712.00 240.29
  Q 699.15 228.96 685.88 218.14
  Q 682.80 215.63 681.56 212.94
  Q 674.62 197.84 668.92 182.93
  A 1.48 1.48 -13.7 0 0 667.37 181.99
  Q 643.07 184.69 616.70 185.57
  Q 614.90 185.63 613.23 184.95
  Q 599.67 179.47 585.89 172.92
  Q 580.32 170.27 575.16 168.48
  Q 573.62 167.94 572.20 168.75
  L 560.00 175.71
  L 554.79 176.75
  Q 554.81 176.34 554.54 176.25
  Q 554.55 173.76 555.34 171.49
  Q 556.05 169.48 558.06 167.68
  Q 563.19 163.10 569.33 160.01
  Q 572.35 158.48 574.95 158.57
  Q 577.94 158.67 580.78 159.94
  Q 597.39 167.35 613.81 175.19
  Q 615.53 176.01 618.13 175.83
  Q 619.77 175.72 619.89 175.72
  Q 645.51 174.81 668.25 172.00
  Q 672.52 171.47 674.96 173.85
  Q 676.18 175.04 677.90 179.49
  Q 685.08 198.13 691.19 210.56
  Q 692.07 212.36 694.73 214.54
  Q 703.59 221.79 712.05 228.75
  A 2.53 2.50 -29.9 0 0 714.06 229.28
  Q 737.35 225.38 760.75 226.27
  Q 764.35 226.41 774.00 228.00
  Q 778.34 228.72 781.03 231.16
  Q 782.97 232.92 784.08 237.12
  Q 785.37 242.04 786.47 247.01
  Q 793.74 279.87 805.01 311.56
  Q 806.26 315.08 808.51 318.34
  Q 855.46 386.38 870.19 466.81
  Q 870.94 470.91 872.24 473.23
  Q 883.60 493.51 891.49 515.38
  Q 893.77 521.70 891.56 528.56
  Q 889.68 534.40 887.93 537.93
  Q 880.00 553.87 869.57 568.30
  A 0.98 0.97 44.2 0 0 869.59 569.47
  Q 875.85 577.57 880.79 585.98
  Q 883.37 590.38 883.48 593.05
  Q 883.62 596.77 880.96 599.86
  Q 879.76 601.25 879.71 601.32
  Q 865.41 619.30 858.31 627.56
  Q 856.09 630.15 855.66 632.73
  Q 852.26 652.87 845.75 674.50
  Q 843.67 681.41 838.45 685.67
  Q 825.41 696.32 810.30 703.82
  Q 808.59 704.67 807.46 706.21
  Q 767.82 760.02 712.31 797.56
  Q 709.66 799.36 708.38 801.45
  Q 704.52 807.74 700.29 813.78
  Q 695.78 820.22 689.49 824.52
  Q 684.32 828.04 675.80 830.58
  Q 667.26 833.12 657.75 834.50
  Q 637.49 837.43 619.08 838.31
  Q 614.47 838.53 610.04 839.64
  Q 571.11 849.37 531.03 852.12
  Q 529.02 852.25 527.29 853.36
  Q 509.24 864.86 488.91 871.20
  Q 486.76 871.87 484.83 870.70
  Q 470.13 861.76 456.68 851.05
  Q 455.34 849.99 453.65 849.73
  Q 420.74 844.77 388.69 835.51
  Q 385.31 834.54 382.03 834.51
  Q 378.64 834.49 375.25 834.57
  Q 364.14 834.81 355.25 832.75
  Q 347.40 830.93 340.60 824.88
  Q 332.29 817.49 324.94 807.56
  Q 323.15 805.14 320.12 803.35
  Q 274.37 776.27 238.69 737.81
  Q 235.28 734.14 232.58 731.41
  Q 229.78 728.57 225.69 725.96
  Q 220.33 722.55 215.12 718.91
  Q 204.49 711.50 197.44 703.31
  Q 192.07 697.08 189.99 687.95
  Q 187.25 675.87 185.04 663.68
  Q 185.03 663.64 183.31 651.76
  Q 181.46 639.07 176.51 627.33
  Q 173.95 621.23 167.08 609.72
  Q 160.58 598.83 154.00 588.00
  Q 145.69 574.35 140.56 562.19
  Q 138.65 557.65 138.98 552.67
  Q 139.16 549.98 140.72 543.36
  Q 142.24 536.96 145.00 529.00
  Q 150.16 514.12 159.25 503.21
  Z"
/>
<path fill="#30273d" d="
  M 497.75 172.96
  Q 474.25 173.26 451.00 176.71
  Q 452.19 174.00 454.55 172.43
  Q 458.04 170.12 458.08 170.08
  Q 465.24 164.31 473.14 159.91
  A 2.58 2.56 -47.8 0 1 475.39 159.79
  Q 484.87 163.87 493.72 169.09
  Q 494.71 169.67 495.72 170.98
  Q 496.59 172.10 497.75 172.96
  Z"
/>
<path fill="#4a3551" d="
  M 712.00 240.29
  Q 715.54 245.10 716.75 251.75
  Q 717.42 255.44 720.57 269.38
  Q 723.03 280.30 725.04 286.86
  Q 734.15 316.51 751.02 342.72
  Q 766.62 366.96 789.06 382.94
  Q 800.11 390.81 814.39 396.33
  Q 814.48 396.36 816.65 397.01
  Q 818.57 397.58 819.83 399.00
  Q 820.85 400.16 821.64 403.19
  Q 825.03 416.36 829.48 429.22
  Q 833.32 440.32 836.38 451.67
  Q 840.48 466.87 841.88 482.49
  Q 842.72 491.80 843.02 502.00
  Q 843.31 511.99 842.57 521.56
  Q 842.43 523.39 840.84 524.31
  Q 791.66 552.79 777.39 607.24
  Q 773.75 621.13 773.90 635.50
  Q 774.00 644.75 774.00 654.00
  Q 773.99 670.79 763.15 683.42
  Q 754.32 693.71 744.44 700.69
  Q 729.22 711.44 710.57 720.83
  Q 689.10 731.65 667.32 741.83
  Q 649.64 750.09 632.25 758.96
  Q 626.89 745.73 614.48 739.21
  Q 614.43 739.19 611.82 738.08
  Q 607.93 736.43 606.44 732.23
  Q 605.41 729.34 602.94 728.56
  Q 594.00 725.73 585.19 722.56
  Q 576.50 719.43 570.14 713.03
  Q 564.78 707.64 564.73 707.60
  Q 559.69 703.19 555.19 700.81
  Q 549.67 697.90 546.75 695.54
  Q 560.27 688.59 562.69 687.19
  Q 594.01 668.92 623.19 642.44
  Q 638.17 628.84 651.69 611.15
  A 1.13 0.64 66.5 0 0 651.78 610.29
  L 651.25 608.04
  Q 678.12 606.36 694.56 587.06
  Q 709.42 569.62 709.75 548.00
  Q 710.02 529.97 698.79 514.00
  L 699.60 513.77
  A 0.90 0.70 88.7 0 0 700.13 513.06
  Q 702.88 492.72 704.27 472.25
  Q 704.53 468.32 704.52 464.38
  Q 704.51 461.39 705.05 456.55
  Q 705.69 450.88 704.78 445.25
  Q 704.03 440.59 704.00 437.67
  Q 703.82 419.96 700.75 401.75
  Q 683.35 298.68 611.19 224.06
  Q 584.03 195.98 560.00 175.71
  L 572.20 168.75
  Q 573.62 167.94 575.16 168.48
  Q 580.32 170.27 585.89 172.92
  Q 599.67 179.47 613.23 184.95
  Q 614.90 185.63 616.70 185.57
  Q 643.07 184.69 667.37 181.99
  A 1.48 1.48 -13.7 0 1 668.92 182.93
  Q 674.62 197.84 681.56 212.94
  Q 682.80 215.63 685.88 218.14
  Q 699.15 228.96 712.00 240.29
  Z
  M 637.7382 207.5345
  A 11.82 7.30 19.7 0 0 629.0708 196.6773
  A 11.82 7.30 19.7 0 0 615.4818 199.5655
  A 11.82 7.30 19.7 0 0 624.1492 210.4227
  A 11.82 7.30 19.7 0 0 637.7382 207.5345
  Z
  M 787.9840 481.9005
  A 4.31 3.79 78.3 0 0 790.8213 476.9114
  A 4.31 3.79 78.3 0 0 786.2360 473.4595
  A 4.31 3.79 78.3 0 0 783.3987 478.4486
  A 4.31 3.79 78.3 0 0 787.9840 481.9005
  Z
  M 757.40 521.95
  Q 759.16 523.14 761.20 522.55
  Q 764.83 521.49 767.89 518.94
  Q 770.73 516.58 773.00 513.49
  Q 777.45 507.43 776.94 499.63
  Q 776.78 497.14 776.08 495.99
  Q 774.85 494.00 772.06 494.56
  Q 768.30 495.33 764.55 498.57
  Q 757.70 504.50 754.54 513.02
  Q 752.46 518.64 757.40 521.95
  Z
  M 648.71 721.31
  Q 652.98 724.54 658.44 721.69
  Q 667.41 716.99 674.72 707.96
  Q 678.86 702.86 680.25 697.75
  Q 681.81 692.03 678.00 688.25
  Q 674.68 684.95 670.15 684.55
  Q 666.34 684.21 662.17 686.36
  Q 658.48 688.26 654.94 691.44
  Q 646.61 698.91 642.77 708.44
  Q 641.86 710.69 642.38 712.67
  Q 642.95 714.89 644.26 716.72
  Q 646.21 719.42 648.71 721.31
  Z"
/>
<path fill="#fea791" d="
  M 497.75 172.96
  L 515.50 173.21
  Q 516.15 173.64 517.00 173.54
  Q 516.79 174.96 515.55 175.07
  A 0.98 0.82 9.6 0 0 514.81 175.50
  Q 511.03 182.36 510.75 190.25
  Q 510.70 191.75 509.21 196.00
  Q 506.66 194.00 503.43 194.90
  Q 497.31 196.61 493.30 201.53
  Q 490.96 204.40 491.00 207.25
  Q 491.06 211.60 494.49 212.52
  Q 496.79 213.14 499.87 211.83
  Q 505.53 209.41 508.96 204.00
  Q 511.54 209.05 507.09 212.14
  Q 502.37 215.41 495.99 213.90
  Q 493.89 213.40 492.62 215.14
  Q 491.92 216.11 490.42 217.15
  Q 489.68 217.67 488.26 219.09
  Q 486.94 220.41 484.56 221.56
  Q 481.35 223.12 479.43 226.20
  Q 478.30 228.01 476.23 228.52
  Q 474.30 228.99 472.84 230.95
  Q 471.47 232.79 471.42 232.85
  Q 466.26 238.89 460.26 244.11
  Q 458.72 245.46 457.58 247.57
  Q 456.00 250.51 453.78 252.98
  Q 451.04 256.04 449.82 258.00
  Q 447.97 260.95 446.03 263.83
  A 1.15 1.02 10.3 0 1 445.25 264.30
  Q 443.21 264.59 442.56 266.06
  Q 440.83 270.00 438.01 272.12
  Q 434.42 274.83 434.37 274.88
  Q 428.82 280.21 424.84 286.82
  Q 424.30 287.72 423.32 288.87
  Q 422.47 289.86 421.81 290.98
  Q 420.51 293.17 419.66 294.10
  Q 411.32 303.18 403.69 308.69
  Q 397.84 312.90 393.90 316.62
  Q 392.39 318.05 390.12 319.16
  Q 383.97 322.17 380.82 328.34
  Q 380.02 329.91 379.11 330.70
  Q 377.98 331.67 376.70 332.43
  A 1.08 1.05 34.8 0 1 375.92 332.56
  Q 372.49 331.87 370.96 334.25
  Q 362.64 332.70 355.50 332.50
  Q 347.12 332.26 339.54 335.33
  Q 332.11 338.35 327.12 343.80
  Q 321.90 349.51 319.63 357.33
  Q 317.19 365.74 317.32 374.50
  Q 317.54 389.52 318.79 404.50
  Q 318.76 406.65 317.13 407.59
  A 1.68 1.15 24.5 0 1 316.20 407.75
  Q 311.99 407.30 309.02 410.52
  Q 306.60 413.13 303.99 415.54
  Q 303.61 415.89 300.63 417.95
  Q 299.19 418.95 297.44 420.69
  Q 294.99 423.11 289.55 426.11
  Q 284.54 428.87 281.37 431.02
  Q 276.51 434.30 271.55 437.43
  Q 270.63 438.01 268.22 439.26
  Q 265.89 440.46 265.12 441.50
  Q 262.92 444.48 259.23 444.93
  Q 252.93 445.70 247.82 449.20
  Q 246.05 450.41 244.49 450.71
  Q 241.97 451.20 240.75 451.00
  Q 237.28 450.44 235.60 453.60
  Q 234.78 455.14 233.31 456.07
  Q 230.71 457.69 228.43 459.74
  Q 227.76 460.34 227.31 460.42
  Q 226.32 460.59 226.31 459.03
  Q 226.31 458.56 225.99 458.95
  L 223.82 461.62
  A 1.26 0.51 4.0 0 1 222.93 461.91
  Q 221.90 461.96 220.19 462.69
  Q 215.15 464.82 210.31 467.31
  Q 208.11 468.45 204.79 467.57
  Q 204.39 467.47 203.96 467.07
  Q 202.70 465.89 200.97 466.35
  A 1.49 1.49 -41.2 0 1 200.05 466.29
  Q 198.28 465.58 196.50 466.50
  Q 195.62 466.95 193.01 466.79
  A 1.73 1.32 -52.6 0 0 192.09 467.04
  Q 190.73 467.87 189.75 466.75
  Q 187.18 463.81 185.73 466.09
  Q 184.57 467.91 182.41 467.73
  Q 174.23 467.03 167.26 470.35
  A 0.77 0.75 76.7 0 0 166.83 471.07
  Q 167.02 476.72 165.86 482.26
  A 1.57 1.36 -17.4 0 1 165.36 483.07
  Q 162.84 485.23 161.58 488.33
  Q 161.45 488.66 161.39 489.08
  Q 160.98 492.07 160.62 489.54
  Q 160.61 489.45 160.60 489.53
  L 160.04 493.50
  Q 160.66 462.26 168.50 430.25
  Q 177.67 392.83 194.46 360.00
  Q 194.76 360.23 195.02 359.90
  Q 195.23 359.64 195.17 359.97
  Q 194.87 361.48 194.13 362.85
  Q 193.38 364.23 194.30 363.94
  A 0.62 0.55 -22.7 0 1 195.00 364.18
  Q 197.07 367.88 196.50 371.25
  Q 195.37 377.97 196.14 383.42
  Q 196.65 386.93 196.94 387.97
  Q 197.64 390.43 199.56 391.94
  Q 201.28 393.28 202.02 394.56
  A 0.88 0.86 74.9 0 0 202.75 394.99
  L 204.04 395.00
  Q 200.87 400.74 198.76 406.91
  Q 197.73 409.92 198.18 411.69
  Q 199.04 415.08 203.69 413.94
  Q 205.81 413.42 212.10 409.54
  Q 231.42 397.64 249.73 384.25
  Q 295.28 350.94 337.52 313.51
  Q 338.46 312.68 339.34 312.55
  Q 340.39 312.41 341.50 312.71
  Q 343.96 317.12 348.44 316.19
  Q 356.91 314.41 360.00 305.50
  Q 361.90 300.03 356.50 297.21
  Q 362.77 291.50 369.19 285.97
  Q 390.52 267.59 410.70 247.95
  Q 420.89 238.03 428.81 226.27
  Q 430.55 223.69 431.19 221.89
  Q 432.23 218.99 431.69 216.81
  Q 430.91 213.69 426.71 213.00
  Q 425.88 211.82 426.44 210.66
  Q 426.59 210.34 427.39 209.67
  Q 427.95 209.20 428.25 208.54
  Q 435.21 206.72 437.96 200.71
  Q 439.53 197.29 438.02 194.79
  Q 436.12 191.66 431.04 192.75
  Q 430.02 191.59 428.50 191.25
  Q 426.52 190.80 426.75 189.00
  L 427.40 183.97
  A 0.58 0.52 17.1 0 0 427.06 183.41
  Q 426.17 183.00 427.45 182.76
  A 0.29 0.25 66.6 0 0 427.59 182.33
  Q 427.14 181.66 428.00 180.79
  Q 433.01 180.07 437.71 178.25
  Q 437.98 178.89 438.52 178.71
  Q 439.03 178.54 439.15 178.52
  Q 445.10 177.81 451.00 176.71
  Q 474.25 173.26 497.75 172.96
  Z
  M 421.1947 277.5067
  A 6.79 3.92 -35.4 0 0 413.3892 278.2447
  A 6.79 3.92 -35.4 0 0 410.1253 285.3733
  A 6.79 3.92 -35.4 0 0 417.9308 284.6353
  A 6.79 3.92 -35.4 0 0 421.1947 277.5067
  Z
  M 195.71 461.00
  Q 201.33 467.11 209.00 463.25
  Q 222.26 456.58 226.50 442.00
  Q 228.21 436.10 226.50 431.46
  Q 224.42 427.05 220.00 426.50
  Q 214.93 425.87 210.69 428.29
  Q 207.65 430.03 203.69 434.15
  Q 197.70 440.38 194.94 449.44
  Q 193.00 455.77 195.71 461.00
  Z"
/>
<path fill="#fea389" d="
  M 517.00 173.54
  Q 525.29 173.41 533.50 174.54
  Q 534.14 178.13 535.87 181.35
  Q 543.13 194.80 547.94 209.31
  Q 549.40 213.73 549.27 218.90
  Q 549.17 223.06 547.43 225.73
  Q 545.50 228.71 542.06 230.81
  Q 535.44 234.87 531.23 236.78
  Q 520.22 241.76 509.16 246.63
  Q 487.49 256.17 467.94 269.50
  Q 455.50 277.98 448.81 286.06
  Q 438.52 298.50 435.51 316.75
  Q 431.74 339.69 408.24 340.25
  Q 402.29 340.40 396.43 339.38
  Q 383.63 337.15 370.96 334.25
  Q 372.49 331.87 375.92 332.56
  A 1.08 1.05 34.8 0 0 376.70 332.43
  Q 377.98 331.67 379.11 330.70
  Q 380.02 329.91 380.82 328.34
  Q 383.97 322.17 390.12 319.16
  Q 392.39 318.05 393.90 316.62
  Q 397.84 312.90 403.69 308.69
  Q 411.32 303.18 419.66 294.10
  Q 420.51 293.17 421.81 290.98
  Q 422.47 289.86 423.32 288.87
  Q 424.30 287.72 424.84 286.82
  Q 428.82 280.21 434.37 274.88
  Q 434.42 274.83 438.01 272.12
  Q 440.83 270.00 442.56 266.06
  Q 443.21 264.59 445.25 264.30
  A 1.15 1.02 10.3 0 0 446.03 263.83
  Q 447.97 260.95 449.82 258.00
  Q 451.04 256.04 453.78 252.98
  Q 456.00 250.51 457.58 247.57
  Q 458.72 245.46 460.26 244.11
  Q 466.26 238.89 471.42 232.85
  Q 471.47 232.79 472.84 230.95
  Q 474.30 228.99 476.23 228.52
  Q 478.30 228.01 479.43 226.20
  Q 481.35 223.12 484.56 221.56
  Q 486.94 220.41 488.26 219.09
  Q 489.68 217.67 490.42 217.15
  Q 491.92 216.11 492.62 215.14
  Q 493.89 213.40 495.99 213.90
  Q 502.37 215.41 507.09 212.14
  Q 511.54 209.05 508.96 204.00
  Q 511.97 199.99 509.21 196.00
  Q 510.70 191.75 510.75 190.25
  Q 511.03 182.36 514.81 175.50
  A 0.98 0.82 9.6 0 1 515.55 175.07
  Q 516.79 174.96 517.00 173.54
  Z"
/>
<path fill="#fc7b62" d="
  M 533.50 174.54
  Q 543.15 175.31 552.74 176.56
  Q 553.71 176.69 554.54 176.25
  Q 554.81 176.34 554.79 176.75
  Q 553.33 194.54 561.04 210.45
  Q 563.68 215.89 566.03 221.45
  Q 568.11 226.38 567.76 231.75
  Q 567.50 235.54 565.48 238.42
  Q 564.04 240.49 560.36 242.84
  Q 552.78 247.69 543.50 251.00
  Q 530.82 255.52 497.00 268.75
  Q 482.83 274.30 473.81 286.06
  Q 467.60 294.17 469.52 303.70
  Q 470.12 306.68 472.25 310.93
  Q 474.31 315.04 476.06 317.69
  Q 480.60 324.54 482.27 331.91
  Q 483.40 336.90 482.67 340.63
  Q 481.80 345.08 478.70 348.71
  Q 474.77 353.32 470.31 356.31
  Q 464.00 360.55 456.81 364.22
  Q 446.90 369.28 442.61 370.45
  Q 437.42 371.87 431.98 371.50
  Q 427.95 371.23 421.79 368.91
  Q 401.64 361.32 382.16 352.12
  Q 375.37 348.92 368.20 346.82
  Q 363.32 345.39 360.17 346.06
  Q 355.69 347.03 353.06 350.81
  Q 348.63 357.20 347.36 367.32
  Q 345.28 383.95 344.86 400.69
  Q 344.48 415.73 344.47 415.81
  Q 343.91 431.62 343.43 447.44
  Q 343.15 456.51 342.05 465.51
  Q 339.68 485.00 323.13 495.17
  Q 308.91 503.92 297.69 509.19
  Q 286.53 514.42 277.28 522.52
  Q 269.64 529.20 268.62 539.20
  Q 268.31 542.19 268.30 542.30
  Q 268.03 544.43 267.80 546.57
  Q 267.41 550.16 266.69 552.31
  Q 263.79 561.05 256.52 567.01
  Q 254.09 569.00 251.08 568.12
  Q 248.16 567.28 245.56 565.69
  Q 242.25 563.66 232.88 554.67
  Q 229.84 551.75 227.53 549.93
  Q 223.77 546.95 221.69 545.81
  Q 212.00 540.50 201.78 543.35
  Q 199.97 543.86 198.74 542.45
  Q 187.12 529.28 173.94 519.31
  Q 168.17 514.95 160.25 513.96
  Q 159.45 510.15 159.75 507.00
  Q 159.96 504.80 159.25 503.21
  Q 159.80 502.45 159.79 501.50
  Q 161.14 498.04 164.50 498.75
  Q 172.97 500.54 180.10 507.65
  Q 182.10 509.65 184.19 511.55
  Q 186.16 513.35 188.96 514.45
  Q 194.78 516.74 196.94 518.31
  Q 199.37 520.09 206.56 524.69
  Q 211.47 527.83 216.33 529.20
  Q 218.72 529.88 220.35 529.60
  Q 222.36 529.27 224.19 527.94
  Q 228.75 524.62 231.81 520.81
  Q 245.19 504.21 263.57 493.68
  Q 271.69 489.04 271.71 489.03
  Q 279.57 484.27 287.28 479.26
  Q 311.47 463.53 317.44 435.19
  Q 320.24 421.87 318.79 404.50
  Q 317.54 389.52 317.32 374.50
  Q 317.19 365.74 319.63 357.33
  Q 321.90 349.51 327.12 343.80
  Q 332.11 338.35 339.54 335.33
  Q 347.12 332.26 355.50 332.50
  Q 362.64 332.70 370.96 334.25
  Q 383.63 337.15 396.43 339.38
  Q 402.29 340.40 408.24 340.25
  Q 431.74 339.69 435.51 316.75
  Q 438.52 298.50 448.81 286.06
  Q 455.50 277.98 467.94 269.50
  Q 487.49 256.17 509.16 246.63
  Q 520.22 241.76 531.23 236.78
  Q 535.44 234.87 542.06 230.81
  Q 545.50 228.71 547.43 225.73
  Q 549.17 223.06 549.27 218.90
  Q 549.40 213.73 547.94 209.31
  Q 543.13 194.80 535.87 181.35
  Q 534.14 178.13 533.50 174.54
  Z"
/>
<path fill="#5f435e" d="
  M 560.00 175.71
  Q 584.03 195.98 611.19 224.06
  Q 683.35 298.68 700.75 401.75
  Q 703.82 419.96 704.00 437.67
  Q 704.03 440.59 704.78 445.25
  Q 705.69 450.88 705.05 456.55
  Q 704.51 461.39 704.52 464.38
  Q 704.53 468.32 704.27 472.25
  Q 702.88 492.72 700.13 513.06
  A 0.90 0.70 88.7 0 1 699.60 513.77
  L 698.79 514.00
  L 696.29 511.00
  Q 680.89 492.91 656.99 490.86
  Q 644.46 489.78 632.75 494.26
  Q 610.22 502.88 597.87 523.57
  Q 589.42 537.74 589.50 553.75
  Q 589.58 570.74 600.00 584.54
  Q 609.85 598.14 625.73 603.80
  Q 638.09 608.21 651.25 608.04
  L 651.78 610.29
  A 1.13 0.64 66.5 0 1 651.69 611.15
  Q 638.17 628.84 623.19 642.44
  Q 594.01 668.92 562.69 687.19
  Q 560.27 688.59 546.75 695.54
  L 544.79 695.75
  Q 541.17 693.91 537.07 694.62
  Q 531.27 695.62 525.50 696.75
  Q 521.55 697.52 516.14 697.31
  Q 510.90 697.10 507.55 695.74
  Q 503.12 693.93 500.31 690.44
  Q 493.91 682.46 487.45 674.53
  Q 478.38 663.41 466.06 656.87
  Q 456.59 651.84 447.19 650.61
  Q 434.91 649.01 422.74 653.33
  Q 411.00 657.50 401.44 664.44
  Q 388.77 673.63 377.06 685.56
  Q 363.09 699.81 340.25 719.46
  Q 339.59 719.36 339.21 719.75
  Q 328.60 716.99 326.69 716.56
  Q 306.56 712.02 287.34 704.67
  Q 277.67 700.97 269.10 696.51
  Q 259.18 691.34 249.78 685.24
  Q 230.45 672.67 212.17 658.63
  Q 201.61 650.51 194.94 643.56
  Q 192.51 641.03 190.50 640.29
  Q 186.81 627.68 181.36 615.79
  Q 178.24 608.98 171.65 598.32
  Q 158.09 576.35 153.31 566.69
  Q 149.42 558.82 148.75 555.25
  Q 148.14 552.02 149.48 547.41
  Q 150.30 544.55 150.33 544.45
  Q 154.30 529.46 159.46 514.85
  Q 159.57 514.53 159.77 514.34
  Q 159.99 514.13 160.25 513.96
  Q 168.17 514.95 173.94 519.31
  Q 187.12 529.28 198.74 542.45
  Q 199.97 543.86 201.78 543.35
  Q 212.00 540.50 221.69 545.81
  Q 223.77 546.95 227.53 549.93
  Q 229.84 551.75 232.88 554.67
  Q 242.25 563.66 245.56 565.69
  Q 248.16 567.28 251.08 568.12
  Q 254.09 569.00 256.52 567.01
  Q 263.79 561.05 266.69 552.31
  Q 267.41 550.16 267.80 546.57
  Q 268.03 544.43 268.30 542.30
  Q 268.31 542.19 268.62 539.20
  Q 269.64 529.20 277.28 522.52
  Q 286.53 514.42 297.69 509.19
  Q 308.91 503.92 323.13 495.17
  Q 339.68 485.00 342.05 465.51
  Q 343.15 456.51 343.43 447.44
  Q 343.91 431.62 344.47 415.81
  Q 344.48 415.73 344.86 400.69
  Q 345.28 383.95 347.36 367.32
  Q 348.63 357.20 353.06 350.81
  Q 355.69 347.03 360.17 346.06
  Q 363.32 345.39 368.20 346.82
  Q 375.37 348.92 382.16 352.12
  Q 401.64 361.32 421.79 368.91
  Q 427.95 371.23 431.98 371.50
  Q 437.42 371.87 442.61 370.45
  Q 446.90 369.28 456.81 364.22
  Q 464.00 360.55 470.31 356.31
  Q 474.77 353.32 478.70 348.71
  Q 481.80 345.08 482.67 340.63
  Q 483.40 336.90 482.27 331.91
  Q 480.60 324.54 476.06 317.69
  Q 474.31 315.04 472.25 310.93
  Q 470.12 306.68 469.52 303.70
  Q 467.60 294.17 473.81 286.06
  Q 482.83 274.30 497.00 268.75
  Q 530.82 255.52 543.50 251.00
  Q 552.78 247.69 560.36 242.84
  Q 564.04 240.49 565.48 238.42
  Q 567.50 235.54 567.76 231.75
  Q 568.11 226.38 566.03 221.45
  Q 563.68 215.89 561.04 210.45
  Q 553.33 194.54 554.79 176.75
  L 560.00 175.71
  Z
  M 548.6900 286.3225
  A 5.89 5.67 53.3 0 0 549.7161 278.2115
  A 5.89 5.67 53.3 0 0 541.6500 276.8775
  A 5.89 5.67 53.3 0 0 540.6239 284.9885
  A 5.89 5.67 53.3 0 0 548.6900 286.3225
  Z
  M 564.19 382.81
  Q 576.01 390.00 594.12 397.48
  Q 597.47 398.86 597.90 398.94
  Q 600.12 399.31 602.06 397.56
  Q 606.89 393.21 609.95 389.68
  Q 622.37 375.38 632.57 359.44
  Q 637.34 351.99 638.05 350.69
  Q 640.59 346.08 641.92 341.06
  Q 642.36 339.38 640.97 338.34
  Q 624.57 326.03 606.98 317.45
  Q 605.22 316.59 603.43 317.41
  Q 578.87 328.74 560.05 346.83
  A 1.45 1.44 60.8 0 0 559.65 348.25
  Q 560.69 352.28 561.84 356.42
  Q 563.19 361.23 563.38 364.72
  Q 563.75 371.38 562.67 378.03
  Q 562.09 381.54 564.19 382.81
  Z
  M 695.0708 417.5486
  A 6.47 6.00 74.3 0 0 699.0962 409.6964
  A 6.47 6.00 74.3 0 0 691.5692 405.0914
  A 6.47 6.00 74.3 0 0 687.5438 412.9436
  A 6.47 6.00 74.3 0 0 695.0708 417.5486
  Z
  M 405.9030 428.6787
  A 10.70 7.54 128.2 0 0 418.4454 424.9328
  A 10.70 7.54 128.2 0 0 419.1370 411.8613
  A 10.70 7.54 128.2 0 0 406.5946 415.6072
  A 10.70 7.54 128.2 0 0 405.9030 428.6787
  Z
  M 500.2212 477.8242
  A 7.50 7.08 70.6 0 0 504.4080 468.3983
  A 7.50 7.08 70.6 0 0 495.2388 463.6758
  A 7.50 7.08 70.6 0 0 491.0520 473.1017
  A 7.50 7.08 70.6 0 0 500.2212 477.8242
  Z
  M 540.53 511.33
  Q 534.06 508.74 527.05 508.33
  Q 521.91 508.03 517.25 509.64
  Q 512.26 511.37 508.31 514.31
  Q 506.09 515.97 506.13 518.57
  Q 506.13 518.73 506.85 522.94
  Q 510.32 543.15 521.82 560.20
  Q 523.14 562.15 525.35 561.38
  Q 535.28 557.93 544.07 551.96
  Q 547.27 549.78 547.91 549.00
  Q 549.48 547.06 549.25 544.00
  Q 548.09 528.53 542.67 513.53
  Q 542.09 511.95 540.53 511.33
  Z
  M 328.50 617.54
  Q 345.82 630.70 366.00 630.25
  Q 382.73 629.88 396.35 620.37
  Q 417.97 605.28 420.25 578.75
  Q 421.79 560.80 412.29 545.00
  Q 410.19 541.36 408.31 539.19
  Q 393.38 521.92 371.88 517.22
  Q 361.46 514.94 352.02 516.22
  Q 334.54 518.58 321.73 531.98
  Q 307.72 546.65 305.90 566.01
  Q 304.96 576.01 307.47 585.84
  Q 312.34 604.88 328.50 617.54
  Z
  M 562.7623 600.2656
  A 8.79 7.52 78.9 0 0 568.4493 590.1922
  A 8.79 7.52 78.9 0 0 559.3777 583.0144
  A 8.79 7.52 78.9 0 0 553.6907 593.0878
  A 8.79 7.52 78.9 0 0 562.7623 600.2656
  Z
  M 204.4462 609.6050
  A 5.23 4.84 53.7 0 0 205.2507 602.5247
  A 5.23 4.84 53.7 0 0 198.2538 601.1750
  A 5.23 4.84 53.7 0 0 197.4493 608.2553
  A 5.23 4.84 53.7 0 0 204.4462 609.6050
  Z
  M 274.94 692.81
  Q 280.92 696.22 285.28 693.25
  Q 288.49 691.05 289.96 685.59
  Q 291.42 680.15 291.00 674.00
  Q 290.18 662.06 287.20 651.62
  Q 285.83 646.83 285.43 645.75
  Q 284.38 642.91 282.60 640.27
  A 2.36 2.35 -17.2 0 0 280.66 639.25
  Q 272.48 639.26 265.22 641.45
  Q 262.90 642.14 261.90 643.49
  Q 260.62 645.21 260.65 647.50
  Q 260.67 649.90 260.67 650.01
  Q 259.57 668.83 268.56 685.38
  Q 271.54 690.88 274.94 692.81
  Z"
/>
<path fill="#fead9c" d="
  M 428.00 180.79
  Q 427.14 181.66 427.59 182.33
  A 0.29 0.25 66.6 0 1 427.45 182.76
  Q 426.17 183.00 427.06 183.41
  A 0.58 0.52 17.1 0 1 427.40 183.97
  L 426.75 189.00
  Q 426.52 190.80 428.50 191.25
  Q 430.02 191.59 431.04 192.75
  Q 428.03 193.70 425.06 195.81
  Q 421.64 198.26 420.92 201.96
  Q 420.31 205.13 422.13 207.17
  Q 424.23 209.53 428.25 208.54
  Q 427.95 209.20 427.39 209.67
  Q 426.59 210.34 426.44 210.66
  Q 425.88 211.82 426.71 213.00
  Q 420.37 212.30 417.25 213.00
  Q 390.37 219.07 369.56 231.31
  Q 349.74 242.98 331.53 257.03
  Q 309.87 273.75 289.71 292.25
  Q 288.96 289.41 287.04 287.25
  Q 282.06 281.02 274.50 282.50
  Q 264.78 284.41 256.98 291.98
  Q 244.67 303.92 244.25 321.25
  Q 244.18 324.28 245.25 327.79
  Q 246.25 332.90 249.50 336.96
  Q 248.32 337.16 247.69 338.09
  Q 246.83 339.33 246.75 339.42
  Q 231.13 356.25 217.40 374.66
  Q 210.12 384.43 204.04 395.00
  L 202.75 394.99
  A 0.88 0.86 74.9 0 1 202.02 394.56
  Q 201.28 393.28 199.56 391.94
  Q 197.64 390.43 196.94 387.97
  Q 196.65 386.93 196.14 383.42
  Q 195.37 377.97 196.50 371.25
  Q 197.07 367.88 195.00 364.18
  A 0.62 0.55 -22.7 0 0 194.30 363.94
  Q 193.38 364.23 194.13 362.85
  Q 194.87 361.48 195.17 359.97
  Q 195.23 359.64 195.02 359.90
  Q 194.76 360.23 194.46 360.00
  Q 222.90 304.03 269.72 262.22
  Q 338.21 201.07 428.00 180.79
  Z
  M 378.0844 214.0337
  A 5.75 2.90 -35.1 0 0 371.7125 214.9674
  A 5.75 2.90 -35.1 0 0 368.6756 220.6463
  A 5.75 2.90 -35.1 0 0 375.0475 219.7126
  A 5.75 2.90 -35.1 0 0 378.0844 214.0337
  Z"
/>
<path fill="#6a4964" d="
  M 431.04 192.75
  Q 436.12 191.66 438.02 194.79
  Q 439.53 197.29 437.96 200.71
  Q 435.21 206.72 428.25 208.54
  Q 424.23 209.53 422.13 207.17
  Q 420.31 205.13 420.92 201.96
  Q 421.64 198.26 425.06 195.81
  Q 428.03 193.70 431.04 192.75
  Z"
/>
<path fill="#60445e" d="
  M 509.21 196.00
  Q 511.97 199.99 508.96 204.00
  Q 505.53 209.41 499.87 211.83
  Q 496.79 213.14 494.49 212.52
  Q 491.06 211.60 491.00 207.25
  Q 490.96 204.40 493.30 201.53
  Q 497.31 196.61 503.43 194.90
  Q 506.66 194.00 509.21 196.00
  Z"
/>
<ellipse fill="#543e5a" cx="0.00" cy="0.00" transform="translate(626.61,203.55) rotate(19.7)" rx="11.82" ry="7.30"/>
<path fill="#fec6b1" d="
  M 426.71 213.00
  Q 430.91 213.69 431.69 216.81
  Q 432.23 218.99 431.19 221.89
  Q 430.55 223.69 428.81 226.27
  Q 420.89 238.03 410.70 247.95
  Q 390.52 267.59 369.19 285.97
  Q 362.77 291.50 356.50 297.21
  Q 353.30 296.12 350.28 297.55
  Q 344.74 300.18 341.81 305.56
  Q 340.19 308.54 341.50 312.71
  Q 340.39 312.41 339.34 312.55
  Q 338.46 312.68 337.52 313.51
  Q 295.28 350.94 249.73 384.25
  Q 231.42 397.64 212.10 409.54
  Q 205.81 413.42 203.69 413.94
  Q 199.04 415.08 198.18 411.69
  Q 197.73 409.92 198.76 406.91
  Q 200.87 400.74 204.04 395.00
  Q 210.12 384.43 217.40 374.66
  Q 231.13 356.25 246.75 339.42
  Q 246.83 339.33 247.69 338.09
  Q 248.32 337.16 249.50 336.96
  Q 253.19 341.06 258.21 341.61
  Q 261.76 341.99 266.10 340.24
  Q 269.89 338.71 273.18 336.18
  Q 282.43 329.05 287.56 318.56
  Q 293.36 306.69 289.71 292.25
  Q 309.87 273.75 331.53 257.03
  Q 349.74 242.98 369.56 231.31
  Q 390.37 219.07 417.25 213.00
  Q 420.37 212.30 426.71 213.00
  Z"
/>
<ellipse fill="#6a4964" cx="0.00" cy="0.00" transform="translate(373.38,217.34) rotate(-35.1)" rx="5.75" ry="2.90"/>
<path fill="#392d45" d="
  M 878.21 507.50
  Q 866.11 513.37 853.79 518.76
  Q 848.87 520.91 844.09 524.17
  Q 842.61 525.19 843.20 526.88
  Q 849.46 544.88 854.77 562.54
  Q 854.95 563.14 856.56 567.76
  Q 857.83 571.43 857.50 573.25
  Q 852.22 601.99 840.94 628.92
  Q 840.61 629.69 839.17 632.31
  Q 838.35 633.79 837.56 635.81
  Q 834.78 642.89 829.37 655.27
  Q 821.41 673.44 808.50 688.51
  Q 806.46 690.90 804.74 693.51
  Q 804.67 693.62 803.13 695.37
  Q 801.94 696.71 802.29 698.75
  Q 773.85 737.78 736.73 768.42
  Q 726.23 777.09 721.19 781.00
  Q 712.55 787.72 704.06 792.81
  Q 700.24 795.11 698.42 798.49
  Q 695.19 804.48 691.06 809.84
  Q 687.53 814.42 683.29 816.93
  Q 676.02 821.23 666.50 823.00
  Q 647.87 826.46 643.05 826.99
  Q 630.18 828.41 617.26 829.36
  Q 611.81 829.77 606.39 831.08
  Q 575.55 838.57 544.00 842.21
  Q 548.87 828.20 556.96 815.75
  Q 569.91 795.97 587.81 783.31
  Q 607.38 769.48 632.25 758.96
  Q 649.64 750.09 667.32 741.83
  Q 689.10 731.65 710.57 720.83
  Q 729.22 711.44 744.44 700.69
  Q 754.32 693.71 763.15 683.42
  Q 773.99 670.79 774.00 654.00
  Q 774.00 644.75 773.90 635.50
  Q 773.75 621.13 777.39 607.24
  Q 791.66 552.79 840.84 524.31
  Q 842.43 523.39 842.57 521.56
  Q 843.31 511.99 843.02 502.00
  Q 842.72 491.80 841.88 482.49
  Q 840.48 466.87 836.38 451.67
  Q 833.32 440.32 829.48 429.22
  Q 825.03 416.36 821.64 403.19
  Q 820.85 400.16 819.83 399.00
  Q 818.57 397.58 816.65 397.01
  Q 814.48 396.36 814.39 396.33
  Q 800.11 390.81 789.06 382.94
  Q 766.62 366.96 751.02 342.72
  Q 734.15 316.51 725.04 286.86
  Q 723.03 280.30 720.57 269.38
  Q 717.42 255.44 716.75 251.75
  Q 715.54 245.10 712.00 240.29
  Q 714.35 238.99 717.00 238.48
  Q 722.46 237.44 727.97 236.91
  Q 732.90 236.43 739.00 235.89
  Q 755.65 234.42 771.97 237.45
  Q 774.14 237.85 774.74 239.98
  Q 775.98 244.35 776.89 248.77
  Q 783.20 279.26 793.34 308.68
  Q 795.24 314.21 798.48 319.07
  Q 803.24 326.20 808.01 333.31
  Q 827.47 362.34 842.00 399.50
  Q 855.17 433.18 861.78 468.74
  Q 862.17 470.84 862.73 472.90
  Q 863.22 474.74 864.31 476.83
  Q 872.09 491.79 878.21 507.50
  Z"
/>
<ellipse fill="#724f6b" cx="0.00" cy="0.00" transform="translate(545.17,281.60) rotate(53.3)" rx="5.89" ry="5.67"/>
<ellipse fill="#5f435e" cx="0.00" cy="0.00" transform="translate(415.66,281.44) rotate(-35.4)" rx="6.79" ry="3.92"/>
<path fill="#60445e" d="
  M 287.04 287.25
  Q 286.00 289.12 285.94 290.94
  Q 285.66 299.37 281.74 306.46
  Q 276.94 315.16 270.24 322.48
  Q 265.78 327.36 259.96 330.48
  Q 254.39 333.46 248.71 330.96
  A 1.34 1.10 87.1 0 1 248.08 330.27
  Q 247.50 328.81 246.31 327.76
  A 0.51 0.34 -40.9 0 0 245.77 327.83
  Q 245.55 328.00 245.25 327.79
  Q 244.18 324.28 244.25 321.25
  Q 244.67 303.92 256.98 291.98
  Q 264.78 284.41 274.50 282.50
  Q 282.06 281.02 287.04 287.25
  Z"
/>
<path fill="#4a3551" d="
  M 287.04 287.25
  Q 288.96 289.41 289.71 292.25
  Q 293.36 306.69 287.56 318.56
  Q 282.43 329.05 273.18 336.18
  Q 269.89 338.71 266.10 340.24
  Q 261.76 341.99 258.21 341.61
  Q 253.19 341.06 249.50 336.96
  Q 246.25 332.90 245.25 327.79
  Q 245.55 328.00 245.77 327.83
  A 0.51 0.34 -40.9 0 1 246.31 327.76
  Q 247.50 328.81 248.08 330.27
  A 1.34 1.10 87.1 0 0 248.71 330.96
  Q 254.39 333.46 259.96 330.48
  Q 265.78 327.36 270.24 322.48
  Q 276.94 315.16 281.74 306.46
  Q 285.66 299.37 285.94 290.94
  Q 286.00 289.12 287.04 287.25
  Z"
/>
<path fill="#433349" d="
  M 356.50 297.21
  Q 361.90 300.03 360.00 305.50
  Q 356.91 314.41 348.44 316.19
  Q 343.96 317.12 341.50 312.71
  Q 340.19 308.54 341.81 305.56
  Q 344.74 300.18 350.28 297.55
  Q 353.30 296.12 356.50 297.21
  Z"
/>
<path fill="#724f6b" d="
  M 564.19 382.81
  Q 562.09 381.54 562.67 378.03
  Q 563.75 371.38 563.38 364.72
  Q 563.19 361.23 561.84 356.42
  Q 560.69 352.28 559.65 348.25
  A 1.45 1.44 60.8 0 1 560.05 346.83
  Q 578.87 328.74 603.43 317.41
  Q 605.22 316.59 606.98 317.45
  Q 624.57 326.03 640.97 338.34
  Q 642.36 339.38 641.92 341.06
  Q 640.59 346.08 638.05 350.69
  Q 637.34 351.99 632.57 359.44
  Q 622.37 375.38 609.95 389.68
  Q 606.89 393.21 602.06 397.56
  Q 600.12 399.31 597.90 398.94
  Q 597.47 398.86 594.12 397.48
  Q 576.01 390.00 564.19 382.81
  Z"
/>
<path fill="#fea288" d="
  M 318.79 404.50
  Q 320.24 421.87 317.44 435.19
  Q 311.47 463.53 287.28 479.26
  Q 279.57 484.27 271.71 489.03
  Q 271.69 489.04 263.57 493.68
  Q 245.19 504.21 231.81 520.81
  Q 228.75 524.62 224.19 527.94
  Q 222.36 529.27 220.35 529.60
  Q 218.72 529.88 216.33 529.20
  Q 211.47 527.83 206.56 524.69
  Q 199.37 520.09 196.94 518.31
  Q 194.78 516.74 188.96 514.45
  Q 186.16 513.35 184.19 511.55
  Q 182.10 509.65 180.10 507.65
  Q 172.97 500.54 164.50 498.75
  Q 161.14 498.04 159.79 501.50
  L 160.04 493.50
  L 160.60 489.53
  Q 160.61 489.45 160.62 489.54
  Q 160.98 492.07 161.39 489.08
  Q 161.45 488.66 161.58 488.33
  Q 162.84 485.23 165.36 483.07
  A 1.57 1.36 -17.4 0 0 165.86 482.26
  Q 167.02 476.72 166.83 471.07
  A 0.77 0.75 76.7 0 1 167.26 470.35
  Q 174.23 467.03 182.41 467.73
  Q 184.57 467.91 185.73 466.09
  Q 187.18 463.81 189.75 466.75
  Q 190.73 467.87 192.09 467.04
  A 1.73 1.32 -52.6 0 1 193.01 466.79
  Q 195.62 466.95 196.50 466.50
  Q 198.28 465.58 200.05 466.29
  A 1.49 1.49 -41.2 0 0 200.97 466.35
  Q 202.70 465.89 203.96 467.07
  Q 204.39 467.47 204.79 467.57
  Q 208.11 468.45 210.31 467.31
  Q 215.15 464.82 220.19 462.69
  Q 221.90 461.96 222.93 461.91
  A 1.26 0.51 4.0 0 0 223.82 461.62
  L 225.99 458.95
  Q 226.31 458.56 226.31 459.03
  Q 226.32 460.59 227.31 460.42
  Q 227.76 460.34 228.43 459.74
  Q 230.71 457.69 233.31 456.07
  Q 234.78 455.14 235.60 453.60
  Q 237.28 450.44 240.75 451.00
  Q 241.97 451.20 244.49 450.71
  Q 246.05 450.41 247.82 449.20
  Q 252.93 445.70 259.23 444.93
  Q 262.92 444.48 265.12 441.50
  Q 265.89 440.46 268.22 439.26
  Q 270.63 438.01 271.55 437.43
  Q 276.51 434.30 281.37 431.02
  Q 284.54 428.87 289.55 426.11
  Q 294.99 423.11 297.44 420.69
  Q 299.19 418.95 300.63 417.95
  Q 303.61 415.89 303.99 415.54
  Q 306.60 413.13 309.02 410.52
  Q 311.99 407.30 316.20 407.75
  A 1.68 1.15 24.5 0 0 317.13 407.59
  Q 318.76 406.65 318.79 404.50
  Z"
/>
<ellipse fill="#724f6b" cx="0.00" cy="0.00" transform="translate(693.32,411.32) rotate(74.3)" rx="6.47" ry="6.00"/>
<ellipse fill="#724f6b" cx="0.00" cy="0.00" transform="translate(412.52,420.27) rotate(128.2)" rx="10.70" ry="7.54"/>
<path fill="#60445e" d="
  M 226.50 431.46
  Q 224.72 432.33 224.44 434.05
  Q 224.02 436.65 223.98 436.76
  Q 220.62 445.87 212.31 454.06
  Q 207.77 458.55 202.70 459.36
  Q 200.46 459.72 200.31 459.75
  Q 198.67 460.06 196.99 460.21
  A 1.65 1.21 -61.1 0 0 196.15 460.60
  L 195.71 461.00
  Q 193.00 455.77 194.94 449.44
  Q 197.70 440.38 203.69 434.15
  Q 207.65 430.03 210.69 428.29
  Q 214.93 425.87 220.00 426.50
  Q 224.42 427.05 226.50 431.46
  Z"
/>
<path fill="#523a51" d="
  M 226.50 431.46
  Q 228.21 436.10 226.50 442.00
  Q 222.26 456.58 209.00 463.25
  Q 201.33 467.11 195.71 461.00
  L 196.15 460.60
  A 1.65 1.21 -61.1 0 1 196.99 460.21
  Q 198.67 460.06 200.31 459.75
  Q 200.46 459.72 202.70 459.36
  Q 207.77 458.55 212.31 454.06
  Q 220.62 445.87 223.98 436.76
  Q 224.02 436.65 224.44 434.05
  Q 224.72 432.33 226.50 431.46
  Z"
/>
<ellipse fill="#724f6b" cx="0.00" cy="0.00" transform="translate(497.73,470.75) rotate(70.6)" rx="7.50" ry="7.08"/>
<ellipse fill="#392d45" cx="0.00" cy="0.00" transform="translate(787.11,477.68) rotate(78.3)" rx="4.31" ry="3.79"/>
<path fill="#92f1e6" d="
  M 696.29 511.00
  Q 696.04 512.25 695.43 511.61
  Q 695.03 511.20 694.87 511.09
  Q 690.79 508.28 685.75 508.53
  Q 679.40 508.85 673.25 510.54
  Q 664.90 499.64 650.50 499.25
  Q 636.43 498.87 624.73 505.26
  Q 618.48 508.67 614.66 514.67
  Q 611.92 518.96 612.69 523.42
  Q 613.29 526.97 616.83 530.69
  Q 622.54 536.69 630.50 539.79
  Q 629.58 540.85 627.25 541.50
  Q 617.61 544.19 609.16 551.67
  Q 598.52 561.11 599.26 575.50
  Q 599.45 579.02 599.93 582.50
  Q 599.98 582.83 600.34 583.36
  Q 600.77 583.99 600.00 584.54
  Q 589.58 570.74 589.50 553.75
  Q 589.42 537.74 597.87 523.57
  Q 610.22 502.88 632.75 494.26
  Q 644.46 489.78 656.99 490.86
  Q 680.89 492.91 696.29 511.00
  Z"
/>
<path fill="#3d2f47" d="
  M 757.40 521.95
  Q 752.46 518.64 754.54 513.02
  Q 757.70 504.50 764.55 498.57
  Q 768.30 495.33 772.06 494.56
  Q 774.85 494.00 776.08 495.99
  Q 776.78 497.14 776.94 499.63
  Q 777.45 507.43 773.00 513.49
  Q 770.73 516.58 767.89 518.94
  Q 764.83 521.49 761.20 522.55
  Q 759.16 523.14 757.40 521.95
  Z"
/>
<path fill="#c2f9e3" d="
  M 673.25 510.54
  Q 676.31 519.39 672.40 526.30
  Q 669.35 531.68 661.43 535.80
  Q 647.23 543.19 630.50 539.79
  Q 622.54 536.69 616.83 530.69
  Q 613.29 526.97 612.69 523.42
  Q 611.92 518.96 614.66 514.67
  Q 618.48 508.67 624.73 505.26
  Q 636.43 498.87 650.50 499.25
  Q 664.90 499.64 673.25 510.54
  Z"
/>
<path fill="#30273d" d="
  M 878.21 507.50
  Q 880.91 514.79 881.81 516.69
  Q 882.90 518.95 883.21 521.06
  Q 883.47 522.89 882.65 525.47
  Q 880.51 532.16 877.69 537.44
  Q 869.33 553.05 858.81 567.32
  A 0.94 0.93 45.3 0 0 858.81 568.43
  Q 865.31 577.28 871.09 586.62
  Q 872.53 588.96 873.58 591.96
  Q 874.11 593.51 873.10 594.80
  Q 860.98 610.16 847.81 624.81
  Q 846.01 626.82 846.45 629.42
  Q 846.98 632.57 846.95 633.16
  Q 846.68 638.46 845.00 646.00
  Q 841.62 661.16 838.31 669.31
  Q 834.97 677.55 826.56 683.31
  Q 819.42 688.21 811.72 692.20
  Q 806.58 694.87 802.29 698.75
  Q 801.94 696.71 803.13 695.37
  Q 804.67 693.62 804.74 693.51
  Q 806.46 690.90 808.50 688.51
  Q 821.41 673.44 829.37 655.27
  Q 834.78 642.89 837.56 635.81
  Q 838.35 633.79 839.17 632.31
  Q 840.61 629.69 840.94 628.92
  Q 852.22 601.99 857.50 573.25
  Q 857.83 571.43 856.56 567.76
  Q 854.95 563.14 854.77 562.54
  Q 849.46 544.88 843.20 526.88
  Q 842.61 525.19 844.09 524.17
  Q 848.87 520.91 853.79 518.76
  Q 866.11 513.37 878.21 507.50
  Z"
/>
<path fill="#724f6b" d="
  M 540.53 511.33
  Q 542.09 511.95 542.67 513.53
  Q 548.09 528.53 549.25 544.00
  Q 549.48 547.06 547.91 549.00
  Q 547.27 549.78 544.07 551.96
  Q 535.28 557.93 525.35 561.38
  Q 523.14 562.15 521.82 560.20
  Q 510.32 543.15 506.85 522.94
  Q 506.13 518.73 506.13 518.57
  Q 506.09 515.97 508.31 514.31
  Q 512.26 511.37 517.25 509.64
  Q 521.91 508.03 527.05 508.33
  Q 534.06 508.74 540.53 511.33
  Z"
/>
<path fill="#73d7e3" d="
  M 696.29 511.00
  L 698.79 514.00
  Q 710.02 529.97 709.75 548.00
  Q 709.42 569.62 694.56 587.06
  Q 678.12 606.36 651.25 608.04
  Q 638.09 608.21 625.73 603.80
  Q 609.85 598.14 600.00 584.54
  Q 600.77 583.99 600.34 583.36
  Q 599.98 582.83 599.93 582.50
  Q 599.45 579.02 599.26 575.50
  Q 598.52 561.11 609.16 551.67
  Q 617.61 544.19 627.25 541.50
  Q 629.58 540.85 630.50 539.79
  Q 647.23 543.19 661.43 535.80
  Q 669.35 531.68 672.40 526.30
  Q 676.31 519.39 673.25 510.54
  Q 679.40 508.85 685.75 508.53
  Q 690.79 508.28 694.87 511.09
  Q 695.03 511.20 695.43 511.61
  Q 696.04 512.25 696.29 511.00
  Z"
/>
<path fill="#90f2e4" d="
  M 412.29 545.00
  Q 411.37 545.26 410.50 544.92
  Q 409.31 544.45 408.90 544.40
  Q 399.56 543.24 397.25 542.75
  Q 393.03 541.85 390.81 544.81
  Q 376.34 564.16 358.06 577.61
  Q 344.22 587.78 340.81 591.06
  Q 336.22 595.48 332.92 600.92
  Q 328.56 608.11 329.15 616.48
  A 1.07 0.33 -46.4 0 1 328.80 617.18
  L 328.50 617.54
  Q 312.34 604.88 307.47 585.84
  Q 304.96 576.01 305.90 566.01
  Q 307.72 546.65 321.73 531.98
  Q 334.54 518.58 352.02 516.22
  Q 361.46 514.94 371.88 517.22
  Q 393.38 521.92 408.31 539.19
  Q 410.19 541.36 412.29 545.00
  Z
  M 383.81 551.31
  Q 387.77 546.85 386.22 541.22
  Q 384.63 535.46 379.70 532.05
  Q 372.24 526.89 363.34 525.07
  Q 343.10 520.92 329.97 536.20
  Q 327.70 538.84 327.50 541.00
  Q 327.08 545.56 329.13 549.83
  Q 330.85 553.41 334.49 556.70
  Q 342.46 563.90 353.17 563.99
  Q 358.41 564.03 365.14 561.89
  Q 370.97 560.03 376.45 557.22
  Q 380.36 555.22 383.81 551.31
  Z"
/>
<path fill="#c2f9e3" d="
  M 383.81 551.31
  Q 380.36 555.22 376.45 557.22
  Q 370.97 560.03 365.14 561.89
  Q 358.41 564.03 353.17 563.99
  Q 342.46 563.90 334.49 556.70
  Q 330.85 553.41 329.13 549.83
  Q 327.08 545.56 327.50 541.00
  Q 327.70 538.84 329.97 536.20
  Q 343.10 520.92 363.34 525.07
  Q 372.24 526.89 379.70 532.05
  Q 384.63 535.46 386.22 541.22
  Q 387.77 546.85 383.81 551.31
  Z"
/>
<path fill="#73d7e3" d="
  M 412.29 545.00
  Q 421.79 560.80 420.25 578.75
  Q 417.97 605.28 396.35 620.37
  Q 382.73 629.88 366.00 630.25
  Q 345.82 630.70 328.50 617.54
  L 328.80 617.18
  A 1.07 0.33 -46.4 0 0 329.15 616.48
  Q 328.56 608.11 332.92 600.92
  Q 336.22 595.48 340.81 591.06
  Q 344.22 587.78 358.06 577.61
  Q 376.34 564.16 390.81 544.81
  Q 393.03 541.85 397.25 542.75
  Q 399.56 543.24 408.90 544.40
  Q 409.31 544.45 410.50 544.92
  Q 411.37 545.26 412.29 545.00
  Z"
/>
<ellipse fill="#724f6b" cx="0.00" cy="0.00" transform="translate(561.07,591.64) rotate(78.9)" rx="8.79" ry="7.52"/>
<ellipse fill="#724f6b" cx="0.00" cy="0.00" transform="translate(201.35,605.39) rotate(53.7)" rx="5.23" ry="4.84"/>
<path fill="#724f6b" d="
  M 274.94 692.81
  Q 271.54 690.88 268.56 685.38
  Q 259.57 668.83 260.67 650.01
  Q 260.67 649.90 260.65 647.50
  Q 260.62 645.21 261.90 643.49
  Q 262.90 642.14 265.22 641.45
  Q 272.48 639.26 280.66 639.25
  A 2.36 2.35 -17.2 0 1 282.60 640.27
  Q 284.38 642.91 285.43 645.75
  Q 285.83 646.83 287.20 651.62
  Q 290.18 662.06 291.00 674.00
  Q 291.42 680.15 289.96 685.59
  Q 288.49 691.05 285.28 693.25
  Q 280.92 696.22 274.94 692.81
  Z"
/>
<path fill="#4a3551" d="
  M 190.50 640.29
  Q 192.51 641.03 194.94 643.56
  Q 201.61 650.51 212.17 658.63
  Q 230.45 672.67 249.78 685.24
  Q 259.18 691.34 269.10 696.51
  Q 277.67 700.97 287.34 704.67
  Q 306.56 712.02 326.69 716.56
  Q 328.60 716.99 339.21 719.75
  Q 338.35 720.99 337.18 721.92
  Q 328.01 729.20 316.39 732.27
  Q 313.92 732.92 311.60 731.83
  Q 306.95 729.64 301.61 726.61
  Q 293.13 721.80 283.58 721.11
  Q 281.56 720.97 275.97 721.67
  Q 268.84 722.57 261.77 720.68
  Q 258.96 719.93 256.81 720.06
  Q 249.51 720.53 242.56 724.31
  Q 241.46 724.91 241.21 726.50
  Q 237.10 721.75 234.69 720.31
  Q 221.23 712.27 211.56 704.44
  Q 205.82 699.78 202.77 693.14
  Q 201.45 690.28 198.55 679.75
  Q 194.08 663.48 191.51 646.79
  Q 191.01 643.54 190.50 640.29
  Z"
/>
<path fill="#724f6b" d="
  M 544.79 695.75
  Q 544.27 696.42 543.00 697.00
  Q 473.29 728.72 397.00 726.00
  Q 365.67 724.88 340.25 719.46
  Q 363.09 699.81 377.06 685.56
  Q 388.77 673.63 401.44 664.44
  Q 411.00 657.50 422.74 653.33
  Q 434.91 649.01 447.19 650.61
  Q 456.59 651.84 466.06 656.87
  Q 478.38 663.41 487.45 674.53
  Q 493.91 682.46 500.31 690.44
  Q 503.12 693.93 507.55 695.74
  Q 510.90 697.10 516.14 697.31
  Q 521.55 697.52 525.50 696.75
  Q 531.27 695.62 537.07 694.62
  Q 541.17 693.91 544.79 695.75
  Z"
/>
<path fill="#3d2f47" d="
  M 644.26 716.72
  Q 642.95 714.89 642.38 712.67
  Q 641.86 710.69 642.77 708.44
  Q 646.61 698.91 654.94 691.44
  Q 658.48 688.26 662.17 686.36
  Q 666.34 684.21 670.15 684.55
  Q 674.68 684.95 678.00 688.25
  Q 681.81 692.03 680.25 697.75
  Q 678.86 702.86 674.72 707.96
  Q 667.41 716.99 658.44 721.69
  Q 652.98 724.54 648.71 721.31
  Q 646.21 719.42 644.26 716.72
  Z"
/>
<path fill="#543e5a" d="
  M 546.75 695.54
  Q 549.67 697.90 555.19 700.81
  Q 559.69 703.19 564.73 707.60
  Q 564.78 707.64 570.14 713.03
  Q 576.50 719.43 585.19 722.56
  Q 594.00 725.73 602.94 728.56
  Q 605.41 729.34 606.44 732.23
  Q 607.93 736.43 611.82 738.08
  Q 614.43 739.19 614.48 739.21
  Q 626.89 745.73 632.25 758.96
  Q 607.38 769.48 587.81 783.31
  Q 569.91 795.97 556.96 815.75
  Q 555.78 815.85 554.64 815.71
  Q 553.38 815.55 552.38 815.81
  Q 547.43 817.10 539.25 818.00
  Q 460.69 826.65 386.77 804.44
  Q 348.41 792.92 312.40 775.38
  Q 301.52 770.08 290.56 764.94
  Q 281.80 760.83 278.56 758.44
  Q 276.10 756.62 274.00 758.29
  Q 256.54 743.49 241.21 726.50
  Q 241.46 724.91 242.56 724.31
  Q 249.51 720.53 256.81 720.06
  Q 258.96 719.93 261.77 720.68
  Q 268.84 722.57 275.97 721.67
  Q 281.56 720.97 283.58 721.11
  Q 293.13 721.80 301.61 726.61
  Q 306.95 729.64 311.60 731.83
  Q 313.92 732.92 316.39 732.27
  Q 328.01 729.20 337.18 721.92
  Q 338.35 720.99 339.21 719.75
  Q 339.59 719.36 340.25 719.46
  Q 365.67 724.88 397.00 726.00
  Q 473.29 728.72 543.00 697.00
  Q 544.27 696.42 544.79 695.75
  L 546.75 695.54
  Z"
/>
<path fill="#483751" d="
  M 556.96 815.75
  Q 548.87 828.20 544.00 842.21
  L 522.00 844.29
  Q 495.99 845.51 470.05 843.44
  Q 467.59 843.24 465.49 842.85
  Q 461.99 842.21 461.00 841.75
  Q 459.39 841.01 458.25 841.29
  Q 423.69 836.52 390.32 826.42
  Q 386.22 825.18 382.50 824.99
  Q 378.50 824.78 374.50 824.77
  Q 368.74 824.76 363.09 823.86
  Q 356.45 822.81 352.25 820.54
  Q 347.24 817.84 343.31 813.19
  Q 339.63 808.83 337.83 806.18
  Q 334.68 801.55 329.85 798.71
  Q 299.99 781.17 274.00 758.29
  Q 276.10 756.62 278.56 758.44
  Q 281.80 760.83 290.56 764.94
  Q 301.52 770.08 312.40 775.38
  Q 348.41 792.92 386.77 804.44
  Q 460.69 826.65 539.25 818.00
  Q 547.43 817.10 552.38 815.81
  Q 553.38 815.55 554.64 815.71
  Q 555.78 815.85 556.96 815.75
  Z"
/>
<path fill="#30273d" d="
  M 458.25 841.29
  Q 459.39 841.01 461.00 841.75
  Q 461.99 842.21 465.49 842.85
  Q 467.59 843.24 470.05 843.44
  Q 495.99 845.51 522.00 844.29
  Q 520.24 845.68 518.58 847.18
  Q 516.76 848.80 514.99 849.80
  Q 502.85 856.64 490.42 861.49
  Q 488.86 862.10 487.40 861.26
  Q 472.66 852.84 460.74 842.26
  Q 459.71 841.34 458.25 841.29
  Z"
/>
</svg>
