
<svg xmlns="http://www.w3.org/2000/svg" version="1.1" viewBox="0 0 1024 1024">
<g stroke-width="2.00" fill="none" stroke-linecap="butt">
<path stroke="#bdf9fe" vector-effect="non-scaling-stroke" d="
  M 312.00 305.54
  Q 311.40 305.58 311.64 304.24
  Q 311.79 303.36 311.68 302.55
  L 308.96 283.72
  A 0.50 0.49 -15.3 0 0 308.28 283.34
  Q 294.80 288.92 281.76 295.90
  Q 279.69 297.00 278.85 298.30
  Q 277.78 299.97 277.56 302.03
  Q 277.31 304.35 277.29 304.46
  Q 275.83 312.84 274.54 321.25"
/>
<path stroke="#a2f6ff" vector-effect="non-scaling-stroke" d="
  M 274.54 321.25
  L 261.50 410.71"
/>
<path stroke="#9dedfa" vector-effect="non-scaling-stroke" d="
  M 261.50 410.71
  L 258.71 428.25"
/>
<path stroke="#9ccddf" vector-effect="non-scaling-stroke" d="
  M 258.71 428.25
  Q 238.03 421.85 220.25 409.54"
/>
<path stroke="#9cc7d9" vector-effect="non-scaling-stroke" d="
  M 220.25 409.54
  L 215.25 405.96"
/>
<path stroke="#9cb7cc" vector-effect="non-scaling-stroke" d="
  M 215.25 405.96
  Q 200.55 394.54 189.18 379.80
  Q 188.84 379.37 188.80 379.92
  Q 187.53 398.03 190.81 415.99
  Q 194.24 434.83 198.56 447.44
  Q 206.16 469.60 213.79 491.75"
/>
<path stroke="#bff2fb" vector-effect="non-scaling-stroke" d="
  M 213.79 491.75
  Q 213.83 492.30 213.50 492.25
  Q 198.68 489.96 183.22 488.45
  A 0.72 0.69 -7.8 0 0 182.47 489.40
  L 185.54 497.00"
/>
<path stroke="#a2e6f5" vector-effect="non-scaling-stroke" d="
  M 185.54 497.00
  L 229.29 599.50"
/>
<path stroke="#a4d5e9" vector-effect="non-scaling-stroke" d="
  M 229.29 599.50
  L 233.65 609.58
  A 1.05 0.98 61.4 0 0 235.14 610.08
  L 239.21 607.25"
/>
<path stroke="#a0b8cc" vector-effect="non-scaling-stroke" d="
  M 239.21 607.25
  Q 240.62 610.01 241.52 612.99
  Q 248.15 634.93 256.00 656.46"
/>
<path stroke="#a2a9bd" vector-effect="non-scaling-stroke" d="
  M 256.00 656.46
  Q 214.24 656.55 172.80 651.37
  Q 172.31 651.31 172.65 651.69
  Q 203.69 686.78 235.96 720.75"
/>
<path stroke="#a2a4b8" vector-effect="non-scaling-stroke" d="
  M 235.96 720.75
  Q 260.74 747.33 289.56 769.44
  Q 296.29 774.60 313.79 787.00"
/>
<path stroke="#a9afc6" vector-effect="non-scaling-stroke" d="
  M 313.79 787.00
  L 297.37 789.30
  Q 295.20 789.61 297.20 790.50
  Q 323.81 802.37 351.50 811.96"
/>
<path stroke="#a2a4b8" vector-effect="non-scaling-stroke" d="
  M 351.50 811.96
  Q 384.58 824.29 399.00 829.00
  Q 420.05 835.88 447.25 840.46"
/>
<path stroke="#aacadf" vector-effect="non-scaling-stroke" d="
  M 447.25 840.46
  Q 447.61 840.81 447.06 841.31
  Q 437.11 850.36 429.51 858.61
  Q 426.50 861.88 430.94 861.75
  Q 458.93 860.94 486.78 858.63
  Q 499.97 857.53 506.61 856.09
  Q 526.05 851.86 542.75 840.46"
/>
<path stroke="#a2a4b8" vector-effect="non-scaling-stroke" d="
  M 542.75 840.46
  Q 548.73 839.41 554.74 838.56
  Q 563.41 837.32 566.72 836.74
  Q 610.45 828.99 649.19 812.69
  Q 668.29 804.65 688.33 791.28
  A 0.64 0.62 -39.7 0 1 689.12 791.34
  L 701.46 803.09
  A 0.30 0.30 30.1 0 0 701.96 802.96
  Q 705.44 791.39 708.65 779.74
  Q 709.37 777.10 710.98 775.44
  Q 712.96 773.41 715.29 771.75"
/>
<path stroke="#a0a1b6" vector-effect="non-scaling-stroke" d="
  M 715.29 771.75
  Q 732.01 757.83 751.75 738.25
  Q 778.98 711.24 796.15 678.86
  Q 801.78 668.24 807.29 657.55
  Q 823.54 626.03 843.25 596.54"
/>
<path stroke="#a9afc6" vector-effect="non-scaling-stroke" d="
  M 843.25 596.54
  L 860.81 571.07
  Q 861.07 570.69 860.60 570.74
  L 821.00 575.21"
/>
<path stroke="#a0a1b6" vector-effect="non-scaling-stroke" d="
  M 821.00 575.21
  Q 824.50 545.40 825.00 537.75
  Q 825.47 530.62 825.50 516.75
  Q 825.52 509.99 824.46 505.25"
/>
<path stroke="#9fa6ba" vector-effect="non-scaling-stroke" d="
  M 824.46 505.25
  Q 818.59 480.46 809.96 456.50"
/>
<path stroke="#a2e5f4" vector-effect="non-scaling-stroke" d="
  M 809.96 456.50
  L 810.04 454.50"
/>
<path stroke="#bff8fe" vector-effect="non-scaling-stroke" d="
  M 810.04 454.50
  Q 811.14 452.46 812.31 448.81
  Q 824.02 412.44 829.04 376.22
  Q 831.43 359.07 831.25 341.82
  A 0.36 0.35 -10.3 0 0 830.77 341.49
  Q 823.16 344.42 816.25 348.71"
/>
<path stroke="#a5f6ff" vector-effect="non-scaling-stroke" d="
  M 816.25 348.71
  L 770.00 372.71"
/>
<path stroke="#a2e5f4" vector-effect="non-scaling-stroke" d="
  M 770.00 372.71
  L 769.25 372.79"
/>
<path stroke="#9eb7cc" vector-effect="non-scaling-stroke" d="
  M 769.25 372.79
  L 753.18 353.49
  A 1.87 1.57 -56.9 0 1 752.97 351.75
  L 754.21 348.50"
/>
<path stroke="#96bed1" vector-effect="non-scaling-stroke" d="
  M 754.21 348.50
  Q 764.33 325.27 775.47 302.51
  A 0.31 0.31 12.2 0 0 775.18 302.06
  L 749.75 302.29"
/>
<path stroke="#9eb7cc" vector-effect="non-scaling-stroke" d="
  M 749.75 302.29
  Q 749.45 302.14 749.45 301.81
  Q 749.56 272.57 756.08 244.21
  Q 757.03 240.06 760.95 224.81
  Q 765.29 207.92 770.17 190.94
  Q 770.36 190.28 769.70 190.51
  L 766.00 191.79"
/>
<path stroke="#9ad0e1" vector-effect="non-scaling-stroke" d="
  M 766.00 191.79
  Q 744.29 197.58 727.50 201.50
  Q 682.05 212.12 634.51 214.96
  Q 607.96 216.56 581.50 219.26
  Q 568.30 220.61 555.25 223.04"
/>
<path stroke="#9aeffb" vector-effect="non-scaling-stroke" d="
  M 555.25 223.04
  Q 555.02 222.98 554.96 222.75"
/>
<path stroke="#a0f6ff" vector-effect="non-scaling-stroke" d="
  M 554.96 222.75
  L 554.96 222.50"
/>
<path stroke="#bdf9fe" vector-effect="non-scaling-stroke" d="
  M 554.96 222.50
  Q 557.69 216.93 559.59 211.03
  Q 564.26 196.51 568.32 181.77
  Q 568.47 181.25 567.96 181.39
  L 558.50 183.96"
/>
<path stroke="#a0f6ff" vector-effect="non-scaling-stroke" d="
  M 558.50 183.96
  Q 532.99 190.09 507.70 197.05
  Q 491.38 201.54 472.44 209.19
  Q 453.15 216.97 440.25 232.04"
/>
<path stroke="#9acadb" vector-effect="non-scaling-stroke" d="
  M 440.25 232.04
  Q 439.45 231.26 438.75 229.75
  Q 432.50 216.34 428.25 205.71"
/>
<path stroke="#9ad0e1" vector-effect="non-scaling-stroke" d="
  M 428.25 205.71
  Q 420.02 185.05 417.84 162.93
  Q 417.76 162.16 417.82 161.08
  Q 418.02 157.44 416.29 159.65
  Q 415.34 160.86 415.28 160.93
  Q 356.90 228.41 312.00 305.54"
/>
<path stroke="#349bbd" vector-effect="non-scaling-stroke" d="
  M 428.25 205.71
  Q 425.54 207.35 422.69 211.19
  Q 420.68 213.89 414.56 219.56
  Q 405.67 227.82 385.96 249.11
  Q 385.45 249.66 384.49 250.30
  Q 383.68 250.84 383.00 251.54"
/>
<path stroke="#8fbcae" vector-effect="non-scaling-stroke" d="
  M 383.00 251.54
  Q 378.92 245.45 373.53 247.15
  Q 368.95 248.59 367.63 253.40
  Q 366.00 259.35 372.79 263.00"
/>
<path stroke="#349bbd" vector-effect="non-scaling-stroke" d="
  M 372.79 263.00
  L 372.65 263.93
  Q 372.54 264.63 372.38 264.83
  Q 360.31 280.30 353.90 298.84
  Q 351.62 305.41 354.81 310.94
  Q 357.48 315.57 362.01 319.27
  Q 365.02 321.74 367.66 321.85
  Q 370.76 321.97 374.06 320.06
  Q 382.26 315.33 386.69 310.44
  Q 392.28 304.25 397.44 297.69
  Q 398.66 296.13 396.75 294.46"
/>
<path stroke="#35c0dd" vector-effect="non-scaling-stroke" d="
  M 396.75 294.46
  Q 439.74 276.53 475.31 265.06
  Q 510.14 253.83 545.85 243.32
  A 1.93 1.85 2.9 0 0 547.07 242.27
  L 555.25 223.04"
/>
<path stroke="#3888ae" vector-effect="non-scaling-stroke" d="
  M 766.00 191.79
  Q 766.34 192.78 765.94 193.19
  Q 761.44 197.76 760.44 198.94
  Q 751.39 209.50 739.60 216.87
  Q 732.91 221.04 725.96 224.75"
/>
<path stroke="#2d96ba" vector-effect="non-scaling-stroke" d="
  M 725.96 224.75
  Q 685.78 238.89 643.94 246.95
  Q 614.16 252.69 584.51 259.06
  Q 569.00 262.40 559.00 265.50
  Q 525.11 276.00 496.66 299.03
  A 1.11 0.73 -26.6 0 0 496.24 299.76
  L 496.25 300.21"
/>
<path stroke="#78cfe1" vector-effect="non-scaling-stroke" d="
  M 496.25 300.21
  Q 411.29 299.39 349.96 356.75"
/>
<path stroke="#6ccce0" vector-effect="non-scaling-stroke" d="
  M 349.96 356.75
  Q 329.89 375.66 315.21 399.00"
/>
<path stroke="#39bbdc" vector-effect="non-scaling-stroke" d="
  M 315.21 399.00
  L 306.29 414.75"
/>
<path stroke="#3798bb" vector-effect="non-scaling-stroke" d="
  M 306.29 414.75
  Q 305.02 414.93 303.91 414.28
  A 1.44 1.14 -87.9 0 1 303.35 413.52
  Q 298.11 396.12 294.75 382.50
  Q 294.17 380.15 292.50 378.96"
/>
<path stroke="#37bedc" vector-effect="non-scaling-stroke" d="
  M 292.50 378.96
  Q 300.66 362.13 308.86 345.32
  Q 312.27 338.33 312.62 337.24
  Q 313.96 333.12 313.75 328.25
  Q 313.21 315.68 311.71 307.00"
/>
<path stroke="#58cae0" vector-effect="non-scaling-stroke" d="
  M 311.71 307.00
  L 312.00 305.54"
/>
<path stroke="#30749a" vector-effect="non-scaling-stroke" d="
  M 628.75 341.21
  Q 625.13 340.57 622.81 339.44
  Q 619.06 337.61 615.42 338.03
  Q 615.12 338.07 615.02 338.24
  Q 614.91 338.44 614.96 338.75"
/>
<path stroke="#71c4d7" vector-effect="non-scaling-stroke" d="
  M 614.96 338.75
  Q 561.56 301.80 496.25 300.21"
/>
<path stroke="#35bfea" vector-effect="non-scaling-stroke" d="
  M 323.75 451.46
  Q 311.65 472.68 304.23 495.95
  Q 294.78 525.61 296.77 556.75
  Q 298.66 586.35 313.79 611.75"
/>
<path stroke="#47c3ed" vector-effect="non-scaling-stroke" d="
  M 313.79 611.75
  Q 313.64 612.69 313.20 613.46
  Q 312.81 614.14 311.86 614.53
  Q 310.57 615.06 309.25 615.54"
/>
<path stroke="#3fa3c7" vector-effect="non-scaling-stroke" d="
  M 309.25 615.54
  Q 296.94 594.02 290.63 570.03
  Q 289.15 564.39 287.71 558.75"
/>
<path stroke="#34769e" vector-effect="non-scaling-stroke" d="
  M 749.75 302.29
  Q 749.30 302.95 750.38 303.80
  A 2.27 2.26 -70.9 0 1 751.24 305.58
  Q 751.31 321.76 752.26 336.00
  Q 752.54 340.16 752.25 342.75
  Q 751.91 345.78 753.09 348.04
  A 0.88 0.67 72.5 0 0 753.76 348.51
  L 754.21 348.50"
/>
<path stroke="#409dc1" vector-effect="non-scaling-stroke" d="
  M 769.25 372.79
  Q 768.06 376.00 768.00 376.75
  Q 764.29 426.22 761.46 475.75"
/>
<path stroke="#3b668f" vector-effect="non-scaling-stroke" d="
  M 761.46 475.75
  Q 759.20 475.63 758.66 473.69
  Q 758.18 471.97 758.13 471.87
  Q 753.68 461.27 746.31 447.19
  Q 731.01 417.97 710.06 394.70
  Q 694.55 377.49 675.65 364.11
  Q 658.15 351.71 638.06 344.33
  Q 637.21 344.02 633.36 342.94
  Q 630.99 342.27 628.75 341.21"
/>
<path stroke="#317da5" vector-effect="non-scaling-stroke" d="
  M 628.75 341.21
  Q 629.53 329.12 634.69 315.44
  Q 638.87 304.35 644.20 295.30
  Q 648.76 287.57 656.07 279.24
  Q 668.26 265.37 682.56 255.06
  Q 697.66 244.18 721.00 229.00
  Q 724.65 226.62 725.96 224.75"
/>
<path stroke="#3ab5d4" vector-effect="non-scaling-stroke" d="
  M 292.50 378.96
  L 263.75 437.71"
/>
<path stroke="#3abad9" vector-effect="non-scaling-stroke" d="
  M 263.75 437.71
  Q 258.70 447.80 257.69 449.69
  Q 257.48 450.07 257.04 450.05
  A 0.56 0.47 -85.7 0 1 256.60 449.44
  L 258.71 428.25"
/>
<path stroke="#3fe3fa" vector-effect="non-scaling-stroke" d="
  M 261.50 410.71
  Q 262.97 410.68 264.00 409.25
  Q 266.18 406.21 267.25 404.16
  Q 285.79 368.37 301.94 331.44
  Q 303.48 327.92 303.71 325.50"
/>
<path stroke="#7badc1" vector-effect="non-scaling-stroke" d="
  M 614.96 338.75
  L 615.79 339.50"
/>
<path stroke="#b0fafe" vector-effect="non-scaling-stroke" d="
  M 615.79 339.50
  L 614.24 341.09
  A 1.06 0.77 -33.4 0 0 613.93 341.91
  Q 614.28 343.68 613.36 342.87
  Q 612.67 342.27 612.00 342.79"
/>
<path stroke="#84f5ff" vector-effect="non-scaling-stroke" d="
  M 612.00 342.79
  Q 572.04 321.39 527.21 316.61
  Q 518.14 315.64 507.27 315.05
  Q 488.67 314.04 466.75 315.00
  Q 450.25 315.72 437.75 318.71"
/>
<path stroke="#71e4fb" vector-effect="non-scaling-stroke" d="
  M 437.75 318.71
  Q 405.43 324.33 378.25 342.54"
/>
<path stroke="#83f5ff" vector-effect="non-scaling-stroke" d="
  M 378.25 342.54
  Q 364.92 349.64 353.50 359.54"
/>
<path stroke="#b0fafe" vector-effect="non-scaling-stroke" d="
  M 353.50 359.54
  Q 352.22 358.74 351.48 357.44
  A 0.42 0.41 56.4 0 0 350.87 357.31
  Q 349.65 358.23 349.96 356.75"
/>
<path stroke="#70e6f9" vector-effect="non-scaling-stroke" d="
  M 316.75 399.29
  Q 315.72 399.81 315.21 399.00"
/>
<path stroke="#3bb2d4" vector-effect="non-scaling-stroke" d="
  M 306.29 414.75
  Q 271.77 483.17 287.71 558.75"
/>
<path stroke="#3d80a6" vector-effect="non-scaling-stroke" d="
  M 287.71 558.75
  Q 287.30 558.42 286.89 558.49
  A 1.40 0.46 -15.6 0 1 285.99 558.45
  Q 282.08 556.42 278.00 554.76
  Q 257.92 546.57 243.78 530.26
  Q 243.03 529.39 242.32 529.27
  Q 240.97 529.03 240.71 530.75"
/>
<path stroke="#3faecf" vector-effect="non-scaling-stroke" d="
  M 240.71 530.75
  L 235.50 502.71"
/>
<path stroke="#5cbad5" vector-effect="non-scaling-stroke" d="
  M 235.50 502.71
  L 234.48 495.66
  A 0.74 0.71 1.3 0 0 233.87 495.05
  L 227.00 493.96"
/>
<path stroke="#397fa6" vector-effect="non-scaling-stroke" d="
  M 227.00 493.96
  Q 221.40 456.66 216.19 419.31
  Q 214.81 409.47 214.59 406.69
  A 0.71 0.44 -25.7 0 1 214.92 406.17
  L 215.25 405.96"
/>
<path stroke="#3995b9" vector-effect="non-scaling-stroke" d="
  M 220.25 409.54
  Q 218.39 411.55 219.93 413.61
  Q 220.26 414.05 220.35 414.48
  Q 223.27 428.81 226.69 439.56
  Q 231.54 454.85 242.62 467.62
  Q 245.33 470.76 248.75 471.50
  Q 251.81 472.17 253.69 472.69
  Q 256.41 473.44 257.38 473.31
  Q 259.56 473.04 260.69 470.94
  Q 265.79 461.43 266.23 450.00
  Q 266.44 444.66 266.44 439.31
  A 0.47 0.43 -1.9 0 0 265.94 438.88
  Q 264.57 438.95 263.75 437.71"
/>
<path stroke="#5be7f9" vector-effect="non-scaling-stroke" d="
  M 311.71 307.00
  Q 307.25 316.04 303.71 325.50"
/>
<path stroke="#60f0fe" vector-effect="non-scaling-stroke" d="
  M 303.71 325.50
  Q 289.27 322.33 274.54 321.25"
/>
<path stroke="#35bad7" vector-effect="non-scaling-stroke" d="
  M 439.71 233.50
  Q 438.60 234.56 436.06 237.81
  Q 414.13 265.96 392.53 294.94
  Q 391.53 296.28 393.12 295.73
  L 396.75 294.46"
/>
<path stroke="#8fb5a8" vector-effect="non-scaling-stroke" d="
  M 372.79 263.00
  Q 379.44 264.65 382.81 259.31
  Q 385.05 255.78 383.00 251.54"
/>
<path stroke="#3be6fb" vector-effect="non-scaling-stroke" d="
  M 554.96 222.75
  Q 552.63 222.20 550.43 222.92
  Q 501.47 239.03 452.35 254.97
  Q 450.36 255.61 449.03 253.99
  Q 442.04 245.41 440.33 235.00
  Q 440.33 235.00 439.95 234.09
  L 439.71 233.50"
/>
<path stroke="#3ac1db" vector-effect="non-scaling-stroke" d="
  M 439.71 233.50
  L 440.25 232.04"
/>
<path stroke="#3f94b7" vector-effect="non-scaling-stroke" d="
  M 761.46 475.75
  Q 761.28 483.16 762.31 488.94
  Q 764.44 500.84 766.46 512.75"
/>
<path stroke="#3c557d" vector-effect="non-scaling-stroke" d="
  M 766.46 512.75
  Q 764.85 512.46 764.37 510.98
  A 1.36 1.33 -83.2 0 0 763.81 510.25
  Q 761.66 508.90 760.75 505.50
  Q 760.10 503.05 759.84 501.39
  Q 759.47 498.99 758.88 497.38
  Q 757.80 494.42 757.54 491.25
  A 1.51 1.35 -72.3 0 0 757.15 490.38
  Q 753.61 486.69 748.51 486.96
  A 1.53 1.37 -65.4 0 0 747.63 487.34
  Q 744.82 489.90 741.40 491.51
  Q 740.61 491.88 739.39 491.97
  Q 738.33 492.05 737.31 492.32
  Q 736.02 492.65 734.72 493.95
  Q 732.69 495.98 730.38 497.66
  Q 728.66 498.91 725.91 501.18
  Q 722.92 503.64 719.27 505.13
  Q 718.86 505.30 718.50 505.70
  Q 717.18 507.19 715.06 507.10
  Q 714.51 507.08 714.11 507.27
  Q 711.62 508.45 709.59 510.31
  Q 709.27 510.60 708.93 511.18
  Q 708.01 512.76 707.53 510.55
  Q 707.42 510.05 707.21 510.50
  Q 706.37 512.23 706.70 514.26
  Q 707.08 516.62 706.21 518.75"
/>
<path stroke="#3c89b4" vector-effect="non-scaling-stroke" d="
  M 706.21 518.75
  Q 706.67 498.02 704.00 479.00
  Q 700.16 451.58 688.54 425.50"
/>
<path stroke="#6eaac1" vector-effect="non-scaling-stroke" d="
  M 647.29 365.75
  Q 632.88 351.02 615.79 339.50"
/>
<path stroke="#44e1fa" vector-effect="non-scaling-stroke" d="
  M 323.75 451.04
  Q 312.28 437.01 310.01 419.00
  Q 309.56 415.38 310.04 411.83
  Q 310.37 409.39 312.12 406.71
  Q 314.51 403.05 316.75 399.29"
/>
<path stroke="#77f1fe" vector-effect="non-scaling-stroke" d="
  M 316.75 399.29
  Q 332.59 377.06 353.50 359.54"
/>
<path stroke="#4b82af" vector-effect="non-scaling-stroke" d="
  M 561.25 711.71
  Q 514.87 726.96 468.00 721.25
  Q 418.21 715.18 375.37 686.36
  Q 343.26 664.75 320.50 633.46"
/>
<path stroke="#4991be" vector-effect="non-scaling-stroke" d="
  M 309.25 615.54
  L 320.50 633.46"
/>
<path stroke="#436289" vector-effect="non-scaling-stroke" d="
  M 320.50 633.46
  Q 319.14 633.49 318.50 635.00
  Q 315.44 642.21 308.39 644.09
  Q 306.64 644.56 299.17 645.77
  Q 293.29 646.73 287.27 645.87
  Q 285.11 645.56 283.82 645.83
  Q 281.43 646.32 282.24 648.43
  L 285.25 656.28
  A 0.90 0.85 79.4 0 1 284.46 657.51
  Q 272.88 657.16 261.50 657.25
  Q 259.96 657.26 256.00 656.46"
/>
<path stroke="#458eb6" vector-effect="non-scaling-stroke" d="
  M 239.21 607.25
  Q 239.58 606.47 240.27 605.95
  Q 240.66 605.66 240.92 605.24
  Q 241.83 603.72 243.06 605.44
  Q 244.61 607.59 244.75 605.00
  Q 245.28 595.49 244.29 586.00"
/>
<path stroke="#4492b9" vector-effect="non-scaling-stroke" d="
  M 244.29 586.00
  L 242.79 558.25"
/>
<path stroke="#37bbe9" vector-effect="non-scaling-stroke" d="
  M 343.04 472.75
  Q 332.25 488.61 324.75 506.25
  Q 316.76 525.04 316.91 545.50
  Q 317.19 581.53 338.81 609.94
  Q 349.56 624.06 367.25 635.46"
/>
<path stroke="#3fade2" vector-effect="non-scaling-stroke" d="
  M 336.75 640.04
  Q 323.29 627.50 313.79 611.75"
/>
<path stroke="#26beef" vector-effect="non-scaling-stroke" d="
  M 638.75 379.21
  Q 637.93 379.34 638.26 380.21
  Q 644.90 397.80 650.28 415.82
  Q 662.14 455.60 658.00 497.00
  Q 657.58 501.21 656.04 503.75"
/>
<path stroke="#39dcfc" vector-effect="non-scaling-stroke" d="
  M 656.04 503.75
  Q 654.04 487.24 648.68 471.56
  Q 646.98 466.60 646.66 464.43
  Q 646.15 461.07 646.25 457.00
  Q 646.55 444.36 644.39 430.01
  Q 643.62 424.88 642.22 422.24
  Q 640.21 418.44 636.69 416.06
  Q 632.30 413.10 629.69 410.78
  A 1.60 1.51 -76.6 0 1 629.21 409.95
  Q 627.45 401.60 624.71 393.51
  Q 622.73 387.65 619.11 382.75
  Q 618.38 381.76 618.25 382.99
  Q 617.96 385.77 618.50 388.50
  Q 618.82 390.12 617.79 392.90
  Q 617.32 394.19 615.65 396.73
  Q 611.10 403.66 611.80 412.27
  Q 612.19 417.15 616.55 420.83
  Q 617.99 422.05 617.13 423.73
  Q 614.88 428.07 610.66 432.48
  A 0.66 0.66 -38.4 0 1 609.62 432.36
  Q 587.06 394.68 553.81 365.44
  Q 548.17 360.48 540.85 353.02
  Q 537.98 350.11 536.38 349.35
  Q 533.80 348.13 530.50 348.25
  Q 520.08 348.63 512.25 350.25
  Q 511.21 350.47 508.22 351.83
  Q 506.12 352.79 504.07 352.77
  Q 496.38 352.70 488.96 350.76
  Q 484.88 349.69 481.90 349.64
  Q 472.22 349.47 462.61 350.58
  Q 452.30 351.77 449.38 352.31
  Q 442.77 353.52 436.56 356.31
  Q 435.83 356.64 433.74 358.81
  Q 432.42 360.17 430.80 361.11
  Q 424.11 365.00 418.16 370.19
  Q 416.15 371.95 418.59 373.03
  Q 426.25 376.44 435.44 377.00
  Q 437.99 377.15 435.95 378.68
  Q 433.82 380.27 431.18 380.59
  Q 423.05 381.57 415.01 383.07
  Q 411.57 383.71 409.56 385.06
  Q 400.83 390.94 392.67 399.93
  Q 388.75 404.26 384.93 408.68
  Q 379.54 414.91 379.91 423.19
  A 1.37 1.22 66.2 0 1 379.62 424.08
  Q 378.66 425.21 376.19 427.44
  Q 368.28 434.59 361.56 445.26
  Q 352.79 459.22 348.94 464.44
  Q 345.41 469.22 343.75 472.29"
/>
<path stroke="#33ccf5" vector-effect="non-scaling-stroke" d="
  M 343.75 472.29
  L 343.04 472.75"
/>
<path stroke="#2abaec" vector-effect="non-scaling-stroke" d="
  M 343.04 472.75
  Q 338.33 467.10 334.69 463.56
  Q 328.23 457.28 323.75 451.46"
/>
<path stroke="#32d0f7" vector-effect="non-scaling-stroke" d="
  M 323.75 451.46
  L 323.75 451.04"
/>
<path stroke="#38dcfc" vector-effect="non-scaling-stroke" d="
  M 323.75 451.04
  Q 335.58 430.93 347.20 410.70
  Q 361.25 386.26 370.63 359.71
  Q 372.53 354.34 373.89 351.58
  Q 375.82 347.65 378.20 343.94
  Q 378.63 343.27 378.25 342.54"
/>
<path stroke="#418caf" vector-effect="non-scaling-stroke" d="
  M 809.96 456.50
  Q 788.43 484.72 767.58 513.45
  Q 767.20 513.97 766.87 513.89
  Q 766.44 513.79 766.46 512.75"
/>
<path stroke="#77f1fe" vector-effect="non-scaling-stroke" d="
  M 612.00 342.79
  Q 628.96 352.21 643.07 365.47
  A 1.37 0.70 53.1 0 0 643.93 365.89
  L 647.29 365.75"
/>
<path stroke="#42a5c2" vector-effect="non-scaling-stroke" d="
  M 647.29 365.75
  Q 673.52 391.74 688.54 425.50"
/>
<path stroke="#45d1f2" vector-effect="non-scaling-stroke" d="
  M 688.54 425.50
  Q 688.44 427.59 686.46 428.00"
/>
<path stroke="#39cff2" vector-effect="non-scaling-stroke" d="
  M 686.46 428.00
  Q 676.23 408.87 659.79 394.71
  Q 649.86 386.15 638.75 379.21"
/>
<path stroke="#39dcfc" vector-effect="non-scaling-stroke" d="
  M 638.75 379.21
  Q 635.27 376.75 631.53 374.69
  Q 610.87 363.35 590.55 351.42
  Q 571.22 340.06 550.46 331.60
  Q 529.69 323.14 507.67 318.91
  Q 495.29 316.53 477.56 316.69
  Q 464.60 316.80 457.41 317.46
  Q 457.26 317.48 452.07 317.79
  Q 447.53 318.06 443.25 319.75
  Q 441.64 320.38 437.75 318.71"
/>
<path stroke="#5caac7" vector-effect="non-scaling-stroke" d="
  M 227.00 493.96
  Q 219.32 493.11 214.44 492.31
  Q 214.05 492.25 213.79 491.75"
/>
<path stroke="#439fc1" vector-effect="non-scaling-stroke" d="
  M 240.71 530.75
  Q 242.41 544.45 242.79 558.25"
/>
<path stroke="#46c0e2" vector-effect="non-scaling-stroke" d="
  M 242.79 558.25
  Q 242.32 559.05 242.43 559.65
  A 0.54 0.53 72.9 0 1 242.12 560.24
  Q 236.84 562.49 231.43 563.24
  A 1.30 1.26 -4.8 0 0 230.31 564.53
  L 231.04 594.75"
/>
<path stroke="#47bcdf" vector-effect="non-scaling-stroke" d="
  M 231.04 594.75
  Q 231.09 596.50 230.99 598.25
  Q 230.91 599.71 229.29 599.50"
/>
<path stroke="#62d9f0" vector-effect="non-scaling-stroke" d="
  M 235.50 502.71
  Q 225.67 504.07 214.75 502.50
  Q 198.41 500.15 185.54 497.00"
/>
<path stroke="#5ef0fe" vector-effect="non-scaling-stroke" d="
  M 554.96 222.50
  Q 553.83 222.27 554.00 220.75
  Q 556.09 201.49 557.17 193.35
  Q 557.20 193.16 558.05 188.70
  Q 558.49 186.36 558.50 183.96"
/>
<path stroke="#3e81ad" vector-effect="non-scaling-stroke" d="
  M 706.21 518.75
  Q 704.41 564.39 684.29 605.25"
/>
<path stroke="#43aae0" vector-effect="non-scaling-stroke" d="
  M 684.29 605.25
  Q 684.02 604.03 682.80 604.11
  A 1.36 1.24 -27.1 0 1 681.92 603.87
  Q 680.58 602.91 679.02 603.37
  A 0.19 0.18 -12.2 0 1 678.78 603.22
  L 678.75 603.00
  A 0.88 0.84 10.7 0 0 678.29 602.36
  Q 674.72 600.50 671.79 597.75"
/>
<path stroke="#40a4dc" vector-effect="non-scaling-stroke" d="
  M 671.79 597.75
  Q 673.90 585.46 674.78 573.05
  Q 675.69 560.11 676.59 555.04
  Q 678.63 543.65 682.28 532.63
  Q 683.65 528.50 687.19 517.44
  Q 692.42 501.10 695.25 481.25
  Q 697.38 466.34 694.21 449.75"
/>
<path stroke="#3f4871" vector-effect="non-scaling-stroke" d="
  M 824.46 505.25
  Q 822.13 505.39 821.19 507.19
  Q 814.23 520.42 804.56 540.81
  Q 797.14 556.46 788.75 583.70
  Q 785.03 595.76 779.58 607.11
  Q 778.39 609.58 776.64 611.31
  Q 774.98 612.95 772.81 614.81
  Q 768.07 618.89 762.07 617.64
  Q 758.72 616.94 756.87 614.54
  Q 755.59 612.87 755.34 609.11
  Q 755.01 604.03 754.32 599.00
  A 1.22 0.96 -82.2 0 0 753.85 598.20
  Q 752.11 597.09 751.00 599.75
  Q 749.49 603.36 746.42 608.42
  Q 743.76 612.82 741.41 616.83
  Q 730.75 635.04 715.14 649.40
  Q 711.61 652.64 708.11 655.91
  A 1.44 1.10 -61.8 0 1 707.25 656.30
  Q 705.73 656.36 706.50 654.75
  Q 710.91 645.51 712.41 641.18
  Q 714.44 635.37 717.00 629.79
  Q 722.55 617.70 726.80 605.11
  Q 726.96 604.63 726.98 604.24
  Q 727.05 602.80 726.10 603.65
  A 0.70 0.69 -51.8 0 1 725.32 603.75
  Q 722.99 602.52 720.48 603.33
  Q 719.98 603.49 719.52 603.39
  Q 718.28 603.13 717.75 603.25
  Q 713.53 604.22 709.22 604.47
  Q 708.37 604.52 703.21 604.04
  Q 697.32 603.49 692.17 606.91
  Q 686.32 610.79 685.50 612.50
  Q 684.09 615.45 680.96 616.18
  A 0.22 0.21 -23.4 0 1 680.74 616.10
  Q 679.89 614.86 679.55 615.73
  Q 679.11 616.85 678.04 617.25"
/>
<path stroke="#4376a9" vector-effect="non-scaling-stroke" d="
  M 678.04 617.25
  L 684.29 605.25"
/>
<path stroke="#454e76" vector-effect="non-scaling-stroke" d="
  M 702.71 733.50
  Q 703.22 734.97 701.92 735.92
  Q 696.56 739.84 690.53 742.64
  Q 660.41 756.62 628.18 764.64
  Q 600.85 771.44 573.25 776.99
  Q 543.57 782.95 514.25 790.46"
/>
<path stroke="#4b5882" vector-effect="non-scaling-stroke" d="
  M 514.25 790.46
  Q 514.38 789.05 513.01 788.93
  Q 508.25 788.53 503.50 788.02
  Q 492.71 786.86 483.03 782.00
  Q 472.06 776.49 465.56 771.44
  Q 451.62 760.59 431.94 742.06
  Q 417.69 728.65 404.44 720.31
  Q 384.59 707.83 359.49 704.82
  Q 350.73 703.77 341.88 705.02
  A 0.35 0.35 -18.7 0 0 341.62 705.54
  Q 345.16 711.53 349.33 716.89
  Q 353.88 722.74 353.93 722.81
  Q 373.06 748.23 394.25 771.96"
/>
<path stroke="#454e76" vector-effect="non-scaling-stroke" d="
  M 394.25 771.96
  Q 392.62 773.21 391.50 772.75
  Q 383.13 769.30 374.54 766.48
  Q 362.10 762.38 362.02 762.36
  Q 321.54 748.47 309.19 745.06
  Q 279.59 736.89 252.94 725.06
  Q 247.00 722.43 243.77 721.14
  Q 243.71 721.12 241.79 720.22
  Q 240.13 719.44 238.26 719.48
  Q 237.83 719.48 237.29 719.29
  Q 235.91 718.78 235.96 720.75"
/>
<path stroke="#4778ab" vector-effect="non-scaling-stroke" d="
  M 565.71 710.25
  L 561.25 711.71"
/>
<path stroke="#4ca8e0" vector-effect="non-scaling-stroke" d="
  M 561.25 711.71
  Q 561.51 710.51 560.50 709.96"
/>
<path stroke="#4598d8" vector-effect="non-scaling-stroke" d="
  M 671.79 597.75
  Q 667.67 614.88 656.81 631.06
  Q 643.69 650.62 629.49 665.92
  Q 624.40 671.40 619.79 675.34
  Q 614.24 680.08 608.94 683.44
  Q 596.67 691.20 581.15 698.44
  Q 578.86 699.51 575.86 701.17
  Q 573.24 702.62 570.54 703.90
  Q 570.47 703.93 566.75 706.02
  Q 564.63 707.21 562.18 707.61
  A 1.14 0.62 -69.5 0 0 561.54 708.17
  L 560.50 709.96"
/>
<path stroke="#49a2dc" vector-effect="non-scaling-stroke" d="
  M 560.50 709.96
  Q 558.26 710.15 556.07 709.66
  Q 525.05 702.67 493.72 697.19
  Q 472.09 693.41 434.75 685.50
  Q 396.34 677.36 364.56 660.44
  Q 350.35 652.87 336.75 640.04"
/>
<path stroke="#379ed9" vector-effect="non-scaling-stroke" d="
  M 336.75 640.04
  Q 339.81 637.23 343.55 635.46
  A 1.60 1.49 35.7 0 1 344.49 635.34
  Q 350.40 636.46 356.41 636.71
  Q 356.53 636.71 359.06 637.02
  Q 361.65 637.33 363.90 635.85
  A 1.31 1.29 32.1 0 1 364.80 635.65
  Q 366.04 635.81 367.25 635.46"
/>
<path stroke="#41b0e3" vector-effect="non-scaling-stroke" d="
  M 367.25 635.46
  Q 384.57 646.43 404.31 651.91
  Q 404.38 651.93 406.34 652.36
  Q 410.61 653.30 413.69 657.56
  Q 420.93 667.57 433.54 673.24
  Q 458.84 684.62 486.52 687.04
  Q 494.54 687.75 501.75 685.50
  Q 522.81 678.94 545.75 670.00
  Q 550.60 668.11 558.50 663.46"
/>
<path stroke="#3a9cd9" vector-effect="non-scaling-stroke" d="
  M 558.50 663.46
  Q 559.34 663.74 560.18 663.66
  Q 560.68 663.61 561.69 663.04
  Q 563.37 662.08 565.28 662.60
  Q 565.80 662.74 566.23 662.64
  Q 570.95 661.49 575.38 659.45
  Q 576.82 658.79 575.30 658.41
  Q 574.83 658.30 575.28 658.14
  Q 577.96 657.20 582.50 656.75
  Q 587.10 656.30 592.88 653.09
  Q 598.01 650.23 603.57 648.41
  Q 606.09 647.58 607.82 646.08
  Q 614.89 639.89 618.81 634.56
  Q 627.36 622.95 640.92 602.01
  Q 640.99 601.90 647.52 591.93
  Q 657.75 576.29 666.60 559.84
  Q 675.55 543.21 681.50 525.29"
/>
<path stroke="#47afd6" vector-effect="non-scaling-stroke" d="
  M 244.29 586.00
  L 243.70 588.97
  A 0.85 0.76 0.9 0 1 242.99 589.58
  L 231.99 591.17
  A 0.67 0.65 -89.8 0 0 231.44 591.74
  L 231.04 594.75"
/>
<path stroke="#39bae9" vector-effect="non-scaling-stroke" d="
  M 590.25 619.54
  Q 587.37 624.36 584.43 629.14
  Q 581.77 633.47 582.00 637.25
  Q 582.33 642.61 579.58 645.84
  Q 570.57 656.47 558.50 663.46"
/>
<path stroke="#39cff2" vector-effect="non-scaling-stroke" d="
  M 656.04 503.75
  Q 655.74 518.13 651.96 532.00"
/>
<path stroke="#3fc9ef" vector-effect="non-scaling-stroke" d="
  M 651.96 532.00
  Q 646.84 550.48 636.76 566.78
  Q 624.71 586.29 608.19 602.19
  Q 599.20 610.84 590.25 619.54"
/>
<path stroke="#46ddf9" vector-effect="non-scaling-stroke" d="
  M 590.25 619.54
  Q 588.20 620.19 587.31 620.81
  Q 579.20 626.55 566.31 632.31
  Q 551.19 639.08 536.19 641.16
  Q 534.26 641.43 517.77 642.21
  Q 505.55 642.78 493.49 644.94
  Q 474.72 648.30 455.76 646.13
  Q 447.39 645.18 438.98 644.57
  Q 436.83 644.42 435.24 643.84
  Q 433.42 643.19 431.69 642.31
  Q 420.58 636.69 410.45 629.55
  Q 402.77 624.15 394.49 617.51
  Q 381.22 606.86 370.81 594.69
  Q 366.73 589.91 363.47 583.30
  Q 362.52 581.36 362.58 578.97
  Q 362.74 573.24 362.25 571.00
  Q 361.80 568.92 363.59 568.54
  A 1.59 1.57 75.5 0 0 364.76 566.54
  Q 361.07 554.23 357.93 541.81
  Q 356.06 534.43 355.34 526.87
  Q 355.05 523.83 355.51 517.64
  Q 356.64 502.66 350.69 488.63
  Q 347.23 480.46 343.75 472.29"
/>
<path stroke="#32b3e5" vector-effect="non-scaling-stroke" d="
  M 686.46 428.00
  Q 691.71 438.38 694.21 449.75"
/>
<path stroke="#34a2dc" vector-effect="non-scaling-stroke" d="
  M 694.21 449.75
  Q 691.04 449.07 691.75 452.25
  Q 693.40 459.66 693.06 468.81
  Q 691.96 498.04 681.50 525.29"
/>
<path stroke="#2cace2" vector-effect="non-scaling-stroke" d="
  M 681.50 525.29
  Q 680.57 525.04 680.06 525.81
  A 4.07 1.22 -51.7 0 0 679.00 528.50
  Q 679.15 529.67 678.47 530.18
  Q 678.09 530.47 676.97 530.49
  Q 673.03 530.56 669.75 532.75
  Q 666.91 534.66 663.50 534.25
  Q 662.24 534.10 659.75 534.50
  Q 656.03 535.10 653.30 532.65
  A 0.69 0.58 -37.7 0 0 652.54 532.62
  Q 651.93 532.98 651.96 532.00"
/>
<path stroke="#61def3" vector-effect="non-scaling-stroke" d="
  M 810.04 454.50
  Q 809.91 453.92 809.46 453.50"
/>
<path stroke="#64eefe" vector-effect="non-scaling-stroke" d="
  M 809.46 453.50
  Q 808.32 449.79 808.50 447.00
  Q 810.71 411.76 816.00 370.75
  Q 817.25 361.05 816.25 348.71"
/>
<path stroke="#47dcf4" vector-effect="non-scaling-stroke" d="
  M 809.46 453.50
  Q 807.74 453.20 806.81 454.06
  Q 803.44 457.19 795.35 465.60
  Q 789.09 472.11 781.17 476.45
  A 0.82 0.81 70.7 0 1 779.98 475.87
  Q 774.29 444.35 772.33 412.25
  Q 771.30 395.51 770.67 376.22
  A 2.59 2.59 -71.0 0 0 769.75 374.33
  Q 768.99 373.69 770.00 372.71"
/>
<path stroke="#4a517c" vector-effect="non-scaling-stroke" d="
  M 821.00 575.21
  Q 820.43 575.60 820.43 576.26
  Q 820.43 577.21 820.43 577.25
  Q 818.66 589.11 816.76 602.16
  A 0.46 0.45 -1.8 0 0 817.31 602.67
  Q 827.46 600.47 836.91 597.60
  Q 840.01 596.66 843.25 596.54"
/>
<path stroke="#42466f" vector-effect="non-scaling-stroke" d="
  M 715.29 771.75
  Q 714.84 770.64 713.82 770.63
  A 0.60 0.52 -4.6 0 1 713.24 770.20
  L 712.36 765.73
  A 1.80 1.62 52.9 0 1 712.44 764.80
  Q 713.23 762.73 712.28 761.20
  Q 710.94 759.04 713.02 757.59
  Q 715.17 756.09 714.69 753.16
  A 1.60 1.59 85.3 0 1 716.25 751.31
  Q 717.91 751.29 717.67 749.53
  Q 717.47 748.05 717.47 747.95
  Q 717.28 741.95 717.94 736.00
  A 0.61 0.60 -77.9 0 0 717.52 735.35
  Q 710.27 733.20 702.71 733.50"
/>
<path stroke="#434b73" vector-effect="non-scaling-stroke" d="
  M 702.71 733.50
  Q 699.33 732.96 695.95 732.45
  Q 692.50 731.92 689.23 731.20
  Q 661.47 725.06 650.50 723.50
  Q 609.39 717.65 568.24 712.04
  Q 566.40 711.79 565.71 710.25"
/>
<path stroke="#4471a4" vector-effect="non-scaling-stroke" d="
  M 565.71 710.25
  Q 638.49 683.68 678.04 617.25"
/>
<path stroke="#4a537d" vector-effect="non-scaling-stroke" d="
  M 514.25 790.46
  Q 497.71 794.85 494.75 795.50
  Q 487.66 797.05 479.57 796.94
  Q 473.48 796.86 464.50 795.30
  Q 431.26 789.53 400.25 776.00
  Q 397.57 774.83 394.25 771.96"
/>
<path stroke="#4d6f98" vector-effect="non-scaling-stroke" d="
  M 542.75 840.46
  Q 552.85 832.92 561.84 824.40
  Q 562.38 823.89 561.64 823.81
  Q 557.26 823.38 553.50 823.53
  Q 535.35 824.28 517.25 825.75
  Q 503.63 826.86 484.22 831.07
  Q 469.44 834.27 469.26 834.31
  Q 458.07 836.66 450.25 838.50
  Q 448.52 838.91 447.25 840.46"
/>
<path stroke="#4c547f" vector-effect="non-scaling-stroke" d="
  M 351.50 811.96
  Q 351.66 811.27 350.94 810.81
  Q 345.89 807.65 343.11 806.33
  Q 338.08 803.95 333.55 800.71
  Q 323.76 793.72 313.79 787.00"
/>
<path stroke="#959287" vector-effect="non-scaling-stroke" d="
  M 683.22 320.94
  A 9.85 9.85 0.0 0 0 673.37 311.09
  A 9.85 9.85 0.0 0 0 663.52 320.94
  A 9.85 9.85 0.0 0 0 673.37 330.79
  A 9.85 9.85 0.0 0 0 683.22 320.94"
/>
<path stroke="#6eeffd" vector-effect="non-scaling-stroke" d="
  M 424.44 419.19
  Q 409.05 433.31 404.33 438.08
  Q 397.17 445.31 391.07 453.39
  Q 384.37 462.27 380.52 470.34
  Q 370.07 492.28 373.31 516.69
  Q 376.02 537.07 388.95 554.60
  A 0.89 0.87 68.4 0 0 389.74 554.95
  Q 398.44 554.06 407.17 554.36
  Q 410.52 554.47 413.27 555.04
  Q 416.94 555.79 419.19 556.81
  Q 428.14 560.88 437.66 568.22
  Q 440.03 570.05 441.41 571.71
  Q 443.05 573.68 444.32 575.95
  A 0.71 0.71 73.8 0 1 443.74 577.01
  Q 434.12 577.50 424.25 578.24
  Q 420.01 578.55 416.69 580.36
  Q 414.69 581.45 414.74 583.72
  Q 414.90 590.63 418.65 596.07
  Q 425.89 606.56 436.11 614.17
  Q 439.32 616.56 441.81 616.94
  Q 456.85 619.20 471.67 627.60
  Q 473.58 628.68 475.73 628.26
  Q 480.04 627.43 484.65 625.56
  Q 491.29 622.87 492.42 622.01
  Q 496.49 618.92 494.32 612.31
  Q 492.97 608.23 491.68 604.14
  Q 490.93 601.78 491.47 599.81
  Q 493.56 592.11 501.31 589.31
  Q 510.45 586.02 526.50 581.25
  Q 534.53 578.86 539.61 573.69
  Q 540.64 572.65 542.38 569.91
  Q 543.53 568.11 545.11 566.06
  A 2.74 2.73 -69.9 0 1 547.36 565.01
  Q 553.72 565.23 558.51 569.00
  Q 562.19 571.89 563.59 575.66
  Q 565.13 579.79 563.88 584.47
  Q 562.33 590.27 558.69 595.72
  Q 558.39 596.16 558.93 596.20
  L 572.49 597.06
  A 3.08 2.83 28.6 0 0 574.26 596.62
  Q 586.82 588.77 595.66 578.44
  Q 599.33 574.16 602.10 568.23
  Q 608.77 553.92 614.00 536.50
  Q 620.09 516.22 619.64 496.23
  Q 619.40 486.00 617.05 476.45
  Q 611.47 453.84 596.59 435.39
  Q 584.29 420.15 570.27 406.48
  Q 560.90 397.34 552.44 391.56
  Q 529.86 376.14 501.50 375.39
  Q 484.49 374.93 467.00 380.25
  Q 443.72 387.33 427.08 403.77
  Q 424.95 405.87 424.38 407.90
  Q 423.67 410.40 424.15 413.04
  Q 424.16 413.10 425.27 415.79
  Q 426.06 417.69 424.44 419.19"
/>
<path stroke="#48e0fa" vector-effect="non-scaling-stroke" d="
  M 528.39 626.79
  Q 534.26 629.82 541.26 628.30
  Q 547.69 626.90 552.68 622.69
  Q 554.80 620.90 552.83 618.96
  Q 544.61 610.82 534.15 615.24
  A 0.94 0.90 84.4 0 0 533.61 615.93
  Q 532.74 620.94 528.30 623.57
  Q 525.43 625.27 528.39 626.79"
/>
<path stroke="#b0f7fc" vector-effect="non-scaling-stroke" d="
  M 553.38 550.64
  Q 563.35 541.50 570.19 531.44
  Q 580.34 516.51 581.53 498.74
  Q 582.17 489.16 580.06 478.86
  Q 573.80 448.28 546.44 430.84
  Q 532.11 421.70 514.25 420.25
  Q 498.20 418.95 483.81 423.76
  Q 474.44 426.89 466.01 432.73
  Q 453.22 441.59 445.56 454.56
  Q 434.02 474.13 434.16 497.27
  Q 434.23 507.57 436.73 517.05
  Q 443.65 543.31 466.33 557.82
  Q 474.96 563.34 484.50 566.00
  Q 499.64 570.24 516.00 568.00
  Q 537.67 565.03 553.38 550.64"
/>
<path stroke="#997267" vector-effect="non-scaling-stroke" d="
  M 765.8580 582.7597
  A 5.05 4.80 28.5 0 0 763.7104 576.1317
  A 5.05 4.80 28.5 0 0 756.9820 577.9403
  A 5.05 4.80 28.5 0 0 759.1296 584.5683
  A 5.05 4.80 28.5 0 0 765.8580 582.7597"
/>
<path stroke="#9d7268" vector-effect="non-scaling-stroke" d="
  M 329.70 711.96
  A 17.59 17.59 0.0 0 0 312.11 694.37
  A 17.59 17.59 0.0 0 0 294.52 711.96
  A 17.59 17.59 0.0 0 0 312.11 729.55
  A 17.59 17.59 0.0 0 0 329.70 711.96"
/>
<path stroke="#977671" vector-effect="non-scaling-stroke" d="
  M 621.2732 752.4406
  A 11.29 10.89 96.8 0 0 633.4234 742.5194
  A 11.29 10.89 96.8 0 0 623.9468 730.0194
  A 11.29 10.89 96.8 0 0 611.7966 739.9406
  A 11.29 10.89 96.8 0 0 621.2732 752.4406"
/>
<path stroke="#9d756a" vector-effect="non-scaling-stroke" d="
  M 484.16 756.43
  A 5.37 5.37 0.0 0 0 478.79 751.06
  A 5.37 5.37 0.0 0 0 473.42 756.43
  A 5.37 5.37 0.0 0 0 478.79 761.80
  A 5.37 5.37 0.0 0 0 484.16 756.43"
/>
<path stroke="#ef9961" vector-effect="non-scaling-stroke" d="
  M 626.61 749.20
  Q 628.18 748.70 628.42 747.98
  A 3.57 3.55 -9.4 0 1 629.64 746.29
  Q 631.75 744.70 632.10 742.90
  Q 632.32 741.80 631.66 739.11
  Q 630.03 732.42 623.00 732.25
  Q 614.98 732.06 613.24 739.14
  Q 612.53 742.01 613.98 744.52
  Q 615.57 747.28 618.29 749.03
  Q 620.10 750.19 622.34 750.03
  Q 624.51 749.87 626.61 749.20"
/>
</g>
<path fill="#ffffff" d="
  M 0.00 0.00
  L 1024.00 0.00
  L 1024.00 1024.00
  L 0.00 1024.00
  L 0.00 0.00
  Z
  M 312.00 305.54
  Q 311.40 305.58 311.64 304.24
  Q 311.79 303.36 311.68 302.55
  L 308.96 283.72
  A 0.50 0.49 -15.3 0 0 308.28 283.34
  Q 294.80 288.92 281.76 295.90
  Q 279.69 297.00 278.85 298.30
  Q 277.78 299.97 277.56 302.03
  Q 277.31 304.35 277.29 304.46
  Q 275.83 312.84 274.54 321.25
  L 261.50 410.71
  L 258.71 428.25
  Q 238.03 421.85 220.25 409.54
  L 215.25 405.96
  Q 200.55 394.54 189.18 379.80
  Q 188.84 379.37 188.80 379.92
  Q 187.53 398.03 190.81 415.99
  Q 194.24 434.83 198.56 447.44
  Q 206.16 469.60 213.79 491.75
  Q 213.83 492.30 213.50 492.25
  Q 198.68 489.96 183.22 488.45
  A 0.72 0.69 -7.8 0 0 182.47 489.40
  L 185.54 497.00
  L 229.29 599.50
  L 233.65 609.58
  A 1.05 0.98 61.4 0 0 235.14 610.08
  L 239.21 607.25
  Q 240.62 610.01 241.52 612.99
  Q 248.15 634.93 256.00 656.46
  Q 214.24 656.55 172.80 651.37
  Q 172.31 651.31 172.65 651.69
  Q 203.69 686.78 235.96 720.75
  Q 260.74 747.33 289.56 769.44
  Q 296.29 774.60 313.79 787.00
  L 297.37 789.30
  Q 295.20 789.61 297.20 790.50
  Q 323.81 802.37 351.50 811.96
  Q 384.58 824.29 399.00 829.00
  Q 420.05 835.88 447.25 840.46
  Q 447.61 840.81 447.06 841.31
  Q 437.11 850.36 429.51 858.61
  Q 426.50 861.88 430.94 861.75
  Q 458.93 860.94 486.78 858.63
  Q 499.97 857.53 506.61 856.09
  Q 526.05 851.86 542.75 840.46
  Q 548.73 839.41 554.74 838.56
  Q 563.41 837.32 566.72 836.74
  Q 610.45 828.99 649.19 812.69
  Q 668.29 804.65 688.33 791.28
  A 0.64 0.62 -39.7 0 1 689.12 791.34
  L 701.46 803.09
  A 0.30 0.30 30.1 0 0 701.96 802.96
  Q 705.44 791.39 708.65 779.74
  Q 709.37 777.10 710.98 775.44
  Q 712.96 773.41 715.29 771.75
  Q 732.01 757.83 751.75 738.25
  Q 778.98 711.24 796.15 678.86
  Q 801.78 668.24 807.29 657.55
  Q 823.54 626.03 843.25 596.54
  L 860.81 571.07
  Q 861.07 570.69 860.60 570.74
  L 821.00 575.21
  Q 824.50 545.40 825.00 537.75
  Q 825.47 530.62 825.50 516.75
  Q 825.52 509.99 824.46 505.25
  Q 818.59 480.46 809.96 456.50
  L 810.04 454.50
  Q 811.14 452.46 812.31 448.81
  Q 824.02 412.44 829.04 376.22
  Q 831.43 359.07 831.25 341.82
  A 0.36 0.35 -10.3 0 0 830.77 341.49
  Q 823.16 344.42 816.25 348.71
  L 770.00 372.71
  L 769.25 372.79
  L 753.18 353.49
  A 1.87 1.57 -56.9 0 1 752.97 351.75
  L 754.21 348.50
  Q 764.33 325.27 775.47 302.51
  A 0.31 0.31 12.2 0 0 775.18 302.06
  L 749.75 302.29
  Q 749.45 302.14 749.45 301.81
  Q 749.56 272.57 756.08 244.21
  Q 757.03 240.06 760.95 224.81
  Q 765.29 207.92 770.17 190.94
  Q 770.36 190.28 769.70 190.51
  L 766.00 191.79
  Q 744.29 197.58 727.50 201.50
  Q 682.05 212.12 634.51 214.96
  Q 607.96 216.56 581.50 219.26
  Q 568.30 220.61 555.25 223.04
  Q 555.02 222.98 554.96 222.75
  L 554.96 222.50
  Q 557.69 216.93 559.59 211.03
  Q 564.26 196.51 568.32 181.77
  Q 568.47 181.25 567.96 181.39
  L 558.50 183.96
  Q 532.99 190.09 507.70 197.05
  Q 491.38 201.54 472.44 209.19
  Q 453.15 216.97 440.25 232.04
  Q 439.45 231.26 438.75 229.75
  Q 432.50 216.34 428.25 205.71
  Q 420.02 185.05 417.84 162.93
  Q 417.76 162.16 417.82 161.08
  Q 418.02 157.44 416.29 159.65
  Q 415.34 160.86 415.28 160.93
  Q 356.90 228.41 312.00 305.54
  Z"
/>
<path fill="#34a1c3" d="
  M 428.25 205.71
  Q 425.54 207.35 422.69 211.19
  Q 420.68 213.89 414.56 219.56
  Q 405.67 227.82 385.96 249.11
  Q 385.45 249.66 384.49 250.30
  Q 383.68 250.84 383.00 251.54
  Q 378.92 245.45 373.53 247.15
  Q 368.95 248.59 367.63 253.40
  Q 366.00 259.35 372.79 263.00
  L 372.65 263.93
  Q 372.54 264.63 372.38 264.83
  Q 360.31 280.30 353.90 298.84
  Q 351.62 305.41 354.81 310.94
  Q 357.48 315.57 362.01 319.27
  Q 365.02 321.74 367.66 321.85
  Q 370.76 321.97 374.06 320.06
  Q 382.26 315.33 386.69 310.44
  Q 392.28 304.25 397.44 297.69
  Q 398.66 296.13 396.75 294.46
  Q 439.74 276.53 475.31 265.06
  Q 510.14 253.83 545.85 243.32
  A 1.93 1.85 2.9 0 0 547.07 242.27
  L 555.25 223.04
  Q 568.30 220.61 581.50 219.26
  Q 607.96 216.56 634.51 214.96
  Q 682.05 212.12 727.50 201.50
  Q 744.29 197.58 766.00 191.79
  Q 766.34 192.78 765.94 193.19
  Q 761.44 197.76 760.44 198.94
  Q 751.39 209.50 739.60 216.87
  Q 732.91 221.04 725.96 224.75
  Q 685.78 238.89 643.94 246.95
  Q 614.16 252.69 584.51 259.06
  Q 569.00 262.40 559.00 265.50
  Q 525.11 276.00 496.66 299.03
  A 1.11 0.73 -26.6 0 0 496.24 299.76
  L 496.25 300.21
  Q 411.29 299.39 349.96 356.75
  Q 329.89 375.66 315.21 399.00
  L 306.29 414.75
  Q 305.02 414.93 303.91 414.28
  A 1.44 1.14 -87.9 0 1 303.35 413.52
  Q 298.11 396.12 294.75 382.50
  Q 294.17 380.15 292.50 378.96
  Q 300.66 362.13 308.86 345.32
  Q 312.27 338.33 312.62 337.24
  Q 313.96 333.12 313.75 328.25
  Q 313.21 315.68 311.71 307.00
  L 312.00 305.54
  Q 356.90 228.41 415.28 160.93
  Q 415.34 160.86 416.29 159.65
  Q 418.02 157.44 417.82 161.08
  Q 417.76 162.16 417.84 162.93
  Q 420.02 185.05 428.25 205.71
  Z"
/>
<path fill="#7bf3fd" d="
  M 554.96 222.50
  Q 553.83 222.27 554.00 220.75
  Q 556.09 201.49 557.17 193.35
  Q 557.20 193.16 558.05 188.70
  Q 558.49 186.36 558.50 183.96
  L 567.96 181.39
  Q 568.47 181.25 568.32 181.77
  Q 564.26 196.51 559.59 211.03
  Q 557.69 216.93 554.96 222.50
  Z"
/>
<path fill="#40edff" d="
  M 558.50 183.96
  Q 558.49 186.36 558.05 188.70
  Q 557.20 193.16 557.17 193.35
  Q 556.09 201.49 554.00 220.75
  Q 553.83 222.27 554.96 222.50
  L 554.96 222.75
  Q 552.63 222.20 550.43 222.92
  Q 501.47 239.03 452.35 254.97
  Q 450.36 255.61 449.03 253.99
  Q 442.04 245.41 440.33 235.00
  Q 440.33 235.00 439.95 234.09
  L 439.71 233.50
  L 440.25 232.04
  Q 453.15 216.97 472.44 209.19
  Q 491.38 201.54 507.70 197.05
  Q 532.99 190.09 558.50 183.96
  Z"
/>
<path fill="#3c6f99" d="
  M 749.75 302.29
  Q 749.30 302.95 750.38 303.80
  A 2.27 2.26 -70.9 0 1 751.24 305.58
  Q 751.31 321.76 752.26 336.00
  Q 752.54 340.16 752.25 342.75
  Q 751.91 345.78 753.09 348.04
  A 0.88 0.67 72.5 0 0 753.76 348.51
  L 754.21 348.50
  L 752.97 351.75
  A 1.87 1.57 -56.9 0 0 753.18 353.49
  L 769.25 372.79
  Q 768.06 376.00 768.00 376.75
  Q 764.29 426.22 761.46 475.75
  Q 759.20 475.63 758.66 473.69
  Q 758.18 471.97 758.13 471.87
  Q 753.68 461.27 746.31 447.19
  Q 731.01 417.97 710.06 394.70
  Q 694.55 377.49 675.65 364.11
  Q 658.15 351.71 638.06 344.33
  Q 637.21 344.02 633.36 342.94
  Q 630.99 342.27 628.75 341.21
  Q 629.53 329.12 634.69 315.44
  Q 638.87 304.35 644.20 295.30
  Q 648.76 287.57 656.07 279.24
  Q 668.26 265.37 682.56 255.06
  Q 697.66 244.18 721.00 229.00
  Q 724.65 226.62 725.96 224.75
  Q 732.91 221.04 739.60 216.87
  Q 751.39 209.50 760.44 198.94
  Q 761.44 197.76 765.94 193.19
  Q 766.34 192.78 766.00 191.79
  L 769.70 190.51
  Q 770.36 190.28 770.17 190.94
  Q 765.29 207.92 760.95 224.81
  Q 757.03 240.06 756.08 244.21
  Q 749.56 272.57 749.45 301.81
  Q 749.45 302.14 749.75 302.29
  Z
  M 683.22 320.94
  A 9.85 9.85 0.0 0 0 673.37 311.09
  A 9.85 9.85 0.0 0 0 663.52 320.94
  A 9.85 9.85 0.0 0 0 673.37 330.79
  A 9.85 9.85 0.0 0 0 683.22 320.94
  Z"
/>
<path fill="#3494b7" d="
  M 428.25 205.71
  Q 432.50 216.34 438.75 229.75
  Q 439.45 231.26 440.25 232.04
  L 439.71 233.50
  Q 438.60 234.56 436.06 237.81
  Q 414.13 265.96 392.53 294.94
  Q 391.53 296.28 393.12 295.73
  L 396.75 294.46
  Q 398.66 296.13 397.44 297.69
  Q 392.28 304.25 386.69 310.44
  Q 382.26 315.33 374.06 320.06
  Q 370.76 321.97 367.66 321.85
  Q 365.02 321.74 362.01 319.27
  Q 357.48 315.57 354.81 310.94
  Q 351.62 305.41 353.90 298.84
  Q 360.31 280.30 372.38 264.83
  Q 372.54 264.63 372.65 263.93
  L 372.79 263.00
  Q 379.44 264.65 382.81 259.31
  Q 385.05 255.78 383.00 251.54
  Q 383.68 250.84 384.49 250.30
  Q 385.45 249.66 385.96 249.11
  Q 405.67 227.82 414.56 219.56
  Q 420.68 213.89 422.69 211.19
  Q 425.54 207.35 428.25 205.71
  Z"
/>
<path fill="#35dff7" d="
  M 554.96 222.75
  Q 555.02 222.98 555.25 223.04
  L 547.07 242.27
  A 1.93 1.85 2.9 0 1 545.85 243.32
  Q 510.14 253.83 475.31 265.06
  Q 439.74 276.53 396.75 294.46
  L 393.12 295.73
  Q 391.53 296.28 392.53 294.94
  Q 414.13 265.96 436.06 237.81
  Q 438.60 234.56 439.71 233.50
  L 439.95 234.09
  Q 440.33 235.00 440.33 235.00
  Q 442.04 245.41 449.03 253.99
  Q 450.36 255.61 452.35 254.97
  Q 501.47 239.03 550.43 222.92
  Q 552.63 222.20 554.96 222.75
  Z"
/>
<path fill="#268bb0" d="
  M 725.96 224.75
  Q 724.65 226.62 721.00 229.00
  Q 697.66 244.18 682.56 255.06
  Q 668.26 265.37 656.07 279.24
  Q 648.76 287.57 644.20 295.30
  Q 638.87 304.35 634.69 315.44
  Q 629.53 329.12 628.75 341.21
  Q 625.13 340.57 622.81 339.44
  Q 619.06 337.61 615.42 338.03
  Q 615.12 338.07 615.02 338.24
  Q 614.91 338.44 614.96 338.75
  Q 561.56 301.80 496.25 300.21
  L 496.24 299.76
  A 1.11 0.73 -26.6 0 1 496.66 299.03
  Q 525.11 276.00 559.00 265.50
  Q 569.00 262.40 584.51 259.06
  Q 614.16 252.69 643.94 246.95
  Q 685.78 238.89 725.96 224.75
  Z"
/>
<path fill="#ead699" d="
  M 383.00 251.54
  Q 385.05 255.78 382.81 259.31
  Q 379.44 264.65 372.79 263.00
  Q 366.00 259.35 367.63 253.40
  Q 368.95 248.59 373.53 247.15
  Q 378.92 245.45 383.00 251.54
  Z"
/>
<path fill="#7bf3fd" d="
  M 312.00 305.54
  L 311.71 307.00
  Q 307.25 316.04 303.71 325.50
  Q 289.27 322.33 274.54 321.25
  Q 275.83 312.84 277.29 304.46
  Q 277.31 304.35 277.56 302.03
  Q 277.78 299.97 278.85 298.30
  Q 279.69 297.00 281.76 295.90
  Q 294.80 288.92 308.28 283.34
  A 0.50 0.49 -15.3 0 1 308.96 283.72
  L 311.68 302.55
  Q 311.79 303.36 311.64 304.24
  Q 311.40 305.58 312.00 305.54
  Z"
/>
<path fill="#bcfdfe" d="
  M 496.25 300.21
  Q 561.56 301.80 614.96 338.75
  L 615.79 339.50
  L 614.24 341.09
  A 1.06 0.77 -33.4 0 0 613.93 341.91
  Q 614.28 343.68 613.36 342.87
  Q 612.67 342.27 612.00 342.79
  Q 572.04 321.39 527.21 316.61
  Q 518.14 315.64 507.27 315.05
  Q 488.67 314.04 466.75 315.00
  Q 450.25 315.72 437.75 318.71
  Q 405.43 324.33 378.25 342.54
  Q 364.92 349.64 353.50 359.54
  Q 352.22 358.74 351.48 357.44
  A 0.42 0.41 56.4 0 0 350.87 357.31
  Q 349.65 358.23 349.96 356.75
  Q 411.29 299.39 496.25 300.21
  Z"
/>
<path fill="#2c7da3" d="
  M 754.21 348.50
  L 753.76 348.51
  A 0.88 0.67 72.5 0 1 753.09 348.04
  Q 751.91 345.78 752.25 342.75
  Q 752.54 340.16 752.26 336.00
  Q 751.31 321.76 751.24 305.58
  A 2.27 2.26 -70.9 0 0 750.38 303.80
  Q 749.30 302.95 749.75 302.29
  L 775.18 302.06
  A 0.31 0.31 12.2 0 1 775.47 302.51
  Q 764.33 325.27 754.21 348.50
  Z"
/>
<path fill="#3adaf4" d="
  M 311.71 307.00
  Q 313.21 315.68 313.75 328.25
  Q 313.96 333.12 312.62 337.24
  Q 312.27 338.33 308.86 345.32
  Q 300.66 362.13 292.50 378.96
  L 263.75 437.71
  Q 258.70 447.80 257.69 449.69
  Q 257.48 450.07 257.04 450.05
  A 0.56 0.47 -85.7 0 1 256.60 449.44
  L 258.71 428.25
  L 261.50 410.71
  Q 262.97 410.68 264.00 409.25
  Q 266.18 406.21 267.25 404.16
  Q 285.79 368.37 301.94 331.44
  Q 303.48 327.92 303.71 325.50
  Q 307.25 316.04 311.71 307.00
  Z"
/>
<circle fill="#eeb575" cx="673.37" cy="320.94" r="9.85"/>
<path fill="#4becff" d="
  M 612.00 342.79
  Q 628.96 352.21 643.07 365.47
  A 1.37 0.70 53.1 0 0 643.93 365.89
  L 647.29 365.75
  Q 673.52 391.74 688.54 425.50
  Q 688.44 427.59 686.46 428.00
  Q 676.23 408.87 659.79 394.71
  Q 649.86 386.15 638.75 379.21
  Q 635.27 376.75 631.53 374.69
  Q 610.87 363.35 590.55 351.42
  Q 571.22 340.06 550.46 331.60
  Q 529.69 323.14 507.67 318.91
  Q 495.29 316.53 477.56 316.69
  Q 464.60 316.80 457.41 317.46
  Q 457.26 317.48 452.07 317.79
  Q 447.53 318.06 443.25 319.75
  Q 441.64 320.38 437.75 318.71
  Q 450.25 315.72 466.75 315.00
  Q 488.67 314.04 507.27 315.05
  Q 518.14 315.64 527.21 316.61
  Q 572.04 321.39 612.00 342.79
  Z"
/>
<path fill="#26cbf8" d="
  M 638.75 379.21
  Q 637.93 379.34 638.26 380.21
  Q 644.90 397.80 650.28 415.82
  Q 662.14 455.60 658.00 497.00
  Q 657.58 501.21 656.04 503.75
  Q 654.04 487.24 648.68 471.56
  Q 646.98 466.60 646.66 464.43
  Q 646.15 461.07 646.25 457.00
  Q 646.55 444.36 644.39 430.01
  Q 643.62 424.88 642.22 422.24
  Q 640.21 418.44 636.69 416.06
  Q 632.30 413.10 629.69 410.78
  A 1.60 1.51 -76.6 0 1 629.21 409.95
  Q 627.45 401.60 624.71 393.51
  Q 622.73 387.65 619.11 382.75
  Q 618.38 381.76 618.25 382.99
  Q 617.96 385.77 618.50 388.50
  Q 618.82 390.12 617.79 392.90
  Q 617.32 394.19 615.65 396.73
  Q 611.10 403.66 611.80 412.27
  Q 612.19 417.15 616.55 420.83
  Q 617.99 422.05 617.13 423.73
  Q 614.88 428.07 610.66 432.48
  A 0.66 0.66 -38.4 0 1 609.62 432.36
  Q 587.06 394.68 553.81 365.44
  Q 548.17 360.48 540.85 353.02
  Q 537.98 350.11 536.38 349.35
  Q 533.80 348.13 530.50 348.25
  Q 520.08 348.63 512.25 350.25
  Q 511.21 350.47 508.22 351.83
  Q 506.12 352.79 504.07 352.77
  Q 496.38 352.70 488.96 350.76
  Q 484.88 349.69 481.90 349.64
  Q 472.22 349.47 462.61 350.58
  Q 452.30 351.77 449.38 352.31
  Q 442.77 353.52 436.56 356.31
  Q 435.83 356.64 433.74 358.81
  Q 432.42 360.17 430.80 361.11
  Q 424.11 365.00 418.16 370.19
  Q 416.15 371.95 418.59 373.03
  Q 426.25 376.44 435.44 377.00
  Q 437.99 377.15 435.95 378.68
  Q 433.82 380.27 431.18 380.59
  Q 423.05 381.57 415.01 383.07
  Q 411.57 383.71 409.56 385.06
  Q 400.83 390.94 392.67 399.93
  Q 388.75 404.26 384.93 408.68
  Q 379.54 414.91 379.91 423.19
  A 1.37 1.22 66.2 0 1 379.62 424.08
  Q 378.66 425.21 376.19 427.44
  Q 368.28 434.59 361.56 445.26
  Q 352.79 459.22 348.94 464.44
  Q 345.41 469.22 343.75 472.29
  L 343.04 472.75
  Q 338.33 467.10 334.69 463.56
  Q 328.23 457.28 323.75 451.46
  L 323.75 451.04
  Q 335.58 430.93 347.20 410.70
  Q 361.25 386.26 370.63 359.71
  Q 372.53 354.34 373.89 351.58
  Q 375.82 347.65 378.20 343.94
  Q 378.63 343.27 378.25 342.54
  Q 405.43 324.33 437.75 318.71
  Q 441.64 320.38 443.25 319.75
  Q 447.53 318.06 452.07 317.79
  Q 457.26 317.48 457.41 317.46
  Q 464.60 316.80 477.56 316.69
  Q 495.29 316.53 507.67 318.91
  Q 529.69 323.14 550.46 331.60
  Q 571.22 340.06 590.55 351.42
  Q 610.87 363.35 631.53 374.69
  Q 635.27 376.75 638.75 379.21
  Z"
/>
<path fill="#44ecff" d="
  M 274.54 321.25
  Q 289.27 322.33 303.71 325.50
  Q 303.48 327.92 301.94 331.44
  Q 285.79 368.37 267.25 404.16
  Q 266.18 406.21 264.00 409.25
  Q 262.97 410.68 261.50 410.71
  L 274.54 321.25
  Z"
/>
<path fill="#395d84" d="
  M 628.75 341.21
  Q 630.99 342.27 633.36 342.94
  Q 637.21 344.02 638.06 344.33
  Q 658.15 351.71 675.65 364.11
  Q 694.55 377.49 710.06 394.70
  Q 731.01 417.97 746.31 447.19
  Q 753.68 461.27 758.13 471.87
  Q 758.18 471.97 758.66 473.69
  Q 759.20 475.63 761.46 475.75
  Q 761.28 483.16 762.31 488.94
  Q 764.44 500.84 766.46 512.75
  Q 764.85 512.46 764.37 510.98
  A 1.36 1.33 -83.2 0 0 763.81 510.25
  Q 761.66 508.90 760.75 505.50
  Q 760.10 503.05 759.84 501.39
  Q 759.47 498.99 758.88 497.38
  Q 757.80 494.42 757.54 491.25
  A 1.51 1.35 -72.3 0 0 757.15 490.38
  Q 753.61 486.69 748.51 486.96
  A 1.53 1.37 -65.4 0 0 747.63 487.34
  Q 744.82 489.90 741.40 491.51
  Q 740.61 491.88 739.39 491.97
  Q 738.33 492.05 737.31 492.32
  Q 736.02 492.65 734.72 493.95
  Q 732.69 495.98 730.38 497.66
  Q 728.66 498.91 725.91 501.18
  Q 722.92 503.64 719.27 505.13
  Q 718.86 505.30 718.50 505.70
  Q 717.18 507.19 715.06 507.10
  Q 714.51 507.08 714.11 507.27
  Q 711.62 508.45 709.59 510.31
  Q 709.27 510.60 708.93 511.18
  Q 708.01 512.76 707.53 510.55
  Q 707.42 510.05 707.21 510.50
  Q 706.37 512.23 706.70 514.26
  Q 707.08 516.62 706.21 518.75
  Q 706.67 498.02 704.00 479.00
  Q 700.16 451.58 688.54 425.50
  Q 673.52 391.74 647.29 365.75
  Q 632.88 351.02 615.79 339.50
  L 614.96 338.75
  Q 614.91 338.44 615.02 338.24
  Q 615.12 338.07 615.42 338.03
  Q 619.06 337.61 622.81 339.44
  Q 625.13 340.57 628.75 341.21
  Z"
/>
<path fill="#a3f6fd" d="
  M 615.79 339.50
  Q 632.88 351.02 647.29 365.75
  L 643.93 365.89
  A 1.37 0.70 53.1 0 1 643.07 365.47
  Q 628.96 352.21 612.00 342.79
  Q 612.67 342.27 613.36 342.87
  Q 614.28 343.68 613.93 341.91
  A 1.06 0.77 -33.4 0 1 614.24 341.09
  L 615.79 339.50
  Z"
/>
<path fill="#7ef0fc" d="
  M 810.04 454.50
  Q 809.91 453.92 809.46 453.50
  Q 808.32 449.79 808.50 447.00
  Q 810.71 411.76 816.00 370.75
  Q 817.25 361.05 816.25 348.71
  Q 823.16 344.42 830.77 341.49
  A 0.36 0.35 -10.3 0 1 831.25 341.82
  Q 831.43 359.07 829.04 376.22
  Q 824.02 412.44 812.31 448.81
  Q 811.14 452.46 810.04 454.50
  Z"
/>
<path fill="#4aecff" d="
  M 378.25 342.54
  Q 378.63 343.27 378.20 343.94
  Q 375.82 347.65 373.89 351.58
  Q 372.53 354.34 370.63 359.71
  Q 361.25 386.26 347.20 410.70
  Q 335.58 430.93 323.75 451.04
  Q 312.28 437.01 310.01 419.00
  Q 309.56 415.38 310.04 411.83
  Q 310.37 409.39 312.12 406.71
  Q 314.51 403.05 316.75 399.29
  Q 332.59 377.06 353.50 359.54
  Q 364.92 349.64 378.25 342.54
  Z"
/>
<path fill="#4becff" d="
  M 656.04 503.75
  Q 655.74 518.13 651.96 532.00
  Q 646.84 550.48 636.76 566.78
  Q 624.71 586.29 608.19 602.19
  Q 599.20 610.84 590.25 619.54
  Q 588.20 620.19 587.31 620.81
  Q 579.20 626.55 566.31 632.31
  Q 551.19 639.08 536.19 641.16
  Q 534.26 641.43 517.77 642.21
  Q 505.55 642.78 493.49 644.94
  Q 474.72 648.30 455.76 646.13
  Q 447.39 645.18 438.98 644.57
  Q 436.83 644.42 435.24 643.84
  Q 433.42 643.19 431.69 642.31
  Q 420.58 636.69 410.45 629.55
  Q 402.77 624.15 394.49 617.51
  Q 381.22 606.86 370.81 594.69
  Q 366.73 589.91 363.47 583.30
  Q 362.52 581.36 362.58 578.97
  Q 362.74 573.24 362.25 571.00
  Q 361.80 568.92 363.59 568.54
  A 1.59 1.57 75.5 0 0 364.76 566.54
  Q 361.07 554.23 357.93 541.81
  Q 356.06 534.43 355.34 526.87
  Q 355.05 523.83 355.51 517.64
  Q 356.64 502.66 350.69 488.63
  Q 347.23 480.46 343.75 472.29
  Q 345.41 469.22 348.94 464.44
  Q 352.79 459.22 361.56 445.26
  Q 368.28 434.59 376.19 427.44
  Q 378.66 425.21 379.62 424.08
  A 1.37 1.22 66.2 0 0 379.91 423.19
  Q 379.54 414.91 384.93 408.68
  Q 388.75 404.26 392.67 399.93
  Q 400.83 390.94 409.56 385.06
  Q 411.57 383.71 415.01 383.07
  Q 423.05 381.57 431.18 380.59
  Q 433.82 380.27 435.95 378.68
  Q 437.99 377.15 435.44 377.00
  Q 426.25 376.44 418.59 373.03
  Q 416.15 371.95 418.16 370.19
  Q 424.11 365.00 430.80 361.11
  Q 432.42 360.17 433.74 358.81
  Q 435.83 356.64 436.56 356.31
  Q 442.77 353.52 449.38 352.31
  Q 452.30 351.77 462.61 350.58
  Q 472.22 349.47 481.90 349.64
  Q 484.88 349.69 488.96 350.76
  Q 496.38 352.70 504.07 352.77
  Q 506.12 352.79 508.22 351.83
  Q 511.21 350.47 512.25 350.25
  Q 520.08 348.63 530.50 348.25
  Q 533.80 348.13 536.38 349.35
  Q 537.98 350.11 540.85 353.02
  Q 548.17 360.48 553.81 365.44
  Q 587.06 394.68 609.62 432.36
  A 0.66 0.66 -38.4 0 0 610.66 432.48
  Q 614.88 428.07 617.13 423.73
  Q 617.99 422.05 616.55 420.83
  Q 612.19 417.15 611.80 412.27
  Q 611.10 403.66 615.65 396.73
  Q 617.32 394.19 617.79 392.90
  Q 618.82 390.12 618.50 388.50
  Q 617.96 385.77 618.25 382.99
  Q 618.38 381.76 619.11 382.75
  Q 622.73 387.65 624.71 393.51
  Q 627.45 401.60 629.21 409.95
  A 1.60 1.51 -76.6 0 0 629.69 410.78
  Q 632.30 413.10 636.69 416.06
  Q 640.21 418.44 642.22 422.24
  Q 643.62 424.88 644.39 430.01
  Q 646.55 444.36 646.25 457.00
  Q 646.15 461.07 646.66 464.43
  Q 646.98 466.60 648.68 471.56
  Q 654.04 487.24 656.04 503.75
  Z
  M 424.44 419.19
  Q 409.05 433.31 404.33 438.08
  Q 397.17 445.31 391.07 453.39
  Q 384.37 462.27 380.52 470.34
  Q 370.07 492.28 373.31 516.69
  Q 376.02 537.07 388.95 554.60
  A 0.89 0.87 68.4 0 0 389.74 554.95
  Q 398.44 554.06 407.17 554.36
  Q 410.52 554.47 413.27 555.04
  Q 416.94 555.79 419.19 556.81
  Q 428.14 560.88 437.66 568.22
  Q 440.03 570.05 441.41 571.71
  Q 443.05 573.68 444.32 575.95
  A 0.71 0.71 73.8 0 1 443.74 577.01
  Q 434.12 577.50 424.25 578.24
  Q 420.01 578.55 416.69 580.36
  Q 414.69 581.45 414.74 583.72
  Q 414.90 590.63 418.65 596.07
  Q 425.89 606.56 436.11 614.17
  Q 439.32 616.56 441.81 616.94
  Q 456.85 619.20 471.67 627.60
  Q 473.58 628.68 475.73 628.26
  Q 480.04 627.43 484.65 625.56
  Q 491.29 622.87 492.42 622.01
  Q 496.49 618.92 494.32 612.31
  Q 492.97 608.23 491.68 604.14
  Q 490.93 601.78 491.47 599.81
  Q 493.56 592.11 501.31 589.31
  Q 510.45 586.02 526.50 581.25
  Q 534.53 578.86 539.61 573.69
  Q 540.64 572.65 542.38 569.91
  Q 543.53 568.11 545.11 566.06
  A 2.74 2.73 -69.9 0 1 547.36 565.01
  Q 553.72 565.23 558.51 569.00
  Q 562.19 571.89 563.59 575.66
  Q 565.13 579.79 563.88 584.47
  Q 562.33 590.27 558.69 595.72
  Q 558.39 596.16 558.93 596.20
  L 572.49 597.06
  A 3.08 2.83 28.6 0 0 574.26 596.62
  Q 586.82 588.77 595.66 578.44
  Q 599.33 574.16 602.10 568.23
  Q 608.77 553.92 614.00 536.50
  Q 620.09 516.22 619.64 496.23
  Q 619.40 486.00 617.05 476.45
  Q 611.47 453.84 596.59 435.39
  Q 584.29 420.15 570.27 406.48
  Q 560.90 397.34 552.44 391.56
  Q 529.86 376.14 501.50 375.39
  Q 484.49 374.93 467.00 380.25
  Q 443.72 387.33 427.08 403.77
  Q 424.95 405.87 424.38 407.90
  Q 423.67 410.40 424.15 413.04
  Q 424.16 413.10 425.27 415.79
  Q 426.06 417.69 424.44 419.19
  Z
  M 528.39 626.79
  Q 534.26 629.82 541.26 628.30
  Q 547.69 626.90 552.68 622.69
  Q 554.80 620.90 552.83 618.96
  Q 544.61 610.82 534.15 615.24
  A 0.94 0.90 84.4 0 0 533.61 615.93
  Q 532.74 620.94 528.30 623.57
  Q 525.43 625.27 528.39 626.79
  Z"
/>
<path fill="#4aecff" d="
  M 816.25 348.71
  Q 817.25 361.05 816.00 370.75
  Q 810.71 411.76 808.50 447.00
  Q 808.32 449.79 809.46 453.50
  Q 807.74 453.20 806.81 454.06
  Q 803.44 457.19 795.35 465.60
  Q 789.09 472.11 781.17 476.45
  A 0.82 0.81 70.7 0 1 779.98 475.87
  Q 774.29 444.35 772.33 412.25
  Q 771.30 395.51 770.67 376.22
  A 2.59 2.59 -71.0 0 0 769.75 374.33
  Q 768.99 373.69 770.00 372.71
  L 816.25 348.71
  Z"
/>
<path fill="#a3f6fd" d="
  M 349.96 356.75
  Q 349.65 358.23 350.87 357.31
  A 0.42 0.41 56.4 0 1 351.48 357.44
  Q 352.22 358.74 353.50 359.54
  Q 332.59 377.06 316.75 399.29
  Q 315.72 399.81 315.21 399.00
  Q 329.89 375.66 349.96 356.75
  Z"
/>
<path fill="#44cbe9" d="
  M 769.25 372.79
  L 770.00 372.71
  Q 768.99 373.69 769.75 374.33
  A 2.59 2.59 -71.0 0 1 770.67 376.22
  Q 771.30 395.51 772.33 412.25
  Q 774.29 444.35 779.98 475.87
  A 0.82 0.81 70.7 0 0 781.17 476.45
  Q 789.09 472.11 795.35 465.60
  Q 803.44 457.19 806.81 454.06
  Q 807.74 453.20 809.46 453.50
  Q 809.91 453.92 810.04 454.50
  L 809.96 456.50
  Q 788.43 484.72 767.58 513.45
  Q 767.20 513.97 766.87 513.89
  Q 766.44 513.79 766.46 512.75
  Q 764.44 500.84 762.31 488.94
  Q 761.28 483.16 761.46 475.75
  Q 764.29 426.22 768.00 376.75
  Q 768.06 376.00 769.25 372.79
  Z"
/>
<path fill="#90f1fa" d="
  M 424.44 419.19
  Q 426.06 417.69 425.27 415.79
  Q 424.16 413.10 424.15 413.04
  Q 423.67 410.40 424.38 407.90
  Q 424.95 405.87 427.08 403.77
  Q 443.72 387.33 467.00 380.25
  Q 484.49 374.93 501.50 375.39
  Q 529.86 376.14 552.44 391.56
  Q 560.90 397.34 570.27 406.48
  Q 584.29 420.15 596.59 435.39
  Q 611.47 453.84 617.05 476.45
  Q 619.40 486.00 619.64 496.23
  Q 620.09 516.22 614.00 536.50
  Q 608.77 553.92 602.10 568.23
  Q 599.33 574.16 595.66 578.44
  Q 586.82 588.77 574.26 596.62
  A 3.08 2.83 28.6 0 1 572.49 597.06
  L 558.93 596.20
  Q 558.39 596.16 558.69 595.72
  Q 562.33 590.27 563.88 584.47
  Q 565.13 579.79 563.59 575.66
  Q 562.19 571.89 558.51 569.00
  Q 553.72 565.23 547.36 565.01
  A 2.74 2.73 -69.9 0 0 545.11 566.06
  Q 543.53 568.11 542.38 569.91
  Q 540.64 572.65 539.61 573.69
  Q 534.53 578.86 526.50 581.25
  Q 510.45 586.02 501.31 589.31
  Q 493.56 592.11 491.47 599.81
  Q 490.93 601.78 491.68 604.14
  Q 492.97 608.23 494.32 612.31
  Q 496.49 618.92 492.42 622.01
  Q 491.29 622.87 484.65 625.56
  Q 480.04 627.43 475.73 628.26
  Q 473.58 628.68 471.67 627.60
  Q 456.85 619.20 441.81 616.94
  Q 439.32 616.56 436.11 614.17
  Q 425.89 606.56 418.65 596.07
  Q 414.90 590.63 414.74 583.72
  Q 414.69 581.45 416.69 580.36
  Q 420.01 578.55 424.25 578.24
  Q 434.12 577.50 443.74 577.01
  A 0.71 0.71 73.8 0 0 444.32 575.95
  Q 443.05 573.68 441.41 571.71
  Q 440.03 570.05 437.66 568.22
  Q 428.14 560.88 419.19 556.81
  Q 416.94 555.79 413.27 555.04
  Q 410.52 554.47 407.17 554.36
  Q 398.44 554.06 389.74 554.95
  A 0.89 0.87 68.4 0 1 388.95 554.60
  Q 376.02 537.07 373.31 516.69
  Q 370.07 492.28 380.52 470.34
  Q 384.37 462.27 391.07 453.39
  Q 397.17 445.31 404.33 438.08
  Q 409.05 433.31 424.44 419.19
  Z
  M 553.38 550.64
  Q 563.35 541.50 570.19 531.44
  Q 580.34 516.51 581.53 498.74
  Q 582.17 489.16 580.06 478.86
  Q 573.80 448.28 546.44 430.84
  Q 532.11 421.70 514.25 420.25
  Q 498.20 418.95 483.81 423.76
  Q 474.44 426.89 466.01 432.73
  Q 453.22 441.59 445.56 454.56
  Q 434.02 474.13 434.16 497.27
  Q 434.23 507.57 436.73 517.05
  Q 443.65 543.31 466.33 557.82
  Q 474.96 563.34 484.50 566.00
  Q 499.64 570.24 516.00 568.00
  Q 537.67 565.03 553.38 550.64
  Z"
/>
<path fill="#398fb3" d="
  M 292.50 378.96
  Q 294.17 380.15 294.75 382.50
  Q 298.11 396.12 303.35 413.52
  A 1.44 1.14 -87.9 0 0 303.91 414.28
  Q 305.02 414.93 306.29 414.75
  Q 271.77 483.17 287.71 558.75
  Q 287.30 558.42 286.89 558.49
  A 1.40 0.46 -15.6 0 1 285.99 558.45
  Q 282.08 556.42 278.00 554.76
  Q 257.92 546.57 243.78 530.26
  Q 243.03 529.39 242.32 529.27
  Q 240.97 529.03 240.71 530.75
  L 235.50 502.71
  L 234.48 495.66
  A 0.74 0.71 1.3 0 0 233.87 495.05
  L 227.00 493.96
  Q 221.40 456.66 216.19 419.31
  Q 214.81 409.47 214.59 406.69
  A 0.71 0.44 -25.7 0 1 214.92 406.17
  L 215.25 405.96
  L 220.25 409.54
  Q 218.39 411.55 219.93 413.61
  Q 220.26 414.05 220.35 414.48
  Q 223.27 428.81 226.69 439.56
  Q 231.54 454.85 242.62 467.62
  Q 245.33 470.76 248.75 471.50
  Q 251.81 472.17 253.69 472.69
  Q 256.41 473.44 257.38 473.31
  Q 259.56 473.04 260.69 470.94
  Q 265.79 461.43 266.23 450.00
  Q 266.44 444.66 266.44 439.31
  A 0.47 0.43 -1.9 0 0 265.94 438.88
  Q 264.57 438.95 263.75 437.71
  L 292.50 378.96
  Z"
/>
<path fill="#26b1e5" d="
  M 638.75 379.21
  Q 649.86 386.15 659.79 394.71
  Q 676.23 408.87 686.46 428.00
  Q 691.71 438.38 694.21 449.75
  Q 691.04 449.07 691.75 452.25
  Q 693.40 459.66 693.06 468.81
  Q 691.96 498.04 681.50 525.29
  Q 680.57 525.04 680.06 525.81
  A 4.07 1.22 -51.7 0 0 679.00 528.50
  Q 679.15 529.67 678.47 530.18
  Q 678.09 530.47 676.97 530.49
  Q 673.03 530.56 669.75 532.75
  Q 666.91 534.66 663.50 534.25
  Q 662.24 534.10 659.75 534.50
  Q 656.03 535.10 653.30 532.65
  A 0.69 0.58 -37.7 0 0 652.54 532.62
  Q 651.93 532.98 651.96 532.00
  Q 655.74 518.13 656.04 503.75
  Q 657.58 501.21 658.00 497.00
  Q 662.14 455.60 650.28 415.82
  Q 644.90 397.80 638.26 380.21
  Q 637.93 379.34 638.75 379.21
  Z"
/>
<path fill="#396e98" d="
  M 215.25 405.96
  L 214.92 406.17
  A 0.71 0.44 -25.7 0 0 214.59 406.69
  Q 214.81 409.47 216.19 419.31
  Q 221.40 456.66 227.00 493.96
  Q 219.32 493.11 214.44 492.31
  Q 214.05 492.25 213.79 491.75
  Q 206.16 469.60 198.56 447.44
  Q 194.24 434.83 190.81 415.99
  Q 187.53 398.03 188.80 379.92
  Q 188.84 379.37 189.18 379.80
  Q 200.55 394.54 215.25 405.96
  Z"
/>
<path fill="#3dd5f5" d="
  M 315.21 399.00
  Q 315.72 399.81 316.75 399.29
  Q 314.51 403.05 312.12 406.71
  Q 310.37 409.39 310.04 411.83
  Q 309.56 415.38 310.01 419.00
  Q 312.28 437.01 323.75 451.04
  L 323.75 451.46
  Q 311.65 472.68 304.23 495.95
  Q 294.78 525.61 296.77 556.75
  Q 298.66 586.35 313.79 611.75
  Q 313.64 612.69 313.20 613.46
  Q 312.81 614.14 311.86 614.53
  Q 310.57 615.06 309.25 615.54
  Q 296.94 594.02 290.63 570.03
  Q 289.15 564.39 287.71 558.75
  Q 271.77 483.17 306.29 414.75
  L 315.21 399.00
  Z"
/>
<path fill="#399abe" d="
  M 220.25 409.54
  Q 238.03 421.85 258.71 428.25
  L 256.60 449.44
  A 0.56 0.47 -85.7 0 0 257.04 450.05
  Q 257.48 450.07 257.69 449.69
  Q 258.70 447.80 263.75 437.71
  Q 264.57 438.95 265.94 438.88
  A 0.47 0.43 -1.9 0 1 266.44 439.31
  Q 266.44 444.66 266.23 450.00
  Q 265.79 461.43 260.69 470.94
  Q 259.56 473.04 257.38 473.31
  Q 256.41 473.44 253.69 472.69
  Q 251.81 472.17 248.75 471.50
  Q 245.33 470.76 242.62 467.62
  Q 231.54 454.85 226.69 439.56
  Q 223.27 428.81 220.35 414.48
  Q 220.26 414.05 219.93 413.61
  Q 218.39 411.55 220.25 409.54
  Z"
/>
<path fill="#cffdfe" d="
  M 553.38 550.64
  Q 537.67 565.03 516.00 568.00
  Q 499.64 570.24 484.50 566.00
  Q 474.96 563.34 466.33 557.82
  Q 443.65 543.31 436.73 517.05
  Q 434.23 507.57 434.16 497.27
  Q 434.02 474.13 445.56 454.56
  Q 453.22 441.59 466.01 432.73
  Q 474.44 426.89 483.81 423.76
  Q 498.20 418.95 514.25 420.25
  Q 532.11 421.70 546.44 430.84
  Q 573.80 448.28 580.06 478.86
  Q 582.17 489.16 581.53 498.74
  Q 580.34 516.51 570.19 531.44
  Q 563.35 541.50 553.38 550.64
  Z"
/>
<path fill="#3eb5e4" d="
  M 688.54 425.50
  Q 700.16 451.58 704.00 479.00
  Q 706.67 498.02 706.21 518.75
  Q 704.41 564.39 684.29 605.25
  Q 684.02 604.03 682.80 604.11
  A 1.36 1.24 -27.1 0 1 681.92 603.87
  Q 680.58 602.91 679.02 603.37
  A 0.19 0.18 -12.2 0 1 678.78 603.22
  L 678.75 603.00
  A 0.88 0.84 10.7 0 0 678.29 602.36
  Q 674.72 600.50 671.79 597.75
  Q 673.90 585.46 674.78 573.05
  Q 675.69 560.11 676.59 555.04
  Q 678.63 543.65 682.28 532.63
  Q 683.65 528.50 687.19 517.44
  Q 692.42 501.10 695.25 481.25
  Q 697.38 466.34 694.21 449.75
  Q 691.71 438.38 686.46 428.00
  Q 688.44 427.59 688.54 425.50
  Z"
/>
<path fill="#4192d3" d="
  M 694.21 449.75
  Q 697.38 466.34 695.25 481.25
  Q 692.42 501.10 687.19 517.44
  Q 683.65 528.50 682.28 532.63
  Q 678.63 543.65 676.59 555.04
  Q 675.69 560.11 674.78 573.05
  Q 673.90 585.46 671.79 597.75
  Q 667.67 614.88 656.81 631.06
  Q 643.69 650.62 629.49 665.92
  Q 624.40 671.40 619.79 675.34
  Q 614.24 680.08 608.94 683.44
  Q 596.67 691.20 581.15 698.44
  Q 578.86 699.51 575.86 701.17
  Q 573.24 702.62 570.54 703.90
  Q 570.47 703.93 566.75 706.02
  Q 564.63 707.21 562.18 707.61
  A 1.14 0.62 -69.5 0 0 561.54 708.17
  L 560.50 709.96
  Q 558.26 710.15 556.07 709.66
  Q 525.05 702.67 493.72 697.19
  Q 472.09 693.41 434.75 685.50
  Q 396.34 677.36 364.56 660.44
  Q 350.35 652.87 336.75 640.04
  Q 339.81 637.23 343.55 635.46
  A 1.60 1.49 35.7 0 1 344.49 635.34
  Q 350.40 636.46 356.41 636.71
  Q 356.53 636.71 359.06 637.02
  Q 361.65 637.33 363.90 635.85
  A 1.31 1.29 32.1 0 1 364.80 635.65
  Q 366.04 635.81 367.25 635.46
  Q 384.57 646.43 404.31 651.91
  Q 404.38 651.93 406.34 652.36
  Q 410.61 653.30 413.69 657.56
  Q 420.93 667.57 433.54 673.24
  Q 458.84 684.62 486.52 687.04
  Q 494.54 687.75 501.75 685.50
  Q 522.81 678.94 545.75 670.00
  Q 550.60 668.11 558.50 663.46
  Q 559.34 663.74 560.18 663.66
  Q 560.68 663.61 561.69 663.04
  Q 563.37 662.08 565.28 662.60
  Q 565.80 662.74 566.23 662.64
  Q 570.95 661.49 575.38 659.45
  Q 576.82 658.79 575.30 658.41
  Q 574.83 658.30 575.28 658.14
  Q 577.96 657.20 582.50 656.75
  Q 587.10 656.30 592.88 653.09
  Q 598.01 650.23 603.57 648.41
  Q 606.09 647.58 607.82 646.08
  Q 614.89 639.89 618.81 634.56
  Q 627.36 622.95 640.92 602.01
  Q 640.99 601.90 647.52 591.93
  Q 657.75 576.29 666.60 559.84
  Q 675.55 543.21 681.50 525.29
  Q 691.96 498.04 693.06 468.81
  Q 693.40 459.66 691.75 452.25
  Q 691.04 449.07 694.21 449.75
  Z"
/>
<path fill="#2da9df" d="
  M 323.75 451.46
  Q 328.23 457.28 334.69 463.56
  Q 338.33 467.10 343.04 472.75
  Q 332.25 488.61 324.75 506.25
  Q 316.76 525.04 316.91 545.50
  Q 317.19 581.53 338.81 609.94
  Q 349.56 624.06 367.25 635.46
  Q 366.04 635.81 364.80 635.65
  A 1.31 1.29 32.1 0 0 363.90 635.85
  Q 361.65 637.33 359.06 637.02
  Q 356.53 636.71 356.41 636.71
  Q 350.40 636.46 344.49 635.34
  A 1.60 1.49 35.7 0 0 343.55 635.46
  Q 339.81 637.23 336.75 640.04
  Q 323.29 627.50 313.79 611.75
  Q 298.66 586.35 296.77 556.75
  Q 294.78 525.61 304.23 495.95
  Q 311.65 472.68 323.75 451.46
  Z"
/>
<path fill="#3e4d75" d="
  M 809.96 456.50
  Q 818.59 480.46 824.46 505.25
  Q 822.13 505.39 821.19 507.19
  Q 814.23 520.42 804.56 540.81
  Q 797.14 556.46 788.75 583.70
  Q 785.03 595.76 779.58 607.11
  Q 778.39 609.58 776.64 611.31
  Q 774.98 612.95 772.81 614.81
  Q 768.07 618.89 762.07 617.64
  Q 758.72 616.94 756.87 614.54
  Q 755.59 612.87 755.34 609.11
  Q 755.01 604.03 754.32 599.00
  A 1.22 0.96 -82.2 0 0 753.85 598.20
  Q 752.11 597.09 751.00 599.75
  Q 749.49 603.36 746.42 608.42
  Q 743.76 612.82 741.41 616.83
  Q 730.75 635.04 715.14 649.40
  Q 711.61 652.64 708.11 655.91
  A 1.44 1.10 -61.8 0 1 707.25 656.30
  Q 705.73 656.36 706.50 654.75
  Q 710.91 645.51 712.41 641.18
  Q 714.44 635.37 717.00 629.79
  Q 722.55 617.70 726.80 605.11
  Q 726.96 604.63 726.98 604.24
  Q 727.05 602.80 726.10 603.65
  A 0.70 0.69 -51.8 0 1 725.32 603.75
  Q 722.99 602.52 720.48 603.33
  Q 719.98 603.49 719.52 603.39
  Q 718.28 603.13 717.75 603.25
  Q 713.53 604.22 709.22 604.47
  Q 708.37 604.52 703.21 604.04
  Q 697.32 603.49 692.17 606.91
  Q 686.32 610.79 685.50 612.50
  Q 684.09 615.45 680.96 616.18
  A 0.22 0.21 -23.4 0 1 680.74 616.10
  Q 679.89 614.86 679.55 615.73
  Q 679.11 616.85 678.04 617.25
  L 684.29 605.25
  Q 704.41 564.39 706.21 518.75
  Q 707.08 516.62 706.70 514.26
  Q 706.37 512.23 707.21 510.50
  Q 707.42 510.05 707.53 510.55
  Q 708.01 512.76 708.93 511.18
  Q 709.27 510.60 709.59 510.31
  Q 711.62 508.45 714.11 507.27
  Q 714.51 507.08 715.06 507.10
  Q 717.18 507.19 718.50 505.70
  Q 718.86 505.30 719.27 505.13
  Q 722.92 503.64 725.91 501.18
  Q 728.66 498.91 730.38 497.66
  Q 732.69 495.98 734.72 493.95
  Q 736.02 492.65 737.31 492.32
  Q 738.33 492.05 739.39 491.97
  Q 740.61 491.88 741.40 491.51
  Q 744.82 489.90 747.63 487.34
  A 1.53 1.37 -65.4 0 1 748.51 486.96
  Q 753.61 486.69 757.15 490.38
  A 1.51 1.35 -72.3 0 1 757.54 491.25
  Q 757.80 494.42 758.88 497.38
  Q 759.47 498.99 759.84 501.39
  Q 760.10 503.05 760.75 505.50
  Q 761.66 508.90 763.81 510.25
  A 1.36 1.33 -83.2 0 1 764.37 510.98
  Q 764.85 512.46 766.46 512.75
  Q 766.44 513.79 766.87 513.89
  Q 767.20 513.97 767.58 513.45
  Q 788.43 484.72 809.96 456.50
  Z
  M 765.8580 582.7597
  A 5.05 4.80 28.5 0 0 763.7104 576.1317
  A 5.05 4.80 28.5 0 0 756.9820 577.9403
  A 5.05 4.80 28.5 0 0 759.1296 584.5683
  A 5.05 4.80 28.5 0 0 765.8580 582.7597
  Z"
/>
<path fill="#40cdf2" d="
  M 343.75 472.29
  Q 347.23 480.46 350.69 488.63
  Q 356.64 502.66 355.51 517.64
  Q 355.05 523.83 355.34 526.87
  Q 356.06 534.43 357.93 541.81
  Q 361.07 554.23 364.76 566.54
  A 1.59 1.57 75.5 0 1 363.59 568.54
  Q 361.80 568.92 362.25 571.00
  Q 362.74 573.24 362.58 578.97
  Q 362.52 581.36 363.47 583.30
  Q 366.73 589.91 370.81 594.69
  Q 381.22 606.86 394.49 617.51
  Q 402.77 624.15 410.45 629.55
  Q 420.58 636.69 431.69 642.31
  Q 433.42 643.19 435.24 643.84
  Q 436.83 644.42 438.98 644.57
  Q 447.39 645.18 455.76 646.13
  Q 474.72 648.30 493.49 644.94
  Q 505.55 642.78 517.77 642.21
  Q 534.26 641.43 536.19 641.16
  Q 551.19 639.08 566.31 632.31
  Q 579.20 626.55 587.31 620.81
  Q 588.20 620.19 590.25 619.54
  Q 587.37 624.36 584.43 629.14
  Q 581.77 633.47 582.00 637.25
  Q 582.33 642.61 579.58 645.84
  Q 570.57 656.47 558.50 663.46
  Q 550.60 668.11 545.75 670.00
  Q 522.81 678.94 501.75 685.50
  Q 494.54 687.75 486.52 687.04
  Q 458.84 684.62 433.54 673.24
  Q 420.93 667.57 413.69 657.56
  Q 410.61 653.30 406.34 652.36
  Q 404.38 651.93 404.31 651.91
  Q 384.57 646.43 367.25 635.46
  Q 349.56 624.06 338.81 609.94
  Q 317.19 581.53 316.91 545.50
  Q 316.76 525.04 324.75 506.25
  Q 332.25 488.61 343.04 472.75
  L 343.75 472.29
  Z"
/>
<path fill="#7ee5f6" d="
  M 213.79 491.75
  Q 214.05 492.25 214.44 492.31
  Q 219.32 493.11 227.00 493.96
  L 233.87 495.05
  A 0.74 0.71 1.3 0 1 234.48 495.66
  L 235.50 502.71
  Q 225.67 504.07 214.75 502.50
  Q 198.41 500.15 185.54 497.00
  L 182.47 489.40
  A 0.72 0.69 -7.8 0 1 183.22 488.45
  Q 198.68 489.96 213.50 492.25
  Q 213.83 492.30 213.79 491.75
  Z"
/>
<path fill="#45cdea" d="
  M 185.54 497.00
  Q 198.41 500.15 214.75 502.50
  Q 225.67 504.07 235.50 502.71
  L 240.71 530.75
  Q 242.41 544.45 242.79 558.25
  Q 242.32 559.05 242.43 559.65
  A 0.54 0.53 72.9 0 1 242.12 560.24
  Q 236.84 562.49 231.43 563.24
  A 1.30 1.26 -4.8 0 0 230.31 564.53
  L 231.04 594.75
  Q 231.09 596.50 230.99 598.25
  Q 230.91 599.71 229.29 599.50
  L 185.54 497.00
  Z"
/>
<path fill="#40436c" d="
  M 824.46 505.25
  Q 825.52 509.99 825.50 516.75
  Q 825.47 530.62 825.00 537.75
  Q 824.50 545.40 821.00 575.21
  Q 820.43 575.60 820.43 576.26
  Q 820.43 577.21 820.43 577.25
  Q 818.66 589.11 816.76 602.16
  A 0.46 0.45 -1.8 0 0 817.31 602.67
  Q 827.46 600.47 836.91 597.60
  Q 840.01 596.66 843.25 596.54
  Q 823.54 626.03 807.29 657.55
  Q 801.78 668.24 796.15 678.86
  Q 778.98 711.24 751.75 738.25
  Q 732.01 757.83 715.29 771.75
  Q 714.84 770.64 713.82 770.63
  A 0.60 0.52 -4.6 0 1 713.24 770.20
  L 712.36 765.73
  A 1.80 1.62 52.9 0 1 712.44 764.80
  Q 713.23 762.73 712.28 761.20
  Q 710.94 759.04 713.02 757.59
  Q 715.17 756.09 714.69 753.16
  A 1.60 1.59 85.3 0 1 716.25 751.31
  Q 717.91 751.29 717.67 749.53
  Q 717.47 748.05 717.47 747.95
  Q 717.28 741.95 717.94 736.00
  A 0.61 0.60 -77.9 0 0 717.52 735.35
  Q 710.27 733.20 702.71 733.50
  Q 699.33 732.96 695.95 732.45
  Q 692.50 731.92 689.23 731.20
  Q 661.47 725.06 650.50 723.50
  Q 609.39 717.65 568.24 712.04
  Q 566.40 711.79 565.71 710.25
  Q 638.49 683.68 678.04 617.25
  Q 679.11 616.85 679.55 615.73
  Q 679.89 614.86 680.74 616.10
  A 0.22 0.21 -23.4 0 0 680.96 616.18
  Q 684.09 615.45 685.50 612.50
  Q 686.32 610.79 692.17 606.91
  Q 697.32 603.49 703.21 604.04
  Q 708.37 604.52 709.22 604.47
  Q 713.53 604.22 717.75 603.25
  Q 718.28 603.13 719.52 603.39
  Q 719.98 603.49 720.48 603.33
  Q 722.99 602.52 725.32 603.75
  A 0.70 0.69 -51.8 0 0 726.10 603.65
  Q 727.05 602.80 726.98 604.24
  Q 726.96 604.63 726.80 605.11
  Q 722.55 617.70 717.00 629.79
  Q 714.44 635.37 712.41 641.18
  Q 710.91 645.51 706.50 654.75
  Q 705.73 656.36 707.25 656.30
  A 1.44 1.10 -61.8 0 0 708.11 655.91
  Q 711.61 652.64 715.14 649.40
  Q 730.75 635.04 741.41 616.83
  Q 743.76 612.82 746.42 608.42
  Q 749.49 603.36 751.00 599.75
  Q 752.11 597.09 753.85 598.20
  A 1.22 0.96 -82.2 0 1 754.32 599.00
  Q 755.01 604.03 755.34 609.11
  Q 755.59 612.87 756.87 614.54
  Q 758.72 616.94 762.07 617.64
  Q 768.07 618.89 772.81 614.81
  Q 774.98 612.95 776.64 611.31
  Q 778.39 609.58 779.58 607.11
  Q 785.03 595.76 788.75 583.70
  Q 797.14 556.46 804.56 540.81
  Q 814.23 520.42 821.19 507.19
  Q 822.13 505.39 824.46 505.25
  Z"
/>
<path fill="#32a6df" d="
  M 681.50 525.29
  Q 675.55 543.21 666.60 559.84
  Q 657.75 576.29 647.52 591.93
  Q 640.99 601.90 640.92 602.01
  Q 627.36 622.95 618.81 634.56
  Q 614.89 639.89 607.82 646.08
  Q 606.09 647.58 603.57 648.41
  Q 598.01 650.23 592.88 653.09
  Q 587.10 656.30 582.50 656.75
  Q 577.96 657.20 575.28 658.14
  Q 574.83 658.30 575.30 658.41
  Q 576.82 658.79 575.38 659.45
  Q 570.95 661.49 566.23 662.64
  Q 565.80 662.74 565.28 662.60
  Q 563.37 662.08 561.69 663.04
  Q 560.68 663.61 560.18 663.66
  Q 559.34 663.74 558.50 663.46
  Q 570.57 656.47 579.58 645.84
  Q 582.33 642.61 582.00 637.25
  Q 581.77 633.47 584.43 629.14
  Q 587.37 624.36 590.25 619.54
  Q 599.20 610.84 608.19 602.19
  Q 624.71 586.29 636.76 566.78
  Q 646.84 550.48 651.96 532.00
  Q 651.93 532.98 652.54 532.62
  A 0.69 0.58 -37.7 0 1 653.30 532.65
  Q 656.03 535.10 659.75 534.50
  Q 662.24 534.10 663.50 534.25
  Q 666.91 534.66 669.75 532.75
  Q 673.03 530.56 676.97 530.49
  Q 678.09 530.47 678.47 530.18
  Q 679.15 529.67 679.00 528.50
  A 4.07 1.22 -51.7 0 1 680.06 525.81
  Q 680.57 525.04 681.50 525.29
  Z"
/>
<path fill="#417198" d="
  M 287.71 558.75
  Q 289.15 564.39 290.63 570.03
  Q 296.94 594.02 309.25 615.54
  L 320.50 633.46
  Q 319.14 633.49 318.50 635.00
  Q 315.44 642.21 308.39 644.09
  Q 306.64 644.56 299.17 645.77
  Q 293.29 646.73 287.27 645.87
  Q 285.11 645.56 283.82 645.83
  Q 281.43 646.32 282.24 648.43
  L 285.25 656.28
  A 0.90 0.85 79.4 0 1 284.46 657.51
  Q 272.88 657.16 261.50 657.25
  Q 259.96 657.26 256.00 656.46
  Q 248.15 634.93 241.52 612.99
  Q 240.62 610.01 239.21 607.25
  Q 239.58 606.47 240.27 605.95
  Q 240.66 605.66 240.92 605.24
  Q 241.83 603.72 243.06 605.44
  Q 244.61 607.59 244.75 605.00
  Q 245.28 595.49 244.29 586.00
  L 242.79 558.25
  Q 242.41 544.45 240.71 530.75
  Q 240.97 529.03 242.32 529.27
  Q 243.03 529.39 243.78 530.26
  Q 257.92 546.57 278.00 554.76
  Q 282.08 556.42 285.99 558.45
  A 1.40 0.46 -15.6 0 0 286.89 558.49
  Q 287.30 558.42 287.71 558.75
  Z"
/>
<path fill="#46b2d9" d="
  M 242.79 558.25
  L 244.29 586.00
  L 243.70 588.97
  A 0.85 0.76 0.9 0 1 242.99 589.58
  L 231.99 591.17
  A 0.67 0.65 -89.8 0 0 231.44 591.74
  L 231.04 594.75
  L 230.31 564.53
  A 1.30 1.26 -4.8 0 1 231.43 563.24
  Q 236.84 562.49 242.12 560.24
  A 0.54 0.53 72.9 0 0 242.43 559.65
  Q 242.32 559.05 242.79 558.25
  Z"
/>
<path fill="#535f8c" d="
  M 843.25 596.54
  Q 840.01 596.66 836.91 597.60
  Q 827.46 600.47 817.31 602.67
  A 0.46 0.45 -1.8 0 1 816.76 602.16
  Q 818.66 589.11 820.43 577.25
  Q 820.43 577.21 820.43 576.26
  Q 820.43 575.60 821.00 575.21
  L 860.60 570.74
  Q 861.07 570.69 860.81 571.07
  L 843.25 596.54
  Z"
/>
<ellipse fill="#f49759" cx="0.00" cy="0.00" transform="translate(761.42,580.35) rotate(28.5)" rx="5.05" ry="4.80"/>
<path fill="#48abd3" d="
  M 244.29 586.00
  Q 245.28 595.49 244.75 605.00
  Q 244.61 607.59 243.06 605.44
  Q 241.83 603.72 240.92 605.24
  Q 240.66 605.66 240.27 605.95
  Q 239.58 606.47 239.21 607.25
  L 235.14 610.08
  A 1.05 0.98 61.4 0 1 233.65 609.58
  L 229.29 599.50
  Q 230.91 599.71 230.99 598.25
  Q 231.09 596.50 231.04 594.75
  L 231.44 591.74
  A 0.67 0.65 -89.8 0 1 231.99 591.17
  L 242.99 589.58
  A 0.85 0.76 0.9 0 0 243.70 588.97
  L 244.29 586.00
  Z"
/>
<path fill="#489edc" d="
  M 671.79 597.75
  Q 674.72 600.50 678.29 602.36
  A 0.88 0.84 10.7 0 1 678.75 603.00
  L 678.78 603.22
  A 0.19 0.18 -12.2 0 0 679.02 603.37
  Q 680.58 602.91 681.92 603.87
  A 1.36 1.24 -27.1 0 0 682.80 604.11
  Q 684.02 604.03 684.29 605.25
  L 678.04 617.25
  Q 638.49 683.68 565.71 710.25
  L 561.25 711.71
  Q 561.51 710.51 560.50 709.96
  L 561.54 708.17
  A 1.14 0.62 -69.5 0 1 562.18 707.61
  Q 564.63 707.21 566.75 706.02
  Q 570.47 703.93 570.54 703.90
  Q 573.24 702.62 575.86 701.17
  Q 578.86 699.51 581.15 698.44
  Q 596.67 691.20 608.94 683.44
  Q 614.24 680.08 619.79 675.34
  Q 624.40 671.40 629.49 665.92
  Q 643.69 650.62 656.81 631.06
  Q 667.67 614.88 671.79 597.75
  Z"
/>
<path fill="#50b1e4" d="
  M 313.79 611.75
  Q 323.29 627.50 336.75 640.04
  Q 350.35 652.87 364.56 660.44
  Q 396.34 677.36 434.75 685.50
  Q 472.09 693.41 493.72 697.19
  Q 525.05 702.67 556.07 709.66
  Q 558.26 710.15 560.50 709.96
  Q 561.51 710.51 561.25 711.71
  Q 514.87 726.96 468.00 721.25
  Q 418.21 715.18 375.37 686.36
  Q 343.26 664.75 320.50 633.46
  L 309.25 615.54
  Q 310.57 615.06 311.86 614.53
  Q 312.81 614.14 313.20 613.46
  Q 313.64 612.69 313.79 611.75
  Z"
/>
<path fill="#44d4f4" d="
  M 528.39 626.79
  Q 525.43 625.27 528.30 623.57
  Q 532.74 620.94 533.61 615.93
  A 0.94 0.90 84.4 0 1 534.15 615.24
  Q 544.61 610.82 552.83 618.96
  Q 554.80 620.90 552.68 622.69
  Q 547.69 626.90 541.26 628.30
  Q 534.26 629.82 528.39 626.79
  Z"
/>
<path fill="#45527a" d="
  M 320.50 633.46
  Q 343.26 664.75 375.37 686.36
  Q 418.21 715.18 468.00 721.25
  Q 514.87 726.96 561.25 711.71
  L 565.71 710.25
  Q 566.40 711.79 568.24 712.04
  Q 609.39 717.65 650.50 723.50
  Q 661.47 725.06 689.23 731.20
  Q 692.50 731.92 695.95 732.45
  Q 699.33 732.96 702.71 733.50
  Q 703.22 734.97 701.92 735.92
  Q 696.56 739.84 690.53 742.64
  Q 660.41 756.62 628.18 764.64
  Q 600.85 771.44 573.25 776.99
  Q 543.57 782.95 514.25 790.46
  Q 514.38 789.05 513.01 788.93
  Q 508.25 788.53 503.50 788.02
  Q 492.71 786.86 483.03 782.00
  Q 472.06 776.49 465.56 771.44
  Q 451.62 760.59 431.94 742.06
  Q 417.69 728.65 404.44 720.31
  Q 384.59 707.83 359.49 704.82
  Q 350.73 703.77 341.88 705.02
  A 0.35 0.35 -18.7 0 0 341.62 705.54
  Q 345.16 711.53 349.33 716.89
  Q 353.88 722.74 353.93 722.81
  Q 373.06 748.23 394.25 771.96
  Q 392.62 773.21 391.50 772.75
  Q 383.13 769.30 374.54 766.48
  Q 362.10 762.38 362.02 762.36
  Q 321.54 748.47 309.19 745.06
  Q 279.59 736.89 252.94 725.06
  Q 247.00 722.43 243.77 721.14
  Q 243.71 721.12 241.79 720.22
  Q 240.13 719.44 238.26 719.48
  Q 237.83 719.48 237.29 719.29
  Q 235.91 718.78 235.96 720.75
  Q 203.69 686.78 172.65 651.69
  Q 172.31 651.31 172.80 651.37
  Q 214.24 656.55 256.00 656.46
  Q 259.96 657.26 261.50 657.25
  Q 272.88 657.16 284.46 657.51
  A 0.90 0.85 79.4 0 0 285.25 656.28
  L 282.24 648.43
  Q 281.43 646.32 283.82 645.83
  Q 285.11 645.56 287.27 645.87
  Q 293.29 646.73 299.17 645.77
  Q 306.64 644.56 308.39 644.09
  Q 315.44 642.21 318.50 635.00
  Q 319.14 633.49 320.50 633.46
  Z
  M 329.70 711.96
  A 17.59 17.59 0.0 0 0 312.11 694.37
  A 17.59 17.59 0.0 0 0 294.52 711.96
  A 17.59 17.59 0.0 0 0 312.11 729.55
  A 17.59 17.59 0.0 0 0 329.70 711.96
  Z
  M 621.2732 752.4406
  A 11.29 10.89 96.8 0 0 633.4234 742.5194
  A 11.29 10.89 96.8 0 0 623.9468 730.0194
  A 11.29 10.89 96.8 0 0 611.7966 739.9406
  A 11.29 10.89 96.8 0 0 621.2732 752.4406
  Z
  M 484.16 756.43
  A 5.37 5.37 0.0 0 0 478.79 751.06
  A 5.37 5.37 0.0 0 0 473.42 756.43
  A 5.37 5.37 0.0 0 0 478.79 761.80
  A 5.37 5.37 0.0 0 0 484.16 756.43
  Z"
/>
<circle fill="#f49256" cx="312.11" cy="711.96" r="17.59"/>
<path fill="#505d89" d="
  M 514.25 790.46
  Q 497.71 794.85 494.75 795.50
  Q 487.66 797.05 479.57 796.94
  Q 473.48 796.86 464.50 795.30
  Q 431.26 789.53 400.25 776.00
  Q 397.57 774.83 394.25 771.96
  Q 373.06 748.23 353.93 722.81
  Q 353.88 722.74 349.33 716.89
  Q 345.16 711.53 341.62 705.54
  A 0.35 0.35 -18.7 0 1 341.88 705.02
  Q 350.73 703.77 359.49 704.82
  Q 384.59 707.83 404.44 720.31
  Q 417.69 728.65 431.94 742.06
  Q 451.62 760.59 465.56 771.44
  Q 472.06 776.49 483.03 782.00
  Q 492.71 786.86 503.50 788.02
  Q 508.25 788.53 513.01 788.93
  Q 514.38 789.05 514.25 790.46
  Z"
/>
<path fill="#444971" d="
  M 394.25 771.96
  Q 397.57 774.83 400.25 776.00
  Q 431.26 789.53 464.50 795.30
  Q 473.48 796.86 479.57 796.94
  Q 487.66 797.05 494.75 795.50
  Q 497.71 794.85 514.25 790.46
  Q 543.57 782.95 573.25 776.99
  Q 600.85 771.44 628.18 764.64
  Q 660.41 756.62 690.53 742.64
  Q 696.56 739.84 701.92 735.92
  Q 703.22 734.97 702.71 733.50
  Q 710.27 733.20 717.52 735.35
  A 0.61 0.60 -77.9 0 1 717.94 736.00
  Q 717.28 741.95 717.47 747.95
  Q 717.47 748.05 717.67 749.53
  Q 717.91 751.29 716.25 751.31
  A 1.60 1.59 85.3 0 0 714.69 753.16
  Q 715.17 756.09 713.02 757.59
  Q 710.94 759.04 712.28 761.20
  Q 713.23 762.73 712.44 764.80
  A 1.80 1.62 52.9 0 0 712.36 765.73
  L 713.24 770.20
  A 0.60 0.52 -4.6 0 0 713.82 770.63
  Q 714.84 770.64 715.29 771.75
  Q 712.96 773.41 710.98 775.44
  Q 709.37 777.10 708.65 779.74
  Q 705.44 791.39 701.96 802.96
  A 0.30 0.30 30.1 0 1 701.46 803.09
  L 689.12 791.34
  A 0.64 0.62 -39.7 0 0 688.33 791.28
  Q 668.29 804.65 649.19 812.69
  Q 610.45 828.99 566.72 836.74
  Q 563.41 837.32 554.74 838.56
  Q 548.73 839.41 542.75 840.46
  Q 552.85 832.92 561.84 824.40
  Q 562.38 823.89 561.64 823.81
  Q 557.26 823.38 553.50 823.53
  Q 535.35 824.28 517.25 825.75
  Q 503.63 826.86 484.22 831.07
  Q 469.44 834.27 469.26 834.31
  Q 458.07 836.66 450.25 838.50
  Q 448.52 838.91 447.25 840.46
  Q 420.05 835.88 399.00 829.00
  Q 384.58 824.29 351.50 811.96
  Q 351.66 811.27 350.94 810.81
  Q 345.89 807.65 343.11 806.33
  Q 338.08 803.95 333.55 800.71
  Q 323.76 793.72 313.79 787.00
  Q 296.29 774.60 289.56 769.44
  Q 260.74 747.33 235.96 720.75
  Q 235.91 718.78 237.29 719.29
  Q 237.83 719.48 238.26 719.48
  Q 240.13 719.44 241.79 720.22
  Q 243.71 721.12 243.77 721.14
  Q 247.00 722.43 252.94 725.06
  Q 279.59 736.89 309.19 745.06
  Q 321.54 748.47 362.02 762.36
  Q 362.10 762.38 374.54 766.48
  Q 383.13 769.30 391.50 772.75
  Q 392.62 773.21 394.25 771.96
  Z"
/>
<path fill="#e99a68" d="
  M 621.2732 752.4406
  A 11.29 10.89 96.8 0 1 611.7966 739.9406
  A 11.29 10.89 96.8 0 1 623.9468 730.0194
  A 11.29 10.89 96.8 0 1 633.4234 742.5194
  A 11.29 10.89 96.8 0 1 621.2732 752.4406
  Z
  M 626.61 749.20
  Q 628.18 748.70 628.42 747.98
  A 3.57 3.55 -9.4 0 1 629.64 746.29
  Q 631.75 744.70 632.10 742.90
  Q 632.32 741.80 631.66 739.11
  Q 630.03 732.42 623.00 732.25
  Q 614.98 732.06 613.24 739.14
  Q 612.53 742.01 613.98 744.52
  Q 615.57 747.28 618.29 749.03
  Q 620.10 750.19 622.34 750.03
  Q 624.51 749.87 626.61 749.20
  Z"
/>
<path fill="#f49759" d="
  M 626.61 749.20
  Q 624.51 749.87 622.34 750.03
  Q 620.10 750.19 618.29 749.03
  Q 615.57 747.28 613.98 744.52
  Q 612.53 742.01 613.24 739.14
  Q 614.98 732.06 623.00 732.25
  Q 630.03 732.42 631.66 739.11
  Q 632.32 741.80 632.10 742.90
  Q 631.75 744.70 629.64 746.29
  A 3.57 3.55 -9.4 0 0 628.42 747.98
  Q 628.18 748.70 626.61 749.20
  Z"
/>
<circle fill="#f49759" cx="478.79" cy="756.43" r="5.37"/>
<path fill="#535f8c" d="
  M 313.79 787.00
  Q 323.76 793.72 333.55 800.71
  Q 338.08 803.95 343.11 806.33
  Q 345.89 807.65 350.94 810.81
  Q 351.66 811.27 351.50 811.96
  Q 323.81 802.37 297.20 790.50
  Q 295.20 789.61 297.37 789.30
  L 313.79 787.00
  Z"
/>
<path fill="#5595bf" d="
  M 542.75 840.46
  Q 526.05 851.86 506.61 856.09
  Q 499.97 857.53 486.78 858.63
  Q 458.93 860.94 430.94 861.75
  Q 426.50 861.88 429.51 858.61
  Q 437.11 850.36 447.06 841.31
  Q 447.61 840.81 447.25 840.46
  Q 448.52 838.91 450.25 838.50
  Q 458.07 836.66 469.26 834.31
  Q 469.44 834.27 484.22 831.07
  Q 503.63 826.86 517.25 825.75
  Q 535.35 824.28 553.50 823.53
  Q 557.26 823.38 561.64 823.81
  Q 562.38 823.89 561.84 824.40
  Q 552.85 832.92 542.75 840.46
  Z"
/>
</svg>
