<?xml version="1.0" encoding="UTF-8" standalone="no"?><!-- Generator: Gravit.io --><svg xmlns="http://www.w3.org/2000/svg" xmlns:xlink="http://www.w3.org/1999/xlink" style="isolation:isolate" viewBox="685.138 551.629 181.909 177.565" width="181.909pt" height="177.565pt"><defs><clipPath id="_clipPath_u5mf5Fi6Lir3e7sE01Zzzl1M8SG9i7BB"><rect x="685.138" y="551.629" width="181.909" height="177.565"/></clipPath></defs><g clip-path="url(#_clipPath_u5mf5Fi6Lir3e7sE01Zzzl1M8SG9i7BB)"><rect x="685.138" y="551.629" width="181.909" height="177.565" style="fill:rgb(6,6,6)" fill-opacity="0"/><g><path d=" M 747.567 553.07 Q 749.297 556.76 751.277 560.32 Q 754.037 565.31 759.277 567.53 Q 754.647 570.87 751.317 566.32 Q 746.867 560.44 747.567 553.07 Z " fill="rgb(246,157,88)"/><path d=" M 792.027 581.53 Q 798.967 582.42 800.467 583.63 Q 803.457 586.06 806.777 587.98 Q 809.367 589.47 810.027 590.96 Q 811.007 593.19 810.027 595.78 Q 801.927 598.29 807.417 604.32 Q 808.637 605.66 810.407 605.26 Q 812.947 604.7 813.737 606.07 Q 814.267 609.27 815.197 612.39 Q 816.257 615.92 815.617 619.54 Q 814.957 623.25 815.057 626.17 C 815.072 626.569 815.275 626.938 815.605 627.166 C 815.936 627.394 816.355 627.455 816.737 627.33 Q 822.877 625.32 822.527 618.82 Q 822.237 613.43 820.487 601.57 Q 820.677 600.54 821.467 600.51 Q 824.417 600.37 826.847 598.62 Q 828.927 597.13 832.047 597.42 L 844.347 598.56 Q 846.507 598.76 846.027 600.56 L 845.167 603.8 C 845.137 604.084 844.897 604.339 844.527 604.48 Q 839.587 606.88 834.687 607.55 Q 832.637 607.83 833.267 609.8 Q 833.857 611.59 833.027 613.32 Q 831.837 615.82 831.257 621.84 Q 830.737 627.33 826.597 630.89 Q 825.207 632.09 823.827 633.3 Q 822.447 634.51 821.717 636.17 Q 820.107 639.84 818.707 643.6 Q 818.537 644.04 818.617 644.56 Q 819.127 647.8 817.137 651.61 C 816.852 652.169 816.879 652.836 817.207 653.37 Q 819.447 656.99 821.607 660.65 Q 823.567 663.97 823.657 665.8 Q 823.817 669.04 820.737 671.18 C 819.939 671.601 818.925 671.389 818.397 670.69 L 814.717 665.63 C 814.149 665.365 813.327 665.249 812.527 665.32 Q 810.427 665.78 811.217 667.88 Q 812.127 670.31 810.817 674.32 Q 809.717 676.16 807.777 677.11 Q 803.507 675.81 802.887 671.31 Q 802.497 668.49 800.067 671.92 C 799.507 672.707 798.632 673.214 797.667 673.31 Q 795.707 673.5 796.797 675.78 Q 799.527 681.55 803.577 685.97 C 804.155 686.603 804.332 687.505 804.037 688.31 Q 800.107 698.96 789.777 703.61 Q 781.867 700.18 781.767 691.57 Q 781.707 686.83 784.717 683.76 Q 786.937 681.48 783.777 680.78 L 783.177 680.13 C 782.888 679.924 782.78 679.614 782.897 679.33 Q 783.147 677.96 782.777 676.07 Q 782.177 672.98 785.037 671.12 Q 788.767 668.68 793.217 668.29 C 793.544 668.254 793.847 668.124 794.077 667.92 Q 797.707 664.44 799.017 659.74 Q 799.797 656.94 799.187 654.88 Q 798.457 652.38 796.127 650.71 Q 795.297 650.11 795.027 649.11 Q 801.827 646.92 805.717 644.01 Q 812.977 638.57 809.587 629.43 Q 806.757 621.78 803.967 619.13 Q 801.417 616.71 798.077 615.91 Q 796.487 615.53 797.577 616.74 Q 803.897 623.8 800.607 631.16 Q 798.827 635.13 794.847 637.49 Q 791.207 639.64 786.497 640.45 Q 784.127 640.86 784.037 643.26 Q 783.947 645.36 783.727 648.15 Q 783.497 651.19 782.717 652.88 Q 780.897 656.82 776.587 659.13 Q 772.107 661.54 768.507 662.45 C 768.126 662.542 767.833 662.729 767.707 662.96 Q 767.257 663.71 768.587 664.01 Q 774.627 665.38 782.027 665.36 Q 781.607 667.17 780.227 668.32 Q 779.797 668.68 778.687 668.99 Q 777.827 669.24 777.107 669.74 Q 775.277 671.01 775.177 671.06 Q 768.067 674.83 760.837 678.38 Q 758.267 679.65 753.777 684.03 L 753.027 684.28 Q 753.347 683.24 752.597 683.05 C 752.212 682.971 751.934 682.788 751.867 682.57 Q 751.117 680.93 751.887 679.33 Q 752.427 678.22 752.457 678.15 Q 754.337 673.5 757.337 671.63 Q 759.637 670.2 761.027 668.26 C 761.354 667.809 761.411 667.216 761.177 666.71 Q 759.197 662.38 759.407 657.83 Q 759.617 653.33 759.407 648.83 Q 759.207 644.37 755.877 642.15 Q 754.957 641.54 752.907 641.01 Q 751.347 640.61 749.817 640.07 L 750.027 630.31 C 750.037 629.773 750.495 629.334 751.077 629.3 Q 753.567 629.17 756.277 629.82 Q 758.067 630.25 758.987 628.32 Q 758.887 629.19 759.407 629.75 C 759.674 629.968 759.783 630.276 759.697 630.57 Q 759.247 633.64 760.837 635.01 Q 764.137 637.85 769.217 639.88 Q 774.007 641.8 776.937 637.99 Q 781.047 632.64 784.087 626.63 Q 785.357 624.11 786.977 621.81 Q 788.077 620.24 786.347 619.68 Q 784.767 619.16 784.277 617.58 Q 782.967 613.34 785.097 609.47 Q 786.397 607.13 787.737 604.82 Q 788.067 604.25 788.027 603.75 Q 787.987 603.17 787.777 602.61 Q 790.767 602.68 790.047 599.31 Q 789.437 596.43 791.037 594.89 Q 792.097 593.86 794.787 593.45 Q 797.267 593.07 799.797 593.07 Q 801.197 593.07 800.337 591.96 Q 797.467 588.28 792.527 588.28 Q 792.227 587.21 792.077 586.11 Q 791.877 584.63 791.437 584.03 Q 790.527 582.79 788.777 582.53 L 792.027 581.53 Z " fill="rgb(255,167,93)"/><path d=" M 792.027 581.53 L 788.777 582.53 L 784.527 584.11 Q 783.567 584.09 783.627 583.01 Q 783.687 581.77 782.777 581.03 Q 785.027 580.07 786.067 577.82 Q 788.687 575.46 791.587 574.47 Q 793.757 573.73 795.297 575.43 Q 797.977 578.4 795.547 580.05 Q 795.217 580.27 793.757 580.58 Q 792.787 580.79 792.027 581.53 Z " fill="rgb(254,119,50)"/><path d=" M 782.777 581.03 Q 783.687 581.77 783.627 583.01 Q 783.567 584.09 784.527 584.11 L 774.557 587.72 C 774.243 587.831 773.984 588.041 773.827 588.31 Q 772.557 590.51 772.717 593.51 Q 772.857 596.22 770.987 598.57 Q 769.167 600.07 766.817 600.07 Q 764.477 597.86 764.527 595.07 Q 764.667 587.82 771.317 584.07 L 782.777 581.03 Z " fill="rgb(254,119,50)"/><path d=" M 792.527 588.28 Q 797.467 588.28 800.337 591.96 Q 801.197 593.07 799.797 593.07 Q 797.267 593.07 794.787 593.45 Q 792.097 593.86 791.037 594.89 Q 789.437 596.43 790.047 599.31 Q 790.767 602.68 787.777 602.61 Q 782.507 597.43 786.967 591.51 Q 788.907 588.93 792.527 588.28 Z " fill="rgb(254,119,50)"/><path d=" M 775.027 559.53 Q 778.027 560.86 777.427 564.74 C 777.346 565.24 777.492 565.75 777.827 566.13 Q 783.037 572.03 786.067 577.82 Q 785.027 580.07 782.777 581.03 L 771.317 584.07 Q 771.577 582.72 770.737 581.57 Q 772.557 580.1 771.347 578.97 Q 770.737 578.4 769.417 578.18 Q 758.967 576.42 756.067 586.82 L 753.317 585.82 Q 755.967 577.74 749.487 572.57 Q 752.087 570.11 751.317 566.32 Q 754.647 570.87 759.277 567.53 Q 768.847 570.04 773.337 561.63 Q 773.827 560.71 775.027 559.53 Z " fill="rgb(255,177,85)"/><path d=" M 770.987 598.57 Q 771.447 600.04 773.147 599.8 C 773.844 599.705 774.528 600.047 774.867 600.66 Q 775.817 602.37 776.357 604.37 Q 777.307 607.88 777.367 608.21 Q 777.797 610.45 776.947 612.75 Q 775.397 616.92 772.167 619.95 Q 771.697 620.39 771.227 620.29 C 771.046 620.246 770.901 620.14 770.833 620.002 C 770.765 619.864 770.781 619.709 770.877 619.58 Q 772.087 613.52 771.587 607.97 C 771.503 606.994 771 606.102 770.207 605.52 Q 767.227 603.34 766.817 600.07 Q 769.167 600.07 770.987 598.57 Z " fill="rgb(255,177,85)"/><path d=" M 795.027 649.11 Q 795.297 650.11 796.127 650.71 Q 798.457 652.38 799.187 654.88 Q 799.797 656.94 799.017 659.74 Q 797.707 664.44 794.077 667.92 C 793.847 668.124 793.544 668.254 793.217 668.29 Q 788.767 668.68 785.037 671.12 Q 782.177 672.98 782.777 676.07 Q 783.147 677.96 782.897 679.33 C 782.78 679.614 782.888 679.924 783.177 680.13 L 783.777 680.78 Q 778.907 679.91 775.337 682.63 Q 768.377 687.95 771.867 696.5 Q 774.057 701.87 777.387 705.98 Q 778.687 707.58 777.477 709.24 Q 771.627 717.31 775.027 726.82 Q 775.087 727 774.987 727.57 Q 768.077 723.79 764.617 716.68 Q 763.317 713.99 761.987 711.32 Q 762.567 709.79 761.277 708.57 Q 759.437 706.83 757.247 707.07 Q 755.707 707.25 753.677 708.74 Q 746.847 713.79 746.837 722.75 Q 746.837 723.19 747.087 723.68 Q 747.967 725.39 746.777 726.86 Q 740.567 723.28 742.437 714.07 Q 742.837 712.05 740.787 711.88 Q 737.087 711.58 733.017 709.39 Q 730.507 708.04 729.887 706.39 Q 728.927 703.83 732.087 701.63 Q 735.697 699.13 735.657 695.34 Q 735.617 692.02 733.327 689.23 Q 729.677 684.78 723.317 688.57 Q 722.467 687.41 723.327 686.63 Q 725.637 684.54 728.097 682.62 Q 729.597 681.46 731.437 681.92 Q 736.827 683.28 740.967 687.63 Q 743.627 690.44 746.047 691.4 C 746.348 691.515 746.685 691.493 746.967 691.34 Q 748.967 690.26 750.237 688.32 Q 751.027 694.3 748.717 697.76 Q 746.407 701.22 745.707 702.86 C 745.554 703.147 745.569 703.486 745.747 703.76 Q 746.737 705.44 748.847 704.93 Q 751.757 704.22 753.337 701.67 Q 757.627 694.75 756.217 686.63 Q 755.867 684.66 753.777 684.03 Q 758.267 679.65 760.837 678.38 Q 768.067 674.83 775.177 671.06 Q 775.277 671.01 777.107 669.74 Q 777.827 669.24 778.687 668.99 Q 779.797 668.68 780.227 668.32 Q 781.607 667.17 782.027 665.36 Q 789.617 664.35 791.867 657.56 Q 792.237 656.43 792.397 654.53 Q 792.517 652.99 792.677 651.45 Q 792.787 650.41 793.367 649.91 Q 794.057 649.32 795.027 649.11 Z " fill="rgb(255,137,88)"/><path d=" M 737.027 584.86 Q 734.547 587.92 730.527 586.58 Q 721.037 583.44 722.777 573.36 Q 724.447 571.65 726.097 571.24 C 726.425 571.159 726.771 571.211 727.06 571.385 C 727.349 571.56 727.557 571.842 727.637 572.17 Q 728.877 577.22 730.207 580.24 Q 732.137 584.66 737.027 584.86 Z " fill="rgb(254,97,73)"/><path d=" M 758.987 628.32 Q 758.067 630.25 756.277 629.82 Q 753.567 629.17 751.077 629.3 C 750.495 629.334 750.037 629.773 750.027 630.31 L 749.817 640.07 Q 746.677 646.68 741.687 652 Q 740.867 652.87 739.987 653.08 Q 737.657 653.62 738.777 650.57 Q 739.387 648.91 743.587 644.38 Q 745.697 642.11 746.407 639.52 Q 747.017 637.34 746.147 634.16 Q 744.867 629.39 742.337 624.51 Q 740.777 621.48 742.937 618.76 Q 746.367 614.45 750.377 610.67 Q 756.247 605.13 764.277 604.6 C 764.607 604.578 764.935 604.654 765.217 604.82 Q 768.407 606.7 765.357 607.76 Q 764.667 608 763.147 608.08 Q 758.797 608.29 755.837 611.38 Q 752.957 614.39 755.087 618.26 Q 755.557 619.1 757.507 621 Q 759.277 622.72 759.637 623.91 Q 760.297 626.07 758.987 628.32 Z " fill="rgb(254,97,73)"/><path d=" M 795.027 649.11 Q 794.057 649.32 793.367 649.91 Q 792.787 650.41 792.677 651.45 Q 792.517 652.99 792.397 654.53 Q 792.237 656.43 791.867 657.56 Q 789.617 664.35 782.027 665.36 Q 774.627 665.38 768.587 664.01 Q 767.257 663.71 767.707 662.96 C 767.833 662.729 768.126 662.542 768.507 662.45 Q 772.107 661.54 776.587 659.13 Q 780.897 656.82 782.717 652.88 Q 783.497 651.19 783.727 648.15 Q 783.947 645.36 784.037 643.26 Q 784.127 640.86 786.497 640.45 Q 791.207 639.64 794.847 637.49 Q 798.827 635.13 800.607 631.16 Q 803.897 623.8 797.577 616.74 Q 796.487 615.53 798.077 615.91 Q 801.417 616.71 803.967 619.13 Q 806.757 621.78 809.587 629.43 Q 812.977 638.57 805.717 644.01 Q 801.827 646.92 795.027 649.11 Z " fill="rgb(254,97,73)"/><path d=" M 810.817 674.32 Q 812.757 673.87 813.317 675.22 Q 813.427 675.5 813.757 677.42 Q 814.927 684.18 807.757 682.38 Q 806.147 681.97 805.207 680.59 Q 803.667 678.31 806.027 677.82 Q 807.287 677.56 807.777 677.11 Q 809.717 676.16 810.817 674.32 Z " fill="rgb(254,97,73)"/><path d=" M 783.777 680.78 Q 786.937 681.48 784.717 683.76 Q 781.707 686.83 781.767 691.57 Q 781.867 700.18 789.777 703.61 Q 792.097 708.18 793.697 713.04 Q 793.717 713.11 794.557 715.01 Q 795.287 716.69 794.737 718.57 Q 792.547 714.42 788.567 712.74 Q 784.967 711.22 781.947 712.57 Q 778.277 714.22 778.277 719.33 Q 778.277 721.82 779.067 724.19 Q 781.337 731.02 774.987 727.57 Q 775.087 727 775.027 726.82 Q 771.627 717.31 777.477 709.24 Q 778.687 707.58 777.387 705.98 Q 774.057 701.87 771.867 696.5 Q 768.377 687.95 775.337 682.63 Q 778.907 679.91 783.777 680.78 Z " fill="rgb(254,97,73)"/><path d=" M 753.777 684.03 Q 755.867 684.66 756.217 686.63 Q 757.627 694.75 753.337 701.67 Q 751.757 704.22 748.847 704.93 Q 746.737 705.44 745.747 703.76 C 745.569 703.486 745.554 703.147 745.707 702.86 Q 746.407 701.22 748.717 697.76 Q 751.027 694.3 750.237 688.32 L 753.027 684.28 L 753.777 684.03 Z " fill="rgb(254,97,73)"/><path d=" M 824.527 690.53 Q 826.807 693.64 828.917 696.86 Q 829.407 697.6 829.437 698.28 Q 829.477 699.08 829.277 699.86 Q 826.157 699 823.487 697.17 Q 823.077 696.88 823.147 697.38 Q 823.677 700.97 826.867 703.24 Q 830.207 705.62 826.347 706.97 Q 820.477 709.04 814.277 705.86 Q 815.377 705.75 815.027 704.57 Q 814.097 701.41 814.707 697.79 Q 815.247 694.52 815.907 692.88 Q 816.867 690.51 819.057 688.7 Q 820.787 687.28 821.227 689.47 Q 821.857 692.55 824.527 690.53 Z " fill="rgb(254,97,73)"/><path d=" M 810.027 595.78 Q 813.997 596.52 816.567 599.57 L 815.867 600.21 Q 815.487 600.56 815.347 600.99 L 813.737 606.07 Q 812.947 604.7 810.407 605.26 Q 808.637 605.66 807.417 604.32 Q 801.927 598.29 810.027 595.78 Z " fill="rgb(254,140,69)"/><path d=" M 848.817 607.57 Q 848.007 609.7 848.797 611.81 Q 850.287 615.8 853.387 618.71 Q 857.587 622.66 862.087 626.26 Q 864.297 628.02 865.687 631.09 Q 867.017 634.02 867.047 636.83 Q 867.087 642.5 862.167 646.19 Q 857.717 649.52 852.257 650.73 Q 847.587 651.76 845.217 653.51 Q 842.357 655.61 843.687 657.9 Q 844.247 658.87 846.637 660.39 Q 850.367 662.75 852.837 665.51 Q 857.727 670.96 854.777 678.11 Q 853.197 674.6 851.867 671 Q 850.277 666.7 846.967 664.88 Q 842.637 662.51 841.617 661.72 Q 837.647 658.6 838.027 653.07 Q 838.237 649.99 840.337 648.34 Q 843.337 645.97 846.447 643.72 Q 856.077 636.74 847.777 628.07 Q 844.267 624.41 841.987 620.44 Q 840.517 617.87 840.677 615.8 Q 840.877 613.18 842.837 611.13 Q 844.777 609.11 845.907 607.66 C 846.067 607.42 846.35 607.231 846.697 607.13 Q 847.797 606.93 848.817 607.57 Z " fill="rgb(255,72,81)"/><path d=" M 836.027 671.86 Q 831.517 676.49 831.777 684.32 Q 832.097 693.76 838.087 699.17 C 838.184 699.243 838.236 699.356 838.226 699.473 C 838.216 699.589 838.145 699.693 838.037 699.75 Q 833.807 702.02 829.277 699.86 Q 829.477 699.08 829.437 698.28 Q 829.407 697.6 828.917 696.86 Q 826.807 693.64 824.527 690.53 Q 822.977 686.84 822.507 682.88 Q 822.217 680.46 822.987 678.28 Q 823.697 676.27 825.627 674.71 Q 829.507 671.57 834.747 671.39 C 835.054 671.391 835.354 671.471 835.617 671.62 L 836.027 671.86 Z " fill="rgb(255,72,81)"/><path d=" M 806.487 705.82 Q 806.677 708.28 807.187 710.69 Q 807.907 714.07 807.877 715.53 Q 807.697 724.3 799.277 728.28 Q 799.167 726.83 800.217 724.51 Q 803.307 717.68 803.587 710.13 Q 803.697 707 806.487 705.82 Z " fill="rgb(255,72,81)"/><path d=" M 761.987 711.32 Q 761.007 710.62 759.837 711.14 Q 749.337 715.82 751.277 728.03 Q 751.557 729.78 750.117 728.9 L 746.777 726.86 Q 747.967 725.39 747.087 723.68 Q 746.837 723.19 746.837 722.75 Q 746.847 713.79 753.677 708.74 Q 755.707 707.25 757.247 707.07 Q 759.437 706.83 761.277 708.57 Q 762.567 709.79 761.987 711.32 Z " fill="rgb(255,72,81)"/><path d=" M 817.027 567.11 L 825.767 569.65 Q 828.117 570.33 825.857 571.38 Q 820.347 573.91 814.527 575.56 Q 811.277 576.48 810.397 579.59 C 810.299 579.903 810.316 580.237 810.447 580.54 Q 812.547 586.27 818.027 587.07 Q 821.917 587.63 827.277 585.53 Q 828.387 585.45 827.647 585.89 Q 821.687 589.41 814.757 589.15 Q 814.577 589.14 812.317 589.23 Q 810.187 589.32 808.717 587.88 Q 804.757 584.03 805.577 578.33 Q 806.877 569.29 816.027 569.08 C 816.349 569.06 816.629 568.881 816.747 568.62 Q 817.047 567.91 817.027 567.11 Z " fill="rgb(253,81,91)"/><path d=" M 817.027 567.11 Q 817.047 567.91 816.747 568.62 C 816.629 568.881 816.349 569.06 816.027 569.08 Q 806.877 569.29 805.577 578.33 Q 804.757 584.03 808.717 587.88 Q 810.187 589.32 812.317 589.23 Q 814.577 589.14 814.757 589.15 Q 821.687 589.41 827.647 585.89 Q 828.387 585.45 827.277 585.53 Q 831.877 583.99 835.367 580.96 Q 835.967 580.44 835.867 581.24 L 834.377 593.02 C 834.327 593.374 834.428 593.733 834.658 594.015 C 834.887 594.298 835.226 594.479 835.597 594.52 Q 841.817 595.26 847.977 593.98 Q 850.027 593.55 850.427 595.61 Q 851.557 601.41 848.817 607.57 Q 847.797 606.93 846.697 607.13 C 846.35 607.231 846.067 607.42 845.907 607.66 Q 844.777 609.11 842.837 611.13 Q 840.877 613.18 840.677 615.8 Q 840.517 617.87 841.987 620.44 Q 844.267 624.41 847.777 628.07 Q 856.077 636.74 846.447 643.72 Q 843.337 645.97 840.337 648.34 Q 838.237 649.99 838.027 653.07 Q 837.647 658.6 841.617 661.72 Q 842.637 662.51 846.967 664.88 Q 850.277 666.7 851.867 671 Q 853.197 674.6 854.777 678.11 Q 854.567 679.51 853.397 680.1 C 853.252 680.175 853.08 680.181 852.931 680.114 C 852.781 680.048 852.67 679.918 852.627 679.76 Q 848.987 665.63 836.027 671.86 L 835.617 671.62 C 835.354 671.471 835.054 671.391 834.747 671.39 Q 829.507 671.57 825.627 674.71 Q 823.697 676.27 822.987 678.28 Q 822.217 680.46 822.507 682.88 Q 822.977 686.84 824.527 690.53 Q 821.857 692.55 821.227 689.47 Q 820.787 687.28 819.057 688.7 Q 816.867 690.51 815.907 692.88 Q 815.247 694.52 814.707 697.79 Q 814.097 701.41 815.027 704.57 Q 815.377 705.75 814.277 705.86 Q 812.997 705.26 811.837 704.47 Q 810.157 703.32 809.407 703.15 Q 806.897 702.57 806.487 705.82 Q 803.697 707 803.587 710.13 Q 803.307 717.68 800.217 724.51 Q 799.167 726.83 799.277 728.28 Q 797.447 729.12 795.897 728.68 C 795.569 728.585 795.291 728.362 795.128 728.062 C 794.965 727.761 794.928 727.408 795.027 727.08 Q 796.287 722.76 794.737 718.57 Q 795.287 716.69 794.557 715.01 Q 793.717 713.11 793.697 713.04 Q 792.097 708.18 789.777 703.61 Q 800.107 698.96 804.037 688.31 C 804.332 687.505 804.155 686.603 803.577 685.97 Q 799.527 681.55 796.797 675.78 Q 795.707 673.5 797.667 673.31 C 798.632 673.214 799.507 672.707 800.067 671.92 Q 802.497 668.49 802.887 671.31 Q 803.507 675.81 807.777 677.11 Q 807.287 677.56 806.027 677.82 Q 803.667 678.31 805.207 680.59 Q 806.147 681.97 807.757 682.38 Q 814.927 684.18 813.757 677.42 Q 813.427 675.5 813.317 675.22 Q 812.757 673.87 810.817 674.32 Q 812.127 670.31 811.217 667.88 Q 810.427 665.78 812.527 665.32 C 813.327 665.249 814.149 665.365 814.717 665.63 L 818.397 670.69 C 818.925 671.389 819.939 671.601 820.737 671.18 Q 823.817 669.04 823.657 665.8 Q 823.567 663.97 821.607 660.65 Q 819.447 656.99 817.207 653.37 C 816.879 652.836 816.852 652.169 817.137 651.61 Q 819.127 647.8 818.617 644.56 Q 818.537 644.04 818.707 643.6 Q 820.107 639.84 821.717 636.17 Q 822.447 634.51 823.827 633.3 Q 825.207 632.09 826.597 630.89 Q 830.737 627.33 831.257 621.84 Q 831.837 615.82 833.027 613.32 Q 833.857 611.59 833.267 609.8 Q 832.637 607.83 834.687 607.55 Q 839.587 606.88 844.527 604.48 C 844.897 604.339 845.137 604.084 845.167 603.8 L 846.027 600.56 Q 846.507 598.76 844.347 598.56 L 832.047 597.42 Q 828.927 597.13 826.847 598.62 Q 824.417 600.37 821.467 600.51 Q 820.677 600.54 820.487 601.57 Q 818.877 599.9 816.567 599.57 Q 813.997 596.52 810.027 595.78 Q 811.007 593.19 810.027 590.96 Q 809.367 589.47 806.777 587.98 Q 803.457 586.06 800.467 583.63 Q 798.967 582.42 792.027 581.53 Q 792.787 580.79 793.757 580.58 Q 795.217 580.27 795.547 580.05 Q 797.977 578.4 795.297 575.43 Q 793.757 573.73 791.587 574.47 Q 788.687 575.46 786.067 577.82 Q 783.037 572.03 777.827 566.13 C 777.492 565.75 777.346 565.24 777.427 564.74 Q 778.027 560.86 775.027 559.53 Q 777.757 554.95 782.737 553 Q 784.257 552.4 783.307 553.73 Q 780.657 557.43 779.457 561.96 Q 778.887 564.09 779.757 565.58 Q 780.957 567.64 783.247 567.68 Q 785.117 567.72 787.697 565.72 Q 790.017 563.93 792.337 562.13 Q 795.167 559.95 800.027 561.07 Q 805.817 562.4 817.027 567.11 Z " fill="rgb(255,130,89)"/><path d=" M 749.487 572.57 Q 755.967 577.74 753.317 585.82 Q 751.097 590.93 745.987 592.9 C 745.693 592.997 745.365 592.944 745.127 592.76 Q 743.877 591.64 744.947 589.77 Q 749.517 581.8 744.617 573.99 Q 743.607 572.38 744.337 570.83 C 744.472 570.564 744.772 570.414 745.077 570.46 Q 747.537 570.92 749.487 572.57 Z " fill="rgb(254,122,30)"/><path d=" M 770.737 581.57 Q 764.227 582 760.697 587.09 Q 759.637 588.63 758.897 589.12 Q 756.307 590.84 756.067 586.82 Q 758.967 576.42 769.417 578.18 Q 770.737 578.4 771.347 578.97 Q 772.557 580.1 770.737 581.57 Z " fill="rgb(254,122,30)"/><path d=" M 816.567 599.57 Q 818.877 599.9 820.487 601.57 Q 822.237 613.43 822.527 618.82 Q 822.877 625.32 816.737 627.33 C 816.355 627.455 815.936 627.394 815.605 627.166 C 815.275 626.938 815.072 626.569 815.057 626.17 Q 814.957 623.25 815.617 619.54 Q 816.257 615.92 815.197 612.39 Q 814.267 609.27 813.737 606.07 L 815.347 600.99 Q 815.487 600.56 815.867 600.21 L 816.567 599.57 Z " fill="rgb(254,122,30)"/><path d=" M 747.567 553.07 Q 746.867 560.44 751.317 566.32 Q 752.087 570.11 749.487 572.57 Q 747.537 570.92 745.077 570.46 C 744.772 570.414 744.472 570.564 744.337 570.83 Q 743.607 572.38 744.617 573.99 Q 749.517 581.8 744.947 589.77 Q 743.877 591.64 745.127 592.76 C 745.365 592.944 745.693 592.997 745.987 592.9 Q 751.097 590.93 753.317 585.82 L 756.067 586.82 Q 756.307 590.84 758.897 589.12 Q 759.637 588.63 760.697 587.09 Q 764.227 582 770.737 581.57 Q 771.577 582.72 771.317 584.07 Q 764.667 587.82 764.527 595.07 Q 764.477 597.86 766.817 600.07 Q 767.227 603.34 770.207 605.52 C 771 606.102 771.503 606.994 771.587 607.97 Q 772.087 613.52 770.877 619.58 C 770.781 619.709 770.765 619.864 770.833 620.002 C 770.901 620.14 771.046 620.246 771.227 620.29 Q 771.697 620.39 772.167 619.95 Q 775.397 616.92 776.947 612.75 Q 777.797 610.45 777.367 608.21 Q 777.307 607.88 776.357 604.37 Q 775.817 602.37 774.867 600.66 C 774.528 600.047 773.844 599.705 773.147 599.8 Q 771.447 600.04 770.987 598.57 Q 772.857 596.22 772.717 593.51 Q 772.557 590.51 773.827 588.31 C 773.984 588.041 774.243 587.831 774.557 587.72 L 784.527 584.11 L 788.777 582.53 Q 790.527 582.79 791.437 584.03 Q 791.877 584.63 792.077 586.11 Q 792.227 587.21 792.527 588.28 Q 788.907 588.93 786.967 591.51 Q 782.507 597.43 787.777 602.61 Q 787.987 603.17 788.027 603.75 Q 788.067 604.25 787.737 604.82 Q 786.397 607.13 785.097 609.47 Q 782.967 613.34 784.277 617.58 Q 784.767 619.16 786.347 619.68 Q 788.077 620.24 786.977 621.81 Q 785.357 624.11 784.087 626.63 Q 781.047 632.64 776.937 637.99 Q 774.007 641.8 769.217 639.88 Q 764.137 637.85 760.837 635.01 Q 759.247 633.64 759.697 630.57 C 759.783 630.276 759.674 629.968 759.407 629.75 Q 758.887 629.19 758.987 628.32 Q 760.297 626.07 759.637 623.91 Q 759.277 622.72 757.507 621 Q 755.557 619.1 755.087 618.26 Q 752.957 614.39 755.837 611.38 Q 758.797 608.29 763.147 608.08 Q 764.667 608 765.357 607.76 Q 768.407 606.7 765.217 604.82 C 764.935 604.654 764.607 604.578 764.277 604.6 Q 756.247 605.13 750.377 610.67 Q 746.367 614.45 742.937 618.76 Q 740.777 621.48 742.337 624.51 Q 744.867 629.39 746.147 634.16 Q 747.017 637.34 746.407 639.52 Q 745.697 642.11 743.587 644.38 Q 739.387 648.91 738.777 650.57 Q 737.657 653.62 739.987 653.08 Q 740.867 652.87 741.687 652 Q 746.677 646.68 749.817 640.07 Q 751.347 640.61 752.907 641.01 Q 754.957 641.54 755.877 642.15 Q 759.207 644.37 759.407 648.83 Q 759.617 653.33 759.407 657.83 Q 759.197 662.38 761.177 666.71 C 761.411 667.216 761.354 667.809 761.027 668.26 Q 759.637 670.2 757.337 671.63 Q 754.337 673.5 752.457 678.15 Q 752.427 678.22 751.887 679.33 Q 751.117 680.93 751.867 682.57 C 751.934 682.788 752.212 682.971 752.597 683.05 Q 753.347 683.24 753.027 684.28 L 750.237 688.32 Q 748.967 690.26 746.967 691.34 C 746.685 691.493 746.348 691.515 746.047 691.4 Q 743.627 690.44 740.967 687.63 Q 736.827 683.28 731.437 681.92 Q 729.597 681.46 728.097 682.62 Q 725.637 684.54 723.327 686.63 Q 722.467 687.41 723.317 688.57 Q 720.597 691.86 719.167 695.87 Q 718.597 697.48 718.077 698.12 Q 716.377 700.21 714.997 697.29 Q 714.017 695.21 714.657 693.01 Q 715.347 690.62 715.727 688.45 Q 716.147 686.02 715.267 684.33 Q 714.207 682.32 712.217 681.13 Q 708.817 679.11 706.477 682.48 Q 704.427 685.44 703.777 690.07 Q 703.697 690.65 703.067 690.89 C 702.763 690.948 702.445 690.855 702.247 690.65 Q 697.357 685.46 699.467 678.76 Q 700.297 676.11 703.337 674.13 Q 705.087 673 709.207 671.1 Q 713.787 669 714.877 667.85 Q 717.937 664.65 714.037 660.03 Q 710.507 655.84 706.777 653.32 Q 704.577 651.83 701.547 652.43 Q 692.967 654.14 686.687 660.54 Q 685.467 661.78 685.247 660.06 Q 684.717 655.99 686.767 652.79 Q 688.217 650.54 692.087 648.22 Q 695.627 646.09 699.447 644.45 Q 701.207 643.69 702.527 642.4 Q 704.007 640.95 704.157 639.23 Q 704.337 637.13 702.547 636 Q 701.577 635.39 699.357 635.21 Q 695.297 634.89 693.277 634.07 Q 689.857 632.68 692.587 630.38 Q 693.717 629.44 698.527 627.24 Q 702.387 625.47 703.017 621.83 Q 703.357 619.82 702.177 615.92 Q 701.307 613.03 700.317 610.18 Q 699.117 606.68 699.687 603.17 Q 700.127 600.5 702.517 601.77 Q 705.257 603.24 708.027 604.06 Q 713.427 605.65 717.587 602.98 Q 720.407 601.17 721.447 598.3 Q 722.547 595.23 721.337 591.8 Q 720.337 588.98 719.287 586.19 Q 716.337 578.38 722.777 573.36 Q 721.037 583.44 730.527 586.58 Q 734.547 587.92 737.027 584.86 Q 739.877 584.27 740.277 582.07 Q 741.147 577.27 738.347 571.75 Q 735.577 566.3 738.377 560.9 Q 741.047 555.75 745.587 552.13 Q 747.267 550.78 747.567 553.07 Z " fill="rgb(255,202,74)"/><path d=" M 824.917 659.22 Q 820.287 654.66 820.097 647.82 Q 820.007 644.89 821.437 642.61 Q 822.567 640.79 825.397 639.46 Q 829.887 637.34 834.837 636.23 C 835.054 636.184 835.281 636.231 835.462 636.358 C 835.643 636.486 835.761 636.682 835.787 636.9 Q 836.117 639.41 833.967 640.82 Q 831.417 642.5 828.827 644.14 Q 827.327 645.09 827.267 646.87 Q 827.097 651.68 829.397 656.26 Q 831.607 660.66 827.937 660.59 Q 826.277 660.56 824.917 659.22 Z " fill="rgb(254,97,73)"/><path d=" M 751.697 596.61 Q 753.587 597.33 753.387 598.56 Q 753.257 599.33 752.087 600.09 Q 746.157 603.94 739.457 606.26 Q 737.887 606.8 738.547 605.28 Q 738.857 604.56 739.217 603.84 Q 739.577 603.13 740.187 602.59 Q 744.287 598.97 749.677 596.65 C 750.32 596.376 751.044 596.361 751.697 596.61 Z " fill="rgb(254,140,69)"/><path d=" M 728.877 641.95 Q 731.697 644.07 732.997 647.37 Q 734.397 650.96 733.067 653.01 Q 731.857 654.87 732.617 656.95 Q 737.017 669 726.337 671.4 Q 725.837 671.52 726.107 671.08 Q 727.707 668.56 729.217 666.01 Q 730.477 663.87 729.657 661.23 Q 729.277 660.04 727.287 657.34 Q 725.127 654.41 723.717 651.07 Q 721.867 646.73 721.257 645.9 Q 719.577 643.6 716.937 641.96 Q 713.757 639.98 717.427 639.24 Q 723.617 637.99 728.877 641.95 Z " fill="rgb(251,111,68)"/><path d=" M 743.697 668.05 Q 744.517 666.38 746.257 665.72 Q 751.587 663.69 756.087 663.97 C 756.393 663.988 756.649 664.2 756.717 664.49 Q 757.217 666.97 754.937 667.92 Q 753.837 668.39 753.757 668.42 Q 749.897 670.34 745.977 672.12 C 745.687 672.24 745.357 672.24 745.067 672.12 Q 742.357 670.81 743.697 668.05 Z " fill="rgb(251,111,68)"/><path d=" M 737.187 592.67 C 737.918 592.83 738.443 593.467 738.457 594.21 Q 738.597 600.08 736.507 605.34 Q 736.457 605.45 735.487 608.52 Q 734.727 610.91 732.717 611.76 Q 724.217 615.32 715.007 616.32 C 714.859 616.338 714.726 616.417 714.64 616.537 C 714.554 616.657 714.524 616.807 714.557 616.95 Q 714.987 619 715.617 621.06 Q 716.417 623.68 716.247 625.19 Q 715.797 629.19 712.357 632.62 C 712.165 632.809 711.905 632.912 711.636 632.906 C 711.367 632.9 711.111 632.786 710.927 632.59 Q 703.957 625.11 704.777 614.82 Q 705.027 611.73 707.447 609.75 Q 709.047 608.44 712.497 607.99 Q 721.387 606.84 725.027 605.32 Q 728.417 603.91 730.137 600.63 Q 731.637 597.75 733.107 594.86 Q 734.507 592.1 737.187 592.67 Z " fill="rgb(254,138,28)"/></g></g></svg>