<?xml version="1.0" encoding="UTF-8" standalone="no"?><!-- Generator: Gravit.io --><svg xmlns="http://www.w3.org/2000/svg" xmlns:xlink="http://www.w3.org/1999/xlink" style="isolation:isolate" viewBox="721.233 580.895 109.721 119.033" width="109.721pt" height="119.033pt"><defs><clipPath id="_clipPath_SZ01j7oWxmHzu7MzGABCmpD3rz9XyRsY"><rect x="721.233" y="580.895" width="109.721" height="119.033"/></clipPath></defs><g clip-path="url(#_clipPath_SZ01j7oWxmHzu7MzGABCmpD3rz9XyRsY)"><rect x="721.233" y="580.895" width="109.721" height="119.033" style="fill:rgb(6,6,6)" fill-opacity="0"/><g><path d=" M 801.773 612.337 L 802.993 615.587 C 802.707 615.69 802.597 615.847 802.705 615.998 C 802.812 616.149 803.12 616.271 803.513 616.317 Q 804.223 616.547 804.743 615.767 Q 806.393 613.267 809.393 613.947 Q 813.163 614.787 812.093 618.527 Q 811.733 619.747 811.393 620.997 Q 810.673 623.647 813.563 623.127 Q 815.203 627.057 818.833 629.307 Q 820.023 630.047 820.523 628.837 Q 821.143 632.187 824.053 633.737 C 824.622 634.038 824.852 634.736 824.573 635.317 Q 823.143 638.267 822.083 641.347 Q 821.233 643.787 822.273 645.787 Q 822.283 645.817 824.313 647.947 Q 826.033 649.757 825.063 652.797 Q 822.373 653.937 823.063 656.547 Q 821.673 655.707 821.093 656.587 Q 820.803 657.057 820.853 658.127 Q 820.933 659.727 821.023 661.337 Q 819.953 661.307 819.863 662.397 Q 819.483 666.937 816.783 670.547 Q 815.703 671.997 813.733 671.307 C 813.462 671.217 813.163 671.31 812.993 671.537 Q 811.823 673.127 812.313 675.047 L 809.813 675.627 L 809.313 675.587 C 808.981 675.595 808.67 675.723 808.463 675.937 Q 806.623 677.827 805.773 680.337 Q 803.873 680.247 804.313 682.087 Q 804.783 684.067 804.273 685.337 Q 803.633 685.027 803.523 684.337 Q 803.623 682.637 802.213 683.007 Q 801.433 683.207 800.733 683.287 Q 799.373 683.447 798.523 684.587 L 797.563 683.627 L 801.593 682.487 C 801.723 682.445 801.831 682.355 801.891 682.237 C 801.951 682.118 801.959 681.981 801.913 681.857 Q 799.923 675.387 799.563 672.837 Q 798.493 665.217 803.493 660.567 Q 807.033 657.277 807.323 656.797 Q 809.193 653.737 808.383 649.817 Q 808.123 648.557 807.373 649.597 Q 804.953 652.987 803.253 656.557 Q 800.573 662.217 795.023 664.877 C 794.731 665.004 794.398 665.022 794.093 664.927 Q 791.803 664.047 790.563 661.797 Q 790.913 660.187 791.233 658.567 Q 791.583 656.757 790.063 655.797 Q 785.043 653.837 784.483 647.437 C 784.41 646.614 783.88 645.903 783.113 645.597 Q 782.243 645.247 782.523 644.087 Q 782.803 643.077 784.753 638.527 Q 786.923 633.447 790.063 631.047 Q 792.143 629.867 794.383 629.937 Q 796.293 629.997 797.023 631.387 Q 797.773 632.807 797.313 634.837 Q 796.373 638.977 797.383 643.377 Q 797.583 644.237 798.053 644.607 Q 799.033 645.397 799.693 643.747 Q 801.043 640.427 801.373 636.847 Q 801.513 635.297 800.733 634.597 Q 799.363 633.357 800.463 631.867 Q 803.143 628.237 803.503 624.027 Q 803.633 622.597 803.243 621.687 Q 802.573 620.157 800.963 620.347 Q 799.933 620.457 798.373 621.797 Q 796.063 623.787 793.313 625.177 Q 792.973 625.357 792.593 625.817 Q 791.883 626.707 791.023 625.837 Q 792.993 622.687 793.853 619.087 Q 795.593 616.677 796.003 615.527 Q 796.963 612.827 799.453 611.607 Q 800.153 611.257 800.703 611.467 Q 801.323 611.697 801.773 612.337 Z " fill="rgb(202,79,36)"/><path d=" M 790.063 631.047 Q 787.893 628.017 791.023 625.837 Q 791.883 626.707 792.593 625.817 Q 792.973 625.357 793.313 625.177 Q 796.063 623.787 798.373 621.797 Q 799.933 620.457 800.963 620.347 Q 802.573 620.157 803.243 621.687 Q 803.633 622.597 803.503 624.027 Q 803.143 628.237 800.463 631.867 Q 799.363 633.357 800.733 634.597 Q 801.513 635.297 801.373 636.847 Q 801.043 640.427 799.693 643.747 Q 799.033 645.397 798.053 644.607 Q 797.583 644.237 797.383 643.377 Q 796.373 638.977 797.313 634.837 Q 797.773 632.807 797.023 631.387 Q 796.293 629.997 794.383 629.937 Q 792.143 629.867 790.063 631.047 Z " fill="rgb(242,136,45)"/><path d=" M 802.273 607.837 L 801.773 612.337 Q 801.323 611.697 800.703 611.467 Q 800.153 611.257 799.453 611.607 Q 796.963 612.827 796.003 615.527 Q 795.593 616.677 793.853 619.087 Q 793.503 618.497 792.563 618.587 Q 787.543 619.067 785.573 623.247 Q 784.663 625.177 783.353 626.837 Q 781.993 622.107 776.563 622.087 Q 771.453 622.067 768.563 625.377 Q 767.473 622.857 769.373 621.647 Q 771.793 620.117 772.033 617.597 C 772.037 617.29 772.22 617.009 772.513 616.857 Q 776.663 614.727 777.503 613.277 Q 778.853 610.927 781.313 610.457 Q 782.003 610.317 783.763 610.677 Q 785.013 610.937 786.313 610.797 L 789.983 609.727 Q 792.093 609.107 793.363 609.857 Q 795.933 611.387 798.283 609.637 Q 799.433 608.787 800.173 608.527 Q 801.213 608.167 802.273 607.837 Z " fill="rgb(234,110,28)"/><path d=" M 760.023 621.337 L 761.063 622.627 Q 761.703 623.927 761.563 624.587 Q 759.793 632.707 755.983 640.077 C 755.834 640.368 755.591 640.601 755.293 640.737 Q 752.353 642.047 749.123 642.317 Q 748.773 642.347 748.523 642.217 Q 748.243 642.077 748.023 641.837 Q 752.103 634.687 752.063 626.377 Q 754.923 622.097 760.023 621.337 Z " fill="rgb(234,110,28)"/><path d=" M 783.353 626.837 Q 781.873 633.667 778.463 639.747 Q 778.163 640.287 777.563 640.377 Q 774.903 640.247 771.063 639.087 Q 765.443 637.387 766.063 631.587 Q 766.313 629.267 768.563 625.377 Q 771.453 622.067 776.563 622.087 Q 781.993 622.107 783.353 626.837 Z " fill="rgb(193,84,21)"/><path d=" M 755.773 673.837 L 755.853 674.587 Q 755.423 678.657 751.313 678.377 L 749.813 678.047 Q 747.343 676.247 749.353 671.387 C 749.677 670.605 750.322 670.001 751.123 669.727 Q 755.413 668.247 755.773 673.837 Z " fill="rgb(227,99,27)"/><path d=" M 782.523 644.087 Q 782.243 645.247 783.113 645.597 C 783.88 645.903 784.41 646.614 784.483 647.437 Q 785.043 653.837 790.063 655.797 Q 787.843 655.777 787.123 656.897 Q 784.143 661.567 778.853 663.577 Q 776.583 664.447 776.073 662.127 L 775.023 657.337 Q 776.133 654.687 778.623 651.397 Q 780.003 649.587 781.313 646.377 L 782.523 644.087 Z " fill="rgb(214,95,40)"/><path d=" M 797.563 683.627 Q 796.453 682.987 795.333 683.207 Q 794.363 683.397 793.263 683.817 Q 791.733 684.397 791.723 686.267 C 791.887 686.565 791.739 686.896 791.363 687.077 Q 790.333 687.707 789.463 686.147 C 789.402 686.065 789.301 686.018 789.195 686.02 C 789.089 686.022 788.991 686.073 788.933 686.157 L 787.103 689.087 L 786.953 688.607 C 787.039 688.328 786.807 688.047 786.343 687.867 Q 784.553 686.497 784.403 684.427 Q 784.373 683.947 785.263 680.877 Q 786.193 677.687 784.233 674.657 Q 783.343 673.287 782.813 672.287 C 782.55 671.842 782.614 671.287 782.973 670.907 L 790.563 661.797 Q 791.803 664.047 794.093 664.927 C 794.398 665.022 794.731 665.004 795.023 664.877 Q 800.573 662.217 803.253 656.557 Q 804.953 652.987 807.373 649.597 Q 808.123 648.557 808.383 649.817 Q 809.193 653.737 807.323 656.797 Q 807.033 657.277 803.493 660.567 Q 798.493 665.217 799.563 672.837 Q 799.923 675.387 801.913 681.857 C 801.959 681.981 801.951 682.118 801.891 682.237 C 801.831 682.355 801.723 682.445 801.593 682.487 L 797.563 683.627 Z " fill="rgb(214,95,40)"/><path d=" M 774.813 680.877 Q 772.323 680.247 771.023 678.087 Q 773.243 673.047 778.703 674.967 C 779.119 675.113 779.446 675.44 779.594 675.855 C 779.741 676.271 779.693 676.731 779.463 677.107 Q 777.713 679.917 774.813 680.877 Z " fill="rgb(214,95,40)"/><path d=" M 749.813 678.047 L 751.313 678.377 Q 751.913 679.247 753.123 679.277 Q 755.193 679.317 754.003 682.277 Q 752.893 685.027 750.063 686.047 Q 746.743 687.897 743.153 686.787 Q 741.263 686.197 742.113 684.417 Q 743.353 681.847 745.603 680.087 Q 746.843 680.807 747.623 679.647 Q 747.873 679.287 749.813 678.047 Z " fill="rgb(254,204,19)"/><path d=" M 786.313 610.797 Q 785.013 610.937 783.763 610.677 Q 782.003 610.317 781.313 610.457 Q 778.853 610.927 777.503 613.277 Q 776.663 614.727 772.513 616.857 C 772.22 617.009 772.037 617.29 772.033 617.597 Q 771.793 620.117 769.373 621.647 Q 767.473 622.857 768.563 625.377 Q 766.313 629.267 766.063 631.587 Q 765.443 637.387 771.063 639.087 Q 774.903 640.247 777.563 640.377 Q 776.803 641.197 777.103 642.337 Q 774.913 646.957 772.773 651.607 Q 772.733 651.697 771.033 654.837 Q 769.223 658.167 769.313 662.107 Q 769.343 663.637 770.373 662.497 L 775.023 657.337 L 776.073 662.127 Q 776.583 664.447 778.853 663.577 Q 784.143 661.567 787.123 656.897 Q 787.843 655.777 790.063 655.797 Q 791.583 656.757 791.233 658.567 Q 790.913 660.187 790.563 661.797 L 782.973 670.907 C 782.614 671.287 782.55 671.842 782.813 672.287 Q 783.343 673.287 784.233 674.657 Q 786.193 677.687 785.263 680.877 Q 784.373 683.947 784.403 684.427 Q 784.553 686.497 786.343 687.867 C 786.807 688.047 787.039 688.328 786.953 688.607 L 787.103 689.087 Q 787.103 689.617 786.603 689.837 Q 785.423 689.377 784.453 690.027 C 784.161 690.194 784.073 690.527 784.253 690.787 Q 784.863 692.407 783.363 692.237 C 783.053 692.231 782.753 692.328 782.523 692.507 Q 781.813 693.077 781.273 692.337 Q 781.983 689.797 780.103 689.367 Q 778.353 688.957 778.213 688.907 Q 774.153 687.397 769.813 687.797 Q 770.163 687.407 770.493 686.987 Q 770.803 686.607 771.283 686.357 Q 774.573 684.637 774.813 680.877 Q 777.713 679.917 779.463 677.107 C 779.693 676.731 779.741 676.271 779.594 675.855 C 779.446 675.44 779.119 675.113 778.703 674.967 Q 773.243 673.047 771.023 678.087 Q 768.213 678.857 765.643 680.197 Q 762.523 681.827 762.443 681.887 Q 760.813 683.117 761.023 685.587 L 750.063 686.047 Q 752.893 685.027 754.003 682.277 Q 755.193 679.317 753.123 679.277 Q 751.913 679.247 751.313 678.377 Q 755.423 678.657 755.853 674.587 Q 756.923 677.277 759.373 676.147 Q 762.743 674.597 764.453 670.337 Q 765.083 668.747 765.193 668.347 Q 765.623 666.647 764.063 666.227 Q 762.993 665.937 761.613 666.517 Q 756.823 668.527 755.773 673.837 Q 755.413 668.247 751.123 669.727 C 750.322 670.001 749.677 670.605 749.353 671.387 Q 747.343 676.247 749.813 678.047 Q 747.873 679.287 747.623 679.647 Q 746.843 680.807 745.603 680.087 Q 744.793 679.357 743.843 679.837 Q 742.683 680.417 741.523 679.837 L 742.873 679.487 C 743.163 679.407 743.393 679.188 743.483 678.907 Q 743.813 677.887 744.873 678.347 C 745.134 678.445 745.463 678.508 745.813 678.527 Q 747.683 678.137 746.593 675.567 C 746.371 675.031 746 674.57 745.523 674.237 Q 743.783 673.007 744.743 671.207 C 744.935 670.947 744.919 670.61 744.703 670.367 Q 742.043 666.927 737.603 666.587 L 738.063 652.297 Q 739.613 649.517 742.563 648.047 Q 743.543 647.477 743.763 646.497 Q 744.153 644.757 744.163 644.727 Q 745.303 642.427 748.023 641.837 Q 748.243 642.077 748.523 642.217 Q 748.773 642.347 749.123 642.317 Q 752.353 642.047 755.293 640.737 C 755.591 640.601 755.834 640.368 755.983 640.077 Q 759.793 632.707 761.563 624.587 Q 761.703 623.927 761.063 622.627 L 761.803 622.577 C 762.148 622.532 762.462 622.423 762.703 622.267 Q 765.533 619.817 765.813 617.087 Q 766.373 611.627 766.903 610.377 Q 769.003 605.417 776.523 606.327 C 777.496 606.444 778.482 606.244 779.333 605.757 Q 779.823 605.477 782.473 606.837 C 782.879 607.047 783.367 607.024 783.753 606.777 Q 784.803 606.097 785.533 605.087 Q 785.813 604.707 786.103 604.617 Q 786.803 604.427 786.573 605.587 Q 786.113 607.867 785.693 610.157 C 785.635 610.335 785.773 610.517 786.003 610.567 Q 786.183 610.637 786.313 610.797 Z " fill="rgb(245,134,30)"/><path d=" M 737.603 666.587 Q 742.043 666.927 744.703 670.367 C 744.919 670.61 744.935 670.947 744.743 671.207 Q 743.783 673.007 745.523 674.237 C 746 674.57 746.371 675.031 746.593 675.567 Q 747.683 678.137 745.813 678.527 C 745.463 678.508 745.134 678.445 744.873 678.347 Q 743.813 677.887 743.483 678.907 C 743.393 679.188 743.163 679.407 742.873 679.487 L 741.523 679.837 Q 740.633 679.917 739.813 679.547 Q 739.353 677.257 741.263 674.917 Q 741.643 674.457 741.023 674.397 L 733.493 673.657 Q 732.123 673.527 733.193 672.547 Q 736.213 669.787 737.603 666.587 Z " fill="rgb(253,186,26)"/><path d=" M 771.023 678.087 Q 772.323 680.247 774.813 680.877 Q 774.573 684.637 771.283 686.357 Q 770.803 686.607 770.493 686.987 Q 770.163 687.407 769.813 687.797 Q 766.203 689.917 763.813 693.357 Q 762.843 694.747 761.263 695.267 Q 759.283 695.927 759.883 693.927 Q 760.923 690.487 761.553 687.587 Q 761.813 686.397 761.023 685.587 Q 760.813 683.117 762.443 681.887 Q 762.523 681.827 765.643 680.197 Q 768.213 678.857 771.023 678.087 Z " fill="rgb(253,186,26)"/><path d=" M 760.023 621.337 Q 754.923 622.097 752.063 626.377 Q 750.463 625.567 749.333 626.857 Q 747.953 628.447 746.983 626.837 C 747.035 626.616 746.769 626.399 746.283 626.267 Q 745.813 626.017 745.773 625.337 Q 747.933 615.957 755.093 610.447 C 755.4 610.266 755.781 610.232 756.12 610.357 C 756.459 610.481 756.716 610.748 756.813 611.077 L 760.023 621.337 Z " fill="rgb(249,151,25)"/><path d=" M 793.853 619.087 Q 792.993 622.687 791.023 625.837 Q 787.893 628.017 790.063 631.047 Q 786.923 633.447 784.753 638.527 Q 782.803 643.077 782.523 644.087 L 781.313 646.377 Q 780.333 643.707 778.073 642.117 C 777.877 641.99 777.616 641.982 777.413 642.097 L 777.103 642.337 Q 776.803 641.197 777.563 640.377 Q 778.163 640.287 778.463 639.747 Q 781.873 633.667 783.353 626.837 Q 784.663 625.177 785.573 623.247 Q 787.543 619.067 792.563 618.587 Q 793.503 618.497 793.853 619.087 Z " fill="rgb(249,151,25)"/><path d=" M 745.773 625.337 Q 745.813 626.017 746.283 626.267 C 746.769 626.399 747.035 626.616 746.983 626.837 Q 747.953 628.447 749.333 626.857 Q 750.463 625.567 752.063 626.377 Q 752.103 634.687 748.023 641.837 Q 745.303 642.427 744.163 644.727 Q 744.153 644.757 743.763 646.497 Q 743.543 647.477 742.563 648.047 Q 743.343 646.907 742.503 645.647 Q 741.153 643.647 741.443 640.827 Q 742.173 633.687 745.343 627.277 Q 745.513 626.937 745.513 626.347 Q 745.513 625.817 745.773 625.337 Z " fill="rgb(249,151,25)"/><path d=" M 803.523 684.337 Q 802.493 684.087 802.233 685.017 Q 801.843 686.367 800.593 686.787 C 800.277 686.869 800.063 687.103 800.063 687.367 L 800.023 687.837 L 798.523 684.587 Q 799.373 683.447 800.733 683.287 Q 801.433 683.207 802.213 683.007 Q 803.623 682.637 803.523 684.337 Z " fill="rgb(225,145,51)"/><path d=" M 781.313 646.377 Q 780.003 649.587 778.623 651.397 Q 776.133 654.687 775.023 657.337 L 770.373 662.497 Q 769.343 663.637 769.313 662.107 Q 769.223 658.167 771.033 654.837 Q 772.733 651.697 772.773 651.607 Q 774.913 646.957 777.103 642.337 L 777.413 642.097 C 777.616 641.982 777.877 641.99 778.073 642.117 Q 780.333 643.707 781.313 646.377 Z " fill="rgb(252,167,52)"/><path d=" M 807.813 597.547 Q 810.183 600.117 810.253 601.647 Q 810.373 604.437 808.793 601.867 Q 805.523 596.537 800.483 598.067 Q 797.683 598.917 795.523 601.757 Q 793.633 604.237 792.463 607.357 Q 792.043 608.467 792.893 607.637 Q 795.423 605.147 798.663 604.427 Q 799.783 604.177 799.273 605.207 Q 797.953 607.897 798.923 607.647 Q 799.503 607.507 799.963 606.747 Q 800.453 605.927 800.723 605.017 Q 800.943 604.247 801.203 603.867 Q 802.483 601.967 802.763 604.397 Q 802.823 604.967 802.613 605.737 Q 802.333 606.767 802.273 607.837 Q 801.213 608.167 800.173 608.527 Q 799.433 608.787 798.283 609.637 Q 795.933 611.387 793.363 609.857 Q 792.093 609.107 789.983 609.727 L 786.313 610.797 Q 786.183 610.637 786.003 610.567 C 785.773 610.517 785.635 610.335 785.693 610.157 Q 786.113 607.867 786.573 605.587 Q 786.803 604.427 786.103 604.617 Q 785.813 604.707 785.533 605.087 Q 784.803 606.097 783.753 606.777 C 783.367 607.024 782.879 607.047 782.473 606.837 Q 779.823 605.477 779.333 605.757 C 778.482 606.244 777.496 606.444 776.523 606.327 Q 769.003 605.417 766.903 610.377 Q 766.373 611.627 765.813 617.087 Q 765.533 619.817 762.703 622.267 C 762.462 622.423 762.148 622.532 761.803 622.577 L 761.063 622.627 L 760.023 621.337 L 756.813 611.077 C 756.716 610.748 756.459 610.481 756.12 610.357 C 755.781 610.232 755.4 610.266 755.093 610.447 Q 747.933 615.957 745.773 625.337 Q 745.513 625.817 745.513 626.347 Q 745.513 626.937 745.343 627.277 Q 742.173 633.687 741.443 640.827 Q 741.153 643.647 742.503 645.647 Q 743.343 646.907 742.563 648.047 Q 739.613 649.517 738.063 652.297 Q 736.193 654.927 734.193 657.457 Q 732.003 660.227 729.053 658.737 C 728.747 658.586 728.519 658.316 728.424 657.991 C 728.329 657.666 728.376 657.316 728.553 657.027 Q 731.203 652.527 732.343 647.467 Q 732.583 646.377 731.543 646.777 Q 729.493 647.567 727.013 648.107 Q 723.823 648.797 722.343 645.897 C 722.191 645.601 722.191 645.249 722.344 644.953 C 722.497 644.658 722.783 644.454 723.113 644.407 Q 726.323 643.907 728.623 641.647 Q 730.173 640.127 727.373 638.277 Q 725.503 637.027 728.043 637.257 Q 731.883 637.607 733.453 633.967 C 733.559 633.723 733.538 633.443 733.395 633.218 C 733.253 632.993 733.008 632.854 732.743 632.847 Q 726.633 632.667 724.723 627.557 C 724.469 627.283 724.529 626.912 724.863 626.697 Q 725.323 626.287 726.003 626.647 Q 728.983 628.237 731.483 626.457 Q 734.013 624.657 736.293 622.717 C 736.768 622.319 736.97 621.69 736.813 621.097 L 734.353 611.017 Q 733.773 608.607 735.493 610.387 Q 737.993 612.977 739.983 615.987 C 740.138 616.242 740.416 616.428 740.743 616.497 Q 742.343 616.707 743.833 615.477 C 744.223 615.159 744.293 614.59 743.993 614.187 Q 741.343 610.627 739.243 606.957 Q 735.053 599.607 739.743 593.677 Q 741.333 591.667 743.243 591.007 Q 745.293 590.307 747.843 590.657 C 748.845 590.793 749.645 591.561 749.823 592.557 Q 750.063 593.847 748.873 594.207 Q 748.553 594.307 747.233 594.257 Q 744.513 594.157 743.123 596.397 Q 741.473 599.077 742.553 602.517 Q 744.513 608.777 751.323 608.837 Q 753.913 608.857 753.553 606.297 Q 753.233 603.987 753.313 601.627 Q 753.353 600.207 753.913 599.307 Q 755.323 597.027 757.033 600.097 Q 758.233 602.247 759.753 604.457 Q 761.413 606.877 762.973 604.387 Q 765.243 600.777 768.883 599.177 Q 772.353 597.657 770.413 592.877 Q 769.883 591.567 769.873 590.167 Q 769.873 589.097 770.963 589.437 Q 771.453 589.587 771.883 590.067 Q 775.113 593.747 775.793 598.607 Q 775.923 599.497 776.153 599.867 Q 776.853 600.997 777.863 599.197 Q 778.973 597.217 780.023 595.207 C 780.144 594.927 780.385 594.69 780.703 594.537 Q 782.243 593.847 782.963 595.137 Q 783.343 595.837 783.183 597.097 Q 782.753 600.317 782.343 603.387 Q 781.983 606.077 783.613 603.907 Q 785.223 601.777 786.913 599.717 Q 787.473 599.027 788.073 598.927 Q 789.013 598.767 789.553 599.597 C 789.753 599.907 790.101 600.089 790.47 600.076 C 790.838 600.064 791.174 599.859 791.353 599.537 Q 793.013 596.597 795.743 595.567 Q 798.123 594.667 801.313 594.857 Q 804.893 595.077 807.813 597.547 Z " fill="rgb(253,197,19)"/><path d=" M 825.063 652.797 Q 825.763 655.907 829.563 656.087 Q 831.363 656.177 830.833 657.177 C 830.709 657.434 830.436 657.641 830.083 657.747 Q 826.283 658.937 823.063 656.547 Q 822.373 653.937 825.063 652.797 Z " fill="rgb(254,224,44)"/><path d=" M 755.853 674.587 L 755.773 673.837 Q 756.823 668.527 761.613 666.517 Q 762.993 665.937 764.063 666.227 Q 765.623 666.647 765.193 668.347 Q 765.083 668.747 764.453 670.337 Q 762.743 674.597 759.373 676.147 Q 756.923 677.277 755.853 674.587 Z " fill="rgb(251,184,59)"/><path d=" M 820.523 628.837 Q 820.023 630.047 818.833 629.307 Q 815.203 627.057 813.563 623.127 Q 818.663 619.067 823.893 623.007 C 823.987 623.075 824.041 623.186 824.037 623.302 C 824.033 623.418 823.971 623.525 823.873 623.587 Q 820.723 625.577 820.523 628.837 Z " fill="rgb(254,209,52)"/><path d=" M 821.023 661.337 Q 822.893 663.527 822.123 666.897 Q 821.093 671.437 820.163 673.257 Q 817.613 678.267 812.313 675.047 Q 811.823 673.127 812.993 671.537 C 813.163 671.31 813.462 671.217 813.733 671.307 Q 815.703 671.997 816.783 670.547 Q 819.483 666.937 819.863 662.397 Q 819.953 661.307 821.023 661.337 Z " fill="rgb(254,209,52)"/><path d=" M 809.813 675.627 Q 811.183 679.047 814.423 680.607 C 814.556 680.669 814.652 680.788 814.681 680.93 C 814.711 681.071 814.67 681.218 814.573 681.327 Q 809.663 687.087 805.773 680.337 Q 806.623 677.827 808.463 675.937 C 808.67 675.723 808.981 675.595 809.313 675.587 L 809.813 675.627 Z " fill="rgb(254,209,52)"/><path d=" M 803.523 684.337 Q 803.633 685.027 804.273 685.337 Q 804.963 687.877 805.063 689.587 Q 805.193 691.847 803.123 692.417 C 802.805 692.485 802.472 692.403 802.233 692.197 Q 800.323 690.507 800.023 687.837 L 800.063 687.367 C 800.063 687.103 800.277 686.869 800.593 686.787 Q 801.843 686.367 802.233 685.017 Q 802.493 684.087 803.523 684.337 Z " fill="rgb(254,209,52)"/><path d=" M 786.603 689.837 Q 785.083 694.177 783.343 698.437 Q 782.913 699.497 782.273 699.787 Q 781.403 700.187 780.643 699.457 C 780.398 699.233 780.281 698.903 780.333 698.577 L 781.273 692.337 Q 781.813 693.077 782.523 692.507 C 782.753 692.328 783.053 692.231 783.363 692.237 Q 784.863 692.407 784.253 690.787 C 784.073 690.527 784.161 690.194 784.453 690.027 Q 785.423 689.377 786.603 689.837 Z " fill="rgb(254,209,52)"/><path d=" M 742.513 662.777 C 742.354 662.716 742.234 662.582 742.191 662.418 C 742.147 662.254 742.185 662.078 742.293 661.947 Q 743.413 660.597 745.163 659.617 Q 750.253 656.757 754.863 653.147 Q 757.183 651.337 760.163 650.027 C 760.438 649.908 760.757 649.941 761.002 650.113 C 761.247 650.285 761.384 650.57 761.363 650.867 Q 760.813 658.367 755.623 662.647 Q 754.123 663.887 752.803 663.707 Q 752.203 663.617 751.823 663.707 Q 747.563 664.677 742.513 662.777 Z " fill="rgb(253,186,26)"/><path d=" M 779.87 581.889 C 781.023 580.609 783.057 580.559 784.41 581.778 C 785.764 582.997 785.927 585.025 784.775 586.305 C 783.623 587.585 781.589 587.634 780.235 586.415 C 778.882 585.197 778.718 583.168 779.87 581.889 Z " fill="rgb(254,224,44)"/><path d=" M 762.413 592.497 Q 764.283 590.127 763.863 593.077 L 762.753 601.037 Q 762.493 602.877 761.473 601.287 Q 758.803 597.087 762.413 592.497 Z " fill="rgb(255,199,54)"/><circle vector-effect="non-scaling-stroke" cx="724.0327012738336" cy="678.9866923755399" r="2.7999999999999545" fill="rgb(254,209,52)"/></g></g></svg>