<?xml version="1.0" encoding="UTF-8" standalone="no"?><!-- Generator: Gravit.io --><svg xmlns="http://www.w3.org/2000/svg" xmlns:xlink="http://www.w3.org/1999/xlink" style="isolation:isolate" viewBox="703.195 554.196 145.795 172.431" width="145.795pt" height="172.431pt"><defs><clipPath id="_clipPath_cBr7dSXYpIna7T9pM1QtFkPy2WwE815Q"><rect x="703.195" y="554.196" width="145.795" height="172.431"/></clipPath></defs><g clip-path="url(#_clipPath_cBr7dSXYpIna7T9pM1QtFkPy2WwE815Q)"><rect x="703.195" y="554.196" width="145.795" height="172.431" style="fill:rgb(6,6,6)" fill-opacity="0"/><g><path d=" M 801.505 564.757 Q 803.125 578.467 803.455 592.267 C 803.412 592.581 803.554 592.891 803.835 593.097 L 810.805 598.487 C 811.055 598.667 811.391 598.69 811.665 598.547 L 824.025 591.817 Q 825.395 591.077 824.655 592.447 L 819.585 601.817 C 819.437 602.067 819.438 602.371 819.587 602.62 C 819.736 602.869 820.012 603.027 820.315 603.037 Q 828.575 603.717 837.215 603.517 Q 840.385 603.447 843.465 604.217 L 816.755 610.687 C 816.429 610.765 816.181 610.997 816.115 611.287 L 814.735 617.097 Q 814.315 618.877 813.285 617.457 Q 806.275 607.757 795.415 601.537 C 795.045 601.325 794.864 600.889 794.975 600.477 Q 795.455 598.727 794.325 598.247 Q 794.215 598.197 792.455 597.907 Q 780.795 595.997 770.715 597.007 Q 754.055 598.677 742.375 611.417 Q 732.035 622.687 730.625 639.037 C 730.569 639.748 730.054 640.339 729.355 640.497 Q 721.385 642.287 714.525 646.067 Q 713.075 646.867 711.215 649.467 L 703.855 647.707 Q 702.695 647.427 703.575 646.507 Q 705.345 644.657 708.205 643.717 Q 717.055 640.787 725.235 636.867 Q 726.955 636.047 726.965 634.147 Q 726.985 630.817 725.465 628.037 Q 724.165 625.657 727.435 626.027 C 728.313 626.127 729.128 625.561 729.335 624.707 Q 730.225 620.947 733.585 618.437 Q 735.595 616.927 733.675 615.297 Q 728.915 611.267 726.655 605.817 Q 725.535 603.127 722.565 600.897 Q 718.295 597.697 715.435 594.437 Q 713.705 592.477 716.205 593.257 Q 727.175 596.677 738.065 600.347 Q 741.065 601.357 743.895 601.717 C 744.522 601.791 745.119 601.432 745.345 600.847 Q 746.875 596.837 748.115 592.857 Q 748.145 592.787 748.535 591.007 Q 748.765 589.937 749.375 589.257 C 749.548 589.101 749.781 589.017 750.021 589.023 C 750.262 589.028 750.49 589.124 750.655 589.287 L 754.965 593.897 Q 756.985 596.067 756.715 593.017 Q 755.715 581.607 753.535 570.367 C 753.318 570.292 753.199 570.156 753.232 570.02 C 753.264 569.884 753.441 569.774 753.685 569.737 Q 753.905 569.627 754.175 570.027 Q 760.355 579.397 767.405 588.127 C 767.59 588.353 767.895 588.475 768.205 588.447 L 778.985 586.307 C 779.27 586.229 779.511 586.069 779.665 585.857 L 779.925 585.507 Q 780.945 586.577 782.535 586.647 Q 795.925 587.217 799.215 574.507 Q 799.655 572.797 800.635 566.757 C 800.443 566.465 800.62 566.145 801.095 565.927 Q 801.505 565.447 801.505 564.757 Z " fill="rgb(236,141,40)"/><path d=" M 827.925 625.257 Q 828.035 626.257 828.925 626.787 Q 831.435 628.287 833.555 629.517 C 834.334 629.973 834.711 630.855 834.485 631.697 L 833.605 635.947 C 833.536 636.235 833.705 636.525 833.995 636.617 L 845.825 640.027 Q 847.605 640.547 845.935 641.327 L 833.345 647.217 C 833.045 647.361 832.808 647.594 832.675 647.877 Q 830.645 651.977 831.715 656.467 Q 830.605 657.667 830.215 658.757 Q 828.525 663.447 826.965 669.967 Q 823.675 669.747 823.315 672.947 C 823.216 673.263 823.311 673.595 823.575 673.857 Q 825.395 676.537 824.915 679.747 Q 824.625 681.727 824.615 681.787 Q 824.165 686.867 823.975 691.807 Q 823.905 693.557 822.725 692.267 Q 821.095 690.497 819.025 689.387 Q 817.385 688.507 816.475 687.427 Q 814.845 685.487 814.275 684.947 Q 812.645 683.387 811.855 684.917 Q 811.535 685.537 811.535 686.787 Q 811.525 689.357 811.285 691.217 Q 810.955 693.677 808.475 693.757 Q 804.785 693.877 804.695 697.507 Q 804.555 702.757 804.255 708.007 Q 804.995 705.107 803.005 703.507 Q 801.245 697.607 796.115 697.657 Q 793.205 697.687 790.935 699.717 Q 788.715 701.707 787.715 704.667 Q 787.595 705.027 787.585 706.367 Q 787.565 707.417 786.675 708.007 Q 784.315 705.367 782.155 702.567 Q 780.745 700.747 777.215 699.757 Q 773.225 698.637 764.715 697.807 C 764.402 697.801 764.104 697.932 763.915 698.157 L 755.255 708.757 L 755.105 707.737 C 754.611 707.451 754.631 707.066 755.155 706.807 Q 757.315 701.477 758.015 695.767 Q 758.425 692.417 755.715 691.757 Q 754.745 691.527 751.005 691.507 L 750.365 689.767 C 750.253 689.501 749.971 689.317 749.645 689.297 L 745.715 689.217 Q 745.915 689.017 745.925 688.787 Q 745.935 688.617 745.765 688.397 Q 739.375 680.657 729.215 680.077 Q 723.355 679.747 717.755 681.507 Q 723.895 673.577 728.965 664.937 C 729.175 664.69 729.127 664.339 728.855 664.147 L 723.955 660.217 C 723.693 660.052 723.607 659.74 723.755 659.487 Q 724.865 657.297 726.105 655.167 Q 726.985 653.667 725.965 652.297 Q 728.165 651.137 729.825 651.087 C 730.827 651.069 731.691 651.784 731.855 652.767 Q 732.455 656.407 733.785 659.517 Q 740.915 676.257 757.025 683.697 Q 767.465 688.507 778.575 687.707 Q 788.655 686.987 797.525 681.877 Q 804.775 677.697 810.075 671.157 Q 815.175 664.877 817.815 656.937 Q 822.725 642.217 817.975 626.547 C 817.902 626.319 817.941 626.07 818.08 625.874 C 818.219 625.678 818.443 625.557 818.685 625.547 L 827.925 625.257 Z " fill="rgb(236,141,40)"/><path d=" M 801.505 564.757 Q 801.505 565.447 801.095 565.927 C 800.62 566.145 800.443 566.465 800.635 566.757 Q 799.655 572.797 799.215 574.507 Q 795.925 587.217 782.535 586.647 Q 780.945 586.577 779.925 585.507 Q 787.705 569.897 798.705 555.207 Q 800.375 552.977 800.635 555.667 L 801.505 564.757 Z " fill="rgb(254,206,58)"/><path d=" M 843.465 604.217 L 848.095 605.197 Q 849.555 605.507 848.415 606.687 Q 841.655 613.627 834.025 619.567 Q 831.535 621.507 827.925 625.257 L 818.685 625.547 C 818.443 625.557 818.219 625.678 818.08 625.874 C 817.941 626.07 817.902 626.319 817.975 626.547 Q 822.725 642.217 817.815 656.937 Q 815.175 664.877 810.075 671.157 Q 804.775 677.697 797.525 681.877 Q 788.655 686.987 778.575 687.707 Q 767.465 688.507 757.025 683.697 Q 740.915 676.257 733.785 659.517 Q 732.455 656.407 731.855 652.767 C 731.691 651.784 730.827 651.069 729.825 651.087 Q 728.165 651.137 725.965 652.297 L 711.215 649.467 Q 713.075 646.867 714.525 646.067 Q 721.385 642.287 729.355 640.497 C 730.054 640.339 730.569 639.748 730.625 639.037 Q 732.035 622.687 742.375 611.417 Q 754.055 598.677 770.715 597.007 Q 780.795 595.997 792.455 597.907 Q 794.215 598.197 794.325 598.247 Q 795.455 598.727 794.975 600.477 C 794.864 600.889 795.045 601.325 795.415 601.537 Q 806.275 607.757 813.285 617.457 Q 814.315 618.877 814.735 617.097 L 816.115 611.287 C 816.181 610.997 816.429 610.765 816.755 610.687 L 843.465 604.217 Z " fill="rgb(254,206,58)"/><path d=" M 831.715 656.467 Q 833.465 657.377 837.155 660.817 Q 843.445 666.707 848.695 673.637 Q 849.475 674.647 848.195 674.757 Q 836.775 675.727 826.965 669.967 Q 828.525 663.447 830.215 658.757 Q 830.605 657.667 831.715 656.467 Z " fill="rgb(254,206,58)"/><path d=" M 745.715 689.217 Q 731.465 691.187 728.465 691.507 Q 719.735 692.427 711.015 691.497 Q 710.485 691.447 710.795 691.017 L 717.755 681.507 Q 723.355 679.747 729.215 680.077 Q 739.375 680.657 745.765 688.397 Q 745.935 688.617 745.925 688.787 Q 745.915 689.017 745.715 689.217 Z " fill="rgb(254,206,58)"/><path d=" M 803.005 703.507 Q 802.875 711.337 801.255 718.837 Q 800.975 720.107 801.195 721.387 Q 801.645 724.027 799.215 724.047 Q 792.355 716.487 786.675 708.007 Q 787.565 707.417 787.585 706.367 Q 787.595 705.027 787.715 704.667 Q 788.715 701.707 790.935 699.717 Q 793.205 697.687 796.115 697.657 Q 801.245 697.607 803.005 703.507 Z " fill="rgb(254,206,58)"/><path d=" M 751.005 691.507 Q 754.745 691.527 755.715 691.757 Q 758.425 692.417 758.015 695.767 Q 757.315 701.477 755.155 706.807 C 754.631 707.066 754.611 707.451 755.105 707.737 L 755.255 708.757 L 752.175 712.137 Q 751.805 712.547 751.785 711.957 L 751.005 691.507 Z " fill="rgb(252,196,62)"/><path d=" M 803.005 703.507 Q 804.995 705.107 804.255 708.007 Q 803.785 716.387 803.215 724.757 Q 803.115 726.177 802.185 726.607 C 801.886 726.67 801.568 726.583 801.375 726.387 L 799.215 724.047 Q 801.645 724.027 801.195 721.387 Q 800.975 720.107 801.255 718.837 Q 802.875 711.337 803.005 703.507 Z " fill="rgb(249,188,65)"/></g></g></svg>