<?xml version="1.0" encoding="UTF-8" standalone="no"?><!-- Generator: Gravit.io --><svg xmlns="http://www.w3.org/2000/svg" xmlns:xlink="http://www.w3.org/1999/xlink" style="isolation:isolate" viewBox="703.022 574.674 146.141 131.476" width="146.141pt" height="131.476pt"><defs><clipPath id="_clipPath_5q56ATbSbCt8b0JnZyx0gg3SuzIJ5Dky"><rect x="703.022" y="574.674" width="146.141" height="131.476"/></clipPath></defs><g clip-path="url(#_clipPath_5q56ATbSbCt8b0JnZyx0gg3SuzIJ5Dky)"><rect x="703.022" y="574.674" width="146.141" height="131.476" style="fill:rgb(6,6,6)" fill-opacity="0"/><g><path d=" M 778.666 575.897 Q 779.526 573.397 779.976 576.007 Q 781.206 583.177 788.276 583.237 Q 795.816 583.307 801.046 576.447 Q 802.236 574.897 802.256 576.847 Q 802.306 580.727 803.296 583.687 Q 804.446 587.087 806.806 588.657 Q 809.626 590.527 813.456 589.337 Q 816.336 588.447 819.046 587.057 Q 820.066 586.537 819.456 587.507 Q 818.246 589.457 817.136 591.457 Q 815.556 594.297 816.656 597.297 C 816.762 597.591 817.009 597.815 817.316 597.897 Q 821.166 598.937 824.736 597.077 Q 825.206 596.827 825.486 596.877 Q 826.096 596.997 825.466 598.027 Q 823.126 601.847 824.526 605.567 Q 825.846 609.097 830.026 609.197 Q 834.216 609.297 838.116 607.817 Q 838.706 607.587 839.086 607.657 Q 840.066 607.847 839.026 609.057 Q 833.486 615.497 836.586 623.007 Q 837.576 625.377 840.646 626.337 Q 844.126 627.417 848.226 627.307 Q 849.146 627.277 848.406 627.827 Q 844.616 630.637 841.636 634.177 Q 839.636 636.547 839.476 638.537 Q 839.316 640.417 840.286 642.087 Q 841.006 643.337 842.776 644.547 Q 845.606 646.477 848.796 647.737 Q 849.536 648.027 848.786 648.317 Q 846.096 649.327 843.626 650.737 Q 834.756 655.797 838.876 664.627 Q 839.466 665.897 840.556 667.197 Q 841.636 668.477 842.626 669.517 Q 844.726 671.727 841.736 671.107 Q 837.396 670.217 833.236 670.857 Q 830.526 671.287 829.196 672.617 Q 827.516 674.307 827.426 677.067 Q 827.276 681.397 828.656 684.647 Q 829.256 686.057 827.836 685.467 Q 821.886 682.957 816.366 684.267 Q 812.126 685.267 809.796 688.547 Q 807.376 691.947 807.376 696.567 Q 807.366 698.447 807.276 700.327 Q 807.206 701.637 806.286 700.707 Q 804.226 698.627 801.786 697.027 Q 799.036 695.237 796.466 694.837 Q 792.706 694.257 789.836 696.127 Q 784.506 699.597 783.156 705.267 Q 782.746 706.987 782.046 705.357 Q 779.196 698.777 773.076 696.987 Q 768.536 695.657 764.186 697.827 Q 759.936 699.947 757.206 704.267 Q 756.576 705.257 756.526 704.087 Q 756.186 696.687 751.836 690.757 Q 749.666 687.787 745.546 688.237 Q 739.676 688.887 735.346 693.247 Q 734.246 694.357 734.416 692.797 Q 735.956 678.887 723.916 678.997 Q 722.746 679.007 720.686 679.487 Q 719.106 679.867 717.446 680.077 Q 716.446 680.207 717.016 679.377 Q 719.036 676.397 720.136 672.887 Q 721.376 668.947 720.726 666.037 Q 719.766 661.777 715.356 660.677 Q 713.436 660.207 709.746 660.907 Q 706.936 661.427 704.086 661.707 Q 703.586 661.757 703.906 661.367 Q 705.326 659.657 706.936 658.117 Q 709.056 656.097 709.866 654.827 Q 716.196 644.927 703.926 639.557 Q 702.056 638.737 704.056 638.307 Q 707.276 637.627 709.916 635.857 Q 712.816 633.907 714.036 631.257 Q 715.516 628.027 714.266 624.457 Q 713.736 622.927 712.216 621.057 Q 710.476 618.927 709.526 618.067 Q 708.896 617.507 709.306 617.237 C 709.608 617.176 709.946 617.187 710.236 617.267 Q 714.116 618.917 717.636 617.677 Q 720.976 616.507 722.486 612.967 Q 724.906 607.287 720.686 601.637 Q 718.796 599.107 721.696 600.367 Q 725.916 602.217 730.526 601.817 Q 735.086 601.417 736.296 596.017 Q 737.386 591.167 735.276 586.317 Q 735.016 585.717 735.316 585.477 C 735.623 585.425 735.958 585.475 736.186 585.607 Q 738.696 587.377 740.086 588.007 Q 750.556 592.707 754.686 583.317 Q 755.226 582.087 755.516 580.217 Q 755.756 578.637 756.026 577.047 Q 756.206 575.987 756.736 576.927 Q 758.266 579.607 760.626 581.437 Q 762.876 583.177 765.906 583.857 Q 775.236 585.927 778.666 575.897 Z " fill="rgb(245,219,49)"/><path d=" M 792.526 595.107 Q 793.006 597.647 792.196 600.097 C 792.031 600.385 792.077 600.718 792.316 600.977 Q 792.736 601.747 792.236 602.567 Q 786.156 601.697 781.796 606.307 Q 780.616 607.557 778.896 607.447 Q 775.846 607.257 772.526 605.277 Q 772.816 604.907 772.936 604.487 Q 773.046 604.157 772.896 603.647 Q 772.086 600.737 772.936 597.857 C 773.026 597.543 773.214 597.263 773.476 597.057 Q 778.846 592.797 785.776 594.817 Q 789.126 595.787 792.526 595.107 Z " fill="rgb(234,101,23)"/><path d=" M 785.526 608.777 Q 784.996 610.037 783.976 610.937 C 783.877 611.013 783.818 611.128 783.816 611.25 C 783.814 611.372 783.869 611.488 783.966 611.567 Q 786.396 613.657 786.516 616.827 Q 786.526 617.077 786.296 617.767 Q 786.136 618.237 786.376 618.637 C 786.563 618.853 786.563 619.152 786.376 619.367 Q 785.556 620.427 786.566 621.567 L 784.186 625.497 Q 782.986 627.467 780.856 625.767 Q 779.316 624.537 777.566 623.747 Q 775.916 622.997 773.856 622.987 Q 767.806 622.957 761.876 625.587 C 761.424 625.721 760.93 625.677 760.513 625.464 C 760.096 625.252 759.793 624.891 759.676 624.467 L 757.236 616.817 Q 758.056 615.837 760.966 614.757 Q 767.826 612.197 775.526 613.067 Q 776.696 613.197 778.056 612.737 Q 778.486 612.597 779.016 612.677 Q 780.446 612.877 781.026 611.607 Q 783.626 610.767 785.526 608.777 Z " fill="rgb(234,101,23)"/><path d=" M 786.736 629.317 Q 788.666 630.327 788.486 632.567 Q 788.256 635.487 786.776 638.027 Q 781.296 637.857 777.486 641.817 Q 777.046 642.157 776.546 642.267 Q 776.136 642.347 775.546 642.137 Q 769.986 640.087 764.026 640.277 Q 762.936 640.247 763.276 639.567 Q 762.036 637.087 762.336 635.127 Q 762.596 633.477 762.216 632.287 C 762.112 631.987 762.119 631.662 762.236 631.367 L 762.736 630.067 Q 767.456 627.397 772.796 627.097 Q 774.556 627.007 776.076 627.797 Q 777.276 628.427 779.086 629.507 Q 782.616 631.597 786.736 629.317 Z " fill="rgb(240,111,23)"/><path d=" M 739.776 629.777 Q 747.946 631.567 752.726 638.417 Q 754.786 641.377 758.456 640.697 Q 761.206 640.177 764.026 640.277 Q 769.986 640.087 775.546 642.137 Q 776.136 642.347 776.546 642.267 Q 777.046 642.157 777.486 641.817 Q 777.216 642.917 777.916 643.727 C 778.121 643.947 778.193 644.253 778.106 644.537 Q 777.896 645.267 778.026 646.027 L 776.276 647.357 Q 774.806 647.667 773.216 646.627 Q 768.036 643.277 761.476 644.557 Q 752.816 646.257 747.806 639.707 Q 746.586 638.107 746.566 638.087 Q 740.316 630.827 730.716 635.007 Q 727.946 636.207 725.666 634.967 Q 723.696 633.907 723.166 631.267 Q 722.316 626.987 724.886 623.167 Q 725.786 621.837 726.496 622.657 C 726.773 622.895 726.817 623.248 726.606 623.527 Q 725.236 627.517 726.596 630.897 Q 727.306 632.667 729.096 631.977 Q 734.366 629.927 739.776 629.777 Z " fill="rgb(254,252,64)"/><path d=" M 765.816 656.317 L 762.776 659.107 L 753.056 658.337 Q 751.076 658.177 749.606 657.017 Q 743.926 652.557 737.466 649.377 Q 734.086 647.717 730.286 649.347 Q 720.576 653.527 718.226 643.997 Q 717.966 642.917 718.086 642.127 Q 718.386 640.247 720.066 641.347 Q 720.256 641.467 720.656 642.097 L 723.226 646.127 Q 724.446 648.037 727.016 646.817 Q 734.826 643.137 741.996 647.897 Q 745.836 650.457 749.756 652.907 Q 752.126 654.387 754.676 654.737 Q 757.856 655.157 760.026 655.067 Q 763.436 654.917 765.816 656.317 Z " fill="rgb(254,252,64)"/><path d=" M 750.026 615.777 Q 752.516 616.667 753.716 618.727 Q 754.086 619.367 754.756 623.047 Q 755.526 627.307 758.836 629.757 Q 760.296 630.837 762.736 630.067 L 762.236 631.367 C 762.119 631.662 762.112 631.987 762.216 632.287 Q 762.596 633.477 762.336 635.127 Q 762.036 637.087 763.276 639.567 Q 762.936 640.247 764.026 640.277 Q 761.206 640.177 758.456 640.697 Q 754.786 641.377 752.726 638.417 Q 747.946 631.567 739.776 629.777 Q 741.126 627.087 741.216 625.757 Q 741.666 618.947 747.996 616.897 C 748.356 616.762 748.592 616.536 748.636 616.287 Q 749.016 615.587 750.026 615.777 Z " fill="rgb(253,128,30)"/><path d=" M 778.026 646.027 Q 777.896 645.267 778.106 644.537 C 778.193 644.253 778.121 643.947 777.916 643.727 Q 777.216 642.917 777.486 641.817 Q 781.296 637.857 786.776 638.027 L 791.596 640.097 Q 793.386 640.857 793.986 638.947 Q 794.696 636.707 795.646 634.737 Q 796.786 632.387 798.446 631.327 Q 801.176 629.597 804.766 630.157 Q 807.546 630.587 810.286 630.997 Q 812.486 631.327 813.826 629.877 L 822.026 621.027 C 822.194 620.818 822.491 620.668 822.836 620.617 Q 824.226 620.697 823.946 622.027 Q 823.826 622.617 823.256 623.357 Q 819.536 628.187 815.246 632.537 Q 812.706 635.117 809.776 634.317 Q 807.186 633.617 804.526 633.317 Q 801.146 632.947 799.526 635.817 Q 798.556 637.557 797.846 639.407 Q 796.846 642.017 795.956 642.727 Q 794.816 643.627 793.226 643.647 Q 792.356 643.657 790.526 643.027 Q 787.946 642.147 785.266 641.657 C 784.943 641.604 784.611 641.65 784.316 641.787 Q 780.886 643.447 778.026 646.027 Z " fill="rgb(253,234,79)"/><path d=" M 763.486 660.317 Q 763.266 659.637 762.776 659.107 L 765.816 656.317 Q 766.686 656.427 766.816 657.317 Q 766.806 661.337 768.276 663.067 Q 771.906 667.327 775.336 662.877 Q 778.256 659.097 781.876 656.867 Q 786.776 653.837 791.716 656.377 Q 793.966 657.537 795.636 656.647 Q 796.366 656.257 797.806 653.947 Q 799.846 650.677 803.266 649.157 Q 805.166 648.307 808.426 648.297 Q 812.736 648.267 813.716 648.377 Q 816.016 648.637 817.766 648.157 Q 819.356 647.727 820.896 645.897 Q 823.026 643.377 824.706 640.507 Q 825.916 638.457 825.526 640.807 Q 824.576 646.537 820.346 649.687 Q 818.086 651.377 814.656 651.447 Q 811.586 651.517 808.526 651.067 Q 806.636 650.787 805.036 651.497 Q 803.806 652.037 802.586 653.757 Q 801.666 655.057 800.806 656.407 Q 799.646 658.217 798.836 658.887 Q 795.526 661.647 790.216 659.877 Q 785.076 658.177 781.246 661.837 Q 781.236 661.847 778.896 664.837 Q 774.826 670.057 767.836 667.507 Q 763.046 665.757 763.486 660.317 Z " fill="rgb(253,234,79)"/><path d=" M 750.276 670.527 Q 754.796 675.367 761.526 673.567 Q 765.556 672.487 768.986 674.747 Q 769.016 674.767 770.456 676.007 Q 773.346 678.497 779.276 676.867 Q 782.046 676.097 779.946 678.057 Q 776.646 681.137 771.496 679.227 Q 771.426 679.197 768.346 677.507 Q 766.856 676.687 765.186 676.437 Q 764.086 676.267 761.926 676.727 Q 753.506 678.497 747.486 672.067 Q 748.476 670.647 750.276 670.527 Z " fill="rgb(253,234,79)"/><path d=" M 772.526 605.277 Q 775.846 607.257 778.896 607.447 Q 780.616 607.557 781.796 606.307 Q 786.156 601.697 792.236 602.567 Q 796.866 603.777 799.276 604.067 Q 802.096 604.407 803.796 601.857 Q 805.656 599.077 808.196 596.947 C 808.417 596.767 808.734 596.645 809.086 596.607 Q 810.126 596.717 809.526 598.317 Q 809.006 599.687 806.616 604.117 Q 804.836 607.387 800.966 607.227 Q 798.026 607.097 791.526 606.067 Q 787.806 605.477 785.526 608.777 Q 783.626 610.767 781.026 611.607 Q 774.706 611.277 769.186 608.177 Q 766.326 606.577 763.026 606.647 Q 758.326 606.737 757.276 602.817 Q 756.516 599.987 755.376 598.667 C 755.165 598.467 754.858 598.341 754.526 598.317 Q 750.526 598.267 747.236 596.067 L 748.026 595.527 Q 749.216 595.387 755.276 595.067 Q 759.056 594.867 759.356 598.327 Q 759.676 602.077 763.276 602.577 Q 768.106 603.257 772.526 605.277 Z " fill="rgb(254,249,74)"/><path d=" M 734.776 606.857 Q 735.266 611.247 739.286 611.177 Q 741.666 611.137 741.776 611.147 Q 743.276 611.237 744.776 611.267 Q 752.226 611.447 757.236 616.817 L 759.676 624.467 C 759.793 624.891 760.096 625.252 760.513 625.464 C 760.93 625.677 761.424 625.721 761.876 625.587 Q 767.806 622.957 773.856 622.987 Q 775.916 622.997 777.566 623.747 Q 779.316 624.537 780.856 625.767 Q 782.986 627.467 784.186 625.497 L 786.566 621.567 Q 789.626 615.527 796.276 616.567 Q 801.966 617.457 803.466 617.627 Q 806.796 618.007 808.316 615.867 Q 810.036 613.437 811.906 611.127 Q 813.006 609.767 813.976 609.437 Q 815.316 608.987 816.836 609.507 Q 820.006 610.597 816.776 611.317 Q 813.976 611.947 812.736 614.387 Q 812.166 615.517 812.126 615.587 Q 810.186 618.937 809.466 619.757 Q 807.286 622.207 804.776 621.817 Q 796.396 620.497 793.776 620.817 Q 791.106 621.147 789.836 624.377 Q 789.176 626.057 786.736 629.317 Q 782.616 631.597 779.086 629.507 Q 777.276 628.427 776.076 627.797 Q 774.556 627.007 772.796 627.097 Q 767.456 627.397 762.736 630.067 Q 760.296 630.837 758.836 629.757 Q 755.526 627.307 754.756 623.047 Q 754.086 619.367 753.716 618.727 Q 752.516 616.667 750.026 615.777 Q 744.416 613.887 738.536 614.887 Q 736.356 615.257 734.616 614.367 Q 733.176 613.627 732.336 611.517 Q 731.536 609.487 731.026 607.357 Q 732.806 606.607 734.776 606.857 Z " fill="rgb(254,249,74)"/><path d=" M 775.026 586.857 Q 774.836 587.767 776.886 587.877 Q 777.976 587.937 778.986 588.337 Q 784.336 590.467 789.266 591.147 Q 791.296 591.427 793.086 590.657 Q 793.936 590.287 794.546 590.267 Q 797.806 590.167 795.356 592.047 Q 794.676 592.567 794.226 593.137 Q 793.406 594.157 792.526 595.107 Q 789.126 595.787 785.776 594.817 Q 778.846 592.797 773.476 597.057 C 773.214 597.263 773.026 597.543 772.936 597.857 Q 772.086 600.737 772.896 603.647 Q 773.046 604.157 772.936 604.487 Q 772.816 604.907 772.526 605.277 Q 768.106 603.257 763.276 602.577 Q 759.676 602.077 759.356 598.327 Q 759.056 594.867 755.276 595.067 Q 749.216 595.387 748.026 595.527 Q 747.556 594.857 748.586 594.377 Q 754.306 591.707 757.996 587.287 C 758.382 586.825 759.026 586.675 759.576 586.917 Q 767.746 590.517 775.026 586.857 Z " fill="rgb(252,140,31)"/><path d=" M 747.236 596.067 Q 750.526 598.267 754.526 598.317 C 754.858 598.341 755.165 598.467 755.376 598.667 Q 756.516 599.987 757.276 602.817 Q 758.326 606.737 763.026 606.647 Q 766.326 606.577 769.186 608.177 Q 774.706 611.277 781.026 611.607 Q 780.446 612.877 779.016 612.677 Q 778.486 612.597 778.056 612.737 Q 776.696 613.197 775.526 613.067 Q 767.826 612.197 760.966 614.757 Q 758.056 615.837 757.236 616.817 Q 752.226 611.447 744.776 611.267 Q 743.276 611.237 741.776 611.147 Q 741.666 611.137 739.286 611.177 Q 735.266 611.247 734.776 606.857 Q 735.726 604.497 737.246 602.477 Q 739.416 599.607 739.796 598.777 Q 740.676 596.827 741.156 594.407 C 741.258 593.899 741.749 593.562 742.266 593.647 Q 744.846 594.097 747.236 596.067 Z " fill="rgb(252,140,31)"/><path d=" M 731.026 607.357 Q 731.536 609.487 732.336 611.517 Q 733.176 613.627 734.616 614.367 Q 736.356 615.257 738.536 614.887 Q 744.416 613.887 750.026 615.777 Q 749.016 615.587 748.636 616.287 C 748.592 616.536 748.356 616.762 747.996 616.897 Q 741.666 618.947 741.216 625.757 Q 741.126 627.087 739.776 629.777 Q 734.366 629.927 729.096 631.977 Q 727.306 632.667 726.596 630.897 Q 725.236 627.517 726.606 623.527 C 726.817 623.248 726.773 622.895 726.496 622.657 Q 725.786 621.837 724.886 623.167 Q 722.316 626.987 723.166 631.267 Q 723.696 633.907 725.666 634.967 Q 727.946 636.207 730.716 635.007 Q 740.316 630.827 746.566 638.087 Q 746.586 638.107 747.806 639.707 Q 752.816 646.257 761.476 644.557 Q 768.036 643.277 773.216 646.627 Q 774.806 647.667 776.276 647.357 Q 776.636 649.017 774.776 650.567 Q 770.766 653.907 766.816 657.317 Q 766.686 656.427 765.816 656.317 Q 763.436 654.917 760.026 655.067 Q 757.856 655.157 754.676 654.737 Q 752.126 654.387 749.756 652.907 Q 745.836 650.457 741.996 647.897 Q 734.826 643.137 727.016 646.817 Q 724.446 648.037 723.226 646.127 L 720.656 642.097 Q 720.256 641.467 720.066 641.347 Q 718.386 640.247 718.086 642.127 Q 717.966 642.917 718.226 643.997 Q 720.576 653.527 730.286 649.347 Q 734.086 647.717 737.466 649.377 Q 743.926 652.557 749.606 657.017 Q 751.076 658.177 753.056 658.337 L 762.776 659.107 Q 763.266 659.637 763.486 660.317 Q 762.186 660.557 761.996 661.747 Q 761.896 662.377 761.696 662.687 Q 758.806 667.147 753.026 667.567 Q 750.866 667.727 749.026 669.277 Q 747.286 668.467 743.276 668.317 Q 730.526 667.847 726.346 667.987 C 726.215 667.99 726.089 667.941 725.996 667.852 C 725.904 667.763 725.853 667.642 725.856 667.517 Q 726.186 656.977 715.936 656.767 C 715.779 656.763 715.635 656.681 715.554 656.549 C 715.473 656.417 715.466 656.254 715.536 656.117 Q 720.556 645.827 712.706 638.707 C 712.618 638.631 712.574 638.518 712.588 638.404 C 712.602 638.291 712.672 638.191 712.776 638.137 Q 714.946 636.887 716.646 635.117 Q 718.296 633.407 718.626 630.847 Q 719.086 627.187 718.586 623.457 C 718.503 622.858 718.808 622.272 719.346 621.997 Q 721.736 620.777 723.916 619.037 Q 726.246 617.187 727.076 614.777 Q 728.256 611.357 727.666 607.617 C 727.572 607.307 727.661 606.977 727.906 606.737 Q 729.386 605.117 731.026 607.357 Z " fill="rgb(252,140,31)"/><path d=" M 747.486 672.067 Q 753.506 678.497 761.926 676.727 Q 764.086 676.267 765.186 676.437 Q 766.856 676.687 768.346 677.507 Q 771.426 679.197 771.496 679.227 Q 776.646 681.137 779.946 678.057 Q 782.046 676.097 779.276 676.867 Q 773.346 678.497 770.456 676.007 Q 769.016 674.767 768.986 674.747 Q 765.556 672.487 761.526 673.567 Q 754.796 675.367 750.276 670.527 L 749.026 669.277 Q 750.866 667.727 753.026 667.567 Q 758.806 667.147 761.696 662.687 Q 761.896 662.377 761.996 661.747 Q 762.186 660.557 763.486 660.317 Q 763.046 665.757 767.836 667.507 Q 774.826 670.057 778.896 664.837 Q 781.236 661.847 781.246 661.837 Q 785.076 658.177 790.216 659.877 Q 795.526 661.647 798.836 658.887 Q 799.646 658.217 800.806 656.407 Q 801.666 655.057 802.586 653.757 Q 803.806 652.037 805.036 651.497 Q 806.636 650.787 808.526 651.067 Q 811.586 651.517 814.656 651.447 Q 818.086 651.377 820.346 649.687 Q 824.576 646.537 825.526 640.807 Q 825.916 638.457 824.706 640.507 Q 823.026 643.377 820.896 645.897 Q 819.356 647.727 817.766 648.157 Q 816.016 648.637 813.716 648.377 Q 812.736 648.267 808.426 648.297 Q 805.166 648.307 803.266 649.157 Q 799.846 650.677 797.806 653.947 Q 796.366 656.257 795.636 656.647 Q 793.966 657.537 791.716 656.377 Q 786.776 653.837 781.876 656.867 Q 778.256 659.097 775.336 662.877 Q 771.906 667.327 768.276 663.067 Q 766.806 661.337 766.816 657.317 Q 770.766 653.907 774.776 650.567 Q 776.636 649.017 776.276 647.357 L 778.026 646.027 Q 780.886 643.447 784.316 641.787 C 784.611 641.65 784.943 641.604 785.266 641.657 Q 787.946 642.147 790.526 643.027 Q 792.356 643.657 793.226 643.647 Q 794.816 643.627 795.956 642.727 Q 796.846 642.017 797.846 639.407 Q 798.556 637.557 799.526 635.817 Q 801.146 632.947 804.526 633.317 Q 807.186 633.617 809.776 634.317 Q 812.706 635.117 815.246 632.537 Q 819.536 628.187 823.256 623.357 Q 823.826 622.617 823.946 622.027 Q 824.226 620.697 822.836 620.617 C 822.491 620.668 822.194 620.818 822.026 621.027 L 813.826 629.877 Q 812.486 631.327 810.286 630.997 Q 807.546 630.587 804.766 630.157 Q 801.176 629.597 798.446 631.327 Q 796.786 632.387 795.646 634.737 Q 794.696 636.707 793.986 638.947 Q 793.386 640.857 791.596 640.097 L 786.776 638.027 Q 788.256 635.487 788.486 632.567 Q 788.666 630.327 786.736 629.317 Q 789.176 626.057 789.836 624.377 Q 791.106 621.147 793.776 620.817 Q 796.396 620.497 804.776 621.817 Q 807.286 622.207 809.466 619.757 Q 810.186 618.937 812.126 615.587 Q 812.166 615.517 812.736 614.387 Q 813.976 611.947 816.776 611.317 Q 820.006 610.597 816.836 609.507 Q 815.316 608.987 813.976 609.437 Q 813.006 609.767 811.906 611.127 Q 810.036 613.437 808.316 615.867 Q 806.796 618.007 803.466 617.627 Q 801.966 617.457 796.276 616.567 Q 789.626 615.527 786.566 621.567 Q 785.556 620.427 786.376 619.367 C 786.563 619.152 786.563 618.853 786.376 618.637 Q 786.136 618.237 786.296 617.767 Q 786.526 617.077 786.516 616.827 Q 786.396 613.657 783.966 611.567 C 783.869 611.488 783.814 611.372 783.816 611.25 C 783.818 611.128 783.877 611.013 783.976 610.937 Q 784.996 610.037 785.526 608.777 Q 787.806 605.477 791.526 606.067 Q 798.026 607.097 800.966 607.227 Q 804.836 607.387 806.616 604.117 Q 809.006 599.687 809.526 598.317 Q 810.126 596.717 809.086 596.607 C 808.734 596.645 808.417 596.767 808.196 596.947 Q 805.656 599.077 803.796 601.857 Q 802.096 604.407 799.276 604.067 Q 796.866 603.777 792.236 602.567 Q 792.736 601.747 792.316 600.977 C 792.077 600.718 792.031 600.385 792.196 600.097 Q 793.006 597.647 792.526 595.107 Q 793.406 594.157 794.226 593.137 Q 794.676 592.567 795.356 592.047 Q 797.806 590.167 794.546 590.267 Q 793.936 590.287 793.086 590.657 Q 791.296 591.427 789.266 591.147 Q 784.336 590.467 778.986 588.337 Q 777.976 587.937 776.886 587.877 Q 774.836 587.767 775.026 586.857 L 777.996 584.727 C 778.325 584.529 778.774 584.455 779.196 584.527 Q 789.036 589.757 798.316 584.197 C 798.475 584.101 798.668 584.079 798.845 584.137 C 799.021 584.194 799.164 584.326 799.236 584.497 Q 800.776 588.247 803.496 590.847 Q 806.406 593.627 810.536 593.067 C 811.007 593.005 811.485 593.132 811.835 593.412 C 812.185 593.692 812.369 594.095 812.336 594.507 L 812.026 597.567 Q 811.746 600.317 813.586 600.507 L 818.906 601.057 C 819.707 601.167 820.344 601.76 820.486 602.527 L 822.026 609.837 C 822.194 610.722 822.901 611.46 823.876 611.767 Q 827.286 612.907 830.846 612.637 C 830.901 612.634 830.954 612.659 830.988 612.703 C 831.022 612.747 831.032 612.804 831.016 612.857 Q 827.716 624.327 835.686 629.977 Q 836.036 630.227 836.596 630.297 Q 838.436 630.537 836.986 631.777 Q 831.976 636.067 833.486 642.287 Q 833.936 644.137 834.866 645.267 Q 836.016 646.657 837.706 647.147 Q 839.756 647.737 837.796 648.557 Q 831.036 651.397 831.776 658.797 Q 831.956 660.637 831.966 662.507 C 831.967 662.797 831.765 663.052 831.476 663.127 Q 819.786 666.147 822.356 678.257 Q 822.456 678.747 821.996 678.567 Q 818.456 677.167 816.526 677.567 Q 810.106 678.907 805.906 683.937 Q 804.026 686.197 803.526 689.557 C 803.493 689.761 803.372 689.94 803.194 690.046 C 803.017 690.152 802.801 690.174 802.606 690.107 Q 789.736 685.577 782.026 696.157 C 781.936 696.283 781.793 696.36 781.638 696.366 C 781.484 696.371 781.335 696.305 781.236 696.187 Q 770.716 683.337 759.016 694.707 C 758.945 694.771 758.845 694.796 758.75 694.774 C 758.656 694.752 758.579 694.685 758.546 694.597 Q 756.706 689.217 752.866 686.137 Q 750.106 683.927 746.696 683.777 Q 743.226 683.617 739.936 685.197 Q 738.286 685.997 738.446 684.307 Q 738.506 683.747 738.356 683.347 Q 735.376 675.667 727.056 674.877 Q 726.786 674.847 725.496 674.927 Q 723.756 675.037 724.426 673.317 C 724.667 672.701 725.163 672.22 725.786 671.997 Q 732.396 669.627 739.266 672.287 C 740.188 672.64 741.221 672.548 742.066 672.037 Q 744.596 670.507 747.486 672.067 Z " fill="rgb(200,99,29)"/><path d=" M 735.084 658.484 C 735.298 657.993 736.983 658.255 738.844 659.068 C 740.706 659.881 742.043 660.94 741.828 661.43 C 741.614 661.921 739.929 661.659 738.068 660.846 C 736.206 660.033 734.869 658.974 735.084 658.484 Z " fill="rgb(255,156,37)"/></g></g></svg>