<?xml version="1.0" encoding="UTF-8" standalone="no"?><!-- Generator: Gravit.io --><svg xmlns="http://www.w3.org/2000/svg" xmlns:xlink="http://www.w3.org/1999/xlink" style="isolation:isolate" viewBox="148.72 212.705 177.976 175.639" width="177.976pt" height="175.639pt"><defs><clipPath id="_clipPath_RFzx0BVGU7GEu52wTP3skfv1IQqMNLiW"><rect x="148.72" y="212.705" width="177.976" height="175.639"/></clipPath></defs><g clip-path="url(#_clipPath_RFzx0BVGU7GEu52wTP3skfv1IQqMNLiW)"><g><path d=" M 326.581 294.517 Q 328.601 339.557 295.041 368.477 Q 273.881 385.047 248.791 387.767 Q 219.791 390.907 194.371 376.937 Q 185.551 372.087 178.031 365.497 Q 165.931 354.897 158.851 341.707 Q 143.911 313.857 151.001 281.267 Q 159.421 247.717 187.601 228.327 Q 202.522 218.067 220.162 214.477 Q 229.621 212.557 240.041 212.717 Q 277.491 213.307 303.351 240.207 Q 324.521 262.217 326.581 294.517 Z " fill="rgb(254,168,33)"/><path d=" M 290.291 258.977 L 290.541 259.057 L 292.252 266.017 Q 280.071 263.237 267.291 265.517 Q 256.732 267.397 244.502 268.017 Q 234.311 266.817 226.101 270.577 Q 219.211 273.737 215.482 274.957 Q 212.191 276.027 208.041 275.727 Q 196.952 271.007 185.482 275.707 Q 179.081 278.317 174.751 280.767 Q 166.841 283.507 160.791 289.227 L 158.411 290.807 Q 157.671 291.297 157.751 290.447 Q 158.301 284.437 159.971 278.987 Q 160.611 276.917 162.201 275.887 Q 163.631 274.957 165.731 273.957 Q 185.611 264.447 207.541 262.247 Q 220.251 260.967 238.041 256.517 Q 249.941 253.547 263.092 256.027 Q 266.612 256.687 270.062 256.647 Q 280.312 256.537 290.291 258.977 Z " fill="rgb(172,78,13)"/><path d=" M 292.791 304.057 L 293.331 304.517 Q 292.562 309.627 291.142 314.587 Q 290.821 315.697 291.291 316.727 L 290.331 317.017 Q 290.032 316.637 288.601 316.457 Q 279.831 315.327 270.541 317.017 Q 262.081 318.557 256.851 319.967 Q 241.801 324.037 228.541 323.017 Q 218.431 322.237 211.791 323.307 Q 208.251 322.317 204.592 322.227 Q 200.202 322.127 200.001 322.117 Q 182.202 321.337 167.791 331.977 L 163.971 333.707 C 163.832 333.766 163.673 333.771 163.53 333.72 C 163.387 333.669 163.273 333.567 163.211 333.437 L 158.931 321.957 C 158.879 321.812 158.892 321.652 158.967 321.518 C 159.041 321.383 159.171 321.288 159.321 321.257 Q 173.141 318.377 185.881 312.257 Q 196.232 307.287 206.541 306.017 Q 214.732 305.007 217.241 304.347 Q 231.162 300.657 247.291 303.017 Q 252.892 303.837 261.071 302.697 Q 268.761 301.627 276.541 301.577 Q 283.901 301.537 290.851 303.957 Q 291.471 304.167 292.791 304.057 Z " fill="rgb(172,78,13)"/><path d=" M 304.541 249.477 L 310.752 258.017 Q 306.931 257.447 303.362 255.947 Q 296.002 252.847 288.081 252.017 L 285.541 246.557 Q 287.081 245.477 289.851 246.207 Q 296.291 247.887 302.711 249.647 Q 303.601 249.887 304.541 249.477 Z " fill="rgb(166,32,56)"/><path d=" M 319.831 279.017 Q 320.161 279.277 320.081 279.767 Q 318.131 280.087 316.612 282.227 C 316.196 282.81 315.478 283.099 314.771 282.967 Q 306.411 281.367 298.732 277.077 Q 297.071 276.157 294.581 276.767 L 294.002 275.017 L 293.331 269.267 Q 294.862 268.817 297.351 269.457 Q 304.911 271.387 314.601 275.457 Q 317.651 276.737 318.842 279.297 C 318.878 279.393 318.97 279.472 319.09 279.51 C 319.211 279.549 319.347 279.544 319.461 279.497 L 319.831 279.017 Z " fill="rgb(166,32,56)"/><path d=" M 322.002 288.767 Q 323.452 296.067 323.002 303.517 L 314.211 297.317 C 313.664 297.042 312.994 296.878 312.291 296.847 L 294.541 297.477 Q 295.161 289.747 294.752 282.017 L 294.831 281.017 Q 295.221 280.677 295.541 280.767 Q 300.982 282.337 307.071 285.207 Q 312.232 287.647 319.041 289.267 Q 320.791 289.687 322.002 288.767 Z " fill="rgb(166,32,56)"/><path d=" M 288.081 252.017 Q 296.002 252.847 303.362 255.947 Q 306.931 257.447 310.752 258.017 Q 313.241 261.777 314.752 266.017 Q 313.241 266.177 311.601 265.457 Q 301.771 261.127 290.541 259.057 L 290.291 258.977 Q 289.842 255.537 287.752 252.767 Q 287.791 252.337 288.081 252.017 Z " fill="rgb(196,66,58)"/><path d=" M 323.002 303.517 Q 323.392 307.397 322.002 311.017 Q 315.681 305.337 307.041 304.997 Q 300.191 304.727 293.331 304.517 L 292.791 304.057 Q 294.351 301.007 294.291 297.557 L 294.541 297.477 L 312.291 296.847 C 312.994 296.878 313.664 297.042 314.211 297.317 L 323.002 303.517 Z " fill="rgb(196,66,58)"/><path d=" M 290.541 259.057 Q 301.771 261.127 311.601 265.457 Q 313.241 266.177 314.752 266.017 Q 318.021 272.227 319.831 279.017 L 319.461 279.497 C 319.347 279.544 319.211 279.549 319.09 279.51 C 318.97 279.472 318.878 279.393 318.842 279.297 Q 317.651 276.737 314.601 275.457 Q 304.911 271.387 297.351 269.457 Q 294.862 268.817 293.331 269.267 L 292.252 266.017 L 290.541 259.057 Z " fill="rgb(104,41,52)"/><path d=" M 293.331 304.517 Q 300.191 304.727 307.041 304.997 Q 315.681 305.337 322.002 311.017 L 320.252 320.267 Q 317.551 319.297 312.541 318.767 Q 301.931 317.647 291.291 316.727 Q 290.821 315.697 291.142 314.587 Q 292.562 309.627 293.331 304.517 Z " fill="rgb(104,41,52)"/><path d=" M 320.081 279.767 Q 321.562 284.157 322.002 288.767 Q 320.791 289.687 319.041 289.267 Q 312.232 287.647 307.071 285.207 Q 300.982 282.337 295.541 280.767 Q 295.221 280.677 294.831 281.017 L 294.581 276.767 Q 297.071 276.157 298.732 277.077 Q 306.411 281.367 314.771 282.967 C 315.478 283.099 316.196 282.81 316.612 282.227 Q 318.131 280.087 320.081 279.767 Z " fill="rgb(199,71,62)"/><path d=" M 291.291 316.727 Q 301.931 317.647 312.541 318.767 Q 317.551 319.297 320.252 320.267 L 319.331 323.267 Q 308.151 323.137 296.982 323.447 Q 294.752 323.507 292.161 323.987 Q 289.752 324.437 287.331 324.767 L 290.331 317.017 L 291.291 316.727 Z " fill="rgb(199,71,62)"/><path d=" M 261.541 221.057 Q 260.941 221.357 261.732 221.827 Q 267.392 225.217 274.002 231.767 L 275.291 233.227 Q 273.461 233.737 271.541 233.577 Q 243.081 231.317 215.071 236.687 Q 198.991 239.777 183.251 244.277 Q 181.681 244.727 180.041 244.727 Q 180.811 243.647 181.761 242.737 Q 204.431 221.057 235.791 219.017 Q 248.532 218.187 261.541 221.057 Z " fill="rgb(255,97,32)"/><path d=" M 282.252 242.767 L 285.541 246.557 L 288.081 252.017 Q 287.791 252.337 287.752 252.767 Q 286.581 252.917 284.041 252.267 Q 275.702 250.117 266.142 250.417 Q 258.862 250.647 255.452 250.347 Q 248.211 249.707 241.011 248.727 Q 237.631 248.267 234.571 248.847 Q 229.151 249.877 223.811 251.267 Q 221.741 251.807 218.171 251.997 Q 213.361 252.237 208.732 254.457 Q 204.092 256.667 198.921 256.567 Q 192.211 256.437 192.151 256.447 Q 177.261 257.677 165.561 266.697 Q 164.501 267.517 164.961 266.257 Q 166.871 261.027 170.291 256.727 Q 177.412 254.827 191.101 250.327 Q 200.601 247.207 212.772 245.357 Q 238.621 241.437 257.791 240.017 Q 262.881 239.637 270.032 241.057 Q 276.092 242.267 282.252 242.767 Z " fill="rgb(255,97,32)"/><path d=" M 294.752 282.017 Q 295.161 289.747 294.541 297.477 L 294.291 297.557 Q 289.961 297.507 285.631 297.507 Q 282.172 297.507 276.971 297.077 Q 265.982 296.177 255.021 297.447 Q 254.982 297.457 250.101 298.267 Q 243.041 299.447 236.071 297.417 Q 232.081 296.257 228.092 295.077 Q 228.001 295.047 225.662 294.217 Q 222.662 293.157 219.662 293.717 Q 217.821 294.047 214.441 296.247 Q 209.861 299.227 206.291 300.017 Q 192.371 303.097 179.291 308.767 Q 169.231 313.127 158.371 315.557 C 158.17 315.599 157.96 315.556 157.793 315.44 C 157.627 315.323 157.521 315.144 157.501 314.947 L 156.531 304.097 Q 156.391 302.467 157.561 301.077 Q 161.501 296.427 167.001 294.007 Q 169.801 292.767 177.662 290.747 Q 182.291 289.557 188.541 288.267 Q 196.921 286.537 205.101 281.077 Q 206.391 280.217 208.671 279.527 Q 210.482 278.967 212.482 279.127 Q 216.741 279.477 221.851 280.707 Q 225.671 281.627 229.522 280.637 Q 231.531 280.117 234.641 278.167 Q 238.241 275.907 239.601 275.327 Q 244.331 273.317 249.092 275.247 Q 251.881 276.387 254.721 275.807 Q 258.011 275.127 258.041 275.127 Q 265.821 274.497 271.862 279.717 Q 273.871 281.447 276.681 281.527 L 294.752 282.017 Z " fill="rgb(255,97,32)"/><path d=" M 211.791 323.307 Q 178.881 329.817 170.351 331.827 Q 168.451 332.277 167.791 331.977 Q 182.202 321.337 200.001 322.117 Q 200.202 322.127 204.592 322.227 Q 208.251 322.317 211.791 323.307 Z " fill="rgb(255,97,32)"/><path d=" M 292.252 266.017 L 293.331 269.267 L 294.002 275.017 Q 291.142 275.027 282.232 275.957 Q 278.502 276.337 274.791 274.227 Q 272.642 273.017 272.612 272.997 Q 266.672 270.097 260.172 270.917 Q 255.291 271.527 253.851 271.357 Q 248.862 270.767 244.502 268.017 Q 256.732 267.397 267.291 265.517 Q 280.071 263.237 292.252 266.017 Z " fill="rgb(254,95,30)"/><path d=" M 208.041 275.727 Q 205.871 276.797 203.721 277.937 Q 202.571 278.547 199.621 280.477 Q 192.801 284.927 184.541 285.727 L 184.541 284.807 Q 190.281 283.117 195.491 280.197 Q 197.391 279.137 195.221 279.047 Q 192.261 278.937 188.541 278.767 Q 185.761 278.637 182.111 281.637 Q 181.751 281.927 181.241 282.017 L 176.541 282.807 Q 174.961 282.467 174.751 280.767 Q 179.081 278.317 185.482 275.707 Q 196.952 271.007 208.041 275.727 Z " fill="rgb(254,95,30)"/><path d=" M 286.502 325.767 Q 283.952 331.897 280.002 337.267 L 279.291 338.057 Q 263.821 338.037 248.752 341.197 Q 245.502 341.887 237.551 344.577 Q 229.631 347.267 221.342 348.437 Q 220.261 348.587 210.721 349.017 Q 203.141 349.367 195.842 351.667 Q 189.711 353.597 183.291 353.717 Q 180.721 353.767 179.601 355.337 C 179.444 355.555 179.204 355.699 178.937 355.735 C 178.671 355.771 178.401 355.696 178.191 355.527 Q 172.711 351.097 169.091 345.137 Q 165.681 339.517 172.551 339.127 Q 179.511 338.737 186.321 337.387 Q 189.522 336.757 198.031 333.877 Q 207.631 330.627 217.772 329.387 Q 226.361 328.327 234.761 330.257 Q 236.461 330.647 238.202 330.477 Q 243.851 329.897 248.922 329.457 Q 253.051 329.097 259.681 328.967 Q 269.741 328.777 275.041 327.767 Q 284.681 325.937 286.502 325.767 Z " fill="rgb(254,95,30)"/><path d=" M 280.002 337.267 Q 280.592 337.577 281.791 337.517 Q 296.401 336.757 310.002 343.267 Q 306.831 349.497 301.791 354.307 Q 297.101 351.987 292.541 351.017 Q 283.511 349.097 273.541 349.017 Q 271.551 348.997 267.831 350.517 L 269.041 349.057 Q 275.002 344.337 279.291 338.057 L 280.002 337.267 Z " fill="rgb(197,72,52)"/><path d=" M 275.291 233.227 Q 279.562 237.427 282.252 242.767 Q 276.092 242.267 270.032 241.057 Q 262.881 239.637 257.791 240.017 Q 238.621 241.437 212.772 245.357 Q 200.601 247.207 191.101 250.327 Q 177.412 254.827 170.291 256.727 Q 174.381 250.087 180.041 244.727 Q 181.681 244.727 183.251 244.277 Q 198.991 239.777 215.071 236.687 Q 243.081 231.317 271.541 233.577 Q 273.461 233.737 275.291 233.227 Z " fill="rgb(174,76,15)"/><path d=" M 269.041 349.057 L 267.831 350.517 L 254.791 359.557 L 253.291 360.057 Q 243.081 359.937 233.022 361.637 Q 223.681 363.217 214.351 364.817 Q 205.071 366.407 197.851 370.327 Q 196.912 370.847 197.041 372.227 L 189.011 366.637 C 188.856 366.54 188.77 366.37 188.786 366.195 C 188.803 366.02 188.92 365.867 189.092 365.797 Q 202.601 358.517 217.041 356.267 Q 219.592 355.867 232.791 355.517 Q 248.551 355.097 269.041 349.057 Z " fill="rgb(174,76,15)"/><path d=" M 301.791 354.307 L 298.541 357.807 Q 285.571 355.757 272.621 357.957 Q 268.371 358.687 256.541 360.267 Q 254.901 360.487 254.791 359.557 L 267.831 350.517 Q 271.551 348.997 273.541 349.017 Q 283.511 349.097 292.541 351.017 Q 297.101 351.987 301.791 354.307 Z " fill="rgb(99,36,54)"/><path d=" M 261.541 221.057 Q 283.051 226.597 298.291 242.727 Q 296.482 243.587 295.441 242.477 Q 294.392 241.367 294.351 241.347 Q 291.271 238.997 288.232 237.577 Q 282.232 234.787 277.541 231.927 Q 277.482 231.887 276.482 231.147 Q 275.011 230.047 274.002 231.767 Q 267.392 225.217 261.732 221.827 Q 260.941 221.357 261.541 221.057 Z " fill="rgb(159,32,58)"/><path d=" M 319.331 323.267 Q 316.211 333.987 310.002 343.267 Q 296.401 336.757 281.791 337.517 Q 280.592 337.577 280.002 337.267 Q 283.952 331.897 286.502 325.767 L 287.331 324.767 Q 289.752 324.437 292.161 323.987 Q 294.752 323.507 296.982 323.447 Q 308.151 323.137 319.331 323.267 Z " fill="rgb(159,32,58)"/><path d=" M 298.541 357.807 Q 270.062 385.487 229.791 382.827 Q 213.891 381.777 200.041 373.977 Q 201.022 373.507 202.061 373.557 Q 203.801 373.647 203.921 373.637 Q 220.251 372.427 233.791 368.767 Q 243.411 366.167 253.291 360.057 L 254.791 359.557 Q 254.901 360.487 256.541 360.267 Q 268.371 358.687 272.621 357.957 Q 285.571 355.757 298.541 357.807 Z " fill="rgb(159,32,58)"/><path d=" M 253.291 360.057 Q 243.411 366.167 233.791 368.767 Q 220.251 372.427 203.921 373.637 Q 203.801 373.647 202.061 373.557 Q 201.022 373.507 200.041 373.977 L 197.041 372.227 Q 196.912 370.847 197.851 370.327 Q 205.071 366.407 214.351 364.817 Q 223.681 363.217 233.022 361.637 Q 243.081 359.937 253.291 360.057 Z " fill="rgb(249,93,31)"/><path d=" M 174.751 280.767 Q 174.961 282.467 176.541 282.807 Q 174.801 283.387 174.232 284.207 Q 172.912 286.097 175.551 285.817 Q 180.051 285.347 184.541 284.807 L 184.541 285.727 L 160.791 289.227 Q 166.841 283.507 174.751 280.767 Z " fill="rgb(248,110,32)"/><path d=" M 184.541 284.807 Q 180.051 285.347 175.551 285.817 Q 172.912 286.097 174.232 284.207 Q 174.801 283.387 176.541 282.807 L 181.241 282.017 Q 181.751 281.927 182.111 281.637 Q 185.761 278.637 188.541 278.767 Q 192.261 278.937 195.221 279.047 Q 197.391 279.137 195.491 280.197 Q 190.281 283.117 184.541 284.807 Z " fill="rgb(254,144,33)"/><path d=" M 298.291 242.727 L 304.541 249.477 Q 303.601 249.887 302.711 249.647 Q 296.291 247.887 289.851 246.207 Q 287.081 245.477 285.541 246.557 L 282.252 242.767 Q 279.562 237.427 275.291 233.227 L 274.002 231.767 Q 275.011 230.047 276.482 231.147 Q 277.482 231.887 277.541 231.927 Q 282.232 234.787 288.232 237.577 Q 291.271 238.997 294.351 241.347 Q 294.392 241.367 295.441 242.477 Q 296.482 243.587 298.291 242.727 Z " fill="rgb(115,32,57)"/><path d=" M 241.642 334.717 Q 238.941 331.727 243.991 332.957 C 244.309 333.029 244.549 333.265 244.601 333.557 Q 245.011 335.657 242.461 335.187 C 242.141 335.117 241.853 334.952 241.642 334.717 Z " fill="rgb(200,72,18)"/><path d=" M 186.454 342.74 C 186.235 341.183 188.906 339.518 192.415 339.025 C 195.924 338.531 198.95 339.396 199.169 340.953 C 199.388 342.511 196.717 344.176 193.208 344.669 C 189.699 345.162 186.673 344.298 186.454 342.74 Z " fill="rgb(200,72,18)"/><path d=" M 284.958 269.022 C 285.018 268.541 285.97 268.263 287.082 268.404 C 288.193 268.544 289.046 269.049 288.985 269.531 C 288.925 270.013 287.973 270.29 286.861 270.15 C 285.75 270.009 284.897 269.504 284.958 269.022 Z " fill="rgb(155,75,17)"/><path d=" M 260.219 287.935 C 259.669 286.089 260.948 284.076 263.074 283.442 C 265.201 282.808 267.374 283.792 267.924 285.638 C 268.474 287.484 267.195 289.497 265.069 290.131 C 262.942 290.765 260.769 289.781 260.219 287.935 Z " fill="rgb(209,81,20)"/><path d=" M 234.011 337.287 Q 232.171 335.927 232.912 333.797 C 233.02 333.497 233.255 333.254 233.561 333.127 Q 237.581 331.467 238.621 336.137 Q 239.071 338.127 237.041 338.317 Q 235.571 338.447 234.011 337.287 Z " fill="rgb(209,81,20)"/><path d=" M 211.111 338.737 Q 210.101 337.687 210.412 336.387 Q 210.681 335.237 211.842 334.757 Q 213.342 334.147 214.811 335.037 C 215.084 335.205 215.235 335.511 215.202 335.827 Q 214.952 338.837 211.982 339.057 C 211.656 339.075 211.338 338.958 211.111 338.737 Z " fill="rgb(209,81,20)"/></g></g></svg>