<?xml version="1.0" encoding="UTF-8" standalone="no"?><!-- Generator: Gravit.io --><svg xmlns="http://www.w3.org/2000/svg" xmlns:xlink="http://www.w3.org/1999/xlink" style="isolation:isolate" viewBox="674.036 547.486 204.114 185.851" width="204.114pt" height="185.851pt"><defs><clipPath id="_clipPath_fzwmF8svxChR3O6NGKSr2EcrJnC2CidZ"><rect x="674.036" y="547.486" width="204.114" height="185.851"/></clipPath></defs><g clip-path="url(#_clipPath_fzwmF8svxChR3O6NGKSr2EcrJnC2CidZ)"><rect x="674.036" y="547.486" width="204.114" height="185.851" style="fill:rgb(6,6,6)" fill-opacity="0"/><g><path d=" M 706.451 634.041 L 703.491 640.001 Q 698.271 645.421 695.011 651.311 Q 693.451 654.141 694.151 657.451 C 694.202 657.755 694.418 658.012 694.721 658.131 Q 696.831 658.931 698.951 657.711 Q 703.011 657.971 704.641 655.191 Q 706.691 651.681 707.201 649.501 Q 708.751 642.881 710.451 636.291 Q 719.741 633.341 726.951 629.001 Q 745.621 617.771 764.401 602.701 Q 772.601 596.111 777.391 590.941 Q 781.531 586.471 785.451 579.291 Q 786.371 579.141 787.281 578.951 Q 788.241 578.751 789.131 578.791 Q 798.061 579.151 807.481 579.261 C 807.939 579.26 808.382 579.097 808.731 578.801 Q 811.721 576.251 813.701 573.291 Q 817.221 570.061 819.691 565.851 Q 820.651 564.211 818.761 564.401 Q 815.601 564.721 811.861 566.291 Q 803.441 569.841 795.451 574.291 Q 792.451 574.211 789.461 573.931 Q 788.011 573.801 789.241 572.751 Q 791.791 570.261 794.141 568.941 Q 812.351 558.681 832.031 551.561 Q 834.751 550.571 835.931 553.221 Q 836.731 555.021 835.721 556.861 Q 835.671 556.951 833.681 559.641 Q 828.801 566.251 823.321 572.381 Q 818.981 577.241 813.541 580.861 Q 810.421 582.931 807.651 585.441 Q 763.821 625.231 712.801 655.151 Q 710.391 656.551 703.061 661.511 Q 694.101 667.571 683.671 670.851 C 683.362 670.934 683.03 670.934 682.721 670.851 Q 680.201 669.911 680.711 667.001 Q 682.101 659.131 687.071 652.881 Q 691.011 647.941 697.641 641.191 Q 702.131 636.611 706.451 634.041 Z " fill="rgb(255,187,86)"/><path d=" M 705.701 687.961 Q 706.951 690.331 706.991 693.001 Q 704.891 695.131 704.261 698.081 C 704.13 698.689 704.448 699.306 705.021 699.551 Q 709.361 701.361 712.951 698.041 L 716.951 695.711 Q 747.861 677.741 773.891 657.941 Q 806.831 632.871 842.951 601.791 Q 844.521 601.201 845.451 599.791 Q 847.751 597.961 849.081 595.181 C 849.225 594.878 849.215 594.524 849.055 594.23 C 848.895 593.935 848.603 593.735 848.271 593.691 Q 845.441 593.321 842.201 594.041 Q 841.781 594.071 841.661 593.751 Q 841.641 592.971 842.451 592.251 Q 852.051 583.731 862.911 578.511 Q 866.301 576.881 868.341 576.861 Q 872.241 576.831 871.711 581.321 Q 871.471 583.401 869.871 585.851 Q 863.431 595.751 854.631 603.691 Q 850.471 607.441 846.351 611.251 Q 841.761 615.501 837.991 618.681 Q 798.801 651.731 756.961 681.321 Q 745.161 689.661 740.531 692.761 Q 715.461 709.521 687.561 721.251 Q 684.591 722.501 681.431 723.251 Q 678.361 723.991 678.971 720.891 Q 679.711 717.181 681.901 713.971 Q 686.231 707.631 691.791 702.341 Q 699.051 695.451 705.701 687.961 Z " fill="rgb(255,189,88)"/><path d=" M 766.201 719.211 L 762.701 720.791 Q 754.231 725.601 745.021 728.741 Q 743.181 729.361 740.651 729.681 Q 738.101 730.001 736.241 730.441 Q 734.581 730.841 732.921 730.371 Q 730.201 729.611 731.211 727.541 Q 733.941 721.891 738.701 719.501 Q 741.361 718.171 740.241 721.251 Q 737.951 726.631 743.451 723.961 Q 748.981 721.001 754.231 717.581 Q 755.681 716.631 753.951 716.711 Q 756.171 715.841 760.011 713.561 Q 782.221 700.401 800.491 686.001 Q 825.041 666.721 846.761 644.311 Q 850.511 640.451 856.201 632.961 Q 857.181 633.121 857.801 633.781 Q 858.711 634.751 858.931 634.851 Q 859.961 635.281 860.341 633.991 Q 860.481 633.521 860.821 633.161 Q 862.061 631.861 861.011 630.101 Q 860.951 630.001 860.941 629.881 Q 860.831 628.171 860.661 629.971 Q 860.641 630.191 860.581 629.981 Q 859.591 626.521 862.331 624.401 Q 864.221 622.941 866.481 621.891 Q 869.081 620.691 868.071 623.371 Q 866.361 627.901 864.111 632.281 Q 861.991 636.401 858.801 640.441 Q 850.911 650.401 839.011 662.061 Q 824.171 676.601 815.141 683.941 Q 810.291 687.871 793.521 700.701 Q 788.711 704.371 781.281 708.971 Q 773.531 713.761 766.201 719.211 Z " fill="rgb(255,188,94)"/><path d=" M 845.451 599.791 Q 843.441 597.601 841.821 595.101 Q 841.371 594.421 842.201 594.041 Q 845.441 593.321 848.271 593.691 C 848.603 593.735 848.895 593.935 849.055 594.23 C 849.215 594.524 849.225 594.878 849.081 595.181 Q 847.751 597.961 845.451 599.791 Z " fill="rgb(195,63,58)"/><path d=" M 743.451 723.961 Q 737.951 726.631 740.241 721.251 Q 744.411 719.901 743.451 723.961 Z " fill="rgb(195,63,58)"/><path d=" M 785.451 579.291 Q 781.531 586.471 777.391 590.941 Q 772.601 596.111 764.401 602.701 Q 745.621 617.771 726.951 629.001 Q 719.741 633.341 710.451 636.291 Q 709.871 635.541 710.211 634.701 Q 710.551 633.841 710.571 633.751 Q 711.031 631.921 711.591 630.131 Q 711.791 629.451 712.251 629.221 Q 712.761 628.971 713.451 628.961 Q 717.241 628.531 721.761 625.811 Q 743.491 612.791 759.761 599.561 Q 773.031 588.781 780.451 580.041 Q 782.831 578.801 785.451 579.291 Z " fill="rgb(126,46,53)"/><path d=" M 837.201 595.461 L 842.951 601.791 Q 806.831 632.871 773.891 657.941 Q 747.861 677.741 716.951 695.711 Q 716.961 695.101 716.601 694.591 Q 709.041 684.081 706.951 671.291 Q 709.951 672.421 713.071 672.801 Q 715.831 673.141 719.251 672.251 Q 733.991 668.401 748.261 660.311 Q 765.301 650.661 777.891 642.261 Q 790.611 633.781 803.251 625.201 Q 818.041 615.141 819.691 613.841 Q 828.951 606.511 835.901 596.771 Q 835.951 596.701 836.231 596.041 Q 836.471 595.501 837.201 595.461 Z " fill="rgb(126,46,53)"/><path d=" M 821.411 580.751 Q 820.031 582.231 819.451 584.211 Q 817.461 585.251 815.141 587.191 Q 787.131 610.561 755.571 632.841 Q 735.691 646.871 716.761 657.561 Q 708.941 661.981 703.451 665.961 Q 701.851 666.401 700.951 667.791 Q 695.721 670.601 690.701 673.741 Q 687.861 675.521 684.641 676.441 Q 678.401 678.211 675.951 672.251 Q 674.601 668.961 675.761 666.171 Q 676.991 663.181 678.581 660.351 Q 689.461 640.921 707.201 627.461 Q 709.221 631.081 706.451 634.041 Q 702.131 636.611 697.641 641.191 Q 691.011 647.941 687.071 652.881 Q 682.101 659.131 680.711 667.001 Q 680.201 669.911 682.721 670.851 C 683.03 670.934 683.362 670.934 683.671 670.851 Q 694.101 667.571 703.061 661.511 Q 710.391 656.551 712.801 655.151 Q 763.821 625.231 807.651 585.441 Q 810.421 582.931 813.541 580.861 Q 818.981 577.241 823.321 572.381 Q 828.801 566.251 833.681 559.641 Q 835.671 556.951 835.721 556.861 Q 836.731 555.021 835.931 553.221 Q 834.751 550.571 832.031 551.561 Q 812.351 558.681 794.141 568.941 Q 791.791 570.261 789.241 572.751 L 789.911 567.501 Q 806.491 556.771 824.981 549.821 Q 830.541 547.731 833.951 547.501 Q 836.261 547.351 838.111 548.791 Q 839.931 550.211 840.741 551.751 Q 841.731 553.661 840.751 556.061 Q 839.591 558.891 837.821 561.391 Q 830.461 571.781 821.411 580.751 Z " fill="rgb(254,117,62)"/><path d=" M 873.451 570.961 Q 875.411 571.261 875.951 572.001 Q 878.811 575.921 877.951 580.751 Q 877.671 582.331 875.441 586.001 Q 874.071 588.251 872.061 590.691 Q 864.291 600.171 857.391 606.441 Q 855.651 608.021 855.411 609.501 Q 854.531 608.541 853.201 609.751 Q 851.351 611.431 850.911 612.751 Q 849.581 613.541 846.261 616.561 Q 816.441 643.791 778.641 672.941 Q 766.431 682.351 755.951 688.711 L 730.241 704.381 C 729.946 704.564 729.759 704.88 729.741 705.227 C 729.723 705.574 729.876 705.908 730.151 706.121 Q 736.461 710.961 744.661 714.841 Q 749.071 716.921 753.951 716.711 Q 755.681 716.631 754.231 717.581 Q 748.981 721.001 743.451 723.961 Q 744.411 719.901 740.241 721.251 Q 741.361 718.171 738.701 719.501 Q 733.941 721.891 731.211 727.541 Q 730.201 729.611 732.921 730.371 Q 734.581 730.841 736.241 730.441 Q 738.101 730.001 740.651 729.681 Q 743.181 729.361 745.021 728.741 Q 754.231 725.601 762.701 720.791 Q 762.991 721.831 762.411 722.531 C 762.294 722.66 762.113 722.756 761.901 722.801 Q 760.541 723.051 761.951 723.291 Q 749.851 729.521 736.681 732.921 Q 733.051 733.861 729.501 732.681 Q 727.371 731.981 727.701 729.771 Q 728.021 727.561 729.151 725.651 Q 732.121 720.631 736.111 716.361 C 736.201 716.271 736.246 716.147 736.234 716.022 C 736.223 715.897 736.156 715.783 736.051 715.711 L 725.651 708.621 C 725.201 708.322 724.617 708.306 724.151 708.581 Q 705.851 719.531 686.581 727.531 Q 682.661 729.161 679.201 728.751 Q 676.481 728.431 674.951 725.711 Q 673.221 721.221 674.761 717.811 Q 678.841 708.811 687.521 699.821 Q 695.561 691.501 704.161 683.751 L 705.701 687.961 Q 699.051 695.451 691.791 702.341 Q 686.231 707.631 681.901 713.971 Q 679.711 717.181 678.971 720.891 Q 678.361 723.991 681.431 723.251 Q 684.591 722.501 687.561 721.251 Q 715.461 709.521 740.531 692.761 Q 745.161 689.661 756.961 681.321 Q 798.801 651.731 837.991 618.681 Q 841.761 615.501 846.351 611.251 Q 850.471 607.441 854.631 603.691 Q 863.431 595.751 869.871 585.851 Q 871.471 583.401 871.711 581.321 Q 872.241 576.831 868.341 576.861 Q 866.301 576.881 862.911 578.511 Q 852.051 583.731 842.451 592.251 Q 841.641 592.971 841.661 593.751 Q 836.921 595.021 838.741 590.251 Q 849.921 581.041 861.261 574.561 Q 866.681 571.471 873.451 570.961 Z " fill="rgb(254,117,62)"/><path d=" M 862.411 646.751 Q 861.781 642.451 859.141 644.611 Q 858.391 645.211 857.721 646.701 Q 857.181 647.891 856.451 648.961 Q 842.231 664.291 837.141 669.191 Q 819.791 685.891 803.511 698.311 Q 790.001 708.631 772.701 718.041 Q 769.561 719.261 766.201 719.211 Q 773.531 713.761 781.281 708.971 Q 788.711 704.371 793.521 700.701 Q 810.291 687.871 815.141 683.941 Q 824.171 676.601 839.011 662.061 Q 850.911 650.401 858.801 640.441 Q 861.991 636.401 864.111 632.281 Q 866.361 627.901 868.071 623.371 Q 869.081 620.691 866.481 621.891 Q 864.221 622.941 862.331 624.401 Q 859.591 626.521 860.581 629.981 Q 860.641 630.191 860.661 629.971 Q 860.831 628.171 860.941 629.881 Q 860.951 630.001 861.011 630.101 Q 862.061 631.861 860.821 633.161 Q 860.481 633.521 860.341 633.991 Q 859.961 635.281 858.931 634.851 Q 858.711 634.751 857.801 633.781 Q 857.181 633.121 856.201 632.961 L 856.241 632.501 Q 860.671 631.241 859.451 626.501 Q 858.811 624.021 860.201 621.291 L 868.771 618.061 Q 871.111 617.181 872.441 619.661 Q 873.861 622.331 872.671 625.281 Q 869.211 633.821 863.451 641.001 Q 862.241 642.511 862.411 646.751 Z " fill="rgb(254,117,62)"/><path d=" M 819.451 584.211 Q 830.631 586.321 837.201 595.461 Q 836.471 595.501 836.231 596.041 Q 835.951 596.701 835.901 596.771 Q 828.951 606.511 819.691 613.841 Q 818.041 615.141 803.251 625.201 Q 790.611 633.781 777.891 642.261 Q 765.301 650.661 748.261 660.311 Q 733.991 668.401 719.251 672.251 Q 715.831 673.141 713.071 672.801 Q 709.951 672.421 706.951 671.291 Q 705.491 669.691 705.201 668.251 Q 704.841 666.461 703.451 665.961 Q 708.941 661.981 716.761 657.561 Q 735.691 646.871 755.571 632.841 Q 787.131 610.561 815.141 587.191 Q 817.461 585.251 819.451 584.211 Z " fill="rgb(224,79,33)"/><path d=" M 712.951 698.041 Q 709.361 701.361 705.021 699.551 C 704.448 699.306 704.13 698.689 704.261 698.081 Q 704.891 695.131 706.991 693.001 Q 707.681 692.521 708.341 693.111 Q 710.861 695.361 712.951 698.041 Z " fill="rgb(42,23,47)"/><path d=" M 703.491 640.001 Q 704.001 640.151 703.901 640.691 Q 702.171 650.221 701.701 654.251 Q 701.391 656.861 698.951 657.711 Q 696.831 658.931 694.721 658.131 C 694.418 658.012 694.202 657.755 694.151 657.451 Q 693.451 654.141 695.011 651.311 Q 698.271 645.421 703.491 640.001 Z " fill="rgb(44,24,50)"/><path d=" M 789.911 567.501 L 789.241 572.751 Q 788.011 573.801 789.461 573.931 Q 792.451 574.211 795.451 574.291 Q 795.831 575.011 797.451 575.001 Q 807.151 574.961 813.701 573.291 Q 811.721 576.251 808.731 578.801 C 808.382 579.097 807.939 579.26 807.481 579.261 Q 798.061 579.151 789.131 578.791 Q 788.241 578.751 787.281 578.951 Q 786.371 579.141 785.451 579.291 Q 782.831 578.801 780.451 580.041 Q 772.371 579.191 766.011 581.061 Q 746.321 586.861 730.301 601.611 Q 721.491 609.711 715.511 621.311 Q 713.471 625.271 713.451 628.961 Q 712.761 628.971 712.251 629.221 Q 711.791 629.451 711.591 630.131 Q 711.031 631.921 710.571 633.751 Q 710.551 633.841 710.211 634.701 Q 709.871 635.541 710.451 636.291 Q 708.751 642.881 707.201 649.501 Q 706.691 651.681 704.641 655.191 Q 703.011 657.971 698.951 657.711 Q 701.391 656.861 701.701 654.251 Q 702.171 650.221 703.901 640.691 Q 704.001 640.151 703.491 640.001 L 706.451 634.041 Q 709.221 631.081 707.201 627.461 Q 711.851 618.411 713.011 616.311 Q 718.771 605.871 728.241 597.551 Q 740.751 586.571 755.011 580.311 Q 766.381 575.331 779.701 574.051 C 780.028 574.017 780.338 573.888 780.591 573.681 Q 784.911 570.091 789.911 567.501 Z " fill="rgb(235,95,60)"/><path d=" M 821.411 580.751 Q 824.551 580.571 825.451 581.001 Q 832.851 584.551 838.741 590.251 Q 836.921 595.021 841.661 593.751 Q 841.781 594.071 842.201 594.041 Q 841.371 594.421 841.821 595.101 Q 843.441 597.601 845.451 599.791 Q 844.521 601.201 842.951 601.791 L 837.201 595.461 Q 830.631 586.321 819.451 584.211 Q 820.031 582.231 821.411 580.751 Z " fill="rgb(235,95,60)"/><path d=" M 855.411 609.501 Q 857.221 614.681 859.061 619.851 Q 859.091 619.931 859.201 620.671 Q 859.301 621.351 860.201 621.291 Q 858.811 624.021 859.451 626.501 Q 860.671 631.241 856.241 632.501 Q 855.601 630.041 855.421 627.501 Q 854.871 619.581 850.911 612.751 Q 851.351 611.431 853.201 609.751 Q 854.531 608.541 855.411 609.501 Z " fill="rgb(235,95,60)"/><path d=" M 862.411 646.751 Q 861.581 652.171 859.451 661.001 Q 856.421 673.551 849.241 683.301 Q 835.161 702.411 814.891 712.691 Q 808.251 716.051 799.911 719.111 Q 791.001 722.371 784.181 723.141 Q 774.581 724.231 764.891 722.561 Q 763.561 722.331 761.951 723.291 Q 760.541 723.051 761.901 722.801 C 762.113 722.756 762.294 722.66 762.411 722.531 Q 762.991 721.831 762.701 720.791 L 766.201 719.211 Q 769.561 719.261 772.701 718.041 Q 772.621 718.471 772.951 718.501 Q 781.851 719.231 790.311 717.211 Q 797.011 715.611 806.581 711.521 Q 825.191 703.561 839.221 688.531 Q 854.791 671.851 856.451 648.961 Q 857.181 647.891 857.721 646.701 Q 858.391 645.211 859.141 644.611 Q 861.781 642.451 862.411 646.751 Z " fill="rgb(235,95,60)"/><path d=" M 703.451 665.961 Q 704.841 666.461 705.201 668.251 Q 705.491 669.691 706.951 671.291 Q 709.041 684.081 716.601 694.591 Q 716.961 695.101 716.951 695.711 L 712.951 698.041 Q 710.861 695.361 708.341 693.111 Q 707.681 692.521 706.991 693.001 Q 706.951 690.331 705.701 687.961 L 704.161 683.751 Q 704.281 683.421 704.371 683.081 Q 704.461 682.771 704.351 682.421 Q 702.281 675.191 700.951 667.791 Q 701.851 666.401 703.451 665.961 Z " fill="rgb(235,95,60)"/><path d=" M 780.451 580.041 Q 773.031 588.781 759.761 599.561 Q 743.491 612.791 721.761 625.811 Q 717.241 628.531 713.451 628.961 Q 713.471 625.271 715.511 621.311 Q 721.491 609.711 730.301 601.611 Q 746.321 586.861 766.011 581.061 Q 772.371 579.191 780.451 580.041 Z " fill="rgb(255,149,70)"/><path d=" M 850.911 612.751 Q 854.871 619.581 855.421 627.501 Q 855.601 630.041 856.241 632.501 L 856.201 632.961 Q 850.511 640.451 846.761 644.311 Q 825.041 666.721 800.491 686.001 Q 799.791 685.561 799.121 685.851 Q 798.431 686.151 798.361 686.171 Q 785.641 689.641 772.451 688.981 Q 764.201 688.561 755.951 688.711 Q 766.431 682.351 778.641 672.941 Q 816.441 643.791 846.261 616.561 Q 849.581 613.541 850.911 612.751 Z " fill="rgb(123,46,51)"/><path d=" M 813.701 573.291 Q 807.151 574.961 797.451 575.001 Q 795.831 575.011 795.451 574.291 Q 803.441 569.841 811.861 566.291 Q 815.601 564.721 818.761 564.401 Q 820.651 564.211 819.691 565.851 Q 817.221 570.061 813.701 573.291 Z " fill="rgb(61,31,54)"/><path d=" M 856.451 648.961 Q 854.791 671.851 839.221 688.531 Q 825.191 703.561 806.581 711.521 Q 797.011 715.611 790.311 717.211 Q 781.851 719.231 772.951 718.501 Q 772.621 718.471 772.701 718.041 Q 790.001 708.631 803.511 698.311 Q 819.791 685.891 837.141 669.191 Q 842.231 664.291 856.451 648.961 Z " fill="rgb(61,31,54)"/><path d=" M 800.491 686.001 Q 782.221 700.401 760.011 713.561 Q 756.171 715.841 753.951 716.711 Q 749.071 716.921 744.661 714.841 Q 736.461 710.961 730.151 706.121 C 729.876 705.908 729.723 705.574 729.741 705.227 C 729.759 704.88 729.946 704.564 730.241 704.381 L 755.951 688.711 Q 764.201 688.561 772.451 688.981 Q 785.641 689.641 798.361 686.171 Q 798.431 686.151 799.121 685.851 Q 799.791 685.561 800.491 686.001 Z " fill="rgb(61,31,54)"/><path d=" M 811.311 599.711 Q 815.041 594.951 821.011 592.811 Q 823.671 591.861 825.141 594.811 Q 826.701 597.971 823.761 599.841 Q 819.981 602.241 816.101 604.471 Q 812.321 606.631 810.871 602.261 C 810.582 601.391 810.747 600.434 811.311 599.711 L 811.311 599.711 Z " fill="rgb(251,145,56)"/><path d=" M 799.282 606.543 C 799.247 604.546 801.087 602.891 803.388 602.851 C 805.689 602.811 807.586 604.4 807.621 606.398 C 807.655 608.395 805.816 610.05 803.514 610.09 C 801.213 610.13 799.317 608.541 799.282 606.543 Z " fill="rgb(251,145,56)"/></g></g></svg>