<?xml version="1.0" encoding="UTF-8" standalone="no"?><!-- Generator: Gravit.io --><svg xmlns="http://www.w3.org/2000/svg" xmlns:xlink="http://www.w3.org/1999/xlink" style="isolation:isolate" viewBox="637.822 539.044 276.542 202.735" width="276.542pt" height="202.735pt"><defs><clipPath id="_clipPath_452DTvD24yQtJBJud4MR6VkSoiYr9sAh"><rect x="637.822" y="539.044" width="276.542" height="202.735"/></clipPath></defs><g clip-path="url(#_clipPath_452DTvD24yQtJBJud4MR6VkSoiYr9sAh)"><rect x="637.822" y="539.044" width="276.542" height="202.735" style="fill:rgb(6,6,6)" fill-opacity="0"/><g><path d=" M 827.801 559.164 L 844.801 571.164 Q 841.181 575.474 836.341 578.374 L 836.521 570.124 C 836.66 569.804 836.588 569.466 836.321 569.184 Q 834.221 565.414 829.361 563.064 Q 828.471 562.634 825.051 559.914 Q 826.341 559.114 827.801 559.164 Z " fill="rgb(241,117,80)"/><path d=" M 855.551 582.914 Q 862.611 590.984 867.341 600.624 Q 867.201 601.584 866.361 601.694 C 866.081 601.734 865.847 601.918 865.751 602.174 L 864.551 605.334 Q 863.501 606.984 861.861 610.434 Q 855.701 623.444 843.841 632.374 Q 844.041 624.054 842.801 615.834 Q 842.791 615.424 843.091 615.124 Q 856.811 604.914 850.451 588.754 Q 850.301 588.354 850.351 587.964 Q 850.411 587.544 850.511 587.124 L 855.551 582.914 Z " fill="rgb(241,117,80)"/><path d=" M 914.091 611.874 Q 911.891 618.924 907.741 624.314 Q 897.241 637.944 883.111 649.184 Q 881.341 650.604 878.761 653.374 Q 877.671 653.444 876.111 654.684 Q 869.911 659.634 856.051 669.334 Q 804.791 704.714 746.301 726.164 L 739.051 728.584 Q 727.661 731.984 715.931 733.754 Q 712.991 734.194 710.661 734.164 Q 708.001 734.124 705.371 733.794 Q 701.981 733.374 699.761 730.874 Q 697.541 725.064 701.991 719.814 Q 709.001 711.534 715.051 706.834 Q 717.921 707.264 717.801 710.334 Q 714.041 713.364 712.891 717.874 Q 712.371 719.934 713.211 721.274 Q 714.231 722.894 716.481 723.254 Q 723.691 724.414 730.301 721.414 Q 733.421 721.044 736.091 719.374 Q 760.811 711.494 783.301 698.584 Q 783.651 699.794 784.661 700.354 C 784.95 700.462 785.284 700.458 785.571 700.344 Q 788.431 698.984 791.451 698.094 Q 795.071 697.014 797.271 695.834 Q 812.091 687.914 829.611 676.934 Q 832.301 675.254 833.551 673.914 Q 858.041 659.244 877.211 638.144 Q 877.751 637.544 878.111 636.844 Q 878.471 636.134 878.801 635.414 Q 882.671 630.934 883.301 626.374 Q 883.811 622.714 880.241 620.934 Q 879.251 620.444 875.801 619.664 L 869.301 602.914 Q 884.561 598.044 899.801 598.374 Q 903.551 598.454 907.171 599.854 Q 911.231 601.424 912.931 604.154 Q 914.991 607.434 914.091 611.874 Z " fill="rgb(254,230,45)"/><path d=" M 867.341 600.624 Q 867.851 602.214 869.301 602.914 L 875.801 619.664 Q 875.541 622.454 876.511 625.124 L 872.591 626.124 Q 867.501 614.484 867.051 611.124 Q 866.611 607.864 865.491 605.684 Q 865.261 605.244 864.551 605.334 L 865.751 602.174 C 865.847 601.918 866.081 601.734 866.361 601.694 Q 867.201 601.584 867.341 600.624 Z " fill="rgb(236,97,72)"/><path d=" M 785.301 608.914 Q 783.751 609.924 781.051 611.124 Q 753.151 623.494 722.051 631.374 Q 720.041 631.884 718.551 630.834 Q 736.141 621.384 754.841 614.374 Q 760.021 612.434 764.941 609.914 Q 765.061 609.854 766.821 609.044 Q 769.181 607.964 770.491 606.064 Q 772.611 602.984 773.971 601.534 Q 777.981 597.264 782.861 599.814 Q 785.491 601.184 785.541 604.444 Q 785.541 604.724 785.061 606.594 Q 784.761 607.764 785.301 608.914 Z " fill="rgb(255,200,30)"/><path d=" M 842.801 615.834 Q 844.041 624.054 843.841 632.374 L 843.011 633.624 Q 807.101 661.574 764.911 678.124 Q 756.351 681.474 745.981 684.544 Q 730.381 689.154 714.541 692.874 C 714.163 692.964 713.857 693.236 713.724 693.598 C 713.591 693.96 713.65 694.364 713.881 694.674 L 721.131 704.794 C 721.341 705.078 721.707 705.206 722.051 705.114 Q 737.411 700.734 752.371 695.704 Q 773.001 688.754 792.231 678.534 Q 808.991 669.624 825.601 660.424 Q 830.931 657.474 836.811 655.914 Q 838.161 655.554 839.341 656.124 L 838.551 662.334 Q 835.571 667.924 833.551 673.914 Q 832.301 675.254 829.611 676.934 Q 812.091 687.914 797.271 695.834 Q 795.071 697.014 791.451 698.094 Q 788.431 698.984 785.571 700.344 C 785.284 700.458 784.95 700.462 784.661 700.354 Q 783.651 699.794 783.301 698.584 Q 799.221 690.174 813.131 677.474 Q 815.001 675.774 812.481 675.864 Q 810.681 675.934 807.831 677.374 Q 769.521 696.774 730.151 713.494 Q 729.151 713.914 730.111 714.424 Q 733.741 716.364 736.091 719.374 Q 733.421 721.044 730.301 721.414 L 717.801 710.334 Q 717.921 707.264 715.051 706.834 Q 715.091 706.454 714.491 705.684 Q 699.891 687.264 695.111 665.064 Q 694.061 660.174 693.551 658.664 Q 722.441 654.484 744.241 645.814 Q 755.351 641.394 758.331 640.294 C 758.638 640.285 758.941 640.339 759.181 640.444 L 760.051 640.914 Q 741.841 651.104 722.121 657.964 Q 718.431 659.244 714.981 661.034 Q 710.051 663.594 708.441 665.134 Q 703.911 669.474 706.901 677.094 C 707.154 677.748 707.843 678.124 708.531 677.984 Q 734.641 672.594 759.201 663.694 Q 804.721 647.184 840.491 617.314 Q 842.051 616.004 842.801 615.834 Z " fill="rgb(255,200,30)"/><path d=" M 876.511 625.124 L 878.801 635.414 Q 878.471 636.134 878.111 636.844 Q 877.751 637.544 877.211 638.144 Q 858.041 659.244 833.551 673.914 Q 835.571 667.924 838.551 662.334 Q 841.531 662.074 843.581 660.034 Q 844.901 658.724 844.981 658.664 Q 858.851 646.374 869.941 631.524 Q 871.771 629.064 872.591 626.124 L 876.511 625.124 Z " fill="rgb(240,112,80)"/><path d=" M 878.761 653.374 Q 879.011 671.624 871.781 688.324 Q 864.371 705.424 850.971 717.724 Q 843.841 724.274 834.811 729.434 Q 806.651 745.524 773.141 740.644 Q 755.501 738.064 740.741 729.184 Q 739.771 728.604 739.051 728.584 L 746.301 726.164 Q 746.361 726.744 746.851 727.084 Q 750.951 729.954 755.651 731.534 Q 758.391 732.454 761.561 732.004 Q 774.301 730.214 785.851 724.414 Q 787.351 723.664 786.051 722.584 L 787.091 721.874 Q 799.711 718.104 809.241 712.314 Q 814.571 709.064 818.121 702.864 Q 818.281 702.584 818.771 702.154 Q 819.491 701.534 819.051 700.584 Q 823.831 697.224 828.731 694.044 Q 844.071 684.074 856.201 670.384 C 856.461 670.324 856.649 670.199 856.7 670.051 C 856.75 669.904 856.656 669.754 856.451 669.654 Q 856.351 669.434 856.051 669.334 Q 869.911 659.634 876.111 654.684 Q 877.671 653.444 878.761 653.374 Z " fill="rgb(240,112,80)"/><path d=" M 856.051 669.334 Q 856.351 669.434 856.451 669.654 C 856.656 669.754 856.75 669.904 856.7 670.051 C 856.649 670.199 856.461 670.324 856.201 670.384 Q 844.071 684.074 828.731 694.044 Q 823.831 697.224 819.051 700.584 L 808.801 706.664 L 807.781 706.514 Q 807.171 706.414 806.831 706.544 Q 802.441 708.204 796.611 711.684 Q 781.941 720.454 763.741 726.814 Q 763.431 726.924 763.301 727.064 Q 762.921 727.484 763.641 727.374 Q 774.991 725.634 786.051 722.584 Q 787.351 723.664 785.851 724.414 Q 774.301 730.214 761.561 732.004 Q 758.391 732.454 755.651 731.534 Q 750.951 729.954 746.851 727.084 Q 746.361 726.744 746.301 726.164 Q 804.791 704.714 856.051 669.334 Z " fill="rgb(213,80,61)"/><path d=" M 820.801 559.414 Q 820.581 560.334 821.251 560.444 C 821.631 560.507 821.93 560.63 822.081 560.784 Q 829.931 568.864 834.041 579.374 Q 834.171 579.724 834.551 579.664 Q 831.361 580.764 829.611 582.184 Q 825.301 585.704 820.711 588.844 C 820.448 589.015 820.125 589.083 819.811 589.034 Q 817.441 588.624 815.061 588.734 Q 812.791 588.834 811.151 590.364 Q 808.471 592.904 806.941 596.344 C 806.825 596.643 806.614 596.907 806.331 597.104 Q 796.451 604.124 785.301 608.914 Q 784.761 607.764 785.061 606.594 Q 785.541 604.724 785.541 604.444 Q 785.491 601.184 782.861 599.814 Q 777.981 597.264 773.971 601.534 Q 772.611 602.984 770.491 606.064 Q 769.181 607.964 766.821 609.044 Q 765.061 609.854 764.941 609.914 Q 760.021 612.434 754.841 614.374 Q 736.141 621.384 718.551 630.834 Q 710.361 633.974 701.591 634.374 Q 702.051 618.104 708.391 602.694 C 708.652 602.062 709.161 601.563 709.801 601.314 Q 728.841 593.854 745.821 583.024 Q 757.611 575.494 762.321 571.754 Q 771.331 564.604 777.431 555.174 Q 778.461 553.574 780.371 553.594 Q 792.721 553.734 803.101 555.204 Q 803.901 555.314 803.361 555.914 Q 794.251 566.064 783.511 573.964 Q 777.281 578.544 766.471 584.374 Q 755.131 590.484 743.571 596.164 Q 732.981 601.374 722.961 607.384 Q 720.571 608.814 723.291 608.234 Q 728.791 607.064 733.721 605.254 Q 737.921 603.724 738.031 603.684 Q 754.451 597.954 770.361 590.924 Q 791.261 581.694 809.871 568.454 Q 815.671 564.334 820.801 559.414 Z " fill="rgb(251,132,44)"/><path d=" M 843.011 633.624 Q 842.981 645.174 839.341 656.124 Q 838.161 655.554 836.811 655.914 Q 830.931 657.474 825.601 660.424 Q 808.991 669.624 792.231 678.534 Q 773.001 688.754 752.371 695.704 Q 737.411 700.734 722.051 705.114 C 721.707 705.206 721.341 705.078 721.131 704.794 L 713.881 694.674 C 713.65 694.364 713.591 693.96 713.724 693.598 C 713.857 693.236 714.163 692.964 714.541 692.874 Q 730.381 689.154 745.981 684.544 Q 756.351 681.474 764.911 678.124 Q 807.101 661.574 843.011 633.624 Z " fill="rgb(251,132,44)"/><path d=" M 783.301 698.584 Q 760.811 711.494 736.091 719.374 Q 733.741 716.364 730.111 714.424 Q 729.151 713.914 730.151 713.494 Q 769.521 696.774 807.831 677.374 Q 810.681 675.934 812.481 675.864 Q 815.001 675.774 813.131 677.474 Q 799.221 690.174 783.301 698.584 Z " fill="rgb(251,132,44)"/><path d=" M 825.051 559.914 Q 828.471 562.634 829.361 563.064 Q 834.221 565.414 836.321 569.184 C 836.588 569.466 836.66 569.804 836.521 570.124 L 836.341 578.374 Q 835.711 579.384 834.551 579.664 Q 834.171 579.724 834.041 579.374 Q 829.931 568.864 822.081 560.784 C 821.93 560.63 821.631 560.507 821.251 560.444 Q 820.581 560.334 820.801 559.414 Q 823.021 558.724 825.051 559.914 Z " fill="rgb(226,83,71)"/><path d=" M 850.511 587.124 Q 850.411 587.544 850.351 587.964 Q 850.301 588.354 850.451 588.754 Q 856.811 604.914 843.091 615.124 L 840.341 597.254 Q 840.341 597.244 840.481 596.544 L 840.551 596.164 L 850.511 587.124 Z " fill="rgb(226,83,71)"/><path d=" M 864.551 605.334 Q 865.261 605.244 865.491 605.684 Q 866.611 607.864 867.051 611.124 Q 867.501 614.484 872.591 626.124 Q 871.771 629.064 869.941 631.524 Q 858.851 646.374 844.981 658.664 Q 844.901 658.724 843.581 660.034 Q 841.531 662.074 838.551 662.334 L 839.341 656.124 Q 842.981 645.174 843.011 633.624 L 843.841 632.374 Q 855.701 623.444 861.861 610.434 Q 863.501 606.984 864.551 605.334 Z " fill="rgb(226,83,71)"/><path d=" M 840.551 596.164 L 840.481 596.544 Q 840.341 597.244 840.341 597.254 L 843.091 615.124 Q 842.791 615.424 842.801 615.834 Q 842.051 616.004 840.491 617.314 Q 804.721 647.184 759.201 663.694 Q 734.641 672.594 708.531 677.984 C 707.843 678.124 707.154 677.748 706.901 677.094 Q 703.911 669.474 708.441 665.134 Q 710.051 663.594 714.981 661.034 Q 718.431 659.244 722.121 657.964 Q 741.841 651.104 760.051 640.914 Q 773.751 634.504 787.441 628.064 Q 798.551 622.844 805.301 619.074 Q 823.681 608.824 840.551 596.164 Z " fill="rgb(250,132,46)"/><path d=" M 808.801 706.664 Q 806.771 708.284 803.611 709.934 Q 795.161 714.364 786.911 720.834 C 786.712 720.887 786.564 721.007 786.517 721.152 C 786.471 721.297 786.532 721.448 786.681 721.554 Q 786.821 721.744 787.091 721.874 L 786.051 722.584 Q 774.991 725.634 763.641 727.374 Q 762.921 727.484 763.301 727.064 Q 763.431 726.924 763.741 726.814 Q 781.941 720.454 796.611 711.684 Q 802.441 708.204 806.831 706.544 Q 807.171 706.414 807.781 706.514 L 808.801 706.664 Z " fill="rgb(250,132,46)"/><path d=" M 819.051 700.584 Q 819.491 701.534 818.771 702.154 Q 818.281 702.584 818.121 702.864 Q 814.571 709.064 809.241 712.314 Q 799.711 718.104 787.091 721.874 Q 786.821 721.744 786.681 721.554 C 786.532 721.448 786.471 721.297 786.517 721.152 C 786.564 721.007 786.712 720.887 786.911 720.834 Q 795.161 714.364 803.611 709.934 Q 806.771 708.284 808.801 706.664 L 819.051 700.584 Z " fill="rgb(255,168,40)"/><path d=" M 806.301 549.664 Q 807.161 551.454 809.551 552.124 Q 817.761 554.434 825.281 558.414 Q 826.541 559.084 828.051 558.914 Q 828.021 559.124 827.801 559.164 Q 826.341 559.114 825.051 559.914 Q 823.021 558.724 820.801 559.414 Q 815.671 564.334 809.871 568.454 Q 791.261 581.694 770.361 590.924 Q 754.451 597.954 738.031 603.684 Q 737.921 603.724 733.721 605.254 Q 728.791 607.064 723.291 608.234 Q 720.571 608.814 722.961 607.384 Q 732.981 601.374 743.571 596.164 Q 755.131 590.484 766.471 584.374 Q 777.281 578.544 783.511 573.964 Q 794.251 566.064 803.361 555.914 Q 803.901 555.314 803.101 555.204 Q 792.721 553.734 780.371 553.594 Q 778.461 553.574 777.431 555.174 Q 771.331 564.604 762.321 571.754 Q 757.611 575.494 745.821 583.024 Q 728.841 593.854 709.801 601.314 C 709.161 601.563 708.652 602.062 708.391 602.694 Q 702.051 618.104 701.591 634.374 Q 697.301 635.714 692.841 635.124 Q 693.711 620.774 698.511 607.244 Q 698.561 607.084 698.521 606.994 Q 698.461 606.864 698.301 606.834 Q 702.931 596.404 708.811 586.624 Q 709.601 585.304 708.551 584.334 Q 710.321 583.094 710.861 582.434 Q 737.001 550.554 777.801 547.624 Q 789.501 546.784 802.981 549.694 Q 803.841 549.884 804.641 549.824 Q 805.471 549.764 806.301 549.664 Z " fill="rgb(255,197,32)"/><path d=" M 855.551 582.914 L 850.511 587.124 L 840.551 596.164 Q 823.681 608.824 805.301 619.074 Q 798.551 622.844 787.441 628.064 Q 773.751 634.504 760.051 640.914 L 759.181 640.444 C 758.941 640.339 758.638 640.285 758.331 640.294 Q 755.351 641.394 744.241 645.814 Q 722.441 654.484 693.551 658.664 Q 682.121 660.404 670.551 660.524 Q 660.151 660.634 650.611 658.064 Q 646.601 656.984 643.321 654.494 Q 639.751 651.784 638.511 648.284 Q 636.921 643.774 639.001 638.814 Q 639.751 637.044 640.661 635.344 Q 641.501 633.794 642.831 632.204 Q 654.451 618.294 671.491 607.064 Q 693.461 592.574 708.551 584.334 Q 709.601 585.304 708.811 586.624 Q 702.931 596.404 698.301 606.834 Q 688.411 613.014 680.521 621.584 Q 678.291 624.004 677.281 627.044 Q 676.601 629.124 677.341 630.674 Q 678.211 632.494 680.251 633.394 Q 686.281 636.074 692.841 635.124 Q 697.301 635.714 701.591 634.374 Q 710.361 633.974 718.551 630.834 Q 720.041 631.884 722.051 631.374 Q 753.151 623.494 781.051 611.124 Q 783.751 609.924 785.301 608.914 Q 796.451 604.124 806.331 597.104 C 806.614 596.907 806.825 596.643 806.941 596.344 Q 808.471 592.904 811.151 590.364 Q 812.791 588.834 815.061 588.734 Q 817.441 588.624 819.811 589.034 C 820.125 589.083 820.448 589.015 820.711 588.844 Q 825.301 585.704 829.611 582.184 Q 831.361 580.764 834.551 579.664 Q 835.711 579.384 836.341 578.374 Q 841.181 575.474 844.801 571.164 Q 849.151 567.454 850.741 562.814 Q 851.411 560.834 850.531 559.244 Q 849.821 557.954 847.911 557.374 Q 843.811 556.134 839.051 556.874 Q 831.711 558.014 828.051 558.914 Q 826.541 559.084 825.281 558.414 Q 817.761 554.434 809.551 552.124 Q 807.161 551.454 806.301 549.664 Q 826.281 542.454 845.361 539.684 Q 850.581 538.934 856.661 539.064 Q 863.991 539.234 867.761 540.744 Q 875.301 543.764 875.261 552.064 Q 875.241 557.154 872.021 563.064 Q 869.281 568.084 865.301 572.624 Q 859.951 578.734 855.551 582.914 Z " fill="rgb(254,230,43)"/><path d=" M 720.741 582.304 Q 726.051 576.094 732.611 571.214 Q 742.651 563.734 753.321 558.454 Q 754.881 557.684 754.241 559.304 Q 751.771 565.584 746.761 570.074 Q 733.941 581.564 717.451 587.244 Q 716.771 587.474 717.181 586.894 Q 718.881 584.474 720.741 582.304 Z " fill="rgb(251,132,44)"/><path d=" M 766.471 736.424 Q 764.601 735.564 766.571 734.954 Q 778.051 731.444 789.111 725.934 Q 793.471 723.764 801.411 719.414 Q 807.271 716.204 813.421 712.414 Q 826.461 704.374 839.391 696.164 Q 856.531 685.294 870.831 671.934 Q 871.911 670.924 871.551 672.354 Q 869.501 680.604 863.791 686.854 Q 850.311 701.604 830.861 714.184 Q 816.241 723.644 800.741 731.554 Q 790.651 736.694 782.991 738.314 Q 774.401 740.114 766.471 736.424 Z " fill="rgb(226,83,71)"/><path d=" M 850.317 711.223 C 849.822 710.659 852.311 707.661 855.873 704.532 C 859.435 701.403 862.729 699.32 863.224 699.884 C 863.719 700.448 861.23 703.446 857.668 706.575 C 854.106 709.704 850.813 711.787 850.317 711.223 Z " fill="rgb(226,83,71)"/></g></g></svg>