<?xml version="1.0" encoding="UTF-8" standalone="no"?><!-- Generator: Gravit.io --><svg xmlns="http://www.w3.org/2000/svg" xmlns:xlink="http://www.w3.org/1999/xlink" style="isolation:isolate" viewBox="687.572 417.827 212.857 119.013" width="212.857pt" height="119.013pt"><defs><clipPath id="_clipPath_3OLkHPFIa1KbQbBmvDyan5VLfTbpr7ap"><rect x="687.572" y="417.827" width="212.857" height="119.013"/></clipPath></defs><g clip-path="url(#_clipPath_3OLkHPFIa1KbQbBmvDyan5VLfTbpr7ap)"><path d=" M 856.602 475.552 Q 855.931 476.082 853.861 475.692 Q 854.361 462.882 848.361 451.692 Q 838.951 432.692 819.282 424.712 Q 813.391 422.322 807.071 421.932 Q 780.381 419.232 762.251 437.812 Q 759.662 440.462 759.491 440.662 Q 758.081 442.352 757.631 444.252 Q 756.532 448.922 755.841 455.012 Q 755.191 460.702 755.671 465.892 Q 756.701 477.002 760.311 487.772 Q 754.751 488.402 749.321 487.152 Q 747.991 476.132 749.861 465.192 Q 751.691 455.562 755.511 444.882 Q 755.972 443.582 754.571 443.652 Q 763.491 428.872 779.571 422.402 Q 804.472 412.472 826.111 424.092 Q 834.912 428.812 841.691 436.462 Q 856.011 452.592 856.602 475.552 Z " fill="rgb(77,178,91)"/><path d=" M 807.071 421.932 Q 813.391 422.322 819.282 424.712 Q 838.951 432.692 848.361 451.692 Q 846.941 451.022 846.151 449.742 Q 845.011 447.872 844.591 447.412 Q 842.722 445.362 841.571 443.442 Q 839.871 440.592 837.521 438.662 Q 835.352 436.882 833.901 435.382 Q 832.181 433.582 830.071 432.232 L 829.421 431.542 C 829.225 431.376 828.915 431.261 828.561 431.222 Q 827.561 431.162 826.511 430.252 Q 824.901 428.862 818.381 426.132 Q 813.091 423.912 806.541 424.742 Q 803.511 425.122 802.631 427.752 Q 801.541 431.042 804.201 433.562 Q 806.791 435.992 808.631 436.882 Q 818.551 441.632 829.271 444.672 Q 830.591 445.042 831.951 445.142 Q 837.491 445.562 837.361 440.692 Q 839.461 442.512 841.301 444.582 Q 843.021 446.502 843.891 449.322 Q 846.102 456.442 846.571 458.692 Q 847.941 465.342 842.701 470.572 Q 830.381 482.882 811.381 486.752 Q 803.951 488.272 797.611 486.792 Q 790.981 485.242 785.541 481.032 Q 780.032 476.762 777.852 470.062 Q 776.141 464.812 776.921 457.182 Q 778.151 445.132 783.761 433.882 Q 790.821 419.712 807.071 421.932 Z " fill="rgb(200,240,48)"/><path d=" M 830.071 432.232 Q 834.231 436.032 837.361 440.692 Q 837.491 445.562 831.951 445.142 Q 830.591 445.042 829.271 444.672 Q 818.551 441.632 808.631 436.882 Q 806.791 435.992 804.201 433.562 Q 801.541 431.042 802.631 427.752 Q 803.511 425.122 806.541 424.742 Q 813.091 423.912 818.381 426.132 Q 824.901 428.862 826.511 430.252 Q 827.561 431.162 828.561 431.222 C 828.915 431.261 829.225 431.376 829.421 431.542 L 830.071 432.232 Z " fill="rgb(240,243,42)"/><path d=" M 721.571 475.732 L 732.571 475.152 Q 737.491 474.712 742.381 475.312 C 742.689 475.355 742.938 475.573 743.011 475.862 Q 744.111 480.432 739.321 478.942 Q 738.181 478.582 736.931 479.012 Q 735.461 479.522 734.731 479.542 Q 726.331 479.802 716.981 479.682 Q 715.441 479.652 716.311 478.382 Q 717.901 476.052 721.571 475.732 Z " fill="rgb(169,225,57)"/><path d=" M 751.321 495.482 Q 755.081 508.362 764.011 516.002 Q 772.551 523.312 780.261 526.502 Q 787.951 529.692 798.321 530.192 Q 819.451 531.212 835.511 519.852 Q 838.191 517.952 841.611 514.452 Q 844.451 511.542 847.321 508.652 Q 848.251 508.512 848.111 509.442 Q 839.941 522.002 827.071 529.652 Q 805.222 541.202 782.071 534.192 Q 755.061 526.022 745.282 498.942 L 745.071 496.732 Q 745.631 495.002 747.311 495.082 Q 748.641 495.142 748.852 495.132 Q 750.111 495.092 751.321 495.482 Z " fill="rgb(114,224,142)"/><path d=" M 751.321 495.482 Q 759.981 495.942 768.071 498.982 Q 768.651 500.992 766.821 500.942 Q 763.071 500.832 759.881 502.152 Q 757.801 503.012 759.311 504.682 Q 763.722 509.542 768.421 505.042 Q 770.011 503.522 771.532 505.192 Q 784.311 517.342 801.821 520.152 L 807.852 521.142 Q 827.181 521.262 841.861 508.522 Q 843.222 508.862 845.011 508.132 Q 846.222 507.632 847.321 508.652 Q 844.451 511.542 841.611 514.452 Q 838.191 517.952 835.511 519.852 Q 819.451 531.212 798.321 530.192 Q 787.951 529.692 780.261 526.502 Q 772.551 523.312 764.011 516.002 Q 755.081 508.362 751.321 495.482 Z " fill="rgb(74,165,87)"/><path d=" M 768.071 498.982 Q 774.681 499.812 781.311 500.562 Q 784.151 500.882 781.881 501.752 Q 778.841 502.922 773.321 502.252 C 773.002 502.228 772.691 502.348 772.491 502.572 Q 771.602 503.692 771.532 505.192 Q 770.011 503.522 768.421 505.042 Q 763.722 509.542 759.311 504.682 Q 757.801 503.012 759.881 502.152 Q 763.071 500.832 766.821 500.942 Q 768.651 500.992 768.071 498.982 Z " fill="rgb(144,212,75)"/><path d=" M 743.782 470.992 L 743.861 471.942 L 743.282 480.692 Q 733.981 480.102 726.631 481.752 Q 724.981 482.132 725.722 483.002 Q 726.011 483.342 726.662 483.582 Q 735.061 486.742 744.041 487.162 L 749.321 487.152 Q 754.751 488.402 760.311 487.772 Q 761.191 489.502 763.071 489.692 Q 773.331 490.752 780.191 492.002 Q 780.331 492.032 781.591 492.152 Q 783.811 492.362 783.162 494.652 C 783.082 494.923 782.81 495.097 782.521 495.062 Q 767.961 493.052 753.391 491.072 Q 750.381 490.662 747.341 490.632 Q 742.961 490.582 741.311 490.392 Q 727.891 488.852 715.472 483.552 Q 712.841 482.432 712.291 480.652 Q 711.352 477.662 716.021 476.312 Q 718.521 475.032 721.571 475.732 Q 717.901 476.052 716.311 478.382 Q 715.441 479.652 716.981 479.682 Q 726.331 479.802 734.731 479.542 Q 735.461 479.522 736.931 479.012 Q 738.181 478.582 739.321 478.942 Q 744.111 480.432 743.011 475.862 C 742.938 475.573 742.689 475.355 742.381 475.312 Q 737.491 474.712 732.571 475.152 Q 723.311 473.862 714.071 474.902 Q 703.881 474.552 694.581 478.382 Q 692.711 479.152 692.141 480.222 Q 691.162 482.062 693.521 483.732 Q 696.541 485.882 699.941 487.232 Q 701.511 487.862 706.841 489.512 Q 718.771 493.192 731.261 494.262 Q 738.282 494.872 745.071 496.732 L 745.282 498.942 Q 733.852 497.972 722.581 495.892 Q 712.711 494.082 708.091 492.892 Q 700.901 491.032 694.071 488.012 Q 690.511 486.442 688.571 483.942 Q 687.211 482.192 687.701 480.172 Q 688.061 478.642 689.681 477.252 Q 692.371 474.962 695.861 474.192 Q 698.561 473.602 698.751 473.552 Q 701.131 472.942 703.571 472.662 Q 723.611 470.352 743.782 470.992 Z " fill="rgb(72,157,71)"/><path d=" M 852.071 480.152 L 852.821 480.732 Q 850.991 484.052 847.852 486.202 Q 847.301 486.572 846.821 486.492 Q 845.811 486.332 846.631 485.002 Q 848.311 482.302 852.071 480.152 Z " fill="rgb(72,157,71)"/><path d=" M 856.201 481.512 Q 859.941 482.082 870.131 484.632 Q 884.741 488.282 894.011 493.252 Q 895.511 494.062 897.511 495.722 Q 900.931 498.572 900.341 502.892 C 900.307 503.21 900.155 503.509 899.912 503.742 Q 896.222 507.522 890.852 508.162 Q 889.571 508.322 888.291 508.452 Q 868.831 510.582 849.321 508.902 Q 848.871 507.382 849.821 506.232 Q 859.282 506.682 877.071 506.692 Q 886.651 506.702 894.551 503.092 C 894.861 502.957 895.085 502.708 895.162 502.412 Q 896.291 498.392 892.071 495.942 Q 884.201 491.372 879.111 489.822 Q 870.331 487.152 861.211 485.422 Q 860.521 485.292 861.211 485.162 Q 862.691 484.902 860.071 484.942 Q 858.941 484.962 856.071 483.402 Q 855.032 481.702 856.201 481.512 Z " fill="rgb(72,157,71)"/><path d=" M 807.852 521.142 L 801.821 520.152 Q 800.241 514.732 803.111 510.412 C 803.622 509.659 804.548 509.293 805.441 509.492 Q 808.341 510.162 810.511 511.322 Q 812.391 512.342 812.631 513.872 Q 812.901 515.582 811.631 517.502 Q 809.841 520.232 807.852 521.142 Z " fill="rgb(195,233,57)"/><path d=" M 745.611 463.942 Q 747.361 464.652 748.571 464.442 Q 749.841 464.222 749.861 465.192 Q 747.991 476.132 749.321 487.152 L 744.041 487.162 L 743.282 480.692 L 743.861 471.942 L 745.282 464.942 L 745.611 463.942 Z " fill="rgb(143,223,123)"/><path d=" M 754.571 443.652 Q 755.972 443.582 755.511 444.882 Q 751.691 455.562 749.861 465.192 Q 749.841 464.222 748.571 464.442 Q 747.361 464.652 745.611 463.942 Q 748.222 452.962 754.571 443.652 Z " fill="rgb(110,206,128)"/><path d=" M 745.282 464.942 L 743.861 471.942 L 743.782 470.992 Q 743.961 469.802 743.821 468.952 Q 743.691 468.162 742.701 467.412 Q 739.321 464.842 736.921 461.362 Q 736.141 460.222 736.421 459.362 Q 736.771 458.262 738.261 458.232 C 738.594 458.241 738.907 458.363 739.131 458.572 L 745.282 464.942 Z " fill="rgb(114,196,82)"/><path d=" M 856.201 481.512 Q 855.032 481.702 856.071 483.402 Q 854.801 483.352 855.111 482.402 C 855.709 482.14 855.736 481.721 855.171 481.462 Q 854.571 479.962 852.821 480.732 L 852.071 480.152 Q 854.131 478.412 853.861 475.692 Q 855.931 476.082 856.602 475.552 L 860.981 472.062 C 861.233 471.875 861.548 471.759 861.881 471.732 Q 863.641 471.752 863.481 473.232 Q 863.401 473.992 862.731 474.882 Q 860.791 477.452 857.631 479.002 Q 856.621 479.502 856.201 481.512 Z " fill="rgb(114,196,82)"/><path d=" M 732.571 475.152 L 721.571 475.732 Q 718.521 475.032 716.021 476.312 Q 716.421 474.312 714.071 474.902 Q 723.311 473.862 732.571 475.152 Z " fill="rgb(114,196,82)"/><path d=" M 849.821 506.232 Q 848.871 507.382 849.321 508.902 L 848.111 509.442 Q 848.251 508.512 847.321 508.652 Q 846.222 507.632 845.011 508.132 Q 843.222 508.862 841.861 508.522 L 828.951 507.702 C 828.251 507.744 827.602 508.02 827.162 508.462 Q 823.931 511.762 820.321 512.812 Q 819.791 512.962 819.311 512.942 Q 817.821 512.862 818.691 511.932 Q 818.931 511.672 819.421 511.442 Q 823.131 509.722 826.222 506.082 C 826.574 505.668 827.096 505.436 827.641 505.452 L 849.821 506.232 Z " fill="rgb(114,196,82)"/><path d=" M 832.491 454.362 Q 835.201 450.322 840.921 450.972 C 841.615 451.049 842.252 451.389 842.701 451.922 Q 844.191 453.662 844.852 455.642 Q 845.511 457.582 844.811 459.742 Q 842.671 466.352 835.581 464.842 Q 832.771 464.242 831.621 462.092 Q 829.701 458.502 832.491 454.362 Z " fill="rgb(240,243,42)"/><path d=" M 817.381 506.052 Q 817.801 506.092 817.472 506.362 Q 815.481 507.982 812.921 508.112 Q 812.821 508.122 808.222 507.772 Q 803.441 507.412 798.671 506.922 Q 798.602 506.912 794.441 506.602 Q 791.461 506.382 789.701 505.642 Q 786.722 504.392 789.951 504.422 Q 804.011 504.552 817.381 506.052 Z " fill="rgb(72,157,71)"/><path d=" M 807.071 421.932 Q 790.821 419.712 783.761 433.882 Q 778.151 445.132 776.921 457.182 Q 776.141 464.812 777.852 470.062 Q 780.032 476.762 785.541 481.032 Q 790.981 485.242 797.611 486.792 Q 803.951 488.272 811.381 486.752 Q 830.381 482.882 842.701 470.572 Q 847.941 465.342 846.571 458.692 Q 846.102 456.442 843.891 449.322 Q 843.021 446.502 841.301 444.582 Q 839.461 442.512 837.361 440.692 Q 834.231 436.032 830.071 432.232 Q 832.181 433.582 833.901 435.382 Q 835.352 436.882 837.521 438.662 Q 839.871 440.592 841.571 443.442 Q 842.722 445.362 844.591 447.412 Q 845.011 447.872 846.151 449.742 Q 846.941 451.022 848.361 451.692 Q 854.361 462.882 853.861 475.692 Q 854.131 478.412 852.071 480.152 Q 848.311 482.302 846.631 485.002 Q 845.811 486.332 846.821 486.492 Q 847.301 486.572 847.852 486.202 Q 850.991 484.052 852.821 480.732 Q 854.571 479.962 855.171 481.462 C 855.736 481.721 855.709 482.14 855.111 482.402 Q 854.801 483.352 856.071 483.402 Q 858.941 484.962 860.071 484.942 Q 862.691 484.902 861.211 485.162 Q 860.521 485.292 861.211 485.422 Q 870.331 487.152 879.111 489.822 Q 884.201 491.372 892.071 495.942 Q 896.291 498.392 895.162 502.412 C 895.085 502.708 894.861 502.957 894.551 503.092 Q 886.651 506.702 877.071 506.692 Q 859.282 506.682 849.821 506.232 L 827.641 505.452 C 827.096 505.436 826.574 505.668 826.222 506.082 Q 823.131 509.722 819.421 511.442 Q 818.931 511.672 818.691 511.932 Q 817.821 512.862 819.311 512.942 Q 819.791 512.962 820.321 512.812 Q 823.931 511.762 827.162 508.462 C 827.602 508.02 828.251 507.744 828.951 507.702 L 841.861 508.522 Q 827.181 521.262 807.852 521.142 Q 809.841 520.232 811.631 517.502 Q 812.901 515.582 812.631 513.872 Q 812.391 512.342 810.511 511.322 Q 808.341 510.162 805.441 509.492 C 804.548 509.293 803.622 509.659 803.111 510.412 Q 800.241 514.732 801.821 520.152 Q 784.311 517.342 771.532 505.192 Q 771.602 503.692 772.491 502.572 C 772.691 502.348 773.002 502.228 773.321 502.252 Q 778.841 502.922 781.881 501.752 Q 784.151 500.882 781.311 500.562 Q 774.681 499.812 768.071 498.982 Q 759.981 495.942 751.321 495.482 Q 750.111 495.092 748.852 495.132 Q 748.641 495.142 747.311 495.082 Q 745.631 495.002 745.071 496.732 Q 738.282 494.872 731.261 494.262 Q 718.771 493.192 706.841 489.512 Q 701.511 487.862 699.941 487.232 Q 696.541 485.882 693.521 483.732 Q 691.162 482.062 692.141 480.222 Q 692.711 479.152 694.581 478.382 Q 703.881 474.552 714.071 474.902 Q 716.421 474.312 716.021 476.312 Q 711.352 477.662 712.291 480.652 Q 712.841 482.432 715.472 483.552 Q 727.891 488.852 741.311 490.392 Q 742.961 490.582 747.341 490.632 Q 750.381 490.662 753.391 491.072 Q 767.961 493.052 782.521 495.062 C 782.81 495.097 783.082 494.923 783.162 494.652 Q 783.811 492.362 781.591 492.152 Q 780.331 492.032 780.191 492.002 Q 773.331 490.752 763.071 489.692 Q 761.191 489.502 760.311 487.772 Q 756.701 477.002 755.671 465.892 Q 755.191 460.702 755.841 455.012 Q 756.532 448.922 757.631 444.252 Q 758.081 442.352 759.491 440.662 Q 759.662 440.462 762.251 437.812 Q 780.381 419.232 807.071 421.932 Z  M 859.782 491.912 C 869.226 492.948 873.308 494.32 872 496 C 866.63 498.238 860.57 498.675 853.761 497.252 Q 852.591 497.142 852.611 495.942 Q 854.321 493.622 853.961 490.742 C 853.948 490.634 853.989 490.526 854.071 490.454 C 854.153 490.382 854.266 490.355 854.371 490.382 L 859.782 491.912 Z " fill-rule="evenodd" fill="rgb(169,225,57)"/><path d=" M 874.361 495.442 C 874.122 496.803 872.452 497.243 869.321 496.732 C 871.285 494.342 865.18 493.467 859.491 492 Q 853.803 490.533 854.371 490.382 C 854.266 490.355 854.153 490.382 854.071 490.454 C 853.989 490.526 853.948 490.634 853.961 490.742 Q 854.321 493.622 852.611 495.942 Q 852.691 495.452 852.361 495.192 Q 852.162 493.272 853.261 491.822 C 853.452 491.569 853.535 491.254 853.491 490.942 Q 853.241 488.932 854.282 487.342 C 854.451 487.127 854.753 487.035 855.032 487.112 Q 856.751 487.702 858.521 487.362 Q 859.051 487.262 859.491 487.402 Q 864.191 488.832 868.571 491.072 Q 868.641 491.112 870.771 492.022 Q 873.141 493.032 874.361 495.442 Z " fill="rgb(72,157,71)"/><path d=" M 852.361 495.192 Q 852.691 495.452 852.611 495.942 Q 852.591 497.142 853.761 497.252 Q 859.671 497.802 865.571 497.152 Q 868.861 497.042 872.501 495.752 Q 873.481 496.402 874.361 495.442 Q 875.441 496.782 873.782 497.442 Q 868.391 499.592 862.701 500.102 Q 860.611 500.282 851.431 500.102 Q 824.191 499.582 805.571 497.192 Q 795.501 495.902 790.941 495.512 Q 790.771 495.492 789.251 495.662 Q 787.621 495.832 787.861 493.252 C 787.893 492.909 788.187 492.65 788.532 492.662 Q 797.841 492.982 806.321 493.902 Q 828.891 496.352 851.581 496.192 C 851.944 496.178 852.25 496.012 852.341 495.782 Q 852.421 495.532 852.361 495.192 Z " fill="rgb(72,157,71)"/></g></svg>