<?xml version="1.0" encoding="UTF-8" standalone="no"?><!-- Generator: Gravit.io --><svg xmlns="http://www.w3.org/2000/svg" xmlns:xlink="http://www.w3.org/1999/xlink" style="isolation:isolate" viewBox="156.066 214.928 185.268 187.691" width="185.268pt" height="187.691pt"><defs><clipPath id="_clipPath_L5ihrBeIcQEqu89p0Y7eBiIblUFB0edi"><rect x="156.066" y="214.928" width="185.268" height="187.691"/></clipPath></defs><g clip-path="url(#_clipPath_L5ihrBeIcQEqu89p0Y7eBiIblUFB0edi)"><g><path d=" M 255.589 215.204 Q 254.869 215.954 255.359 216.454 C 255.609 216.627 255.677 216.927 255.519 217.164 Q 254.699 218.734 255.329 220.394 C 255.421 220.504 255.444 220.644 255.391 220.769 C 255.337 220.895 255.213 220.99 255.059 221.024 L 251.589 221.624 L 246.379 222.414 Q 244.079 221.964 241.839 222.704 Q 233.639 223.414 226.089 226.704 L 217.839 229.874 Q 214.459 231.194 211.839 233.704 Q 208.509 234.224 206.089 236.624 Q 194.879 243.164 187.549 253.914 Q 184.169 256.764 182.049 260.664 Q 169.579 277.574 166.299 298.414 Q 164.899 303.594 165.379 308.914 Q 163.699 323.134 168.129 336.664 Q 167.979 338.534 168.839 340.204 Q 169.869 345.284 172.089 349.954 Q 172.429 354.934 175.889 358.464 C 176.012 358.544 176.183 358.571 176.339 358.534 L 176.589 358.454 Q 176.579 360.654 177.879 362.414 Q 178.969 365.024 181.529 366.974 Q 182.529 367.744 183.549 367.164 L 187.299 374.664 Q 187.449 376.054 189.149 377.854 Q 194.509 383.514 200.589 385.454 Q 201.189 385.894 200.329 386.404 Q 199.139 387.104 198.089 387.954 Q 172.559 371.324 162.399 344.104 Q 151.329 314.414 159.609 283.764 Q 162.259 273.974 166.789 265.124 Q 183.879 231.734 220.589 219.414 Q 237.259 213.814 255.589 215.204 Z " fill="rgb(215,231,105)"/><path d=" M 255.589 215.204 Q 267.899 216.054 279.549 220.164 Q 291.709 224.734 302.339 232.204 L 302.089 233.374 L 301.839 233.374 Q 299.009 230.414 295.339 229.664 Q 294.659 229.524 294.089 230.204 Q 292.629 229.654 291.089 230.124 Q 291.999 229.614 291.529 228.724 Q 290.119 226.104 287.089 226.954 Q 280.379 223.554 272.839 223.454 L 267.339 222.704 Q 263.339 221.094 259.089 221.704 L 253.089 221.954 L 251.589 221.624 L 255.059 221.024 C 255.213 220.99 255.337 220.895 255.391 220.769 C 255.444 220.644 255.421 220.504 255.329 220.394 Q 254.699 218.734 255.519 217.164 C 255.677 216.927 255.609 216.627 255.359 216.454 Q 254.869 215.954 255.589 215.204 Z " fill="rgb(194,220,111)"/><path d=" M 259.089 221.704 Q 258.639 222.324 258.139 222.914 Q 257.629 223.524 257.329 224.164 Q 251.519 236.704 246.839 252.914 Q 242.369 268.404 234.129 287.914 Q 230.329 294.584 223.529 301.104 Q 214.589 309.674 205.409 314.744 Q 195.289 320.344 185.649 326.724 Q 179.939 330.504 175.549 337.414 Q 173.349 341.564 168.839 340.204 Q 167.979 338.534 168.129 336.664 Q 168.699 336.624 169.089 336.204 Q 174.189 330.214 177.779 324.604 Q 178.649 323.244 179.879 322.664 Q 200.159 308.384 215.149 291.474 Q 230.029 274.704 237.399 252.224 Q 239.009 247.314 243.129 236.664 L 245.629 230.414 Q 247.279 227.434 250.899 223.224 Q 251.949 222.014 253.089 221.954 L 259.089 221.704 Z " fill="rgb(100,167,73)"/><path d=" M 251.589 221.624 L 253.089 221.954 Q 251.949 222.014 250.899 223.224 Q 247.279 227.434 245.629 230.414 Q 245.669 229.924 245.349 229.934 Q 245.189 229.934 244.999 230.134 Q 242.789 232.374 241.229 235.134 Q 240.549 236.344 240.629 235.424 Q 240.649 235.244 240.739 235.054 Q 243.779 228.834 246.379 222.414 L 251.589 221.624 Z " fill="rgb(138,191,55)"/><path d=" M 241.839 222.704 Q 235.659 233.514 230.839 247.164 Q 230.509 248.104 231.339 248.204 Q 230.489 250.034 229.899 250.474 Q 225.859 253.494 222.379 257.164 Q 222.119 255.324 222.739 253.584 Q 223.999 250.084 224.579 246.494 Q 224.829 244.954 223.909 246.214 Q 220.819 250.464 219.739 255.594 Q 219.059 258.794 218.149 261.934 Q 217.989 262.494 218.589 262.454 L 217.799 263.664 Q 215.389 265.004 212.589 268.164 Q 207.079 274.384 201.589 280.624 Q 198.419 281.994 197.299 285.164 Q 191.529 295.284 185.939 305.494 Q 181.999 312.694 179.089 320.374 Q 172.349 326.434 169.149 330.224 Q 166.709 333.124 169.089 336.204 Q 168.699 336.624 168.129 336.664 Q 163.699 323.134 165.379 308.914 Q 166.909 307.444 168.339 304.164 Q 174.239 290.644 185.399 268.724 Q 191.699 256.354 204.159 244.344 Q 206.289 242.284 207.929 239.554 Q 209.739 236.544 211.839 233.704 Q 214.459 231.194 217.839 229.874 Q 218.659 230.534 217.899 231.724 Q 214.599 236.944 210.919 240.174 Q 210.869 240.224 208.249 242.094 Q 206.519 243.324 205.299 245.114 Q 194.799 260.644 185.839 277.084 Q 183.789 280.864 182.799 283.514 Q 181.559 286.864 180.769 290.364 Q 180.289 292.524 181.309 290.564 Q 191.359 271.104 204.539 253.114 Q 208.249 248.034 214.339 241.334 Q 219.499 235.654 224.529 229.854 Q 226.119 228.014 226.089 226.704 Q 233.639 223.414 241.839 222.704 Z " fill="rgb(138,191,55)"/><path d=" M 294.089 230.204 Q 293.129 231.754 290.149 234.974 Q 285.209 240.324 279.129 249.164 L 276.339 244.704 Q 276.839 244.734 276.799 244.414 Q 279.699 240.464 284.779 234.854 Q 287.699 231.624 291.089 230.124 Q 292.629 229.654 294.089 230.204 Z " fill="rgb(136,153,69)"/><path d=" M 302.339 232.204 Q 332.039 252.584 339.339 287.914 Q 343.909 310.034 338.009 332.144 Q 331.329 357.164 313.639 375.094 Q 306.659 382.164 298.139 387.664 Q 268.259 406.934 231.339 401.374 Q 213.399 397.874 198.089 387.954 Q 199.139 387.104 200.329 386.404 Q 201.189 385.894 200.589 385.454 Q 201.139 385.334 201.549 384.914 Q 202.709 387.194 205.339 387.624 Q 208.009 388.914 210.529 390.474 Q 215.029 393.254 220.339 392.874 Q 221.539 394.364 223.299 394.514 Q 226.249 394.774 226.339 394.794 Q 228.809 395.344 231.339 395.374 L 233.339 395.624 Q 245.099 396.624 256.839 395.414 Q 260.719 395.014 264.339 393.624 L 272.339 391.624 Q 276.179 391.304 279.339 389.124 Q 304.709 379.454 319.279 357.604 Q 337.649 330.034 334.549 295.914 Q 333.959 287.954 331.339 279.414 Q 331.009 278.344 330.379 277.914 Q 329.879 274.354 328.339 271.124 Q 325.389 262.524 320.049 255.164 L 316.629 249.914 Q 314.859 247.274 312.339 245.374 Q 309.209 241.504 305.339 238.374 Q 305.199 234.884 302.089 233.374 L 302.339 232.204 Z " fill="rgb(121,195,88)"/><path d=" M 274.629 241.164 Q 276.779 241.684 276.339 244.164 Q 276.279 244.514 276.799 244.414 Q 276.839 244.734 276.339 244.704 Q 274.229 243.674 274.499 245.674 Q 274.569 246.214 274.399 246.634 L 273.879 247.914 Q 273.839 247.084 273.399 247.724 Q 267.589 256.204 264.739 263.014 Q 258.949 276.804 253.299 290.664 Q 248.249 305.584 239.779 314.604 Q 225.379 329.914 202.789 343.834 Q 189.509 352.014 177.879 362.414 Q 176.579 360.654 176.589 358.454 Q 180.249 354.294 184.739 351.054 Q 194.899 343.714 213.029 331.354 Q 219.659 326.824 226.329 321.024 Q 233.339 314.914 237.979 308.954 Q 246.629 297.864 252.899 283.224 Q 260.739 264.934 262.649 260.974 Q 267.719 250.514 274.629 241.164 Z " fill="rgb(114,158,75)"/><path d=" M 270.549 257.414 Q 271.129 259.304 273.049 258.914 Q 272.969 259.574 272.629 260.164 Q 265.859 273.764 260.609 288.044 Q 257.499 296.504 253.479 304.574 Q 242.789 326.024 223.709 340.554 Q 215.189 347.034 206.649 353.474 Q 194.989 362.264 187.299 374.664 L 183.549 367.164 Q 192.139 357.974 200.399 351.974 Q 216.839 340.054 227.189 331.524 Q 232.799 326.904 237.239 321.254 Q 240.919 316.574 245.479 309.594 Q 251.059 301.064 254.629 291.414 Q 258.049 284.034 262.649 272.974 Q 265.799 265.404 270.549 257.414 Z " fill="rgb(114,158,75)"/><path d=" M 206.089 236.624 Q 206.079 238.524 204.629 239.954 Q 196.819 247.674 189.329 255.704 Q 188.109 257.004 187.169 258.794 Q 186.289 260.484 185.289 262.114 Q 185.039 262.524 184.639 262.614 Q 184.089 262.734 184.369 262.144 Q 185.959 258.784 186.779 257.354 Q 187.729 255.694 187.549 253.914 Q 194.879 243.164 206.089 236.624 Z " fill="rgb(157,197,62)"/><path d=" M 182.049 260.664 Q 182.249 261.674 181.529 263.354 Q 180.979 264.624 179.519 269.054 Q 178.569 271.934 177.289 274.634 Q 172.229 285.264 168.529 294.104 Q 167.909 295.574 167.599 297.594 C 167.768 297.901 167.58 298.234 167.139 298.404 Q 166.729 298.604 166.299 298.414 Q 169.579 277.574 182.049 260.664 Z " fill="rgb(157,197,62)"/><path d=" M 301.839 233.374 L 302.089 233.374 Q 305.199 234.884 305.339 238.374 Q 302.789 242.254 298.029 248.604 Q 292.859 255.484 293.629 264.414 Q 294.059 265.054 294.839 265.204 Q 293.169 265.184 292.529 266.854 Q 291.689 269.054 289.789 272.134 Q 283.709 282.034 279.229 292.754 Q 274.759 303.454 269.179 313.584 Q 260.719 328.944 259.569 331.114 Q 246.839 355.314 231.799 378.164 L 229.799 380.664 Q 214.069 386.284 210.089 387.414 Q 209.229 387.654 205.339 387.624 Q 202.709 387.194 201.549 384.914 Q 209.919 374.684 220.279 364.104 Q 228.419 355.794 235.889 346.014 Q 235.999 345.864 242.129 338.124 Q 247.429 331.424 251.779 323.354 Q 263.469 301.634 272.049 280.914 L 272.089 281.264 Q 272.119 281.644 272.359 281.324 Q 278.869 272.634 280.799 261.914 Q 280.839 260.664 281.899 258.724 Q 290.119 243.814 301.839 233.374 Z " fill="rgb(101,166,77)"/><path d=" M 217.799 263.664 Q 216.689 265.754 217.999 267.544 C 218.285 267.927 218.301 268.445 218.039 268.844 Q 215.949 272.004 217.379 275.414 Q 205.039 294.604 188.899 310.724 Q 185.809 313.814 180.799 320.414 L 179.089 320.374 Q 181.999 312.694 185.939 305.494 Q 191.529 295.284 197.299 285.164 Q 200.859 289.984 203.339 284.164 Q 204.689 280.994 201.589 280.624 Q 207.079 274.384 212.589 268.164 Q 215.389 265.004 217.799 263.664 Z " fill="rgb(101,166,77)"/><path d=" M 301.839 233.374 Q 290.119 243.814 281.899 258.724 Q 280.839 260.664 280.799 261.914 Q 280.289 262.014 280.049 261.684 Q 279.889 261.464 279.949 261.004 Q 280.629 255.774 278.049 251.164 L 279.129 249.164 Q 285.209 240.324 290.149 234.974 Q 293.129 231.754 294.089 230.204 Q 294.659 229.524 295.339 229.664 Q 299.009 230.414 301.839 233.374 Z " fill="rgb(253,201,43)"/><path d=" M 272.629 260.164 Q 272.599 267.544 272.589 274.914 Q 272.579 278.924 272.049 280.914 Q 263.469 301.634 251.779 323.354 Q 247.429 331.424 242.129 338.124 Q 235.999 345.864 235.889 346.014 Q 228.419 355.794 220.279 364.104 Q 209.919 374.684 201.549 384.914 Q 201.139 385.334 200.589 385.454 Q 194.509 383.514 189.149 377.854 Q 187.449 376.054 187.299 374.664 Q 194.989 362.264 206.649 353.474 Q 215.189 347.034 223.709 340.554 Q 242.789 326.024 253.479 304.574 Q 257.499 296.504 260.609 288.044 Q 265.859 273.764 272.629 260.164 Z " fill="rgb(253,201,43)"/><path d=" M 294.839 265.204 Q 295.199 268.424 293.899 269.474 Q 286.649 275.384 286.629 284.914 Q 284.739 292.504 281.549 299.664 L 271.049 321.664 Q 270.229 320.894 270.029 319.724 Q 269.359 315.904 267.089 319.414 Q 263.779 324.534 263.589 330.624 Q 262.959 332.674 262.729 334.794 Q 262.409 337.684 262.069 338.974 Q 258.459 353.094 252.649 366.474 Q 252.179 367.564 251.089 368.954 Q 245.879 370.684 241.089 373.374 L 238.839 374.874 L 236.339 376.954 Q 234.449 377.624 232.839 378.854 Q 232.429 379.164 232.129 379.114 Q 231.599 379.014 231.799 378.164 Q 246.839 355.314 259.569 331.114 Q 260.719 328.944 269.179 313.584 Q 274.759 303.454 279.229 292.754 Q 283.709 282.034 289.789 272.134 Q 291.689 269.054 292.529 266.854 Q 293.169 265.184 294.839 265.204 Z " fill="rgb(253,201,43)"/><path d=" M 312.339 245.374 Q 314.859 247.274 316.629 249.914 Q 310.859 256.254 306.039 263.324 Q 303.539 267.004 300.999 270.454 Q 298.399 273.974 296.049 277.664 Q 293.219 281.264 290.529 283.604 Q 288.969 284.954 286.629 284.914 Q 286.649 275.384 293.899 269.474 Q 295.199 268.424 294.839 265.204 Q 294.059 265.054 293.629 264.414 Q 295.429 264.284 296.899 261.974 Q 302.359 253.414 312.339 245.374 Z " fill="rgb(132,127,45)"/><path d=" M 320.049 255.164 Q 325.389 262.524 328.339 271.124 Q 314.209 286.824 301.799 303.914 Q 300.759 305.154 299.299 304.414 L 298.289 285.734 Q 298.269 285.204 297.859 285.504 Q 296.299 286.664 295.799 288.664 L 291.629 289.414 Q 293.159 283.704 296.629 278.914 Q 301.159 274.924 304.869 270.174 Q 309.789 263.884 317.899 256.474 Q 319.159 255.324 320.049 255.164 Z " fill="rgb(132,127,45)"/><path d=" M 330.379 277.914 Q 331.009 278.344 331.339 279.414 Q 333.959 287.954 334.549 295.914 Q 321.529 311.744 311.089 329.374 L 308.589 333.374 Q 302.479 343.834 297.879 355.044 Q 293.669 365.294 288.279 372.604 Q 286.659 374.794 287.699 376.584 Q 288.719 378.344 288.729 378.384 Q 289.149 380.254 285.669 379.694 Q 283.899 379.414 282.269 380.144 Q 280.659 380.874 278.379 382.724 Q 275.329 385.194 278.319 387.674 Q 279.039 388.264 279.339 389.124 Q 276.179 391.304 272.339 391.624 L 271.839 388.804 Q 271.609 387.494 270.699 388.644 Q 268.009 391.994 264.339 393.624 Q 260.719 395.014 256.839 395.414 Q 245.099 396.624 233.339 395.624 Q 236.409 395.074 237.089 395.164 Q 242.559 395.924 244.089 390.914 Q 246.049 384.514 247.249 376.674 C 247.284 376.622 247.285 376.561 247.251 376.509 C 247.217 376.457 247.153 376.422 247.079 376.414 L 246.879 376.414 L 247.799 373.914 L 250.799 370.164 Q 250.489 371.114 250.719 371.894 C 250.735 372.14 251.003 372.357 251.399 372.444 L 253.799 373.164 Q 254.079 373.844 254.779 373.594 Q 258.729 372.234 259.609 368.114 Q 259.849 366.984 258.839 366.624 Q 262.449 363.084 265.629 359.164 Q 267.179 357.254 268.999 355.614 Q 270.839 353.954 272.589 352.204 Q 273.639 354.454 271.829 355.714 C 271.537 355.892 271.355 356.166 271.329 356.464 Q 270.839 359.524 270.039 362.504 Q 269.369 365.004 269.059 367.804 Q 268.749 370.504 268.129 373.164 L 254.989 388.724 Q 254.679 389.094 255.109 388.894 Q 267.229 383.264 277.149 373.474 Q 279.309 371.344 280.379 369.164 Q 281.529 368.594 282.149 366.974 Q 282.869 365.094 285.779 361.354 Q 287.339 359.334 287.589 357.454 Q 289.709 354.064 290.029 353.354 Q 294.789 342.704 298.489 334.944 Q 304.559 322.214 307.239 316.964 Q 314.289 303.104 323.279 290.354 Q 327.419 284.464 330.379 277.914 Z " fill="rgb(132,127,45)"/><path d=" M 267.089 223.124 Q 268.629 223.314 269.879 224.174 C 270.129 224.344 270.214 224.661 270.079 224.924 L 264.109 238.394 Q 263.809 239.054 264.179 238.424 L 272.839 223.454 Q 280.379 223.554 287.089 226.954 Q 287.249 227.434 287.179 227.864 C 287.185 228.135 286.933 228.379 286.549 228.474 Q 285.589 228.804 284.529 229.854 Q 278.279 235.984 274.629 241.164 Q 267.719 250.514 262.649 260.974 Q 260.739 264.934 252.899 283.224 Q 246.629 297.864 237.979 308.954 Q 233.339 314.914 226.329 321.024 Q 219.659 326.824 213.029 331.354 Q 194.899 343.714 184.739 351.054 Q 180.249 354.294 176.589 358.454 L 176.339 358.534 C 176.183 358.571 176.012 358.544 175.889 358.464 Q 172.429 354.934 172.089 349.954 L 179.339 342.454 Q 190.809 332.794 206.529 322.354 Q 225.129 309.984 238.379 290.664 Q 248.109 275.594 252.709 258.194 Q 257.399 240.404 266.089 224.194 Q 266.449 223.524 267.089 223.124 Z " fill="rgb(251,204,40)"/><path d=" M 253.299 290.664 Q 253.809 291.234 254.629 291.414 Q 251.059 301.064 245.479 309.594 Q 240.919 316.574 237.239 321.254 Q 232.799 326.904 227.189 331.524 Q 216.839 340.054 200.399 351.974 Q 192.139 357.974 183.549 367.164 Q 182.529 367.744 181.529 366.974 Q 178.969 365.024 177.879 362.414 Q 189.509 352.014 202.789 343.834 Q 225.379 329.914 239.779 314.604 Q 248.249 305.584 253.299 290.664 Z " fill="rgb(251,204,40)"/><path d=" M 301.799 303.914 Q 300.639 306.224 300.839 309.914 Q 301.079 314.454 299.429 318.984 Q 299.019 320.104 295.559 327.184 Q 292.659 333.134 289.569 338.994 Q 286.279 345.214 286.089 351.914 Q 286.009 354.764 287.589 357.454 Q 287.339 359.334 285.779 361.354 Q 282.869 365.094 282.149 366.974 Q 281.529 368.594 280.379 369.164 Q 279.129 364.944 279.339 361.664 Q 279.439 360.104 278.629 359.414 Q 279.399 357.264 277.909 355.804 C 277.644 355.593 277.511 355.29 277.549 354.984 Q 277.729 350.534 276.799 346.164 Q 281.929 336.654 286.049 326.664 Q 286.109 327.404 286.669 326.754 Q 287.229 326.084 288.089 326.204 Q 289.329 326.744 289.779 325.604 Q 291.549 321.064 291.299 315.414 L 292.379 310.914 L 299.299 304.414 Q 300.759 305.154 301.799 303.914 Z " fill="rgb(95,160,80)"/><path d=" M 226.089 226.704 Q 226.119 228.014 224.529 229.854 Q 219.499 235.654 214.339 241.334 Q 208.249 248.034 204.539 253.114 Q 191.359 271.104 181.309 290.564 Q 180.289 292.524 180.769 290.364 Q 181.559 286.864 182.799 283.514 Q 183.789 280.864 185.839 277.084 Q 194.799 260.644 205.299 245.114 Q 206.519 243.324 208.249 242.094 Q 210.869 240.224 210.919 240.174 Q 214.599 236.944 217.899 231.724 Q 218.659 230.534 217.839 229.874 L 226.089 226.704 Z " fill="rgb(189,209,56)"/><path d=" M 211.839 233.704 Q 209.739 236.544 207.929 239.554 Q 206.289 242.284 204.159 244.344 Q 191.699 256.354 185.399 268.724 Q 174.239 290.644 168.339 304.164 Q 166.909 307.444 165.379 308.914 Q 164.899 303.594 166.299 298.414 Q 166.729 298.604 167.139 298.404 C 167.58 298.234 167.768 297.901 167.599 297.594 Q 167.909 295.574 168.529 294.104 Q 172.229 285.264 177.289 274.634 Q 178.569 271.934 179.519 269.054 Q 180.979 264.624 181.529 263.354 Q 182.249 261.674 182.049 260.664 Q 184.169 256.764 187.549 253.914 Q 187.729 255.694 186.779 257.354 Q 185.959 258.784 184.369 262.144 Q 184.089 262.734 184.639 262.614 Q 185.039 262.524 185.289 262.114 Q 186.289 260.484 187.169 258.794 Q 188.109 257.004 189.329 255.704 Q 196.819 247.674 204.629 239.954 Q 206.079 238.524 206.089 236.624 Q 208.509 234.224 211.839 233.704 Z " fill="rgb(189,209,56)"/><path d=" M 222.379 257.164 L 218.589 262.454 Q 217.989 262.494 218.149 261.934 Q 219.059 258.794 219.739 255.594 Q 220.819 250.464 223.909 246.214 Q 224.829 244.954 224.579 246.494 Q 223.999 250.084 222.739 253.584 Q 222.119 255.324 222.379 257.164 Z " fill="rgb(189,209,56)"/><path d=" M 179.089 320.374 L 180.799 320.414 L 179.879 322.664 Q 178.649 323.244 177.779 324.604 Q 174.189 330.214 169.089 336.204 Q 166.709 333.124 169.149 330.224 Q 172.349 326.434 179.089 320.374 Z " fill="rgb(189,209,56)"/><path d=" M 235.839 242.454 Q 231.989 248.504 228.879 254.964 Q 223.779 265.554 217.379 275.414 Q 215.949 272.004 218.039 268.844 C 218.301 268.445 218.285 267.927 217.999 267.544 Q 216.689 265.754 217.799 263.664 L 218.589 262.454 L 222.379 257.164 Q 225.859 253.494 229.899 250.474 Q 230.489 250.034 231.339 248.204 L 235.839 242.454 Z " fill="rgb(107,141,70)"/><path d=" M 276.339 244.704 L 279.129 249.164 L 278.049 251.164 L 273.049 258.914 Q 271.129 259.304 270.549 257.414 Q 272.749 252.844 273.879 247.914 L 274.399 246.634 Q 274.569 246.214 274.499 245.674 Q 274.229 243.674 276.339 244.704 Z " fill="rgb(107,141,70)"/><path d=" M 281.549 299.664 Q 282.569 302.034 285.089 302.454 Q 279.739 313.314 276.299 324.914 Q 274.689 325.364 274.029 326.604 Q 272.589 329.294 271.549 330.664 Q 269.179 334.714 266.529 341.354 Q 260.379 356.714 256.839 368.124 Q 254.159 369.894 253.799 373.164 L 251.399 372.444 C 251.003 372.357 250.735 372.14 250.719 371.894 Q 250.489 371.114 250.799 370.164 L 251.089 368.954 Q 252.179 367.564 252.649 366.474 Q 258.459 353.094 262.069 338.974 Q 262.409 337.684 262.729 334.794 Q 262.959 332.674 263.589 330.624 Q 269.579 328.084 271.049 321.664 L 281.549 299.664 Z " fill="rgb(107,141,70)"/><path d=" M 175.549 337.414 L 179.339 342.454 L 172.089 349.954 Q 169.869 345.284 168.839 340.204 Q 173.349 341.564 175.549 337.414 Z " fill="rgb(107,141,70)"/><path d=" M 276.799 346.164 Q 277.729 350.534 277.549 354.984 C 277.511 355.29 277.644 355.593 277.909 355.804 Q 279.399 357.264 278.629 359.414 L 270.369 371.254 C 270.236 371.492 269.972 371.699 269.619 371.844 Q 268.689 372.254 268.129 373.164 Q 268.749 370.504 269.059 367.804 Q 269.369 365.004 270.039 362.504 Q 270.839 359.524 271.329 356.464 C 271.355 356.166 271.537 355.892 271.829 355.714 Q 273.639 354.454 272.589 352.204 L 276.799 346.164 Z " fill="rgb(107,141,70)"/><path d=" M 267.339 222.704 L 267.089 223.124 Q 266.449 223.524 266.089 224.194 Q 257.399 240.404 252.709 258.194 Q 248.109 275.594 238.379 290.664 Q 237.709 290.524 237.239 289.924 Q 236.679 289.174 236.359 288.974 Q 235.319 288.294 234.129 287.914 Q 242.369 268.404 246.839 252.914 Q 251.519 236.704 257.329 224.164 Q 257.629 223.524 258.139 222.914 Q 258.639 222.324 259.089 221.704 Q 263.339 221.094 267.339 222.704 Z " fill="rgb(77,115,86)"/><path d=" M 296.049 277.664 L 296.629 278.914 Q 293.159 283.704 291.629 289.414 Q 289.379 296.184 285.589 302.204 Q 285.309 302.264 285.089 302.454 Q 282.569 302.034 281.549 299.664 Q 284.739 292.504 286.629 284.914 Q 288.969 284.954 290.529 283.604 Q 293.219 281.264 296.049 277.664 Z " fill="rgb(75,107,63)"/><path d=" M 291.299 315.414 Q 291.549 321.064 289.779 325.604 Q 289.329 326.744 288.089 326.204 L 291.299 315.414 Z " fill="rgb(75,107,63)"/><path d=" M 258.839 366.624 Q 259.849 366.984 259.609 368.114 Q 258.729 372.234 254.779 373.594 Q 254.079 373.844 253.799 373.164 Q 254.159 369.894 256.839 368.124 L 258.839 366.624 Z " fill="rgb(75,107,63)"/><path d=" M 238.839 374.874 Q 239.789 375.234 239.389 375.914 Q 239.019 376.544 239.009 376.584 Q 236.619 382.534 236.339 388.954 L 234.879 390.414 Q 234.799 383.604 236.339 376.954 L 238.839 374.874 Z " fill="rgb(75,107,63)"/><path d=" M 278.049 251.164 Q 280.629 255.774 279.949 261.004 Q 279.889 261.464 280.049 261.684 Q 280.289 262.014 280.799 261.914 Q 278.869 272.634 272.359 281.324 Q 272.119 281.644 272.089 281.264 L 272.049 280.914 Q 272.579 278.924 272.589 274.914 Q 272.599 267.544 272.629 260.164 Q 272.969 259.574 273.049 258.914 L 278.049 251.164 Z " fill="rgb(157,123,36)"/><path d=" M 295.799 288.664 Q 292.689 299.574 292.379 310.914 L 291.299 315.414 L 288.089 326.204 Q 287.229 326.084 286.669 326.754 Q 286.109 327.404 286.049 326.664 Q 285.449 317.944 284.829 309.234 Q 284.569 305.624 285.589 302.204 Q 289.379 296.184 291.629 289.414 L 295.799 288.664 Z " fill="rgb(157,123,36)"/><path d=" M 271.049 321.664 Q 269.579 328.084 263.589 330.624 Q 263.779 324.534 267.089 319.414 Q 269.359 315.904 270.029 319.724 Q 270.229 320.894 271.049 321.664 Z " fill="rgb(157,123,36)"/><path d=" M 276.299 324.914 Q 274.379 332.474 272.669 340.074 Q 271.529 345.134 270.499 348.014 Q 269.099 351.904 267.269 355.614 Q 266.659 356.844 266.789 355.474 Q 267.849 343.884 271.199 332.634 Q 271.239 332.504 271.669 331.804 Q 271.989 331.284 271.549 330.664 Q 272.589 329.294 274.029 326.604 Q 274.689 325.364 276.299 324.914 Z " fill="rgb(157,123,36)"/><path d=" M 241.089 373.374 Q 243.569 374.214 246.039 373.614 C 246.366 373.627 246.673 373.699 246.899 373.814 Q 247.269 374.024 247.799 373.914 L 246.879 376.414 Q 242.649 383.574 236.339 388.954 Q 236.619 382.534 239.009 376.584 Q 239.019 376.544 239.389 375.914 Q 239.789 375.234 238.839 374.874 L 241.089 373.374 Z " fill="rgb(157,123,36)"/><path d=" M 267.339 222.704 L 272.839 223.454 L 264.179 238.424 Q 263.809 239.054 264.109 238.394 L 270.079 224.924 C 270.214 224.661 270.129 224.344 269.879 224.174 Q 268.629 223.314 267.089 223.124 L 267.339 222.704 Z " fill="rgb(183,153,48)"/><path d=" M 251.089 368.954 L 250.799 370.164 L 247.799 373.914 Q 247.269 374.024 246.899 373.814 C 246.673 373.699 246.366 373.627 246.039 373.614 Q 243.569 374.214 241.089 373.374 Q 245.879 370.684 251.089 368.954 Z " fill="rgb(183,153,48)"/><path d=" M 236.339 376.954 Q 234.799 383.604 234.879 390.414 L 231.339 395.374 Q 228.809 395.344 226.339 394.794 Q 226.249 394.774 223.299 394.514 Q 221.539 394.364 220.339 392.874 Q 221.569 392.464 222.419 391.494 Q 226.749 386.514 229.799 380.664 L 231.799 378.164 Q 231.599 379.014 232.129 379.114 Q 232.429 379.164 232.839 378.854 Q 234.449 377.624 236.339 376.954 Z " fill="rgb(183,153,48)"/><path d=" M 201.589 280.624 Q 204.689 280.994 203.339 284.164 Q 200.859 289.984 197.299 285.164 Q 198.419 281.994 201.589 280.624 Z " fill="rgb(72,122,83)"/><path d=" M 234.129 287.914 Q 235.319 288.294 236.359 288.974 Q 236.679 289.174 237.239 289.924 Q 237.709 290.524 238.379 290.664 Q 225.129 309.984 206.529 322.354 Q 190.809 332.794 179.339 342.454 L 175.549 337.414 Q 179.939 330.504 185.649 326.724 Q 195.289 320.344 205.409 314.744 Q 214.589 309.674 223.529 301.104 Q 230.329 294.584 234.129 287.914 Z " fill="rgb(72,122,83)"/><path d=" M 311.089 329.374 Q 312.349 329.244 312.529 330.224 Q 312.899 332.304 313.069 334.234 C 313.104 334.594 312.955 334.948 312.673 335.174 C 312.39 335.4 312.013 335.467 311.669 335.354 Q 309.569 334.674 308.589 333.374 L 311.089 329.374 Z " fill="rgb(72,122,83)"/><path d=" M 229.799 380.664 Q 226.749 386.514 222.419 391.494 Q 221.569 392.464 220.339 392.874 Q 215.029 393.254 210.529 390.474 Q 208.009 388.914 205.339 387.624 Q 209.229 387.654 210.089 387.414 Q 214.069 386.284 229.799 380.664 Z " fill="rgb(72,122,83)"/><path d=" M 291.089 230.124 Q 287.699 231.624 284.779 234.854 Q 279.699 240.464 276.799 244.414 Q 276.279 244.514 276.339 244.164 Q 276.779 241.684 274.629 241.164 Q 278.279 235.984 284.529 229.854 Q 285.589 228.804 286.549 228.474 C 286.933 228.379 287.185 228.135 287.179 227.864 Q 287.249 227.434 287.089 226.954 Q 290.119 226.104 291.529 228.724 Q 291.999 229.614 291.089 230.124 Z " fill="rgb(209,191,45)"/><path d=" M 243.129 236.664 Q 239.009 247.314 237.399 252.224 Q 230.029 274.704 215.149 291.474 Q 200.159 308.384 179.879 322.664 L 180.799 320.414 Q 185.809 313.814 188.899 310.724 Q 205.039 294.604 217.379 275.414 Q 223.779 265.554 228.879 254.964 Q 231.989 248.504 235.839 242.454 Q 237.749 239.884 240.059 237.664 Q 240.159 237.564 240.939 236.544 Q 241.749 235.474 243.129 236.664 Z " fill="rgb(248,197,48)"/><path d=" M 285.589 302.204 Q 284.569 305.624 284.829 309.234 Q 285.449 317.944 286.049 326.664 Q 281.929 336.654 276.799 346.164 L 272.589 352.204 Q 270.839 353.954 268.999 355.614 Q 267.179 357.254 265.629 359.164 Q 262.449 363.084 258.839 366.624 L 256.839 368.124 Q 260.379 356.714 266.529 341.354 Q 269.179 334.714 271.549 330.664 Q 271.989 331.284 271.669 331.804 Q 271.239 332.504 271.199 332.634 Q 267.849 343.884 266.789 355.474 Q 266.659 356.844 267.269 355.614 Q 269.099 351.904 270.499 348.014 Q 271.529 345.134 272.669 340.074 Q 274.379 332.474 276.299 324.914 Q 279.739 313.314 285.089 302.454 Q 285.309 302.264 285.589 302.204 Z " fill="rgb(248,197,48)"/><path d=" M 305.339 238.374 Q 309.209 241.504 312.339 245.374 Q 302.359 253.414 296.899 261.974 Q 295.429 264.284 293.629 264.414 Q 292.859 255.484 298.029 248.604 Q 302.789 242.254 305.339 238.374 Z " fill="rgb(55,102,78)"/><path d=" M 316.629 249.914 L 320.049 255.164 Q 319.159 255.324 317.899 256.474 Q 309.789 263.884 304.869 270.174 Q 301.159 274.924 296.629 278.914 L 296.049 277.664 Q 298.399 273.974 300.999 270.454 Q 303.539 267.004 306.039 263.324 Q 310.859 256.254 316.629 249.914 Z " fill="rgb(55,102,78)"/><path d=" M 278.629 359.414 Q 279.439 360.104 279.339 361.664 Q 279.129 364.944 280.379 369.164 Q 279.309 371.344 277.149 373.474 Q 267.229 383.264 255.109 388.894 Q 254.679 389.094 254.989 388.724 L 268.129 373.164 Q 268.689 372.254 269.619 371.844 C 269.972 371.699 270.236 371.492 270.369 371.254 L 278.629 359.414 Z " fill="rgb(55,102,78)"/><path d=" M 246.879 376.414 L 247.079 376.414 C 247.153 376.422 247.217 376.457 247.251 376.509 C 247.285 376.561 247.284 376.622 247.249 376.674 Q 246.049 384.514 244.089 390.914 Q 242.559 395.924 237.089 395.164 Q 236.409 395.074 233.339 395.624 L 231.339 395.374 L 234.879 390.414 L 236.339 388.954 Q 242.649 383.574 246.879 376.414 Z " fill="rgb(55,102,78)"/><path d=" M 246.379 222.414 Q 243.779 228.834 240.739 235.054 Q 240.649 235.244 240.629 235.424 Q 240.549 236.344 241.229 235.134 Q 242.789 232.374 244.999 230.134 Q 245.189 229.934 245.349 229.934 Q 245.669 229.924 245.629 230.414 L 243.129 236.664 Q 241.749 235.474 240.939 236.544 Q 240.159 237.564 240.059 237.664 Q 237.749 239.884 235.839 242.454 L 231.339 248.204 Q 230.509 248.104 230.839 247.164 Q 235.659 233.514 241.839 222.704 Q 244.079 221.964 246.379 222.414 Z " fill="rgb(235,195,63)"/><path d=" M 273.879 247.914 Q 272.749 252.844 270.549 257.414 Q 265.799 265.404 262.649 272.974 Q 258.049 284.034 254.629 291.414 Q 253.809 291.234 253.299 290.664 Q 258.949 276.804 264.739 263.014 Q 267.589 256.204 273.399 247.724 Q 273.839 247.084 273.879 247.914 Z " fill="rgb(235,195,63)"/><path d=" M 299.299 304.414 L 292.379 310.914 Q 292.689 299.574 295.799 288.664 Q 296.299 286.664 297.859 285.504 Q 298.269 285.204 298.289 285.734 L 299.299 304.414 Z " fill="rgb(235,195,63)"/><path d=" M 328.339 271.124 Q 329.879 274.354 330.379 277.914 Q 327.419 284.464 323.279 290.354 Q 314.289 303.104 307.239 316.964 Q 304.559 322.214 298.489 334.944 Q 294.789 342.704 290.029 353.354 Q 289.709 354.064 287.589 357.454 Q 286.009 354.764 286.089 351.914 Q 286.279 345.214 289.569 338.994 Q 292.659 333.134 295.559 327.184 Q 299.019 320.104 299.429 318.984 Q 301.079 314.454 300.839 309.914 Q 300.639 306.224 301.799 303.914 Q 314.209 286.824 328.339 271.124 Z " fill="rgb(46,93,77)"/><path d=" M 334.549 295.914 Q 337.649 330.034 319.279 357.604 Q 304.709 379.454 279.339 389.124 Q 279.039 388.264 278.319 387.674 Q 275.329 385.194 278.379 382.724 Q 280.659 380.874 282.269 380.144 Q 283.899 379.414 285.669 379.694 Q 289.149 380.254 288.729 378.384 Q 288.719 378.344 287.699 376.584 Q 286.659 374.794 288.279 372.604 Q 293.669 365.294 297.879 355.044 Q 302.479 343.834 308.589 333.374 Q 309.569 334.674 311.669 335.354 C 312.013 335.467 312.39 335.4 312.673 335.174 C 312.955 334.948 313.104 334.594 313.069 334.234 Q 312.899 332.304 312.529 330.224 Q 312.349 329.244 311.089 329.374 Q 321.529 311.744 334.549 295.914 Z " fill="rgb(46,93,77)"/><path d=" M 272.339 391.624 L 264.339 393.624 Q 268.009 391.994 270.699 388.644 Q 271.609 387.494 271.839 388.804 L 272.339 391.624 Z " fill="rgb(69,58,60)"/><path d=" M 236.119 351.224 Q 238.359 348.854 241.649 348.844 C 241.968 348.841 242.265 349.004 242.429 349.274 Q 244.579 352.784 242.319 355.124 Q 240.679 356.824 238.459 356.134 Q 235.829 355.304 235.769 352.094 C 235.758 351.771 235.884 351.457 236.119 351.224 L 236.119 351.224 Z " fill="rgb(77,115,86)"/></g></g></svg>