<?xml version="1.0" encoding="UTF-8" standalone="no"?><!-- Generator: Gravit.io --><svg xmlns="http://www.w3.org/2000/svg" xmlns:xlink="http://www.w3.org/1999/xlink" style="isolation:isolate" viewBox="106.578 165.277 166.311 155.846" width="166.311pt" height="155.846pt"><defs><clipPath id="_clipPath_AHgmY96Aw6EhzghWIgJsuZhZmq0ESqmr"><rect x="106.578" y="165.277" width="166.311" height="155.846"/></clipPath></defs><g clip-path="url(#_clipPath_AHgmY96Aw6EhzghWIgJsuZhZmq0ESqmr)"><path d=" M 253.142 270.112 Q 252.942 268.082 256.092 267.792 Q 257.982 267.622 259.692 266.812 Q 266.392 263.602 268.082 255.092 Q 269.452 248.182 264.672 242.192 Q 264.542 242.032 263.422 240.382 Q 262.622 239.192 261.552 239.062 C 261.207 239.022 260.862 239.128 260.598 239.354 C 260.335 239.58 260.177 239.905 260.162 240.252 Q 259.772 248.612 257.332 256.232 Q 257.322 256.262 255.102 261.862 Q 253.522 265.842 252.892 270.112 Q 243.952 287.412 226.692 298.082 C 226.092 298.452 225.773 299.145 225.882 299.842 Q 226.192 301.852 226.182 303.842 Q 226.162 305.862 225.522 307.752 Q 222.332 317.242 211.952 320.212 Q 202.552 322.912 195.142 317.612 Q 195.752 317.032 196.642 316.942 Q 208.962 315.792 219.332 307.342 Q 222.632 304.652 222.242 300.662 L 223.142 296.442 L 229.432 290.902 Q 248.732 276.552 256.032 253.572 Q 258.072 247.142 257.602 240.402 Q 258.662 236.872 256.992 233.252 L 254.432 222.902 Q 254.452 221.992 254.102 221.152 L 252.682 216.652 L 252.602 215.652 L 253.102 209.902 Q 255.092 199.822 245.882 195.672 Q 244.742 195.162 243.672 195.512 C 243.526 195.564 243.411 195.665 243.354 195.792 C 243.298 195.918 243.304 196.059 243.372 196.182 Q 243.632 197.172 242.892 197.942 Q 239.572 196.312 236.932 193.652 Q 231.982 188.842 226.122 184.852 Q 211.442 174.862 193.352 173.772 Q 193.202 172.172 194.642 172.612 L 209.612 172.392 Q 211.112 172.372 210.112 171.282 Q 206.022 166.812 200.642 166.362 L 200.392 165.442 Q 211.052 164.162 215.702 172.842 Q 217.422 176.042 219.322 176.982 Q 232.322 183.432 242.932 194.062 C 243.175 194.306 243.516 194.431 243.862 194.402 Q 250.192 193.832 254.642 197.222 Q 258.472 200.132 259.552 204.662 Q 260.702 209.462 258.042 214.132 Q 256.912 216.132 257.622 218.312 Q 260.472 227.082 260.942 236.372 C 260.961 236.804 261.223 237.189 261.622 237.372 Q 272.192 242.092 272.842 253.652 Q 273.662 268.082 260.142 271.902 Q 257.142 272.752 253.142 270.112 Z " fill="rgb(251,103,207)"/><path d=" M 200.642 166.362 Q 206.022 166.812 210.112 171.282 Q 211.112 172.372 209.612 172.392 L 194.642 172.612 L 191.642 171.862 L 194.712 168.522 L 200.642 166.362 Z " fill="rgb(196,34,74)"/><path d=" M 200.392 165.442 L 200.642 166.362 L 194.712 168.522 Q 197.012 165.892 200.392 165.442 Z " fill="rgb(228,49,128)"/><path d=" M 253.102 209.902 Q 251.582 208.522 249.852 209.152 L 245.392 201.862 L 243.182 198.402 L 242.892 197.942 Q 243.632 197.172 243.372 196.182 C 243.304 196.059 243.298 195.918 243.354 195.792 C 243.411 195.665 243.526 195.564 243.672 195.512 Q 244.742 195.162 245.882 195.672 Q 255.092 199.822 253.102 209.902 Z " fill="rgb(228,49,128)"/><path d=" M 196.642 316.942 Q 195.752 317.032 195.142 317.612 Q 194.322 317.422 193.892 316.692 Q 195.272 316.372 196.642 316.942 Z " fill="rgb(228,49,128)"/><path d=" M 123.102 204.402 Q 123.062 204.982 123.642 204.942 L 123.142 205.862 Q 114.292 212.372 113.662 223.392 C 113.969 223.7 113.814 224.079 113.302 224.272 Q 112.742 224.672 112.592 223.162 Q 112.152 218.782 113.642 214.152 Q 114.852 210.412 117.792 208.382 Q 118.632 207.812 118.942 207.362 Q 120.182 205.592 116.682 206.402 L 116.352 205.152 Q 118.632 204.112 120.982 205.032 Q 122.412 205.592 123.102 204.402 Z " fill="rgb(254,126,52)"/><path d=" M 153.602 201.802 L 149.452 201.802 Q 148.792 201.802 148.502 201.962 Q 141.082 205.952 132.922 208.092 Q 130.472 208.742 131.832 207.432 Q 132.102 207.172 132.502 206.962 Q 135.872 205.202 138.812 203.802 Q 158.422 190.772 180.702 183.622 Q 181.472 183.372 182.092 183.322 Q 185.012 183.082 182.692 184.972 Q 182.212 185.372 181.502 185.672 Q 166.492 191.922 153.602 201.802 Z " fill="rgb(254,184,18)"/><path d=" M 150.892 206.942 Q 148.062 214.562 143.332 218.092 Q 139.612 220.862 131.872 222.812 Q 125.732 224.352 119.552 226.422 Q 116.962 224.392 119.642 222.152 Q 123.812 218.672 128.622 216.962 Q 134.382 214.912 134.432 214.892 Q 140.932 212.022 146.902 208.142 Q 146.942 208.112 148.212 206.972 Q 149.322 205.962 150.892 206.942 Z " fill="rgb(254,184,18)"/><path d=" M 181.642 172.442 Q 181.562 172.982 181.142 173.362 Q 179.222 174.342 175.392 175.652 Q 148.722 184.812 126.292 203.042 Q 125.022 204.082 123.642 204.942 Q 123.062 204.982 123.102 204.402 Q 130.122 190.792 143.522 183.652 L 166.412 174.272 Q 173.892 172.172 181.642 172.442 Z " fill="rgb(254,156,51)"/><path d=" M 198.892 200.112 L 201.182 206.652 Q 200.872 207.452 200.102 207.882 Q 191.232 212.932 182.322 217.882 Q 182.252 217.922 172.212 223.742 Q 165.412 227.682 156.642 231.902 Q 135.372 242.142 113.182 244.902 Q 112.472 240.782 113.182 236.652 Q 132.002 236.882 147.582 229.342 Q 170.232 218.362 178.832 213.342 Q 182.322 211.302 197.892 200.442 L 198.892 200.112 Z " fill="rgb(254,156,51)"/><path d=" M 116.352 205.152 L 116.682 206.402 Q 109.822 212.322 110.432 221.252 Q 110.652 224.492 110.772 225.052 Q 111.202 227.022 112.862 228.442 Q 113.642 229.102 112.642 229.442 Q 105.952 224.902 106.642 216.902 Q 107.432 207.732 116.352 205.152 Z " fill="rgb(254,156,51)"/><path d=" M 202.102 209.152 L 203.182 211.902 L 205.432 223.402 Q 205.032 224.522 203.892 224.942 Q 187.512 235.872 170.012 245.222 C 169.459 245.513 168.798 245.517 168.242 245.232 Q 165.162 243.622 161.612 244.812 Q 155.832 246.752 153.502 251.602 C 153.308 252.001 153.338 252.474 153.582 252.845 C 153.826 253.216 154.248 253.432 154.692 253.412 Q 162.452 253.052 168.852 249.332 Q 174.652 245.972 174.732 245.922 Q 190.622 237.762 205.642 228.112 Q 206.722 231.692 206.182 235.402 Q 204.892 237.362 201.832 239.092 Q 192.602 244.292 185.092 247.662 Q 178.322 250.692 175.792 251.882 Q 171.172 254.062 166.452 256.022 Q 161.492 258.092 155.532 259.242 Q 148.852 260.542 142.172 261.822 Q 129.542 264.242 116.832 262.442 Q 115.862 257.402 113.932 253.402 L 113.182 245.842 Q 130.642 245.342 146.332 238.842 Q 165.222 231.002 183.342 220.062 Q 187.812 217.362 192.722 214.632 Q 197.462 211.992 202.102 209.152 Z " fill="rgb(254,156,51)"/><path d=" M 243.182 198.402 L 245.392 201.862 Q 244.842 202.212 244.472 202.222 Q 242.612 204.522 241.032 206.812 Q 238.302 210.772 237.732 211.512 Q 224.682 228.552 206.392 239.942 Q 204.112 237.232 207.142 235.442 Q 221.782 224.582 233.892 210.942 Q 239.002 205.022 243.182 198.402 Z " fill="rgb(149,45,33)"/><path d=" M 254.102 221.152 Q 254.452 221.992 254.432 222.902 Q 254.222 224.122 254.022 225.352 Q 253.822 226.622 253.172 227.642 Q 247.382 236.812 239.832 244.462 Q 235.002 249.352 225.022 257.912 Q 212.592 268.582 198.592 277.172 Q 195.522 279.062 192.002 281.572 Q 188.162 284.302 185.332 285.842 Q 183.402 286.882 182.992 285.292 Q 182.982 285.242 183.002 284.012 Q 183.022 283.162 182.142 282.862 Q 181.622 281.972 181.642 280.942 Q 195.122 275.932 206.782 267.522 Q 224.672 254.612 239.702 238.472 Q 246.652 231.012 252.202 222.462 Q 252.892 221.412 254.102 221.152 Z " fill="rgb(149,45,33)"/><path d=" M 256.992 233.252 Q 258.662 236.872 257.602 240.402 Q 255.582 241.102 254.852 243.152 Q 243.642 256.852 229.622 267.462 Q 220.242 274.552 213.412 279.152 Q 202.522 286.472 190.142 291.192 Q 188.332 290.712 188.852 288.652 Q 206.122 280.362 225.082 265.092 Q 244.712 249.272 256.992 233.252 Z " fill="rgb(149,45,33)"/><path d=" M 196.352 198.652 Q 196.322 200.292 197.892 200.442 Q 182.322 211.302 178.832 213.342 Q 170.232 218.362 147.582 229.342 Q 132.002 236.882 113.182 236.652 Q 112.942 236.042 113.392 235.612 Q 117.882 234.692 124.392 233.902 Q 130.752 233.132 137.042 231.092 Q 140.932 229.832 148.892 226.042 Q 158.722 221.362 164.642 218.902 Q 175.372 214.432 184.462 207.232 Q 190.212 202.672 196.352 198.652 Z " fill="rgb(172,63,31)"/><path d=" M 203.892 224.942 Q 203.822 227.012 205.642 227.942 L 205.642 228.112 Q 190.622 237.762 174.732 245.922 Q 174.652 245.972 168.852 249.332 Q 162.452 253.052 154.692 253.412 C 154.248 253.432 153.826 253.216 153.582 252.845 C 153.338 252.474 153.308 252.001 153.502 251.602 Q 155.832 246.752 161.612 244.812 Q 165.162 243.622 168.242 245.232 C 168.798 245.517 169.459 245.513 170.012 245.222 Q 187.512 235.872 203.892 224.942 Z " fill="rgb(172,63,31)"/><path d=" M 226.122 184.852 Q 231.982 188.842 236.932 193.652 Q 236.762 194.682 235.712 194.422 C 235.352 194.348 234.976 194.398 234.652 194.562 L 203.182 211.902 L 202.102 209.152 Q 201.642 207.662 202.102 206.152 Q 214.402 195.922 226.122 184.852 Z " fill="rgb(196,37,67)"/><path d=" M 245.392 201.862 L 249.852 209.152 L 252.602 215.652 L 252.682 216.652 Q 252.072 217.702 250.942 218.082 C 250.597 218.199 250.315 218.38 250.132 218.602 Q 241.632 228.752 232.172 237.992 Q 225.192 244.812 221.992 247.702 Q 216.202 252.932 210.832 256.342 Q 204.332 260.452 188.192 268.942 Q 186.752 269.702 185.142 269.112 Q 185.912 268.632 186.432 267.902 Q 192.832 262.692 198.182 256.402 Q 199.762 255.182 201.352 253.982 Q 201.412 253.932 204.142 252.102 Q 207.802 249.642 210.702 244.962 Q 215.082 237.902 223.512 232.482 Q 226.912 230.302 230.362 228.192 Q 234.792 225.472 237.012 223.582 Q 243.722 217.852 248.142 210.092 C 248.321 209.812 248.372 209.476 248.282 209.162 Q 247.312 205.262 244.472 202.222 Q 244.842 202.212 245.392 201.862 Z " fill="rgb(196,37,67)"/><path d=" M 257.602 240.402 Q 258.072 247.142 256.032 253.572 Q 248.732 276.552 229.432 290.902 Q 228.252 290.512 228.652 289.122 Q 228.822 288.542 228.292 288.832 Q 214.042 296.752 199.822 303.582 Q 195.192 305.802 190.892 308.612 Q 188.592 309.452 187.392 311.612 Q 183.642 311.852 175.392 312.902 Q 163.862 314.362 152.642 309.862 Q 150.182 306.732 146.282 306.652 C 146.003 306.654 145.771 306.8 145.742 306.992 Q 145.722 307.232 145.932 307.412 Q 146.112 307.572 146.542 307.602 Q 148.822 307.792 149.272 309.932 Q 144.192 309.002 139.662 306.352 Q 138.662 304.812 138.692 302.172 L 147.892 302.942 Q 148.732 305.122 151.392 305.652 Q 156.482 306.672 160.672 306.092 Q 166.992 305.222 173.052 303.322 Q 181.182 300.762 181.322 300.722 Q 193.412 297.242 198.332 295.092 Q 206.572 291.482 216.062 282.542 Q 214.642 285.072 215.872 286.712 C 216.062 286.937 216.392 287.003 216.662 286.872 Q 220.302 284.962 219.142 280.612 Q 227.872 273.812 236.832 267.342 Q 246.902 260.052 255.452 246.962 Q 257.032 244.552 254.852 243.152 Q 255.582 241.102 257.602 240.402 Z " fill="rgb(196,37,67)"/><path d=" M 223.142 296.442 L 222.242 300.662 Q 213.832 305.272 209.952 308.712 Q 207.072 311.272 204.192 312.092 C 203.859 312.21 203.584 312.394 203.402 312.622 Q 202.692 313.412 201.642 313.432 Q 201.092 313.442 200.662 313.572 Q 197.712 314.442 195.052 311.062 Q 209.752 304.972 223.142 296.442 Z " fill="rgb(196,37,67)"/><path d=" M 182.112 176.082 Q 191.512 185.782 197.182 197.402 Q 196.932 198.122 196.352 198.652 Q 190.212 202.672 184.462 207.232 Q 175.372 214.432 164.642 218.902 Q 158.722 221.362 148.892 226.042 Q 140.932 229.832 137.042 231.092 Q 130.752 233.132 124.392 233.902 Q 117.882 234.692 113.392 235.612 L 113.602 230.402 Q 113.672 229.002 114.682 228.312 Q 117.372 228.262 119.552 226.422 Q 125.732 224.352 131.872 222.812 Q 139.612 220.862 143.332 218.092 Q 148.062 214.562 150.892 206.942 Q 152.712 204.932 153.602 201.802 Q 166.492 191.922 181.502 185.672 Q 182.212 185.372 182.692 184.972 Q 185.012 183.082 182.092 183.322 Q 181.472 183.372 180.702 183.622 Q 158.422 190.772 138.812 203.802 Q 138.012 200.402 136.142 198.862 Q 138.902 196.552 143.832 193.592 Q 162.562 182.342 182.112 176.082 Z " fill="rgb(255,155,45)"/><path d=" M 205.642 240.612 Q 206.492 240.802 206.122 241.852 Q 203.442 249.312 198.142 255.192 Q 195.332 255.752 190.832 258.342 Q 181.382 263.762 178.832 265.592 Q 178.172 266.052 178.402 266.712 C 178.51 266.974 178.798 267.156 179.132 267.172 Q 181.312 267.222 184.892 266.402 Q 186.752 265.972 186.432 267.902 Q 185.912 268.632 185.142 269.112 Q 166.422 286.252 140.892 282.442 Q 129.522 280.092 120.892 272.362 Q 118.122 269.112 117.562 265.642 Q 132.292 267.232 146.552 264.472 Q 152.922 263.242 163.362 259.152 Q 176.912 253.842 190.582 248.842 Q 197.412 246.342 205.642 240.612 Z " fill="rgb(255,155,45)"/><path d=" M 236.932 193.652 Q 239.572 196.312 242.892 197.942 L 243.182 198.402 Q 239.002 205.022 233.892 210.942 Q 232.302 210.792 231.142 209.862 Q 230.942 204.762 227.402 204.902 Q 225.282 204.982 222.992 207.072 Q 220.252 209.572 217.642 213.402 Q 213.322 219.742 205.432 223.402 L 203.182 211.902 L 234.652 194.562 C 234.976 194.398 235.352 194.348 235.712 194.422 Q 236.762 194.682 236.932 193.652 Z " fill="rgb(206,72,54)"/><path d=" M 244.472 202.222 Q 247.312 205.262 248.282 209.162 C 248.372 209.476 248.321 209.812 248.142 210.092 Q 243.722 217.852 237.012 223.582 Q 234.792 225.472 230.362 228.192 Q 226.912 230.302 223.512 232.482 Q 215.082 237.902 210.702 244.962 Q 207.802 249.642 204.142 252.102 Q 201.412 253.932 201.352 253.982 Q 199.762 255.182 198.182 256.402 L 198.142 255.192 Q 203.442 249.312 206.122 241.852 Q 206.492 240.802 205.642 240.612 Q 206.102 240.352 206.392 239.942 Q 224.682 228.552 237.732 211.512 Q 238.302 210.772 241.032 206.812 Q 242.612 204.522 244.472 202.222 Z " fill="rgb(206,72,54)"/><path d=" M 252.682 216.652 L 254.102 221.152 Q 252.892 221.412 252.202 222.462 Q 246.652 231.012 239.702 238.472 Q 224.672 254.612 206.782 267.522 Q 195.122 275.932 181.642 280.942 Q 165.862 287.682 148.822 289.802 Q 139.272 290.982 129.682 291.902 L 124.662 284.872 Q 128.982 284.272 133.642 285.402 Q 138.392 286.552 140.892 282.442 Q 166.422 286.252 185.142 269.112 Q 186.752 269.702 188.192 268.942 Q 204.332 260.452 210.832 256.342 Q 216.202 252.932 221.992 247.702 Q 225.192 244.812 232.172 237.992 Q 241.632 228.752 250.132 218.602 C 250.315 218.38 250.597 218.199 250.942 218.082 Q 252.072 217.702 252.682 216.652 Z " fill="rgb(206,72,54)"/><path d=" M 254.852 243.152 Q 257.032 244.552 255.452 246.962 Q 246.902 260.052 236.832 267.342 Q 227.872 273.812 219.142 280.612 L 216.062 282.542 Q 206.572 291.482 198.332 295.092 Q 193.412 297.242 181.322 300.722 Q 181.182 300.762 173.052 303.322 Q 166.992 305.222 160.672 306.092 Q 156.482 306.672 151.392 305.652 Q 148.732 305.122 147.892 302.942 Q 153.172 302.482 159.642 300.902 Q 175.932 296.922 190.142 291.192 Q 202.522 286.472 213.412 279.152 Q 220.242 274.552 229.622 267.462 Q 243.642 256.852 254.852 243.152 Z " fill="rgb(206,72,54)"/><path d=" M 165.142 173.722 Q 161.792 171.632 157.892 172.902 Q 151.442 175.012 146.962 177.732 Q 144.242 179.372 143.142 182.442 Q 142.382 180.992 142.582 178.592 Q 143.362 169.322 152.142 167.652 Q 160.782 166.002 165.142 173.722 Z " fill="rgb(247,124,57)"/><path d=" M 136.142 198.862 Q 138.012 200.402 138.812 203.802 Q 135.872 205.202 132.502 206.962 Q 132.102 207.172 131.832 207.432 Q 130.472 208.742 132.922 208.092 Q 141.082 205.952 148.502 201.962 Q 148.792 201.802 149.452 201.802 L 153.602 201.802 Q 152.712 204.932 150.892 206.942 Q 149.322 205.962 148.212 206.972 Q 146.942 208.112 146.902 208.142 Q 140.932 212.022 134.432 214.892 Q 134.382 214.912 128.622 216.962 Q 123.812 218.672 119.642 222.152 Q 116.962 224.392 119.552 226.422 Q 117.372 228.262 114.682 228.312 Q 116.342 219.502 118.202 215.712 Q 120.342 211.362 126.082 207.342 Q 127.672 206.222 130.142 203.192 L 136.142 198.862 Z " fill="rgb(253,166,33)"/><path d=" M 165.142 173.722 L 166.412 174.272 L 143.522 183.652 Q 142.962 182.732 143.142 182.442 Q 144.242 179.372 146.962 177.732 Q 151.442 175.012 157.892 172.902 Q 161.792 171.632 165.142 173.722 Z " fill="rgb(254,102,52)"/><path d=" M 130.142 203.192 Q 127.672 206.222 126.082 207.342 Q 120.342 211.362 118.202 215.712 Q 116.342 219.502 114.682 228.312 Q 113.672 229.002 113.602 230.402 Q 113.242 229.802 112.642 229.442 Q 113.642 229.102 112.862 228.442 Q 111.202 227.022 110.772 225.052 Q 110.652 224.492 110.432 221.252 Q 109.822 212.322 116.682 206.402 Q 120.182 205.592 118.942 207.362 Q 118.632 207.812 117.792 208.382 Q 114.852 210.412 113.642 214.152 Q 112.152 218.782 112.592 223.162 Q 112.742 224.672 113.302 224.272 C 113.814 224.079 113.969 223.7 113.662 223.392 Q 114.292 212.372 123.142 205.862 Q 125.062 205.822 126.332 204.842 Q 128.202 203.382 130.142 203.192 Z " fill="rgb(254,102,52)"/><path d=" M 113.932 253.402 Q 115.862 257.402 116.832 262.442 Q 115.782 261.942 116.082 263.212 Q 116.432 264.762 117.562 265.642 Q 118.122 269.112 120.892 272.362 Q 119.402 272.692 120.582 273.712 Q 123.212 276.012 122.492 280.132 Q 104.222 272.202 113.752 255.292 Q 114.212 254.492 113.392 254.362 Q 113.812 253.952 113.932 253.402 Z " fill="rgb(254,102,52)"/><path d=" M 113.392 254.362 Q 114.212 254.492 113.752 255.292 Q 104.222 272.202 122.492 280.132 Q 122.972 280.602 121.472 280.632 Q 114.632 279.792 110.832 274.962 Q 105.412 268.102 108.802 259.822 Q 110.232 256.332 113.392 254.362 Z " fill="rgb(254,161,80)"/><path d=" M 198.142 255.192 L 198.182 256.402 Q 192.832 262.692 186.432 267.902 Q 186.752 265.972 184.892 266.402 Q 181.312 267.222 179.132 267.172 C 178.798 267.156 178.51 266.974 178.402 266.712 Q 178.172 266.052 178.832 265.592 Q 181.382 263.762 190.832 258.342 Q 195.332 255.752 198.142 255.192 Z " fill="rgb(248,115,36)"/><path d=" M 198.892 200.112 L 197.892 200.442 Q 196.322 200.292 196.352 198.652 Q 196.932 198.122 197.182 197.402 Q 207.482 190.082 216.592 181.312 C 216.81 181.112 217.12 180.989 217.452 180.972 Q 218.922 181.102 217.502 182.772 Q 209.202 192.512 198.892 200.112 Z " fill="rgb(142,53,27)"/><path d=" M 231.142 209.862 Q 228.662 215.362 223.312 217.312 Q 218.792 218.952 218.722 218.982 Q 211.542 222.472 205.642 227.942 Q 203.822 227.012 203.892 224.942 Q 205.032 224.522 205.432 223.402 Q 213.322 219.742 217.642 213.402 Q 220.252 209.572 222.992 207.072 Q 225.282 204.982 227.402 204.902 Q 230.942 204.762 231.142 209.862 Z " fill="rgb(142,53,27)"/><path d=" M 219.142 280.612 Q 220.302 284.962 216.662 286.872 C 216.392 287.003 216.062 286.937 215.872 286.712 Q 214.642 285.072 216.062 282.542 L 219.142 280.612 Z " fill="rgb(158,43,35)"/><path d=" M 181.642 280.942 Q 181.622 281.972 182.142 282.862 Q 175.332 287.002 168.892 288.652 Q 151.502 293.092 131.622 294.132 L 129.682 291.902 Q 139.272 290.982 148.822 289.802 Q 165.862 287.682 181.642 280.942 Z " fill="rgb(158,43,35)"/><path d=" M 188.852 288.652 Q 188.332 290.712 190.142 291.192 Q 175.932 296.922 159.642 300.902 Q 153.172 302.482 147.892 302.942 L 138.692 302.172 L 138.392 299.942 Q 146.382 300.582 152.642 299.402 Q 170.182 296.092 188.852 288.652 Z " fill="rgb(158,43,35)"/><path d=" M 181.142 173.362 Q 183.392 174.362 182.112 176.082 Q 162.562 182.342 143.832 193.592 Q 138.902 196.552 136.142 198.862 L 130.142 203.192 Q 128.202 203.382 126.332 204.842 Q 125.062 205.822 123.142 205.862 L 123.642 204.942 Q 125.022 204.082 126.292 203.042 Q 148.722 184.812 175.392 175.652 Q 179.222 174.342 181.142 173.362 Z " fill="rgb(183,70,34)"/><path d=" M 202.102 206.152 Q 201.642 207.662 202.102 209.152 Q 197.462 211.992 192.722 214.632 Q 187.812 217.362 183.342 220.062 Q 165.222 231.002 146.332 238.842 Q 130.642 245.342 113.182 245.842 L 113.182 244.902 Q 135.372 242.142 156.642 231.902 Q 165.412 227.682 172.212 223.742 Q 182.252 217.922 182.322 217.882 Q 191.232 212.932 200.102 207.882 Q 200.872 207.452 201.182 206.652 Q 201.562 206.232 202.102 206.152 Z " fill="rgb(183,70,34)"/><path d=" M 206.182 235.402 L 207.142 235.442 Q 204.112 237.232 206.392 239.942 Q 206.102 240.352 205.642 240.612 Q 197.412 246.342 190.582 248.842 Q 176.912 253.842 163.362 259.152 Q 152.922 263.242 146.552 264.472 Q 132.292 267.232 117.562 265.642 Q 116.432 264.762 116.082 263.212 Q 115.782 261.942 116.832 262.442 Q 129.542 264.242 142.172 261.822 Q 148.852 260.542 155.532 259.242 Q 161.492 258.092 166.452 256.022 Q 171.172 254.062 175.792 251.882 Q 178.322 250.692 185.092 247.662 Q 192.602 244.292 201.832 239.092 Q 204.892 237.362 206.182 235.402 Z " fill="rgb(183,70,34)"/><path d=" M 181.642 172.442 L 187.142 172.442 Q 190.092 173.592 193.352 173.772 Q 211.442 174.862 226.122 184.852 Q 214.402 195.922 202.102 206.152 Q 201.562 206.232 201.182 206.652 L 198.892 200.112 Q 209.202 192.512 217.502 182.772 Q 218.922 181.102 217.452 180.972 C 217.12 180.989 216.81 181.112 216.592 181.312 Q 207.482 190.082 197.182 197.402 Q 191.512 185.782 182.112 176.082 Q 183.392 174.362 181.142 173.362 Q 181.562 172.982 181.642 172.442 Z " fill="rgb(210,72,57)"/><path d=" M 229.432 290.902 L 223.142 296.442 Q 209.752 304.972 195.052 311.062 Q 192.452 311.612 190.892 308.612 Q 195.192 305.802 199.822 303.582 Q 214.042 296.752 228.292 288.832 Q 228.822 288.542 228.652 289.122 Q 228.252 290.512 229.432 290.902 Z " fill="rgb(210,72,57)"/><path d=" M 222.242 300.662 Q 222.632 304.652 219.332 307.342 Q 208.962 315.792 196.642 316.942 Q 195.272 316.372 193.892 316.692 Q 192.822 314.322 190.392 313.862 Q 191.952 313.212 190.522 312.302 Q 189.112 311.402 187.392 311.612 Q 188.592 309.452 190.892 308.612 Q 192.452 311.612 195.052 311.062 Q 197.712 314.442 200.662 313.572 Q 201.092 313.442 201.642 313.432 Q 202.692 313.412 203.402 312.622 C 203.584 312.394 203.859 312.21 204.192 312.092 Q 207.072 311.272 209.952 308.712 Q 213.832 305.272 222.242 300.662 Z " fill="rgb(216,49,98)"/><path d=" M 120.892 272.362 Q 129.522 280.092 140.892 282.442 Q 138.392 286.552 133.642 285.402 Q 128.982 284.272 124.662 284.872 Q 123.732 282.092 121.472 280.632 Q 122.972 280.602 122.492 280.132 Q 123.212 276.012 120.582 273.712 Q 119.402 272.692 120.892 272.362 Z " fill="rgb(225,85,65)"/><path d=" M 139.662 306.352 Q 144.192 309.002 149.272 309.932 Q 150.682 310.812 152.642 309.862 Q 163.862 314.362 175.392 312.902 Q 183.642 311.852 187.392 311.612 Q 189.112 311.402 190.522 312.302 Q 191.952 313.212 190.392 313.862 Q 181.542 315.832 172.572 314.972 Q 167.332 314.472 167.202 314.462 Q 162.022 314.082 156.842 313.642 Q 156.782 313.632 151.442 313.572 Q 143.752 313.492 139.662 306.352 Z " fill="rgb(251,116,190)"/><path d=" M 253.102 209.902 L 252.602 215.652 L 249.852 209.152 Q 251.582 208.522 253.102 209.902 Z " fill="rgb(249,57,130)"/><path d=" M 152.642 309.862 Q 150.682 310.812 149.272 309.932 Q 148.822 307.792 146.542 307.602 Q 146.112 307.572 145.932 307.412 Q 145.722 307.232 145.742 306.992 C 145.771 306.8 146.003 306.654 146.282 306.652 Q 150.182 306.732 152.642 309.862 Z " fill="rgb(249,57,130)"/><path d=" M 231.142 209.862 Q 232.302 210.792 233.892 210.942 Q 221.782 224.582 207.142 235.442 L 206.182 235.402 Q 206.722 231.692 205.642 228.112 L 205.642 227.942 Q 211.542 222.472 218.722 218.982 Q 218.792 218.952 223.312 217.312 Q 228.662 215.362 231.142 209.862 Z " fill="rgb(203,78,51)"/><path d=" M 254.432 222.902 L 256.992 233.252 Q 244.712 249.272 225.082 265.092 Q 206.122 280.362 188.852 288.652 Q 170.182 296.092 152.642 299.402 Q 146.382 300.582 138.392 299.942 Q 134.512 297.312 131.622 294.132 Q 151.502 293.092 168.892 288.652 Q 175.332 287.002 182.142 282.862 Q 183.022 283.162 183.002 284.012 Q 182.982 285.242 182.992 285.292 Q 183.402 286.882 185.332 285.842 Q 188.162 284.302 192.002 281.572 Q 195.522 279.062 198.592 277.172 Q 212.592 268.582 225.022 257.912 Q 235.002 249.352 239.832 244.462 Q 247.382 236.812 253.172 227.642 Q 253.822 226.622 254.022 225.352 Q 254.222 224.122 254.432 222.902 Z " fill="rgb(203,78,51)"/><path d=" M 191.642 171.862 L 194.642 172.612 Q 193.202 172.172 193.352 173.772 Q 190.092 173.592 187.142 172.442 L 191.642 171.862 Z " fill="rgb(229,100,83)"/><path d=" M 253.142 270.112 L 252.892 270.112 Q 253.522 265.842 255.102 261.862 Q 257.322 256.262 257.332 256.232 Q 259.772 248.612 260.162 240.252 C 260.177 239.905 260.335 239.58 260.598 239.354 C 260.862 239.128 261.207 239.022 261.552 239.062 Q 262.622 239.192 263.422 240.382 Q 264.542 242.032 264.672 242.192 Q 269.452 248.182 268.082 255.092 Q 266.392 263.602 259.692 266.812 Q 257.982 267.622 256.092 267.792 Q 252.942 268.082 253.142 270.112 Z " fill="rgb(212,49,71)"/><path d=" M 225.132 284.842 Q 223.992 286.042 222.392 286.332 Q 221.872 286.432 222.182 286.002 Q 228.092 278.132 236.222 273.402 Q 237.792 272.482 237.212 274.202 Q 236.852 275.242 236.012 275.772 Q 234.602 276.662 234.452 276.802 Q 232.492 278.632 230.462 280.372 Q 230.292 280.522 228.412 282.512 Q 227.352 283.622 225.922 284.272 Q 225.472 284.472 225.132 284.842 Z " fill="rgb(151,49,52)"/><path d=" M 162.652 209.962 C 162.427 209.83 162.273 209.604 162.232 209.346 C 162.191 209.089 162.268 208.826 162.442 208.632 Q 165.472 205.202 169.222 203.152 Q 177.962 198.372 187.652 196.252 C 187.979 196.216 188.313 196.279 188.562 196.422 Q 189.032 196.862 188.082 197.342 Q 177.902 202.422 170.052 209.272 Q 168.112 210.962 166.652 211.062 Q 164.722 211.182 162.652 209.962 Z " fill="rgb(172,63,31)"/><path d=" M 147.582 172.252 Q 151.972 167.732 158.392 170.152 Q 160.722 171.032 158.882 171.542 Q 158.482 171.652 157.902 171.642 Q 150.792 171.522 145.692 176.482 C 145.611 176.555 145.496 176.586 145.386 176.564 C 145.276 176.542 145.185 176.47 145.142 176.372 Q 144.612 174.772 145.902 173.692 Q 147.452 172.382 147.582 172.252 Z " fill="rgb(254,102,52)"/><path d=" M 131.102 275.292 Q 128.722 273.442 132.142 273.152 Q 134.632 272.942 141.862 271.562 Q 141.972 271.542 148.072 270.522 Q 157.012 269.022 165.222 265.062 Q 170.682 262.432 176.352 260.292 Q 178.722 259.392 178.292 261.172 Q 178.172 261.672 178.222 262.142 Q 178.362 263.282 177.902 264.232 Q 177.522 265.002 176.402 265.542 Q 173.072 267.142 169.612 268.442 Q 166.762 269.512 162.722 270.992 Q 148.712 276.132 133.622 276.152 C 132.709 276.144 131.824 275.842 131.102 275.292 Z " fill="rgb(183,70,34)"/></g></svg>