<?xml version="1.0" encoding="UTF-8" standalone="no"?><!-- Generator: Gravit.io --><svg xmlns="http://www.w3.org/2000/svg" xmlns:xlink="http://www.w3.org/1999/xlink" style="isolation:isolate" viewBox="81.478 151.643 216.51 183.113" width="216.51pt" height="183.113pt"><defs><clipPath id="_clipPath_0RerzcaBdq0yX0aqn0IfnFYwGG643TIK"><rect x="81.478" y="151.643" width="216.51" height="183.113"/></clipPath></defs><g clip-path="url(#_clipPath_0RerzcaBdq0yX0aqn0IfnFYwGG643TIK)"><path d=" M 192.647 152.141 Q 194.247 153.851 192.857 155.931 L 186.377 157.801 Q 173.717 158.261 162.897 164.891 Q 158.877 166.701 156.017 170.041 Q 152.067 174.65 147.037 178.041 Q 139.647 183.041 133.647 189.641 Q 130.537 191.871 130.127 195.611 C 130.161 195.931 130.041 196.249 129.787 196.511 Q 128.197 198.571 126.177 200.231 Q 123.007 202.851 121.767 206.561 Q 121.337 207.851 122.637 207.431 Q 126.407 206.22 130.347 206.011 Q 130.847 205.991 130.597 206.441 Q 129.327 208.791 127.087 210.371 Q 120.147 215.28 117.917 223.311 Q 117.247 225.741 116.517 226.991 Q 115.517 228.72 114.297 230.311 Q 112.047 233.251 111.627 237.101 C 111.593 237.405 111.697 237.708 111.912 237.929 C 112.126 238.149 112.429 238.263 112.737 238.241 Q 116.557 237.91 119.397 236.47 Q 119.387 238.121 120.397 239.47 Q 114.697 243.311 112.367 249.711 Q 110.917 249.321 110.427 250.231 Q 108.557 253.731 109.107 257.681 L 108.857 260.431 Q 107.567 259.921 108.007 258.811 Q 105.687 241.021 109.937 223.931 Q 123.957 176.851 168.937 157.431 Q 180.457 153.291 192.647 152.141 Z " fill="rgb(179,102,38)"/><path d=" M 213.607 154.181 Q 213.857 156.481 213.417 158.711 Q 213.037 160.671 211.247 162.461 Q 206.517 167.15 201.667 171.701 Q 198.317 174.831 197.097 179.241 Q 195.467 185.131 190.857 189.121 Q 183.127 195.811 173.837 200.121 Q 165.517 203.97 159.477 207.681 Q 151.217 212.761 147.317 216.22 Q 141.657 221.251 138.357 228.431 Q 136.607 226.561 134.147 226.391 Q 138.577 216.271 147.957 210.491 Q 165.517 199.681 183.087 188.871 Q 188.487 185.541 190.907 180.801 Q 191.567 179.511 192.077 175.861 Q 192.677 171.611 195.257 168.03 Q 197.167 165.381 199.407 163.021 Q 203.107 159.111 203.957 158.41 Q 206.637 156.201 210.247 155.561 Q 211.157 155.4 211.957 154.981 Q 212.757 154.541 213.607 154.181 Z " fill="rgb(224,123,53)"/><path d=" M 248.557 165.771 L 251.937 167.931 Q 252.427 171.581 250.957 177.991 Q 247.607 192.66 237.237 201.391 L 248.557 165.771 Z " fill="rgb(169,85,59)"/><path d=" M 164.057 182.861 Q 160.467 185.771 156.477 188.211 Q 151.267 191.4 148.707 193.201 Q 143.297 197.03 137.587 200.571 C 137.464 200.647 137.315 200.666 137.177 200.624 C 137.039 200.582 136.926 200.482 136.867 200.351 Q 135.317 197.001 136.187 194.181 Q 139.737 191.771 144.897 190.431 Q 158.097 187.001 160.377 173.431 Q 161.877 173.65 162.957 172.241 Q 164.057 170.821 167.317 168.391 Q 171.057 165.601 171.207 169.4 Q 171.257 170.741 170.657 172.391 Q 168.527 178.241 164.057 182.861 Z " fill="rgb(178,92,52)"/><path d=" M 277.647 176.891 Q 284.377 175.811 282.857 181.931 Q 281.127 183.391 280.167 185.41 C 279.76 185.686 279.718 186.053 280.057 186.361 Q 280.177 187.441 279.457 188.741 Q 278.557 190.381 278.357 193.621 C 278.349 193.936 278.221 194.238 277.997 194.47 Q 271.027 201.681 263.327 208.071 Q 260.497 210.421 255.577 213.171 Q 246.257 218.381 238.357 225.681 Q 230.477 232.671 222.587 239.65 Q 222.267 239.931 222.007 239.931 Q 221.487 239.941 221.787 239.021 Q 221.917 238.611 221.907 237.581 L 221.897 233.22 Q 230.117 226.041 238.427 218.961 Q 246.547 212.041 255.557 206.321 Q 261.217 202.72 266.317 198.381 Q 272.377 193.231 273.857 185.581 Q 273.997 184.821 273.777 181.801 Q 273.487 178.071 277.647 176.891 Z " fill="rgb(250,120,39)"/><path d=" M 233.897 158.47 L 237.627 160.111 Q 236.577 162.791 237.857 165.431 Q 236.257 165.03 234.687 165.431 Q 233.737 164.4 232.587 162.241 Q 231.857 160.871 232.627 159.861 C 232.701 159.695 233.015 159.557 233.447 159.501 Q 234.117 159.391 233.897 158.47 Z " fill="rgb(239,156,50)"/><path d=" M 234.847 204.191 L 231.557 210.97 C 231.402 211.242 231.508 211.577 231.797 211.731 L 234.147 213.22 L 232.687 214.431 Q 229.977 212.53 227.957 215.241 Q 226.617 217.041 227.687 218.681 Q 226.847 220.451 225.187 221.431 Q 224.907 218.511 222.767 220.291 Q 220.887 221.84 221.687 224.181 L 210.687 231.681 Q 210.477 230.361 209.677 229.371 C 209.467 229.128 209.16 228.976 208.827 228.951 Q 206.177 228.831 204.337 230.4 Q 203.937 230.741 203.747 231.231 Q 202.827 233.701 201.897 232.351 C 201.791 232.111 201.533 231.903 201.177 231.771 Q 198.397 230.921 197.407 233.691 Q 196.527 236.16 198.897 236.97 Q 197.637 238.201 198.737 239.141 C 199.309 239.309 199.53 239.641 199.257 239.921 Q 199.327 240.78 198.357 241.181 Q 198.227 239.491 196.647 238.931 Q 193.967 237.991 193.897 240.681 Q 193.847 242.691 195.647 243.141 Q 188.967 247.321 181.387 249.391 Q 179.077 250.021 176.867 251.351 Q 174.717 252.641 172.397 253.641 Q 172.747 252.831 172.397 251.97 Q 173.677 249.451 176.837 247.871 Q 180.537 246.011 182.557 241.671 Q 187.697 230.631 198.817 225.581 Q 204.357 223.061 210.167 221.231 Q 225.147 216.501 234.847 204.191 Z " fill="rgb(162,81,72)"/><path d=" M 216.557 269.34 Q 214.487 271.771 212.897 274.4 Q 209.737 279.611 203.937 281.53 Q 197.057 276.571 188.897 274.291 Q 190.837 274.001 192.697 274.481 Q 195.497 275.201 196.327 275.22 Q 202.477 275.391 208.227 273.041 Q 212.477 271.291 216.557 269.34 Z " fill="rgb(162,81,72)"/><path d=" M 151.177 304.72 Q 149.037 306.41 150.897 307.181 Q 152.867 308.001 155.897 307.22 Q 149.307 309.601 142.597 307.801 Q 144.737 305.711 147.147 305.931 Q 147.907 306.001 151.177 304.72 Z " fill="rgb(162,81,72)"/><path d=" M 292.897 174.641 Q 295.277 176.731 294.397 179.891 L 290.927 182.22 Q 284.937 180.291 289.147 175.931 Q 289.827 175.22 292.897 174.641 Z " fill="rgb(254,164,99)"/><path d=" M 283.357 208.4 Q 296.857 242.681 282.917 276.731 Q 272.847 301.321 251.357 316.931 Q 237.417 326.491 224.337 330.371 Q 189.397 340.731 154.707 326.621 Q 143.057 321.881 135.387 314.501 Q 148.887 323.061 164.397 326.641 Q 173.037 327.65 181.647 328.931 Q 186.477 329.641 191.067 328.711 Q 199.527 329.431 207.327 327.191 Q 217.837 325.231 227.397 320.72 Q 236.627 317.051 244.437 310.931 Q 252.367 305.16 261.337 295.371 Q 273.857 281.691 278.957 265.491 Q 284.897 246.65 284.107 230.181 Q 284.197 223.521 282.217 217.131 Q 282.277 216.251 281.857 215.431 Q 281.807 213.521 280.147 212.641 Q 281.087 209.981 283.357 208.4 Z " fill="rgb(254,164,99)"/><path d=" M 280.147 212.641 Q 281.807 213.521 281.857 215.431 Q 277.477 220.521 271.657 223.851 Q 270.797 224.351 270.427 224.851 Q 269.517 226.081 270.767 226.65 Q 271.487 226.991 272.547 226.751 Q 277.297 225.66 280.957 222.451 C 281.237 222.231 281.395 221.933 281.397 221.621 L 282.217 217.131 Q 284.197 223.521 284.107 230.181 Q 280.707 232.681 276.637 233.891 Q 272.507 235.121 271.457 237.491 Q 269.757 241.351 267.867 245.121 Q 267.857 245.15 264.387 250.861 Q 262.827 253.41 261.997 256.291 Q 261.977 256.351 261.247 261.621 Q 260.757 265.09 258.767 267.891 Q 257.457 269.741 253.887 272.28 Q 250.697 274.551 247.517 276.821 Q 244.367 279.071 243.207 281.241 Q 240.507 286.321 237.307 291.16 C 236.794 291.936 235.938 292.416 235.007 292.451 Q 224.467 292.831 215.587 299.421 Q 213.167 301.22 212.037 304.03 Q 209.807 309.571 207.187 314.671 Q 205.917 317.131 203.157 317.431 Q 185.387 319.331 168.857 325.991 Q 168.407 326.181 167.897 326.111 Q 166.277 325.91 164.647 325.921 Q 163.947 325.921 164.397 326.641 Q 148.887 323.061 135.387 314.501 Q 128.707 310.381 124.107 303.681 Q 124.357 303.291 124.857 303.431 Q 127.567 305.321 130.897 304.421 Q 135.317 303.211 139.897 302.891 Q 141.857 302.501 142.397 304.181 Q 142.587 304.78 142.597 307.801 Q 149.307 309.601 155.897 307.22 Q 162.207 306.431 165.837 301.371 Q 167.067 299.65 169.897 292.72 Q 175.277 286.701 182.147 282.391 Q 183.197 282.001 184.277 281.951 Q 184.747 281.931 186.297 282.441 Q 187.527 282.84 189.647 282.931 Q 198.277 283.301 203.937 281.53 Q 209.737 279.611 212.897 274.4 Q 214.487 271.771 216.557 269.34 Q 224.637 265.201 228.647 257.431 Q 233.077 248.851 239.397 242.391 Q 244.947 241.4 247.687 236.731 Q 248.757 234.9 248.817 234.801 Q 249.797 233.291 250.757 231.761 Q 251.697 230.271 253.107 229.131 Q 257.047 225.951 260.687 222.431 L 265.037 221.481 Q 273.757 219.141 280.147 212.641 Z " fill="rgb(207,116,45)"/><path d=" M 192.857 155.931 Q 192.787 160.431 188.827 162.611 Q 180.907 166.981 179.087 175.871 Q 177.867 181.801 173.467 186.771 Q 170.827 189.751 164.137 194.271 Q 152.347 202.231 139.997 209.311 Q 136.657 211.22 133.857 213.791 Q 131.407 216.03 129.117 219.65 Q 125.727 225.021 123.897 229.681 Q 122.167 234.09 119.397 236.47 Q 116.557 237.91 112.737 238.241 C 112.429 238.263 112.126 238.149 111.912 237.929 C 111.697 237.708 111.593 237.405 111.627 237.101 Q 112.047 233.251 114.297 230.311 Q 115.517 228.72 116.517 226.991 Q 117.247 225.741 117.917 223.311 Q 120.147 215.28 127.087 210.371 Q 129.327 208.791 130.597 206.441 Q 130.847 205.991 130.347 206.011 Q 126.407 206.22 122.637 207.431 Q 121.337 207.851 121.767 206.561 Q 123.007 202.851 126.177 200.231 Q 128.197 198.571 129.787 196.511 C 130.041 196.249 130.161 195.931 130.127 195.611 Q 130.537 191.871 133.647 189.641 Q 134.517 190.621 134.857 191.891 C 134.906 192.161 135.125 192.398 135.447 192.53 Q 136.357 192.97 136.187 194.181 Q 135.317 197.001 136.867 200.351 C 136.926 200.482 137.039 200.582 137.177 200.624 C 137.315 200.666 137.464 200.647 137.587 200.571 Q 143.297 197.03 148.707 193.201 Q 151.267 191.4 156.477 188.211 Q 160.467 185.771 164.057 182.861 Q 171.377 179.271 173.897 172.931 Q 177.957 162.72 186.377 157.801 L 192.857 155.931 Z " fill="rgb(240,144,42)"/><path d=" M 251.937 167.931 Q 258.137 172.41 263.647 177.72 L 263.687 178.181 Q 263.897 179.291 262.897 179.47 L 258.737 175.541 Q 257.947 174.791 257.887 175.91 Q 257.637 180.65 255.717 184.981 Q 255.377 185.761 251.927 190.921 Q 249.437 194.65 248.327 199.111 Q 247.367 202.961 245.337 205.121 Q 241.027 209.701 234.147 213.22 L 231.797 211.731 C 231.508 211.577 231.402 211.242 231.557 210.97 L 234.847 204.191 Q 236.977 203.211 237.237 201.391 Q 247.607 192.66 250.957 177.991 Q 252.427 171.581 251.937 167.931 Z " fill="rgb(230,133,50)"/><path d=" M 266.107 187.431 Q 266.577 188.261 266.647 189.181 C 266.875 189.31 266.966 189.475 266.9 189.636 C 266.834 189.798 266.617 189.943 266.297 190.041 Q 265.817 190.701 266.647 191.22 L 260.597 194.481 C 260.486 194.531 260.358 194.527 260.251 194.47 C 260.144 194.413 260.072 194.309 260.057 194.191 Q 259.497 190.72 262.897 189.681 Q 265.157 188.991 266.107 187.431 Z " fill="rgb(175,80,72)"/><path d=" M 238.357 225.681 Q 237.877 227.03 238.907 227.751 C 239.304 227.924 239.532 228.181 239.527 228.451 Q 240.297 230.491 239.897 232.641 Q 226.287 241.66 220.707 256.991 Q 219.837 259.4 217.397 260.141 Q 217.777 259.59 217.837 259.001 Q 217.887 258.53 217.457 258.811 Q 216.857 259.191 216.127 259.061 Q 215.597 258.97 215.157 259.041 Q 213.717 259.251 213.687 257.931 Q 217.187 258.72 218.397 255.681 Q 220.487 250.421 215.267 251.961 L 221.657 242.931 Q 222.197 242.16 221.237 242.191 Q 219.237 242.261 220.477 240.961 C 220.694 240.733 220.809 240.431 220.797 240.121 L 220.607 233.681 Q 221.167 233.231 221.897 233.22 L 221.907 237.581 Q 221.917 238.611 221.787 239.021 Q 221.487 239.941 222.007 239.931 Q 222.267 239.931 222.587 239.65 Q 230.477 232.671 238.357 225.681 Z " fill="rgb(175,80,72)"/><path d=" M 134.147 226.391 Q 136.607 226.561 138.357 228.431 Q 135.827 236.051 129.157 240.011 Q 126.127 241.811 126.077 241.851 Q 122.237 244.461 119.707 247.491 Q 116.497 251.351 112.367 249.711 Q 114.697 243.311 120.397 239.47 Q 129.127 234.851 134.147 226.391 Z " fill="rgb(239,137,52)"/><path d=" M 284.107 230.181 Q 284.897 246.65 278.957 265.491 Q 273.857 281.691 261.337 295.371 Q 252.367 305.16 244.437 310.931 L 246.437 307.431 Q 249.897 298.291 257.457 292.561 Q 257.497 292.53 262.107 289.671 Q 269.647 284.991 272.557 275.951 Q 273.037 274.451 272.077 275.701 Q 267.897 281.211 261.487 284.791 Q 257.577 286.981 253.707 289.241 Q 250.507 291.121 248.127 295.111 Q 244.697 300.871 244.667 300.91 Q 241.357 305.4 237.147 309.141 Q 230.727 313.671 227.397 320.72 Q 217.837 325.231 207.327 327.191 Q 209.247 325.331 211.747 324.541 Q 214.217 323.761 214.967 322.861 Q 216.117 321.491 216.957 319.241 Q 217.707 317.241 218.457 315.241 Q 219.367 312.821 220.407 311.47 Q 223.197 307.861 227.647 306.181 Q 229.877 305.34 232.067 304.381 Q 232.157 304.351 235.307 303.181 Q 238.177 302.111 240.357 299.851 Q 241.047 299.131 240.057 299.291 Q 233.937 300.291 228.347 301.451 Q 218.167 303.561 214.587 312.521 Q 212.747 317.15 212.027 318.021 Q 209.977 320.501 206.397 322.181 Q 198.857 325.72 191.067 328.711 Q 186.477 329.641 181.647 328.931 Q 173.037 327.65 164.397 326.641 Q 163.947 325.921 164.647 325.921 Q 166.277 325.91 167.897 326.111 Q 168.407 326.181 168.857 325.991 Q 185.387 319.331 203.157 317.431 Q 205.917 317.131 207.187 314.671 Q 209.807 309.571 212.037 304.03 Q 213.167 301.22 215.587 299.421 Q 224.467 292.831 235.007 292.451 C 235.938 292.416 236.794 291.936 237.307 291.16 Q 240.507 286.321 243.207 281.241 Q 244.367 279.071 247.517 276.821 Q 250.697 274.551 253.887 272.28 Q 257.457 269.741 258.767 267.891 Q 260.757 265.09 261.247 261.621 Q 261.977 256.351 261.997 256.291 Q 262.827 253.41 264.387 250.861 Q 267.857 245.15 267.867 245.121 Q 269.757 241.351 271.457 237.491 Q 272.507 235.121 276.637 233.891 Q 280.707 232.681 284.107 230.181 Z " fill="rgb(111,58,87)"/><path d=" M 239.897 232.641 Q 240.897 233.881 241.857 233.621 L 244.897 234.72 Q 243.857 235.111 244.587 235.491 C 245.06 235.694 245.364 236.108 245.376 236.567 C 245.389 237.026 245.108 237.454 244.647 237.681 L 239.397 242.391 Q 233.077 248.851 228.647 257.431 Q 224.637 265.201 216.557 269.34 Q 212.477 271.291 208.227 273.041 Q 202.477 275.391 196.327 275.22 Q 195.497 275.201 192.697 274.481 Q 190.837 274.001 188.897 274.291 Q 188.687 274.47 188.647 274.641 Q 183.137 277.03 177.327 278.59 Q 170.857 280.321 164.707 282.991 Q 159.867 285.101 156.157 290.701 Q 156.097 290.801 153.977 295.231 Q 151.867 299.671 146.727 301.051 Q 143.307 301.97 139.897 302.891 Q 135.317 303.211 130.897 304.421 Q 127.567 305.321 124.857 303.431 Q 123.907 301.421 125.147 299.72 Q 126.887 299.751 128.397 298.891 Q 130.297 299.371 131.337 297.871 Q 131.757 297.251 133.897 296.141 L 136.997 295.09 Q 142.547 291.701 148.387 288.91 Q 149.797 288.241 150.517 286.891 Q 150.677 286.59 151.077 286.251 Q 151.507 285.871 150.897 285.641 L 151.437 285.181 Q 152.887 284.141 152.287 281.751 C 151.929 280.916 152.493 280.011 153.557 279.711 L 156.787 278.271 Q 157.417 277.991 157.707 277.941 Q 159.147 277.701 159.767 276.451 C 159.868 276.178 160.1 275.943 160.417 275.791 Q 168.537 272.291 177.047 269.871 Q 177.127 269.851 180.197 268.821 Q 184.167 267.481 188.357 268.431 Q 189.877 269.851 192.377 269.021 Q 193.887 265.53 197.647 263.181 Q 200.527 261.381 200.687 264.431 Q 198.017 265.931 199.317 268.311 C 199.473 268.594 199.747 268.795 200.067 268.861 Q 202.867 269.451 204.687 267.181 Q 206.547 266.061 210.207 264.741 Q 213.707 263.491 217.397 260.141 Q 219.837 259.4 220.707 256.991 Q 226.287 241.66 239.897 232.641 Z " fill="rgb(122,64,82)"/><path d=" M 162.897 164.891 Q 164.057 164.861 163.407 165.931 Q 161.307 169.391 160.377 173.431 Q 158.097 187.001 144.897 190.431 Q 139.737 191.771 136.187 194.181 Q 136.357 192.97 135.447 192.53 C 135.125 192.398 134.906 192.161 134.857 191.891 Q 134.517 190.621 133.647 189.641 Q 139.647 183.041 147.037 178.041 Q 152.067 174.65 156.017 170.041 Q 158.877 166.701 162.897 164.891 Z " fill="rgb(215,122,40)"/><path d=" M 88.507 281.571 Q 95.037 282.851 91.857 277.681 L 97.927 274.881 C 98.208 274.769 98.537 274.848 98.717 275.071 L 99.927 276.981 C 100.108 277.254 100.1 277.605 99.907 277.871 L 97.317 281.671 Q 95.217 288.481 100.437 290.72 Q 103.417 292.001 108.487 291.621 Q 113.717 291.22 118.647 289.171 Q 125.387 286.371 131.657 282.621 C 131.945 282.447 132.145 282.186 132.217 281.891 Q 132.767 280.15 134.157 279.171 Q 136.427 277.571 136.527 277.481 Q 138.327 275.821 140.267 274.261 L 149.147 269.97 Q 169.557 263.741 188.897 254.72 Q 199.227 250.441 209.797 247.811 Q 211.037 247.501 210.217 248.481 Q 206.767 252.601 202.247 255.191 Q 199.767 256.621 192.677 258.941 Q 178.077 263.701 156.337 271.871 Q 147.347 275.241 141.047 280.551 Q 138.627 282.59 138.587 282.631 Q 128.817 290.391 117.327 295.34 Q 112.127 297.581 105.897 296.681 Q 103.597 296.351 100.337 296.371 Q 96.957 296.391 95.507 295.981 Q 93.167 295.311 91.087 293.78 Q 89.437 292.561 89.417 291.041 L 89.327 285.681 Q 89.317 285.16 89.217 284.72 L 88.507 281.571 Z " fill="rgb(251,115,37)"/><path d=" M 294.397 179.891 Q 295.187 180.301 295.647 181.141 Q 290.947 182.16 292.467 186.461 C 292.565 186.743 292.831 186.938 293.137 186.951 Q 295.127 186.961 296.897 185.97 L 295.187 190.681 Q 292.707 196.211 288.937 200.931 Q 289.017 199.881 288.147 200.181 Q 287.347 200.451 286.397 199.891 Q 286.727 197.861 285.257 198.621 Q 284.807 198.851 284.327 198.881 Q 282.197 199.021 280.837 200.421 Q 279.557 201.731 280.107 203.231 Q 280.647 204.741 282.557 205.601 L 283.647 205.72 Q 281.937 206.511 283.357 208.4 Q 281.087 209.981 280.147 212.641 Q 273.757 219.141 265.037 221.481 Q 265.867 218.571 264.107 217.891 Q 262.797 217.381 261.247 218.181 Q 258.797 219.451 260.687 222.431 Q 257.047 225.951 253.107 229.131 Q 251.697 230.271 250.757 231.761 Q 249.797 233.291 248.817 234.801 Q 248.757 234.9 247.687 236.731 Q 244.947 241.4 239.397 242.391 L 244.647 237.681 C 245.108 237.454 245.389 237.026 245.376 236.567 C 245.364 236.108 245.06 235.694 244.587 235.491 Q 243.857 235.111 244.897 234.72 Q 246.367 234.28 247.847 232.511 C 248.135 232.164 248.24 231.7 248.129 231.263 C 248.018 230.826 247.705 230.468 247.287 230.301 Q 242.307 228.311 241.857 233.621 Q 240.897 233.881 239.897 232.641 Q 240.297 230.491 239.527 228.451 C 239.532 228.181 239.304 227.924 238.907 227.751 Q 237.877 227.03 238.357 225.681 Q 246.257 218.381 255.577 213.171 Q 260.497 210.421 263.327 208.071 Q 271.027 201.681 277.997 194.47 C 278.221 194.238 278.349 193.936 278.357 193.621 Q 278.557 190.381 279.457 188.741 Q 280.177 187.441 280.057 186.361 C 279.718 186.053 279.76 185.686 280.167 185.41 Q 281.127 183.391 282.857 181.931 Q 280.427 186.571 283.457 183.84 Q 283.927 183.41 284.487 183.261 Q 287.627 182.371 290.927 182.22 L 294.397 179.891 Z " fill="rgb(157,71,82)"/><path d=" M 220.607 233.681 L 220.797 240.121 C 220.809 240.431 220.694 240.733 220.477 240.961 Q 219.237 242.261 221.237 242.191 Q 222.197 242.16 221.657 242.931 L 215.267 251.961 Q 210.177 254.16 213.687 257.931 Q 213.717 259.251 215.157 259.041 Q 215.597 258.97 216.127 259.061 Q 216.857 259.191 217.457 258.811 Q 217.887 258.53 217.837 259.001 Q 217.777 259.59 217.397 260.141 Q 213.707 263.491 210.207 264.741 Q 206.547 266.061 204.687 267.181 Q 203.887 264.131 200.687 264.431 Q 200.527 261.381 197.647 263.181 Q 193.887 265.53 192.377 269.021 Q 194.337 262.961 188.897 265.431 Q 186.987 266.301 188.357 268.431 Q 184.167 267.481 180.197 268.821 Q 177.127 269.851 177.047 269.871 Q 168.537 272.291 160.417 275.791 C 160.1 275.943 159.868 276.178 159.767 276.451 Q 159.147 277.701 157.707 277.941 Q 157.417 277.991 156.787 278.271 L 153.557 279.711 C 152.493 280.011 151.929 280.916 152.287 281.751 Q 152.887 284.141 151.437 285.181 Q 150.987 278.171 146.537 283.121 C 146.316 283.361 146.205 283.679 146.227 284.001 Q 146.507 288.331 150.897 285.641 Q 151.507 285.871 151.077 286.251 Q 150.677 286.59 150.517 286.891 Q 149.797 288.241 148.387 288.91 Q 142.547 291.701 136.997 295.09 Q 138.847 292.551 137.217 291.461 Q 136.087 290.701 134.507 291.311 Q 131.297 292.541 133.897 296.141 Q 131.757 297.251 131.337 297.871 Q 130.297 299.371 128.397 298.891 Q 131.057 297.701 129.137 296.621 Q 128.377 296.181 127.457 296.331 Q 125.837 296.601 124.507 297.561 Q 123.827 298.051 123.717 298.65 Q 123.517 299.72 125.147 299.72 Q 123.907 301.421 124.857 303.431 Q 124.357 303.291 124.107 303.681 Q 122.107 300.881 118.827 302.731 Q 115.397 304.671 111.647 305.891 Q 110.757 303.001 107.847 303.081 C 107.53 303.096 107.267 303.306 107.207 303.59 Q 106.717 305.821 109.197 306.78 L 93.867 309.491 Q 91.647 306.78 86.967 308.4 Q 88.057 305.511 85.527 303.981 Q 89.877 297.561 82.687 297.431 Q 84.067 288.65 87.437 280.431 Q 88.147 280.881 88.507 281.571 L 89.217 284.72 Q 89.317 285.16 89.327 285.681 L 89.417 291.041 Q 89.437 292.561 91.087 293.78 Q 93.167 295.311 95.507 295.981 Q 96.957 296.391 100.337 296.371 Q 103.597 296.351 105.897 296.681 Q 112.127 297.581 117.327 295.34 Q 128.817 290.391 138.587 282.631 Q 138.627 282.59 141.047 280.551 Q 147.347 275.241 156.337 271.871 Q 178.077 263.701 192.677 258.941 Q 199.767 256.621 202.247 255.191 Q 206.767 252.601 210.217 248.481 Q 211.037 247.501 209.797 247.811 Q 199.227 250.441 188.897 254.72 L 182.147 255.141 Q 185.647 253.671 188.807 251.581 Q 192.467 249.16 196.547 247.66 Q 200.587 246.171 202.807 244.831 Q 211.797 239.4 220.607 233.681 Z " fill="rgb(157,71,82)"/><path d=" M 108.007 258.811 Q 107.567 259.921 108.857 260.431 Q 108.387 270.491 112.957 279.501 Q 110.677 278.601 110.397 281.181 Q 110.167 283.321 111.147 284.391 Q 111.867 285.181 113.877 285.381 Q 118.987 285.91 122.957 283.741 Q 125.637 282.28 127.397 282.22 Q 122.617 285.231 120.457 285.741 Q 116.947 286.581 114.027 288.521 Q 111.487 290.201 109.867 290.501 Q 104.697 291.451 100.207 289.121 Q 96.197 287.03 97.317 281.671 L 99.907 277.871 C 100.1 277.605 100.108 277.254 99.927 276.981 L 98.717 275.071 C 98.537 274.848 98.208 274.769 97.927 274.881 L 91.857 277.681 Q 91.527 277.551 91.397 277.22 Q 93.767 274.791 95.867 272.131 Q 98.587 268.701 100.217 266.981 Q 104.097 262.881 108.007 258.811 Z " fill="rgb(157,71,82)"/><path d=" M 225.187 221.431 Q 224.287 223.811 221.687 224.181 Q 220.887 221.84 222.767 220.291 Q 224.907 218.511 225.187 221.431 Z " fill="rgb(254,147,70)"/><path d=" M 146.497 262.921 Q 144.157 268.611 138.517 266.931 Q 141.087 261.521 146.497 262.921 Z " fill="rgb(254,147,70)"/><path d=" M 232.687 214.431 Q 231.367 217.9 227.687 218.681 Q 226.617 217.041 227.957 215.241 Q 229.977 212.53 232.687 214.431 Z " fill="rgb(254,178,75)"/><path d=" M 210.687 231.681 Q 208.417 232.97 206.067 234.111 Q 205.937 234.171 203.447 235.53 Q 201.337 236.691 198.897 236.97 Q 196.527 236.16 197.407 233.691 Q 198.397 230.921 201.177 231.771 C 201.533 231.903 201.791 232.111 201.897 232.351 Q 202.827 233.701 203.747 231.231 Q 203.937 230.741 204.337 230.4 Q 206.177 228.831 208.827 228.951 C 209.16 228.976 209.467 229.128 209.677 229.371 Q 210.477 230.361 210.687 231.681 Z " fill="rgb(254,178,75)"/><path d=" M 172.397 251.97 Q 172.747 252.831 172.397 253.641 Q 170.117 255.511 167.147 255.391 Q 165.777 252.691 168.087 251.371 Q 170.227 250.141 172.397 251.97 Z " fill="rgb(254,178,75)"/><path d=" M 213.687 257.931 Q 210.177 254.16 215.267 251.961 Q 220.487 250.421 218.397 255.681 Q 217.187 258.72 213.687 257.931 Z " fill="rgb(254,178,75)"/><path d=" M 136.357 269.931 Q 137.787 272.47 135.457 274.241 Q 133.047 276.09 130.987 273.821 Q 132.407 270.181 136.357 269.931 Z " fill="rgb(254,178,75)"/><path d=" M 290.187 172.431 L 292.897 174.641 Q 289.827 175.22 289.147 175.931 Q 284.937 180.291 290.927 182.22 Q 287.627 182.371 284.487 183.261 Q 283.927 183.41 283.457 183.84 Q 280.427 186.571 282.857 181.931 Q 284.377 175.811 277.647 176.891 Q 280.827 176.741 283.967 176.311 Q 284.657 176.22 285.787 176.451 Q 287.797 176.861 287.147 174.47 Q 289.397 174.271 290.187 172.431 Z " fill="rgb(212,78,61)"/><path d=" M 263.687 178.181 L 269.577 184.311 C 269.814 184.548 269.933 184.862 269.907 185.181 Q 269.907 188.981 266.647 191.22 Q 265.817 190.701 266.297 190.041 C 266.617 189.943 266.834 189.798 266.9 189.636 C 266.966 189.475 266.875 189.31 266.647 189.181 Q 266.577 188.261 266.107 187.431 L 265.907 183.491 C 265.951 183.19 265.764 182.895 265.417 182.72 Q 263.687 181.501 262.897 179.47 Q 263.897 179.291 263.687 178.181 Z " fill="rgb(212,78,61)"/><path d=" M 188.897 254.72 Q 169.557 263.741 149.147 269.97 Q 148.627 268.981 150.157 268.761 Q 151.687 268.551 150.957 267.991 Q 159.897 263.84 169.147 260.431 Q 172.697 259.131 175.687 257.851 Q 178.907 256.47 182.147 255.141 L 188.897 254.72 Z " fill="rgb(212,78,61)"/><path d=" M 140.267 274.261 Q 138.327 275.821 136.527 277.481 Q 136.427 277.571 134.157 279.171 Q 132.767 280.15 132.217 281.891 C 132.145 282.186 131.945 282.447 131.657 282.621 Q 125.387 286.371 118.647 289.171 Q 113.717 291.22 108.487 291.621 Q 103.417 292.001 100.437 290.72 Q 95.217 288.481 97.317 281.671 Q 96.197 287.03 100.207 289.121 Q 104.697 291.451 109.867 290.501 Q 111.487 290.201 114.027 288.521 Q 116.947 286.581 120.457 285.741 Q 122.617 285.231 127.397 282.22 L 140.267 274.261 Z " fill="rgb(212,78,61)"/><path d=" M 186.377 157.801 Q 177.957 162.72 173.897 172.931 Q 171.377 179.271 164.057 182.861 Q 168.527 178.241 170.657 172.391 Q 171.257 170.741 171.207 169.4 Q 171.057 165.601 167.317 168.391 Q 164.057 170.821 162.957 172.241 Q 161.877 173.65 160.377 173.431 Q 161.307 169.391 163.407 165.931 Q 164.057 164.861 162.897 164.891 Q 173.717 158.261 186.377 157.801 Z " fill="rgb(195,108,39)"/><path d=" M 188.897 274.291 Q 197.057 276.571 203.937 281.53 Q 198.277 283.301 189.647 282.931 Q 187.527 282.84 186.297 282.441 Q 184.747 281.931 184.277 281.951 Q 183.197 282.001 182.147 282.391 Q 183.377 281.391 184.207 279.491 Q 185.487 276.59 188.747 275.16 Q 189.917 274.641 188.647 274.641 Q 188.687 274.47 188.897 274.291 Z " fill="rgb(195,108,39)"/><path d=" M 214.147 153.141 Q 213.697 153.561 213.607 154.181 Q 212.757 154.541 211.957 154.981 Q 211.157 155.4 210.247 155.561 Q 206.637 156.201 203.957 158.41 Q 203.107 159.111 199.407 163.021 Q 197.167 165.381 195.257 168.03 Q 192.677 171.611 192.077 175.861 Q 191.567 179.511 190.907 180.801 Q 188.487 185.541 183.087 188.871 Q 165.517 199.681 147.957 210.491 Q 138.577 216.271 134.147 226.391 Q 129.127 234.851 120.397 239.47 Q 119.387 238.121 119.397 236.47 Q 122.167 234.09 123.897 229.681 Q 125.727 225.021 129.117 219.65 Q 131.407 216.03 133.857 213.791 Q 136.657 211.22 139.997 209.311 Q 152.347 202.231 164.137 194.271 Q 170.827 189.751 173.467 186.771 Q 177.867 181.801 179.087 175.871 Q 180.907 166.981 188.827 162.611 Q 192.787 160.431 192.857 155.931 Q 194.247 153.851 192.647 152.141 Q 203.497 150.78 214.147 153.141 Z " fill="rgb(163,88,60)"/><path d=" M 188.647 274.641 Q 189.917 274.641 188.747 275.16 Q 185.487 276.59 184.207 279.491 Q 183.377 281.391 182.147 282.391 Q 175.277 286.701 169.897 292.72 Q 165.517 291.761 161.967 293.28 Q 159.847 294.181 158.957 296.321 Q 156.527 302.191 151.177 304.72 Q 147.907 306.001 147.147 305.931 Q 144.737 305.711 142.597 307.801 Q 142.587 304.78 142.397 304.181 Q 141.857 302.501 139.897 302.891 Q 143.307 301.97 146.727 301.051 Q 151.867 299.671 153.977 295.231 Q 156.097 290.801 156.157 290.701 Q 159.867 285.101 164.707 282.991 Q 170.857 280.321 177.327 278.59 Q 183.137 277.03 188.647 274.641 Z " fill="rgb(163,88,60)"/><path d=" M 246.437 307.431 L 246.887 304.691 C 246.988 304.393 246.874 304.073 246.597 303.881 Q 244.417 302.241 243.207 303.991 Q 240.857 307.41 237.147 309.141 Q 241.357 305.4 244.667 300.91 Q 244.697 300.871 248.127 295.111 Q 250.507 291.121 253.707 289.241 Q 257.577 286.981 261.487 284.791 Q 267.897 281.211 272.077 275.701 Q 273.037 274.451 272.557 275.951 Q 269.647 284.991 262.107 289.671 Q 257.497 292.53 257.457 292.561 Q 249.897 298.291 246.437 307.431 Z " fill="rgb(150,80,90)"/><path d=" M 295.647 181.141 Q 299.587 182.761 296.897 185.97 Q 295.127 186.961 293.137 186.951 C 292.831 186.938 292.565 186.743 292.467 186.461 Q 290.947 182.16 295.647 181.141 Z " fill="rgb(248,186,104)"/><path d=" M 286.397 199.891 Q 284.987 203.131 282.557 205.601 Q 280.647 204.741 280.107 203.231 Q 279.557 201.731 280.837 200.421 Q 282.197 199.021 284.327 198.881 Q 284.807 198.851 285.257 198.621 Q 286.727 197.861 286.397 199.891 Z " fill="rgb(248,186,104)"/><path d=" M 244.897 234.72 L 241.857 233.621 Q 242.307 228.311 247.287 230.301 C 247.705 230.468 248.018 230.826 248.129 231.263 C 248.24 231.7 248.135 232.164 247.847 232.511 Q 246.367 234.28 244.897 234.72 Z " fill="rgb(248,186,104)"/><path d=" M 198.357 241.181 Q 197.437 242.741 195.647 243.141 Q 193.847 242.691 193.897 240.681 Q 193.967 237.991 196.647 238.931 Q 198.227 239.491 198.357 241.181 Z " fill="rgb(248,186,104)"/><path d=" M 151.437 285.181 L 150.897 285.641 Q 146.507 288.331 146.227 284.001 C 146.205 283.679 146.316 283.361 146.537 283.121 Q 150.987 278.171 151.437 285.181 Z " fill="rgb(248,186,104)"/><path d=" M 136.997 295.09 L 133.897 296.141 Q 131.297 292.541 134.507 291.311 Q 136.087 290.701 137.217 291.461 Q 138.847 292.551 136.997 295.09 Z " fill="rgb(248,186,104)"/><path d=" M 284.057 172.251 Q 285.067 173.951 287.147 174.47 Q 287.797 176.861 285.787 176.451 Q 284.657 176.22 283.967 176.311 Q 280.827 176.741 277.647 176.891 Q 273.487 178.071 273.777 181.801 Q 273.997 184.821 273.857 185.581 Q 272.377 193.231 266.317 198.381 Q 261.217 202.72 255.557 206.321 Q 246.547 212.041 238.427 218.961 Q 230.117 226.041 221.897 233.22 Q 221.167 233.231 220.607 233.681 Q 211.797 239.4 202.807 244.831 Q 200.587 246.171 196.547 247.66 Q 192.467 249.16 188.807 251.581 Q 185.647 253.671 182.147 255.141 Q 178.907 256.47 175.687 257.851 Q 172.697 259.131 169.147 260.431 Q 159.897 263.84 150.957 267.991 Q 151.687 268.551 150.157 268.761 Q 148.627 268.981 149.147 269.97 L 140.267 274.261 L 127.397 282.22 Q 125.637 282.28 122.957 283.741 Q 118.987 285.91 113.877 285.381 Q 111.867 285.181 111.147 284.391 Q 110.167 283.321 110.397 281.181 Q 110.677 278.601 112.957 279.501 Q 117.107 280.431 120.707 279.231 Q 126.327 277.351 130.987 273.821 Q 133.047 276.09 135.457 274.241 Q 137.787 272.47 136.357 269.931 Q 136.507 268.921 136.737 267.951 Q 137.227 265.981 138.517 266.931 Q 144.157 268.611 146.497 262.921 Q 147.257 262.861 148.067 262.301 C 148.326 262.137 148.635 262.043 148.957 262.03 Q 150.327 262.041 151.147 260.97 L 154.897 259.641 Q 160.727 256.65 167.147 255.391 Q 170.117 255.511 172.397 253.641 Q 174.717 252.641 176.867 251.351 Q 179.077 250.021 181.387 249.391 Q 188.967 247.321 195.647 243.141 Q 197.437 242.741 198.357 241.181 Q 199.327 240.78 199.257 239.921 C 199.53 239.641 199.309 239.309 198.737 239.141 Q 197.637 238.201 198.897 236.97 Q 201.337 236.691 203.447 235.53 Q 205.937 234.171 206.067 234.111 Q 208.417 232.97 210.687 231.681 L 221.687 224.181 Q 224.287 223.811 225.187 221.431 Q 226.847 220.451 227.687 218.681 Q 231.367 217.9 232.687 214.431 L 234.147 213.22 Q 241.027 209.701 245.337 205.121 Q 247.367 202.961 248.327 199.111 Q 249.437 194.65 251.927 190.921 Q 255.377 185.761 255.717 184.981 Q 257.637 180.65 257.887 175.91 Q 257.947 174.791 258.737 175.541 L 262.897 179.47 Q 263.687 181.501 265.417 182.72 C 265.764 182.895 265.951 183.19 265.907 183.491 L 266.107 187.431 Q 265.157 188.991 262.897 189.681 Q 259.497 190.72 260.057 194.191 C 260.072 194.309 260.144 194.413 260.251 194.47 C 260.358 194.527 260.486 194.531 260.597 194.481 L 266.647 191.22 Q 269.907 188.981 269.907 185.181 C 269.933 184.862 269.814 184.548 269.577 184.311 L 263.687 178.181 L 263.647 177.72 Q 265.257 178.111 266.187 176.931 Q 269.347 178.581 272.457 177.15 C 272.732 177.023 272.885 176.731 272.827 176.441 Q 272.337 173.921 269.647 173.391 Q 276.837 171.761 284.057 172.251 Z " fill="rgb(120,63,87)"/><path d=" M 169.897 292.72 Q 167.067 299.65 165.837 301.371 Q 162.207 306.431 155.897 307.22 Q 152.867 308.001 150.897 307.181 Q 149.037 306.41 151.177 304.72 Q 156.527 302.191 158.957 296.321 Q 159.847 294.181 161.967 293.28 Q 165.517 291.761 169.897 292.72 Z " fill="rgb(120,63,87)"/><path d=" M 192.377 269.021 Q 189.877 269.851 188.357 268.431 Q 186.987 266.301 188.897 265.431 Q 194.337 262.961 192.377 269.021 Z " fill="rgb(248,204,120)"/><path d=" M 91.397 277.22 Q 91.527 277.551 91.857 277.681 Q 95.037 282.851 88.507 281.571 Q 88.147 280.881 87.437 280.431 Q 86.907 275.84 91.397 277.22 Z " fill="rgb(248,204,120)"/><path d=" M 290.187 172.431 Q 289.397 174.271 287.147 174.47 Q 285.067 173.951 284.057 172.251 Q 287.167 166.22 290.187 172.431 Z " fill="rgb(237,187,130)"/><path d=" M 200.687 264.431 Q 203.887 264.131 204.687 267.181 Q 202.867 269.451 200.067 268.861 C 199.747 268.795 199.473 268.594 199.317 268.311 Q 198.017 265.931 200.687 264.431 Z " fill="rgb(237,187,130)"/><path d=" M 128.397 298.891 Q 126.887 299.751 125.147 299.72 Q 123.517 299.72 123.717 298.65 Q 123.827 298.051 124.507 297.561 Q 125.837 296.601 127.457 296.331 Q 128.377 296.181 129.137 296.621 Q 131.057 297.701 128.397 298.891 Z " fill="rgb(237,187,130)"/><path d=" M 93.867 309.491 Q 89.347 318.251 86.967 308.4 Q 91.647 306.78 93.867 309.491 Z " fill="rgb(237,187,130)"/><path d=" M 207.327 327.191 Q 199.527 329.431 191.067 328.711 Q 198.857 325.72 206.397 322.181 Q 209.977 320.501 212.027 318.021 Q 212.747 317.15 214.587 312.521 Q 218.167 303.561 228.347 301.451 Q 233.937 300.291 240.057 299.291 Q 241.047 299.131 240.357 299.851 Q 238.177 302.111 235.307 303.181 Q 232.157 304.351 232.067 304.381 Q 229.877 305.34 227.647 306.181 Q 223.197 307.861 220.407 311.47 Q 219.367 312.821 218.457 315.241 Q 217.707 317.241 216.957 319.241 Q 216.117 321.491 214.967 322.861 Q 214.217 323.761 211.747 324.541 Q 209.247 325.331 207.327 327.191 Z " fill="rgb(138,74,87)"/><path d=" M 111.647 305.891 L 109.197 306.78 Q 106.717 305.821 107.207 303.59 C 107.267 303.306 107.53 303.096 107.847 303.081 Q 110.757 303.001 111.647 305.891 Z " fill="rgb(254,176,152)"/><path d=" M 286.397 199.891 Q 287.347 200.451 288.147 200.181 Q 289.017 199.881 288.937 200.931 Q 287.057 204.191 283.647 205.72 L 282.557 205.601 Q 284.987 203.131 286.397 199.891 Z " fill="rgb(182,86,88)"/><path d=" M 246.437 307.431 L 244.437 310.931 Q 236.627 317.051 227.397 320.72 Q 230.727 313.671 237.147 309.141 Q 240.857 307.41 243.207 303.991 Q 244.417 302.241 246.597 303.881 C 246.874 304.073 246.988 304.393 246.887 304.691 L 246.437 307.431 Z " fill="rgb(182,86,88)"/><path d=" M 281.857 215.431 Q 282.277 216.251 282.217 217.131 L 281.397 221.621 C 281.395 221.933 281.237 222.231 280.957 222.451 Q 277.297 225.66 272.547 226.751 Q 271.487 226.991 270.767 226.65 Q 269.517 226.081 270.427 224.851 Q 270.797 224.351 271.657 223.851 Q 277.477 220.521 281.857 215.431 Z " fill="rgb(121,61,50)"/><path d=" M 85.527 303.981 Q 79.267 303.001 82.687 297.431 Q 89.877 297.561 85.527 303.981 Z " fill="rgb(254,204,135)"/><path d=" M 237.857 165.431 Q 238.227 168.061 238.787 170.65 Q 239.667 174.741 238.087 177.121 Q 236.697 179.211 233.437 178.181 Q 233.477 175.921 234.207 172.991 Q 235.087 169.501 234.687 165.431 Q 236.257 165.03 237.857 165.431 Z " fill="rgb(253,180,43)"/><path d=" M 269.647 173.391 Q 272.337 173.921 272.827 176.441 C 272.885 176.731 272.732 177.023 272.457 177.15 Q 269.347 178.581 266.187 176.931 Q 266.227 173.511 269.647 173.391 Z " fill="rgb(254,229,104)"/><path d=" M 214.147 153.141 Q 224.337 154.631 233.897 158.47 Q 234.117 159.391 233.447 159.501 C 233.015 159.557 232.701 159.695 232.627 159.861 Q 231.857 160.871 232.587 162.241 Q 233.737 164.4 234.687 165.431 Q 235.087 169.501 234.207 172.991 Q 233.477 175.921 233.437 178.181 Q 229.177 188.811 227.457 191.491 Q 219.537 203.851 207.417 211.561 Q 207.407 211.561 196.557 217.301 Q 190.147 220.691 184.337 225.111 Q 176.767 230.871 168.847 236.131 Q 165.267 238.491 164.707 239.741 Q 161.257 247.441 155.317 253.391 C 154.876 253.599 154.702 253.936 154.877 254.241 L 154.897 259.641 L 151.147 260.97 Q 143.727 259.541 137.707 262.741 Q 134.057 264.691 128.097 268.611 Q 122.577 272.231 120.127 272.72 Q 115.327 273.671 110.797 270.47 C 110.5 270.289 110.322 270 110.317 269.691 L 109.107 257.681 Q 108.557 253.731 110.427 250.231 Q 110.917 249.321 112.367 249.711 Q 116.497 251.351 119.707 247.491 Q 122.237 244.461 126.077 241.851 Q 126.127 241.811 129.157 240.011 Q 135.827 236.051 138.357 228.431 Q 141.657 221.251 147.317 216.22 Q 151.217 212.761 159.477 207.681 Q 165.517 203.97 173.837 200.121 Q 183.127 195.811 190.857 189.121 Q 195.467 185.131 197.097 179.241 Q 198.317 174.831 201.667 171.701 Q 206.517 167.15 211.247 162.461 Q 213.037 160.671 213.417 158.711 Q 213.857 156.481 213.607 154.181 Q 213.697 153.561 214.147 153.141 Z " fill="rgb(255,206,55)"/><path d=" M 265.037 221.481 L 260.687 222.431 Q 258.797 219.451 261.247 218.181 Q 262.797 217.381 264.107 217.891 Q 265.867 218.571 265.037 221.481 Z " fill="rgb(253,210,152)"/><path d=" M 237.627 160.111 Q 243.857 162.631 248.557 165.771 L 237.237 201.391 Q 236.977 203.211 234.847 204.191 Q 225.147 216.501 210.167 221.231 Q 204.357 223.061 198.817 225.581 Q 187.697 230.631 182.557 241.671 Q 180.537 246.011 176.837 247.871 Q 173.677 249.451 172.397 251.97 Q 170.227 250.141 168.087 251.371 Q 165.777 252.691 167.147 255.391 Q 160.727 256.65 154.897 259.641 L 154.877 254.241 C 154.702 253.936 154.876 253.599 155.317 253.391 Q 161.257 247.441 164.707 239.741 Q 165.267 238.491 168.847 236.131 Q 176.767 230.871 184.337 225.111 Q 190.147 220.691 196.557 217.301 Q 207.407 211.561 207.417 211.561 Q 219.537 203.851 227.457 191.491 Q 229.177 188.811 233.437 178.181 Q 236.697 179.211 238.087 177.121 Q 239.667 174.741 238.787 170.65 Q 238.227 168.061 237.857 165.431 Q 236.577 162.791 237.627 160.111 Z " fill="rgb(205,113,54)"/><path d=" M 109.107 257.681 L 110.317 269.691 C 110.322 270 110.5 270.289 110.797 270.47 Q 115.327 273.671 120.127 272.72 Q 122.577 272.231 128.097 268.611 Q 134.057 264.691 137.707 262.741 Q 143.727 259.541 151.147 260.97 Q 150.327 262.041 148.957 262.03 C 148.635 262.043 148.326 262.137 148.067 262.301 Q 147.257 262.861 146.497 262.921 Q 141.087 261.521 138.517 266.931 Q 137.227 265.981 136.737 267.951 Q 136.507 268.921 136.357 269.931 Q 132.407 270.181 130.987 273.821 Q 126.327 277.351 120.707 279.231 Q 117.107 280.431 112.957 279.501 Q 108.387 270.491 108.857 260.431 L 109.107 257.681 Z " fill="rgb(205,113,54)"/><path d=" M 214.947 186.681 Q 216.067 184.741 218.207 183.991 Q 221.277 182.91 220.397 185.681 Q 219.017 189.991 215.357 192.601 C 215.229 192.691 215.067 192.715 214.918 192.666 C 214.77 192.616 214.654 192.499 214.607 192.351 Q 213.577 189.041 214.947 186.681 Z " fill="rgb(232,117,37)"/><path d=" M 177.337 214.741 Q 175.107 213.111 174.937 211.001 Q 174.807 209.331 176.387 207.331 Q 179.967 202.821 185.637 201.241 Q 187.907 200.611 188.137 200.59 Q 189.327 200.521 190.797 201.251 C 191.092 201.394 191.447 201.35 191.697 201.141 Q 193.257 199.791 194.717 198.251 Q 195.777 197.141 197.217 197.28 C 197.535 197.332 197.795 197.546 197.887 197.831 Q 199.467 202.251 195.517 205.011 Q 193.597 206.361 191.137 207.28 C 190.471 207.53 189.932 208.03 189.637 208.671 Q 187.517 213.231 183.587 215.371 Q 180.477 217.051 177.337 214.741 Z " fill="rgb(239,156,50)"/><path d=" M 206.597 181.111 C 206.305 180.885 206.193 180.503 206.317 180.16 Q 207.327 177.22 210.477 175.671 Q 212.547 174.66 213.287 176.84 Q 213.917 178.681 212.637 180.191 Q 211.357 181.711 210.147 182.121 Q 208.567 182.66 206.597 181.111 Z " fill="rgb(240,144,42)"/><path d=" M 154.657 222.421 Q 157.407 218.97 161.837 218.761 Q 162.357 218.731 162.017 219.121 L 157.167 224.751 C 157.067 224.947 156.766 225.117 156.337 225.22 L 154.147 225.931 Q 152.227 226.551 153.087 224.871 Q 153.747 223.561 154.657 222.421 Z " fill="rgb(240,144,42)"/><path d=" M 167.707 220.871 C 168.219 220.861 168.696 221.092 168.946 221.472 C 169.195 221.852 169.176 222.317 168.897 222.681 Q 166.947 225.871 163.437 227.251 Q 160.317 228.481 161.197 225.241 Q 162.537 220.351 167.707 220.871 Z " fill="rgb(230,133,50)"/><path d=" M 140.067 251.66 Q 139.097 252.821 137.757 253.541 Q 132.487 256.4 125.767 257.571 Q 125.037 257.701 125.587 257.191 Q 131.527 251.761 137.797 248.051 Q 140.177 246.641 142.097 244.851 Q 142.527 244.451 142.497 245.03 Q 142.297 249.011 140.067 251.66 Z " fill="rgb(215,122,40)"/><path d=" M 280.717 239.331 C 280.945 239.084 281.27 238.951 281.605 238.967 C 281.941 238.982 282.252 239.144 282.457 239.41 Q 282.467 239.421 282.627 240.051 Q 282.707 240.34 282.907 240.65 Q 284.287 242.801 281.977 242.991 Q 280.687 243.101 280.057 243.451 Q 275.427 246.03 273.607 252.15 C 273.438 252.736 273.08 253.252 272.587 253.621 Q 271.477 254.441 271.997 252.84 Q 274.047 246.491 280.717 239.331 Z " fill="rgb(150,80,90)"/><path d=" M 265.707 261.861 Q 266.047 261.131 266.187 261.931 Q 267.167 267.541 264.367 272.751 Q 260.467 280.011 252.227 282.731 Q 250.837 283.201 251.667 281.981 Q 257.137 273.981 262.627 266.931 Q 264.377 264.681 265.707 261.861 Z " fill="rgb(150,80,90)"/><path d=" M 255.947 194.671 Q 258.287 195.181 256.877 197.111 Q 255.487 199.03 253.537 199.631 Q 251.277 200.331 251.397 197.97 Q 251.607 193.731 255.947 194.671 Z " fill="rgb(248,186,104)"/><path d=" M 262.747 211.061 C 262.601 210.986 262.505 210.841 262.492 210.677 C 262.48 210.514 262.554 210.356 262.687 210.261 Q 264.127 209.211 266.377 209.491 C 266.652 209.526 266.888 209.702 267.002 209.955 C 267.116 210.207 267.092 210.501 266.937 210.731 Q 265.657 212.601 262.747 211.061 Z " fill="rgb(248,186,104)"/><path d=" M 206.297 262.91 Q 205.497 261.931 206.127 260.641 Q 206.597 259.681 207.657 259.261 Q 210.097 258.311 211.587 260.801 C 211.755 261.075 211.778 261.416 211.647 261.711 Q 210.717 263.78 208.677 263.871 Q 207.127 263.941 206.297 262.91 Z " fill="rgb(248,186,104)"/><path d=" M 89.067 301.59 Q 86.627 298.861 91.147 297.431 Q 94.537 296.361 94.647 299.931 Q 94.777 303.951 91.927 303.331 Q 90.317 302.981 89.067 301.59 Z " fill="rgb(248,204,120)"/><path d=" M 281.477 192.97 C 281.041 192.883 280.718 192.519 280.687 192.081 Q 280.377 188.511 284.937 187.811 C 285.355 187.744 285.782 187.861 286.109 188.131 C 286.436 188.4 286.632 188.797 286.647 189.22 Q 286.817 194.03 281.477 192.97 Z " fill="rgb(237,187,130)"/><path d=" M 251.257 224.331 Q 251.857 222.59 253.457 221.691 Q 257.037 219.66 256.927 223.441 C 257.035 223.759 256.903 224.091 256.577 224.321 L 252.487 228.09 C 252.378 228.165 252.241 228.195 252.107 228.174 C 251.973 228.153 251.854 228.084 251.777 227.981 Q 250.587 226.301 251.257 224.331 Z " fill="rgb(237,187,130)"/><path d=" M 161.479 278.472 C 161.527 277.424 162.64 276.622 163.963 276.682 C 165.286 276.743 166.322 277.642 166.274 278.689 C 166.227 279.737 165.114 280.539 163.791 280.479 C 162.467 280.418 161.432 279.519 161.479 278.472 Z " fill="rgb(237,187,130)"/><path d=" M 107.197 277.431 C 107.256 277.332 107.361 277.27 107.476 277.266 C 107.591 277.262 107.701 277.316 107.767 277.41 Q 109.397 279.66 109.567 281.871 C 109.594 282.176 109.432 282.468 109.157 282.611 Q 108.057 283.15 106.817 283.051 C 106.511 283.015 106.267 282.791 106.217 282.501 Q 105.707 279.881 107.197 277.431 Z " fill="rgb(237,187,130)"/><path d=" M 104.457 297.891 Q 107.137 298.391 107.007 300.991 C 107.001 301.316 106.857 301.625 106.607 301.851 Q 103.687 304.66 99.907 303.191 C 99.356 302.981 99.03 302.417 99.127 301.84 Q 99.867 297.021 104.457 297.891 Z " fill="rgb(237,187,130)"/><path d=" M 230.587 267.621 Q 232.657 265.071 234.487 263.72 C 234.587 263.653 234.714 263.633 234.832 263.664 C 234.95 263.695 235.047 263.774 235.097 263.881 Q 236.627 267.501 234.587 270.621 Q 227.797 280.97 214.957 282.081 Q 214.437 282.121 214.827 281.791 Q 215.857 280.91 217.087 280.34 Q 218.597 279.65 219.347 279.001 Q 226.067 273.181 230.587 267.621 Z " fill="rgb(121,61,50)"/><path d=" M 178.997 308.481 Q 178.127 308.371 178.737 307.72 Q 180.727 305.621 182.857 303.891 Q 187.457 300.171 192.457 293.741 Q 193.137 292.871 193.827 293.541 C 194.117 293.775 194.239 294.102 194.157 294.421 Q 194.157 299.421 191.167 303.451 Q 186.677 309.491 178.997 308.481 Z " fill="rgb(121,61,50)"/><path d=" M 151.587 319.241 Q 148.137 317.451 151.897 316.681 L 172.667 312.431 Q 173.827 312.191 173.087 313.121 Q 168.667 318.641 161.747 320.391 Q 156.387 321.741 151.587 319.241 Z " fill="rgb(121,61,50)"/><path d=" M 99.9 274.332 C 99.289 272.605 100.44 270.619 102.469 269.901 C 104.498 269.182 106.641 270.001 107.253 271.729 C 107.865 273.456 106.714 275.442 104.685 276.16 C 102.656 276.879 100.512 276.06 99.9 274.332 Z " fill="rgb(254,204,135)"/><path d=" M 273.567 210.061 Q 272.087 207.391 274.837 205.621 Q 278.547 203.211 278.897 206.181 Q 279.537 211.641 274.317 210.601 C 274 210.536 273.726 210.339 273.567 210.061 Z " fill="rgb(253,210,152)"/><path d=" M 179.469 211.518 C 178.465 210.293 179.478 207.802 181.729 205.96 C 183.98 204.117 186.622 203.617 187.625 204.843 C 188.628 206.068 187.615 208.559 185.365 210.401 C 183.114 212.244 180.472 212.744 179.469 211.518 Z " fill="rgb(205,113,54)"/></g></svg>