<?xml version="1.0" encoding="UTF-8" standalone="no"?><!-- Generator: Gravit.io --><svg xmlns="http://www.w3.org/2000/svg" xmlns:xlink="http://www.w3.org/1999/xlink" style="isolation:isolate" viewBox="86.828 198.193 301.76 204.661" width="301.76pt" height="204.661pt"><defs><clipPath id="_clipPath_H2FwweSSYl0pPTbkJLPIdZ3UaiZ2W3pJ"><rect x="86.828" y="198.193" width="301.76" height="204.661"/></clipPath></defs><g clip-path="url(#_clipPath_H2FwweSSYl0pPTbkJLPIdZ3UaiZ2W3pJ)"><g><path d=" M 345.534 238.142 Q 350.794 239.882 355.344 243.792 Q 356.654 244.912 356.244 246.352 Q 354.514 243.952 351.784 242.812 Q 350.684 241.932 347.784 241.102 Q 338.254 238.372 329.514 239.782 Q 324.474 240.602 324.404 240.612 Q 320.844 241.042 317.284 241.392 Q 316.854 241.122 317.074 240.602 Q 322.644 238.382 331.594 237.412 Q 339.684 236.542 345.534 238.142 Z " fill="rgb(238,199,102)"/><path d=" M 166.784 330.562 Q 167.504 331.362 165.784 331.812 Q 160.594 332.812 155.284 332.702 Q 153.494 332.672 154.094 333.112 C 154.363 333.236 154.692 333.296 155.024 333.282 Q 157.764 332.902 160.524 332.742 Q 162.644 332.632 161.324 334.102 L 160.034 334.562 Q 156.194 335.252 152.804 333.642 Q 151.054 332.812 149.244 332.102 Q 157.904 330.162 166.784 330.562 Z " fill="rgb(238,199,102)"/><path d=" M 303.534 224.642 Q 303.424 225.842 304.844 227.292 Q 306.224 228.692 307.784 229.892 Q 309.204 232.712 312.284 233.142 Q 311.594 235.952 314.534 236.642 Q 315.634 236.712 316.544 237.172 C 316.669 237.233 316.758 237.341 316.785 237.467 C 316.812 237.593 316.775 237.723 316.684 237.822 Q 315.704 239.402 317.074 240.602 Q 316.854 241.122 317.284 241.392 Q 317.564 243.012 318.994 243.852 Q 319.514 245.162 320.534 246.142 L 329.824 265.852 L 329.534 266.312 L 321.784 269.562 Q 308.434 235.512 276.974 216.912 Q 274.454 215.422 268.534 213.562 Q 265.474 211.552 261.984 210.912 Q 260.874 210.702 255.104 210.112 Q 249.944 209.582 244.784 210.312 Q 244.804 209.742 244.274 209.642 Q 236.124 208.212 228.034 209.892 Q 219.014 209.652 208.474 213.542 Q 173.634 226.392 156.094 257.662 Q 145.964 275.722 143.494 295.102 Q 140.444 305.022 142.284 314.602 Q 142.414 315.262 143.284 315.392 Q 143.404 316.052 143.034 316.562 L 136.784 316.412 C 136.45 316.406 136.139 316.243 135.944 315.972 L 134.994 314.602 Q 135.784 310.802 134.784 307.062 Q 135.484 306.092 135.024 305.042 C 134.805 304.752 134.751 304.416 134.874 304.102 Q 135.324 301.312 134.494 298.602 Q 135.754 297.432 135.244 295.852 L 135.994 289.352 Q 136.904 286.612 136.244 283.852 Q 141.694 259.082 156.574 238.602 Q 166.964 225.532 180.574 215.852 Q 201.514 201.872 226.064 198.872 Q 236.094 197.642 246.024 198.642 Q 278.214 201.902 302.284 224.602 Q 302.704 225.002 303.534 224.642 Z " fill="rgb(254,129,132)"/><path d=" M 244.784 210.312 Q 243.554 211.262 243.924 212.572 C 243.952 212.811 244.221 213.017 244.604 213.092 L 249.474 214.412 C 249.927 214.527 250.267 214.87 250.348 215.295 C 250.429 215.72 250.237 216.15 249.854 216.402 Q 247.724 218.542 245.514 220.582 Q 242.484 223.392 241.284 227.332 C 241.149 227.716 241.21 228.135 241.448 228.476 C 241.687 228.817 242.081 229.046 242.524 229.102 L 248.364 230.142 C 248.707 230.221 248.929 230.502 248.884 230.802 Q 249.064 234.852 246.194 237.762 Q 242.594 241.422 237.914 243.392 Q 237.874 243.412 234.104 244.662 Q 228.344 246.572 224.184 251.052 C 223.924 251.138 223.739 251.282 223.678 251.449 C 223.617 251.615 223.685 251.788 223.864 251.922 Q 224.024 252.322 224.764 252.052 Q 228.264 250.802 232.034 249.512 Q 233.614 248.972 233.024 250.542 Q 232.194 252.712 230.454 255.242 Q 226.674 260.742 224.744 267.132 Q 222.684 273.962 218.794 279.882 Q 218.764 279.922 215.894 283.482 Q 214.274 285.502 213.344 287.992 Q 212.344 290.692 209.724 292.542 Q 204.694 296.092 198.734 301.302 Q 197.244 302.602 197.034 304.562 Q 193.414 306.772 191.094 307.662 Q 187.814 308.932 186.004 311.382 C 185.853 311.619 185.573 311.801 185.234 311.882 L 178.034 312.642 Q 176.534 312.592 175.024 312.592 Q 173.654 312.592 172.074 312.942 Q 165.774 314.332 162.284 313.852 Q 157.014 313.122 154.784 314.102 Q 149.254 316.522 143.284 315.392 Q 142.414 315.262 142.284 314.602 Q 140.444 305.022 143.494 295.102 Q 144.074 295.692 144.804 295.392 Q 147.494 294.302 148.444 291.532 Q 150.494 285.602 152.434 279.632 Q 154.824 272.282 157.014 267.992 Q 162.814 256.682 171.404 247.352 Q 177.524 240.702 182.994 236.192 Q 189.244 231.052 196.624 227.472 Q 211.304 220.352 226.974 215.792 Q 229.144 215.152 229.814 213.842 Q 230.974 211.582 228.034 209.892 Q 236.124 208.212 244.274 209.642 Q 244.804 209.742 244.784 210.312 Z " fill="rgb(249,167,134)"/><path d=" M 228.034 209.892 Q 230.974 211.582 229.814 213.842 Q 229.144 215.152 226.974 215.792 Q 211.304 220.352 196.624 227.472 Q 189.244 231.052 182.994 236.192 Q 177.524 240.702 171.404 247.352 Q 162.814 256.682 157.014 267.992 Q 154.824 272.282 152.434 279.632 Q 150.494 285.602 148.444 291.532 Q 147.494 294.302 144.804 295.392 Q 144.074 295.692 143.494 295.102 Q 145.964 275.722 156.094 257.662 Q 173.634 226.392 208.474 213.542 Q 219.014 209.652 228.034 209.892 Z " fill="rgb(255,215,139)"/><path d=" M 360.494 249.602 Q 362.714 251.502 361.574 254.352 Q 359.214 258.102 355.284 260.142 Q 354.654 259.862 354.284 259.312 Q 358.504 255.162 360.494 249.602 Z " fill="rgb(250,212,118)"/><path d=" M 329.534 266.312 L 330.464 267.732 C 330.829 267.993 330.908 268.342 330.674 268.652 Q 330.654 269.792 331.534 270.392 L 331.534 270.562 Q 329.814 271.072 324.724 273.542 Q 311.104 280.142 297.514 286.812 Q 291.724 289.652 287.284 291.102 Q 273.944 295.452 260.674 300.012 Q 250.444 303.522 241.574 305.922 Q 222.354 311.112 203.034 315.892 Q 198.724 316.662 194.384 317.162 Q 192.464 317.382 185.714 318.262 Q 179.414 319.082 173.034 319.062 Q 169.914 319.552 166.844 318.902 C 166.49 318.824 166.204 318.624 166.074 318.362 Q 165.694 317.552 166.284 316.642 Q 172.534 314.682 179.034 313.892 Q 187.744 313.382 196.274 311.722 Q 197.364 311.512 213.194 307.942 Q 237.414 302.482 255.034 296.352 Q 276.314 288.952 290.034 283.852 Q 305.814 277.982 321.784 269.562 L 329.534 266.312 Z " fill="rgb(253,128,30)"/><path d=" M 376.284 279.562 Q 379.634 282.362 380.744 286.262 Q 381.714 289.702 380.294 293.852 Q 378.454 299.212 374.474 303.042 Q 366.024 311.162 354.444 317.112 Q 341.074 323.982 327.024 329.322 Q 325.584 329.872 324.034 330.142 L 318.534 329.392 Q 317.694 328.852 316.824 329.352 Q 317.364 325.722 320.794 326.482 C 321.112 326.544 321.442 326.517 321.744 326.402 L 330.034 323.062 Q 333.964 322.502 337.594 320.912 Q 345.934 317.262 354.034 313.102 Q 357.724 311.212 363.034 306.892 Q 371.684 302.312 374.824 293.102 L 376.074 289.302 C 376.459 289.021 376.483 288.655 376.134 288.372 Q 374.264 282.562 368.534 280.392 L 363.074 278.942 C 362.76 278.831 362.541 278.59 362.504 278.312 Q 362.194 277.142 361.034 276.642 Q 368.504 275.332 374.844 279.542 Q 375.424 279.922 376.284 279.562 Z " fill="rgb(163,165,131)"/><path d=" M 345.284 312.892 L 345.784 309.892 Q 354.984 306.272 362.374 299.912 Q 365.504 297.212 366.334 294.302 Q 368.204 287.692 361.574 283.102 L 354.244 278.332 C 354.111 278.303 354.014 278.207 354.002 278.091 C 353.991 277.976 354.068 277.867 354.194 277.822 Q 355.104 277.312 356.274 277.622 Q 362.204 279.212 366.514 283.622 Q 374.794 292.092 366.094 300.162 Q 358.354 307.352 345.284 312.892 Z " fill="rgb(254,237,51)"/><path d=" M 194.034 321.642 Q 194.614 322.412 193.554 322.682 Q 186.074 324.642 178.414 325.752 Q 176.224 326.062 173.214 326.782 Q 171.014 327.302 168.034 327.852 Q 167.574 327.942 167.344 327.832 Q 166.674 327.522 167.554 327.222 L 176.034 324.312 L 194.034 321.642 Z " fill="rgb(254,237,51)"/><path d=" M 247.284 345.812 Q 248.284 345.782 247.824 346.852 Q 239.094 351.142 229.534 353.062 L 223.784 354.062 Q 217.744 354.472 211.714 354.152 Q 210.814 354.112 209.864 354.272 Q 208.954 354.422 208.034 354.542 C 207.714 354.547 207.405 354.438 207.184 354.242 Q 206.294 353.422 205.034 353.312 Q 206.204 352.172 208.534 352.602 Q 210.234 352.912 213.284 351.812 Q 218.654 353.572 223.814 352.102 Q 227.784 350.972 229.404 350.742 Q 238.644 349.402 247.284 345.812 Z " fill="rgb(254,237,51)"/><path d=" M 340.284 280.312 Q 340.994 280.152 341.074 280.852 Q 335.004 284.872 328.104 286.992 Q 325.184 287.892 322.674 289.372 Q 318.614 291.772 314.254 293.552 Q 306.874 296.562 305.574 297.132 Q 298.214 300.402 290.534 302.892 Q 288.684 303.072 287.034 302.312 Q 287.744 301.942 287.534 301.142 Q 296.614 300.402 302.844 297.162 Q 311.094 292.872 323.784 288.102 Q 330.564 285.552 340.284 280.312 Z " fill="rgb(215,183,81)"/><path d=" M 268.534 213.562 Q 274.454 215.422 276.974 216.912 Q 308.434 235.512 321.784 269.562 Q 305.814 277.982 290.034 283.852 Q 276.314 288.952 255.034 296.352 Q 237.414 302.482 213.194 307.942 Q 197.364 311.512 196.274 311.722 Q 187.744 313.382 179.034 313.892 Q 177.174 314.122 178.034 312.642 L 185.234 311.882 C 185.573 311.801 185.853 311.619 186.004 311.382 Q 187.814 308.932 191.094 307.662 Q 193.414 306.772 197.034 304.562 Q 205.534 302.012 214.224 300.382 Q 226.184 298.132 229.664 297.012 Q 237.384 294.542 245.844 290.412 Q 254.844 286.032 261.344 280.132 Q 265.264 276.582 266.754 272.492 Q 270.144 263.162 264.844 253.792 Q 261.054 247.102 263.204 239.942 Q 264.454 235.762 264.504 235.562 Q 265.384 232.222 266.724 229.032 Q 268.774 224.152 268.984 222.302 Q 269.404 218.692 268.294 215.052 Q 268.054 214.242 268.534 213.562 Z " fill="rgb(113,83,135)"/><path d=" M 328.324 292.352 Q 329.144 300.182 328.784 308.062 Q 319.544 311.622 293.534 320.102 Q 278.804 324.902 273.284 326.142 Q 270.904 326.652 270.644 324.862 C 270.595 324.519 270.411 324.211 270.133 324.004 C 269.855 323.798 269.506 323.71 269.164 323.762 Q 259.674 325.162 251.464 328.772 Q 249.984 329.412 249.004 330.702 Q 248.854 330.902 248.614 331.032 Q 247.884 331.432 248.534 331.642 Q 245.374 332.312 242.154 332.542 Q 241.334 332.592 239.944 332.292 Q 238.824 332.052 237.694 332.112 Q 235.544 332.222 234.414 331.982 Q 227.924 330.612 221.284 331.102 Q 218.424 331.312 209.784 332.892 Q 206.134 333.792 208.534 331.642 Q 215.404 330.032 222.344 328.772 Q 230.284 327.332 236.054 325.642 Q 245.664 322.832 255.234 319.872 Q 255.344 319.842 271.014 315.132 Q 300.634 306.242 328.324 292.352 Z " fill="rgb(113,83,135)"/><path d=" M 111.034 303.642 Q 109.114 305.722 106.834 307.422 Q 97.794 314.162 93.844 322.662 Q 91.094 328.592 94.094 335.542 Q 94.514 336.512 96.494 336.602 Q 94.364 337.412 93.004 335.882 Q 91.854 334.572 91.844 332.982 Q 91.834 330.352 91.814 330.232 Q 91.144 324.812 93.704 320.372 Q 95.024 318.082 98.224 314.172 Q 100.264 311.682 103.474 308.542 Q 107.424 304.662 111.034 303.642 Z " fill="rgb(233,195,102)"/><path d=" M 368.994 254.852 Q 367.294 256.702 367.074 254.352 Q 372.764 246.542 366.514 241.832 Q 364.854 240.582 360.614 239.122 Q 357.534 238.062 354.484 236.882 Q 351.994 235.932 349.284 235.812 Q 331.844 233.932 314.534 236.642 Q 311.594 235.952 312.284 233.142 Q 318.804 231.782 325.424 231.442 Q 332.364 231.082 338.644 231.272 Q 350.314 231.622 361.444 235.482 Q 365.294 236.812 368.274 239.382 Q 371.624 242.262 372.324 245.782 Q 373.314 250.752 368.994 254.852 Z " fill="rgb(254,201,53)"/><path d=" M 349.574 268.602 Q 347.044 271.782 343.794 273.702 C 343.101 274.106 342.216 273.935 341.724 273.302 Q 339.704 270.712 339.084 272.802 C 339.057 273.102 338.87 273.379 338.564 273.572 L 328.784 280.062 L 303.284 292.062 Q 298.084 294.162 287.344 297.412 Q 284.504 298.272 282.494 297.602 Q 285.494 296.552 296.284 291.602 Q 315.504 282.782 334.594 273.662 Q 336.914 272.552 338.824 270.852 Q 342.994 267.332 348.294 266.202 C 348.607 266.151 348.916 266.301 349.014 266.552 L 349.574 268.602 Z " fill="rgb(254,201,53)"/><path d=" M 135.244 295.852 Q 135.754 297.432 134.494 298.602 Q 128.494 300.632 122.974 303.712 Q 122.844 303.782 121.514 304.212 Q 120.494 304.542 120.574 305.852 L 116.574 307.852 Q 116.004 306.732 114.974 307.292 Q 111.144 309.372 108.054 313.132 Q 106.434 315.092 106.244 317.602 Q 104.874 317.272 104.744 318.602 Q 104.444 317.382 104.744 316.102 L 104.744 314.852 Q 109.044 308.932 113.344 306.412 Q 120.414 302.272 135.244 295.852 Z " fill="rgb(254,201,53)"/><path d=" M 253.494 306.852 L 249.994 310.102 L 239.724 314.542 Q 238.614 315.012 239.534 315.352 Q 240.854 315.832 240.784 317.392 L 239.534 317.812 L 227.034 317.642 Q 224.904 317.442 226.034 315.392 Q 234.054 313.982 239.224 312.292 Q 243.464 310.902 253.494 306.852 Z " fill="rgb(254,201,53)"/><path d=" M 134.784 307.062 Q 135.784 310.802 134.994 314.602 Q 130.534 314.682 126.324 316.172 C 125.47 316.476 124.885 317.266 124.844 318.172 Q 124.744 320.442 127.414 319.272 C 127.95 319.045 128.553 319.023 129.104 319.212 Q 130.604 319.742 131.204 318.142 C 131.265 317.871 131.506 317.645 131.834 317.552 L 134.694 317.082 C 134.979 317.047 135.266 317.138 135.476 317.33 C 135.685 317.521 135.794 317.794 135.774 318.072 Q 135.734 319.442 136.534 320.812 Q 130.384 322.192 124.094 322.052 C 123.769 322.005 123.473 321.878 123.254 321.692 Q 122.424 320.972 121.344 320.992 C 121.018 320.98 120.724 320.839 120.574 320.622 Q 120.084 319.702 120.474 318.792 Q 121.614 316.112 124.204 314.262 Q 129.404 310.532 134.784 307.062 Z " fill="rgb(99,82,104)"/><path d=" M 330.534 307.812 Q 331.864 307.532 331.694 308.392 Q 331.534 309.182 331.564 309.332 Q 331.744 310.202 332.784 310.142 Q 330.784 310.292 329.974 311.902 C 329.854 312.149 329.585 312.304 329.294 312.292 Q 326.794 312.022 324.584 312.942 Q 321.284 314.312 321.234 314.322 Q 316.954 315.732 312.984 317.862 Q 312.524 318.102 313.014 317.972 Q 322.374 315.492 313.534 318.602 Q 312.654 318.912 310.034 319.602 Q 307.074 320.382 304.284 321.642 Q 302.764 321.582 301.234 321.562 Q 299.754 321.532 298.324 322.142 Q 293.054 324.422 287.674 326.412 Q 286.574 326.822 283.774 327.092 Q 281.324 327.332 278.724 328.792 Q 276.014 330.302 271.694 331.092 Q 270.964 331.222 268.534 332.092 Q 267.124 332.592 265.604 332.472 C 265.273 332.458 264.945 332.523 264.654 332.662 Q 262.024 334.042 259.034 334.352 Q 256.374 334.632 253.954 335.572 Q 249.834 337.162 249.104 337.352 Q 245.354 338.352 241.544 339.082 Q 236.304 340.082 232.684 341.322 Q 228.354 342.792 224.034 344.312 L 223.284 344.392 Q 220.394 344.352 222.044 344.102 C 222.319 344.04 222.545 343.869 222.654 343.642 Q 223.174 342.682 224.264 342.292 Q 224.794 342.102 224.034 342.062 Q 236.134 338.672 247.814 334.042 C 248.119 333.93 248.45 333.895 248.774 333.942 Q 253.314 334.682 257.084 332.292 Q 257.474 332.052 257.024 331.952 Q 255.004 331.502 258.034 331.312 Q 264.594 330.362 270.644 327.622 Q 271.034 327.452 271.594 327.492 Q 273.064 327.602 273.284 326.142 Q 278.804 324.902 293.534 320.102 Q 319.544 311.622 328.784 308.062 Q 329.734 308.312 330.534 307.812 Z " fill="rgb(255,128,41)"/><path d=" M 363.534 251.562 Q 362.254 252.742 361.574 254.352 Q 362.714 251.502 360.494 249.602 L 360.924 247.092 C 361.105 246.779 361.076 246.436 360.844 246.142 Q 359.054 242.022 355.394 239.452 C 355.078 239.446 354.805 239.317 354.727 239.137 C 354.65 238.957 354.788 238.77 355.064 238.682 Q 355.284 238.402 356.024 238.872 Q 360.484 241.642 362.774 246.352 Q 363.974 248.832 363.534 251.562 Z " fill="rgb(253,234,79)"/><path d=" M 345.784 309.892 L 345.284 312.892 Q 337.344 316.812 329.394 320.692 Q 329.174 320.802 325.564 322.242 Q 323.634 323.022 321.934 324.292 C 321.707 324.453 321.386 324.427 321.194 324.232 Q 320.604 323.462 320.494 322.412 C 320.482 322.146 320.256 321.932 319.974 321.922 Q 315.664 322.032 311.524 323.212 C 311.208 323.272 310.875 323.268 310.564 323.202 L 309.534 322.812 Q 315.764 321.412 322.974 318.792 Q 335.974 314.062 345.784 309.892 Z " fill="rgb(253,234,79)"/><path d=" M 189.534 326.142 Q 188.344 326.892 189.034 327.892 Q 177.604 331.082 165.784 331.812 Q 167.504 331.362 166.784 330.562 L 189.534 326.142 Z " fill="rgb(253,234,79)"/><path d=" M 351.784 242.812 Q 354.514 243.952 356.244 246.352 L 356.344 249.792 Q 356.404 251.672 356.224 252.042 Q 354.364 255.742 351.574 258.692 Q 349.394 260.992 345.014 263.252 Q 338.234 266.762 331.534 270.392 Q 330.654 269.792 330.674 268.652 C 330.908 268.342 330.829 267.993 330.464 267.732 L 329.534 266.312 L 329.824 265.852 Q 330.184 266.062 330.844 265.662 Q 341.764 259.122 346.014 256.352 Q 350.464 253.462 350.294 248.432 C 350.275 247.925 349.918 247.495 349.424 247.382 Q 342.374 245.822 335.284 245.942 Q 327.914 246.062 320.534 246.142 Q 319.514 245.162 318.994 243.852 Q 319.854 243.152 320.284 243.102 Q 332.244 241.732 342.034 243.102 Q 346.544 243.732 349.044 243.632 Q 349.444 243.612 349.994 243.802 Q 351.314 244.252 351.784 242.812 Z " fill="rgb(244,144,56)"/><path d=" M 134.494 298.602 Q 135.324 301.312 134.874 304.102 C 134.751 304.416 134.805 304.752 135.024 305.042 Q 135.484 306.092 134.784 307.062 Q 129.404 310.532 124.204 314.262 Q 121.614 316.112 120.474 318.792 Q 120.084 319.702 120.574 320.622 C 120.724 320.839 121.018 320.98 121.344 320.992 Q 122.424 320.972 123.254 321.692 C 123.473 321.878 123.769 322.005 124.094 322.052 Q 130.384 322.192 136.534 320.812 L 138.884 319.642 Q 139.454 319.352 139.784 319.362 Q 149.214 319.552 152.344 319.042 Q 154.654 318.662 156.394 320.802 C 156.435 320.847 156.448 320.91 156.43 320.968 C 156.411 321.026 156.363 321.069 156.304 321.082 Q 153.914 321.662 151.284 321.642 Q 148.104 321.612 145.284 323.062 Q 139.154 323.822 133.534 326.312 Q 131.734 326.412 129.984 326.052 Q 128.064 325.672 126.544 325.842 Q 117.984 326.812 110.844 323.542 Q 107.314 321.922 106.244 317.602 Q 106.434 315.092 108.054 313.132 Q 111.144 309.372 114.974 307.292 Q 116.004 306.732 116.574 307.852 Q 115.694 308.802 116.284 309.602 Q 118.604 312.772 121.224 311.412 Q 122.164 310.922 124.064 308.102 Q 126.354 304.702 130.374 303.162 Q 130.734 303.032 130.964 302.752 Q 132.494 300.852 130.054 302.142 Q 125.534 304.532 120.574 305.852 Q 120.494 304.542 121.514 304.212 Q 122.844 303.782 122.974 303.712 Q 128.494 300.632 134.494 298.602 Z " fill="rgb(244,144,56)"/><path d=" M 103.324 317.352 Q 100.864 321.742 99.584 326.612 Q 98.674 330.042 99.824 333.352 Q 97.864 334.772 96.284 332.602 Q 95.024 330.862 96.344 328.912 Q 97.294 327.522 97.614 325.932 Q 98.134 323.362 98.334 322.852 Q 99.524 319.772 100.844 317.662 Q 101.554 316.532 103.034 315.652 Q 103.604 315.322 103.524 315.912 L 103.324 317.352 Z " fill="rgb(244,144,56)"/><path d=" M 104.744 316.102 Q 104.444 317.382 104.744 318.602 Q 106.884 324.782 113.284 326.352 Q 120.114 328.032 127.034 326.702 Q 127.644 326.582 128.064 326.582 Q 130.174 326.562 128.534 327.812 Q 117.284 329.862 108.284 329.102 Q 106.324 328.932 104.534 326.812 Q 103.254 323.982 103.244 320.852 L 104.744 316.102 Z " fill="rgb(244,144,56)"/><path d=" M 201.784 321.142 L 197.194 322.622 C 196.834 322.726 196.572 322.961 196.504 323.242 Q 196.234 324.142 198.034 323.892 Q 204.894 322.942 206.844 322.412 Q 211.414 321.192 214.034 321.142 L 213.524 321.662 C 213.448 321.85 213.17 322.011 212.784 322.092 Q 210.614 322.092 208.784 323.312 Q 199.244 325.312 189.534 326.142 L 166.784 330.562 Q 157.904 330.162 149.244 332.102 Q 146.064 331.972 143.534 333.812 L 134.534 334.892 Q 132.944 335.242 132.474 334.292 Q 131.144 331.622 130.284 330.562 Q 138.514 328.172 147.034 327.312 Q 149.454 329.612 151.344 329.542 Q 154.884 329.402 161.594 327.692 Q 163.734 327.152 168.114 325.242 Q 171.334 323.832 174.784 323.062 Q 175.954 323.152 176.034 324.312 L 167.554 327.222 Q 166.674 327.522 167.344 327.832 Q 167.574 327.942 168.034 327.852 Q 171.014 327.302 173.214 326.782 Q 176.224 326.062 178.414 325.752 Q 186.074 324.642 193.554 322.682 Q 194.614 322.412 194.034 321.642 Q 197.854 320.312 201.784 321.142 Z " fill="rgb(244,144,56)"/><path d=" M 347.994 273.102 L 347.444 274.932 C 347.52 275.227 347.349 275.529 346.974 275.762 Q 343.954 278.492 340.284 280.312 Q 330.564 285.552 323.784 288.102 Q 311.094 292.872 302.844 297.162 Q 296.614 300.402 287.534 301.142 L 279.034 298.812 Q 280.614 297.782 282.494 297.602 Q 284.504 298.272 287.344 297.412 Q 298.084 294.162 303.284 292.062 L 304.564 292.922 C 304.859 293 305.196 293 305.494 292.922 Q 315.334 288.992 324.574 283.822 Q 325.414 283.362 327.044 281.852 Q 328.234 280.762 329.784 280.142 Q 331.584 279.392 333.404 278.712 Q 334.174 278.412 336.894 277.052 Q 339.644 275.672 342.784 275.602 Q 343.144 275.592 343.694 275.312 L 347.994 273.102 Z " fill="rgb(181,145,117)"/><path d=" M 227.034 317.642 L 239.534 317.812 Q 239.764 318.562 239.494 319.352 Q 232.324 322.382 224.774 324.302 Q 224.134 324.462 224.034 325.062 L 198.534 330.392 Q 193.254 329.152 188.034 330.852 Q 183.694 332.272 179.224 333.132 Q 175.664 333.822 170.294 333.902 Q 165.804 333.972 161.324 334.102 Q 162.644 332.632 160.524 332.742 Q 157.764 332.902 155.024 333.282 C 154.692 333.296 154.363 333.236 154.094 333.112 Q 153.494 332.672 155.284 332.702 Q 160.594 332.812 165.784 331.812 Q 177.604 331.082 189.034 327.892 Q 198.644 326.982 207.994 324.612 Q 209.244 324.292 208.784 323.312 Q 210.614 322.092 212.784 322.092 C 213.17 322.011 213.448 321.85 213.524 321.662 L 214.034 321.142 Q 220.714 320.052 227.034 317.642 Z " fill="rgb(181,145,117)"/><path d=" M 145.284 323.062 Q 147.214 324.242 149.844 323.162 Q 151.094 322.662 151.824 324.102 L 149.284 325.562 L 137.284 327.142 Q 136.434 327.332 136.014 326.792 C 135.864 326.601 135.598 326.521 135.354 326.592 Q 134.414 327.002 133.534 326.312 Q 139.154 323.822 145.284 323.062 Z " fill="rgb(181,145,117)"/><path d=" M 258.034 331.312 Q 255.004 331.502 257.024 331.952 Q 257.474 332.052 257.084 332.292 Q 253.314 334.682 248.774 333.942 C 248.45 333.895 248.119 333.93 247.814 334.042 Q 236.134 338.672 224.034 342.062 Q 217.814 344.062 211.284 344.332 C 210.963 344.314 210.668 344.171 210.484 343.942 Q 209.454 342.682 207.784 342.312 Q 214.214 339.872 210.034 334.062 L 209.784 332.892 Q 218.424 331.312 221.284 331.102 Q 227.924 330.612 234.414 331.982 Q 235.544 332.222 237.694 332.112 Q 238.824 332.052 239.944 332.292 Q 241.334 332.592 242.154 332.542 Q 245.374 332.312 248.534 331.642 Q 250.404 331.442 251.954 330.502 Q 257.094 327.402 262.484 326.452 Q 263.204 326.322 263.864 326.032 Q 267.104 324.602 268.274 326.172 Q 268.694 326.722 268.054 326.722 L 267.014 326.712 C 266.662 326.733 266.346 326.797 266.124 326.892 Q 263.954 328.352 261.344 328.622 C 260.954 328.677 260.627 328.795 260.434 328.952 L 258.034 331.312 Z " fill="rgb(240,127,122)"/><path d=" M 149.284 325.562 L 150.534 326.142 L 147.034 327.312 Q 138.514 328.172 130.284 330.562 Q 123.624 332.032 116.834 331.382 Q 116.214 331.322 116.514 331.622 Q 116.574 331.682 116.724 331.732 Q 116.904 331.792 116.724 331.782 Q 110.624 331.652 105.034 329.332 Q 104.194 328.982 104.004 328.392 Q 103.724 327.522 104.534 326.812 Q 106.324 328.932 108.284 329.102 Q 117.284 329.862 128.534 327.812 Q 133.044 328.842 137.284 327.142 L 149.284 325.562 Z " fill="rgb(245,219,49)"/><path d=" M 354.284 259.312 Q 354.654 259.862 355.284 260.142 L 351.854 263.212 C 351.494 263.433 351.407 263.797 351.644 264.092 Q 352.254 267.162 349.574 268.602 L 349.014 266.552 C 348.916 266.301 348.607 266.151 348.294 266.202 Q 342.994 267.332 338.824 270.852 Q 338.794 269.542 337.794 270.352 Q 336.204 271.642 336.284 269.642 L 354.284 259.312 Z " fill="rgb(243,188,68)"/><path d=" M 318.534 329.392 Q 315.244 331.582 311.354 332.202 Q 305.354 333.152 299.534 334.892 Q 299.234 334.252 298.534 334.312 Q 300.244 333.682 301.964 333.072 Q 302.044 333.042 304.664 332.392 Q 306.374 331.962 307.734 330.762 C 307.966 330.56 308.276 330.452 308.594 330.462 Q 312.864 330.832 316.824 329.352 Q 317.694 328.852 318.534 329.392 Z " fill="rgb(243,188,68)"/><path d=" M 355.284 272.562 L 347.034 277.562 L 341.074 280.852 Q 340.994 280.152 340.284 280.312 Q 343.954 278.492 346.974 275.762 C 347.349 275.529 347.52 275.227 347.444 274.932 L 347.994 273.102 Q 352.384 270.622 355.224 268.292 Q 357.474 266.442 368.654 256.442 C 368.95 256.231 369.097 255.911 369.044 255.592 L 368.994 254.852 Q 373.314 250.752 372.324 245.782 Q 371.624 242.262 368.274 239.382 Q 365.294 236.812 361.444 235.482 Q 350.314 231.622 338.644 231.272 Q 332.364 231.082 325.424 231.442 Q 318.804 231.782 312.284 233.142 Q 309.204 232.712 307.784 229.892 Q 321.524 227.332 329.534 227.602 Q 346.994 228.202 354.784 228.852 Q 362.874 229.532 370.424 234.032 Q 379.334 239.352 378.224 247.772 Q 377.474 253.422 372.324 259.352 Q 367.934 264.402 361.974 267.792 Q 358.384 269.832 355.284 272.562 Z " fill="rgb(166,150,133)"/><path d=" M 336.284 269.642 Q 336.204 271.642 337.794 270.352 Q 338.794 269.542 338.824 270.852 Q 336.914 272.552 334.594 273.662 Q 315.504 282.782 296.284 291.602 Q 285.494 296.552 282.494 297.602 Q 280.614 297.782 279.034 298.812 Q 271.224 300.542 263.784 303.562 Q 258.484 304.722 253.494 306.852 Q 243.464 310.902 239.224 312.292 Q 234.054 313.982 226.034 315.392 L 208.534 319.392 L 204.474 318.942 C 204.134 318.893 203.842 318.731 203.684 318.502 Q 202.984 317.352 203.034 315.892 Q 222.354 311.112 241.574 305.922 Q 250.444 303.522 260.674 300.012 Q 273.944 295.452 287.284 291.102 Q 291.724 289.652 297.514 286.812 Q 311.104 280.142 324.724 273.542 Q 329.814 271.072 331.534 270.562 Q 334.114 271.002 336.284 269.642 Z " fill="rgb(166,150,133)"/><path d=" M 324.034 330.142 Q 317.314 332.402 316.034 333.102 Q 311.844 335.382 304.784 337.852 Q 290.074 343.002 279.544 345.892 Q 279.444 345.922 275.664 347.032 Q 272.034 348.092 268.274 348.562 Q 266.434 348.782 264.714 349.402 Q 263.014 350.002 261.214 350.182 Q 258.434 350.462 255.854 351.682 Q 252.264 353.392 248.394 354.302 Q 248.114 354.372 245.654 354.442 Q 244.494 354.472 242.844 354.912 Q 223.974 360.012 195.034 365.602 Q 188.534 366.862 185.374 366.912 Q 185.114 366.922 185.354 366.982 Q 186.754 367.372 185.014 367.352 Q 184.784 367.352 184.564 367.402 Q 178.384 368.762 169.974 368.292 Q 168.114 368.182 167.744 366.852 L 167.784 366.142 Q 167.994 364.402 170.284 364.602 Q 174.554 364.972 180.014 363.862 Q 184.214 363.022 186.594 362.632 Q 189.904 362.102 193.174 361.322 Q 194.424 361.022 196.934 361.072 Q 198.704 361.112 200.784 360.602 Q 217.214 356.552 222.014 355.242 Q 222.534 355.102 223.064 355.102 Q 232.694 355.092 223.784 354.062 L 229.534 353.062 Q 231.764 353.722 234.044 353.622 Q 235.154 353.582 238.354 352.462 Q 240.274 351.782 242.954 351.302 Q 243.994 351.112 244.954 350.692 Q 247.634 349.532 250.164 349.332 Q 253.494 349.062 254.804 348.672 Q 260.294 347.032 265.804 345.492 C 266.116 345.45 266.44 345.464 266.744 345.532 Q 267.974 345.922 268.924 345.182 Q 269.384 344.822 269.774 344.722 Q 274.074 343.592 275.474 343.042 Q 279.954 341.272 284.654 340.282 Q 284.794 340.252 286.414 340.172 Q 287.674 340.102 288.534 339.062 Q 293.664 338.332 297.924 335.452 Q 298.244 335.242 298.844 335.142 Q 299.214 335.092 299.534 334.892 Q 305.354 333.152 311.354 332.202 Q 315.244 331.582 318.534 329.392 L 324.034 330.142 Z " fill="rgb(166,150,133)"/><path d=" M 247.824 346.852 Q 248.284 345.782 247.284 345.812 Q 251.614 343.402 255.974 341.042 Q 258.144 339.862 262.254 340.332 Q 266.254 340.792 268.884 340.832 Q 271.134 340.862 272.724 339.282 Q 278.264 333.772 282.404 330.892 Q 284.704 329.302 282.854 331.402 Q 279.174 335.602 275.254 339.542 Q 271.874 342.952 268.904 343.842 Q 265.104 344.982 260.534 344.352 Q 254.264 343.492 247.824 346.852 Z " fill="rgb(254,249,74)"/><path d=" M 208.534 331.642 Q 206.134 333.792 209.784 332.892 L 210.034 334.062 L 198.534 334.062 L 208.534 331.642 Z " fill="rgb(192,89,105)"/><path d=" M 198.534 334.062 L 210.034 334.062 Q 214.214 339.872 207.784 342.312 L 203.574 342.852 Q 203.074 341.532 203.274 340.152 C 203.299 339.986 203.247 339.817 203.132 339.694 C 203.016 339.571 202.852 339.508 202.684 339.522 L 190.534 340.642 Q 187.684 340.472 188.554 338.542 C 188.673 338.274 188.931 338.059 189.264 337.952 Q 193.934 336.432 189.284 336.312 Q 190.434 336.222 191.304 335.542 C 191.453 335.427 191.64 335.363 191.834 335.362 Q 194.114 335.462 191.864 334.852 Q 191.234 334.682 191.884 334.632 L 198.534 334.062 Z " fill="rgb(149,91,140)"/><path d=" M 328.744 334.852 Q 328.794 335.852 328.474 336.832 Q 325.604 345.422 320.764 353.092 Q 305.224 377.722 280.014 391.012 Q 271.324 395.602 261.524 398.522 Q 246.724 402.952 233.034 402.852 Q 230.244 402.832 216.814 400.892 Q 193.184 397.472 174.244 383.102 Q 178.074 380.282 182.784 380.812 L 188.534 384.562 Q 215.524 400.842 246.954 395.932 Q 270.874 392.202 290.474 377.542 Q 311.574 361.742 321.034 337.392 Q 324.474 334.912 328.744 334.852 Z " fill="rgb(251,125,136)"/><path d=" M 349.284 235.812 Q 351.994 235.932 354.484 236.882 Q 357.534 238.062 360.614 239.122 Q 364.854 240.582 366.514 241.832 Q 372.764 246.542 367.074 254.352 Q 366.154 251.822 363.534 251.562 Q 363.974 248.832 362.774 246.352 Q 360.484 241.642 356.024 238.872 Q 355.284 238.402 355.064 238.682 C 354.788 238.77 354.65 238.957 354.727 239.137 C 354.805 239.317 355.078 239.446 355.394 239.452 Q 359.054 242.022 360.844 246.142 C 361.076 246.436 361.105 246.779 360.924 247.092 L 360.494 249.602 Q 358.504 255.162 354.284 259.312 L 336.284 269.642 Q 334.114 271.002 331.534 270.562 L 331.534 270.392 Q 338.234 266.762 345.014 263.252 Q 349.394 260.992 351.574 258.692 Q 354.364 255.742 356.224 252.042 Q 356.404 251.672 356.344 249.792 L 356.244 246.352 Q 356.654 244.912 355.344 243.792 Q 350.794 239.882 345.534 238.142 Q 346.634 237.342 348.044 237.542 Q 353.274 238.292 348.754 237.032 Q 344.564 235.862 349.284 235.812 Z " fill="rgb(213,144,99)"/><path d=" M 198.534 330.392 Q 197.924 331.672 196.594 331.752 Q 194.694 331.862 194.614 331.882 Q 183.214 334.362 180.974 334.292 Q 171.744 333.992 162.534 334.642 L 160.034 334.562 L 161.324 334.102 Q 165.804 333.972 170.294 333.902 Q 175.664 333.822 179.224 333.132 Q 183.694 332.272 188.034 330.852 Q 193.254 329.152 198.534 330.392 Z " fill="rgb(213,144,99)"/><path d=" M 251.034 341.062 Q 245.844 341.032 241.494 343.742 Q 240.814 344.172 240.034 344.392 L 238.734 344.052 Q 238.354 343.952 237.814 344.062 L 233.784 344.862 Q 232.974 345.022 232.854 345.102 L 229.824 347.102 L 229.084 347.692 C 228.847 347.866 228.539 347.972 228.214 347.992 Q 225.594 347.792 221.784 348.852 Q 218.504 349.762 213.284 349.062 Q 217.704 345.522 223.284 344.392 L 224.034 344.312 Q 227.364 345.182 230.414 344.162 Q 234.164 342.912 234.274 342.892 Q 239.864 341.552 243.224 340.292 Q 245.754 339.332 247.974 338.902 Q 250.244 338.452 251.914 337.732 Q 253.824 336.902 255.804 336.252 C 256.139 336.123 256.402 335.926 256.554 335.692 Q 257.364 334.672 258.614 335.342 C 258.889 335.467 259.206 335.543 259.534 335.562 Q 263.664 335.302 260.034 336.602 Q 259.014 336.972 258.654 337.572 C 258.689 337.822 258.444 338.067 258.004 338.222 L 251.034 341.062 Z " fill="rgb(213,144,99)"/><path d=" M 268.534 213.562 Q 268.054 214.242 268.294 215.052 Q 269.404 218.692 268.984 222.302 Q 268.774 224.152 266.724 229.032 Q 265.384 232.222 264.504 235.562 Q 264.454 235.762 263.204 239.942 Q 261.054 247.102 264.844 253.792 Q 270.144 263.162 266.754 272.492 Q 265.264 276.582 261.344 280.132 Q 254.844 286.032 245.844 290.412 Q 237.384 294.542 229.664 297.012 Q 226.184 298.132 214.224 300.382 Q 205.534 302.012 197.034 304.562 Q 197.244 302.602 198.734 301.302 Q 204.694 296.092 209.724 292.542 Q 212.344 290.692 213.344 287.992 Q 214.274 285.502 215.894 283.482 Q 218.764 279.922 218.794 279.882 Q 222.684 273.962 224.744 267.132 Q 226.674 260.742 230.454 255.242 Q 232.194 252.712 233.024 250.542 Q 233.614 248.972 232.034 249.512 Q 228.264 250.802 224.764 252.052 Q 224.024 252.322 223.864 251.922 C 223.685 251.788 223.617 251.615 223.678 251.449 C 223.739 251.282 223.924 251.138 224.184 251.052 Q 228.344 246.572 234.104 244.662 Q 237.874 243.412 237.914 243.392 Q 242.594 241.422 246.194 237.762 Q 249.064 234.852 248.884 230.802 C 248.929 230.502 248.707 230.221 248.364 230.142 L 242.524 229.102 C 242.081 229.046 241.687 228.817 241.448 228.476 C 241.21 228.135 241.149 227.716 241.284 227.332 Q 242.484 223.392 245.514 220.582 Q 247.724 218.542 249.854 216.402 C 250.237 216.15 250.429 215.72 250.348 215.295 C 250.267 214.87 249.927 214.527 249.474 214.412 L 244.604 213.092 C 244.221 213.017 243.952 212.811 243.924 212.572 Q 243.554 211.262 244.784 210.312 Q 249.944 209.582 255.104 210.112 Q 260.874 210.702 261.984 210.912 Q 265.474 211.552 268.534 213.562 Z " fill="rgb(208,123,134)"/><path d=" M 349.284 235.812 Q 344.564 235.862 348.754 237.032 Q 353.274 238.292 348.044 237.542 Q 346.634 237.342 345.534 238.142 Q 339.684 236.542 331.594 237.412 Q 322.644 238.382 317.074 240.602 Q 315.704 239.402 316.684 237.822 C 316.775 237.723 316.812 237.593 316.785 237.467 C 316.758 237.341 316.669 237.233 316.544 237.172 Q 315.634 236.712 314.534 236.642 Q 331.844 233.932 349.284 235.812 Z " fill="rgb(208,123,134)"/><path d=" M 273.284 326.142 Q 273.064 327.602 271.594 327.492 Q 271.034 327.452 270.644 327.622 Q 264.594 330.362 258.034 331.312 L 260.434 328.952 C 260.627 328.795 260.954 328.677 261.344 328.622 Q 263.954 328.352 266.124 326.892 C 266.346 326.797 266.662 326.733 267.014 326.712 L 268.054 326.722 Q 268.694 326.722 268.274 326.172 Q 267.104 324.602 263.864 326.032 Q 263.204 326.322 262.484 326.452 Q 257.094 327.402 251.954 330.502 Q 250.404 331.442 248.534 331.642 Q 247.884 331.432 248.614 331.032 Q 248.854 330.902 249.004 330.702 Q 249.984 329.412 251.464 328.772 Q 259.674 325.162 269.164 323.762 C 269.506 323.71 269.855 323.798 270.133 324.004 C 270.411 324.211 270.595 324.519 270.644 324.862 Q 270.904 326.652 273.284 326.142 Z " fill="rgb(208,123,134)"/><path d=" M 189.284 336.312 Q 193.934 336.432 189.264 337.952 C 188.931 338.059 188.673 338.274 188.554 338.542 Q 187.684 340.472 190.534 340.642 Q 174.894 343.542 159.044 344.952 Q 155.684 345.252 155.514 345.232 Q 153.634 345.052 152.224 343.412 Q 150.934 341.922 150.454 340.812 C 150.342 340.55 150.085 340.375 149.794 340.362 L 147.284 340.312 Q 159.054 339.682 170.844 339.612 Q 170.984 339.612 173.134 339.992 Q 174.714 340.272 175.234 338.412 C 175.276 338.136 175.515 337.909 175.834 337.842 L 189.284 336.312 Z " fill="rgb(208,123,134)"/><path d=" M 321.034 337.392 Q 311.574 361.742 290.474 377.542 Q 270.874 392.202 246.954 395.932 Q 215.524 400.842 188.534 384.562 Q 188.934 383.592 190.024 383.882 Q 205.174 387.922 218.974 380.792 Q 226.494 376.902 233.394 375.042 Q 236.284 374.262 241.784 374.022 Q 247.314 373.772 250.224 372.792 Q 257.054 370.472 266.474 363.282 Q 266.874 362.972 266.634 362.792 C 266.448 362.738 266.231 362.738 266.044 362.792 Q 260.474 365.172 254.654 366.742 Q 251.874 367.492 242.794 368.702 Q 236.684 369.522 230.734 371.162 Q 230.714 371.162 224.404 373.272 Q 218.174 375.352 211.534 375.632 Q 197.314 376.232 183.284 378.642 Q 178.474 376.922 174.784 373.392 Q 188.564 372.272 202.194 370.082 Q 209.834 368.852 221.744 365.972 Q 232.074 363.472 247.534 359.852 Q 284.334 351.232 321.034 337.392 Z " fill="rgb(115,83,133)"/><path d=" M 335.284 290.142 L 334.074 291.172 C 333.783 291.394 333.658 291.724 333.744 292.042 Q 333.944 295.782 335.564 299.152 C 335.733 299.444 335.789 299.773 335.724 300.092 Q 335.214 303.902 333.034 307.062 L 330.534 307.812 Q 329.734 308.312 328.784 308.062 Q 329.144 300.182 328.324 292.352 Q 329.654 290.262 332.054 290.732 C 332.361 290.764 332.67 290.688 332.914 290.522 Q 333.914 289.802 335.284 290.142 Z " fill="rgb(252,148,117)"/><path d=" M 203.574 342.852 Q 203.744 343.802 202.844 344.162 Q 197.104 346.502 192.224 347.542 Q 185.774 348.902 164.284 351.312 L 153.034 352.062 Q 150.864 350.672 148.344 350.962 C 148.053 350.993 147.777 350.833 147.674 350.572 Q 147.154 349.182 146.704 347.762 Q 146.484 347.062 145.454 345.132 Q 143.884 342.222 147.284 340.312 L 149.794 340.362 C 150.085 340.375 150.342 340.55 150.454 340.812 Q 150.934 341.922 152.224 343.412 Q 153.634 345.052 155.514 345.232 Q 155.684 345.252 159.044 344.952 Q 174.894 343.542 190.534 340.642 L 202.684 339.522 C 202.852 339.508 203.016 339.571 203.132 339.694 C 203.247 339.817 203.299 339.986 203.274 340.152 Q 203.074 341.532 203.574 342.852 Z " fill="rgb(252,148,117)"/><path d=" M 149.244 332.102 Q 151.054 332.812 152.804 333.642 Q 156.194 335.252 160.034 334.562 L 162.534 334.642 Q 154.664 336.542 146.574 336.602 Q 144.794 336.052 144.714 334.402 C 144.731 334.132 144.52 333.896 144.224 333.852 L 143.534 333.812 Q 146.064 331.972 149.244 332.102 Z " fill="rgb(152,135,127)"/><path d=" M 115.034 342.392 L 115.324 346.102 L 115.444 349.912 C 115.457 350.222 115.637 350.501 115.914 350.642 Q 124.414 355.012 134.034 355.062 Q 140.544 355.682 142.784 355.602 Q 154.294 355.172 162.784 355.602 Q 171.404 356.042 179.034 354.392 L 189.284 353.062 Q 190.844 352.732 191.074 354.102 L 183.534 355.812 L 175.034 356.892 L 159.534 357.812 Q 152.044 356.432 144.534 357.812 L 142.034 357.812 Q 136.354 355.902 130.534 357.312 Q 122.744 355.722 115.634 352.222 Q 112.454 350.662 111.224 346.662 Q 110.364 343.892 112.534 342.892 Q 113.594 341.232 115.034 342.392 Z " fill="rgb(152,135,127)"/><path d=" M 224.034 342.062 Q 224.794 342.102 224.264 342.292 Q 223.174 342.682 222.654 343.642 C 222.545 343.869 222.319 344.04 222.044 344.102 Q 220.394 344.352 223.284 344.392 Q 217.704 345.522 213.284 349.062 L 208.534 349.642 Q 204.934 349.172 201.334 349.392 Q 199.474 349.502 197.014 350.722 Q 193.384 352.522 189.284 353.062 L 179.034 354.392 Q 176.774 354.582 174.944 353.392 Q 174.474 353.082 174.034 353.042 L 165.964 352.202 C 165.616 352.112 165.355 351.935 165.254 351.722 Q 164.934 351.292 164.284 351.312 Q 185.774 348.902 192.224 347.542 Q 197.104 346.502 202.844 344.162 Q 203.744 343.802 203.574 342.852 L 207.784 342.312 Q 209.454 342.682 210.484 343.942 C 210.668 344.171 210.963 344.314 211.284 344.332 Q 217.814 344.062 224.034 342.062 Z " fill="rgb(243,114,51)"/><path d=" M 100.534 342.392 Q 101.564 342.962 102.034 344.062 Q 101.074 343.872 100.784 344.852 Q 99.844 348.092 99.644 350.092 Q 98.784 358.752 106.284 362.562 Q 113.264 365.352 120.784 365.812 L 129.534 366.892 Q 139.684 367.932 147.534 367.602 Q 149.894 367.502 151.544 368.402 C 151.871 368.568 152.017 368.875 151.904 369.162 Q 151.874 370.092 152.784 370.142 Q 147.134 370.852 141.444 370.932 Q 134.334 371.032 130.104 370.972 Q 118.964 370.822 108.284 367.652 Q 102.874 366.052 100.484 363.802 Q 97.144 360.652 96.394 355.582 Q 95.524 349.672 98.724 343.542 Q 99.414 342.222 100.534 342.392 Z " fill="rgb(156,148,155)"/><path d=" M 351.784 242.812 Q 351.314 244.252 349.994 243.802 Q 349.444 243.612 349.044 243.632 Q 346.544 243.732 342.034 243.102 Q 332.244 241.732 320.284 243.102 Q 319.854 243.152 318.994 243.852 Q 317.564 243.012 317.284 241.392 Q 320.844 241.042 324.404 240.612 Q 324.474 240.602 329.514 239.782 Q 338.254 238.372 347.784 241.102 Q 350.684 241.932 351.784 242.812 Z " fill="rgb(199,143,80)"/><path d=" M 363.034 306.892 Q 357.724 311.212 354.034 313.102 Q 345.934 317.262 337.594 320.912 Q 333.964 322.502 330.034 323.062 Q 332.804 320.502 337.254 319.722 Q 338.704 319.472 339.834 318.532 Q 342.164 316.592 345.354 315.342 Q 349.204 313.832 349.984 313.462 Q 351.504 312.742 353.024 312.042 Q 354.284 311.462 355.884 310.362 Q 359.184 308.092 363.034 306.892 Z " fill="rgb(199,143,80)"/><path d=" M 115.324 346.102 Q 117.424 351.662 123.034 351.352 Q 124.854 351.252 125.384 352.382 C 125.422 352.648 125.65 352.891 126.004 353.042 Q 129.884 354.552 134.034 355.062 Q 124.414 355.012 115.914 350.642 C 115.637 350.501 115.457 350.222 115.444 349.912 L 115.324 346.102 Z " fill="rgb(199,143,80)"/><path d=" M 359.784 274.892 Q 356.534 276.372 361.034 276.642 Q 362.194 277.142 362.504 278.312 C 362.541 278.59 362.76 278.831 363.074 278.942 L 368.534 280.392 Q 369.094 280.612 369.394 281.092 Q 369.714 281.602 370.014 281.802 Q 375.064 285.092 374.524 291.352 Q 374.444 292.272 374.824 293.102 Q 371.684 302.312 363.034 306.892 Q 359.184 308.092 355.884 310.362 Q 354.284 311.462 353.024 312.042 Q 351.504 312.742 349.984 313.462 Q 349.204 313.832 345.354 315.342 Q 342.164 316.592 339.834 318.532 Q 338.704 319.472 337.254 319.722 Q 332.804 320.502 330.034 323.062 L 321.744 326.402 C 321.442 326.517 321.112 326.544 320.794 326.482 Q 317.364 325.722 316.824 329.352 Q 312.864 330.832 308.594 330.462 C 308.276 330.452 307.966 330.56 307.734 330.762 Q 306.374 331.962 304.664 332.392 Q 302.044 333.042 301.964 333.072 Q 300.244 333.682 298.534 334.312 Q 295.994 334.242 290.034 333.602 Q 285.194 333.082 284.534 337.662 C 284.504 337.774 284.533 337.891 284.616 337.987 C 284.698 338.083 284.827 338.15 284.974 338.172 L 288.534 339.062 Q 287.674 340.102 286.414 340.172 Q 284.794 340.252 284.654 340.282 Q 279.954 341.272 275.474 343.042 Q 274.074 343.592 269.774 344.722 Q 269.384 344.822 268.924 345.182 Q 267.974 345.922 266.744 345.532 C 266.44 345.464 266.116 345.45 265.804 345.492 Q 260.294 347.032 254.804 348.672 Q 253.494 349.062 250.164 349.332 Q 247.634 349.532 244.954 350.692 Q 243.994 351.112 242.954 351.302 Q 240.274 351.782 238.354 352.462 Q 235.154 353.582 234.044 353.622 Q 231.764 353.722 229.534 353.062 Q 239.094 351.142 247.824 346.852 Q 254.264 343.492 260.534 344.352 Q 265.104 344.982 268.904 343.842 Q 271.874 342.952 275.254 339.542 Q 279.174 335.602 282.854 331.402 Q 284.704 329.302 282.404 330.892 Q 278.264 333.772 272.724 339.282 Q 271.134 340.862 268.884 340.832 Q 266.254 340.792 262.254 340.332 Q 258.144 339.862 255.974 341.042 Q 251.614 343.402 247.284 345.812 Q 238.644 349.402 229.404 350.742 Q 227.784 350.972 223.814 352.102 Q 218.654 353.572 213.284 351.812 Q 213.284 350.162 214.424 350.772 C 214.698 350.895 215.02 350.968 215.354 350.982 Q 230.204 349.182 233.034 348.602 Q 235.644 348.072 240.614 345.862 Q 242.144 345.182 245.534 344.402 Q 248.434 343.732 250.984 342.032 Q 251.934 341.392 251.034 341.062 L 258.004 338.222 C 258.444 338.067 258.689 337.822 258.654 337.572 Q 259.014 336.972 260.034 336.602 Q 263.664 335.302 259.534 335.562 C 259.206 335.543 258.889 335.467 258.614 335.342 Q 257.364 334.672 256.554 335.692 C 256.402 335.926 256.139 336.123 255.804 336.252 Q 253.824 336.902 251.914 337.732 Q 250.244 338.452 247.974 338.902 Q 245.754 339.332 243.224 340.292 Q 239.864 341.552 234.274 342.892 Q 234.164 342.912 230.414 344.162 Q 227.364 345.182 224.034 344.312 Q 228.354 342.792 232.684 341.322 Q 236.304 340.082 241.544 339.082 Q 245.354 338.352 249.104 337.352 Q 249.834 337.162 253.954 335.572 Q 256.374 334.632 259.034 334.352 Q 262.024 334.042 264.654 332.662 C 264.945 332.523 265.273 332.458 265.604 332.472 Q 267.124 332.592 268.534 332.092 Q 270.964 331.222 271.694 331.092 Q 276.014 330.302 278.724 328.792 Q 281.324 327.332 283.774 327.092 Q 286.574 326.822 287.674 326.412 Q 293.054 324.422 298.324 322.142 Q 299.754 321.532 301.234 321.562 Q 302.764 321.582 304.284 321.642 Q 302.834 321.712 302.024 323.032 C 301.98 323.095 301.973 323.175 302.006 323.244 C 302.038 323.313 302.105 323.362 302.184 323.372 L 305.044 323.782 C 305.369 323.795 305.691 323.725 305.964 323.582 Q 307.594 322.642 309.534 322.812 L 310.564 323.202 C 310.875 323.268 311.208 323.272 311.524 323.212 Q 315.664 322.032 319.974 321.922 C 320.256 321.932 320.482 322.146 320.494 322.412 Q 320.604 323.462 321.194 324.232 C 321.386 324.427 321.707 324.453 321.934 324.292 Q 323.634 323.022 325.564 322.242 Q 329.174 320.802 329.394 320.692 Q 337.344 316.812 345.284 312.892 Q 358.354 307.352 366.094 300.162 Q 374.794 292.092 366.514 283.622 Q 362.204 279.212 356.274 277.622 Q 355.104 277.312 354.194 277.822 C 354.068 277.867 353.991 277.976 354.002 278.091 C 354.014 278.207 354.111 278.303 354.244 278.332 L 361.574 283.102 L 359.364 285.722 C 359.153 285.949 359.098 286.273 359.224 286.552 Q 360.304 289.022 361.284 290.102 Q 362.264 291.182 361.834 292.232 Q 361.614 292.762 361.614 293.162 Q 361.624 294.102 361.324 294.972 Q 361.074 295.712 360.284 296.372 Q 348.204 306.492 332.784 310.142 Q 331.744 310.202 331.564 309.332 Q 331.534 309.182 331.694 308.392 Q 331.864 307.532 330.534 307.812 L 333.034 307.062 Q 343.854 302.932 353.454 296.512 Q 355.694 295.012 357.104 292.862 Q 358.654 290.502 357.734 288.122 Q 356.524 285.012 352.844 283.792 Q 350.324 282.952 348.534 282.812 L 347.034 277.562 L 355.284 272.562 Q 357.394 271.942 359.304 270.882 Q 359.514 270.772 359.664 270.772 Q 360.034 270.782 359.674 271.202 Q 359.554 271.342 359.354 271.412 Q 357.534 272.102 357.764 274.042 C 357.753 274.346 357.987 274.613 358.324 274.682 L 359.784 274.892 Z " fill="rgb(231,145,70)"/><path d=" M 111.824 352.602 Q 115.964 356.882 121.844 358.072 Q 129.314 359.582 136.804 361.012 C 137.119 361.058 137.442 361.02 137.734 360.902 Q 141.824 359.102 146.284 358.562 Q 149.034 358.632 151.784 358.552 Q 152.904 358.522 153.324 359.602 Q 153.174 360.042 153.534 360.142 Q 149.914 361.652 147.784 360.852 Q 142.154 358.742 138.184 362.802 C 137.967 363.022 137.677 363.176 137.354 363.242 Q 132.104 364.012 127.074 362.352 L 113.994 356.602 Q 112.114 355.122 111.824 352.602 Z " fill="rgb(231,145,70)"/><path d=" M 143.534 333.812 L 144.224 333.852 C 144.52 333.896 144.731 334.132 144.714 334.402 Q 144.794 336.052 146.574 336.602 Q 151.114 337.232 146.534 337.252 Q 143.534 337.262 140.374 337.352 Q 139.854 337.372 140.344 337.532 Q 142.264 338.182 140.474 338.112 Q 140.284 338.102 140.114 338.162 Q 138.614 338.672 137.034 338.632 Q 131.154 338.482 125.284 338.812 L 124.094 338.542 C 124.01 338.529 123.939 338.474 123.908 338.398 C 123.877 338.322 123.891 338.236 123.944 338.172 Q 125.024 336.902 122.534 337.142 Q 121.254 337.262 120.034 336.892 Q 123.534 337.292 126.534 335.642 L 134.534 334.892 L 143.534 333.812 Z " fill="rgb(148,218,144)"/><path d=" M 240.034 344.392 Q 235.364 347.292 229.824 347.102 L 232.854 345.102 Q 232.974 345.022 233.784 344.862 L 237.814 344.062 Q 238.354 343.952 238.734 344.052 L 240.034 344.392 Z " fill="rgb(148,218,144)"/><path d=" M 142.034 357.812 Q 136.214 358.882 130.534 357.312 Q 136.354 355.902 142.034 357.812 Z " fill="rgb(148,218,144)"/><path d=" M 279.034 298.812 L 287.534 301.142 Q 287.744 301.942 287.034 302.312 Q 279.784 303.352 272.454 303.182 Q 270.054 303.122 268.124 303.262 Q 265.954 303.422 263.784 303.562 Q 271.224 300.542 279.034 298.812 Z " fill="rgb(252,233,105)"/><path d=" M 298.534 334.312 Q 299.234 334.252 299.534 334.892 Q 299.214 335.092 298.844 335.142 Q 298.244 335.242 297.924 335.452 Q 293.664 338.332 288.534 339.062 L 284.974 338.172 C 284.827 338.15 284.698 338.083 284.616 337.987 C 284.533 337.891 284.504 337.774 284.534 337.662 Q 285.194 333.082 290.034 333.602 Q 295.994 334.242 298.534 334.312 Z " fill="rgb(252,233,105)"/><path d=" M 175.034 356.892 L 174.334 360.302 C 174.311 360.418 174.235 360.517 174.126 360.574 C 174.018 360.63 173.888 360.637 173.774 360.592 L 172.914 360.162 Q 172.394 359.902 171.974 359.912 L 153.534 360.142 Q 153.174 360.042 153.324 359.602 Q 156.254 358.112 159.534 357.812 L 175.034 356.892 Z " fill="rgb(252,233,105)"/><path d=" M 368.534 280.392 Q 374.264 282.562 376.134 288.372 C 376.483 288.655 376.459 289.021 376.074 289.302 L 374.824 293.102 Q 374.444 292.272 374.524 291.352 Q 375.064 285.092 370.014 281.802 Q 369.714 281.602 369.394 281.092 Q 369.094 280.612 368.534 280.392 Z " fill="rgb(211,170,114)"/><path d=" M 249.994 310.102 L 250.704 310.962 C 250.883 311.126 251.186 311.24 251.534 311.272 Q 251.894 311.282 251.974 311.592 C 252.1 311.848 251.926 312.133 251.584 312.232 L 240.784 317.392 Q 240.854 315.832 239.534 315.352 Q 238.614 315.012 239.724 314.542 L 249.994 310.102 Z " fill="rgb(211,170,114)"/><path d=" M 239.494 319.352 Q 239.714 320.132 239.284 320.812 Q 231.924 323.862 224.034 325.062 Q 224.134 324.462 224.774 324.302 Q 232.324 322.382 239.494 319.352 Z " fill="rgb(211,170,114)"/><path d=" M 159.534 357.812 Q 156.254 358.112 153.324 359.602 Q 152.904 358.522 151.784 358.552 Q 149.034 358.632 146.284 358.562 Q 145.994 357.392 144.534 357.812 Q 152.044 356.432 159.534 357.812 Z " fill="rgb(211,170,114)"/><path d=" M 178.034 312.642 Q 177.174 314.122 179.034 313.892 Q 172.534 314.682 166.284 316.642 Q 159.954 315.872 153.674 316.692 Q 151.084 317.022 148.394 316.752 Q 145.724 316.492 143.034 316.562 Q 143.404 316.052 143.284 315.392 Q 149.254 316.522 154.784 314.102 Q 157.014 313.122 162.284 313.852 Q 165.774 314.332 172.074 312.942 Q 173.654 312.592 175.024 312.592 Q 176.534 312.592 178.034 312.642 Z " fill="rgb(207,117,139)"/><path d=" M 188.534 384.562 L 182.784 380.812 Q 183.414 379.802 183.284 378.642 Q 197.314 376.232 211.534 375.632 Q 218.174 375.352 224.404 373.272 Q 230.714 371.162 230.734 371.162 Q 236.684 369.522 242.794 368.702 Q 251.874 367.492 254.654 366.742 Q 260.474 365.172 266.044 362.792 C 266.231 362.738 266.448 362.738 266.634 362.792 Q 266.874 362.972 266.474 363.282 Q 257.054 370.472 250.224 372.792 Q 247.314 373.772 241.784 374.022 Q 236.284 374.262 233.394 375.042 Q 226.494 376.902 218.974 380.792 Q 205.174 387.922 190.024 383.882 Q 188.934 383.592 188.534 384.562 Z " fill="rgb(207,117,139)"/><path d=" M 155.284 364.812 Q 152.164 364.762 152.744 368.102 Q 151.764 368.782 152.094 367.052 C 152.139 366.81 152.073 366.56 151.914 366.372 C 151.755 366.184 151.52 366.078 151.274 366.082 Q 144.784 366.202 139.284 366.382 Q 138.754 366.402 138.364 366.732 C 138.202 366.909 137.901 367.046 137.534 367.112 L 129.534 366.892 L 120.784 365.812 Q 128.954 364.692 137.174 365.322 C 137.405 365.343 137.621 365.442 137.784 365.602 L 137.914 365.732 C 137.987 365.804 138.093 365.834 138.194 365.812 Q 141.574 364.902 144.534 365.352 Q 147.774 365.842 150.494 365.272 Q 151.034 365.162 150.604 364.812 Q 149.444 363.892 147.034 363.852 Q 144.164 363.802 146.944 363.372 Q 150.894 362.752 154.794 363.502 C 155.217 363.565 155.522 363.774 155.554 364.022 Q 155.644 364.392 155.284 364.812 Z " fill="rgb(218,141,51)"/><path d=" M 113.994 356.602 L 127.074 362.352 Q 126.934 363.702 125.534 363.342 Q 121.324 362.292 117.114 361.212 Q 109.784 359.342 106.254 352.712 Q 104.904 350.182 107.254 352.872 Q 109.954 355.982 113.994 356.602 Z " fill="rgb(251,220,65)"/><path d=" M 375.994 231.352 Q 382.674 236.972 382.934 244.622 Q 383.134 250.772 378.714 257.742 Q 374.754 263.982 368.734 268.622 Q 368.354 268.912 368.824 269.052 Q 377.884 271.782 383.974 278.162 Q 388.984 283.422 388.554 290.002 Q 388.224 295.012 384.164 300.922 Q 379.304 307.972 372.094 312.662 Q 351.984 325.752 328.744 334.852 Q 324.474 334.912 321.034 337.392 Q 284.334 351.232 247.534 359.852 Q 232.074 363.472 221.744 365.972 Q 209.834 368.852 202.194 370.082 Q 188.564 372.272 174.784 373.392 Q 171.174 372.722 166.924 373.462 C 166.717 373.496 166.558 373.664 166.534 373.872 Q 166.394 374.992 165.284 375.142 Q 146.764 376.422 128.214 376.202 Q 121.094 376.122 116.384 375.502 Q 109.584 374.592 104.784 372.852 Q 98.084 370.422 94.474 366.662 Q 87.274 359.182 91.034 348.482 Q 92.354 344.722 94.584 341.432 C 94.684 341.288 94.718 341.108 94.675 340.937 C 94.633 340.767 94.52 340.623 94.364 340.542 Q 84.934 335.682 87.304 324.962 Q 88.624 319.002 92.454 314.272 Q 98.004 307.422 105.084 302.152 Q 119.654 291.292 136.244 283.852 Q 136.904 286.612 135.994 289.352 Q 135.454 288.582 134.854 289.182 Q 132.894 291.152 130.414 292.422 Q 120.434 297.542 111.034 303.642 Q 107.424 304.662 103.474 308.542 Q 100.264 311.682 98.224 314.172 Q 95.024 318.082 93.704 320.372 Q 91.144 324.812 91.814 330.232 Q 91.834 330.352 91.844 332.982 Q 91.854 334.572 93.004 335.882 Q 94.364 337.412 96.494 336.602 Q 98.904 338.312 100.284 338.352 Q 104.914 338.492 109.544 338.812 C 109.872 338.78 110.176 338.674 110.404 338.512 Q 110.904 338.142 111.534 338.062 L 125.284 338.812 Q 131.154 338.482 137.034 338.632 Q 138.614 338.672 140.114 338.162 Q 140.284 338.102 140.474 338.112 Q 142.264 338.182 140.344 337.532 Q 139.854 337.372 140.374 337.352 Q 143.534 337.262 146.534 337.252 Q 151.114 337.232 146.574 336.602 Q 154.664 336.542 162.534 334.642 Q 171.744 333.992 180.974 334.292 Q 183.214 334.362 194.614 331.882 Q 194.694 331.862 196.594 331.752 Q 197.924 331.672 198.534 330.392 L 224.034 325.062 Q 231.924 323.862 239.284 320.812 Q 243.194 320.182 247.084 319.432 Q 247.134 319.422 250.514 319.042 Q 255.134 318.512 257.034 314.062 L 266.034 311.562 Q 267.054 314.252 268.574 312.642 Q 269.524 311.632 270.174 311.302 Q 278.614 307.102 287.784 304.842 Q 289.554 304.412 290.534 302.892 Q 298.214 300.402 305.574 297.132 Q 306.874 296.562 314.254 293.552 Q 318.614 291.772 322.674 289.372 Q 325.184 287.892 328.104 286.992 Q 335.004 284.872 341.074 280.852 L 347.034 277.562 L 348.534 282.812 Q 346.354 283.362 343.224 285.292 Q 339.264 287.732 335.284 290.142 Q 333.914 289.802 332.914 290.522 C 332.67 290.688 332.361 290.764 332.054 290.732 Q 329.654 290.262 328.324 292.352 Q 300.634 306.242 271.014 315.132 Q 255.344 319.842 255.234 319.872 Q 245.664 322.832 236.054 325.642 Q 230.284 327.332 222.344 328.772 Q 215.404 330.032 208.534 331.642 L 198.534 334.062 L 191.884 334.632 Q 191.234 334.682 191.864 334.852 Q 194.114 335.462 191.834 335.362 C 191.64 335.363 191.453 335.427 191.304 335.542 Q 190.434 336.222 189.284 336.312 L 175.834 337.842 C 175.515 337.909 175.276 338.136 175.234 338.412 Q 174.714 340.272 173.134 339.992 Q 170.984 339.612 170.844 339.612 Q 159.054 339.682 147.284 340.312 Q 143.884 342.222 145.454 345.132 Q 146.484 347.062 146.704 347.762 Q 147.154 349.182 147.674 350.572 C 147.777 350.833 148.053 350.993 148.344 350.962 Q 150.864 350.672 153.034 352.062 Q 145.444 353.792 137.744 352.932 Q 137.074 352.862 136.434 352.462 Q 135.834 352.082 135.204 351.742 Q 132.614 350.342 135.534 349.892 L 143.644 350.122 C 143.802 350.13 143.954 350.068 144.053 349.955 C 144.153 349.842 144.186 349.692 144.144 349.552 L 142.724 344.712 C 142.6 344.342 142.208 344.088 141.764 344.092 L 118.494 345.102 Q 116.794 344.682 117.034 343.352 Q 117.484 340.892 115.034 342.392 Q 113.594 341.232 112.534 342.892 Q 108.744 343.392 109.744 347.602 Q 109.374 346.782 109.674 345.062 C 109.725 344.781 109.63 344.494 109.415 344.281 C 109.2 344.067 108.888 343.95 108.564 343.962 L 103.704 344.032 C 103.231 343.941 102.93 343.723 102.954 343.492 Q 102.084 342.322 100.534 342.392 Q 99.414 342.222 98.724 343.542 Q 95.524 349.672 96.394 355.582 Q 97.144 360.652 100.484 363.802 Q 102.874 366.052 108.284 367.652 Q 118.964 370.822 130.104 370.972 Q 134.334 371.032 141.444 370.932 Q 147.134 370.852 152.784 370.142 Q 154.104 370.272 155.034 369.392 L 167.744 366.852 Q 168.114 368.182 169.974 368.292 Q 178.384 368.762 184.564 367.402 Q 184.784 367.352 185.014 367.352 Q 186.754 367.372 185.354 366.982 Q 185.114 366.922 185.374 366.912 Q 188.534 366.862 195.034 365.602 Q 223.974 360.012 242.844 354.912 Q 244.494 354.472 245.654 354.442 Q 248.114 354.372 248.394 354.302 Q 252.264 353.392 255.854 351.682 Q 258.434 350.462 261.214 350.182 Q 263.014 350.002 264.714 349.402 Q 266.434 348.782 268.274 348.562 Q 272.034 348.092 275.664 347.032 Q 279.444 345.922 279.544 345.892 Q 290.074 343.002 304.784 337.852 Q 311.844 335.382 316.034 333.102 Q 317.314 332.402 324.034 330.142 Q 325.584 329.872 327.024 329.322 Q 341.074 323.982 354.444 317.112 Q 366.024 311.162 374.474 303.042 Q 378.454 299.212 380.294 293.852 Q 381.714 289.702 380.744 286.262 Q 379.634 282.362 376.284 279.562 Q 372.144 275.462 366.444 274.742 Q 365.334 274.602 363.134 274.782 Q 361.464 274.932 359.784 274.892 L 358.324 274.682 C 357.987 274.613 357.753 274.346 357.764 274.042 Q 357.534 272.102 359.354 271.412 Q 359.554 271.342 359.674 271.202 Q 360.034 270.782 359.664 270.772 Q 359.514 270.772 359.304 270.882 Q 357.394 271.942 355.284 272.562 Q 358.384 269.832 361.974 267.792 Q 367.934 264.402 372.324 259.352 Q 377.474 253.422 378.224 247.772 Q 379.334 239.352 370.424 234.032 Q 362.874 229.532 354.784 228.852 Q 346.994 228.202 329.534 227.602 Q 321.524 227.332 307.784 229.892 Q 306.224 228.692 304.844 227.292 Q 303.424 225.842 303.534 224.642 Q 328.934 220.112 353.534 222.852 Q 365.554 224.192 375.994 231.352 Z " fill="rgb(243,132,38)"/><path d=" M 287.034 302.312 Q 288.684 303.072 290.534 302.892 Q 289.554 304.412 287.784 304.842 Q 278.614 307.102 270.174 311.302 Q 269.524 311.632 268.574 312.642 Q 267.054 314.252 266.034 311.562 L 271.484 309.032 Q 273.504 308.092 271.264 307.722 Q 264.414 306.592 257.414 309.572 Q 252.614 311.612 257.034 314.062 Q 255.134 318.512 250.514 319.042 Q 247.134 319.422 247.084 319.432 Q 243.194 320.182 239.284 320.812 Q 239.714 320.132 239.494 319.352 Q 239.764 318.562 239.534 317.812 L 240.784 317.392 L 251.584 312.232 C 251.926 312.133 252.1 311.848 251.974 311.592 Q 251.894 311.282 251.534 311.272 C 251.186 311.24 250.883 311.126 250.704 310.962 L 249.994 310.102 L 253.494 306.852 Q 258.484 304.722 263.784 303.562 Q 265.954 303.422 268.124 303.262 Q 270.054 303.122 272.454 303.182 Q 279.784 303.352 287.034 302.312 Z " fill="rgb(251,146,39)"/><path d=" M 363.534 251.562 Q 366.154 251.822 367.074 254.352 Q 367.294 256.702 368.994 254.852 L 369.044 255.592 C 369.097 255.911 368.95 256.231 368.654 256.442 Q 357.474 266.442 355.224 268.292 Q 352.384 270.622 347.994 273.102 L 343.694 275.312 Q 343.144 275.592 342.784 275.602 Q 339.644 275.672 336.894 277.052 Q 334.174 278.412 333.404 278.712 Q 331.584 279.392 329.784 280.142 L 328.784 280.062 L 338.564 273.572 C 338.87 273.379 339.057 273.102 339.084 272.802 Q 339.704 270.712 341.724 273.302 C 342.216 273.935 343.101 274.106 343.794 273.702 Q 347.044 271.782 349.574 268.602 Q 352.254 267.162 351.644 264.092 C 351.407 263.797 351.494 263.433 351.854 263.212 L 355.284 260.142 Q 359.214 258.102 361.574 254.352 Q 362.254 252.742 363.534 251.562 Z " fill="rgb(255,156,37)"/><path d=" M 100.534 342.392 Q 102.084 342.322 102.954 343.492 C 102.93 343.723 103.231 343.941 103.704 344.032 L 108.564 343.962 C 108.888 343.95 109.2 344.067 109.415 344.281 C 109.63 344.494 109.725 344.781 109.674 345.062 Q 109.374 346.782 109.744 347.602 Q 109.984 350.452 111.824 352.602 Q 112.114 355.122 113.994 356.602 Q 109.954 355.982 107.254 352.872 Q 104.904 350.182 106.254 352.712 Q 109.784 359.342 117.114 361.212 Q 121.324 362.292 125.534 363.342 Q 126.934 363.702 127.074 362.352 Q 132.104 364.012 137.354 363.242 C 137.677 363.176 137.967 363.022 138.184 362.802 Q 142.154 358.742 147.784 360.852 Q 149.914 361.652 153.534 360.142 L 171.974 359.912 Q 172.394 359.902 172.914 360.162 L 173.774 360.592 C 173.888 360.637 174.018 360.63 174.126 360.574 C 174.235 360.517 174.311 360.418 174.334 360.302 L 175.034 356.892 L 183.534 355.812 Q 194.384 355.432 205.034 353.312 Q 206.294 353.422 207.184 354.242 C 207.405 354.438 207.714 354.547 208.034 354.542 Q 208.954 354.422 209.864 354.272 Q 210.814 354.112 211.714 354.152 Q 217.744 354.472 223.784 354.062 Q 232.694 355.092 223.064 355.102 Q 222.534 355.102 222.014 355.242 Q 217.214 356.552 200.784 360.602 Q 198.704 361.112 196.934 361.072 Q 194.424 361.022 193.174 361.322 Q 189.904 362.102 186.594 362.632 Q 184.214 363.022 180.014 363.862 Q 174.554 364.972 170.284 364.602 Q 167.994 364.402 167.784 366.142 Q 164.944 364.892 160.784 365.102 Q 159.954 365.142 155.284 364.812 Q 155.644 364.392 155.554 364.022 C 155.522 363.774 155.217 363.565 154.794 363.502 Q 150.894 362.752 146.944 363.372 Q 144.164 363.802 147.034 363.852 Q 149.444 363.892 150.604 364.812 Q 151.034 365.162 150.494 365.272 Q 147.774 365.842 144.534 365.352 Q 141.574 364.902 138.194 365.812 C 138.093 365.834 137.987 365.804 137.914 365.732 L 137.784 365.602 C 137.621 365.442 137.405 365.343 137.174 365.322 Q 128.954 364.692 120.784 365.812 Q 113.264 365.352 106.284 362.562 Q 106.484 361.622 105.694 360.942 Q 103.734 359.262 103.364 356.902 Q 102.904 353.972 102.874 353.872 Q 102.034 350.132 102.984 346.342 Q 103.394 344.732 102.034 344.062 Q 101.564 342.962 100.534 342.392 Z " fill="rgb(255,156,37)"/><path d=" M 135.994 289.352 L 135.244 295.852 Q 120.414 302.272 113.344 306.412 Q 109.044 308.932 104.744 314.852 Q 104.514 316.422 103.324 317.352 L 103.524 315.912 Q 103.604 315.322 103.034 315.652 Q 101.554 316.532 100.844 317.662 Q 99.524 319.772 98.334 322.852 Q 98.134 323.362 97.614 325.932 Q 97.294 327.522 96.344 328.912 Q 95.024 330.862 96.284 332.602 Q 97.864 334.772 99.824 333.352 Q 105.124 336.972 111.534 338.062 Q 110.904 338.142 110.404 338.512 C 110.176 338.674 109.872 338.78 109.544 338.812 Q 104.914 338.492 100.284 338.352 Q 98.904 338.312 96.494 336.602 Q 94.514 336.512 94.094 335.542 Q 91.094 328.592 93.844 322.662 Q 97.794 314.162 106.834 307.422 Q 109.114 305.722 111.034 303.642 Q 120.434 297.542 130.414 292.422 Q 132.894 291.152 134.854 289.182 Q 135.454 288.582 135.994 289.352 Z " fill="rgb(186,157,99)"/><path d=" M 203.034 315.892 Q 202.984 317.352 203.684 318.502 C 203.842 318.731 204.134 318.893 204.474 318.942 L 208.534 319.392 L 201.784 321.142 Q 197.854 320.312 194.034 321.642 L 176.034 324.312 Q 175.954 323.152 174.784 323.062 L 174.574 322.612 C 174.444 322.347 174.145 322.206 173.854 322.272 Q 171.684 322.802 167.974 324.292 Q 164.314 325.762 159.474 325.222 C 159.145 325.149 158.856 324.997 158.654 324.792 Q 158.174 324.312 157.534 324.062 Q 159.164 323.562 160.774 323.062 Q 162.214 322.622 161.034 322.062 Q 165.474 321.692 166.284 321.352 Q 170.444 319.602 174.824 320.312 Q 176.194 320.532 177.104 320.292 Q 178.214 320.002 179.304 319.502 Q 180.174 319.102 179.214 319.102 L 173.034 319.062 Q 179.414 319.082 185.714 318.262 Q 192.464 317.382 194.384 317.162 Q 198.724 316.662 203.034 315.892 Z " fill="rgb(186,157,99)"/><path d=" M 328.784 280.062 L 329.784 280.142 Q 328.234 280.762 327.044 281.852 Q 325.414 283.362 324.574 283.822 Q 315.334 288.992 305.494 292.922 C 305.196 293 304.859 293 304.564 292.922 L 303.284 292.062 L 328.784 280.062 Z " fill="rgb(221,139,81)"/><path d=" M 134.994 314.602 L 135.944 315.972 C 136.139 316.243 136.45 316.406 136.784 316.412 L 143.034 316.562 Q 145.724 316.492 148.394 316.752 Q 151.084 317.022 153.674 316.692 Q 159.954 315.872 166.284 316.642 Q 165.694 317.552 166.074 318.362 C 166.204 318.624 166.49 318.824 166.844 318.902 Q 169.914 319.552 173.034 319.062 L 179.214 319.102 Q 180.174 319.102 179.304 319.502 Q 178.214 320.002 177.104 320.292 Q 176.194 320.532 174.824 320.312 Q 170.444 319.602 166.284 321.352 Q 165.474 321.692 161.034 322.062 Q 156.194 322.042 151.824 324.102 Q 151.094 322.662 149.844 323.162 Q 147.214 324.242 145.284 323.062 Q 148.104 321.612 151.284 321.642 Q 153.914 321.662 156.304 321.082 C 156.363 321.069 156.411 321.026 156.43 320.968 C 156.448 320.91 156.435 320.847 156.394 320.802 Q 154.654 318.662 152.344 319.042 Q 149.214 319.552 139.784 319.362 Q 139.454 319.352 138.884 319.642 L 136.534 320.812 Q 135.734 319.442 135.774 318.072 C 135.794 317.794 135.685 317.521 135.476 317.33 C 135.266 317.138 134.979 317.047 134.694 317.082 L 131.834 317.552 C 131.506 317.645 131.265 317.871 131.204 318.142 Q 130.604 319.742 129.104 319.212 C 128.553 319.023 127.95 319.045 127.414 319.272 Q 124.744 320.442 124.844 318.172 C 124.885 317.266 125.47 316.476 126.324 316.172 Q 130.534 314.682 134.994 314.602 Z " fill="rgb(221,139,81)"/><path d=" M 103.244 320.852 Q 103.254 323.982 104.534 326.812 Q 103.724 327.522 104.004 328.392 Q 104.194 328.982 105.034 329.332 Q 110.624 331.652 116.724 331.782 Q 116.904 331.792 116.724 331.732 Q 116.574 331.682 116.514 331.622 Q 116.214 331.322 116.834 331.382 Q 123.624 332.032 130.284 330.562 Q 131.144 331.622 132.474 334.292 Q 132.944 335.242 134.534 334.892 L 126.534 335.642 Q 124.324 335.922 122.374 335.242 Q 119.364 334.192 118.514 334.062 Q 115.584 333.602 112.704 332.942 Q 112.614 332.922 110.014 331.902 Q 108.494 331.302 106.754 331.722 C 106.441 331.766 106.116 331.756 105.814 331.692 L 102.484 330.322 C 102.157 330.185 101.974 329.898 102.024 329.602 L 101.744 325.352 L 103.244 320.852 Z " fill="rgb(221,139,81)"/><path d=" M 118.494 345.102 Q 126.384 349.612 135.534 349.892 Q 132.614 350.342 135.204 351.742 Q 135.834 352.082 136.434 352.462 Q 137.074 352.862 137.744 352.932 Q 145.444 353.792 153.034 352.062 L 164.284 351.312 Q 164.934 351.292 165.254 351.722 C 165.355 351.935 165.616 352.112 165.964 352.202 L 174.034 353.042 Q 174.474 353.082 174.944 353.392 Q 176.774 354.582 179.034 354.392 Q 171.404 356.042 162.784 355.602 Q 154.294 355.172 142.784 355.602 Q 140.544 355.682 134.034 355.062 Q 129.884 354.552 126.004 353.042 C 125.65 352.891 125.422 352.648 125.384 352.382 Q 124.854 351.252 123.034 351.352 Q 117.424 351.662 115.324 346.102 L 115.034 342.392 Q 117.484 340.892 117.034 343.352 Q 116.794 344.682 118.494 345.102 Z " fill="rgb(221,139,81)"/><path d=" M 208.534 349.642 Q 199.994 352.622 191.074 354.102 Q 190.844 352.732 189.284 353.062 Q 193.384 352.522 197.014 350.722 Q 199.474 349.502 201.334 349.392 Q 204.934 349.172 208.534 349.642 Z " fill="rgb(221,139,81)"/><path d=" M 226.034 315.392 Q 224.904 317.442 227.034 317.642 Q 220.714 320.052 214.034 321.142 Q 211.414 321.192 206.844 322.412 Q 204.894 322.942 198.034 323.892 Q 196.234 324.142 196.504 323.242 C 196.572 322.961 196.834 322.726 197.194 322.622 L 201.784 321.142 L 208.534 319.392 L 226.034 315.392 Z " fill="rgb(254,179,41)"/><path d=" M 174.784 323.062 Q 171.334 323.832 168.114 325.242 Q 163.734 327.152 161.594 327.692 Q 154.884 329.402 151.344 329.542 Q 149.454 329.612 147.034 327.312 L 150.534 326.142 L 157.534 324.062 Q 158.174 324.312 158.654 324.792 C 158.856 324.997 159.145 325.149 159.474 325.222 Q 164.314 325.762 167.974 324.292 Q 171.684 322.802 173.854 322.272 C 174.145 322.206 174.444 322.347 174.574 322.612 L 174.784 323.062 Z " fill="rgb(254,179,41)"/><path d=" M 208.784 323.312 Q 209.244 324.292 207.994 324.612 Q 198.644 326.982 189.034 327.892 Q 188.344 326.892 189.534 326.142 Q 199.244 325.312 208.784 323.312 Z " fill="rgb(254,179,41)"/><path d=" M 102.034 344.062 Q 103.394 344.732 102.984 346.342 Q 102.034 350.132 102.874 353.872 Q 102.904 353.972 103.364 356.902 Q 103.734 359.262 105.694 360.942 Q 106.484 361.622 106.284 362.562 Q 98.784 358.752 99.644 350.092 Q 99.844 348.092 100.784 344.852 Q 101.074 343.872 102.034 344.062 Z " fill="rgb(219,215,157)"/><path d=" M 376.284 279.562 Q 375.424 279.922 374.844 279.542 Q 368.504 275.332 361.034 276.642 Q 356.534 276.372 359.784 274.892 Q 361.464 274.932 363.134 274.782 Q 365.334 274.602 366.444 274.742 Q 372.144 275.462 376.284 279.562 Z " fill="rgb(191,155,107)"/><path d=" M 361.574 283.102 Q 368.204 287.692 366.334 294.302 Q 365.504 297.212 362.374 299.912 Q 354.984 306.272 345.784 309.892 Q 335.974 314.062 322.974 318.792 Q 315.764 321.412 309.534 322.812 Q 307.594 322.642 305.964 323.582 C 305.691 323.725 305.369 323.795 305.044 323.782 L 302.184 323.372 C 302.105 323.362 302.038 323.313 302.006 323.244 C 301.973 323.175 301.98 323.095 302.024 323.032 Q 302.834 321.712 304.284 321.642 Q 307.074 320.382 310.034 319.602 Q 312.654 318.912 313.534 318.602 Q 322.374 315.492 313.014 317.972 Q 312.524 318.102 312.984 317.862 Q 316.954 315.732 321.234 314.322 Q 321.284 314.312 324.584 312.942 Q 326.794 312.022 329.294 312.292 C 329.585 312.304 329.854 312.149 329.974 311.902 Q 330.784 310.292 332.784 310.142 Q 348.204 306.492 360.284 296.372 Q 361.074 295.712 361.324 294.972 Q 361.624 294.102 361.614 293.162 Q 361.614 292.762 361.834 292.232 Q 362.264 291.182 361.284 290.102 Q 360.304 289.022 359.224 286.552 C 359.098 286.273 359.153 285.949 359.364 285.722 L 361.574 283.102 Z " fill="rgb(191,155,107)"/><path d=" M 101.744 325.352 L 102.024 329.602 C 101.974 329.898 102.157 330.185 102.484 330.322 L 105.814 331.692 C 106.116 331.756 106.441 331.766 106.754 331.722 Q 108.494 331.302 110.014 331.902 Q 112.614 332.922 112.704 332.942 Q 115.584 333.602 118.514 334.062 Q 119.364 334.192 122.374 335.242 Q 124.324 335.922 126.534 335.642 Q 123.534 337.292 120.034 336.892 Q 110.144 337.192 101.904 332.062 C 101.617 331.886 101.416 331.613 101.344 331.302 Q 100.624 328.252 101.744 325.352 Z " fill="rgb(191,155,107)"/><path d=" M 152.744 368.102 Q 153.274 369.662 155.034 369.392 Q 154.104 370.272 152.784 370.142 Q 151.874 370.092 151.904 369.162 C 152.017 368.875 151.871 368.568 151.544 368.402 Q 149.894 367.502 147.534 367.602 Q 139.684 367.932 129.534 366.892 L 137.534 367.112 C 137.901 367.046 138.202 366.909 138.364 366.732 Q 138.754 366.402 139.284 366.382 Q 144.784 366.202 151.274 366.082 C 151.52 366.078 151.755 366.184 151.914 366.372 C 152.073 366.56 152.139 366.81 152.094 367.052 Q 151.764 368.782 152.744 368.102 Z " fill="rgb(191,155,107)"/><path d=" M 161.034 322.062 Q 162.214 322.622 160.774 323.062 Q 159.164 323.562 157.534 324.062 L 150.534 326.142 L 149.284 325.562 L 151.824 324.102 Q 156.194 322.042 161.034 322.062 Z " fill="rgb(243,241,165)"/><path d=" M 112.534 342.892 Q 110.364 343.892 111.224 346.662 Q 112.454 350.662 115.634 352.222 Q 122.744 355.722 130.534 357.312 Q 136.214 358.882 142.034 357.812 L 144.534 357.812 Q 145.994 357.392 146.284 358.562 Q 141.824 359.102 137.734 360.902 C 137.442 361.02 137.119 361.058 136.804 361.012 Q 129.314 359.582 121.844 358.072 Q 115.964 356.882 111.824 352.602 Q 109.984 350.452 109.744 347.602 Q 108.744 343.392 112.534 342.892 Z " fill="rgb(243,241,165)"/><path d=" M 174.784 373.392 Q 178.474 376.922 183.284 378.642 Q 183.414 379.802 182.784 380.812 Q 178.074 380.282 174.244 383.102 Q 169.154 379.802 165.284 375.142 Q 166.394 374.992 166.534 373.872 C 166.558 373.664 166.717 373.496 166.924 373.462 Q 171.174 372.722 174.784 373.392 Z " fill="rgb(255,106,114)"/><path d=" M 266.034 311.562 L 257.034 314.062 Q 252.614 311.612 257.414 309.572 Q 264.414 306.592 271.264 307.722 Q 273.504 308.092 271.484 309.032 L 266.034 311.562 Z " fill="rgb(247,234,153)"/><path d=" M 104.744 314.852 L 104.744 316.102 L 103.244 320.852 L 101.744 325.352 Q 100.624 328.252 101.344 331.302 C 101.416 331.613 101.617 331.886 101.904 332.062 Q 110.144 337.192 120.034 336.892 Q 121.254 337.262 122.534 337.142 Q 125.024 336.902 123.944 338.172 C 123.891 338.236 123.877 338.322 123.908 338.398 C 123.939 338.474 124.01 338.529 124.094 338.542 L 125.284 338.812 L 111.534 338.062 Q 105.124 336.972 99.824 333.352 Q 98.674 330.042 99.584 326.612 Q 100.864 321.742 103.324 317.352 Q 104.514 316.422 104.744 314.852 Z " fill="rgb(247,234,153)"/><path d=" M 106.244 317.602 Q 107.314 321.922 110.844 323.542 Q 117.984 326.812 126.544 325.842 Q 128.064 325.672 129.984 326.052 Q 131.734 326.412 133.534 326.312 Q 134.414 327.002 135.354 326.592 C 135.598 326.521 135.864 326.601 136.014 326.792 Q 136.434 327.332 137.284 327.142 Q 133.044 328.842 128.534 327.812 Q 130.174 326.562 128.064 326.582 Q 127.644 326.582 127.034 326.702 Q 120.114 328.032 113.284 326.352 Q 106.884 324.782 104.744 318.602 Q 104.874 317.272 106.244 317.602 Z " fill="rgb(247,234,153)"/><path d=" M 251.034 341.062 Q 251.934 341.392 250.984 342.032 Q 248.434 343.732 245.534 344.402 Q 242.144 345.182 240.614 345.862 Q 235.644 348.072 233.034 348.602 Q 230.204 349.182 215.354 350.982 C 215.02 350.968 214.698 350.895 214.424 350.772 Q 213.284 350.162 213.284 351.812 Q 210.234 352.912 208.534 352.602 Q 206.204 352.172 205.034 353.312 Q 194.384 355.432 183.534 355.812 L 191.074 354.102 Q 199.994 352.622 208.534 349.642 L 213.284 349.062 Q 218.504 349.762 221.784 348.852 Q 225.594 347.792 228.214 347.992 C 228.539 347.972 228.847 347.866 229.084 347.692 L 229.824 347.102 Q 235.364 347.292 240.034 344.392 Q 240.814 344.172 241.494 343.742 Q 245.844 341.032 251.034 341.062 Z " fill="rgb(247,234,153)"/><path d=" M 155.284 364.812 Q 159.954 365.142 160.784 365.102 Q 164.944 364.892 167.784 366.142 L 167.744 366.852 L 155.034 369.392 Q 153.274 369.662 152.744 368.102 Q 152.164 364.762 155.284 364.812 Z " fill="rgb(247,234,153)"/><path d=" M 116.574 307.852 L 120.574 305.852 Q 125.534 304.532 130.054 302.142 Q 132.494 300.852 130.964 302.752 Q 130.734 303.032 130.374 303.162 Q 126.354 304.702 124.064 308.102 Q 122.164 310.922 121.224 311.412 Q 118.604 312.772 116.284 309.602 Q 115.694 308.802 116.574 307.852 Z " fill="rgb(253,242,145)"/><path d=" M 291.734 328.112 Q 289.124 327.302 291.694 326.372 Q 292.274 326.172 293.014 326.132 Q 302.814 325.652 312.574 324.672 Q 313.244 324.602 313.954 324.352 Q 314.624 324.122 315.304 323.922 Q 315.544 323.842 315.764 323.892 Q 316.684 324.092 315.744 324.522 Q 311.664 326.412 307.424 327.882 Q 299.664 330.572 291.734 328.112 Z " fill="rgb(254,249,74)"/></g></g></svg>